<?xml version="1.0" encoding="utf-8" standalone="no"?>
<!DOCTYPE svg PUBLIC "-//W3C//DTD SVG 1.1//EN"
  "http://www.w3.org/Graphics/SVG/1.1/DTD/svg11.dtd">
<!-- Created with matplotlib (http://matplotlib.org/) -->
<svg height="720pt" version="1.1" viewBox="0 0 1440 720" width="1440pt" xmlns="http://www.w3.org/2000/svg" xmlns:xlink="http://www.w3.org/1999/xlink">
 <defs>
  <style type="text/css">
*{stroke-linecap:butt;stroke-linejoin:round;}
  </style>
 </defs>
 <g id="figure_1">
  <g id="patch_1">
   <path d="M 0 720 
L 1440 720 
L 1440 0 
L 0 0 
z
" style="fill:#ffffff;"/>
  </g>
  <g id="axes_1">
   <g id="patch_2">
    <path d="M 180 249.458824 
L 1296 249.458824 
L 1296 86.4 
L 180 86.4 
z
" style="fill:#ffffff;"/>
   </g>
   <g id="matplotlib.axis_1">
    <g id="xtick_1">
     <g id="line2d_1">
      <defs>
       <path d="M 0 0 
L 0 3.5 
" id="m17944b6762" style="stroke:#000000;stroke-width:0.8;"/>
      </defs>
      <g>
       <use style="stroke:#000000;stroke-width:0.8;" x="225.629054" xlink:href="#m17944b6762" y="249.458824"/>
      </g>
     </g>
     <g id="text_1">
      <!-- 0 -->
      <defs>
       <path d="M 31.78125 66.40625 
Q 24.171875 66.40625 20.328125 58.90625 
Q 16.5 51.421875 16.5 36.375 
Q 16.5 21.390625 20.328125 13.890625 
Q 24.171875 6.390625 31.78125 6.390625 
Q 39.453125 6.390625 43.28125 13.890625 
Q 47.125 21.390625 47.125 36.375 
Q 47.125 51.421875 43.28125 58.90625 
Q 39.453125 66.40625 31.78125 66.40625 
z
M 31.78125 74.21875 
Q 44.046875 74.21875 50.515625 64.515625 
Q 56.984375 54.828125 56.984375 36.375 
Q 56.984375 17.96875 50.515625 8.265625 
Q 44.046875 -1.421875 31.78125 -1.421875 
Q 19.53125 -1.421875 13.0625 8.265625 
Q 6.59375 17.96875 6.59375 36.375 
Q 6.59375 54.828125 13.0625 64.515625 
Q 19.53125 74.21875 31.78125 74.21875 
z
" id="DejaVuSans-30"/>
      </defs>
      <g transform="translate(222.447804 264.057261)scale(0.1 -0.1)">
       <use xlink:href="#DejaVuSans-30"/>
      </g>
     </g>
    </g>
    <g id="xtick_2">
     <g id="line2d_2">
      <g>
       <use style="stroke:#000000;stroke-width:0.8;" x="353.084513" xlink:href="#m17944b6762" y="249.458824"/>
      </g>
     </g>
     <g id="text_2">
      <!-- 500 -->
      <defs>
       <path d="M 10.796875 72.90625 
L 49.515625 72.90625 
L 49.515625 64.59375 
L 19.828125 64.59375 
L 19.828125 46.734375 
Q 21.96875 47.46875 24.109375 47.828125 
Q 26.265625 48.1875 28.421875 48.1875 
Q 40.625 48.1875 47.75 41.5 
Q 54.890625 34.8125 54.890625 23.390625 
Q 54.890625 11.625 47.5625 5.09375 
Q 40.234375 -1.421875 26.90625 -1.421875 
Q 22.3125 -1.421875 17.546875 -0.640625 
Q 12.796875 0.140625 7.71875 1.703125 
L 7.71875 11.625 
Q 12.109375 9.234375 16.796875 8.0625 
Q 21.484375 6.890625 26.703125 6.890625 
Q 35.15625 6.890625 40.078125 11.328125 
Q 45.015625 15.765625 45.015625 23.390625 
Q 45.015625 31 40.078125 35.4375 
Q 35.15625 39.890625 26.703125 39.890625 
Q 22.75 39.890625 18.8125 39.015625 
Q 14.890625 38.140625 10.796875 36.28125 
z
" id="DejaVuSans-35"/>
      </defs>
      <g transform="translate(343.540763 264.057261)scale(0.1 -0.1)">
       <use xlink:href="#DejaVuSans-35"/>
       <use x="63.623047" xlink:href="#DejaVuSans-30"/>
       <use x="127.246094" xlink:href="#DejaVuSans-30"/>
      </g>
     </g>
    </g>
    <g id="xtick_3">
     <g id="line2d_3">
      <g>
       <use style="stroke:#000000;stroke-width:0.8;" x="480.539973" xlink:href="#m17944b6762" y="249.458824"/>
      </g>
     </g>
     <g id="text_3">
      <!-- 1000 -->
      <defs>
       <path d="M 12.40625 8.296875 
L 28.515625 8.296875 
L 28.515625 63.921875 
L 10.984375 60.40625 
L 10.984375 69.390625 
L 28.421875 72.90625 
L 38.28125 72.90625 
L 38.28125 8.296875 
L 54.390625 8.296875 
L 54.390625 0 
L 12.40625 0 
z
" id="DejaVuSans-31"/>
      </defs>
      <g transform="translate(467.814973 264.057261)scale(0.1 -0.1)">
       <use xlink:href="#DejaVuSans-31"/>
       <use x="63.623047" xlink:href="#DejaVuSans-30"/>
       <use x="127.246094" xlink:href="#DejaVuSans-30"/>
       <use x="190.869141" xlink:href="#DejaVuSans-30"/>
      </g>
     </g>
    </g>
    <g id="xtick_4">
     <g id="line2d_4">
      <g>
       <use style="stroke:#000000;stroke-width:0.8;" x="607.995432" xlink:href="#m17944b6762" y="249.458824"/>
      </g>
     </g>
     <g id="text_4">
      <!-- 1500 -->
      <g transform="translate(595.270432 264.057261)scale(0.1 -0.1)">
       <use xlink:href="#DejaVuSans-31"/>
       <use x="63.623047" xlink:href="#DejaVuSans-35"/>
       <use x="127.246094" xlink:href="#DejaVuSans-30"/>
       <use x="190.869141" xlink:href="#DejaVuSans-30"/>
      </g>
     </g>
    </g>
    <g id="xtick_5">
     <g id="line2d_5">
      <g>
       <use style="stroke:#000000;stroke-width:0.8;" x="735.450891" xlink:href="#m17944b6762" y="249.458824"/>
      </g>
     </g>
     <g id="text_5">
      <!-- 2000 -->
      <defs>
       <path d="M 19.1875 8.296875 
L 53.609375 8.296875 
L 53.609375 0 
L 7.328125 0 
L 7.328125 8.296875 
Q 12.9375 14.109375 22.625 23.890625 
Q 32.328125 33.6875 34.8125 36.53125 
Q 39.546875 41.84375 41.421875 45.53125 
Q 43.3125 49.21875 43.3125 52.78125 
Q 43.3125 58.59375 39.234375 62.25 
Q 35.15625 65.921875 28.609375 65.921875 
Q 23.96875 65.921875 18.8125 64.3125 
Q 13.671875 62.703125 7.8125 59.421875 
L 7.8125 69.390625 
Q 13.765625 71.78125 18.9375 73 
Q 24.125 74.21875 28.421875 74.21875 
Q 39.75 74.21875 46.484375 68.546875 
Q 53.21875 62.890625 53.21875 53.421875 
Q 53.21875 48.921875 51.53125 44.890625 
Q 49.859375 40.875 45.40625 35.40625 
Q 44.1875 33.984375 37.640625 27.21875 
Q 31.109375 20.453125 19.1875 8.296875 
z
" id="DejaVuSans-32"/>
      </defs>
      <g transform="translate(722.725891 264.057261)scale(0.1 -0.1)">
       <use xlink:href="#DejaVuSans-32"/>
       <use x="63.623047" xlink:href="#DejaVuSans-30"/>
       <use x="127.246094" xlink:href="#DejaVuSans-30"/>
       <use x="190.869141" xlink:href="#DejaVuSans-30"/>
      </g>
     </g>
    </g>
    <g id="xtick_6">
     <g id="line2d_6">
      <g>
       <use style="stroke:#000000;stroke-width:0.8;" x="862.90635" xlink:href="#m17944b6762" y="249.458824"/>
      </g>
     </g>
     <g id="text_6">
      <!-- 2500 -->
      <g transform="translate(850.18135 264.057261)scale(0.1 -0.1)">
       <use xlink:href="#DejaVuSans-32"/>
       <use x="63.623047" xlink:href="#DejaVuSans-35"/>
       <use x="127.246094" xlink:href="#DejaVuSans-30"/>
       <use x="190.869141" xlink:href="#DejaVuSans-30"/>
      </g>
     </g>
    </g>
    <g id="xtick_7">
     <g id="line2d_7">
      <g>
       <use style="stroke:#000000;stroke-width:0.8;" x="990.361809" xlink:href="#m17944b6762" y="249.458824"/>
      </g>
     </g>
     <g id="text_7">
      <!-- 3000 -->
      <defs>
       <path d="M 40.578125 39.3125 
Q 47.65625 37.796875 51.625 33 
Q 55.609375 28.21875 55.609375 21.1875 
Q 55.609375 10.40625 48.1875 4.484375 
Q 40.765625 -1.421875 27.09375 -1.421875 
Q 22.515625 -1.421875 17.65625 -0.515625 
Q 12.796875 0.390625 7.625 2.203125 
L 7.625 11.71875 
Q 11.71875 9.328125 16.59375 8.109375 
Q 21.484375 6.890625 26.8125 6.890625 
Q 36.078125 6.890625 40.9375 10.546875 
Q 45.796875 14.203125 45.796875 21.1875 
Q 45.796875 27.640625 41.28125 31.265625 
Q 36.765625 34.90625 28.71875 34.90625 
L 20.21875 34.90625 
L 20.21875 43.015625 
L 29.109375 43.015625 
Q 36.375 43.015625 40.234375 45.921875 
Q 44.09375 48.828125 44.09375 54.296875 
Q 44.09375 59.90625 40.109375 62.90625 
Q 36.140625 65.921875 28.71875 65.921875 
Q 24.65625 65.921875 20.015625 65.03125 
Q 15.375 64.15625 9.8125 62.3125 
L 9.8125 71.09375 
Q 15.4375 72.65625 20.34375 73.4375 
Q 25.25 74.21875 29.59375 74.21875 
Q 40.828125 74.21875 47.359375 69.109375 
Q 53.90625 64.015625 53.90625 55.328125 
Q 53.90625 49.265625 50.4375 45.09375 
Q 46.96875 40.921875 40.578125 39.3125 
z
" id="DejaVuSans-33"/>
      </defs>
      <g transform="translate(977.636809 264.057261)scale(0.1 -0.1)">
       <use xlink:href="#DejaVuSans-33"/>
       <use x="63.623047" xlink:href="#DejaVuSans-30"/>
       <use x="127.246094" xlink:href="#DejaVuSans-30"/>
       <use x="190.869141" xlink:href="#DejaVuSans-30"/>
      </g>
     </g>
    </g>
    <g id="xtick_8">
     <g id="line2d_8">
      <g>
       <use style="stroke:#000000;stroke-width:0.8;" x="1117.817268" xlink:href="#m17944b6762" y="249.458824"/>
      </g>
     </g>
     <g id="text_8">
      <!-- 3500 -->
      <g transform="translate(1105.092268 264.057261)scale(0.1 -0.1)">
       <use xlink:href="#DejaVuSans-33"/>
       <use x="63.623047" xlink:href="#DejaVuSans-35"/>
       <use x="127.246094" xlink:href="#DejaVuSans-30"/>
       <use x="190.869141" xlink:href="#DejaVuSans-30"/>
      </g>
     </g>
    </g>
    <g id="xtick_9">
     <g id="line2d_9">
      <g>
       <use style="stroke:#000000;stroke-width:0.8;" x="1245.272727" xlink:href="#m17944b6762" y="249.458824"/>
      </g>
     </g>
     <g id="text_9">
      <!-- 4000 -->
      <defs>
       <path d="M 37.796875 64.3125 
L 12.890625 25.390625 
L 37.796875 25.390625 
z
M 35.203125 72.90625 
L 47.609375 72.90625 
L 47.609375 25.390625 
L 58.015625 25.390625 
L 58.015625 17.1875 
L 47.609375 17.1875 
L 47.609375 0 
L 37.796875 0 
L 37.796875 17.1875 
L 4.890625 17.1875 
L 4.890625 26.703125 
z
" id="DejaVuSans-34"/>
      </defs>
      <g transform="translate(1232.547727 264.057261)scale(0.1 -0.1)">
       <use xlink:href="#DejaVuSans-34"/>
       <use x="63.623047" xlink:href="#DejaVuSans-30"/>
       <use x="127.246094" xlink:href="#DejaVuSans-30"/>
       <use x="190.869141" xlink:href="#DejaVuSans-30"/>
      </g>
     </g>
    </g>
   </g>
   <g id="matplotlib.axis_2">
    <g id="ytick_1">
     <g id="line2d_10">
      <defs>
       <path d="M 0 0 
L -3.5 0 
" id="m98c16e4f91" style="stroke:#000000;stroke-width:0.8;"/>
      </defs>
      <g>
       <use style="stroke:#000000;stroke-width:0.8;" x="180" xlink:href="#m98c16e4f91" y="236.361754"/>
      </g>
     </g>
     <g id="text_10">
      <!-- −3 -->
      <defs>
       <path d="M 10.59375 35.5 
L 73.1875 35.5 
L 73.1875 27.203125 
L 10.59375 27.203125 
z
" id="DejaVuSans-2212"/>
      </defs>
      <g transform="translate(158.257812 240.160973)scale(0.1 -0.1)">
       <use xlink:href="#DejaVuSans-2212"/>
       <use x="83.789062" xlink:href="#DejaVuSans-33"/>
      </g>
     </g>
    </g>
    <g id="ytick_2">
     <g id="line2d_11">
      <g>
       <use style="stroke:#000000;stroke-width:0.8;" x="180" xlink:href="#m98c16e4f91" y="198.459725"/>
      </g>
     </g>
     <g id="text_11">
      <!-- −2 -->
      <g transform="translate(158.257812 202.258944)scale(0.1 -0.1)">
       <use xlink:href="#DejaVuSans-2212"/>
       <use x="83.789062" xlink:href="#DejaVuSans-32"/>
      </g>
     </g>
    </g>
    <g id="ytick_3">
     <g id="line2d_12">
      <g>
       <use style="stroke:#000000;stroke-width:0.8;" x="180" xlink:href="#m98c16e4f91" y="160.557696"/>
      </g>
     </g>
     <g id="text_12">
      <!-- −1 -->
      <g transform="translate(158.257812 164.356915)scale(0.1 -0.1)">
       <use xlink:href="#DejaVuSans-2212"/>
       <use x="83.789062" xlink:href="#DejaVuSans-31"/>
      </g>
     </g>
    </g>
    <g id="ytick_4">
     <g id="line2d_13">
      <g>
       <use style="stroke:#000000;stroke-width:0.8;" x="180" xlink:href="#m98c16e4f91" y="122.655667"/>
      </g>
     </g>
     <g id="text_13">
      <!-- 0 -->
      <g transform="translate(166.6375 126.454885)scale(0.1 -0.1)">
       <use xlink:href="#DejaVuSans-30"/>
      </g>
     </g>
    </g>
    <g id="text_14">
     <!-- TD State:0 -->
     <defs>
      <path d="M -0.296875 72.90625 
L 61.375 72.90625 
L 61.375 64.59375 
L 35.5 64.59375 
L 35.5 0 
L 25.59375 0 
L 25.59375 64.59375 
L -0.296875 64.59375 
z
" id="DejaVuSans-54"/>
      <path d="M 19.671875 64.796875 
L 19.671875 8.109375 
L 31.59375 8.109375 
Q 46.6875 8.109375 53.6875 14.9375 
Q 60.6875 21.78125 60.6875 36.53125 
Q 60.6875 51.171875 53.6875 57.984375 
Q 46.6875 64.796875 31.59375 64.796875 
z
M 9.8125 72.90625 
L 30.078125 72.90625 
Q 51.265625 72.90625 61.171875 64.09375 
Q 71.09375 55.28125 71.09375 36.53125 
Q 71.09375 17.671875 61.125 8.828125 
Q 51.171875 0 30.078125 0 
L 9.8125 0 
z
" id="DejaVuSans-44"/>
      <path id="DejaVuSans-20"/>
      <path d="M 53.515625 70.515625 
L 53.515625 60.890625 
Q 47.90625 63.578125 42.921875 64.890625 
Q 37.9375 66.21875 33.296875 66.21875 
Q 25.25 66.21875 20.875 63.09375 
Q 16.5 59.96875 16.5 54.203125 
Q 16.5 49.359375 19.40625 46.890625 
Q 22.3125 44.4375 30.421875 42.921875 
L 36.375 41.703125 
Q 47.40625 39.59375 52.65625 34.296875 
Q 57.90625 29 57.90625 20.125 
Q 57.90625 9.515625 50.796875 4.046875 
Q 43.703125 -1.421875 29.984375 -1.421875 
Q 24.8125 -1.421875 18.96875 -0.25 
Q 13.140625 0.921875 6.890625 3.21875 
L 6.890625 13.375 
Q 12.890625 10.015625 18.65625 8.296875 
Q 24.421875 6.59375 29.984375 6.59375 
Q 38.421875 6.59375 43.015625 9.90625 
Q 47.609375 13.234375 47.609375 19.390625 
Q 47.609375 24.75 44.3125 27.78125 
Q 41.015625 30.8125 33.5 32.328125 
L 27.484375 33.5 
Q 16.453125 35.6875 11.515625 40.375 
Q 6.59375 45.0625 6.59375 53.421875 
Q 6.59375 63.09375 13.40625 68.65625 
Q 20.21875 74.21875 32.171875 74.21875 
Q 37.3125 74.21875 42.625 73.28125 
Q 47.953125 72.359375 53.515625 70.515625 
z
" id="DejaVuSans-53"/>
      <path d="M 18.3125 70.21875 
L 18.3125 54.6875 
L 36.8125 54.6875 
L 36.8125 47.703125 
L 18.3125 47.703125 
L 18.3125 18.015625 
Q 18.3125 11.328125 20.140625 9.421875 
Q 21.96875 7.515625 27.59375 7.515625 
L 36.8125 7.515625 
L 36.8125 0 
L 27.59375 0 
Q 17.1875 0 13.234375 3.875 
Q 9.28125 7.765625 9.28125 18.015625 
L 9.28125 47.703125 
L 2.6875 47.703125 
L 2.6875 54.6875 
L 9.28125 54.6875 
L 9.28125 70.21875 
z
" id="DejaVuSans-74"/>
      <path d="M 34.28125 27.484375 
Q 23.390625 27.484375 19.1875 25 
Q 14.984375 22.515625 14.984375 16.5 
Q 14.984375 11.71875 18.140625 8.90625 
Q 21.296875 6.109375 26.703125 6.109375 
Q 34.1875 6.109375 38.703125 11.40625 
Q 43.21875 16.703125 43.21875 25.484375 
L 43.21875 27.484375 
z
M 52.203125 31.203125 
L 52.203125 0 
L 43.21875 0 
L 43.21875 8.296875 
Q 40.140625 3.328125 35.546875 0.953125 
Q 30.953125 -1.421875 24.3125 -1.421875 
Q 15.921875 -1.421875 10.953125 3.296875 
Q 6 8.015625 6 15.921875 
Q 6 25.140625 12.171875 29.828125 
Q 18.359375 34.515625 30.609375 34.515625 
L 43.21875 34.515625 
L 43.21875 35.40625 
Q 43.21875 41.609375 39.140625 45 
Q 35.0625 48.390625 27.6875 48.390625 
Q 23 48.390625 18.546875 47.265625 
Q 14.109375 46.140625 10.015625 43.890625 
L 10.015625 52.203125 
Q 14.9375 54.109375 19.578125 55.046875 
Q 24.21875 56 28.609375 56 
Q 40.484375 56 46.34375 49.84375 
Q 52.203125 43.703125 52.203125 31.203125 
z
" id="DejaVuSans-61"/>
      <path d="M 56.203125 29.59375 
L 56.203125 25.203125 
L 14.890625 25.203125 
Q 15.484375 15.921875 20.484375 11.0625 
Q 25.484375 6.203125 34.421875 6.203125 
Q 39.59375 6.203125 44.453125 7.46875 
Q 49.3125 8.734375 54.109375 11.28125 
L 54.109375 2.78125 
Q 49.265625 0.734375 44.1875 -0.34375 
Q 39.109375 -1.421875 33.890625 -1.421875 
Q 20.796875 -1.421875 13.15625 6.1875 
Q 5.515625 13.8125 5.515625 26.8125 
Q 5.515625 40.234375 12.765625 48.109375 
Q 20.015625 56 32.328125 56 
Q 43.359375 56 49.78125 48.890625 
Q 56.203125 41.796875 56.203125 29.59375 
z
M 47.21875 32.234375 
Q 47.125 39.59375 43.09375 43.984375 
Q 39.0625 48.390625 32.421875 48.390625 
Q 24.90625 48.390625 20.390625 44.140625 
Q 15.875 39.890625 15.1875 32.171875 
z
" id="DejaVuSans-65"/>
      <path d="M 11.71875 12.40625 
L 22.015625 12.40625 
L 22.015625 0 
L 11.71875 0 
z
M 11.71875 51.703125 
L 22.015625 51.703125 
L 22.015625 39.3125 
L 11.71875 39.3125 
z
" id="DejaVuSans-3a"/>
     </defs>
     <g transform="translate(152.178125 194.523162)rotate(-90)scale(0.1 -0.1)">
      <use xlink:href="#DejaVuSans-54"/>
      <use x="61.083984" xlink:href="#DejaVuSans-44"/>
      <use x="138.085938" xlink:href="#DejaVuSans-20"/>
      <use x="169.873047" xlink:href="#DejaVuSans-53"/>
      <use x="233.349609" xlink:href="#DejaVuSans-74"/>
      <use x="272.558594" xlink:href="#DejaVuSans-61"/>
      <use x="333.837891" xlink:href="#DejaVuSans-74"/>
      <use x="373.046875" xlink:href="#DejaVuSans-65"/>
      <use x="434.570312" xlink:href="#DejaVuSans-3a"/>
      <use x="468.261719" xlink:href="#DejaVuSans-30"/>
     </g>
    </g>
   </g>
   <g id="line2d_14">
    <path clip-path="url(#p181ad33ff5)" d="M 230.727273 164.102436 
L 235.825491 168.503646 
L 240.923709 167.692751 
L 246.021928 164.541246 
L 251.120146 163.39571 
L 256.218365 163.979755 
L 261.316583 163.583512 
L 266.414801 163.581673 
L 271.51302 165.07813 
L 276.611238 166.39095 
L 281.709456 167.941925 
L 286.807675 170.679854 
L 291.905893 168.600788 
L 297.004111 167.931605 
L 302.10233 168.53845 
L 307.200548 168.345339 
L 312.298767 169.122902 
L 317.396985 169.281575 
L 322.495203 169.771487 
L 327.593422 169.353519 
L 332.69164 169.898152 
L 337.789858 170.092203 
L 342.888077 169.70233 
L 347.986295 169.519069 
L 358.182732 168.876326 
L 363.28095 169.226131 
L 368.379169 169.901035 
L 373.477387 170.37248 
L 378.575605 169.303809 
L 383.673824 170.248129 
L 388.772042 170.598783 
L 398.968479 171.032392 
L 404.066697 169.357378 
L 409.164915 170.101863 
L 414.263134 171.489316 
L 419.361352 171.954428 
L 424.459571 168.575717 
L 429.557789 169.497282 
L 434.656007 169.366414 
L 439.754226 168.935064 
L 444.852444 168.619435 
L 449.950662 168.685474 
L 455.048881 169.466503 
L 465.245317 169.767023 
L 470.343536 169.781825 
L 475.441754 168.316368 
L 480.539973 167.987491 
L 485.638191 168.207242 
L 490.736409 167.270387 
L 495.834628 169.176466 
L 500.932846 168.745893 
L 506.031064 169.070233 
L 511.129283 169.605413 
L 516.227501 168.702807 
L 521.32572 168.845439 
L 526.423938 168.372683 
L 531.522156 168.519075 
L 536.620375 169.646656 
L 541.718593 166.70132 
L 546.816811 167.985413 
L 551.91503 168.094538 
L 557.013248 167.815164 
L 562.111466 168.231063 
L 567.209685 169.163562 
L 572.307903 168.004751 
L 577.406122 167.434147 
L 582.50434 167.28996 
L 587.602558 167.604866 
L 592.700777 167.688111 
L 597.798995 168.241364 
L 602.897213 168.128082 
L 613.09365 167.015177 
L 618.191868 167.710594 
L 623.290087 167.768861 
L 628.388305 167.184739 
L 633.486524 167.977859 
L 638.584742 167.819394 
L 643.68296 168.453181 
L 648.781179 166.922101 
L 658.977615 167.693822 
L 669.174052 168.038584 
L 674.27227 167.388531 
L 679.370489 127.304754 
L 684.468707 111.431262 
L 689.566926 111.98372 
L 694.665144 111.754662 
L 699.763362 111.173937 
L 704.861581 110.405072 
L 709.959799 108.738732 
L 715.058017 108.230661 
L 720.156236 107.359466 
L 725.254454 106.05842 
L 740.549109 104.449806 
L 745.647328 104.24558 
L 750.745546 104.988456 
L 755.843764 105.021602 
L 760.941983 104.426961 
L 766.040201 104.157275 
L 771.138419 104.210771 
L 776.236638 105.120715 
L 781.334856 105.013867 
L 786.433074 103.61519 
L 791.531293 103.342576 
L 796.629511 102.715439 
L 801.72773 102.806564 
L 806.825948 102.255045 
L 811.924166 101.994648 
L 817.022385 102.239502 
L 822.120603 101.426249 
L 827.218821 101.23847 
L 832.31704 100.220015 
L 837.415258 100.277089 
L 842.513476 99.355976 
L 847.611695 98.683404 
L 852.709913 97.736591 
L 857.808132 97.540172 
L 862.90635 97.913851 
L 868.004568 96.898577 
L 873.102787 95.501057 
L 878.201005 95.498599 
L 883.299223 97.055054 
L 888.397442 97.99453 
L 893.49566 96.51709 
L 898.593878 97.273955 
L 903.692097 97.182795 
L 913.888534 96.278634 
L 918.986752 96.235692 
L 924.08497 94.643922 
L 929.183189 93.811765 
L 934.281407 93.978471 
L 939.379625 135.563472 
L 944.477844 142.805795 
L 949.576062 142.620076 
L 959.772499 144.22316 
L 964.870717 145.287087 
L 969.968936 145.526772 
L 975.067154 144.987218 
L 980.165372 145.60286 
L 985.263591 146.374906 
L 990.361809 148.15019 
L 995.460027 147.966821 
L 1000.558246 147.437062 
L 1005.656464 147.514993 
L 1020.951119 148.363995 
L 1026.049338 148.894477 
L 1031.147556 148.637549 
L 1036.245774 150.247609 
L 1041.343993 151.072032 
L 1046.442211 150.835021 
L 1051.540429 151.18535 
L 1056.638648 153.326253 
L 1061.736866 153.416943 
L 1071.933303 152.678947 
L 1077.031521 152.65162 
L 1082.12974 152.816591 
L 1087.227958 152.488818 
L 1092.326176 154.280584 
L 1097.424395 152.548676 
L 1102.522613 154.562561 
L 1107.620831 154.947192 
L 1112.71905 154.961036 
L 1117.817268 155.897476 
L 1122.915487 157.584491 
L 1128.013705 155.382248 
L 1133.111923 156.831096 
L 1138.210142 155.954876 
L 1143.30836 155.79417 
L 1148.406578 157.544296 
L 1153.504797 157.664699 
L 1158.603015 157.415652 
L 1163.701233 157.337359 
L 1168.799452 159.111053 
L 1173.89767 158.371394 
L 1178.995889 161.366973 
L 1184.094107 161.876526 
L 1189.192325 160.543129 
L 1194.290544 160.21662 
L 1199.388762 156.681848 
L 1204.48698 160.128496 
L 1209.585199 157.993449 
L 1214.683417 157.982424 
L 1219.781635 156.420692 
L 1224.879854 157.604335 
L 1229.978072 157.487981 
L 1235.076291 158.29227 
L 1240.174509 159.649559 
L 1245.272727 158.388491 
L 1245.272727 158.388491 
" style="fill:none;stroke:#000000;stroke-linecap:square;stroke-width:4;"/>
   </g>
   <g id="line2d_15">
    <path clip-path="url(#p181ad33ff5)" d="M 230.727273 162.452797 
L 235.825491 168.138102 
L 240.923709 162.452797 
L 246.021928 168.138102 
L 251.120146 162.452797 
L 256.218365 168.138102 
L 266.414801 168.138102 
L 271.51302 162.452797 
L 276.611238 168.138102 
L 281.709456 162.452797 
L 286.807675 162.452797 
L 291.905893 168.138102 
L 297.004111 162.452797 
L 302.10233 168.138102 
L 307.200548 168.138102 
L 312.298767 173.823406 
L 317.396985 168.138102 
L 322.495203 173.823406 
L 327.593422 168.138102 
L 332.69164 173.823406 
L 347.986295 173.823406 
L 353.084513 168.138102 
L 358.182732 179.508711 
L 363.28095 173.823406 
L 373.477387 173.823406 
L 378.575605 168.138102 
L 383.673824 173.823406 
L 388.772042 173.823406 
L 393.87026 185.194015 
L 398.968479 168.138102 
L 404.066697 173.823406 
L 409.164915 168.138102 
L 419.361352 179.508711 
L 424.459571 168.138102 
L 439.754226 168.138102 
L 444.852444 173.823406 
L 449.950662 168.138102 
L 465.245317 168.138102 
L 470.343536 173.823406 
L 480.539973 162.452797 
L 485.638191 168.138102 
L 490.736409 168.138102 
L 495.834628 242.047059 
L 500.932846 168.138102 
L 506.031064 162.452797 
L 526.423938 162.452797 
L 536.620375 173.823406 
L 546.816811 173.823406 
L 551.91503 168.138102 
L 557.013248 173.823406 
L 562.111466 168.138102 
L 567.209685 173.823406 
L 572.307903 173.823406 
L 577.406122 179.508711 
L 587.602558 168.138102 
L 592.700777 173.823406 
L 597.798995 173.823406 
L 602.897213 179.508711 
L 607.995432 173.823406 
L 613.09365 173.823406 
L 618.191868 168.138102 
L 623.290087 173.823406 
L 628.388305 168.138102 
L 633.486524 168.138102 
L 638.584742 173.823406 
L 643.68296 168.138102 
L 648.781179 168.138102 
L 653.879397 179.508711 
L 658.977615 168.138102 
L 669.174052 156.767493 
L 674.27227 145.396884 
L 679.370489 139.71158 
L 684.468707 139.71158 
L 689.566926 134.026275 
L 699.763362 134.026275 
L 709.959799 122.655667 
L 730.352672 122.655667 
L 735.450891 116.970362 
L 745.647328 116.970362 
L 750.745546 111.285058 
L 755.843764 122.655667 
L 760.941983 111.285058 
L 771.138419 111.285058 
L 776.236638 105.599754 
L 781.334856 105.599754 
L 786.433074 111.285058 
L 791.531293 105.599754 
L 822.120603 105.599754 
L 827.218821 99.914449 
L 832.31704 105.599754 
L 837.415258 105.599754 
L 842.513476 99.914449 
L 847.611695 105.599754 
L 852.709913 94.229145 
L 857.808132 99.914449 
L 868.004568 99.914449 
L 873.102787 94.229145 
L 878.201005 94.229145 
L 883.299223 99.914449 
L 888.397442 94.229145 
L 893.49566 99.914449 
L 898.593878 94.229145 
L 913.888534 94.229145 
L 918.986752 99.914449 
L 924.08497 99.914449 
L 929.183189 105.599754 
L 934.281407 116.970362 
L 939.379625 111.285058 
L 949.576062 122.655667 
L 954.67428 116.970362 
L 959.772499 122.655667 
L 964.870717 122.655667 
L 969.968936 116.970362 
L 975.067154 139.71158 
L 980.165372 145.396884 
L 985.263591 139.71158 
L 995.460027 139.71158 
L 1000.558246 151.082189 
L 1010.754683 139.71158 
L 1020.951119 151.082189 
L 1026.049338 179.508711 
L 1031.147556 145.396884 
L 1036.245774 145.396884 
L 1041.343993 151.082189 
L 1046.442211 145.396884 
L 1051.540429 151.082189 
L 1087.227958 151.082189 
L 1092.326176 156.767493 
L 1097.424395 151.082189 
L 1112.71905 151.082189 
L 1117.817268 156.767493 
L 1122.915487 151.082189 
L 1128.013705 156.767493 
L 1133.111923 156.767493 
L 1138.210142 151.082189 
L 1143.30836 156.767493 
L 1148.406578 156.767493 
L 1153.504797 151.082189 
L 1158.603015 156.767493 
L 1163.701233 156.767493 
L 1168.799452 162.452797 
L 1178.995889 162.452797 
L 1184.094107 156.767493 
L 1194.290544 156.767493 
L 1199.388762 168.138102 
L 1209.585199 156.767493 
L 1214.683417 156.767493 
L 1224.879854 168.138102 
L 1229.978072 168.138102 
L 1235.076291 156.767493 
L 1240.174509 162.452797 
L 1245.272727 156.767493 
L 1245.272727 156.767493 
" style="fill:none;stroke:#ff0000;stroke-linecap:square;stroke-width:1.5;"/>
   </g>
   <g id="patch_3">
    <path d="M 180 249.458824 
L 180 86.4 
" style="fill:none;stroke:#000000;stroke-linecap:square;stroke-linejoin:miter;stroke-width:0.8;"/>
   </g>
   <g id="patch_4">
    <path d="M 1296 249.458824 
L 1296 86.4 
" style="fill:none;stroke:#000000;stroke-linecap:square;stroke-linejoin:miter;stroke-width:0.8;"/>
   </g>
   <g id="patch_5">
    <path d="M 180 249.458824 
L 1296 249.458824 
" style="fill:none;stroke:#000000;stroke-linecap:square;stroke-linejoin:miter;stroke-width:0.8;"/>
   </g>
   <g id="patch_6">
    <path d="M 180 86.4 
L 1296 86.4 
" style="fill:none;stroke:#000000;stroke-linecap:square;stroke-linejoin:miter;stroke-width:0.8;"/>
   </g>
   <g id="legend_1">
    <g id="patch_7">
     <path d="M 1234.3125 123.75625 
L 1289 123.75625 
Q 1291 123.75625 1291 121.75625 
L 1291 93.4 
Q 1291 91.4 1289 91.4 
L 1234.3125 91.4 
Q 1232.3125 91.4 1232.3125 93.4 
L 1232.3125 121.75625 
Q 1232.3125 123.75625 1234.3125 123.75625 
z
" style="fill:#ffffff;opacity:0.8;stroke:#cccccc;stroke-linejoin:miter;"/>
    </g>
    <g id="line2d_16">
     <path d="M 1236.3125 99.498438 
L 1256.3125 99.498438 
" style="fill:none;stroke:#000000;stroke-linecap:square;stroke-width:4;"/>
    </g>
    <g id="line2d_17"/>
    <g id="text_15">
     <!-- Pred -->
     <defs>
      <path d="M 19.671875 64.796875 
L 19.671875 37.40625 
L 32.078125 37.40625 
Q 38.96875 37.40625 42.71875 40.96875 
Q 46.484375 44.53125 46.484375 51.125 
Q 46.484375 57.671875 42.71875 61.234375 
Q 38.96875 64.796875 32.078125 64.796875 
z
M 9.8125 72.90625 
L 32.078125 72.90625 
Q 44.34375 72.90625 50.609375 67.359375 
Q 56.890625 61.8125 56.890625 51.125 
Q 56.890625 40.328125 50.609375 34.8125 
Q 44.34375 29.296875 32.078125 29.296875 
L 19.671875 29.296875 
L 19.671875 0 
L 9.8125 0 
z
" id="DejaVuSans-50"/>
      <path d="M 41.109375 46.296875 
Q 39.59375 47.171875 37.8125 47.578125 
Q 36.03125 48 33.890625 48 
Q 26.265625 48 22.1875 43.046875 
Q 18.109375 38.09375 18.109375 28.8125 
L 18.109375 0 
L 9.078125 0 
L 9.078125 54.6875 
L 18.109375 54.6875 
L 18.109375 46.1875 
Q 20.953125 51.171875 25.484375 53.578125 
Q 30.03125 56 36.53125 56 
Q 37.453125 56 38.578125 55.875 
Q 39.703125 55.765625 41.0625 55.515625 
z
" id="DejaVuSans-72"/>
      <path d="M 45.40625 46.390625 
L 45.40625 75.984375 
L 54.390625 75.984375 
L 54.390625 0 
L 45.40625 0 
L 45.40625 8.203125 
Q 42.578125 3.328125 38.25 0.953125 
Q 33.9375 -1.421875 27.875 -1.421875 
Q 17.96875 -1.421875 11.734375 6.484375 
Q 5.515625 14.40625 5.515625 27.296875 
Q 5.515625 40.1875 11.734375 48.09375 
Q 17.96875 56 27.875 56 
Q 33.9375 56 38.25 53.625 
Q 42.578125 51.265625 45.40625 46.390625 
z
M 14.796875 27.296875 
Q 14.796875 17.390625 18.875 11.75 
Q 22.953125 6.109375 30.078125 6.109375 
Q 37.203125 6.109375 41.296875 11.75 
Q 45.40625 17.390625 45.40625 27.296875 
Q 45.40625 37.203125 41.296875 42.84375 
Q 37.203125 48.484375 30.078125 48.484375 
Q 22.953125 48.484375 18.875 42.84375 
Q 14.796875 37.203125 14.796875 27.296875 
z
" id="DejaVuSans-64"/>
     </defs>
     <g transform="translate(1264.3125 102.998438)scale(0.1 -0.1)">
      <use xlink:href="#DejaVuSans-50"/>
      <use x="60.287109" xlink:href="#DejaVuSans-72"/>
      <use x="101.369141" xlink:href="#DejaVuSans-65"/>
      <use x="162.892578" xlink:href="#DejaVuSans-64"/>
     </g>
    </g>
    <g id="line2d_18">
     <path d="M 1236.3125 114.176563 
L 1256.3125 114.176563 
" style="fill:none;stroke:#ff0000;stroke-linecap:square;stroke-width:1.5;"/>
    </g>
    <g id="line2d_19"/>
    <g id="text_16">
     <!-- True -->
     <defs>
      <path d="M 8.5 21.578125 
L 8.5 54.6875 
L 17.484375 54.6875 
L 17.484375 21.921875 
Q 17.484375 14.15625 20.5 10.265625 
Q 23.53125 6.390625 29.59375 6.390625 
Q 36.859375 6.390625 41.078125 11.03125 
Q 45.3125 15.671875 45.3125 23.6875 
L 45.3125 54.6875 
L 54.296875 54.6875 
L 54.296875 0 
L 45.3125 0 
L 45.3125 8.40625 
Q 42.046875 3.421875 37.71875 1 
Q 33.40625 -1.421875 27.6875 -1.421875 
Q 18.265625 -1.421875 13.375 4.4375 
Q 8.5 10.296875 8.5 21.578125 
z
M 31.109375 56 
z
" id="DejaVuSans-75"/>
     </defs>
     <g transform="translate(1264.3125 117.676563)scale(0.1 -0.1)">
      <use xlink:href="#DejaVuSans-54"/>
      <use x="60.865234" xlink:href="#DejaVuSans-72"/>
      <use x="101.978516" xlink:href="#DejaVuSans-75"/>
      <use x="165.357422" xlink:href="#DejaVuSans-65"/>
     </g>
    </g>
   </g>
  </g>
  <g id="axes_2">
   <g id="patch_8">
    <path d="M 180 445.129412 
L 1296 445.129412 
L 1296 282.070588 
L 180 282.070588 
z
" style="fill:#ffffff;"/>
   </g>
   <g id="matplotlib.axis_3">
    <g id="xtick_10">
     <g id="line2d_20">
      <g>
       <use style="stroke:#000000;stroke-width:0.8;" x="225.629054" xlink:href="#m17944b6762" y="445.129412"/>
      </g>
     </g>
     <g id="text_17">
      <!-- 0 -->
      <g transform="translate(222.447804 459.727849)scale(0.1 -0.1)">
       <use xlink:href="#DejaVuSans-30"/>
      </g>
     </g>
    </g>
    <g id="xtick_11">
     <g id="line2d_21">
      <g>
       <use style="stroke:#000000;stroke-width:0.8;" x="353.084513" xlink:href="#m17944b6762" y="445.129412"/>
      </g>
     </g>
     <g id="text_18">
      <!-- 500 -->
      <g transform="translate(343.540763 459.727849)scale(0.1 -0.1)">
       <use xlink:href="#DejaVuSans-35"/>
       <use x="63.623047" xlink:href="#DejaVuSans-30"/>
       <use x="127.246094" xlink:href="#DejaVuSans-30"/>
      </g>
     </g>
    </g>
    <g id="xtick_12">
     <g id="line2d_22">
      <g>
       <use style="stroke:#000000;stroke-width:0.8;" x="480.539973" xlink:href="#m17944b6762" y="445.129412"/>
      </g>
     </g>
     <g id="text_19">
      <!-- 1000 -->
      <g transform="translate(467.814973 459.727849)scale(0.1 -0.1)">
       <use xlink:href="#DejaVuSans-31"/>
       <use x="63.623047" xlink:href="#DejaVuSans-30"/>
       <use x="127.246094" xlink:href="#DejaVuSans-30"/>
       <use x="190.869141" xlink:href="#DejaVuSans-30"/>
      </g>
     </g>
    </g>
    <g id="xtick_13">
     <g id="line2d_23">
      <g>
       <use style="stroke:#000000;stroke-width:0.8;" x="607.995432" xlink:href="#m17944b6762" y="445.129412"/>
      </g>
     </g>
     <g id="text_20">
      <!-- 1500 -->
      <g transform="translate(595.270432 459.727849)scale(0.1 -0.1)">
       <use xlink:href="#DejaVuSans-31"/>
       <use x="63.623047" xlink:href="#DejaVuSans-35"/>
       <use x="127.246094" xlink:href="#DejaVuSans-30"/>
       <use x="190.869141" xlink:href="#DejaVuSans-30"/>
      </g>
     </g>
    </g>
    <g id="xtick_14">
     <g id="line2d_24">
      <g>
       <use style="stroke:#000000;stroke-width:0.8;" x="735.450891" xlink:href="#m17944b6762" y="445.129412"/>
      </g>
     </g>
     <g id="text_21">
      <!-- 2000 -->
      <g transform="translate(722.725891 459.727849)scale(0.1 -0.1)">
       <use xlink:href="#DejaVuSans-32"/>
       <use x="63.623047" xlink:href="#DejaVuSans-30"/>
       <use x="127.246094" xlink:href="#DejaVuSans-30"/>
       <use x="190.869141" xlink:href="#DejaVuSans-30"/>
      </g>
     </g>
    </g>
    <g id="xtick_15">
     <g id="line2d_25">
      <g>
       <use style="stroke:#000000;stroke-width:0.8;" x="862.90635" xlink:href="#m17944b6762" y="445.129412"/>
      </g>
     </g>
     <g id="text_22">
      <!-- 2500 -->
      <g transform="translate(850.18135 459.727849)scale(0.1 -0.1)">
       <use xlink:href="#DejaVuSans-32"/>
       <use x="63.623047" xlink:href="#DejaVuSans-35"/>
       <use x="127.246094" xlink:href="#DejaVuSans-30"/>
       <use x="190.869141" xlink:href="#DejaVuSans-30"/>
      </g>
     </g>
    </g>
    <g id="xtick_16">
     <g id="line2d_26">
      <g>
       <use style="stroke:#000000;stroke-width:0.8;" x="990.361809" xlink:href="#m17944b6762" y="445.129412"/>
      </g>
     </g>
     <g id="text_23">
      <!-- 3000 -->
      <g transform="translate(977.636809 459.727849)scale(0.1 -0.1)">
       <use xlink:href="#DejaVuSans-33"/>
       <use x="63.623047" xlink:href="#DejaVuSans-30"/>
       <use x="127.246094" xlink:href="#DejaVuSans-30"/>
       <use x="190.869141" xlink:href="#DejaVuSans-30"/>
      </g>
     </g>
    </g>
    <g id="xtick_17">
     <g id="line2d_27">
      <g>
       <use style="stroke:#000000;stroke-width:0.8;" x="1117.817268" xlink:href="#m17944b6762" y="445.129412"/>
      </g>
     </g>
     <g id="text_24">
      <!-- 3500 -->
      <g transform="translate(1105.092268 459.727849)scale(0.1 -0.1)">
       <use xlink:href="#DejaVuSans-33"/>
       <use x="63.623047" xlink:href="#DejaVuSans-35"/>
       <use x="127.246094" xlink:href="#DejaVuSans-30"/>
       <use x="190.869141" xlink:href="#DejaVuSans-30"/>
      </g>
     </g>
    </g>
    <g id="xtick_18">
     <g id="line2d_28">
      <g>
       <use style="stroke:#000000;stroke-width:0.8;" x="1245.272727" xlink:href="#m17944b6762" y="445.129412"/>
      </g>
     </g>
     <g id="text_25">
      <!-- 4000 -->
      <g transform="translate(1232.547727 459.727849)scale(0.1 -0.1)">
       <use xlink:href="#DejaVuSans-34"/>
       <use x="63.623047" xlink:href="#DejaVuSans-30"/>
       <use x="127.246094" xlink:href="#DejaVuSans-30"/>
       <use x="190.869141" xlink:href="#DejaVuSans-30"/>
      </g>
     </g>
    </g>
   </g>
   <g id="matplotlib.axis_4">
    <g id="ytick_5">
     <g id="line2d_29">
      <g>
       <use style="stroke:#000000;stroke-width:0.8;" x="180" xlink:href="#m98c16e4f91" y="436.451687"/>
      </g>
     </g>
     <g id="text_26">
      <!-- −0.25 -->
      <defs>
       <path d="M 10.6875 12.40625 
L 21 12.40625 
L 21 0 
L 10.6875 0 
z
" id="DejaVuSans-2e"/>
      </defs>
      <g transform="translate(142.354688 440.250906)scale(0.1 -0.1)">
       <use xlink:href="#DejaVuSans-2212"/>
       <use x="83.789062" xlink:href="#DejaVuSans-30"/>
       <use x="147.412109" xlink:href="#DejaVuSans-2e"/>
       <use x="179.199219" xlink:href="#DejaVuSans-32"/>
       <use x="242.822266" xlink:href="#DejaVuSans-35"/>
      </g>
     </g>
    </g>
    <g id="ytick_6">
     <g id="line2d_30">
      <g>
       <use style="stroke:#000000;stroke-width:0.8;" x="180" xlink:href="#m98c16e4f91" y="415.30502"/>
      </g>
     </g>
     <g id="text_27">
      <!-- −0.20 -->
      <g transform="translate(142.354688 419.104239)scale(0.1 -0.1)">
       <use xlink:href="#DejaVuSans-2212"/>
       <use x="83.789062" xlink:href="#DejaVuSans-30"/>
       <use x="147.412109" xlink:href="#DejaVuSans-2e"/>
       <use x="179.199219" xlink:href="#DejaVuSans-32"/>
       <use x="242.822266" xlink:href="#DejaVuSans-30"/>
      </g>
     </g>
    </g>
    <g id="ytick_7">
     <g id="line2d_31">
      <g>
       <use style="stroke:#000000;stroke-width:0.8;" x="180" xlink:href="#m98c16e4f91" y="394.158353"/>
      </g>
     </g>
     <g id="text_28">
      <!-- −0.15 -->
      <g transform="translate(142.354688 397.957572)scale(0.1 -0.1)">
       <use xlink:href="#DejaVuSans-2212"/>
       <use x="83.789062" xlink:href="#DejaVuSans-30"/>
       <use x="147.412109" xlink:href="#DejaVuSans-2e"/>
       <use x="179.199219" xlink:href="#DejaVuSans-31"/>
       <use x="242.822266" xlink:href="#DejaVuSans-35"/>
      </g>
     </g>
    </g>
    <g id="ytick_8">
     <g id="line2d_32">
      <g>
       <use style="stroke:#000000;stroke-width:0.8;" x="180" xlink:href="#m98c16e4f91" y="373.011687"/>
      </g>
     </g>
     <g id="text_29">
      <!-- −0.10 -->
      <g transform="translate(142.354688 376.810905)scale(0.1 -0.1)">
       <use xlink:href="#DejaVuSans-2212"/>
       <use x="83.789062" xlink:href="#DejaVuSans-30"/>
       <use x="147.412109" xlink:href="#DejaVuSans-2e"/>
       <use x="179.199219" xlink:href="#DejaVuSans-31"/>
       <use x="242.822266" xlink:href="#DejaVuSans-30"/>
      </g>
     </g>
    </g>
    <g id="ytick_9">
     <g id="line2d_33">
      <g>
       <use style="stroke:#000000;stroke-width:0.8;" x="180" xlink:href="#m98c16e4f91" y="351.86502"/>
      </g>
     </g>
     <g id="text_30">
      <!-- −0.05 -->
      <g transform="translate(142.354688 355.664239)scale(0.1 -0.1)">
       <use xlink:href="#DejaVuSans-2212"/>
       <use x="83.789062" xlink:href="#DejaVuSans-30"/>
       <use x="147.412109" xlink:href="#DejaVuSans-2e"/>
       <use x="179.199219" xlink:href="#DejaVuSans-30"/>
       <use x="242.822266" xlink:href="#DejaVuSans-35"/>
      </g>
     </g>
    </g>
    <g id="ytick_10">
     <g id="line2d_34">
      <g>
       <use style="stroke:#000000;stroke-width:0.8;" x="180" xlink:href="#m98c16e4f91" y="330.718353"/>
      </g>
     </g>
     <g id="text_31">
      <!-- 0.00 -->
      <g transform="translate(150.734375 334.517572)scale(0.1 -0.1)">
       <use xlink:href="#DejaVuSans-30"/>
       <use x="63.623047" xlink:href="#DejaVuSans-2e"/>
       <use x="95.410156" xlink:href="#DejaVuSans-30"/>
       <use x="159.033203" xlink:href="#DejaVuSans-30"/>
      </g>
     </g>
    </g>
    <g id="ytick_11">
     <g id="line2d_35">
      <g>
       <use style="stroke:#000000;stroke-width:0.8;" x="180" xlink:href="#m98c16e4f91" y="309.571686"/>
      </g>
     </g>
     <g id="text_32">
      <!-- 0.05 -->
      <g transform="translate(150.734375 313.370905)scale(0.1 -0.1)">
       <use xlink:href="#DejaVuSans-30"/>
       <use x="63.623047" xlink:href="#DejaVuSans-2e"/>
       <use x="95.410156" xlink:href="#DejaVuSans-30"/>
       <use x="159.033203" xlink:href="#DejaVuSans-35"/>
      </g>
     </g>
    </g>
    <g id="ytick_12">
     <g id="line2d_36">
      <g>
       <use style="stroke:#000000;stroke-width:0.8;" x="180" xlink:href="#m98c16e4f91" y="288.42502"/>
      </g>
     </g>
     <g id="text_33">
      <!-- 0.10 -->
      <g transform="translate(150.734375 292.224238)scale(0.1 -0.1)">
       <use xlink:href="#DejaVuSans-30"/>
       <use x="63.623047" xlink:href="#DejaVuSans-2e"/>
       <use x="95.410156" xlink:href="#DejaVuSans-31"/>
       <use x="159.033203" xlink:href="#DejaVuSans-30"/>
      </g>
     </g>
    </g>
    <g id="text_34">
     <!-- TD State:1 -->
     <g transform="translate(136.275 390.19375)rotate(-90)scale(0.1 -0.1)">
      <use xlink:href="#DejaVuSans-54"/>
      <use x="61.083984" xlink:href="#DejaVuSans-44"/>
      <use x="138.085938" xlink:href="#DejaVuSans-20"/>
      <use x="169.873047" xlink:href="#DejaVuSans-53"/>
      <use x="233.349609" xlink:href="#DejaVuSans-74"/>
      <use x="272.558594" xlink:href="#DejaVuSans-61"/>
      <use x="333.837891" xlink:href="#DejaVuSans-74"/>
      <use x="373.046875" xlink:href="#DejaVuSans-65"/>
      <use x="434.570312" xlink:href="#DejaVuSans-3a"/>
      <use x="468.261719" xlink:href="#DejaVuSans-31"/>
     </g>
    </g>
   </g>
   <g id="line2d_37">
    <path clip-path="url(#p7548bb6690)" d="M 230.727273 316.599262 
L 235.825491 311.362199 
L 240.923709 353.498441 
L 246.021928 399.758678 
L 251.120146 412.638769 
L 256.218365 427.781942 
L 261.316583 437.717647 
L 266.414801 432.633362 
L 271.51302 385.808435 
L 276.611238 363.704611 
L 281.709456 317.338989 
L 286.807675 311.73452 
L 291.905893 316.62553 
L 297.004111 314.563148 
L 302.10233 316.957277 
L 307.200548 317.282975 
L 312.298767 319.536742 
L 317.396985 316.723441 
L 322.495203 319.244723 
L 327.593422 316.966957 
L 332.69164 319.437016 
L 337.789858 319.421487 
L 342.888077 319.948351 
L 347.986295 320.28272 
L 353.084513 317.950806 
L 358.182732 324.02189 
L 363.28095 321.048664 
L 368.379169 320.585427 
L 373.477387 320.311761 
L 378.575605 318.639712 
L 383.673824 320.738495 
L 388.772042 320.576151 
L 393.87026 326.245305 
L 398.968479 317.708802 
L 404.066697 322.241746 
L 409.164915 318.883733 
L 414.263134 320.570705 
L 419.361352 323.133129 
L 424.459571 320.795568 
L 429.557789 320.085083 
L 434.656007 320.353305 
L 439.754226 320.900235 
L 444.852444 324.169714 
L 449.950662 321.442325 
L 455.048881 320.863127 
L 465.245317 320.876034 
L 470.343536 323.838571 
L 475.441754 322.534168 
L 480.539973 320.156475 
L 485.638191 322.910485 
L 490.736409 323.927306 
L 495.834628 359.096595 
L 500.932846 323.084728 
L 506.031064 320.0992 
L 511.129283 319.730144 
L 516.227501 320.695741 
L 521.32572 320.692111 
L 526.423938 321.259611 
L 531.522156 324.081383 
L 536.620375 326.009351 
L 541.718593 328.912194 
L 546.816811 327.883675 
L 551.91503 325.115145 
L 557.013248 328.351953 
L 562.111466 325.299068 
L 567.209685 327.408136 
L 572.307903 328.650426 
L 577.406122 332.17522 
L 582.50434 329.662004 
L 587.602558 326.702693 
L 592.700777 329.601906 
L 597.798995 329.252613 
L 602.897213 332.351479 
L 607.995432 330.204497 
L 613.09365 330.90389 
L 618.191868 327.59085 
L 623.290087 330.515069 
L 628.388305 328.391077 
L 633.486524 327.800587 
L 638.584742 330.824835 
L 643.68296 327.541642 
L 648.781179 328.141006 
L 653.879397 333.473976 
L 658.977615 327.481141 
L 669.174052 321.404411 
L 674.27227 315.947211 
L 679.370489 332.191353 
L 684.468707 339.724143 
L 689.566926 336.577279 
L 694.665144 336.651494 
L 699.763362 336.896725 
L 704.861581 334.398433 
L 709.959799 332.344623 
L 715.058017 332.586627 
L 720.156236 333.002068 
L 725.254454 333.624826 
L 730.352672 333.882157 
L 735.450891 331.352405 
L 745.647328 331.687177 
L 750.745546 328.5145 
L 755.843764 334.199183 
L 760.941983 328.815392 
L 766.040201 328.976728 
L 771.138419 328.983182 
L 776.236638 325.745969 
L 781.334856 325.845998 
L 786.433074 329.399429 
L 791.531293 326.726087 
L 796.629511 327.073767 
L 801.72773 327.079414 
L 806.825948 327.392406 
L 811.924166 327.565036 
L 817.022385 327.497275 
L 822.120603 327.932882 
L 827.218821 325.238567 
L 832.31704 328.623402 
L 837.415258 328.644375 
L 842.513476 326.300966 
L 847.611695 329.520431 
L 852.709913 324.352831 
L 857.808132 327.363365 
L 862.90635 327.24801 
L 868.004568 327.798973 
L 873.102787 325.695149 
L 878.201005 325.779043 
L 883.299223 327.952243 
L 888.397442 324.732778 
L 893.49566 328.35397 
L 898.593878 325.222433 
L 903.692097 325.348276 
L 913.888534 325.943606 
L 918.986752 328.880733 
L 924.08497 329.705161 
L 929.183189 333.001261 
L 934.281407 338.641577 
L 939.379625 315.961732 
L 944.477844 315.368014 
L 949.576062 318.308368 
L 954.67428 315.099389 
L 959.772499 317.559767 
L 964.870717 317.050752 
L 969.968936 314.100718 
L 975.067154 325.712896 
L 980.165372 328.203927 
L 985.263591 324.937675 
L 990.361809 324.041452 
L 995.460027 324.079366 
L 1000.558246 329.953619 
L 1010.754683 323.964817 
L 1020.951119 329.249386 
L 1026.049338 343.088004 
L 1031.147556 326.039601 
L 1036.245774 325.207106 
L 1041.343993 327.584396 
L 1046.442211 324.779565 
L 1051.540429 327.381112 
L 1056.638648 326.279186 
L 1061.736866 326.153344 
L 1071.933303 326.3413 
L 1087.227958 326.191258 
L 1092.326176 328.087765 
L 1097.424395 325.983134 
L 1102.522613 324.940095 
L 1107.620831 324.674697 
L 1112.71905 324.585962 
L 1117.817268 326.89065 
L 1122.915487 323.155716 
L 1128.013705 326.960832 
L 1133.111923 326.17109 
L 1138.210142 323.655858 
L 1143.30836 326.488116 
L 1148.406578 325.552366 
L 1153.504797 322.563612 
L 1158.603015 325.43701 
L 1163.701233 325.375703 
L 1168.799452 327.265757 
L 1173.89767 327.504535 
L 1178.995889 325.95974 
L 1184.094107 322.768509 
L 1189.192325 323.307372 
L 1194.290544 323.365453 
L 1199.388762 330.625585 
L 1204.48698 326.016208 
L 1209.585199 324.087433 
L 1214.683417 323.994664 
L 1219.781635 327.475494 
L 1224.879854 329.634173 
L 1229.978072 329.556732 
L 1235.076291 323.37594 
L 1240.174509 325.463631 
L 1245.272727 323.116995 
L 1245.272727 323.116995 
" style="fill:none;stroke:#000000;stroke-linecap:square;stroke-width:4;"/>
   </g>
   <g id="line2d_38">
    <path clip-path="url(#p7548bb6690)" d="M 230.727273 333.890353 
L 235.825491 327.546353 
L 240.923709 333.890353 
L 246.021928 327.546353 
L 251.120146 333.890353 
L 256.218365 330.718353 
L 261.316583 330.718353 
L 266.414801 327.546353 
L 271.51302 333.890353 
L 276.611238 327.546353 
L 286.807675 333.890353 
L 291.905893 327.546353 
L 297.004111 333.890353 
L 302.10233 330.718353 
L 307.200548 333.890353 
L 312.298767 327.546353 
L 317.396985 333.890353 
L 322.495203 327.546353 
L 327.593422 333.890353 
L 332.69164 330.718353 
L 342.888077 330.718353 
L 347.986295 327.546353 
L 353.084513 337.062353 
L 358.182732 327.546353 
L 363.28095 330.718353 
L 368.379169 330.718353 
L 373.477387 327.546353 
L 378.575605 333.890353 
L 383.673824 330.718353 
L 388.772042 337.062353 
L 393.87026 321.202353 
L 398.968479 333.890353 
L 404.066697 327.546353 
L 409.164915 333.890353 
L 414.263134 333.890353 
L 419.361352 324.374353 
L 424.459571 330.718353 
L 434.656007 330.718353 
L 439.754226 333.890353 
L 444.852444 327.546353 
L 449.950662 330.718353 
L 460.147099 330.718353 
L 465.245317 333.890353 
L 470.343536 327.546353 
L 475.441754 327.546353 
L 480.539973 333.890353 
L 485.638191 330.718353 
L 490.736409 371.954353 
L 495.834628 289.482353 
L 500.932846 327.546353 
L 506.031064 330.718353 
L 521.32572 330.718353 
L 526.423938 333.890353 
L 531.522156 333.890353 
L 536.620375 330.718353 
L 541.718593 330.718353 
L 546.816811 327.546353 
L 551.91503 333.890353 
L 557.013248 327.546353 
L 562.111466 333.890353 
L 567.209685 330.718353 
L 572.307903 333.890353 
L 577.406122 327.546353 
L 582.50434 327.546353 
L 587.602558 333.890353 
L 592.700777 330.718353 
L 597.798995 333.890353 
L 602.897213 327.546353 
L 607.995432 330.718353 
L 613.09365 327.546353 
L 618.191868 333.890353 
L 623.290087 327.546353 
L 633.486524 333.890353 
L 638.584742 327.546353 
L 643.68296 330.718353 
L 648.781179 337.062353 
L 653.879397 324.374353 
L 658.977615 327.546353 
L 664.075834 327.546353 
L 669.174052 324.374353 
L 679.370489 330.718353 
L 684.468707 327.546353 
L 689.566926 330.718353 
L 694.665144 330.718353 
L 699.763362 327.546353 
L 704.861581 327.546353 
L 709.959799 330.718353 
L 725.254454 330.718353 
L 730.352672 327.546353 
L 735.450891 330.718353 
L 740.549109 330.718353 
L 745.647328 327.546353 
L 750.745546 337.062353 
L 755.843764 324.374353 
L 760.941983 330.718353 
L 766.040201 330.718353 
L 771.138419 327.546353 
L 781.334856 333.890353 
L 786.433074 327.546353 
L 791.531293 330.718353 
L 817.022385 330.718353 
L 822.120603 327.546353 
L 827.218821 333.890353 
L 837.415258 327.546353 
L 842.513476 333.890353 
L 847.611695 324.374353 
L 852.709913 333.890353 
L 857.808132 330.718353 
L 862.90635 330.718353 
L 868.004568 327.546353 
L 878.201005 333.890353 
L 883.299223 327.546353 
L 888.397442 333.890353 
L 893.49566 327.546353 
L 898.593878 330.718353 
L 908.790315 330.718353 
L 913.888534 333.890353 
L 918.986752 330.718353 
L 929.183189 337.062353 
L 934.281407 327.546353 
L 939.379625 333.890353 
L 944.477844 333.890353 
L 949.576062 327.546353 
L 954.67428 333.890353 
L 964.870717 327.546353 
L 969.968936 343.406353 
L 975.067154 333.890353 
L 980.165372 327.546353 
L 985.263591 330.718353 
L 990.361809 330.718353 
L 995.460027 337.062353 
L 1000.558246 327.546353 
L 1005.656464 327.546353 
L 1010.754683 333.890353 
L 1015.852901 333.890353 
L 1020.951119 346.578353 
L 1026.049338 311.686353 
L 1031.147556 330.718353 
L 1036.245774 333.890353 
L 1041.343993 327.546353 
L 1046.442211 333.890353 
L 1051.540429 330.718353 
L 1082.12974 330.718353 
L 1087.227958 333.890353 
L 1092.326176 327.546353 
L 1097.424395 330.718353 
L 1107.620831 330.718353 
L 1112.71905 333.890353 
L 1117.817268 327.546353 
L 1122.915487 333.890353 
L 1133.111923 327.546353 
L 1138.210142 333.890353 
L 1148.406578 327.546353 
L 1153.504797 333.890353 
L 1158.603015 330.718353 
L 1163.701233 333.890353 
L 1168.799452 330.718353 
L 1173.89767 330.718353 
L 1178.995889 327.546353 
L 1184.094107 330.718353 
L 1189.192325 330.718353 
L 1194.290544 337.062353 
L 1199.388762 327.546353 
L 1204.48698 327.546353 
L 1214.683417 333.890353 
L 1219.781635 333.890353 
L 1224.879854 330.718353 
L 1229.978072 324.374353 
L 1235.076291 333.890353 
L 1240.174509 327.546353 
L 1245.272727 337.062353 
L 1245.272727 337.062353 
" style="fill:none;stroke:#ff0000;stroke-linecap:square;stroke-width:1.5;"/>
   </g>
   <g id="patch_9">
    <path d="M 180 445.129412 
L 180 282.070588 
" style="fill:none;stroke:#000000;stroke-linecap:square;stroke-linejoin:miter;stroke-width:0.8;"/>
   </g>
   <g id="patch_10">
    <path d="M 1296 445.129412 
L 1296 282.070588 
" style="fill:none;stroke:#000000;stroke-linecap:square;stroke-linejoin:miter;stroke-width:0.8;"/>
   </g>
   <g id="patch_11">
    <path d="M 180 445.129412 
L 1296 445.129412 
" style="fill:none;stroke:#000000;stroke-linecap:square;stroke-linejoin:miter;stroke-width:0.8;"/>
   </g>
   <g id="patch_12">
    <path d="M 180 282.070588 
L 1296 282.070588 
" style="fill:none;stroke:#000000;stroke-linecap:square;stroke-linejoin:miter;stroke-width:0.8;"/>
   </g>
   <g id="legend_2">
    <g id="patch_13">
     <path d="M 1234.3125 319.426838 
L 1289 319.426838 
Q 1291 319.426838 1291 317.426838 
L 1291 289.070588 
Q 1291 287.070588 1289 287.070588 
L 1234.3125 287.070588 
Q 1232.3125 287.070588 1232.3125 289.070588 
L 1232.3125 317.426838 
Q 1232.3125 319.426838 1234.3125 319.426838 
z
" style="fill:#ffffff;opacity:0.8;stroke:#cccccc;stroke-linejoin:miter;"/>
    </g>
    <g id="line2d_39">
     <path d="M 1236.3125 295.169026 
L 1256.3125 295.169026 
" style="fill:none;stroke:#000000;stroke-linecap:square;stroke-width:4;"/>
    </g>
    <g id="line2d_40"/>
    <g id="text_35">
     <!-- Pred -->
     <g transform="translate(1264.3125 298.669026)scale(0.1 -0.1)">
      <use xlink:href="#DejaVuSans-50"/>
      <use x="60.287109" xlink:href="#DejaVuSans-72"/>
      <use x="101.369141" xlink:href="#DejaVuSans-65"/>
      <use x="162.892578" xlink:href="#DejaVuSans-64"/>
     </g>
    </g>
    <g id="line2d_41">
     <path d="M 1236.3125 309.847151 
L 1256.3125 309.847151 
" style="fill:none;stroke:#ff0000;stroke-linecap:square;stroke-width:1.5;"/>
    </g>
    <g id="line2d_42"/>
    <g id="text_36">
     <!-- True -->
     <g transform="translate(1264.3125 313.347151)scale(0.1 -0.1)">
      <use xlink:href="#DejaVuSans-54"/>
      <use x="60.865234" xlink:href="#DejaVuSans-72"/>
      <use x="101.978516" xlink:href="#DejaVuSans-75"/>
      <use x="165.357422" xlink:href="#DejaVuSans-65"/>
     </g>
    </g>
   </g>
  </g>
  <g id="axes_3">
   <g id="patch_14">
    <path d="M 180 640.8 
L 1296 640.8 
L 1296 477.741176 
L 180 477.741176 
z
" style="fill:#ffffff;"/>
   </g>
   <g id="matplotlib.axis_5">
    <g id="xtick_19">
     <g id="line2d_43">
      <g>
       <use style="stroke:#000000;stroke-width:0.8;" x="225.629054" xlink:href="#m17944b6762" y="640.8"/>
      </g>
     </g>
     <g id="text_37">
      <!-- 0 -->
      <g transform="translate(222.447804 655.398438)scale(0.1 -0.1)">
       <use xlink:href="#DejaVuSans-30"/>
      </g>
     </g>
    </g>
    <g id="xtick_20">
     <g id="line2d_44">
      <g>
       <use style="stroke:#000000;stroke-width:0.8;" x="353.084513" xlink:href="#m17944b6762" y="640.8"/>
      </g>
     </g>
     <g id="text_38">
      <!-- 500 -->
      <g transform="translate(343.540763 655.398438)scale(0.1 -0.1)">
       <use xlink:href="#DejaVuSans-35"/>
       <use x="63.623047" xlink:href="#DejaVuSans-30"/>
       <use x="127.246094" xlink:href="#DejaVuSans-30"/>
      </g>
     </g>
    </g>
    <g id="xtick_21">
     <g id="line2d_45">
      <g>
       <use style="stroke:#000000;stroke-width:0.8;" x="480.539973" xlink:href="#m17944b6762" y="640.8"/>
      </g>
     </g>
     <g id="text_39">
      <!-- 1000 -->
      <g transform="translate(467.814973 655.398438)scale(0.1 -0.1)">
       <use xlink:href="#DejaVuSans-31"/>
       <use x="63.623047" xlink:href="#DejaVuSans-30"/>
       <use x="127.246094" xlink:href="#DejaVuSans-30"/>
       <use x="190.869141" xlink:href="#DejaVuSans-30"/>
      </g>
     </g>
    </g>
    <g id="xtick_22">
     <g id="line2d_46">
      <g>
       <use style="stroke:#000000;stroke-width:0.8;" x="607.995432" xlink:href="#m17944b6762" y="640.8"/>
      </g>
     </g>
     <g id="text_40">
      <!-- 1500 -->
      <g transform="translate(595.270432 655.398438)scale(0.1 -0.1)">
       <use xlink:href="#DejaVuSans-31"/>
       <use x="63.623047" xlink:href="#DejaVuSans-35"/>
       <use x="127.246094" xlink:href="#DejaVuSans-30"/>
       <use x="190.869141" xlink:href="#DejaVuSans-30"/>
      </g>
     </g>
    </g>
    <g id="xtick_23">
     <g id="line2d_47">
      <g>
       <use style="stroke:#000000;stroke-width:0.8;" x="735.450891" xlink:href="#m17944b6762" y="640.8"/>
      </g>
     </g>
     <g id="text_41">
      <!-- 2000 -->
      <g transform="translate(722.725891 655.398438)scale(0.1 -0.1)">
       <use xlink:href="#DejaVuSans-32"/>
       <use x="63.623047" xlink:href="#DejaVuSans-30"/>
       <use x="127.246094" xlink:href="#DejaVuSans-30"/>
       <use x="190.869141" xlink:href="#DejaVuSans-30"/>
      </g>
     </g>
    </g>
    <g id="xtick_24">
     <g id="line2d_48">
      <g>
       <use style="stroke:#000000;stroke-width:0.8;" x="862.90635" xlink:href="#m17944b6762" y="640.8"/>
      </g>
     </g>
     <g id="text_42">
      <!-- 2500 -->
      <g transform="translate(850.18135 655.398438)scale(0.1 -0.1)">
       <use xlink:href="#DejaVuSans-32"/>
       <use x="63.623047" xlink:href="#DejaVuSans-35"/>
       <use x="127.246094" xlink:href="#DejaVuSans-30"/>
       <use x="190.869141" xlink:href="#DejaVuSans-30"/>
      </g>
     </g>
    </g>
    <g id="xtick_25">
     <g id="line2d_49">
      <g>
       <use style="stroke:#000000;stroke-width:0.8;" x="990.361809" xlink:href="#m17944b6762" y="640.8"/>
      </g>
     </g>
     <g id="text_43">
      <!-- 3000 -->
      <g transform="translate(977.636809 655.398438)scale(0.1 -0.1)">
       <use xlink:href="#DejaVuSans-33"/>
       <use x="63.623047" xlink:href="#DejaVuSans-30"/>
       <use x="127.246094" xlink:href="#DejaVuSans-30"/>
       <use x="190.869141" xlink:href="#DejaVuSans-30"/>
      </g>
     </g>
    </g>
    <g id="xtick_26">
     <g id="line2d_50">
      <g>
       <use style="stroke:#000000;stroke-width:0.8;" x="1117.817268" xlink:href="#m17944b6762" y="640.8"/>
      </g>
     </g>
     <g id="text_44">
      <!-- 3500 -->
      <g transform="translate(1105.092268 655.398438)scale(0.1 -0.1)">
       <use xlink:href="#DejaVuSans-33"/>
       <use x="63.623047" xlink:href="#DejaVuSans-35"/>
       <use x="127.246094" xlink:href="#DejaVuSans-30"/>
       <use x="190.869141" xlink:href="#DejaVuSans-30"/>
      </g>
     </g>
    </g>
    <g id="xtick_27">
     <g id="line2d_51">
      <g>
       <use style="stroke:#000000;stroke-width:0.8;" x="1245.272727" xlink:href="#m17944b6762" y="640.8"/>
      </g>
     </g>
     <g id="text_45">
      <!-- 4000 -->
      <g transform="translate(1232.547727 655.398438)scale(0.1 -0.1)">
       <use xlink:href="#DejaVuSans-34"/>
       <use x="63.623047" xlink:href="#DejaVuSans-30"/>
       <use x="127.246094" xlink:href="#DejaVuSans-30"/>
       <use x="190.869141" xlink:href="#DejaVuSans-30"/>
      </g>
     </g>
    </g>
    <g id="text_46">
     <!-- Time -->
     <defs>
      <path d="M 9.421875 54.6875 
L 18.40625 54.6875 
L 18.40625 0 
L 9.421875 0 
z
M 9.421875 75.984375 
L 18.40625 75.984375 
L 18.40625 64.59375 
L 9.421875 64.59375 
z
" id="DejaVuSans-69"/>
      <path d="M 52 44.1875 
Q 55.375 50.25 60.0625 53.125 
Q 64.75 56 71.09375 56 
Q 79.640625 56 84.28125 50.015625 
Q 88.921875 44.046875 88.921875 33.015625 
L 88.921875 0 
L 79.890625 0 
L 79.890625 32.71875 
Q 79.890625 40.578125 77.09375 44.375 
Q 74.3125 48.1875 68.609375 48.1875 
Q 61.625 48.1875 57.5625 43.546875 
Q 53.515625 38.921875 53.515625 30.90625 
L 53.515625 0 
L 44.484375 0 
L 44.484375 32.71875 
Q 44.484375 40.625 41.703125 44.40625 
Q 38.921875 48.1875 33.109375 48.1875 
Q 26.21875 48.1875 22.15625 43.53125 
Q 18.109375 38.875 18.109375 30.90625 
L 18.109375 0 
L 9.078125 0 
L 9.078125 54.6875 
L 18.109375 54.6875 
L 18.109375 46.1875 
Q 21.1875 51.21875 25.484375 53.609375 
Q 29.78125 56 35.6875 56 
Q 41.65625 56 45.828125 52.96875 
Q 50 49.953125 52 44.1875 
z
" id="DejaVuSans-6d"/>
     </defs>
     <g transform="translate(725.6125 669.076563)scale(0.1 -0.1)">
      <use xlink:href="#DejaVuSans-54"/>
      <use x="61.037109" xlink:href="#DejaVuSans-69"/>
      <use x="88.820312" xlink:href="#DejaVuSans-6d"/>
      <use x="186.232422" xlink:href="#DejaVuSans-65"/>
     </g>
    </g>
   </g>
   <g id="matplotlib.axis_6">
    <g id="ytick_13">
     <g id="line2d_52">
      <g>
       <use style="stroke:#000000;stroke-width:0.8;" x="180" xlink:href="#m98c16e4f91" y="627.897829"/>
      </g>
     </g>
     <g id="text_47">
      <!-- −2 -->
      <g transform="translate(158.257812 631.697047)scale(0.1 -0.1)">
       <use xlink:href="#DejaVuSans-2212"/>
       <use x="83.789062" xlink:href="#DejaVuSans-32"/>
      </g>
     </g>
    </g>
    <g id="ytick_14">
     <g id="line2d_53">
      <g>
       <use style="stroke:#000000;stroke-width:0.8;" x="180" xlink:href="#m98c16e4f91" y="603.58191"/>
      </g>
     </g>
     <g id="text_48">
      <!-- −1 -->
      <g transform="translate(158.257812 607.381129)scale(0.1 -0.1)">
       <use xlink:href="#DejaVuSans-2212"/>
       <use x="83.789062" xlink:href="#DejaVuSans-31"/>
      </g>
     </g>
    </g>
    <g id="ytick_15">
     <g id="line2d_54">
      <g>
       <use style="stroke:#000000;stroke-width:0.8;" x="180" xlink:href="#m98c16e4f91" y="579.265992"/>
      </g>
     </g>
     <g id="text_49">
      <!-- 0 -->
      <g transform="translate(166.6375 583.065211)scale(0.1 -0.1)">
       <use xlink:href="#DejaVuSans-30"/>
      </g>
     </g>
    </g>
    <g id="ytick_16">
     <g id="line2d_55">
      <g>
       <use style="stroke:#000000;stroke-width:0.8;" x="180" xlink:href="#m98c16e4f91" y="554.950074"/>
      </g>
     </g>
     <g id="text_50">
      <!-- 1 -->
      <g transform="translate(166.6375 558.749292)scale(0.1 -0.1)">
       <use xlink:href="#DejaVuSans-31"/>
      </g>
     </g>
    </g>
    <g id="ytick_17">
     <g id="line2d_56">
      <g>
       <use style="stroke:#000000;stroke-width:0.8;" x="180" xlink:href="#m98c16e4f91" y="530.634155"/>
      </g>
     </g>
     <g id="text_51">
      <!-- 2 -->
      <g transform="translate(166.6375 534.433374)scale(0.1 -0.1)">
       <use xlink:href="#DejaVuSans-32"/>
      </g>
     </g>
    </g>
    <g id="ytick_18">
     <g id="line2d_57">
      <g>
       <use style="stroke:#000000;stroke-width:0.8;" x="180" xlink:href="#m98c16e4f91" y="506.318237"/>
      </g>
     </g>
     <g id="text_52">
      <!-- 3 -->
      <g transform="translate(166.6375 510.117456)scale(0.1 -0.1)">
       <use xlink:href="#DejaVuSans-33"/>
      </g>
     </g>
    </g>
    <g id="ytick_19">
     <g id="line2d_58">
      <g>
       <use style="stroke:#000000;stroke-width:0.8;" x="180" xlink:href="#m98c16e4f91" y="482.002319"/>
      </g>
     </g>
     <g id="text_53">
      <!-- 4 -->
      <g transform="translate(166.6375 485.801537)scale(0.1 -0.1)">
       <use xlink:href="#DejaVuSans-34"/>
      </g>
     </g>
    </g>
    <g id="text_54">
     <!-- Control Input -->
     <defs>
      <path d="M 64.40625 67.28125 
L 64.40625 56.890625 
Q 59.421875 61.53125 53.78125 63.8125 
Q 48.140625 66.109375 41.796875 66.109375 
Q 29.296875 66.109375 22.65625 58.46875 
Q 16.015625 50.828125 16.015625 36.375 
Q 16.015625 21.96875 22.65625 14.328125 
Q 29.296875 6.6875 41.796875 6.6875 
Q 48.140625 6.6875 53.78125 8.984375 
Q 59.421875 11.28125 64.40625 15.921875 
L 64.40625 5.609375 
Q 59.234375 2.09375 53.4375 0.328125 
Q 47.65625 -1.421875 41.21875 -1.421875 
Q 24.65625 -1.421875 15.125 8.703125 
Q 5.609375 18.84375 5.609375 36.375 
Q 5.609375 53.953125 15.125 64.078125 
Q 24.65625 74.21875 41.21875 74.21875 
Q 47.75 74.21875 53.53125 72.484375 
Q 59.328125 70.75 64.40625 67.28125 
z
" id="DejaVuSans-43"/>
      <path d="M 30.609375 48.390625 
Q 23.390625 48.390625 19.1875 42.75 
Q 14.984375 37.109375 14.984375 27.296875 
Q 14.984375 17.484375 19.15625 11.84375 
Q 23.34375 6.203125 30.609375 6.203125 
Q 37.796875 6.203125 41.984375 11.859375 
Q 46.1875 17.53125 46.1875 27.296875 
Q 46.1875 37.015625 41.984375 42.703125 
Q 37.796875 48.390625 30.609375 48.390625 
z
M 30.609375 56 
Q 42.328125 56 49.015625 48.375 
Q 55.71875 40.765625 55.71875 27.296875 
Q 55.71875 13.875 49.015625 6.21875 
Q 42.328125 -1.421875 30.609375 -1.421875 
Q 18.84375 -1.421875 12.171875 6.21875 
Q 5.515625 13.875 5.515625 27.296875 
Q 5.515625 40.765625 12.171875 48.375 
Q 18.84375 56 30.609375 56 
z
" id="DejaVuSans-6f"/>
      <path d="M 54.890625 33.015625 
L 54.890625 0 
L 45.90625 0 
L 45.90625 32.71875 
Q 45.90625 40.484375 42.875 44.328125 
Q 39.84375 48.1875 33.796875 48.1875 
Q 26.515625 48.1875 22.3125 43.546875 
Q 18.109375 38.921875 18.109375 30.90625 
L 18.109375 0 
L 9.078125 0 
L 9.078125 54.6875 
L 18.109375 54.6875 
L 18.109375 46.1875 
Q 21.34375 51.125 25.703125 53.5625 
Q 30.078125 56 35.796875 56 
Q 45.21875 56 50.046875 50.171875 
Q 54.890625 44.34375 54.890625 33.015625 
z
" id="DejaVuSans-6e"/>
      <path d="M 9.421875 75.984375 
L 18.40625 75.984375 
L 18.40625 0 
L 9.421875 0 
z
" id="DejaVuSans-6c"/>
      <path d="M 9.8125 72.90625 
L 19.671875 72.90625 
L 19.671875 0 
L 9.8125 0 
z
" id="DejaVuSans-49"/>
      <path d="M 18.109375 8.203125 
L 18.109375 -20.796875 
L 9.078125 -20.796875 
L 9.078125 54.6875 
L 18.109375 54.6875 
L 18.109375 46.390625 
Q 20.953125 51.265625 25.265625 53.625 
Q 29.59375 56 35.59375 56 
Q 45.5625 56 51.78125 48.09375 
Q 58.015625 40.1875 58.015625 27.296875 
Q 58.015625 14.40625 51.78125 6.484375 
Q 45.5625 -1.421875 35.59375 -1.421875 
Q 29.59375 -1.421875 25.265625 0.953125 
Q 20.953125 3.328125 18.109375 8.203125 
z
M 48.6875 27.296875 
Q 48.6875 37.203125 44.609375 42.84375 
Q 40.53125 48.484375 33.40625 48.484375 
Q 26.265625 48.484375 22.1875 42.84375 
Q 18.109375 37.203125 18.109375 27.296875 
Q 18.109375 17.390625 22.1875 11.75 
Q 26.265625 6.109375 33.40625 6.109375 
Q 40.53125 6.109375 44.609375 11.75 
Q 48.6875 17.390625 48.6875 27.296875 
z
" id="DejaVuSans-70"/>
     </defs>
     <g transform="translate(152.178125 591.988557)rotate(-90)scale(0.1 -0.1)">
      <use xlink:href="#DejaVuSans-43"/>
      <use x="69.824219" xlink:href="#DejaVuSans-6f"/>
      <use x="131.005859" xlink:href="#DejaVuSans-6e"/>
      <use x="194.384766" xlink:href="#DejaVuSans-74"/>
      <use x="233.59375" xlink:href="#DejaVuSans-72"/>
      <use x="274.675781" xlink:href="#DejaVuSans-6f"/>
      <use x="335.857422" xlink:href="#DejaVuSans-6c"/>
      <use x="363.640625" xlink:href="#DejaVuSans-20"/>
      <use x="395.427734" xlink:href="#DejaVuSans-49"/>
      <use x="424.919922" xlink:href="#DejaVuSans-6e"/>
      <use x="488.298828" xlink:href="#DejaVuSans-70"/>
      <use x="551.775391" xlink:href="#DejaVuSans-75"/>
      <use x="615.154297" xlink:href="#DejaVuSans-74"/>
     </g>
    </g>
   </g>
   <g id="line2d_59">
    <path clip-path="url(#pe21ccce75c)" d="M 230.727273 492.750163 
L 235.825491 493.919343 
L 240.923709 493.751704 
L 251.120146 493.204148 
L 256.218365 491.285889 
L 261.316583 491.177831 
L 266.414801 491.545938 
L 271.51302 492.076689 
L 276.611238 491.800626 
L 281.709456 492.193637 
L 286.807675 487.54845 
L 291.905893 491.415953 
L 297.004111 492.399283 
L 302.10233 491.481543 
L 307.200548 491.801373 
L 312.298767 490.576495 
L 317.396985 490.081831 
L 322.495203 489.369455 
L 327.593422 489.902175 
L 332.69164 489.092321 
L 337.789858 488.719306 
L 342.888077 489.386633 
L 347.986295 489.685847 
L 353.084513 490.113754 
L 358.182732 490.964074 
L 363.28095 490.125936 
L 368.379169 488.896286 
L 373.477387 488.029132 
L 378.575605 489.721055 
L 383.673824 488.199077 
L 388.772042 487.54715 
L 393.87026 487.589614 
L 398.968479 486.529232 
L 404.066697 489.673961 
L 409.164915 488.135692 
L 414.263134 485.824264 
L 419.361352 485.152941 
L 424.459571 490.772816 
L 429.557789 489.106708 
L 434.656007 489.315614 
L 444.852444 490.782601 
L 449.950662 490.453119 
L 455.048881 489.037322 
L 465.245317 488.453479 
L 470.343536 488.587442 
L 475.441754 490.986446 
L 480.539973 491.363371 
L 485.638191 491.135325 
L 490.736409 492.780337 
L 495.834628 491.760648 
L 500.932846 490.063753 
L 506.031064 489.276958 
L 511.129283 488.30214 
L 516.227501 489.889196 
L 521.32572 489.613843 
L 526.423938 490.434998 
L 531.522156 490.337437 
L 536.620375 488.488953 
L 541.718593 493.709188 
L 546.816811 491.394042 
L 551.91503 490.987777 
L 557.013248 491.645997 
L 562.111466 490.692954 
L 567.209685 489.192178 
L 572.307903 491.22928 
L 577.406122 492.403355 
L 582.50434 492.445246 
L 587.602558 491.672357 
L 592.700777 491.684459 
L 597.798995 490.671356 
L 602.897213 491.030752 
L 607.995432 491.773863 
L 613.09365 492.770986 
L 618.191868 491.320477 
L 623.290087 491.376959 
L 628.388305 492.205604 
L 633.486524 490.768515 
L 638.584742 491.249684 
L 643.68296 489.919552 
L 648.781179 493.00008 
L 653.879397 492.5985 
L 658.977615 491.676767 
L 669.174052 490.791904 
L 674.27227 491.760756 
L 679.370489 570.082247 
L 684.468707 601.185451 
L 689.566926 599.952099 
L 694.665144 600.421564 
L 699.763362 601.57914 
L 704.861581 602.921675 
L 709.959799 606.010927 
L 715.058017 607.005547 
L 720.156236 608.710876 
L 725.254454 611.257565 
L 735.450891 613.383169 
L 740.549109 614.212937 
L 745.647328 614.602232 
L 750.745546 612.954682 
L 755.843764 613.235115 
L 760.941983 614.032981 
L 766.040201 614.540156 
L 771.138419 614.414566 
L 776.236638 612.429545 
L 781.334856 612.607572 
L 786.433074 615.497175 
L 791.531293 615.826795 
L 796.629511 617.023058 
L 801.72773 616.813611 
L 806.825948 617.862129 
L 811.924166 618.340703 
L 817.022385 617.830041 
L 822.120603 619.390713 
L 827.218821 619.54416 
L 832.31704 621.679073 
L 837.415258 621.536013 
L 842.513476 623.124869 
L 852.709913 626.039062 
L 857.808132 626.554234 
L 862.90635 625.781145 
L 868.004568 627.727003 
L 873.102787 630.238086 
L 878.201005 630.190606 
L 883.299223 627.275026 
L 888.397442 625.211286 
L 893.49566 628.234258 
L 898.593878 626.528029 
L 903.692097 626.654598 
L 913.888534 628.320234 
L 918.986752 628.535283 
L 924.08497 631.609496 
L 929.183189 633.380038 
L 934.281407 633.388235 
L 939.379625 551.793519 
L 944.477844 537.779012 
L 949.576062 538.315064 
L 954.67428 536.596638 
L 959.772499 535.16665 
L 964.870717 533.084153 
L 969.968936 532.431936 
L 975.067154 534.209936 
L 980.165372 533.219207 
L 985.263591 531.566286 
L 990.361809 528.122364 
L 995.460027 528.512652 
L 1000.558246 529.947058 
L 1005.656464 529.663438 
L 1010.754683 528.970223 
L 1020.951119 528.298915 
L 1026.049338 528.227756 
L 1031.147556 527.736689 
L 1036.245774 524.626456 
L 1041.343993 523.237345 
L 1046.442211 523.570548 
L 1051.540429 523.109697 
L 1056.638648 518.970672 
L 1061.736866 518.845389 
L 1071.933303 520.39416 
L 1077.031521 520.499525 
L 1082.12974 520.2287 
L 1087.227958 520.922196 
L 1092.326176 517.649913 
L 1097.424395 520.9196 
L 1102.522613 517.02928 
L 1107.620831 516.328794 
L 1112.71905 516.353476 
L 1117.817268 514.755739 
L 1122.915487 511.332494 
L 1128.013705 515.878526 
L 1133.111923 513.104887 
L 1138.210142 514.699559 
L 1143.30836 515.249283 
L 1148.406578 511.885836 
L 1153.504797 511.529527 
L 1158.603015 512.252046 
L 1163.701233 512.467981 
L 1168.799452 509.241289 
L 1173.89767 510.762153 
L 1178.995889 504.971293 
L 1184.094107 503.86381 
L 1189.192325 506.535945 
L 1194.290544 507.238068 
L 1199.388762 514.585445 
L 1204.48698 507.738976 
L 1209.585199 511.808001 
L 1214.683417 511.892095 
L 1219.781635 515.195068 
L 1224.879854 513.133718 
L 1229.978072 513.444749 
L 1235.076291 511.587282 
L 1240.174509 509.176074 
L 1245.272727 511.534277 
L 1245.272727 511.534277 
" style="fill:none;stroke:#ff0000;stroke-linecap:square;stroke-width:1.5;"/>
   </g>
   <g id="patch_15">
    <path d="M 180 640.8 
L 180 477.741176 
" style="fill:none;stroke:#000000;stroke-linecap:square;stroke-linejoin:miter;stroke-width:0.8;"/>
   </g>
   <g id="patch_16">
    <path d="M 1296 640.8 
L 1296 477.741176 
" style="fill:none;stroke:#000000;stroke-linecap:square;stroke-linejoin:miter;stroke-width:0.8;"/>
   </g>
   <g id="patch_17">
    <path d="M 180 640.8 
L 1296 640.8 
" style="fill:none;stroke:#000000;stroke-linecap:square;stroke-linejoin:miter;stroke-width:0.8;"/>
   </g>
   <g id="patch_18">
    <path d="M 180 477.741176 
L 1296 477.741176 
" style="fill:none;stroke:#000000;stroke-linecap:square;stroke-linejoin:miter;stroke-width:0.8;"/>
   </g>
   <g id="legend_3">
    <g id="patch_19">
     <path d="M 1194.742188 500.419301 
L 1289 500.419301 
Q 1291 500.419301 1291 498.419301 
L 1291 484.741176 
Q 1291 482.741176 1289 482.741176 
L 1194.742188 482.741176 
Q 1192.742188 482.741176 1192.742188 484.741176 
L 1192.742188 498.419301 
Q 1192.742188 500.419301 1194.742188 500.419301 
z
" style="fill:#ffffff;opacity:0.8;stroke:#cccccc;stroke-linejoin:miter;"/>
    </g>
    <g id="line2d_60">
     <path d="M 1196.742188 490.839614 
L 1216.742188 490.839614 
" style="fill:none;stroke:#ff0000;stroke-linecap:square;stroke-width:1.5;"/>
    </g>
    <g id="line2d_61"/>
    <g id="text_55">
     <!-- ControlInput -->
     <g transform="translate(1224.742188 494.339614)scale(0.1 -0.1)">
      <use xlink:href="#DejaVuSans-43"/>
      <use x="69.824219" xlink:href="#DejaVuSans-6f"/>
      <use x="131.005859" xlink:href="#DejaVuSans-6e"/>
      <use x="194.384766" xlink:href="#DejaVuSans-74"/>
      <use x="233.59375" xlink:href="#DejaVuSans-72"/>
      <use x="274.675781" xlink:href="#DejaVuSans-6f"/>
      <use x="335.857422" xlink:href="#DejaVuSans-6c"/>
      <use x="363.640625" xlink:href="#DejaVuSans-49"/>
      <use x="393.132812" xlink:href="#DejaVuSans-6e"/>
      <use x="456.511719" xlink:href="#DejaVuSans-70"/>
      <use x="519.988281" xlink:href="#DejaVuSans-75"/>
      <use x="583.367188" xlink:href="#DejaVuSans-74"/>
     </g>
    </g>
   </g>
  </g>
 </g>
 <defs>
  <clipPath id="p181ad33ff5">
   <rect height="163.058824" width="1116" x="180" y="86.4"/>
  </clipPath>
  <clipPath id="p7548bb6690">
   <rect height="163.058824" width="1116" x="180" y="282.070588"/>
  </clipPath>
  <clipPath id="pe21ccce75c">
   <rect height="163.058824" width="1116" x="180" y="477.741176"/>
  </clipPath>
 </defs>
</svg>
