<?xml version="1.0" encoding="utf-8" standalone="no"?>
<!DOCTYPE svg PUBLIC "-//W3C//DTD SVG 1.1//EN"
  "http://www.w3.org/Graphics/SVG/1.1/DTD/svg11.dtd">
<!-- Created with matplotlib (http://matplotlib.org/) -->
<svg height="720pt" version="1.1" viewBox="0 0 1440 720" width="1440pt" xmlns="http://www.w3.org/2000/svg" xmlns:xlink="http://www.w3.org/1999/xlink">
 <defs>
  <style type="text/css">
*{stroke-linecap:butt;stroke-linejoin:round;}
  </style>
 </defs>
 <g id="figure_1">
  <g id="patch_1">
   <path d="M 0 720 
L 1440 720 
L 1440 0 
L 0 0 
z
" style="fill:#ffffff;"/>
  </g>
  <g id="axes_1">
   <g id="patch_2">
    <path d="M 180 249.458824 
L 1296 249.458824 
L 1296 86.4 
L 180 86.4 
z
" style="fill:#ffffff;"/>
   </g>
   <g id="matplotlib.axis_1">
    <g id="xtick_1">
     <g id="line2d_1">
      <defs>
       <path d="M 0 0 
L 0 3.5 
" id="mcb704d1ebc" style="stroke:#000000;stroke-width:0.8;"/>
      </defs>
      <g>
       <use style="stroke:#000000;stroke-width:0.8;" x="225.629054" xlink:href="#mcb704d1ebc" y="249.458824"/>
      </g>
     </g>
     <g id="text_1">
      <!-- 0 -->
      <defs>
       <path d="M 31.78125 66.40625 
Q 24.171875 66.40625 20.328125 58.90625 
Q 16.5 51.421875 16.5 36.375 
Q 16.5 21.390625 20.328125 13.890625 
Q 24.171875 6.390625 31.78125 6.390625 
Q 39.453125 6.390625 43.28125 13.890625 
Q 47.125 21.390625 47.125 36.375 
Q 47.125 51.421875 43.28125 58.90625 
Q 39.453125 66.40625 31.78125 66.40625 
z
M 31.78125 74.21875 
Q 44.046875 74.21875 50.515625 64.515625 
Q 56.984375 54.828125 56.984375 36.375 
Q 56.984375 17.96875 50.515625 8.265625 
Q 44.046875 -1.421875 31.78125 -1.421875 
Q 19.53125 -1.421875 13.0625 8.265625 
Q 6.59375 17.96875 6.59375 36.375 
Q 6.59375 54.828125 13.0625 64.515625 
Q 19.53125 74.21875 31.78125 74.21875 
z
" id="DejaVuSans-30"/>
      </defs>
      <g transform="translate(222.447804 264.057261)scale(0.1 -0.1)">
       <use xlink:href="#DejaVuSans-30"/>
      </g>
     </g>
    </g>
    <g id="xtick_2">
     <g id="line2d_2">
      <g>
       <use style="stroke:#000000;stroke-width:0.8;" x="353.084513" xlink:href="#mcb704d1ebc" y="249.458824"/>
      </g>
     </g>
     <g id="text_2">
      <!-- 500 -->
      <defs>
       <path d="M 10.796875 72.90625 
L 49.515625 72.90625 
L 49.515625 64.59375 
L 19.828125 64.59375 
L 19.828125 46.734375 
Q 21.96875 47.46875 24.109375 47.828125 
Q 26.265625 48.1875 28.421875 48.1875 
Q 40.625 48.1875 47.75 41.5 
Q 54.890625 34.8125 54.890625 23.390625 
Q 54.890625 11.625 47.5625 5.09375 
Q 40.234375 -1.421875 26.90625 -1.421875 
Q 22.3125 -1.421875 17.546875 -0.640625 
Q 12.796875 0.140625 7.71875 1.703125 
L 7.71875 11.625 
Q 12.109375 9.234375 16.796875 8.0625 
Q 21.484375 6.890625 26.703125 6.890625 
Q 35.15625 6.890625 40.078125 11.328125 
Q 45.015625 15.765625 45.015625 23.390625 
Q 45.015625 31 40.078125 35.4375 
Q 35.15625 39.890625 26.703125 39.890625 
Q 22.75 39.890625 18.8125 39.015625 
Q 14.890625 38.140625 10.796875 36.28125 
z
" id="DejaVuSans-35"/>
      </defs>
      <g transform="translate(343.540763 264.057261)scale(0.1 -0.1)">
       <use xlink:href="#DejaVuSans-35"/>
       <use x="63.623047" xlink:href="#DejaVuSans-30"/>
       <use x="127.246094" xlink:href="#DejaVuSans-30"/>
      </g>
     </g>
    </g>
    <g id="xtick_3">
     <g id="line2d_3">
      <g>
       <use style="stroke:#000000;stroke-width:0.8;" x="480.539973" xlink:href="#mcb704d1ebc" y="249.458824"/>
      </g>
     </g>
     <g id="text_3">
      <!-- 1000 -->
      <defs>
       <path d="M 12.40625 8.296875 
L 28.515625 8.296875 
L 28.515625 63.921875 
L 10.984375 60.40625 
L 10.984375 69.390625 
L 28.421875 72.90625 
L 38.28125 72.90625 
L 38.28125 8.296875 
L 54.390625 8.296875 
L 54.390625 0 
L 12.40625 0 
z
" id="DejaVuSans-31"/>
      </defs>
      <g transform="translate(467.814973 264.057261)scale(0.1 -0.1)">
       <use xlink:href="#DejaVuSans-31"/>
       <use x="63.623047" xlink:href="#DejaVuSans-30"/>
       <use x="127.246094" xlink:href="#DejaVuSans-30"/>
       <use x="190.869141" xlink:href="#DejaVuSans-30"/>
      </g>
     </g>
    </g>
    <g id="xtick_4">
     <g id="line2d_4">
      <g>
       <use style="stroke:#000000;stroke-width:0.8;" x="607.995432" xlink:href="#mcb704d1ebc" y="249.458824"/>
      </g>
     </g>
     <g id="text_4">
      <!-- 1500 -->
      <g transform="translate(595.270432 264.057261)scale(0.1 -0.1)">
       <use xlink:href="#DejaVuSans-31"/>
       <use x="63.623047" xlink:href="#DejaVuSans-35"/>
       <use x="127.246094" xlink:href="#DejaVuSans-30"/>
       <use x="190.869141" xlink:href="#DejaVuSans-30"/>
      </g>
     </g>
    </g>
    <g id="xtick_5">
     <g id="line2d_5">
      <g>
       <use style="stroke:#000000;stroke-width:0.8;" x="735.450891" xlink:href="#mcb704d1ebc" y="249.458824"/>
      </g>
     </g>
     <g id="text_5">
      <!-- 2000 -->
      <defs>
       <path d="M 19.1875 8.296875 
L 53.609375 8.296875 
L 53.609375 0 
L 7.328125 0 
L 7.328125 8.296875 
Q 12.9375 14.109375 22.625 23.890625 
Q 32.328125 33.6875 34.8125 36.53125 
Q 39.546875 41.84375 41.421875 45.53125 
Q 43.3125 49.21875 43.3125 52.78125 
Q 43.3125 58.59375 39.234375 62.25 
Q 35.15625 65.921875 28.609375 65.921875 
Q 23.96875 65.921875 18.8125 64.3125 
Q 13.671875 62.703125 7.8125 59.421875 
L 7.8125 69.390625 
Q 13.765625 71.78125 18.9375 73 
Q 24.125 74.21875 28.421875 74.21875 
Q 39.75 74.21875 46.484375 68.546875 
Q 53.21875 62.890625 53.21875 53.421875 
Q 53.21875 48.921875 51.53125 44.890625 
Q 49.859375 40.875 45.40625 35.40625 
Q 44.1875 33.984375 37.640625 27.21875 
Q 31.109375 20.453125 19.1875 8.296875 
z
" id="DejaVuSans-32"/>
      </defs>
      <g transform="translate(722.725891 264.057261)scale(0.1 -0.1)">
       <use xlink:href="#DejaVuSans-32"/>
       <use x="63.623047" xlink:href="#DejaVuSans-30"/>
       <use x="127.246094" xlink:href="#DejaVuSans-30"/>
       <use x="190.869141" xlink:href="#DejaVuSans-30"/>
      </g>
     </g>
    </g>
    <g id="xtick_6">
     <g id="line2d_6">
      <g>
       <use style="stroke:#000000;stroke-width:0.8;" x="862.90635" xlink:href="#mcb704d1ebc" y="249.458824"/>
      </g>
     </g>
     <g id="text_6">
      <!-- 2500 -->
      <g transform="translate(850.18135 264.057261)scale(0.1 -0.1)">
       <use xlink:href="#DejaVuSans-32"/>
       <use x="63.623047" xlink:href="#DejaVuSans-35"/>
       <use x="127.246094" xlink:href="#DejaVuSans-30"/>
       <use x="190.869141" xlink:href="#DejaVuSans-30"/>
      </g>
     </g>
    </g>
    <g id="xtick_7">
     <g id="line2d_7">
      <g>
       <use style="stroke:#000000;stroke-width:0.8;" x="990.361809" xlink:href="#mcb704d1ebc" y="249.458824"/>
      </g>
     </g>
     <g id="text_7">
      <!-- 3000 -->
      <defs>
       <path d="M 40.578125 39.3125 
Q 47.65625 37.796875 51.625 33 
Q 55.609375 28.21875 55.609375 21.1875 
Q 55.609375 10.40625 48.1875 4.484375 
Q 40.765625 -1.421875 27.09375 -1.421875 
Q 22.515625 -1.421875 17.65625 -0.515625 
Q 12.796875 0.390625 7.625 2.203125 
L 7.625 11.71875 
Q 11.71875 9.328125 16.59375 8.109375 
Q 21.484375 6.890625 26.8125 6.890625 
Q 36.078125 6.890625 40.9375 10.546875 
Q 45.796875 14.203125 45.796875 21.1875 
Q 45.796875 27.640625 41.28125 31.265625 
Q 36.765625 34.90625 28.71875 34.90625 
L 20.21875 34.90625 
L 20.21875 43.015625 
L 29.109375 43.015625 
Q 36.375 43.015625 40.234375 45.921875 
Q 44.09375 48.828125 44.09375 54.296875 
Q 44.09375 59.90625 40.109375 62.90625 
Q 36.140625 65.921875 28.71875 65.921875 
Q 24.65625 65.921875 20.015625 65.03125 
Q 15.375 64.15625 9.8125 62.3125 
L 9.8125 71.09375 
Q 15.4375 72.65625 20.34375 73.4375 
Q 25.25 74.21875 29.59375 74.21875 
Q 40.828125 74.21875 47.359375 69.109375 
Q 53.90625 64.015625 53.90625 55.328125 
Q 53.90625 49.265625 50.4375 45.09375 
Q 46.96875 40.921875 40.578125 39.3125 
z
" id="DejaVuSans-33"/>
      </defs>
      <g transform="translate(977.636809 264.057261)scale(0.1 -0.1)">
       <use xlink:href="#DejaVuSans-33"/>
       <use x="63.623047" xlink:href="#DejaVuSans-30"/>
       <use x="127.246094" xlink:href="#DejaVuSans-30"/>
       <use x="190.869141" xlink:href="#DejaVuSans-30"/>
      </g>
     </g>
    </g>
    <g id="xtick_8">
     <g id="line2d_8">
      <g>
       <use style="stroke:#000000;stroke-width:0.8;" x="1117.817268" xlink:href="#mcb704d1ebc" y="249.458824"/>
      </g>
     </g>
     <g id="text_8">
      <!-- 3500 -->
      <g transform="translate(1105.092268 264.057261)scale(0.1 -0.1)">
       <use xlink:href="#DejaVuSans-33"/>
       <use x="63.623047" xlink:href="#DejaVuSans-35"/>
       <use x="127.246094" xlink:href="#DejaVuSans-30"/>
       <use x="190.869141" xlink:href="#DejaVuSans-30"/>
      </g>
     </g>
    </g>
    <g id="xtick_9">
     <g id="line2d_9">
      <g>
       <use style="stroke:#000000;stroke-width:0.8;" x="1245.272727" xlink:href="#mcb704d1ebc" y="249.458824"/>
      </g>
     </g>
     <g id="text_9">
      <!-- 4000 -->
      <defs>
       <path d="M 37.796875 64.3125 
L 12.890625 25.390625 
L 37.796875 25.390625 
z
M 35.203125 72.90625 
L 47.609375 72.90625 
L 47.609375 25.390625 
L 58.015625 25.390625 
L 58.015625 17.1875 
L 47.609375 17.1875 
L 47.609375 0 
L 37.796875 0 
L 37.796875 17.1875 
L 4.890625 17.1875 
L 4.890625 26.703125 
z
" id="DejaVuSans-34"/>
      </defs>
      <g transform="translate(1232.547727 264.057261)scale(0.1 -0.1)">
       <use xlink:href="#DejaVuSans-34"/>
       <use x="63.623047" xlink:href="#DejaVuSans-30"/>
       <use x="127.246094" xlink:href="#DejaVuSans-30"/>
       <use x="190.869141" xlink:href="#DejaVuSans-30"/>
      </g>
     </g>
    </g>
   </g>
   <g id="matplotlib.axis_2">
    <g id="ytick_1">
     <g id="line2d_10">
      <defs>
       <path d="M 0 0 
L -3.5 0 
" id="m1de707d4c8" style="stroke:#000000;stroke-width:0.8;"/>
      </defs>
      <g>
       <use style="stroke:#000000;stroke-width:0.8;" x="180" xlink:href="#m1de707d4c8" y="236.345701"/>
      </g>
     </g>
     <g id="text_10">
      <!-- −3 -->
      <defs>
       <path d="M 10.59375 35.5 
L 73.1875 35.5 
L 73.1875 27.203125 
L 10.59375 27.203125 
z
" id="DejaVuSans-2212"/>
      </defs>
      <g transform="translate(158.257812 240.14492)scale(0.1 -0.1)">
       <use xlink:href="#DejaVuSans-2212"/>
       <use x="83.789062" xlink:href="#DejaVuSans-33"/>
      </g>
     </g>
    </g>
    <g id="ytick_2">
     <g id="line2d_11">
      <g>
       <use style="stroke:#000000;stroke-width:0.8;" x="180" xlink:href="#m1de707d4c8" y="198.336652"/>
      </g>
     </g>
     <g id="text_11">
      <!-- −2 -->
      <g transform="translate(158.257812 202.13587)scale(0.1 -0.1)">
       <use xlink:href="#DejaVuSans-2212"/>
       <use x="83.789062" xlink:href="#DejaVuSans-32"/>
      </g>
     </g>
    </g>
    <g id="ytick_3">
     <g id="line2d_12">
      <g>
       <use style="stroke:#000000;stroke-width:0.8;" x="180" xlink:href="#m1de707d4c8" y="160.327602"/>
      </g>
     </g>
     <g id="text_12">
      <!-- −1 -->
      <g transform="translate(158.257812 164.126821)scale(0.1 -0.1)">
       <use xlink:href="#DejaVuSans-2212"/>
       <use x="83.789062" xlink:href="#DejaVuSans-31"/>
      </g>
     </g>
    </g>
    <g id="ytick_4">
     <g id="line2d_13">
      <g>
       <use style="stroke:#000000;stroke-width:0.8;" x="180" xlink:href="#m1de707d4c8" y="122.318552"/>
      </g>
     </g>
     <g id="text_13">
      <!-- 0 -->
      <g transform="translate(166.6375 126.117771)scale(0.1 -0.1)">
       <use xlink:href="#DejaVuSans-30"/>
      </g>
     </g>
    </g>
    <g id="text_14">
     <!-- TD State:0 -->
     <defs>
      <path d="M -0.296875 72.90625 
L 61.375 72.90625 
L 61.375 64.59375 
L 35.5 64.59375 
L 35.5 0 
L 25.59375 0 
L 25.59375 64.59375 
L -0.296875 64.59375 
z
" id="DejaVuSans-54"/>
      <path d="M 19.671875 64.796875 
L 19.671875 8.109375 
L 31.59375 8.109375 
Q 46.6875 8.109375 53.6875 14.9375 
Q 60.6875 21.78125 60.6875 36.53125 
Q 60.6875 51.171875 53.6875 57.984375 
Q 46.6875 64.796875 31.59375 64.796875 
z
M 9.8125 72.90625 
L 30.078125 72.90625 
Q 51.265625 72.90625 61.171875 64.09375 
Q 71.09375 55.28125 71.09375 36.53125 
Q 71.09375 17.671875 61.125 8.828125 
Q 51.171875 0 30.078125 0 
L 9.8125 0 
z
" id="DejaVuSans-44"/>
      <path id="DejaVuSans-20"/>
      <path d="M 53.515625 70.515625 
L 53.515625 60.890625 
Q 47.90625 63.578125 42.921875 64.890625 
Q 37.9375 66.21875 33.296875 66.21875 
Q 25.25 66.21875 20.875 63.09375 
Q 16.5 59.96875 16.5 54.203125 
Q 16.5 49.359375 19.40625 46.890625 
Q 22.3125 44.4375 30.421875 42.921875 
L 36.375 41.703125 
Q 47.40625 39.59375 52.65625 34.296875 
Q 57.90625 29 57.90625 20.125 
Q 57.90625 9.515625 50.796875 4.046875 
Q 43.703125 -1.421875 29.984375 -1.421875 
Q 24.8125 -1.421875 18.96875 -0.25 
Q 13.140625 0.921875 6.890625 3.21875 
L 6.890625 13.375 
Q 12.890625 10.015625 18.65625 8.296875 
Q 24.421875 6.59375 29.984375 6.59375 
Q 38.421875 6.59375 43.015625 9.90625 
Q 47.609375 13.234375 47.609375 19.390625 
Q 47.609375 24.75 44.3125 27.78125 
Q 41.015625 30.8125 33.5 32.328125 
L 27.484375 33.5 
Q 16.453125 35.6875 11.515625 40.375 
Q 6.59375 45.0625 6.59375 53.421875 
Q 6.59375 63.09375 13.40625 68.65625 
Q 20.21875 74.21875 32.171875 74.21875 
Q 37.3125 74.21875 42.625 73.28125 
Q 47.953125 72.359375 53.515625 70.515625 
z
" id="DejaVuSans-53"/>
      <path d="M 18.3125 70.21875 
L 18.3125 54.6875 
L 36.8125 54.6875 
L 36.8125 47.703125 
L 18.3125 47.703125 
L 18.3125 18.015625 
Q 18.3125 11.328125 20.140625 9.421875 
Q 21.96875 7.515625 27.59375 7.515625 
L 36.8125 7.515625 
L 36.8125 0 
L 27.59375 0 
Q 17.1875 0 13.234375 3.875 
Q 9.28125 7.765625 9.28125 18.015625 
L 9.28125 47.703125 
L 2.6875 47.703125 
L 2.6875 54.6875 
L 9.28125 54.6875 
L 9.28125 70.21875 
z
" id="DejaVuSans-74"/>
      <path d="M 34.28125 27.484375 
Q 23.390625 27.484375 19.1875 25 
Q 14.984375 22.515625 14.984375 16.5 
Q 14.984375 11.71875 18.140625 8.90625 
Q 21.296875 6.109375 26.703125 6.109375 
Q 34.1875 6.109375 38.703125 11.40625 
Q 43.21875 16.703125 43.21875 25.484375 
L 43.21875 27.484375 
z
M 52.203125 31.203125 
L 52.203125 0 
L 43.21875 0 
L 43.21875 8.296875 
Q 40.140625 3.328125 35.546875 0.953125 
Q 30.953125 -1.421875 24.3125 -1.421875 
Q 15.921875 -1.421875 10.953125 3.296875 
Q 6 8.015625 6 15.921875 
Q 6 25.140625 12.171875 29.828125 
Q 18.359375 34.515625 30.609375 34.515625 
L 43.21875 34.515625 
L 43.21875 35.40625 
Q 43.21875 41.609375 39.140625 45 
Q 35.0625 48.390625 27.6875 48.390625 
Q 23 48.390625 18.546875 47.265625 
Q 14.109375 46.140625 10.015625 43.890625 
L 10.015625 52.203125 
Q 14.9375 54.109375 19.578125 55.046875 
Q 24.21875 56 28.609375 56 
Q 40.484375 56 46.34375 49.84375 
Q 52.203125 43.703125 52.203125 31.203125 
z
" id="DejaVuSans-61"/>
      <path d="M 56.203125 29.59375 
L 56.203125 25.203125 
L 14.890625 25.203125 
Q 15.484375 15.921875 20.484375 11.0625 
Q 25.484375 6.203125 34.421875 6.203125 
Q 39.59375 6.203125 44.453125 7.46875 
Q 49.3125 8.734375 54.109375 11.28125 
L 54.109375 2.78125 
Q 49.265625 0.734375 44.1875 -0.34375 
Q 39.109375 -1.421875 33.890625 -1.421875 
Q 20.796875 -1.421875 13.15625 6.1875 
Q 5.515625 13.8125 5.515625 26.8125 
Q 5.515625 40.234375 12.765625 48.109375 
Q 20.015625 56 32.328125 56 
Q 43.359375 56 49.78125 48.890625 
Q 56.203125 41.796875 56.203125 29.59375 
z
M 47.21875 32.234375 
Q 47.125 39.59375 43.09375 43.984375 
Q 39.0625 48.390625 32.421875 48.390625 
Q 24.90625 48.390625 20.390625 44.140625 
Q 15.875 39.890625 15.1875 32.171875 
z
" id="DejaVuSans-65"/>
      <path d="M 11.71875 12.40625 
L 22.015625 12.40625 
L 22.015625 0 
L 11.71875 0 
z
M 11.71875 51.703125 
L 22.015625 51.703125 
L 22.015625 39.3125 
L 11.71875 39.3125 
z
" id="DejaVuSans-3a"/>
     </defs>
     <g transform="translate(152.178125 194.523162)rotate(-90)scale(0.1 -0.1)">
      <use xlink:href="#DejaVuSans-54"/>
      <use x="61.083984" xlink:href="#DejaVuSans-44"/>
      <use x="138.085938" xlink:href="#DejaVuSans-20"/>
      <use x="169.873047" xlink:href="#DejaVuSans-53"/>
      <use x="233.349609" xlink:href="#DejaVuSans-74"/>
      <use x="272.558594" xlink:href="#DejaVuSans-61"/>
      <use x="333.837891" xlink:href="#DejaVuSans-74"/>
      <use x="373.046875" xlink:href="#DejaVuSans-65"/>
      <use x="434.570312" xlink:href="#DejaVuSans-3a"/>
      <use x="468.261719" xlink:href="#DejaVuSans-30"/>
     </g>
    </g>
   </g>
   <g id="line2d_14">
    <path clip-path="url(#pfc7bea736b)" d="M 230.727273 140.531263 
L 235.825491 145.388212 
L 240.923709 145.555743 
L 246.021928 152.121606 
L 251.120146 150.236645 
L 256.218365 153.738034 
L 261.316583 155.344964 
L 266.414801 157.898015 
L 271.51302 157.635954 
L 276.611238 161.834451 
L 281.709456 161.57437 
L 286.807675 161.881456 
L 291.905893 162.599053 
L 297.004111 159.866816 
L 302.10233 162.589593 
L 307.200548 162.519833 
L 312.298767 165.312779 
L 317.396985 162.916661 
L 322.495203 165.593205 
L 327.593422 162.963675 
L 332.69164 165.662339 
L 337.789858 165.75035 
L 347.986295 165.537246 
L 353.084513 162.931595 
L 358.182732 167.76472 
L 363.28095 165.447006 
L 373.477387 165.929978 
L 378.575605 163.037168 
L 383.673824 165.8975 
L 388.772042 166.048927 
L 393.87026 171.066011 
L 398.968479 163.775835 
L 404.066697 165.575887 
L 409.164915 163.417013 
L 414.263134 166.456756 
L 419.361352 169.124301 
L 424.459571 162.827617 
L 429.557789 163.209057 
L 434.656007 163.164436 
L 439.754226 162.998201 
L 444.852444 165.348647 
L 449.950662 162.915048 
L 455.048881 163.239651 
L 465.245317 163.378083 
L 470.343536 165.862284 
L 475.441754 162.808659 
L 480.539973 160.214337 
L 485.638191 162.780313 
L 490.736409 162.409421 
L 495.834628 195.296483 
L 500.932846 163.037132 
L 506.031064 160.707094 
L 511.129283 160.931253 
L 516.227501 160.573193 
L 521.32572 160.638295 
L 526.423938 160.454154 
L 531.522156 162.990516 
L 536.620375 165.925175 
L 541.718593 164.742322 
L 546.816811 165.271692 
L 551.91503 162.855528 
L 557.013248 165.220727 
L 562.111466 162.928604 
L 567.209685 165.784242 
L 572.307903 165.324687 
L 577.406122 167.572948 
L 582.50434 165.055217 
L 587.602558 162.722424 
L 592.700777 165.234356 
L 597.798995 165.467795 
L 602.897213 167.901067 
L 607.995432 165.224134 
L 613.09365 165.00099 
L 618.191868 162.82189 
L 623.290087 165.323817 
L 628.388305 162.626946 
L 633.486524 162.956516 
L 638.584742 165.36195 
L 643.68296 163.155446 
L 648.781179 162.458392 
L 653.879397 167.576066 
L 658.977615 162.765777 
L 669.174052 157.948676 
L 674.27227 152.707396 
L 679.370489 132.400617 
L 684.468707 125.334526 
L 689.566926 123.104099 
L 694.665144 122.998109 
L 699.763362 122.735671 
L 704.861581 119.919907 
L 709.959799 116.706717 
L 715.058017 116.480673 
L 720.156236 116.093106 
L 725.254454 115.514439 
L 730.352672 115.273461 
L 735.450891 112.519754 
L 745.647328 112.242092 
L 750.745546 110.10417 
L 755.843764 115.063221 
L 760.941983 109.858407 
L 766.040201 109.742703 
L 771.138419 109.770251 
L 776.236638 107.708886 
L 781.334856 107.667418 
L 786.433074 109.521443 
L 791.531293 106.934188 
L 796.629511 106.661311 
L 801.72773 106.707854 
L 806.825948 106.46847 
L 811.924166 106.358711 
L 817.022385 106.473545 
L 822.120603 106.117877 
L 827.218821 103.56977 
L 832.31704 105.595467 
L 837.415258 105.626786 
L 842.513476 102.752589 
L 847.611695 104.931834 
L 852.709913 99.576662 
L 857.808132 101.969192 
L 862.90635 102.143329 
L 868.004568 101.699867 
L 873.102787 98.616228 
L 878.201005 98.625073 
L 883.299223 101.79752 
L 888.397442 99.753264 
L 893.49566 101.576261 
L 898.593878 99.450953 
L 903.692097 99.420142 
L 913.888534 99.038158 
L 918.986752 101.499125 
L 924.08497 100.799243 
L 929.183189 102.907369 
L 934.281407 107.92768 
L 939.379625 123.95557 
L 944.477844 129.651186 
L 949.576062 132.040744 
L 954.67428 129.919496 
L 959.772499 132.755705 
L 964.870717 133.228817 
L 969.968936 130.865357 
L 975.067154 140.507829 
L 980.165372 143.245804 
L 985.263591 141.111072 
L 990.361809 141.894614 
L 995.460027 141.807111 
L 1000.558246 146.505755 
L 1010.754683 141.707356 
L 1020.951119 146.886072 
L 1026.049338 159.462621 
L 1031.147556 144.507461 
L 1036.245774 145.215752 
L 1041.343993 148.044493 
L 1046.442211 145.458833 
L 1051.540429 148.076682 
L 1056.638648 149.019136 
L 1061.736866 149.049295 
L 1071.933303 148.700949 
L 1087.227958 148.586477 
L 1092.326176 151.843455 
L 1097.424395 148.590972 
L 1102.522613 149.476662 
L 1107.620831 149.637894 
L 1112.71905 149.633907 
L 1117.817268 152.510496 
L 1122.915487 150.778772 
L 1128.013705 152.25944 
L 1133.111923 152.891755 
L 1138.210142 150.020168 
L 1143.30836 152.408348 
L 1148.406578 153.174781 
L 1153.504797 150.746438 
L 1158.603015 153.095615 
L 1163.701233 153.048637 
L 1168.799452 156.295901 
L 1173.89767 155.952848 
L 1178.995889 157.271414 
L 1184.094107 155.013728 
L 1189.192325 154.408672 
L 1194.290544 154.251354 
L 1199.388762 157.607798 
L 1204.48698 156.654614 
L 1209.585199 153.220599 
L 1214.683417 153.203345 
L 1219.781635 154.967185 
L 1224.879854 157.949836 
L 1229.978072 157.881835 
L 1235.076291 153.283526 
L 1240.174509 156.345199 
L 1245.272727 153.300345 
L 1245.272727 153.300345 
" style="fill:none;stroke:#000000;stroke-linecap:square;stroke-width:4;"/>
   </g>
   <g id="line2d_15">
    <path clip-path="url(#pfc7bea736b)" d="M 230.727273 162.228054 
L 235.825491 167.929412 
L 240.923709 162.228054 
L 246.021928 167.929412 
L 251.120146 162.228054 
L 256.218365 167.929412 
L 266.414801 167.929412 
L 271.51302 162.228054 
L 276.611238 167.929412 
L 281.709456 162.228054 
L 286.807675 162.228054 
L 291.905893 167.929412 
L 297.004111 162.228054 
L 302.10233 167.929412 
L 307.200548 167.929412 
L 312.298767 173.630769 
L 317.396985 167.929412 
L 322.495203 173.630769 
L 327.593422 167.929412 
L 332.69164 173.630769 
L 347.986295 173.630769 
L 353.084513 167.929412 
L 358.182732 179.332127 
L 363.28095 173.630769 
L 373.477387 173.630769 
L 378.575605 167.929412 
L 383.673824 173.630769 
L 388.772042 173.630769 
L 393.87026 185.033484 
L 398.968479 167.929412 
L 404.066697 173.630769 
L 409.164915 167.929412 
L 419.361352 179.332127 
L 424.459571 167.929412 
L 439.754226 167.929412 
L 444.852444 173.630769 
L 449.950662 167.929412 
L 465.245317 167.929412 
L 470.343536 173.630769 
L 480.539973 162.228054 
L 485.638191 167.929412 
L 490.736409 167.929412 
L 495.834628 242.047059 
L 500.932846 167.929412 
L 506.031064 162.228054 
L 526.423938 162.228054 
L 536.620375 173.630769 
L 546.816811 173.630769 
L 551.91503 167.929412 
L 557.013248 173.630769 
L 562.111466 167.929412 
L 567.209685 173.630769 
L 572.307903 173.630769 
L 577.406122 179.332127 
L 587.602558 167.929412 
L 592.700777 173.630769 
L 597.798995 173.630769 
L 602.897213 179.332127 
L 607.995432 173.630769 
L 613.09365 173.630769 
L 618.191868 167.929412 
L 623.290087 173.630769 
L 628.388305 167.929412 
L 633.486524 167.929412 
L 638.584742 173.630769 
L 643.68296 167.929412 
L 648.781179 167.929412 
L 653.879397 179.332127 
L 658.977615 167.929412 
L 669.174052 156.526697 
L 674.27227 145.123982 
L 679.370489 139.422624 
L 684.468707 139.422624 
L 689.566926 133.721267 
L 699.763362 133.721267 
L 709.959799 122.318552 
L 730.352672 122.318552 
L 735.450891 116.617195 
L 745.647328 116.617195 
L 750.745546 110.915837 
L 755.843764 122.318552 
L 760.941983 110.915837 
L 771.138419 110.915837 
L 776.236638 105.21448 
L 781.334856 105.21448 
L 786.433074 110.915837 
L 791.531293 105.21448 
L 822.120603 105.21448 
L 827.218821 99.513122 
L 832.31704 105.21448 
L 837.415258 105.21448 
L 842.513476 99.513122 
L 847.611695 105.21448 
L 852.709913 93.811765 
L 857.808132 99.513122 
L 868.004568 99.513122 
L 873.102787 93.811765 
L 878.201005 93.811765 
L 883.299223 99.513122 
L 888.397442 93.811765 
L 893.49566 99.513122 
L 898.593878 93.811765 
L 913.888534 93.811765 
L 918.986752 99.513122 
L 924.08497 99.513122 
L 929.183189 105.21448 
L 934.281407 116.617195 
L 939.379625 110.915837 
L 949.576062 122.318552 
L 954.67428 116.617195 
L 959.772499 122.318552 
L 964.870717 122.318552 
L 969.968936 116.617195 
L 975.067154 139.422624 
L 980.165372 145.123982 
L 985.263591 139.422624 
L 995.460027 139.422624 
L 1000.558246 150.825339 
L 1010.754683 139.422624 
L 1020.951119 150.825339 
L 1026.049338 179.332127 
L 1031.147556 145.123982 
L 1036.245774 145.123982 
L 1041.343993 150.825339 
L 1046.442211 145.123982 
L 1051.540429 150.825339 
L 1087.227958 150.825339 
L 1092.326176 156.526697 
L 1097.424395 150.825339 
L 1112.71905 150.825339 
L 1117.817268 156.526697 
L 1122.915487 150.825339 
L 1128.013705 156.526697 
L 1133.111923 156.526697 
L 1138.210142 150.825339 
L 1143.30836 156.526697 
L 1148.406578 156.526697 
L 1153.504797 150.825339 
L 1158.603015 156.526697 
L 1163.701233 156.526697 
L 1168.799452 162.228054 
L 1178.995889 162.228054 
L 1184.094107 156.526697 
L 1194.290544 156.526697 
L 1199.388762 167.929412 
L 1209.585199 156.526697 
L 1214.683417 156.526697 
L 1224.879854 167.929412 
L 1229.978072 167.929412 
L 1235.076291 156.526697 
L 1240.174509 162.228054 
L 1245.272727 156.526697 
L 1245.272727 156.526697 
" style="fill:none;stroke:#ff0000;stroke-linecap:square;stroke-width:1.5;"/>
   </g>
   <g id="patch_3">
    <path d="M 180 249.458824 
L 180 86.4 
" style="fill:none;stroke:#000000;stroke-linecap:square;stroke-linejoin:miter;stroke-width:0.8;"/>
   </g>
   <g id="patch_4">
    <path d="M 1296 249.458824 
L 1296 86.4 
" style="fill:none;stroke:#000000;stroke-linecap:square;stroke-linejoin:miter;stroke-width:0.8;"/>
   </g>
   <g id="patch_5">
    <path d="M 180 249.458824 
L 1296 249.458824 
" style="fill:none;stroke:#000000;stroke-linecap:square;stroke-linejoin:miter;stroke-width:0.8;"/>
   </g>
   <g id="patch_6">
    <path d="M 180 86.4 
L 1296 86.4 
" style="fill:none;stroke:#000000;stroke-linecap:square;stroke-linejoin:miter;stroke-width:0.8;"/>
   </g>
   <g id="legend_1">
    <g id="patch_7">
     <path d="M 1234.3125 123.75625 
L 1289 123.75625 
Q 1291 123.75625 1291 121.75625 
L 1291 93.4 
Q 1291 91.4 1289 91.4 
L 1234.3125 91.4 
Q 1232.3125 91.4 1232.3125 93.4 
L 1232.3125 121.75625 
Q 1232.3125 123.75625 1234.3125 123.75625 
z
" style="fill:#ffffff;opacity:0.8;stroke:#cccccc;stroke-linejoin:miter;"/>
    </g>
    <g id="line2d_16">
     <path d="M 1236.3125 99.498438 
L 1256.3125 99.498438 
" style="fill:none;stroke:#000000;stroke-linecap:square;stroke-width:4;"/>
    </g>
    <g id="line2d_17"/>
    <g id="text_15">
     <!-- Pred -->
     <defs>
      <path d="M 19.671875 64.796875 
L 19.671875 37.40625 
L 32.078125 37.40625 
Q 38.96875 37.40625 42.71875 40.96875 
Q 46.484375 44.53125 46.484375 51.125 
Q 46.484375 57.671875 42.71875 61.234375 
Q 38.96875 64.796875 32.078125 64.796875 
z
M 9.8125 72.90625 
L 32.078125 72.90625 
Q 44.34375 72.90625 50.609375 67.359375 
Q 56.890625 61.8125 56.890625 51.125 
Q 56.890625 40.328125 50.609375 34.8125 
Q 44.34375 29.296875 32.078125 29.296875 
L 19.671875 29.296875 
L 19.671875 0 
L 9.8125 0 
z
" id="DejaVuSans-50"/>
      <path d="M 41.109375 46.296875 
Q 39.59375 47.171875 37.8125 47.578125 
Q 36.03125 48 33.890625 48 
Q 26.265625 48 22.1875 43.046875 
Q 18.109375 38.09375 18.109375 28.8125 
L 18.109375 0 
L 9.078125 0 
L 9.078125 54.6875 
L 18.109375 54.6875 
L 18.109375 46.1875 
Q 20.953125 51.171875 25.484375 53.578125 
Q 30.03125 56 36.53125 56 
Q 37.453125 56 38.578125 55.875 
Q 39.703125 55.765625 41.0625 55.515625 
z
" id="DejaVuSans-72"/>
      <path d="M 45.40625 46.390625 
L 45.40625 75.984375 
L 54.390625 75.984375 
L 54.390625 0 
L 45.40625 0 
L 45.40625 8.203125 
Q 42.578125 3.328125 38.25 0.953125 
Q 33.9375 -1.421875 27.875 -1.421875 
Q 17.96875 -1.421875 11.734375 6.484375 
Q 5.515625 14.40625 5.515625 27.296875 
Q 5.515625 40.1875 11.734375 48.09375 
Q 17.96875 56 27.875 56 
Q 33.9375 56 38.25 53.625 
Q 42.578125 51.265625 45.40625 46.390625 
z
M 14.796875 27.296875 
Q 14.796875 17.390625 18.875 11.75 
Q 22.953125 6.109375 30.078125 6.109375 
Q 37.203125 6.109375 41.296875 11.75 
Q 45.40625 17.390625 45.40625 27.296875 
Q 45.40625 37.203125 41.296875 42.84375 
Q 37.203125 48.484375 30.078125 48.484375 
Q 22.953125 48.484375 18.875 42.84375 
Q 14.796875 37.203125 14.796875 27.296875 
z
" id="DejaVuSans-64"/>
     </defs>
     <g transform="translate(1264.3125 102.998438)scale(0.1 -0.1)">
      <use xlink:href="#DejaVuSans-50"/>
      <use x="60.287109" xlink:href="#DejaVuSans-72"/>
      <use x="101.369141" xlink:href="#DejaVuSans-65"/>
      <use x="162.892578" xlink:href="#DejaVuSans-64"/>
     </g>
    </g>
    <g id="line2d_18">
     <path d="M 1236.3125 114.176563 
L 1256.3125 114.176563 
" style="fill:none;stroke:#ff0000;stroke-linecap:square;stroke-width:1.5;"/>
    </g>
    <g id="line2d_19"/>
    <g id="text_16">
     <!-- True -->
     <defs>
      <path d="M 8.5 21.578125 
L 8.5 54.6875 
L 17.484375 54.6875 
L 17.484375 21.921875 
Q 17.484375 14.15625 20.5 10.265625 
Q 23.53125 6.390625 29.59375 6.390625 
Q 36.859375 6.390625 41.078125 11.03125 
Q 45.3125 15.671875 45.3125 23.6875 
L 45.3125 54.6875 
L 54.296875 54.6875 
L 54.296875 0 
L 45.3125 0 
L 45.3125 8.40625 
Q 42.046875 3.421875 37.71875 1 
Q 33.40625 -1.421875 27.6875 -1.421875 
Q 18.265625 -1.421875 13.375 4.4375 
Q 8.5 10.296875 8.5 21.578125 
z
M 31.109375 56 
z
" id="DejaVuSans-75"/>
     </defs>
     <g transform="translate(1264.3125 117.676563)scale(0.1 -0.1)">
      <use xlink:href="#DejaVuSans-54"/>
      <use x="60.865234" xlink:href="#DejaVuSans-72"/>
      <use x="101.978516" xlink:href="#DejaVuSans-75"/>
      <use x="165.357422" xlink:href="#DejaVuSans-65"/>
     </g>
    </g>
   </g>
  </g>
  <g id="axes_2">
   <g id="patch_8">
    <path d="M 180 445.129412 
L 1296 445.129412 
L 1296 282.070588 
L 180 282.070588 
z
" style="fill:#ffffff;"/>
   </g>
   <g id="matplotlib.axis_3">
    <g id="xtick_10">
     <g id="line2d_20">
      <g>
       <use style="stroke:#000000;stroke-width:0.8;" x="225.629054" xlink:href="#mcb704d1ebc" y="445.129412"/>
      </g>
     </g>
     <g id="text_17">
      <!-- 0 -->
      <g transform="translate(222.447804 459.727849)scale(0.1 -0.1)">
       <use xlink:href="#DejaVuSans-30"/>
      </g>
     </g>
    </g>
    <g id="xtick_11">
     <g id="line2d_21">
      <g>
       <use style="stroke:#000000;stroke-width:0.8;" x="353.084513" xlink:href="#mcb704d1ebc" y="445.129412"/>
      </g>
     </g>
     <g id="text_18">
      <!-- 500 -->
      <g transform="translate(343.540763 459.727849)scale(0.1 -0.1)">
       <use xlink:href="#DejaVuSans-35"/>
       <use x="63.623047" xlink:href="#DejaVuSans-30"/>
       <use x="127.246094" xlink:href="#DejaVuSans-30"/>
      </g>
     </g>
    </g>
    <g id="xtick_12">
     <g id="line2d_22">
      <g>
       <use style="stroke:#000000;stroke-width:0.8;" x="480.539973" xlink:href="#mcb704d1ebc" y="445.129412"/>
      </g>
     </g>
     <g id="text_19">
      <!-- 1000 -->
      <g transform="translate(467.814973 459.727849)scale(0.1 -0.1)">
       <use xlink:href="#DejaVuSans-31"/>
       <use x="63.623047" xlink:href="#DejaVuSans-30"/>
       <use x="127.246094" xlink:href="#DejaVuSans-30"/>
       <use x="190.869141" xlink:href="#DejaVuSans-30"/>
      </g>
     </g>
    </g>
    <g id="xtick_13">
     <g id="line2d_23">
      <g>
       <use style="stroke:#000000;stroke-width:0.8;" x="607.995432" xlink:href="#mcb704d1ebc" y="445.129412"/>
      </g>
     </g>
     <g id="text_20">
      <!-- 1500 -->
      <g transform="translate(595.270432 459.727849)scale(0.1 -0.1)">
       <use xlink:href="#DejaVuSans-31"/>
       <use x="63.623047" xlink:href="#DejaVuSans-35"/>
       <use x="127.246094" xlink:href="#DejaVuSans-30"/>
       <use x="190.869141" xlink:href="#DejaVuSans-30"/>
      </g>
     </g>
    </g>
    <g id="xtick_14">
     <g id="line2d_24">
      <g>
       <use style="stroke:#000000;stroke-width:0.8;" x="735.450891" xlink:href="#mcb704d1ebc" y="445.129412"/>
      </g>
     </g>
     <g id="text_21">
      <!-- 2000 -->
      <g transform="translate(722.725891 459.727849)scale(0.1 -0.1)">
       <use xlink:href="#DejaVuSans-32"/>
       <use x="63.623047" xlink:href="#DejaVuSans-30"/>
       <use x="127.246094" xlink:href="#DejaVuSans-30"/>
       <use x="190.869141" xlink:href="#DejaVuSans-30"/>
      </g>
     </g>
    </g>
    <g id="xtick_15">
     <g id="line2d_25">
      <g>
       <use style="stroke:#000000;stroke-width:0.8;" x="862.90635" xlink:href="#mcb704d1ebc" y="445.129412"/>
      </g>
     </g>
     <g id="text_22">
      <!-- 2500 -->
      <g transform="translate(850.18135 459.727849)scale(0.1 -0.1)">
       <use xlink:href="#DejaVuSans-32"/>
       <use x="63.623047" xlink:href="#DejaVuSans-35"/>
       <use x="127.246094" xlink:href="#DejaVuSans-30"/>
       <use x="190.869141" xlink:href="#DejaVuSans-30"/>
      </g>
     </g>
    </g>
    <g id="xtick_16">
     <g id="line2d_26">
      <g>
       <use style="stroke:#000000;stroke-width:0.8;" x="990.361809" xlink:href="#mcb704d1ebc" y="445.129412"/>
      </g>
     </g>
     <g id="text_23">
      <!-- 3000 -->
      <g transform="translate(977.636809 459.727849)scale(0.1 -0.1)">
       <use xlink:href="#DejaVuSans-33"/>
       <use x="63.623047" xlink:href="#DejaVuSans-30"/>
       <use x="127.246094" xlink:href="#DejaVuSans-30"/>
       <use x="190.869141" xlink:href="#DejaVuSans-30"/>
      </g>
     </g>
    </g>
    <g id="xtick_17">
     <g id="line2d_27">
      <g>
       <use style="stroke:#000000;stroke-width:0.8;" x="1117.817268" xlink:href="#mcb704d1ebc" y="445.129412"/>
      </g>
     </g>
     <g id="text_24">
      <!-- 3500 -->
      <g transform="translate(1105.092268 459.727849)scale(0.1 -0.1)">
       <use xlink:href="#DejaVuSans-33"/>
       <use x="63.623047" xlink:href="#DejaVuSans-35"/>
       <use x="127.246094" xlink:href="#DejaVuSans-30"/>
       <use x="190.869141" xlink:href="#DejaVuSans-30"/>
      </g>
     </g>
    </g>
    <g id="xtick_18">
     <g id="line2d_28">
      <g>
       <use style="stroke:#000000;stroke-width:0.8;" x="1245.272727" xlink:href="#mcb704d1ebc" y="445.129412"/>
      </g>
     </g>
     <g id="text_25">
      <!-- 4000 -->
      <g transform="translate(1232.547727 459.727849)scale(0.1 -0.1)">
       <use xlink:href="#DejaVuSans-34"/>
       <use x="63.623047" xlink:href="#DejaVuSans-30"/>
       <use x="127.246094" xlink:href="#DejaVuSans-30"/>
       <use x="190.869141" xlink:href="#DejaVuSans-30"/>
      </g>
     </g>
    </g>
   </g>
   <g id="matplotlib.axis_4">
    <g id="ytick_5">
     <g id="line2d_29">
      <g>
       <use style="stroke:#000000;stroke-width:0.8;" x="180" xlink:href="#m1de707d4c8" y="423.913454"/>
      </g>
     </g>
     <g id="text_26">
      <!-- −0.75 -->
      <defs>
       <path d="M 10.6875 12.40625 
L 21 12.40625 
L 21 0 
L 10.6875 0 
z
" id="DejaVuSans-2e"/>
       <path d="M 8.203125 72.90625 
L 55.078125 72.90625 
L 55.078125 68.703125 
L 28.609375 0 
L 18.3125 0 
L 43.21875 64.59375 
L 8.203125 64.59375 
z
" id="DejaVuSans-37"/>
      </defs>
      <g transform="translate(142.354688 427.712673)scale(0.1 -0.1)">
       <use xlink:href="#DejaVuSans-2212"/>
       <use x="83.789062" xlink:href="#DejaVuSans-30"/>
       <use x="147.412109" xlink:href="#DejaVuSans-2e"/>
       <use x="179.199219" xlink:href="#DejaVuSans-37"/>
       <use x="242.822266" xlink:href="#DejaVuSans-35"/>
      </g>
     </g>
    </g>
    <g id="ytick_6">
     <g id="line2d_30">
      <g>
       <use style="stroke:#000000;stroke-width:0.8;" x="180" xlink:href="#m1de707d4c8" y="401.461459"/>
      </g>
     </g>
     <g id="text_27">
      <!-- −0.50 -->
      <g transform="translate(142.354688 405.260678)scale(0.1 -0.1)">
       <use xlink:href="#DejaVuSans-2212"/>
       <use x="83.789062" xlink:href="#DejaVuSans-30"/>
       <use x="147.412109" xlink:href="#DejaVuSans-2e"/>
       <use x="179.199219" xlink:href="#DejaVuSans-35"/>
       <use x="242.822266" xlink:href="#DejaVuSans-30"/>
      </g>
     </g>
    </g>
    <g id="ytick_7">
     <g id="line2d_31">
      <g>
       <use style="stroke:#000000;stroke-width:0.8;" x="180" xlink:href="#m1de707d4c8" y="379.009464"/>
      </g>
     </g>
     <g id="text_28">
      <!-- −0.25 -->
      <g transform="translate(142.354688 382.808682)scale(0.1 -0.1)">
       <use xlink:href="#DejaVuSans-2212"/>
       <use x="83.789062" xlink:href="#DejaVuSans-30"/>
       <use x="147.412109" xlink:href="#DejaVuSans-2e"/>
       <use x="179.199219" xlink:href="#DejaVuSans-32"/>
       <use x="242.822266" xlink:href="#DejaVuSans-35"/>
      </g>
     </g>
    </g>
    <g id="ytick_8">
     <g id="line2d_32">
      <g>
       <use style="stroke:#000000;stroke-width:0.8;" x="180" xlink:href="#m1de707d4c8" y="356.557468"/>
      </g>
     </g>
     <g id="text_29">
      <!-- 0.00 -->
      <g transform="translate(150.734375 360.356687)scale(0.1 -0.1)">
       <use xlink:href="#DejaVuSans-30"/>
       <use x="63.623047" xlink:href="#DejaVuSans-2e"/>
       <use x="95.410156" xlink:href="#DejaVuSans-30"/>
       <use x="159.033203" xlink:href="#DejaVuSans-30"/>
      </g>
     </g>
    </g>
    <g id="ytick_9">
     <g id="line2d_33">
      <g>
       <use style="stroke:#000000;stroke-width:0.8;" x="180" xlink:href="#m1de707d4c8" y="334.105473"/>
      </g>
     </g>
     <g id="text_30">
      <!-- 0.25 -->
      <g transform="translate(150.734375 337.904692)scale(0.1 -0.1)">
       <use xlink:href="#DejaVuSans-30"/>
       <use x="63.623047" xlink:href="#DejaVuSans-2e"/>
       <use x="95.410156" xlink:href="#DejaVuSans-32"/>
       <use x="159.033203" xlink:href="#DejaVuSans-35"/>
      </g>
     </g>
    </g>
    <g id="ytick_10">
     <g id="line2d_34">
      <g>
       <use style="stroke:#000000;stroke-width:0.8;" x="180" xlink:href="#m1de707d4c8" y="311.653478"/>
      </g>
     </g>
     <g id="text_31">
      <!-- 0.50 -->
      <g transform="translate(150.734375 315.452697)scale(0.1 -0.1)">
       <use xlink:href="#DejaVuSans-30"/>
       <use x="63.623047" xlink:href="#DejaVuSans-2e"/>
       <use x="95.410156" xlink:href="#DejaVuSans-35"/>
       <use x="159.033203" xlink:href="#DejaVuSans-30"/>
      </g>
     </g>
    </g>
    <g id="ytick_11">
     <g id="line2d_35">
      <g>
       <use style="stroke:#000000;stroke-width:0.8;" x="180" xlink:href="#m1de707d4c8" y="289.201482"/>
      </g>
     </g>
     <g id="text_32">
      <!-- 0.75 -->
      <g transform="translate(150.734375 293.000701)scale(0.1 -0.1)">
       <use xlink:href="#DejaVuSans-30"/>
       <use x="63.623047" xlink:href="#DejaVuSans-2e"/>
       <use x="95.410156" xlink:href="#DejaVuSans-37"/>
       <use x="159.033203" xlink:href="#DejaVuSans-35"/>
      </g>
     </g>
    </g>
    <g id="text_33">
     <!-- TD State:1 -->
     <g transform="translate(136.275 390.19375)rotate(-90)scale(0.1 -0.1)">
      <use xlink:href="#DejaVuSans-54"/>
      <use x="61.083984" xlink:href="#DejaVuSans-44"/>
      <use x="138.085938" xlink:href="#DejaVuSans-20"/>
      <use x="169.873047" xlink:href="#DejaVuSans-53"/>
      <use x="233.349609" xlink:href="#DejaVuSans-74"/>
      <use x="272.558594" xlink:href="#DejaVuSans-61"/>
      <use x="333.837891" xlink:href="#DejaVuSans-74"/>
      <use x="373.046875" xlink:href="#DejaVuSans-65"/>
      <use x="434.570312" xlink:href="#DejaVuSans-3a"/>
      <use x="468.261719" xlink:href="#DejaVuSans-31"/>
     </g>
    </g>
   </g>
   <g id="line2d_36">
    <path clip-path="url(#pc95c32531a)" d="M 230.727273 289.482353 
L 235.825491 308.652719 
L 240.923709 318.553406 
L 246.021928 343.000863 
L 251.120146 342.081741 
L 256.218365 349.148238 
L 261.316583 355.71215 
L 266.414801 363.668937 
L 271.51302 363.504868 
L 276.611238 371.917483 
L 281.709456 371.645134 
L 286.807675 366.438961 
L 291.905893 369.580899 
L 297.004111 364.521141 
L 302.10233 369.506343 
L 307.200548 369.582891 
L 312.298767 374.436003 
L 317.396985 368.766091 
L 322.495203 373.828505 
L 327.593422 368.577966 
L 332.69164 373.600554 
L 337.789858 373.387505 
L 342.888077 373.59914 
L 347.986295 373.660336 
L 353.084513 368.367188 
L 358.182732 379.474476 
L 363.28095 373.657552 
L 368.379169 373.094762 
L 373.477387 372.680142 
L 378.575605 367.903063 
L 383.673824 372.634578 
L 388.772042 372.307661 
L 393.87026 383.078697 
L 398.968479 366.35053 
L 404.066697 372.986846 
L 409.164915 366.891394 
L 414.263134 371.300788 
L 419.361352 376.372922 
L 424.459571 367.785384 
L 429.557789 367.051384 
L 434.656007 367.082217 
L 439.754226 367.331966 
L 444.852444 372.980251 
L 449.950662 367.377873 
L 455.048881 366.745965 
L 465.245317 366.399264 
L 470.343536 371.807222 
L 475.441754 367.318433 
L 480.539973 362.011367 
L 485.638191 367.277665 
L 490.736409 367.895355 
L 495.834628 437.717647 
L 500.932846 366.590258 
L 506.031064 360.80819 
L 511.129283 360.363508 
L 516.227501 360.963726 
L 521.32572 360.804079 
L 526.423938 361.091684 
L 531.522156 366.411425 
L 536.620375 371.010357 
L 541.718593 373.079945 
L 546.816811 372.074614 
L 551.91503 366.440888 
L 557.013248 372.063308 
L 562.111466 366.205357 
L 567.209685 370.94595 
L 572.307903 371.716607 
L 577.406122 377.542354 
L 582.50434 372.084549 
L 587.602558 366.30094 
L 592.700777 371.659394 
L 597.798995 371.184907 
L 602.897213 376.678342 
L 607.995432 371.506599 
L 613.09365 371.852958 
L 618.191868 365.792536 
L 623.290087 371.16949 
L 628.388305 366.039201 
L 633.486524 365.3989 
L 638.584742 370.948862 
L 643.68296 364.937431 
L 648.781179 366.14095 
L 653.879397 376.736925 
L 658.977615 365.479751 
L 669.174052 354.202365 
L 674.27227 343.742742 
L 679.370489 370.275672 
L 684.468707 382.95014 
L 689.566926 377.020247 
L 694.665144 377.198051 
L 699.763362 377.656779 
L 704.861581 372.784461 
L 709.959799 368.631582 
L 715.058017 369.038236 
L 720.156236 369.733695 
L 725.254454 370.773113 
L 730.352672 371.205805 
L 735.450891 366.23345 
L 740.549109 366.579123 
L 745.647328 366.744937 
L 750.745546 360.67184 
L 755.843764 371.61383 
L 760.941983 361.124744 
L 766.040201 361.3464 
L 771.138419 361.30803 
L 776.236638 355.10372 
L 781.334856 355.19759 
L 786.433074 361.803758 
L 791.531293 356.544655 
L 796.629511 357.053744 
L 801.72773 356.988309 
L 806.825948 357.436417 
L 811.924166 357.652592 
L 817.022385 357.463824 
L 822.120603 358.121255 
L 827.218821 352.796375 
L 832.31704 359.102434 
L 837.415258 359.064406 
L 842.513476 354.325698 
L 847.611695 360.354601 
L 852.709913 350.155346 
L 857.808132 355.80603 
L 862.90635 355.517569 
L 868.004568 356.338758 
L 873.102787 351.984778 
L 878.201005 351.998482 
L 883.299223 356.249342 
L 888.397442 350.026875 
L 893.49566 356.701561 
L 898.593878 350.62538 
L 903.692097 350.710685 
L 913.888534 351.45856 
L 918.986752 356.986254 
L 924.08497 358.268226 
L 929.183189 364.425258 
L 934.281407 375.262759 
L 939.379625 336.559309 
L 944.477844 336.260228 
L 949.576062 341.893097 
L 954.67428 335.785055 
L 959.772499 340.61455 
L 964.870717 339.764926 
L 969.968936 334.090945 
L 975.067154 356.452155 
L 980.165372 361.434788 
L 985.263591 355.325719 
L 990.361809 353.9002 
L 995.460027 354.03895 
L 1000.558246 365.418428 
L 1010.754683 354.144467 
L 1020.951119 364.637322 
L 1026.049338 391.610137 
L 1031.147556 358.89962 
L 1036.245774 357.603601 
L 1041.343993 362.416309 
L 1046.442211 357.111642 
L 1051.540429 362.302912 
L 1056.638648 360.581053 
L 1061.736866 360.495406 
L 1071.933303 361.059652 
L 1077.031521 361.068902 
L 1082.12974 360.924671 
L 1087.227958 361.174419 
L 1092.326176 365.211503 
L 1097.424395 361.09905 
L 1102.522613 359.476885 
L 1107.620831 359.157591 
L 1112.71905 359.133609 
L 1117.817268 363.855188 
L 1122.915487 357.010235 
L 1128.013705 364.238889 
L 1133.111923 363.06586 
L 1138.210142 358.270282 
L 1143.30836 363.866494 
L 1148.406578 362.453652 
L 1153.504797 356.861208 
L 1158.603015 362.528679 
L 1163.701233 362.575956 
L 1168.799452 366.626058 
L 1173.89767 367.199554 
L 1178.995889 364.789089 
L 1184.094107 358.883176 
L 1189.192325 359.932187 
L 1194.290544 360.179195 
L 1199.388762 373.952351 
L 1204.48698 365.696611 
L 1209.585199 361.902766 
L 1214.683417 361.895229 
L 1219.781635 368.611026 
L 1224.879854 373.129107 
L 1229.978072 373.201393 
L 1235.076291 361.575935 
L 1240.174509 365.958007 
L 1245.272727 361.465964 
L 1245.272727 361.465964 
" style="fill:none;stroke:#000000;stroke-linecap:square;stroke-width:4;"/>
   </g>
   <g id="line2d_37">
    <path clip-path="url(#pc95c32531a)" d="M 230.727273 357.231028 
L 235.825491 355.883909 
L 240.923709 357.231028 
L 246.021928 355.883909 
L 251.120146 357.231028 
L 256.218365 356.557468 
L 261.316583 356.557468 
L 266.414801 355.883909 
L 271.51302 357.231028 
L 276.611238 355.883909 
L 286.807675 357.231028 
L 291.905893 355.883909 
L 297.004111 357.231028 
L 302.10233 356.557468 
L 307.200548 357.231028 
L 312.298767 355.883909 
L 317.396985 357.231028 
L 322.495203 355.883909 
L 327.593422 357.231028 
L 332.69164 356.557468 
L 342.888077 356.557468 
L 347.986295 355.883909 
L 353.084513 357.904588 
L 358.182732 355.883909 
L 363.28095 356.557468 
L 368.379169 356.557468 
L 373.477387 355.883909 
L 378.575605 357.231028 
L 383.673824 356.557468 
L 388.772042 357.904588 
L 393.87026 354.536789 
L 398.968479 357.231028 
L 404.066697 355.883909 
L 409.164915 357.231028 
L 414.263134 357.231028 
L 419.361352 355.210349 
L 424.459571 356.557468 
L 434.656007 356.557468 
L 439.754226 357.231028 
L 444.852444 355.883909 
L 449.950662 356.557468 
L 460.147099 356.557468 
L 465.245317 357.231028 
L 470.343536 355.883909 
L 475.441754 355.883909 
L 480.539973 357.231028 
L 485.638191 356.557468 
L 490.736409 365.313747 
L 495.834628 347.80119 
L 500.932846 355.883909 
L 506.031064 356.557468 
L 521.32572 356.557468 
L 526.423938 357.231028 
L 531.522156 357.231028 
L 536.620375 356.557468 
L 541.718593 356.557468 
L 546.816811 355.883909 
L 551.91503 357.231028 
L 557.013248 355.883909 
L 562.111466 357.231028 
L 567.209685 356.557468 
L 572.307903 357.231028 
L 577.406122 355.883909 
L 582.50434 355.883909 
L 587.602558 357.231028 
L 592.700777 356.557468 
L 597.798995 357.231028 
L 602.897213 355.883909 
L 607.995432 356.557468 
L 613.09365 355.883909 
L 618.191868 357.231028 
L 623.290087 355.883909 
L 633.486524 357.231028 
L 638.584742 355.883909 
L 643.68296 356.557468 
L 648.781179 357.904588 
L 653.879397 355.210349 
L 658.977615 355.883909 
L 664.075834 355.883909 
L 669.174052 355.210349 
L 679.370489 356.557468 
L 684.468707 355.883909 
L 689.566926 356.557468 
L 694.665144 356.557468 
L 699.763362 355.883909 
L 704.861581 355.883909 
L 709.959799 356.557468 
L 725.254454 356.557468 
L 730.352672 355.883909 
L 735.450891 356.557468 
L 740.549109 356.557468 
L 745.647328 355.883909 
L 750.745546 357.904588 
L 755.843764 355.210349 
L 760.941983 356.557468 
L 766.040201 356.557468 
L 771.138419 355.883909 
L 781.334856 357.231028 
L 786.433074 355.883909 
L 791.531293 356.557468 
L 817.022385 356.557468 
L 822.120603 355.883909 
L 827.218821 357.231028 
L 837.415258 355.883909 
L 842.513476 357.231028 
L 847.611695 355.210349 
L 852.709913 357.231028 
L 857.808132 356.557468 
L 862.90635 356.557468 
L 868.004568 355.883909 
L 878.201005 357.231028 
L 883.299223 355.883909 
L 888.397442 357.231028 
L 893.49566 355.883909 
L 898.593878 356.557468 
L 908.790315 356.557468 
L 913.888534 357.231028 
L 918.986752 356.557468 
L 929.183189 357.904588 
L 934.281407 355.883909 
L 939.379625 357.231028 
L 944.477844 357.231028 
L 949.576062 355.883909 
L 954.67428 357.231028 
L 964.870717 355.883909 
L 969.968936 359.251708 
L 975.067154 357.231028 
L 980.165372 355.883909 
L 985.263591 356.557468 
L 990.361809 356.557468 
L 995.460027 357.904588 
L 1000.558246 355.883909 
L 1005.656464 355.883909 
L 1010.754683 357.231028 
L 1015.852901 357.231028 
L 1020.951119 359.925268 
L 1026.049338 352.516109 
L 1031.147556 356.557468 
L 1036.245774 357.231028 
L 1041.343993 355.883909 
L 1046.442211 357.231028 
L 1051.540429 356.557468 
L 1082.12974 356.557468 
L 1087.227958 357.231028 
L 1092.326176 355.883909 
L 1097.424395 356.557468 
L 1107.620831 356.557468 
L 1112.71905 357.231028 
L 1117.817268 355.883909 
L 1122.915487 357.231028 
L 1133.111923 355.883909 
L 1138.210142 357.231028 
L 1148.406578 355.883909 
L 1153.504797 357.231028 
L 1158.603015 356.557468 
L 1163.701233 357.231028 
L 1168.799452 356.557468 
L 1173.89767 356.557468 
L 1178.995889 355.883909 
L 1184.094107 356.557468 
L 1189.192325 356.557468 
L 1194.290544 357.904588 
L 1199.388762 355.883909 
L 1204.48698 355.883909 
L 1214.683417 357.231028 
L 1219.781635 357.231028 
L 1224.879854 356.557468 
L 1229.978072 355.210349 
L 1235.076291 357.231028 
L 1240.174509 355.883909 
L 1245.272727 357.904588 
L 1245.272727 357.904588 
" style="fill:none;stroke:#ff0000;stroke-linecap:square;stroke-width:1.5;"/>
   </g>
   <g id="patch_9">
    <path d="M 180 445.129412 
L 180 282.070588 
" style="fill:none;stroke:#000000;stroke-linecap:square;stroke-linejoin:miter;stroke-width:0.8;"/>
   </g>
   <g id="patch_10">
    <path d="M 1296 445.129412 
L 1296 282.070588 
" style="fill:none;stroke:#000000;stroke-linecap:square;stroke-linejoin:miter;stroke-width:0.8;"/>
   </g>
   <g id="patch_11">
    <path d="M 180 445.129412 
L 1296 445.129412 
" style="fill:none;stroke:#000000;stroke-linecap:square;stroke-linejoin:miter;stroke-width:0.8;"/>
   </g>
   <g id="patch_12">
    <path d="M 180 282.070588 
L 1296 282.070588 
" style="fill:none;stroke:#000000;stroke-linecap:square;stroke-linejoin:miter;stroke-width:0.8;"/>
   </g>
   <g id="legend_2">
    <g id="patch_13">
     <path d="M 1234.3125 319.426838 
L 1289 319.426838 
Q 1291 319.426838 1291 317.426838 
L 1291 289.070588 
Q 1291 287.070588 1289 287.070588 
L 1234.3125 287.070588 
Q 1232.3125 287.070588 1232.3125 289.070588 
L 1232.3125 317.426838 
Q 1232.3125 319.426838 1234.3125 319.426838 
z
" style="fill:#ffffff;opacity:0.8;stroke:#cccccc;stroke-linejoin:miter;"/>
    </g>
    <g id="line2d_38">
     <path d="M 1236.3125 295.169026 
L 1256.3125 295.169026 
" style="fill:none;stroke:#000000;stroke-linecap:square;stroke-width:4;"/>
    </g>
    <g id="line2d_39"/>
    <g id="text_34">
     <!-- Pred -->
     <g transform="translate(1264.3125 298.669026)scale(0.1 -0.1)">
      <use xlink:href="#DejaVuSans-50"/>
      <use x="60.287109" xlink:href="#DejaVuSans-72"/>
      <use x="101.369141" xlink:href="#DejaVuSans-65"/>
      <use x="162.892578" xlink:href="#DejaVuSans-64"/>
     </g>
    </g>
    <g id="line2d_40">
     <path d="M 1236.3125 309.847151 
L 1256.3125 309.847151 
" style="fill:none;stroke:#ff0000;stroke-linecap:square;stroke-width:1.5;"/>
    </g>
    <g id="line2d_41"/>
    <g id="text_35">
     <!-- True -->
     <g transform="translate(1264.3125 313.347151)scale(0.1 -0.1)">
      <use xlink:href="#DejaVuSans-54"/>
      <use x="60.865234" xlink:href="#DejaVuSans-72"/>
      <use x="101.978516" xlink:href="#DejaVuSans-75"/>
      <use x="165.357422" xlink:href="#DejaVuSans-65"/>
     </g>
    </g>
   </g>
  </g>
  <g id="axes_3">
   <g id="patch_14">
    <path d="M 180 640.8 
L 1296 640.8 
L 1296 477.741176 
L 180 477.741176 
z
" style="fill:#ffffff;"/>
   </g>
   <g id="matplotlib.axis_5">
    <g id="xtick_19">
     <g id="line2d_42">
      <g>
       <use style="stroke:#000000;stroke-width:0.8;" x="225.629054" xlink:href="#mcb704d1ebc" y="640.8"/>
      </g>
     </g>
     <g id="text_36">
      <!-- 0 -->
      <g transform="translate(222.447804 655.398438)scale(0.1 -0.1)">
       <use xlink:href="#DejaVuSans-30"/>
      </g>
     </g>
    </g>
    <g id="xtick_20">
     <g id="line2d_43">
      <g>
       <use style="stroke:#000000;stroke-width:0.8;" x="353.084513" xlink:href="#mcb704d1ebc" y="640.8"/>
      </g>
     </g>
     <g id="text_37">
      <!-- 500 -->
      <g transform="translate(343.540763 655.398438)scale(0.1 -0.1)">
       <use xlink:href="#DejaVuSans-35"/>
       <use x="63.623047" xlink:href="#DejaVuSans-30"/>
       <use x="127.246094" xlink:href="#DejaVuSans-30"/>
      </g>
     </g>
    </g>
    <g id="xtick_21">
     <g id="line2d_44">
      <g>
       <use style="stroke:#000000;stroke-width:0.8;" x="480.539973" xlink:href="#mcb704d1ebc" y="640.8"/>
      </g>
     </g>
     <g id="text_38">
      <!-- 1000 -->
      <g transform="translate(467.814973 655.398438)scale(0.1 -0.1)">
       <use xlink:href="#DejaVuSans-31"/>
       <use x="63.623047" xlink:href="#DejaVuSans-30"/>
       <use x="127.246094" xlink:href="#DejaVuSans-30"/>
       <use x="190.869141" xlink:href="#DejaVuSans-30"/>
      </g>
     </g>
    </g>
    <g id="xtick_22">
     <g id="line2d_45">
      <g>
       <use style="stroke:#000000;stroke-width:0.8;" x="607.995432" xlink:href="#mcb704d1ebc" y="640.8"/>
      </g>
     </g>
     <g id="text_39">
      <!-- 1500 -->
      <g transform="translate(595.270432 655.398438)scale(0.1 -0.1)">
       <use xlink:href="#DejaVuSans-31"/>
       <use x="63.623047" xlink:href="#DejaVuSans-35"/>
       <use x="127.246094" xlink:href="#DejaVuSans-30"/>
       <use x="190.869141" xlink:href="#DejaVuSans-30"/>
      </g>
     </g>
    </g>
    <g id="xtick_23">
     <g id="line2d_46">
      <g>
       <use style="stroke:#000000;stroke-width:0.8;" x="735.450891" xlink:href="#mcb704d1ebc" y="640.8"/>
      </g>
     </g>
     <g id="text_40">
      <!-- 2000 -->
      <g transform="translate(722.725891 655.398438)scale(0.1 -0.1)">
       <use xlink:href="#DejaVuSans-32"/>
       <use x="63.623047" xlink:href="#DejaVuSans-30"/>
       <use x="127.246094" xlink:href="#DejaVuSans-30"/>
       <use x="190.869141" xlink:href="#DejaVuSans-30"/>
      </g>
     </g>
    </g>
    <g id="xtick_24">
     <g id="line2d_47">
      <g>
       <use style="stroke:#000000;stroke-width:0.8;" x="862.90635" xlink:href="#mcb704d1ebc" y="640.8"/>
      </g>
     </g>
     <g id="text_41">
      <!-- 2500 -->
      <g transform="translate(850.18135 655.398438)scale(0.1 -0.1)">
       <use xlink:href="#DejaVuSans-32"/>
       <use x="63.623047" xlink:href="#DejaVuSans-35"/>
       <use x="127.246094" xlink:href="#DejaVuSans-30"/>
       <use x="190.869141" xlink:href="#DejaVuSans-30"/>
      </g>
     </g>
    </g>
    <g id="xtick_25">
     <g id="line2d_48">
      <g>
       <use style="stroke:#000000;stroke-width:0.8;" x="990.361809" xlink:href="#mcb704d1ebc" y="640.8"/>
      </g>
     </g>
     <g id="text_42">
      <!-- 3000 -->
      <g transform="translate(977.636809 655.398438)scale(0.1 -0.1)">
       <use xlink:href="#DejaVuSans-33"/>
       <use x="63.623047" xlink:href="#DejaVuSans-30"/>
       <use x="127.246094" xlink:href="#DejaVuSans-30"/>
       <use x="190.869141" xlink:href="#DejaVuSans-30"/>
      </g>
     </g>
    </g>
    <g id="xtick_26">
     <g id="line2d_49">
      <g>
       <use style="stroke:#000000;stroke-width:0.8;" x="1117.817268" xlink:href="#mcb704d1ebc" y="640.8"/>
      </g>
     </g>
     <g id="text_43">
      <!-- 3500 -->
      <g transform="translate(1105.092268 655.398438)scale(0.1 -0.1)">
       <use xlink:href="#DejaVuSans-33"/>
       <use x="63.623047" xlink:href="#DejaVuSans-35"/>
       <use x="127.246094" xlink:href="#DejaVuSans-30"/>
       <use x="190.869141" xlink:href="#DejaVuSans-30"/>
      </g>
     </g>
    </g>
    <g id="xtick_27">
     <g id="line2d_50">
      <g>
       <use style="stroke:#000000;stroke-width:0.8;" x="1245.272727" xlink:href="#mcb704d1ebc" y="640.8"/>
      </g>
     </g>
     <g id="text_44">
      <!-- 4000 -->
      <g transform="translate(1232.547727 655.398438)scale(0.1 -0.1)">
       <use xlink:href="#DejaVuSans-34"/>
       <use x="63.623047" xlink:href="#DejaVuSans-30"/>
       <use x="127.246094" xlink:href="#DejaVuSans-30"/>
       <use x="190.869141" xlink:href="#DejaVuSans-30"/>
      </g>
     </g>
    </g>
    <g id="text_45">
     <!-- Time -->
     <defs>
      <path d="M 9.421875 54.6875 
L 18.40625 54.6875 
L 18.40625 0 
L 9.421875 0 
z
M 9.421875 75.984375 
L 18.40625 75.984375 
L 18.40625 64.59375 
L 9.421875 64.59375 
z
" id="DejaVuSans-69"/>
      <path d="M 52 44.1875 
Q 55.375 50.25 60.0625 53.125 
Q 64.75 56 71.09375 56 
Q 79.640625 56 84.28125 50.015625 
Q 88.921875 44.046875 88.921875 33.015625 
L 88.921875 0 
L 79.890625 0 
L 79.890625 32.71875 
Q 79.890625 40.578125 77.09375 44.375 
Q 74.3125 48.1875 68.609375 48.1875 
Q 61.625 48.1875 57.5625 43.546875 
Q 53.515625 38.921875 53.515625 30.90625 
L 53.515625 0 
L 44.484375 0 
L 44.484375 32.71875 
Q 44.484375 40.625 41.703125 44.40625 
Q 38.921875 48.1875 33.109375 48.1875 
Q 26.21875 48.1875 22.15625 43.53125 
Q 18.109375 38.875 18.109375 30.90625 
L 18.109375 0 
L 9.078125 0 
L 9.078125 54.6875 
L 18.109375 54.6875 
L 18.109375 46.1875 
Q 21.1875 51.21875 25.484375 53.609375 
Q 29.78125 56 35.6875 56 
Q 41.65625 56 45.828125 52.96875 
Q 50 49.953125 52 44.1875 
z
" id="DejaVuSans-6d"/>
     </defs>
     <g transform="translate(725.6125 669.076563)scale(0.1 -0.1)">
      <use xlink:href="#DejaVuSans-54"/>
      <use x="61.037109" xlink:href="#DejaVuSans-69"/>
      <use x="88.820312" xlink:href="#DejaVuSans-6d"/>
      <use x="186.232422" xlink:href="#DejaVuSans-65"/>
     </g>
    </g>
   </g>
   <g id="matplotlib.axis_6">
    <g id="ytick_12">
     <g id="line2d_51">
      <g>
       <use style="stroke:#000000;stroke-width:0.8;" x="180" xlink:href="#m1de707d4c8" y="627.897829"/>
      </g>
     </g>
     <g id="text_46">
      <!-- −2 -->
      <g transform="translate(158.257812 631.697047)scale(0.1 -0.1)">
       <use xlink:href="#DejaVuSans-2212"/>
       <use x="83.789062" xlink:href="#DejaVuSans-32"/>
      </g>
     </g>
    </g>
    <g id="ytick_13">
     <g id="line2d_52">
      <g>
       <use style="stroke:#000000;stroke-width:0.8;" x="180" xlink:href="#m1de707d4c8" y="603.58191"/>
      </g>
     </g>
     <g id="text_47">
      <!-- −1 -->
      <g transform="translate(158.257812 607.381129)scale(0.1 -0.1)">
       <use xlink:href="#DejaVuSans-2212"/>
       <use x="83.789062" xlink:href="#DejaVuSans-31"/>
      </g>
     </g>
    </g>
    <g id="ytick_14">
     <g id="line2d_53">
      <g>
       <use style="stroke:#000000;stroke-width:0.8;" x="180" xlink:href="#m1de707d4c8" y="579.265992"/>
      </g>
     </g>
     <g id="text_48">
      <!-- 0 -->
      <g transform="translate(166.6375 583.065211)scale(0.1 -0.1)">
       <use xlink:href="#DejaVuSans-30"/>
      </g>
     </g>
    </g>
    <g id="ytick_15">
     <g id="line2d_54">
      <g>
       <use style="stroke:#000000;stroke-width:0.8;" x="180" xlink:href="#m1de707d4c8" y="554.950074"/>
      </g>
     </g>
     <g id="text_49">
      <!-- 1 -->
      <g transform="translate(166.6375 558.749292)scale(0.1 -0.1)">
       <use xlink:href="#DejaVuSans-31"/>
      </g>
     </g>
    </g>
    <g id="ytick_16">
     <g id="line2d_55">
      <g>
       <use style="stroke:#000000;stroke-width:0.8;" x="180" xlink:href="#m1de707d4c8" y="530.634155"/>
      </g>
     </g>
     <g id="text_50">
      <!-- 2 -->
      <g transform="translate(166.6375 534.433374)scale(0.1 -0.1)">
       <use xlink:href="#DejaVuSans-32"/>
      </g>
     </g>
    </g>
    <g id="ytick_17">
     <g id="line2d_56">
      <g>
       <use style="stroke:#000000;stroke-width:0.8;" x="180" xlink:href="#m1de707d4c8" y="506.318237"/>
      </g>
     </g>
     <g id="text_51">
      <!-- 3 -->
      <g transform="translate(166.6375 510.117456)scale(0.1 -0.1)">
       <use xlink:href="#DejaVuSans-33"/>
      </g>
     </g>
    </g>
    <g id="ytick_18">
     <g id="line2d_57">
      <g>
       <use style="stroke:#000000;stroke-width:0.8;" x="180" xlink:href="#m1de707d4c8" y="482.002319"/>
      </g>
     </g>
     <g id="text_52">
      <!-- 4 -->
      <g transform="translate(166.6375 485.801537)scale(0.1 -0.1)">
       <use xlink:href="#DejaVuSans-34"/>
      </g>
     </g>
    </g>
    <g id="text_53">
     <!-- Control Input -->
     <defs>
      <path d="M 64.40625 67.28125 
L 64.40625 56.890625 
Q 59.421875 61.53125 53.78125 63.8125 
Q 48.140625 66.109375 41.796875 66.109375 
Q 29.296875 66.109375 22.65625 58.46875 
Q 16.015625 50.828125 16.015625 36.375 
Q 16.015625 21.96875 22.65625 14.328125 
Q 29.296875 6.6875 41.796875 6.6875 
Q 48.140625 6.6875 53.78125 8.984375 
Q 59.421875 11.28125 64.40625 15.921875 
L 64.40625 5.609375 
Q 59.234375 2.09375 53.4375 0.328125 
Q 47.65625 -1.421875 41.21875 -1.421875 
Q 24.65625 -1.421875 15.125 8.703125 
Q 5.609375 18.84375 5.609375 36.375 
Q 5.609375 53.953125 15.125 64.078125 
Q 24.65625 74.21875 41.21875 74.21875 
Q 47.75 74.21875 53.53125 72.484375 
Q 59.328125 70.75 64.40625 67.28125 
z
" id="DejaVuSans-43"/>
      <path d="M 30.609375 48.390625 
Q 23.390625 48.390625 19.1875 42.75 
Q 14.984375 37.109375 14.984375 27.296875 
Q 14.984375 17.484375 19.15625 11.84375 
Q 23.34375 6.203125 30.609375 6.203125 
Q 37.796875 6.203125 41.984375 11.859375 
Q 46.1875 17.53125 46.1875 27.296875 
Q 46.1875 37.015625 41.984375 42.703125 
Q 37.796875 48.390625 30.609375 48.390625 
z
M 30.609375 56 
Q 42.328125 56 49.015625 48.375 
Q 55.71875 40.765625 55.71875 27.296875 
Q 55.71875 13.875 49.015625 6.21875 
Q 42.328125 -1.421875 30.609375 -1.421875 
Q 18.84375 -1.421875 12.171875 6.21875 
Q 5.515625 13.875 5.515625 27.296875 
Q 5.515625 40.765625 12.171875 48.375 
Q 18.84375 56 30.609375 56 
z
" id="DejaVuSans-6f"/>
      <path d="M 54.890625 33.015625 
L 54.890625 0 
L 45.90625 0 
L 45.90625 32.71875 
Q 45.90625 40.484375 42.875 44.328125 
Q 39.84375 48.1875 33.796875 48.1875 
Q 26.515625 48.1875 22.3125 43.546875 
Q 18.109375 38.921875 18.109375 30.90625 
L 18.109375 0 
L 9.078125 0 
L 9.078125 54.6875 
L 18.109375 54.6875 
L 18.109375 46.1875 
Q 21.34375 51.125 25.703125 53.5625 
Q 30.078125 56 35.796875 56 
Q 45.21875 56 50.046875 50.171875 
Q 54.890625 44.34375 54.890625 33.015625 
z
" id="DejaVuSans-6e"/>
      <path d="M 9.421875 75.984375 
L 18.40625 75.984375 
L 18.40625 0 
L 9.421875 0 
z
" id="DejaVuSans-6c"/>
      <path d="M 9.8125 72.90625 
L 19.671875 72.90625 
L 19.671875 0 
L 9.8125 0 
z
" id="DejaVuSans-49"/>
      <path d="M 18.109375 8.203125 
L 18.109375 -20.796875 
L 9.078125 -20.796875 
L 9.078125 54.6875 
L 18.109375 54.6875 
L 18.109375 46.390625 
Q 20.953125 51.265625 25.265625 53.625 
Q 29.59375 56 35.59375 56 
Q 45.5625 56 51.78125 48.09375 
Q 58.015625 40.1875 58.015625 27.296875 
Q 58.015625 14.40625 51.78125 6.484375 
Q 45.5625 -1.421875 35.59375 -1.421875 
Q 29.59375 -1.421875 25.265625 0.953125 
Q 20.953125 3.328125 18.109375 8.203125 
z
M 48.6875 27.296875 
Q 48.6875 37.203125 44.609375 42.84375 
Q 40.53125 48.484375 33.40625 48.484375 
Q 26.265625 48.484375 22.1875 42.84375 
Q 18.109375 37.203125 18.109375 27.296875 
Q 18.109375 17.390625 22.1875 11.75 
Q 26.265625 6.109375 33.40625 6.109375 
Q 40.53125 6.109375 44.609375 11.75 
Q 48.6875 17.390625 48.6875 27.296875 
z
" id="DejaVuSans-70"/>
     </defs>
     <g transform="translate(152.178125 591.988557)rotate(-90)scale(0.1 -0.1)">
      <use xlink:href="#DejaVuSans-43"/>
      <use x="69.824219" xlink:href="#DejaVuSans-6f"/>
      <use x="131.005859" xlink:href="#DejaVuSans-6e"/>
      <use x="194.384766" xlink:href="#DejaVuSans-74"/>
      <use x="233.59375" xlink:href="#DejaVuSans-72"/>
      <use x="274.675781" xlink:href="#DejaVuSans-6f"/>
      <use x="335.857422" xlink:href="#DejaVuSans-6c"/>
      <use x="363.640625" xlink:href="#DejaVuSans-20"/>
      <use x="395.427734" xlink:href="#DejaVuSans-49"/>
      <use x="424.919922" xlink:href="#DejaVuSans-6e"/>
      <use x="488.298828" xlink:href="#DejaVuSans-70"/>
      <use x="551.775391" xlink:href="#DejaVuSans-75"/>
      <use x="615.154297" xlink:href="#DejaVuSans-74"/>
     </g>
    </g>
   </g>
   <g id="line2d_58">
    <path clip-path="url(#p213848b593)" d="M 230.727273 492.750163 
L 235.825491 493.919343 
L 240.923709 493.751704 
L 251.120146 493.204148 
L 256.218365 491.285889 
L 261.316583 491.177831 
L 266.414801 491.545938 
L 271.51302 492.076689 
L 276.611238 491.800626 
L 281.709456 492.193637 
L 286.807675 487.54845 
L 291.905893 491.415953 
L 297.004111 492.399283 
L 302.10233 491.481543 
L 307.200548 491.801373 
L 312.298767 490.576495 
L 317.396985 490.081831 
L 322.495203 489.369455 
L 327.593422 489.902175 
L 332.69164 489.092321 
L 337.789858 488.719306 
L 342.888077 489.386633 
L 347.986295 489.685847 
L 353.084513 490.113754 
L 358.182732 490.964074 
L 363.28095 490.125936 
L 368.379169 488.896286 
L 373.477387 488.029132 
L 378.575605 489.721055 
L 383.673824 488.199077 
L 388.772042 487.54715 
L 393.87026 487.589614 
L 398.968479 486.529232 
L 404.066697 489.673961 
L 409.164915 488.135692 
L 414.263134 485.824264 
L 419.361352 485.152941 
L 424.459571 490.772816 
L 429.557789 489.106708 
L 434.656007 489.315614 
L 444.852444 490.782601 
L 449.950662 490.453119 
L 455.048881 489.037322 
L 465.245317 488.453479 
L 470.343536 488.587442 
L 475.441754 490.986446 
L 480.539973 491.363371 
L 485.638191 491.135325 
L 490.736409 492.780337 
L 495.834628 491.760648 
L 500.932846 490.063753 
L 506.031064 489.276958 
L 511.129283 488.30214 
L 516.227501 489.889196 
L 521.32572 489.613843 
L 526.423938 490.434998 
L 531.522156 490.337437 
L 536.620375 488.488953 
L 541.718593 493.709188 
L 546.816811 491.394042 
L 551.91503 490.987777 
L 557.013248 491.645997 
L 562.111466 490.692954 
L 567.209685 489.192178 
L 572.307903 491.22928 
L 577.406122 492.403355 
L 582.50434 492.445246 
L 587.602558 491.672357 
L 592.700777 491.684459 
L 597.798995 490.671356 
L 602.897213 491.030752 
L 607.995432 491.773863 
L 613.09365 492.770986 
L 618.191868 491.320477 
L 623.290087 491.376959 
L 628.388305 492.205604 
L 633.486524 490.768515 
L 638.584742 491.249684 
L 643.68296 489.919552 
L 648.781179 493.00008 
L 653.879397 492.5985 
L 658.977615 491.676767 
L 669.174052 490.791904 
L 674.27227 491.760756 
L 679.370489 570.082247 
L 684.468707 601.185451 
L 689.566926 599.952099 
L 694.665144 600.421564 
L 699.763362 601.57914 
L 704.861581 602.921675 
L 709.959799 606.010927 
L 715.058017 607.005547 
L 720.156236 608.710876 
L 725.254454 611.257565 
L 735.450891 613.383169 
L 740.549109 614.212937 
L 745.647328 614.602232 
L 750.745546 612.954682 
L 755.843764 613.235115 
L 760.941983 614.032981 
L 766.040201 614.540156 
L 771.138419 614.414566 
L 776.236638 612.429545 
L 781.334856 612.607572 
L 786.433074 615.497175 
L 791.531293 615.826795 
L 796.629511 617.023058 
L 801.72773 616.813611 
L 806.825948 617.862129 
L 811.924166 618.340703 
L 817.022385 617.830041 
L 822.120603 619.390713 
L 827.218821 619.54416 
L 832.31704 621.679073 
L 837.415258 621.536013 
L 842.513476 623.124869 
L 852.709913 626.039062 
L 857.808132 626.554234 
L 862.90635 625.781145 
L 868.004568 627.727003 
L 873.102787 630.238086 
L 878.201005 630.190606 
L 883.299223 627.275026 
L 888.397442 625.211286 
L 893.49566 628.234258 
L 898.593878 626.528029 
L 903.692097 626.654598 
L 913.888534 628.320234 
L 918.986752 628.535283 
L 924.08497 631.609496 
L 929.183189 633.380038 
L 934.281407 633.388235 
L 939.379625 551.793519 
L 944.477844 537.779012 
L 949.576062 538.315064 
L 954.67428 536.596638 
L 959.772499 535.16665 
L 964.870717 533.084153 
L 969.968936 532.431936 
L 975.067154 534.209936 
L 980.165372 533.219207 
L 985.263591 531.566286 
L 990.361809 528.122364 
L 995.460027 528.512652 
L 1000.558246 529.947058 
L 1005.656464 529.663438 
L 1010.754683 528.970223 
L 1020.951119 528.298915 
L 1026.049338 528.227756 
L 1031.147556 527.736689 
L 1036.245774 524.626456 
L 1041.343993 523.237345 
L 1046.442211 523.570548 
L 1051.540429 523.109697 
L 1056.638648 518.970672 
L 1061.736866 518.845389 
L 1071.933303 520.39416 
L 1077.031521 520.499525 
L 1082.12974 520.2287 
L 1087.227958 520.922196 
L 1092.326176 517.649913 
L 1097.424395 520.9196 
L 1102.522613 517.02928 
L 1107.620831 516.328794 
L 1112.71905 516.353476 
L 1117.817268 514.755739 
L 1122.915487 511.332494 
L 1128.013705 515.878526 
L 1133.111923 513.104887 
L 1138.210142 514.699559 
L 1143.30836 515.249283 
L 1148.406578 511.885836 
L 1153.504797 511.529527 
L 1158.603015 512.252046 
L 1163.701233 512.467981 
L 1168.799452 509.241289 
L 1173.89767 510.762153 
L 1178.995889 504.971293 
L 1184.094107 503.86381 
L 1189.192325 506.535945 
L 1194.290544 507.238068 
L 1199.388762 514.585445 
L 1204.48698 507.738976 
L 1209.585199 511.808001 
L 1214.683417 511.892095 
L 1219.781635 515.195068 
L 1224.879854 513.133718 
L 1229.978072 513.444749 
L 1235.076291 511.587282 
L 1240.174509 509.176074 
L 1245.272727 511.534277 
L 1245.272727 511.534277 
" style="fill:none;stroke:#ff0000;stroke-linecap:square;stroke-width:1.5;"/>
   </g>
   <g id="patch_15">
    <path d="M 180 640.8 
L 180 477.741176 
" style="fill:none;stroke:#000000;stroke-linecap:square;stroke-linejoin:miter;stroke-width:0.8;"/>
   </g>
   <g id="patch_16">
    <path d="M 1296 640.8 
L 1296 477.741176 
" style="fill:none;stroke:#000000;stroke-linecap:square;stroke-linejoin:miter;stroke-width:0.8;"/>
   </g>
   <g id="patch_17">
    <path d="M 180 640.8 
L 1296 640.8 
" style="fill:none;stroke:#000000;stroke-linecap:square;stroke-linejoin:miter;stroke-width:0.8;"/>
   </g>
   <g id="patch_18">
    <path d="M 180 477.741176 
L 1296 477.741176 
" style="fill:none;stroke:#000000;stroke-linecap:square;stroke-linejoin:miter;stroke-width:0.8;"/>
   </g>
   <g id="legend_3">
    <g id="patch_19">
     <path d="M 1194.742188 500.419301 
L 1289 500.419301 
Q 1291 500.419301 1291 498.419301 
L 1291 484.741176 
Q 1291 482.741176 1289 482.741176 
L 1194.742188 482.741176 
Q 1192.742188 482.741176 1192.742188 484.741176 
L 1192.742188 498.419301 
Q 1192.742188 500.419301 1194.742188 500.419301 
z
" style="fill:#ffffff;opacity:0.8;stroke:#cccccc;stroke-linejoin:miter;"/>
    </g>
    <g id="line2d_59">
     <path d="M 1196.742188 490.839614 
L 1216.742188 490.839614 
" style="fill:none;stroke:#ff0000;stroke-linecap:square;stroke-width:1.5;"/>
    </g>
    <g id="line2d_60"/>
    <g id="text_54">
     <!-- ControlInput -->
     <g transform="translate(1224.742188 494.339614)scale(0.1 -0.1)">
      <use xlink:href="#DejaVuSans-43"/>
      <use x="69.824219" xlink:href="#DejaVuSans-6f"/>
      <use x="131.005859" xlink:href="#DejaVuSans-6e"/>
      <use x="194.384766" xlink:href="#DejaVuSans-74"/>
      <use x="233.59375" xlink:href="#DejaVuSans-72"/>
      <use x="274.675781" xlink:href="#DejaVuSans-6f"/>
      <use x="335.857422" xlink:href="#DejaVuSans-6c"/>
      <use x="363.640625" xlink:href="#DejaVuSans-49"/>
      <use x="393.132812" xlink:href="#DejaVuSans-6e"/>
      <use x="456.511719" xlink:href="#DejaVuSans-70"/>
      <use x="519.988281" xlink:href="#DejaVuSans-75"/>
      <use x="583.367188" xlink:href="#DejaVuSans-74"/>
     </g>
    </g>
   </g>
  </g>
 </g>
 <defs>
  <clipPath id="pfc7bea736b">
   <rect height="163.058824" width="1116" x="180" y="86.4"/>
  </clipPath>
  <clipPath id="pc95c32531a">
   <rect height="163.058824" width="1116" x="180" y="282.070588"/>
  </clipPath>
  <clipPath id="p213848b593">
   <rect height="163.058824" width="1116" x="180" y="477.741176"/>
  </clipPath>
 </defs>
</svg>
