<?xml version="1.0" encoding="utf-8" standalone="no"?>
<!DOCTYPE svg PUBLIC "-//W3C//DTD SVG 1.1//EN"
  "http://www.w3.org/Graphics/SVG/1.1/DTD/svg11.dtd">
<!-- Created with matplotlib (http://matplotlib.org/) -->
<svg height="720pt" version="1.1" viewBox="0 0 1440 720" width="1440pt" xmlns="http://www.w3.org/2000/svg" xmlns:xlink="http://www.w3.org/1999/xlink">
 <defs>
  <style type="text/css">
*{stroke-linecap:butt;stroke-linejoin:round;}
  </style>
 </defs>
 <g id="figure_1">
  <g id="patch_1">
   <path d="M 0 720 
L 1440 720 
L 1440 0 
L 0 0 
z
" style="fill:#ffffff;"/>
  </g>
  <g id="axes_1">
   <g id="patch_2">
    <path d="M 180 249.458824 
L 1296 249.458824 
L 1296 86.4 
L 180 86.4 
z
" style="fill:#ffffff;"/>
   </g>
   <g id="matplotlib.axis_1">
    <g id="xtick_1">
     <g id="line2d_1">
      <defs>
       <path d="M 0 0 
L 0 3.5 
" id="m66038ced53" style="stroke:#000000;stroke-width:0.8;"/>
      </defs>
      <g>
       <use style="stroke:#000000;stroke-width:0.8;" x="225.629054" xlink:href="#m66038ced53" y="249.458824"/>
      </g>
     </g>
     <g id="text_1">
      <!-- 0 -->
      <defs>
       <path d="M 31.78125 66.40625 
Q 24.171875 66.40625 20.328125 58.90625 
Q 16.5 51.421875 16.5 36.375 
Q 16.5 21.390625 20.328125 13.890625 
Q 24.171875 6.390625 31.78125 6.390625 
Q 39.453125 6.390625 43.28125 13.890625 
Q 47.125 21.390625 47.125 36.375 
Q 47.125 51.421875 43.28125 58.90625 
Q 39.453125 66.40625 31.78125 66.40625 
z
M 31.78125 74.21875 
Q 44.046875 74.21875 50.515625 64.515625 
Q 56.984375 54.828125 56.984375 36.375 
Q 56.984375 17.96875 50.515625 8.265625 
Q 44.046875 -1.421875 31.78125 -1.421875 
Q 19.53125 -1.421875 13.0625 8.265625 
Q 6.59375 17.96875 6.59375 36.375 
Q 6.59375 54.828125 13.0625 64.515625 
Q 19.53125 74.21875 31.78125 74.21875 
z
" id="DejaVuSans-30"/>
      </defs>
      <g transform="translate(222.447804 264.057261)scale(0.1 -0.1)">
       <use xlink:href="#DejaVuSans-30"/>
      </g>
     </g>
    </g>
    <g id="xtick_2">
     <g id="line2d_2">
      <g>
       <use style="stroke:#000000;stroke-width:0.8;" x="353.084513" xlink:href="#m66038ced53" y="249.458824"/>
      </g>
     </g>
     <g id="text_2">
      <!-- 500 -->
      <defs>
       <path d="M 10.796875 72.90625 
L 49.515625 72.90625 
L 49.515625 64.59375 
L 19.828125 64.59375 
L 19.828125 46.734375 
Q 21.96875 47.46875 24.109375 47.828125 
Q 26.265625 48.1875 28.421875 48.1875 
Q 40.625 48.1875 47.75 41.5 
Q 54.890625 34.8125 54.890625 23.390625 
Q 54.890625 11.625 47.5625 5.09375 
Q 40.234375 -1.421875 26.90625 -1.421875 
Q 22.3125 -1.421875 17.546875 -0.640625 
Q 12.796875 0.140625 7.71875 1.703125 
L 7.71875 11.625 
Q 12.109375 9.234375 16.796875 8.0625 
Q 21.484375 6.890625 26.703125 6.890625 
Q 35.15625 6.890625 40.078125 11.328125 
Q 45.015625 15.765625 45.015625 23.390625 
Q 45.015625 31 40.078125 35.4375 
Q 35.15625 39.890625 26.703125 39.890625 
Q 22.75 39.890625 18.8125 39.015625 
Q 14.890625 38.140625 10.796875 36.28125 
z
" id="DejaVuSans-35"/>
      </defs>
      <g transform="translate(343.540763 264.057261)scale(0.1 -0.1)">
       <use xlink:href="#DejaVuSans-35"/>
       <use x="63.623047" xlink:href="#DejaVuSans-30"/>
       <use x="127.246094" xlink:href="#DejaVuSans-30"/>
      </g>
     </g>
    </g>
    <g id="xtick_3">
     <g id="line2d_3">
      <g>
       <use style="stroke:#000000;stroke-width:0.8;" x="480.539973" xlink:href="#m66038ced53" y="249.458824"/>
      </g>
     </g>
     <g id="text_3">
      <!-- 1000 -->
      <defs>
       <path d="M 12.40625 8.296875 
L 28.515625 8.296875 
L 28.515625 63.921875 
L 10.984375 60.40625 
L 10.984375 69.390625 
L 28.421875 72.90625 
L 38.28125 72.90625 
L 38.28125 8.296875 
L 54.390625 8.296875 
L 54.390625 0 
L 12.40625 0 
z
" id="DejaVuSans-31"/>
      </defs>
      <g transform="translate(467.814973 264.057261)scale(0.1 -0.1)">
       <use xlink:href="#DejaVuSans-31"/>
       <use x="63.623047" xlink:href="#DejaVuSans-30"/>
       <use x="127.246094" xlink:href="#DejaVuSans-30"/>
       <use x="190.869141" xlink:href="#DejaVuSans-30"/>
      </g>
     </g>
    </g>
    <g id="xtick_4">
     <g id="line2d_4">
      <g>
       <use style="stroke:#000000;stroke-width:0.8;" x="607.995432" xlink:href="#m66038ced53" y="249.458824"/>
      </g>
     </g>
     <g id="text_4">
      <!-- 1500 -->
      <g transform="translate(595.270432 264.057261)scale(0.1 -0.1)">
       <use xlink:href="#DejaVuSans-31"/>
       <use x="63.623047" xlink:href="#DejaVuSans-35"/>
       <use x="127.246094" xlink:href="#DejaVuSans-30"/>
       <use x="190.869141" xlink:href="#DejaVuSans-30"/>
      </g>
     </g>
    </g>
    <g id="xtick_5">
     <g id="line2d_5">
      <g>
       <use style="stroke:#000000;stroke-width:0.8;" x="735.450891" xlink:href="#m66038ced53" y="249.458824"/>
      </g>
     </g>
     <g id="text_5">
      <!-- 2000 -->
      <defs>
       <path d="M 19.1875 8.296875 
L 53.609375 8.296875 
L 53.609375 0 
L 7.328125 0 
L 7.328125 8.296875 
Q 12.9375 14.109375 22.625 23.890625 
Q 32.328125 33.6875 34.8125 36.53125 
Q 39.546875 41.84375 41.421875 45.53125 
Q 43.3125 49.21875 43.3125 52.78125 
Q 43.3125 58.59375 39.234375 62.25 
Q 35.15625 65.921875 28.609375 65.921875 
Q 23.96875 65.921875 18.8125 64.3125 
Q 13.671875 62.703125 7.8125 59.421875 
L 7.8125 69.390625 
Q 13.765625 71.78125 18.9375 73 
Q 24.125 74.21875 28.421875 74.21875 
Q 39.75 74.21875 46.484375 68.546875 
Q 53.21875 62.890625 53.21875 53.421875 
Q 53.21875 48.921875 51.53125 44.890625 
Q 49.859375 40.875 45.40625 35.40625 
Q 44.1875 33.984375 37.640625 27.21875 
Q 31.109375 20.453125 19.1875 8.296875 
z
" id="DejaVuSans-32"/>
      </defs>
      <g transform="translate(722.725891 264.057261)scale(0.1 -0.1)">
       <use xlink:href="#DejaVuSans-32"/>
       <use x="63.623047" xlink:href="#DejaVuSans-30"/>
       <use x="127.246094" xlink:href="#DejaVuSans-30"/>
       <use x="190.869141" xlink:href="#DejaVuSans-30"/>
      </g>
     </g>
    </g>
    <g id="xtick_6">
     <g id="line2d_6">
      <g>
       <use style="stroke:#000000;stroke-width:0.8;" x="862.90635" xlink:href="#m66038ced53" y="249.458824"/>
      </g>
     </g>
     <g id="text_6">
      <!-- 2500 -->
      <g transform="translate(850.18135 264.057261)scale(0.1 -0.1)">
       <use xlink:href="#DejaVuSans-32"/>
       <use x="63.623047" xlink:href="#DejaVuSans-35"/>
       <use x="127.246094" xlink:href="#DejaVuSans-30"/>
       <use x="190.869141" xlink:href="#DejaVuSans-30"/>
      </g>
     </g>
    </g>
    <g id="xtick_7">
     <g id="line2d_7">
      <g>
       <use style="stroke:#000000;stroke-width:0.8;" x="990.361809" xlink:href="#m66038ced53" y="249.458824"/>
      </g>
     </g>
     <g id="text_7">
      <!-- 3000 -->
      <defs>
       <path d="M 40.578125 39.3125 
Q 47.65625 37.796875 51.625 33 
Q 55.609375 28.21875 55.609375 21.1875 
Q 55.609375 10.40625 48.1875 4.484375 
Q 40.765625 -1.421875 27.09375 -1.421875 
Q 22.515625 -1.421875 17.65625 -0.515625 
Q 12.796875 0.390625 7.625 2.203125 
L 7.625 11.71875 
Q 11.71875 9.328125 16.59375 8.109375 
Q 21.484375 6.890625 26.8125 6.890625 
Q 36.078125 6.890625 40.9375 10.546875 
Q 45.796875 14.203125 45.796875 21.1875 
Q 45.796875 27.640625 41.28125 31.265625 
Q 36.765625 34.90625 28.71875 34.90625 
L 20.21875 34.90625 
L 20.21875 43.015625 
L 29.109375 43.015625 
Q 36.375 43.015625 40.234375 45.921875 
Q 44.09375 48.828125 44.09375 54.296875 
Q 44.09375 59.90625 40.109375 62.90625 
Q 36.140625 65.921875 28.71875 65.921875 
Q 24.65625 65.921875 20.015625 65.03125 
Q 15.375 64.15625 9.8125 62.3125 
L 9.8125 71.09375 
Q 15.4375 72.65625 20.34375 73.4375 
Q 25.25 74.21875 29.59375 74.21875 
Q 40.828125 74.21875 47.359375 69.109375 
Q 53.90625 64.015625 53.90625 55.328125 
Q 53.90625 49.265625 50.4375 45.09375 
Q 46.96875 40.921875 40.578125 39.3125 
z
" id="DejaVuSans-33"/>
      </defs>
      <g transform="translate(977.636809 264.057261)scale(0.1 -0.1)">
       <use xlink:href="#DejaVuSans-33"/>
       <use x="63.623047" xlink:href="#DejaVuSans-30"/>
       <use x="127.246094" xlink:href="#DejaVuSans-30"/>
       <use x="190.869141" xlink:href="#DejaVuSans-30"/>
      </g>
     </g>
    </g>
    <g id="xtick_8">
     <g id="line2d_8">
      <g>
       <use style="stroke:#000000;stroke-width:0.8;" x="1117.817268" xlink:href="#m66038ced53" y="249.458824"/>
      </g>
     </g>
     <g id="text_8">
      <!-- 3500 -->
      <g transform="translate(1105.092268 264.057261)scale(0.1 -0.1)">
       <use xlink:href="#DejaVuSans-33"/>
       <use x="63.623047" xlink:href="#DejaVuSans-35"/>
       <use x="127.246094" xlink:href="#DejaVuSans-30"/>
       <use x="190.869141" xlink:href="#DejaVuSans-30"/>
      </g>
     </g>
    </g>
    <g id="xtick_9">
     <g id="line2d_9">
      <g>
       <use style="stroke:#000000;stroke-width:0.8;" x="1245.272727" xlink:href="#m66038ced53" y="249.458824"/>
      </g>
     </g>
     <g id="text_9">
      <!-- 4000 -->
      <defs>
       <path d="M 37.796875 64.3125 
L 12.890625 25.390625 
L 37.796875 25.390625 
z
M 35.203125 72.90625 
L 47.609375 72.90625 
L 47.609375 25.390625 
L 58.015625 25.390625 
L 58.015625 17.1875 
L 47.609375 17.1875 
L 47.609375 0 
L 37.796875 0 
L 37.796875 17.1875 
L 4.890625 17.1875 
L 4.890625 26.703125 
z
" id="DejaVuSans-34"/>
      </defs>
      <g transform="translate(1232.547727 264.057261)scale(0.1 -0.1)">
       <use xlink:href="#DejaVuSans-34"/>
       <use x="63.623047" xlink:href="#DejaVuSans-30"/>
       <use x="127.246094" xlink:href="#DejaVuSans-30"/>
       <use x="190.869141" xlink:href="#DejaVuSans-30"/>
      </g>
     </g>
    </g>
   </g>
   <g id="matplotlib.axis_2">
    <g id="ytick_1">
     <g id="line2d_10">
      <defs>
       <path d="M 0 0 
L -3.5 0 
" id="m211b82b3b5" style="stroke:#000000;stroke-width:0.8;"/>
      </defs>
      <g>
       <use style="stroke:#000000;stroke-width:0.8;" x="180" xlink:href="#m211b82b3b5" y="236.684528"/>
      </g>
     </g>
     <g id="text_10">
      <!-- −3 -->
      <defs>
       <path d="M 10.59375 35.5 
L 73.1875 35.5 
L 73.1875 27.203125 
L 10.59375 27.203125 
z
" id="DejaVuSans-2212"/>
      </defs>
      <g transform="translate(158.257812 240.483746)scale(0.1 -0.1)">
       <use xlink:href="#DejaVuSans-2212"/>
       <use x="83.789062" xlink:href="#DejaVuSans-33"/>
      </g>
     </g>
    </g>
    <g id="ytick_2">
     <g id="line2d_11">
      <g>
       <use style="stroke:#000000;stroke-width:0.8;" x="180" xlink:href="#m211b82b3b5" y="200.93432"/>
      </g>
     </g>
     <g id="text_11">
      <!-- −2 -->
      <g transform="translate(158.257812 204.733539)scale(0.1 -0.1)">
       <use xlink:href="#DejaVuSans-2212"/>
       <use x="83.789062" xlink:href="#DejaVuSans-32"/>
      </g>
     </g>
    </g>
    <g id="ytick_3">
     <g id="line2d_12">
      <g>
       <use style="stroke:#000000;stroke-width:0.8;" x="180" xlink:href="#m211b82b3b5" y="165.184112"/>
      </g>
     </g>
     <g id="text_12">
      <!-- −1 -->
      <g transform="translate(158.257812 168.983331)scale(0.1 -0.1)">
       <use xlink:href="#DejaVuSans-2212"/>
       <use x="83.789062" xlink:href="#DejaVuSans-31"/>
      </g>
     </g>
    </g>
    <g id="ytick_4">
     <g id="line2d_13">
      <g>
       <use style="stroke:#000000;stroke-width:0.8;" x="180" xlink:href="#m211b82b3b5" y="129.433905"/>
      </g>
     </g>
     <g id="text_13">
      <!-- 0 -->
      <g transform="translate(166.6375 133.233123)scale(0.1 -0.1)">
       <use xlink:href="#DejaVuSans-30"/>
      </g>
     </g>
    </g>
    <g id="ytick_5">
     <g id="line2d_14">
      <g>
       <use style="stroke:#000000;stroke-width:0.8;" x="180" xlink:href="#m211b82b3b5" y="93.683697"/>
      </g>
     </g>
     <g id="text_14">
      <!-- 1 -->
      <g transform="translate(166.6375 97.482916)scale(0.1 -0.1)">
       <use xlink:href="#DejaVuSans-31"/>
      </g>
     </g>
    </g>
    <g id="text_15">
     <!-- TD State:0 -->
     <defs>
      <path d="M -0.296875 72.90625 
L 61.375 72.90625 
L 61.375 64.59375 
L 35.5 64.59375 
L 35.5 0 
L 25.59375 0 
L 25.59375 64.59375 
L -0.296875 64.59375 
z
" id="DejaVuSans-54"/>
      <path d="M 19.671875 64.796875 
L 19.671875 8.109375 
L 31.59375 8.109375 
Q 46.6875 8.109375 53.6875 14.9375 
Q 60.6875 21.78125 60.6875 36.53125 
Q 60.6875 51.171875 53.6875 57.984375 
Q 46.6875 64.796875 31.59375 64.796875 
z
M 9.8125 72.90625 
L 30.078125 72.90625 
Q 51.265625 72.90625 61.171875 64.09375 
Q 71.09375 55.28125 71.09375 36.53125 
Q 71.09375 17.671875 61.125 8.828125 
Q 51.171875 0 30.078125 0 
L 9.8125 0 
z
" id="DejaVuSans-44"/>
      <path id="DejaVuSans-20"/>
      <path d="M 53.515625 70.515625 
L 53.515625 60.890625 
Q 47.90625 63.578125 42.921875 64.890625 
Q 37.9375 66.21875 33.296875 66.21875 
Q 25.25 66.21875 20.875 63.09375 
Q 16.5 59.96875 16.5 54.203125 
Q 16.5 49.359375 19.40625 46.890625 
Q 22.3125 44.4375 30.421875 42.921875 
L 36.375 41.703125 
Q 47.40625 39.59375 52.65625 34.296875 
Q 57.90625 29 57.90625 20.125 
Q 57.90625 9.515625 50.796875 4.046875 
Q 43.703125 -1.421875 29.984375 -1.421875 
Q 24.8125 -1.421875 18.96875 -0.25 
Q 13.140625 0.921875 6.890625 3.21875 
L 6.890625 13.375 
Q 12.890625 10.015625 18.65625 8.296875 
Q 24.421875 6.59375 29.984375 6.59375 
Q 38.421875 6.59375 43.015625 9.90625 
Q 47.609375 13.234375 47.609375 19.390625 
Q 47.609375 24.75 44.3125 27.78125 
Q 41.015625 30.8125 33.5 32.328125 
L 27.484375 33.5 
Q 16.453125 35.6875 11.515625 40.375 
Q 6.59375 45.0625 6.59375 53.421875 
Q 6.59375 63.09375 13.40625 68.65625 
Q 20.21875 74.21875 32.171875 74.21875 
Q 37.3125 74.21875 42.625 73.28125 
Q 47.953125 72.359375 53.515625 70.515625 
z
" id="DejaVuSans-53"/>
      <path d="M 18.3125 70.21875 
L 18.3125 54.6875 
L 36.8125 54.6875 
L 36.8125 47.703125 
L 18.3125 47.703125 
L 18.3125 18.015625 
Q 18.3125 11.328125 20.140625 9.421875 
Q 21.96875 7.515625 27.59375 7.515625 
L 36.8125 7.515625 
L 36.8125 0 
L 27.59375 0 
Q 17.1875 0 13.234375 3.875 
Q 9.28125 7.765625 9.28125 18.015625 
L 9.28125 47.703125 
L 2.6875 47.703125 
L 2.6875 54.6875 
L 9.28125 54.6875 
L 9.28125 70.21875 
z
" id="DejaVuSans-74"/>
      <path d="M 34.28125 27.484375 
Q 23.390625 27.484375 19.1875 25 
Q 14.984375 22.515625 14.984375 16.5 
Q 14.984375 11.71875 18.140625 8.90625 
Q 21.296875 6.109375 26.703125 6.109375 
Q 34.1875 6.109375 38.703125 11.40625 
Q 43.21875 16.703125 43.21875 25.484375 
L 43.21875 27.484375 
z
M 52.203125 31.203125 
L 52.203125 0 
L 43.21875 0 
L 43.21875 8.296875 
Q 40.140625 3.328125 35.546875 0.953125 
Q 30.953125 -1.421875 24.3125 -1.421875 
Q 15.921875 -1.421875 10.953125 3.296875 
Q 6 8.015625 6 15.921875 
Q 6 25.140625 12.171875 29.828125 
Q 18.359375 34.515625 30.609375 34.515625 
L 43.21875 34.515625 
L 43.21875 35.40625 
Q 43.21875 41.609375 39.140625 45 
Q 35.0625 48.390625 27.6875 48.390625 
Q 23 48.390625 18.546875 47.265625 
Q 14.109375 46.140625 10.015625 43.890625 
L 10.015625 52.203125 
Q 14.9375 54.109375 19.578125 55.046875 
Q 24.21875 56 28.609375 56 
Q 40.484375 56 46.34375 49.84375 
Q 52.203125 43.703125 52.203125 31.203125 
z
" id="DejaVuSans-61"/>
      <path d="M 56.203125 29.59375 
L 56.203125 25.203125 
L 14.890625 25.203125 
Q 15.484375 15.921875 20.484375 11.0625 
Q 25.484375 6.203125 34.421875 6.203125 
Q 39.59375 6.203125 44.453125 7.46875 
Q 49.3125 8.734375 54.109375 11.28125 
L 54.109375 2.78125 
Q 49.265625 0.734375 44.1875 -0.34375 
Q 39.109375 -1.421875 33.890625 -1.421875 
Q 20.796875 -1.421875 13.15625 6.1875 
Q 5.515625 13.8125 5.515625 26.8125 
Q 5.515625 40.234375 12.765625 48.109375 
Q 20.015625 56 32.328125 56 
Q 43.359375 56 49.78125 48.890625 
Q 56.203125 41.796875 56.203125 29.59375 
z
M 47.21875 32.234375 
Q 47.125 39.59375 43.09375 43.984375 
Q 39.0625 48.390625 32.421875 48.390625 
Q 24.90625 48.390625 20.390625 44.140625 
Q 15.875 39.890625 15.1875 32.171875 
z
" id="DejaVuSans-65"/>
      <path d="M 11.71875 12.40625 
L 22.015625 12.40625 
L 22.015625 0 
L 11.71875 0 
z
M 11.71875 51.703125 
L 22.015625 51.703125 
L 22.015625 39.3125 
L 11.71875 39.3125 
z
" id="DejaVuSans-3a"/>
     </defs>
     <g transform="translate(152.178125 194.523162)rotate(-90)scale(0.1 -0.1)">
      <use xlink:href="#DejaVuSans-54"/>
      <use x="61.083984" xlink:href="#DejaVuSans-44"/>
      <use x="138.085938" xlink:href="#DejaVuSans-20"/>
      <use x="169.873047" xlink:href="#DejaVuSans-53"/>
      <use x="233.349609" xlink:href="#DejaVuSans-74"/>
      <use x="272.558594" xlink:href="#DejaVuSans-61"/>
      <use x="333.837891" xlink:href="#DejaVuSans-74"/>
      <use x="373.046875" xlink:href="#DejaVuSans-65"/>
      <use x="434.570312" xlink:href="#DejaVuSans-3a"/>
      <use x="468.261719" xlink:href="#DejaVuSans-30"/>
     </g>
    </g>
   </g>
   <g id="line2d_15">
    <path clip-path="url(#p1f8c7aecff)" d="M 230.727273 151.958956 
L 235.825491 149.726326 
L 240.923709 161.818754 
L 246.021928 154.157816 
L 251.120146 165.639911 
L 256.218365 175.092445 
L 261.316583 182.656987 
L 266.414801 192.815916 
L 271.51302 184.569924 
L 276.611238 163.731507 
L 281.709456 164.145833 
L 286.807675 163.323427 
L 297.004111 162.3559 
L 302.10233 162.552271 
L 307.200548 161.461762 
L 312.298767 162.733297 
L 317.396985 165.444966 
L 322.495203 164.310729 
L 327.593422 166.986895 
L 332.69164 167.06777 
L 337.789858 171.210654 
L 342.888077 171.136977 
L 347.986295 174.612346 
L 353.084513 173.056131 
L 358.182732 174.401755 
L 363.28095 176.355306 
L 368.379169 174.22641 
L 373.477387 177.845587 
L 378.575605 174.62349 
L 383.673824 176.759504 
L 388.772042 175.415602 
L 393.87026 176.997063 
L 398.968479 179.574126 
L 404.066697 174.314854 
L 409.164915 176.966165 
L 414.263134 172.548125 
L 419.361352 176.551079 
L 424.459571 172.427305 
L 429.557789 173.884293 
L 434.656007 172.144575 
L 439.754226 167.105304 
L 444.852444 169.313213 
L 449.950662 166.729153 
L 455.048881 167.165957 
L 460.147099 167.207807 
L 465.245317 163.676524 
L 470.343536 166.049965 
L 475.441754 163.910145 
L 480.539973 162.625833 
L 485.638191 163.846809 
L 490.736409 162.035891 
L 495.834628 179.104966 
L 500.932846 181.316498 
L 506.031064 168.998402 
L 511.129283 183.345372 
L 516.227501 168.828954 
L 521.32572 178.819663 
L 526.423938 164.792972 
L 531.522156 172.932348 
L 536.620375 182.785735 
L 541.718593 162.053792 
L 546.816811 157.996702 
L 551.91503 157.460807 
L 557.013248 159.859667 
L 562.111466 163.644665 
L 567.209685 163.894223 
L 572.307903 168.691193 
L 577.406122 170.312003 
L 582.50434 172.490119 
L 587.602558 169.614937 
L 592.700777 170.538673 
L 597.798995 171.688073 
L 607.995432 173.456809 
L 613.09365 172.354292 
L 618.191868 174.423831 
L 623.290087 171.150883 
L 628.388305 170.556133 
L 633.486524 168.662648 
L 638.584742 170.284498 
L 643.68296 168.742313 
L 648.781179 165.722214 
L 653.879397 167.099844 
L 658.977615 165.191029 
L 664.075834 162.592419 
L 669.174052 160.139643 
L 674.27227 153.25909 
L 679.370489 130.963363 
L 684.468707 127.107675 
L 689.566926 116.127401 
L 694.665144 112.650581 
L 699.763362 122.893106 
L 704.861581 120.565985 
L 709.959799 117.377678 
L 715.058017 113.971363 
L 720.156236 119.985746 
L 725.254454 140.796314 
L 730.352672 145.198678 
L 735.450891 140.850342 
L 745.647328 135.628004 
L 750.745546 131.903803 
L 755.843764 132.887246 
L 760.941983 131.818127 
L 766.040201 128.584765 
L 771.138419 129.034556 
L 776.236638 123.250312 
L 781.334856 122.573195 
L 786.433074 119.645645 
L 791.531293 117.646526 
L 796.629511 115.287027 
L 801.72773 112.203131 
L 806.825948 110.157563 
L 811.924166 110.09266 
L 817.022385 107.43625 
L 822.120603 106.881819 
L 827.218821 107.283381 
L 832.31704 105.925843 
L 837.415258 107.057844 
L 842.513476 104.869686 
L 847.611695 105.790003 
L 852.709913 103.816484 
L 857.808132 102.356104 
L 862.90635 103.617997 
L 868.004568 99.773072 
L 873.102787 101.763617 
L 878.201005 98.38789 
L 883.299223 99.541637 
L 888.397442 98.908319 
L 893.49566 96.999141 
L 898.593878 99.076304 
L 903.692097 95.983275 
L 908.790315 96.514275 
L 913.888534 93.811765 
L 918.986752 96.311002 
L 924.08497 96.453355 
L 929.183189 96.911038 
L 934.281407 102.918159 
L 939.379625 123.956768 
L 944.477844 118.832526 
L 949.576062 133.56175 
L 954.67428 134.197723 
L 959.772499 121.964549 
L 964.870717 123.192806 
L 969.968936 121.09862 
L 975.067154 126.168367 
L 980.165372 121.321807 
L 985.263591 102.152973 
L 990.361809 105.848042 
L 995.460027 108.050239 
L 1000.558246 116.772876 
L 1005.656464 120.49832 
L 1010.754683 120.043791 
L 1015.852901 130.522713 
L 1020.951119 135.347693 
L 1026.049338 142.828555 
L 1031.147556 142.514795 
L 1036.245774 139.313599 
L 1041.343993 149.560586 
L 1046.442211 144.076245 
L 1051.540429 147.746 
L 1056.638648 145.705805 
L 1061.736866 149.158065 
L 1066.835085 153.42522 
L 1071.933303 143.006073 
L 1077.031521 141.163261 
L 1082.12974 141.297083 
L 1087.227958 140.453254 
L 1092.326176 144.099806 
L 1097.424395 142.737921 
L 1102.522613 142.580166 
L 1107.620831 142.756183 
L 1112.71905 141.928574 
L 1117.817268 145.217642 
L 1122.915487 143.622981 
L 1128.013705 143.204431 
L 1133.111923 147.39526 
L 1138.210142 141.75605 
L 1143.30836 143.95727 
L 1148.406578 144.734377 
L 1153.504797 143.223738 
L 1158.603015 145.653966 
L 1163.701233 144.434582 
L 1168.799452 146.767126 
L 1173.89767 148.837183 
L 1178.995889 149.272984 
L 1184.094107 151.479227 
L 1189.192325 149.517954 
L 1194.290544 149.373576 
L 1199.388762 148.844982 
L 1204.48698 154.144436 
L 1209.585199 149.71949 
L 1214.683417 151.788586 
L 1219.781635 150.797003 
L 1224.879854 150.884878 
L 1229.978072 152.184842 
L 1235.076291 153.688596 
L 1240.174509 158.322494 
L 1245.272727 157.40497 
L 1245.272727 157.40497 
" style="fill:none;stroke:#000000;stroke-linecap:square;stroke-width:4;"/>
   </g>
   <g id="line2d_16">
    <path clip-path="url(#p1f8c7aecff)" d="M 230.727273 166.971623 
L 235.825491 172.334154 
L 240.923709 166.971623 
L 246.021928 172.334154 
L 251.120146 166.971623 
L 256.218365 172.334154 
L 266.414801 172.334154 
L 271.51302 166.971623 
L 276.611238 172.334154 
L 281.709456 166.971623 
L 286.807675 166.971623 
L 291.905893 172.334154 
L 297.004111 166.971623 
L 302.10233 172.334154 
L 307.200548 172.334154 
L 312.298767 177.696685 
L 317.396985 172.334154 
L 322.495203 177.696685 
L 327.593422 172.334154 
L 332.69164 177.696685 
L 347.986295 177.696685 
L 353.084513 172.334154 
L 358.182732 183.059216 
L 363.28095 177.696685 
L 373.477387 177.696685 
L 378.575605 172.334154 
L 383.673824 177.696685 
L 388.772042 177.696685 
L 393.87026 188.421747 
L 398.968479 172.334154 
L 404.066697 177.696685 
L 409.164915 172.334154 
L 419.361352 183.059216 
L 424.459571 172.334154 
L 439.754226 172.334154 
L 444.852444 177.696685 
L 449.950662 172.334154 
L 465.245317 172.334154 
L 470.343536 177.696685 
L 480.539973 166.971623 
L 485.638191 172.334154 
L 490.736409 172.334154 
L 495.834628 242.047059 
L 500.932846 172.334154 
L 506.031064 166.971623 
L 526.423938 166.971623 
L 536.620375 177.696685 
L 546.816811 177.696685 
L 551.91503 172.334154 
L 557.013248 177.696685 
L 562.111466 172.334154 
L 567.209685 177.696685 
L 572.307903 177.696685 
L 577.406122 183.059216 
L 587.602558 172.334154 
L 592.700777 177.696685 
L 597.798995 177.696685 
L 602.897213 183.059216 
L 607.995432 177.696685 
L 613.09365 177.696685 
L 618.191868 172.334154 
L 623.290087 177.696685 
L 628.388305 172.334154 
L 633.486524 172.334154 
L 638.584742 177.696685 
L 643.68296 172.334154 
L 648.781179 172.334154 
L 653.879397 183.059216 
L 658.977615 172.334154 
L 669.174052 161.609091 
L 674.27227 150.884029 
L 679.370489 145.521498 
L 684.468707 145.521498 
L 689.566926 140.158967 
L 699.763362 140.158967 
L 709.959799 129.433905 
L 730.352672 129.433905 
L 735.450891 124.071373 
L 745.647328 124.071373 
L 750.745546 118.708842 
L 755.843764 129.433905 
L 760.941983 118.708842 
L 771.138419 118.708842 
L 776.236638 113.346311 
L 781.334856 113.346311 
L 786.433074 118.708842 
L 791.531293 113.346311 
L 822.120603 113.346311 
L 827.218821 107.98378 
L 832.31704 113.346311 
L 837.415258 113.346311 
L 842.513476 107.98378 
L 847.611695 113.346311 
L 852.709913 102.621249 
L 857.808132 107.98378 
L 868.004568 107.98378 
L 873.102787 102.621249 
L 878.201005 102.621249 
L 883.299223 107.98378 
L 888.397442 102.621249 
L 893.49566 107.98378 
L 898.593878 102.621249 
L 913.888534 102.621249 
L 918.986752 107.98378 
L 924.08497 107.98378 
L 929.183189 113.346311 
L 934.281407 124.071373 
L 939.379625 118.708842 
L 949.576062 129.433905 
L 954.67428 124.071373 
L 959.772499 129.433905 
L 964.870717 129.433905 
L 969.968936 124.071373 
L 975.067154 145.521498 
L 980.165372 150.884029 
L 985.263591 145.521498 
L 995.460027 145.521498 
L 1000.558246 156.24656 
L 1010.754683 145.521498 
L 1020.951119 156.24656 
L 1026.049338 183.059216 
L 1031.147556 150.884029 
L 1036.245774 150.884029 
L 1041.343993 156.24656 
L 1046.442211 150.884029 
L 1051.540429 156.24656 
L 1087.227958 156.24656 
L 1092.326176 161.609091 
L 1097.424395 156.24656 
L 1112.71905 156.24656 
L 1117.817268 161.609091 
L 1122.915487 156.24656 
L 1128.013705 161.609091 
L 1133.111923 161.609091 
L 1138.210142 156.24656 
L 1143.30836 161.609091 
L 1148.406578 161.609091 
L 1153.504797 156.24656 
L 1158.603015 161.609091 
L 1163.701233 161.609091 
L 1168.799452 166.971623 
L 1178.995889 166.971623 
L 1184.094107 161.609091 
L 1194.290544 161.609091 
L 1199.388762 172.334154 
L 1209.585199 161.609091 
L 1214.683417 161.609091 
L 1224.879854 172.334154 
L 1229.978072 172.334154 
L 1235.076291 161.609091 
L 1240.174509 166.971623 
L 1245.272727 161.609091 
L 1245.272727 161.609091 
" style="fill:none;stroke:#ff0000;stroke-linecap:square;stroke-width:1.5;"/>
   </g>
   <g id="patch_3">
    <path d="M 180 249.458824 
L 180 86.4 
" style="fill:none;stroke:#000000;stroke-linecap:square;stroke-linejoin:miter;stroke-width:0.8;"/>
   </g>
   <g id="patch_4">
    <path d="M 1296 249.458824 
L 1296 86.4 
" style="fill:none;stroke:#000000;stroke-linecap:square;stroke-linejoin:miter;stroke-width:0.8;"/>
   </g>
   <g id="patch_5">
    <path d="M 180 249.458824 
L 1296 249.458824 
" style="fill:none;stroke:#000000;stroke-linecap:square;stroke-linejoin:miter;stroke-width:0.8;"/>
   </g>
   <g id="patch_6">
    <path d="M 180 86.4 
L 1296 86.4 
" style="fill:none;stroke:#000000;stroke-linecap:square;stroke-linejoin:miter;stroke-width:0.8;"/>
   </g>
   <g id="legend_1">
    <g id="patch_7">
     <path d="M 1234.3125 123.75625 
L 1289 123.75625 
Q 1291 123.75625 1291 121.75625 
L 1291 93.4 
Q 1291 91.4 1289 91.4 
L 1234.3125 91.4 
Q 1232.3125 91.4 1232.3125 93.4 
L 1232.3125 121.75625 
Q 1232.3125 123.75625 1234.3125 123.75625 
z
" style="fill:#ffffff;opacity:0.8;stroke:#cccccc;stroke-linejoin:miter;"/>
    </g>
    <g id="line2d_17">
     <path d="M 1236.3125 99.498438 
L 1256.3125 99.498438 
" style="fill:none;stroke:#000000;stroke-linecap:square;stroke-width:4;"/>
    </g>
    <g id="line2d_18"/>
    <g id="text_16">
     <!-- Pred -->
     <defs>
      <path d="M 19.671875 64.796875 
L 19.671875 37.40625 
L 32.078125 37.40625 
Q 38.96875 37.40625 42.71875 40.96875 
Q 46.484375 44.53125 46.484375 51.125 
Q 46.484375 57.671875 42.71875 61.234375 
Q 38.96875 64.796875 32.078125 64.796875 
z
M 9.8125 72.90625 
L 32.078125 72.90625 
Q 44.34375 72.90625 50.609375 67.359375 
Q 56.890625 61.8125 56.890625 51.125 
Q 56.890625 40.328125 50.609375 34.8125 
Q 44.34375 29.296875 32.078125 29.296875 
L 19.671875 29.296875 
L 19.671875 0 
L 9.8125 0 
z
" id="DejaVuSans-50"/>
      <path d="M 41.109375 46.296875 
Q 39.59375 47.171875 37.8125 47.578125 
Q 36.03125 48 33.890625 48 
Q 26.265625 48 22.1875 43.046875 
Q 18.109375 38.09375 18.109375 28.8125 
L 18.109375 0 
L 9.078125 0 
L 9.078125 54.6875 
L 18.109375 54.6875 
L 18.109375 46.1875 
Q 20.953125 51.171875 25.484375 53.578125 
Q 30.03125 56 36.53125 56 
Q 37.453125 56 38.578125 55.875 
Q 39.703125 55.765625 41.0625 55.515625 
z
" id="DejaVuSans-72"/>
      <path d="M 45.40625 46.390625 
L 45.40625 75.984375 
L 54.390625 75.984375 
L 54.390625 0 
L 45.40625 0 
L 45.40625 8.203125 
Q 42.578125 3.328125 38.25 0.953125 
Q 33.9375 -1.421875 27.875 -1.421875 
Q 17.96875 -1.421875 11.734375 6.484375 
Q 5.515625 14.40625 5.515625 27.296875 
Q 5.515625 40.1875 11.734375 48.09375 
Q 17.96875 56 27.875 56 
Q 33.9375 56 38.25 53.625 
Q 42.578125 51.265625 45.40625 46.390625 
z
M 14.796875 27.296875 
Q 14.796875 17.390625 18.875 11.75 
Q 22.953125 6.109375 30.078125 6.109375 
Q 37.203125 6.109375 41.296875 11.75 
Q 45.40625 17.390625 45.40625 27.296875 
Q 45.40625 37.203125 41.296875 42.84375 
Q 37.203125 48.484375 30.078125 48.484375 
Q 22.953125 48.484375 18.875 42.84375 
Q 14.796875 37.203125 14.796875 27.296875 
z
" id="DejaVuSans-64"/>
     </defs>
     <g transform="translate(1264.3125 102.998438)scale(0.1 -0.1)">
      <use xlink:href="#DejaVuSans-50"/>
      <use x="60.287109" xlink:href="#DejaVuSans-72"/>
      <use x="101.369141" xlink:href="#DejaVuSans-65"/>
      <use x="162.892578" xlink:href="#DejaVuSans-64"/>
     </g>
    </g>
    <g id="line2d_19">
     <path d="M 1236.3125 114.176563 
L 1256.3125 114.176563 
" style="fill:none;stroke:#ff0000;stroke-linecap:square;stroke-width:1.5;"/>
    </g>
    <g id="line2d_20"/>
    <g id="text_17">
     <!-- True -->
     <defs>
      <path d="M 8.5 21.578125 
L 8.5 54.6875 
L 17.484375 54.6875 
L 17.484375 21.921875 
Q 17.484375 14.15625 20.5 10.265625 
Q 23.53125 6.390625 29.59375 6.390625 
Q 36.859375 6.390625 41.078125 11.03125 
Q 45.3125 15.671875 45.3125 23.6875 
L 45.3125 54.6875 
L 54.296875 54.6875 
L 54.296875 0 
L 45.3125 0 
L 45.3125 8.40625 
Q 42.046875 3.421875 37.71875 1 
Q 33.40625 -1.421875 27.6875 -1.421875 
Q 18.265625 -1.421875 13.375 4.4375 
Q 8.5 10.296875 8.5 21.578125 
z
M 31.109375 56 
z
" id="DejaVuSans-75"/>
     </defs>
     <g transform="translate(1264.3125 117.676563)scale(0.1 -0.1)">
      <use xlink:href="#DejaVuSans-54"/>
      <use x="60.865234" xlink:href="#DejaVuSans-72"/>
      <use x="101.978516" xlink:href="#DejaVuSans-75"/>
      <use x="165.357422" xlink:href="#DejaVuSans-65"/>
     </g>
    </g>
   </g>
  </g>
  <g id="axes_2">
   <g id="patch_8">
    <path d="M 180 445.129412 
L 1296 445.129412 
L 1296 282.070588 
L 180 282.070588 
z
" style="fill:#ffffff;"/>
   </g>
   <g id="matplotlib.axis_3">
    <g id="xtick_10">
     <g id="line2d_21">
      <g>
       <use style="stroke:#000000;stroke-width:0.8;" x="225.629054" xlink:href="#m66038ced53" y="445.129412"/>
      </g>
     </g>
     <g id="text_18">
      <!-- 0 -->
      <g transform="translate(222.447804 459.727849)scale(0.1 -0.1)">
       <use xlink:href="#DejaVuSans-30"/>
      </g>
     </g>
    </g>
    <g id="xtick_11">
     <g id="line2d_22">
      <g>
       <use style="stroke:#000000;stroke-width:0.8;" x="353.084513" xlink:href="#m66038ced53" y="445.129412"/>
      </g>
     </g>
     <g id="text_19">
      <!-- 500 -->
      <g transform="translate(343.540763 459.727849)scale(0.1 -0.1)">
       <use xlink:href="#DejaVuSans-35"/>
       <use x="63.623047" xlink:href="#DejaVuSans-30"/>
       <use x="127.246094" xlink:href="#DejaVuSans-30"/>
      </g>
     </g>
    </g>
    <g id="xtick_12">
     <g id="line2d_23">
      <g>
       <use style="stroke:#000000;stroke-width:0.8;" x="480.539973" xlink:href="#m66038ced53" y="445.129412"/>
      </g>
     </g>
     <g id="text_20">
      <!-- 1000 -->
      <g transform="translate(467.814973 459.727849)scale(0.1 -0.1)">
       <use xlink:href="#DejaVuSans-31"/>
       <use x="63.623047" xlink:href="#DejaVuSans-30"/>
       <use x="127.246094" xlink:href="#DejaVuSans-30"/>
       <use x="190.869141" xlink:href="#DejaVuSans-30"/>
      </g>
     </g>
    </g>
    <g id="xtick_13">
     <g id="line2d_24">
      <g>
       <use style="stroke:#000000;stroke-width:0.8;" x="607.995432" xlink:href="#m66038ced53" y="445.129412"/>
      </g>
     </g>
     <g id="text_21">
      <!-- 1500 -->
      <g transform="translate(595.270432 459.727849)scale(0.1 -0.1)">
       <use xlink:href="#DejaVuSans-31"/>
       <use x="63.623047" xlink:href="#DejaVuSans-35"/>
       <use x="127.246094" xlink:href="#DejaVuSans-30"/>
       <use x="190.869141" xlink:href="#DejaVuSans-30"/>
      </g>
     </g>
    </g>
    <g id="xtick_14">
     <g id="line2d_25">
      <g>
       <use style="stroke:#000000;stroke-width:0.8;" x="735.450891" xlink:href="#m66038ced53" y="445.129412"/>
      </g>
     </g>
     <g id="text_22">
      <!-- 2000 -->
      <g transform="translate(722.725891 459.727849)scale(0.1 -0.1)">
       <use xlink:href="#DejaVuSans-32"/>
       <use x="63.623047" xlink:href="#DejaVuSans-30"/>
       <use x="127.246094" xlink:href="#DejaVuSans-30"/>
       <use x="190.869141" xlink:href="#DejaVuSans-30"/>
      </g>
     </g>
    </g>
    <g id="xtick_15">
     <g id="line2d_26">
      <g>
       <use style="stroke:#000000;stroke-width:0.8;" x="862.90635" xlink:href="#m66038ced53" y="445.129412"/>
      </g>
     </g>
     <g id="text_23">
      <!-- 2500 -->
      <g transform="translate(850.18135 459.727849)scale(0.1 -0.1)">
       <use xlink:href="#DejaVuSans-32"/>
       <use x="63.623047" xlink:href="#DejaVuSans-35"/>
       <use x="127.246094" xlink:href="#DejaVuSans-30"/>
       <use x="190.869141" xlink:href="#DejaVuSans-30"/>
      </g>
     </g>
    </g>
    <g id="xtick_16">
     <g id="line2d_27">
      <g>
       <use style="stroke:#000000;stroke-width:0.8;" x="990.361809" xlink:href="#m66038ced53" y="445.129412"/>
      </g>
     </g>
     <g id="text_24">
      <!-- 3000 -->
      <g transform="translate(977.636809 459.727849)scale(0.1 -0.1)">
       <use xlink:href="#DejaVuSans-33"/>
       <use x="63.623047" xlink:href="#DejaVuSans-30"/>
       <use x="127.246094" xlink:href="#DejaVuSans-30"/>
       <use x="190.869141" xlink:href="#DejaVuSans-30"/>
      </g>
     </g>
    </g>
    <g id="xtick_17">
     <g id="line2d_28">
      <g>
       <use style="stroke:#000000;stroke-width:0.8;" x="1117.817268" xlink:href="#m66038ced53" y="445.129412"/>
      </g>
     </g>
     <g id="text_25">
      <!-- 3500 -->
      <g transform="translate(1105.092268 459.727849)scale(0.1 -0.1)">
       <use xlink:href="#DejaVuSans-33"/>
       <use x="63.623047" xlink:href="#DejaVuSans-35"/>
       <use x="127.246094" xlink:href="#DejaVuSans-30"/>
       <use x="190.869141" xlink:href="#DejaVuSans-30"/>
      </g>
     </g>
    </g>
    <g id="xtick_18">
     <g id="line2d_29">
      <g>
       <use style="stroke:#000000;stroke-width:0.8;" x="1245.272727" xlink:href="#m66038ced53" y="445.129412"/>
      </g>
     </g>
     <g id="text_26">
      <!-- 4000 -->
      <g transform="translate(1232.547727 459.727849)scale(0.1 -0.1)">
       <use xlink:href="#DejaVuSans-34"/>
       <use x="63.623047" xlink:href="#DejaVuSans-30"/>
       <use x="127.246094" xlink:href="#DejaVuSans-30"/>
       <use x="190.869141" xlink:href="#DejaVuSans-30"/>
      </g>
     </g>
    </g>
   </g>
   <g id="matplotlib.axis_4">
    <g id="ytick_6">
     <g id="line2d_30">
      <g>
       <use style="stroke:#000000;stroke-width:0.8;" x="180" xlink:href="#m211b82b3b5" y="436.640343"/>
      </g>
     </g>
     <g id="text_27">
      <!-- −0.6 -->
      <defs>
       <path d="M 10.6875 12.40625 
L 21 12.40625 
L 21 0 
L 10.6875 0 
z
" id="DejaVuSans-2e"/>
       <path d="M 33.015625 40.375 
Q 26.375 40.375 22.484375 35.828125 
Q 18.609375 31.296875 18.609375 23.390625 
Q 18.609375 15.53125 22.484375 10.953125 
Q 26.375 6.390625 33.015625 6.390625 
Q 39.65625 6.390625 43.53125 10.953125 
Q 47.40625 15.53125 47.40625 23.390625 
Q 47.40625 31.296875 43.53125 35.828125 
Q 39.65625 40.375 33.015625 40.375 
z
M 52.59375 71.296875 
L 52.59375 62.3125 
Q 48.875 64.0625 45.09375 64.984375 
Q 41.3125 65.921875 37.59375 65.921875 
Q 27.828125 65.921875 22.671875 59.328125 
Q 17.53125 52.734375 16.796875 39.40625 
Q 19.671875 43.65625 24.015625 45.921875 
Q 28.375 48.1875 33.59375 48.1875 
Q 44.578125 48.1875 50.953125 41.515625 
Q 57.328125 34.859375 57.328125 23.390625 
Q 57.328125 12.15625 50.6875 5.359375 
Q 44.046875 -1.421875 33.015625 -1.421875 
Q 20.359375 -1.421875 13.671875 8.265625 
Q 6.984375 17.96875 6.984375 36.375 
Q 6.984375 53.65625 15.1875 63.9375 
Q 23.390625 74.21875 37.203125 74.21875 
Q 40.921875 74.21875 44.703125 73.484375 
Q 48.484375 72.75 52.59375 71.296875 
z
" id="DejaVuSans-36"/>
      </defs>
      <g transform="translate(148.717187 440.439562)scale(0.1 -0.1)">
       <use xlink:href="#DejaVuSans-2212"/>
       <use x="83.789062" xlink:href="#DejaVuSans-30"/>
       <use x="147.412109" xlink:href="#DejaVuSans-2e"/>
       <use x="179.199219" xlink:href="#DejaVuSans-36"/>
      </g>
     </g>
    </g>
    <g id="ytick_7">
     <g id="line2d_31">
      <g>
       <use style="stroke:#000000;stroke-width:0.8;" x="180" xlink:href="#m211b82b3b5" y="413.945578"/>
      </g>
     </g>
     <g id="text_28">
      <!-- −0.4 -->
      <g transform="translate(148.717187 417.744797)scale(0.1 -0.1)">
       <use xlink:href="#DejaVuSans-2212"/>
       <use x="83.789062" xlink:href="#DejaVuSans-30"/>
       <use x="147.412109" xlink:href="#DejaVuSans-2e"/>
       <use x="179.199219" xlink:href="#DejaVuSans-34"/>
      </g>
     </g>
    </g>
    <g id="ytick_8">
     <g id="line2d_32">
      <g>
       <use style="stroke:#000000;stroke-width:0.8;" x="180" xlink:href="#m211b82b3b5" y="391.250813"/>
      </g>
     </g>
     <g id="text_29">
      <!-- −0.2 -->
      <g transform="translate(148.717187 395.050032)scale(0.1 -0.1)">
       <use xlink:href="#DejaVuSans-2212"/>
       <use x="83.789062" xlink:href="#DejaVuSans-30"/>
       <use x="147.412109" xlink:href="#DejaVuSans-2e"/>
       <use x="179.199219" xlink:href="#DejaVuSans-32"/>
      </g>
     </g>
    </g>
    <g id="ytick_9">
     <g id="line2d_33">
      <g>
       <use style="stroke:#000000;stroke-width:0.8;" x="180" xlink:href="#m211b82b3b5" y="368.556048"/>
      </g>
     </g>
     <g id="text_30">
      <!-- 0.0 -->
      <g transform="translate(157.096875 372.355267)scale(0.1 -0.1)">
       <use xlink:href="#DejaVuSans-30"/>
       <use x="63.623047" xlink:href="#DejaVuSans-2e"/>
       <use x="95.410156" xlink:href="#DejaVuSans-30"/>
      </g>
     </g>
    </g>
    <g id="ytick_10">
     <g id="line2d_34">
      <g>
       <use style="stroke:#000000;stroke-width:0.8;" x="180" xlink:href="#m211b82b3b5" y="345.861283"/>
      </g>
     </g>
     <g id="text_31">
      <!-- 0.2 -->
      <g transform="translate(157.096875 349.660501)scale(0.1 -0.1)">
       <use xlink:href="#DejaVuSans-30"/>
       <use x="63.623047" xlink:href="#DejaVuSans-2e"/>
       <use x="95.410156" xlink:href="#DejaVuSans-32"/>
      </g>
     </g>
    </g>
    <g id="ytick_11">
     <g id="line2d_35">
      <g>
       <use style="stroke:#000000;stroke-width:0.8;" x="180" xlink:href="#m211b82b3b5" y="323.166517"/>
      </g>
     </g>
     <g id="text_32">
      <!-- 0.4 -->
      <g transform="translate(157.096875 326.965736)scale(0.1 -0.1)">
       <use xlink:href="#DejaVuSans-30"/>
       <use x="63.623047" xlink:href="#DejaVuSans-2e"/>
       <use x="95.410156" xlink:href="#DejaVuSans-34"/>
      </g>
     </g>
    </g>
    <g id="ytick_12">
     <g id="line2d_36">
      <g>
       <use style="stroke:#000000;stroke-width:0.8;" x="180" xlink:href="#m211b82b3b5" y="300.471752"/>
      </g>
     </g>
     <g id="text_33">
      <!-- 0.6 -->
      <g transform="translate(157.096875 304.270971)scale(0.1 -0.1)">
       <use xlink:href="#DejaVuSans-30"/>
       <use x="63.623047" xlink:href="#DejaVuSans-2e"/>
       <use x="95.410156" xlink:href="#DejaVuSans-36"/>
      </g>
     </g>
    </g>
    <g id="text_34">
     <!-- TD State:1 -->
     <g transform="translate(142.6375 390.19375)rotate(-90)scale(0.1 -0.1)">
      <use xlink:href="#DejaVuSans-54"/>
      <use x="61.083984" xlink:href="#DejaVuSans-44"/>
      <use x="138.085938" xlink:href="#DejaVuSans-20"/>
      <use x="169.873047" xlink:href="#DejaVuSans-53"/>
      <use x="233.349609" xlink:href="#DejaVuSans-74"/>
      <use x="272.558594" xlink:href="#DejaVuSans-61"/>
      <use x="333.837891" xlink:href="#DejaVuSans-74"/>
      <use x="373.046875" xlink:href="#DejaVuSans-65"/>
      <use x="434.570312" xlink:href="#DejaVuSans-3a"/>
      <use x="468.261719" xlink:href="#DejaVuSans-31"/>
     </g>
    </g>
   </g>
   <g id="line2d_37">
    <path clip-path="url(#p75aaa1b4ad)" d="M 230.727273 379.437627 
L 235.825491 379.665687 
L 240.923709 395.538898 
L 246.021928 389.352936 
L 251.120146 397.468829 
L 256.218365 404.220936 
L 261.316583 401.011143 
L 266.414801 437.717647 
L 271.51302 396.202086 
L 276.611238 365.525268 
L 281.709456 366.275568 
L 286.807675 361.291784 
L 291.905893 363.521404 
L 297.004111 361.053013 
L 302.10233 362.468435 
L 307.200548 360.145272 
L 312.298767 361.766211 
L 317.396985 367.150971 
L 322.495203 366.146805 
L 327.593422 370.595067 
L 332.69164 368.404046 
L 337.789858 376.71174 
L 342.888077 373.98747 
L 347.986295 382.14487 
L 353.084513 378.337097 
L 363.28095 382.629626 
L 368.379169 378.255232 
L 373.477387 386.872914 
L 378.575605 379.966131 
L 383.673824 383.111315 
L 388.772042 379.665033 
L 393.87026 380.94689 
L 398.968479 387.898904 
L 404.066697 379.174277 
L 409.164915 385.850308 
L 414.263134 371.374867 
L 419.361352 379.810311 
L 424.459571 373.769484 
L 429.557789 378.681804 
L 434.656007 375.980329 
L 439.754226 362.363495 
L 444.852444 368.866047 
L 449.950662 364.896082 
L 455.048881 367.298608 
L 460.147099 365.780183 
L 465.245317 360.52829 
L 470.343536 364.173682 
L 475.441754 361.224474 
L 480.539973 360.040997 
L 485.638191 362.416592 
L 490.736409 357.61851 
L 495.834628 382.532596 
L 500.932846 392.043551 
L 506.031064 373.964467 
L 511.129283 411.593636 
L 516.227501 363.099499 
L 521.32572 379.056617 
L 526.423938 353.941259 
L 531.522156 376.527743 
L 536.620375 388.002301 
L 541.718593 354.259808 
L 546.816811 353.421912 
L 551.91503 353.715534 
L 557.013248 356.045115 
L 562.111466 361.939536 
L 567.209685 359.768864 
L 572.307903 370.810909 
L 577.406122 369.640611 
L 582.50434 377.643773 
L 587.602558 370.736213 
L 592.700777 373.468559 
L 597.798995 372.865485 
L 602.897213 373.712043 
L 607.995432 376.572115 
L 613.09365 376.025113 
L 618.191868 379.886507 
L 623.290087 371.575501 
L 628.388305 371.040016 
L 633.486524 366.978986 
L 638.584742 371.081821 
L 643.68296 366.547034 
L 648.781179 363.057124 
L 653.879397 366.220866 
L 658.977615 362.573505 
L 664.075834 357.39192 
L 669.174052 356.599348 
L 674.27227 341.931839 
L 679.370489 324.476975 
L 684.468707 324.076717 
L 689.566926 312.228446 
L 694.665144 298.073625 
L 699.763362 330.243176 
L 704.861581 340.045286 
L 709.959799 353.983122 
L 715.058017 335.809068 
L 720.156236 361.566934 
L 725.254454 399.488397 
L 730.352672 406.315535 
L 735.450891 401.526506 
L 740.549109 398.619759 
L 745.647328 394.551427 
L 750.745546 388.543821 
L 755.843764 390.860271 
L 760.941983 390.204346 
L 766.040201 385.402698 
L 771.138419 388.42665 
L 776.236638 375.492506 
L 781.334856 375.070889 
L 786.433074 370.716181 
L 791.531293 368.010117 
L 796.629511 364.415384 
L 801.72773 360.423649 
L 806.825948 357.096654 
L 811.924166 357.590079 
L 817.022385 353.559762 
L 822.120603 353.539451 
L 827.218821 355.210378 
L 832.31704 353.059466 
L 837.415258 355.439481 
L 842.513476 351.432897 
L 847.611695 354.87541 
L 852.709913 353.380991 
L 857.808132 349.117607 
L 862.90635 352.969434 
L 868.004568 344.578673 
L 873.102787 352.576466 
L 878.201005 346.424325 
L 883.299223 348.458634 
L 888.397442 345.082048 
L 893.49566 344.002706 
L 898.593878 350.315693 
L 903.692097 343.333725 
L 908.790315 344.323497 
L 913.888534 339.191764 
L 918.986752 344.24822 
L 924.08497 345.076644 
L 929.183189 345.728018 
L 939.379625 371.607015 
L 944.477844 360.401917 
L 949.576062 380.798572 
L 954.67428 390.005642 
L 959.772499 352.316853 
L 964.870717 345.968419 
L 969.968936 324.292755 
L 975.067154 349.872828 
L 985.263591 289.482353 
L 990.361809 300.42086 
L 995.460027 303.627846 
L 1000.558246 314.96579 
L 1005.656464 318.806021 
L 1010.754683 317.522959 
L 1015.852901 337.089012 
L 1020.951119 340.289156 
L 1026.049338 350.887791 
L 1031.147556 352.830634 
L 1036.245774 349.281599 
L 1041.343993 370.217206 
L 1046.442211 348.91672 
L 1051.540429 355.517467 
L 1056.638648 351.715314 
L 1061.736866 358.540689 
L 1066.835085 364.075427 
L 1071.933303 347.30411 
L 1077.031521 345.010544 
L 1087.227958 341.890236 
L 1092.326176 347.958999 
L 1097.424395 345.636884 
L 1102.522613 344.342503 
L 1107.620831 346.392293 
L 1112.71905 341.762806 
L 1117.817268 347.799225 
L 1122.915487 342.857406 
L 1128.013705 345.160847 
L 1133.111923 349.538045 
L 1138.210142 341.616596 
L 1143.30836 343.874762 
L 1148.406578 344.598482 
L 1153.504797 340.479409 
L 1158.603015 346.416637 
L 1163.701233 342.369036 
L 1168.799452 346.253902 
L 1173.89767 349.132552 
L 1178.995889 348.706389 
L 1184.094107 355.167718 
L 1189.192325 348.758121 
L 1194.290544 349.239461 
L 1199.388762 346.602906 
L 1204.48698 354.633339 
L 1209.585199 347.446549 
L 1214.683417 354.398868 
L 1219.781635 352.546607 
L 1224.879854 348.471116 
L 1229.978072 354.037383 
L 1235.076291 355.705666 
L 1240.174509 368.849713 
L 1245.272727 362.128668 
L 1245.272727 362.128668 
" style="fill:none;stroke:#000000;stroke-linecap:square;stroke-width:4;"/>
   </g>
   <g id="line2d_38">
    <path clip-path="url(#p75aaa1b4ad)" d="M 230.727273 369.407101 
L 235.825491 367.704994 
L 240.923709 369.407101 
L 246.021928 367.704994 
L 251.120146 369.407101 
L 256.218365 368.556048 
L 261.316583 368.556048 
L 266.414801 367.704994 
L 271.51302 369.407101 
L 276.611238 367.704994 
L 286.807675 369.407101 
L 291.905893 367.704994 
L 297.004111 369.407101 
L 302.10233 368.556048 
L 307.200548 369.407101 
L 312.298767 367.704994 
L 317.396985 369.407101 
L 322.495203 367.704994 
L 327.593422 369.407101 
L 332.69164 368.556048 
L 342.888077 368.556048 
L 347.986295 367.704994 
L 353.084513 370.258155 
L 358.182732 367.704994 
L 363.28095 368.556048 
L 368.379169 368.556048 
L 373.477387 367.704994 
L 378.575605 369.407101 
L 383.673824 368.556048 
L 388.772042 370.258155 
L 393.87026 366.002887 
L 398.968479 369.407101 
L 404.066697 367.704994 
L 409.164915 369.407101 
L 414.263134 369.407101 
L 419.361352 366.85394 
L 424.459571 368.556048 
L 434.656007 368.556048 
L 439.754226 369.407101 
L 444.852444 367.704994 
L 449.950662 368.556048 
L 460.147099 368.556048 
L 465.245317 369.407101 
L 470.343536 367.704994 
L 475.441754 367.704994 
L 480.539973 369.407101 
L 485.638191 368.556048 
L 490.736409 379.619746 
L 495.834628 357.49235 
L 500.932846 367.704994 
L 506.031064 368.556048 
L 521.32572 368.556048 
L 526.423938 369.407101 
L 531.522156 369.407101 
L 536.620375 368.556048 
L 541.718593 368.556048 
L 546.816811 367.704994 
L 551.91503 369.407101 
L 557.013248 367.704994 
L 562.111466 369.407101 
L 567.209685 368.556048 
L 572.307903 369.407101 
L 577.406122 367.704994 
L 582.50434 367.704994 
L 587.602558 369.407101 
L 592.700777 368.556048 
L 597.798995 369.407101 
L 602.897213 367.704994 
L 607.995432 368.556048 
L 613.09365 367.704994 
L 618.191868 369.407101 
L 623.290087 367.704994 
L 633.486524 369.407101 
L 638.584742 367.704994 
L 643.68296 368.556048 
L 648.781179 370.258155 
L 653.879397 366.85394 
L 658.977615 367.704994 
L 664.075834 367.704994 
L 669.174052 366.85394 
L 679.370489 368.556048 
L 684.468707 367.704994 
L 689.566926 368.556048 
L 694.665144 368.556048 
L 699.763362 367.704994 
L 704.861581 367.704994 
L 709.959799 368.556048 
L 725.254454 368.556048 
L 730.352672 367.704994 
L 735.450891 368.556048 
L 740.549109 368.556048 
L 745.647328 367.704994 
L 750.745546 370.258155 
L 755.843764 366.85394 
L 760.941983 368.556048 
L 766.040201 368.556048 
L 771.138419 367.704994 
L 781.334856 369.407101 
L 786.433074 367.704994 
L 791.531293 368.556048 
L 817.022385 368.556048 
L 822.120603 367.704994 
L 827.218821 369.407101 
L 837.415258 367.704994 
L 842.513476 369.407101 
L 847.611695 366.85394 
L 852.709913 369.407101 
L 857.808132 368.556048 
L 862.90635 368.556048 
L 868.004568 367.704994 
L 878.201005 369.407101 
L 883.299223 367.704994 
L 888.397442 369.407101 
L 893.49566 367.704994 
L 898.593878 368.556048 
L 908.790315 368.556048 
L 913.888534 369.407101 
L 918.986752 368.556048 
L 929.183189 370.258155 
L 934.281407 367.704994 
L 939.379625 369.407101 
L 944.477844 369.407101 
L 949.576062 367.704994 
L 954.67428 369.407101 
L 964.870717 367.704994 
L 969.968936 371.960263 
L 975.067154 369.407101 
L 980.165372 367.704994 
L 985.263591 368.556048 
L 990.361809 368.556048 
L 995.460027 370.258155 
L 1000.558246 367.704994 
L 1005.656464 367.704994 
L 1010.754683 369.407101 
L 1015.852901 369.407101 
L 1020.951119 372.811316 
L 1026.049338 363.449726 
L 1031.147556 368.556048 
L 1036.245774 369.407101 
L 1041.343993 367.704994 
L 1046.442211 369.407101 
L 1051.540429 368.556048 
L 1082.12974 368.556048 
L 1087.227958 369.407101 
L 1092.326176 367.704994 
L 1097.424395 368.556048 
L 1107.620831 368.556048 
L 1112.71905 369.407101 
L 1117.817268 367.704994 
L 1122.915487 369.407101 
L 1133.111923 367.704994 
L 1138.210142 369.407101 
L 1148.406578 367.704994 
L 1153.504797 369.407101 
L 1158.603015 368.556048 
L 1163.701233 369.407101 
L 1168.799452 368.556048 
L 1173.89767 368.556048 
L 1178.995889 367.704994 
L 1184.094107 368.556048 
L 1189.192325 368.556048 
L 1194.290544 370.258155 
L 1199.388762 367.704994 
L 1204.48698 367.704994 
L 1214.683417 369.407101 
L 1219.781635 369.407101 
L 1224.879854 368.556048 
L 1229.978072 366.85394 
L 1235.076291 369.407101 
L 1240.174509 367.704994 
L 1245.272727 370.258155 
L 1245.272727 370.258155 
" style="fill:none;stroke:#ff0000;stroke-linecap:square;stroke-width:1.5;"/>
   </g>
   <g id="patch_9">
    <path d="M 180 445.129412 
L 180 282.070588 
" style="fill:none;stroke:#000000;stroke-linecap:square;stroke-linejoin:miter;stroke-width:0.8;"/>
   </g>
   <g id="patch_10">
    <path d="M 1296 445.129412 
L 1296 282.070588 
" style="fill:none;stroke:#000000;stroke-linecap:square;stroke-linejoin:miter;stroke-width:0.8;"/>
   </g>
   <g id="patch_11">
    <path d="M 180 445.129412 
L 1296 445.129412 
" style="fill:none;stroke:#000000;stroke-linecap:square;stroke-linejoin:miter;stroke-width:0.8;"/>
   </g>
   <g id="patch_12">
    <path d="M 180 282.070588 
L 1296 282.070588 
" style="fill:none;stroke:#000000;stroke-linecap:square;stroke-linejoin:miter;stroke-width:0.8;"/>
   </g>
   <g id="legend_2">
    <g id="patch_13">
     <path d="M 1234.3125 319.426838 
L 1289 319.426838 
Q 1291 319.426838 1291 317.426838 
L 1291 289.070588 
Q 1291 287.070588 1289 287.070588 
L 1234.3125 287.070588 
Q 1232.3125 287.070588 1232.3125 289.070588 
L 1232.3125 317.426838 
Q 1232.3125 319.426838 1234.3125 319.426838 
z
" style="fill:#ffffff;opacity:0.8;stroke:#cccccc;stroke-linejoin:miter;"/>
    </g>
    <g id="line2d_39">
     <path d="M 1236.3125 295.169026 
L 1256.3125 295.169026 
" style="fill:none;stroke:#000000;stroke-linecap:square;stroke-width:4;"/>
    </g>
    <g id="line2d_40"/>
    <g id="text_35">
     <!-- Pred -->
     <g transform="translate(1264.3125 298.669026)scale(0.1 -0.1)">
      <use xlink:href="#DejaVuSans-50"/>
      <use x="60.287109" xlink:href="#DejaVuSans-72"/>
      <use x="101.369141" xlink:href="#DejaVuSans-65"/>
      <use x="162.892578" xlink:href="#DejaVuSans-64"/>
     </g>
    </g>
    <g id="line2d_41">
     <path d="M 1236.3125 309.847151 
L 1256.3125 309.847151 
" style="fill:none;stroke:#ff0000;stroke-linecap:square;stroke-width:1.5;"/>
    </g>
    <g id="line2d_42"/>
    <g id="text_36">
     <!-- True -->
     <g transform="translate(1264.3125 313.347151)scale(0.1 -0.1)">
      <use xlink:href="#DejaVuSans-54"/>
      <use x="60.865234" xlink:href="#DejaVuSans-72"/>
      <use x="101.978516" xlink:href="#DejaVuSans-75"/>
      <use x="165.357422" xlink:href="#DejaVuSans-65"/>
     </g>
    </g>
   </g>
  </g>
  <g id="axes_3">
   <g id="patch_14">
    <path d="M 180 640.8 
L 1296 640.8 
L 1296 477.741176 
L 180 477.741176 
z
" style="fill:#ffffff;"/>
   </g>
   <g id="matplotlib.axis_5">
    <g id="xtick_19">
     <g id="line2d_43">
      <g>
       <use style="stroke:#000000;stroke-width:0.8;" x="225.629054" xlink:href="#m66038ced53" y="640.8"/>
      </g>
     </g>
     <g id="text_37">
      <!-- 0 -->
      <g transform="translate(222.447804 655.398438)scale(0.1 -0.1)">
       <use xlink:href="#DejaVuSans-30"/>
      </g>
     </g>
    </g>
    <g id="xtick_20">
     <g id="line2d_44">
      <g>
       <use style="stroke:#000000;stroke-width:0.8;" x="353.084513" xlink:href="#m66038ced53" y="640.8"/>
      </g>
     </g>
     <g id="text_38">
      <!-- 500 -->
      <g transform="translate(343.540763 655.398438)scale(0.1 -0.1)">
       <use xlink:href="#DejaVuSans-35"/>
       <use x="63.623047" xlink:href="#DejaVuSans-30"/>
       <use x="127.246094" xlink:href="#DejaVuSans-30"/>
      </g>
     </g>
    </g>
    <g id="xtick_21">
     <g id="line2d_45">
      <g>
       <use style="stroke:#000000;stroke-width:0.8;" x="480.539973" xlink:href="#m66038ced53" y="640.8"/>
      </g>
     </g>
     <g id="text_39">
      <!-- 1000 -->
      <g transform="translate(467.814973 655.398438)scale(0.1 -0.1)">
       <use xlink:href="#DejaVuSans-31"/>
       <use x="63.623047" xlink:href="#DejaVuSans-30"/>
       <use x="127.246094" xlink:href="#DejaVuSans-30"/>
       <use x="190.869141" xlink:href="#DejaVuSans-30"/>
      </g>
     </g>
    </g>
    <g id="xtick_22">
     <g id="line2d_46">
      <g>
       <use style="stroke:#000000;stroke-width:0.8;" x="607.995432" xlink:href="#m66038ced53" y="640.8"/>
      </g>
     </g>
     <g id="text_40">
      <!-- 1500 -->
      <g transform="translate(595.270432 655.398438)scale(0.1 -0.1)">
       <use xlink:href="#DejaVuSans-31"/>
       <use x="63.623047" xlink:href="#DejaVuSans-35"/>
       <use x="127.246094" xlink:href="#DejaVuSans-30"/>
       <use x="190.869141" xlink:href="#DejaVuSans-30"/>
      </g>
     </g>
    </g>
    <g id="xtick_23">
     <g id="line2d_47">
      <g>
       <use style="stroke:#000000;stroke-width:0.8;" x="735.450891" xlink:href="#m66038ced53" y="640.8"/>
      </g>
     </g>
     <g id="text_41">
      <!-- 2000 -->
      <g transform="translate(722.725891 655.398438)scale(0.1 -0.1)">
       <use xlink:href="#DejaVuSans-32"/>
       <use x="63.623047" xlink:href="#DejaVuSans-30"/>
       <use x="127.246094" xlink:href="#DejaVuSans-30"/>
       <use x="190.869141" xlink:href="#DejaVuSans-30"/>
      </g>
     </g>
    </g>
    <g id="xtick_24">
     <g id="line2d_48">
      <g>
       <use style="stroke:#000000;stroke-width:0.8;" x="862.90635" xlink:href="#m66038ced53" y="640.8"/>
      </g>
     </g>
     <g id="text_42">
      <!-- 2500 -->
      <g transform="translate(850.18135 655.398438)scale(0.1 -0.1)">
       <use xlink:href="#DejaVuSans-32"/>
       <use x="63.623047" xlink:href="#DejaVuSans-35"/>
       <use x="127.246094" xlink:href="#DejaVuSans-30"/>
       <use x="190.869141" xlink:href="#DejaVuSans-30"/>
      </g>
     </g>
    </g>
    <g id="xtick_25">
     <g id="line2d_49">
      <g>
       <use style="stroke:#000000;stroke-width:0.8;" x="990.361809" xlink:href="#m66038ced53" y="640.8"/>
      </g>
     </g>
     <g id="text_43">
      <!-- 3000 -->
      <g transform="translate(977.636809 655.398438)scale(0.1 -0.1)">
       <use xlink:href="#DejaVuSans-33"/>
       <use x="63.623047" xlink:href="#DejaVuSans-30"/>
       <use x="127.246094" xlink:href="#DejaVuSans-30"/>
       <use x="190.869141" xlink:href="#DejaVuSans-30"/>
      </g>
     </g>
    </g>
    <g id="xtick_26">
     <g id="line2d_50">
      <g>
       <use style="stroke:#000000;stroke-width:0.8;" x="1117.817268" xlink:href="#m66038ced53" y="640.8"/>
      </g>
     </g>
     <g id="text_44">
      <!-- 3500 -->
      <g transform="translate(1105.092268 655.398438)scale(0.1 -0.1)">
       <use xlink:href="#DejaVuSans-33"/>
       <use x="63.623047" xlink:href="#DejaVuSans-35"/>
       <use x="127.246094" xlink:href="#DejaVuSans-30"/>
       <use x="190.869141" xlink:href="#DejaVuSans-30"/>
      </g>
     </g>
    </g>
    <g id="xtick_27">
     <g id="line2d_51">
      <g>
       <use style="stroke:#000000;stroke-width:0.8;" x="1245.272727" xlink:href="#m66038ced53" y="640.8"/>
      </g>
     </g>
     <g id="text_45">
      <!-- 4000 -->
      <g transform="translate(1232.547727 655.398438)scale(0.1 -0.1)">
       <use xlink:href="#DejaVuSans-34"/>
       <use x="63.623047" xlink:href="#DejaVuSans-30"/>
       <use x="127.246094" xlink:href="#DejaVuSans-30"/>
       <use x="190.869141" xlink:href="#DejaVuSans-30"/>
      </g>
     </g>
    </g>
    <g id="text_46">
     <!-- Time -->
     <defs>
      <path d="M 9.421875 54.6875 
L 18.40625 54.6875 
L 18.40625 0 
L 9.421875 0 
z
M 9.421875 75.984375 
L 18.40625 75.984375 
L 18.40625 64.59375 
L 9.421875 64.59375 
z
" id="DejaVuSans-69"/>
      <path d="M 52 44.1875 
Q 55.375 50.25 60.0625 53.125 
Q 64.75 56 71.09375 56 
Q 79.640625 56 84.28125 50.015625 
Q 88.921875 44.046875 88.921875 33.015625 
L 88.921875 0 
L 79.890625 0 
L 79.890625 32.71875 
Q 79.890625 40.578125 77.09375 44.375 
Q 74.3125 48.1875 68.609375 48.1875 
Q 61.625 48.1875 57.5625 43.546875 
Q 53.515625 38.921875 53.515625 30.90625 
L 53.515625 0 
L 44.484375 0 
L 44.484375 32.71875 
Q 44.484375 40.625 41.703125 44.40625 
Q 38.921875 48.1875 33.109375 48.1875 
Q 26.21875 48.1875 22.15625 43.53125 
Q 18.109375 38.875 18.109375 30.90625 
L 18.109375 0 
L 9.078125 0 
L 9.078125 54.6875 
L 18.109375 54.6875 
L 18.109375 46.1875 
Q 21.1875 51.21875 25.484375 53.609375 
Q 29.78125 56 35.6875 56 
Q 41.65625 56 45.828125 52.96875 
Q 50 49.953125 52 44.1875 
z
" id="DejaVuSans-6d"/>
     </defs>
     <g transform="translate(725.6125 669.076563)scale(0.1 -0.1)">
      <use xlink:href="#DejaVuSans-54"/>
      <use x="61.037109" xlink:href="#DejaVuSans-69"/>
      <use x="88.820312" xlink:href="#DejaVuSans-6d"/>
      <use x="186.232422" xlink:href="#DejaVuSans-65"/>
     </g>
    </g>
   </g>
   <g id="matplotlib.axis_6">
    <g id="ytick_13">
     <g id="line2d_52">
      <g>
       <use style="stroke:#000000;stroke-width:0.8;" x="180" xlink:href="#m211b82b3b5" y="627.897829"/>
      </g>
     </g>
     <g id="text_47">
      <!-- −2 -->
      <g transform="translate(158.257812 631.697047)scale(0.1 -0.1)">
       <use xlink:href="#DejaVuSans-2212"/>
       <use x="83.789062" xlink:href="#DejaVuSans-32"/>
      </g>
     </g>
    </g>
    <g id="ytick_14">
     <g id="line2d_53">
      <g>
       <use style="stroke:#000000;stroke-width:0.8;" x="180" xlink:href="#m211b82b3b5" y="603.58191"/>
      </g>
     </g>
     <g id="text_48">
      <!-- −1 -->
      <g transform="translate(158.257812 607.381129)scale(0.1 -0.1)">
       <use xlink:href="#DejaVuSans-2212"/>
       <use x="83.789062" xlink:href="#DejaVuSans-31"/>
      </g>
     </g>
    </g>
    <g id="ytick_15">
     <g id="line2d_54">
      <g>
       <use style="stroke:#000000;stroke-width:0.8;" x="180" xlink:href="#m211b82b3b5" y="579.265992"/>
      </g>
     </g>
     <g id="text_49">
      <!-- 0 -->
      <g transform="translate(166.6375 583.065211)scale(0.1 -0.1)">
       <use xlink:href="#DejaVuSans-30"/>
      </g>
     </g>
    </g>
    <g id="ytick_16">
     <g id="line2d_55">
      <g>
       <use style="stroke:#000000;stroke-width:0.8;" x="180" xlink:href="#m211b82b3b5" y="554.950074"/>
      </g>
     </g>
     <g id="text_50">
      <!-- 1 -->
      <g transform="translate(166.6375 558.749292)scale(0.1 -0.1)">
       <use xlink:href="#DejaVuSans-31"/>
      </g>
     </g>
    </g>
    <g id="ytick_17">
     <g id="line2d_56">
      <g>
       <use style="stroke:#000000;stroke-width:0.8;" x="180" xlink:href="#m211b82b3b5" y="530.634155"/>
      </g>
     </g>
     <g id="text_51">
      <!-- 2 -->
      <g transform="translate(166.6375 534.433374)scale(0.1 -0.1)">
       <use xlink:href="#DejaVuSans-32"/>
      </g>
     </g>
    </g>
    <g id="ytick_18">
     <g id="line2d_57">
      <g>
       <use style="stroke:#000000;stroke-width:0.8;" x="180" xlink:href="#m211b82b3b5" y="506.318237"/>
      </g>
     </g>
     <g id="text_52">
      <!-- 3 -->
      <g transform="translate(166.6375 510.117456)scale(0.1 -0.1)">
       <use xlink:href="#DejaVuSans-33"/>
      </g>
     </g>
    </g>
    <g id="ytick_19">
     <g id="line2d_58">
      <g>
       <use style="stroke:#000000;stroke-width:0.8;" x="180" xlink:href="#m211b82b3b5" y="482.002319"/>
      </g>
     </g>
     <g id="text_53">
      <!-- 4 -->
      <g transform="translate(166.6375 485.801537)scale(0.1 -0.1)">
       <use xlink:href="#DejaVuSans-34"/>
      </g>
     </g>
    </g>
    <g id="text_54">
     <!-- Control Input -->
     <defs>
      <path d="M 64.40625 67.28125 
L 64.40625 56.890625 
Q 59.421875 61.53125 53.78125 63.8125 
Q 48.140625 66.109375 41.796875 66.109375 
Q 29.296875 66.109375 22.65625 58.46875 
Q 16.015625 50.828125 16.015625 36.375 
Q 16.015625 21.96875 22.65625 14.328125 
Q 29.296875 6.6875 41.796875 6.6875 
Q 48.140625 6.6875 53.78125 8.984375 
Q 59.421875 11.28125 64.40625 15.921875 
L 64.40625 5.609375 
Q 59.234375 2.09375 53.4375 0.328125 
Q 47.65625 -1.421875 41.21875 -1.421875 
Q 24.65625 -1.421875 15.125 8.703125 
Q 5.609375 18.84375 5.609375 36.375 
Q 5.609375 53.953125 15.125 64.078125 
Q 24.65625 74.21875 41.21875 74.21875 
Q 47.75 74.21875 53.53125 72.484375 
Q 59.328125 70.75 64.40625 67.28125 
z
" id="DejaVuSans-43"/>
      <path d="M 30.609375 48.390625 
Q 23.390625 48.390625 19.1875 42.75 
Q 14.984375 37.109375 14.984375 27.296875 
Q 14.984375 17.484375 19.15625 11.84375 
Q 23.34375 6.203125 30.609375 6.203125 
Q 37.796875 6.203125 41.984375 11.859375 
Q 46.1875 17.53125 46.1875 27.296875 
Q 46.1875 37.015625 41.984375 42.703125 
Q 37.796875 48.390625 30.609375 48.390625 
z
M 30.609375 56 
Q 42.328125 56 49.015625 48.375 
Q 55.71875 40.765625 55.71875 27.296875 
Q 55.71875 13.875 49.015625 6.21875 
Q 42.328125 -1.421875 30.609375 -1.421875 
Q 18.84375 -1.421875 12.171875 6.21875 
Q 5.515625 13.875 5.515625 27.296875 
Q 5.515625 40.765625 12.171875 48.375 
Q 18.84375 56 30.609375 56 
z
" id="DejaVuSans-6f"/>
      <path d="M 54.890625 33.015625 
L 54.890625 0 
L 45.90625 0 
L 45.90625 32.71875 
Q 45.90625 40.484375 42.875 44.328125 
Q 39.84375 48.1875 33.796875 48.1875 
Q 26.515625 48.1875 22.3125 43.546875 
Q 18.109375 38.921875 18.109375 30.90625 
L 18.109375 0 
L 9.078125 0 
L 9.078125 54.6875 
L 18.109375 54.6875 
L 18.109375 46.1875 
Q 21.34375 51.125 25.703125 53.5625 
Q 30.078125 56 35.796875 56 
Q 45.21875 56 50.046875 50.171875 
Q 54.890625 44.34375 54.890625 33.015625 
z
" id="DejaVuSans-6e"/>
      <path d="M 9.421875 75.984375 
L 18.40625 75.984375 
L 18.40625 0 
L 9.421875 0 
z
" id="DejaVuSans-6c"/>
      <path d="M 9.8125 72.90625 
L 19.671875 72.90625 
L 19.671875 0 
L 9.8125 0 
z
" id="DejaVuSans-49"/>
      <path d="M 18.109375 8.203125 
L 18.109375 -20.796875 
L 9.078125 -20.796875 
L 9.078125 54.6875 
L 18.109375 54.6875 
L 18.109375 46.390625 
Q 20.953125 51.265625 25.265625 53.625 
Q 29.59375 56 35.59375 56 
Q 45.5625 56 51.78125 48.09375 
Q 58.015625 40.1875 58.015625 27.296875 
Q 58.015625 14.40625 51.78125 6.484375 
Q 45.5625 -1.421875 35.59375 -1.421875 
Q 29.59375 -1.421875 25.265625 0.953125 
Q 20.953125 3.328125 18.109375 8.203125 
z
M 48.6875 27.296875 
Q 48.6875 37.203125 44.609375 42.84375 
Q 40.53125 48.484375 33.40625 48.484375 
Q 26.265625 48.484375 22.1875 42.84375 
Q 18.109375 37.203125 18.109375 27.296875 
Q 18.109375 17.390625 22.1875 11.75 
Q 26.265625 6.109375 33.40625 6.109375 
Q 40.53125 6.109375 44.609375 11.75 
Q 48.6875 17.390625 48.6875 27.296875 
z
" id="DejaVuSans-70"/>
     </defs>
     <g transform="translate(152.178125 591.988557)rotate(-90)scale(0.1 -0.1)">
      <use xlink:href="#DejaVuSans-43"/>
      <use x="69.824219" xlink:href="#DejaVuSans-6f"/>
      <use x="131.005859" xlink:href="#DejaVuSans-6e"/>
      <use x="194.384766" xlink:href="#DejaVuSans-74"/>
      <use x="233.59375" xlink:href="#DejaVuSans-72"/>
      <use x="274.675781" xlink:href="#DejaVuSans-6f"/>
      <use x="335.857422" xlink:href="#DejaVuSans-6c"/>
      <use x="363.640625" xlink:href="#DejaVuSans-20"/>
      <use x="395.427734" xlink:href="#DejaVuSans-49"/>
      <use x="424.919922" xlink:href="#DejaVuSans-6e"/>
      <use x="488.298828" xlink:href="#DejaVuSans-70"/>
      <use x="551.775391" xlink:href="#DejaVuSans-75"/>
      <use x="615.154297" xlink:href="#DejaVuSans-74"/>
     </g>
    </g>
   </g>
   <g id="line2d_59">
    <path clip-path="url(#p4a25219b28)" d="M 230.727273 492.750163 
L 235.825491 493.919343 
L 240.923709 493.751704 
L 251.120146 493.204148 
L 256.218365 491.285889 
L 261.316583 491.177831 
L 266.414801 491.545938 
L 271.51302 492.076689 
L 276.611238 491.800626 
L 281.709456 492.193637 
L 286.807675 487.54845 
L 291.905893 491.415953 
L 297.004111 492.399283 
L 302.10233 491.481543 
L 307.200548 491.801373 
L 312.298767 490.576495 
L 317.396985 490.081831 
L 322.495203 489.369455 
L 327.593422 489.902175 
L 332.69164 489.092321 
L 337.789858 488.719306 
L 342.888077 489.386633 
L 347.986295 489.685847 
L 353.084513 490.113754 
L 358.182732 490.964074 
L 363.28095 490.125936 
L 368.379169 488.896286 
L 373.477387 488.029132 
L 378.575605 489.721055 
L 383.673824 488.199077 
L 388.772042 487.54715 
L 393.87026 487.589614 
L 398.968479 486.529232 
L 404.066697 489.673961 
L 409.164915 488.135692 
L 414.263134 485.824264 
L 419.361352 485.152941 
L 424.459571 490.772816 
L 429.557789 489.106708 
L 434.656007 489.315614 
L 444.852444 490.782601 
L 449.950662 490.453119 
L 455.048881 489.037322 
L 465.245317 488.453479 
L 470.343536 488.587442 
L 475.441754 490.986446 
L 480.539973 491.363371 
L 485.638191 491.135325 
L 490.736409 492.780337 
L 495.834628 491.760648 
L 500.932846 490.063753 
L 506.031064 489.276958 
L 511.129283 488.30214 
L 516.227501 489.889196 
L 521.32572 489.613843 
L 526.423938 490.434998 
L 531.522156 490.337437 
L 536.620375 488.488953 
L 541.718593 493.709188 
L 546.816811 491.394042 
L 551.91503 490.987777 
L 557.013248 491.645997 
L 562.111466 490.692954 
L 567.209685 489.192178 
L 572.307903 491.22928 
L 577.406122 492.403355 
L 582.50434 492.445246 
L 587.602558 491.672357 
L 592.700777 491.684459 
L 597.798995 490.671356 
L 602.897213 491.030752 
L 607.995432 491.773863 
L 613.09365 492.770986 
L 618.191868 491.320477 
L 623.290087 491.376959 
L 628.388305 492.205604 
L 633.486524 490.768515 
L 638.584742 491.249684 
L 643.68296 489.919552 
L 648.781179 493.00008 
L 653.879397 492.5985 
L 658.977615 491.676767 
L 669.174052 490.791904 
L 674.27227 491.760756 
L 679.370489 570.082247 
L 684.468707 601.185451 
L 689.566926 599.952099 
L 694.665144 600.421564 
L 699.763362 601.57914 
L 704.861581 602.921675 
L 709.959799 606.010927 
L 715.058017 607.005547 
L 720.156236 608.710876 
L 725.254454 611.257565 
L 735.450891 613.383169 
L 740.549109 614.212937 
L 745.647328 614.602232 
L 750.745546 612.954682 
L 755.843764 613.235115 
L 760.941983 614.032981 
L 766.040201 614.540156 
L 771.138419 614.414566 
L 776.236638 612.429545 
L 781.334856 612.607572 
L 786.433074 615.497175 
L 791.531293 615.826795 
L 796.629511 617.023058 
L 801.72773 616.813611 
L 806.825948 617.862129 
L 811.924166 618.340703 
L 817.022385 617.830041 
L 822.120603 619.390713 
L 827.218821 619.54416 
L 832.31704 621.679073 
L 837.415258 621.536013 
L 842.513476 623.124869 
L 852.709913 626.039062 
L 857.808132 626.554234 
L 862.90635 625.781145 
L 868.004568 627.727003 
L 873.102787 630.238086 
L 878.201005 630.190606 
L 883.299223 627.275026 
L 888.397442 625.211286 
L 893.49566 628.234258 
L 898.593878 626.528029 
L 903.692097 626.654598 
L 913.888534 628.320234 
L 918.986752 628.535283 
L 924.08497 631.609496 
L 929.183189 633.380038 
L 934.281407 633.388235 
L 939.379625 551.793519 
L 944.477844 537.779012 
L 949.576062 538.315064 
L 954.67428 536.596638 
L 959.772499 535.16665 
L 964.870717 533.084153 
L 969.968936 532.431936 
L 975.067154 534.209936 
L 980.165372 533.219207 
L 985.263591 531.566286 
L 990.361809 528.122364 
L 995.460027 528.512652 
L 1000.558246 529.947058 
L 1005.656464 529.663438 
L 1010.754683 528.970223 
L 1020.951119 528.298915 
L 1026.049338 528.227756 
L 1031.147556 527.736689 
L 1036.245774 524.626456 
L 1041.343993 523.237345 
L 1046.442211 523.570548 
L 1051.540429 523.109697 
L 1056.638648 518.970672 
L 1061.736866 518.845389 
L 1071.933303 520.39416 
L 1077.031521 520.499525 
L 1082.12974 520.2287 
L 1087.227958 520.922196 
L 1092.326176 517.649913 
L 1097.424395 520.9196 
L 1102.522613 517.02928 
L 1107.620831 516.328794 
L 1112.71905 516.353476 
L 1117.817268 514.755739 
L 1122.915487 511.332494 
L 1128.013705 515.878526 
L 1133.111923 513.104887 
L 1138.210142 514.699559 
L 1143.30836 515.249283 
L 1148.406578 511.885836 
L 1153.504797 511.529527 
L 1158.603015 512.252046 
L 1163.701233 512.467981 
L 1168.799452 509.241289 
L 1173.89767 510.762153 
L 1178.995889 504.971293 
L 1184.094107 503.86381 
L 1189.192325 506.535945 
L 1194.290544 507.238068 
L 1199.388762 514.585445 
L 1204.48698 507.738976 
L 1209.585199 511.808001 
L 1214.683417 511.892095 
L 1219.781635 515.195068 
L 1224.879854 513.133718 
L 1229.978072 513.444749 
L 1235.076291 511.587282 
L 1240.174509 509.176074 
L 1245.272727 511.534277 
L 1245.272727 511.534277 
" style="fill:none;stroke:#ff0000;stroke-linecap:square;stroke-width:1.5;"/>
   </g>
   <g id="patch_15">
    <path d="M 180 640.8 
L 180 477.741176 
" style="fill:none;stroke:#000000;stroke-linecap:square;stroke-linejoin:miter;stroke-width:0.8;"/>
   </g>
   <g id="patch_16">
    <path d="M 1296 640.8 
L 1296 477.741176 
" style="fill:none;stroke:#000000;stroke-linecap:square;stroke-linejoin:miter;stroke-width:0.8;"/>
   </g>
   <g id="patch_17">
    <path d="M 180 640.8 
L 1296 640.8 
" style="fill:none;stroke:#000000;stroke-linecap:square;stroke-linejoin:miter;stroke-width:0.8;"/>
   </g>
   <g id="patch_18">
    <path d="M 180 477.741176 
L 1296 477.741176 
" style="fill:none;stroke:#000000;stroke-linecap:square;stroke-linejoin:miter;stroke-width:0.8;"/>
   </g>
   <g id="legend_3">
    <g id="patch_19">
     <path d="M 1194.742188 500.419301 
L 1289 500.419301 
Q 1291 500.419301 1291 498.419301 
L 1291 484.741176 
Q 1291 482.741176 1289 482.741176 
L 1194.742188 482.741176 
Q 1192.742188 482.741176 1192.742188 484.741176 
L 1192.742188 498.419301 
Q 1192.742188 500.419301 1194.742188 500.419301 
z
" style="fill:#ffffff;opacity:0.8;stroke:#cccccc;stroke-linejoin:miter;"/>
    </g>
    <g id="line2d_60">
     <path d="M 1196.742188 490.839614 
L 1216.742188 490.839614 
" style="fill:none;stroke:#ff0000;stroke-linecap:square;stroke-width:1.5;"/>
    </g>
    <g id="line2d_61"/>
    <g id="text_55">
     <!-- ControlInput -->
     <g transform="translate(1224.742188 494.339614)scale(0.1 -0.1)">
      <use xlink:href="#DejaVuSans-43"/>
      <use x="69.824219" xlink:href="#DejaVuSans-6f"/>
      <use x="131.005859" xlink:href="#DejaVuSans-6e"/>
      <use x="194.384766" xlink:href="#DejaVuSans-74"/>
      <use x="233.59375" xlink:href="#DejaVuSans-72"/>
      <use x="274.675781" xlink:href="#DejaVuSans-6f"/>
      <use x="335.857422" xlink:href="#DejaVuSans-6c"/>
      <use x="363.640625" xlink:href="#DejaVuSans-49"/>
      <use x="393.132812" xlink:href="#DejaVuSans-6e"/>
      <use x="456.511719" xlink:href="#DejaVuSans-70"/>
      <use x="519.988281" xlink:href="#DejaVuSans-75"/>
      <use x="583.367188" xlink:href="#DejaVuSans-74"/>
     </g>
    </g>
   </g>
  </g>
 </g>
 <defs>
  <clipPath id="p1f8c7aecff">
   <rect height="163.058824" width="1116" x="180" y="86.4"/>
  </clipPath>
  <clipPath id="p75aaa1b4ad">
   <rect height="163.058824" width="1116" x="180" y="282.070588"/>
  </clipPath>
  <clipPath id="p4a25219b28">
   <rect height="163.058824" width="1116" x="180" y="477.741176"/>
  </clipPath>
 </defs>
</svg>
