<?xml version="1.0" encoding="utf-8" standalone="no"?>
<!DOCTYPE svg PUBLIC "-//W3C//DTD SVG 1.1//EN"
  "http://www.w3.org/Graphics/SVG/1.1/DTD/svg11.dtd">
<!-- Created with matplotlib (http://matplotlib.org/) -->
<svg height="720pt" version="1.1" viewBox="0 0 1440 720" width="1440pt" xmlns="http://www.w3.org/2000/svg" xmlns:xlink="http://www.w3.org/1999/xlink">
 <defs>
  <style type="text/css">
*{stroke-linecap:butt;stroke-linejoin:round;}
  </style>
 </defs>
 <g id="figure_1">
  <g id="patch_1">
   <path d="M 0 720 
L 1440 720 
L 1440 0 
L 0 0 
z
" style="fill:#ffffff;"/>
  </g>
  <g id="axes_1">
   <g id="patch_2">
    <path d="M 180 249.458824 
L 1296 249.458824 
L 1296 86.4 
L 180 86.4 
z
" style="fill:#ffffff;"/>
   </g>
   <g id="matplotlib.axis_1">
    <g id="xtick_1">
     <g id="line2d_1">
      <defs>
       <path d="M 0 0 
L 0 3.5 
" id="m580dca281a" style="stroke:#000000;stroke-width:0.8;"/>
      </defs>
      <g>
       <use style="stroke:#000000;stroke-width:0.8;" x="225.629054" xlink:href="#m580dca281a" y="249.458824"/>
      </g>
     </g>
     <g id="text_1">
      <!-- 0 -->
      <defs>
       <path d="M 31.78125 66.40625 
Q 24.171875 66.40625 20.328125 58.90625 
Q 16.5 51.421875 16.5 36.375 
Q 16.5 21.390625 20.328125 13.890625 
Q 24.171875 6.390625 31.78125 6.390625 
Q 39.453125 6.390625 43.28125 13.890625 
Q 47.125 21.390625 47.125 36.375 
Q 47.125 51.421875 43.28125 58.90625 
Q 39.453125 66.40625 31.78125 66.40625 
z
M 31.78125 74.21875 
Q 44.046875 74.21875 50.515625 64.515625 
Q 56.984375 54.828125 56.984375 36.375 
Q 56.984375 17.96875 50.515625 8.265625 
Q 44.046875 -1.421875 31.78125 -1.421875 
Q 19.53125 -1.421875 13.0625 8.265625 
Q 6.59375 17.96875 6.59375 36.375 
Q 6.59375 54.828125 13.0625 64.515625 
Q 19.53125 74.21875 31.78125 74.21875 
z
" id="DejaVuSans-30"/>
      </defs>
      <g transform="translate(222.447804 264.057261)scale(0.1 -0.1)">
       <use xlink:href="#DejaVuSans-30"/>
      </g>
     </g>
    </g>
    <g id="xtick_2">
     <g id="line2d_2">
      <g>
       <use style="stroke:#000000;stroke-width:0.8;" x="353.084513" xlink:href="#m580dca281a" y="249.458824"/>
      </g>
     </g>
     <g id="text_2">
      <!-- 500 -->
      <defs>
       <path d="M 10.796875 72.90625 
L 49.515625 72.90625 
L 49.515625 64.59375 
L 19.828125 64.59375 
L 19.828125 46.734375 
Q 21.96875 47.46875 24.109375 47.828125 
Q 26.265625 48.1875 28.421875 48.1875 
Q 40.625 48.1875 47.75 41.5 
Q 54.890625 34.8125 54.890625 23.390625 
Q 54.890625 11.625 47.5625 5.09375 
Q 40.234375 -1.421875 26.90625 -1.421875 
Q 22.3125 -1.421875 17.546875 -0.640625 
Q 12.796875 0.140625 7.71875 1.703125 
L 7.71875 11.625 
Q 12.109375 9.234375 16.796875 8.0625 
Q 21.484375 6.890625 26.703125 6.890625 
Q 35.15625 6.890625 40.078125 11.328125 
Q 45.015625 15.765625 45.015625 23.390625 
Q 45.015625 31 40.078125 35.4375 
Q 35.15625 39.890625 26.703125 39.890625 
Q 22.75 39.890625 18.8125 39.015625 
Q 14.890625 38.140625 10.796875 36.28125 
z
" id="DejaVuSans-35"/>
      </defs>
      <g transform="translate(343.540763 264.057261)scale(0.1 -0.1)">
       <use xlink:href="#DejaVuSans-35"/>
       <use x="63.623047" xlink:href="#DejaVuSans-30"/>
       <use x="127.246094" xlink:href="#DejaVuSans-30"/>
      </g>
     </g>
    </g>
    <g id="xtick_3">
     <g id="line2d_3">
      <g>
       <use style="stroke:#000000;stroke-width:0.8;" x="480.539973" xlink:href="#m580dca281a" y="249.458824"/>
      </g>
     </g>
     <g id="text_3">
      <!-- 1000 -->
      <defs>
       <path d="M 12.40625 8.296875 
L 28.515625 8.296875 
L 28.515625 63.921875 
L 10.984375 60.40625 
L 10.984375 69.390625 
L 28.421875 72.90625 
L 38.28125 72.90625 
L 38.28125 8.296875 
L 54.390625 8.296875 
L 54.390625 0 
L 12.40625 0 
z
" id="DejaVuSans-31"/>
      </defs>
      <g transform="translate(467.814973 264.057261)scale(0.1 -0.1)">
       <use xlink:href="#DejaVuSans-31"/>
       <use x="63.623047" xlink:href="#DejaVuSans-30"/>
       <use x="127.246094" xlink:href="#DejaVuSans-30"/>
       <use x="190.869141" xlink:href="#DejaVuSans-30"/>
      </g>
     </g>
    </g>
    <g id="xtick_4">
     <g id="line2d_4">
      <g>
       <use style="stroke:#000000;stroke-width:0.8;" x="607.995432" xlink:href="#m580dca281a" y="249.458824"/>
      </g>
     </g>
     <g id="text_4">
      <!-- 1500 -->
      <g transform="translate(595.270432 264.057261)scale(0.1 -0.1)">
       <use xlink:href="#DejaVuSans-31"/>
       <use x="63.623047" xlink:href="#DejaVuSans-35"/>
       <use x="127.246094" xlink:href="#DejaVuSans-30"/>
       <use x="190.869141" xlink:href="#DejaVuSans-30"/>
      </g>
     </g>
    </g>
    <g id="xtick_5">
     <g id="line2d_5">
      <g>
       <use style="stroke:#000000;stroke-width:0.8;" x="735.450891" xlink:href="#m580dca281a" y="249.458824"/>
      </g>
     </g>
     <g id="text_5">
      <!-- 2000 -->
      <defs>
       <path d="M 19.1875 8.296875 
L 53.609375 8.296875 
L 53.609375 0 
L 7.328125 0 
L 7.328125 8.296875 
Q 12.9375 14.109375 22.625 23.890625 
Q 32.328125 33.6875 34.8125 36.53125 
Q 39.546875 41.84375 41.421875 45.53125 
Q 43.3125 49.21875 43.3125 52.78125 
Q 43.3125 58.59375 39.234375 62.25 
Q 35.15625 65.921875 28.609375 65.921875 
Q 23.96875 65.921875 18.8125 64.3125 
Q 13.671875 62.703125 7.8125 59.421875 
L 7.8125 69.390625 
Q 13.765625 71.78125 18.9375 73 
Q 24.125 74.21875 28.421875 74.21875 
Q 39.75 74.21875 46.484375 68.546875 
Q 53.21875 62.890625 53.21875 53.421875 
Q 53.21875 48.921875 51.53125 44.890625 
Q 49.859375 40.875 45.40625 35.40625 
Q 44.1875 33.984375 37.640625 27.21875 
Q 31.109375 20.453125 19.1875 8.296875 
z
" id="DejaVuSans-32"/>
      </defs>
      <g transform="translate(722.725891 264.057261)scale(0.1 -0.1)">
       <use xlink:href="#DejaVuSans-32"/>
       <use x="63.623047" xlink:href="#DejaVuSans-30"/>
       <use x="127.246094" xlink:href="#DejaVuSans-30"/>
       <use x="190.869141" xlink:href="#DejaVuSans-30"/>
      </g>
     </g>
    </g>
    <g id="xtick_6">
     <g id="line2d_6">
      <g>
       <use style="stroke:#000000;stroke-width:0.8;" x="862.90635" xlink:href="#m580dca281a" y="249.458824"/>
      </g>
     </g>
     <g id="text_6">
      <!-- 2500 -->
      <g transform="translate(850.18135 264.057261)scale(0.1 -0.1)">
       <use xlink:href="#DejaVuSans-32"/>
       <use x="63.623047" xlink:href="#DejaVuSans-35"/>
       <use x="127.246094" xlink:href="#DejaVuSans-30"/>
       <use x="190.869141" xlink:href="#DejaVuSans-30"/>
      </g>
     </g>
    </g>
    <g id="xtick_7">
     <g id="line2d_7">
      <g>
       <use style="stroke:#000000;stroke-width:0.8;" x="990.361809" xlink:href="#m580dca281a" y="249.458824"/>
      </g>
     </g>
     <g id="text_7">
      <!-- 3000 -->
      <defs>
       <path d="M 40.578125 39.3125 
Q 47.65625 37.796875 51.625 33 
Q 55.609375 28.21875 55.609375 21.1875 
Q 55.609375 10.40625 48.1875 4.484375 
Q 40.765625 -1.421875 27.09375 -1.421875 
Q 22.515625 -1.421875 17.65625 -0.515625 
Q 12.796875 0.390625 7.625 2.203125 
L 7.625 11.71875 
Q 11.71875 9.328125 16.59375 8.109375 
Q 21.484375 6.890625 26.8125 6.890625 
Q 36.078125 6.890625 40.9375 10.546875 
Q 45.796875 14.203125 45.796875 21.1875 
Q 45.796875 27.640625 41.28125 31.265625 
Q 36.765625 34.90625 28.71875 34.90625 
L 20.21875 34.90625 
L 20.21875 43.015625 
L 29.109375 43.015625 
Q 36.375 43.015625 40.234375 45.921875 
Q 44.09375 48.828125 44.09375 54.296875 
Q 44.09375 59.90625 40.109375 62.90625 
Q 36.140625 65.921875 28.71875 65.921875 
Q 24.65625 65.921875 20.015625 65.03125 
Q 15.375 64.15625 9.8125 62.3125 
L 9.8125 71.09375 
Q 15.4375 72.65625 20.34375 73.4375 
Q 25.25 74.21875 29.59375 74.21875 
Q 40.828125 74.21875 47.359375 69.109375 
Q 53.90625 64.015625 53.90625 55.328125 
Q 53.90625 49.265625 50.4375 45.09375 
Q 46.96875 40.921875 40.578125 39.3125 
z
" id="DejaVuSans-33"/>
      </defs>
      <g transform="translate(977.636809 264.057261)scale(0.1 -0.1)">
       <use xlink:href="#DejaVuSans-33"/>
       <use x="63.623047" xlink:href="#DejaVuSans-30"/>
       <use x="127.246094" xlink:href="#DejaVuSans-30"/>
       <use x="190.869141" xlink:href="#DejaVuSans-30"/>
      </g>
     </g>
    </g>
    <g id="xtick_8">
     <g id="line2d_8">
      <g>
       <use style="stroke:#000000;stroke-width:0.8;" x="1117.817268" xlink:href="#m580dca281a" y="249.458824"/>
      </g>
     </g>
     <g id="text_8">
      <!-- 3500 -->
      <g transform="translate(1105.092268 264.057261)scale(0.1 -0.1)">
       <use xlink:href="#DejaVuSans-33"/>
       <use x="63.623047" xlink:href="#DejaVuSans-35"/>
       <use x="127.246094" xlink:href="#DejaVuSans-30"/>
       <use x="190.869141" xlink:href="#DejaVuSans-30"/>
      </g>
     </g>
    </g>
    <g id="xtick_9">
     <g id="line2d_9">
      <g>
       <use style="stroke:#000000;stroke-width:0.8;" x="1245.272727" xlink:href="#m580dca281a" y="249.458824"/>
      </g>
     </g>
     <g id="text_9">
      <!-- 4000 -->
      <defs>
       <path d="M 37.796875 64.3125 
L 12.890625 25.390625 
L 37.796875 25.390625 
z
M 35.203125 72.90625 
L 47.609375 72.90625 
L 47.609375 25.390625 
L 58.015625 25.390625 
L 58.015625 17.1875 
L 47.609375 17.1875 
L 47.609375 0 
L 37.796875 0 
L 37.796875 17.1875 
L 4.890625 17.1875 
L 4.890625 26.703125 
z
" id="DejaVuSans-34"/>
      </defs>
      <g transform="translate(1232.547727 264.057261)scale(0.1 -0.1)">
       <use xlink:href="#DejaVuSans-34"/>
       <use x="63.623047" xlink:href="#DejaVuSans-30"/>
       <use x="127.246094" xlink:href="#DejaVuSans-30"/>
       <use x="190.869141" xlink:href="#DejaVuSans-30"/>
      </g>
     </g>
    </g>
   </g>
   <g id="matplotlib.axis_2">
    <g id="ytick_1">
     <g id="line2d_10">
      <defs>
       <path d="M 0 0 
L -3.5 0 
" id="me519148ce6" style="stroke:#000000;stroke-width:0.8;"/>
      </defs>
      <g>
       <use style="stroke:#000000;stroke-width:0.8;" x="180" xlink:href="#me519148ce6" y="236.452642"/>
      </g>
     </g>
     <g id="text_10">
      <!-- −3 -->
      <defs>
       <path d="M 10.59375 35.5 
L 73.1875 35.5 
L 73.1875 27.203125 
L 10.59375 27.203125 
z
" id="DejaVuSans-2212"/>
      </defs>
      <g transform="translate(158.257812 240.251861)scale(0.1 -0.1)">
       <use xlink:href="#DejaVuSans-2212"/>
       <use x="83.789062" xlink:href="#DejaVuSans-33"/>
      </g>
     </g>
    </g>
    <g id="ytick_2">
     <g id="line2d_11">
      <g>
       <use style="stroke:#000000;stroke-width:0.8;" x="180" xlink:href="#me519148ce6" y="199.15653"/>
      </g>
     </g>
     <g id="text_11">
      <!-- −2 -->
      <g transform="translate(158.257812 202.955749)scale(0.1 -0.1)">
       <use xlink:href="#DejaVuSans-2212"/>
       <use x="83.789062" xlink:href="#DejaVuSans-32"/>
      </g>
     </g>
    </g>
    <g id="ytick_3">
     <g id="line2d_12">
      <g>
       <use style="stroke:#000000;stroke-width:0.8;" x="180" xlink:href="#me519148ce6" y="161.860418"/>
      </g>
     </g>
     <g id="text_12">
      <!-- −1 -->
      <g transform="translate(158.257812 165.659637)scale(0.1 -0.1)">
       <use xlink:href="#DejaVuSans-2212"/>
       <use x="83.789062" xlink:href="#DejaVuSans-31"/>
      </g>
     </g>
    </g>
    <g id="ytick_4">
     <g id="line2d_13">
      <g>
       <use style="stroke:#000000;stroke-width:0.8;" x="180" xlink:href="#me519148ce6" y="124.564306"/>
      </g>
     </g>
     <g id="text_13">
      <!-- 0 -->
      <g transform="translate(166.6375 128.363525)scale(0.1 -0.1)">
       <use xlink:href="#DejaVuSans-30"/>
      </g>
     </g>
    </g>
    <g id="ytick_5">
     <g id="line2d_14">
      <g>
       <use style="stroke:#000000;stroke-width:0.8;" x="180" xlink:href="#me519148ce6" y="87.268194"/>
      </g>
     </g>
     <g id="text_14">
      <!-- 1 -->
      <g transform="translate(166.6375 91.067413)scale(0.1 -0.1)">
       <use xlink:href="#DejaVuSans-31"/>
      </g>
     </g>
    </g>
    <g id="text_15">
     <!-- TD State:0 -->
     <defs>
      <path d="M -0.296875 72.90625 
L 61.375 72.90625 
L 61.375 64.59375 
L 35.5 64.59375 
L 35.5 0 
L 25.59375 0 
L 25.59375 64.59375 
L -0.296875 64.59375 
z
" id="DejaVuSans-54"/>
      <path d="M 19.671875 64.796875 
L 19.671875 8.109375 
L 31.59375 8.109375 
Q 46.6875 8.109375 53.6875 14.9375 
Q 60.6875 21.78125 60.6875 36.53125 
Q 60.6875 51.171875 53.6875 57.984375 
Q 46.6875 64.796875 31.59375 64.796875 
z
M 9.8125 72.90625 
L 30.078125 72.90625 
Q 51.265625 72.90625 61.171875 64.09375 
Q 71.09375 55.28125 71.09375 36.53125 
Q 71.09375 17.671875 61.125 8.828125 
Q 51.171875 0 30.078125 0 
L 9.8125 0 
z
" id="DejaVuSans-44"/>
      <path id="DejaVuSans-20"/>
      <path d="M 53.515625 70.515625 
L 53.515625 60.890625 
Q 47.90625 63.578125 42.921875 64.890625 
Q 37.9375 66.21875 33.296875 66.21875 
Q 25.25 66.21875 20.875 63.09375 
Q 16.5 59.96875 16.5 54.203125 
Q 16.5 49.359375 19.40625 46.890625 
Q 22.3125 44.4375 30.421875 42.921875 
L 36.375 41.703125 
Q 47.40625 39.59375 52.65625 34.296875 
Q 57.90625 29 57.90625 20.125 
Q 57.90625 9.515625 50.796875 4.046875 
Q 43.703125 -1.421875 29.984375 -1.421875 
Q 24.8125 -1.421875 18.96875 -0.25 
Q 13.140625 0.921875 6.890625 3.21875 
L 6.890625 13.375 
Q 12.890625 10.015625 18.65625 8.296875 
Q 24.421875 6.59375 29.984375 6.59375 
Q 38.421875 6.59375 43.015625 9.90625 
Q 47.609375 13.234375 47.609375 19.390625 
Q 47.609375 24.75 44.3125 27.78125 
Q 41.015625 30.8125 33.5 32.328125 
L 27.484375 33.5 
Q 16.453125 35.6875 11.515625 40.375 
Q 6.59375 45.0625 6.59375 53.421875 
Q 6.59375 63.09375 13.40625 68.65625 
Q 20.21875 74.21875 32.171875 74.21875 
Q 37.3125 74.21875 42.625 73.28125 
Q 47.953125 72.359375 53.515625 70.515625 
z
" id="DejaVuSans-53"/>
      <path d="M 18.3125 70.21875 
L 18.3125 54.6875 
L 36.8125 54.6875 
L 36.8125 47.703125 
L 18.3125 47.703125 
L 18.3125 18.015625 
Q 18.3125 11.328125 20.140625 9.421875 
Q 21.96875 7.515625 27.59375 7.515625 
L 36.8125 7.515625 
L 36.8125 0 
L 27.59375 0 
Q 17.1875 0 13.234375 3.875 
Q 9.28125 7.765625 9.28125 18.015625 
L 9.28125 47.703125 
L 2.6875 47.703125 
L 2.6875 54.6875 
L 9.28125 54.6875 
L 9.28125 70.21875 
z
" id="DejaVuSans-74"/>
      <path d="M 34.28125 27.484375 
Q 23.390625 27.484375 19.1875 25 
Q 14.984375 22.515625 14.984375 16.5 
Q 14.984375 11.71875 18.140625 8.90625 
Q 21.296875 6.109375 26.703125 6.109375 
Q 34.1875 6.109375 38.703125 11.40625 
Q 43.21875 16.703125 43.21875 25.484375 
L 43.21875 27.484375 
z
M 52.203125 31.203125 
L 52.203125 0 
L 43.21875 0 
L 43.21875 8.296875 
Q 40.140625 3.328125 35.546875 0.953125 
Q 30.953125 -1.421875 24.3125 -1.421875 
Q 15.921875 -1.421875 10.953125 3.296875 
Q 6 8.015625 6 15.921875 
Q 6 25.140625 12.171875 29.828125 
Q 18.359375 34.515625 30.609375 34.515625 
L 43.21875 34.515625 
L 43.21875 35.40625 
Q 43.21875 41.609375 39.140625 45 
Q 35.0625 48.390625 27.6875 48.390625 
Q 23 48.390625 18.546875 47.265625 
Q 14.109375 46.140625 10.015625 43.890625 
L 10.015625 52.203125 
Q 14.9375 54.109375 19.578125 55.046875 
Q 24.21875 56 28.609375 56 
Q 40.484375 56 46.34375 49.84375 
Q 52.203125 43.703125 52.203125 31.203125 
z
" id="DejaVuSans-61"/>
      <path d="M 56.203125 29.59375 
L 56.203125 25.203125 
L 14.890625 25.203125 
Q 15.484375 15.921875 20.484375 11.0625 
Q 25.484375 6.203125 34.421875 6.203125 
Q 39.59375 6.203125 44.453125 7.46875 
Q 49.3125 8.734375 54.109375 11.28125 
L 54.109375 2.78125 
Q 49.265625 0.734375 44.1875 -0.34375 
Q 39.109375 -1.421875 33.890625 -1.421875 
Q 20.796875 -1.421875 13.15625 6.1875 
Q 5.515625 13.8125 5.515625 26.8125 
Q 5.515625 40.234375 12.765625 48.109375 
Q 20.015625 56 32.328125 56 
Q 43.359375 56 49.78125 48.890625 
Q 56.203125 41.796875 56.203125 29.59375 
z
M 47.21875 32.234375 
Q 47.125 39.59375 43.09375 43.984375 
Q 39.0625 48.390625 32.421875 48.390625 
Q 24.90625 48.390625 20.390625 44.140625 
Q 15.875 39.890625 15.1875 32.171875 
z
" id="DejaVuSans-65"/>
      <path d="M 11.71875 12.40625 
L 22.015625 12.40625 
L 22.015625 0 
L 11.71875 0 
z
M 11.71875 51.703125 
L 22.015625 51.703125 
L 22.015625 39.3125 
L 11.71875 39.3125 
z
" id="DejaVuSans-3a"/>
     </defs>
     <g transform="translate(152.178125 194.523162)rotate(-90)scale(0.1 -0.1)">
      <use xlink:href="#DejaVuSans-54"/>
      <use x="61.083984" xlink:href="#DejaVuSans-44"/>
      <use x="138.085938" xlink:href="#DejaVuSans-20"/>
      <use x="169.873047" xlink:href="#DejaVuSans-53"/>
      <use x="233.349609" xlink:href="#DejaVuSans-74"/>
      <use x="272.558594" xlink:href="#DejaVuSans-61"/>
      <use x="333.837891" xlink:href="#DejaVuSans-74"/>
      <use x="373.046875" xlink:href="#DejaVuSans-65"/>
      <use x="434.570312" xlink:href="#DejaVuSans-3a"/>
      <use x="468.261719" xlink:href="#DejaVuSans-30"/>
     </g>
    </g>
   </g>
   <g id="line2d_15">
    <path clip-path="url(#pa916e2f572)" d="M 230.727273 152.967943 
L 235.825491 149.497544 
L 240.923709 131.045288 
L 246.021928 132.463774 
L 251.120146 139.388927 
L 256.218365 159.481312 
L 261.316583 167.271141 
L 266.414801 157.354765 
L 271.51302 159.091407 
L 276.611238 164.646971 
L 281.709456 169.384474 
L 286.807675 170.870249 
L 291.905893 167.944859 
L 297.004111 168.71751 
L 302.10233 168.169153 
L 307.200548 172.664952 
L 312.298767 173.814947 
L 317.396985 177.098284 
L 322.495203 175.087516 
L 327.593422 178.01363 
L 332.69164 175.386984 
L 337.789858 179.787708 
L 342.888077 178.749433 
L 347.986295 180.408732 
L 353.084513 180.223412 
L 358.182732 179.31745 
L 363.28095 183.747679 
L 368.379169 181.572875 
L 373.477387 182.930749 
L 383.673824 181.347331 
L 388.772042 183.6337 
L 393.87026 183.376977 
L 398.968479 186.890093 
L 404.066697 179.770342 
L 409.164915 183.917246 
L 414.263134 181.442277 
L 419.361352 184.680636 
L 424.459571 183.526475 
L 429.557789 180.222371 
L 434.656007 180.318624 
L 439.754226 181.077305 
L 444.852444 178.927208 
L 449.950662 180.842932 
L 455.048881 178.504367 
L 460.147099 178.61755 
L 465.245317 179.194166 
L 470.343536 177.756454 
L 475.441754 178.756755 
L 480.539973 176.270937 
L 485.638191 174.567022 
L 490.736409 176.675385 
L 495.834628 175.47759 
L 500.932846 202.601724 
L 506.031064 171.15953 
L 511.129283 178.909553 
L 521.32572 178.836099 
L 526.423938 175.326184 
L 531.522156 176.33428 
L 536.620375 174.15386 
L 541.718593 176.589438 
L 546.816811 174.191105 
L 551.91503 172.535647 
L 557.013248 171.125661 
L 562.111466 173.860333 
L 567.209685 172.05836 
L 572.307903 174.383814 
L 577.406122 172.984733 
L 582.50434 176.319408 
L 587.602558 173.129803 
L 592.700777 172.258085 
L 597.798995 174.451221 
L 602.897213 173.50705 
L 607.995432 175.139473 
L 613.09365 172.629735 
L 618.191868 173.745714 
L 623.290087 171.320971 
L 628.388305 173.161828 
L 633.486524 170.576881 
L 638.584742 170.859529 
L 643.68296 172.910805 
L 648.781179 168.909748 
L 653.879397 169.538561 
L 658.977615 173.615102 
L 664.075834 168.720685 
L 669.174052 168.037479 
L 674.27227 166.873452 
L 679.370489 146.988006 
L 684.468707 142.084554 
L 689.566926 138.50428 
L 694.665144 134.159598 
L 699.763362 132.143612 
L 704.861581 130.987107 
L 709.959799 126.604251 
L 715.058017 123.30286 
L 720.156236 121.066536 
L 725.254454 117.429842 
L 730.352672 115.60651 
L 735.450891 114.73665 
L 740.549109 112.429977 
L 745.647328 112.279523 
L 750.745546 111.789506 
L 755.843764 109.434348 
L 760.941983 112.381884 
L 766.040201 107.616393 
L 771.138419 108.708874 
L 776.236638 108.529179 
L 781.334856 106.097553 
L 786.433074 105.918151 
L 791.531293 106.437827 
L 796.629511 103.829066 
L 801.72773 104.110225 
L 811.924166 102.960639 
L 817.022385 102.862417 
L 822.120603 102.304403 
L 827.218821 102.276597 
L 832.31704 100.033586 
L 837.415258 102.069518 
L 842.513476 100.604907 
L 847.611695 98.931301 
L 852.709913 100.658949 
L 857.808132 96.615575 
L 862.90635 99.179524 
L 868.004568 97.50822 
L 873.102787 96.70418 
L 878.201005 95.290808 
L 883.299223 95.791737 
L 888.397442 97.236385 
L 893.49566 93.95442 
L 898.593878 96.810645 
L 903.692097 94.173524 
L 908.790315 94.665483 
L 918.986752 93.824065 
L 924.08497 94.69877 
L 929.183189 93.811765 
L 934.281407 95.802663 
L 939.379625 115.621036 
L 944.477844 119.351106 
L 949.576062 119.694527 
L 954.67428 119.257703 
L 959.772499 122.451007 
L 964.870717 125.183514 
L 969.968936 126.040177 
L 975.067154 126.304246 
L 980.165372 134.507386 
L 985.263591 136.338551 
L 990.361809 137.21082 
L 995.460027 139.558166 
L 1000.558246 140.352327 
L 1005.656464 144.324084 
L 1010.754683 142.741084 
L 1015.852901 143.30739 
L 1020.951119 145.99484 
L 1026.049338 146.938131 
L 1031.147556 156.695221 
L 1036.245774 144.896348 
L 1041.343993 149.751338 
L 1046.442211 151.673527 
L 1051.540429 148.810253 
L 1056.638648 152.508347 
L 1061.736866 151.054144 
L 1066.835085 151.709504 
L 1071.933303 151.196591 
L 1077.031521 151.384387 
L 1087.227958 151.198098 
L 1092.326176 152.221035 
L 1097.424395 152.886047 
L 1102.522613 152.262952 
L 1107.620831 152.912074 
L 1112.71905 153.098728 
L 1117.817268 153.118442 
L 1122.915487 155.49037 
L 1128.013705 152.340935 
L 1133.111923 155.739384 
L 1143.30836 153.443536 
L 1148.406578 156.42596 
L 1153.504797 155.726419 
L 1158.603015 154.555803 
L 1163.701233 156.731225 
L 1168.799452 156.753384 
L 1173.89767 157.825192 
L 1178.995889 159.166403 
L 1184.094107 159.5983 
L 1189.192325 158.404805 
L 1194.290544 159.028531 
L 1199.388762 157.533798 
L 1204.48698 161.886032 
L 1209.585199 158.245147 
L 1214.683417 158.515724 
L 1219.781635 158.247139 
L 1224.879854 159.953201 
L 1229.978072 160.389927 
L 1235.076291 160.706823 
L 1240.174509 158.869763 
L 1245.272727 161.041922 
L 1245.272727 161.041922 
" style="fill:none;stroke:#000000;stroke-linecap:square;stroke-width:4;"/>
   </g>
   <g id="line2d_16">
    <path clip-path="url(#pa916e2f572)" d="M 230.727273 163.725224 
L 235.825491 169.319641 
L 240.923709 163.725224 
L 246.021928 169.319641 
L 251.120146 163.725224 
L 256.218365 169.319641 
L 266.414801 169.319641 
L 271.51302 163.725224 
L 276.611238 169.319641 
L 281.709456 163.725224 
L 286.807675 163.725224 
L 291.905893 169.319641 
L 297.004111 163.725224 
L 302.10233 169.319641 
L 307.200548 169.319641 
L 312.298767 174.914057 
L 317.396985 169.319641 
L 322.495203 174.914057 
L 327.593422 169.319641 
L 332.69164 174.914057 
L 347.986295 174.914057 
L 353.084513 169.319641 
L 358.182732 180.508474 
L 363.28095 174.914057 
L 373.477387 174.914057 
L 378.575605 169.319641 
L 383.673824 174.914057 
L 388.772042 174.914057 
L 393.87026 186.102891 
L 398.968479 169.319641 
L 404.066697 174.914057 
L 409.164915 169.319641 
L 419.361352 180.508474 
L 424.459571 169.319641 
L 439.754226 169.319641 
L 444.852444 174.914057 
L 449.950662 169.319641 
L 465.245317 169.319641 
L 470.343536 174.914057 
L 480.539973 163.725224 
L 485.638191 169.319641 
L 490.736409 169.319641 
L 495.834628 242.047059 
L 500.932846 169.319641 
L 506.031064 163.725224 
L 526.423938 163.725224 
L 536.620375 174.914057 
L 546.816811 174.914057 
L 551.91503 169.319641 
L 557.013248 174.914057 
L 562.111466 169.319641 
L 567.209685 174.914057 
L 572.307903 174.914057 
L 577.406122 180.508474 
L 587.602558 169.319641 
L 592.700777 174.914057 
L 597.798995 174.914057 
L 602.897213 180.508474 
L 607.995432 174.914057 
L 613.09365 174.914057 
L 618.191868 169.319641 
L 623.290087 174.914057 
L 628.388305 169.319641 
L 633.486524 169.319641 
L 638.584742 174.914057 
L 643.68296 169.319641 
L 648.781179 169.319641 
L 653.879397 180.508474 
L 658.977615 169.319641 
L 669.174052 158.130807 
L 674.27227 146.941973 
L 679.370489 141.347557 
L 684.468707 141.347557 
L 689.566926 135.75314 
L 699.763362 135.75314 
L 709.959799 124.564306 
L 730.352672 124.564306 
L 735.450891 118.969889 
L 745.647328 118.969889 
L 750.745546 113.375473 
L 755.843764 124.564306 
L 760.941983 113.375473 
L 771.138419 113.375473 
L 776.236638 107.781056 
L 781.334856 107.781056 
L 786.433074 113.375473 
L 791.531293 107.781056 
L 822.120603 107.781056 
L 827.218821 102.186639 
L 832.31704 107.781056 
L 837.415258 107.781056 
L 842.513476 102.186639 
L 847.611695 107.781056 
L 852.709913 96.592222 
L 857.808132 102.186639 
L 868.004568 102.186639 
L 873.102787 96.592222 
L 878.201005 96.592222 
L 883.299223 102.186639 
L 888.397442 96.592222 
L 893.49566 102.186639 
L 898.593878 96.592222 
L 913.888534 96.592222 
L 918.986752 102.186639 
L 924.08497 102.186639 
L 929.183189 107.781056 
L 934.281407 118.969889 
L 939.379625 113.375473 
L 949.576062 124.564306 
L 954.67428 118.969889 
L 959.772499 124.564306 
L 964.870717 124.564306 
L 969.968936 118.969889 
L 975.067154 141.347557 
L 980.165372 146.941973 
L 985.263591 141.347557 
L 995.460027 141.347557 
L 1000.558246 152.53639 
L 1010.754683 141.347557 
L 1020.951119 152.53639 
L 1026.049338 180.508474 
L 1031.147556 146.941973 
L 1036.245774 146.941973 
L 1041.343993 152.53639 
L 1046.442211 146.941973 
L 1051.540429 152.53639 
L 1087.227958 152.53639 
L 1092.326176 158.130807 
L 1097.424395 152.53639 
L 1112.71905 152.53639 
L 1117.817268 158.130807 
L 1122.915487 152.53639 
L 1128.013705 158.130807 
L 1133.111923 158.130807 
L 1138.210142 152.53639 
L 1143.30836 158.130807 
L 1148.406578 158.130807 
L 1153.504797 152.53639 
L 1158.603015 158.130807 
L 1163.701233 158.130807 
L 1168.799452 163.725224 
L 1178.995889 163.725224 
L 1184.094107 158.130807 
L 1194.290544 158.130807 
L 1199.388762 169.319641 
L 1209.585199 158.130807 
L 1214.683417 158.130807 
L 1224.879854 169.319641 
L 1229.978072 169.319641 
L 1235.076291 158.130807 
L 1240.174509 163.725224 
L 1245.272727 158.130807 
L 1245.272727 158.130807 
" style="fill:none;stroke:#ff0000;stroke-linecap:square;stroke-width:1.5;"/>
   </g>
   <g id="patch_3">
    <path d="M 180 249.458824 
L 180 86.4 
" style="fill:none;stroke:#000000;stroke-linecap:square;stroke-linejoin:miter;stroke-width:0.8;"/>
   </g>
   <g id="patch_4">
    <path d="M 1296 249.458824 
L 1296 86.4 
" style="fill:none;stroke:#000000;stroke-linecap:square;stroke-linejoin:miter;stroke-width:0.8;"/>
   </g>
   <g id="patch_5">
    <path d="M 180 249.458824 
L 1296 249.458824 
" style="fill:none;stroke:#000000;stroke-linecap:square;stroke-linejoin:miter;stroke-width:0.8;"/>
   </g>
   <g id="patch_6">
    <path d="M 180 86.4 
L 1296 86.4 
" style="fill:none;stroke:#000000;stroke-linecap:square;stroke-linejoin:miter;stroke-width:0.8;"/>
   </g>
   <g id="legend_1">
    <g id="patch_7">
     <path d="M 1234.3125 123.75625 
L 1289 123.75625 
Q 1291 123.75625 1291 121.75625 
L 1291 93.4 
Q 1291 91.4 1289 91.4 
L 1234.3125 91.4 
Q 1232.3125 91.4 1232.3125 93.4 
L 1232.3125 121.75625 
Q 1232.3125 123.75625 1234.3125 123.75625 
z
" style="fill:#ffffff;opacity:0.8;stroke:#cccccc;stroke-linejoin:miter;"/>
    </g>
    <g id="line2d_17">
     <path d="M 1236.3125 99.498438 
L 1256.3125 99.498438 
" style="fill:none;stroke:#000000;stroke-linecap:square;stroke-width:4;"/>
    </g>
    <g id="line2d_18"/>
    <g id="text_16">
     <!-- Pred -->
     <defs>
      <path d="M 19.671875 64.796875 
L 19.671875 37.40625 
L 32.078125 37.40625 
Q 38.96875 37.40625 42.71875 40.96875 
Q 46.484375 44.53125 46.484375 51.125 
Q 46.484375 57.671875 42.71875 61.234375 
Q 38.96875 64.796875 32.078125 64.796875 
z
M 9.8125 72.90625 
L 32.078125 72.90625 
Q 44.34375 72.90625 50.609375 67.359375 
Q 56.890625 61.8125 56.890625 51.125 
Q 56.890625 40.328125 50.609375 34.8125 
Q 44.34375 29.296875 32.078125 29.296875 
L 19.671875 29.296875 
L 19.671875 0 
L 9.8125 0 
z
" id="DejaVuSans-50"/>
      <path d="M 41.109375 46.296875 
Q 39.59375 47.171875 37.8125 47.578125 
Q 36.03125 48 33.890625 48 
Q 26.265625 48 22.1875 43.046875 
Q 18.109375 38.09375 18.109375 28.8125 
L 18.109375 0 
L 9.078125 0 
L 9.078125 54.6875 
L 18.109375 54.6875 
L 18.109375 46.1875 
Q 20.953125 51.171875 25.484375 53.578125 
Q 30.03125 56 36.53125 56 
Q 37.453125 56 38.578125 55.875 
Q 39.703125 55.765625 41.0625 55.515625 
z
" id="DejaVuSans-72"/>
      <path d="M 45.40625 46.390625 
L 45.40625 75.984375 
L 54.390625 75.984375 
L 54.390625 0 
L 45.40625 0 
L 45.40625 8.203125 
Q 42.578125 3.328125 38.25 0.953125 
Q 33.9375 -1.421875 27.875 -1.421875 
Q 17.96875 -1.421875 11.734375 6.484375 
Q 5.515625 14.40625 5.515625 27.296875 
Q 5.515625 40.1875 11.734375 48.09375 
Q 17.96875 56 27.875 56 
Q 33.9375 56 38.25 53.625 
Q 42.578125 51.265625 45.40625 46.390625 
z
M 14.796875 27.296875 
Q 14.796875 17.390625 18.875 11.75 
Q 22.953125 6.109375 30.078125 6.109375 
Q 37.203125 6.109375 41.296875 11.75 
Q 45.40625 17.390625 45.40625 27.296875 
Q 45.40625 37.203125 41.296875 42.84375 
Q 37.203125 48.484375 30.078125 48.484375 
Q 22.953125 48.484375 18.875 42.84375 
Q 14.796875 37.203125 14.796875 27.296875 
z
" id="DejaVuSans-64"/>
     </defs>
     <g transform="translate(1264.3125 102.998438)scale(0.1 -0.1)">
      <use xlink:href="#DejaVuSans-50"/>
      <use x="60.287109" xlink:href="#DejaVuSans-72"/>
      <use x="101.369141" xlink:href="#DejaVuSans-65"/>
      <use x="162.892578" xlink:href="#DejaVuSans-64"/>
     </g>
    </g>
    <g id="line2d_19">
     <path d="M 1236.3125 114.176563 
L 1256.3125 114.176563 
" style="fill:none;stroke:#ff0000;stroke-linecap:square;stroke-width:1.5;"/>
    </g>
    <g id="line2d_20"/>
    <g id="text_17">
     <!-- True -->
     <defs>
      <path d="M 8.5 21.578125 
L 8.5 54.6875 
L 17.484375 54.6875 
L 17.484375 21.921875 
Q 17.484375 14.15625 20.5 10.265625 
Q 23.53125 6.390625 29.59375 6.390625 
Q 36.859375 6.390625 41.078125 11.03125 
Q 45.3125 15.671875 45.3125 23.6875 
L 45.3125 54.6875 
L 54.296875 54.6875 
L 54.296875 0 
L 45.3125 0 
L 45.3125 8.40625 
Q 42.046875 3.421875 37.71875 1 
Q 33.40625 -1.421875 27.6875 -1.421875 
Q 18.265625 -1.421875 13.375 4.4375 
Q 8.5 10.296875 8.5 21.578125 
z
M 31.109375 56 
z
" id="DejaVuSans-75"/>
     </defs>
     <g transform="translate(1264.3125 117.676563)scale(0.1 -0.1)">
      <use xlink:href="#DejaVuSans-54"/>
      <use x="60.865234" xlink:href="#DejaVuSans-72"/>
      <use x="101.978516" xlink:href="#DejaVuSans-75"/>
      <use x="165.357422" xlink:href="#DejaVuSans-65"/>
     </g>
    </g>
   </g>
  </g>
  <g id="axes_2">
   <g id="patch_8">
    <path d="M 180 445.129412 
L 1296 445.129412 
L 1296 282.070588 
L 180 282.070588 
z
" style="fill:#ffffff;"/>
   </g>
   <g id="matplotlib.axis_3">
    <g id="xtick_10">
     <g id="line2d_21">
      <g>
       <use style="stroke:#000000;stroke-width:0.8;" x="225.629054" xlink:href="#m580dca281a" y="445.129412"/>
      </g>
     </g>
     <g id="text_18">
      <!-- 0 -->
      <g transform="translate(222.447804 459.727849)scale(0.1 -0.1)">
       <use xlink:href="#DejaVuSans-30"/>
      </g>
     </g>
    </g>
    <g id="xtick_11">
     <g id="line2d_22">
      <g>
       <use style="stroke:#000000;stroke-width:0.8;" x="353.084513" xlink:href="#m580dca281a" y="445.129412"/>
      </g>
     </g>
     <g id="text_19">
      <!-- 500 -->
      <g transform="translate(343.540763 459.727849)scale(0.1 -0.1)">
       <use xlink:href="#DejaVuSans-35"/>
       <use x="63.623047" xlink:href="#DejaVuSans-30"/>
       <use x="127.246094" xlink:href="#DejaVuSans-30"/>
      </g>
     </g>
    </g>
    <g id="xtick_12">
     <g id="line2d_23">
      <g>
       <use style="stroke:#000000;stroke-width:0.8;" x="480.539973" xlink:href="#m580dca281a" y="445.129412"/>
      </g>
     </g>
     <g id="text_20">
      <!-- 1000 -->
      <g transform="translate(467.814973 459.727849)scale(0.1 -0.1)">
       <use xlink:href="#DejaVuSans-31"/>
       <use x="63.623047" xlink:href="#DejaVuSans-30"/>
       <use x="127.246094" xlink:href="#DejaVuSans-30"/>
       <use x="190.869141" xlink:href="#DejaVuSans-30"/>
      </g>
     </g>
    </g>
    <g id="xtick_13">
     <g id="line2d_24">
      <g>
       <use style="stroke:#000000;stroke-width:0.8;" x="607.995432" xlink:href="#m580dca281a" y="445.129412"/>
      </g>
     </g>
     <g id="text_21">
      <!-- 1500 -->
      <g transform="translate(595.270432 459.727849)scale(0.1 -0.1)">
       <use xlink:href="#DejaVuSans-31"/>
       <use x="63.623047" xlink:href="#DejaVuSans-35"/>
       <use x="127.246094" xlink:href="#DejaVuSans-30"/>
       <use x="190.869141" xlink:href="#DejaVuSans-30"/>
      </g>
     </g>
    </g>
    <g id="xtick_14">
     <g id="line2d_25">
      <g>
       <use style="stroke:#000000;stroke-width:0.8;" x="735.450891" xlink:href="#m580dca281a" y="445.129412"/>
      </g>
     </g>
     <g id="text_22">
      <!-- 2000 -->
      <g transform="translate(722.725891 459.727849)scale(0.1 -0.1)">
       <use xlink:href="#DejaVuSans-32"/>
       <use x="63.623047" xlink:href="#DejaVuSans-30"/>
       <use x="127.246094" xlink:href="#DejaVuSans-30"/>
       <use x="190.869141" xlink:href="#DejaVuSans-30"/>
      </g>
     </g>
    </g>
    <g id="xtick_15">
     <g id="line2d_26">
      <g>
       <use style="stroke:#000000;stroke-width:0.8;" x="862.90635" xlink:href="#m580dca281a" y="445.129412"/>
      </g>
     </g>
     <g id="text_23">
      <!-- 2500 -->
      <g transform="translate(850.18135 459.727849)scale(0.1 -0.1)">
       <use xlink:href="#DejaVuSans-32"/>
       <use x="63.623047" xlink:href="#DejaVuSans-35"/>
       <use x="127.246094" xlink:href="#DejaVuSans-30"/>
       <use x="190.869141" xlink:href="#DejaVuSans-30"/>
      </g>
     </g>
    </g>
    <g id="xtick_16">
     <g id="line2d_27">
      <g>
       <use style="stroke:#000000;stroke-width:0.8;" x="990.361809" xlink:href="#m580dca281a" y="445.129412"/>
      </g>
     </g>
     <g id="text_24">
      <!-- 3000 -->
      <g transform="translate(977.636809 459.727849)scale(0.1 -0.1)">
       <use xlink:href="#DejaVuSans-33"/>
       <use x="63.623047" xlink:href="#DejaVuSans-30"/>
       <use x="127.246094" xlink:href="#DejaVuSans-30"/>
       <use x="190.869141" xlink:href="#DejaVuSans-30"/>
      </g>
     </g>
    </g>
    <g id="xtick_17">
     <g id="line2d_28">
      <g>
       <use style="stroke:#000000;stroke-width:0.8;" x="1117.817268" xlink:href="#m580dca281a" y="445.129412"/>
      </g>
     </g>
     <g id="text_25">
      <!-- 3500 -->
      <g transform="translate(1105.092268 459.727849)scale(0.1 -0.1)">
       <use xlink:href="#DejaVuSans-33"/>
       <use x="63.623047" xlink:href="#DejaVuSans-35"/>
       <use x="127.246094" xlink:href="#DejaVuSans-30"/>
       <use x="190.869141" xlink:href="#DejaVuSans-30"/>
      </g>
     </g>
    </g>
    <g id="xtick_18">
     <g id="line2d_29">
      <g>
       <use style="stroke:#000000;stroke-width:0.8;" x="1245.272727" xlink:href="#m580dca281a" y="445.129412"/>
      </g>
     </g>
     <g id="text_26">
      <!-- 4000 -->
      <g transform="translate(1232.547727 459.727849)scale(0.1 -0.1)">
       <use xlink:href="#DejaVuSans-34"/>
       <use x="63.623047" xlink:href="#DejaVuSans-30"/>
       <use x="127.246094" xlink:href="#DejaVuSans-30"/>
       <use x="190.869141" xlink:href="#DejaVuSans-30"/>
      </g>
     </g>
    </g>
   </g>
   <g id="matplotlib.axis_4">
    <g id="ytick_6">
     <g id="line2d_30">
      <g>
       <use style="stroke:#000000;stroke-width:0.8;" x="180" xlink:href="#me519148ce6" y="443.897766"/>
      </g>
     </g>
     <g id="text_27">
      <!-- −0.4 -->
      <defs>
       <path d="M 10.6875 12.40625 
L 21 12.40625 
L 21 0 
L 10.6875 0 
z
" id="DejaVuSans-2e"/>
      </defs>
      <g transform="translate(148.717187 447.696985)scale(0.1 -0.1)">
       <use xlink:href="#DejaVuSans-2212"/>
       <use x="83.789062" xlink:href="#DejaVuSans-30"/>
       <use x="147.412109" xlink:href="#DejaVuSans-2e"/>
       <use x="179.199219" xlink:href="#DejaVuSans-34"/>
      </g>
     </g>
    </g>
    <g id="ytick_7">
     <g id="line2d_31">
      <g>
       <use style="stroke:#000000;stroke-width:0.8;" x="180" xlink:href="#me519148ce6" y="419.577113"/>
      </g>
     </g>
     <g id="text_28">
      <!-- −0.2 -->
      <g transform="translate(148.717187 423.376332)scale(0.1 -0.1)">
       <use xlink:href="#DejaVuSans-2212"/>
       <use x="83.789062" xlink:href="#DejaVuSans-30"/>
       <use x="147.412109" xlink:href="#DejaVuSans-2e"/>
       <use x="179.199219" xlink:href="#DejaVuSans-32"/>
      </g>
     </g>
    </g>
    <g id="ytick_8">
     <g id="line2d_32">
      <g>
       <use style="stroke:#000000;stroke-width:0.8;" x="180" xlink:href="#me519148ce6" y="395.256459"/>
      </g>
     </g>
     <g id="text_29">
      <!-- 0.0 -->
      <g transform="translate(157.096875 399.055678)scale(0.1 -0.1)">
       <use xlink:href="#DejaVuSans-30"/>
       <use x="63.623047" xlink:href="#DejaVuSans-2e"/>
       <use x="95.410156" xlink:href="#DejaVuSans-30"/>
      </g>
     </g>
    </g>
    <g id="ytick_9">
     <g id="line2d_33">
      <g>
       <use style="stroke:#000000;stroke-width:0.8;" x="180" xlink:href="#me519148ce6" y="370.935806"/>
      </g>
     </g>
     <g id="text_30">
      <!-- 0.2 -->
      <g transform="translate(157.096875 374.735025)scale(0.1 -0.1)">
       <use xlink:href="#DejaVuSans-30"/>
       <use x="63.623047" xlink:href="#DejaVuSans-2e"/>
       <use x="95.410156" xlink:href="#DejaVuSans-32"/>
      </g>
     </g>
    </g>
    <g id="ytick_10">
     <g id="line2d_34">
      <g>
       <use style="stroke:#000000;stroke-width:0.8;" x="180" xlink:href="#me519148ce6" y="346.615152"/>
      </g>
     </g>
     <g id="text_31">
      <!-- 0.4 -->
      <g transform="translate(157.096875 350.414371)scale(0.1 -0.1)">
       <use xlink:href="#DejaVuSans-30"/>
       <use x="63.623047" xlink:href="#DejaVuSans-2e"/>
       <use x="95.410156" xlink:href="#DejaVuSans-34"/>
      </g>
     </g>
    </g>
    <g id="ytick_11">
     <g id="line2d_35">
      <g>
       <use style="stroke:#000000;stroke-width:0.8;" x="180" xlink:href="#me519148ce6" y="322.294499"/>
      </g>
     </g>
     <g id="text_32">
      <!-- 0.6 -->
      <defs>
       <path d="M 33.015625 40.375 
Q 26.375 40.375 22.484375 35.828125 
Q 18.609375 31.296875 18.609375 23.390625 
Q 18.609375 15.53125 22.484375 10.953125 
Q 26.375 6.390625 33.015625 6.390625 
Q 39.65625 6.390625 43.53125 10.953125 
Q 47.40625 15.53125 47.40625 23.390625 
Q 47.40625 31.296875 43.53125 35.828125 
Q 39.65625 40.375 33.015625 40.375 
z
M 52.59375 71.296875 
L 52.59375 62.3125 
Q 48.875 64.0625 45.09375 64.984375 
Q 41.3125 65.921875 37.59375 65.921875 
Q 27.828125 65.921875 22.671875 59.328125 
Q 17.53125 52.734375 16.796875 39.40625 
Q 19.671875 43.65625 24.015625 45.921875 
Q 28.375 48.1875 33.59375 48.1875 
Q 44.578125 48.1875 50.953125 41.515625 
Q 57.328125 34.859375 57.328125 23.390625 
Q 57.328125 12.15625 50.6875 5.359375 
Q 44.046875 -1.421875 33.015625 -1.421875 
Q 20.359375 -1.421875 13.671875 8.265625 
Q 6.984375 17.96875 6.984375 36.375 
Q 6.984375 53.65625 15.1875 63.9375 
Q 23.390625 74.21875 37.203125 74.21875 
Q 40.921875 74.21875 44.703125 73.484375 
Q 48.484375 72.75 52.59375 71.296875 
z
" id="DejaVuSans-36"/>
      </defs>
      <g transform="translate(157.096875 326.093718)scale(0.1 -0.1)">
       <use xlink:href="#DejaVuSans-30"/>
       <use x="63.623047" xlink:href="#DejaVuSans-2e"/>
       <use x="95.410156" xlink:href="#DejaVuSans-36"/>
      </g>
     </g>
    </g>
    <g id="ytick_12">
     <g id="line2d_36">
      <g>
       <use style="stroke:#000000;stroke-width:0.8;" x="180" xlink:href="#me519148ce6" y="297.973845"/>
      </g>
     </g>
     <g id="text_33">
      <!-- 0.8 -->
      <defs>
       <path d="M 31.78125 34.625 
Q 24.75 34.625 20.71875 30.859375 
Q 16.703125 27.09375 16.703125 20.515625 
Q 16.703125 13.921875 20.71875 10.15625 
Q 24.75 6.390625 31.78125 6.390625 
Q 38.8125 6.390625 42.859375 10.171875 
Q 46.921875 13.96875 46.921875 20.515625 
Q 46.921875 27.09375 42.890625 30.859375 
Q 38.875 34.625 31.78125 34.625 
z
M 21.921875 38.8125 
Q 15.578125 40.375 12.03125 44.71875 
Q 8.5 49.078125 8.5 55.328125 
Q 8.5 64.0625 14.71875 69.140625 
Q 20.953125 74.21875 31.78125 74.21875 
Q 42.671875 74.21875 48.875 69.140625 
Q 55.078125 64.0625 55.078125 55.328125 
Q 55.078125 49.078125 51.53125 44.71875 
Q 48 40.375 41.703125 38.8125 
Q 48.828125 37.15625 52.796875 32.3125 
Q 56.78125 27.484375 56.78125 20.515625 
Q 56.78125 9.90625 50.3125 4.234375 
Q 43.84375 -1.421875 31.78125 -1.421875 
Q 19.734375 -1.421875 13.25 4.234375 
Q 6.78125 9.90625 6.78125 20.515625 
Q 6.78125 27.484375 10.78125 32.3125 
Q 14.796875 37.15625 21.921875 38.8125 
z
M 18.3125 54.390625 
Q 18.3125 48.734375 21.84375 45.5625 
Q 25.390625 42.390625 31.78125 42.390625 
Q 38.140625 42.390625 41.71875 45.5625 
Q 45.3125 48.734375 45.3125 54.390625 
Q 45.3125 60.0625 41.71875 63.234375 
Q 38.140625 66.40625 31.78125 66.40625 
Q 25.390625 66.40625 21.84375 63.234375 
Q 18.3125 60.0625 18.3125 54.390625 
z
" id="DejaVuSans-38"/>
      </defs>
      <g transform="translate(157.096875 301.773064)scale(0.1 -0.1)">
       <use xlink:href="#DejaVuSans-30"/>
       <use x="63.623047" xlink:href="#DejaVuSans-2e"/>
       <use x="95.410156" xlink:href="#DejaVuSans-38"/>
      </g>
     </g>
    </g>
    <g id="text_34">
     <!-- TD State:1 -->
     <g transform="translate(142.6375 390.19375)rotate(-90)scale(0.1 -0.1)">
      <use xlink:href="#DejaVuSans-54"/>
      <use x="61.083984" xlink:href="#DejaVuSans-44"/>
      <use x="138.085938" xlink:href="#DejaVuSans-20"/>
      <use x="169.873047" xlink:href="#DejaVuSans-53"/>
      <use x="233.349609" xlink:href="#DejaVuSans-74"/>
      <use x="272.558594" xlink:href="#DejaVuSans-61"/>
      <use x="333.837891" xlink:href="#DejaVuSans-74"/>
      <use x="373.046875" xlink:href="#DejaVuSans-65"/>
      <use x="434.570312" xlink:href="#DejaVuSans-3a"/>
      <use x="468.261719" xlink:href="#DejaVuSans-31"/>
     </g>
    </g>
   </g>
   <g id="line2d_37">
    <path clip-path="url(#pb9402f9749)" d="M 230.727273 409.997835 
L 235.825491 395.246049 
L 240.923709 289.482353 
L 246.021928 336.657964 
L 251.120146 351.748962 
L 256.218365 392.152008 
L 261.316583 400.194739 
L 266.414801 381.840007 
L 271.51302 380.897998 
L 276.611238 390.366347 
L 281.709456 392.017469 
L 286.807675 398.407527 
L 291.905893 396.241847 
L 297.004111 389.298931 
L 302.10233 392.898782 
L 307.200548 393.314244 
L 312.298767 395.9445 
L 317.396985 395.440726 
L 322.495203 396.967644 
L 327.593422 397.76717 
L 332.69164 398.894571 
L 337.789858 401.956322 
L 342.888077 402.707517 
L 347.986295 405.974738 
L 353.084513 406.404145 
L 358.182732 412.020626 
L 363.28095 409.214618 
L 368.379169 414.041663 
L 373.477387 414.701879 
L 378.575605 416.279911 
L 383.673824 418.915791 
L 388.772042 418.356062 
L 393.87026 421.090111 
L 398.968479 416.908236 
L 404.066697 423.985474 
L 409.164915 420.523308 
L 414.263134 425.116007 
L 419.361352 424.358027 
L 424.459571 423.380285 
L 429.557789 422.778923 
L 434.656007 419.841521 
L 439.754226 428.869839 
L 444.852444 418.870215 
L 449.950662 416.333895 
L 455.048881 416.717465 
L 460.147099 414.619628 
L 465.245317 417.400238 
L 470.343536 412.328294 
L 475.441754 409.861672 
L 480.539973 410.170326 
L 485.638191 408.758334 
L 490.736409 410.455032 
L 495.834628 406.613239 
L 500.932846 392.758487 
L 506.031064 420.236109 
L 511.129283 402.355635 
L 516.227501 437.717647 
L 521.32572 430.339699 
L 526.423938 393.695698 
L 531.522156 408.600963 
L 536.620375 387.454661 
L 541.718593 411.293089 
L 546.816811 389.212069 
L 551.91503 402.68412 
L 557.013248 408.978445 
L 562.111466 406.991185 
L 567.209685 407.585241 
L 572.307903 404.833043 
L 577.406122 404.350782 
L 582.50434 404.571415 
L 587.602558 405.029032 
L 592.700777 409.2301 
L 597.798995 405.87567 
L 602.897213 408.429966 
L 607.995432 401.068949 
L 613.09365 406.587436 
L 618.191868 405.324813 
L 623.290087 410.066185 
L 628.388305 406.60112 
L 633.486524 405.687567 
L 638.584742 405.350906 
L 643.68296 403.829671 
L 648.781179 407.046387 
L 653.879397 402.542289 
L 658.977615 407.687526 
L 664.075834 408.300891 
L 669.174052 408.172454 
L 674.27227 412.132479 
L 679.370489 427.201147 
L 684.468707 388.878134 
L 689.566926 395.52495 
L 694.665144 410.972374 
L 699.763362 411.978935 
L 704.861581 410.099642 
L 709.959799 400.961851 
L 715.058017 397.757197 
L 720.156236 396.415657 
L 725.254454 406.290263 
L 730.352672 409.547452 
L 735.450891 410.133506 
L 740.549109 411.898974 
L 750.745546 411.637925 
L 755.843764 411.111074 
L 760.941983 409.469578 
L 766.040201 412.062549 
L 771.138419 408.084259 
L 776.236638 412.928554 
L 781.334856 410.486228 
L 786.433074 407.754325 
L 791.531293 407.985395 
L 796.629511 405.248389 
L 801.72773 406.97321 
L 806.825948 408.943248 
L 811.924166 408.053179 
L 817.022385 407.373654 
L 822.120603 408.58293 
L 827.218821 407.229909 
L 832.31704 409.920875 
L 837.415258 406.289973 
L 842.513476 409.28478 
L 847.611695 406.853992 
L 852.709913 407.794682 
L 857.808132 410.013477 
L 862.90635 403.973242 
L 868.004568 408.762219 
L 873.102787 403.058065 
L 878.201005 404.426278 
L 883.299223 405.123026 
L 888.397442 403.534064 
L 893.49566 406.063136 
L 898.593878 399.237784 
L 903.692097 406.91047 
L 908.790315 402.392282 
L 913.888534 404.43428 
L 918.986752 403.38829 
L 924.08497 402.596795 
L 929.183189 404.249308 
L 934.281407 402.298694 
L 939.379625 385.796002 
L 944.477844 424.05407 
L 949.576062 407.512818 
L 954.67428 395.761934 
L 959.772499 395.524718 
L 964.870717 403.990347 
L 969.968936 406.188035 
L 980.165372 410.860811 
L 985.263591 401.77422 
L 990.361809 399.439282 
L 995.460027 411.269895 
L 1000.558246 412.78539 
L 1005.656464 406.85753 
L 1010.754683 408.986273 
L 1015.852901 406.258893 
L 1020.951119 411.065672 
L 1026.049338 407.03276 
L 1031.147556 400.713733 
L 1036.245774 412.28956 
L 1041.343993 411.267517 
L 1046.442211 422.544664 
L 1051.540429 406.918066 
L 1056.638648 398.569624 
L 1061.736866 409.061654 
L 1066.835085 400.582571 
L 1071.933303 407.283661 
L 1077.031521 403.094016 
L 1082.12974 407.029165 
L 1087.227958 409.112391 
L 1092.326176 405.89121 
L 1097.424395 409.844741 
L 1102.522613 405.782372 
L 1112.71905 409.738338 
L 1117.817268 406.430064 
L 1122.915487 405.476038 
L 1128.013705 409.81772 
L 1133.111923 404.314889 
L 1138.210142 411.574142 
L 1143.30836 408.656745 
L 1148.406578 408.572377 
L 1153.504797 413.067486 
L 1158.603015 408.116557 
L 1163.701233 409.835985 
L 1168.799452 408.055905 
L 1173.89767 409.218097 
L 1178.995889 409.332096 
L 1184.094107 413.251299 
L 1189.192325 416.313832 
L 1194.290544 413.028405 
L 1199.388762 413.796357 
L 1204.48698 406.707464 
L 1209.585199 415.585193 
L 1214.683417 412.43719 
L 1219.781635 417.145684 
L 1224.879854 413.045916 
L 1229.978072 410.546069 
L 1235.076291 414.082107 
L 1240.174509 415.958848 
L 1245.272727 420.873769 
L 1245.272727 420.873769 
" style="fill:none;stroke:#000000;stroke-linecap:square;stroke-width:4;"/>
   </g>
   <g id="line2d_38">
    <path clip-path="url(#pb9402f9749)" d="M 230.727273 396.168484 
L 235.825491 396.168484 
L 240.923709 394.344435 
L 246.021928 396.168484 
L 251.120146 394.344435 
L 256.218365 396.168484 
L 261.316583 395.256459 
L 266.414801 395.256459 
L 271.51302 394.344435 
L 276.611238 396.168484 
L 281.709456 394.344435 
L 291.905893 396.168484 
L 297.004111 394.344435 
L 302.10233 396.168484 
L 307.200548 395.256459 
L 312.298767 396.168484 
L 317.396985 394.344435 
L 322.495203 396.168484 
L 327.593422 394.344435 
L 332.69164 396.168484 
L 337.789858 395.256459 
L 347.986295 395.256459 
L 353.084513 394.344435 
L 358.182732 397.080508 
L 363.28095 394.344435 
L 368.379169 395.256459 
L 373.477387 395.256459 
L 378.575605 394.344435 
L 383.673824 396.168484 
L 388.772042 395.256459 
L 393.87026 397.080508 
L 398.968479 392.520386 
L 404.066697 396.168484 
L 409.164915 394.344435 
L 414.263134 396.168484 
L 419.361352 396.168484 
L 424.459571 393.43241 
L 429.557789 395.256459 
L 439.754226 395.256459 
L 444.852444 396.168484 
L 449.950662 394.344435 
L 455.048881 395.256459 
L 465.245317 395.256459 
L 470.343536 396.168484 
L 475.441754 394.344435 
L 480.539973 394.344435 
L 485.638191 396.168484 
L 490.736409 395.256459 
L 495.834628 407.112778 
L 500.932846 383.400141 
L 506.031064 394.344435 
L 511.129283 395.256459 
L 526.423938 395.256459 
L 531.522156 396.168484 
L 536.620375 396.168484 
L 541.718593 395.256459 
L 546.816811 395.256459 
L 551.91503 394.344435 
L 557.013248 396.168484 
L 562.111466 394.344435 
L 567.209685 396.168484 
L 572.307903 395.256459 
L 577.406122 396.168484 
L 582.50434 394.344435 
L 587.602558 394.344435 
L 592.700777 396.168484 
L 597.798995 395.256459 
L 602.897213 396.168484 
L 607.995432 394.344435 
L 613.09365 395.256459 
L 618.191868 394.344435 
L 623.290087 396.168484 
L 628.388305 394.344435 
L 638.584742 396.168484 
L 643.68296 394.344435 
L 648.781179 395.256459 
L 653.879397 397.080508 
L 658.977615 393.43241 
L 664.075834 394.344435 
L 669.174052 394.344435 
L 674.27227 393.43241 
L 684.468707 395.256459 
L 689.566926 394.344435 
L 694.665144 395.256459 
L 699.763362 395.256459 
L 704.861581 394.344435 
L 709.959799 394.344435 
L 715.058017 395.256459 
L 730.352672 395.256459 
L 735.450891 394.344435 
L 740.549109 395.256459 
L 745.647328 395.256459 
L 750.745546 394.344435 
L 755.843764 397.080508 
L 760.941983 393.43241 
L 766.040201 395.256459 
L 771.138419 395.256459 
L 776.236638 394.344435 
L 786.433074 396.168484 
L 791.531293 394.344435 
L 796.629511 395.256459 
L 822.120603 395.256459 
L 827.218821 394.344435 
L 832.31704 396.168484 
L 842.513476 394.344435 
L 847.611695 396.168484 
L 852.709913 393.43241 
L 857.808132 396.168484 
L 862.90635 395.256459 
L 868.004568 395.256459 
L 873.102787 394.344435 
L 883.299223 396.168484 
L 888.397442 394.344435 
L 893.49566 396.168484 
L 898.593878 394.344435 
L 903.692097 395.256459 
L 913.888534 395.256459 
L 918.986752 396.168484 
L 924.08497 395.256459 
L 934.281407 397.080508 
L 939.379625 394.344435 
L 944.477844 396.168484 
L 949.576062 396.168484 
L 954.67428 394.344435 
L 959.772499 396.168484 
L 969.968936 394.344435 
L 975.067154 398.904557 
L 980.165372 396.168484 
L 985.263591 394.344435 
L 990.361809 395.256459 
L 995.460027 395.256459 
L 1000.558246 397.080508 
L 1005.656464 394.344435 
L 1010.754683 394.344435 
L 1015.852901 396.168484 
L 1020.951119 396.168484 
L 1026.049338 399.816582 
L 1031.147556 389.784312 
L 1036.245774 395.256459 
L 1041.343993 396.168484 
L 1046.442211 394.344435 
L 1051.540429 396.168484 
L 1056.638648 395.256459 
L 1087.227958 395.256459 
L 1092.326176 396.168484 
L 1097.424395 394.344435 
L 1102.522613 395.256459 
L 1112.71905 395.256459 
L 1117.817268 396.168484 
L 1122.915487 394.344435 
L 1128.013705 396.168484 
L 1138.210142 394.344435 
L 1143.30836 396.168484 
L 1153.504797 394.344435 
L 1158.603015 396.168484 
L 1163.701233 395.256459 
L 1168.799452 396.168484 
L 1173.89767 395.256459 
L 1178.995889 395.256459 
L 1184.094107 394.344435 
L 1189.192325 395.256459 
L 1194.290544 395.256459 
L 1199.388762 397.080508 
L 1204.48698 394.344435 
L 1209.585199 394.344435 
L 1219.781635 396.168484 
L 1224.879854 396.168484 
L 1229.978072 395.256459 
L 1235.076291 393.43241 
L 1240.174509 396.168484 
L 1245.272727 394.344435 
L 1245.272727 394.344435 
" style="fill:none;stroke:#ff0000;stroke-linecap:square;stroke-width:1.5;"/>
   </g>
   <g id="patch_9">
    <path d="M 180 445.129412 
L 180 282.070588 
" style="fill:none;stroke:#000000;stroke-linecap:square;stroke-linejoin:miter;stroke-width:0.8;"/>
   </g>
   <g id="patch_10">
    <path d="M 1296 445.129412 
L 1296 282.070588 
" style="fill:none;stroke:#000000;stroke-linecap:square;stroke-linejoin:miter;stroke-width:0.8;"/>
   </g>
   <g id="patch_11">
    <path d="M 180 445.129412 
L 1296 445.129412 
" style="fill:none;stroke:#000000;stroke-linecap:square;stroke-linejoin:miter;stroke-width:0.8;"/>
   </g>
   <g id="patch_12">
    <path d="M 180 282.070588 
L 1296 282.070588 
" style="fill:none;stroke:#000000;stroke-linecap:square;stroke-linejoin:miter;stroke-width:0.8;"/>
   </g>
   <g id="legend_2">
    <g id="patch_13">
     <path d="M 1234.3125 319.426838 
L 1289 319.426838 
Q 1291 319.426838 1291 317.426838 
L 1291 289.070588 
Q 1291 287.070588 1289 287.070588 
L 1234.3125 287.070588 
Q 1232.3125 287.070588 1232.3125 289.070588 
L 1232.3125 317.426838 
Q 1232.3125 319.426838 1234.3125 319.426838 
z
" style="fill:#ffffff;opacity:0.8;stroke:#cccccc;stroke-linejoin:miter;"/>
    </g>
    <g id="line2d_39">
     <path d="M 1236.3125 295.169026 
L 1256.3125 295.169026 
" style="fill:none;stroke:#000000;stroke-linecap:square;stroke-width:4;"/>
    </g>
    <g id="line2d_40"/>
    <g id="text_35">
     <!-- Pred -->
     <g transform="translate(1264.3125 298.669026)scale(0.1 -0.1)">
      <use xlink:href="#DejaVuSans-50"/>
      <use x="60.287109" xlink:href="#DejaVuSans-72"/>
      <use x="101.369141" xlink:href="#DejaVuSans-65"/>
      <use x="162.892578" xlink:href="#DejaVuSans-64"/>
     </g>
    </g>
    <g id="line2d_41">
     <path d="M 1236.3125 309.847151 
L 1256.3125 309.847151 
" style="fill:none;stroke:#ff0000;stroke-linecap:square;stroke-width:1.5;"/>
    </g>
    <g id="line2d_42"/>
    <g id="text_36">
     <!-- True -->
     <g transform="translate(1264.3125 313.347151)scale(0.1 -0.1)">
      <use xlink:href="#DejaVuSans-54"/>
      <use x="60.865234" xlink:href="#DejaVuSans-72"/>
      <use x="101.978516" xlink:href="#DejaVuSans-75"/>
      <use x="165.357422" xlink:href="#DejaVuSans-65"/>
     </g>
    </g>
   </g>
  </g>
  <g id="axes_3">
   <g id="patch_14">
    <path d="M 180 640.8 
L 1296 640.8 
L 1296 477.741176 
L 180 477.741176 
z
" style="fill:#ffffff;"/>
   </g>
   <g id="matplotlib.axis_5">
    <g id="xtick_19">
     <g id="line2d_43">
      <g>
       <use style="stroke:#000000;stroke-width:0.8;" x="225.629054" xlink:href="#m580dca281a" y="640.8"/>
      </g>
     </g>
     <g id="text_37">
      <!-- 0 -->
      <g transform="translate(222.447804 655.398438)scale(0.1 -0.1)">
       <use xlink:href="#DejaVuSans-30"/>
      </g>
     </g>
    </g>
    <g id="xtick_20">
     <g id="line2d_44">
      <g>
       <use style="stroke:#000000;stroke-width:0.8;" x="353.084513" xlink:href="#m580dca281a" y="640.8"/>
      </g>
     </g>
     <g id="text_38">
      <!-- 500 -->
      <g transform="translate(343.540763 655.398438)scale(0.1 -0.1)">
       <use xlink:href="#DejaVuSans-35"/>
       <use x="63.623047" xlink:href="#DejaVuSans-30"/>
       <use x="127.246094" xlink:href="#DejaVuSans-30"/>
      </g>
     </g>
    </g>
    <g id="xtick_21">
     <g id="line2d_45">
      <g>
       <use style="stroke:#000000;stroke-width:0.8;" x="480.539973" xlink:href="#m580dca281a" y="640.8"/>
      </g>
     </g>
     <g id="text_39">
      <!-- 1000 -->
      <g transform="translate(467.814973 655.398438)scale(0.1 -0.1)">
       <use xlink:href="#DejaVuSans-31"/>
       <use x="63.623047" xlink:href="#DejaVuSans-30"/>
       <use x="127.246094" xlink:href="#DejaVuSans-30"/>
       <use x="190.869141" xlink:href="#DejaVuSans-30"/>
      </g>
     </g>
    </g>
    <g id="xtick_22">
     <g id="line2d_46">
      <g>
       <use style="stroke:#000000;stroke-width:0.8;" x="607.995432" xlink:href="#m580dca281a" y="640.8"/>
      </g>
     </g>
     <g id="text_40">
      <!-- 1500 -->
      <g transform="translate(595.270432 655.398438)scale(0.1 -0.1)">
       <use xlink:href="#DejaVuSans-31"/>
       <use x="63.623047" xlink:href="#DejaVuSans-35"/>
       <use x="127.246094" xlink:href="#DejaVuSans-30"/>
       <use x="190.869141" xlink:href="#DejaVuSans-30"/>
      </g>
     </g>
    </g>
    <g id="xtick_23">
     <g id="line2d_47">
      <g>
       <use style="stroke:#000000;stroke-width:0.8;" x="735.450891" xlink:href="#m580dca281a" y="640.8"/>
      </g>
     </g>
     <g id="text_41">
      <!-- 2000 -->
      <g transform="translate(722.725891 655.398438)scale(0.1 -0.1)">
       <use xlink:href="#DejaVuSans-32"/>
       <use x="63.623047" xlink:href="#DejaVuSans-30"/>
       <use x="127.246094" xlink:href="#DejaVuSans-30"/>
       <use x="190.869141" xlink:href="#DejaVuSans-30"/>
      </g>
     </g>
    </g>
    <g id="xtick_24">
     <g id="line2d_48">
      <g>
       <use style="stroke:#000000;stroke-width:0.8;" x="862.90635" xlink:href="#m580dca281a" y="640.8"/>
      </g>
     </g>
     <g id="text_42">
      <!-- 2500 -->
      <g transform="translate(850.18135 655.398438)scale(0.1 -0.1)">
       <use xlink:href="#DejaVuSans-32"/>
       <use x="63.623047" xlink:href="#DejaVuSans-35"/>
       <use x="127.246094" xlink:href="#DejaVuSans-30"/>
       <use x="190.869141" xlink:href="#DejaVuSans-30"/>
      </g>
     </g>
    </g>
    <g id="xtick_25">
     <g id="line2d_49">
      <g>
       <use style="stroke:#000000;stroke-width:0.8;" x="990.361809" xlink:href="#m580dca281a" y="640.8"/>
      </g>
     </g>
     <g id="text_43">
      <!-- 3000 -->
      <g transform="translate(977.636809 655.398438)scale(0.1 -0.1)">
       <use xlink:href="#DejaVuSans-33"/>
       <use x="63.623047" xlink:href="#DejaVuSans-30"/>
       <use x="127.246094" xlink:href="#DejaVuSans-30"/>
       <use x="190.869141" xlink:href="#DejaVuSans-30"/>
      </g>
     </g>
    </g>
    <g id="xtick_26">
     <g id="line2d_50">
      <g>
       <use style="stroke:#000000;stroke-width:0.8;" x="1117.817268" xlink:href="#m580dca281a" y="640.8"/>
      </g>
     </g>
     <g id="text_44">
      <!-- 3500 -->
      <g transform="translate(1105.092268 655.398438)scale(0.1 -0.1)">
       <use xlink:href="#DejaVuSans-33"/>
       <use x="63.623047" xlink:href="#DejaVuSans-35"/>
       <use x="127.246094" xlink:href="#DejaVuSans-30"/>
       <use x="190.869141" xlink:href="#DejaVuSans-30"/>
      </g>
     </g>
    </g>
    <g id="xtick_27">
     <g id="line2d_51">
      <g>
       <use style="stroke:#000000;stroke-width:0.8;" x="1245.272727" xlink:href="#m580dca281a" y="640.8"/>
      </g>
     </g>
     <g id="text_45">
      <!-- 4000 -->
      <g transform="translate(1232.547727 655.398438)scale(0.1 -0.1)">
       <use xlink:href="#DejaVuSans-34"/>
       <use x="63.623047" xlink:href="#DejaVuSans-30"/>
       <use x="127.246094" xlink:href="#DejaVuSans-30"/>
       <use x="190.869141" xlink:href="#DejaVuSans-30"/>
      </g>
     </g>
    </g>
    <g id="text_46">
     <!-- Time -->
     <defs>
      <path d="M 9.421875 54.6875 
L 18.40625 54.6875 
L 18.40625 0 
L 9.421875 0 
z
M 9.421875 75.984375 
L 18.40625 75.984375 
L 18.40625 64.59375 
L 9.421875 64.59375 
z
" id="DejaVuSans-69"/>
      <path d="M 52 44.1875 
Q 55.375 50.25 60.0625 53.125 
Q 64.75 56 71.09375 56 
Q 79.640625 56 84.28125 50.015625 
Q 88.921875 44.046875 88.921875 33.015625 
L 88.921875 0 
L 79.890625 0 
L 79.890625 32.71875 
Q 79.890625 40.578125 77.09375 44.375 
Q 74.3125 48.1875 68.609375 48.1875 
Q 61.625 48.1875 57.5625 43.546875 
Q 53.515625 38.921875 53.515625 30.90625 
L 53.515625 0 
L 44.484375 0 
L 44.484375 32.71875 
Q 44.484375 40.625 41.703125 44.40625 
Q 38.921875 48.1875 33.109375 48.1875 
Q 26.21875 48.1875 22.15625 43.53125 
Q 18.109375 38.875 18.109375 30.90625 
L 18.109375 0 
L 9.078125 0 
L 9.078125 54.6875 
L 18.109375 54.6875 
L 18.109375 46.1875 
Q 21.1875 51.21875 25.484375 53.609375 
Q 29.78125 56 35.6875 56 
Q 41.65625 56 45.828125 52.96875 
Q 50 49.953125 52 44.1875 
z
" id="DejaVuSans-6d"/>
     </defs>
     <g transform="translate(725.6125 669.076563)scale(0.1 -0.1)">
      <use xlink:href="#DejaVuSans-54"/>
      <use x="61.037109" xlink:href="#DejaVuSans-69"/>
      <use x="88.820312" xlink:href="#DejaVuSans-6d"/>
      <use x="186.232422" xlink:href="#DejaVuSans-65"/>
     </g>
    </g>
   </g>
   <g id="matplotlib.axis_6">
    <g id="ytick_13">
     <g id="line2d_52">
      <g>
       <use style="stroke:#000000;stroke-width:0.8;" x="180" xlink:href="#me519148ce6" y="627.897829"/>
      </g>
     </g>
     <g id="text_47">
      <!-- −2 -->
      <g transform="translate(158.257812 631.697047)scale(0.1 -0.1)">
       <use xlink:href="#DejaVuSans-2212"/>
       <use x="83.789062" xlink:href="#DejaVuSans-32"/>
      </g>
     </g>
    </g>
    <g id="ytick_14">
     <g id="line2d_53">
      <g>
       <use style="stroke:#000000;stroke-width:0.8;" x="180" xlink:href="#me519148ce6" y="603.58191"/>
      </g>
     </g>
     <g id="text_48">
      <!-- −1 -->
      <g transform="translate(158.257812 607.381129)scale(0.1 -0.1)">
       <use xlink:href="#DejaVuSans-2212"/>
       <use x="83.789062" xlink:href="#DejaVuSans-31"/>
      </g>
     </g>
    </g>
    <g id="ytick_15">
     <g id="line2d_54">
      <g>
       <use style="stroke:#000000;stroke-width:0.8;" x="180" xlink:href="#me519148ce6" y="579.265992"/>
      </g>
     </g>
     <g id="text_49">
      <!-- 0 -->
      <g transform="translate(166.6375 583.065211)scale(0.1 -0.1)">
       <use xlink:href="#DejaVuSans-30"/>
      </g>
     </g>
    </g>
    <g id="ytick_16">
     <g id="line2d_55">
      <g>
       <use style="stroke:#000000;stroke-width:0.8;" x="180" xlink:href="#me519148ce6" y="554.950074"/>
      </g>
     </g>
     <g id="text_50">
      <!-- 1 -->
      <g transform="translate(166.6375 558.749292)scale(0.1 -0.1)">
       <use xlink:href="#DejaVuSans-31"/>
      </g>
     </g>
    </g>
    <g id="ytick_17">
     <g id="line2d_56">
      <g>
       <use style="stroke:#000000;stroke-width:0.8;" x="180" xlink:href="#me519148ce6" y="530.634155"/>
      </g>
     </g>
     <g id="text_51">
      <!-- 2 -->
      <g transform="translate(166.6375 534.433374)scale(0.1 -0.1)">
       <use xlink:href="#DejaVuSans-32"/>
      </g>
     </g>
    </g>
    <g id="ytick_18">
     <g id="line2d_57">
      <g>
       <use style="stroke:#000000;stroke-width:0.8;" x="180" xlink:href="#me519148ce6" y="506.318237"/>
      </g>
     </g>
     <g id="text_52">
      <!-- 3 -->
      <g transform="translate(166.6375 510.117456)scale(0.1 -0.1)">
       <use xlink:href="#DejaVuSans-33"/>
      </g>
     </g>
    </g>
    <g id="ytick_19">
     <g id="line2d_58">
      <g>
       <use style="stroke:#000000;stroke-width:0.8;" x="180" xlink:href="#me519148ce6" y="482.002319"/>
      </g>
     </g>
     <g id="text_53">
      <!-- 4 -->
      <g transform="translate(166.6375 485.801537)scale(0.1 -0.1)">
       <use xlink:href="#DejaVuSans-34"/>
      </g>
     </g>
    </g>
    <g id="text_54">
     <!-- Control Input -->
     <defs>
      <path d="M 64.40625 67.28125 
L 64.40625 56.890625 
Q 59.421875 61.53125 53.78125 63.8125 
Q 48.140625 66.109375 41.796875 66.109375 
Q 29.296875 66.109375 22.65625 58.46875 
Q 16.015625 50.828125 16.015625 36.375 
Q 16.015625 21.96875 22.65625 14.328125 
Q 29.296875 6.6875 41.796875 6.6875 
Q 48.140625 6.6875 53.78125 8.984375 
Q 59.421875 11.28125 64.40625 15.921875 
L 64.40625 5.609375 
Q 59.234375 2.09375 53.4375 0.328125 
Q 47.65625 -1.421875 41.21875 -1.421875 
Q 24.65625 -1.421875 15.125 8.703125 
Q 5.609375 18.84375 5.609375 36.375 
Q 5.609375 53.953125 15.125 64.078125 
Q 24.65625 74.21875 41.21875 74.21875 
Q 47.75 74.21875 53.53125 72.484375 
Q 59.328125 70.75 64.40625 67.28125 
z
" id="DejaVuSans-43"/>
      <path d="M 30.609375 48.390625 
Q 23.390625 48.390625 19.1875 42.75 
Q 14.984375 37.109375 14.984375 27.296875 
Q 14.984375 17.484375 19.15625 11.84375 
Q 23.34375 6.203125 30.609375 6.203125 
Q 37.796875 6.203125 41.984375 11.859375 
Q 46.1875 17.53125 46.1875 27.296875 
Q 46.1875 37.015625 41.984375 42.703125 
Q 37.796875 48.390625 30.609375 48.390625 
z
M 30.609375 56 
Q 42.328125 56 49.015625 48.375 
Q 55.71875 40.765625 55.71875 27.296875 
Q 55.71875 13.875 49.015625 6.21875 
Q 42.328125 -1.421875 30.609375 -1.421875 
Q 18.84375 -1.421875 12.171875 6.21875 
Q 5.515625 13.875 5.515625 27.296875 
Q 5.515625 40.765625 12.171875 48.375 
Q 18.84375 56 30.609375 56 
z
" id="DejaVuSans-6f"/>
      <path d="M 54.890625 33.015625 
L 54.890625 0 
L 45.90625 0 
L 45.90625 32.71875 
Q 45.90625 40.484375 42.875 44.328125 
Q 39.84375 48.1875 33.796875 48.1875 
Q 26.515625 48.1875 22.3125 43.546875 
Q 18.109375 38.921875 18.109375 30.90625 
L 18.109375 0 
L 9.078125 0 
L 9.078125 54.6875 
L 18.109375 54.6875 
L 18.109375 46.1875 
Q 21.34375 51.125 25.703125 53.5625 
Q 30.078125 56 35.796875 56 
Q 45.21875 56 50.046875 50.171875 
Q 54.890625 44.34375 54.890625 33.015625 
z
" id="DejaVuSans-6e"/>
      <path d="M 9.421875 75.984375 
L 18.40625 75.984375 
L 18.40625 0 
L 9.421875 0 
z
" id="DejaVuSans-6c"/>
      <path d="M 9.8125 72.90625 
L 19.671875 72.90625 
L 19.671875 0 
L 9.8125 0 
z
" id="DejaVuSans-49"/>
      <path d="M 18.109375 8.203125 
L 18.109375 -20.796875 
L 9.078125 -20.796875 
L 9.078125 54.6875 
L 18.109375 54.6875 
L 18.109375 46.390625 
Q 20.953125 51.265625 25.265625 53.625 
Q 29.59375 56 35.59375 56 
Q 45.5625 56 51.78125 48.09375 
Q 58.015625 40.1875 58.015625 27.296875 
Q 58.015625 14.40625 51.78125 6.484375 
Q 45.5625 -1.421875 35.59375 -1.421875 
Q 29.59375 -1.421875 25.265625 0.953125 
Q 20.953125 3.328125 18.109375 8.203125 
z
M 48.6875 27.296875 
Q 48.6875 37.203125 44.609375 42.84375 
Q 40.53125 48.484375 33.40625 48.484375 
Q 26.265625 48.484375 22.1875 42.84375 
Q 18.109375 37.203125 18.109375 27.296875 
Q 18.109375 17.390625 22.1875 11.75 
Q 26.265625 6.109375 33.40625 6.109375 
Q 40.53125 6.109375 44.609375 11.75 
Q 48.6875 17.390625 48.6875 27.296875 
z
" id="DejaVuSans-70"/>
     </defs>
     <g transform="translate(152.178125 591.988557)rotate(-90)scale(0.1 -0.1)">
      <use xlink:href="#DejaVuSans-43"/>
      <use x="69.824219" xlink:href="#DejaVuSans-6f"/>
      <use x="131.005859" xlink:href="#DejaVuSans-6e"/>
      <use x="194.384766" xlink:href="#DejaVuSans-74"/>
      <use x="233.59375" xlink:href="#DejaVuSans-72"/>
      <use x="274.675781" xlink:href="#DejaVuSans-6f"/>
      <use x="335.857422" xlink:href="#DejaVuSans-6c"/>
      <use x="363.640625" xlink:href="#DejaVuSans-20"/>
      <use x="395.427734" xlink:href="#DejaVuSans-49"/>
      <use x="424.919922" xlink:href="#DejaVuSans-6e"/>
      <use x="488.298828" xlink:href="#DejaVuSans-70"/>
      <use x="551.775391" xlink:href="#DejaVuSans-75"/>
      <use x="615.154297" xlink:href="#DejaVuSans-74"/>
     </g>
    </g>
   </g>
   <g id="line2d_59">
    <path clip-path="url(#p5ca91274ca)" d="M 230.727273 492.750163 
L 235.825491 493.919343 
L 240.923709 493.751704 
L 251.120146 493.204148 
L 256.218365 491.285889 
L 261.316583 491.177831 
L 266.414801 491.545938 
L 271.51302 492.076689 
L 276.611238 491.800626 
L 281.709456 492.193637 
L 286.807675 487.54845 
L 291.905893 491.415953 
L 297.004111 492.399283 
L 302.10233 491.481543 
L 307.200548 491.801373 
L 312.298767 490.576495 
L 317.396985 490.081831 
L 322.495203 489.369455 
L 327.593422 489.902175 
L 332.69164 489.092321 
L 337.789858 488.719306 
L 342.888077 489.386633 
L 347.986295 489.685847 
L 353.084513 490.113754 
L 358.182732 490.964074 
L 363.28095 490.125936 
L 368.379169 488.896286 
L 373.477387 488.029132 
L 378.575605 489.721055 
L 383.673824 488.199077 
L 388.772042 487.54715 
L 393.87026 487.589614 
L 398.968479 486.529232 
L 404.066697 489.673961 
L 409.164915 488.135692 
L 414.263134 485.824264 
L 419.361352 485.152941 
L 424.459571 490.772816 
L 429.557789 489.106708 
L 434.656007 489.315614 
L 444.852444 490.782601 
L 449.950662 490.453119 
L 455.048881 489.037322 
L 465.245317 488.453479 
L 470.343536 488.587442 
L 475.441754 490.986446 
L 480.539973 491.363371 
L 485.638191 491.135325 
L 490.736409 492.780337 
L 495.834628 491.760648 
L 500.932846 490.063753 
L 506.031064 489.276958 
L 511.129283 488.30214 
L 516.227501 489.889196 
L 521.32572 489.613843 
L 526.423938 490.434998 
L 531.522156 490.337437 
L 536.620375 488.488953 
L 541.718593 493.709188 
L 546.816811 491.394042 
L 551.91503 490.987777 
L 557.013248 491.645997 
L 562.111466 490.692954 
L 567.209685 489.192178 
L 572.307903 491.22928 
L 577.406122 492.403355 
L 582.50434 492.445246 
L 587.602558 491.672357 
L 592.700777 491.684459 
L 597.798995 490.671356 
L 602.897213 491.030752 
L 607.995432 491.773863 
L 613.09365 492.770986 
L 618.191868 491.320477 
L 623.290087 491.376959 
L 628.388305 492.205604 
L 633.486524 490.768515 
L 638.584742 491.249684 
L 643.68296 489.919552 
L 648.781179 493.00008 
L 653.879397 492.5985 
L 658.977615 491.676767 
L 669.174052 490.791904 
L 674.27227 491.760756 
L 679.370489 570.082247 
L 684.468707 601.185451 
L 689.566926 599.952099 
L 694.665144 600.421564 
L 699.763362 601.57914 
L 704.861581 602.921675 
L 709.959799 606.010927 
L 715.058017 607.005547 
L 720.156236 608.710876 
L 725.254454 611.257565 
L 735.450891 613.383169 
L 740.549109 614.212937 
L 745.647328 614.602232 
L 750.745546 612.954682 
L 755.843764 613.235115 
L 760.941983 614.032981 
L 766.040201 614.540156 
L 771.138419 614.414566 
L 776.236638 612.429545 
L 781.334856 612.607572 
L 786.433074 615.497175 
L 791.531293 615.826795 
L 796.629511 617.023058 
L 801.72773 616.813611 
L 806.825948 617.862129 
L 811.924166 618.340703 
L 817.022385 617.830041 
L 822.120603 619.390713 
L 827.218821 619.54416 
L 832.31704 621.679073 
L 837.415258 621.536013 
L 842.513476 623.124869 
L 852.709913 626.039062 
L 857.808132 626.554234 
L 862.90635 625.781145 
L 868.004568 627.727003 
L 873.102787 630.238086 
L 878.201005 630.190606 
L 883.299223 627.275026 
L 888.397442 625.211286 
L 893.49566 628.234258 
L 898.593878 626.528029 
L 903.692097 626.654598 
L 913.888534 628.320234 
L 918.986752 628.535283 
L 924.08497 631.609496 
L 929.183189 633.380038 
L 934.281407 633.388235 
L 939.379625 551.793519 
L 944.477844 537.779012 
L 949.576062 538.315064 
L 954.67428 536.596638 
L 959.772499 535.16665 
L 964.870717 533.084153 
L 969.968936 532.431936 
L 975.067154 534.209936 
L 980.165372 533.219207 
L 985.263591 531.566286 
L 990.361809 528.122364 
L 995.460027 528.512652 
L 1000.558246 529.947058 
L 1005.656464 529.663438 
L 1010.754683 528.970223 
L 1020.951119 528.298915 
L 1026.049338 528.227756 
L 1031.147556 527.736689 
L 1036.245774 524.626456 
L 1041.343993 523.237345 
L 1046.442211 523.570548 
L 1051.540429 523.109697 
L 1056.638648 518.970672 
L 1061.736866 518.845389 
L 1071.933303 520.39416 
L 1077.031521 520.499525 
L 1082.12974 520.2287 
L 1087.227958 520.922196 
L 1092.326176 517.649913 
L 1097.424395 520.9196 
L 1102.522613 517.02928 
L 1107.620831 516.328794 
L 1112.71905 516.353476 
L 1117.817268 514.755739 
L 1122.915487 511.332494 
L 1128.013705 515.878526 
L 1133.111923 513.104887 
L 1138.210142 514.699559 
L 1143.30836 515.249283 
L 1148.406578 511.885836 
L 1153.504797 511.529527 
L 1158.603015 512.252046 
L 1163.701233 512.467981 
L 1168.799452 509.241289 
L 1173.89767 510.762153 
L 1178.995889 504.971293 
L 1184.094107 503.86381 
L 1189.192325 506.535945 
L 1194.290544 507.238068 
L 1199.388762 514.585445 
L 1204.48698 507.738976 
L 1209.585199 511.808001 
L 1214.683417 511.892095 
L 1219.781635 515.195068 
L 1224.879854 513.133718 
L 1229.978072 513.444749 
L 1235.076291 511.587282 
L 1240.174509 509.176074 
L 1245.272727 511.534277 
L 1245.272727 511.534277 
" style="fill:none;stroke:#ff0000;stroke-linecap:square;stroke-width:1.5;"/>
   </g>
   <g id="patch_15">
    <path d="M 180 640.8 
L 180 477.741176 
" style="fill:none;stroke:#000000;stroke-linecap:square;stroke-linejoin:miter;stroke-width:0.8;"/>
   </g>
   <g id="patch_16">
    <path d="M 1296 640.8 
L 1296 477.741176 
" style="fill:none;stroke:#000000;stroke-linecap:square;stroke-linejoin:miter;stroke-width:0.8;"/>
   </g>
   <g id="patch_17">
    <path d="M 180 640.8 
L 1296 640.8 
" style="fill:none;stroke:#000000;stroke-linecap:square;stroke-linejoin:miter;stroke-width:0.8;"/>
   </g>
   <g id="patch_18">
    <path d="M 180 477.741176 
L 1296 477.741176 
" style="fill:none;stroke:#000000;stroke-linecap:square;stroke-linejoin:miter;stroke-width:0.8;"/>
   </g>
   <g id="legend_3">
    <g id="patch_19">
     <path d="M 1194.742188 500.419301 
L 1289 500.419301 
Q 1291 500.419301 1291 498.419301 
L 1291 484.741176 
Q 1291 482.741176 1289 482.741176 
L 1194.742188 482.741176 
Q 1192.742188 482.741176 1192.742188 484.741176 
L 1192.742188 498.419301 
Q 1192.742188 500.419301 1194.742188 500.419301 
z
" style="fill:#ffffff;opacity:0.8;stroke:#cccccc;stroke-linejoin:miter;"/>
    </g>
    <g id="line2d_60">
     <path d="M 1196.742188 490.839614 
L 1216.742188 490.839614 
" style="fill:none;stroke:#ff0000;stroke-linecap:square;stroke-width:1.5;"/>
    </g>
    <g id="line2d_61"/>
    <g id="text_55">
     <!-- ControlInput -->
     <g transform="translate(1224.742188 494.339614)scale(0.1 -0.1)">
      <use xlink:href="#DejaVuSans-43"/>
      <use x="69.824219" xlink:href="#DejaVuSans-6f"/>
      <use x="131.005859" xlink:href="#DejaVuSans-6e"/>
      <use x="194.384766" xlink:href="#DejaVuSans-74"/>
      <use x="233.59375" xlink:href="#DejaVuSans-72"/>
      <use x="274.675781" xlink:href="#DejaVuSans-6f"/>
      <use x="335.857422" xlink:href="#DejaVuSans-6c"/>
      <use x="363.640625" xlink:href="#DejaVuSans-49"/>
      <use x="393.132812" xlink:href="#DejaVuSans-6e"/>
      <use x="456.511719" xlink:href="#DejaVuSans-70"/>
      <use x="519.988281" xlink:href="#DejaVuSans-75"/>
      <use x="583.367188" xlink:href="#DejaVuSans-74"/>
     </g>
    </g>
   </g>
  </g>
 </g>
 <defs>
  <clipPath id="pa916e2f572">
   <rect height="163.058824" width="1116" x="180" y="86.4"/>
  </clipPath>
  <clipPath id="pb9402f9749">
   <rect height="163.058824" width="1116" x="180" y="282.070588"/>
  </clipPath>
  <clipPath id="p5ca91274ca">
   <rect height="163.058824" width="1116" x="180" y="477.741176"/>
  </clipPath>
 </defs>
</svg>
