<?xml version="1.0" encoding="utf-8" standalone="no"?>
<!DOCTYPE svg PUBLIC "-//W3C//DTD SVG 1.1//EN"
  "http://www.w3.org/Graphics/SVG/1.1/DTD/svg11.dtd">
<!-- Created with matplotlib (http://matplotlib.org/) -->
<svg height="720pt" version="1.1" viewBox="0 0 1440 720" width="1440pt" xmlns="http://www.w3.org/2000/svg" xmlns:xlink="http://www.w3.org/1999/xlink">
 <defs>
  <style type="text/css">
*{stroke-linecap:butt;stroke-linejoin:round;}
  </style>
 </defs>
 <g id="figure_1">
  <g id="patch_1">
   <path d="M 0 720 
L 1440 720 
L 1440 0 
L 0 0 
z
" style="fill:#ffffff;"/>
  </g>
  <g id="axes_1">
   <g id="patch_2">
    <path d="M 180 249.458824 
L 1296 249.458824 
L 1296 86.4 
L 180 86.4 
z
" style="fill:#ffffff;"/>
   </g>
   <g id="matplotlib.axis_1">
    <g id="xtick_1">
     <g id="line2d_1">
      <defs>
       <path d="M 0 0 
L 0 3.5 
" id="m6a6769a454" style="stroke:#000000;stroke-width:0.8;"/>
      </defs>
      <g>
       <use style="stroke:#000000;stroke-width:0.8;" x="225.629054" xlink:href="#m6a6769a454" y="249.458824"/>
      </g>
     </g>
     <g id="text_1">
      <!-- 0 -->
      <defs>
       <path d="M 31.78125 66.40625 
Q 24.171875 66.40625 20.328125 58.90625 
Q 16.5 51.421875 16.5 36.375 
Q 16.5 21.390625 20.328125 13.890625 
Q 24.171875 6.390625 31.78125 6.390625 
Q 39.453125 6.390625 43.28125 13.890625 
Q 47.125 21.390625 47.125 36.375 
Q 47.125 51.421875 43.28125 58.90625 
Q 39.453125 66.40625 31.78125 66.40625 
z
M 31.78125 74.21875 
Q 44.046875 74.21875 50.515625 64.515625 
Q 56.984375 54.828125 56.984375 36.375 
Q 56.984375 17.96875 50.515625 8.265625 
Q 44.046875 -1.421875 31.78125 -1.421875 
Q 19.53125 -1.421875 13.0625 8.265625 
Q 6.59375 17.96875 6.59375 36.375 
Q 6.59375 54.828125 13.0625 64.515625 
Q 19.53125 74.21875 31.78125 74.21875 
z
" id="DejaVuSans-30"/>
      </defs>
      <g transform="translate(222.447804 264.057261)scale(0.1 -0.1)">
       <use xlink:href="#DejaVuSans-30"/>
      </g>
     </g>
    </g>
    <g id="xtick_2">
     <g id="line2d_2">
      <g>
       <use style="stroke:#000000;stroke-width:0.8;" x="353.084513" xlink:href="#m6a6769a454" y="249.458824"/>
      </g>
     </g>
     <g id="text_2">
      <!-- 500 -->
      <defs>
       <path d="M 10.796875 72.90625 
L 49.515625 72.90625 
L 49.515625 64.59375 
L 19.828125 64.59375 
L 19.828125 46.734375 
Q 21.96875 47.46875 24.109375 47.828125 
Q 26.265625 48.1875 28.421875 48.1875 
Q 40.625 48.1875 47.75 41.5 
Q 54.890625 34.8125 54.890625 23.390625 
Q 54.890625 11.625 47.5625 5.09375 
Q 40.234375 -1.421875 26.90625 -1.421875 
Q 22.3125 -1.421875 17.546875 -0.640625 
Q 12.796875 0.140625 7.71875 1.703125 
L 7.71875 11.625 
Q 12.109375 9.234375 16.796875 8.0625 
Q 21.484375 6.890625 26.703125 6.890625 
Q 35.15625 6.890625 40.078125 11.328125 
Q 45.015625 15.765625 45.015625 23.390625 
Q 45.015625 31 40.078125 35.4375 
Q 35.15625 39.890625 26.703125 39.890625 
Q 22.75 39.890625 18.8125 39.015625 
Q 14.890625 38.140625 10.796875 36.28125 
z
" id="DejaVuSans-35"/>
      </defs>
      <g transform="translate(343.540763 264.057261)scale(0.1 -0.1)">
       <use xlink:href="#DejaVuSans-35"/>
       <use x="63.623047" xlink:href="#DejaVuSans-30"/>
       <use x="127.246094" xlink:href="#DejaVuSans-30"/>
      </g>
     </g>
    </g>
    <g id="xtick_3">
     <g id="line2d_3">
      <g>
       <use style="stroke:#000000;stroke-width:0.8;" x="480.539973" xlink:href="#m6a6769a454" y="249.458824"/>
      </g>
     </g>
     <g id="text_3">
      <!-- 1000 -->
      <defs>
       <path d="M 12.40625 8.296875 
L 28.515625 8.296875 
L 28.515625 63.921875 
L 10.984375 60.40625 
L 10.984375 69.390625 
L 28.421875 72.90625 
L 38.28125 72.90625 
L 38.28125 8.296875 
L 54.390625 8.296875 
L 54.390625 0 
L 12.40625 0 
z
" id="DejaVuSans-31"/>
      </defs>
      <g transform="translate(467.814973 264.057261)scale(0.1 -0.1)">
       <use xlink:href="#DejaVuSans-31"/>
       <use x="63.623047" xlink:href="#DejaVuSans-30"/>
       <use x="127.246094" xlink:href="#DejaVuSans-30"/>
       <use x="190.869141" xlink:href="#DejaVuSans-30"/>
      </g>
     </g>
    </g>
    <g id="xtick_4">
     <g id="line2d_4">
      <g>
       <use style="stroke:#000000;stroke-width:0.8;" x="607.995432" xlink:href="#m6a6769a454" y="249.458824"/>
      </g>
     </g>
     <g id="text_4">
      <!-- 1500 -->
      <g transform="translate(595.270432 264.057261)scale(0.1 -0.1)">
       <use xlink:href="#DejaVuSans-31"/>
       <use x="63.623047" xlink:href="#DejaVuSans-35"/>
       <use x="127.246094" xlink:href="#DejaVuSans-30"/>
       <use x="190.869141" xlink:href="#DejaVuSans-30"/>
      </g>
     </g>
    </g>
    <g id="xtick_5">
     <g id="line2d_5">
      <g>
       <use style="stroke:#000000;stroke-width:0.8;" x="735.450891" xlink:href="#m6a6769a454" y="249.458824"/>
      </g>
     </g>
     <g id="text_5">
      <!-- 2000 -->
      <defs>
       <path d="M 19.1875 8.296875 
L 53.609375 8.296875 
L 53.609375 0 
L 7.328125 0 
L 7.328125 8.296875 
Q 12.9375 14.109375 22.625 23.890625 
Q 32.328125 33.6875 34.8125 36.53125 
Q 39.546875 41.84375 41.421875 45.53125 
Q 43.3125 49.21875 43.3125 52.78125 
Q 43.3125 58.59375 39.234375 62.25 
Q 35.15625 65.921875 28.609375 65.921875 
Q 23.96875 65.921875 18.8125 64.3125 
Q 13.671875 62.703125 7.8125 59.421875 
L 7.8125 69.390625 
Q 13.765625 71.78125 18.9375 73 
Q 24.125 74.21875 28.421875 74.21875 
Q 39.75 74.21875 46.484375 68.546875 
Q 53.21875 62.890625 53.21875 53.421875 
Q 53.21875 48.921875 51.53125 44.890625 
Q 49.859375 40.875 45.40625 35.40625 
Q 44.1875 33.984375 37.640625 27.21875 
Q 31.109375 20.453125 19.1875 8.296875 
z
" id="DejaVuSans-32"/>
      </defs>
      <g transform="translate(722.725891 264.057261)scale(0.1 -0.1)">
       <use xlink:href="#DejaVuSans-32"/>
       <use x="63.623047" xlink:href="#DejaVuSans-30"/>
       <use x="127.246094" xlink:href="#DejaVuSans-30"/>
       <use x="190.869141" xlink:href="#DejaVuSans-30"/>
      </g>
     </g>
    </g>
    <g id="xtick_6">
     <g id="line2d_6">
      <g>
       <use style="stroke:#000000;stroke-width:0.8;" x="862.90635" xlink:href="#m6a6769a454" y="249.458824"/>
      </g>
     </g>
     <g id="text_6">
      <!-- 2500 -->
      <g transform="translate(850.18135 264.057261)scale(0.1 -0.1)">
       <use xlink:href="#DejaVuSans-32"/>
       <use x="63.623047" xlink:href="#DejaVuSans-35"/>
       <use x="127.246094" xlink:href="#DejaVuSans-30"/>
       <use x="190.869141" xlink:href="#DejaVuSans-30"/>
      </g>
     </g>
    </g>
    <g id="xtick_7">
     <g id="line2d_7">
      <g>
       <use style="stroke:#000000;stroke-width:0.8;" x="990.361809" xlink:href="#m6a6769a454" y="249.458824"/>
      </g>
     </g>
     <g id="text_7">
      <!-- 3000 -->
      <defs>
       <path d="M 40.578125 39.3125 
Q 47.65625 37.796875 51.625 33 
Q 55.609375 28.21875 55.609375 21.1875 
Q 55.609375 10.40625 48.1875 4.484375 
Q 40.765625 -1.421875 27.09375 -1.421875 
Q 22.515625 -1.421875 17.65625 -0.515625 
Q 12.796875 0.390625 7.625 2.203125 
L 7.625 11.71875 
Q 11.71875 9.328125 16.59375 8.109375 
Q 21.484375 6.890625 26.8125 6.890625 
Q 36.078125 6.890625 40.9375 10.546875 
Q 45.796875 14.203125 45.796875 21.1875 
Q 45.796875 27.640625 41.28125 31.265625 
Q 36.765625 34.90625 28.71875 34.90625 
L 20.21875 34.90625 
L 20.21875 43.015625 
L 29.109375 43.015625 
Q 36.375 43.015625 40.234375 45.921875 
Q 44.09375 48.828125 44.09375 54.296875 
Q 44.09375 59.90625 40.109375 62.90625 
Q 36.140625 65.921875 28.71875 65.921875 
Q 24.65625 65.921875 20.015625 65.03125 
Q 15.375 64.15625 9.8125 62.3125 
L 9.8125 71.09375 
Q 15.4375 72.65625 20.34375 73.4375 
Q 25.25 74.21875 29.59375 74.21875 
Q 40.828125 74.21875 47.359375 69.109375 
Q 53.90625 64.015625 53.90625 55.328125 
Q 53.90625 49.265625 50.4375 45.09375 
Q 46.96875 40.921875 40.578125 39.3125 
z
" id="DejaVuSans-33"/>
      </defs>
      <g transform="translate(977.636809 264.057261)scale(0.1 -0.1)">
       <use xlink:href="#DejaVuSans-33"/>
       <use x="63.623047" xlink:href="#DejaVuSans-30"/>
       <use x="127.246094" xlink:href="#DejaVuSans-30"/>
       <use x="190.869141" xlink:href="#DejaVuSans-30"/>
      </g>
     </g>
    </g>
    <g id="xtick_8">
     <g id="line2d_8">
      <g>
       <use style="stroke:#000000;stroke-width:0.8;" x="1117.817268" xlink:href="#m6a6769a454" y="249.458824"/>
      </g>
     </g>
     <g id="text_8">
      <!-- 3500 -->
      <g transform="translate(1105.092268 264.057261)scale(0.1 -0.1)">
       <use xlink:href="#DejaVuSans-33"/>
       <use x="63.623047" xlink:href="#DejaVuSans-35"/>
       <use x="127.246094" xlink:href="#DejaVuSans-30"/>
       <use x="190.869141" xlink:href="#DejaVuSans-30"/>
      </g>
     </g>
    </g>
    <g id="xtick_9">
     <g id="line2d_9">
      <g>
       <use style="stroke:#000000;stroke-width:0.8;" x="1245.272727" xlink:href="#m6a6769a454" y="249.458824"/>
      </g>
     </g>
     <g id="text_9">
      <!-- 4000 -->
      <defs>
       <path d="M 37.796875 64.3125 
L 12.890625 25.390625 
L 37.796875 25.390625 
z
M 35.203125 72.90625 
L 47.609375 72.90625 
L 47.609375 25.390625 
L 58.015625 25.390625 
L 58.015625 17.1875 
L 47.609375 17.1875 
L 47.609375 0 
L 37.796875 0 
L 37.796875 17.1875 
L 4.890625 17.1875 
L 4.890625 26.703125 
z
" id="DejaVuSans-34"/>
      </defs>
      <g transform="translate(1232.547727 264.057261)scale(0.1 -0.1)">
       <use xlink:href="#DejaVuSans-34"/>
       <use x="63.623047" xlink:href="#DejaVuSans-30"/>
       <use x="127.246094" xlink:href="#DejaVuSans-30"/>
       <use x="190.869141" xlink:href="#DejaVuSans-30"/>
      </g>
     </g>
    </g>
   </g>
   <g id="matplotlib.axis_2">
    <g id="ytick_1">
     <g id="line2d_10">
      <defs>
       <path d="M 0 0 
L -3.5 0 
" id="m4b9f12387d" style="stroke:#000000;stroke-width:0.8;"/>
      </defs>
      <g>
       <use style="stroke:#000000;stroke-width:0.8;" x="180" xlink:href="#m4b9f12387d" y="236.345701"/>
      </g>
     </g>
     <g id="text_10">
      <!-- −3 -->
      <defs>
       <path d="M 10.59375 35.5 
L 73.1875 35.5 
L 73.1875 27.203125 
L 10.59375 27.203125 
z
" id="DejaVuSans-2212"/>
      </defs>
      <g transform="translate(158.257812 240.14492)scale(0.1 -0.1)">
       <use xlink:href="#DejaVuSans-2212"/>
       <use x="83.789062" xlink:href="#DejaVuSans-33"/>
      </g>
     </g>
    </g>
    <g id="ytick_2">
     <g id="line2d_11">
      <g>
       <use style="stroke:#000000;stroke-width:0.8;" x="180" xlink:href="#m4b9f12387d" y="198.336652"/>
      </g>
     </g>
     <g id="text_11">
      <!-- −2 -->
      <g transform="translate(158.257812 202.13587)scale(0.1 -0.1)">
       <use xlink:href="#DejaVuSans-2212"/>
       <use x="83.789062" xlink:href="#DejaVuSans-32"/>
      </g>
     </g>
    </g>
    <g id="ytick_3">
     <g id="line2d_12">
      <g>
       <use style="stroke:#000000;stroke-width:0.8;" x="180" xlink:href="#m4b9f12387d" y="160.327602"/>
      </g>
     </g>
     <g id="text_12">
      <!-- −1 -->
      <g transform="translate(158.257812 164.126821)scale(0.1 -0.1)">
       <use xlink:href="#DejaVuSans-2212"/>
       <use x="83.789062" xlink:href="#DejaVuSans-31"/>
      </g>
     </g>
    </g>
    <g id="ytick_4">
     <g id="line2d_13">
      <g>
       <use style="stroke:#000000;stroke-width:0.8;" x="180" xlink:href="#m4b9f12387d" y="122.318552"/>
      </g>
     </g>
     <g id="text_13">
      <!-- 0 -->
      <g transform="translate(166.6375 126.117771)scale(0.1 -0.1)">
       <use xlink:href="#DejaVuSans-30"/>
      </g>
     </g>
    </g>
    <g id="text_14">
     <!-- TD State:0 -->
     <defs>
      <path d="M -0.296875 72.90625 
L 61.375 72.90625 
L 61.375 64.59375 
L 35.5 64.59375 
L 35.5 0 
L 25.59375 0 
L 25.59375 64.59375 
L -0.296875 64.59375 
z
" id="DejaVuSans-54"/>
      <path d="M 19.671875 64.796875 
L 19.671875 8.109375 
L 31.59375 8.109375 
Q 46.6875 8.109375 53.6875 14.9375 
Q 60.6875 21.78125 60.6875 36.53125 
Q 60.6875 51.171875 53.6875 57.984375 
Q 46.6875 64.796875 31.59375 64.796875 
z
M 9.8125 72.90625 
L 30.078125 72.90625 
Q 51.265625 72.90625 61.171875 64.09375 
Q 71.09375 55.28125 71.09375 36.53125 
Q 71.09375 17.671875 61.125 8.828125 
Q 51.171875 0 30.078125 0 
L 9.8125 0 
z
" id="DejaVuSans-44"/>
      <path id="DejaVuSans-20"/>
      <path d="M 53.515625 70.515625 
L 53.515625 60.890625 
Q 47.90625 63.578125 42.921875 64.890625 
Q 37.9375 66.21875 33.296875 66.21875 
Q 25.25 66.21875 20.875 63.09375 
Q 16.5 59.96875 16.5 54.203125 
Q 16.5 49.359375 19.40625 46.890625 
Q 22.3125 44.4375 30.421875 42.921875 
L 36.375 41.703125 
Q 47.40625 39.59375 52.65625 34.296875 
Q 57.90625 29 57.90625 20.125 
Q 57.90625 9.515625 50.796875 4.046875 
Q 43.703125 -1.421875 29.984375 -1.421875 
Q 24.8125 -1.421875 18.96875 -0.25 
Q 13.140625 0.921875 6.890625 3.21875 
L 6.890625 13.375 
Q 12.890625 10.015625 18.65625 8.296875 
Q 24.421875 6.59375 29.984375 6.59375 
Q 38.421875 6.59375 43.015625 9.90625 
Q 47.609375 13.234375 47.609375 19.390625 
Q 47.609375 24.75 44.3125 27.78125 
Q 41.015625 30.8125 33.5 32.328125 
L 27.484375 33.5 
Q 16.453125 35.6875 11.515625 40.375 
Q 6.59375 45.0625 6.59375 53.421875 
Q 6.59375 63.09375 13.40625 68.65625 
Q 20.21875 74.21875 32.171875 74.21875 
Q 37.3125 74.21875 42.625 73.28125 
Q 47.953125 72.359375 53.515625 70.515625 
z
" id="DejaVuSans-53"/>
      <path d="M 18.3125 70.21875 
L 18.3125 54.6875 
L 36.8125 54.6875 
L 36.8125 47.703125 
L 18.3125 47.703125 
L 18.3125 18.015625 
Q 18.3125 11.328125 20.140625 9.421875 
Q 21.96875 7.515625 27.59375 7.515625 
L 36.8125 7.515625 
L 36.8125 0 
L 27.59375 0 
Q 17.1875 0 13.234375 3.875 
Q 9.28125 7.765625 9.28125 18.015625 
L 9.28125 47.703125 
L 2.6875 47.703125 
L 2.6875 54.6875 
L 9.28125 54.6875 
L 9.28125 70.21875 
z
" id="DejaVuSans-74"/>
      <path d="M 34.28125 27.484375 
Q 23.390625 27.484375 19.1875 25 
Q 14.984375 22.515625 14.984375 16.5 
Q 14.984375 11.71875 18.140625 8.90625 
Q 21.296875 6.109375 26.703125 6.109375 
Q 34.1875 6.109375 38.703125 11.40625 
Q 43.21875 16.703125 43.21875 25.484375 
L 43.21875 27.484375 
z
M 52.203125 31.203125 
L 52.203125 0 
L 43.21875 0 
L 43.21875 8.296875 
Q 40.140625 3.328125 35.546875 0.953125 
Q 30.953125 -1.421875 24.3125 -1.421875 
Q 15.921875 -1.421875 10.953125 3.296875 
Q 6 8.015625 6 15.921875 
Q 6 25.140625 12.171875 29.828125 
Q 18.359375 34.515625 30.609375 34.515625 
L 43.21875 34.515625 
L 43.21875 35.40625 
Q 43.21875 41.609375 39.140625 45 
Q 35.0625 48.390625 27.6875 48.390625 
Q 23 48.390625 18.546875 47.265625 
Q 14.109375 46.140625 10.015625 43.890625 
L 10.015625 52.203125 
Q 14.9375 54.109375 19.578125 55.046875 
Q 24.21875 56 28.609375 56 
Q 40.484375 56 46.34375 49.84375 
Q 52.203125 43.703125 52.203125 31.203125 
z
" id="DejaVuSans-61"/>
      <path d="M 56.203125 29.59375 
L 56.203125 25.203125 
L 14.890625 25.203125 
Q 15.484375 15.921875 20.484375 11.0625 
Q 25.484375 6.203125 34.421875 6.203125 
Q 39.59375 6.203125 44.453125 7.46875 
Q 49.3125 8.734375 54.109375 11.28125 
L 54.109375 2.78125 
Q 49.265625 0.734375 44.1875 -0.34375 
Q 39.109375 -1.421875 33.890625 -1.421875 
Q 20.796875 -1.421875 13.15625 6.1875 
Q 5.515625 13.8125 5.515625 26.8125 
Q 5.515625 40.234375 12.765625 48.109375 
Q 20.015625 56 32.328125 56 
Q 43.359375 56 49.78125 48.890625 
Q 56.203125 41.796875 56.203125 29.59375 
z
M 47.21875 32.234375 
Q 47.125 39.59375 43.09375 43.984375 
Q 39.0625 48.390625 32.421875 48.390625 
Q 24.90625 48.390625 20.390625 44.140625 
Q 15.875 39.890625 15.1875 32.171875 
z
" id="DejaVuSans-65"/>
      <path d="M 11.71875 12.40625 
L 22.015625 12.40625 
L 22.015625 0 
L 11.71875 0 
z
M 11.71875 51.703125 
L 22.015625 51.703125 
L 22.015625 39.3125 
L 11.71875 39.3125 
z
" id="DejaVuSans-3a"/>
     </defs>
     <g transform="translate(152.178125 194.523162)rotate(-90)scale(0.1 -0.1)">
      <use xlink:href="#DejaVuSans-54"/>
      <use x="61.083984" xlink:href="#DejaVuSans-44"/>
      <use x="138.085938" xlink:href="#DejaVuSans-20"/>
      <use x="169.873047" xlink:href="#DejaVuSans-53"/>
      <use x="233.349609" xlink:href="#DejaVuSans-74"/>
      <use x="272.558594" xlink:href="#DejaVuSans-61"/>
      <use x="333.837891" xlink:href="#DejaVuSans-74"/>
      <use x="373.046875" xlink:href="#DejaVuSans-65"/>
      <use x="434.570312" xlink:href="#DejaVuSans-3a"/>
      <use x="468.261719" xlink:href="#DejaVuSans-30"/>
     </g>
    </g>
   </g>
   <g id="line2d_14">
    <path clip-path="url(#p4f6981df96)" d="M 230.727273 156.733852 
L 235.825491 157.355397 
L 240.923709 156.258133 
L 246.021928 156.574963 
L 251.120146 155.482341 
L 256.218365 156.254766 
L 261.316583 155.751421 
L 266.414801 155.091304 
L 271.51302 153.719849 
L 276.611238 153.996969 
L 281.709456 152.670863 
L 286.807675 153.728643 
L 291.905893 152.641576 
L 297.004111 151.121116 
L 302.10233 151.609502 
L 307.200548 150.965278 
L 312.298767 151.487418 
L 317.396985 150.386192 
L 322.495203 150.739599 
L 327.593422 149.300128 
L 332.69164 149.685626 
L 337.789858 149.202147 
L 342.888077 148.376151 
L 347.986295 147.671354 
L 353.084513 146.266387 
L 358.182732 146.763102 
L 363.28095 145.707598 
L 368.379169 145.506144 
L 373.477387 145.185347 
L 378.575605 143.364232 
L 383.673824 143.984184 
L 388.772042 143.592528 
L 393.87026 144.287847 
L 398.968479 141.922557 
L 404.066697 141.006084 
L 409.164915 140.248448 
L 414.263134 141.128313 
L 419.361352 141.400834 
L 424.459571 137.561358 
L 429.557789 137.570968 
L 434.656007 136.963266 
L 439.754226 136.179327 
L 444.852444 136.060236 
L 449.950662 134.904628 
L 455.048881 134.831828 
L 465.245317 133.946199 
L 470.343536 134.020963 
L 475.441754 131.967056 
L 480.539973 130.646244 
L 485.638191 130.907558 
L 490.736409 129.827048 
L 495.834628 138.175156 
L 500.932846 128.767831 
L 506.031064 127.830151 
L 511.129283 127.679531 
L 516.227501 126.685466 
L 521.32572 126.304562 
L 526.423938 125.562656 
L 531.522156 125.781011 
L 536.620375 126.508461 
L 541.718593 124.183505 
L 546.816811 124.339434 
L 551.91503 123.209105 
L 557.013248 123.111273 
L 562.111466 122.160956 
L 567.209685 122.77393 
L 572.307903 121.496967 
L 577.406122 121.161931 
L 582.50434 120.958672 
L 715.058017 119.814933 
L 781.334856 119.862312 
L 908.790315 120.295512 
L 934.281407 120.405247 
L 939.379625 120.583395 
L 954.67428 120.635533 
L 990.361809 120.628825 
L 1077.031521 120.251112 
L 1214.683417 119.469567 
L 1245.272727 119.256589 
L 1245.272727 119.256589 
" style="fill:none;stroke:#000000;stroke-linecap:square;stroke-width:4;"/>
   </g>
   <g id="line2d_15">
    <path clip-path="url(#p4f6981df96)" d="M 230.727273 162.228054 
L 235.825491 167.929412 
L 240.923709 162.228054 
L 246.021928 167.929412 
L 251.120146 162.228054 
L 256.218365 167.929412 
L 266.414801 167.929412 
L 271.51302 162.228054 
L 276.611238 167.929412 
L 281.709456 162.228054 
L 286.807675 162.228054 
L 291.905893 167.929412 
L 297.004111 162.228054 
L 302.10233 167.929412 
L 307.200548 167.929412 
L 312.298767 173.630769 
L 317.396985 167.929412 
L 322.495203 173.630769 
L 327.593422 167.929412 
L 332.69164 173.630769 
L 347.986295 173.630769 
L 353.084513 167.929412 
L 358.182732 179.332127 
L 363.28095 173.630769 
L 373.477387 173.630769 
L 378.575605 167.929412 
L 383.673824 173.630769 
L 388.772042 173.630769 
L 393.87026 185.033484 
L 398.968479 167.929412 
L 404.066697 173.630769 
L 409.164915 167.929412 
L 419.361352 179.332127 
L 424.459571 167.929412 
L 439.754226 167.929412 
L 444.852444 173.630769 
L 449.950662 167.929412 
L 465.245317 167.929412 
L 470.343536 173.630769 
L 480.539973 162.228054 
L 485.638191 167.929412 
L 490.736409 167.929412 
L 495.834628 242.047059 
L 500.932846 167.929412 
L 506.031064 162.228054 
L 526.423938 162.228054 
L 536.620375 173.630769 
L 546.816811 173.630769 
L 551.91503 167.929412 
L 557.013248 173.630769 
L 562.111466 167.929412 
L 567.209685 173.630769 
L 572.307903 173.630769 
L 577.406122 179.332127 
L 587.602558 167.929412 
L 592.700777 173.630769 
L 597.798995 173.630769 
L 602.897213 179.332127 
L 607.995432 173.630769 
L 613.09365 173.630769 
L 618.191868 167.929412 
L 623.290087 173.630769 
L 628.388305 167.929412 
L 633.486524 167.929412 
L 638.584742 173.630769 
L 643.68296 167.929412 
L 648.781179 167.929412 
L 653.879397 179.332127 
L 658.977615 167.929412 
L 669.174052 156.526697 
L 674.27227 145.123982 
L 679.370489 139.422624 
L 684.468707 139.422624 
L 689.566926 133.721267 
L 699.763362 133.721267 
L 709.959799 122.318552 
L 730.352672 122.318552 
L 735.450891 116.617195 
L 745.647328 116.617195 
L 750.745546 110.915837 
L 755.843764 122.318552 
L 760.941983 110.915837 
L 771.138419 110.915837 
L 776.236638 105.21448 
L 781.334856 105.21448 
L 786.433074 110.915837 
L 791.531293 105.21448 
L 822.120603 105.21448 
L 827.218821 99.513122 
L 832.31704 105.21448 
L 837.415258 105.21448 
L 842.513476 99.513122 
L 847.611695 105.21448 
L 852.709913 93.811765 
L 857.808132 99.513122 
L 868.004568 99.513122 
L 873.102787 93.811765 
L 878.201005 93.811765 
L 883.299223 99.513122 
L 888.397442 93.811765 
L 893.49566 99.513122 
L 898.593878 93.811765 
L 913.888534 93.811765 
L 918.986752 99.513122 
L 924.08497 99.513122 
L 929.183189 105.21448 
L 934.281407 116.617195 
L 939.379625 110.915837 
L 949.576062 122.318552 
L 954.67428 116.617195 
L 959.772499 122.318552 
L 964.870717 122.318552 
L 969.968936 116.617195 
L 975.067154 139.422624 
L 980.165372 145.123982 
L 985.263591 139.422624 
L 995.460027 139.422624 
L 1000.558246 150.825339 
L 1010.754683 139.422624 
L 1020.951119 150.825339 
L 1026.049338 179.332127 
L 1031.147556 145.123982 
L 1036.245774 145.123982 
L 1041.343993 150.825339 
L 1046.442211 145.123982 
L 1051.540429 150.825339 
L 1087.227958 150.825339 
L 1092.326176 156.526697 
L 1097.424395 150.825339 
L 1112.71905 150.825339 
L 1117.817268 156.526697 
L 1122.915487 150.825339 
L 1128.013705 156.526697 
L 1133.111923 156.526697 
L 1138.210142 150.825339 
L 1143.30836 156.526697 
L 1148.406578 156.526697 
L 1153.504797 150.825339 
L 1158.603015 156.526697 
L 1163.701233 156.526697 
L 1168.799452 162.228054 
L 1178.995889 162.228054 
L 1184.094107 156.526697 
L 1194.290544 156.526697 
L 1199.388762 167.929412 
L 1209.585199 156.526697 
L 1214.683417 156.526697 
L 1224.879854 167.929412 
L 1229.978072 167.929412 
L 1235.076291 156.526697 
L 1240.174509 162.228054 
L 1245.272727 156.526697 
L 1245.272727 156.526697 
" style="fill:none;stroke:#ff0000;stroke-linecap:square;stroke-width:1.5;"/>
   </g>
   <g id="patch_3">
    <path d="M 180 249.458824 
L 180 86.4 
" style="fill:none;stroke:#000000;stroke-linecap:square;stroke-linejoin:miter;stroke-width:0.8;"/>
   </g>
   <g id="patch_4">
    <path d="M 1296 249.458824 
L 1296 86.4 
" style="fill:none;stroke:#000000;stroke-linecap:square;stroke-linejoin:miter;stroke-width:0.8;"/>
   </g>
   <g id="patch_5">
    <path d="M 180 249.458824 
L 1296 249.458824 
" style="fill:none;stroke:#000000;stroke-linecap:square;stroke-linejoin:miter;stroke-width:0.8;"/>
   </g>
   <g id="patch_6">
    <path d="M 180 86.4 
L 1296 86.4 
" style="fill:none;stroke:#000000;stroke-linecap:square;stroke-linejoin:miter;stroke-width:0.8;"/>
   </g>
   <g id="legend_1">
    <g id="patch_7">
     <path d="M 1234.3125 123.75625 
L 1289 123.75625 
Q 1291 123.75625 1291 121.75625 
L 1291 93.4 
Q 1291 91.4 1289 91.4 
L 1234.3125 91.4 
Q 1232.3125 91.4 1232.3125 93.4 
L 1232.3125 121.75625 
Q 1232.3125 123.75625 1234.3125 123.75625 
z
" style="fill:#ffffff;opacity:0.8;stroke:#cccccc;stroke-linejoin:miter;"/>
    </g>
    <g id="line2d_16">
     <path d="M 1236.3125 99.498438 
L 1256.3125 99.498438 
" style="fill:none;stroke:#000000;stroke-linecap:square;stroke-width:4;"/>
    </g>
    <g id="line2d_17"/>
    <g id="text_15">
     <!-- Pred -->
     <defs>
      <path d="M 19.671875 64.796875 
L 19.671875 37.40625 
L 32.078125 37.40625 
Q 38.96875 37.40625 42.71875 40.96875 
Q 46.484375 44.53125 46.484375 51.125 
Q 46.484375 57.671875 42.71875 61.234375 
Q 38.96875 64.796875 32.078125 64.796875 
z
M 9.8125 72.90625 
L 32.078125 72.90625 
Q 44.34375 72.90625 50.609375 67.359375 
Q 56.890625 61.8125 56.890625 51.125 
Q 56.890625 40.328125 50.609375 34.8125 
Q 44.34375 29.296875 32.078125 29.296875 
L 19.671875 29.296875 
L 19.671875 0 
L 9.8125 0 
z
" id="DejaVuSans-50"/>
      <path d="M 41.109375 46.296875 
Q 39.59375 47.171875 37.8125 47.578125 
Q 36.03125 48 33.890625 48 
Q 26.265625 48 22.1875 43.046875 
Q 18.109375 38.09375 18.109375 28.8125 
L 18.109375 0 
L 9.078125 0 
L 9.078125 54.6875 
L 18.109375 54.6875 
L 18.109375 46.1875 
Q 20.953125 51.171875 25.484375 53.578125 
Q 30.03125 56 36.53125 56 
Q 37.453125 56 38.578125 55.875 
Q 39.703125 55.765625 41.0625 55.515625 
z
" id="DejaVuSans-72"/>
      <path d="M 45.40625 46.390625 
L 45.40625 75.984375 
L 54.390625 75.984375 
L 54.390625 0 
L 45.40625 0 
L 45.40625 8.203125 
Q 42.578125 3.328125 38.25 0.953125 
Q 33.9375 -1.421875 27.875 -1.421875 
Q 17.96875 -1.421875 11.734375 6.484375 
Q 5.515625 14.40625 5.515625 27.296875 
Q 5.515625 40.1875 11.734375 48.09375 
Q 17.96875 56 27.875 56 
Q 33.9375 56 38.25 53.625 
Q 42.578125 51.265625 45.40625 46.390625 
z
M 14.796875 27.296875 
Q 14.796875 17.390625 18.875 11.75 
Q 22.953125 6.109375 30.078125 6.109375 
Q 37.203125 6.109375 41.296875 11.75 
Q 45.40625 17.390625 45.40625 27.296875 
Q 45.40625 37.203125 41.296875 42.84375 
Q 37.203125 48.484375 30.078125 48.484375 
Q 22.953125 48.484375 18.875 42.84375 
Q 14.796875 37.203125 14.796875 27.296875 
z
" id="DejaVuSans-64"/>
     </defs>
     <g transform="translate(1264.3125 102.998438)scale(0.1 -0.1)">
      <use xlink:href="#DejaVuSans-50"/>
      <use x="60.287109" xlink:href="#DejaVuSans-72"/>
      <use x="101.369141" xlink:href="#DejaVuSans-65"/>
      <use x="162.892578" xlink:href="#DejaVuSans-64"/>
     </g>
    </g>
    <g id="line2d_18">
     <path d="M 1236.3125 114.176563 
L 1256.3125 114.176563 
" style="fill:none;stroke:#ff0000;stroke-linecap:square;stroke-width:1.5;"/>
    </g>
    <g id="line2d_19"/>
    <g id="text_16">
     <!-- True -->
     <defs>
      <path d="M 8.5 21.578125 
L 8.5 54.6875 
L 17.484375 54.6875 
L 17.484375 21.921875 
Q 17.484375 14.15625 20.5 10.265625 
Q 23.53125 6.390625 29.59375 6.390625 
Q 36.859375 6.390625 41.078125 11.03125 
Q 45.3125 15.671875 45.3125 23.6875 
L 45.3125 54.6875 
L 54.296875 54.6875 
L 54.296875 0 
L 45.3125 0 
L 45.3125 8.40625 
Q 42.046875 3.421875 37.71875 1 
Q 33.40625 -1.421875 27.6875 -1.421875 
Q 18.265625 -1.421875 13.375 4.4375 
Q 8.5 10.296875 8.5 21.578125 
z
M 31.109375 56 
z
" id="DejaVuSans-75"/>
     </defs>
     <g transform="translate(1264.3125 117.676563)scale(0.1 -0.1)">
      <use xlink:href="#DejaVuSans-54"/>
      <use x="60.865234" xlink:href="#DejaVuSans-72"/>
      <use x="101.978516" xlink:href="#DejaVuSans-75"/>
      <use x="165.357422" xlink:href="#DejaVuSans-65"/>
     </g>
    </g>
   </g>
  </g>
  <g id="axes_2">
   <g id="patch_8">
    <path d="M 180 445.129412 
L 1296 445.129412 
L 1296 282.070588 
L 180 282.070588 
z
" style="fill:#ffffff;"/>
   </g>
   <g id="matplotlib.axis_3">
    <g id="xtick_10">
     <g id="line2d_20">
      <g>
       <use style="stroke:#000000;stroke-width:0.8;" x="225.629054" xlink:href="#m6a6769a454" y="445.129412"/>
      </g>
     </g>
     <g id="text_17">
      <!-- 0 -->
      <g transform="translate(222.447804 459.727849)scale(0.1 -0.1)">
       <use xlink:href="#DejaVuSans-30"/>
      </g>
     </g>
    </g>
    <g id="xtick_11">
     <g id="line2d_21">
      <g>
       <use style="stroke:#000000;stroke-width:0.8;" x="353.084513" xlink:href="#m6a6769a454" y="445.129412"/>
      </g>
     </g>
     <g id="text_18">
      <!-- 500 -->
      <g transform="translate(343.540763 459.727849)scale(0.1 -0.1)">
       <use xlink:href="#DejaVuSans-35"/>
       <use x="63.623047" xlink:href="#DejaVuSans-30"/>
       <use x="127.246094" xlink:href="#DejaVuSans-30"/>
      </g>
     </g>
    </g>
    <g id="xtick_12">
     <g id="line2d_22">
      <g>
       <use style="stroke:#000000;stroke-width:0.8;" x="480.539973" xlink:href="#m6a6769a454" y="445.129412"/>
      </g>
     </g>
     <g id="text_19">
      <!-- 1000 -->
      <g transform="translate(467.814973 459.727849)scale(0.1 -0.1)">
       <use xlink:href="#DejaVuSans-31"/>
       <use x="63.623047" xlink:href="#DejaVuSans-30"/>
       <use x="127.246094" xlink:href="#DejaVuSans-30"/>
       <use x="190.869141" xlink:href="#DejaVuSans-30"/>
      </g>
     </g>
    </g>
    <g id="xtick_13">
     <g id="line2d_23">
      <g>
       <use style="stroke:#000000;stroke-width:0.8;" x="607.995432" xlink:href="#m6a6769a454" y="445.129412"/>
      </g>
     </g>
     <g id="text_20">
      <!-- 1500 -->
      <g transform="translate(595.270432 459.727849)scale(0.1 -0.1)">
       <use xlink:href="#DejaVuSans-31"/>
       <use x="63.623047" xlink:href="#DejaVuSans-35"/>
       <use x="127.246094" xlink:href="#DejaVuSans-30"/>
       <use x="190.869141" xlink:href="#DejaVuSans-30"/>
      </g>
     </g>
    </g>
    <g id="xtick_14">
     <g id="line2d_24">
      <g>
       <use style="stroke:#000000;stroke-width:0.8;" x="735.450891" xlink:href="#m6a6769a454" y="445.129412"/>
      </g>
     </g>
     <g id="text_21">
      <!-- 2000 -->
      <g transform="translate(722.725891 459.727849)scale(0.1 -0.1)">
       <use xlink:href="#DejaVuSans-32"/>
       <use x="63.623047" xlink:href="#DejaVuSans-30"/>
       <use x="127.246094" xlink:href="#DejaVuSans-30"/>
       <use x="190.869141" xlink:href="#DejaVuSans-30"/>
      </g>
     </g>
    </g>
    <g id="xtick_15">
     <g id="line2d_25">
      <g>
       <use style="stroke:#000000;stroke-width:0.8;" x="862.90635" xlink:href="#m6a6769a454" y="445.129412"/>
      </g>
     </g>
     <g id="text_22">
      <!-- 2500 -->
      <g transform="translate(850.18135 459.727849)scale(0.1 -0.1)">
       <use xlink:href="#DejaVuSans-32"/>
       <use x="63.623047" xlink:href="#DejaVuSans-35"/>
       <use x="127.246094" xlink:href="#DejaVuSans-30"/>
       <use x="190.869141" xlink:href="#DejaVuSans-30"/>
      </g>
     </g>
    </g>
    <g id="xtick_16">
     <g id="line2d_26">
      <g>
       <use style="stroke:#000000;stroke-width:0.8;" x="990.361809" xlink:href="#m6a6769a454" y="445.129412"/>
      </g>
     </g>
     <g id="text_23">
      <!-- 3000 -->
      <g transform="translate(977.636809 459.727849)scale(0.1 -0.1)">
       <use xlink:href="#DejaVuSans-33"/>
       <use x="63.623047" xlink:href="#DejaVuSans-30"/>
       <use x="127.246094" xlink:href="#DejaVuSans-30"/>
       <use x="190.869141" xlink:href="#DejaVuSans-30"/>
      </g>
     </g>
    </g>
    <g id="xtick_17">
     <g id="line2d_27">
      <g>
       <use style="stroke:#000000;stroke-width:0.8;" x="1117.817268" xlink:href="#m6a6769a454" y="445.129412"/>
      </g>
     </g>
     <g id="text_24">
      <!-- 3500 -->
      <g transform="translate(1105.092268 459.727849)scale(0.1 -0.1)">
       <use xlink:href="#DejaVuSans-33"/>
       <use x="63.623047" xlink:href="#DejaVuSans-35"/>
       <use x="127.246094" xlink:href="#DejaVuSans-30"/>
       <use x="190.869141" xlink:href="#DejaVuSans-30"/>
      </g>
     </g>
    </g>
    <g id="xtick_18">
     <g id="line2d_28">
      <g>
       <use style="stroke:#000000;stroke-width:0.8;" x="1245.272727" xlink:href="#m6a6769a454" y="445.129412"/>
      </g>
     </g>
     <g id="text_25">
      <!-- 4000 -->
      <g transform="translate(1232.547727 459.727849)scale(0.1 -0.1)">
       <use xlink:href="#DejaVuSans-34"/>
       <use x="63.623047" xlink:href="#DejaVuSans-30"/>
       <use x="127.246094" xlink:href="#DejaVuSans-30"/>
       <use x="190.869141" xlink:href="#DejaVuSans-30"/>
      </g>
     </g>
    </g>
   </g>
   <g id="matplotlib.axis_4">
    <g id="ytick_5">
     <g id="line2d_29">
      <g>
       <use style="stroke:#000000;stroke-width:0.8;" x="180" xlink:href="#m4b9f12387d" y="438.584509"/>
      </g>
     </g>
     <g id="text_26">
      <!-- −0.1 -->
      <defs>
       <path d="M 10.6875 12.40625 
L 21 12.40625 
L 21 0 
L 10.6875 0 
z
" id="DejaVuSans-2e"/>
      </defs>
      <g transform="translate(148.717187 442.383728)scale(0.1 -0.1)">
       <use xlink:href="#DejaVuSans-2212"/>
       <use x="83.789062" xlink:href="#DejaVuSans-30"/>
       <use x="147.412109" xlink:href="#DejaVuSans-2e"/>
       <use x="179.199219" xlink:href="#DejaVuSans-31"/>
      </g>
     </g>
    </g>
    <g id="ytick_6">
     <g id="line2d_30">
      <g>
       <use style="stroke:#000000;stroke-width:0.8;" x="180" xlink:href="#m4b9f12387d" y="403.910039"/>
      </g>
     </g>
     <g id="text_27">
      <!-- 0.0 -->
      <g transform="translate(157.096875 407.709258)scale(0.1 -0.1)">
       <use xlink:href="#DejaVuSans-30"/>
       <use x="63.623047" xlink:href="#DejaVuSans-2e"/>
       <use x="95.410156" xlink:href="#DejaVuSans-30"/>
      </g>
     </g>
    </g>
    <g id="ytick_7">
     <g id="line2d_31">
      <g>
       <use style="stroke:#000000;stroke-width:0.8;" x="180" xlink:href="#m4b9f12387d" y="369.23557"/>
      </g>
     </g>
     <g id="text_28">
      <!-- 0.1 -->
      <g transform="translate(157.096875 373.034789)scale(0.1 -0.1)">
       <use xlink:href="#DejaVuSans-30"/>
       <use x="63.623047" xlink:href="#DejaVuSans-2e"/>
       <use x="95.410156" xlink:href="#DejaVuSans-31"/>
      </g>
     </g>
    </g>
    <g id="ytick_8">
     <g id="line2d_32">
      <g>
       <use style="stroke:#000000;stroke-width:0.8;" x="180" xlink:href="#m4b9f12387d" y="334.5611"/>
      </g>
     </g>
     <g id="text_29">
      <!-- 0.2 -->
      <g transform="translate(157.096875 338.360319)scale(0.1 -0.1)">
       <use xlink:href="#DejaVuSans-30"/>
       <use x="63.623047" xlink:href="#DejaVuSans-2e"/>
       <use x="95.410156" xlink:href="#DejaVuSans-32"/>
      </g>
     </g>
    </g>
    <g id="ytick_9">
     <g id="line2d_33">
      <g>
       <use style="stroke:#000000;stroke-width:0.8;" x="180" xlink:href="#m4b9f12387d" y="299.886631"/>
      </g>
     </g>
     <g id="text_30">
      <!-- 0.3 -->
      <g transform="translate(157.096875 303.68585)scale(0.1 -0.1)">
       <use xlink:href="#DejaVuSans-30"/>
       <use x="63.623047" xlink:href="#DejaVuSans-2e"/>
       <use x="95.410156" xlink:href="#DejaVuSans-33"/>
      </g>
     </g>
    </g>
    <g id="text_31">
     <!-- TD State:1 -->
     <g transform="translate(142.6375 390.19375)rotate(-90)scale(0.1 -0.1)">
      <use xlink:href="#DejaVuSans-54"/>
      <use x="61.083984" xlink:href="#DejaVuSans-44"/>
      <use x="138.085938" xlink:href="#DejaVuSans-20"/>
      <use x="169.873047" xlink:href="#DejaVuSans-53"/>
      <use x="233.349609" xlink:href="#DejaVuSans-74"/>
      <use x="272.558594" xlink:href="#DejaVuSans-61"/>
      <use x="333.837891" xlink:href="#DejaVuSans-74"/>
      <use x="373.046875" xlink:href="#DejaVuSans-65"/>
      <use x="434.570312" xlink:href="#DejaVuSans-3a"/>
      <use x="468.261719" xlink:href="#DejaVuSans-31"/>
     </g>
    </g>
   </g>
   <g id="line2d_34">
    <path clip-path="url(#p3bf267b756)" d="M 230.727273 289.482353 
L 235.825491 312.962249 
L 240.923709 316.208942 
L 246.021928 315.27147 
L 251.120146 322.282388 
L 256.218365 329.85299 
L 261.316583 330.839429 
L 266.414801 332.306213 
L 271.51302 336.711227 
L 276.611238 334.617129 
L 281.709456 338.883158 
L 286.807675 335.155597 
L 291.905893 337.241521 
L 297.004111 342.103092 
L 302.10233 339.361629 
L 307.200548 340.779761 
L 312.298767 337.86546 
L 317.396985 341.372911 
L 322.495203 338.975651 
L 327.593422 343.519577 
L 332.69164 341.023882 
L 337.789858 341.879996 
L 342.888077 343.785537 
L 347.986295 345.31977 
L 353.084513 349.75795 
L 358.182732 346.163169 
L 363.28095 349.460942 
L 368.379169 349.45284 
L 373.477387 349.810477 
L 378.575605 355.52376 
L 383.673824 352.30968 
L 388.772042 352.884436 
L 393.87026 348.611452 
L 398.968479 357.37028 
L 404.066697 358.864061 
L 409.164915 361.318839 
L 414.263134 357.308293 
L 419.361352 355.089384 
L 424.459571 367.676264 
L 429.557789 367.091009 
L 434.656007 368.397119 
L 439.754226 370.243386 
L 444.852444 369.293777 
L 449.950662 372.967922 
L 455.048881 372.635267 
L 465.245317 374.23713 
L 470.343536 372.693617 
L 475.441754 379.120314 
L 480.539973 383.369919 
L 485.638191 381.324347 
L 490.736409 384.079391 
L 495.834628 348.082403 
L 500.932846 385.309712 
L 506.031064 388.385518 
L 511.129283 388.360789 
L 516.227501 390.920322 
L 521.32572 391.601022 
L 526.423938 393.387888 
L 531.522156 391.473916 
L 536.620375 387.930634 
L 541.718593 394.429092 
L 546.816811 393.326061 
L 551.91503 396.922816 
L 557.013248 395.908133 
L 562.111466 398.953144 
L 567.209685 395.760523 
L 572.307903 399.047883 
L 577.406122 398.690531 
L 582.50434 399.497113 
L 587.602558 399.878829 
L 592.700777 398.661451 
L 597.798995 398.193777 
L 602.897213 396.942716 
L 607.995432 397.339522 
L 613.09365 396.954459 
L 618.191868 397.308206 
L 623.290087 396.092533 
L 628.388305 396.539612 
L 633.486524 396.101761 
L 638.584742 394.903766 
L 643.68296 395.262306 
L 648.781179 395.01005 
L 653.879397 392.936549 
L 658.977615 394.103937 
L 669.174052 395.036235 
L 674.27227 396.470652 
L 679.370489 400.336934 
L 684.468707 401.471803 
L 689.566926 402.118776 
L 699.763362 401.995765 
L 704.861581 402.795522 
L 709.959799 403.714415 
L 730.352672 403.973436 
L 735.450891 404.856216 
L 745.647328 405.000942 
L 750.745546 405.820565 
L 755.843764 404.247604 
L 760.941983 405.958972 
L 771.138419 406.164242 
L 776.236638 407.016813 
L 781.334856 407.166155 
L 786.433074 406.587322 
L 791.531293 407.534903 
L 811.924166 408.206241 
L 822.120603 408.532935 
L 827.218821 409.520581 
L 832.31704 408.958733 
L 837.415258 409.094501 
L 842.513476 410.141455 
L 847.611695 409.55122 
L 852.709913 411.431477 
L 857.808132 410.850107 
L 862.90635 411.007716 
L 868.004568 411.27698 
L 873.102787 412.408722 
L 878.201005 412.643612 
L 883.299223 411.921159 
L 888.397442 412.865039 
L 893.49566 412.386619 
L 898.593878 413.345157 
L 913.888534 414.128996 
L 918.986752 413.535014 
L 924.08497 413.850606 
L 929.183189 413.273193 
L 934.281407 411.736896 
L 939.379625 409.273746 
L 944.477844 407.953029 
L 949.576062 407.183389 
L 954.67428 407.951911 
L 959.772499 407.101552 
L 964.870717 407.015881 
L 969.968936 407.82827 
L 975.067154 404.591258 
L 980.165372 403.569351 
L 985.263591 404.151285 
L 990.361809 403.868195 
L 995.460027 403.741886 
L 1000.558246 401.980327 
L 1010.754683 403.193047 
L 1020.951119 401.155271 
L 1026.049338 396.718614 
L 1031.147556 401.261536 
L 1036.245774 400.944309 
L 1041.343993 399.858812 
L 1046.442211 400.474951 
L 1051.540429 399.427265 
L 1056.638648 399.020612 
L 1087.227958 397.68086 
L 1092.326176 396.470214 
L 1097.424395 397.159727 
L 1102.522613 396.763589 
L 1112.71905 396.262471 
L 1117.817268 395.1205 
L 1122.915487 395.535498 
L 1128.013705 394.645962 
L 1133.111923 394.248121 
L 1138.210142 394.869169 
L 1143.30836 393.815734 
L 1148.406578 393.393103 
L 1153.504797 393.934444 
L 1158.603015 392.887962 
L 1163.701233 392.61232 
L 1168.799452 391.356713 
L 1173.89767 391.087961 
L 1178.995889 390.518813 
L 1184.094107 390.980634 
L 1194.290544 390.551321 
L 1199.388762 388.890551 
L 1204.48698 389.069997 
L 1209.585199 389.745409 
L 1214.683417 389.464542 
L 1219.781635 388.47683 
L 1224.879854 387.221353 
L 1229.978072 386.855478 
L 1235.076291 388.079655 
L 1240.174509 386.85725 
L 1245.272727 387.462053 
L 1245.272727 387.462053 
" style="fill:none;stroke:#000000;stroke-linecap:square;stroke-width:4;"/>
   </g>
   <g id="line2d_35">
    <path clip-path="url(#p3bf267b756)" d="M 230.727273 406.510625 
L 235.825491 401.309454 
L 240.923709 406.510625 
L 246.021928 401.309454 
L 251.120146 406.510625 
L 256.218365 403.910039 
L 261.316583 403.910039 
L 266.414801 401.309454 
L 271.51302 406.510625 
L 276.611238 401.309454 
L 286.807675 406.510625 
L 291.905893 401.309454 
L 297.004111 406.510625 
L 302.10233 403.910039 
L 307.200548 406.510625 
L 312.298767 401.309454 
L 317.396985 406.510625 
L 322.495203 401.309454 
L 327.593422 406.510625 
L 332.69164 403.910039 
L 342.888077 403.910039 
L 347.986295 401.309454 
L 353.084513 409.11121 
L 358.182732 401.309454 
L 363.28095 403.910039 
L 368.379169 403.910039 
L 373.477387 401.309454 
L 378.575605 406.510625 
L 383.673824 403.910039 
L 388.772042 409.11121 
L 393.87026 396.108284 
L 398.968479 406.510625 
L 404.066697 401.309454 
L 409.164915 406.510625 
L 414.263134 406.510625 
L 419.361352 398.708869 
L 424.459571 403.910039 
L 434.656007 403.910039 
L 439.754226 406.510625 
L 444.852444 401.309454 
L 449.950662 403.910039 
L 460.147099 403.910039 
L 465.245317 406.510625 
L 470.343536 401.309454 
L 475.441754 401.309454 
L 480.539973 406.510625 
L 485.638191 403.910039 
L 490.736409 437.717647 
L 495.834628 370.102432 
L 500.932846 401.309454 
L 506.031064 403.910039 
L 521.32572 403.910039 
L 526.423938 406.510625 
L 531.522156 406.510625 
L 536.620375 403.910039 
L 541.718593 403.910039 
L 546.816811 401.309454 
L 551.91503 406.510625 
L 557.013248 401.309454 
L 562.111466 406.510625 
L 567.209685 403.910039 
L 572.307903 406.510625 
L 577.406122 401.309454 
L 582.50434 401.309454 
L 587.602558 406.510625 
L 592.700777 403.910039 
L 597.798995 406.510625 
L 602.897213 401.309454 
L 607.995432 403.910039 
L 613.09365 401.309454 
L 618.191868 406.510625 
L 623.290087 401.309454 
L 633.486524 406.510625 
L 638.584742 401.309454 
L 643.68296 403.910039 
L 648.781179 409.11121 
L 653.879397 398.708869 
L 658.977615 401.309454 
L 664.075834 401.309454 
L 669.174052 398.708869 
L 679.370489 403.910039 
L 684.468707 401.309454 
L 689.566926 403.910039 
L 694.665144 403.910039 
L 699.763362 401.309454 
L 704.861581 401.309454 
L 709.959799 403.910039 
L 725.254454 403.910039 
L 730.352672 401.309454 
L 735.450891 403.910039 
L 740.549109 403.910039 
L 745.647328 401.309454 
L 750.745546 409.11121 
L 755.843764 398.708869 
L 760.941983 403.910039 
L 766.040201 403.910039 
L 771.138419 401.309454 
L 781.334856 406.510625 
L 786.433074 401.309454 
L 791.531293 403.910039 
L 817.022385 403.910039 
L 822.120603 401.309454 
L 827.218821 406.510625 
L 837.415258 401.309454 
L 842.513476 406.510625 
L 847.611695 398.708869 
L 852.709913 406.510625 
L 857.808132 403.910039 
L 862.90635 403.910039 
L 868.004568 401.309454 
L 878.201005 406.510625 
L 883.299223 401.309454 
L 888.397442 406.510625 
L 893.49566 401.309454 
L 898.593878 403.910039 
L 908.790315 403.910039 
L 913.888534 406.510625 
L 918.986752 403.910039 
L 929.183189 409.11121 
L 934.281407 401.309454 
L 939.379625 406.510625 
L 944.477844 406.510625 
L 949.576062 401.309454 
L 954.67428 406.510625 
L 964.870717 401.309454 
L 969.968936 414.31238 
L 975.067154 406.510625 
L 980.165372 401.309454 
L 985.263591 403.910039 
L 990.361809 403.910039 
L 995.460027 409.11121 
L 1000.558246 401.309454 
L 1005.656464 401.309454 
L 1010.754683 406.510625 
L 1015.852901 406.510625 
L 1020.951119 416.912965 
L 1026.049338 388.306528 
L 1031.147556 403.910039 
L 1036.245774 406.510625 
L 1041.343993 401.309454 
L 1046.442211 406.510625 
L 1051.540429 403.910039 
L 1082.12974 403.910039 
L 1087.227958 406.510625 
L 1092.326176 401.309454 
L 1097.424395 403.910039 
L 1107.620831 403.910039 
L 1112.71905 406.510625 
L 1117.817268 401.309454 
L 1122.915487 406.510625 
L 1133.111923 401.309454 
L 1138.210142 406.510625 
L 1148.406578 401.309454 
L 1153.504797 406.510625 
L 1158.603015 403.910039 
L 1163.701233 406.510625 
L 1168.799452 403.910039 
L 1173.89767 403.910039 
L 1178.995889 401.309454 
L 1184.094107 403.910039 
L 1189.192325 403.910039 
L 1194.290544 409.11121 
L 1199.388762 401.309454 
L 1204.48698 401.309454 
L 1214.683417 406.510625 
L 1219.781635 406.510625 
L 1224.879854 403.910039 
L 1229.978072 398.708869 
L 1235.076291 406.510625 
L 1240.174509 401.309454 
L 1245.272727 409.11121 
L 1245.272727 409.11121 
" style="fill:none;stroke:#ff0000;stroke-linecap:square;stroke-width:1.5;"/>
   </g>
   <g id="patch_9">
    <path d="M 180 445.129412 
L 180 282.070588 
" style="fill:none;stroke:#000000;stroke-linecap:square;stroke-linejoin:miter;stroke-width:0.8;"/>
   </g>
   <g id="patch_10">
    <path d="M 1296 445.129412 
L 1296 282.070588 
" style="fill:none;stroke:#000000;stroke-linecap:square;stroke-linejoin:miter;stroke-width:0.8;"/>
   </g>
   <g id="patch_11">
    <path d="M 180 445.129412 
L 1296 445.129412 
" style="fill:none;stroke:#000000;stroke-linecap:square;stroke-linejoin:miter;stroke-width:0.8;"/>
   </g>
   <g id="patch_12">
    <path d="M 180 282.070588 
L 1296 282.070588 
" style="fill:none;stroke:#000000;stroke-linecap:square;stroke-linejoin:miter;stroke-width:0.8;"/>
   </g>
   <g id="legend_2">
    <g id="patch_13">
     <path d="M 1234.3125 319.426838 
L 1289 319.426838 
Q 1291 319.426838 1291 317.426838 
L 1291 289.070588 
Q 1291 287.070588 1289 287.070588 
L 1234.3125 287.070588 
Q 1232.3125 287.070588 1232.3125 289.070588 
L 1232.3125 317.426838 
Q 1232.3125 319.426838 1234.3125 319.426838 
z
" style="fill:#ffffff;opacity:0.8;stroke:#cccccc;stroke-linejoin:miter;"/>
    </g>
    <g id="line2d_36">
     <path d="M 1236.3125 295.169026 
L 1256.3125 295.169026 
" style="fill:none;stroke:#000000;stroke-linecap:square;stroke-width:4;"/>
    </g>
    <g id="line2d_37"/>
    <g id="text_32">
     <!-- Pred -->
     <g transform="translate(1264.3125 298.669026)scale(0.1 -0.1)">
      <use xlink:href="#DejaVuSans-50"/>
      <use x="60.287109" xlink:href="#DejaVuSans-72"/>
      <use x="101.369141" xlink:href="#DejaVuSans-65"/>
      <use x="162.892578" xlink:href="#DejaVuSans-64"/>
     </g>
    </g>
    <g id="line2d_38">
     <path d="M 1236.3125 309.847151 
L 1256.3125 309.847151 
" style="fill:none;stroke:#ff0000;stroke-linecap:square;stroke-width:1.5;"/>
    </g>
    <g id="line2d_39"/>
    <g id="text_33">
     <!-- True -->
     <g transform="translate(1264.3125 313.347151)scale(0.1 -0.1)">
      <use xlink:href="#DejaVuSans-54"/>
      <use x="60.865234" xlink:href="#DejaVuSans-72"/>
      <use x="101.978516" xlink:href="#DejaVuSans-75"/>
      <use x="165.357422" xlink:href="#DejaVuSans-65"/>
     </g>
    </g>
   </g>
  </g>
  <g id="axes_3">
   <g id="patch_14">
    <path d="M 180 640.8 
L 1296 640.8 
L 1296 477.741176 
L 180 477.741176 
z
" style="fill:#ffffff;"/>
   </g>
   <g id="matplotlib.axis_5">
    <g id="xtick_19">
     <g id="line2d_40">
      <g>
       <use style="stroke:#000000;stroke-width:0.8;" x="225.629054" xlink:href="#m6a6769a454" y="640.8"/>
      </g>
     </g>
     <g id="text_34">
      <!-- 0 -->
      <g transform="translate(222.447804 655.398438)scale(0.1 -0.1)">
       <use xlink:href="#DejaVuSans-30"/>
      </g>
     </g>
    </g>
    <g id="xtick_20">
     <g id="line2d_41">
      <g>
       <use style="stroke:#000000;stroke-width:0.8;" x="353.084513" xlink:href="#m6a6769a454" y="640.8"/>
      </g>
     </g>
     <g id="text_35">
      <!-- 500 -->
      <g transform="translate(343.540763 655.398438)scale(0.1 -0.1)">
       <use xlink:href="#DejaVuSans-35"/>
       <use x="63.623047" xlink:href="#DejaVuSans-30"/>
       <use x="127.246094" xlink:href="#DejaVuSans-30"/>
      </g>
     </g>
    </g>
    <g id="xtick_21">
     <g id="line2d_42">
      <g>
       <use style="stroke:#000000;stroke-width:0.8;" x="480.539973" xlink:href="#m6a6769a454" y="640.8"/>
      </g>
     </g>
     <g id="text_36">
      <!-- 1000 -->
      <g transform="translate(467.814973 655.398438)scale(0.1 -0.1)">
       <use xlink:href="#DejaVuSans-31"/>
       <use x="63.623047" xlink:href="#DejaVuSans-30"/>
       <use x="127.246094" xlink:href="#DejaVuSans-30"/>
       <use x="190.869141" xlink:href="#DejaVuSans-30"/>
      </g>
     </g>
    </g>
    <g id="xtick_22">
     <g id="line2d_43">
      <g>
       <use style="stroke:#000000;stroke-width:0.8;" x="607.995432" xlink:href="#m6a6769a454" y="640.8"/>
      </g>
     </g>
     <g id="text_37">
      <!-- 1500 -->
      <g transform="translate(595.270432 655.398438)scale(0.1 -0.1)">
       <use xlink:href="#DejaVuSans-31"/>
       <use x="63.623047" xlink:href="#DejaVuSans-35"/>
       <use x="127.246094" xlink:href="#DejaVuSans-30"/>
       <use x="190.869141" xlink:href="#DejaVuSans-30"/>
      </g>
     </g>
    </g>
    <g id="xtick_23">
     <g id="line2d_44">
      <g>
       <use style="stroke:#000000;stroke-width:0.8;" x="735.450891" xlink:href="#m6a6769a454" y="640.8"/>
      </g>
     </g>
     <g id="text_38">
      <!-- 2000 -->
      <g transform="translate(722.725891 655.398438)scale(0.1 -0.1)">
       <use xlink:href="#DejaVuSans-32"/>
       <use x="63.623047" xlink:href="#DejaVuSans-30"/>
       <use x="127.246094" xlink:href="#DejaVuSans-30"/>
       <use x="190.869141" xlink:href="#DejaVuSans-30"/>
      </g>
     </g>
    </g>
    <g id="xtick_24">
     <g id="line2d_45">
      <g>
       <use style="stroke:#000000;stroke-width:0.8;" x="862.90635" xlink:href="#m6a6769a454" y="640.8"/>
      </g>
     </g>
     <g id="text_39">
      <!-- 2500 -->
      <g transform="translate(850.18135 655.398438)scale(0.1 -0.1)">
       <use xlink:href="#DejaVuSans-32"/>
       <use x="63.623047" xlink:href="#DejaVuSans-35"/>
       <use x="127.246094" xlink:href="#DejaVuSans-30"/>
       <use x="190.869141" xlink:href="#DejaVuSans-30"/>
      </g>
     </g>
    </g>
    <g id="xtick_25">
     <g id="line2d_46">
      <g>
       <use style="stroke:#000000;stroke-width:0.8;" x="990.361809" xlink:href="#m6a6769a454" y="640.8"/>
      </g>
     </g>
     <g id="text_40">
      <!-- 3000 -->
      <g transform="translate(977.636809 655.398438)scale(0.1 -0.1)">
       <use xlink:href="#DejaVuSans-33"/>
       <use x="63.623047" xlink:href="#DejaVuSans-30"/>
       <use x="127.246094" xlink:href="#DejaVuSans-30"/>
       <use x="190.869141" xlink:href="#DejaVuSans-30"/>
      </g>
     </g>
    </g>
    <g id="xtick_26">
     <g id="line2d_47">
      <g>
       <use style="stroke:#000000;stroke-width:0.8;" x="1117.817268" xlink:href="#m6a6769a454" y="640.8"/>
      </g>
     </g>
     <g id="text_41">
      <!-- 3500 -->
      <g transform="translate(1105.092268 655.398438)scale(0.1 -0.1)">
       <use xlink:href="#DejaVuSans-33"/>
       <use x="63.623047" xlink:href="#DejaVuSans-35"/>
       <use x="127.246094" xlink:href="#DejaVuSans-30"/>
       <use x="190.869141" xlink:href="#DejaVuSans-30"/>
      </g>
     </g>
    </g>
    <g id="xtick_27">
     <g id="line2d_48">
      <g>
       <use style="stroke:#000000;stroke-width:0.8;" x="1245.272727" xlink:href="#m6a6769a454" y="640.8"/>
      </g>
     </g>
     <g id="text_42">
      <!-- 4000 -->
      <g transform="translate(1232.547727 655.398438)scale(0.1 -0.1)">
       <use xlink:href="#DejaVuSans-34"/>
       <use x="63.623047" xlink:href="#DejaVuSans-30"/>
       <use x="127.246094" xlink:href="#DejaVuSans-30"/>
       <use x="190.869141" xlink:href="#DejaVuSans-30"/>
      </g>
     </g>
    </g>
    <g id="text_43">
     <!-- Time -->
     <defs>
      <path d="M 9.421875 54.6875 
L 18.40625 54.6875 
L 18.40625 0 
L 9.421875 0 
z
M 9.421875 75.984375 
L 18.40625 75.984375 
L 18.40625 64.59375 
L 9.421875 64.59375 
z
" id="DejaVuSans-69"/>
      <path d="M 52 44.1875 
Q 55.375 50.25 60.0625 53.125 
Q 64.75 56 71.09375 56 
Q 79.640625 56 84.28125 50.015625 
Q 88.921875 44.046875 88.921875 33.015625 
L 88.921875 0 
L 79.890625 0 
L 79.890625 32.71875 
Q 79.890625 40.578125 77.09375 44.375 
Q 74.3125 48.1875 68.609375 48.1875 
Q 61.625 48.1875 57.5625 43.546875 
Q 53.515625 38.921875 53.515625 30.90625 
L 53.515625 0 
L 44.484375 0 
L 44.484375 32.71875 
Q 44.484375 40.625 41.703125 44.40625 
Q 38.921875 48.1875 33.109375 48.1875 
Q 26.21875 48.1875 22.15625 43.53125 
Q 18.109375 38.875 18.109375 30.90625 
L 18.109375 0 
L 9.078125 0 
L 9.078125 54.6875 
L 18.109375 54.6875 
L 18.109375 46.1875 
Q 21.1875 51.21875 25.484375 53.609375 
Q 29.78125 56 35.6875 56 
Q 41.65625 56 45.828125 52.96875 
Q 50 49.953125 52 44.1875 
z
" id="DejaVuSans-6d"/>
     </defs>
     <g transform="translate(725.6125 669.076563)scale(0.1 -0.1)">
      <use xlink:href="#DejaVuSans-54"/>
      <use x="61.037109" xlink:href="#DejaVuSans-69"/>
      <use x="88.820312" xlink:href="#DejaVuSans-6d"/>
      <use x="186.232422" xlink:href="#DejaVuSans-65"/>
     </g>
    </g>
   </g>
   <g id="matplotlib.axis_6">
    <g id="ytick_10">
     <g id="line2d_49">
      <g>
       <use style="stroke:#000000;stroke-width:0.8;" x="180" xlink:href="#m4b9f12387d" y="627.897829"/>
      </g>
     </g>
     <g id="text_44">
      <!-- −2 -->
      <g transform="translate(158.257812 631.697047)scale(0.1 -0.1)">
       <use xlink:href="#DejaVuSans-2212"/>
       <use x="83.789062" xlink:href="#DejaVuSans-32"/>
      </g>
     </g>
    </g>
    <g id="ytick_11">
     <g id="line2d_50">
      <g>
       <use style="stroke:#000000;stroke-width:0.8;" x="180" xlink:href="#m4b9f12387d" y="603.58191"/>
      </g>
     </g>
     <g id="text_45">
      <!-- −1 -->
      <g transform="translate(158.257812 607.381129)scale(0.1 -0.1)">
       <use xlink:href="#DejaVuSans-2212"/>
       <use x="83.789062" xlink:href="#DejaVuSans-31"/>
      </g>
     </g>
    </g>
    <g id="ytick_12">
     <g id="line2d_51">
      <g>
       <use style="stroke:#000000;stroke-width:0.8;" x="180" xlink:href="#m4b9f12387d" y="579.265992"/>
      </g>
     </g>
     <g id="text_46">
      <!-- 0 -->
      <g transform="translate(166.6375 583.065211)scale(0.1 -0.1)">
       <use xlink:href="#DejaVuSans-30"/>
      </g>
     </g>
    </g>
    <g id="ytick_13">
     <g id="line2d_52">
      <g>
       <use style="stroke:#000000;stroke-width:0.8;" x="180" xlink:href="#m4b9f12387d" y="554.950074"/>
      </g>
     </g>
     <g id="text_47">
      <!-- 1 -->
      <g transform="translate(166.6375 558.749292)scale(0.1 -0.1)">
       <use xlink:href="#DejaVuSans-31"/>
      </g>
     </g>
    </g>
    <g id="ytick_14">
     <g id="line2d_53">
      <g>
       <use style="stroke:#000000;stroke-width:0.8;" x="180" xlink:href="#m4b9f12387d" y="530.634155"/>
      </g>
     </g>
     <g id="text_48">
      <!-- 2 -->
      <g transform="translate(166.6375 534.433374)scale(0.1 -0.1)">
       <use xlink:href="#DejaVuSans-32"/>
      </g>
     </g>
    </g>
    <g id="ytick_15">
     <g id="line2d_54">
      <g>
       <use style="stroke:#000000;stroke-width:0.8;" x="180" xlink:href="#m4b9f12387d" y="506.318237"/>
      </g>
     </g>
     <g id="text_49">
      <!-- 3 -->
      <g transform="translate(166.6375 510.117456)scale(0.1 -0.1)">
       <use xlink:href="#DejaVuSans-33"/>
      </g>
     </g>
    </g>
    <g id="ytick_16">
     <g id="line2d_55">
      <g>
       <use style="stroke:#000000;stroke-width:0.8;" x="180" xlink:href="#m4b9f12387d" y="482.002319"/>
      </g>
     </g>
     <g id="text_50">
      <!-- 4 -->
      <g transform="translate(166.6375 485.801537)scale(0.1 -0.1)">
       <use xlink:href="#DejaVuSans-34"/>
      </g>
     </g>
    </g>
    <g id="text_51">
     <!-- Control Input -->
     <defs>
      <path d="M 64.40625 67.28125 
L 64.40625 56.890625 
Q 59.421875 61.53125 53.78125 63.8125 
Q 48.140625 66.109375 41.796875 66.109375 
Q 29.296875 66.109375 22.65625 58.46875 
Q 16.015625 50.828125 16.015625 36.375 
Q 16.015625 21.96875 22.65625 14.328125 
Q 29.296875 6.6875 41.796875 6.6875 
Q 48.140625 6.6875 53.78125 8.984375 
Q 59.421875 11.28125 64.40625 15.921875 
L 64.40625 5.609375 
Q 59.234375 2.09375 53.4375 0.328125 
Q 47.65625 -1.421875 41.21875 -1.421875 
Q 24.65625 -1.421875 15.125 8.703125 
Q 5.609375 18.84375 5.609375 36.375 
Q 5.609375 53.953125 15.125 64.078125 
Q 24.65625 74.21875 41.21875 74.21875 
Q 47.75 74.21875 53.53125 72.484375 
Q 59.328125 70.75 64.40625 67.28125 
z
" id="DejaVuSans-43"/>
      <path d="M 30.609375 48.390625 
Q 23.390625 48.390625 19.1875 42.75 
Q 14.984375 37.109375 14.984375 27.296875 
Q 14.984375 17.484375 19.15625 11.84375 
Q 23.34375 6.203125 30.609375 6.203125 
Q 37.796875 6.203125 41.984375 11.859375 
Q 46.1875 17.53125 46.1875 27.296875 
Q 46.1875 37.015625 41.984375 42.703125 
Q 37.796875 48.390625 30.609375 48.390625 
z
M 30.609375 56 
Q 42.328125 56 49.015625 48.375 
Q 55.71875 40.765625 55.71875 27.296875 
Q 55.71875 13.875 49.015625 6.21875 
Q 42.328125 -1.421875 30.609375 -1.421875 
Q 18.84375 -1.421875 12.171875 6.21875 
Q 5.515625 13.875 5.515625 27.296875 
Q 5.515625 40.765625 12.171875 48.375 
Q 18.84375 56 30.609375 56 
z
" id="DejaVuSans-6f"/>
      <path d="M 54.890625 33.015625 
L 54.890625 0 
L 45.90625 0 
L 45.90625 32.71875 
Q 45.90625 40.484375 42.875 44.328125 
Q 39.84375 48.1875 33.796875 48.1875 
Q 26.515625 48.1875 22.3125 43.546875 
Q 18.109375 38.921875 18.109375 30.90625 
L 18.109375 0 
L 9.078125 0 
L 9.078125 54.6875 
L 18.109375 54.6875 
L 18.109375 46.1875 
Q 21.34375 51.125 25.703125 53.5625 
Q 30.078125 56 35.796875 56 
Q 45.21875 56 50.046875 50.171875 
Q 54.890625 44.34375 54.890625 33.015625 
z
" id="DejaVuSans-6e"/>
      <path d="M 9.421875 75.984375 
L 18.40625 75.984375 
L 18.40625 0 
L 9.421875 0 
z
" id="DejaVuSans-6c"/>
      <path d="M 9.8125 72.90625 
L 19.671875 72.90625 
L 19.671875 0 
L 9.8125 0 
z
" id="DejaVuSans-49"/>
      <path d="M 18.109375 8.203125 
L 18.109375 -20.796875 
L 9.078125 -20.796875 
L 9.078125 54.6875 
L 18.109375 54.6875 
L 18.109375 46.390625 
Q 20.953125 51.265625 25.265625 53.625 
Q 29.59375 56 35.59375 56 
Q 45.5625 56 51.78125 48.09375 
Q 58.015625 40.1875 58.015625 27.296875 
Q 58.015625 14.40625 51.78125 6.484375 
Q 45.5625 -1.421875 35.59375 -1.421875 
Q 29.59375 -1.421875 25.265625 0.953125 
Q 20.953125 3.328125 18.109375 8.203125 
z
M 48.6875 27.296875 
Q 48.6875 37.203125 44.609375 42.84375 
Q 40.53125 48.484375 33.40625 48.484375 
Q 26.265625 48.484375 22.1875 42.84375 
Q 18.109375 37.203125 18.109375 27.296875 
Q 18.109375 17.390625 22.1875 11.75 
Q 26.265625 6.109375 33.40625 6.109375 
Q 40.53125 6.109375 44.609375 11.75 
Q 48.6875 17.390625 48.6875 27.296875 
z
" id="DejaVuSans-70"/>
     </defs>
     <g transform="translate(152.178125 591.988557)rotate(-90)scale(0.1 -0.1)">
      <use xlink:href="#DejaVuSans-43"/>
      <use x="69.824219" xlink:href="#DejaVuSans-6f"/>
      <use x="131.005859" xlink:href="#DejaVuSans-6e"/>
      <use x="194.384766" xlink:href="#DejaVuSans-74"/>
      <use x="233.59375" xlink:href="#DejaVuSans-72"/>
      <use x="274.675781" xlink:href="#DejaVuSans-6f"/>
      <use x="335.857422" xlink:href="#DejaVuSans-6c"/>
      <use x="363.640625" xlink:href="#DejaVuSans-20"/>
      <use x="395.427734" xlink:href="#DejaVuSans-49"/>
      <use x="424.919922" xlink:href="#DejaVuSans-6e"/>
      <use x="488.298828" xlink:href="#DejaVuSans-70"/>
      <use x="551.775391" xlink:href="#DejaVuSans-75"/>
      <use x="615.154297" xlink:href="#DejaVuSans-74"/>
     </g>
    </g>
   </g>
   <g id="line2d_56">
    <path clip-path="url(#p6ec4f768ab)" d="M 230.727273 492.750163 
L 235.825491 493.919343 
L 240.923709 493.751704 
L 251.120146 493.204148 
L 256.218365 491.285889 
L 261.316583 491.177831 
L 266.414801 491.545938 
L 271.51302 492.076689 
L 276.611238 491.800626 
L 281.709456 492.193637 
L 286.807675 487.54845 
L 291.905893 491.415953 
L 297.004111 492.399283 
L 302.10233 491.481543 
L 307.200548 491.801373 
L 312.298767 490.576495 
L 317.396985 490.081831 
L 322.495203 489.369455 
L 327.593422 489.902175 
L 332.69164 489.092321 
L 337.789858 488.719306 
L 342.888077 489.386633 
L 347.986295 489.685847 
L 353.084513 490.113754 
L 358.182732 490.964074 
L 363.28095 490.125936 
L 368.379169 488.896286 
L 373.477387 488.029132 
L 378.575605 489.721055 
L 383.673824 488.199077 
L 388.772042 487.54715 
L 393.87026 487.589614 
L 398.968479 486.529232 
L 404.066697 489.673961 
L 409.164915 488.135692 
L 414.263134 485.824264 
L 419.361352 485.152941 
L 424.459571 490.772816 
L 429.557789 489.106708 
L 434.656007 489.315614 
L 444.852444 490.782601 
L 449.950662 490.453119 
L 455.048881 489.037322 
L 465.245317 488.453479 
L 470.343536 488.587442 
L 475.441754 490.986446 
L 480.539973 491.363371 
L 485.638191 491.135325 
L 490.736409 492.780337 
L 495.834628 491.760648 
L 500.932846 490.063753 
L 506.031064 489.276958 
L 511.129283 488.30214 
L 516.227501 489.889196 
L 521.32572 489.613843 
L 526.423938 490.434998 
L 531.522156 490.337437 
L 536.620375 488.488953 
L 541.718593 493.709188 
L 546.816811 491.394042 
L 551.91503 490.987777 
L 557.013248 491.645997 
L 562.111466 490.692954 
L 567.209685 489.192178 
L 572.307903 491.22928 
L 577.406122 492.403355 
L 582.50434 492.445246 
L 587.602558 491.672357 
L 592.700777 491.684459 
L 597.798995 490.671356 
L 602.897213 491.030752 
L 607.995432 491.773863 
L 613.09365 492.770986 
L 618.191868 491.320477 
L 623.290087 491.376959 
L 628.388305 492.205604 
L 633.486524 490.768515 
L 638.584742 491.249684 
L 643.68296 489.919552 
L 648.781179 493.00008 
L 653.879397 492.5985 
L 658.977615 491.676767 
L 669.174052 490.791904 
L 674.27227 491.760756 
L 679.370489 570.082247 
L 684.468707 601.185451 
L 689.566926 599.952099 
L 694.665144 600.421564 
L 699.763362 601.57914 
L 704.861581 602.921675 
L 709.959799 606.010927 
L 715.058017 607.005547 
L 720.156236 608.710876 
L 725.254454 611.257565 
L 735.450891 613.383169 
L 740.549109 614.212937 
L 745.647328 614.602232 
L 750.745546 612.954682 
L 755.843764 613.235115 
L 760.941983 614.032981 
L 766.040201 614.540156 
L 771.138419 614.414566 
L 776.236638 612.429545 
L 781.334856 612.607572 
L 786.433074 615.497175 
L 791.531293 615.826795 
L 796.629511 617.023058 
L 801.72773 616.813611 
L 806.825948 617.862129 
L 811.924166 618.340703 
L 817.022385 617.830041 
L 822.120603 619.390713 
L 827.218821 619.54416 
L 832.31704 621.679073 
L 837.415258 621.536013 
L 842.513476 623.124869 
L 852.709913 626.039062 
L 857.808132 626.554234 
L 862.90635 625.781145 
L 868.004568 627.727003 
L 873.102787 630.238086 
L 878.201005 630.190606 
L 883.299223 627.275026 
L 888.397442 625.211286 
L 893.49566 628.234258 
L 898.593878 626.528029 
L 903.692097 626.654598 
L 913.888534 628.320234 
L 918.986752 628.535283 
L 924.08497 631.609496 
L 929.183189 633.380038 
L 934.281407 633.388235 
L 939.379625 551.793519 
L 944.477844 537.779012 
L 949.576062 538.315064 
L 954.67428 536.596638 
L 959.772499 535.16665 
L 964.870717 533.084153 
L 969.968936 532.431936 
L 975.067154 534.209936 
L 980.165372 533.219207 
L 985.263591 531.566286 
L 990.361809 528.122364 
L 995.460027 528.512652 
L 1000.558246 529.947058 
L 1005.656464 529.663438 
L 1010.754683 528.970223 
L 1020.951119 528.298915 
L 1026.049338 528.227756 
L 1031.147556 527.736689 
L 1036.245774 524.626456 
L 1041.343993 523.237345 
L 1046.442211 523.570548 
L 1051.540429 523.109697 
L 1056.638648 518.970672 
L 1061.736866 518.845389 
L 1071.933303 520.39416 
L 1077.031521 520.499525 
L 1082.12974 520.2287 
L 1087.227958 520.922196 
L 1092.326176 517.649913 
L 1097.424395 520.9196 
L 1102.522613 517.02928 
L 1107.620831 516.328794 
L 1112.71905 516.353476 
L 1117.817268 514.755739 
L 1122.915487 511.332494 
L 1128.013705 515.878526 
L 1133.111923 513.104887 
L 1138.210142 514.699559 
L 1143.30836 515.249283 
L 1148.406578 511.885836 
L 1153.504797 511.529527 
L 1158.603015 512.252046 
L 1163.701233 512.467981 
L 1168.799452 509.241289 
L 1173.89767 510.762153 
L 1178.995889 504.971293 
L 1184.094107 503.86381 
L 1189.192325 506.535945 
L 1194.290544 507.238068 
L 1199.388762 514.585445 
L 1204.48698 507.738976 
L 1209.585199 511.808001 
L 1214.683417 511.892095 
L 1219.781635 515.195068 
L 1224.879854 513.133718 
L 1229.978072 513.444749 
L 1235.076291 511.587282 
L 1240.174509 509.176074 
L 1245.272727 511.534277 
L 1245.272727 511.534277 
" style="fill:none;stroke:#ff0000;stroke-linecap:square;stroke-width:1.5;"/>
   </g>
   <g id="patch_15">
    <path d="M 180 640.8 
L 180 477.741176 
" style="fill:none;stroke:#000000;stroke-linecap:square;stroke-linejoin:miter;stroke-width:0.8;"/>
   </g>
   <g id="patch_16">
    <path d="M 1296 640.8 
L 1296 477.741176 
" style="fill:none;stroke:#000000;stroke-linecap:square;stroke-linejoin:miter;stroke-width:0.8;"/>
   </g>
   <g id="patch_17">
    <path d="M 180 640.8 
L 1296 640.8 
" style="fill:none;stroke:#000000;stroke-linecap:square;stroke-linejoin:miter;stroke-width:0.8;"/>
   </g>
   <g id="patch_18">
    <path d="M 180 477.741176 
L 1296 477.741176 
" style="fill:none;stroke:#000000;stroke-linecap:square;stroke-linejoin:miter;stroke-width:0.8;"/>
   </g>
   <g id="legend_3">
    <g id="patch_19">
     <path d="M 1194.742188 500.419301 
L 1289 500.419301 
Q 1291 500.419301 1291 498.419301 
L 1291 484.741176 
Q 1291 482.741176 1289 482.741176 
L 1194.742188 482.741176 
Q 1192.742188 482.741176 1192.742188 484.741176 
L 1192.742188 498.419301 
Q 1192.742188 500.419301 1194.742188 500.419301 
z
" style="fill:#ffffff;opacity:0.8;stroke:#cccccc;stroke-linejoin:miter;"/>
    </g>
    <g id="line2d_57">
     <path d="M 1196.742188 490.839614 
L 1216.742188 490.839614 
" style="fill:none;stroke:#ff0000;stroke-linecap:square;stroke-width:1.5;"/>
    </g>
    <g id="line2d_58"/>
    <g id="text_52">
     <!-- ControlInput -->
     <g transform="translate(1224.742188 494.339614)scale(0.1 -0.1)">
      <use xlink:href="#DejaVuSans-43"/>
      <use x="69.824219" xlink:href="#DejaVuSans-6f"/>
      <use x="131.005859" xlink:href="#DejaVuSans-6e"/>
      <use x="194.384766" xlink:href="#DejaVuSans-74"/>
      <use x="233.59375" xlink:href="#DejaVuSans-72"/>
      <use x="274.675781" xlink:href="#DejaVuSans-6f"/>
      <use x="335.857422" xlink:href="#DejaVuSans-6c"/>
      <use x="363.640625" xlink:href="#DejaVuSans-49"/>
      <use x="393.132812" xlink:href="#DejaVuSans-6e"/>
      <use x="456.511719" xlink:href="#DejaVuSans-70"/>
      <use x="519.988281" xlink:href="#DejaVuSans-75"/>
      <use x="583.367188" xlink:href="#DejaVuSans-74"/>
     </g>
    </g>
   </g>
  </g>
 </g>
 <defs>
  <clipPath id="p4f6981df96">
   <rect height="163.058824" width="1116" x="180" y="86.4"/>
  </clipPath>
  <clipPath id="p3bf267b756">
   <rect height="163.058824" width="1116" x="180" y="282.070588"/>
  </clipPath>
  <clipPath id="p6ec4f768ab">
   <rect height="163.058824" width="1116" x="180" y="477.741176"/>
  </clipPath>
 </defs>
</svg>
