<?xml version="1.0" encoding="utf-8" standalone="no"?>
<!DOCTYPE svg PUBLIC "-//W3C//DTD SVG 1.1//EN"
  "http://www.w3.org/Graphics/SVG/1.1/DTD/svg11.dtd">
<!-- Created with matplotlib (http://matplotlib.org/) -->
<svg height="720pt" version="1.1" viewBox="0 0 1440 720" width="1440pt" xmlns="http://www.w3.org/2000/svg" xmlns:xlink="http://www.w3.org/1999/xlink">
 <defs>
  <style type="text/css">
*{stroke-linecap:butt;stroke-linejoin:round;}
  </style>
 </defs>
 <g id="figure_1">
  <g id="patch_1">
   <path d="M 0 720 
L 1440 720 
L 1440 0 
L 0 0 
z
" style="fill:#ffffff;"/>
  </g>
  <g id="axes_1">
   <g id="patch_2">
    <path d="M 180 249.458824 
L 1296 249.458824 
L 1296 86.4 
L 180 86.4 
z
" style="fill:#ffffff;"/>
   </g>
   <g id="matplotlib.axis_1">
    <g id="xtick_1">
     <g id="line2d_1">
      <defs>
       <path d="M 0 0 
L 0 3.5 
" id="m24e68701c0" style="stroke:#000000;stroke-width:0.8;"/>
      </defs>
      <g>
       <use style="stroke:#000000;stroke-width:0.8;" x="225.629054" xlink:href="#m24e68701c0" y="249.458824"/>
      </g>
     </g>
     <g id="text_1">
      <!-- 0 -->
      <defs>
       <path d="M 31.78125 66.40625 
Q 24.171875 66.40625 20.328125 58.90625 
Q 16.5 51.421875 16.5 36.375 
Q 16.5 21.390625 20.328125 13.890625 
Q 24.171875 6.390625 31.78125 6.390625 
Q 39.453125 6.390625 43.28125 13.890625 
Q 47.125 21.390625 47.125 36.375 
Q 47.125 51.421875 43.28125 58.90625 
Q 39.453125 66.40625 31.78125 66.40625 
z
M 31.78125 74.21875 
Q 44.046875 74.21875 50.515625 64.515625 
Q 56.984375 54.828125 56.984375 36.375 
Q 56.984375 17.96875 50.515625 8.265625 
Q 44.046875 -1.421875 31.78125 -1.421875 
Q 19.53125 -1.421875 13.0625 8.265625 
Q 6.59375 17.96875 6.59375 36.375 
Q 6.59375 54.828125 13.0625 64.515625 
Q 19.53125 74.21875 31.78125 74.21875 
z
" id="DejaVuSans-30"/>
      </defs>
      <g transform="translate(222.447804 264.057261)scale(0.1 -0.1)">
       <use xlink:href="#DejaVuSans-30"/>
      </g>
     </g>
    </g>
    <g id="xtick_2">
     <g id="line2d_2">
      <g>
       <use style="stroke:#000000;stroke-width:0.8;" x="353.084513" xlink:href="#m24e68701c0" y="249.458824"/>
      </g>
     </g>
     <g id="text_2">
      <!-- 500 -->
      <defs>
       <path d="M 10.796875 72.90625 
L 49.515625 72.90625 
L 49.515625 64.59375 
L 19.828125 64.59375 
L 19.828125 46.734375 
Q 21.96875 47.46875 24.109375 47.828125 
Q 26.265625 48.1875 28.421875 48.1875 
Q 40.625 48.1875 47.75 41.5 
Q 54.890625 34.8125 54.890625 23.390625 
Q 54.890625 11.625 47.5625 5.09375 
Q 40.234375 -1.421875 26.90625 -1.421875 
Q 22.3125 -1.421875 17.546875 -0.640625 
Q 12.796875 0.140625 7.71875 1.703125 
L 7.71875 11.625 
Q 12.109375 9.234375 16.796875 8.0625 
Q 21.484375 6.890625 26.703125 6.890625 
Q 35.15625 6.890625 40.078125 11.328125 
Q 45.015625 15.765625 45.015625 23.390625 
Q 45.015625 31 40.078125 35.4375 
Q 35.15625 39.890625 26.703125 39.890625 
Q 22.75 39.890625 18.8125 39.015625 
Q 14.890625 38.140625 10.796875 36.28125 
z
" id="DejaVuSans-35"/>
      </defs>
      <g transform="translate(343.540763 264.057261)scale(0.1 -0.1)">
       <use xlink:href="#DejaVuSans-35"/>
       <use x="63.623047" xlink:href="#DejaVuSans-30"/>
       <use x="127.246094" xlink:href="#DejaVuSans-30"/>
      </g>
     </g>
    </g>
    <g id="xtick_3">
     <g id="line2d_3">
      <g>
       <use style="stroke:#000000;stroke-width:0.8;" x="480.539973" xlink:href="#m24e68701c0" y="249.458824"/>
      </g>
     </g>
     <g id="text_3">
      <!-- 1000 -->
      <defs>
       <path d="M 12.40625 8.296875 
L 28.515625 8.296875 
L 28.515625 63.921875 
L 10.984375 60.40625 
L 10.984375 69.390625 
L 28.421875 72.90625 
L 38.28125 72.90625 
L 38.28125 8.296875 
L 54.390625 8.296875 
L 54.390625 0 
L 12.40625 0 
z
" id="DejaVuSans-31"/>
      </defs>
      <g transform="translate(467.814973 264.057261)scale(0.1 -0.1)">
       <use xlink:href="#DejaVuSans-31"/>
       <use x="63.623047" xlink:href="#DejaVuSans-30"/>
       <use x="127.246094" xlink:href="#DejaVuSans-30"/>
       <use x="190.869141" xlink:href="#DejaVuSans-30"/>
      </g>
     </g>
    </g>
    <g id="xtick_4">
     <g id="line2d_4">
      <g>
       <use style="stroke:#000000;stroke-width:0.8;" x="607.995432" xlink:href="#m24e68701c0" y="249.458824"/>
      </g>
     </g>
     <g id="text_4">
      <!-- 1500 -->
      <g transform="translate(595.270432 264.057261)scale(0.1 -0.1)">
       <use xlink:href="#DejaVuSans-31"/>
       <use x="63.623047" xlink:href="#DejaVuSans-35"/>
       <use x="127.246094" xlink:href="#DejaVuSans-30"/>
       <use x="190.869141" xlink:href="#DejaVuSans-30"/>
      </g>
     </g>
    </g>
    <g id="xtick_5">
     <g id="line2d_5">
      <g>
       <use style="stroke:#000000;stroke-width:0.8;" x="735.450891" xlink:href="#m24e68701c0" y="249.458824"/>
      </g>
     </g>
     <g id="text_5">
      <!-- 2000 -->
      <defs>
       <path d="M 19.1875 8.296875 
L 53.609375 8.296875 
L 53.609375 0 
L 7.328125 0 
L 7.328125 8.296875 
Q 12.9375 14.109375 22.625 23.890625 
Q 32.328125 33.6875 34.8125 36.53125 
Q 39.546875 41.84375 41.421875 45.53125 
Q 43.3125 49.21875 43.3125 52.78125 
Q 43.3125 58.59375 39.234375 62.25 
Q 35.15625 65.921875 28.609375 65.921875 
Q 23.96875 65.921875 18.8125 64.3125 
Q 13.671875 62.703125 7.8125 59.421875 
L 7.8125 69.390625 
Q 13.765625 71.78125 18.9375 73 
Q 24.125 74.21875 28.421875 74.21875 
Q 39.75 74.21875 46.484375 68.546875 
Q 53.21875 62.890625 53.21875 53.421875 
Q 53.21875 48.921875 51.53125 44.890625 
Q 49.859375 40.875 45.40625 35.40625 
Q 44.1875 33.984375 37.640625 27.21875 
Q 31.109375 20.453125 19.1875 8.296875 
z
" id="DejaVuSans-32"/>
      </defs>
      <g transform="translate(722.725891 264.057261)scale(0.1 -0.1)">
       <use xlink:href="#DejaVuSans-32"/>
       <use x="63.623047" xlink:href="#DejaVuSans-30"/>
       <use x="127.246094" xlink:href="#DejaVuSans-30"/>
       <use x="190.869141" xlink:href="#DejaVuSans-30"/>
      </g>
     </g>
    </g>
    <g id="xtick_6">
     <g id="line2d_6">
      <g>
       <use style="stroke:#000000;stroke-width:0.8;" x="862.90635" xlink:href="#m24e68701c0" y="249.458824"/>
      </g>
     </g>
     <g id="text_6">
      <!-- 2500 -->
      <g transform="translate(850.18135 264.057261)scale(0.1 -0.1)">
       <use xlink:href="#DejaVuSans-32"/>
       <use x="63.623047" xlink:href="#DejaVuSans-35"/>
       <use x="127.246094" xlink:href="#DejaVuSans-30"/>
       <use x="190.869141" xlink:href="#DejaVuSans-30"/>
      </g>
     </g>
    </g>
    <g id="xtick_7">
     <g id="line2d_7">
      <g>
       <use style="stroke:#000000;stroke-width:0.8;" x="990.361809" xlink:href="#m24e68701c0" y="249.458824"/>
      </g>
     </g>
     <g id="text_7">
      <!-- 3000 -->
      <defs>
       <path d="M 40.578125 39.3125 
Q 47.65625 37.796875 51.625 33 
Q 55.609375 28.21875 55.609375 21.1875 
Q 55.609375 10.40625 48.1875 4.484375 
Q 40.765625 -1.421875 27.09375 -1.421875 
Q 22.515625 -1.421875 17.65625 -0.515625 
Q 12.796875 0.390625 7.625 2.203125 
L 7.625 11.71875 
Q 11.71875 9.328125 16.59375 8.109375 
Q 21.484375 6.890625 26.8125 6.890625 
Q 36.078125 6.890625 40.9375 10.546875 
Q 45.796875 14.203125 45.796875 21.1875 
Q 45.796875 27.640625 41.28125 31.265625 
Q 36.765625 34.90625 28.71875 34.90625 
L 20.21875 34.90625 
L 20.21875 43.015625 
L 29.109375 43.015625 
Q 36.375 43.015625 40.234375 45.921875 
Q 44.09375 48.828125 44.09375 54.296875 
Q 44.09375 59.90625 40.109375 62.90625 
Q 36.140625 65.921875 28.71875 65.921875 
Q 24.65625 65.921875 20.015625 65.03125 
Q 15.375 64.15625 9.8125 62.3125 
L 9.8125 71.09375 
Q 15.4375 72.65625 20.34375 73.4375 
Q 25.25 74.21875 29.59375 74.21875 
Q 40.828125 74.21875 47.359375 69.109375 
Q 53.90625 64.015625 53.90625 55.328125 
Q 53.90625 49.265625 50.4375 45.09375 
Q 46.96875 40.921875 40.578125 39.3125 
z
" id="DejaVuSans-33"/>
      </defs>
      <g transform="translate(977.636809 264.057261)scale(0.1 -0.1)">
       <use xlink:href="#DejaVuSans-33"/>
       <use x="63.623047" xlink:href="#DejaVuSans-30"/>
       <use x="127.246094" xlink:href="#DejaVuSans-30"/>
       <use x="190.869141" xlink:href="#DejaVuSans-30"/>
      </g>
     </g>
    </g>
    <g id="xtick_8">
     <g id="line2d_8">
      <g>
       <use style="stroke:#000000;stroke-width:0.8;" x="1117.817268" xlink:href="#m24e68701c0" y="249.458824"/>
      </g>
     </g>
     <g id="text_8">
      <!-- 3500 -->
      <g transform="translate(1105.092268 264.057261)scale(0.1 -0.1)">
       <use xlink:href="#DejaVuSans-33"/>
       <use x="63.623047" xlink:href="#DejaVuSans-35"/>
       <use x="127.246094" xlink:href="#DejaVuSans-30"/>
       <use x="190.869141" xlink:href="#DejaVuSans-30"/>
      </g>
     </g>
    </g>
    <g id="xtick_9">
     <g id="line2d_9">
      <g>
       <use style="stroke:#000000;stroke-width:0.8;" x="1245.272727" xlink:href="#m24e68701c0" y="249.458824"/>
      </g>
     </g>
     <g id="text_9">
      <!-- 4000 -->
      <defs>
       <path d="M 37.796875 64.3125 
L 12.890625 25.390625 
L 37.796875 25.390625 
z
M 35.203125 72.90625 
L 47.609375 72.90625 
L 47.609375 25.390625 
L 58.015625 25.390625 
L 58.015625 17.1875 
L 47.609375 17.1875 
L 47.609375 0 
L 37.796875 0 
L 37.796875 17.1875 
L 4.890625 17.1875 
L 4.890625 26.703125 
z
" id="DejaVuSans-34"/>
      </defs>
      <g transform="translate(1232.547727 264.057261)scale(0.1 -0.1)">
       <use xlink:href="#DejaVuSans-34"/>
       <use x="63.623047" xlink:href="#DejaVuSans-30"/>
       <use x="127.246094" xlink:href="#DejaVuSans-30"/>
       <use x="190.869141" xlink:href="#DejaVuSans-30"/>
      </g>
     </g>
    </g>
   </g>
   <g id="matplotlib.axis_2">
    <g id="ytick_1">
     <g id="line2d_10">
      <defs>
       <path d="M 0 0 
L -3.5 0 
" id="m070f53913b" style="stroke:#000000;stroke-width:0.8;"/>
      </defs>
      <g>
       <use style="stroke:#000000;stroke-width:0.8;" x="180" xlink:href="#m070f53913b" y="249.898928"/>
      </g>
     </g>
     <g id="text_10">
      <!-- −1.0 -->
      <defs>
       <path d="M 10.59375 35.5 
L 73.1875 35.5 
L 73.1875 27.203125 
L 10.59375 27.203125 
z
" id="DejaVuSans-2212"/>
       <path d="M 10.6875 12.40625 
L 21 12.40625 
L 21 0 
L 10.6875 0 
z
" id="DejaVuSans-2e"/>
      </defs>
      <g transform="translate(148.717187 253.698147)scale(0.1 -0.1)">
       <use xlink:href="#DejaVuSans-2212"/>
       <use x="83.789062" xlink:href="#DejaVuSans-31"/>
       <use x="147.412109" xlink:href="#DejaVuSans-2e"/>
       <use x="179.199219" xlink:href="#DejaVuSans-30"/>
      </g>
     </g>
    </g>
    <g id="ytick_2">
     <g id="line2d_11">
      <g>
       <use style="stroke:#000000;stroke-width:0.8;" x="180" xlink:href="#m070f53913b" y="210.63958"/>
      </g>
     </g>
     <g id="text_11">
      <!-- −0.5 -->
      <g transform="translate(148.717187 214.438799)scale(0.1 -0.1)">
       <use xlink:href="#DejaVuSans-2212"/>
       <use x="83.789062" xlink:href="#DejaVuSans-30"/>
       <use x="147.412109" xlink:href="#DejaVuSans-2e"/>
       <use x="179.199219" xlink:href="#DejaVuSans-35"/>
      </g>
     </g>
    </g>
    <g id="ytick_3">
     <g id="line2d_12">
      <g>
       <use style="stroke:#000000;stroke-width:0.8;" x="180" xlink:href="#m070f53913b" y="171.380232"/>
      </g>
     </g>
     <g id="text_12">
      <!-- 0.0 -->
      <g transform="translate(157.096875 175.179451)scale(0.1 -0.1)">
       <use xlink:href="#DejaVuSans-30"/>
       <use x="63.623047" xlink:href="#DejaVuSans-2e"/>
       <use x="95.410156" xlink:href="#DejaVuSans-30"/>
      </g>
     </g>
    </g>
    <g id="ytick_4">
     <g id="line2d_13">
      <g>
       <use style="stroke:#000000;stroke-width:0.8;" x="180" xlink:href="#m070f53913b" y="132.120884"/>
      </g>
     </g>
     <g id="text_13">
      <!-- 0.5 -->
      <g transform="translate(157.096875 135.920102)scale(0.1 -0.1)">
       <use xlink:href="#DejaVuSans-30"/>
       <use x="63.623047" xlink:href="#DejaVuSans-2e"/>
       <use x="95.410156" xlink:href="#DejaVuSans-35"/>
      </g>
     </g>
    </g>
    <g id="ytick_5">
     <g id="line2d_14">
      <g>
       <use style="stroke:#000000;stroke-width:0.8;" x="180" xlink:href="#m070f53913b" y="92.861536"/>
      </g>
     </g>
     <g id="text_14">
      <!-- 1.0 -->
      <g transform="translate(157.096875 96.660754)scale(0.1 -0.1)">
       <use xlink:href="#DejaVuSans-31"/>
       <use x="63.623047" xlink:href="#DejaVuSans-2e"/>
       <use x="95.410156" xlink:href="#DejaVuSans-30"/>
      </g>
     </g>
    </g>
    <g id="text_15">
     <!-- TD State:0 -->
     <defs>
      <path d="M -0.296875 72.90625 
L 61.375 72.90625 
L 61.375 64.59375 
L 35.5 64.59375 
L 35.5 0 
L 25.59375 0 
L 25.59375 64.59375 
L -0.296875 64.59375 
z
" id="DejaVuSans-54"/>
      <path d="M 19.671875 64.796875 
L 19.671875 8.109375 
L 31.59375 8.109375 
Q 46.6875 8.109375 53.6875 14.9375 
Q 60.6875 21.78125 60.6875 36.53125 
Q 60.6875 51.171875 53.6875 57.984375 
Q 46.6875 64.796875 31.59375 64.796875 
z
M 9.8125 72.90625 
L 30.078125 72.90625 
Q 51.265625 72.90625 61.171875 64.09375 
Q 71.09375 55.28125 71.09375 36.53125 
Q 71.09375 17.671875 61.125 8.828125 
Q 51.171875 0 30.078125 0 
L 9.8125 0 
z
" id="DejaVuSans-44"/>
      <path id="DejaVuSans-20"/>
      <path d="M 53.515625 70.515625 
L 53.515625 60.890625 
Q 47.90625 63.578125 42.921875 64.890625 
Q 37.9375 66.21875 33.296875 66.21875 
Q 25.25 66.21875 20.875 63.09375 
Q 16.5 59.96875 16.5 54.203125 
Q 16.5 49.359375 19.40625 46.890625 
Q 22.3125 44.4375 30.421875 42.921875 
L 36.375 41.703125 
Q 47.40625 39.59375 52.65625 34.296875 
Q 57.90625 29 57.90625 20.125 
Q 57.90625 9.515625 50.796875 4.046875 
Q 43.703125 -1.421875 29.984375 -1.421875 
Q 24.8125 -1.421875 18.96875 -0.25 
Q 13.140625 0.921875 6.890625 3.21875 
L 6.890625 13.375 
Q 12.890625 10.015625 18.65625 8.296875 
Q 24.421875 6.59375 29.984375 6.59375 
Q 38.421875 6.59375 43.015625 9.90625 
Q 47.609375 13.234375 47.609375 19.390625 
Q 47.609375 24.75 44.3125 27.78125 
Q 41.015625 30.8125 33.5 32.328125 
L 27.484375 33.5 
Q 16.453125 35.6875 11.515625 40.375 
Q 6.59375 45.0625 6.59375 53.421875 
Q 6.59375 63.09375 13.40625 68.65625 
Q 20.21875 74.21875 32.171875 74.21875 
Q 37.3125 74.21875 42.625 73.28125 
Q 47.953125 72.359375 53.515625 70.515625 
z
" id="DejaVuSans-53"/>
      <path d="M 18.3125 70.21875 
L 18.3125 54.6875 
L 36.8125 54.6875 
L 36.8125 47.703125 
L 18.3125 47.703125 
L 18.3125 18.015625 
Q 18.3125 11.328125 20.140625 9.421875 
Q 21.96875 7.515625 27.59375 7.515625 
L 36.8125 7.515625 
L 36.8125 0 
L 27.59375 0 
Q 17.1875 0 13.234375 3.875 
Q 9.28125 7.765625 9.28125 18.015625 
L 9.28125 47.703125 
L 2.6875 47.703125 
L 2.6875 54.6875 
L 9.28125 54.6875 
L 9.28125 70.21875 
z
" id="DejaVuSans-74"/>
      <path d="M 34.28125 27.484375 
Q 23.390625 27.484375 19.1875 25 
Q 14.984375 22.515625 14.984375 16.5 
Q 14.984375 11.71875 18.140625 8.90625 
Q 21.296875 6.109375 26.703125 6.109375 
Q 34.1875 6.109375 38.703125 11.40625 
Q 43.21875 16.703125 43.21875 25.484375 
L 43.21875 27.484375 
z
M 52.203125 31.203125 
L 52.203125 0 
L 43.21875 0 
L 43.21875 8.296875 
Q 40.140625 3.328125 35.546875 0.953125 
Q 30.953125 -1.421875 24.3125 -1.421875 
Q 15.921875 -1.421875 10.953125 3.296875 
Q 6 8.015625 6 15.921875 
Q 6 25.140625 12.171875 29.828125 
Q 18.359375 34.515625 30.609375 34.515625 
L 43.21875 34.515625 
L 43.21875 35.40625 
Q 43.21875 41.609375 39.140625 45 
Q 35.0625 48.390625 27.6875 48.390625 
Q 23 48.390625 18.546875 47.265625 
Q 14.109375 46.140625 10.015625 43.890625 
L 10.015625 52.203125 
Q 14.9375 54.109375 19.578125 55.046875 
Q 24.21875 56 28.609375 56 
Q 40.484375 56 46.34375 49.84375 
Q 52.203125 43.703125 52.203125 31.203125 
z
" id="DejaVuSans-61"/>
      <path d="M 56.203125 29.59375 
L 56.203125 25.203125 
L 14.890625 25.203125 
Q 15.484375 15.921875 20.484375 11.0625 
Q 25.484375 6.203125 34.421875 6.203125 
Q 39.59375 6.203125 44.453125 7.46875 
Q 49.3125 8.734375 54.109375 11.28125 
L 54.109375 2.78125 
Q 49.265625 0.734375 44.1875 -0.34375 
Q 39.109375 -1.421875 33.890625 -1.421875 
Q 20.796875 -1.421875 13.15625 6.1875 
Q 5.515625 13.8125 5.515625 26.8125 
Q 5.515625 40.234375 12.765625 48.109375 
Q 20.015625 56 32.328125 56 
Q 43.359375 56 49.78125 48.890625 
Q 56.203125 41.796875 56.203125 29.59375 
z
M 47.21875 32.234375 
Q 47.125 39.59375 43.09375 43.984375 
Q 39.0625 48.390625 32.421875 48.390625 
Q 24.90625 48.390625 20.390625 44.140625 
Q 15.875 39.890625 15.1875 32.171875 
z
" id="DejaVuSans-65"/>
      <path d="M 11.71875 12.40625 
L 22.015625 12.40625 
L 22.015625 0 
L 11.71875 0 
z
M 11.71875 51.703125 
L 22.015625 51.703125 
L 22.015625 39.3125 
L 11.71875 39.3125 
z
" id="DejaVuSans-3a"/>
     </defs>
     <g transform="translate(142.6375 194.523162)rotate(-90)scale(0.1 -0.1)">
      <use xlink:href="#DejaVuSans-54"/>
      <use x="61.083984" xlink:href="#DejaVuSans-44"/>
      <use x="138.085938" xlink:href="#DejaVuSans-20"/>
      <use x="169.873047" xlink:href="#DejaVuSans-53"/>
      <use x="233.349609" xlink:href="#DejaVuSans-74"/>
      <use x="272.558594" xlink:href="#DejaVuSans-61"/>
      <use x="333.837891" xlink:href="#DejaVuSans-74"/>
      <use x="373.046875" xlink:href="#DejaVuSans-65"/>
      <use x="434.570312" xlink:href="#DejaVuSans-3a"/>
      <use x="468.261719" xlink:href="#DejaVuSans-30"/>
     </g>
    </g>
   </g>
   <g id="line2d_15">
    <path clip-path="url(#p5d34b67ce9)" d="M 230.727273 180.946993 
L 235.825491 183.603771 
L 240.923709 184.239499 
L 246.021928 186.269961 
L 251.120146 187.878296 
L 256.218365 191.410425 
L 261.316583 192.827799 
L 266.414801 195.225927 
L 271.51302 182.104696 
L 276.611238 138.993786 
L 281.709456 140.244532 
L 286.807675 139.137242 
L 291.905893 140.102859 
L 297.004111 158.953856 
L 302.10233 215.832441 
L 307.200548 216.329442 
L 312.298767 214.226543 
L 317.396985 216.418074 
L 322.495203 217.826207 
L 327.593422 141.745822 
L 332.69164 140.473549 
L 337.789858 140.099946 
L 342.888077 139.363765 
L 347.986295 139.137452 
L 353.084513 138.735773 
L 358.182732 134.606478 
L 363.28095 129.199494 
L 368.379169 127.444142 
L 373.477387 128.89308 
L 378.575605 129.646601 
L 383.673824 154.177023 
L 388.772042 222.094925 
L 393.87026 216.432704 
L 398.968479 214.586146 
L 404.066697 213.694989 
L 409.164915 185.052841 
L 414.263134 142.767586 
L 419.361352 153.513042 
L 424.459571 153.609482 
L 429.557789 151.100659 
L 434.656007 150.113698 
L 439.754226 183.416931 
L 444.852444 200.790221 
L 449.950662 201.182765 
L 455.048881 202.528582 
L 460.147099 202.984558 
L 465.245317 201.528847 
L 470.343536 147.599941 
L 475.441754 149.817821 
L 490.736409 148.709164 
L 495.834628 159.831293 
L 500.932846 172.675345 
L 506.031064 171.758898 
L 516.227501 172.046616 
L 521.32572 165.680452 
L 526.423938 123.683895 
L 531.522156 125.369968 
L 536.620375 124.838587 
L 541.718593 125.303684 
L 546.816811 126.554126 
L 551.91503 128.793067 
L 557.013248 131.723798 
L 562.111466 122.257505 
L 567.209685 118.132759 
L 572.307903 125.769745 
L 577.406122 129.245584 
L 582.50434 136.464765 
L 587.602558 132.862938 
L 592.700777 125.433706 
L 597.798995 121.924096 
L 602.897213 123.739349 
L 607.995432 138.395569 
L 613.09365 149.898403 
L 618.191868 149.929701 
L 623.290087 138.920706 
L 628.388305 149.985592 
L 633.486524 138.428619 
L 638.584742 133.203101 
L 643.68296 126.262838 
L 648.781179 126.203448 
L 658.977615 150.442064 
L 664.075834 161.396597 
L 674.27227 161.533508 
L 679.370489 150.506574 
L 689.566926 172.788635 
L 694.665144 172.496285 
L 699.763362 172.34231 
L 720.156236 172.405056 
L 725.254454 173.528397 
L 730.352672 173.460835 
L 740.549109 195.571256 
L 745.647328 195.604218 
L 750.745546 194.623975 
L 755.843764 183.84505 
L 760.941983 206.102866 
L 766.040201 206.08774 
L 771.138419 217.159015 
L 776.236638 206.142815 
L 781.334856 233.266031 
L 786.433074 216.396531 
L 791.531293 191.706466 
L 796.629511 158.299543 
L 801.72773 110.121714 
L 806.825948 191.382015 
L 811.924166 182.573834 
L 817.022385 138.340044 
L 822.120603 171.461512 
L 827.218821 182.408684 
L 832.31704 171.299999 
L 852.709913 171.217956 
L 857.808132 193.291365 
L 862.90635 157.681626 
L 868.004568 93.811765 
L 873.102787 101.338591 
L 878.201005 120.086327 
L 883.299223 157.951001 
L 888.397442 182.942384 
L 893.49566 204.432754 
L 898.593878 215.550673 
L 903.692097 218.109754 
L 908.790315 222.962378 
L 913.888534 225.119136 
L 918.986752 177.261527 
L 924.08497 157.820165 
L 929.183189 156.677767 
L 939.379625 154.948862 
L 944.477844 176.42208 
L 949.576062 198.542585 
L 954.67428 196.489963 
L 959.772499 196.894319 
L 964.870717 201.063446 
L 969.968936 199.182073 
L 975.067154 168.398056 
L 980.165372 173.198788 
L 985.263591 173.108271 
L 990.361809 172.638161 
L 1000.558246 172.28548 
L 1005.656464 192.453706 
L 1010.754683 185.489349 
L 1015.852901 187.082177 
L 1020.951119 187.216617 
L 1026.049338 188.46799 
L 1031.147556 178.817981 
L 1036.245774 126.694927 
L 1041.343993 128.649978 
L 1046.442211 128.370128 
L 1051.540429 127.241059 
L 1056.638648 159.553924 
L 1061.736866 220.4178 
L 1066.835085 216.507683 
L 1071.933303 216.543477 
L 1077.031521 217.166961 
L 1082.12974 218.496099 
L 1087.227958 205.738667 
L 1092.326176 185.708021 
L 1097.424395 189.996935 
L 1102.522613 192.326309 
L 1107.620831 189.57722 
L 1112.71905 192.471167 
L 1117.817268 187.512407 
L 1122.915487 187.482511 
L 1128.013705 186.572731 
L 1133.111923 189.448528 
L 1138.210142 186.253241 
L 1143.30836 188.85486 
L 1148.406578 238.19552 
L 1153.504797 232.304902 
L 1158.603015 232.527093 
L 1163.701233 233.971824 
L 1168.799452 186.344961 
L 1173.89767 97.603878 
L 1178.995889 108.819603 
L 1184.094107 116.878587 
L 1189.192325 116.961003 
L 1194.290544 114.697034 
L 1199.388762 187.035806 
L 1204.48698 175.458714 
L 1209.585199 175.044864 
L 1214.683417 174.886817 
L 1219.781635 172.232108 
L 1224.879854 173.051646 
L 1229.978072 148.563546 
L 1235.076291 131.499388 
L 1245.272727 131.243519 
L 1245.272727 131.243519 
" style="fill:none;stroke:#000000;stroke-linecap:square;stroke-width:4;"/>
   </g>
   <g id="line2d_16">
    <path clip-path="url(#p5d34b67ce9)" d="M 230.727273 206.713645 
L 235.825491 194.935841 
L 240.923709 206.713645 
L 246.021928 194.935841 
L 251.120146 194.935841 
L 256.218365 206.713645 
L 261.316583 183.158036 
L 271.51302 159.602428 
L 276.611238 171.380232 
L 281.709456 171.380232 
L 286.807675 159.602428 
L 291.905893 194.935841 
L 297.004111 194.935841 
L 302.10233 206.713645 
L 307.200548 147.824623 
L 312.298767 183.158036 
L 317.396985 194.935841 
L 327.593422 171.380232 
L 358.182732 171.380232 
L 368.379169 147.824623 
L 378.575605 171.380232 
L 388.772042 171.380232 
L 393.87026 183.158036 
L 398.968479 171.380232 
L 409.164915 171.380232 
L 414.263134 183.158036 
L 419.361352 147.824623 
L 424.459571 183.158036 
L 429.557789 171.380232 
L 434.656007 171.380232 
L 439.754226 147.824623 
L 444.852444 183.158036 
L 449.950662 194.935841 
L 455.048881 183.158036 
L 460.147099 183.158036 
L 465.245317 171.380232 
L 470.343536 171.380232 
L 475.441754 183.158036 
L 480.539973 171.380232 
L 531.522156 171.380232 
L 536.620375 147.824623 
L 546.816811 124.269014 
L 551.91503 147.824623 
L 557.013248 136.046819 
L 562.111466 136.046819 
L 567.209685 112.49121 
L 572.307903 136.046819 
L 577.406122 124.269014 
L 592.700777 124.269014 
L 602.897213 147.824623 
L 607.995432 136.046819 
L 613.09365 147.824623 
L 618.191868 147.824623 
L 623.290087 136.046819 
L 628.388305 147.824623 
L 633.486524 136.046819 
L 638.584742 147.824623 
L 643.68296 136.046819 
L 648.781179 136.046819 
L 658.977615 159.602428 
L 674.27227 159.602428 
L 679.370489 147.824623 
L 689.566926 171.380232 
L 730.352672 171.380232 
L 740.549109 194.935841 
L 750.745546 194.935841 
L 755.843764 183.158036 
L 760.941983 206.713645 
L 766.040201 206.713645 
L 771.138419 218.49145 
L 776.236638 206.713645 
L 781.334856 218.49145 
L 786.433074 206.713645 
L 796.629511 206.713645 
L 801.72773 194.935841 
L 806.825948 194.935841 
L 811.924166 183.158036 
L 817.022385 136.046819 
L 822.120603 171.380232 
L 827.218821 183.158036 
L 832.31704 171.380232 
L 852.709913 171.380232 
L 857.808132 194.935841 
L 862.90635 147.824623 
L 868.004568 218.49145 
L 873.102787 206.713645 
L 878.201005 218.49145 
L 888.397442 218.49145 
L 893.49566 242.047059 
L 898.593878 218.49145 
L 903.692097 230.269254 
L 908.790315 206.713645 
L 913.888534 194.935841 
L 918.986752 206.713645 
L 924.08497 206.713645 
L 934.281407 183.158036 
L 939.379625 194.935841 
L 944.477844 218.49145 
L 949.576062 194.935841 
L 959.772499 194.935841 
L 964.870717 206.713645 
L 969.968936 183.158036 
L 975.067154 194.935841 
L 980.165372 183.158036 
L 985.263591 194.935841 
L 990.361809 159.602428 
L 995.460027 171.380232 
L 1000.558246 194.935841 
L 1005.656464 183.158036 
L 1010.754683 194.935841 
L 1020.951119 147.824623 
L 1026.049338 183.158036 
L 1031.147556 171.380232 
L 1051.540429 171.380232 
L 1056.638648 194.935841 
L 1071.933303 194.935841 
L 1077.031521 206.713645 
L 1082.12974 194.935841 
L 1087.227958 194.935841 
L 1092.326176 206.713645 
L 1097.424395 194.935841 
L 1107.620831 194.935841 
L 1112.71905 218.49145 
L 1117.817268 183.158036 
L 1122.915487 194.935841 
L 1128.013705 194.935841 
L 1133.111923 206.713645 
L 1143.30836 206.713645 
L 1148.406578 218.49145 
L 1153.504797 194.935841 
L 1158.603015 194.935841 
L 1163.701233 136.046819 
L 1168.799452 171.380232 
L 1229.978072 171.380232 
L 1235.076291 136.046819 
L 1240.174509 171.380232 
L 1245.272727 171.380232 
L 1245.272727 171.380232 
" style="fill:none;stroke:#ff0000;stroke-linecap:square;stroke-width:1.5;"/>
   </g>
   <g id="patch_3">
    <path d="M 180 249.458824 
L 180 86.4 
" style="fill:none;stroke:#000000;stroke-linecap:square;stroke-linejoin:miter;stroke-width:0.8;"/>
   </g>
   <g id="patch_4">
    <path d="M 1296 249.458824 
L 1296 86.4 
" style="fill:none;stroke:#000000;stroke-linecap:square;stroke-linejoin:miter;stroke-width:0.8;"/>
   </g>
   <g id="patch_5">
    <path d="M 180 249.458824 
L 1296 249.458824 
" style="fill:none;stroke:#000000;stroke-linecap:square;stroke-linejoin:miter;stroke-width:0.8;"/>
   </g>
   <g id="patch_6">
    <path d="M 180 86.4 
L 1296 86.4 
" style="fill:none;stroke:#000000;stroke-linecap:square;stroke-linejoin:miter;stroke-width:0.8;"/>
   </g>
   <g id="legend_1">
    <g id="patch_7">
     <path d="M 1234.3125 123.75625 
L 1289 123.75625 
Q 1291 123.75625 1291 121.75625 
L 1291 93.4 
Q 1291 91.4 1289 91.4 
L 1234.3125 91.4 
Q 1232.3125 91.4 1232.3125 93.4 
L 1232.3125 121.75625 
Q 1232.3125 123.75625 1234.3125 123.75625 
z
" style="fill:#ffffff;opacity:0.8;stroke:#cccccc;stroke-linejoin:miter;"/>
    </g>
    <g id="line2d_17">
     <path d="M 1236.3125 99.498438 
L 1256.3125 99.498438 
" style="fill:none;stroke:#000000;stroke-linecap:square;stroke-width:4;"/>
    </g>
    <g id="line2d_18"/>
    <g id="text_16">
     <!-- Pred -->
     <defs>
      <path d="M 19.671875 64.796875 
L 19.671875 37.40625 
L 32.078125 37.40625 
Q 38.96875 37.40625 42.71875 40.96875 
Q 46.484375 44.53125 46.484375 51.125 
Q 46.484375 57.671875 42.71875 61.234375 
Q 38.96875 64.796875 32.078125 64.796875 
z
M 9.8125 72.90625 
L 32.078125 72.90625 
Q 44.34375 72.90625 50.609375 67.359375 
Q 56.890625 61.8125 56.890625 51.125 
Q 56.890625 40.328125 50.609375 34.8125 
Q 44.34375 29.296875 32.078125 29.296875 
L 19.671875 29.296875 
L 19.671875 0 
L 9.8125 0 
z
" id="DejaVuSans-50"/>
      <path d="M 41.109375 46.296875 
Q 39.59375 47.171875 37.8125 47.578125 
Q 36.03125 48 33.890625 48 
Q 26.265625 48 22.1875 43.046875 
Q 18.109375 38.09375 18.109375 28.8125 
L 18.109375 0 
L 9.078125 0 
L 9.078125 54.6875 
L 18.109375 54.6875 
L 18.109375 46.1875 
Q 20.953125 51.171875 25.484375 53.578125 
Q 30.03125 56 36.53125 56 
Q 37.453125 56 38.578125 55.875 
Q 39.703125 55.765625 41.0625 55.515625 
z
" id="DejaVuSans-72"/>
      <path d="M 45.40625 46.390625 
L 45.40625 75.984375 
L 54.390625 75.984375 
L 54.390625 0 
L 45.40625 0 
L 45.40625 8.203125 
Q 42.578125 3.328125 38.25 0.953125 
Q 33.9375 -1.421875 27.875 -1.421875 
Q 17.96875 -1.421875 11.734375 6.484375 
Q 5.515625 14.40625 5.515625 27.296875 
Q 5.515625 40.1875 11.734375 48.09375 
Q 17.96875 56 27.875 56 
Q 33.9375 56 38.25 53.625 
Q 42.578125 51.265625 45.40625 46.390625 
z
M 14.796875 27.296875 
Q 14.796875 17.390625 18.875 11.75 
Q 22.953125 6.109375 30.078125 6.109375 
Q 37.203125 6.109375 41.296875 11.75 
Q 45.40625 17.390625 45.40625 27.296875 
Q 45.40625 37.203125 41.296875 42.84375 
Q 37.203125 48.484375 30.078125 48.484375 
Q 22.953125 48.484375 18.875 42.84375 
Q 14.796875 37.203125 14.796875 27.296875 
z
" id="DejaVuSans-64"/>
     </defs>
     <g transform="translate(1264.3125 102.998438)scale(0.1 -0.1)">
      <use xlink:href="#DejaVuSans-50"/>
      <use x="60.287109" xlink:href="#DejaVuSans-72"/>
      <use x="101.369141" xlink:href="#DejaVuSans-65"/>
      <use x="162.892578" xlink:href="#DejaVuSans-64"/>
     </g>
    </g>
    <g id="line2d_19">
     <path d="M 1236.3125 114.176563 
L 1256.3125 114.176563 
" style="fill:none;stroke:#ff0000;stroke-linecap:square;stroke-width:1.5;"/>
    </g>
    <g id="line2d_20"/>
    <g id="text_17">
     <!-- True -->
     <defs>
      <path d="M 8.5 21.578125 
L 8.5 54.6875 
L 17.484375 54.6875 
L 17.484375 21.921875 
Q 17.484375 14.15625 20.5 10.265625 
Q 23.53125 6.390625 29.59375 6.390625 
Q 36.859375 6.390625 41.078125 11.03125 
Q 45.3125 15.671875 45.3125 23.6875 
L 45.3125 54.6875 
L 54.296875 54.6875 
L 54.296875 0 
L 45.3125 0 
L 45.3125 8.40625 
Q 42.046875 3.421875 37.71875 1 
Q 33.40625 -1.421875 27.6875 -1.421875 
Q 18.265625 -1.421875 13.375 4.4375 
Q 8.5 10.296875 8.5 21.578125 
z
M 31.109375 56 
z
" id="DejaVuSans-75"/>
     </defs>
     <g transform="translate(1264.3125 117.676563)scale(0.1 -0.1)">
      <use xlink:href="#DejaVuSans-54"/>
      <use x="60.865234" xlink:href="#DejaVuSans-72"/>
      <use x="101.978516" xlink:href="#DejaVuSans-75"/>
      <use x="165.357422" xlink:href="#DejaVuSans-65"/>
     </g>
    </g>
   </g>
  </g>
  <g id="axes_2">
   <g id="patch_8">
    <path d="M 180 445.129412 
L 1296 445.129412 
L 1296 282.070588 
L 180 282.070588 
z
" style="fill:#ffffff;"/>
   </g>
   <g id="matplotlib.axis_3">
    <g id="xtick_10">
     <g id="line2d_21">
      <g>
       <use style="stroke:#000000;stroke-width:0.8;" x="225.629054" xlink:href="#m24e68701c0" y="445.129412"/>
      </g>
     </g>
     <g id="text_18">
      <!-- 0 -->
      <g transform="translate(222.447804 459.727849)scale(0.1 -0.1)">
       <use xlink:href="#DejaVuSans-30"/>
      </g>
     </g>
    </g>
    <g id="xtick_11">
     <g id="line2d_22">
      <g>
       <use style="stroke:#000000;stroke-width:0.8;" x="353.084513" xlink:href="#m24e68701c0" y="445.129412"/>
      </g>
     </g>
     <g id="text_19">
      <!-- 500 -->
      <g transform="translate(343.540763 459.727849)scale(0.1 -0.1)">
       <use xlink:href="#DejaVuSans-35"/>
       <use x="63.623047" xlink:href="#DejaVuSans-30"/>
       <use x="127.246094" xlink:href="#DejaVuSans-30"/>
      </g>
     </g>
    </g>
    <g id="xtick_12">
     <g id="line2d_23">
      <g>
       <use style="stroke:#000000;stroke-width:0.8;" x="480.539973" xlink:href="#m24e68701c0" y="445.129412"/>
      </g>
     </g>
     <g id="text_20">
      <!-- 1000 -->
      <g transform="translate(467.814973 459.727849)scale(0.1 -0.1)">
       <use xlink:href="#DejaVuSans-31"/>
       <use x="63.623047" xlink:href="#DejaVuSans-30"/>
       <use x="127.246094" xlink:href="#DejaVuSans-30"/>
       <use x="190.869141" xlink:href="#DejaVuSans-30"/>
      </g>
     </g>
    </g>
    <g id="xtick_13">
     <g id="line2d_24">
      <g>
       <use style="stroke:#000000;stroke-width:0.8;" x="607.995432" xlink:href="#m24e68701c0" y="445.129412"/>
      </g>
     </g>
     <g id="text_21">
      <!-- 1500 -->
      <g transform="translate(595.270432 459.727849)scale(0.1 -0.1)">
       <use xlink:href="#DejaVuSans-31"/>
       <use x="63.623047" xlink:href="#DejaVuSans-35"/>
       <use x="127.246094" xlink:href="#DejaVuSans-30"/>
       <use x="190.869141" xlink:href="#DejaVuSans-30"/>
      </g>
     </g>
    </g>
    <g id="xtick_14">
     <g id="line2d_25">
      <g>
       <use style="stroke:#000000;stroke-width:0.8;" x="735.450891" xlink:href="#m24e68701c0" y="445.129412"/>
      </g>
     </g>
     <g id="text_22">
      <!-- 2000 -->
      <g transform="translate(722.725891 459.727849)scale(0.1 -0.1)">
       <use xlink:href="#DejaVuSans-32"/>
       <use x="63.623047" xlink:href="#DejaVuSans-30"/>
       <use x="127.246094" xlink:href="#DejaVuSans-30"/>
       <use x="190.869141" xlink:href="#DejaVuSans-30"/>
      </g>
     </g>
    </g>
    <g id="xtick_15">
     <g id="line2d_26">
      <g>
       <use style="stroke:#000000;stroke-width:0.8;" x="862.90635" xlink:href="#m24e68701c0" y="445.129412"/>
      </g>
     </g>
     <g id="text_23">
      <!-- 2500 -->
      <g transform="translate(850.18135 459.727849)scale(0.1 -0.1)">
       <use xlink:href="#DejaVuSans-32"/>
       <use x="63.623047" xlink:href="#DejaVuSans-35"/>
       <use x="127.246094" xlink:href="#DejaVuSans-30"/>
       <use x="190.869141" xlink:href="#DejaVuSans-30"/>
      </g>
     </g>
    </g>
    <g id="xtick_16">
     <g id="line2d_27">
      <g>
       <use style="stroke:#000000;stroke-width:0.8;" x="990.361809" xlink:href="#m24e68701c0" y="445.129412"/>
      </g>
     </g>
     <g id="text_24">
      <!-- 3000 -->
      <g transform="translate(977.636809 459.727849)scale(0.1 -0.1)">
       <use xlink:href="#DejaVuSans-33"/>
       <use x="63.623047" xlink:href="#DejaVuSans-30"/>
       <use x="127.246094" xlink:href="#DejaVuSans-30"/>
       <use x="190.869141" xlink:href="#DejaVuSans-30"/>
      </g>
     </g>
    </g>
    <g id="xtick_17">
     <g id="line2d_28">
      <g>
       <use style="stroke:#000000;stroke-width:0.8;" x="1117.817268" xlink:href="#m24e68701c0" y="445.129412"/>
      </g>
     </g>
     <g id="text_25">
      <!-- 3500 -->
      <g transform="translate(1105.092268 459.727849)scale(0.1 -0.1)">
       <use xlink:href="#DejaVuSans-33"/>
       <use x="63.623047" xlink:href="#DejaVuSans-35"/>
       <use x="127.246094" xlink:href="#DejaVuSans-30"/>
       <use x="190.869141" xlink:href="#DejaVuSans-30"/>
      </g>
     </g>
    </g>
    <g id="xtick_18">
     <g id="line2d_29">
      <g>
       <use style="stroke:#000000;stroke-width:0.8;" x="1245.272727" xlink:href="#m24e68701c0" y="445.129412"/>
      </g>
     </g>
     <g id="text_26">
      <!-- 4000 -->
      <g transform="translate(1232.547727 459.727849)scale(0.1 -0.1)">
       <use xlink:href="#DejaVuSans-34"/>
       <use x="63.623047" xlink:href="#DejaVuSans-30"/>
       <use x="127.246094" xlink:href="#DejaVuSans-30"/>
       <use x="190.869141" xlink:href="#DejaVuSans-30"/>
      </g>
     </g>
    </g>
   </g>
   <g id="matplotlib.axis_4">
    <g id="ytick_6">
     <g id="line2d_30">
      <g>
       <use style="stroke:#000000;stroke-width:0.8;" x="180" xlink:href="#m070f53913b" y="421.664856"/>
      </g>
     </g>
     <g id="text_27">
      <!-- −0.10 -->
      <g transform="translate(142.354688 425.464075)scale(0.1 -0.1)">
       <use xlink:href="#DejaVuSans-2212"/>
       <use x="83.789062" xlink:href="#DejaVuSans-30"/>
       <use x="147.412109" xlink:href="#DejaVuSans-2e"/>
       <use x="179.199219" xlink:href="#DejaVuSans-31"/>
       <use x="242.822266" xlink:href="#DejaVuSans-30"/>
      </g>
     </g>
    </g>
    <g id="ytick_7">
     <g id="line2d_31">
      <g>
       <use style="stroke:#000000;stroke-width:0.8;" x="180" xlink:href="#m070f53913b" y="396.726093"/>
      </g>
     </g>
     <g id="text_28">
      <!-- −0.05 -->
      <g transform="translate(142.354688 400.525311)scale(0.1 -0.1)">
       <use xlink:href="#DejaVuSans-2212"/>
       <use x="83.789062" xlink:href="#DejaVuSans-30"/>
       <use x="147.412109" xlink:href="#DejaVuSans-2e"/>
       <use x="179.199219" xlink:href="#DejaVuSans-30"/>
       <use x="242.822266" xlink:href="#DejaVuSans-35"/>
      </g>
     </g>
    </g>
    <g id="ytick_8">
     <g id="line2d_32">
      <g>
       <use style="stroke:#000000;stroke-width:0.8;" x="180" xlink:href="#m070f53913b" y="371.787329"/>
      </g>
     </g>
     <g id="text_29">
      <!-- 0.00 -->
      <g transform="translate(150.734375 375.586548)scale(0.1 -0.1)">
       <use xlink:href="#DejaVuSans-30"/>
       <use x="63.623047" xlink:href="#DejaVuSans-2e"/>
       <use x="95.410156" xlink:href="#DejaVuSans-30"/>
       <use x="159.033203" xlink:href="#DejaVuSans-30"/>
      </g>
     </g>
    </g>
    <g id="ytick_9">
     <g id="line2d_33">
      <g>
       <use style="stroke:#000000;stroke-width:0.8;" x="180" xlink:href="#m070f53913b" y="346.848566"/>
      </g>
     </g>
     <g id="text_30">
      <!-- 0.05 -->
      <g transform="translate(150.734375 350.647784)scale(0.1 -0.1)">
       <use xlink:href="#DejaVuSans-30"/>
       <use x="63.623047" xlink:href="#DejaVuSans-2e"/>
       <use x="95.410156" xlink:href="#DejaVuSans-30"/>
       <use x="159.033203" xlink:href="#DejaVuSans-35"/>
      </g>
     </g>
    </g>
    <g id="ytick_10">
     <g id="line2d_34">
      <g>
       <use style="stroke:#000000;stroke-width:0.8;" x="180" xlink:href="#m070f53913b" y="321.909802"/>
      </g>
     </g>
     <g id="text_31">
      <!-- 0.10 -->
      <g transform="translate(150.734375 325.709021)scale(0.1 -0.1)">
       <use xlink:href="#DejaVuSans-30"/>
       <use x="63.623047" xlink:href="#DejaVuSans-2e"/>
       <use x="95.410156" xlink:href="#DejaVuSans-31"/>
       <use x="159.033203" xlink:href="#DejaVuSans-30"/>
      </g>
     </g>
    </g>
    <g id="ytick_11">
     <g id="line2d_35">
      <g>
       <use style="stroke:#000000;stroke-width:0.8;" x="180" xlink:href="#m070f53913b" y="296.971039"/>
      </g>
     </g>
     <g id="text_32">
      <!-- 0.15 -->
      <g transform="translate(150.734375 300.770257)scale(0.1 -0.1)">
       <use xlink:href="#DejaVuSans-30"/>
       <use x="63.623047" xlink:href="#DejaVuSans-2e"/>
       <use x="95.410156" xlink:href="#DejaVuSans-31"/>
       <use x="159.033203" xlink:href="#DejaVuSans-35"/>
      </g>
     </g>
    </g>
    <g id="text_33">
     <!-- TD State:1 -->
     <g transform="translate(136.275 390.19375)rotate(-90)scale(0.1 -0.1)">
      <use xlink:href="#DejaVuSans-54"/>
      <use x="61.083984" xlink:href="#DejaVuSans-44"/>
      <use x="138.085938" xlink:href="#DejaVuSans-20"/>
      <use x="169.873047" xlink:href="#DejaVuSans-53"/>
      <use x="233.349609" xlink:href="#DejaVuSans-74"/>
      <use x="272.558594" xlink:href="#DejaVuSans-61"/>
      <use x="333.837891" xlink:href="#DejaVuSans-74"/>
      <use x="373.046875" xlink:href="#DejaVuSans-65"/>
      <use x="434.570312" xlink:href="#DejaVuSans-3a"/>
      <use x="468.261719" xlink:href="#DejaVuSans-31"/>
     </g>
    </g>
   </g>
   <g id="line2d_36">
    <path clip-path="url(#p64e7277fba)" d="M 230.727273 359.247842 
L 235.825491 362.133977 
L 240.923709 363.655985 
L 246.021928 364.968111 
L 251.120146 365.860957 
L 256.218365 366.15009 
L 261.316583 368.248303 
L 266.414801 367.79068 
L 271.51302 369.12291 
L 276.611238 394.666122 
L 281.709456 391.933886 
L 286.807675 393.428201 
L 291.905893 397.687424 
L 297.004111 369.36846 
L 302.10233 360.064304 
L 307.200548 361.27017 
L 317.396985 361.214799 
L 322.495203 361.999638 
L 327.593422 369.275325 
L 332.69164 371.81739 
L 337.789858 372.582519 
L 342.888077 374.090078 
L 347.986295 374.553573 
L 353.084513 375.376213 
L 358.182732 383.832496 
L 363.28095 393.984228 
L 368.379169 399.113696 
L 373.477387 404.912532 
L 378.575605 408.86845 
L 383.673824 369.306229 
L 388.772042 357.493996 
L 393.87026 360.207584 
L 398.968479 361.635052 
L 404.066697 362.031121 
L 409.164915 368.949685 
L 414.263134 375.354184 
L 419.361352 369.237391 
L 429.557789 369.302037 
L 434.656007 369.312294 
L 439.754226 368.963123 
L 444.852444 367.037005 
L 449.950662 368.113161 
L 455.048881 368.640574 
L 465.245317 368.670378 
L 470.343536 369.230122 
L 495.834628 369.067027 
L 500.932846 368.933661 
L 521.32572 369.006334 
L 526.423938 403.744809 
L 531.522156 400.291943 
L 536.620375 399.5378 
L 546.816811 412.646586 
L 551.91503 420.170301 
L 557.013248 416.740789 
L 562.111466 392.294014 
L 567.209685 425.058013 
L 572.307903 435.474585 
L 577.406122 426.725271 
L 582.50434 400.64526 
L 587.602558 376.233906 
L 592.700777 370.671678 
L 597.798995 368.009588 
L 602.897213 367.537706 
L 607.995432 365.005191 
L 613.09365 366.069286 
L 618.191868 365.904994 
L 623.290087 362.229951 
L 628.388305 365.613089 
L 633.486524 364.83916 
L 638.584742 372.710489 
L 643.68296 368.187046 
L 648.781179 368.226192 
L 658.977615 375.830002 
L 664.075834 367.174904 
L 669.174052 366.538429 
L 674.27227 366.451917 
L 679.370489 362.869652 
L 684.468707 366.092474 
L 689.566926 368.827572 
L 694.665144 370.375087 
L 699.763362 371.190637 
L 709.959799 370.911345 
L 720.156236 370.858367 
L 725.254454 364.912666 
L 730.352672 365.269611 
L 740.549109 372.131986 
L 745.647328 371.956687 
L 750.745546 377.143681 
L 755.843764 372.248912 
L 760.941983 378.330773 
L 766.040201 378.407772 
L 771.138419 381.75264 
L 776.236638 378.111311 
L 781.334856 429.016573 
L 786.433074 433.704192 
L 791.531293 437.717647 
L 796.629511 417.983304 
L 801.72773 367.785961 
L 806.825948 386.188255 
L 811.924166 378.952759 
L 817.022385 365.293057 
L 822.120603 375.82487 
L 827.218821 379.828439 
L 832.31704 376.678867 
L 842.513476 376.972749 
L 852.709913 377.113235 
L 857.808132 384.172811 
L 862.90635 387.806337 
L 868.004568 306.53426 
L 873.102787 292.145974 
L 878.201005 289.482353 
L 883.299223 315.408322 
L 888.397442 323.300706 
L 893.49566 339.916681 
L 898.593878 352.348237 
L 903.692097 354.623185 
L 908.790315 356.091664 
L 913.888534 357.347594 
L 918.986752 368.963628 
L 924.08497 369.057127 
L 944.477844 368.577177 
L 949.576062 368.199748 
L 964.870717 367.958703 
L 969.968936 367.866423 
L 975.067154 368.151676 
L 985.263591 367.994526 
L 990.361809 367.921957 
L 1000.558246 367.966938 
L 1005.656464 367.683617 
L 1010.754683 367.721522 
L 1020.951119 367.624516 
L 1031.147556 367.751222 
L 1036.245774 368.138595 
L 1051.540429 368.137346 
L 1056.638648 367.954719 
L 1061.736866 367.250877 
L 1077.031521 367.069885 
L 1082.12974 366.945884 
L 1092.326176 367.143584 
L 1102.522613 366.892817 
L 1122.915487 366.618059 
L 1138.210142 366.380224 
L 1143.30836 366.244659 
L 1148.406578 365.62611 
L 1163.701233 365.369249 
L 1173.89767 366.484218 
L 1194.290544 366.446224 
L 1199.388762 365.970138 
L 1204.48698 366.089769 
L 1224.879854 366.114861 
L 1229.978072 366.369046 
L 1235.076291 366.346868 
L 1240.174509 366.518942 
L 1245.272727 366.519179 
L 1245.272727 366.519179 
" style="fill:none;stroke:#000000;stroke-linecap:square;stroke-width:4;"/>
   </g>
   <g id="line2d_37">
    <path clip-path="url(#p64e7277fba)" d="M 230.727273 368.046515 
L 235.825491 375.528144 
L 240.923709 368.046515 
L 251.120146 375.528144 
L 256.218365 364.3057 
L 261.316583 368.046515 
L 266.414801 368.046515 
L 271.51302 375.528144 
L 281.709456 368.046515 
L 286.807675 383.009773 
L 291.905893 371.787329 
L 297.004111 375.528144 
L 302.10233 353.083257 
L 307.200548 383.009773 
L 317.396985 368.046515 
L 322.495203 368.046515 
L 327.593422 371.787329 
L 353.084513 371.787329 
L 358.182732 368.046515 
L 363.28095 368.046515 
L 368.379169 375.528144 
L 373.477387 375.528144 
L 378.575605 371.787329 
L 383.673824 371.787329 
L 388.772042 375.528144 
L 393.87026 368.046515 
L 398.968479 371.787329 
L 404.066697 371.787329 
L 409.164915 375.528144 
L 414.263134 360.564886 
L 419.361352 383.009773 
L 424.459571 368.046515 
L 429.557789 371.787329 
L 434.656007 364.3057 
L 439.754226 383.009773 
L 449.950662 368.046515 
L 455.048881 371.787329 
L 460.147099 368.046515 
L 470.343536 375.528144 
L 475.441754 368.046515 
L 480.539973 371.787329 
L 526.423938 371.787329 
L 531.522156 364.3057 
L 536.620375 368.046515 
L 541.718593 368.046515 
L 546.816811 379.268958 
L 551.91503 368.046515 
L 557.013248 371.787329 
L 562.111466 364.3057 
L 567.209685 379.268958 
L 572.307903 368.046515 
L 577.406122 371.787329 
L 587.602558 371.787329 
L 592.700777 375.528144 
L 597.798995 375.528144 
L 602.897213 368.046515 
L 607.995432 375.528144 
L 618.191868 368.046515 
L 623.290087 375.528144 
L 628.388305 368.046515 
L 633.486524 375.528144 
L 638.584742 368.046515 
L 648.781179 375.528144 
L 653.879397 375.528144 
L 658.977615 371.787329 
L 669.174052 371.787329 
L 674.27227 368.046515 
L 679.370489 375.528144 
L 684.468707 375.528144 
L 689.566926 371.787329 
L 725.254454 371.787329 
L 730.352672 375.528144 
L 735.450891 375.528144 
L 740.549109 371.787329 
L 745.647328 371.787329 
L 750.745546 368.046515 
L 755.843764 379.268958 
L 760.941983 371.787329 
L 766.040201 375.528144 
L 771.138419 368.046515 
L 776.236638 375.528144 
L 781.334856 368.046515 
L 786.433074 371.787329 
L 791.531293 371.787329 
L 796.629511 368.046515 
L 801.72773 371.787329 
L 806.825948 368.046515 
L 811.924166 356.824071 
L 817.022385 383.009773 
L 827.218821 368.046515 
L 832.31704 371.787329 
L 847.611695 371.787329 
L 852.709913 379.268958 
L 857.808132 356.824071 
L 862.90635 394.232216 
L 868.004568 368.046515 
L 873.102787 375.528144 
L 878.201005 371.787329 
L 883.299223 371.787329 
L 888.397442 379.268958 
L 893.49566 364.3057 
L 898.593878 375.528144 
L 903.692097 364.3057 
L 908.790315 368.046515 
L 913.888534 375.528144 
L 924.08497 368.046515 
L 929.183189 368.046515 
L 934.281407 375.528144 
L 939.379625 379.268958 
L 944.477844 364.3057 
L 949.576062 371.787329 
L 954.67428 371.787329 
L 959.772499 375.528144 
L 964.870717 364.3057 
L 969.968936 375.528144 
L 975.067154 368.046515 
L 980.165372 375.528144 
L 985.263591 360.564886 
L 990.361809 375.528144 
L 995.460027 379.268958 
L 1000.558246 368.046515 
L 1005.656464 375.528144 
L 1010.754683 364.3057 
L 1015.852901 364.3057 
L 1020.951119 383.009773 
L 1026.049338 368.046515 
L 1031.147556 371.787329 
L 1046.442211 371.787329 
L 1051.540429 379.268958 
L 1056.638648 371.787329 
L 1066.835085 371.787329 
L 1071.933303 375.528144 
L 1077.031521 368.046515 
L 1087.227958 375.528144 
L 1092.326176 368.046515 
L 1097.424395 371.787329 
L 1102.522613 371.787329 
L 1107.620831 379.268958 
L 1112.71905 360.564886 
L 1117.817268 375.528144 
L 1122.915487 371.787329 
L 1128.013705 375.528144 
L 1133.111923 371.787329 
L 1138.210142 371.787329 
L 1143.30836 375.528144 
L 1148.406578 364.3057 
L 1153.504797 371.787329 
L 1158.603015 353.083257 
L 1163.701233 383.009773 
L 1168.799452 371.787329 
L 1224.879854 371.787329 
L 1229.978072 360.564886 
L 1235.076291 383.009773 
L 1240.174509 371.787329 
L 1245.272727 364.3057 
L 1245.272727 364.3057 
" style="fill:none;stroke:#ff0000;stroke-linecap:square;stroke-width:1.5;"/>
   </g>
   <g id="patch_9">
    <path d="M 180 445.129412 
L 180 282.070588 
" style="fill:none;stroke:#000000;stroke-linecap:square;stroke-linejoin:miter;stroke-width:0.8;"/>
   </g>
   <g id="patch_10">
    <path d="M 1296 445.129412 
L 1296 282.070588 
" style="fill:none;stroke:#000000;stroke-linecap:square;stroke-linejoin:miter;stroke-width:0.8;"/>
   </g>
   <g id="patch_11">
    <path d="M 180 445.129412 
L 1296 445.129412 
" style="fill:none;stroke:#000000;stroke-linecap:square;stroke-linejoin:miter;stroke-width:0.8;"/>
   </g>
   <g id="patch_12">
    <path d="M 180 282.070588 
L 1296 282.070588 
" style="fill:none;stroke:#000000;stroke-linecap:square;stroke-linejoin:miter;stroke-width:0.8;"/>
   </g>
   <g id="legend_2">
    <g id="patch_13">
     <path d="M 1234.3125 319.426838 
L 1289 319.426838 
Q 1291 319.426838 1291 317.426838 
L 1291 289.070588 
Q 1291 287.070588 1289 287.070588 
L 1234.3125 287.070588 
Q 1232.3125 287.070588 1232.3125 289.070588 
L 1232.3125 317.426838 
Q 1232.3125 319.426838 1234.3125 319.426838 
z
" style="fill:#ffffff;opacity:0.8;stroke:#cccccc;stroke-linejoin:miter;"/>
    </g>
    <g id="line2d_38">
     <path d="M 1236.3125 295.169026 
L 1256.3125 295.169026 
" style="fill:none;stroke:#000000;stroke-linecap:square;stroke-width:4;"/>
    </g>
    <g id="line2d_39"/>
    <g id="text_34">
     <!-- Pred -->
     <g transform="translate(1264.3125 298.669026)scale(0.1 -0.1)">
      <use xlink:href="#DejaVuSans-50"/>
      <use x="60.287109" xlink:href="#DejaVuSans-72"/>
      <use x="101.369141" xlink:href="#DejaVuSans-65"/>
      <use x="162.892578" xlink:href="#DejaVuSans-64"/>
     </g>
    </g>
    <g id="line2d_40">
     <path d="M 1236.3125 309.847151 
L 1256.3125 309.847151 
" style="fill:none;stroke:#ff0000;stroke-linecap:square;stroke-width:1.5;"/>
    </g>
    <g id="line2d_41"/>
    <g id="text_35">
     <!-- True -->
     <g transform="translate(1264.3125 313.347151)scale(0.1 -0.1)">
      <use xlink:href="#DejaVuSans-54"/>
      <use x="60.865234" xlink:href="#DejaVuSans-72"/>
      <use x="101.978516" xlink:href="#DejaVuSans-75"/>
      <use x="165.357422" xlink:href="#DejaVuSans-65"/>
     </g>
    </g>
   </g>
  </g>
  <g id="axes_3">
   <g id="patch_14">
    <path d="M 180 640.8 
L 1296 640.8 
L 1296 477.741176 
L 180 477.741176 
z
" style="fill:#ffffff;"/>
   </g>
   <g id="matplotlib.axis_5">
    <g id="xtick_19">
     <g id="line2d_42">
      <g>
       <use style="stroke:#000000;stroke-width:0.8;" x="225.629054" xlink:href="#m24e68701c0" y="640.8"/>
      </g>
     </g>
     <g id="text_36">
      <!-- 0 -->
      <g transform="translate(222.447804 655.398438)scale(0.1 -0.1)">
       <use xlink:href="#DejaVuSans-30"/>
      </g>
     </g>
    </g>
    <g id="xtick_20">
     <g id="line2d_43">
      <g>
       <use style="stroke:#000000;stroke-width:0.8;" x="353.084513" xlink:href="#m24e68701c0" y="640.8"/>
      </g>
     </g>
     <g id="text_37">
      <!-- 500 -->
      <g transform="translate(343.540763 655.398438)scale(0.1 -0.1)">
       <use xlink:href="#DejaVuSans-35"/>
       <use x="63.623047" xlink:href="#DejaVuSans-30"/>
       <use x="127.246094" xlink:href="#DejaVuSans-30"/>
      </g>
     </g>
    </g>
    <g id="xtick_21">
     <g id="line2d_44">
      <g>
       <use style="stroke:#000000;stroke-width:0.8;" x="480.539973" xlink:href="#m24e68701c0" y="640.8"/>
      </g>
     </g>
     <g id="text_38">
      <!-- 1000 -->
      <g transform="translate(467.814973 655.398438)scale(0.1 -0.1)">
       <use xlink:href="#DejaVuSans-31"/>
       <use x="63.623047" xlink:href="#DejaVuSans-30"/>
       <use x="127.246094" xlink:href="#DejaVuSans-30"/>
       <use x="190.869141" xlink:href="#DejaVuSans-30"/>
      </g>
     </g>
    </g>
    <g id="xtick_22">
     <g id="line2d_45">
      <g>
       <use style="stroke:#000000;stroke-width:0.8;" x="607.995432" xlink:href="#m24e68701c0" y="640.8"/>
      </g>
     </g>
     <g id="text_39">
      <!-- 1500 -->
      <g transform="translate(595.270432 655.398438)scale(0.1 -0.1)">
       <use xlink:href="#DejaVuSans-31"/>
       <use x="63.623047" xlink:href="#DejaVuSans-35"/>
       <use x="127.246094" xlink:href="#DejaVuSans-30"/>
       <use x="190.869141" xlink:href="#DejaVuSans-30"/>
      </g>
     </g>
    </g>
    <g id="xtick_23">
     <g id="line2d_46">
      <g>
       <use style="stroke:#000000;stroke-width:0.8;" x="735.450891" xlink:href="#m24e68701c0" y="640.8"/>
      </g>
     </g>
     <g id="text_40">
      <!-- 2000 -->
      <g transform="translate(722.725891 655.398438)scale(0.1 -0.1)">
       <use xlink:href="#DejaVuSans-32"/>
       <use x="63.623047" xlink:href="#DejaVuSans-30"/>
       <use x="127.246094" xlink:href="#DejaVuSans-30"/>
       <use x="190.869141" xlink:href="#DejaVuSans-30"/>
      </g>
     </g>
    </g>
    <g id="xtick_24">
     <g id="line2d_47">
      <g>
       <use style="stroke:#000000;stroke-width:0.8;" x="862.90635" xlink:href="#m24e68701c0" y="640.8"/>
      </g>
     </g>
     <g id="text_41">
      <!-- 2500 -->
      <g transform="translate(850.18135 655.398438)scale(0.1 -0.1)">
       <use xlink:href="#DejaVuSans-32"/>
       <use x="63.623047" xlink:href="#DejaVuSans-35"/>
       <use x="127.246094" xlink:href="#DejaVuSans-30"/>
       <use x="190.869141" xlink:href="#DejaVuSans-30"/>
      </g>
     </g>
    </g>
    <g id="xtick_25">
     <g id="line2d_48">
      <g>
       <use style="stroke:#000000;stroke-width:0.8;" x="990.361809" xlink:href="#m24e68701c0" y="640.8"/>
      </g>
     </g>
     <g id="text_42">
      <!-- 3000 -->
      <g transform="translate(977.636809 655.398438)scale(0.1 -0.1)">
       <use xlink:href="#DejaVuSans-33"/>
       <use x="63.623047" xlink:href="#DejaVuSans-30"/>
       <use x="127.246094" xlink:href="#DejaVuSans-30"/>
       <use x="190.869141" xlink:href="#DejaVuSans-30"/>
      </g>
     </g>
    </g>
    <g id="xtick_26">
     <g id="line2d_49">
      <g>
       <use style="stroke:#000000;stroke-width:0.8;" x="1117.817268" xlink:href="#m24e68701c0" y="640.8"/>
      </g>
     </g>
     <g id="text_43">
      <!-- 3500 -->
      <g transform="translate(1105.092268 655.398438)scale(0.1 -0.1)">
       <use xlink:href="#DejaVuSans-33"/>
       <use x="63.623047" xlink:href="#DejaVuSans-35"/>
       <use x="127.246094" xlink:href="#DejaVuSans-30"/>
       <use x="190.869141" xlink:href="#DejaVuSans-30"/>
      </g>
     </g>
    </g>
    <g id="xtick_27">
     <g id="line2d_50">
      <g>
       <use style="stroke:#000000;stroke-width:0.8;" x="1245.272727" xlink:href="#m24e68701c0" y="640.8"/>
      </g>
     </g>
     <g id="text_44">
      <!-- 4000 -->
      <g transform="translate(1232.547727 655.398438)scale(0.1 -0.1)">
       <use xlink:href="#DejaVuSans-34"/>
       <use x="63.623047" xlink:href="#DejaVuSans-30"/>
       <use x="127.246094" xlink:href="#DejaVuSans-30"/>
       <use x="190.869141" xlink:href="#DejaVuSans-30"/>
      </g>
     </g>
    </g>
    <g id="text_45">
     <!-- Time -->
     <defs>
      <path d="M 9.421875 54.6875 
L 18.40625 54.6875 
L 18.40625 0 
L 9.421875 0 
z
M 9.421875 75.984375 
L 18.40625 75.984375 
L 18.40625 64.59375 
L 9.421875 64.59375 
z
" id="DejaVuSans-69"/>
      <path d="M 52 44.1875 
Q 55.375 50.25 60.0625 53.125 
Q 64.75 56 71.09375 56 
Q 79.640625 56 84.28125 50.015625 
Q 88.921875 44.046875 88.921875 33.015625 
L 88.921875 0 
L 79.890625 0 
L 79.890625 32.71875 
Q 79.890625 40.578125 77.09375 44.375 
Q 74.3125 48.1875 68.609375 48.1875 
Q 61.625 48.1875 57.5625 43.546875 
Q 53.515625 38.921875 53.515625 30.90625 
L 53.515625 0 
L 44.484375 0 
L 44.484375 32.71875 
Q 44.484375 40.625 41.703125 44.40625 
Q 38.921875 48.1875 33.109375 48.1875 
Q 26.21875 48.1875 22.15625 43.53125 
Q 18.109375 38.875 18.109375 30.90625 
L 18.109375 0 
L 9.078125 0 
L 9.078125 54.6875 
L 18.109375 54.6875 
L 18.109375 46.1875 
Q 21.1875 51.21875 25.484375 53.609375 
Q 29.78125 56 35.6875 56 
Q 41.65625 56 45.828125 52.96875 
Q 50 49.953125 52 44.1875 
z
" id="DejaVuSans-6d"/>
     </defs>
     <g transform="translate(725.6125 669.076563)scale(0.1 -0.1)">
      <use xlink:href="#DejaVuSans-54"/>
      <use x="61.037109" xlink:href="#DejaVuSans-69"/>
      <use x="88.820312" xlink:href="#DejaVuSans-6d"/>
      <use x="186.232422" xlink:href="#DejaVuSans-65"/>
     </g>
    </g>
   </g>
   <g id="matplotlib.axis_6">
    <g id="ytick_12">
     <g id="line2d_51">
      <g>
       <use style="stroke:#000000;stroke-width:0.8;" x="180" xlink:href="#m070f53913b" y="618.247189"/>
      </g>
     </g>
     <g id="text_46">
      <!-- −2 -->
      <g transform="translate(158.257812 622.046408)scale(0.1 -0.1)">
       <use xlink:href="#DejaVuSans-2212"/>
       <use x="83.789062" xlink:href="#DejaVuSans-32"/>
      </g>
     </g>
    </g>
    <g id="ytick_13">
     <g id="line2d_52">
      <g>
       <use style="stroke:#000000;stroke-width:0.8;" x="180" xlink:href="#m070f53913b" y="591.045324"/>
      </g>
     </g>
     <g id="text_47">
      <!-- −1 -->
      <g transform="translate(158.257812 594.844543)scale(0.1 -0.1)">
       <use xlink:href="#DejaVuSans-2212"/>
       <use x="83.789062" xlink:href="#DejaVuSans-31"/>
      </g>
     </g>
    </g>
    <g id="ytick_14">
     <g id="line2d_53">
      <g>
       <use style="stroke:#000000;stroke-width:0.8;" x="180" xlink:href="#m070f53913b" y="563.843458"/>
      </g>
     </g>
     <g id="text_48">
      <!-- 0 -->
      <g transform="translate(166.6375 567.642677)scale(0.1 -0.1)">
       <use xlink:href="#DejaVuSans-30"/>
      </g>
     </g>
    </g>
    <g id="ytick_15">
     <g id="line2d_54">
      <g>
       <use style="stroke:#000000;stroke-width:0.8;" x="180" xlink:href="#m070f53913b" y="536.641593"/>
      </g>
     </g>
     <g id="text_49">
      <!-- 1 -->
      <g transform="translate(166.6375 540.440812)scale(0.1 -0.1)">
       <use xlink:href="#DejaVuSans-31"/>
      </g>
     </g>
    </g>
    <g id="ytick_16">
     <g id="line2d_55">
      <g>
       <use style="stroke:#000000;stroke-width:0.8;" x="180" xlink:href="#m070f53913b" y="509.439728"/>
      </g>
     </g>
     <g id="text_50">
      <!-- 2 -->
      <g transform="translate(166.6375 513.238946)scale(0.1 -0.1)">
       <use xlink:href="#DejaVuSans-32"/>
      </g>
     </g>
    </g>
    <g id="ytick_17">
     <g id="line2d_56">
      <g>
       <use style="stroke:#000000;stroke-width:0.8;" x="180" xlink:href="#m070f53913b" y="482.237862"/>
      </g>
     </g>
     <g id="text_51">
      <!-- 3 -->
      <g transform="translate(166.6375 486.037081)scale(0.1 -0.1)">
       <use xlink:href="#DejaVuSans-33"/>
      </g>
     </g>
    </g>
    <g id="text_52">
     <!-- Control Input -->
     <defs>
      <path d="M 64.40625 67.28125 
L 64.40625 56.890625 
Q 59.421875 61.53125 53.78125 63.8125 
Q 48.140625 66.109375 41.796875 66.109375 
Q 29.296875 66.109375 22.65625 58.46875 
Q 16.015625 50.828125 16.015625 36.375 
Q 16.015625 21.96875 22.65625 14.328125 
Q 29.296875 6.6875 41.796875 6.6875 
Q 48.140625 6.6875 53.78125 8.984375 
Q 59.421875 11.28125 64.40625 15.921875 
L 64.40625 5.609375 
Q 59.234375 2.09375 53.4375 0.328125 
Q 47.65625 -1.421875 41.21875 -1.421875 
Q 24.65625 -1.421875 15.125 8.703125 
Q 5.609375 18.84375 5.609375 36.375 
Q 5.609375 53.953125 15.125 64.078125 
Q 24.65625 74.21875 41.21875 74.21875 
Q 47.75 74.21875 53.53125 72.484375 
Q 59.328125 70.75 64.40625 67.28125 
z
" id="DejaVuSans-43"/>
      <path d="M 30.609375 48.390625 
Q 23.390625 48.390625 19.1875 42.75 
Q 14.984375 37.109375 14.984375 27.296875 
Q 14.984375 17.484375 19.15625 11.84375 
Q 23.34375 6.203125 30.609375 6.203125 
Q 37.796875 6.203125 41.984375 11.859375 
Q 46.1875 17.53125 46.1875 27.296875 
Q 46.1875 37.015625 41.984375 42.703125 
Q 37.796875 48.390625 30.609375 48.390625 
z
M 30.609375 56 
Q 42.328125 56 49.015625 48.375 
Q 55.71875 40.765625 55.71875 27.296875 
Q 55.71875 13.875 49.015625 6.21875 
Q 42.328125 -1.421875 30.609375 -1.421875 
Q 18.84375 -1.421875 12.171875 6.21875 
Q 5.515625 13.875 5.515625 27.296875 
Q 5.515625 40.765625 12.171875 48.375 
Q 18.84375 56 30.609375 56 
z
" id="DejaVuSans-6f"/>
      <path d="M 54.890625 33.015625 
L 54.890625 0 
L 45.90625 0 
L 45.90625 32.71875 
Q 45.90625 40.484375 42.875 44.328125 
Q 39.84375 48.1875 33.796875 48.1875 
Q 26.515625 48.1875 22.3125 43.546875 
Q 18.109375 38.921875 18.109375 30.90625 
L 18.109375 0 
L 9.078125 0 
L 9.078125 54.6875 
L 18.109375 54.6875 
L 18.109375 46.1875 
Q 21.34375 51.125 25.703125 53.5625 
Q 30.078125 56 35.796875 56 
Q 45.21875 56 50.046875 50.171875 
Q 54.890625 44.34375 54.890625 33.015625 
z
" id="DejaVuSans-6e"/>
      <path d="M 9.421875 75.984375 
L 18.40625 75.984375 
L 18.40625 0 
L 9.421875 0 
z
" id="DejaVuSans-6c"/>
      <path d="M 9.8125 72.90625 
L 19.671875 72.90625 
L 19.671875 0 
L 9.8125 0 
z
" id="DejaVuSans-49"/>
      <path d="M 18.109375 8.203125 
L 18.109375 -20.796875 
L 9.078125 -20.796875 
L 9.078125 54.6875 
L 18.109375 54.6875 
L 18.109375 46.390625 
Q 20.953125 51.265625 25.265625 53.625 
Q 29.59375 56 35.59375 56 
Q 45.5625 56 51.78125 48.09375 
Q 58.015625 40.1875 58.015625 27.296875 
Q 58.015625 14.40625 51.78125 6.484375 
Q 45.5625 -1.421875 35.59375 -1.421875 
Q 29.59375 -1.421875 25.265625 0.953125 
Q 20.953125 3.328125 18.109375 8.203125 
z
M 48.6875 27.296875 
Q 48.6875 37.203125 44.609375 42.84375 
Q 40.53125 48.484375 33.40625 48.484375 
Q 26.265625 48.484375 22.1875 42.84375 
Q 18.109375 37.203125 18.109375 27.296875 
Q 18.109375 17.390625 22.1875 11.75 
Q 26.265625 6.109375 33.40625 6.109375 
Q 40.53125 6.109375 44.609375 11.75 
Q 48.6875 17.390625 48.6875 27.296875 
z
" id="DejaVuSans-70"/>
     </defs>
     <g transform="translate(152.178125 591.988557)rotate(-90)scale(0.1 -0.1)">
      <use xlink:href="#DejaVuSans-43"/>
      <use x="69.824219" xlink:href="#DejaVuSans-6f"/>
      <use x="131.005859" xlink:href="#DejaVuSans-6e"/>
      <use x="194.384766" xlink:href="#DejaVuSans-74"/>
      <use x="233.59375" xlink:href="#DejaVuSans-72"/>
      <use x="274.675781" xlink:href="#DejaVuSans-6f"/>
      <use x="335.857422" xlink:href="#DejaVuSans-6c"/>
      <use x="363.640625" xlink:href="#DejaVuSans-20"/>
      <use x="395.427734" xlink:href="#DejaVuSans-49"/>
      <use x="424.919922" xlink:href="#DejaVuSans-6e"/>
      <use x="488.298828" xlink:href="#DejaVuSans-70"/>
      <use x="551.775391" xlink:href="#DejaVuSans-75"/>
      <use x="615.154297" xlink:href="#DejaVuSans-74"/>
     </g>
    </g>
   </g>
   <g id="line2d_57">
    <path clip-path="url(#p8a1b6c5506)" d="M 230.727273 535.294929 
L 235.825491 535.442225 
L 240.923709 536.619198 
L 251.120146 535.563564 
L 256.218365 532.380916 
L 261.316583 533.558231 
L 266.414801 530.594765 
L 271.51302 545.755976 
L 276.611238 596.903014 
L 281.709456 594.905819 
L 286.807675 596.392243 
L 291.905893 596.696444 
L 297.004111 569.83103 
L 302.10233 500.625164 
L 307.200548 501.492658 
L 312.298767 503.545016 
L 317.396985 501.387452 
L 322.495203 500.890323 
L 327.593422 587.667806 
L 332.69164 589.624294 
L 337.789858 590.203611 
L 342.888077 591.345138 
L 347.986295 591.696063 
L 353.084513 592.318902 
L 358.182732 598.721818 
L 363.28095 606.82535 
L 368.379169 609.882434 
L 373.477387 610.139786 
L 378.575605 610.585339 
L 383.673824 574.76823 
L 388.772042 491.251401 
L 393.87026 500.167002 
L 398.968479 503.701043 
L 404.066697 505.065564 
L 409.164915 542.744827 
L 414.263134 588.179793 
L 419.361352 575.431854 
L 424.459571 575.376509 
L 429.557789 577.966549 
L 434.656007 578.990416 
L 439.754226 544.402865 
L 444.852444 524.107483 
L 449.950662 525.049738 
L 455.048881 524.421526 
L 460.147099 524.035121 
L 465.245317 525.673532 
L 470.343536 581.618953 
L 475.441754 579.33767 
L 485.638191 579.953897 
L 490.736409 580.475183 
L 495.834628 568.937174 
L 500.932846 555.612848 
L 506.031064 556.563569 
L 516.227501 556.265089 
L 521.32572 562.869304 
L 526.423938 615.042623 
L 531.522156 612.428198 
L 536.620375 612.691025 
L 541.718593 614.101395 
L 546.816811 615.014567 
L 551.91503 615.257489 
L 557.013248 611.355344 
L 562.111466 612.13506 
L 567.209685 615.089712 
L 572.307903 615.628891 
L 577.406122 615.717453 
L 582.50434 621.973309 
L 587.602558 624.541562 
L 592.700777 621.960453 
L 597.798995 622.278864 
L 602.897213 622.276827 
L 607.995432 574.753934 
L 613.09365 563.129316 
L 618.191868 562.334609 
L 623.290087 561.241954 
L 628.388305 560.927353 
L 633.486524 573.983737 
L 638.584742 617.74752 
L 643.68296 606.901182 
L 648.781179 607.177307 
L 653.879397 607.175978 
L 658.977615 607.371912 
L 664.075834 551.772555 
L 669.174052 548.672039 
L 674.27227 548.252993 
L 679.370489 547.609917 
L 684.468707 546.510105 
L 689.566926 543.028411 
L 694.665144 550.57594 
L 699.763362 554.553306 
L 704.861581 553.669572 
L 709.959799 553.190907 
L 720.156236 552.932674 
L 725.254454 523.934458 
L 730.352672 525.675659 
L 735.450891 525.821166 
L 740.549109 525.492262 
L 745.647328 524.630552 
L 750.745546 549.921787 
L 755.843764 542.86686 
L 760.941983 538.877079 
L 766.040201 539.242896 
L 771.138419 538.721841 
L 776.236638 537.773802 
L 781.334856 491.658086 
L 786.433074 492.352374 
L 791.531293 492.782473 
L 796.629511 491.121036 
L 801.72773 487.507833 
L 806.825948 596.128018 
L 811.924166 575.460719 
L 817.022385 576.134999 
L 822.120603 577.036627 
L 827.218821 579.738175 
L 832.31704 581.198426 
L 837.415258 582.101073 
L 842.513476 582.631624 
L 852.709913 583.316872 
L 857.808132 584.098497 
L 862.90635 537.288718 
L 868.004568 485.152941 
L 873.102787 493.170918 
L 878.201005 495.12999 
L 883.299223 493.136827 
L 888.397442 490.415854 
L 893.49566 494.771704 
L 898.593878 491.778878 
L 903.692097 491.915558 
L 908.790315 488.755611 
L 913.888534 488.064549 
L 918.986752 550.899883 
L 924.08497 571.088991 
L 929.183189 572.275364 
L 939.379625 574.089708 
L 944.477844 551.866461 
L 949.576062 528.907506 
L 954.67428 531.050739 
L 959.772499 530.645118 
L 964.870717 526.353486 
L 969.968936 528.286937 
L 975.067154 560.248485 
L 980.165372 555.26261 
L 985.263591 555.382947 
L 990.361809 555.825934 
L 1000.558246 556.243423 
L 1005.656464 535.315405 
L 1010.754683 542.566603 
L 1015.852901 540.88906 
L 1020.951119 540.710561 
L 1026.049338 539.457089 
L 1031.147556 549.455333 
L 1036.245774 603.288263 
L 1041.343993 601.284911 
L 1046.442211 601.571663 
L 1051.540429 602.728628 
L 1056.638648 569.478755 
L 1061.736866 506.35291 
L 1066.835085 510.423094 
L 1071.933303 510.399821 
L 1077.031521 509.786408 
L 1082.12974 508.408817 
L 1087.227958 521.657126 
L 1092.326176 542.470133 
L 1097.424395 538.022139 
L 1102.522613 535.619528 
L 1107.620831 538.485256 
L 1112.71905 535.535988 
L 1117.817268 540.649307 
L 1122.915487 540.706781 
L 1128.013705 541.664455 
L 1133.111923 538.714521 
L 1138.210142 542.050073 
L 1143.30836 539.371905 
L 1148.406578 488.226603 
L 1153.504797 494.32619 
L 1158.603015 494.109551 
L 1163.701233 492.527062 
L 1168.799452 541.972555 
L 1173.89767 633.388235 
L 1178.995889 621.895583 
L 1184.094107 613.637582 
L 1189.192325 613.553142 
L 1194.290544 615.873006 
L 1199.388762 541.255947 
L 1204.48698 553.265846 
L 1209.585199 553.695185 
L 1214.683417 553.85914 
L 1219.781635 556.613127 
L 1224.879854 555.762934 
L 1229.978072 581.166684 
L 1235.076291 598.508564 
L 1245.272727 598.899424 
L 1245.272727 598.899424 
" style="fill:none;stroke:#ff0000;stroke-linecap:square;stroke-width:1.5;"/>
   </g>
   <g id="patch_15">
    <path d="M 180 640.8 
L 180 477.741176 
" style="fill:none;stroke:#000000;stroke-linecap:square;stroke-linejoin:miter;stroke-width:0.8;"/>
   </g>
   <g id="patch_16">
    <path d="M 1296 640.8 
L 1296 477.741176 
" style="fill:none;stroke:#000000;stroke-linecap:square;stroke-linejoin:miter;stroke-width:0.8;"/>
   </g>
   <g id="patch_17">
    <path d="M 180 640.8 
L 1296 640.8 
" style="fill:none;stroke:#000000;stroke-linecap:square;stroke-linejoin:miter;stroke-width:0.8;"/>
   </g>
   <g id="patch_18">
    <path d="M 180 477.741176 
L 1296 477.741176 
" style="fill:none;stroke:#000000;stroke-linecap:square;stroke-linejoin:miter;stroke-width:0.8;"/>
   </g>
   <g id="legend_3">
    <g id="patch_19">
     <path d="M 1194.742188 500.419301 
L 1289 500.419301 
Q 1291 500.419301 1291 498.419301 
L 1291 484.741176 
Q 1291 482.741176 1289 482.741176 
L 1194.742188 482.741176 
Q 1192.742188 482.741176 1192.742188 484.741176 
L 1192.742188 498.419301 
Q 1192.742188 500.419301 1194.742188 500.419301 
z
" style="fill:#ffffff;opacity:0.8;stroke:#cccccc;stroke-linejoin:miter;"/>
    </g>
    <g id="line2d_58">
     <path d="M 1196.742188 490.839614 
L 1216.742188 490.839614 
" style="fill:none;stroke:#ff0000;stroke-linecap:square;stroke-width:1.5;"/>
    </g>
    <g id="line2d_59"/>
    <g id="text_53">
     <!-- ControlInput -->
     <g transform="translate(1224.742188 494.339614)scale(0.1 -0.1)">
      <use xlink:href="#DejaVuSans-43"/>
      <use x="69.824219" xlink:href="#DejaVuSans-6f"/>
      <use x="131.005859" xlink:href="#DejaVuSans-6e"/>
      <use x="194.384766" xlink:href="#DejaVuSans-74"/>
      <use x="233.59375" xlink:href="#DejaVuSans-72"/>
      <use x="274.675781" xlink:href="#DejaVuSans-6f"/>
      <use x="335.857422" xlink:href="#DejaVuSans-6c"/>
      <use x="363.640625" xlink:href="#DejaVuSans-49"/>
      <use x="393.132812" xlink:href="#DejaVuSans-6e"/>
      <use x="456.511719" xlink:href="#DejaVuSans-70"/>
      <use x="519.988281" xlink:href="#DejaVuSans-75"/>
      <use x="583.367188" xlink:href="#DejaVuSans-74"/>
     </g>
    </g>
   </g>
  </g>
 </g>
 <defs>
  <clipPath id="p5d34b67ce9">
   <rect height="163.058824" width="1116" x="180" y="86.4"/>
  </clipPath>
  <clipPath id="p64e7277fba">
   <rect height="163.058824" width="1116" x="180" y="282.070588"/>
  </clipPath>
  <clipPath id="p8a1b6c5506">
   <rect height="163.058824" width="1116" x="180" y="477.741176"/>
  </clipPath>
 </defs>
</svg>
