<?xml version="1.0" encoding="utf-8" standalone="no"?>
<!DOCTYPE svg PUBLIC "-//W3C//DTD SVG 1.1//EN"
  "http://www.w3.org/Graphics/SVG/1.1/DTD/svg11.dtd">
<!-- Created with matplotlib (http://matplotlib.org/) -->
<svg height="720pt" version="1.1" viewBox="0 0 1440 720" width="1440pt" xmlns="http://www.w3.org/2000/svg" xmlns:xlink="http://www.w3.org/1999/xlink">
 <defs>
  <style type="text/css">
*{stroke-linecap:butt;stroke-linejoin:round;}
  </style>
 </defs>
 <g id="figure_1">
  <g id="patch_1">
   <path d="M 0 720 
L 1440 720 
L 1440 0 
L 0 0 
z
" style="fill:#ffffff;"/>
  </g>
  <g id="axes_1">
   <g id="patch_2">
    <path d="M 180 249.458824 
L 1296 249.458824 
L 1296 86.4 
L 180 86.4 
z
" style="fill:#ffffff;"/>
   </g>
   <g id="matplotlib.axis_1">
    <g id="xtick_1">
     <g id="line2d_1">
      <defs>
       <path d="M 0 0 
L 0 3.5 
" id="m0fe0139806" style="stroke:#000000;stroke-width:0.8;"/>
      </defs>
      <g>
       <use style="stroke:#000000;stroke-width:0.8;" x="225.629054" xlink:href="#m0fe0139806" y="249.458824"/>
      </g>
     </g>
     <g id="text_1">
      <!-- 0 -->
      <defs>
       <path d="M 31.78125 66.40625 
Q 24.171875 66.40625 20.328125 58.90625 
Q 16.5 51.421875 16.5 36.375 
Q 16.5 21.390625 20.328125 13.890625 
Q 24.171875 6.390625 31.78125 6.390625 
Q 39.453125 6.390625 43.28125 13.890625 
Q 47.125 21.390625 47.125 36.375 
Q 47.125 51.421875 43.28125 58.90625 
Q 39.453125 66.40625 31.78125 66.40625 
z
M 31.78125 74.21875 
Q 44.046875 74.21875 50.515625 64.515625 
Q 56.984375 54.828125 56.984375 36.375 
Q 56.984375 17.96875 50.515625 8.265625 
Q 44.046875 -1.421875 31.78125 -1.421875 
Q 19.53125 -1.421875 13.0625 8.265625 
Q 6.59375 17.96875 6.59375 36.375 
Q 6.59375 54.828125 13.0625 64.515625 
Q 19.53125 74.21875 31.78125 74.21875 
z
" id="DejaVuSans-30"/>
      </defs>
      <g transform="translate(222.447804 264.057261)scale(0.1 -0.1)">
       <use xlink:href="#DejaVuSans-30"/>
      </g>
     </g>
    </g>
    <g id="xtick_2">
     <g id="line2d_2">
      <g>
       <use style="stroke:#000000;stroke-width:0.8;" x="353.084513" xlink:href="#m0fe0139806" y="249.458824"/>
      </g>
     </g>
     <g id="text_2">
      <!-- 500 -->
      <defs>
       <path d="M 10.796875 72.90625 
L 49.515625 72.90625 
L 49.515625 64.59375 
L 19.828125 64.59375 
L 19.828125 46.734375 
Q 21.96875 47.46875 24.109375 47.828125 
Q 26.265625 48.1875 28.421875 48.1875 
Q 40.625 48.1875 47.75 41.5 
Q 54.890625 34.8125 54.890625 23.390625 
Q 54.890625 11.625 47.5625 5.09375 
Q 40.234375 -1.421875 26.90625 -1.421875 
Q 22.3125 -1.421875 17.546875 -0.640625 
Q 12.796875 0.140625 7.71875 1.703125 
L 7.71875 11.625 
Q 12.109375 9.234375 16.796875 8.0625 
Q 21.484375 6.890625 26.703125 6.890625 
Q 35.15625 6.890625 40.078125 11.328125 
Q 45.015625 15.765625 45.015625 23.390625 
Q 45.015625 31 40.078125 35.4375 
Q 35.15625 39.890625 26.703125 39.890625 
Q 22.75 39.890625 18.8125 39.015625 
Q 14.890625 38.140625 10.796875 36.28125 
z
" id="DejaVuSans-35"/>
      </defs>
      <g transform="translate(343.540763 264.057261)scale(0.1 -0.1)">
       <use xlink:href="#DejaVuSans-35"/>
       <use x="63.623047" xlink:href="#DejaVuSans-30"/>
       <use x="127.246094" xlink:href="#DejaVuSans-30"/>
      </g>
     </g>
    </g>
    <g id="xtick_3">
     <g id="line2d_3">
      <g>
       <use style="stroke:#000000;stroke-width:0.8;" x="480.539973" xlink:href="#m0fe0139806" y="249.458824"/>
      </g>
     </g>
     <g id="text_3">
      <!-- 1000 -->
      <defs>
       <path d="M 12.40625 8.296875 
L 28.515625 8.296875 
L 28.515625 63.921875 
L 10.984375 60.40625 
L 10.984375 69.390625 
L 28.421875 72.90625 
L 38.28125 72.90625 
L 38.28125 8.296875 
L 54.390625 8.296875 
L 54.390625 0 
L 12.40625 0 
z
" id="DejaVuSans-31"/>
      </defs>
      <g transform="translate(467.814973 264.057261)scale(0.1 -0.1)">
       <use xlink:href="#DejaVuSans-31"/>
       <use x="63.623047" xlink:href="#DejaVuSans-30"/>
       <use x="127.246094" xlink:href="#DejaVuSans-30"/>
       <use x="190.869141" xlink:href="#DejaVuSans-30"/>
      </g>
     </g>
    </g>
    <g id="xtick_4">
     <g id="line2d_4">
      <g>
       <use style="stroke:#000000;stroke-width:0.8;" x="607.995432" xlink:href="#m0fe0139806" y="249.458824"/>
      </g>
     </g>
     <g id="text_4">
      <!-- 1500 -->
      <g transform="translate(595.270432 264.057261)scale(0.1 -0.1)">
       <use xlink:href="#DejaVuSans-31"/>
       <use x="63.623047" xlink:href="#DejaVuSans-35"/>
       <use x="127.246094" xlink:href="#DejaVuSans-30"/>
       <use x="190.869141" xlink:href="#DejaVuSans-30"/>
      </g>
     </g>
    </g>
    <g id="xtick_5">
     <g id="line2d_5">
      <g>
       <use style="stroke:#000000;stroke-width:0.8;" x="735.450891" xlink:href="#m0fe0139806" y="249.458824"/>
      </g>
     </g>
     <g id="text_5">
      <!-- 2000 -->
      <defs>
       <path d="M 19.1875 8.296875 
L 53.609375 8.296875 
L 53.609375 0 
L 7.328125 0 
L 7.328125 8.296875 
Q 12.9375 14.109375 22.625 23.890625 
Q 32.328125 33.6875 34.8125 36.53125 
Q 39.546875 41.84375 41.421875 45.53125 
Q 43.3125 49.21875 43.3125 52.78125 
Q 43.3125 58.59375 39.234375 62.25 
Q 35.15625 65.921875 28.609375 65.921875 
Q 23.96875 65.921875 18.8125 64.3125 
Q 13.671875 62.703125 7.8125 59.421875 
L 7.8125 69.390625 
Q 13.765625 71.78125 18.9375 73 
Q 24.125 74.21875 28.421875 74.21875 
Q 39.75 74.21875 46.484375 68.546875 
Q 53.21875 62.890625 53.21875 53.421875 
Q 53.21875 48.921875 51.53125 44.890625 
Q 49.859375 40.875 45.40625 35.40625 
Q 44.1875 33.984375 37.640625 27.21875 
Q 31.109375 20.453125 19.1875 8.296875 
z
" id="DejaVuSans-32"/>
      </defs>
      <g transform="translate(722.725891 264.057261)scale(0.1 -0.1)">
       <use xlink:href="#DejaVuSans-32"/>
       <use x="63.623047" xlink:href="#DejaVuSans-30"/>
       <use x="127.246094" xlink:href="#DejaVuSans-30"/>
       <use x="190.869141" xlink:href="#DejaVuSans-30"/>
      </g>
     </g>
    </g>
    <g id="xtick_6">
     <g id="line2d_6">
      <g>
       <use style="stroke:#000000;stroke-width:0.8;" x="862.90635" xlink:href="#m0fe0139806" y="249.458824"/>
      </g>
     </g>
     <g id="text_6">
      <!-- 2500 -->
      <g transform="translate(850.18135 264.057261)scale(0.1 -0.1)">
       <use xlink:href="#DejaVuSans-32"/>
       <use x="63.623047" xlink:href="#DejaVuSans-35"/>
       <use x="127.246094" xlink:href="#DejaVuSans-30"/>
       <use x="190.869141" xlink:href="#DejaVuSans-30"/>
      </g>
     </g>
    </g>
    <g id="xtick_7">
     <g id="line2d_7">
      <g>
       <use style="stroke:#000000;stroke-width:0.8;" x="990.361809" xlink:href="#m0fe0139806" y="249.458824"/>
      </g>
     </g>
     <g id="text_7">
      <!-- 3000 -->
      <defs>
       <path d="M 40.578125 39.3125 
Q 47.65625 37.796875 51.625 33 
Q 55.609375 28.21875 55.609375 21.1875 
Q 55.609375 10.40625 48.1875 4.484375 
Q 40.765625 -1.421875 27.09375 -1.421875 
Q 22.515625 -1.421875 17.65625 -0.515625 
Q 12.796875 0.390625 7.625 2.203125 
L 7.625 11.71875 
Q 11.71875 9.328125 16.59375 8.109375 
Q 21.484375 6.890625 26.8125 6.890625 
Q 36.078125 6.890625 40.9375 10.546875 
Q 45.796875 14.203125 45.796875 21.1875 
Q 45.796875 27.640625 41.28125 31.265625 
Q 36.765625 34.90625 28.71875 34.90625 
L 20.21875 34.90625 
L 20.21875 43.015625 
L 29.109375 43.015625 
Q 36.375 43.015625 40.234375 45.921875 
Q 44.09375 48.828125 44.09375 54.296875 
Q 44.09375 59.90625 40.109375 62.90625 
Q 36.140625 65.921875 28.71875 65.921875 
Q 24.65625 65.921875 20.015625 65.03125 
Q 15.375 64.15625 9.8125 62.3125 
L 9.8125 71.09375 
Q 15.4375 72.65625 20.34375 73.4375 
Q 25.25 74.21875 29.59375 74.21875 
Q 40.828125 74.21875 47.359375 69.109375 
Q 53.90625 64.015625 53.90625 55.328125 
Q 53.90625 49.265625 50.4375 45.09375 
Q 46.96875 40.921875 40.578125 39.3125 
z
" id="DejaVuSans-33"/>
      </defs>
      <g transform="translate(977.636809 264.057261)scale(0.1 -0.1)">
       <use xlink:href="#DejaVuSans-33"/>
       <use x="63.623047" xlink:href="#DejaVuSans-30"/>
       <use x="127.246094" xlink:href="#DejaVuSans-30"/>
       <use x="190.869141" xlink:href="#DejaVuSans-30"/>
      </g>
     </g>
    </g>
    <g id="xtick_8">
     <g id="line2d_8">
      <g>
       <use style="stroke:#000000;stroke-width:0.8;" x="1117.817268" xlink:href="#m0fe0139806" y="249.458824"/>
      </g>
     </g>
     <g id="text_8">
      <!-- 3500 -->
      <g transform="translate(1105.092268 264.057261)scale(0.1 -0.1)">
       <use xlink:href="#DejaVuSans-33"/>
       <use x="63.623047" xlink:href="#DejaVuSans-35"/>
       <use x="127.246094" xlink:href="#DejaVuSans-30"/>
       <use x="190.869141" xlink:href="#DejaVuSans-30"/>
      </g>
     </g>
    </g>
    <g id="xtick_9">
     <g id="line2d_9">
      <g>
       <use style="stroke:#000000;stroke-width:0.8;" x="1245.272727" xlink:href="#m0fe0139806" y="249.458824"/>
      </g>
     </g>
     <g id="text_9">
      <!-- 4000 -->
      <defs>
       <path d="M 37.796875 64.3125 
L 12.890625 25.390625 
L 37.796875 25.390625 
z
M 35.203125 72.90625 
L 47.609375 72.90625 
L 47.609375 25.390625 
L 58.015625 25.390625 
L 58.015625 17.1875 
L 47.609375 17.1875 
L 47.609375 0 
L 37.796875 0 
L 37.796875 17.1875 
L 4.890625 17.1875 
L 4.890625 26.703125 
z
" id="DejaVuSans-34"/>
      </defs>
      <g transform="translate(1232.547727 264.057261)scale(0.1 -0.1)">
       <use xlink:href="#DejaVuSans-34"/>
       <use x="63.623047" xlink:href="#DejaVuSans-30"/>
       <use x="127.246094" xlink:href="#DejaVuSans-30"/>
       <use x="190.869141" xlink:href="#DejaVuSans-30"/>
      </g>
     </g>
    </g>
   </g>
   <g id="matplotlib.axis_2">
    <g id="ytick_1">
     <g id="line2d_10">
      <defs>
       <path d="M 0 0 
L -3.5 0 
" id="m51bb2d3dad" style="stroke:#000000;stroke-width:0.8;"/>
      </defs>
      <g>
       <use style="stroke:#000000;stroke-width:0.8;" x="180" xlink:href="#m51bb2d3dad" y="229.191964"/>
      </g>
     </g>
     <g id="text_10">
      <!-- −0.75 -->
      <defs>
       <path d="M 10.59375 35.5 
L 73.1875 35.5 
L 73.1875 27.203125 
L 10.59375 27.203125 
z
" id="DejaVuSans-2212"/>
       <path d="M 10.6875 12.40625 
L 21 12.40625 
L 21 0 
L 10.6875 0 
z
" id="DejaVuSans-2e"/>
       <path d="M 8.203125 72.90625 
L 55.078125 72.90625 
L 55.078125 68.703125 
L 28.609375 0 
L 18.3125 0 
L 43.21875 64.59375 
L 8.203125 64.59375 
z
" id="DejaVuSans-37"/>
      </defs>
      <g transform="translate(142.354688 232.991183)scale(0.1 -0.1)">
       <use xlink:href="#DejaVuSans-2212"/>
       <use x="83.789062" xlink:href="#DejaVuSans-30"/>
       <use x="147.412109" xlink:href="#DejaVuSans-2e"/>
       <use x="179.199219" xlink:href="#DejaVuSans-37"/>
       <use x="242.822266" xlink:href="#DejaVuSans-35"/>
      </g>
     </g>
    </g>
    <g id="ytick_2">
     <g id="line2d_11">
      <g>
       <use style="stroke:#000000;stroke-width:0.8;" x="180" xlink:href="#m51bb2d3dad" y="207.766806"/>
      </g>
     </g>
     <g id="text_11">
      <!-- −0.50 -->
      <g transform="translate(142.354688 211.566025)scale(0.1 -0.1)">
       <use xlink:href="#DejaVuSans-2212"/>
       <use x="83.789062" xlink:href="#DejaVuSans-30"/>
       <use x="147.412109" xlink:href="#DejaVuSans-2e"/>
       <use x="179.199219" xlink:href="#DejaVuSans-35"/>
       <use x="242.822266" xlink:href="#DejaVuSans-30"/>
      </g>
     </g>
    </g>
    <g id="ytick_3">
     <g id="line2d_12">
      <g>
       <use style="stroke:#000000;stroke-width:0.8;" x="180" xlink:href="#m51bb2d3dad" y="186.341648"/>
      </g>
     </g>
     <g id="text_12">
      <!-- −0.25 -->
      <g transform="translate(142.354688 190.140867)scale(0.1 -0.1)">
       <use xlink:href="#DejaVuSans-2212"/>
       <use x="83.789062" xlink:href="#DejaVuSans-30"/>
       <use x="147.412109" xlink:href="#DejaVuSans-2e"/>
       <use x="179.199219" xlink:href="#DejaVuSans-32"/>
       <use x="242.822266" xlink:href="#DejaVuSans-35"/>
      </g>
     </g>
    </g>
    <g id="ytick_4">
     <g id="line2d_13">
      <g>
       <use style="stroke:#000000;stroke-width:0.8;" x="180" xlink:href="#m51bb2d3dad" y="164.91649"/>
      </g>
     </g>
     <g id="text_13">
      <!-- 0.00 -->
      <g transform="translate(150.734375 168.715709)scale(0.1 -0.1)">
       <use xlink:href="#DejaVuSans-30"/>
       <use x="63.623047" xlink:href="#DejaVuSans-2e"/>
       <use x="95.410156" xlink:href="#DejaVuSans-30"/>
       <use x="159.033203" xlink:href="#DejaVuSans-30"/>
      </g>
     </g>
    </g>
    <g id="ytick_5">
     <g id="line2d_14">
      <g>
       <use style="stroke:#000000;stroke-width:0.8;" x="180" xlink:href="#m51bb2d3dad" y="143.491332"/>
      </g>
     </g>
     <g id="text_14">
      <!-- 0.25 -->
      <g transform="translate(150.734375 147.290551)scale(0.1 -0.1)">
       <use xlink:href="#DejaVuSans-30"/>
       <use x="63.623047" xlink:href="#DejaVuSans-2e"/>
       <use x="95.410156" xlink:href="#DejaVuSans-32"/>
       <use x="159.033203" xlink:href="#DejaVuSans-35"/>
      </g>
     </g>
    </g>
    <g id="ytick_6">
     <g id="line2d_15">
      <g>
       <use style="stroke:#000000;stroke-width:0.8;" x="180" xlink:href="#m51bb2d3dad" y="122.066174"/>
      </g>
     </g>
     <g id="text_15">
      <!-- 0.50 -->
      <g transform="translate(150.734375 125.865393)scale(0.1 -0.1)">
       <use xlink:href="#DejaVuSans-30"/>
       <use x="63.623047" xlink:href="#DejaVuSans-2e"/>
       <use x="95.410156" xlink:href="#DejaVuSans-35"/>
       <use x="159.033203" xlink:href="#DejaVuSans-30"/>
      </g>
     </g>
    </g>
    <g id="ytick_7">
     <g id="line2d_16">
      <g>
       <use style="stroke:#000000;stroke-width:0.8;" x="180" xlink:href="#m51bb2d3dad" y="100.641016"/>
      </g>
     </g>
     <g id="text_16">
      <!-- 0.75 -->
      <g transform="translate(150.734375 104.440235)scale(0.1 -0.1)">
       <use xlink:href="#DejaVuSans-30"/>
       <use x="63.623047" xlink:href="#DejaVuSans-2e"/>
       <use x="95.410156" xlink:href="#DejaVuSans-37"/>
       <use x="159.033203" xlink:href="#DejaVuSans-35"/>
      </g>
     </g>
    </g>
    <g id="text_17">
     <!-- TD State:0 -->
     <defs>
      <path d="M -0.296875 72.90625 
L 61.375 72.90625 
L 61.375 64.59375 
L 35.5 64.59375 
L 35.5 0 
L 25.59375 0 
L 25.59375 64.59375 
L -0.296875 64.59375 
z
" id="DejaVuSans-54"/>
      <path d="M 19.671875 64.796875 
L 19.671875 8.109375 
L 31.59375 8.109375 
Q 46.6875 8.109375 53.6875 14.9375 
Q 60.6875 21.78125 60.6875 36.53125 
Q 60.6875 51.171875 53.6875 57.984375 
Q 46.6875 64.796875 31.59375 64.796875 
z
M 9.8125 72.90625 
L 30.078125 72.90625 
Q 51.265625 72.90625 61.171875 64.09375 
Q 71.09375 55.28125 71.09375 36.53125 
Q 71.09375 17.671875 61.125 8.828125 
Q 51.171875 0 30.078125 0 
L 9.8125 0 
z
" id="DejaVuSans-44"/>
      <path id="DejaVuSans-20"/>
      <path d="M 53.515625 70.515625 
L 53.515625 60.890625 
Q 47.90625 63.578125 42.921875 64.890625 
Q 37.9375 66.21875 33.296875 66.21875 
Q 25.25 66.21875 20.875 63.09375 
Q 16.5 59.96875 16.5 54.203125 
Q 16.5 49.359375 19.40625 46.890625 
Q 22.3125 44.4375 30.421875 42.921875 
L 36.375 41.703125 
Q 47.40625 39.59375 52.65625 34.296875 
Q 57.90625 29 57.90625 20.125 
Q 57.90625 9.515625 50.796875 4.046875 
Q 43.703125 -1.421875 29.984375 -1.421875 
Q 24.8125 -1.421875 18.96875 -0.25 
Q 13.140625 0.921875 6.890625 3.21875 
L 6.890625 13.375 
Q 12.890625 10.015625 18.65625 8.296875 
Q 24.421875 6.59375 29.984375 6.59375 
Q 38.421875 6.59375 43.015625 9.90625 
Q 47.609375 13.234375 47.609375 19.390625 
Q 47.609375 24.75 44.3125 27.78125 
Q 41.015625 30.8125 33.5 32.328125 
L 27.484375 33.5 
Q 16.453125 35.6875 11.515625 40.375 
Q 6.59375 45.0625 6.59375 53.421875 
Q 6.59375 63.09375 13.40625 68.65625 
Q 20.21875 74.21875 32.171875 74.21875 
Q 37.3125 74.21875 42.625 73.28125 
Q 47.953125 72.359375 53.515625 70.515625 
z
" id="DejaVuSans-53"/>
      <path d="M 18.3125 70.21875 
L 18.3125 54.6875 
L 36.8125 54.6875 
L 36.8125 47.703125 
L 18.3125 47.703125 
L 18.3125 18.015625 
Q 18.3125 11.328125 20.140625 9.421875 
Q 21.96875 7.515625 27.59375 7.515625 
L 36.8125 7.515625 
L 36.8125 0 
L 27.59375 0 
Q 17.1875 0 13.234375 3.875 
Q 9.28125 7.765625 9.28125 18.015625 
L 9.28125 47.703125 
L 2.6875 47.703125 
L 2.6875 54.6875 
L 9.28125 54.6875 
L 9.28125 70.21875 
z
" id="DejaVuSans-74"/>
      <path d="M 34.28125 27.484375 
Q 23.390625 27.484375 19.1875 25 
Q 14.984375 22.515625 14.984375 16.5 
Q 14.984375 11.71875 18.140625 8.90625 
Q 21.296875 6.109375 26.703125 6.109375 
Q 34.1875 6.109375 38.703125 11.40625 
Q 43.21875 16.703125 43.21875 25.484375 
L 43.21875 27.484375 
z
M 52.203125 31.203125 
L 52.203125 0 
L 43.21875 0 
L 43.21875 8.296875 
Q 40.140625 3.328125 35.546875 0.953125 
Q 30.953125 -1.421875 24.3125 -1.421875 
Q 15.921875 -1.421875 10.953125 3.296875 
Q 6 8.015625 6 15.921875 
Q 6 25.140625 12.171875 29.828125 
Q 18.359375 34.515625 30.609375 34.515625 
L 43.21875 34.515625 
L 43.21875 35.40625 
Q 43.21875 41.609375 39.140625 45 
Q 35.0625 48.390625 27.6875 48.390625 
Q 23 48.390625 18.546875 47.265625 
Q 14.109375 46.140625 10.015625 43.890625 
L 10.015625 52.203125 
Q 14.9375 54.109375 19.578125 55.046875 
Q 24.21875 56 28.609375 56 
Q 40.484375 56 46.34375 49.84375 
Q 52.203125 43.703125 52.203125 31.203125 
z
" id="DejaVuSans-61"/>
      <path d="M 56.203125 29.59375 
L 56.203125 25.203125 
L 14.890625 25.203125 
Q 15.484375 15.921875 20.484375 11.0625 
Q 25.484375 6.203125 34.421875 6.203125 
Q 39.59375 6.203125 44.453125 7.46875 
Q 49.3125 8.734375 54.109375 11.28125 
L 54.109375 2.78125 
Q 49.265625 0.734375 44.1875 -0.34375 
Q 39.109375 -1.421875 33.890625 -1.421875 
Q 20.796875 -1.421875 13.15625 6.1875 
Q 5.515625 13.8125 5.515625 26.8125 
Q 5.515625 40.234375 12.765625 48.109375 
Q 20.015625 56 32.328125 56 
Q 43.359375 56 49.78125 48.890625 
Q 56.203125 41.796875 56.203125 29.59375 
z
M 47.21875 32.234375 
Q 47.125 39.59375 43.09375 43.984375 
Q 39.0625 48.390625 32.421875 48.390625 
Q 24.90625 48.390625 20.390625 44.140625 
Q 15.875 39.890625 15.1875 32.171875 
z
" id="DejaVuSans-65"/>
      <path d="M 11.71875 12.40625 
L 22.015625 12.40625 
L 22.015625 0 
L 11.71875 0 
z
M 11.71875 51.703125 
L 22.015625 51.703125 
L 22.015625 39.3125 
L 11.71875 39.3125 
z
" id="DejaVuSans-3a"/>
     </defs>
     <g transform="translate(136.275 194.523162)rotate(-90)scale(0.1 -0.1)">
      <use xlink:href="#DejaVuSans-54"/>
      <use x="61.083984" xlink:href="#DejaVuSans-44"/>
      <use x="138.085938" xlink:href="#DejaVuSans-20"/>
      <use x="169.873047" xlink:href="#DejaVuSans-53"/>
      <use x="233.349609" xlink:href="#DejaVuSans-74"/>
      <use x="272.558594" xlink:href="#DejaVuSans-61"/>
      <use x="333.837891" xlink:href="#DejaVuSans-74"/>
      <use x="373.046875" xlink:href="#DejaVuSans-65"/>
      <use x="434.570312" xlink:href="#DejaVuSans-3a"/>
      <use x="468.261719" xlink:href="#DejaVuSans-30"/>
     </g>
    </g>
   </g>
   <g id="line2d_17">
    <path clip-path="url(#p0c17dd81c1)" d="M 230.727273 179.945373 
L 235.825491 176.550717 
L 240.923709 183.843772 
L 246.021928 180.805894 
L 251.120146 181.575602 
L 256.218365 187.977842 
L 261.316583 180.51736 
L 266.414801 175.884004 
L 271.51302 167.980123 
L 276.611238 148.541984 
L 281.709456 150.106919 
L 286.807675 143.23641 
L 291.905893 159.527584 
L 297.004111 173.944301 
L 302.10233 195.628429 
L 307.200548 170.648029 
L 312.298767 185.112354 
L 317.396985 190.997247 
L 322.495203 186.589693 
L 327.593422 154.454715 
L 332.69164 153.558704 
L 337.789858 153.293386 
L 342.888077 152.770607 
L 347.986295 152.609884 
L 353.084513 152.324645 
L 358.182732 149.392288 
L 363.28095 139.763855 
L 368.379169 131.074841 
L 373.477387 135.40337 
L 378.575605 140.172221 
L 383.673824 160.359079 
L 388.772042 181.182486 
L 393.87026 185.712174 
L 398.968479 180.253492 
L 404.066697 180.011212 
L 409.164915 175.025708 
L 414.263134 159.881079 
L 419.361352 148.73022 
L 424.459571 165.743791 
L 429.557789 158.895164 
L 434.656007 158.426255 
L 439.754226 162.939806 
L 444.852444 182.314517 
L 449.950662 188.445483 
L 455.048881 184.336518 
L 460.147099 184.94001 
L 465.245317 180.172892 
L 470.343536 157.224899 
L 475.441754 163.93298 
L 480.539973 158.115404 
L 485.638191 157.988292 
L 490.736409 157.749547 
L 495.834628 163.033628 
L 500.932846 169.13579 
L 506.031064 168.700396 
L 516.227501 168.83709 
L 521.32572 165.812536 
L 526.423938 139.618681 
L 531.522156 141.667256 
L 536.620375 130.049777 
L 546.816811 113.878521 
L 551.91503 122.723752 
L 557.013248 118.066207 
L 562.111466 114.229891 
L 567.209685 96.148562 
L 572.307903 102.710111 
L 577.406122 96.363493 
L 582.50434 93.811765 
L 587.602558 94.544959 
L 592.700777 99.8652 
L 597.798995 110.597762 
L 602.897213 117.784069 
L 607.995432 140.637309 
L 613.09365 151.272947 
L 618.191868 151.614938 
L 623.290087 146.4193 
L 628.388305 152.222339 
L 633.486524 140.980996 
L 638.584742 125.916204 
L 643.68296 127.851917 
L 648.781179 126.807664 
L 658.977615 138.060535 
L 664.075834 161.818459 
L 669.174052 163.144557 
L 674.27227 163.324772 
L 679.370489 157.935832 
L 684.468707 164.073158 
L 689.566926 171.227007 
L 694.665144 168.002045 
L 699.763362 166.302582 
L 704.861581 166.680177 
L 709.959799 166.884748 
L 720.156236 166.995084 
L 725.254454 179.385549 
L 730.352672 178.641577 
L 735.450891 184.244386 
L 740.549109 190.048662 
L 745.647328 190.414427 
L 750.745546 179.605445 
L 755.843764 176.952494 
L 760.941983 189.985955 
L 766.040201 189.826028 
L 771.138419 195.70997 
L 776.236638 190.445219 
L 781.334856 211.226259 
L 786.433074 203.180443 
L 791.531293 201.372095 
L 796.629511 199.030823 
L 801.72773 190.611745 
L 806.825948 159.529234 
L 811.924166 162.987887 
L 817.022385 140.038684 
L 822.120603 156.651994 
L 827.218821 161.162636 
L 832.31704 154.952079 
L 837.415258 155.305171 
L 847.611695 155.639003 
L 852.709913 155.575079 
L 857.808132 166.938864 
L 862.90635 162.263441 
L 868.004568 197.817146 
L 873.102787 188.662493 
L 878.201005 190.784543 
L 883.299223 186.563041 
L 888.397442 183.846951 
L 893.49566 198.210504 
L 898.593878 191.402977 
L 903.692097 200.083134 
L 908.790315 193.96529 
L 913.888534 192.990919 
L 918.986752 188.282431 
L 924.08497 179.038849 
L 934.281407 166.768507 
L 939.379625 172.006216 
L 944.477844 193.512023 
L 949.576062 192.703299 
L 954.67428 191.723402 
L 959.772499 191.910789 
L 964.870717 199.541179 
L 969.968936 187.331553 
L 975.067154 178.358207 
L 980.165372 174.979929 
L 985.263591 180.588919 
L 990.361809 163.39786 
L 995.460027 168.985835 
L 1000.558246 180.195683 
L 1005.656464 184.11844 
L 1010.754683 186.461736 
L 1015.852901 175.905036 
L 1020.951119 164.660198 
L 1026.049338 182.222497 
L 1031.147556 171.981073 
L 1036.245774 147.327132 
L 1041.343993 148.244638 
L 1046.442211 148.113298 
L 1051.540429 147.583459 
L 1056.638648 174.137512 
L 1061.736866 203.049031 
L 1066.835085 201.186628 
L 1071.933303 201.198929 
L 1077.031521 207.144801 
L 1082.12974 202.114882 
L 1087.227958 196.0491 
L 1092.326176 192.182298 
L 1097.424395 188.558532 
L 1102.522613 189.660483 
L 1107.620831 188.349731 
L 1112.71905 201.028582 
L 1117.817268 181.700198 
L 1122.915487 187.338009 
L 1128.013705 186.901037 
L 1133.111923 193.916987 
L 1138.210142 192.391855 
L 1143.30836 193.620775 
L 1148.406578 222.709689 
L 1153.504797 208.592882 
L 1158.603015 208.693717 
L 1163.701233 181.103647 
L 1168.799452 175.446467 
L 1173.89767 133.580637 
L 1178.995889 138.843999 
L 1184.094107 142.625832 
L 1189.192325 142.664572 
L 1194.290544 141.602117 
L 1199.388762 175.774635 
L 1204.48698 170.274439 
L 1209.585199 170.077836 
L 1214.683417 170.002726 
L 1219.781635 168.741542 
L 1224.879854 169.130866 
L 1229.978072 157.496653 
L 1235.076291 132.564645 
L 1240.174509 149.457274 
L 1245.272727 149.373132 
L 1245.272727 149.373132 
" style="fill:none;stroke:#000000;stroke-linecap:square;stroke-width:4;"/>
   </g>
   <g id="line2d_18">
    <path clip-path="url(#p0c17dd81c1)" d="M 230.727273 203.481775 
L 235.825491 190.62668 
L 240.923709 203.481775 
L 246.021928 190.62668 
L 251.120146 190.62668 
L 256.218365 203.481775 
L 261.316583 177.771585 
L 271.51302 152.061395 
L 276.611238 164.91649 
L 281.709456 164.91649 
L 286.807675 152.061395 
L 291.905893 190.62668 
L 297.004111 190.62668 
L 302.10233 203.481775 
L 307.200548 139.206301 
L 312.298767 177.771585 
L 317.396985 190.62668 
L 327.593422 164.91649 
L 358.182732 164.91649 
L 368.379169 139.206301 
L 378.575605 164.91649 
L 388.772042 164.91649 
L 393.87026 177.771585 
L 398.968479 164.91649 
L 409.164915 164.91649 
L 414.263134 177.771585 
L 419.361352 139.206301 
L 424.459571 177.771585 
L 429.557789 164.91649 
L 434.656007 164.91649 
L 439.754226 139.206301 
L 444.852444 177.771585 
L 449.950662 190.62668 
L 455.048881 177.771585 
L 460.147099 177.771585 
L 465.245317 164.91649 
L 470.343536 164.91649 
L 475.441754 177.771585 
L 480.539973 164.91649 
L 531.522156 164.91649 
L 536.620375 139.206301 
L 546.816811 113.496111 
L 551.91503 139.206301 
L 557.013248 126.351206 
L 562.111466 126.351206 
L 567.209685 100.641016 
L 572.307903 126.351206 
L 577.406122 113.496111 
L 592.700777 113.496111 
L 602.897213 139.206301 
L 607.995432 126.351206 
L 613.09365 139.206301 
L 618.191868 139.206301 
L 623.290087 126.351206 
L 628.388305 139.206301 
L 633.486524 126.351206 
L 638.584742 139.206301 
L 643.68296 126.351206 
L 648.781179 126.351206 
L 658.977615 152.061395 
L 674.27227 152.061395 
L 679.370489 139.206301 
L 689.566926 164.91649 
L 730.352672 164.91649 
L 740.549109 190.62668 
L 750.745546 190.62668 
L 755.843764 177.771585 
L 760.941983 203.481775 
L 766.040201 203.481775 
L 771.138419 216.336869 
L 776.236638 203.481775 
L 781.334856 216.336869 
L 786.433074 203.481775 
L 796.629511 203.481775 
L 801.72773 190.62668 
L 806.825948 190.62668 
L 811.924166 177.771585 
L 817.022385 126.351206 
L 822.120603 164.91649 
L 827.218821 177.771585 
L 832.31704 164.91649 
L 852.709913 164.91649 
L 857.808132 190.62668 
L 862.90635 139.206301 
L 868.004568 216.336869 
L 873.102787 203.481775 
L 878.201005 216.336869 
L 888.397442 216.336869 
L 893.49566 242.047059 
L 898.593878 216.336869 
L 903.692097 229.191964 
L 908.790315 203.481775 
L 913.888534 190.62668 
L 918.986752 203.481775 
L 924.08497 203.481775 
L 934.281407 177.771585 
L 939.379625 190.62668 
L 944.477844 216.336869 
L 949.576062 190.62668 
L 959.772499 190.62668 
L 964.870717 203.481775 
L 969.968936 177.771585 
L 975.067154 190.62668 
L 980.165372 177.771585 
L 985.263591 190.62668 
L 990.361809 152.061395 
L 995.460027 164.91649 
L 1000.558246 190.62668 
L 1005.656464 177.771585 
L 1010.754683 190.62668 
L 1020.951119 139.206301 
L 1026.049338 177.771585 
L 1031.147556 164.91649 
L 1051.540429 164.91649 
L 1056.638648 190.62668 
L 1071.933303 190.62668 
L 1077.031521 203.481775 
L 1082.12974 190.62668 
L 1087.227958 190.62668 
L 1092.326176 203.481775 
L 1097.424395 190.62668 
L 1107.620831 190.62668 
L 1112.71905 216.336869 
L 1117.817268 177.771585 
L 1122.915487 190.62668 
L 1128.013705 190.62668 
L 1133.111923 203.481775 
L 1143.30836 203.481775 
L 1148.406578 216.336869 
L 1153.504797 190.62668 
L 1158.603015 190.62668 
L 1163.701233 126.351206 
L 1168.799452 164.91649 
L 1229.978072 164.91649 
L 1235.076291 126.351206 
L 1240.174509 164.91649 
L 1245.272727 164.91649 
L 1245.272727 164.91649 
" style="fill:none;stroke:#ff0000;stroke-linecap:square;stroke-width:1.5;"/>
   </g>
   <g id="patch_3">
    <path d="M 180 249.458824 
L 180 86.4 
" style="fill:none;stroke:#000000;stroke-linecap:square;stroke-linejoin:miter;stroke-width:0.8;"/>
   </g>
   <g id="patch_4">
    <path d="M 1296 249.458824 
L 1296 86.4 
" style="fill:none;stroke:#000000;stroke-linecap:square;stroke-linejoin:miter;stroke-width:0.8;"/>
   </g>
   <g id="patch_5">
    <path d="M 180 249.458824 
L 1296 249.458824 
" style="fill:none;stroke:#000000;stroke-linecap:square;stroke-linejoin:miter;stroke-width:0.8;"/>
   </g>
   <g id="patch_6">
    <path d="M 180 86.4 
L 1296 86.4 
" style="fill:none;stroke:#000000;stroke-linecap:square;stroke-linejoin:miter;stroke-width:0.8;"/>
   </g>
   <g id="legend_1">
    <g id="patch_7">
     <path d="M 1234.3125 123.75625 
L 1289 123.75625 
Q 1291 123.75625 1291 121.75625 
L 1291 93.4 
Q 1291 91.4 1289 91.4 
L 1234.3125 91.4 
Q 1232.3125 91.4 1232.3125 93.4 
L 1232.3125 121.75625 
Q 1232.3125 123.75625 1234.3125 123.75625 
z
" style="fill:#ffffff;opacity:0.8;stroke:#cccccc;stroke-linejoin:miter;"/>
    </g>
    <g id="line2d_19">
     <path d="M 1236.3125 99.498438 
L 1256.3125 99.498438 
" style="fill:none;stroke:#000000;stroke-linecap:square;stroke-width:4;"/>
    </g>
    <g id="line2d_20"/>
    <g id="text_18">
     <!-- Pred -->
     <defs>
      <path d="M 19.671875 64.796875 
L 19.671875 37.40625 
L 32.078125 37.40625 
Q 38.96875 37.40625 42.71875 40.96875 
Q 46.484375 44.53125 46.484375 51.125 
Q 46.484375 57.671875 42.71875 61.234375 
Q 38.96875 64.796875 32.078125 64.796875 
z
M 9.8125 72.90625 
L 32.078125 72.90625 
Q 44.34375 72.90625 50.609375 67.359375 
Q 56.890625 61.8125 56.890625 51.125 
Q 56.890625 40.328125 50.609375 34.8125 
Q 44.34375 29.296875 32.078125 29.296875 
L 19.671875 29.296875 
L 19.671875 0 
L 9.8125 0 
z
" id="DejaVuSans-50"/>
      <path d="M 41.109375 46.296875 
Q 39.59375 47.171875 37.8125 47.578125 
Q 36.03125 48 33.890625 48 
Q 26.265625 48 22.1875 43.046875 
Q 18.109375 38.09375 18.109375 28.8125 
L 18.109375 0 
L 9.078125 0 
L 9.078125 54.6875 
L 18.109375 54.6875 
L 18.109375 46.1875 
Q 20.953125 51.171875 25.484375 53.578125 
Q 30.03125 56 36.53125 56 
Q 37.453125 56 38.578125 55.875 
Q 39.703125 55.765625 41.0625 55.515625 
z
" id="DejaVuSans-72"/>
      <path d="M 45.40625 46.390625 
L 45.40625 75.984375 
L 54.390625 75.984375 
L 54.390625 0 
L 45.40625 0 
L 45.40625 8.203125 
Q 42.578125 3.328125 38.25 0.953125 
Q 33.9375 -1.421875 27.875 -1.421875 
Q 17.96875 -1.421875 11.734375 6.484375 
Q 5.515625 14.40625 5.515625 27.296875 
Q 5.515625 40.1875 11.734375 48.09375 
Q 17.96875 56 27.875 56 
Q 33.9375 56 38.25 53.625 
Q 42.578125 51.265625 45.40625 46.390625 
z
M 14.796875 27.296875 
Q 14.796875 17.390625 18.875 11.75 
Q 22.953125 6.109375 30.078125 6.109375 
Q 37.203125 6.109375 41.296875 11.75 
Q 45.40625 17.390625 45.40625 27.296875 
Q 45.40625 37.203125 41.296875 42.84375 
Q 37.203125 48.484375 30.078125 48.484375 
Q 22.953125 48.484375 18.875 42.84375 
Q 14.796875 37.203125 14.796875 27.296875 
z
" id="DejaVuSans-64"/>
     </defs>
     <g transform="translate(1264.3125 102.998438)scale(0.1 -0.1)">
      <use xlink:href="#DejaVuSans-50"/>
      <use x="60.287109" xlink:href="#DejaVuSans-72"/>
      <use x="101.369141" xlink:href="#DejaVuSans-65"/>
      <use x="162.892578" xlink:href="#DejaVuSans-64"/>
     </g>
    </g>
    <g id="line2d_21">
     <path d="M 1236.3125 114.176563 
L 1256.3125 114.176563 
" style="fill:none;stroke:#ff0000;stroke-linecap:square;stroke-width:1.5;"/>
    </g>
    <g id="line2d_22"/>
    <g id="text_19">
     <!-- True -->
     <defs>
      <path d="M 8.5 21.578125 
L 8.5 54.6875 
L 17.484375 54.6875 
L 17.484375 21.921875 
Q 17.484375 14.15625 20.5 10.265625 
Q 23.53125 6.390625 29.59375 6.390625 
Q 36.859375 6.390625 41.078125 11.03125 
Q 45.3125 15.671875 45.3125 23.6875 
L 45.3125 54.6875 
L 54.296875 54.6875 
L 54.296875 0 
L 45.3125 0 
L 45.3125 8.40625 
Q 42.046875 3.421875 37.71875 1 
Q 33.40625 -1.421875 27.6875 -1.421875 
Q 18.265625 -1.421875 13.375 4.4375 
Q 8.5 10.296875 8.5 21.578125 
z
M 31.109375 56 
z
" id="DejaVuSans-75"/>
     </defs>
     <g transform="translate(1264.3125 117.676563)scale(0.1 -0.1)">
      <use xlink:href="#DejaVuSans-54"/>
      <use x="60.865234" xlink:href="#DejaVuSans-72"/>
      <use x="101.978516" xlink:href="#DejaVuSans-75"/>
      <use x="165.357422" xlink:href="#DejaVuSans-65"/>
     </g>
    </g>
   </g>
  </g>
  <g id="axes_2">
   <g id="patch_8">
    <path d="M 180 445.129412 
L 1296 445.129412 
L 1296 282.070588 
L 180 282.070588 
z
" style="fill:#ffffff;"/>
   </g>
   <g id="matplotlib.axis_3">
    <g id="xtick_10">
     <g id="line2d_23">
      <g>
       <use style="stroke:#000000;stroke-width:0.8;" x="225.629054" xlink:href="#m0fe0139806" y="445.129412"/>
      </g>
     </g>
     <g id="text_20">
      <!-- 0 -->
      <g transform="translate(222.447804 459.727849)scale(0.1 -0.1)">
       <use xlink:href="#DejaVuSans-30"/>
      </g>
     </g>
    </g>
    <g id="xtick_11">
     <g id="line2d_24">
      <g>
       <use style="stroke:#000000;stroke-width:0.8;" x="353.084513" xlink:href="#m0fe0139806" y="445.129412"/>
      </g>
     </g>
     <g id="text_21">
      <!-- 500 -->
      <g transform="translate(343.540763 459.727849)scale(0.1 -0.1)">
       <use xlink:href="#DejaVuSans-35"/>
       <use x="63.623047" xlink:href="#DejaVuSans-30"/>
       <use x="127.246094" xlink:href="#DejaVuSans-30"/>
      </g>
     </g>
    </g>
    <g id="xtick_12">
     <g id="line2d_25">
      <g>
       <use style="stroke:#000000;stroke-width:0.8;" x="480.539973" xlink:href="#m0fe0139806" y="445.129412"/>
      </g>
     </g>
     <g id="text_22">
      <!-- 1000 -->
      <g transform="translate(467.814973 459.727849)scale(0.1 -0.1)">
       <use xlink:href="#DejaVuSans-31"/>
       <use x="63.623047" xlink:href="#DejaVuSans-30"/>
       <use x="127.246094" xlink:href="#DejaVuSans-30"/>
       <use x="190.869141" xlink:href="#DejaVuSans-30"/>
      </g>
     </g>
    </g>
    <g id="xtick_13">
     <g id="line2d_26">
      <g>
       <use style="stroke:#000000;stroke-width:0.8;" x="607.995432" xlink:href="#m0fe0139806" y="445.129412"/>
      </g>
     </g>
     <g id="text_23">
      <!-- 1500 -->
      <g transform="translate(595.270432 459.727849)scale(0.1 -0.1)">
       <use xlink:href="#DejaVuSans-31"/>
       <use x="63.623047" xlink:href="#DejaVuSans-35"/>
       <use x="127.246094" xlink:href="#DejaVuSans-30"/>
       <use x="190.869141" xlink:href="#DejaVuSans-30"/>
      </g>
     </g>
    </g>
    <g id="xtick_14">
     <g id="line2d_27">
      <g>
       <use style="stroke:#000000;stroke-width:0.8;" x="735.450891" xlink:href="#m0fe0139806" y="445.129412"/>
      </g>
     </g>
     <g id="text_24">
      <!-- 2000 -->
      <g transform="translate(722.725891 459.727849)scale(0.1 -0.1)">
       <use xlink:href="#DejaVuSans-32"/>
       <use x="63.623047" xlink:href="#DejaVuSans-30"/>
       <use x="127.246094" xlink:href="#DejaVuSans-30"/>
       <use x="190.869141" xlink:href="#DejaVuSans-30"/>
      </g>
     </g>
    </g>
    <g id="xtick_15">
     <g id="line2d_28">
      <g>
       <use style="stroke:#000000;stroke-width:0.8;" x="862.90635" xlink:href="#m0fe0139806" y="445.129412"/>
      </g>
     </g>
     <g id="text_25">
      <!-- 2500 -->
      <g transform="translate(850.18135 459.727849)scale(0.1 -0.1)">
       <use xlink:href="#DejaVuSans-32"/>
       <use x="63.623047" xlink:href="#DejaVuSans-35"/>
       <use x="127.246094" xlink:href="#DejaVuSans-30"/>
       <use x="190.869141" xlink:href="#DejaVuSans-30"/>
      </g>
     </g>
    </g>
    <g id="xtick_16">
     <g id="line2d_29">
      <g>
       <use style="stroke:#000000;stroke-width:0.8;" x="990.361809" xlink:href="#m0fe0139806" y="445.129412"/>
      </g>
     </g>
     <g id="text_26">
      <!-- 3000 -->
      <g transform="translate(977.636809 459.727849)scale(0.1 -0.1)">
       <use xlink:href="#DejaVuSans-33"/>
       <use x="63.623047" xlink:href="#DejaVuSans-30"/>
       <use x="127.246094" xlink:href="#DejaVuSans-30"/>
       <use x="190.869141" xlink:href="#DejaVuSans-30"/>
      </g>
     </g>
    </g>
    <g id="xtick_17">
     <g id="line2d_30">
      <g>
       <use style="stroke:#000000;stroke-width:0.8;" x="1117.817268" xlink:href="#m0fe0139806" y="445.129412"/>
      </g>
     </g>
     <g id="text_27">
      <!-- 3500 -->
      <g transform="translate(1105.092268 459.727849)scale(0.1 -0.1)">
       <use xlink:href="#DejaVuSans-33"/>
       <use x="63.623047" xlink:href="#DejaVuSans-35"/>
       <use x="127.246094" xlink:href="#DejaVuSans-30"/>
       <use x="190.869141" xlink:href="#DejaVuSans-30"/>
      </g>
     </g>
    </g>
    <g id="xtick_18">
     <g id="line2d_31">
      <g>
       <use style="stroke:#000000;stroke-width:0.8;" x="1245.272727" xlink:href="#m0fe0139806" y="445.129412"/>
      </g>
     </g>
     <g id="text_28">
      <!-- 4000 -->
      <g transform="translate(1232.547727 459.727849)scale(0.1 -0.1)">
       <use xlink:href="#DejaVuSans-34"/>
       <use x="63.623047" xlink:href="#DejaVuSans-30"/>
       <use x="127.246094" xlink:href="#DejaVuSans-30"/>
       <use x="190.869141" xlink:href="#DejaVuSans-30"/>
      </g>
     </g>
    </g>
   </g>
   <g id="matplotlib.axis_4">
    <g id="ytick_8">
     <g id="line2d_32">
      <g>
       <use style="stroke:#000000;stroke-width:0.8;" x="180" xlink:href="#m51bb2d3dad" y="445.258866"/>
      </g>
     </g>
     <g id="text_29">
      <!-- −0.4 -->
      <g transform="translate(148.717187 449.058085)scale(0.1 -0.1)">
       <use xlink:href="#DejaVuSans-2212"/>
       <use x="83.789062" xlink:href="#DejaVuSans-30"/>
       <use x="147.412109" xlink:href="#DejaVuSans-2e"/>
       <use x="179.199219" xlink:href="#DejaVuSans-34"/>
      </g>
     </g>
    </g>
    <g id="ytick_9">
     <g id="line2d_33">
      <g>
       <use style="stroke:#000000;stroke-width:0.8;" x="180" xlink:href="#m51bb2d3dad" y="418.02999"/>
      </g>
     </g>
     <g id="text_30">
      <!-- −0.2 -->
      <g transform="translate(148.717187 421.829209)scale(0.1 -0.1)">
       <use xlink:href="#DejaVuSans-2212"/>
       <use x="83.789062" xlink:href="#DejaVuSans-30"/>
       <use x="147.412109" xlink:href="#DejaVuSans-2e"/>
       <use x="179.199219" xlink:href="#DejaVuSans-32"/>
      </g>
     </g>
    </g>
    <g id="ytick_10">
     <g id="line2d_34">
      <g>
       <use style="stroke:#000000;stroke-width:0.8;" x="180" xlink:href="#m51bb2d3dad" y="390.801114"/>
      </g>
     </g>
     <g id="text_31">
      <!-- 0.0 -->
      <g transform="translate(157.096875 394.600332)scale(0.1 -0.1)">
       <use xlink:href="#DejaVuSans-30"/>
       <use x="63.623047" xlink:href="#DejaVuSans-2e"/>
       <use x="95.410156" xlink:href="#DejaVuSans-30"/>
      </g>
     </g>
    </g>
    <g id="ytick_11">
     <g id="line2d_35">
      <g>
       <use style="stroke:#000000;stroke-width:0.8;" x="180" xlink:href="#m51bb2d3dad" y="363.572238"/>
      </g>
     </g>
     <g id="text_32">
      <!-- 0.2 -->
      <g transform="translate(157.096875 367.371456)scale(0.1 -0.1)">
       <use xlink:href="#DejaVuSans-30"/>
       <use x="63.623047" xlink:href="#DejaVuSans-2e"/>
       <use x="95.410156" xlink:href="#DejaVuSans-32"/>
      </g>
     </g>
    </g>
    <g id="ytick_12">
     <g id="line2d_36">
      <g>
       <use style="stroke:#000000;stroke-width:0.8;" x="180" xlink:href="#m51bb2d3dad" y="336.343361"/>
      </g>
     </g>
     <g id="text_33">
      <!-- 0.4 -->
      <g transform="translate(157.096875 340.14258)scale(0.1 -0.1)">
       <use xlink:href="#DejaVuSans-30"/>
       <use x="63.623047" xlink:href="#DejaVuSans-2e"/>
       <use x="95.410156" xlink:href="#DejaVuSans-34"/>
      </g>
     </g>
    </g>
    <g id="ytick_13">
     <g id="line2d_37">
      <g>
       <use style="stroke:#000000;stroke-width:0.8;" x="180" xlink:href="#m51bb2d3dad" y="309.114485"/>
      </g>
     </g>
     <g id="text_34">
      <!-- 0.6 -->
      <defs>
       <path d="M 33.015625 40.375 
Q 26.375 40.375 22.484375 35.828125 
Q 18.609375 31.296875 18.609375 23.390625 
Q 18.609375 15.53125 22.484375 10.953125 
Q 26.375 6.390625 33.015625 6.390625 
Q 39.65625 6.390625 43.53125 10.953125 
Q 47.40625 15.53125 47.40625 23.390625 
Q 47.40625 31.296875 43.53125 35.828125 
Q 39.65625 40.375 33.015625 40.375 
z
M 52.59375 71.296875 
L 52.59375 62.3125 
Q 48.875 64.0625 45.09375 64.984375 
Q 41.3125 65.921875 37.59375 65.921875 
Q 27.828125 65.921875 22.671875 59.328125 
Q 17.53125 52.734375 16.796875 39.40625 
Q 19.671875 43.65625 24.015625 45.921875 
Q 28.375 48.1875 33.59375 48.1875 
Q 44.578125 48.1875 50.953125 41.515625 
Q 57.328125 34.859375 57.328125 23.390625 
Q 57.328125 12.15625 50.6875 5.359375 
Q 44.046875 -1.421875 33.015625 -1.421875 
Q 20.359375 -1.421875 13.671875 8.265625 
Q 6.984375 17.96875 6.984375 36.375 
Q 6.984375 53.65625 15.1875 63.9375 
Q 23.390625 74.21875 37.203125 74.21875 
Q 40.921875 74.21875 44.703125 73.484375 
Q 48.484375 72.75 52.59375 71.296875 
z
" id="DejaVuSans-36"/>
      </defs>
      <g transform="translate(157.096875 312.913704)scale(0.1 -0.1)">
       <use xlink:href="#DejaVuSans-30"/>
       <use x="63.623047" xlink:href="#DejaVuSans-2e"/>
       <use x="95.410156" xlink:href="#DejaVuSans-36"/>
      </g>
     </g>
    </g>
    <g id="ytick_14">
     <g id="line2d_38">
      <g>
       <use style="stroke:#000000;stroke-width:0.8;" x="180" xlink:href="#m51bb2d3dad" y="281.885609"/>
      </g>
     </g>
     <g id="text_35">
      <!-- 0.8 -->
      <defs>
       <path d="M 31.78125 34.625 
Q 24.75 34.625 20.71875 30.859375 
Q 16.703125 27.09375 16.703125 20.515625 
Q 16.703125 13.921875 20.71875 10.15625 
Q 24.75 6.390625 31.78125 6.390625 
Q 38.8125 6.390625 42.859375 10.171875 
Q 46.921875 13.96875 46.921875 20.515625 
Q 46.921875 27.09375 42.890625 30.859375 
Q 38.875 34.625 31.78125 34.625 
z
M 21.921875 38.8125 
Q 15.578125 40.375 12.03125 44.71875 
Q 8.5 49.078125 8.5 55.328125 
Q 8.5 64.0625 14.71875 69.140625 
Q 20.953125 74.21875 31.78125 74.21875 
Q 42.671875 74.21875 48.875 69.140625 
Q 55.078125 64.0625 55.078125 55.328125 
Q 55.078125 49.078125 51.53125 44.71875 
Q 48 40.375 41.703125 38.8125 
Q 48.828125 37.15625 52.796875 32.3125 
Q 56.78125 27.484375 56.78125 20.515625 
Q 56.78125 9.90625 50.3125 4.234375 
Q 43.84375 -1.421875 31.78125 -1.421875 
Q 19.734375 -1.421875 13.25 4.234375 
Q 6.78125 9.90625 6.78125 20.515625 
Q 6.78125 27.484375 10.78125 32.3125 
Q 14.796875 37.15625 21.921875 38.8125 
z
M 18.3125 54.390625 
Q 18.3125 48.734375 21.84375 45.5625 
Q 25.390625 42.390625 31.78125 42.390625 
Q 38.140625 42.390625 41.71875 45.5625 
Q 45.3125 48.734375 45.3125 54.390625 
Q 45.3125 60.0625 41.71875 63.234375 
Q 38.140625 66.40625 31.78125 66.40625 
Q 25.390625 66.40625 21.84375 63.234375 
Q 18.3125 60.0625 18.3125 54.390625 
z
" id="DejaVuSans-38"/>
      </defs>
      <g transform="translate(157.096875 285.684828)scale(0.1 -0.1)">
       <use xlink:href="#DejaVuSans-30"/>
       <use x="63.623047" xlink:href="#DejaVuSans-2e"/>
       <use x="95.410156" xlink:href="#DejaVuSans-38"/>
      </g>
     </g>
    </g>
    <g id="text_36">
     <!-- TD State:1 -->
     <g transform="translate(142.6375 390.19375)rotate(-90)scale(0.1 -0.1)">
      <use xlink:href="#DejaVuSans-54"/>
      <use x="61.083984" xlink:href="#DejaVuSans-44"/>
      <use x="138.085938" xlink:href="#DejaVuSans-20"/>
      <use x="169.873047" xlink:href="#DejaVuSans-53"/>
      <use x="233.349609" xlink:href="#DejaVuSans-74"/>
      <use x="272.558594" xlink:href="#DejaVuSans-61"/>
      <use x="333.837891" xlink:href="#DejaVuSans-74"/>
      <use x="373.046875" xlink:href="#DejaVuSans-65"/>
      <use x="434.570312" xlink:href="#DejaVuSans-3a"/>
      <use x="468.261719" xlink:href="#DejaVuSans-31"/>
     </g>
    </g>
   </g>
   <g id="line2d_39">
    <path clip-path="url(#p8da59b1e2c)" d="M 230.727273 367.390824 
L 235.825491 368.962765 
L 240.923709 384.079628 
L 246.021928 384.755253 
L 251.120146 386.052357 
L 256.218365 390.919755 
L 261.316583 387.109247 
L 266.414801 377.380055 
L 271.51302 381.932803 
L 276.611238 412.63024 
L 281.709456 413.774464 
L 286.807675 404.579055 
L 291.905893 427.416478 
L 297.004111 419.83925 
L 302.10233 362.617311 
L 307.200548 334.490861 
L 312.298767 353.93079 
L 317.396985 358.948115 
L 322.495203 353.931082 
L 327.593422 413.239209 
L 332.69164 414.321307 
L 337.789858 414.641745 
L 342.888077 415.273112 
L 347.986295 415.467154 
L 353.084513 415.811645 
L 358.182732 419.353058 
L 363.28095 414.759897 
L 368.379169 402.64477 
L 373.477387 406.801579 
L 378.575605 412.870341 
L 383.673824 406.145478 
L 388.772042 332.067462 
L 393.87026 350.315613 
L 398.968479 348.665624 
L 404.066697 350.125945 
L 409.164915 388.423306 
L 414.263134 421.750018 
L 419.361352 390.098257 
L 424.459571 414.678798 
L 429.557789 407.904207 
L 434.656007 408.470493 
L 439.754226 372.946583 
L 444.852444 378.226329 
L 449.950662 388.693851 
L 455.048881 382.263887 
L 460.147099 382.665959 
L 465.245317 377.835354 
L 470.343536 409.893559 
L 475.441754 416.828759 
L 480.539973 408.80893 
L 485.638191 408.96243 
L 490.736409 409.250767 
L 495.834628 402.869177 
L 500.932846 395.499574 
L 506.031064 396.025448 
L 516.227501 395.86036 
L 521.32572 399.513059 
L 526.423938 420.415582 
L 531.522156 421.913451 
L 536.620375 405.075261 
L 541.718593 391.883684 
L 546.816811 376.957317 
L 551.91503 385.361172 
L 557.013248 373.012532 
L 562.111466 362.64706 
L 567.209685 331.366859 
L 572.307903 333.717208 
L 577.406122 324.557569 
L 582.50434 330.560748 
L 587.602558 339.66553 
L 592.700777 353.101186 
L 597.798995 378.314215 
L 602.897213 393.086708 
L 607.995432 376.933922 
L 613.09365 379.39542 
L 618.191868 379.09754 
L 623.290087 371.866116 
L 628.388305 378.570092 
L 633.486524 376.646113 
L 638.584742 401.715637 
L 643.68296 391.580197 
L 648.781179 389.09812 
L 658.977615 402.815003 
L 664.075834 381.959238 
L 669.174052 380.796414 
L 674.27227 380.639213 
L 679.370489 373.576448 
L 684.468707 379.985774 
L 689.566926 385.501461 
L 694.665144 388.332598 
L 699.763362 389.82456 
L 704.861581 389.493053 
L 709.959799 389.313585 
L 720.156236 389.216694 
L 725.254454 378.339111 
L 730.352672 378.992323 
L 740.549109 392.567018 
L 745.647328 392.243528 
L 750.745546 401.730357 
L 755.843764 392.262062 
L 760.941983 404.40887 
L 766.040201 404.545752 
L 771.138419 411.171776 
L 776.236638 403.99404 
L 781.334856 377.661035 
L 786.433074 363.908139 
L 791.531293 358.463342 
L 796.629511 347.910611 
L 801.72773 326.027329 
L 806.825948 425.788369 
L 811.924166 404.485475 
L 817.022385 377.451368 
L 822.120603 398.255057 
L 827.218821 406.090167 
L 832.31704 400.037387 
L 837.415258 402.430388 
L 842.513476 403.836908 
L 847.611695 404.692906 
L 852.709913 405.193969 
L 857.808132 420.348602 
L 862.90635 369.567929 
L 868.004568 323.11381 
L 873.102787 319.393741 
L 878.201005 318.862609 
L 883.299223 302.281983 
L 888.397442 289.482353 
L 893.49566 322.624972 
L 898.593878 319.952545 
L 903.692097 338.524146 
L 908.790315 336.665783 
L 913.888534 343.323488 
L 918.986752 417.504027 
L 924.08497 428.639773 
L 934.281407 413.339541 
L 939.379625 422.041114 
L 944.477844 426.122859 
L 949.576062 396.98975 
L 954.67428 398.154684 
L 959.772499 397.909811 
L 964.870717 403.712617 
L 969.968936 388.357414 
L 975.067154 414.221819 
L 980.165372 403.246826 
L 985.263591 411.49994 
L 990.361809 387.133907 
L 995.460027 395.430906 
L 1000.558246 411.965699 
L 1005.656464 392.173124 
L 1010.754683 404.370471 
L 1015.852901 387.028349 
L 1020.951119 370.535721 
L 1026.049338 394.453685 
L 1031.147556 391.776438 
L 1036.245774 421.551075 
L 1041.343993 420.443108 
L 1046.442211 420.601639 
L 1051.540429 421.241608 
L 1056.638648 419.245033 
L 1061.736866 384.310171 
L 1066.835085 386.540859 
L 1071.933303 386.507523 
L 1077.031521 394.344687 
L 1082.12974 385.355216 
L 1087.227958 392.662189 
L 1092.326176 412.35018 
L 1097.424395 401.662452 
L 1102.522613 400.31302 
L 1107.620831 401.877593 
L 1112.71905 416.619721 
L 1117.817268 394.816061 
L 1122.915487 403.034574 
L 1128.013705 403.543796 
L 1133.111923 410.088705 
L 1138.210142 411.902858 
L 1143.30836 410.390642 
L 1148.406578 390.268961 
L 1153.504797 377.207676 
L 1158.603015 377.067386 
L 1163.701233 335.18713 
L 1168.799452 387.156629 
L 1173.89767 437.717647 
L 1178.995889 431.361587 
L 1184.094107 426.793907 
L 1189.192325 426.747296 
L 1194.290544 428.030219 
L 1199.388762 386.7603 
L 1204.48698 393.402781 
L 1209.585199 393.640319 
L 1214.683417 393.730945 
L 1219.781635 395.254263 
L 1224.879854 394.783927 
L 1229.978072 408.834541 
L 1235.076291 393.835335 
L 1240.174509 418.571437 
L 1245.272727 418.673229 
L 1245.272727 418.673229 
" style="fill:none;stroke:#000000;stroke-linecap:square;stroke-width:4;"/>
   </g>
   <g id="line2d_40">
    <path clip-path="url(#p8da59b1e2c)" d="M 230.727273 389.780031 
L 235.825491 391.822197 
L 240.923709 389.780031 
L 251.120146 391.822197 
L 256.218365 388.758948 
L 261.316583 389.780031 
L 266.414801 389.780031 
L 271.51302 391.822197 
L 281.709456 389.780031 
L 286.807675 393.864362 
L 291.905893 390.801114 
L 297.004111 391.822197 
L 302.10233 385.695699 
L 307.200548 393.864362 
L 317.396985 389.780031 
L 322.495203 389.780031 
L 327.593422 390.801114 
L 353.084513 390.801114 
L 358.182732 389.780031 
L 363.28095 389.780031 
L 368.379169 391.822197 
L 373.477387 391.822197 
L 378.575605 390.801114 
L 383.673824 390.801114 
L 388.772042 391.822197 
L 393.87026 389.780031 
L 398.968479 390.801114 
L 404.066697 390.801114 
L 409.164915 391.822197 
L 414.263134 387.737865 
L 419.361352 393.864362 
L 424.459571 389.780031 
L 429.557789 390.801114 
L 434.656007 388.758948 
L 439.754226 393.864362 
L 449.950662 389.780031 
L 455.048881 390.801114 
L 460.147099 389.780031 
L 470.343536 391.822197 
L 475.441754 389.780031 
L 480.539973 390.801114 
L 526.423938 390.801114 
L 531.522156 388.758948 
L 536.620375 389.780031 
L 541.718593 389.780031 
L 546.816811 392.843279 
L 551.91503 389.780031 
L 557.013248 390.801114 
L 562.111466 388.758948 
L 567.209685 392.843279 
L 572.307903 389.780031 
L 577.406122 390.801114 
L 587.602558 390.801114 
L 592.700777 391.822197 
L 597.798995 391.822197 
L 602.897213 389.780031 
L 607.995432 391.822197 
L 618.191868 389.780031 
L 623.290087 391.822197 
L 628.388305 389.780031 
L 633.486524 391.822197 
L 638.584742 389.780031 
L 648.781179 391.822197 
L 653.879397 391.822197 
L 658.977615 390.801114 
L 669.174052 390.801114 
L 674.27227 389.780031 
L 679.370489 391.822197 
L 684.468707 391.822197 
L 689.566926 390.801114 
L 725.254454 390.801114 
L 730.352672 391.822197 
L 735.450891 391.822197 
L 740.549109 390.801114 
L 745.647328 390.801114 
L 750.745546 389.780031 
L 755.843764 392.843279 
L 760.941983 390.801114 
L 766.040201 391.822197 
L 771.138419 389.780031 
L 776.236638 391.822197 
L 781.334856 389.780031 
L 786.433074 390.801114 
L 791.531293 390.801114 
L 796.629511 389.780031 
L 801.72773 390.801114 
L 806.825948 389.780031 
L 811.924166 386.716782 
L 817.022385 393.864362 
L 827.218821 389.780031 
L 832.31704 390.801114 
L 847.611695 390.801114 
L 852.709913 392.843279 
L 857.808132 386.716782 
L 862.90635 396.927611 
L 868.004568 389.780031 
L 873.102787 391.822197 
L 878.201005 390.801114 
L 883.299223 390.801114 
L 888.397442 392.843279 
L 893.49566 388.758948 
L 898.593878 391.822197 
L 903.692097 388.758948 
L 908.790315 389.780031 
L 913.888534 391.822197 
L 924.08497 389.780031 
L 929.183189 389.780031 
L 934.281407 391.822197 
L 939.379625 392.843279 
L 944.477844 388.758948 
L 949.576062 390.801114 
L 954.67428 390.801114 
L 959.772499 391.822197 
L 964.870717 388.758948 
L 969.968936 391.822197 
L 975.067154 389.780031 
L 980.165372 391.822197 
L 985.263591 387.737865 
L 990.361809 391.822197 
L 995.460027 392.843279 
L 1000.558246 389.780031 
L 1005.656464 391.822197 
L 1010.754683 388.758948 
L 1015.852901 388.758948 
L 1020.951119 393.864362 
L 1026.049338 389.780031 
L 1031.147556 390.801114 
L 1046.442211 390.801114 
L 1051.540429 392.843279 
L 1056.638648 390.801114 
L 1066.835085 390.801114 
L 1071.933303 391.822197 
L 1077.031521 389.780031 
L 1087.227958 391.822197 
L 1092.326176 389.780031 
L 1097.424395 390.801114 
L 1102.522613 390.801114 
L 1107.620831 392.843279 
L 1112.71905 387.737865 
L 1117.817268 391.822197 
L 1122.915487 390.801114 
L 1128.013705 391.822197 
L 1133.111923 390.801114 
L 1138.210142 390.801114 
L 1143.30836 391.822197 
L 1148.406578 388.758948 
L 1153.504797 390.801114 
L 1158.603015 385.695699 
L 1163.701233 393.864362 
L 1168.799452 390.801114 
L 1224.879854 390.801114 
L 1229.978072 387.737865 
L 1235.076291 393.864362 
L 1240.174509 390.801114 
L 1245.272727 388.758948 
L 1245.272727 388.758948 
" style="fill:none;stroke:#ff0000;stroke-linecap:square;stroke-width:1.5;"/>
   </g>
   <g id="patch_9">
    <path d="M 180 445.129412 
L 180 282.070588 
" style="fill:none;stroke:#000000;stroke-linecap:square;stroke-linejoin:miter;stroke-width:0.8;"/>
   </g>
   <g id="patch_10">
    <path d="M 1296 445.129412 
L 1296 282.070588 
" style="fill:none;stroke:#000000;stroke-linecap:square;stroke-linejoin:miter;stroke-width:0.8;"/>
   </g>
   <g id="patch_11">
    <path d="M 180 445.129412 
L 1296 445.129412 
" style="fill:none;stroke:#000000;stroke-linecap:square;stroke-linejoin:miter;stroke-width:0.8;"/>
   </g>
   <g id="patch_12">
    <path d="M 180 282.070588 
L 1296 282.070588 
" style="fill:none;stroke:#000000;stroke-linecap:square;stroke-linejoin:miter;stroke-width:0.8;"/>
   </g>
   <g id="legend_2">
    <g id="patch_13">
     <path d="M 1234.3125 319.426838 
L 1289 319.426838 
Q 1291 319.426838 1291 317.426838 
L 1291 289.070588 
Q 1291 287.070588 1289 287.070588 
L 1234.3125 287.070588 
Q 1232.3125 287.070588 1232.3125 289.070588 
L 1232.3125 317.426838 
Q 1232.3125 319.426838 1234.3125 319.426838 
z
" style="fill:#ffffff;opacity:0.8;stroke:#cccccc;stroke-linejoin:miter;"/>
    </g>
    <g id="line2d_41">
     <path d="M 1236.3125 295.169026 
L 1256.3125 295.169026 
" style="fill:none;stroke:#000000;stroke-linecap:square;stroke-width:4;"/>
    </g>
    <g id="line2d_42"/>
    <g id="text_37">
     <!-- Pred -->
     <g transform="translate(1264.3125 298.669026)scale(0.1 -0.1)">
      <use xlink:href="#DejaVuSans-50"/>
      <use x="60.287109" xlink:href="#DejaVuSans-72"/>
      <use x="101.369141" xlink:href="#DejaVuSans-65"/>
      <use x="162.892578" xlink:href="#DejaVuSans-64"/>
     </g>
    </g>
    <g id="line2d_43">
     <path d="M 1236.3125 309.847151 
L 1256.3125 309.847151 
" style="fill:none;stroke:#ff0000;stroke-linecap:square;stroke-width:1.5;"/>
    </g>
    <g id="line2d_44"/>
    <g id="text_38">
     <!-- True -->
     <g transform="translate(1264.3125 313.347151)scale(0.1 -0.1)">
      <use xlink:href="#DejaVuSans-54"/>
      <use x="60.865234" xlink:href="#DejaVuSans-72"/>
      <use x="101.978516" xlink:href="#DejaVuSans-75"/>
      <use x="165.357422" xlink:href="#DejaVuSans-65"/>
     </g>
    </g>
   </g>
  </g>
  <g id="axes_3">
   <g id="patch_14">
    <path d="M 180 640.8 
L 1296 640.8 
L 1296 477.741176 
L 180 477.741176 
z
" style="fill:#ffffff;"/>
   </g>
   <g id="matplotlib.axis_5">
    <g id="xtick_19">
     <g id="line2d_45">
      <g>
       <use style="stroke:#000000;stroke-width:0.8;" x="225.629054" xlink:href="#m0fe0139806" y="640.8"/>
      </g>
     </g>
     <g id="text_39">
      <!-- 0 -->
      <g transform="translate(222.447804 655.398438)scale(0.1 -0.1)">
       <use xlink:href="#DejaVuSans-30"/>
      </g>
     </g>
    </g>
    <g id="xtick_20">
     <g id="line2d_46">
      <g>
       <use style="stroke:#000000;stroke-width:0.8;" x="353.084513" xlink:href="#m0fe0139806" y="640.8"/>
      </g>
     </g>
     <g id="text_40">
      <!-- 500 -->
      <g transform="translate(343.540763 655.398438)scale(0.1 -0.1)">
       <use xlink:href="#DejaVuSans-35"/>
       <use x="63.623047" xlink:href="#DejaVuSans-30"/>
       <use x="127.246094" xlink:href="#DejaVuSans-30"/>
      </g>
     </g>
    </g>
    <g id="xtick_21">
     <g id="line2d_47">
      <g>
       <use style="stroke:#000000;stroke-width:0.8;" x="480.539973" xlink:href="#m0fe0139806" y="640.8"/>
      </g>
     </g>
     <g id="text_41">
      <!-- 1000 -->
      <g transform="translate(467.814973 655.398438)scale(0.1 -0.1)">
       <use xlink:href="#DejaVuSans-31"/>
       <use x="63.623047" xlink:href="#DejaVuSans-30"/>
       <use x="127.246094" xlink:href="#DejaVuSans-30"/>
       <use x="190.869141" xlink:href="#DejaVuSans-30"/>
      </g>
     </g>
    </g>
    <g id="xtick_22">
     <g id="line2d_48">
      <g>
       <use style="stroke:#000000;stroke-width:0.8;" x="607.995432" xlink:href="#m0fe0139806" y="640.8"/>
      </g>
     </g>
     <g id="text_42">
      <!-- 1500 -->
      <g transform="translate(595.270432 655.398438)scale(0.1 -0.1)">
       <use xlink:href="#DejaVuSans-31"/>
       <use x="63.623047" xlink:href="#DejaVuSans-35"/>
       <use x="127.246094" xlink:href="#DejaVuSans-30"/>
       <use x="190.869141" xlink:href="#DejaVuSans-30"/>
      </g>
     </g>
    </g>
    <g id="xtick_23">
     <g id="line2d_49">
      <g>
       <use style="stroke:#000000;stroke-width:0.8;" x="735.450891" xlink:href="#m0fe0139806" y="640.8"/>
      </g>
     </g>
     <g id="text_43">
      <!-- 2000 -->
      <g transform="translate(722.725891 655.398438)scale(0.1 -0.1)">
       <use xlink:href="#DejaVuSans-32"/>
       <use x="63.623047" xlink:href="#DejaVuSans-30"/>
       <use x="127.246094" xlink:href="#DejaVuSans-30"/>
       <use x="190.869141" xlink:href="#DejaVuSans-30"/>
      </g>
     </g>
    </g>
    <g id="xtick_24">
     <g id="line2d_50">
      <g>
       <use style="stroke:#000000;stroke-width:0.8;" x="862.90635" xlink:href="#m0fe0139806" y="640.8"/>
      </g>
     </g>
     <g id="text_44">
      <!-- 2500 -->
      <g transform="translate(850.18135 655.398438)scale(0.1 -0.1)">
       <use xlink:href="#DejaVuSans-32"/>
       <use x="63.623047" xlink:href="#DejaVuSans-35"/>
       <use x="127.246094" xlink:href="#DejaVuSans-30"/>
       <use x="190.869141" xlink:href="#DejaVuSans-30"/>
      </g>
     </g>
    </g>
    <g id="xtick_25">
     <g id="line2d_51">
      <g>
       <use style="stroke:#000000;stroke-width:0.8;" x="990.361809" xlink:href="#m0fe0139806" y="640.8"/>
      </g>
     </g>
     <g id="text_45">
      <!-- 3000 -->
      <g transform="translate(977.636809 655.398438)scale(0.1 -0.1)">
       <use xlink:href="#DejaVuSans-33"/>
       <use x="63.623047" xlink:href="#DejaVuSans-30"/>
       <use x="127.246094" xlink:href="#DejaVuSans-30"/>
       <use x="190.869141" xlink:href="#DejaVuSans-30"/>
      </g>
     </g>
    </g>
    <g id="xtick_26">
     <g id="line2d_52">
      <g>
       <use style="stroke:#000000;stroke-width:0.8;" x="1117.817268" xlink:href="#m0fe0139806" y="640.8"/>
      </g>
     </g>
     <g id="text_46">
      <!-- 3500 -->
      <g transform="translate(1105.092268 655.398438)scale(0.1 -0.1)">
       <use xlink:href="#DejaVuSans-33"/>
       <use x="63.623047" xlink:href="#DejaVuSans-35"/>
       <use x="127.246094" xlink:href="#DejaVuSans-30"/>
       <use x="190.869141" xlink:href="#DejaVuSans-30"/>
      </g>
     </g>
    </g>
    <g id="xtick_27">
     <g id="line2d_53">
      <g>
       <use style="stroke:#000000;stroke-width:0.8;" x="1245.272727" xlink:href="#m0fe0139806" y="640.8"/>
      </g>
     </g>
     <g id="text_47">
      <!-- 4000 -->
      <g transform="translate(1232.547727 655.398438)scale(0.1 -0.1)">
       <use xlink:href="#DejaVuSans-34"/>
       <use x="63.623047" xlink:href="#DejaVuSans-30"/>
       <use x="127.246094" xlink:href="#DejaVuSans-30"/>
       <use x="190.869141" xlink:href="#DejaVuSans-30"/>
      </g>
     </g>
    </g>
    <g id="text_48">
     <!-- Time -->
     <defs>
      <path d="M 9.421875 54.6875 
L 18.40625 54.6875 
L 18.40625 0 
L 9.421875 0 
z
M 9.421875 75.984375 
L 18.40625 75.984375 
L 18.40625 64.59375 
L 9.421875 64.59375 
z
" id="DejaVuSans-69"/>
      <path d="M 52 44.1875 
Q 55.375 50.25 60.0625 53.125 
Q 64.75 56 71.09375 56 
Q 79.640625 56 84.28125 50.015625 
Q 88.921875 44.046875 88.921875 33.015625 
L 88.921875 0 
L 79.890625 0 
L 79.890625 32.71875 
Q 79.890625 40.578125 77.09375 44.375 
Q 74.3125 48.1875 68.609375 48.1875 
Q 61.625 48.1875 57.5625 43.546875 
Q 53.515625 38.921875 53.515625 30.90625 
L 53.515625 0 
L 44.484375 0 
L 44.484375 32.71875 
Q 44.484375 40.625 41.703125 44.40625 
Q 38.921875 48.1875 33.109375 48.1875 
Q 26.21875 48.1875 22.15625 43.53125 
Q 18.109375 38.875 18.109375 30.90625 
L 18.109375 0 
L 9.078125 0 
L 9.078125 54.6875 
L 18.109375 54.6875 
L 18.109375 46.1875 
Q 21.1875 51.21875 25.484375 53.609375 
Q 29.78125 56 35.6875 56 
Q 41.65625 56 45.828125 52.96875 
Q 50 49.953125 52 44.1875 
z
" id="DejaVuSans-6d"/>
     </defs>
     <g transform="translate(725.6125 669.076563)scale(0.1 -0.1)">
      <use xlink:href="#DejaVuSans-54"/>
      <use x="61.037109" xlink:href="#DejaVuSans-69"/>
      <use x="88.820312" xlink:href="#DejaVuSans-6d"/>
      <use x="186.232422" xlink:href="#DejaVuSans-65"/>
     </g>
    </g>
   </g>
   <g id="matplotlib.axis_6">
    <g id="ytick_15">
     <g id="line2d_54">
      <g>
       <use style="stroke:#000000;stroke-width:0.8;" x="180" xlink:href="#m51bb2d3dad" y="618.247189"/>
      </g>
     </g>
     <g id="text_49">
      <!-- −2 -->
      <g transform="translate(158.257812 622.046408)scale(0.1 -0.1)">
       <use xlink:href="#DejaVuSans-2212"/>
       <use x="83.789062" xlink:href="#DejaVuSans-32"/>
      </g>
     </g>
    </g>
    <g id="ytick_16">
     <g id="line2d_55">
      <g>
       <use style="stroke:#000000;stroke-width:0.8;" x="180" xlink:href="#m51bb2d3dad" y="591.045324"/>
      </g>
     </g>
     <g id="text_50">
      <!-- −1 -->
      <g transform="translate(158.257812 594.844543)scale(0.1 -0.1)">
       <use xlink:href="#DejaVuSans-2212"/>
       <use x="83.789062" xlink:href="#DejaVuSans-31"/>
      </g>
     </g>
    </g>
    <g id="ytick_17">
     <g id="line2d_56">
      <g>
       <use style="stroke:#000000;stroke-width:0.8;" x="180" xlink:href="#m51bb2d3dad" y="563.843458"/>
      </g>
     </g>
     <g id="text_51">
      <!-- 0 -->
      <g transform="translate(166.6375 567.642677)scale(0.1 -0.1)">
       <use xlink:href="#DejaVuSans-30"/>
      </g>
     </g>
    </g>
    <g id="ytick_18">
     <g id="line2d_57">
      <g>
       <use style="stroke:#000000;stroke-width:0.8;" x="180" xlink:href="#m51bb2d3dad" y="536.641593"/>
      </g>
     </g>
     <g id="text_52">
      <!-- 1 -->
      <g transform="translate(166.6375 540.440812)scale(0.1 -0.1)">
       <use xlink:href="#DejaVuSans-31"/>
      </g>
     </g>
    </g>
    <g id="ytick_19">
     <g id="line2d_58">
      <g>
       <use style="stroke:#000000;stroke-width:0.8;" x="180" xlink:href="#m51bb2d3dad" y="509.439728"/>
      </g>
     </g>
     <g id="text_53">
      <!-- 2 -->
      <g transform="translate(166.6375 513.238946)scale(0.1 -0.1)">
       <use xlink:href="#DejaVuSans-32"/>
      </g>
     </g>
    </g>
    <g id="ytick_20">
     <g id="line2d_59">
      <g>
       <use style="stroke:#000000;stroke-width:0.8;" x="180" xlink:href="#m51bb2d3dad" y="482.237862"/>
      </g>
     </g>
     <g id="text_54">
      <!-- 3 -->
      <g transform="translate(166.6375 486.037081)scale(0.1 -0.1)">
       <use xlink:href="#DejaVuSans-33"/>
      </g>
     </g>
    </g>
    <g id="text_55">
     <!-- Control Input -->
     <defs>
      <path d="M 64.40625 67.28125 
L 64.40625 56.890625 
Q 59.421875 61.53125 53.78125 63.8125 
Q 48.140625 66.109375 41.796875 66.109375 
Q 29.296875 66.109375 22.65625 58.46875 
Q 16.015625 50.828125 16.015625 36.375 
Q 16.015625 21.96875 22.65625 14.328125 
Q 29.296875 6.6875 41.796875 6.6875 
Q 48.140625 6.6875 53.78125 8.984375 
Q 59.421875 11.28125 64.40625 15.921875 
L 64.40625 5.609375 
Q 59.234375 2.09375 53.4375 0.328125 
Q 47.65625 -1.421875 41.21875 -1.421875 
Q 24.65625 -1.421875 15.125 8.703125 
Q 5.609375 18.84375 5.609375 36.375 
Q 5.609375 53.953125 15.125 64.078125 
Q 24.65625 74.21875 41.21875 74.21875 
Q 47.75 74.21875 53.53125 72.484375 
Q 59.328125 70.75 64.40625 67.28125 
z
" id="DejaVuSans-43"/>
      <path d="M 30.609375 48.390625 
Q 23.390625 48.390625 19.1875 42.75 
Q 14.984375 37.109375 14.984375 27.296875 
Q 14.984375 17.484375 19.15625 11.84375 
Q 23.34375 6.203125 30.609375 6.203125 
Q 37.796875 6.203125 41.984375 11.859375 
Q 46.1875 17.53125 46.1875 27.296875 
Q 46.1875 37.015625 41.984375 42.703125 
Q 37.796875 48.390625 30.609375 48.390625 
z
M 30.609375 56 
Q 42.328125 56 49.015625 48.375 
Q 55.71875 40.765625 55.71875 27.296875 
Q 55.71875 13.875 49.015625 6.21875 
Q 42.328125 -1.421875 30.609375 -1.421875 
Q 18.84375 -1.421875 12.171875 6.21875 
Q 5.515625 13.875 5.515625 27.296875 
Q 5.515625 40.765625 12.171875 48.375 
Q 18.84375 56 30.609375 56 
z
" id="DejaVuSans-6f"/>
      <path d="M 54.890625 33.015625 
L 54.890625 0 
L 45.90625 0 
L 45.90625 32.71875 
Q 45.90625 40.484375 42.875 44.328125 
Q 39.84375 48.1875 33.796875 48.1875 
Q 26.515625 48.1875 22.3125 43.546875 
Q 18.109375 38.921875 18.109375 30.90625 
L 18.109375 0 
L 9.078125 0 
L 9.078125 54.6875 
L 18.109375 54.6875 
L 18.109375 46.1875 
Q 21.34375 51.125 25.703125 53.5625 
Q 30.078125 56 35.796875 56 
Q 45.21875 56 50.046875 50.171875 
Q 54.890625 44.34375 54.890625 33.015625 
z
" id="DejaVuSans-6e"/>
      <path d="M 9.421875 75.984375 
L 18.40625 75.984375 
L 18.40625 0 
L 9.421875 0 
z
" id="DejaVuSans-6c"/>
      <path d="M 9.8125 72.90625 
L 19.671875 72.90625 
L 19.671875 0 
L 9.8125 0 
z
" id="DejaVuSans-49"/>
      <path d="M 18.109375 8.203125 
L 18.109375 -20.796875 
L 9.078125 -20.796875 
L 9.078125 54.6875 
L 18.109375 54.6875 
L 18.109375 46.390625 
Q 20.953125 51.265625 25.265625 53.625 
Q 29.59375 56 35.59375 56 
Q 45.5625 56 51.78125 48.09375 
Q 58.015625 40.1875 58.015625 27.296875 
Q 58.015625 14.40625 51.78125 6.484375 
Q 45.5625 -1.421875 35.59375 -1.421875 
Q 29.59375 -1.421875 25.265625 0.953125 
Q 20.953125 3.328125 18.109375 8.203125 
z
M 48.6875 27.296875 
Q 48.6875 37.203125 44.609375 42.84375 
Q 40.53125 48.484375 33.40625 48.484375 
Q 26.265625 48.484375 22.1875 42.84375 
Q 18.109375 37.203125 18.109375 27.296875 
Q 18.109375 17.390625 22.1875 11.75 
Q 26.265625 6.109375 33.40625 6.109375 
Q 40.53125 6.109375 44.609375 11.75 
Q 48.6875 17.390625 48.6875 27.296875 
z
" id="DejaVuSans-70"/>
     </defs>
     <g transform="translate(152.178125 591.988557)rotate(-90)scale(0.1 -0.1)">
      <use xlink:href="#DejaVuSans-43"/>
      <use x="69.824219" xlink:href="#DejaVuSans-6f"/>
      <use x="131.005859" xlink:href="#DejaVuSans-6e"/>
      <use x="194.384766" xlink:href="#DejaVuSans-74"/>
      <use x="233.59375" xlink:href="#DejaVuSans-72"/>
      <use x="274.675781" xlink:href="#DejaVuSans-6f"/>
      <use x="335.857422" xlink:href="#DejaVuSans-6c"/>
      <use x="363.640625" xlink:href="#DejaVuSans-20"/>
      <use x="395.427734" xlink:href="#DejaVuSans-49"/>
      <use x="424.919922" xlink:href="#DejaVuSans-6e"/>
      <use x="488.298828" xlink:href="#DejaVuSans-70"/>
      <use x="551.775391" xlink:href="#DejaVuSans-75"/>
      <use x="615.154297" xlink:href="#DejaVuSans-74"/>
     </g>
    </g>
   </g>
   <g id="line2d_60">
    <path clip-path="url(#pdb03563966)" d="M 230.727273 535.294929 
L 235.825491 535.442225 
L 240.923709 536.619198 
L 251.120146 535.563564 
L 256.218365 532.380916 
L 261.316583 533.558231 
L 266.414801 530.594765 
L 271.51302 545.755976 
L 276.611238 596.903014 
L 281.709456 594.905819 
L 286.807675 596.392243 
L 291.905893 596.696444 
L 297.004111 569.83103 
L 302.10233 500.625164 
L 307.200548 501.492658 
L 312.298767 503.545016 
L 317.396985 501.387452 
L 322.495203 500.890323 
L 327.593422 587.667806 
L 332.69164 589.624294 
L 337.789858 590.203611 
L 342.888077 591.345138 
L 347.986295 591.696063 
L 353.084513 592.318902 
L 358.182732 598.721818 
L 363.28095 606.82535 
L 368.379169 609.882434 
L 373.477387 610.139786 
L 378.575605 610.585339 
L 383.673824 574.76823 
L 388.772042 491.251401 
L 393.87026 500.167002 
L 398.968479 503.701043 
L 404.066697 505.065564 
L 409.164915 542.744827 
L 414.263134 588.179793 
L 419.361352 575.431854 
L 424.459571 575.376509 
L 429.557789 577.966549 
L 434.656007 578.990416 
L 439.754226 544.402865 
L 444.852444 524.107483 
L 449.950662 525.049738 
L 455.048881 524.421526 
L 460.147099 524.035121 
L 465.245317 525.673532 
L 470.343536 581.618953 
L 475.441754 579.33767 
L 485.638191 579.953897 
L 490.736409 580.475183 
L 495.834628 568.937174 
L 500.932846 555.612848 
L 506.031064 556.563569 
L 516.227501 556.265089 
L 521.32572 562.869304 
L 526.423938 615.042623 
L 531.522156 612.428198 
L 536.620375 612.691025 
L 541.718593 614.101395 
L 546.816811 615.014567 
L 551.91503 615.257489 
L 557.013248 611.355344 
L 562.111466 612.13506 
L 567.209685 615.089712 
L 572.307903 615.628891 
L 577.406122 615.717453 
L 582.50434 621.973309 
L 587.602558 624.541562 
L 592.700777 621.960453 
L 597.798995 622.278864 
L 602.897213 622.276827 
L 607.995432 574.753934 
L 613.09365 563.129316 
L 618.191868 562.334609 
L 623.290087 561.241954 
L 628.388305 560.927353 
L 633.486524 573.983737 
L 638.584742 617.74752 
L 643.68296 606.901182 
L 648.781179 607.177307 
L 653.879397 607.175978 
L 658.977615 607.371912 
L 664.075834 551.772555 
L 669.174052 548.672039 
L 674.27227 548.252993 
L 679.370489 547.609917 
L 684.468707 546.510105 
L 689.566926 543.028411 
L 694.665144 550.57594 
L 699.763362 554.553306 
L 704.861581 553.669572 
L 709.959799 553.190907 
L 720.156236 552.932674 
L 725.254454 523.934458 
L 730.352672 525.675659 
L 735.450891 525.821166 
L 740.549109 525.492262 
L 745.647328 524.630552 
L 750.745546 549.921787 
L 755.843764 542.86686 
L 760.941983 538.877079 
L 766.040201 539.242896 
L 771.138419 538.721841 
L 776.236638 537.773802 
L 781.334856 491.658086 
L 786.433074 492.352374 
L 791.531293 492.782473 
L 796.629511 491.121036 
L 801.72773 487.507833 
L 806.825948 596.128018 
L 811.924166 575.460719 
L 817.022385 576.134999 
L 822.120603 577.036627 
L 827.218821 579.738175 
L 832.31704 581.198426 
L 837.415258 582.101073 
L 842.513476 582.631624 
L 852.709913 583.316872 
L 857.808132 584.098497 
L 862.90635 537.288718 
L 868.004568 485.152941 
L 873.102787 493.170918 
L 878.201005 495.12999 
L 883.299223 493.136827 
L 888.397442 490.415854 
L 893.49566 494.771704 
L 898.593878 491.778878 
L 903.692097 491.915558 
L 908.790315 488.755611 
L 913.888534 488.064549 
L 918.986752 550.899883 
L 924.08497 571.088991 
L 929.183189 572.275364 
L 939.379625 574.089708 
L 944.477844 551.866461 
L 949.576062 528.907506 
L 954.67428 531.050739 
L 959.772499 530.645118 
L 964.870717 526.353486 
L 969.968936 528.286937 
L 975.067154 560.248485 
L 980.165372 555.26261 
L 985.263591 555.382947 
L 990.361809 555.825934 
L 1000.558246 556.243423 
L 1005.656464 535.315405 
L 1010.754683 542.566603 
L 1015.852901 540.88906 
L 1020.951119 540.710561 
L 1026.049338 539.457089 
L 1031.147556 549.455333 
L 1036.245774 603.288263 
L 1041.343993 601.284911 
L 1046.442211 601.571663 
L 1051.540429 602.728628 
L 1056.638648 569.478755 
L 1061.736866 506.35291 
L 1066.835085 510.423094 
L 1071.933303 510.399821 
L 1077.031521 509.786408 
L 1082.12974 508.408817 
L 1087.227958 521.657126 
L 1092.326176 542.470133 
L 1097.424395 538.022139 
L 1102.522613 535.619528 
L 1107.620831 538.485256 
L 1112.71905 535.535988 
L 1117.817268 540.649307 
L 1122.915487 540.706781 
L 1128.013705 541.664455 
L 1133.111923 538.714521 
L 1138.210142 542.050073 
L 1143.30836 539.371905 
L 1148.406578 488.226603 
L 1153.504797 494.32619 
L 1158.603015 494.109551 
L 1163.701233 492.527062 
L 1168.799452 541.972555 
L 1173.89767 633.388235 
L 1178.995889 621.895583 
L 1184.094107 613.637582 
L 1189.192325 613.553142 
L 1194.290544 615.873006 
L 1199.388762 541.255947 
L 1204.48698 553.265846 
L 1209.585199 553.695185 
L 1214.683417 553.85914 
L 1219.781635 556.613127 
L 1224.879854 555.762934 
L 1229.978072 581.166684 
L 1235.076291 598.508564 
L 1245.272727 598.899424 
L 1245.272727 598.899424 
" style="fill:none;stroke:#ff0000;stroke-linecap:square;stroke-width:1.5;"/>
   </g>
   <g id="patch_15">
    <path d="M 180 640.8 
L 180 477.741176 
" style="fill:none;stroke:#000000;stroke-linecap:square;stroke-linejoin:miter;stroke-width:0.8;"/>
   </g>
   <g id="patch_16">
    <path d="M 1296 640.8 
L 1296 477.741176 
" style="fill:none;stroke:#000000;stroke-linecap:square;stroke-linejoin:miter;stroke-width:0.8;"/>
   </g>
   <g id="patch_17">
    <path d="M 180 640.8 
L 1296 640.8 
" style="fill:none;stroke:#000000;stroke-linecap:square;stroke-linejoin:miter;stroke-width:0.8;"/>
   </g>
   <g id="patch_18">
    <path d="M 180 477.741176 
L 1296 477.741176 
" style="fill:none;stroke:#000000;stroke-linecap:square;stroke-linejoin:miter;stroke-width:0.8;"/>
   </g>
   <g id="legend_3">
    <g id="patch_19">
     <path d="M 1194.742188 500.419301 
L 1289 500.419301 
Q 1291 500.419301 1291 498.419301 
L 1291 484.741176 
Q 1291 482.741176 1289 482.741176 
L 1194.742188 482.741176 
Q 1192.742188 482.741176 1192.742188 484.741176 
L 1192.742188 498.419301 
Q 1192.742188 500.419301 1194.742188 500.419301 
z
" style="fill:#ffffff;opacity:0.8;stroke:#cccccc;stroke-linejoin:miter;"/>
    </g>
    <g id="line2d_61">
     <path d="M 1196.742188 490.839614 
L 1216.742188 490.839614 
" style="fill:none;stroke:#ff0000;stroke-linecap:square;stroke-width:1.5;"/>
    </g>
    <g id="line2d_62"/>
    <g id="text_56">
     <!-- ControlInput -->
     <g transform="translate(1224.742188 494.339614)scale(0.1 -0.1)">
      <use xlink:href="#DejaVuSans-43"/>
      <use x="69.824219" xlink:href="#DejaVuSans-6f"/>
      <use x="131.005859" xlink:href="#DejaVuSans-6e"/>
      <use x="194.384766" xlink:href="#DejaVuSans-74"/>
      <use x="233.59375" xlink:href="#DejaVuSans-72"/>
      <use x="274.675781" xlink:href="#DejaVuSans-6f"/>
      <use x="335.857422" xlink:href="#DejaVuSans-6c"/>
      <use x="363.640625" xlink:href="#DejaVuSans-49"/>
      <use x="393.132812" xlink:href="#DejaVuSans-6e"/>
      <use x="456.511719" xlink:href="#DejaVuSans-70"/>
      <use x="519.988281" xlink:href="#DejaVuSans-75"/>
      <use x="583.367188" xlink:href="#DejaVuSans-74"/>
     </g>
    </g>
   </g>
  </g>
 </g>
 <defs>
  <clipPath id="p0c17dd81c1">
   <rect height="163.058824" width="1116" x="180" y="86.4"/>
  </clipPath>
  <clipPath id="p8da59b1e2c">
   <rect height="163.058824" width="1116" x="180" y="282.070588"/>
  </clipPath>
  <clipPath id="pdb03563966">
   <rect height="163.058824" width="1116" x="180" y="477.741176"/>
  </clipPath>
 </defs>
</svg>
