<?xml version="1.0" encoding="utf-8" standalone="no"?>
<!DOCTYPE svg PUBLIC "-//W3C//DTD SVG 1.1//EN"
  "http://www.w3.org/Graphics/SVG/1.1/DTD/svg11.dtd">
<!-- Created with matplotlib (http://matplotlib.org/) -->
<svg height="720pt" version="1.1" viewBox="0 0 1440 720" width="1440pt" xmlns="http://www.w3.org/2000/svg" xmlns:xlink="http://www.w3.org/1999/xlink">
 <defs>
  <style type="text/css">
*{stroke-linecap:butt;stroke-linejoin:round;}
  </style>
 </defs>
 <g id="figure_1">
  <g id="patch_1">
   <path d="M 0 720 
L 1440 720 
L 1440 0 
L 0 0 
z
" style="fill:#ffffff;"/>
  </g>
  <g id="axes_1">
   <g id="patch_2">
    <path d="M 180 249.458824 
L 1296 249.458824 
L 1296 86.4 
L 180 86.4 
z
" style="fill:#ffffff;"/>
   </g>
   <g id="matplotlib.axis_1">
    <g id="xtick_1">
     <g id="line2d_1">
      <defs>
       <path d="M 0 0 
L 0 3.5 
" id="m53629918e6" style="stroke:#000000;stroke-width:0.8;"/>
      </defs>
      <g>
       <use style="stroke:#000000;stroke-width:0.8;" x="225.629054" xlink:href="#m53629918e6" y="249.458824"/>
      </g>
     </g>
     <g id="text_1">
      <!-- 0 -->
      <defs>
       <path d="M 31.78125 66.40625 
Q 24.171875 66.40625 20.328125 58.90625 
Q 16.5 51.421875 16.5 36.375 
Q 16.5 21.390625 20.328125 13.890625 
Q 24.171875 6.390625 31.78125 6.390625 
Q 39.453125 6.390625 43.28125 13.890625 
Q 47.125 21.390625 47.125 36.375 
Q 47.125 51.421875 43.28125 58.90625 
Q 39.453125 66.40625 31.78125 66.40625 
z
M 31.78125 74.21875 
Q 44.046875 74.21875 50.515625 64.515625 
Q 56.984375 54.828125 56.984375 36.375 
Q 56.984375 17.96875 50.515625 8.265625 
Q 44.046875 -1.421875 31.78125 -1.421875 
Q 19.53125 -1.421875 13.0625 8.265625 
Q 6.59375 17.96875 6.59375 36.375 
Q 6.59375 54.828125 13.0625 64.515625 
Q 19.53125 74.21875 31.78125 74.21875 
z
" id="DejaVuSans-30"/>
      </defs>
      <g transform="translate(222.447804 264.057261)scale(0.1 -0.1)">
       <use xlink:href="#DejaVuSans-30"/>
      </g>
     </g>
    </g>
    <g id="xtick_2">
     <g id="line2d_2">
      <g>
       <use style="stroke:#000000;stroke-width:0.8;" x="353.084513" xlink:href="#m53629918e6" y="249.458824"/>
      </g>
     </g>
     <g id="text_2">
      <!-- 500 -->
      <defs>
       <path d="M 10.796875 72.90625 
L 49.515625 72.90625 
L 49.515625 64.59375 
L 19.828125 64.59375 
L 19.828125 46.734375 
Q 21.96875 47.46875 24.109375 47.828125 
Q 26.265625 48.1875 28.421875 48.1875 
Q 40.625 48.1875 47.75 41.5 
Q 54.890625 34.8125 54.890625 23.390625 
Q 54.890625 11.625 47.5625 5.09375 
Q 40.234375 -1.421875 26.90625 -1.421875 
Q 22.3125 -1.421875 17.546875 -0.640625 
Q 12.796875 0.140625 7.71875 1.703125 
L 7.71875 11.625 
Q 12.109375 9.234375 16.796875 8.0625 
Q 21.484375 6.890625 26.703125 6.890625 
Q 35.15625 6.890625 40.078125 11.328125 
Q 45.015625 15.765625 45.015625 23.390625 
Q 45.015625 31 40.078125 35.4375 
Q 35.15625 39.890625 26.703125 39.890625 
Q 22.75 39.890625 18.8125 39.015625 
Q 14.890625 38.140625 10.796875 36.28125 
z
" id="DejaVuSans-35"/>
      </defs>
      <g transform="translate(343.540763 264.057261)scale(0.1 -0.1)">
       <use xlink:href="#DejaVuSans-35"/>
       <use x="63.623047" xlink:href="#DejaVuSans-30"/>
       <use x="127.246094" xlink:href="#DejaVuSans-30"/>
      </g>
     </g>
    </g>
    <g id="xtick_3">
     <g id="line2d_3">
      <g>
       <use style="stroke:#000000;stroke-width:0.8;" x="480.539973" xlink:href="#m53629918e6" y="249.458824"/>
      </g>
     </g>
     <g id="text_3">
      <!-- 1000 -->
      <defs>
       <path d="M 12.40625 8.296875 
L 28.515625 8.296875 
L 28.515625 63.921875 
L 10.984375 60.40625 
L 10.984375 69.390625 
L 28.421875 72.90625 
L 38.28125 72.90625 
L 38.28125 8.296875 
L 54.390625 8.296875 
L 54.390625 0 
L 12.40625 0 
z
" id="DejaVuSans-31"/>
      </defs>
      <g transform="translate(467.814973 264.057261)scale(0.1 -0.1)">
       <use xlink:href="#DejaVuSans-31"/>
       <use x="63.623047" xlink:href="#DejaVuSans-30"/>
       <use x="127.246094" xlink:href="#DejaVuSans-30"/>
       <use x="190.869141" xlink:href="#DejaVuSans-30"/>
      </g>
     </g>
    </g>
    <g id="xtick_4">
     <g id="line2d_4">
      <g>
       <use style="stroke:#000000;stroke-width:0.8;" x="607.995432" xlink:href="#m53629918e6" y="249.458824"/>
      </g>
     </g>
     <g id="text_4">
      <!-- 1500 -->
      <g transform="translate(595.270432 264.057261)scale(0.1 -0.1)">
       <use xlink:href="#DejaVuSans-31"/>
       <use x="63.623047" xlink:href="#DejaVuSans-35"/>
       <use x="127.246094" xlink:href="#DejaVuSans-30"/>
       <use x="190.869141" xlink:href="#DejaVuSans-30"/>
      </g>
     </g>
    </g>
    <g id="xtick_5">
     <g id="line2d_5">
      <g>
       <use style="stroke:#000000;stroke-width:0.8;" x="735.450891" xlink:href="#m53629918e6" y="249.458824"/>
      </g>
     </g>
     <g id="text_5">
      <!-- 2000 -->
      <defs>
       <path d="M 19.1875 8.296875 
L 53.609375 8.296875 
L 53.609375 0 
L 7.328125 0 
L 7.328125 8.296875 
Q 12.9375 14.109375 22.625 23.890625 
Q 32.328125 33.6875 34.8125 36.53125 
Q 39.546875 41.84375 41.421875 45.53125 
Q 43.3125 49.21875 43.3125 52.78125 
Q 43.3125 58.59375 39.234375 62.25 
Q 35.15625 65.921875 28.609375 65.921875 
Q 23.96875 65.921875 18.8125 64.3125 
Q 13.671875 62.703125 7.8125 59.421875 
L 7.8125 69.390625 
Q 13.765625 71.78125 18.9375 73 
Q 24.125 74.21875 28.421875 74.21875 
Q 39.75 74.21875 46.484375 68.546875 
Q 53.21875 62.890625 53.21875 53.421875 
Q 53.21875 48.921875 51.53125 44.890625 
Q 49.859375 40.875 45.40625 35.40625 
Q 44.1875 33.984375 37.640625 27.21875 
Q 31.109375 20.453125 19.1875 8.296875 
z
" id="DejaVuSans-32"/>
      </defs>
      <g transform="translate(722.725891 264.057261)scale(0.1 -0.1)">
       <use xlink:href="#DejaVuSans-32"/>
       <use x="63.623047" xlink:href="#DejaVuSans-30"/>
       <use x="127.246094" xlink:href="#DejaVuSans-30"/>
       <use x="190.869141" xlink:href="#DejaVuSans-30"/>
      </g>
     </g>
    </g>
    <g id="xtick_6">
     <g id="line2d_6">
      <g>
       <use style="stroke:#000000;stroke-width:0.8;" x="862.90635" xlink:href="#m53629918e6" y="249.458824"/>
      </g>
     </g>
     <g id="text_6">
      <!-- 2500 -->
      <g transform="translate(850.18135 264.057261)scale(0.1 -0.1)">
       <use xlink:href="#DejaVuSans-32"/>
       <use x="63.623047" xlink:href="#DejaVuSans-35"/>
       <use x="127.246094" xlink:href="#DejaVuSans-30"/>
       <use x="190.869141" xlink:href="#DejaVuSans-30"/>
      </g>
     </g>
    </g>
    <g id="xtick_7">
     <g id="line2d_7">
      <g>
       <use style="stroke:#000000;stroke-width:0.8;" x="990.361809" xlink:href="#m53629918e6" y="249.458824"/>
      </g>
     </g>
     <g id="text_7">
      <!-- 3000 -->
      <defs>
       <path d="M 40.578125 39.3125 
Q 47.65625 37.796875 51.625 33 
Q 55.609375 28.21875 55.609375 21.1875 
Q 55.609375 10.40625 48.1875 4.484375 
Q 40.765625 -1.421875 27.09375 -1.421875 
Q 22.515625 -1.421875 17.65625 -0.515625 
Q 12.796875 0.390625 7.625 2.203125 
L 7.625 11.71875 
Q 11.71875 9.328125 16.59375 8.109375 
Q 21.484375 6.890625 26.8125 6.890625 
Q 36.078125 6.890625 40.9375 10.546875 
Q 45.796875 14.203125 45.796875 21.1875 
Q 45.796875 27.640625 41.28125 31.265625 
Q 36.765625 34.90625 28.71875 34.90625 
L 20.21875 34.90625 
L 20.21875 43.015625 
L 29.109375 43.015625 
Q 36.375 43.015625 40.234375 45.921875 
Q 44.09375 48.828125 44.09375 54.296875 
Q 44.09375 59.90625 40.109375 62.90625 
Q 36.140625 65.921875 28.71875 65.921875 
Q 24.65625 65.921875 20.015625 65.03125 
Q 15.375 64.15625 9.8125 62.3125 
L 9.8125 71.09375 
Q 15.4375 72.65625 20.34375 73.4375 
Q 25.25 74.21875 29.59375 74.21875 
Q 40.828125 74.21875 47.359375 69.109375 
Q 53.90625 64.015625 53.90625 55.328125 
Q 53.90625 49.265625 50.4375 45.09375 
Q 46.96875 40.921875 40.578125 39.3125 
z
" id="DejaVuSans-33"/>
      </defs>
      <g transform="translate(977.636809 264.057261)scale(0.1 -0.1)">
       <use xlink:href="#DejaVuSans-33"/>
       <use x="63.623047" xlink:href="#DejaVuSans-30"/>
       <use x="127.246094" xlink:href="#DejaVuSans-30"/>
       <use x="190.869141" xlink:href="#DejaVuSans-30"/>
      </g>
     </g>
    </g>
    <g id="xtick_8">
     <g id="line2d_8">
      <g>
       <use style="stroke:#000000;stroke-width:0.8;" x="1117.817268" xlink:href="#m53629918e6" y="249.458824"/>
      </g>
     </g>
     <g id="text_8">
      <!-- 3500 -->
      <g transform="translate(1105.092268 264.057261)scale(0.1 -0.1)">
       <use xlink:href="#DejaVuSans-33"/>
       <use x="63.623047" xlink:href="#DejaVuSans-35"/>
       <use x="127.246094" xlink:href="#DejaVuSans-30"/>
       <use x="190.869141" xlink:href="#DejaVuSans-30"/>
      </g>
     </g>
    </g>
    <g id="xtick_9">
     <g id="line2d_9">
      <g>
       <use style="stroke:#000000;stroke-width:0.8;" x="1245.272727" xlink:href="#m53629918e6" y="249.458824"/>
      </g>
     </g>
     <g id="text_9">
      <!-- 4000 -->
      <defs>
       <path d="M 37.796875 64.3125 
L 12.890625 25.390625 
L 37.796875 25.390625 
z
M 35.203125 72.90625 
L 47.609375 72.90625 
L 47.609375 25.390625 
L 58.015625 25.390625 
L 58.015625 17.1875 
L 47.609375 17.1875 
L 47.609375 0 
L 37.796875 0 
L 37.796875 17.1875 
L 4.890625 17.1875 
L 4.890625 26.703125 
z
" id="DejaVuSans-34"/>
      </defs>
      <g transform="translate(1232.547727 264.057261)scale(0.1 -0.1)">
       <use xlink:href="#DejaVuSans-34"/>
       <use x="63.623047" xlink:href="#DejaVuSans-30"/>
       <use x="127.246094" xlink:href="#DejaVuSans-30"/>
       <use x="190.869141" xlink:href="#DejaVuSans-30"/>
      </g>
     </g>
    </g>
   </g>
   <g id="matplotlib.axis_2">
    <g id="ytick_1">
     <g id="line2d_10">
      <defs>
       <path d="M 0 0 
L -3.5 0 
" id="m5020406d02" style="stroke:#000000;stroke-width:0.8;"/>
      </defs>
      <g>
       <use style="stroke:#000000;stroke-width:0.8;" x="180" xlink:href="#m5020406d02" y="231.110743"/>
      </g>
     </g>
     <g id="text_10">
      <!-- −2.0 -->
      <defs>
       <path d="M 10.59375 35.5 
L 73.1875 35.5 
L 73.1875 27.203125 
L 10.59375 27.203125 
z
" id="DejaVuSans-2212"/>
       <path d="M 10.6875 12.40625 
L 21 12.40625 
L 21 0 
L 10.6875 0 
z
" id="DejaVuSans-2e"/>
      </defs>
      <g transform="translate(148.717187 234.909962)scale(0.1 -0.1)">
       <use xlink:href="#DejaVuSans-2212"/>
       <use x="83.789062" xlink:href="#DejaVuSans-32"/>
       <use x="147.412109" xlink:href="#DejaVuSans-2e"/>
       <use x="179.199219" xlink:href="#DejaVuSans-30"/>
      </g>
     </g>
    </g>
    <g id="ytick_2">
     <g id="line2d_11">
      <g>
       <use style="stroke:#000000;stroke-width:0.8;" x="180" xlink:href="#m5020406d02" y="209.238112"/>
      </g>
     </g>
     <g id="text_11">
      <!-- −1.8 -->
      <defs>
       <path d="M 31.78125 34.625 
Q 24.75 34.625 20.71875 30.859375 
Q 16.703125 27.09375 16.703125 20.515625 
Q 16.703125 13.921875 20.71875 10.15625 
Q 24.75 6.390625 31.78125 6.390625 
Q 38.8125 6.390625 42.859375 10.171875 
Q 46.921875 13.96875 46.921875 20.515625 
Q 46.921875 27.09375 42.890625 30.859375 
Q 38.875 34.625 31.78125 34.625 
z
M 21.921875 38.8125 
Q 15.578125 40.375 12.03125 44.71875 
Q 8.5 49.078125 8.5 55.328125 
Q 8.5 64.0625 14.71875 69.140625 
Q 20.953125 74.21875 31.78125 74.21875 
Q 42.671875 74.21875 48.875 69.140625 
Q 55.078125 64.0625 55.078125 55.328125 
Q 55.078125 49.078125 51.53125 44.71875 
Q 48 40.375 41.703125 38.8125 
Q 48.828125 37.15625 52.796875 32.3125 
Q 56.78125 27.484375 56.78125 20.515625 
Q 56.78125 9.90625 50.3125 4.234375 
Q 43.84375 -1.421875 31.78125 -1.421875 
Q 19.734375 -1.421875 13.25 4.234375 
Q 6.78125 9.90625 6.78125 20.515625 
Q 6.78125 27.484375 10.78125 32.3125 
Q 14.796875 37.15625 21.921875 38.8125 
z
M 18.3125 54.390625 
Q 18.3125 48.734375 21.84375 45.5625 
Q 25.390625 42.390625 31.78125 42.390625 
Q 38.140625 42.390625 41.71875 45.5625 
Q 45.3125 48.734375 45.3125 54.390625 
Q 45.3125 60.0625 41.71875 63.234375 
Q 38.140625 66.40625 31.78125 66.40625 
Q 25.390625 66.40625 21.84375 63.234375 
Q 18.3125 60.0625 18.3125 54.390625 
z
" id="DejaVuSans-38"/>
      </defs>
      <g transform="translate(148.717187 213.037331)scale(0.1 -0.1)">
       <use xlink:href="#DejaVuSans-2212"/>
       <use x="83.789062" xlink:href="#DejaVuSans-31"/>
       <use x="147.412109" xlink:href="#DejaVuSans-2e"/>
       <use x="179.199219" xlink:href="#DejaVuSans-38"/>
      </g>
     </g>
    </g>
    <g id="ytick_3">
     <g id="line2d_12">
      <g>
       <use style="stroke:#000000;stroke-width:0.8;" x="180" xlink:href="#m5020406d02" y="187.365481"/>
      </g>
     </g>
     <g id="text_12">
      <!-- −1.6 -->
      <defs>
       <path d="M 33.015625 40.375 
Q 26.375 40.375 22.484375 35.828125 
Q 18.609375 31.296875 18.609375 23.390625 
Q 18.609375 15.53125 22.484375 10.953125 
Q 26.375 6.390625 33.015625 6.390625 
Q 39.65625 6.390625 43.53125 10.953125 
Q 47.40625 15.53125 47.40625 23.390625 
Q 47.40625 31.296875 43.53125 35.828125 
Q 39.65625 40.375 33.015625 40.375 
z
M 52.59375 71.296875 
L 52.59375 62.3125 
Q 48.875 64.0625 45.09375 64.984375 
Q 41.3125 65.921875 37.59375 65.921875 
Q 27.828125 65.921875 22.671875 59.328125 
Q 17.53125 52.734375 16.796875 39.40625 
Q 19.671875 43.65625 24.015625 45.921875 
Q 28.375 48.1875 33.59375 48.1875 
Q 44.578125 48.1875 50.953125 41.515625 
Q 57.328125 34.859375 57.328125 23.390625 
Q 57.328125 12.15625 50.6875 5.359375 
Q 44.046875 -1.421875 33.015625 -1.421875 
Q 20.359375 -1.421875 13.671875 8.265625 
Q 6.984375 17.96875 6.984375 36.375 
Q 6.984375 53.65625 15.1875 63.9375 
Q 23.390625 74.21875 37.203125 74.21875 
Q 40.921875 74.21875 44.703125 73.484375 
Q 48.484375 72.75 52.59375 71.296875 
z
" id="DejaVuSans-36"/>
      </defs>
      <g transform="translate(148.717187 191.164699)scale(0.1 -0.1)">
       <use xlink:href="#DejaVuSans-2212"/>
       <use x="83.789062" xlink:href="#DejaVuSans-31"/>
       <use x="147.412109" xlink:href="#DejaVuSans-2e"/>
       <use x="179.199219" xlink:href="#DejaVuSans-36"/>
      </g>
     </g>
    </g>
    <g id="ytick_4">
     <g id="line2d_13">
      <g>
       <use style="stroke:#000000;stroke-width:0.8;" x="180" xlink:href="#m5020406d02" y="165.492849"/>
      </g>
     </g>
     <g id="text_13">
      <!-- −1.4 -->
      <g transform="translate(148.717187 169.292068)scale(0.1 -0.1)">
       <use xlink:href="#DejaVuSans-2212"/>
       <use x="83.789062" xlink:href="#DejaVuSans-31"/>
       <use x="147.412109" xlink:href="#DejaVuSans-2e"/>
       <use x="179.199219" xlink:href="#DejaVuSans-34"/>
      </g>
     </g>
    </g>
    <g id="ytick_5">
     <g id="line2d_14">
      <g>
       <use style="stroke:#000000;stroke-width:0.8;" x="180" xlink:href="#m5020406d02" y="143.620218"/>
      </g>
     </g>
     <g id="text_14">
      <!-- −1.2 -->
      <g transform="translate(148.717187 147.419437)scale(0.1 -0.1)">
       <use xlink:href="#DejaVuSans-2212"/>
       <use x="83.789062" xlink:href="#DejaVuSans-31"/>
       <use x="147.412109" xlink:href="#DejaVuSans-2e"/>
       <use x="179.199219" xlink:href="#DejaVuSans-32"/>
      </g>
     </g>
    </g>
    <g id="ytick_6">
     <g id="line2d_15">
      <g>
       <use style="stroke:#000000;stroke-width:0.8;" x="180" xlink:href="#m5020406d02" y="121.747587"/>
      </g>
     </g>
     <g id="text_15">
      <!-- −1.0 -->
      <g transform="translate(148.717187 125.546806)scale(0.1 -0.1)">
       <use xlink:href="#DejaVuSans-2212"/>
       <use x="83.789062" xlink:href="#DejaVuSans-31"/>
       <use x="147.412109" xlink:href="#DejaVuSans-2e"/>
       <use x="179.199219" xlink:href="#DejaVuSans-30"/>
      </g>
     </g>
    </g>
    <g id="ytick_7">
     <g id="line2d_16">
      <g>
       <use style="stroke:#000000;stroke-width:0.8;" x="180" xlink:href="#m5020406d02" y="99.874956"/>
      </g>
     </g>
     <g id="text_16">
      <!-- −0.8 -->
      <g transform="translate(148.717187 103.674174)scale(0.1 -0.1)">
       <use xlink:href="#DejaVuSans-2212"/>
       <use x="83.789062" xlink:href="#DejaVuSans-30"/>
       <use x="147.412109" xlink:href="#DejaVuSans-2e"/>
       <use x="179.199219" xlink:href="#DejaVuSans-38"/>
      </g>
     </g>
    </g>
    <g id="text_17">
     <!-- TD State:0 -->
     <defs>
      <path d="M -0.296875 72.90625 
L 61.375 72.90625 
L 61.375 64.59375 
L 35.5 64.59375 
L 35.5 0 
L 25.59375 0 
L 25.59375 64.59375 
L -0.296875 64.59375 
z
" id="DejaVuSans-54"/>
      <path d="M 19.671875 64.796875 
L 19.671875 8.109375 
L 31.59375 8.109375 
Q 46.6875 8.109375 53.6875 14.9375 
Q 60.6875 21.78125 60.6875 36.53125 
Q 60.6875 51.171875 53.6875 57.984375 
Q 46.6875 64.796875 31.59375 64.796875 
z
M 9.8125 72.90625 
L 30.078125 72.90625 
Q 51.265625 72.90625 61.171875 64.09375 
Q 71.09375 55.28125 71.09375 36.53125 
Q 71.09375 17.671875 61.125 8.828125 
Q 51.171875 0 30.078125 0 
L 9.8125 0 
z
" id="DejaVuSans-44"/>
      <path id="DejaVuSans-20"/>
      <path d="M 53.515625 70.515625 
L 53.515625 60.890625 
Q 47.90625 63.578125 42.921875 64.890625 
Q 37.9375 66.21875 33.296875 66.21875 
Q 25.25 66.21875 20.875 63.09375 
Q 16.5 59.96875 16.5 54.203125 
Q 16.5 49.359375 19.40625 46.890625 
Q 22.3125 44.4375 30.421875 42.921875 
L 36.375 41.703125 
Q 47.40625 39.59375 52.65625 34.296875 
Q 57.90625 29 57.90625 20.125 
Q 57.90625 9.515625 50.796875 4.046875 
Q 43.703125 -1.421875 29.984375 -1.421875 
Q 24.8125 -1.421875 18.96875 -0.25 
Q 13.140625 0.921875 6.890625 3.21875 
L 6.890625 13.375 
Q 12.890625 10.015625 18.65625 8.296875 
Q 24.421875 6.59375 29.984375 6.59375 
Q 38.421875 6.59375 43.015625 9.90625 
Q 47.609375 13.234375 47.609375 19.390625 
Q 47.609375 24.75 44.3125 27.78125 
Q 41.015625 30.8125 33.5 32.328125 
L 27.484375 33.5 
Q 16.453125 35.6875 11.515625 40.375 
Q 6.59375 45.0625 6.59375 53.421875 
Q 6.59375 63.09375 13.40625 68.65625 
Q 20.21875 74.21875 32.171875 74.21875 
Q 37.3125 74.21875 42.625 73.28125 
Q 47.953125 72.359375 53.515625 70.515625 
z
" id="DejaVuSans-53"/>
      <path d="M 18.3125 70.21875 
L 18.3125 54.6875 
L 36.8125 54.6875 
L 36.8125 47.703125 
L 18.3125 47.703125 
L 18.3125 18.015625 
Q 18.3125 11.328125 20.140625 9.421875 
Q 21.96875 7.515625 27.59375 7.515625 
L 36.8125 7.515625 
L 36.8125 0 
L 27.59375 0 
Q 17.1875 0 13.234375 3.875 
Q 9.28125 7.765625 9.28125 18.015625 
L 9.28125 47.703125 
L 2.6875 47.703125 
L 2.6875 54.6875 
L 9.28125 54.6875 
L 9.28125 70.21875 
z
" id="DejaVuSans-74"/>
      <path d="M 34.28125 27.484375 
Q 23.390625 27.484375 19.1875 25 
Q 14.984375 22.515625 14.984375 16.5 
Q 14.984375 11.71875 18.140625 8.90625 
Q 21.296875 6.109375 26.703125 6.109375 
Q 34.1875 6.109375 38.703125 11.40625 
Q 43.21875 16.703125 43.21875 25.484375 
L 43.21875 27.484375 
z
M 52.203125 31.203125 
L 52.203125 0 
L 43.21875 0 
L 43.21875 8.296875 
Q 40.140625 3.328125 35.546875 0.953125 
Q 30.953125 -1.421875 24.3125 -1.421875 
Q 15.921875 -1.421875 10.953125 3.296875 
Q 6 8.015625 6 15.921875 
Q 6 25.140625 12.171875 29.828125 
Q 18.359375 34.515625 30.609375 34.515625 
L 43.21875 34.515625 
L 43.21875 35.40625 
Q 43.21875 41.609375 39.140625 45 
Q 35.0625 48.390625 27.6875 48.390625 
Q 23 48.390625 18.546875 47.265625 
Q 14.109375 46.140625 10.015625 43.890625 
L 10.015625 52.203125 
Q 14.9375 54.109375 19.578125 55.046875 
Q 24.21875 56 28.609375 56 
Q 40.484375 56 46.34375 49.84375 
Q 52.203125 43.703125 52.203125 31.203125 
z
" id="DejaVuSans-61"/>
      <path d="M 56.203125 29.59375 
L 56.203125 25.203125 
L 14.890625 25.203125 
Q 15.484375 15.921875 20.484375 11.0625 
Q 25.484375 6.203125 34.421875 6.203125 
Q 39.59375 6.203125 44.453125 7.46875 
Q 49.3125 8.734375 54.109375 11.28125 
L 54.109375 2.78125 
Q 49.265625 0.734375 44.1875 -0.34375 
Q 39.109375 -1.421875 33.890625 -1.421875 
Q 20.796875 -1.421875 13.15625 6.1875 
Q 5.515625 13.8125 5.515625 26.8125 
Q 5.515625 40.234375 12.765625 48.109375 
Q 20.015625 56 32.328125 56 
Q 43.359375 56 49.78125 48.890625 
Q 56.203125 41.796875 56.203125 29.59375 
z
M 47.21875 32.234375 
Q 47.125 39.59375 43.09375 43.984375 
Q 39.0625 48.390625 32.421875 48.390625 
Q 24.90625 48.390625 20.390625 44.140625 
Q 15.875 39.890625 15.1875 32.171875 
z
" id="DejaVuSans-65"/>
      <path d="M 11.71875 12.40625 
L 22.015625 12.40625 
L 22.015625 0 
L 11.71875 0 
z
M 11.71875 51.703125 
L 22.015625 51.703125 
L 22.015625 39.3125 
L 11.71875 39.3125 
z
" id="DejaVuSans-3a"/>
     </defs>
     <g transform="translate(142.6375 194.523162)rotate(-90)scale(0.1 -0.1)">
      <use xlink:href="#DejaVuSans-54"/>
      <use x="61.083984" xlink:href="#DejaVuSans-44"/>
      <use x="138.085938" xlink:href="#DejaVuSans-20"/>
      <use x="169.873047" xlink:href="#DejaVuSans-53"/>
      <use x="233.349609" xlink:href="#DejaVuSans-74"/>
      <use x="272.558594" xlink:href="#DejaVuSans-61"/>
      <use x="333.837891" xlink:href="#DejaVuSans-74"/>
      <use x="373.046875" xlink:href="#DejaVuSans-65"/>
      <use x="434.570312" xlink:href="#DejaVuSans-3a"/>
      <use x="468.261719" xlink:href="#DejaVuSans-30"/>
     </g>
    </g>
   </g>
   <g id="line2d_17">
    <path clip-path="url(#p9f376d5ff5)" d="M 230.727273 110.306954 
L 240.923709 110.234129 
L 246.021928 110.314587 
L 261.316583 110.208739 
L 276.611238 110.334978 
L 286.807675 110.251234 
L 297.004111 110.181374 
L 302.10233 126.265934 
L 307.200548 94.07048 
L 312.298767 126.246626 
L 317.396985 110.200193 
L 337.789858 110.294738 
L 342.888077 126.296154 
L 347.986295 110.254819 
L 363.28095 110.14476 
L 368.379169 126.221817 
L 373.477387 110.124591 
L 388.772042 110.17071 
L 393.87026 126.360192 
L 398.968479 94.154725 
L 404.066697 110.257433 
L 409.164915 94.098281 
L 414.263134 126.286259 
L 419.361352 94.130776 
L 424.459571 110.095206 
L 429.557789 94.082461 
L 434.656007 110.129936 
L 439.754226 94.101488 
L 444.852444 126.221699 
L 449.950662 94.089142 
L 455.048881 110.134552 
L 460.147099 93.993091 
L 465.245317 238.731061 
L 470.343536 94.116005 
L 475.441754 94.061706 
L 480.539973 94.123782 
L 485.638191 110.156382 
L 490.736409 94.063778 
L 495.834628 110.109507 
L 506.031064 110.129702 
L 511.129283 94.056869 
L 516.227501 110.164602 
L 526.423938 110.133574 
L 546.816811 110.157901 
L 551.91503 94.079384 
L 557.013248 110.1559 
L 562.111466 109.997049 
L 567.209685 110.047294 
L 572.307903 94.009375 
L 577.406122 110.057509 
L 582.50434 94.029217 
L 587.602558 110.060025 
L 592.700777 110.061329 
L 597.798995 94.02277 
L 602.897213 110.099293 
L 607.995432 94.044379 
L 613.09365 110.058728 
L 623.290087 110.112213 
L 628.388305 110.05994 
L 633.486524 94.006324 
L 638.584742 126.086126 
L 643.68296 93.951242 
L 648.781179 94.036218 
L 653.879397 93.993078 
L 658.977615 110.057528 
L 664.075834 110.14373 
L 669.174052 93.989245 
L 674.27227 94.000196 
L 679.370489 110.031832 
L 684.468707 110.016338 
L 689.566926 142.209309 
L 694.665144 126.058827 
L 704.861581 126.164688 
L 709.959799 109.977155 
L 715.058017 142.192504 
L 725.254454 110.030463 
L 735.450891 142.206949 
L 740.549109 110.102806 
L 755.843764 109.973191 
L 760.941983 126.126281 
L 766.040201 110.042823 
L 771.138419 126.119019 
L 776.236638 110.004109 
L 781.334856 109.936192 
L 786.433074 142.171397 
L 791.531293 109.97778 
L 801.72773 110.057685 
L 806.825948 126.089699 
L 811.924166 126.134416 
L 817.022385 110.041362 
L 832.31704 109.9866 
L 837.415258 126.031201 
L 842.513476 93.872615 
L 847.611695 109.995211 
L 857.808132 110.008378 
L 862.90635 126.081133 
L 868.004568 110.037099 
L 878.201005 110.04674 
L 883.299223 126.089959 
L 888.397442 109.980681 
L 898.593878 109.956126 
L 903.692097 93.849109 
L 913.888534 126.083037 
L 924.08497 93.856065 
L 929.183189 109.977676 
L 939.379625 110.014741 
L 944.477844 93.950981 
L 949.576062 110.002512 
L 954.67428 109.993477 
L 959.772499 93.918297 
L 964.870717 109.957755 
L 969.968936 109.973022 
L 975.067154 93.871038 
L 980.165372 126.002194 
L 985.263591 93.944411 
L 990.361809 110.04762 
L 995.460027 93.882211 
L 1000.558246 109.940442 
L 1010.754683 109.908175 
L 1015.852901 93.929744 
L 1020.951119 93.875392 
L 1026.049338 109.891775 
L 1031.147556 109.936388 
L 1036.245774 190.291049 
L 1041.343993 109.960545 
L 1046.442211 93.836196 
L 1051.540429 109.934536 
L 1056.638648 93.864611 
L 1061.736866 110.00817 
L 1066.835085 93.848836 
L 1071.933303 109.930886 
L 1077.031521 93.900248 
L 1082.12974 93.880268 
L 1087.227958 109.932444 
L 1092.326176 93.918689 
L 1097.424395 109.946511 
L 1102.522613 93.812664 
L 1107.620831 93.815761 
L 1112.71905 109.900275 
L 1117.817268 109.826341 
L 1122.915487 93.812775 
L 1128.013705 109.881723 
L 1133.111923 93.843132 
L 1138.210142 93.896864 
L 1143.30836 109.95464 
L 1148.406578 109.944718 
L 1153.504797 93.834143 
L 1158.603015 109.868432 
L 1163.701233 93.811765 
L 1168.799452 109.907315 
L 1173.89767 109.869742 
L 1178.995889 93.896695 
L 1184.094107 109.913025 
L 1189.192325 109.87527 
L 1194.290544 93.859637 
L 1199.388762 126.039076 
L 1204.48698 110.012355 
L 1209.585199 109.908214 
L 1219.781635 109.86909 
L 1224.879854 125.881314 
L 1229.978072 109.891084 
L 1240.174509 109.822665 
L 1245.272727 109.949405 
L 1245.272727 109.949405 
" style="fill:none;stroke:#000000;stroke-linecap:square;stroke-width:4;"/>
   </g>
   <g id="line2d_18">
    <path clip-path="url(#p9f376d5ff5)" d="M 230.727273 110.811271 
L 297.004111 110.811271 
L 302.10233 127.215745 
L 307.200548 94.406798 
L 312.298767 127.215745 
L 317.396985 110.811271 
L 337.789858 110.811271 
L 342.888077 127.215745 
L 347.986295 110.811271 
L 363.28095 110.811271 
L 368.379169 127.215745 
L 373.477387 110.811271 
L 388.772042 110.811271 
L 393.87026 127.215745 
L 398.968479 94.406798 
L 404.066697 110.811271 
L 409.164915 94.406798 
L 414.263134 127.215745 
L 419.361352 94.406798 
L 424.459571 110.811271 
L 429.557789 94.406798 
L 434.656007 110.811271 
L 439.754226 94.406798 
L 444.852444 127.215745 
L 449.950662 94.406798 
L 455.048881 110.811271 
L 460.147099 94.406798 
L 465.245317 242.047059 
L 470.343536 94.406798 
L 480.539973 94.406798 
L 485.638191 110.811271 
L 490.736409 94.406798 
L 495.834628 110.811271 
L 506.031064 110.811271 
L 511.129283 94.406798 
L 516.227501 110.811271 
L 546.816811 110.811271 
L 551.91503 94.406798 
L 557.013248 110.811271 
L 567.209685 110.811271 
L 572.307903 94.406798 
L 577.406122 110.811271 
L 582.50434 94.406798 
L 587.602558 110.811271 
L 592.700777 110.811271 
L 597.798995 94.406798 
L 602.897213 110.811271 
L 607.995432 94.406798 
L 613.09365 110.811271 
L 628.388305 110.811271 
L 633.486524 94.406798 
L 638.584742 127.215745 
L 643.68296 94.406798 
L 653.879397 94.406798 
L 658.977615 110.811271 
L 664.075834 110.811271 
L 669.174052 94.406798 
L 674.27227 94.406798 
L 679.370489 110.811271 
L 684.468707 110.811271 
L 689.566926 143.620218 
L 694.665144 127.215745 
L 704.861581 127.215745 
L 709.959799 110.811271 
L 715.058017 143.620218 
L 725.254454 110.811271 
L 735.450891 143.620218 
L 740.549109 110.811271 
L 755.843764 110.811271 
L 760.941983 127.215745 
L 766.040201 110.811271 
L 771.138419 127.215745 
L 776.236638 110.811271 
L 781.334856 110.811271 
L 786.433074 143.620218 
L 791.531293 110.811271 
L 801.72773 110.811271 
L 806.825948 127.215745 
L 811.924166 127.215745 
L 817.022385 110.811271 
L 832.31704 110.811271 
L 837.415258 127.215745 
L 842.513476 94.406798 
L 847.611695 110.811271 
L 857.808132 110.811271 
L 862.90635 127.215745 
L 868.004568 110.811271 
L 878.201005 110.811271 
L 883.299223 127.215745 
L 888.397442 110.811271 
L 898.593878 110.811271 
L 903.692097 94.406798 
L 913.888534 127.215745 
L 924.08497 94.406798 
L 929.183189 110.811271 
L 939.379625 110.811271 
L 944.477844 94.406798 
L 949.576062 110.811271 
L 954.67428 110.811271 
L 959.772499 94.406798 
L 964.870717 110.811271 
L 969.968936 110.811271 
L 975.067154 94.406798 
L 980.165372 127.215745 
L 985.263591 94.406798 
L 990.361809 110.811271 
L 995.460027 94.406798 
L 1000.558246 110.811271 
L 1010.754683 110.811271 
L 1015.852901 94.406798 
L 1020.951119 94.406798 
L 1026.049338 110.811271 
L 1031.147556 110.811271 
L 1036.245774 192.833638 
L 1041.343993 110.811271 
L 1046.442211 94.406798 
L 1051.540429 110.811271 
L 1056.638648 94.406798 
L 1061.736866 110.811271 
L 1066.835085 94.406798 
L 1071.933303 110.811271 
L 1077.031521 94.406798 
L 1082.12974 94.406798 
L 1087.227958 110.811271 
L 1092.326176 94.406798 
L 1097.424395 110.811271 
L 1102.522613 94.406798 
L 1107.620831 94.406798 
L 1112.71905 110.811271 
L 1117.817268 110.811271 
L 1122.915487 94.406798 
L 1128.013705 110.811271 
L 1133.111923 94.406798 
L 1138.210142 94.406798 
L 1143.30836 110.811271 
L 1148.406578 110.811271 
L 1153.504797 94.406798 
L 1158.603015 110.811271 
L 1163.701233 94.406798 
L 1168.799452 110.811271 
L 1173.89767 110.811271 
L 1178.995889 94.406798 
L 1184.094107 110.811271 
L 1189.192325 110.811271 
L 1194.290544 94.406798 
L 1199.388762 127.215745 
L 1204.48698 110.811271 
L 1219.781635 110.811271 
L 1224.879854 127.215745 
L 1229.978072 110.811271 
L 1245.272727 110.811271 
L 1245.272727 110.811271 
" style="fill:none;stroke:#ff0000;stroke-linecap:square;stroke-width:1.5;"/>
   </g>
   <g id="patch_3">
    <path d="M 180 249.458824 
L 180 86.4 
" style="fill:none;stroke:#000000;stroke-linecap:square;stroke-linejoin:miter;stroke-width:0.8;"/>
   </g>
   <g id="patch_4">
    <path d="M 1296 249.458824 
L 1296 86.4 
" style="fill:none;stroke:#000000;stroke-linecap:square;stroke-linejoin:miter;stroke-width:0.8;"/>
   </g>
   <g id="patch_5">
    <path d="M 180 249.458824 
L 1296 249.458824 
" style="fill:none;stroke:#000000;stroke-linecap:square;stroke-linejoin:miter;stroke-width:0.8;"/>
   </g>
   <g id="patch_6">
    <path d="M 180 86.4 
L 1296 86.4 
" style="fill:none;stroke:#000000;stroke-linecap:square;stroke-linejoin:miter;stroke-width:0.8;"/>
   </g>
   <g id="legend_1">
    <g id="patch_7">
     <path d="M 1234.3125 123.75625 
L 1289 123.75625 
Q 1291 123.75625 1291 121.75625 
L 1291 93.4 
Q 1291 91.4 1289 91.4 
L 1234.3125 91.4 
Q 1232.3125 91.4 1232.3125 93.4 
L 1232.3125 121.75625 
Q 1232.3125 123.75625 1234.3125 123.75625 
z
" style="fill:#ffffff;opacity:0.8;stroke:#cccccc;stroke-linejoin:miter;"/>
    </g>
    <g id="line2d_19">
     <path d="M 1236.3125 99.498438 
L 1256.3125 99.498438 
" style="fill:none;stroke:#000000;stroke-linecap:square;stroke-width:4;"/>
    </g>
    <g id="line2d_20"/>
    <g id="text_18">
     <!-- Pred -->
     <defs>
      <path d="M 19.671875 64.796875 
L 19.671875 37.40625 
L 32.078125 37.40625 
Q 38.96875 37.40625 42.71875 40.96875 
Q 46.484375 44.53125 46.484375 51.125 
Q 46.484375 57.671875 42.71875 61.234375 
Q 38.96875 64.796875 32.078125 64.796875 
z
M 9.8125 72.90625 
L 32.078125 72.90625 
Q 44.34375 72.90625 50.609375 67.359375 
Q 56.890625 61.8125 56.890625 51.125 
Q 56.890625 40.328125 50.609375 34.8125 
Q 44.34375 29.296875 32.078125 29.296875 
L 19.671875 29.296875 
L 19.671875 0 
L 9.8125 0 
z
" id="DejaVuSans-50"/>
      <path d="M 41.109375 46.296875 
Q 39.59375 47.171875 37.8125 47.578125 
Q 36.03125 48 33.890625 48 
Q 26.265625 48 22.1875 43.046875 
Q 18.109375 38.09375 18.109375 28.8125 
L 18.109375 0 
L 9.078125 0 
L 9.078125 54.6875 
L 18.109375 54.6875 
L 18.109375 46.1875 
Q 20.953125 51.171875 25.484375 53.578125 
Q 30.03125 56 36.53125 56 
Q 37.453125 56 38.578125 55.875 
Q 39.703125 55.765625 41.0625 55.515625 
z
" id="DejaVuSans-72"/>
      <path d="M 45.40625 46.390625 
L 45.40625 75.984375 
L 54.390625 75.984375 
L 54.390625 0 
L 45.40625 0 
L 45.40625 8.203125 
Q 42.578125 3.328125 38.25 0.953125 
Q 33.9375 -1.421875 27.875 -1.421875 
Q 17.96875 -1.421875 11.734375 6.484375 
Q 5.515625 14.40625 5.515625 27.296875 
Q 5.515625 40.1875 11.734375 48.09375 
Q 17.96875 56 27.875 56 
Q 33.9375 56 38.25 53.625 
Q 42.578125 51.265625 45.40625 46.390625 
z
M 14.796875 27.296875 
Q 14.796875 17.390625 18.875 11.75 
Q 22.953125 6.109375 30.078125 6.109375 
Q 37.203125 6.109375 41.296875 11.75 
Q 45.40625 17.390625 45.40625 27.296875 
Q 45.40625 37.203125 41.296875 42.84375 
Q 37.203125 48.484375 30.078125 48.484375 
Q 22.953125 48.484375 18.875 42.84375 
Q 14.796875 37.203125 14.796875 27.296875 
z
" id="DejaVuSans-64"/>
     </defs>
     <g transform="translate(1264.3125 102.998438)scale(0.1 -0.1)">
      <use xlink:href="#DejaVuSans-50"/>
      <use x="60.287109" xlink:href="#DejaVuSans-72"/>
      <use x="101.369141" xlink:href="#DejaVuSans-65"/>
      <use x="162.892578" xlink:href="#DejaVuSans-64"/>
     </g>
    </g>
    <g id="line2d_21">
     <path d="M 1236.3125 114.176563 
L 1256.3125 114.176563 
" style="fill:none;stroke:#ff0000;stroke-linecap:square;stroke-width:1.5;"/>
    </g>
    <g id="line2d_22"/>
    <g id="text_19">
     <!-- True -->
     <defs>
      <path d="M 8.5 21.578125 
L 8.5 54.6875 
L 17.484375 54.6875 
L 17.484375 21.921875 
Q 17.484375 14.15625 20.5 10.265625 
Q 23.53125 6.390625 29.59375 6.390625 
Q 36.859375 6.390625 41.078125 11.03125 
Q 45.3125 15.671875 45.3125 23.6875 
L 45.3125 54.6875 
L 54.296875 54.6875 
L 54.296875 0 
L 45.3125 0 
L 45.3125 8.40625 
Q 42.046875 3.421875 37.71875 1 
Q 33.40625 -1.421875 27.6875 -1.421875 
Q 18.265625 -1.421875 13.375 4.4375 
Q 8.5 10.296875 8.5 21.578125 
z
M 31.109375 56 
z
" id="DejaVuSans-75"/>
     </defs>
     <g transform="translate(1264.3125 117.676563)scale(0.1 -0.1)">
      <use xlink:href="#DejaVuSans-54"/>
      <use x="60.865234" xlink:href="#DejaVuSans-72"/>
      <use x="101.978516" xlink:href="#DejaVuSans-75"/>
      <use x="165.357422" xlink:href="#DejaVuSans-65"/>
     </g>
    </g>
   </g>
  </g>
  <g id="axes_2">
   <g id="patch_8">
    <path d="M 180 445.129412 
L 1296 445.129412 
L 1296 282.070588 
L 180 282.070588 
z
" style="fill:#ffffff;"/>
   </g>
   <g id="matplotlib.axis_3">
    <g id="xtick_10">
     <g id="line2d_23">
      <g>
       <use style="stroke:#000000;stroke-width:0.8;" x="225.629054" xlink:href="#m53629918e6" y="445.129412"/>
      </g>
     </g>
     <g id="text_20">
      <!-- 0 -->
      <g transform="translate(222.447804 459.727849)scale(0.1 -0.1)">
       <use xlink:href="#DejaVuSans-30"/>
      </g>
     </g>
    </g>
    <g id="xtick_11">
     <g id="line2d_24">
      <g>
       <use style="stroke:#000000;stroke-width:0.8;" x="353.084513" xlink:href="#m53629918e6" y="445.129412"/>
      </g>
     </g>
     <g id="text_21">
      <!-- 500 -->
      <g transform="translate(343.540763 459.727849)scale(0.1 -0.1)">
       <use xlink:href="#DejaVuSans-35"/>
       <use x="63.623047" xlink:href="#DejaVuSans-30"/>
       <use x="127.246094" xlink:href="#DejaVuSans-30"/>
      </g>
     </g>
    </g>
    <g id="xtick_12">
     <g id="line2d_25">
      <g>
       <use style="stroke:#000000;stroke-width:0.8;" x="480.539973" xlink:href="#m53629918e6" y="445.129412"/>
      </g>
     </g>
     <g id="text_22">
      <!-- 1000 -->
      <g transform="translate(467.814973 459.727849)scale(0.1 -0.1)">
       <use xlink:href="#DejaVuSans-31"/>
       <use x="63.623047" xlink:href="#DejaVuSans-30"/>
       <use x="127.246094" xlink:href="#DejaVuSans-30"/>
       <use x="190.869141" xlink:href="#DejaVuSans-30"/>
      </g>
     </g>
    </g>
    <g id="xtick_13">
     <g id="line2d_26">
      <g>
       <use style="stroke:#000000;stroke-width:0.8;" x="607.995432" xlink:href="#m53629918e6" y="445.129412"/>
      </g>
     </g>
     <g id="text_23">
      <!-- 1500 -->
      <g transform="translate(595.270432 459.727849)scale(0.1 -0.1)">
       <use xlink:href="#DejaVuSans-31"/>
       <use x="63.623047" xlink:href="#DejaVuSans-35"/>
       <use x="127.246094" xlink:href="#DejaVuSans-30"/>
       <use x="190.869141" xlink:href="#DejaVuSans-30"/>
      </g>
     </g>
    </g>
    <g id="xtick_14">
     <g id="line2d_27">
      <g>
       <use style="stroke:#000000;stroke-width:0.8;" x="735.450891" xlink:href="#m53629918e6" y="445.129412"/>
      </g>
     </g>
     <g id="text_24">
      <!-- 2000 -->
      <g transform="translate(722.725891 459.727849)scale(0.1 -0.1)">
       <use xlink:href="#DejaVuSans-32"/>
       <use x="63.623047" xlink:href="#DejaVuSans-30"/>
       <use x="127.246094" xlink:href="#DejaVuSans-30"/>
       <use x="190.869141" xlink:href="#DejaVuSans-30"/>
      </g>
     </g>
    </g>
    <g id="xtick_15">
     <g id="line2d_28">
      <g>
       <use style="stroke:#000000;stroke-width:0.8;" x="862.90635" xlink:href="#m53629918e6" y="445.129412"/>
      </g>
     </g>
     <g id="text_25">
      <!-- 2500 -->
      <g transform="translate(850.18135 459.727849)scale(0.1 -0.1)">
       <use xlink:href="#DejaVuSans-32"/>
       <use x="63.623047" xlink:href="#DejaVuSans-35"/>
       <use x="127.246094" xlink:href="#DejaVuSans-30"/>
       <use x="190.869141" xlink:href="#DejaVuSans-30"/>
      </g>
     </g>
    </g>
    <g id="xtick_16">
     <g id="line2d_29">
      <g>
       <use style="stroke:#000000;stroke-width:0.8;" x="990.361809" xlink:href="#m53629918e6" y="445.129412"/>
      </g>
     </g>
     <g id="text_26">
      <!-- 3000 -->
      <g transform="translate(977.636809 459.727849)scale(0.1 -0.1)">
       <use xlink:href="#DejaVuSans-33"/>
       <use x="63.623047" xlink:href="#DejaVuSans-30"/>
       <use x="127.246094" xlink:href="#DejaVuSans-30"/>
       <use x="190.869141" xlink:href="#DejaVuSans-30"/>
      </g>
     </g>
    </g>
    <g id="xtick_17">
     <g id="line2d_30">
      <g>
       <use style="stroke:#000000;stroke-width:0.8;" x="1117.817268" xlink:href="#m53629918e6" y="445.129412"/>
      </g>
     </g>
     <g id="text_27">
      <!-- 3500 -->
      <g transform="translate(1105.092268 459.727849)scale(0.1 -0.1)">
       <use xlink:href="#DejaVuSans-33"/>
       <use x="63.623047" xlink:href="#DejaVuSans-35"/>
       <use x="127.246094" xlink:href="#DejaVuSans-30"/>
       <use x="190.869141" xlink:href="#DejaVuSans-30"/>
      </g>
     </g>
    </g>
    <g id="xtick_18">
     <g id="line2d_31">
      <g>
       <use style="stroke:#000000;stroke-width:0.8;" x="1245.272727" xlink:href="#m53629918e6" y="445.129412"/>
      </g>
     </g>
     <g id="text_28">
      <!-- 4000 -->
      <g transform="translate(1232.547727 459.727849)scale(0.1 -0.1)">
       <use xlink:href="#DejaVuSans-34"/>
       <use x="63.623047" xlink:href="#DejaVuSans-30"/>
       <use x="127.246094" xlink:href="#DejaVuSans-30"/>
       <use x="190.869141" xlink:href="#DejaVuSans-30"/>
      </g>
     </g>
    </g>
   </g>
   <g id="matplotlib.axis_4">
    <g id="ytick_8">
     <g id="line2d_32">
      <g>
       <use style="stroke:#000000;stroke-width:0.8;" x="180" xlink:href="#m5020406d02" y="429.482353"/>
      </g>
     </g>
     <g id="text_29">
      <!-- −0.06 -->
      <g transform="translate(142.354688 433.281572)scale(0.1 -0.1)">
       <use xlink:href="#DejaVuSans-2212"/>
       <use x="83.789062" xlink:href="#DejaVuSans-30"/>
       <use x="147.412109" xlink:href="#DejaVuSans-2e"/>
       <use x="179.199219" xlink:href="#DejaVuSans-30"/>
       <use x="242.822266" xlink:href="#DejaVuSans-36"/>
      </g>
     </g>
    </g>
    <g id="ytick_9">
     <g id="line2d_33">
      <g>
       <use style="stroke:#000000;stroke-width:0.8;" x="180" xlink:href="#m5020406d02" y="407.521569"/>
      </g>
     </g>
     <g id="text_30">
      <!-- −0.04 -->
      <g transform="translate(142.354688 411.320787)scale(0.1 -0.1)">
       <use xlink:href="#DejaVuSans-2212"/>
       <use x="83.789062" xlink:href="#DejaVuSans-30"/>
       <use x="147.412109" xlink:href="#DejaVuSans-2e"/>
       <use x="179.199219" xlink:href="#DejaVuSans-30"/>
       <use x="242.822266" xlink:href="#DejaVuSans-34"/>
      </g>
     </g>
    </g>
    <g id="ytick_10">
     <g id="line2d_34">
      <g>
       <use style="stroke:#000000;stroke-width:0.8;" x="180" xlink:href="#m5020406d02" y="385.560784"/>
      </g>
     </g>
     <g id="text_31">
      <!-- −0.02 -->
      <g transform="translate(142.354688 389.360003)scale(0.1 -0.1)">
       <use xlink:href="#DejaVuSans-2212"/>
       <use x="83.789062" xlink:href="#DejaVuSans-30"/>
       <use x="147.412109" xlink:href="#DejaVuSans-2e"/>
       <use x="179.199219" xlink:href="#DejaVuSans-30"/>
       <use x="242.822266" xlink:href="#DejaVuSans-32"/>
      </g>
     </g>
    </g>
    <g id="ytick_11">
     <g id="line2d_35">
      <g>
       <use style="stroke:#000000;stroke-width:0.8;" x="180" xlink:href="#m5020406d02" y="363.6"/>
      </g>
     </g>
     <g id="text_32">
      <!-- 0.00 -->
      <g transform="translate(150.734375 367.399219)scale(0.1 -0.1)">
       <use xlink:href="#DejaVuSans-30"/>
       <use x="63.623047" xlink:href="#DejaVuSans-2e"/>
       <use x="95.410156" xlink:href="#DejaVuSans-30"/>
       <use x="159.033203" xlink:href="#DejaVuSans-30"/>
      </g>
     </g>
    </g>
    <g id="ytick_12">
     <g id="line2d_36">
      <g>
       <use style="stroke:#000000;stroke-width:0.8;" x="180" xlink:href="#m5020406d02" y="341.639216"/>
      </g>
     </g>
     <g id="text_33">
      <!-- 0.02 -->
      <g transform="translate(150.734375 345.438434)scale(0.1 -0.1)">
       <use xlink:href="#DejaVuSans-30"/>
       <use x="63.623047" xlink:href="#DejaVuSans-2e"/>
       <use x="95.410156" xlink:href="#DejaVuSans-30"/>
       <use x="159.033203" xlink:href="#DejaVuSans-32"/>
      </g>
     </g>
    </g>
    <g id="ytick_13">
     <g id="line2d_37">
      <g>
       <use style="stroke:#000000;stroke-width:0.8;" x="180" xlink:href="#m5020406d02" y="319.678431"/>
      </g>
     </g>
     <g id="text_34">
      <!-- 0.04 -->
      <g transform="translate(150.734375 323.47765)scale(0.1 -0.1)">
       <use xlink:href="#DejaVuSans-30"/>
       <use x="63.623047" xlink:href="#DejaVuSans-2e"/>
       <use x="95.410156" xlink:href="#DejaVuSans-30"/>
       <use x="159.033203" xlink:href="#DejaVuSans-34"/>
      </g>
     </g>
    </g>
    <g id="ytick_14">
     <g id="line2d_38">
      <g>
       <use style="stroke:#000000;stroke-width:0.8;" x="180" xlink:href="#m5020406d02" y="297.717647"/>
      </g>
     </g>
     <g id="text_35">
      <!-- 0.06 -->
      <g transform="translate(150.734375 301.516866)scale(0.1 -0.1)">
       <use xlink:href="#DejaVuSans-30"/>
       <use x="63.623047" xlink:href="#DejaVuSans-2e"/>
       <use x="95.410156" xlink:href="#DejaVuSans-30"/>
       <use x="159.033203" xlink:href="#DejaVuSans-36"/>
      </g>
     </g>
    </g>
    <g id="text_36">
     <!-- TD State:1 -->
     <g transform="translate(136.275 390.19375)rotate(-90)scale(0.1 -0.1)">
      <use xlink:href="#DejaVuSans-54"/>
      <use x="61.083984" xlink:href="#DejaVuSans-44"/>
      <use x="138.085938" xlink:href="#DejaVuSans-20"/>
      <use x="169.873047" xlink:href="#DejaVuSans-53"/>
      <use x="233.349609" xlink:href="#DejaVuSans-74"/>
      <use x="272.558594" xlink:href="#DejaVuSans-61"/>
      <use x="333.837891" xlink:href="#DejaVuSans-74"/>
      <use x="373.046875" xlink:href="#DejaVuSans-65"/>
      <use x="434.570312" xlink:href="#DejaVuSans-3a"/>
      <use x="468.261719" xlink:href="#DejaVuSans-31"/>
     </g>
    </g>
   </g>
   <g id="line2d_39">
    <path clip-path="url(#p26c89e667c)" d="M 230.727273 361.356372 
L 261.316583 361.46994 
L 286.807675 361.526537 
L 297.004111 361.575753 
L 302.10233 361.285966 
L 307.200548 361.917674 
L 312.298767 361.319715 
L 317.396985 361.627994 
L 337.789858 361.654742 
L 342.888077 361.3904 
L 347.986295 361.697117 
L 363.28095 361.772554 
L 368.379169 361.485061 
L 373.477387 361.808885 
L 388.772042 361.836531 
L 393.87026 361.514644 
L 398.968479 362.149413 
L 404.066697 361.851756 
L 409.164915 362.192205 
L 414.263134 361.590622 
L 419.361352 362.210102 
L 424.459571 361.954751 
L 429.557789 362.250404 
L 434.656007 361.969645 
L 439.754226 362.270102 
L 444.852444 361.689253 
L 449.950662 362.301719 
L 455.048881 362.021595 
L 460.147099 362.356627 
L 465.245317 359.641945 
L 470.343536 362.363099 
L 480.539973 362.383919 
L 485.638191 362.107712 
L 490.736409 362.427798 
L 495.834628 362.147574 
L 506.031064 362.169236 
L 511.129283 362.483272 
L 516.227501 362.184075 
L 536.620375 362.231821 
L 546.816811 362.269647 
L 551.91503 362.58542 
L 557.013248 362.295776 
L 567.209685 362.356846 
L 572.307903 362.660202 
L 577.406122 362.379241 
L 582.50434 362.679648 
L 587.602558 362.403993 
L 592.700777 362.417512 
L 597.798995 362.721061 
L 602.897213 362.431416 
L 607.995432 362.739969 
L 613.09365 362.469348 
L 628.388305 362.510736 
L 633.486524 362.818891 
L 638.584742 362.250413 
L 643.68296 362.863584 
L 653.879397 362.873984 
L 658.977615 362.588032 
L 664.075834 362.575577 
L 669.174052 362.914596 
L 674.27227 362.922845 
L 679.370489 362.646934 
L 684.468707 362.665596 
L 689.566926 362.064806 
L 694.665144 362.407242 
L 704.861581 362.407331 
L 709.959799 362.758783 
L 715.058017 362.151147 
L 725.254454 362.791191 
L 735.450891 362.211688 
L 740.549109 362.817776 
L 755.843764 362.899194 
L 760.941983 362.588439 
L 766.040201 362.90805 
L 771.138419 362.620819 
L 776.236638 362.950053 
L 781.334856 362.984752 
L 786.433074 362.371042 
L 791.531293 363.004508 
L 801.72773 363.0079 
L 806.825948 362.734195 
L 811.924166 362.736748 
L 817.022385 363.059293 
L 832.31704 363.117808 
L 837.415258 362.840246 
L 842.513476 363.460674 
L 847.611695 363.156932 
L 857.808132 363.180745 
L 862.90635 362.894567 
L 868.004568 363.202115 
L 878.201005 363.227005 
L 883.299223 362.949866 
L 888.397442 363.277376 
L 898.593878 363.312729 
L 903.692097 363.637224 
L 913.888534 363.035506 
L 924.08497 363.690775 
L 929.183189 363.387335 
L 939.379625 363.403835 
L 944.477844 363.715094 
L 949.576062 363.433095 
L 954.67428 363.449779 
L 959.772499 363.764533 
L 964.870717 363.48623 
L 969.968936 363.495479 
L 975.067154 363.818433 
L 980.165372 363.234237 
L 985.263591 363.823822 
L 990.361809 363.526011 
L 995.460027 363.868373 
L 1000.558246 363.584324 
L 1010.754683 363.622037 
L 1015.852901 363.90719 
L 1020.951119 363.935419 
L 1026.049338 363.664174 
L 1031.147556 363.664445 
L 1036.245774 362.180689 
L 1041.343993 363.69649 
L 1046.442211 364.02629 
L 1051.540429 363.72997 
L 1056.638648 364.043116 
L 1061.736866 363.73296 
L 1066.835085 364.073462 
L 1071.933303 363.782125 
L 1077.031521 364.083252 
L 1082.12974 364.100965 
L 1087.227958 363.818767 
L 1092.326176 364.114729 
L 1097.424395 363.839983 
L 1102.522613 364.172689 
L 1107.620831 364.18334 
L 1112.71905 363.891251 
L 1117.817268 363.927793 
L 1122.915487 364.223694 
L 1128.013705 363.936367 
L 1133.111923 364.239926 
L 1138.210142 364.235084 
L 1143.30836 363.951177 
L 1148.406578 363.968132 
L 1153.504797 364.293715 
L 1158.603015 364.016993 
L 1163.701233 364.326082 
L 1168.799452 364.030614 
L 1173.89767 364.05603 
L 1178.995889 364.339535 
L 1184.094107 364.068307 
L 1189.192325 364.093779 
L 1194.290544 364.390313 
L 1199.388762 363.791345 
L 1204.48698 364.093596 
L 1219.781635 364.179191 
L 1224.879854 363.911535 
L 1229.978072 364.202619 
L 1245.272727 364.226534 
L 1245.272727 364.226534 
" style="fill:none;stroke:#000000;stroke-linecap:square;stroke-width:4;"/>
   </g>
   <g id="line2d_40">
    <path clip-path="url(#p26c89e667c)" d="M 230.727273 363.6 
L 291.905893 363.6 
L 297.004111 371.835294 
L 302.10233 347.129412 
L 307.200548 380.070588 
L 312.298767 355.364706 
L 317.396985 363.6 
L 332.69164 363.6 
L 337.789858 371.835294 
L 342.888077 355.364706 
L 347.986295 363.6 
L 358.182732 363.6 
L 363.28095 371.835294 
L 368.379169 355.364706 
L 373.477387 363.6 
L 383.673824 363.6 
L 388.772042 371.835294 
L 393.87026 347.129412 
L 398.968479 371.835294 
L 404.066697 355.364706 
L 409.164915 380.070588 
L 414.263134 347.129412 
L 419.361352 371.835294 
L 424.459571 355.364706 
L 429.557789 371.835294 
L 434.656007 355.364706 
L 439.754226 380.070588 
L 444.852444 347.129412 
L 449.950662 371.835294 
L 455.048881 355.364706 
L 460.147099 437.717647 
L 465.245317 289.482353 
L 470.343536 363.6 
L 475.441754 363.6 
L 480.539973 371.835294 
L 485.638191 355.364706 
L 490.736409 371.835294 
L 495.834628 363.6 
L 500.932846 363.6 
L 506.031064 355.364706 
L 511.129283 371.835294 
L 516.227501 363.6 
L 541.718593 363.6 
L 546.816811 355.364706 
L 551.91503 371.835294 
L 557.013248 363.6 
L 562.111466 363.6 
L 567.209685 355.364706 
L 572.307903 371.835294 
L 577.406122 355.364706 
L 582.50434 371.835294 
L 592.700777 355.364706 
L 597.798995 371.835294 
L 602.897213 355.364706 
L 607.995432 371.835294 
L 613.09365 363.6 
L 623.290087 363.6 
L 628.388305 355.364706 
L 633.486524 380.070588 
L 638.584742 347.129412 
L 643.68296 363.6 
L 648.781179 363.6 
L 653.879397 371.835294 
L 664.075834 355.364706 
L 674.27227 371.835294 
L 679.370489 363.6 
L 684.468707 380.070588 
L 689.566926 355.364706 
L 694.665144 363.6 
L 699.763362 363.6 
L 704.861581 355.364706 
L 709.959799 380.070588 
L 715.058017 355.364706 
L 720.156236 355.364706 
L 725.254454 371.835294 
L 730.352672 371.835294 
L 735.450891 347.129412 
L 740.549109 363.6 
L 750.745546 363.6 
L 755.843764 371.835294 
L 760.941983 355.364706 
L 766.040201 371.835294 
L 771.138419 355.364706 
L 776.236638 363.6 
L 781.334856 380.070588 
L 786.433074 347.129412 
L 791.531293 363.6 
L 796.629511 363.6 
L 801.72773 371.835294 
L 811.924166 355.364706 
L 817.022385 363.6 
L 827.218821 363.6 
L 832.31704 371.835294 
L 837.415258 347.129412 
L 842.513476 371.835294 
L 847.611695 363.6 
L 852.709913 363.6 
L 857.808132 371.835294 
L 862.90635 355.364706 
L 868.004568 363.6 
L 873.102787 363.6 
L 878.201005 371.835294 
L 883.299223 355.364706 
L 888.397442 363.6 
L 893.49566 363.6 
L 898.593878 355.364706 
L 903.692097 371.835294 
L 908.790315 371.835294 
L 913.888534 355.364706 
L 918.986752 355.364706 
L 924.08497 371.835294 
L 929.183189 363.6 
L 934.281407 363.6 
L 939.379625 355.364706 
L 944.477844 371.835294 
L 954.67428 355.364706 
L 959.772499 371.835294 
L 969.968936 355.364706 
L 975.067154 380.070588 
L 980.165372 347.129412 
L 985.263591 371.835294 
L 990.361809 355.364706 
L 995.460027 371.835294 
L 1000.558246 363.6 
L 1005.656464 363.6 
L 1010.754683 355.364706 
L 1020.951119 371.835294 
L 1026.049338 363.6 
L 1031.147556 404.776471 
L 1036.245774 322.423529 
L 1041.343993 355.364706 
L 1046.442211 371.835294 
L 1051.540429 355.364706 
L 1056.638648 371.835294 
L 1061.736866 355.364706 
L 1066.835085 371.835294 
L 1071.933303 355.364706 
L 1082.12974 371.835294 
L 1087.227958 355.364706 
L 1092.326176 371.835294 
L 1097.424395 355.364706 
L 1107.620831 371.835294 
L 1117.817268 355.364706 
L 1122.915487 371.835294 
L 1128.013705 355.364706 
L 1138.210142 371.835294 
L 1148.406578 355.364706 
L 1153.504797 371.835294 
L 1158.603015 355.364706 
L 1163.701233 371.835294 
L 1173.89767 355.364706 
L 1178.995889 371.835294 
L 1189.192325 355.364706 
L 1194.290544 380.070588 
L 1199.388762 355.364706 
L 1204.48698 363.6 
L 1214.683417 363.6 
L 1219.781635 371.835294 
L 1224.879854 355.364706 
L 1229.978072 363.6 
L 1240.174509 363.6 
L 1245.272727 371.835294 
L 1245.272727 371.835294 
" style="fill:none;stroke:#ff0000;stroke-linecap:square;stroke-width:1.5;"/>
   </g>
   <g id="patch_9">
    <path d="M 180 445.129412 
L 180 282.070588 
" style="fill:none;stroke:#000000;stroke-linecap:square;stroke-linejoin:miter;stroke-width:0.8;"/>
   </g>
   <g id="patch_10">
    <path d="M 1296 445.129412 
L 1296 282.070588 
" style="fill:none;stroke:#000000;stroke-linecap:square;stroke-linejoin:miter;stroke-width:0.8;"/>
   </g>
   <g id="patch_11">
    <path d="M 180 445.129412 
L 1296 445.129412 
" style="fill:none;stroke:#000000;stroke-linecap:square;stroke-linejoin:miter;stroke-width:0.8;"/>
   </g>
   <g id="patch_12">
    <path d="M 180 282.070588 
L 1296 282.070588 
" style="fill:none;stroke:#000000;stroke-linecap:square;stroke-linejoin:miter;stroke-width:0.8;"/>
   </g>
   <g id="legend_2">
    <g id="patch_13">
     <path d="M 1234.3125 319.426838 
L 1289 319.426838 
Q 1291 319.426838 1291 317.426838 
L 1291 289.070588 
Q 1291 287.070588 1289 287.070588 
L 1234.3125 287.070588 
Q 1232.3125 287.070588 1232.3125 289.070588 
L 1232.3125 317.426838 
Q 1232.3125 319.426838 1234.3125 319.426838 
z
" style="fill:#ffffff;opacity:0.8;stroke:#cccccc;stroke-linejoin:miter;"/>
    </g>
    <g id="line2d_41">
     <path d="M 1236.3125 295.169026 
L 1256.3125 295.169026 
" style="fill:none;stroke:#000000;stroke-linecap:square;stroke-width:4;"/>
    </g>
    <g id="line2d_42"/>
    <g id="text_37">
     <!-- Pred -->
     <g transform="translate(1264.3125 298.669026)scale(0.1 -0.1)">
      <use xlink:href="#DejaVuSans-50"/>
      <use x="60.287109" xlink:href="#DejaVuSans-72"/>
      <use x="101.369141" xlink:href="#DejaVuSans-65"/>
      <use x="162.892578" xlink:href="#DejaVuSans-64"/>
     </g>
    </g>
    <g id="line2d_43">
     <path d="M 1236.3125 309.847151 
L 1256.3125 309.847151 
" style="fill:none;stroke:#ff0000;stroke-linecap:square;stroke-width:1.5;"/>
    </g>
    <g id="line2d_44"/>
    <g id="text_38">
     <!-- True -->
     <g transform="translate(1264.3125 313.347151)scale(0.1 -0.1)">
      <use xlink:href="#DejaVuSans-54"/>
      <use x="60.865234" xlink:href="#DejaVuSans-72"/>
      <use x="101.978516" xlink:href="#DejaVuSans-75"/>
      <use x="165.357422" xlink:href="#DejaVuSans-65"/>
     </g>
    </g>
   </g>
  </g>
  <g id="axes_3">
   <g id="patch_14">
    <path d="M 180 640.8 
L 1296 640.8 
L 1296 477.741176 
L 180 477.741176 
z
" style="fill:#ffffff;"/>
   </g>
   <g id="matplotlib.axis_5">
    <g id="xtick_19">
     <g id="line2d_45">
      <g>
       <use style="stroke:#000000;stroke-width:0.8;" x="225.629054" xlink:href="#m53629918e6" y="640.8"/>
      </g>
     </g>
     <g id="text_39">
      <!-- 0 -->
      <g transform="translate(222.447804 655.398438)scale(0.1 -0.1)">
       <use xlink:href="#DejaVuSans-30"/>
      </g>
     </g>
    </g>
    <g id="xtick_20">
     <g id="line2d_46">
      <g>
       <use style="stroke:#000000;stroke-width:0.8;" x="353.084513" xlink:href="#m53629918e6" y="640.8"/>
      </g>
     </g>
     <g id="text_40">
      <!-- 500 -->
      <g transform="translate(343.540763 655.398438)scale(0.1 -0.1)">
       <use xlink:href="#DejaVuSans-35"/>
       <use x="63.623047" xlink:href="#DejaVuSans-30"/>
       <use x="127.246094" xlink:href="#DejaVuSans-30"/>
      </g>
     </g>
    </g>
    <g id="xtick_21">
     <g id="line2d_47">
      <g>
       <use style="stroke:#000000;stroke-width:0.8;" x="480.539973" xlink:href="#m53629918e6" y="640.8"/>
      </g>
     </g>
     <g id="text_41">
      <!-- 1000 -->
      <g transform="translate(467.814973 655.398438)scale(0.1 -0.1)">
       <use xlink:href="#DejaVuSans-31"/>
       <use x="63.623047" xlink:href="#DejaVuSans-30"/>
       <use x="127.246094" xlink:href="#DejaVuSans-30"/>
       <use x="190.869141" xlink:href="#DejaVuSans-30"/>
      </g>
     </g>
    </g>
    <g id="xtick_22">
     <g id="line2d_48">
      <g>
       <use style="stroke:#000000;stroke-width:0.8;" x="607.995432" xlink:href="#m53629918e6" y="640.8"/>
      </g>
     </g>
     <g id="text_42">
      <!-- 1500 -->
      <g transform="translate(595.270432 655.398438)scale(0.1 -0.1)">
       <use xlink:href="#DejaVuSans-31"/>
       <use x="63.623047" xlink:href="#DejaVuSans-35"/>
       <use x="127.246094" xlink:href="#DejaVuSans-30"/>
       <use x="190.869141" xlink:href="#DejaVuSans-30"/>
      </g>
     </g>
    </g>
    <g id="xtick_23">
     <g id="line2d_49">
      <g>
       <use style="stroke:#000000;stroke-width:0.8;" x="735.450891" xlink:href="#m53629918e6" y="640.8"/>
      </g>
     </g>
     <g id="text_43">
      <!-- 2000 -->
      <g transform="translate(722.725891 655.398438)scale(0.1 -0.1)">
       <use xlink:href="#DejaVuSans-32"/>
       <use x="63.623047" xlink:href="#DejaVuSans-30"/>
       <use x="127.246094" xlink:href="#DejaVuSans-30"/>
       <use x="190.869141" xlink:href="#DejaVuSans-30"/>
      </g>
     </g>
    </g>
    <g id="xtick_24">
     <g id="line2d_50">
      <g>
       <use style="stroke:#000000;stroke-width:0.8;" x="862.90635" xlink:href="#m53629918e6" y="640.8"/>
      </g>
     </g>
     <g id="text_44">
      <!-- 2500 -->
      <g transform="translate(850.18135 655.398438)scale(0.1 -0.1)">
       <use xlink:href="#DejaVuSans-32"/>
       <use x="63.623047" xlink:href="#DejaVuSans-35"/>
       <use x="127.246094" xlink:href="#DejaVuSans-30"/>
       <use x="190.869141" xlink:href="#DejaVuSans-30"/>
      </g>
     </g>
    </g>
    <g id="xtick_25">
     <g id="line2d_51">
      <g>
       <use style="stroke:#000000;stroke-width:0.8;" x="990.361809" xlink:href="#m53629918e6" y="640.8"/>
      </g>
     </g>
     <g id="text_45">
      <!-- 3000 -->
      <g transform="translate(977.636809 655.398438)scale(0.1 -0.1)">
       <use xlink:href="#DejaVuSans-33"/>
       <use x="63.623047" xlink:href="#DejaVuSans-30"/>
       <use x="127.246094" xlink:href="#DejaVuSans-30"/>
       <use x="190.869141" xlink:href="#DejaVuSans-30"/>
      </g>
     </g>
    </g>
    <g id="xtick_26">
     <g id="line2d_52">
      <g>
       <use style="stroke:#000000;stroke-width:0.8;" x="1117.817268" xlink:href="#m53629918e6" y="640.8"/>
      </g>
     </g>
     <g id="text_46">
      <!-- 3500 -->
      <g transform="translate(1105.092268 655.398438)scale(0.1 -0.1)">
       <use xlink:href="#DejaVuSans-33"/>
       <use x="63.623047" xlink:href="#DejaVuSans-35"/>
       <use x="127.246094" xlink:href="#DejaVuSans-30"/>
       <use x="190.869141" xlink:href="#DejaVuSans-30"/>
      </g>
     </g>
    </g>
    <g id="xtick_27">
     <g id="line2d_53">
      <g>
       <use style="stroke:#000000;stroke-width:0.8;" x="1245.272727" xlink:href="#m53629918e6" y="640.8"/>
      </g>
     </g>
     <g id="text_47">
      <!-- 4000 -->
      <g transform="translate(1232.547727 655.398438)scale(0.1 -0.1)">
       <use xlink:href="#DejaVuSans-34"/>
       <use x="63.623047" xlink:href="#DejaVuSans-30"/>
       <use x="127.246094" xlink:href="#DejaVuSans-30"/>
       <use x="190.869141" xlink:href="#DejaVuSans-30"/>
      </g>
     </g>
    </g>
    <g id="text_48">
     <!-- Time -->
     <defs>
      <path d="M 9.421875 54.6875 
L 18.40625 54.6875 
L 18.40625 0 
L 9.421875 0 
z
M 9.421875 75.984375 
L 18.40625 75.984375 
L 18.40625 64.59375 
L 9.421875 64.59375 
z
" id="DejaVuSans-69"/>
      <path d="M 52 44.1875 
Q 55.375 50.25 60.0625 53.125 
Q 64.75 56 71.09375 56 
Q 79.640625 56 84.28125 50.015625 
Q 88.921875 44.046875 88.921875 33.015625 
L 88.921875 0 
L 79.890625 0 
L 79.890625 32.71875 
Q 79.890625 40.578125 77.09375 44.375 
Q 74.3125 48.1875 68.609375 48.1875 
Q 61.625 48.1875 57.5625 43.546875 
Q 53.515625 38.921875 53.515625 30.90625 
L 53.515625 0 
L 44.484375 0 
L 44.484375 32.71875 
Q 44.484375 40.625 41.703125 44.40625 
Q 38.921875 48.1875 33.109375 48.1875 
Q 26.21875 48.1875 22.15625 43.53125 
Q 18.109375 38.875 18.109375 30.90625 
L 18.109375 0 
L 9.078125 0 
L 9.078125 54.6875 
L 18.109375 54.6875 
L 18.109375 46.1875 
Q 21.1875 51.21875 25.484375 53.609375 
Q 29.78125 56 35.6875 56 
Q 41.65625 56 45.828125 52.96875 
Q 50 49.953125 52 44.1875 
z
" id="DejaVuSans-6d"/>
     </defs>
     <g transform="translate(725.6125 669.076563)scale(0.1 -0.1)">
      <use xlink:href="#DejaVuSans-54"/>
      <use x="61.037109" xlink:href="#DejaVuSans-69"/>
      <use x="88.820312" xlink:href="#DejaVuSans-6d"/>
      <use x="186.232422" xlink:href="#DejaVuSans-65"/>
     </g>
    </g>
   </g>
   <g id="matplotlib.axis_6">
    <g id="ytick_15">
     <g id="line2d_54">
      <g>
       <use style="stroke:#000000;stroke-width:0.8;" x="180" xlink:href="#m5020406d02" y="634.313444"/>
      </g>
     </g>
     <g id="text_49">
      <!-- 2.3 -->
      <g transform="translate(157.096875 638.112663)scale(0.1 -0.1)">
       <use xlink:href="#DejaVuSans-32"/>
       <use x="63.623047" xlink:href="#DejaVuSans-2e"/>
       <use x="95.410156" xlink:href="#DejaVuSans-33"/>
      </g>
     </g>
    </g>
    <g id="ytick_16">
     <g id="line2d_55">
      <g>
       <use style="stroke:#000000;stroke-width:0.8;" x="180" xlink:href="#m5020406d02" y="606.679387"/>
      </g>
     </g>
     <g id="text_50">
      <!-- 2.4 -->
      <g transform="translate(157.096875 610.478606)scale(0.1 -0.1)">
       <use xlink:href="#DejaVuSans-32"/>
       <use x="63.623047" xlink:href="#DejaVuSans-2e"/>
       <use x="95.410156" xlink:href="#DejaVuSans-34"/>
      </g>
     </g>
    </g>
    <g id="ytick_17">
     <g id="line2d_56">
      <g>
       <use style="stroke:#000000;stroke-width:0.8;" x="180" xlink:href="#m5020406d02" y="579.04533"/>
      </g>
     </g>
     <g id="text_51">
      <!-- 2.5 -->
      <g transform="translate(157.096875 582.844548)scale(0.1 -0.1)">
       <use xlink:href="#DejaVuSans-32"/>
       <use x="63.623047" xlink:href="#DejaVuSans-2e"/>
       <use x="95.410156" xlink:href="#DejaVuSans-35"/>
      </g>
     </g>
    </g>
    <g id="ytick_18">
     <g id="line2d_57">
      <g>
       <use style="stroke:#000000;stroke-width:0.8;" x="180" xlink:href="#m5020406d02" y="551.411272"/>
      </g>
     </g>
     <g id="text_52">
      <!-- 2.6 -->
      <g transform="translate(157.096875 555.210491)scale(0.1 -0.1)">
       <use xlink:href="#DejaVuSans-32"/>
       <use x="63.623047" xlink:href="#DejaVuSans-2e"/>
       <use x="95.410156" xlink:href="#DejaVuSans-36"/>
      </g>
     </g>
    </g>
    <g id="ytick_19">
     <g id="line2d_58">
      <g>
       <use style="stroke:#000000;stroke-width:0.8;" x="180" xlink:href="#m5020406d02" y="523.777215"/>
      </g>
     </g>
     <g id="text_53">
      <!-- 2.7 -->
      <defs>
       <path d="M 8.203125 72.90625 
L 55.078125 72.90625 
L 55.078125 68.703125 
L 28.609375 0 
L 18.3125 0 
L 43.21875 64.59375 
L 8.203125 64.59375 
z
" id="DejaVuSans-37"/>
      </defs>
      <g transform="translate(157.096875 527.576434)scale(0.1 -0.1)">
       <use xlink:href="#DejaVuSans-32"/>
       <use x="63.623047" xlink:href="#DejaVuSans-2e"/>
       <use x="95.410156" xlink:href="#DejaVuSans-37"/>
      </g>
     </g>
    </g>
    <g id="ytick_20">
     <g id="line2d_59">
      <g>
       <use style="stroke:#000000;stroke-width:0.8;" x="180" xlink:href="#m5020406d02" y="496.143158"/>
      </g>
     </g>
     <g id="text_54">
      <!-- 2.8 -->
      <g transform="translate(157.096875 499.942377)scale(0.1 -0.1)">
       <use xlink:href="#DejaVuSans-32"/>
       <use x="63.623047" xlink:href="#DejaVuSans-2e"/>
       <use x="95.410156" xlink:href="#DejaVuSans-38"/>
      </g>
     </g>
    </g>
    <g id="text_55">
     <!-- Control Input -->
     <defs>
      <path d="M 64.40625 67.28125 
L 64.40625 56.890625 
Q 59.421875 61.53125 53.78125 63.8125 
Q 48.140625 66.109375 41.796875 66.109375 
Q 29.296875 66.109375 22.65625 58.46875 
Q 16.015625 50.828125 16.015625 36.375 
Q 16.015625 21.96875 22.65625 14.328125 
Q 29.296875 6.6875 41.796875 6.6875 
Q 48.140625 6.6875 53.78125 8.984375 
Q 59.421875 11.28125 64.40625 15.921875 
L 64.40625 5.609375 
Q 59.234375 2.09375 53.4375 0.328125 
Q 47.65625 -1.421875 41.21875 -1.421875 
Q 24.65625 -1.421875 15.125 8.703125 
Q 5.609375 18.84375 5.609375 36.375 
Q 5.609375 53.953125 15.125 64.078125 
Q 24.65625 74.21875 41.21875 74.21875 
Q 47.75 74.21875 53.53125 72.484375 
Q 59.328125 70.75 64.40625 67.28125 
z
" id="DejaVuSans-43"/>
      <path d="M 30.609375 48.390625 
Q 23.390625 48.390625 19.1875 42.75 
Q 14.984375 37.109375 14.984375 27.296875 
Q 14.984375 17.484375 19.15625 11.84375 
Q 23.34375 6.203125 30.609375 6.203125 
Q 37.796875 6.203125 41.984375 11.859375 
Q 46.1875 17.53125 46.1875 27.296875 
Q 46.1875 37.015625 41.984375 42.703125 
Q 37.796875 48.390625 30.609375 48.390625 
z
M 30.609375 56 
Q 42.328125 56 49.015625 48.375 
Q 55.71875 40.765625 55.71875 27.296875 
Q 55.71875 13.875 49.015625 6.21875 
Q 42.328125 -1.421875 30.609375 -1.421875 
Q 18.84375 -1.421875 12.171875 6.21875 
Q 5.515625 13.875 5.515625 27.296875 
Q 5.515625 40.765625 12.171875 48.375 
Q 18.84375 56 30.609375 56 
z
" id="DejaVuSans-6f"/>
      <path d="M 54.890625 33.015625 
L 54.890625 0 
L 45.90625 0 
L 45.90625 32.71875 
Q 45.90625 40.484375 42.875 44.328125 
Q 39.84375 48.1875 33.796875 48.1875 
Q 26.515625 48.1875 22.3125 43.546875 
Q 18.109375 38.921875 18.109375 30.90625 
L 18.109375 0 
L 9.078125 0 
L 9.078125 54.6875 
L 18.109375 54.6875 
L 18.109375 46.1875 
Q 21.34375 51.125 25.703125 53.5625 
Q 30.078125 56 35.796875 56 
Q 45.21875 56 50.046875 50.171875 
Q 54.890625 44.34375 54.890625 33.015625 
z
" id="DejaVuSans-6e"/>
      <path d="M 9.421875 75.984375 
L 18.40625 75.984375 
L 18.40625 0 
L 9.421875 0 
z
" id="DejaVuSans-6c"/>
      <path d="M 9.8125 72.90625 
L 19.671875 72.90625 
L 19.671875 0 
L 9.8125 0 
z
" id="DejaVuSans-49"/>
      <path d="M 18.109375 8.203125 
L 18.109375 -20.796875 
L 9.078125 -20.796875 
L 9.078125 54.6875 
L 18.109375 54.6875 
L 18.109375 46.390625 
Q 20.953125 51.265625 25.265625 53.625 
Q 29.59375 56 35.59375 56 
Q 45.5625 56 51.78125 48.09375 
Q 58.015625 40.1875 58.015625 27.296875 
Q 58.015625 14.40625 51.78125 6.484375 
Q 45.5625 -1.421875 35.59375 -1.421875 
Q 29.59375 -1.421875 25.265625 0.953125 
Q 20.953125 3.328125 18.109375 8.203125 
z
M 48.6875 27.296875 
Q 48.6875 37.203125 44.609375 42.84375 
Q 40.53125 48.484375 33.40625 48.484375 
Q 26.265625 48.484375 22.1875 42.84375 
Q 18.109375 37.203125 18.109375 27.296875 
Q 18.109375 17.390625 22.1875 11.75 
Q 26.265625 6.109375 33.40625 6.109375 
Q 40.53125 6.109375 44.609375 11.75 
Q 48.6875 17.390625 48.6875 27.296875 
z
" id="DejaVuSans-70"/>
     </defs>
     <g transform="translate(151.017188 591.988557)rotate(-90)scale(0.1 -0.1)">
      <use xlink:href="#DejaVuSans-43"/>
      <use x="69.824219" xlink:href="#DejaVuSans-6f"/>
      <use x="131.005859" xlink:href="#DejaVuSans-6e"/>
      <use x="194.384766" xlink:href="#DejaVuSans-74"/>
      <use x="233.59375" xlink:href="#DejaVuSans-72"/>
      <use x="274.675781" xlink:href="#DejaVuSans-6f"/>
      <use x="335.857422" xlink:href="#DejaVuSans-6c"/>
      <use x="363.640625" xlink:href="#DejaVuSans-20"/>
      <use x="395.427734" xlink:href="#DejaVuSans-49"/>
      <use x="424.919922" xlink:href="#DejaVuSans-6e"/>
      <use x="488.298828" xlink:href="#DejaVuSans-70"/>
      <use x="551.775391" xlink:href="#DejaVuSans-75"/>
      <use x="615.154297" xlink:href="#DejaVuSans-74"/>
     </g>
    </g>
   </g>
   <g id="line2d_60">
    <path clip-path="url(#p7856c8df85)" d="M 230.727273 506.026105 
L 235.825491 540.165945 
L 240.923709 542.445886 
L 246.021928 499.958102 
L 251.120146 529.709736 
L 256.218365 516.160343 
L 261.316583 552.822523 
L 266.414801 513.973363 
L 271.51302 516.163666 
L 276.611238 485.152941 
L 281.709456 522.826113 
L 286.807675 527.242222 
L 291.905893 525.589139 
L 297.004111 562.124174 
L 302.10233 556.703422 
L 307.200548 578.99221 
L 312.298767 565.331259 
L 317.396985 549.425458 
L 322.495203 536.415237 
L 327.593422 534.419167 
L 332.69164 528.294437 
L 337.789858 497.507451 
L 342.888077 535.278979 
L 347.986295 516.720499 
L 353.084513 548.924186 
L 358.182732 531.839258 
L 363.28095 571.780909 
L 368.379169 570.256297 
L 373.477387 580.736126 
L 378.575605 553.697258 
L 383.673824 525.53662 
L 388.772042 554.674426 
L 393.87026 494.764819 
L 398.968479 522.251014 
L 404.066697 507.526683 
L 409.164915 550.28314 
L 414.263134 530.468878 
L 419.361352 532.001456 
L 424.459571 589.091532 
L 429.557789 555.806973 
L 434.656007 569.766601 
L 439.754226 544.637612 
L 444.852444 560.019737 
L 449.950662 549.646665 
L 455.048881 564.683841 
L 460.147099 598.245238 
L 465.245317 567.216295 
L 470.343536 532.184518 
L 475.441754 559.799155 
L 480.539973 526.975249 
L 485.638191 548.661905 
L 490.736409 556.852312 
L 495.834628 571.72095 
L 500.932846 585.240795 
L 506.031064 559.83128 
L 511.129283 557.752162 
L 516.227501 540.413581 
L 521.32572 572.143606 
L 526.423938 555.125262 
L 531.522156 551.119415 
L 536.620375 524.139408 
L 541.718593 508.535872 
L 546.816811 539.687682 
L 551.91503 540.557841 
L 557.013248 539.43528 
L 562.111466 621.234874 
L 567.209685 594.438902 
L 572.307903 574.230302 
L 577.406122 587.84724 
L 582.50434 562.633166 
L 587.602558 585.257908 
L 592.700777 583.875487 
L 597.798995 563.995262 
L 602.897213 562.870543 
L 607.995432 551.484012 
L 613.09365 582.653945 
L 618.191868 549.409489 
L 623.290087 553.47211 
L 628.388305 579.918186 
L 633.486524 567.854828 
L 638.584742 604.236205 
L 643.68296 595.059066 
L 648.781179 550.338808 
L 653.879397 572.162757 
L 658.977615 577.308232 
L 664.075834 531.835755 
L 669.174052 572.163821 
L 674.27227 565.891609 
L 679.370489 588.081148 
L 684.468707 595.428671 
L 689.566926 572.905926 
L 694.665144 610.924524 
L 699.763362 569.503324 
L 704.861581 554.305118 
L 709.959799 611.682433 
L 715.058017 577.539419 
L 720.156236 574.10789 
L 725.254454 581.538157 
L 730.352672 543.458453 
L 735.450891 566.764105 
L 740.549109 541.509886 
L 745.647328 555.595704 
L 750.745546 585.118197 
L 755.843764 606.72303 
L 760.941983 565.70952 
L 766.040201 569.039625 
L 771.138419 567.959257 
L 776.236638 587.622278 
L 781.334856 622.191572 
L 786.433074 577.737935 
L 791.531293 598.956449 
L 796.629511 568.128544 
L 801.72773 556.053497 
L 806.825948 577.932361 
L 811.924166 553.881094 
L 817.022385 562.191014 
L 822.120603 585.072981 
L 827.218821 570.634663 
L 832.31704 588.526637 
L 837.415258 603.857715 
L 842.513476 607.000329 
L 847.611695 581.947334 
L 852.709913 568.878304 
L 857.808132 573.707936 
L 862.90635 574.414767 
L 873.102787 539.746543 
L 878.201005 550.856595 
L 883.299223 566.905647 
L 888.397442 583.643326 
L 893.49566 602.761085 
L 898.593878 594.993642 
L 903.692097 610.668978 
L 908.790315 574.936166 
L 913.888534 566.294616 
L 918.986752 584.468451 
L 924.08497 604.248324 
L 929.183189 579.707732 
L 934.281407 584.295766 
L 939.379625 559.055412 
L 944.477844 552.26245 
L 949.576062 564.116797 
L 954.67428 568.107956 
L 959.772499 567.247155 
L 964.870717 585.376265 
L 969.968936 576.746162 
L 975.067154 589.804926 
L 980.165372 599.505289 
L 985.263591 550.292356 
L 990.361809 535.306614 
L 995.460027 581.309685 
L 1000.558246 589.68543 
L 1005.656464 585.906645 
L 1010.754683 605.040273 
L 1015.852901 553.933744 
L 1020.951119 581.577051 
L 1026.049338 611.685649 
L 1031.147556 587.815523 
L 1036.245774 598.930293 
L 1041.343993 573.275601 
L 1046.442211 597.955543 
L 1051.540429 585.499989 
L 1056.638648 581.909772 
L 1061.736866 545.970299 
L 1066.835085 588.816497 
L 1071.933303 584.820412 
L 1077.031521 560.828607 
L 1082.12974 570.621136 
L 1087.227958 582.138151 
L 1092.326176 549.378801 
L 1097.424395 573.546387 
L 1102.522613 603.159029 
L 1107.620831 600.96275 
L 1112.71905 595.689951 
L 1117.817268 633.388235 
L 1122.915487 600.526581 
L 1128.013705 603.338492 
L 1133.111923 583.474192 
L 1138.210142 554.979983 
L 1143.30836 563.595273 
L 1148.406578 568.045441 
L 1153.504797 585.566857 
L 1158.603015 606.37973 
L 1163.701233 595.903735 
L 1168.799452 584.895435 
L 1173.89767 603.708823 
L 1178.995889 549.803426 
L 1184.094107 579.943084 
L 1189.192325 598.850673 
L 1194.290544 567.061385 
L 1199.388762 551.686245 
L 1204.48698 525.549208 
L 1209.585199 578.92975 
L 1214.683417 571.466579 
L 1219.781635 597.851888 
L 1224.879854 629.997834 
L 1229.978072 584.903418 
L 1235.076291 610.530055 
L 1240.174509 619.036619 
L 1245.272727 552.507902 
L 1245.272727 552.507902 
" style="fill:none;stroke:#ff0000;stroke-linecap:square;stroke-width:1.5;"/>
   </g>
   <g id="patch_15">
    <path d="M 180 640.8 
L 180 477.741176 
" style="fill:none;stroke:#000000;stroke-linecap:square;stroke-linejoin:miter;stroke-width:0.8;"/>
   </g>
   <g id="patch_16">
    <path d="M 1296 640.8 
L 1296 477.741176 
" style="fill:none;stroke:#000000;stroke-linecap:square;stroke-linejoin:miter;stroke-width:0.8;"/>
   </g>
   <g id="patch_17">
    <path d="M 180 640.8 
L 1296 640.8 
" style="fill:none;stroke:#000000;stroke-linecap:square;stroke-linejoin:miter;stroke-width:0.8;"/>
   </g>
   <g id="patch_18">
    <path d="M 180 477.741176 
L 1296 477.741176 
" style="fill:none;stroke:#000000;stroke-linecap:square;stroke-linejoin:miter;stroke-width:0.8;"/>
   </g>
   <g id="legend_3">
    <g id="patch_19">
     <path d="M 1194.742188 500.419301 
L 1289 500.419301 
Q 1291 500.419301 1291 498.419301 
L 1291 484.741176 
Q 1291 482.741176 1289 482.741176 
L 1194.742188 482.741176 
Q 1192.742188 482.741176 1192.742188 484.741176 
L 1192.742188 498.419301 
Q 1192.742188 500.419301 1194.742188 500.419301 
z
" style="fill:#ffffff;opacity:0.8;stroke:#cccccc;stroke-linejoin:miter;"/>
    </g>
    <g id="line2d_61">
     <path d="M 1196.742188 490.839614 
L 1216.742188 490.839614 
" style="fill:none;stroke:#ff0000;stroke-linecap:square;stroke-width:1.5;"/>
    </g>
    <g id="line2d_62"/>
    <g id="text_56">
     <!-- ControlInput -->
     <g transform="translate(1224.742188 494.339614)scale(0.1 -0.1)">
      <use xlink:href="#DejaVuSans-43"/>
      <use x="69.824219" xlink:href="#DejaVuSans-6f"/>
      <use x="131.005859" xlink:href="#DejaVuSans-6e"/>
      <use x="194.384766" xlink:href="#DejaVuSans-74"/>
      <use x="233.59375" xlink:href="#DejaVuSans-72"/>
      <use x="274.675781" xlink:href="#DejaVuSans-6f"/>
      <use x="335.857422" xlink:href="#DejaVuSans-6c"/>
      <use x="363.640625" xlink:href="#DejaVuSans-49"/>
      <use x="393.132812" xlink:href="#DejaVuSans-6e"/>
      <use x="456.511719" xlink:href="#DejaVuSans-70"/>
      <use x="519.988281" xlink:href="#DejaVuSans-75"/>
      <use x="583.367188" xlink:href="#DejaVuSans-74"/>
     </g>
    </g>
   </g>
  </g>
 </g>
 <defs>
  <clipPath id="p9f376d5ff5">
   <rect height="163.058824" width="1116" x="180" y="86.4"/>
  </clipPath>
  <clipPath id="p26c89e667c">
   <rect height="163.058824" width="1116" x="180" y="282.070588"/>
  </clipPath>
  <clipPath id="p7856c8df85">
   <rect height="163.058824" width="1116" x="180" y="477.741176"/>
  </clipPath>
 </defs>
</svg>
