<?xml version="1.0" encoding="utf-8" standalone="no"?>
<!DOCTYPE svg PUBLIC "-//W3C//DTD SVG 1.1//EN"
  "http://www.w3.org/Graphics/SVG/1.1/DTD/svg11.dtd">
<!-- Created with matplotlib (http://matplotlib.org/) -->
<svg height="720pt" version="1.1" viewBox="0 0 1440 720" width="1440pt" xmlns="http://www.w3.org/2000/svg" xmlns:xlink="http://www.w3.org/1999/xlink">
 <defs>
  <style type="text/css">
*{stroke-linecap:butt;stroke-linejoin:round;}
  </style>
 </defs>
 <g id="figure_1">
  <g id="patch_1">
   <path d="M 0 720 
L 1440 720 
L 1440 0 
L 0 0 
z
" style="fill:#ffffff;"/>
  </g>
  <g id="axes_1">
   <g id="patch_2">
    <path d="M 180 249.458824 
L 1296 249.458824 
L 1296 86.4 
L 180 86.4 
z
" style="fill:#ffffff;"/>
   </g>
   <g id="matplotlib.axis_1">
    <g id="xtick_1">
     <g id="line2d_1">
      <defs>
       <path d="M 0 0 
L 0 3.5 
" id="m154eabb5f2" style="stroke:#000000;stroke-width:0.8;"/>
      </defs>
      <g>
       <use style="stroke:#000000;stroke-width:0.8;" x="225.629054" xlink:href="#m154eabb5f2" y="249.458824"/>
      </g>
     </g>
     <g id="text_1">
      <!-- 0 -->
      <defs>
       <path d="M 31.78125 66.40625 
Q 24.171875 66.40625 20.328125 58.90625 
Q 16.5 51.421875 16.5 36.375 
Q 16.5 21.390625 20.328125 13.890625 
Q 24.171875 6.390625 31.78125 6.390625 
Q 39.453125 6.390625 43.28125 13.890625 
Q 47.125 21.390625 47.125 36.375 
Q 47.125 51.421875 43.28125 58.90625 
Q 39.453125 66.40625 31.78125 66.40625 
z
M 31.78125 74.21875 
Q 44.046875 74.21875 50.515625 64.515625 
Q 56.984375 54.828125 56.984375 36.375 
Q 56.984375 17.96875 50.515625 8.265625 
Q 44.046875 -1.421875 31.78125 -1.421875 
Q 19.53125 -1.421875 13.0625 8.265625 
Q 6.59375 17.96875 6.59375 36.375 
Q 6.59375 54.828125 13.0625 64.515625 
Q 19.53125 74.21875 31.78125 74.21875 
z
" id="DejaVuSans-30"/>
      </defs>
      <g transform="translate(222.447804 264.057261)scale(0.1 -0.1)">
       <use xlink:href="#DejaVuSans-30"/>
      </g>
     </g>
    </g>
    <g id="xtick_2">
     <g id="line2d_2">
      <g>
       <use style="stroke:#000000;stroke-width:0.8;" x="353.084513" xlink:href="#m154eabb5f2" y="249.458824"/>
      </g>
     </g>
     <g id="text_2">
      <!-- 500 -->
      <defs>
       <path d="M 10.796875 72.90625 
L 49.515625 72.90625 
L 49.515625 64.59375 
L 19.828125 64.59375 
L 19.828125 46.734375 
Q 21.96875 47.46875 24.109375 47.828125 
Q 26.265625 48.1875 28.421875 48.1875 
Q 40.625 48.1875 47.75 41.5 
Q 54.890625 34.8125 54.890625 23.390625 
Q 54.890625 11.625 47.5625 5.09375 
Q 40.234375 -1.421875 26.90625 -1.421875 
Q 22.3125 -1.421875 17.546875 -0.640625 
Q 12.796875 0.140625 7.71875 1.703125 
L 7.71875 11.625 
Q 12.109375 9.234375 16.796875 8.0625 
Q 21.484375 6.890625 26.703125 6.890625 
Q 35.15625 6.890625 40.078125 11.328125 
Q 45.015625 15.765625 45.015625 23.390625 
Q 45.015625 31 40.078125 35.4375 
Q 35.15625 39.890625 26.703125 39.890625 
Q 22.75 39.890625 18.8125 39.015625 
Q 14.890625 38.140625 10.796875 36.28125 
z
" id="DejaVuSans-35"/>
      </defs>
      <g transform="translate(343.540763 264.057261)scale(0.1 -0.1)">
       <use xlink:href="#DejaVuSans-35"/>
       <use x="63.623047" xlink:href="#DejaVuSans-30"/>
       <use x="127.246094" xlink:href="#DejaVuSans-30"/>
      </g>
     </g>
    </g>
    <g id="xtick_3">
     <g id="line2d_3">
      <g>
       <use style="stroke:#000000;stroke-width:0.8;" x="480.539973" xlink:href="#m154eabb5f2" y="249.458824"/>
      </g>
     </g>
     <g id="text_3">
      <!-- 1000 -->
      <defs>
       <path d="M 12.40625 8.296875 
L 28.515625 8.296875 
L 28.515625 63.921875 
L 10.984375 60.40625 
L 10.984375 69.390625 
L 28.421875 72.90625 
L 38.28125 72.90625 
L 38.28125 8.296875 
L 54.390625 8.296875 
L 54.390625 0 
L 12.40625 0 
z
" id="DejaVuSans-31"/>
      </defs>
      <g transform="translate(467.814973 264.057261)scale(0.1 -0.1)">
       <use xlink:href="#DejaVuSans-31"/>
       <use x="63.623047" xlink:href="#DejaVuSans-30"/>
       <use x="127.246094" xlink:href="#DejaVuSans-30"/>
       <use x="190.869141" xlink:href="#DejaVuSans-30"/>
      </g>
     </g>
    </g>
    <g id="xtick_4">
     <g id="line2d_4">
      <g>
       <use style="stroke:#000000;stroke-width:0.8;" x="607.995432" xlink:href="#m154eabb5f2" y="249.458824"/>
      </g>
     </g>
     <g id="text_4">
      <!-- 1500 -->
      <g transform="translate(595.270432 264.057261)scale(0.1 -0.1)">
       <use xlink:href="#DejaVuSans-31"/>
       <use x="63.623047" xlink:href="#DejaVuSans-35"/>
       <use x="127.246094" xlink:href="#DejaVuSans-30"/>
       <use x="190.869141" xlink:href="#DejaVuSans-30"/>
      </g>
     </g>
    </g>
    <g id="xtick_5">
     <g id="line2d_5">
      <g>
       <use style="stroke:#000000;stroke-width:0.8;" x="735.450891" xlink:href="#m154eabb5f2" y="249.458824"/>
      </g>
     </g>
     <g id="text_5">
      <!-- 2000 -->
      <defs>
       <path d="M 19.1875 8.296875 
L 53.609375 8.296875 
L 53.609375 0 
L 7.328125 0 
L 7.328125 8.296875 
Q 12.9375 14.109375 22.625 23.890625 
Q 32.328125 33.6875 34.8125 36.53125 
Q 39.546875 41.84375 41.421875 45.53125 
Q 43.3125 49.21875 43.3125 52.78125 
Q 43.3125 58.59375 39.234375 62.25 
Q 35.15625 65.921875 28.609375 65.921875 
Q 23.96875 65.921875 18.8125 64.3125 
Q 13.671875 62.703125 7.8125 59.421875 
L 7.8125 69.390625 
Q 13.765625 71.78125 18.9375 73 
Q 24.125 74.21875 28.421875 74.21875 
Q 39.75 74.21875 46.484375 68.546875 
Q 53.21875 62.890625 53.21875 53.421875 
Q 53.21875 48.921875 51.53125 44.890625 
Q 49.859375 40.875 45.40625 35.40625 
Q 44.1875 33.984375 37.640625 27.21875 
Q 31.109375 20.453125 19.1875 8.296875 
z
" id="DejaVuSans-32"/>
      </defs>
      <g transform="translate(722.725891 264.057261)scale(0.1 -0.1)">
       <use xlink:href="#DejaVuSans-32"/>
       <use x="63.623047" xlink:href="#DejaVuSans-30"/>
       <use x="127.246094" xlink:href="#DejaVuSans-30"/>
       <use x="190.869141" xlink:href="#DejaVuSans-30"/>
      </g>
     </g>
    </g>
    <g id="xtick_6">
     <g id="line2d_6">
      <g>
       <use style="stroke:#000000;stroke-width:0.8;" x="862.90635" xlink:href="#m154eabb5f2" y="249.458824"/>
      </g>
     </g>
     <g id="text_6">
      <!-- 2500 -->
      <g transform="translate(850.18135 264.057261)scale(0.1 -0.1)">
       <use xlink:href="#DejaVuSans-32"/>
       <use x="63.623047" xlink:href="#DejaVuSans-35"/>
       <use x="127.246094" xlink:href="#DejaVuSans-30"/>
       <use x="190.869141" xlink:href="#DejaVuSans-30"/>
      </g>
     </g>
    </g>
    <g id="xtick_7">
     <g id="line2d_7">
      <g>
       <use style="stroke:#000000;stroke-width:0.8;" x="990.361809" xlink:href="#m154eabb5f2" y="249.458824"/>
      </g>
     </g>
     <g id="text_7">
      <!-- 3000 -->
      <defs>
       <path d="M 40.578125 39.3125 
Q 47.65625 37.796875 51.625 33 
Q 55.609375 28.21875 55.609375 21.1875 
Q 55.609375 10.40625 48.1875 4.484375 
Q 40.765625 -1.421875 27.09375 -1.421875 
Q 22.515625 -1.421875 17.65625 -0.515625 
Q 12.796875 0.390625 7.625 2.203125 
L 7.625 11.71875 
Q 11.71875 9.328125 16.59375 8.109375 
Q 21.484375 6.890625 26.8125 6.890625 
Q 36.078125 6.890625 40.9375 10.546875 
Q 45.796875 14.203125 45.796875 21.1875 
Q 45.796875 27.640625 41.28125 31.265625 
Q 36.765625 34.90625 28.71875 34.90625 
L 20.21875 34.90625 
L 20.21875 43.015625 
L 29.109375 43.015625 
Q 36.375 43.015625 40.234375 45.921875 
Q 44.09375 48.828125 44.09375 54.296875 
Q 44.09375 59.90625 40.109375 62.90625 
Q 36.140625 65.921875 28.71875 65.921875 
Q 24.65625 65.921875 20.015625 65.03125 
Q 15.375 64.15625 9.8125 62.3125 
L 9.8125 71.09375 
Q 15.4375 72.65625 20.34375 73.4375 
Q 25.25 74.21875 29.59375 74.21875 
Q 40.828125 74.21875 47.359375 69.109375 
Q 53.90625 64.015625 53.90625 55.328125 
Q 53.90625 49.265625 50.4375 45.09375 
Q 46.96875 40.921875 40.578125 39.3125 
z
" id="DejaVuSans-33"/>
      </defs>
      <g transform="translate(977.636809 264.057261)scale(0.1 -0.1)">
       <use xlink:href="#DejaVuSans-33"/>
       <use x="63.623047" xlink:href="#DejaVuSans-30"/>
       <use x="127.246094" xlink:href="#DejaVuSans-30"/>
       <use x="190.869141" xlink:href="#DejaVuSans-30"/>
      </g>
     </g>
    </g>
    <g id="xtick_8">
     <g id="line2d_8">
      <g>
       <use style="stroke:#000000;stroke-width:0.8;" x="1117.817268" xlink:href="#m154eabb5f2" y="249.458824"/>
      </g>
     </g>
     <g id="text_8">
      <!-- 3500 -->
      <g transform="translate(1105.092268 264.057261)scale(0.1 -0.1)">
       <use xlink:href="#DejaVuSans-33"/>
       <use x="63.623047" xlink:href="#DejaVuSans-35"/>
       <use x="127.246094" xlink:href="#DejaVuSans-30"/>
       <use x="190.869141" xlink:href="#DejaVuSans-30"/>
      </g>
     </g>
    </g>
    <g id="xtick_9">
     <g id="line2d_9">
      <g>
       <use style="stroke:#000000;stroke-width:0.8;" x="1245.272727" xlink:href="#m154eabb5f2" y="249.458824"/>
      </g>
     </g>
     <g id="text_9">
      <!-- 4000 -->
      <defs>
       <path d="M 37.796875 64.3125 
L 12.890625 25.390625 
L 37.796875 25.390625 
z
M 35.203125 72.90625 
L 47.609375 72.90625 
L 47.609375 25.390625 
L 58.015625 25.390625 
L 58.015625 17.1875 
L 47.609375 17.1875 
L 47.609375 0 
L 37.796875 0 
L 37.796875 17.1875 
L 4.890625 17.1875 
L 4.890625 26.703125 
z
" id="DejaVuSans-34"/>
      </defs>
      <g transform="translate(1232.547727 264.057261)scale(0.1 -0.1)">
       <use xlink:href="#DejaVuSans-34"/>
       <use x="63.623047" xlink:href="#DejaVuSans-30"/>
       <use x="127.246094" xlink:href="#DejaVuSans-30"/>
       <use x="190.869141" xlink:href="#DejaVuSans-30"/>
      </g>
     </g>
    </g>
   </g>
   <g id="matplotlib.axis_2">
    <g id="ytick_1">
     <g id="line2d_10">
      <defs>
       <path d="M 0 0 
L -3.5 0 
" id="m296eda2daa" style="stroke:#000000;stroke-width:0.8;"/>
      </defs>
      <g>
       <use style="stroke:#000000;stroke-width:0.8;" x="180" xlink:href="#m296eda2daa" y="229.114031"/>
      </g>
     </g>
     <g id="text_10">
      <!-- −0.75 -->
      <defs>
       <path d="M 10.59375 35.5 
L 73.1875 35.5 
L 73.1875 27.203125 
L 10.59375 27.203125 
z
" id="DejaVuSans-2212"/>
       <path d="M 10.6875 12.40625 
L 21 12.40625 
L 21 0 
L 10.6875 0 
z
" id="DejaVuSans-2e"/>
       <path d="M 8.203125 72.90625 
L 55.078125 72.90625 
L 55.078125 68.703125 
L 28.609375 0 
L 18.3125 0 
L 43.21875 64.59375 
L 8.203125 64.59375 
z
" id="DejaVuSans-37"/>
      </defs>
      <g transform="translate(142.354688 232.91325)scale(0.1 -0.1)">
       <use xlink:href="#DejaVuSans-2212"/>
       <use x="83.789062" xlink:href="#DejaVuSans-30"/>
       <use x="147.412109" xlink:href="#DejaVuSans-2e"/>
       <use x="179.199219" xlink:href="#DejaVuSans-37"/>
       <use x="242.822266" xlink:href="#DejaVuSans-35"/>
      </g>
     </g>
    </g>
    <g id="ytick_2">
     <g id="line2d_11">
      <g>
       <use style="stroke:#000000;stroke-width:0.8;" x="180" xlink:href="#m296eda2daa" y="207.558985"/>
      </g>
     </g>
     <g id="text_11">
      <!-- −0.50 -->
      <g transform="translate(142.354688 211.358204)scale(0.1 -0.1)">
       <use xlink:href="#DejaVuSans-2212"/>
       <use x="83.789062" xlink:href="#DejaVuSans-30"/>
       <use x="147.412109" xlink:href="#DejaVuSans-2e"/>
       <use x="179.199219" xlink:href="#DejaVuSans-35"/>
       <use x="242.822266" xlink:href="#DejaVuSans-30"/>
      </g>
     </g>
    </g>
    <g id="ytick_3">
     <g id="line2d_12">
      <g>
       <use style="stroke:#000000;stroke-width:0.8;" x="180" xlink:href="#m296eda2daa" y="186.003939"/>
      </g>
     </g>
     <g id="text_12">
      <!-- −0.25 -->
      <g transform="translate(142.354688 189.803158)scale(0.1 -0.1)">
       <use xlink:href="#DejaVuSans-2212"/>
       <use x="83.789062" xlink:href="#DejaVuSans-30"/>
       <use x="147.412109" xlink:href="#DejaVuSans-2e"/>
       <use x="179.199219" xlink:href="#DejaVuSans-32"/>
       <use x="242.822266" xlink:href="#DejaVuSans-35"/>
      </g>
     </g>
    </g>
    <g id="ytick_4">
     <g id="line2d_13">
      <g>
       <use style="stroke:#000000;stroke-width:0.8;" x="180" xlink:href="#m296eda2daa" y="164.448893"/>
      </g>
     </g>
     <g id="text_13">
      <!-- 0.00 -->
      <g transform="translate(150.734375 168.248112)scale(0.1 -0.1)">
       <use xlink:href="#DejaVuSans-30"/>
       <use x="63.623047" xlink:href="#DejaVuSans-2e"/>
       <use x="95.410156" xlink:href="#DejaVuSans-30"/>
       <use x="159.033203" xlink:href="#DejaVuSans-30"/>
      </g>
     </g>
    </g>
    <g id="ytick_5">
     <g id="line2d_14">
      <g>
       <use style="stroke:#000000;stroke-width:0.8;" x="180" xlink:href="#m296eda2daa" y="142.893847"/>
      </g>
     </g>
     <g id="text_14">
      <!-- 0.25 -->
      <g transform="translate(150.734375 146.693066)scale(0.1 -0.1)">
       <use xlink:href="#DejaVuSans-30"/>
       <use x="63.623047" xlink:href="#DejaVuSans-2e"/>
       <use x="95.410156" xlink:href="#DejaVuSans-32"/>
       <use x="159.033203" xlink:href="#DejaVuSans-35"/>
      </g>
     </g>
    </g>
    <g id="ytick_6">
     <g id="line2d_15">
      <g>
       <use style="stroke:#000000;stroke-width:0.8;" x="180" xlink:href="#m296eda2daa" y="121.338801"/>
      </g>
     </g>
     <g id="text_15">
      <!-- 0.50 -->
      <g transform="translate(150.734375 125.13802)scale(0.1 -0.1)">
       <use xlink:href="#DejaVuSans-30"/>
       <use x="63.623047" xlink:href="#DejaVuSans-2e"/>
       <use x="95.410156" xlink:href="#DejaVuSans-35"/>
       <use x="159.033203" xlink:href="#DejaVuSans-30"/>
      </g>
     </g>
    </g>
    <g id="ytick_7">
     <g id="line2d_16">
      <g>
       <use style="stroke:#000000;stroke-width:0.8;" x="180" xlink:href="#m296eda2daa" y="99.783755"/>
      </g>
     </g>
     <g id="text_16">
      <!-- 0.75 -->
      <g transform="translate(150.734375 103.582974)scale(0.1 -0.1)">
       <use xlink:href="#DejaVuSans-30"/>
       <use x="63.623047" xlink:href="#DejaVuSans-2e"/>
       <use x="95.410156" xlink:href="#DejaVuSans-37"/>
       <use x="159.033203" xlink:href="#DejaVuSans-35"/>
      </g>
     </g>
    </g>
    <g id="text_17">
     <!-- TD State:0 -->
     <defs>
      <path d="M -0.296875 72.90625 
L 61.375 72.90625 
L 61.375 64.59375 
L 35.5 64.59375 
L 35.5 0 
L 25.59375 0 
L 25.59375 64.59375 
L -0.296875 64.59375 
z
" id="DejaVuSans-54"/>
      <path d="M 19.671875 64.796875 
L 19.671875 8.109375 
L 31.59375 8.109375 
Q 46.6875 8.109375 53.6875 14.9375 
Q 60.6875 21.78125 60.6875 36.53125 
Q 60.6875 51.171875 53.6875 57.984375 
Q 46.6875 64.796875 31.59375 64.796875 
z
M 9.8125 72.90625 
L 30.078125 72.90625 
Q 51.265625 72.90625 61.171875 64.09375 
Q 71.09375 55.28125 71.09375 36.53125 
Q 71.09375 17.671875 61.125 8.828125 
Q 51.171875 0 30.078125 0 
L 9.8125 0 
z
" id="DejaVuSans-44"/>
      <path id="DejaVuSans-20"/>
      <path d="M 53.515625 70.515625 
L 53.515625 60.890625 
Q 47.90625 63.578125 42.921875 64.890625 
Q 37.9375 66.21875 33.296875 66.21875 
Q 25.25 66.21875 20.875 63.09375 
Q 16.5 59.96875 16.5 54.203125 
Q 16.5 49.359375 19.40625 46.890625 
Q 22.3125 44.4375 30.421875 42.921875 
L 36.375 41.703125 
Q 47.40625 39.59375 52.65625 34.296875 
Q 57.90625 29 57.90625 20.125 
Q 57.90625 9.515625 50.796875 4.046875 
Q 43.703125 -1.421875 29.984375 -1.421875 
Q 24.8125 -1.421875 18.96875 -0.25 
Q 13.140625 0.921875 6.890625 3.21875 
L 6.890625 13.375 
Q 12.890625 10.015625 18.65625 8.296875 
Q 24.421875 6.59375 29.984375 6.59375 
Q 38.421875 6.59375 43.015625 9.90625 
Q 47.609375 13.234375 47.609375 19.390625 
Q 47.609375 24.75 44.3125 27.78125 
Q 41.015625 30.8125 33.5 32.328125 
L 27.484375 33.5 
Q 16.453125 35.6875 11.515625 40.375 
Q 6.59375 45.0625 6.59375 53.421875 
Q 6.59375 63.09375 13.40625 68.65625 
Q 20.21875 74.21875 32.171875 74.21875 
Q 37.3125 74.21875 42.625 73.28125 
Q 47.953125 72.359375 53.515625 70.515625 
z
" id="DejaVuSans-53"/>
      <path d="M 18.3125 70.21875 
L 18.3125 54.6875 
L 36.8125 54.6875 
L 36.8125 47.703125 
L 18.3125 47.703125 
L 18.3125 18.015625 
Q 18.3125 11.328125 20.140625 9.421875 
Q 21.96875 7.515625 27.59375 7.515625 
L 36.8125 7.515625 
L 36.8125 0 
L 27.59375 0 
Q 17.1875 0 13.234375 3.875 
Q 9.28125 7.765625 9.28125 18.015625 
L 9.28125 47.703125 
L 2.6875 47.703125 
L 2.6875 54.6875 
L 9.28125 54.6875 
L 9.28125 70.21875 
z
" id="DejaVuSans-74"/>
      <path d="M 34.28125 27.484375 
Q 23.390625 27.484375 19.1875 25 
Q 14.984375 22.515625 14.984375 16.5 
Q 14.984375 11.71875 18.140625 8.90625 
Q 21.296875 6.109375 26.703125 6.109375 
Q 34.1875 6.109375 38.703125 11.40625 
Q 43.21875 16.703125 43.21875 25.484375 
L 43.21875 27.484375 
z
M 52.203125 31.203125 
L 52.203125 0 
L 43.21875 0 
L 43.21875 8.296875 
Q 40.140625 3.328125 35.546875 0.953125 
Q 30.953125 -1.421875 24.3125 -1.421875 
Q 15.921875 -1.421875 10.953125 3.296875 
Q 6 8.015625 6 15.921875 
Q 6 25.140625 12.171875 29.828125 
Q 18.359375 34.515625 30.609375 34.515625 
L 43.21875 34.515625 
L 43.21875 35.40625 
Q 43.21875 41.609375 39.140625 45 
Q 35.0625 48.390625 27.6875 48.390625 
Q 23 48.390625 18.546875 47.265625 
Q 14.109375 46.140625 10.015625 43.890625 
L 10.015625 52.203125 
Q 14.9375 54.109375 19.578125 55.046875 
Q 24.21875 56 28.609375 56 
Q 40.484375 56 46.34375 49.84375 
Q 52.203125 43.703125 52.203125 31.203125 
z
" id="DejaVuSans-61"/>
      <path d="M 56.203125 29.59375 
L 56.203125 25.203125 
L 14.890625 25.203125 
Q 15.484375 15.921875 20.484375 11.0625 
Q 25.484375 6.203125 34.421875 6.203125 
Q 39.59375 6.203125 44.453125 7.46875 
Q 49.3125 8.734375 54.109375 11.28125 
L 54.109375 2.78125 
Q 49.265625 0.734375 44.1875 -0.34375 
Q 39.109375 -1.421875 33.890625 -1.421875 
Q 20.796875 -1.421875 13.15625 6.1875 
Q 5.515625 13.8125 5.515625 26.8125 
Q 5.515625 40.234375 12.765625 48.109375 
Q 20.015625 56 32.328125 56 
Q 43.359375 56 49.78125 48.890625 
Q 56.203125 41.796875 56.203125 29.59375 
z
M 47.21875 32.234375 
Q 47.125 39.59375 43.09375 43.984375 
Q 39.0625 48.390625 32.421875 48.390625 
Q 24.90625 48.390625 20.390625 44.140625 
Q 15.875 39.890625 15.1875 32.171875 
z
" id="DejaVuSans-65"/>
      <path d="M 11.71875 12.40625 
L 22.015625 12.40625 
L 22.015625 0 
L 11.71875 0 
z
M 11.71875 51.703125 
L 22.015625 51.703125 
L 22.015625 39.3125 
L 11.71875 39.3125 
z
" id="DejaVuSans-3a"/>
     </defs>
     <g transform="translate(136.275 194.523162)rotate(-90)scale(0.1 -0.1)">
      <use xlink:href="#DejaVuSans-54"/>
      <use x="61.083984" xlink:href="#DejaVuSans-44"/>
      <use x="138.085938" xlink:href="#DejaVuSans-20"/>
      <use x="169.873047" xlink:href="#DejaVuSans-53"/>
      <use x="233.349609" xlink:href="#DejaVuSans-74"/>
      <use x="272.558594" xlink:href="#DejaVuSans-61"/>
      <use x="333.837891" xlink:href="#DejaVuSans-74"/>
      <use x="373.046875" xlink:href="#DejaVuSans-65"/>
      <use x="434.570312" xlink:href="#DejaVuSans-3a"/>
      <use x="468.261719" xlink:href="#DejaVuSans-30"/>
     </g>
    </g>
   </g>
   <g id="line2d_17">
    <path clip-path="url(#p5eb4ac181d)" d="M 230.727273 199.768598 
L 235.825491 177.158587 
L 240.923709 183.586611 
L 246.021928 179.192826 
L 251.120146 180.26304 
L 256.218365 187.778399 
L 261.316583 178.339684 
L 266.414801 175.063495 
L 271.51302 167.343821 
L 276.611238 149.363962 
L 281.709456 150.101537 
L 286.807675 148.283547 
L 291.905893 152.676284 
L 297.004111 167.55345 
L 302.10233 199.445458 
L 307.200548 181.478509 
L 312.298767 189.412643 
L 317.396985 195.31802 
L 322.495203 191.579968 
L 327.593422 149.586111 
L 332.69164 148.863571 
L 337.789858 148.649622 
L 342.888077 148.22805 
L 353.084513 147.868435 
L 358.182732 145.326968 
L 363.28095 140.778224 
L 368.379169 138.875148 
L 373.477387 140.732478 
L 378.575605 142.246338 
L 383.673824 155.944237 
L 388.772042 189.237794 
L 393.87026 190.457044 
L 398.968479 185.487586 
L 404.066697 185.034354 
L 409.164915 173.085414 
L 414.263134 152.011442 
L 419.361352 152.720781 
L 424.459571 158.909357 
L 429.557789 154.364518 
L 434.656007 153.986398 
L 439.754226 166.301097 
L 444.852444 182.606354 
L 449.950662 187.553344 
L 455.048881 183.855816 
L 460.147099 184.424139 
L 465.245317 179.675074 
L 470.343536 151.819988 
L 475.441754 156.608625 
L 480.539973 152.51747 
L 485.638191 152.364966 
L 490.736409 152.078567 
L 495.834628 158.417668 
L 500.932846 165.738188 
L 506.031064 165.215853 
L 516.227501 165.379841 
L 521.32572 161.751418 
L 526.423938 137.987135 
L 531.522156 139.287647 
L 536.620375 136.456543 
L 541.718593 135.677639 
L 546.816811 135.664097 
L 551.91503 128.655957 
L 557.013248 130.906351 
L 562.111466 118.420493 
L 567.209685 108.814973 
L 572.307903 115.432705 
L 577.406122 118.200647 
L 582.50434 93.811765 
L 587.602558 94.469316 
L 592.700777 97.372406 
L 597.798995 110.609272 
L 602.897213 126.497191 
L 607.995432 130.261859 
L 613.09365 141.518168 
L 618.191868 141.496417 
L 623.290087 129.878064 
L 628.388305 141.492901 
L 633.486524 129.905458 
L 638.584742 135.848232 
L 643.68296 128.542688 
L 648.781179 129.680215 
L 653.879397 141.571558 
L 658.977615 152.947042 
L 674.27227 152.955642 
L 679.370489 141.481215 
L 684.468707 152.95381 
L 689.566926 165.280972 
L 720.156236 165.275976 
L 725.254454 165.945229 
L 730.352672 165.839536 
L 740.549109 191.281819 
L 745.647328 191.353415 
L 750.745546 191.048536 
L 755.843764 178.091453 
L 760.941983 204.016883 
L 766.040201 204.017721 
L 771.138419 216.980453 
L 776.236638 204.020907 
L 781.334856 225.618281 
L 786.433074 211.384035 
L 791.531293 211.708524 
L 796.629511 214.399379 
L 801.72773 199.309721 
L 806.825948 189.142607 
L 811.924166 178.085086 
L 817.022385 130.513439 
L 822.120603 165.277025 
L 827.218821 178.082122 
L 832.31704 165.275303 
L 852.709913 165.274237 
L 857.808132 191.041637 
L 862.90635 143.203226 
L 868.004568 232.681873 
L 873.102787 212.340205 
L 878.201005 227.953951 
L 883.299223 220.236401 
L 888.397442 207.04313 
L 893.49566 232.690774 
L 898.593878 202.481446 
L 903.692097 210.061846 
L 908.790315 202.666385 
L 913.888534 199.437145 
L 918.986752 187.372244 
L 924.08497 172.384842 
L 929.183189 165.377842 
L 934.281407 159.785699 
L 939.379625 164.004489 
L 944.477844 193.564615 
L 949.576062 194.439959 
L 959.772499 194.950583 
L 964.870717 203.176849 
L 969.968936 190.757374 
L 975.067154 172.891561 
L 980.165372 170.427449 
L 985.263591 176.18186 
L 990.361809 161.677536 
L 995.460027 164.726727 
L 1000.558246 175.535058 
L 1005.656464 185.212573 
L 1010.754683 185.511296 
L 1015.852901 175.230464 
L 1020.951119 169.21878 
L 1026.049338 182.040438 
L 1031.147556 169.258074 
L 1036.245774 137.463448 
L 1041.343993 138.939384 
L 1046.442211 138.72812 
L 1051.540429 137.875745 
L 1056.638648 166.201702 
L 1061.736866 210.390365 
L 1066.835085 209.741103 
L 1071.933303 209.69778 
L 1077.031521 215.931666 
L 1082.12974 211.055604 
L 1087.227958 200.945221 
L 1092.326176 191.498086 
L 1097.424395 188.379227 
L 1102.522613 190.140733 
L 1107.620831 187.905972 
L 1112.71905 203.207068 
L 1117.817268 180.275523 
L 1122.915487 186.007449 
L 1128.013705 185.220043 
L 1133.111923 193.24647 
L 1138.210142 190.692683 
L 1143.30836 192.544702 
L 1148.406578 237.078712 
L 1153.504797 220.670842 
L 1158.603015 220.774205 
L 1163.701233 199.970026 
L 1168.799452 174.622496 
L 1173.89767 114.468749 
L 1178.995889 122.935773 
L 1184.094107 129.019717 
L 1189.192325 129.081924 
L 1194.290544 127.372805 
L 1199.388762 175.115211 
L 1204.48698 166.857714 
L 1209.585199 166.562512 
L 1214.683417 166.449791 
L 1219.781635 164.556267 
L 1224.879854 165.140826 
L 1229.978072 149.783231 
L 1235.076291 126.652218 
L 1240.174509 139.637819 
L 1245.272727 139.527593 
L 1245.272727 139.527593 
" style="fill:none;stroke:#000000;stroke-linecap:square;stroke-width:4;"/>
   </g>
   <g id="line2d_18">
    <path clip-path="url(#p5eb4ac181d)" d="M 230.727273 203.247976 
L 235.825491 190.314948 
L 240.923709 203.247976 
L 246.021928 190.314948 
L 251.120146 190.314948 
L 256.218365 203.247976 
L 261.316583 177.381921 
L 271.51302 151.515866 
L 276.611238 164.448893 
L 281.709456 164.448893 
L 286.807675 151.515866 
L 291.905893 190.314948 
L 297.004111 190.314948 
L 302.10233 203.247976 
L 307.200548 138.582838 
L 312.298767 177.381921 
L 317.396985 190.314948 
L 327.593422 164.448893 
L 358.182732 164.448893 
L 368.379169 138.582838 
L 378.575605 164.448893 
L 388.772042 164.448893 
L 393.87026 177.381921 
L 398.968479 164.448893 
L 409.164915 164.448893 
L 414.263134 177.381921 
L 419.361352 138.582838 
L 424.459571 177.381921 
L 429.557789 164.448893 
L 434.656007 164.448893 
L 439.754226 138.582838 
L 444.852444 177.381921 
L 449.950662 190.314948 
L 455.048881 177.381921 
L 460.147099 177.381921 
L 465.245317 164.448893 
L 470.343536 164.448893 
L 475.441754 177.381921 
L 480.539973 164.448893 
L 531.522156 164.448893 
L 536.620375 138.582838 
L 546.816811 112.716783 
L 551.91503 138.582838 
L 557.013248 125.64981 
L 562.111466 125.64981 
L 567.209685 99.783755 
L 572.307903 125.64981 
L 577.406122 112.716783 
L 592.700777 112.716783 
L 602.897213 138.582838 
L 607.995432 125.64981 
L 613.09365 138.582838 
L 618.191868 138.582838 
L 623.290087 125.64981 
L 628.388305 138.582838 
L 633.486524 125.64981 
L 638.584742 138.582838 
L 643.68296 125.64981 
L 648.781179 125.64981 
L 658.977615 151.515866 
L 674.27227 151.515866 
L 679.370489 138.582838 
L 689.566926 164.448893 
L 730.352672 164.448893 
L 740.549109 190.314948 
L 750.745546 190.314948 
L 755.843764 177.381921 
L 760.941983 203.247976 
L 766.040201 203.247976 
L 771.138419 216.181004 
L 776.236638 203.247976 
L 781.334856 216.181004 
L 786.433074 203.247976 
L 796.629511 203.247976 
L 801.72773 190.314948 
L 806.825948 190.314948 
L 811.924166 177.381921 
L 817.022385 125.64981 
L 822.120603 164.448893 
L 827.218821 177.381921 
L 832.31704 164.448893 
L 852.709913 164.448893 
L 857.808132 190.314948 
L 862.90635 138.582838 
L 868.004568 216.181004 
L 873.102787 203.247976 
L 878.201005 216.181004 
L 888.397442 216.181004 
L 893.49566 242.047059 
L 898.593878 216.181004 
L 903.692097 229.114031 
L 908.790315 203.247976 
L 913.888534 190.314948 
L 918.986752 203.247976 
L 924.08497 203.247976 
L 934.281407 177.381921 
L 939.379625 190.314948 
L 944.477844 216.181004 
L 949.576062 190.314948 
L 959.772499 190.314948 
L 964.870717 203.247976 
L 969.968936 177.381921 
L 975.067154 190.314948 
L 980.165372 177.381921 
L 985.263591 190.314948 
L 990.361809 151.515866 
L 995.460027 164.448893 
L 1000.558246 190.314948 
L 1005.656464 177.381921 
L 1010.754683 190.314948 
L 1020.951119 138.582838 
L 1026.049338 177.381921 
L 1031.147556 164.448893 
L 1051.540429 164.448893 
L 1056.638648 190.314948 
L 1071.933303 190.314948 
L 1077.031521 203.247976 
L 1082.12974 190.314948 
L 1087.227958 190.314948 
L 1092.326176 203.247976 
L 1097.424395 190.314948 
L 1107.620831 190.314948 
L 1112.71905 216.181004 
L 1117.817268 177.381921 
L 1122.915487 190.314948 
L 1128.013705 190.314948 
L 1133.111923 203.247976 
L 1143.30836 203.247976 
L 1148.406578 216.181004 
L 1153.504797 190.314948 
L 1158.603015 190.314948 
L 1163.701233 125.64981 
L 1168.799452 164.448893 
L 1229.978072 164.448893 
L 1235.076291 125.64981 
L 1240.174509 164.448893 
L 1245.272727 164.448893 
L 1245.272727 164.448893 
" style="fill:none;stroke:#ff0000;stroke-linecap:square;stroke-width:1.5;"/>
   </g>
   <g id="patch_3">
    <path d="M 180 249.458824 
L 180 86.4 
" style="fill:none;stroke:#000000;stroke-linecap:square;stroke-linejoin:miter;stroke-width:0.8;"/>
   </g>
   <g id="patch_4">
    <path d="M 1296 249.458824 
L 1296 86.4 
" style="fill:none;stroke:#000000;stroke-linecap:square;stroke-linejoin:miter;stroke-width:0.8;"/>
   </g>
   <g id="patch_5">
    <path d="M 180 249.458824 
L 1296 249.458824 
" style="fill:none;stroke:#000000;stroke-linecap:square;stroke-linejoin:miter;stroke-width:0.8;"/>
   </g>
   <g id="patch_6">
    <path d="M 180 86.4 
L 1296 86.4 
" style="fill:none;stroke:#000000;stroke-linecap:square;stroke-linejoin:miter;stroke-width:0.8;"/>
   </g>
   <g id="legend_1">
    <g id="patch_7">
     <path d="M 1234.3125 123.75625 
L 1289 123.75625 
Q 1291 123.75625 1291 121.75625 
L 1291 93.4 
Q 1291 91.4 1289 91.4 
L 1234.3125 91.4 
Q 1232.3125 91.4 1232.3125 93.4 
L 1232.3125 121.75625 
Q 1232.3125 123.75625 1234.3125 123.75625 
z
" style="fill:#ffffff;opacity:0.8;stroke:#cccccc;stroke-linejoin:miter;"/>
    </g>
    <g id="line2d_19">
     <path d="M 1236.3125 99.498438 
L 1256.3125 99.498438 
" style="fill:none;stroke:#000000;stroke-linecap:square;stroke-width:4;"/>
    </g>
    <g id="line2d_20"/>
    <g id="text_18">
     <!-- Pred -->
     <defs>
      <path d="M 19.671875 64.796875 
L 19.671875 37.40625 
L 32.078125 37.40625 
Q 38.96875 37.40625 42.71875 40.96875 
Q 46.484375 44.53125 46.484375 51.125 
Q 46.484375 57.671875 42.71875 61.234375 
Q 38.96875 64.796875 32.078125 64.796875 
z
M 9.8125 72.90625 
L 32.078125 72.90625 
Q 44.34375 72.90625 50.609375 67.359375 
Q 56.890625 61.8125 56.890625 51.125 
Q 56.890625 40.328125 50.609375 34.8125 
Q 44.34375 29.296875 32.078125 29.296875 
L 19.671875 29.296875 
L 19.671875 0 
L 9.8125 0 
z
" id="DejaVuSans-50"/>
      <path d="M 41.109375 46.296875 
Q 39.59375 47.171875 37.8125 47.578125 
Q 36.03125 48 33.890625 48 
Q 26.265625 48 22.1875 43.046875 
Q 18.109375 38.09375 18.109375 28.8125 
L 18.109375 0 
L 9.078125 0 
L 9.078125 54.6875 
L 18.109375 54.6875 
L 18.109375 46.1875 
Q 20.953125 51.171875 25.484375 53.578125 
Q 30.03125 56 36.53125 56 
Q 37.453125 56 38.578125 55.875 
Q 39.703125 55.765625 41.0625 55.515625 
z
" id="DejaVuSans-72"/>
      <path d="M 45.40625 46.390625 
L 45.40625 75.984375 
L 54.390625 75.984375 
L 54.390625 0 
L 45.40625 0 
L 45.40625 8.203125 
Q 42.578125 3.328125 38.25 0.953125 
Q 33.9375 -1.421875 27.875 -1.421875 
Q 17.96875 -1.421875 11.734375 6.484375 
Q 5.515625 14.40625 5.515625 27.296875 
Q 5.515625 40.1875 11.734375 48.09375 
Q 17.96875 56 27.875 56 
Q 33.9375 56 38.25 53.625 
Q 42.578125 51.265625 45.40625 46.390625 
z
M 14.796875 27.296875 
Q 14.796875 17.390625 18.875 11.75 
Q 22.953125 6.109375 30.078125 6.109375 
Q 37.203125 6.109375 41.296875 11.75 
Q 45.40625 17.390625 45.40625 27.296875 
Q 45.40625 37.203125 41.296875 42.84375 
Q 37.203125 48.484375 30.078125 48.484375 
Q 22.953125 48.484375 18.875 42.84375 
Q 14.796875 37.203125 14.796875 27.296875 
z
" id="DejaVuSans-64"/>
     </defs>
     <g transform="translate(1264.3125 102.998438)scale(0.1 -0.1)">
      <use xlink:href="#DejaVuSans-50"/>
      <use x="60.287109" xlink:href="#DejaVuSans-72"/>
      <use x="101.369141" xlink:href="#DejaVuSans-65"/>
      <use x="162.892578" xlink:href="#DejaVuSans-64"/>
     </g>
    </g>
    <g id="line2d_21">
     <path d="M 1236.3125 114.176563 
L 1256.3125 114.176563 
" style="fill:none;stroke:#ff0000;stroke-linecap:square;stroke-width:1.5;"/>
    </g>
    <g id="line2d_22"/>
    <g id="text_19">
     <!-- True -->
     <defs>
      <path d="M 8.5 21.578125 
L 8.5 54.6875 
L 17.484375 54.6875 
L 17.484375 21.921875 
Q 17.484375 14.15625 20.5 10.265625 
Q 23.53125 6.390625 29.59375 6.390625 
Q 36.859375 6.390625 41.078125 11.03125 
Q 45.3125 15.671875 45.3125 23.6875 
L 45.3125 54.6875 
L 54.296875 54.6875 
L 54.296875 0 
L 45.3125 0 
L 45.3125 8.40625 
Q 42.046875 3.421875 37.71875 1 
Q 33.40625 -1.421875 27.6875 -1.421875 
Q 18.265625 -1.421875 13.375 4.4375 
Q 8.5 10.296875 8.5 21.578125 
z
M 31.109375 56 
z
" id="DejaVuSans-75"/>
     </defs>
     <g transform="translate(1264.3125 117.676563)scale(0.1 -0.1)">
      <use xlink:href="#DejaVuSans-54"/>
      <use x="60.865234" xlink:href="#DejaVuSans-72"/>
      <use x="101.978516" xlink:href="#DejaVuSans-75"/>
      <use x="165.357422" xlink:href="#DejaVuSans-65"/>
     </g>
    </g>
   </g>
  </g>
  <g id="axes_2">
   <g id="patch_8">
    <path d="M 180 445.129412 
L 1296 445.129412 
L 1296 282.070588 
L 180 282.070588 
z
" style="fill:#ffffff;"/>
   </g>
   <g id="matplotlib.axis_3">
    <g id="xtick_10">
     <g id="line2d_23">
      <g>
       <use style="stroke:#000000;stroke-width:0.8;" x="225.629054" xlink:href="#m154eabb5f2" y="445.129412"/>
      </g>
     </g>
     <g id="text_20">
      <!-- 0 -->
      <g transform="translate(222.447804 459.727849)scale(0.1 -0.1)">
       <use xlink:href="#DejaVuSans-30"/>
      </g>
     </g>
    </g>
    <g id="xtick_11">
     <g id="line2d_24">
      <g>
       <use style="stroke:#000000;stroke-width:0.8;" x="353.084513" xlink:href="#m154eabb5f2" y="445.129412"/>
      </g>
     </g>
     <g id="text_21">
      <!-- 500 -->
      <g transform="translate(343.540763 459.727849)scale(0.1 -0.1)">
       <use xlink:href="#DejaVuSans-35"/>
       <use x="63.623047" xlink:href="#DejaVuSans-30"/>
       <use x="127.246094" xlink:href="#DejaVuSans-30"/>
      </g>
     </g>
    </g>
    <g id="xtick_12">
     <g id="line2d_25">
      <g>
       <use style="stroke:#000000;stroke-width:0.8;" x="480.539973" xlink:href="#m154eabb5f2" y="445.129412"/>
      </g>
     </g>
     <g id="text_22">
      <!-- 1000 -->
      <g transform="translate(467.814973 459.727849)scale(0.1 -0.1)">
       <use xlink:href="#DejaVuSans-31"/>
       <use x="63.623047" xlink:href="#DejaVuSans-30"/>
       <use x="127.246094" xlink:href="#DejaVuSans-30"/>
       <use x="190.869141" xlink:href="#DejaVuSans-30"/>
      </g>
     </g>
    </g>
    <g id="xtick_13">
     <g id="line2d_26">
      <g>
       <use style="stroke:#000000;stroke-width:0.8;" x="607.995432" xlink:href="#m154eabb5f2" y="445.129412"/>
      </g>
     </g>
     <g id="text_23">
      <!-- 1500 -->
      <g transform="translate(595.270432 459.727849)scale(0.1 -0.1)">
       <use xlink:href="#DejaVuSans-31"/>
       <use x="63.623047" xlink:href="#DejaVuSans-35"/>
       <use x="127.246094" xlink:href="#DejaVuSans-30"/>
       <use x="190.869141" xlink:href="#DejaVuSans-30"/>
      </g>
     </g>
    </g>
    <g id="xtick_14">
     <g id="line2d_27">
      <g>
       <use style="stroke:#000000;stroke-width:0.8;" x="735.450891" xlink:href="#m154eabb5f2" y="445.129412"/>
      </g>
     </g>
     <g id="text_24">
      <!-- 2000 -->
      <g transform="translate(722.725891 459.727849)scale(0.1 -0.1)">
       <use xlink:href="#DejaVuSans-32"/>
       <use x="63.623047" xlink:href="#DejaVuSans-30"/>
       <use x="127.246094" xlink:href="#DejaVuSans-30"/>
       <use x="190.869141" xlink:href="#DejaVuSans-30"/>
      </g>
     </g>
    </g>
    <g id="xtick_15">
     <g id="line2d_28">
      <g>
       <use style="stroke:#000000;stroke-width:0.8;" x="862.90635" xlink:href="#m154eabb5f2" y="445.129412"/>
      </g>
     </g>
     <g id="text_25">
      <!-- 2500 -->
      <g transform="translate(850.18135 459.727849)scale(0.1 -0.1)">
       <use xlink:href="#DejaVuSans-32"/>
       <use x="63.623047" xlink:href="#DejaVuSans-35"/>
       <use x="127.246094" xlink:href="#DejaVuSans-30"/>
       <use x="190.869141" xlink:href="#DejaVuSans-30"/>
      </g>
     </g>
    </g>
    <g id="xtick_16">
     <g id="line2d_29">
      <g>
       <use style="stroke:#000000;stroke-width:0.8;" x="990.361809" xlink:href="#m154eabb5f2" y="445.129412"/>
      </g>
     </g>
     <g id="text_26">
      <!-- 3000 -->
      <g transform="translate(977.636809 459.727849)scale(0.1 -0.1)">
       <use xlink:href="#DejaVuSans-33"/>
       <use x="63.623047" xlink:href="#DejaVuSans-30"/>
       <use x="127.246094" xlink:href="#DejaVuSans-30"/>
       <use x="190.869141" xlink:href="#DejaVuSans-30"/>
      </g>
     </g>
    </g>
    <g id="xtick_17">
     <g id="line2d_30">
      <g>
       <use style="stroke:#000000;stroke-width:0.8;" x="1117.817268" xlink:href="#m154eabb5f2" y="445.129412"/>
      </g>
     </g>
     <g id="text_27">
      <!-- 3500 -->
      <g transform="translate(1105.092268 459.727849)scale(0.1 -0.1)">
       <use xlink:href="#DejaVuSans-33"/>
       <use x="63.623047" xlink:href="#DejaVuSans-35"/>
       <use x="127.246094" xlink:href="#DejaVuSans-30"/>
       <use x="190.869141" xlink:href="#DejaVuSans-30"/>
      </g>
     </g>
    </g>
    <g id="xtick_18">
     <g id="line2d_31">
      <g>
       <use style="stroke:#000000;stroke-width:0.8;" x="1245.272727" xlink:href="#m154eabb5f2" y="445.129412"/>
      </g>
     </g>
     <g id="text_28">
      <!-- 4000 -->
      <g transform="translate(1232.547727 459.727849)scale(0.1 -0.1)">
       <use xlink:href="#DejaVuSans-34"/>
       <use x="63.623047" xlink:href="#DejaVuSans-30"/>
       <use x="127.246094" xlink:href="#DejaVuSans-30"/>
       <use x="190.869141" xlink:href="#DejaVuSans-30"/>
      </g>
     </g>
    </g>
   </g>
   <g id="matplotlib.axis_4">
    <g id="ytick_8">
     <g id="line2d_32">
      <g>
       <use style="stroke:#000000;stroke-width:0.8;" x="180" xlink:href="#m296eda2daa" y="421.0121"/>
      </g>
     </g>
     <g id="text_29">
      <!-- −0.05 -->
      <g transform="translate(142.354688 424.811319)scale(0.1 -0.1)">
       <use xlink:href="#DejaVuSans-2212"/>
       <use x="83.789062" xlink:href="#DejaVuSans-30"/>
       <use x="147.412109" xlink:href="#DejaVuSans-2e"/>
       <use x="179.199219" xlink:href="#DejaVuSans-30"/>
       <use x="242.822266" xlink:href="#DejaVuSans-35"/>
      </g>
     </g>
    </g>
    <g id="ytick_9">
     <g id="line2d_33">
      <g>
       <use style="stroke:#000000;stroke-width:0.8;" x="180" xlink:href="#m296eda2daa" y="387.413746"/>
      </g>
     </g>
     <g id="text_30">
      <!-- 0.00 -->
      <g transform="translate(150.734375 391.212965)scale(0.1 -0.1)">
       <use xlink:href="#DejaVuSans-30"/>
       <use x="63.623047" xlink:href="#DejaVuSans-2e"/>
       <use x="95.410156" xlink:href="#DejaVuSans-30"/>
       <use x="159.033203" xlink:href="#DejaVuSans-30"/>
      </g>
     </g>
    </g>
    <g id="ytick_10">
     <g id="line2d_34">
      <g>
       <use style="stroke:#000000;stroke-width:0.8;" x="180" xlink:href="#m296eda2daa" y="353.815392"/>
      </g>
     </g>
     <g id="text_31">
      <!-- 0.05 -->
      <g transform="translate(150.734375 357.614611)scale(0.1 -0.1)">
       <use xlink:href="#DejaVuSans-30"/>
       <use x="63.623047" xlink:href="#DejaVuSans-2e"/>
       <use x="95.410156" xlink:href="#DejaVuSans-30"/>
       <use x="159.033203" xlink:href="#DejaVuSans-35"/>
      </g>
     </g>
    </g>
    <g id="ytick_11">
     <g id="line2d_35">
      <g>
       <use style="stroke:#000000;stroke-width:0.8;" x="180" xlink:href="#m296eda2daa" y="320.217038"/>
      </g>
     </g>
     <g id="text_32">
      <!-- 0.10 -->
      <g transform="translate(150.734375 324.016256)scale(0.1 -0.1)">
       <use xlink:href="#DejaVuSans-30"/>
       <use x="63.623047" xlink:href="#DejaVuSans-2e"/>
       <use x="95.410156" xlink:href="#DejaVuSans-31"/>
       <use x="159.033203" xlink:href="#DejaVuSans-30"/>
      </g>
     </g>
    </g>
    <g id="ytick_12">
     <g id="line2d_36">
      <g>
       <use style="stroke:#000000;stroke-width:0.8;" x="180" xlink:href="#m296eda2daa" y="286.618683"/>
      </g>
     </g>
     <g id="text_33">
      <!-- 0.15 -->
      <g transform="translate(150.734375 290.417902)scale(0.1 -0.1)">
       <use xlink:href="#DejaVuSans-30"/>
       <use x="63.623047" xlink:href="#DejaVuSans-2e"/>
       <use x="95.410156" xlink:href="#DejaVuSans-31"/>
       <use x="159.033203" xlink:href="#DejaVuSans-35"/>
      </g>
     </g>
    </g>
    <g id="text_34">
     <!-- TD State:1 -->
     <g transform="translate(136.275 390.19375)rotate(-90)scale(0.1 -0.1)">
      <use xlink:href="#DejaVuSans-54"/>
      <use x="61.083984" xlink:href="#DejaVuSans-44"/>
      <use x="138.085938" xlink:href="#DejaVuSans-20"/>
      <use x="169.873047" xlink:href="#DejaVuSans-53"/>
      <use x="233.349609" xlink:href="#DejaVuSans-74"/>
      <use x="272.558594" xlink:href="#DejaVuSans-61"/>
      <use x="333.837891" xlink:href="#DejaVuSans-74"/>
      <use x="373.046875" xlink:href="#DejaVuSans-65"/>
      <use x="434.570312" xlink:href="#DejaVuSans-3a"/>
      <use x="468.261719" xlink:href="#DejaVuSans-31"/>
     </g>
    </g>
   </g>
   <g id="line2d_37">
    <path clip-path="url(#pbc23df0ca1)" d="M 230.727273 382.692935 
L 235.825491 386.391252 
L 240.923709 386.553625 
L 246.021928 386.410795 
L 251.120146 386.399521 
L 256.218365 386.554244 
L 261.316583 385.840962 
L 271.51302 386.325634 
L 276.611238 387.739342 
L 286.807675 387.704202 
L 291.905893 387.812181 
L 297.004111 386.77624 
L 302.10233 386.128463 
L 307.200548 384.493183 
L 312.298767 385.143268 
L 317.396985 385.620987 
L 322.495203 385.084534 
L 327.593422 387.715577 
L 347.986295 387.811955 
L 353.084513 387.826855 
L 358.182732 387.58678 
L 363.28095 386.775876 
L 368.379169 386.639783 
L 373.477387 386.769157 
L 378.575605 387.119063 
L 383.673824 387.308335 
L 388.772042 384.207652 
L 393.87026 385.06554 
L 398.968479 384.646942 
L 404.066697 384.698473 
L 409.164915 386.260963 
L 414.263134 387.705089 
L 419.361352 387.395119 
L 424.459571 387.263536 
L 429.557789 387.409507 
L 434.656007 387.434008 
L 439.754226 386.256297 
L 444.852444 385.61561 
L 449.950662 386.164658 
L 455.048881 385.625185 
L 465.245317 385.675758 
L 470.343536 387.570848 
L 475.441754 387.409687 
L 485.638191 387.535136 
L 490.736409 387.553475 
L 500.932846 386.679052 
L 516.227501 386.701993 
L 521.32572 386.934267 
L 526.423938 386.637369 
L 546.816811 386.633193 
L 551.91503 384.115053 
L 557.013248 396.050116 
L 562.111466 432.883157 
L 567.209685 437.717647 
L 572.307903 409.881883 
L 577.406122 386.601317 
L 587.602558 386.561817 
L 592.700777 386.352262 
L 597.798995 385.354693 
L 602.897213 386.604309 
L 607.995432 386.931278 
L 613.09365 388.143962 
L 618.191868 388.133419 
L 623.290087 386.881151 
L 628.388305 388.133678 
L 633.486524 386.89769 
L 638.584742 387.415097 
L 643.68296 386.716776 
L 648.781179 386.863309 
L 653.879397 388.180741 
L 658.977615 387.976651 
L 674.27227 387.978812 
L 679.370489 388.135518 
L 684.468707 387.979244 
L 689.566926 386.963501 
L 730.352672 386.893103 
L 735.450891 385.911348 
L 740.549109 386.002099 
L 745.647328 385.958427 
L 750.745546 386.136095 
L 776.236638 386.150034 
L 781.334856 385.127591 
L 786.433074 384.969274 
L 791.531293 385.47461 
L 796.629511 360.446863 
L 801.72773 327.822699 
L 806.825948 386.089631 
L 811.924166 386.11414 
L 817.022385 386.941977 
L 822.120603 386.963196 
L 827.218821 386.114033 
L 832.31704 386.963301 
L 852.709913 386.963375 
L 857.808132 386.128157 
L 862.90635 388.0449 
L 868.004568 289.482353 
L 873.102787 316.677459 
L 878.201005 301.301173 
L 883.299223 325.190508 
L 888.397442 386.786799 
L 893.49566 379.897981 
L 898.593878 386.443672 
L 903.692097 386.60749 
L 908.790315 385.854574 
L 913.888534 385.314439 
L 918.986752 386.56413 
L 924.08497 386.501895 
L 929.183189 386.954553 
L 934.281407 387.204325 
L 939.379625 387.067299 
L 944.477844 386.610489 
L 949.576062 386.267516 
L 959.772499 386.295807 
L 964.870717 386.574796 
L 969.968936 385.671747 
L 975.067154 386.336251 
L 980.165372 386.517497 
L 985.263591 386.399241 
L 990.361809 386.801914 
L 995.460027 386.731713 
L 1000.558246 386.380192 
L 1005.656464 385.709804 
L 1010.754683 386.350524 
L 1015.852901 385.986389 
L 1020.951119 385.957784 
L 1026.049338 385.759476 
L 1031.147556 386.304193 
L 1036.245774 386.636236 
L 1051.540429 386.637078 
L 1056.638648 386.885735 
L 1061.736866 385.764215 
L 1071.933303 385.835938 
L 1077.031521 386.357051 
L 1082.12974 385.764262 
L 1087.227958 385.933619 
L 1092.326176 386.553488 
L 1097.424395 386.120753 
L 1107.620831 386.092399 
L 1112.71905 386.60654 
L 1117.817268 385.654626 
L 1122.915487 386.062676 
L 1128.013705 386.058738 
L 1133.111923 386.539723 
L 1143.30836 386.50385 
L 1148.406578 386.30377 
L 1153.504797 385.260472 
L 1158.603015 385.239978 
L 1163.701233 382.910386 
L 1168.799452 385.6912 
L 1173.89767 386.587992 
L 1194.290544 386.614222 
L 1199.388762 385.64511 
L 1204.48698 386.417603 
L 1214.683417 386.455761 
L 1219.781635 386.632903 
L 1224.879854 386.578218 
L 1229.978072 387.807623 
L 1235.076291 386.613106 
L 1240.174509 386.916706 
L 1245.272727 386.900105 
L 1245.272727 386.900105 
" style="fill:none;stroke:#000000;stroke-linecap:square;stroke-width:4;"/>
   </g>
   <g id="line2d_38">
    <path clip-path="url(#pbc23df0ca1)" d="M 230.727273 382.373993 
L 235.825491 392.453499 
L 240.923709 382.373993 
L 251.120146 392.453499 
L 256.218365 377.33424 
L 261.316583 382.373993 
L 266.414801 382.373993 
L 271.51302 392.453499 
L 281.709456 382.373993 
L 286.807675 402.533005 
L 291.905893 387.413746 
L 297.004111 392.453499 
L 302.10233 362.21498 
L 307.200548 402.533005 
L 317.396985 382.373993 
L 322.495203 382.373993 
L 327.593422 387.413746 
L 353.084513 387.413746 
L 358.182732 382.373993 
L 363.28095 382.373993 
L 368.379169 392.453499 
L 373.477387 392.453499 
L 378.575605 387.413746 
L 383.673824 387.413746 
L 388.772042 392.453499 
L 393.87026 382.373993 
L 398.968479 387.413746 
L 404.066697 387.413746 
L 409.164915 392.453499 
L 414.263134 372.294487 
L 419.361352 402.533005 
L 424.459571 382.373993 
L 429.557789 387.413746 
L 434.656007 377.33424 
L 439.754226 402.533005 
L 449.950662 382.373993 
L 455.048881 387.413746 
L 460.147099 382.373993 
L 470.343536 392.453499 
L 475.441754 382.373993 
L 480.539973 387.413746 
L 526.423938 387.413746 
L 531.522156 377.33424 
L 536.620375 382.373993 
L 541.718593 382.373993 
L 546.816811 397.493252 
L 551.91503 382.373993 
L 557.013248 387.413746 
L 562.111466 377.33424 
L 567.209685 397.493252 
L 572.307903 382.373993 
L 577.406122 387.413746 
L 587.602558 387.413746 
L 592.700777 392.453499 
L 597.798995 392.453499 
L 602.897213 382.373993 
L 607.995432 392.453499 
L 618.191868 382.373993 
L 623.290087 392.453499 
L 628.388305 382.373993 
L 633.486524 392.453499 
L 638.584742 382.373993 
L 648.781179 392.453499 
L 653.879397 392.453499 
L 658.977615 387.413746 
L 669.174052 387.413746 
L 674.27227 382.373993 
L 679.370489 392.453499 
L 684.468707 392.453499 
L 689.566926 387.413746 
L 725.254454 387.413746 
L 730.352672 392.453499 
L 735.450891 392.453499 
L 740.549109 387.413746 
L 745.647328 387.413746 
L 750.745546 382.373993 
L 755.843764 397.493252 
L 760.941983 387.413746 
L 766.040201 392.453499 
L 771.138419 382.373993 
L 776.236638 392.453499 
L 781.334856 382.373993 
L 786.433074 387.413746 
L 791.531293 387.413746 
L 796.629511 382.373993 
L 801.72773 387.413746 
L 806.825948 382.373993 
L 811.924166 367.254734 
L 817.022385 402.533005 
L 827.218821 382.373993 
L 832.31704 387.413746 
L 847.611695 387.413746 
L 852.709913 397.493252 
L 857.808132 367.254734 
L 862.90635 417.652265 
L 868.004568 382.373993 
L 873.102787 392.453499 
L 878.201005 387.413746 
L 883.299223 387.413746 
L 888.397442 397.493252 
L 893.49566 377.33424 
L 898.593878 392.453499 
L 903.692097 377.33424 
L 908.790315 382.373993 
L 913.888534 392.453499 
L 924.08497 382.373993 
L 929.183189 382.373993 
L 934.281407 392.453499 
L 939.379625 397.493252 
L 944.477844 377.33424 
L 949.576062 387.413746 
L 954.67428 387.413746 
L 959.772499 392.453499 
L 964.870717 377.33424 
L 969.968936 392.453499 
L 975.067154 382.373993 
L 980.165372 392.453499 
L 985.263591 372.294487 
L 990.361809 392.453499 
L 995.460027 397.493252 
L 1000.558246 382.373993 
L 1005.656464 392.453499 
L 1010.754683 377.33424 
L 1015.852901 377.33424 
L 1020.951119 402.533005 
L 1026.049338 382.373993 
L 1031.147556 387.413746 
L 1046.442211 387.413746 
L 1051.540429 397.493252 
L 1056.638648 387.413746 
L 1066.835085 387.413746 
L 1071.933303 392.453499 
L 1077.031521 382.373993 
L 1087.227958 392.453499 
L 1092.326176 382.373993 
L 1097.424395 387.413746 
L 1102.522613 387.413746 
L 1107.620831 397.493252 
L 1112.71905 372.294487 
L 1117.817268 392.453499 
L 1122.915487 387.413746 
L 1128.013705 392.453499 
L 1133.111923 387.413746 
L 1138.210142 387.413746 
L 1143.30836 392.453499 
L 1148.406578 377.33424 
L 1153.504797 387.413746 
L 1158.603015 362.21498 
L 1163.701233 402.533005 
L 1168.799452 387.413746 
L 1224.879854 387.413746 
L 1229.978072 372.294487 
L 1235.076291 402.533005 
L 1240.174509 387.413746 
L 1245.272727 377.33424 
L 1245.272727 377.33424 
" style="fill:none;stroke:#ff0000;stroke-linecap:square;stroke-width:1.5;"/>
   </g>
   <g id="patch_9">
    <path d="M 180 445.129412 
L 180 282.070588 
" style="fill:none;stroke:#000000;stroke-linecap:square;stroke-linejoin:miter;stroke-width:0.8;"/>
   </g>
   <g id="patch_10">
    <path d="M 1296 445.129412 
L 1296 282.070588 
" style="fill:none;stroke:#000000;stroke-linecap:square;stroke-linejoin:miter;stroke-width:0.8;"/>
   </g>
   <g id="patch_11">
    <path d="M 180 445.129412 
L 1296 445.129412 
" style="fill:none;stroke:#000000;stroke-linecap:square;stroke-linejoin:miter;stroke-width:0.8;"/>
   </g>
   <g id="patch_12">
    <path d="M 180 282.070588 
L 1296 282.070588 
" style="fill:none;stroke:#000000;stroke-linecap:square;stroke-linejoin:miter;stroke-width:0.8;"/>
   </g>
   <g id="legend_2">
    <g id="patch_13">
     <path d="M 1234.3125 319.426838 
L 1289 319.426838 
Q 1291 319.426838 1291 317.426838 
L 1291 289.070588 
Q 1291 287.070588 1289 287.070588 
L 1234.3125 287.070588 
Q 1232.3125 287.070588 1232.3125 289.070588 
L 1232.3125 317.426838 
Q 1232.3125 319.426838 1234.3125 319.426838 
z
" style="fill:#ffffff;opacity:0.8;stroke:#cccccc;stroke-linejoin:miter;"/>
    </g>
    <g id="line2d_39">
     <path d="M 1236.3125 295.169026 
L 1256.3125 295.169026 
" style="fill:none;stroke:#000000;stroke-linecap:square;stroke-width:4;"/>
    </g>
    <g id="line2d_40"/>
    <g id="text_35">
     <!-- Pred -->
     <g transform="translate(1264.3125 298.669026)scale(0.1 -0.1)">
      <use xlink:href="#DejaVuSans-50"/>
      <use x="60.287109" xlink:href="#DejaVuSans-72"/>
      <use x="101.369141" xlink:href="#DejaVuSans-65"/>
      <use x="162.892578" xlink:href="#DejaVuSans-64"/>
     </g>
    </g>
    <g id="line2d_41">
     <path d="M 1236.3125 309.847151 
L 1256.3125 309.847151 
" style="fill:none;stroke:#ff0000;stroke-linecap:square;stroke-width:1.5;"/>
    </g>
    <g id="line2d_42"/>
    <g id="text_36">
     <!-- True -->
     <g transform="translate(1264.3125 313.347151)scale(0.1 -0.1)">
      <use xlink:href="#DejaVuSans-54"/>
      <use x="60.865234" xlink:href="#DejaVuSans-72"/>
      <use x="101.978516" xlink:href="#DejaVuSans-75"/>
      <use x="165.357422" xlink:href="#DejaVuSans-65"/>
     </g>
    </g>
   </g>
  </g>
  <g id="axes_3">
   <g id="patch_14">
    <path d="M 180 640.8 
L 1296 640.8 
L 1296 477.741176 
L 180 477.741176 
z
" style="fill:#ffffff;"/>
   </g>
   <g id="matplotlib.axis_5">
    <g id="xtick_19">
     <g id="line2d_43">
      <g>
       <use style="stroke:#000000;stroke-width:0.8;" x="225.629054" xlink:href="#m154eabb5f2" y="640.8"/>
      </g>
     </g>
     <g id="text_37">
      <!-- 0 -->
      <g transform="translate(222.447804 655.398438)scale(0.1 -0.1)">
       <use xlink:href="#DejaVuSans-30"/>
      </g>
     </g>
    </g>
    <g id="xtick_20">
     <g id="line2d_44">
      <g>
       <use style="stroke:#000000;stroke-width:0.8;" x="353.084513" xlink:href="#m154eabb5f2" y="640.8"/>
      </g>
     </g>
     <g id="text_38">
      <!-- 500 -->
      <g transform="translate(343.540763 655.398438)scale(0.1 -0.1)">
       <use xlink:href="#DejaVuSans-35"/>
       <use x="63.623047" xlink:href="#DejaVuSans-30"/>
       <use x="127.246094" xlink:href="#DejaVuSans-30"/>
      </g>
     </g>
    </g>
    <g id="xtick_21">
     <g id="line2d_45">
      <g>
       <use style="stroke:#000000;stroke-width:0.8;" x="480.539973" xlink:href="#m154eabb5f2" y="640.8"/>
      </g>
     </g>
     <g id="text_39">
      <!-- 1000 -->
      <g transform="translate(467.814973 655.398438)scale(0.1 -0.1)">
       <use xlink:href="#DejaVuSans-31"/>
       <use x="63.623047" xlink:href="#DejaVuSans-30"/>
       <use x="127.246094" xlink:href="#DejaVuSans-30"/>
       <use x="190.869141" xlink:href="#DejaVuSans-30"/>
      </g>
     </g>
    </g>
    <g id="xtick_22">
     <g id="line2d_46">
      <g>
       <use style="stroke:#000000;stroke-width:0.8;" x="607.995432" xlink:href="#m154eabb5f2" y="640.8"/>
      </g>
     </g>
     <g id="text_40">
      <!-- 1500 -->
      <g transform="translate(595.270432 655.398438)scale(0.1 -0.1)">
       <use xlink:href="#DejaVuSans-31"/>
       <use x="63.623047" xlink:href="#DejaVuSans-35"/>
       <use x="127.246094" xlink:href="#DejaVuSans-30"/>
       <use x="190.869141" xlink:href="#DejaVuSans-30"/>
      </g>
     </g>
    </g>
    <g id="xtick_23">
     <g id="line2d_47">
      <g>
       <use style="stroke:#000000;stroke-width:0.8;" x="735.450891" xlink:href="#m154eabb5f2" y="640.8"/>
      </g>
     </g>
     <g id="text_41">
      <!-- 2000 -->
      <g transform="translate(722.725891 655.398438)scale(0.1 -0.1)">
       <use xlink:href="#DejaVuSans-32"/>
       <use x="63.623047" xlink:href="#DejaVuSans-30"/>
       <use x="127.246094" xlink:href="#DejaVuSans-30"/>
       <use x="190.869141" xlink:href="#DejaVuSans-30"/>
      </g>
     </g>
    </g>
    <g id="xtick_24">
     <g id="line2d_48">
      <g>
       <use style="stroke:#000000;stroke-width:0.8;" x="862.90635" xlink:href="#m154eabb5f2" y="640.8"/>
      </g>
     </g>
     <g id="text_42">
      <!-- 2500 -->
      <g transform="translate(850.18135 655.398438)scale(0.1 -0.1)">
       <use xlink:href="#DejaVuSans-32"/>
       <use x="63.623047" xlink:href="#DejaVuSans-35"/>
       <use x="127.246094" xlink:href="#DejaVuSans-30"/>
       <use x="190.869141" xlink:href="#DejaVuSans-30"/>
      </g>
     </g>
    </g>
    <g id="xtick_25">
     <g id="line2d_49">
      <g>
       <use style="stroke:#000000;stroke-width:0.8;" x="990.361809" xlink:href="#m154eabb5f2" y="640.8"/>
      </g>
     </g>
     <g id="text_43">
      <!-- 3000 -->
      <g transform="translate(977.636809 655.398438)scale(0.1 -0.1)">
       <use xlink:href="#DejaVuSans-33"/>
       <use x="63.623047" xlink:href="#DejaVuSans-30"/>
       <use x="127.246094" xlink:href="#DejaVuSans-30"/>
       <use x="190.869141" xlink:href="#DejaVuSans-30"/>
      </g>
     </g>
    </g>
    <g id="xtick_26">
     <g id="line2d_50">
      <g>
       <use style="stroke:#000000;stroke-width:0.8;" x="1117.817268" xlink:href="#m154eabb5f2" y="640.8"/>
      </g>
     </g>
     <g id="text_44">
      <!-- 3500 -->
      <g transform="translate(1105.092268 655.398438)scale(0.1 -0.1)">
       <use xlink:href="#DejaVuSans-33"/>
       <use x="63.623047" xlink:href="#DejaVuSans-35"/>
       <use x="127.246094" xlink:href="#DejaVuSans-30"/>
       <use x="190.869141" xlink:href="#DejaVuSans-30"/>
      </g>
     </g>
    </g>
    <g id="xtick_27">
     <g id="line2d_51">
      <g>
       <use style="stroke:#000000;stroke-width:0.8;" x="1245.272727" xlink:href="#m154eabb5f2" y="640.8"/>
      </g>
     </g>
     <g id="text_45">
      <!-- 4000 -->
      <g transform="translate(1232.547727 655.398438)scale(0.1 -0.1)">
       <use xlink:href="#DejaVuSans-34"/>
       <use x="63.623047" xlink:href="#DejaVuSans-30"/>
       <use x="127.246094" xlink:href="#DejaVuSans-30"/>
       <use x="190.869141" xlink:href="#DejaVuSans-30"/>
      </g>
     </g>
    </g>
    <g id="text_46">
     <!-- Time -->
     <defs>
      <path d="M 9.421875 54.6875 
L 18.40625 54.6875 
L 18.40625 0 
L 9.421875 0 
z
M 9.421875 75.984375 
L 18.40625 75.984375 
L 18.40625 64.59375 
L 9.421875 64.59375 
z
" id="DejaVuSans-69"/>
      <path d="M 52 44.1875 
Q 55.375 50.25 60.0625 53.125 
Q 64.75 56 71.09375 56 
Q 79.640625 56 84.28125 50.015625 
Q 88.921875 44.046875 88.921875 33.015625 
L 88.921875 0 
L 79.890625 0 
L 79.890625 32.71875 
Q 79.890625 40.578125 77.09375 44.375 
Q 74.3125 48.1875 68.609375 48.1875 
Q 61.625 48.1875 57.5625 43.546875 
Q 53.515625 38.921875 53.515625 30.90625 
L 53.515625 0 
L 44.484375 0 
L 44.484375 32.71875 
Q 44.484375 40.625 41.703125 44.40625 
Q 38.921875 48.1875 33.109375 48.1875 
Q 26.21875 48.1875 22.15625 43.53125 
Q 18.109375 38.875 18.109375 30.90625 
L 18.109375 0 
L 9.078125 0 
L 9.078125 54.6875 
L 18.109375 54.6875 
L 18.109375 46.1875 
Q 21.1875 51.21875 25.484375 53.609375 
Q 29.78125 56 35.6875 56 
Q 41.65625 56 45.828125 52.96875 
Q 50 49.953125 52 44.1875 
z
" id="DejaVuSans-6d"/>
     </defs>
     <g transform="translate(725.6125 669.076563)scale(0.1 -0.1)">
      <use xlink:href="#DejaVuSans-54"/>
      <use x="61.037109" xlink:href="#DejaVuSans-69"/>
      <use x="88.820312" xlink:href="#DejaVuSans-6d"/>
      <use x="186.232422" xlink:href="#DejaVuSans-65"/>
     </g>
    </g>
   </g>
   <g id="matplotlib.axis_6">
    <g id="ytick_13">
     <g id="line2d_52">
      <g>
       <use style="stroke:#000000;stroke-width:0.8;" x="180" xlink:href="#m296eda2daa" y="618.247189"/>
      </g>
     </g>
     <g id="text_47">
      <!-- −2 -->
      <g transform="translate(158.257812 622.046408)scale(0.1 -0.1)">
       <use xlink:href="#DejaVuSans-2212"/>
       <use x="83.789062" xlink:href="#DejaVuSans-32"/>
      </g>
     </g>
    </g>
    <g id="ytick_14">
     <g id="line2d_53">
      <g>
       <use style="stroke:#000000;stroke-width:0.8;" x="180" xlink:href="#m296eda2daa" y="591.045324"/>
      </g>
     </g>
     <g id="text_48">
      <!-- −1 -->
      <g transform="translate(158.257812 594.844543)scale(0.1 -0.1)">
       <use xlink:href="#DejaVuSans-2212"/>
       <use x="83.789062" xlink:href="#DejaVuSans-31"/>
      </g>
     </g>
    </g>
    <g id="ytick_15">
     <g id="line2d_54">
      <g>
       <use style="stroke:#000000;stroke-width:0.8;" x="180" xlink:href="#m296eda2daa" y="563.843458"/>
      </g>
     </g>
     <g id="text_49">
      <!-- 0 -->
      <g transform="translate(166.6375 567.642677)scale(0.1 -0.1)">
       <use xlink:href="#DejaVuSans-30"/>
      </g>
     </g>
    </g>
    <g id="ytick_16">
     <g id="line2d_55">
      <g>
       <use style="stroke:#000000;stroke-width:0.8;" x="180" xlink:href="#m296eda2daa" y="536.641593"/>
      </g>
     </g>
     <g id="text_50">
      <!-- 1 -->
      <g transform="translate(166.6375 540.440812)scale(0.1 -0.1)">
       <use xlink:href="#DejaVuSans-31"/>
      </g>
     </g>
    </g>
    <g id="ytick_17">
     <g id="line2d_56">
      <g>
       <use style="stroke:#000000;stroke-width:0.8;" x="180" xlink:href="#m296eda2daa" y="509.439728"/>
      </g>
     </g>
     <g id="text_51">
      <!-- 2 -->
      <g transform="translate(166.6375 513.238946)scale(0.1 -0.1)">
       <use xlink:href="#DejaVuSans-32"/>
      </g>
     </g>
    </g>
    <g id="ytick_18">
     <g id="line2d_57">
      <g>
       <use style="stroke:#000000;stroke-width:0.8;" x="180" xlink:href="#m296eda2daa" y="482.237862"/>
      </g>
     </g>
     <g id="text_52">
      <!-- 3 -->
      <g transform="translate(166.6375 486.037081)scale(0.1 -0.1)">
       <use xlink:href="#DejaVuSans-33"/>
      </g>
     </g>
    </g>
    <g id="text_53">
     <!-- Control Input -->
     <defs>
      <path d="M 64.40625 67.28125 
L 64.40625 56.890625 
Q 59.421875 61.53125 53.78125 63.8125 
Q 48.140625 66.109375 41.796875 66.109375 
Q 29.296875 66.109375 22.65625 58.46875 
Q 16.015625 50.828125 16.015625 36.375 
Q 16.015625 21.96875 22.65625 14.328125 
Q 29.296875 6.6875 41.796875 6.6875 
Q 48.140625 6.6875 53.78125 8.984375 
Q 59.421875 11.28125 64.40625 15.921875 
L 64.40625 5.609375 
Q 59.234375 2.09375 53.4375 0.328125 
Q 47.65625 -1.421875 41.21875 -1.421875 
Q 24.65625 -1.421875 15.125 8.703125 
Q 5.609375 18.84375 5.609375 36.375 
Q 5.609375 53.953125 15.125 64.078125 
Q 24.65625 74.21875 41.21875 74.21875 
Q 47.75 74.21875 53.53125 72.484375 
Q 59.328125 70.75 64.40625 67.28125 
z
" id="DejaVuSans-43"/>
      <path d="M 30.609375 48.390625 
Q 23.390625 48.390625 19.1875 42.75 
Q 14.984375 37.109375 14.984375 27.296875 
Q 14.984375 17.484375 19.15625 11.84375 
Q 23.34375 6.203125 30.609375 6.203125 
Q 37.796875 6.203125 41.984375 11.859375 
Q 46.1875 17.53125 46.1875 27.296875 
Q 46.1875 37.015625 41.984375 42.703125 
Q 37.796875 48.390625 30.609375 48.390625 
z
M 30.609375 56 
Q 42.328125 56 49.015625 48.375 
Q 55.71875 40.765625 55.71875 27.296875 
Q 55.71875 13.875 49.015625 6.21875 
Q 42.328125 -1.421875 30.609375 -1.421875 
Q 18.84375 -1.421875 12.171875 6.21875 
Q 5.515625 13.875 5.515625 27.296875 
Q 5.515625 40.765625 12.171875 48.375 
Q 18.84375 56 30.609375 56 
z
" id="DejaVuSans-6f"/>
      <path d="M 54.890625 33.015625 
L 54.890625 0 
L 45.90625 0 
L 45.90625 32.71875 
Q 45.90625 40.484375 42.875 44.328125 
Q 39.84375 48.1875 33.796875 48.1875 
Q 26.515625 48.1875 22.3125 43.546875 
Q 18.109375 38.921875 18.109375 30.90625 
L 18.109375 0 
L 9.078125 0 
L 9.078125 54.6875 
L 18.109375 54.6875 
L 18.109375 46.1875 
Q 21.34375 51.125 25.703125 53.5625 
Q 30.078125 56 35.796875 56 
Q 45.21875 56 50.046875 50.171875 
Q 54.890625 44.34375 54.890625 33.015625 
z
" id="DejaVuSans-6e"/>
      <path d="M 9.421875 75.984375 
L 18.40625 75.984375 
L 18.40625 0 
L 9.421875 0 
z
" id="DejaVuSans-6c"/>
      <path d="M 9.8125 72.90625 
L 19.671875 72.90625 
L 19.671875 0 
L 9.8125 0 
z
" id="DejaVuSans-49"/>
      <path d="M 18.109375 8.203125 
L 18.109375 -20.796875 
L 9.078125 -20.796875 
L 9.078125 54.6875 
L 18.109375 54.6875 
L 18.109375 46.390625 
Q 20.953125 51.265625 25.265625 53.625 
Q 29.59375 56 35.59375 56 
Q 45.5625 56 51.78125 48.09375 
Q 58.015625 40.1875 58.015625 27.296875 
Q 58.015625 14.40625 51.78125 6.484375 
Q 45.5625 -1.421875 35.59375 -1.421875 
Q 29.59375 -1.421875 25.265625 0.953125 
Q 20.953125 3.328125 18.109375 8.203125 
z
M 48.6875 27.296875 
Q 48.6875 37.203125 44.609375 42.84375 
Q 40.53125 48.484375 33.40625 48.484375 
Q 26.265625 48.484375 22.1875 42.84375 
Q 18.109375 37.203125 18.109375 27.296875 
Q 18.109375 17.390625 22.1875 11.75 
Q 26.265625 6.109375 33.40625 6.109375 
Q 40.53125 6.109375 44.609375 11.75 
Q 48.6875 17.390625 48.6875 27.296875 
z
" id="DejaVuSans-70"/>
     </defs>
     <g transform="translate(152.178125 591.988557)rotate(-90)scale(0.1 -0.1)">
      <use xlink:href="#DejaVuSans-43"/>
      <use x="69.824219" xlink:href="#DejaVuSans-6f"/>
      <use x="131.005859" xlink:href="#DejaVuSans-6e"/>
      <use x="194.384766" xlink:href="#DejaVuSans-74"/>
      <use x="233.59375" xlink:href="#DejaVuSans-72"/>
      <use x="274.675781" xlink:href="#DejaVuSans-6f"/>
      <use x="335.857422" xlink:href="#DejaVuSans-6c"/>
      <use x="363.640625" xlink:href="#DejaVuSans-20"/>
      <use x="395.427734" xlink:href="#DejaVuSans-49"/>
      <use x="424.919922" xlink:href="#DejaVuSans-6e"/>
      <use x="488.298828" xlink:href="#DejaVuSans-70"/>
      <use x="551.775391" xlink:href="#DejaVuSans-75"/>
      <use x="615.154297" xlink:href="#DejaVuSans-74"/>
     </g>
    </g>
   </g>
   <g id="line2d_58">
    <path clip-path="url(#pf52c9828cf)" d="M 230.727273 535.294929 
L 235.825491 535.442225 
L 240.923709 536.619198 
L 251.120146 535.563564 
L 256.218365 532.380916 
L 261.316583 533.558231 
L 266.414801 530.594765 
L 271.51302 545.755976 
L 276.611238 596.903014 
L 281.709456 594.905819 
L 286.807675 596.392243 
L 291.905893 596.696444 
L 297.004111 569.83103 
L 302.10233 500.625164 
L 307.200548 501.492658 
L 312.298767 503.545016 
L 317.396985 501.387452 
L 322.495203 500.890323 
L 327.593422 587.667806 
L 332.69164 589.624294 
L 337.789858 590.203611 
L 342.888077 591.345138 
L 347.986295 591.696063 
L 353.084513 592.318902 
L 358.182732 598.721818 
L 363.28095 606.82535 
L 368.379169 609.882434 
L 373.477387 610.139786 
L 378.575605 610.585339 
L 383.673824 574.76823 
L 388.772042 491.251401 
L 393.87026 500.167002 
L 398.968479 503.701043 
L 404.066697 505.065564 
L 409.164915 542.744827 
L 414.263134 588.179793 
L 419.361352 575.431854 
L 424.459571 575.376509 
L 429.557789 577.966549 
L 434.656007 578.990416 
L 439.754226 544.402865 
L 444.852444 524.107483 
L 449.950662 525.049738 
L 455.048881 524.421526 
L 460.147099 524.035121 
L 465.245317 525.673532 
L 470.343536 581.618953 
L 475.441754 579.33767 
L 485.638191 579.953897 
L 490.736409 580.475183 
L 495.834628 568.937174 
L 500.932846 555.612848 
L 506.031064 556.563569 
L 516.227501 556.265089 
L 521.32572 562.869304 
L 526.423938 615.042623 
L 531.522156 612.428198 
L 536.620375 612.691025 
L 541.718593 614.101395 
L 546.816811 615.014567 
L 551.91503 615.257489 
L 557.013248 611.355344 
L 562.111466 612.13506 
L 567.209685 615.089712 
L 572.307903 615.628891 
L 577.406122 615.717453 
L 582.50434 621.973309 
L 587.602558 624.541562 
L 592.700777 621.960453 
L 597.798995 622.278864 
L 602.897213 622.276827 
L 607.995432 574.753934 
L 613.09365 563.129316 
L 618.191868 562.334609 
L 623.290087 561.241954 
L 628.388305 560.927353 
L 633.486524 573.983737 
L 638.584742 617.74752 
L 643.68296 606.901182 
L 648.781179 607.177307 
L 653.879397 607.175978 
L 658.977615 607.371912 
L 664.075834 551.772555 
L 669.174052 548.672039 
L 674.27227 548.252993 
L 679.370489 547.609917 
L 684.468707 546.510105 
L 689.566926 543.028411 
L 694.665144 550.57594 
L 699.763362 554.553306 
L 704.861581 553.669572 
L 709.959799 553.190907 
L 720.156236 552.932674 
L 725.254454 523.934458 
L 730.352672 525.675659 
L 735.450891 525.821166 
L 740.549109 525.492262 
L 745.647328 524.630552 
L 750.745546 549.921787 
L 755.843764 542.86686 
L 760.941983 538.877079 
L 766.040201 539.242896 
L 771.138419 538.721841 
L 776.236638 537.773802 
L 781.334856 491.658086 
L 786.433074 492.352374 
L 791.531293 492.782473 
L 796.629511 491.121036 
L 801.72773 487.507833 
L 806.825948 596.128018 
L 811.924166 575.460719 
L 817.022385 576.134999 
L 822.120603 577.036627 
L 827.218821 579.738175 
L 832.31704 581.198426 
L 837.415258 582.101073 
L 842.513476 582.631624 
L 852.709913 583.316872 
L 857.808132 584.098497 
L 862.90635 537.288718 
L 868.004568 485.152941 
L 873.102787 493.170918 
L 878.201005 495.12999 
L 883.299223 493.136827 
L 888.397442 490.415854 
L 893.49566 494.771704 
L 898.593878 491.778878 
L 903.692097 491.915558 
L 908.790315 488.755611 
L 913.888534 488.064549 
L 918.986752 550.899883 
L 924.08497 571.088991 
L 929.183189 572.275364 
L 939.379625 574.089708 
L 944.477844 551.866461 
L 949.576062 528.907506 
L 954.67428 531.050739 
L 959.772499 530.645118 
L 964.870717 526.353486 
L 969.968936 528.286937 
L 975.067154 560.248485 
L 980.165372 555.26261 
L 985.263591 555.382947 
L 990.361809 555.825934 
L 1000.558246 556.243423 
L 1005.656464 535.315405 
L 1010.754683 542.566603 
L 1015.852901 540.88906 
L 1020.951119 540.710561 
L 1026.049338 539.457089 
L 1031.147556 549.455333 
L 1036.245774 603.288263 
L 1041.343993 601.284911 
L 1046.442211 601.571663 
L 1051.540429 602.728628 
L 1056.638648 569.478755 
L 1061.736866 506.35291 
L 1066.835085 510.423094 
L 1071.933303 510.399821 
L 1077.031521 509.786408 
L 1082.12974 508.408817 
L 1087.227958 521.657126 
L 1092.326176 542.470133 
L 1097.424395 538.022139 
L 1102.522613 535.619528 
L 1107.620831 538.485256 
L 1112.71905 535.535988 
L 1117.817268 540.649307 
L 1122.915487 540.706781 
L 1128.013705 541.664455 
L 1133.111923 538.714521 
L 1138.210142 542.050073 
L 1143.30836 539.371905 
L 1148.406578 488.226603 
L 1153.504797 494.32619 
L 1158.603015 494.109551 
L 1163.701233 492.527062 
L 1168.799452 541.972555 
L 1173.89767 633.388235 
L 1178.995889 621.895583 
L 1184.094107 613.637582 
L 1189.192325 613.553142 
L 1194.290544 615.873006 
L 1199.388762 541.255947 
L 1204.48698 553.265846 
L 1209.585199 553.695185 
L 1214.683417 553.85914 
L 1219.781635 556.613127 
L 1224.879854 555.762934 
L 1229.978072 581.166684 
L 1235.076291 598.508564 
L 1245.272727 598.899424 
L 1245.272727 598.899424 
" style="fill:none;stroke:#ff0000;stroke-linecap:square;stroke-width:1.5;"/>
   </g>
   <g id="patch_15">
    <path d="M 180 640.8 
L 180 477.741176 
" style="fill:none;stroke:#000000;stroke-linecap:square;stroke-linejoin:miter;stroke-width:0.8;"/>
   </g>
   <g id="patch_16">
    <path d="M 1296 640.8 
L 1296 477.741176 
" style="fill:none;stroke:#000000;stroke-linecap:square;stroke-linejoin:miter;stroke-width:0.8;"/>
   </g>
   <g id="patch_17">
    <path d="M 180 640.8 
L 1296 640.8 
" style="fill:none;stroke:#000000;stroke-linecap:square;stroke-linejoin:miter;stroke-width:0.8;"/>
   </g>
   <g id="patch_18">
    <path d="M 180 477.741176 
L 1296 477.741176 
" style="fill:none;stroke:#000000;stroke-linecap:square;stroke-linejoin:miter;stroke-width:0.8;"/>
   </g>
   <g id="legend_3">
    <g id="patch_19">
     <path d="M 1194.742188 500.419301 
L 1289 500.419301 
Q 1291 500.419301 1291 498.419301 
L 1291 484.741176 
Q 1291 482.741176 1289 482.741176 
L 1194.742188 482.741176 
Q 1192.742188 482.741176 1192.742188 484.741176 
L 1192.742188 498.419301 
Q 1192.742188 500.419301 1194.742188 500.419301 
z
" style="fill:#ffffff;opacity:0.8;stroke:#cccccc;stroke-linejoin:miter;"/>
    </g>
    <g id="line2d_59">
     <path d="M 1196.742188 490.839614 
L 1216.742188 490.839614 
" style="fill:none;stroke:#ff0000;stroke-linecap:square;stroke-width:1.5;"/>
    </g>
    <g id="line2d_60"/>
    <g id="text_54">
     <!-- ControlInput -->
     <g transform="translate(1224.742188 494.339614)scale(0.1 -0.1)">
      <use xlink:href="#DejaVuSans-43"/>
      <use x="69.824219" xlink:href="#DejaVuSans-6f"/>
      <use x="131.005859" xlink:href="#DejaVuSans-6e"/>
      <use x="194.384766" xlink:href="#DejaVuSans-74"/>
      <use x="233.59375" xlink:href="#DejaVuSans-72"/>
      <use x="274.675781" xlink:href="#DejaVuSans-6f"/>
      <use x="335.857422" xlink:href="#DejaVuSans-6c"/>
      <use x="363.640625" xlink:href="#DejaVuSans-49"/>
      <use x="393.132812" xlink:href="#DejaVuSans-6e"/>
      <use x="456.511719" xlink:href="#DejaVuSans-70"/>
      <use x="519.988281" xlink:href="#DejaVuSans-75"/>
      <use x="583.367188" xlink:href="#DejaVuSans-74"/>
     </g>
    </g>
   </g>
  </g>
 </g>
 <defs>
  <clipPath id="p5eb4ac181d">
   <rect height="163.058824" width="1116" x="180" y="86.4"/>
  </clipPath>
  <clipPath id="pbc23df0ca1">
   <rect height="163.058824" width="1116" x="180" y="282.070588"/>
  </clipPath>
  <clipPath id="pf52c9828cf">
   <rect height="163.058824" width="1116" x="180" y="477.741176"/>
  </clipPath>
 </defs>
</svg>
