<?xml version="1.0" encoding="utf-8" standalone="no"?>
<!DOCTYPE svg PUBLIC "-//W3C//DTD SVG 1.1//EN"
  "http://www.w3.org/Graphics/SVG/1.1/DTD/svg11.dtd">
<!-- Created with matplotlib (http://matplotlib.org/) -->
<svg height="720pt" version="1.1" viewBox="0 0 1440 720" width="1440pt" xmlns="http://www.w3.org/2000/svg" xmlns:xlink="http://www.w3.org/1999/xlink">
 <defs>
  <style type="text/css">
*{stroke-linecap:butt;stroke-linejoin:round;}
  </style>
 </defs>
 <g id="figure_1">
  <g id="patch_1">
   <path d="M 0 720 
L 1440 720 
L 1440 0 
L 0 0 
z
" style="fill:#ffffff;"/>
  </g>
  <g id="axes_1">
   <g id="patch_2">
    <path d="M 180 249.458824 
L 1296 249.458824 
L 1296 86.4 
L 180 86.4 
z
" style="fill:#ffffff;"/>
   </g>
   <g id="matplotlib.axis_1">
    <g id="xtick_1">
     <g id="line2d_1">
      <defs>
       <path d="M 0 0 
L 0 3.5 
" id="m20ef358bf9" style="stroke:#000000;stroke-width:0.8;"/>
      </defs>
      <g>
       <use style="stroke:#000000;stroke-width:0.8;" x="225.629054" xlink:href="#m20ef358bf9" y="249.458824"/>
      </g>
     </g>
     <g id="text_1">
      <!-- 0 -->
      <defs>
       <path d="M 31.78125 66.40625 
Q 24.171875 66.40625 20.328125 58.90625 
Q 16.5 51.421875 16.5 36.375 
Q 16.5 21.390625 20.328125 13.890625 
Q 24.171875 6.390625 31.78125 6.390625 
Q 39.453125 6.390625 43.28125 13.890625 
Q 47.125 21.390625 47.125 36.375 
Q 47.125 51.421875 43.28125 58.90625 
Q 39.453125 66.40625 31.78125 66.40625 
z
M 31.78125 74.21875 
Q 44.046875 74.21875 50.515625 64.515625 
Q 56.984375 54.828125 56.984375 36.375 
Q 56.984375 17.96875 50.515625 8.265625 
Q 44.046875 -1.421875 31.78125 -1.421875 
Q 19.53125 -1.421875 13.0625 8.265625 
Q 6.59375 17.96875 6.59375 36.375 
Q 6.59375 54.828125 13.0625 64.515625 
Q 19.53125 74.21875 31.78125 74.21875 
z
" id="DejaVuSans-30"/>
      </defs>
      <g transform="translate(222.447804 264.057261)scale(0.1 -0.1)">
       <use xlink:href="#DejaVuSans-30"/>
      </g>
     </g>
    </g>
    <g id="xtick_2">
     <g id="line2d_2">
      <g>
       <use style="stroke:#000000;stroke-width:0.8;" x="353.084513" xlink:href="#m20ef358bf9" y="249.458824"/>
      </g>
     </g>
     <g id="text_2">
      <!-- 500 -->
      <defs>
       <path d="M 10.796875 72.90625 
L 49.515625 72.90625 
L 49.515625 64.59375 
L 19.828125 64.59375 
L 19.828125 46.734375 
Q 21.96875 47.46875 24.109375 47.828125 
Q 26.265625 48.1875 28.421875 48.1875 
Q 40.625 48.1875 47.75 41.5 
Q 54.890625 34.8125 54.890625 23.390625 
Q 54.890625 11.625 47.5625 5.09375 
Q 40.234375 -1.421875 26.90625 -1.421875 
Q 22.3125 -1.421875 17.546875 -0.640625 
Q 12.796875 0.140625 7.71875 1.703125 
L 7.71875 11.625 
Q 12.109375 9.234375 16.796875 8.0625 
Q 21.484375 6.890625 26.703125 6.890625 
Q 35.15625 6.890625 40.078125 11.328125 
Q 45.015625 15.765625 45.015625 23.390625 
Q 45.015625 31 40.078125 35.4375 
Q 35.15625 39.890625 26.703125 39.890625 
Q 22.75 39.890625 18.8125 39.015625 
Q 14.890625 38.140625 10.796875 36.28125 
z
" id="DejaVuSans-35"/>
      </defs>
      <g transform="translate(343.540763 264.057261)scale(0.1 -0.1)">
       <use xlink:href="#DejaVuSans-35"/>
       <use x="63.623047" xlink:href="#DejaVuSans-30"/>
       <use x="127.246094" xlink:href="#DejaVuSans-30"/>
      </g>
     </g>
    </g>
    <g id="xtick_3">
     <g id="line2d_3">
      <g>
       <use style="stroke:#000000;stroke-width:0.8;" x="480.539973" xlink:href="#m20ef358bf9" y="249.458824"/>
      </g>
     </g>
     <g id="text_3">
      <!-- 1000 -->
      <defs>
       <path d="M 12.40625 8.296875 
L 28.515625 8.296875 
L 28.515625 63.921875 
L 10.984375 60.40625 
L 10.984375 69.390625 
L 28.421875 72.90625 
L 38.28125 72.90625 
L 38.28125 8.296875 
L 54.390625 8.296875 
L 54.390625 0 
L 12.40625 0 
z
" id="DejaVuSans-31"/>
      </defs>
      <g transform="translate(467.814973 264.057261)scale(0.1 -0.1)">
       <use xlink:href="#DejaVuSans-31"/>
       <use x="63.623047" xlink:href="#DejaVuSans-30"/>
       <use x="127.246094" xlink:href="#DejaVuSans-30"/>
       <use x="190.869141" xlink:href="#DejaVuSans-30"/>
      </g>
     </g>
    </g>
    <g id="xtick_4">
     <g id="line2d_4">
      <g>
       <use style="stroke:#000000;stroke-width:0.8;" x="607.995432" xlink:href="#m20ef358bf9" y="249.458824"/>
      </g>
     </g>
     <g id="text_4">
      <!-- 1500 -->
      <g transform="translate(595.270432 264.057261)scale(0.1 -0.1)">
       <use xlink:href="#DejaVuSans-31"/>
       <use x="63.623047" xlink:href="#DejaVuSans-35"/>
       <use x="127.246094" xlink:href="#DejaVuSans-30"/>
       <use x="190.869141" xlink:href="#DejaVuSans-30"/>
      </g>
     </g>
    </g>
    <g id="xtick_5">
     <g id="line2d_5">
      <g>
       <use style="stroke:#000000;stroke-width:0.8;" x="735.450891" xlink:href="#m20ef358bf9" y="249.458824"/>
      </g>
     </g>
     <g id="text_5">
      <!-- 2000 -->
      <defs>
       <path d="M 19.1875 8.296875 
L 53.609375 8.296875 
L 53.609375 0 
L 7.328125 0 
L 7.328125 8.296875 
Q 12.9375 14.109375 22.625 23.890625 
Q 32.328125 33.6875 34.8125 36.53125 
Q 39.546875 41.84375 41.421875 45.53125 
Q 43.3125 49.21875 43.3125 52.78125 
Q 43.3125 58.59375 39.234375 62.25 
Q 35.15625 65.921875 28.609375 65.921875 
Q 23.96875 65.921875 18.8125 64.3125 
Q 13.671875 62.703125 7.8125 59.421875 
L 7.8125 69.390625 
Q 13.765625 71.78125 18.9375 73 
Q 24.125 74.21875 28.421875 74.21875 
Q 39.75 74.21875 46.484375 68.546875 
Q 53.21875 62.890625 53.21875 53.421875 
Q 53.21875 48.921875 51.53125 44.890625 
Q 49.859375 40.875 45.40625 35.40625 
Q 44.1875 33.984375 37.640625 27.21875 
Q 31.109375 20.453125 19.1875 8.296875 
z
" id="DejaVuSans-32"/>
      </defs>
      <g transform="translate(722.725891 264.057261)scale(0.1 -0.1)">
       <use xlink:href="#DejaVuSans-32"/>
       <use x="63.623047" xlink:href="#DejaVuSans-30"/>
       <use x="127.246094" xlink:href="#DejaVuSans-30"/>
       <use x="190.869141" xlink:href="#DejaVuSans-30"/>
      </g>
     </g>
    </g>
    <g id="xtick_6">
     <g id="line2d_6">
      <g>
       <use style="stroke:#000000;stroke-width:0.8;" x="862.90635" xlink:href="#m20ef358bf9" y="249.458824"/>
      </g>
     </g>
     <g id="text_6">
      <!-- 2500 -->
      <g transform="translate(850.18135 264.057261)scale(0.1 -0.1)">
       <use xlink:href="#DejaVuSans-32"/>
       <use x="63.623047" xlink:href="#DejaVuSans-35"/>
       <use x="127.246094" xlink:href="#DejaVuSans-30"/>
       <use x="190.869141" xlink:href="#DejaVuSans-30"/>
      </g>
     </g>
    </g>
    <g id="xtick_7">
     <g id="line2d_7">
      <g>
       <use style="stroke:#000000;stroke-width:0.8;" x="990.361809" xlink:href="#m20ef358bf9" y="249.458824"/>
      </g>
     </g>
     <g id="text_7">
      <!-- 3000 -->
      <defs>
       <path d="M 40.578125 39.3125 
Q 47.65625 37.796875 51.625 33 
Q 55.609375 28.21875 55.609375 21.1875 
Q 55.609375 10.40625 48.1875 4.484375 
Q 40.765625 -1.421875 27.09375 -1.421875 
Q 22.515625 -1.421875 17.65625 -0.515625 
Q 12.796875 0.390625 7.625 2.203125 
L 7.625 11.71875 
Q 11.71875 9.328125 16.59375 8.109375 
Q 21.484375 6.890625 26.8125 6.890625 
Q 36.078125 6.890625 40.9375 10.546875 
Q 45.796875 14.203125 45.796875 21.1875 
Q 45.796875 27.640625 41.28125 31.265625 
Q 36.765625 34.90625 28.71875 34.90625 
L 20.21875 34.90625 
L 20.21875 43.015625 
L 29.109375 43.015625 
Q 36.375 43.015625 40.234375 45.921875 
Q 44.09375 48.828125 44.09375 54.296875 
Q 44.09375 59.90625 40.109375 62.90625 
Q 36.140625 65.921875 28.71875 65.921875 
Q 24.65625 65.921875 20.015625 65.03125 
Q 15.375 64.15625 9.8125 62.3125 
L 9.8125 71.09375 
Q 15.4375 72.65625 20.34375 73.4375 
Q 25.25 74.21875 29.59375 74.21875 
Q 40.828125 74.21875 47.359375 69.109375 
Q 53.90625 64.015625 53.90625 55.328125 
Q 53.90625 49.265625 50.4375 45.09375 
Q 46.96875 40.921875 40.578125 39.3125 
z
" id="DejaVuSans-33"/>
      </defs>
      <g transform="translate(977.636809 264.057261)scale(0.1 -0.1)">
       <use xlink:href="#DejaVuSans-33"/>
       <use x="63.623047" xlink:href="#DejaVuSans-30"/>
       <use x="127.246094" xlink:href="#DejaVuSans-30"/>
       <use x="190.869141" xlink:href="#DejaVuSans-30"/>
      </g>
     </g>
    </g>
    <g id="xtick_8">
     <g id="line2d_8">
      <g>
       <use style="stroke:#000000;stroke-width:0.8;" x="1117.817268" xlink:href="#m20ef358bf9" y="249.458824"/>
      </g>
     </g>
     <g id="text_8">
      <!-- 3500 -->
      <g transform="translate(1105.092268 264.057261)scale(0.1 -0.1)">
       <use xlink:href="#DejaVuSans-33"/>
       <use x="63.623047" xlink:href="#DejaVuSans-35"/>
       <use x="127.246094" xlink:href="#DejaVuSans-30"/>
       <use x="190.869141" xlink:href="#DejaVuSans-30"/>
      </g>
     </g>
    </g>
    <g id="xtick_9">
     <g id="line2d_9">
      <g>
       <use style="stroke:#000000;stroke-width:0.8;" x="1245.272727" xlink:href="#m20ef358bf9" y="249.458824"/>
      </g>
     </g>
     <g id="text_9">
      <!-- 4000 -->
      <defs>
       <path d="M 37.796875 64.3125 
L 12.890625 25.390625 
L 37.796875 25.390625 
z
M 35.203125 72.90625 
L 47.609375 72.90625 
L 47.609375 25.390625 
L 58.015625 25.390625 
L 58.015625 17.1875 
L 47.609375 17.1875 
L 47.609375 0 
L 37.796875 0 
L 37.796875 17.1875 
L 4.890625 17.1875 
L 4.890625 26.703125 
z
" id="DejaVuSans-34"/>
      </defs>
      <g transform="translate(1232.547727 264.057261)scale(0.1 -0.1)">
       <use xlink:href="#DejaVuSans-34"/>
       <use x="63.623047" xlink:href="#DejaVuSans-30"/>
       <use x="127.246094" xlink:href="#DejaVuSans-30"/>
       <use x="190.869141" xlink:href="#DejaVuSans-30"/>
      </g>
     </g>
    </g>
   </g>
   <g id="matplotlib.axis_2">
    <g id="ytick_1">
     <g id="line2d_10">
      <defs>
       <path d="M 0 0 
L -3.5 0 
" id="m8c5e2ba610" style="stroke:#000000;stroke-width:0.8;"/>
      </defs>
      <g>
       <use style="stroke:#000000;stroke-width:0.8;" x="180" xlink:href="#m8c5e2ba610" y="228.571123"/>
      </g>
     </g>
     <g id="text_10">
      <!-- −0.75 -->
      <defs>
       <path d="M 10.59375 35.5 
L 73.1875 35.5 
L 73.1875 27.203125 
L 10.59375 27.203125 
z
" id="DejaVuSans-2212"/>
       <path d="M 10.6875 12.40625 
L 21 12.40625 
L 21 0 
L 10.6875 0 
z
" id="DejaVuSans-2e"/>
       <path d="M 8.203125 72.90625 
L 55.078125 72.90625 
L 55.078125 68.703125 
L 28.609375 0 
L 18.3125 0 
L 43.21875 64.59375 
L 8.203125 64.59375 
z
" id="DejaVuSans-37"/>
      </defs>
      <g transform="translate(142.354688 232.370342)scale(0.1 -0.1)">
       <use xlink:href="#DejaVuSans-2212"/>
       <use x="83.789062" xlink:href="#DejaVuSans-30"/>
       <use x="147.412109" xlink:href="#DejaVuSans-2e"/>
       <use x="179.199219" xlink:href="#DejaVuSans-37"/>
       <use x="242.822266" xlink:href="#DejaVuSans-35"/>
      </g>
     </g>
    </g>
    <g id="ytick_2">
     <g id="line2d_11">
      <g>
       <use style="stroke:#000000;stroke-width:0.8;" x="180" xlink:href="#m8c5e2ba610" y="206.11123"/>
      </g>
     </g>
     <g id="text_11">
      <!-- −0.50 -->
      <g transform="translate(142.354688 209.910449)scale(0.1 -0.1)">
       <use xlink:href="#DejaVuSans-2212"/>
       <use x="83.789062" xlink:href="#DejaVuSans-30"/>
       <use x="147.412109" xlink:href="#DejaVuSans-2e"/>
       <use x="179.199219" xlink:href="#DejaVuSans-35"/>
       <use x="242.822266" xlink:href="#DejaVuSans-30"/>
      </g>
     </g>
    </g>
    <g id="ytick_3">
     <g id="line2d_12">
      <g>
       <use style="stroke:#000000;stroke-width:0.8;" x="180" xlink:href="#m8c5e2ba610" y="183.651337"/>
      </g>
     </g>
     <g id="text_12">
      <!-- −0.25 -->
      <g transform="translate(142.354688 187.450556)scale(0.1 -0.1)">
       <use xlink:href="#DejaVuSans-2212"/>
       <use x="83.789062" xlink:href="#DejaVuSans-30"/>
       <use x="147.412109" xlink:href="#DejaVuSans-2e"/>
       <use x="179.199219" xlink:href="#DejaVuSans-32"/>
       <use x="242.822266" xlink:href="#DejaVuSans-35"/>
      </g>
     </g>
    </g>
    <g id="ytick_4">
     <g id="line2d_13">
      <g>
       <use style="stroke:#000000;stroke-width:0.8;" x="180" xlink:href="#m8c5e2ba610" y="161.191444"/>
      </g>
     </g>
     <g id="text_13">
      <!-- 0.00 -->
      <g transform="translate(150.734375 164.990663)scale(0.1 -0.1)">
       <use xlink:href="#DejaVuSans-30"/>
       <use x="63.623047" xlink:href="#DejaVuSans-2e"/>
       <use x="95.410156" xlink:href="#DejaVuSans-30"/>
       <use x="159.033203" xlink:href="#DejaVuSans-30"/>
      </g>
     </g>
    </g>
    <g id="ytick_5">
     <g id="line2d_14">
      <g>
       <use style="stroke:#000000;stroke-width:0.8;" x="180" xlink:href="#m8c5e2ba610" y="138.731551"/>
      </g>
     </g>
     <g id="text_14">
      <!-- 0.25 -->
      <g transform="translate(150.734375 142.53077)scale(0.1 -0.1)">
       <use xlink:href="#DejaVuSans-30"/>
       <use x="63.623047" xlink:href="#DejaVuSans-2e"/>
       <use x="95.410156" xlink:href="#DejaVuSans-32"/>
       <use x="159.033203" xlink:href="#DejaVuSans-35"/>
      </g>
     </g>
    </g>
    <g id="ytick_6">
     <g id="line2d_15">
      <g>
       <use style="stroke:#000000;stroke-width:0.8;" x="180" xlink:href="#m8c5e2ba610" y="116.271658"/>
      </g>
     </g>
     <g id="text_15">
      <!-- 0.50 -->
      <g transform="translate(150.734375 120.070877)scale(0.1 -0.1)">
       <use xlink:href="#DejaVuSans-30"/>
       <use x="63.623047" xlink:href="#DejaVuSans-2e"/>
       <use x="95.410156" xlink:href="#DejaVuSans-35"/>
       <use x="159.033203" xlink:href="#DejaVuSans-30"/>
      </g>
     </g>
    </g>
    <g id="ytick_7">
     <g id="line2d_16">
      <g>
       <use style="stroke:#000000;stroke-width:0.8;" x="180" xlink:href="#m8c5e2ba610" y="93.811765"/>
      </g>
     </g>
     <g id="text_16">
      <!-- 0.75 -->
      <g transform="translate(150.734375 97.610983)scale(0.1 -0.1)">
       <use xlink:href="#DejaVuSans-30"/>
       <use x="63.623047" xlink:href="#DejaVuSans-2e"/>
       <use x="95.410156" xlink:href="#DejaVuSans-37"/>
       <use x="159.033203" xlink:href="#DejaVuSans-35"/>
      </g>
     </g>
    </g>
    <g id="text_17">
     <!-- TD State:0 -->
     <defs>
      <path d="M -0.296875 72.90625 
L 61.375 72.90625 
L 61.375 64.59375 
L 35.5 64.59375 
L 35.5 0 
L 25.59375 0 
L 25.59375 64.59375 
L -0.296875 64.59375 
z
" id="DejaVuSans-54"/>
      <path d="M 19.671875 64.796875 
L 19.671875 8.109375 
L 31.59375 8.109375 
Q 46.6875 8.109375 53.6875 14.9375 
Q 60.6875 21.78125 60.6875 36.53125 
Q 60.6875 51.171875 53.6875 57.984375 
Q 46.6875 64.796875 31.59375 64.796875 
z
M 9.8125 72.90625 
L 30.078125 72.90625 
Q 51.265625 72.90625 61.171875 64.09375 
Q 71.09375 55.28125 71.09375 36.53125 
Q 71.09375 17.671875 61.125 8.828125 
Q 51.171875 0 30.078125 0 
L 9.8125 0 
z
" id="DejaVuSans-44"/>
      <path id="DejaVuSans-20"/>
      <path d="M 53.515625 70.515625 
L 53.515625 60.890625 
Q 47.90625 63.578125 42.921875 64.890625 
Q 37.9375 66.21875 33.296875 66.21875 
Q 25.25 66.21875 20.875 63.09375 
Q 16.5 59.96875 16.5 54.203125 
Q 16.5 49.359375 19.40625 46.890625 
Q 22.3125 44.4375 30.421875 42.921875 
L 36.375 41.703125 
Q 47.40625 39.59375 52.65625 34.296875 
Q 57.90625 29 57.90625 20.125 
Q 57.90625 9.515625 50.796875 4.046875 
Q 43.703125 -1.421875 29.984375 -1.421875 
Q 24.8125 -1.421875 18.96875 -0.25 
Q 13.140625 0.921875 6.890625 3.21875 
L 6.890625 13.375 
Q 12.890625 10.015625 18.65625 8.296875 
Q 24.421875 6.59375 29.984375 6.59375 
Q 38.421875 6.59375 43.015625 9.90625 
Q 47.609375 13.234375 47.609375 19.390625 
Q 47.609375 24.75 44.3125 27.78125 
Q 41.015625 30.8125 33.5 32.328125 
L 27.484375 33.5 
Q 16.453125 35.6875 11.515625 40.375 
Q 6.59375 45.0625 6.59375 53.421875 
Q 6.59375 63.09375 13.40625 68.65625 
Q 20.21875 74.21875 32.171875 74.21875 
Q 37.3125 74.21875 42.625 73.28125 
Q 47.953125 72.359375 53.515625 70.515625 
z
" id="DejaVuSans-53"/>
      <path d="M 18.3125 70.21875 
L 18.3125 54.6875 
L 36.8125 54.6875 
L 36.8125 47.703125 
L 18.3125 47.703125 
L 18.3125 18.015625 
Q 18.3125 11.328125 20.140625 9.421875 
Q 21.96875 7.515625 27.59375 7.515625 
L 36.8125 7.515625 
L 36.8125 0 
L 27.59375 0 
Q 17.1875 0 13.234375 3.875 
Q 9.28125 7.765625 9.28125 18.015625 
L 9.28125 47.703125 
L 2.6875 47.703125 
L 2.6875 54.6875 
L 9.28125 54.6875 
L 9.28125 70.21875 
z
" id="DejaVuSans-74"/>
      <path d="M 34.28125 27.484375 
Q 23.390625 27.484375 19.1875 25 
Q 14.984375 22.515625 14.984375 16.5 
Q 14.984375 11.71875 18.140625 8.90625 
Q 21.296875 6.109375 26.703125 6.109375 
Q 34.1875 6.109375 38.703125 11.40625 
Q 43.21875 16.703125 43.21875 25.484375 
L 43.21875 27.484375 
z
M 52.203125 31.203125 
L 52.203125 0 
L 43.21875 0 
L 43.21875 8.296875 
Q 40.140625 3.328125 35.546875 0.953125 
Q 30.953125 -1.421875 24.3125 -1.421875 
Q 15.921875 -1.421875 10.953125 3.296875 
Q 6 8.015625 6 15.921875 
Q 6 25.140625 12.171875 29.828125 
Q 18.359375 34.515625 30.609375 34.515625 
L 43.21875 34.515625 
L 43.21875 35.40625 
Q 43.21875 41.609375 39.140625 45 
Q 35.0625 48.390625 27.6875 48.390625 
Q 23 48.390625 18.546875 47.265625 
Q 14.109375 46.140625 10.015625 43.890625 
L 10.015625 52.203125 
Q 14.9375 54.109375 19.578125 55.046875 
Q 24.21875 56 28.609375 56 
Q 40.484375 56 46.34375 49.84375 
Q 52.203125 43.703125 52.203125 31.203125 
z
" id="DejaVuSans-61"/>
      <path d="M 56.203125 29.59375 
L 56.203125 25.203125 
L 14.890625 25.203125 
Q 15.484375 15.921875 20.484375 11.0625 
Q 25.484375 6.203125 34.421875 6.203125 
Q 39.59375 6.203125 44.453125 7.46875 
Q 49.3125 8.734375 54.109375 11.28125 
L 54.109375 2.78125 
Q 49.265625 0.734375 44.1875 -0.34375 
Q 39.109375 -1.421875 33.890625 -1.421875 
Q 20.796875 -1.421875 13.15625 6.1875 
Q 5.515625 13.8125 5.515625 26.8125 
Q 5.515625 40.234375 12.765625 48.109375 
Q 20.015625 56 32.328125 56 
Q 43.359375 56 49.78125 48.890625 
Q 56.203125 41.796875 56.203125 29.59375 
z
M 47.21875 32.234375 
Q 47.125 39.59375 43.09375 43.984375 
Q 39.0625 48.390625 32.421875 48.390625 
Q 24.90625 48.390625 20.390625 44.140625 
Q 15.875 39.890625 15.1875 32.171875 
z
" id="DejaVuSans-65"/>
      <path d="M 11.71875 12.40625 
L 22.015625 12.40625 
L 22.015625 0 
L 11.71875 0 
z
M 11.71875 51.703125 
L 22.015625 51.703125 
L 22.015625 39.3125 
L 11.71875 39.3125 
z
" id="DejaVuSans-3a"/>
     </defs>
     <g transform="translate(136.275 194.523162)rotate(-90)scale(0.1 -0.1)">
      <use xlink:href="#DejaVuSans-54"/>
      <use x="61.083984" xlink:href="#DejaVuSans-44"/>
      <use x="138.085938" xlink:href="#DejaVuSans-20"/>
      <use x="169.873047" xlink:href="#DejaVuSans-53"/>
      <use x="233.349609" xlink:href="#DejaVuSans-74"/>
      <use x="272.558594" xlink:href="#DejaVuSans-61"/>
      <use x="333.837891" xlink:href="#DejaVuSans-74"/>
      <use x="373.046875" xlink:href="#DejaVuSans-65"/>
      <use x="434.570312" xlink:href="#DejaVuSans-3a"/>
      <use x="468.261719" xlink:href="#DejaVuSans-30"/>
     </g>
    </g>
   </g>
   <g id="line2d_17">
    <path clip-path="url(#p3850ab411e)" d="M 230.727273 190.592933 
L 235.825491 189.705976 
L 240.923709 190.143794 
L 246.021928 188.50056 
L 251.120146 188.591738 
L 256.218365 192.021689 
L 261.316583 187.501189 
L 266.414801 187.851605 
L 271.51302 175.668694 
L 276.611238 164.178325 
L 297.004111 164.308825 
L 302.10233 213.103499 
L 307.200548 204.334687 
L 312.298767 207.847472 
L 317.396985 210.736781 
L 322.495203 209.240372 
L 327.593422 164.12441 
L 378.575605 164.067507 
L 383.673824 164.231641 
L 388.772042 214.797283 
L 393.87026 210.181809 
L 398.968479 206.046902 
L 404.066697 205.10396 
L 409.164915 178.681191 
L 414.263134 164.167388 
L 434.656007 164.200263 
L 439.754226 174.418254 
L 444.852444 193.600461 
L 449.950662 194.288897 
L 455.048881 192.822834 
L 460.147099 192.932394 
L 465.245317 190.078669 
L 470.343536 164.152129 
L 495.834628 164.198215 
L 500.932846 169.093009 
L 506.031064 168.431668 
L 516.227501 168.639296 
L 521.32572 164.226021 
L 526.423938 163.986934 
L 541.718593 163.987599 
L 546.816811 162.750463 
L 551.91503 161.722059 
L 557.013248 161.054027 
L 562.111466 159.526872 
L 567.209685 153.543139 
L 577.406122 144.61437 
L 582.50434 150.377078 
L 587.602558 150.927697 
L 592.700777 149.357672 
L 602.897213 163.601375 
L 607.995432 135.445827 
L 613.09365 141.174622 
L 618.191868 141.380872 
L 623.290087 132.706808 
L 628.388305 141.745348 
L 633.486524 133.342119 
L 638.584742 159.141755 
L 643.68296 146.76708 
L 648.781179 146.442802 
L 653.879397 153.411579 
L 658.977615 160.61296 
L 664.075834 153.082716 
L 669.174052 153.890743 
L 674.27227 153.99952 
L 679.370489 145.208712 
L 684.468707 154.452523 
L 689.566926 164.317925 
L 694.665144 162.349775 
L 699.763362 161.312604 
L 709.959799 161.667862 
L 720.156236 161.735221 
L 725.254454 169.29704 
L 730.352672 168.842988 
L 740.549109 186.807301 
L 745.647328 187.032987 
L 750.745546 180.438841 
L 755.843764 173.321546 
L 760.941983 192.278411 
L 766.040201 192.184508 
L 771.138419 201.279854 
L 776.236638 192.571043 
L 781.334856 213.556059 
L 786.433074 204.342891 
L 791.531293 202.881347 
L 796.629511 201.604235 
L 806.825948 182.29547 
L 811.924166 166.285871 
L 817.022385 137.073907 
L 822.120603 159.256112 
L 827.218821 167.830958 
L 832.31704 161.194506 
L 837.415258 161.582892 
L 847.611695 161.950093 
L 852.709913 162.106009 
L 857.808132 177.267214 
L 862.90635 147.917981 
L 868.004568 207.817201 
L 873.102787 195.549805 
L 878.201005 200.10577 
L 883.299223 199.399614 
L 888.397442 211.053103 
L 893.49566 221.846934 
L 898.593878 222.23416 
L 903.692097 223.096463 
L 908.790315 221.45302 
L 913.888534 219.943428 
L 918.986752 177.354261 
L 924.08497 164.204031 
L 939.379625 164.108868 
L 949.576062 188.709437 
L 954.67428 186.900101 
L 959.772499 186.863806 
L 964.870717 191.085489 
L 969.968936 186.153281 
L 975.067154 165.3157 
L 980.165372 166.910742 
L 985.263591 168.22259 
L 990.361809 163.912238 
L 995.460027 164.532524 
L 1000.558246 167.464798 
L 1005.656464 180.149538 
L 1010.754683 176.501006 
L 1015.852901 174.239914 
L 1020.951119 171.254509 
L 1026.049338 177.109264 
L 1031.147556 168.440259 
L 1036.245774 163.667886 
L 1051.540429 163.670451 
L 1056.638648 163.841292 
L 1061.736866 201.214348 
L 1066.835085 198.064585 
L 1071.933303 197.762319 
L 1077.031521 199.42535 
L 1082.12974 198.351166 
L 1087.227958 188.816904 
L 1092.326176 175.575259 
L 1097.424395 176.636914 
L 1102.522613 177.989766 
L 1107.620831 175.677847 
L 1112.71905 180.520537 
L 1117.817268 171.662336 
L 1122.915487 173.017915 
L 1128.013705 172.033281 
L 1133.111923 175.321649 
L 1138.210142 172.523684 
L 1143.30836 173.908993 
L 1148.406578 210.563868 
L 1153.504797 202.57438 
L 1158.603015 202.406628 
L 1163.701233 195.415061 
L 1168.799452 166.161748 
L 1173.89767 162.964567 
L 1189.192325 163.055463 
L 1194.290544 163.044832 
L 1199.388762 166.660236 
L 1204.48698 163.331733 
L 1224.879854 163.32029 
L 1235.076291 163.096699 
L 1245.272727 163.158703 
L 1245.272727 163.158703 
" style="fill:none;stroke:#000000;stroke-linecap:square;stroke-width:4;"/>
   </g>
   <g id="line2d_18">
    <path clip-path="url(#p3850ab411e)" d="M 230.727273 201.619251 
L 235.825491 188.143316 
L 240.923709 201.619251 
L 246.021928 188.143316 
L 251.120146 188.143316 
L 256.218365 201.619251 
L 261.316583 174.66738 
L 271.51302 147.715508 
L 276.611238 161.191444 
L 281.709456 161.191444 
L 286.807675 147.715508 
L 291.905893 188.143316 
L 297.004111 188.143316 
L 302.10233 201.619251 
L 307.200548 134.239572 
L 312.298767 174.66738 
L 317.396985 188.143316 
L 327.593422 161.191444 
L 358.182732 161.191444 
L 368.379169 134.239572 
L 378.575605 161.191444 
L 388.772042 161.191444 
L 393.87026 174.66738 
L 398.968479 161.191444 
L 409.164915 161.191444 
L 414.263134 174.66738 
L 419.361352 134.239572 
L 424.459571 174.66738 
L 429.557789 161.191444 
L 434.656007 161.191444 
L 439.754226 134.239572 
L 444.852444 174.66738 
L 449.950662 188.143316 
L 455.048881 174.66738 
L 460.147099 174.66738 
L 465.245317 161.191444 
L 470.343536 161.191444 
L 475.441754 174.66738 
L 480.539973 161.191444 
L 531.522156 161.191444 
L 536.620375 134.239572 
L 546.816811 107.287701 
L 551.91503 134.239572 
L 557.013248 120.763636 
L 562.111466 120.763636 
L 567.209685 93.811765 
L 572.307903 120.763636 
L 577.406122 107.287701 
L 592.700777 107.287701 
L 602.897213 134.239572 
L 607.995432 120.763636 
L 613.09365 134.239572 
L 618.191868 134.239572 
L 623.290087 120.763636 
L 628.388305 134.239572 
L 633.486524 120.763636 
L 638.584742 134.239572 
L 643.68296 120.763636 
L 648.781179 120.763636 
L 658.977615 147.715508 
L 674.27227 147.715508 
L 679.370489 134.239572 
L 689.566926 161.191444 
L 730.352672 161.191444 
L 740.549109 188.143316 
L 750.745546 188.143316 
L 755.843764 174.66738 
L 760.941983 201.619251 
L 766.040201 201.619251 
L 771.138419 215.095187 
L 776.236638 201.619251 
L 781.334856 215.095187 
L 786.433074 201.619251 
L 796.629511 201.619251 
L 801.72773 188.143316 
L 806.825948 188.143316 
L 811.924166 174.66738 
L 817.022385 120.763636 
L 822.120603 161.191444 
L 827.218821 174.66738 
L 832.31704 161.191444 
L 852.709913 161.191444 
L 857.808132 188.143316 
L 862.90635 134.239572 
L 868.004568 215.095187 
L 873.102787 201.619251 
L 878.201005 215.095187 
L 888.397442 215.095187 
L 893.49566 242.047059 
L 898.593878 215.095187 
L 903.692097 228.571123 
L 908.790315 201.619251 
L 913.888534 188.143316 
L 918.986752 201.619251 
L 924.08497 201.619251 
L 934.281407 174.66738 
L 939.379625 188.143316 
L 944.477844 215.095187 
L 949.576062 188.143316 
L 959.772499 188.143316 
L 964.870717 201.619251 
L 969.968936 174.66738 
L 975.067154 188.143316 
L 980.165372 174.66738 
L 985.263591 188.143316 
L 990.361809 147.715508 
L 995.460027 161.191444 
L 1000.558246 188.143316 
L 1005.656464 174.66738 
L 1010.754683 188.143316 
L 1020.951119 134.239572 
L 1026.049338 174.66738 
L 1031.147556 161.191444 
L 1051.540429 161.191444 
L 1056.638648 188.143316 
L 1071.933303 188.143316 
L 1077.031521 201.619251 
L 1082.12974 188.143316 
L 1087.227958 188.143316 
L 1092.326176 201.619251 
L 1097.424395 188.143316 
L 1107.620831 188.143316 
L 1112.71905 215.095187 
L 1117.817268 174.66738 
L 1122.915487 188.143316 
L 1128.013705 188.143316 
L 1133.111923 201.619251 
L 1143.30836 201.619251 
L 1148.406578 215.095187 
L 1153.504797 188.143316 
L 1158.603015 188.143316 
L 1163.701233 120.763636 
L 1168.799452 161.191444 
L 1229.978072 161.191444 
L 1235.076291 120.763636 
L 1240.174509 161.191444 
L 1245.272727 161.191444 
L 1245.272727 161.191444 
" style="fill:none;stroke:#ff0000;stroke-linecap:square;stroke-width:1.5;"/>
   </g>
   <g id="patch_3">
    <path d="M 180 249.458824 
L 180 86.4 
" style="fill:none;stroke:#000000;stroke-linecap:square;stroke-linejoin:miter;stroke-width:0.8;"/>
   </g>
   <g id="patch_4">
    <path d="M 1296 249.458824 
L 1296 86.4 
" style="fill:none;stroke:#000000;stroke-linecap:square;stroke-linejoin:miter;stroke-width:0.8;"/>
   </g>
   <g id="patch_5">
    <path d="M 180 249.458824 
L 1296 249.458824 
" style="fill:none;stroke:#000000;stroke-linecap:square;stroke-linejoin:miter;stroke-width:0.8;"/>
   </g>
   <g id="patch_6">
    <path d="M 180 86.4 
L 1296 86.4 
" style="fill:none;stroke:#000000;stroke-linecap:square;stroke-linejoin:miter;stroke-width:0.8;"/>
   </g>
   <g id="legend_1">
    <g id="patch_7">
     <path d="M 1234.3125 123.75625 
L 1289 123.75625 
Q 1291 123.75625 1291 121.75625 
L 1291 93.4 
Q 1291 91.4 1289 91.4 
L 1234.3125 91.4 
Q 1232.3125 91.4 1232.3125 93.4 
L 1232.3125 121.75625 
Q 1232.3125 123.75625 1234.3125 123.75625 
z
" style="fill:#ffffff;opacity:0.8;stroke:#cccccc;stroke-linejoin:miter;"/>
    </g>
    <g id="line2d_19">
     <path d="M 1236.3125 99.498438 
L 1256.3125 99.498438 
" style="fill:none;stroke:#000000;stroke-linecap:square;stroke-width:4;"/>
    </g>
    <g id="line2d_20"/>
    <g id="text_18">
     <!-- Pred -->
     <defs>
      <path d="M 19.671875 64.796875 
L 19.671875 37.40625 
L 32.078125 37.40625 
Q 38.96875 37.40625 42.71875 40.96875 
Q 46.484375 44.53125 46.484375 51.125 
Q 46.484375 57.671875 42.71875 61.234375 
Q 38.96875 64.796875 32.078125 64.796875 
z
M 9.8125 72.90625 
L 32.078125 72.90625 
Q 44.34375 72.90625 50.609375 67.359375 
Q 56.890625 61.8125 56.890625 51.125 
Q 56.890625 40.328125 50.609375 34.8125 
Q 44.34375 29.296875 32.078125 29.296875 
L 19.671875 29.296875 
L 19.671875 0 
L 9.8125 0 
z
" id="DejaVuSans-50"/>
      <path d="M 41.109375 46.296875 
Q 39.59375 47.171875 37.8125 47.578125 
Q 36.03125 48 33.890625 48 
Q 26.265625 48 22.1875 43.046875 
Q 18.109375 38.09375 18.109375 28.8125 
L 18.109375 0 
L 9.078125 0 
L 9.078125 54.6875 
L 18.109375 54.6875 
L 18.109375 46.1875 
Q 20.953125 51.171875 25.484375 53.578125 
Q 30.03125 56 36.53125 56 
Q 37.453125 56 38.578125 55.875 
Q 39.703125 55.765625 41.0625 55.515625 
z
" id="DejaVuSans-72"/>
      <path d="M 45.40625 46.390625 
L 45.40625 75.984375 
L 54.390625 75.984375 
L 54.390625 0 
L 45.40625 0 
L 45.40625 8.203125 
Q 42.578125 3.328125 38.25 0.953125 
Q 33.9375 -1.421875 27.875 -1.421875 
Q 17.96875 -1.421875 11.734375 6.484375 
Q 5.515625 14.40625 5.515625 27.296875 
Q 5.515625 40.1875 11.734375 48.09375 
Q 17.96875 56 27.875 56 
Q 33.9375 56 38.25 53.625 
Q 42.578125 51.265625 45.40625 46.390625 
z
M 14.796875 27.296875 
Q 14.796875 17.390625 18.875 11.75 
Q 22.953125 6.109375 30.078125 6.109375 
Q 37.203125 6.109375 41.296875 11.75 
Q 45.40625 17.390625 45.40625 27.296875 
Q 45.40625 37.203125 41.296875 42.84375 
Q 37.203125 48.484375 30.078125 48.484375 
Q 22.953125 48.484375 18.875 42.84375 
Q 14.796875 37.203125 14.796875 27.296875 
z
" id="DejaVuSans-64"/>
     </defs>
     <g transform="translate(1264.3125 102.998438)scale(0.1 -0.1)">
      <use xlink:href="#DejaVuSans-50"/>
      <use x="60.287109" xlink:href="#DejaVuSans-72"/>
      <use x="101.369141" xlink:href="#DejaVuSans-65"/>
      <use x="162.892578" xlink:href="#DejaVuSans-64"/>
     </g>
    </g>
    <g id="line2d_21">
     <path d="M 1236.3125 114.176563 
L 1256.3125 114.176563 
" style="fill:none;stroke:#ff0000;stroke-linecap:square;stroke-width:1.5;"/>
    </g>
    <g id="line2d_22"/>
    <g id="text_19">
     <!-- True -->
     <defs>
      <path d="M 8.5 21.578125 
L 8.5 54.6875 
L 17.484375 54.6875 
L 17.484375 21.921875 
Q 17.484375 14.15625 20.5 10.265625 
Q 23.53125 6.390625 29.59375 6.390625 
Q 36.859375 6.390625 41.078125 11.03125 
Q 45.3125 15.671875 45.3125 23.6875 
L 45.3125 54.6875 
L 54.296875 54.6875 
L 54.296875 0 
L 45.3125 0 
L 45.3125 8.40625 
Q 42.046875 3.421875 37.71875 1 
Q 33.40625 -1.421875 27.6875 -1.421875 
Q 18.265625 -1.421875 13.375 4.4375 
Q 8.5 10.296875 8.5 21.578125 
z
M 31.109375 56 
z
" id="DejaVuSans-75"/>
     </defs>
     <g transform="translate(1264.3125 117.676563)scale(0.1 -0.1)">
      <use xlink:href="#DejaVuSans-54"/>
      <use x="60.865234" xlink:href="#DejaVuSans-72"/>
      <use x="101.978516" xlink:href="#DejaVuSans-75"/>
      <use x="165.357422" xlink:href="#DejaVuSans-65"/>
     </g>
    </g>
   </g>
  </g>
  <g id="axes_2">
   <g id="patch_8">
    <path d="M 180 445.129412 
L 1296 445.129412 
L 1296 282.070588 
L 180 282.070588 
z
" style="fill:#ffffff;"/>
   </g>
   <g id="matplotlib.axis_3">
    <g id="xtick_10">
     <g id="line2d_23">
      <g>
       <use style="stroke:#000000;stroke-width:0.8;" x="225.629054" xlink:href="#m20ef358bf9" y="445.129412"/>
      </g>
     </g>
     <g id="text_20">
      <!-- 0 -->
      <g transform="translate(222.447804 459.727849)scale(0.1 -0.1)">
       <use xlink:href="#DejaVuSans-30"/>
      </g>
     </g>
    </g>
    <g id="xtick_11">
     <g id="line2d_24">
      <g>
       <use style="stroke:#000000;stroke-width:0.8;" x="353.084513" xlink:href="#m20ef358bf9" y="445.129412"/>
      </g>
     </g>
     <g id="text_21">
      <!-- 500 -->
      <g transform="translate(343.540763 459.727849)scale(0.1 -0.1)">
       <use xlink:href="#DejaVuSans-35"/>
       <use x="63.623047" xlink:href="#DejaVuSans-30"/>
       <use x="127.246094" xlink:href="#DejaVuSans-30"/>
      </g>
     </g>
    </g>
    <g id="xtick_12">
     <g id="line2d_25">
      <g>
       <use style="stroke:#000000;stroke-width:0.8;" x="480.539973" xlink:href="#m20ef358bf9" y="445.129412"/>
      </g>
     </g>
     <g id="text_22">
      <!-- 1000 -->
      <g transform="translate(467.814973 459.727849)scale(0.1 -0.1)">
       <use xlink:href="#DejaVuSans-31"/>
       <use x="63.623047" xlink:href="#DejaVuSans-30"/>
       <use x="127.246094" xlink:href="#DejaVuSans-30"/>
       <use x="190.869141" xlink:href="#DejaVuSans-30"/>
      </g>
     </g>
    </g>
    <g id="xtick_13">
     <g id="line2d_26">
      <g>
       <use style="stroke:#000000;stroke-width:0.8;" x="607.995432" xlink:href="#m20ef358bf9" y="445.129412"/>
      </g>
     </g>
     <g id="text_23">
      <!-- 1500 -->
      <g transform="translate(595.270432 459.727849)scale(0.1 -0.1)">
       <use xlink:href="#DejaVuSans-31"/>
       <use x="63.623047" xlink:href="#DejaVuSans-35"/>
       <use x="127.246094" xlink:href="#DejaVuSans-30"/>
       <use x="190.869141" xlink:href="#DejaVuSans-30"/>
      </g>
     </g>
    </g>
    <g id="xtick_14">
     <g id="line2d_27">
      <g>
       <use style="stroke:#000000;stroke-width:0.8;" x="735.450891" xlink:href="#m20ef358bf9" y="445.129412"/>
      </g>
     </g>
     <g id="text_24">
      <!-- 2000 -->
      <g transform="translate(722.725891 459.727849)scale(0.1 -0.1)">
       <use xlink:href="#DejaVuSans-32"/>
       <use x="63.623047" xlink:href="#DejaVuSans-30"/>
       <use x="127.246094" xlink:href="#DejaVuSans-30"/>
       <use x="190.869141" xlink:href="#DejaVuSans-30"/>
      </g>
     </g>
    </g>
    <g id="xtick_15">
     <g id="line2d_28">
      <g>
       <use style="stroke:#000000;stroke-width:0.8;" x="862.90635" xlink:href="#m20ef358bf9" y="445.129412"/>
      </g>
     </g>
     <g id="text_25">
      <!-- 2500 -->
      <g transform="translate(850.18135 459.727849)scale(0.1 -0.1)">
       <use xlink:href="#DejaVuSans-32"/>
       <use x="63.623047" xlink:href="#DejaVuSans-35"/>
       <use x="127.246094" xlink:href="#DejaVuSans-30"/>
       <use x="190.869141" xlink:href="#DejaVuSans-30"/>
      </g>
     </g>
    </g>
    <g id="xtick_16">
     <g id="line2d_29">
      <g>
       <use style="stroke:#000000;stroke-width:0.8;" x="990.361809" xlink:href="#m20ef358bf9" y="445.129412"/>
      </g>
     </g>
     <g id="text_26">
      <!-- 3000 -->
      <g transform="translate(977.636809 459.727849)scale(0.1 -0.1)">
       <use xlink:href="#DejaVuSans-33"/>
       <use x="63.623047" xlink:href="#DejaVuSans-30"/>
       <use x="127.246094" xlink:href="#DejaVuSans-30"/>
       <use x="190.869141" xlink:href="#DejaVuSans-30"/>
      </g>
     </g>
    </g>
    <g id="xtick_17">
     <g id="line2d_30">
      <g>
       <use style="stroke:#000000;stroke-width:0.8;" x="1117.817268" xlink:href="#m20ef358bf9" y="445.129412"/>
      </g>
     </g>
     <g id="text_27">
      <!-- 3500 -->
      <g transform="translate(1105.092268 459.727849)scale(0.1 -0.1)">
       <use xlink:href="#DejaVuSans-33"/>
       <use x="63.623047" xlink:href="#DejaVuSans-35"/>
       <use x="127.246094" xlink:href="#DejaVuSans-30"/>
       <use x="190.869141" xlink:href="#DejaVuSans-30"/>
      </g>
     </g>
    </g>
    <g id="xtick_18">
     <g id="line2d_31">
      <g>
       <use style="stroke:#000000;stroke-width:0.8;" x="1245.272727" xlink:href="#m20ef358bf9" y="445.129412"/>
      </g>
     </g>
     <g id="text_28">
      <!-- 4000 -->
      <g transform="translate(1232.547727 459.727849)scale(0.1 -0.1)">
       <use xlink:href="#DejaVuSans-34"/>
       <use x="63.623047" xlink:href="#DejaVuSans-30"/>
       <use x="127.246094" xlink:href="#DejaVuSans-30"/>
       <use x="190.869141" xlink:href="#DejaVuSans-30"/>
      </g>
     </g>
    </g>
   </g>
   <g id="matplotlib.axis_4">
    <g id="ytick_8">
     <g id="line2d_32">
      <g>
       <use style="stroke:#000000;stroke-width:0.8;" x="180" xlink:href="#m8c5e2ba610" y="435.673245"/>
      </g>
     </g>
     <g id="text_29">
      <!-- −0.1 -->
      <g transform="translate(148.717187 439.472464)scale(0.1 -0.1)">
       <use xlink:href="#DejaVuSans-2212"/>
       <use x="83.789062" xlink:href="#DejaVuSans-30"/>
       <use x="147.412109" xlink:href="#DejaVuSans-2e"/>
       <use x="179.199219" xlink:href="#DejaVuSans-31"/>
      </g>
     </g>
    </g>
    <g id="ytick_9">
     <g id="line2d_33">
      <g>
       <use style="stroke:#000000;stroke-width:0.8;" x="180" xlink:href="#m8c5e2ba610" y="413.093669"/>
      </g>
     </g>
     <g id="text_30">
      <!-- 0.0 -->
      <g transform="translate(157.096875 416.892887)scale(0.1 -0.1)">
       <use xlink:href="#DejaVuSans-30"/>
       <use x="63.623047" xlink:href="#DejaVuSans-2e"/>
       <use x="95.410156" xlink:href="#DejaVuSans-30"/>
      </g>
     </g>
    </g>
    <g id="ytick_10">
     <g id="line2d_34">
      <g>
       <use style="stroke:#000000;stroke-width:0.8;" x="180" xlink:href="#m8c5e2ba610" y="390.514092"/>
      </g>
     </g>
     <g id="text_31">
      <!-- 0.1 -->
      <g transform="translate(157.096875 394.313311)scale(0.1 -0.1)">
       <use xlink:href="#DejaVuSans-30"/>
       <use x="63.623047" xlink:href="#DejaVuSans-2e"/>
       <use x="95.410156" xlink:href="#DejaVuSans-31"/>
      </g>
     </g>
    </g>
    <g id="ytick_11">
     <g id="line2d_35">
      <g>
       <use style="stroke:#000000;stroke-width:0.8;" x="180" xlink:href="#m8c5e2ba610" y="367.934515"/>
      </g>
     </g>
     <g id="text_32">
      <!-- 0.2 -->
      <g transform="translate(157.096875 371.733734)scale(0.1 -0.1)">
       <use xlink:href="#DejaVuSans-30"/>
       <use x="63.623047" xlink:href="#DejaVuSans-2e"/>
       <use x="95.410156" xlink:href="#DejaVuSans-32"/>
      </g>
     </g>
    </g>
    <g id="ytick_12">
     <g id="line2d_36">
      <g>
       <use style="stroke:#000000;stroke-width:0.8;" x="180" xlink:href="#m8c5e2ba610" y="345.354938"/>
      </g>
     </g>
     <g id="text_33">
      <!-- 0.3 -->
      <g transform="translate(157.096875 349.154157)scale(0.1 -0.1)">
       <use xlink:href="#DejaVuSans-30"/>
       <use x="63.623047" xlink:href="#DejaVuSans-2e"/>
       <use x="95.410156" xlink:href="#DejaVuSans-33"/>
      </g>
     </g>
    </g>
    <g id="ytick_13">
     <g id="line2d_37">
      <g>
       <use style="stroke:#000000;stroke-width:0.8;" x="180" xlink:href="#m8c5e2ba610" y="322.775362"/>
      </g>
     </g>
     <g id="text_34">
      <!-- 0.4 -->
      <g transform="translate(157.096875 326.57458)scale(0.1 -0.1)">
       <use xlink:href="#DejaVuSans-30"/>
       <use x="63.623047" xlink:href="#DejaVuSans-2e"/>
       <use x="95.410156" xlink:href="#DejaVuSans-34"/>
      </g>
     </g>
    </g>
    <g id="ytick_14">
     <g id="line2d_38">
      <g>
       <use style="stroke:#000000;stroke-width:0.8;" x="180" xlink:href="#m8c5e2ba610" y="300.195785"/>
      </g>
     </g>
     <g id="text_35">
      <!-- 0.5 -->
      <g transform="translate(157.096875 303.995004)scale(0.1 -0.1)">
       <use xlink:href="#DejaVuSans-30"/>
       <use x="63.623047" xlink:href="#DejaVuSans-2e"/>
       <use x="95.410156" xlink:href="#DejaVuSans-35"/>
      </g>
     </g>
    </g>
    <g id="text_36">
     <!-- TD State:1 -->
     <g transform="translate(142.6375 390.19375)rotate(-90)scale(0.1 -0.1)">
      <use xlink:href="#DejaVuSans-54"/>
      <use x="61.083984" xlink:href="#DejaVuSans-44"/>
      <use x="138.085938" xlink:href="#DejaVuSans-20"/>
      <use x="169.873047" xlink:href="#DejaVuSans-53"/>
      <use x="233.349609" xlink:href="#DejaVuSans-74"/>
      <use x="272.558594" xlink:href="#DejaVuSans-61"/>
      <use x="333.837891" xlink:href="#DejaVuSans-74"/>
      <use x="373.046875" xlink:href="#DejaVuSans-65"/>
      <use x="434.570312" xlink:href="#DejaVuSans-3a"/>
      <use x="468.261719" xlink:href="#DejaVuSans-31"/>
     </g>
    </g>
   </g>
   <g id="line2d_39">
    <path clip-path="url(#p7afda486cc)" d="M 230.727273 386.743593 
L 235.825491 398.133838 
L 240.923709 397.776933 
L 246.021928 399.116466 
L 251.120146 399.042142 
L 256.218365 397.277166 
L 261.316583 409.707433 
L 266.414801 409.65792 
L 271.51302 425.982907 
L 276.611238 435.882654 
L 281.709456 435.834927 
L 286.807675 436.41702 
L 291.905893 434.815407 
L 297.004111 434.111637 
L 302.10233 379.060603 
L 307.200548 386.20878 
L 312.298767 383.345224 
L 317.396985 380.989909 
L 322.495203 382.209756 
L 327.593422 435.415319 
L 347.986295 435.511611 
L 353.084513 435.526479 
L 358.182732 435.679529 
L 368.379169 437.070251 
L 378.575605 436.086385 
L 383.673824 435.230302 
L 388.772042 377.679864 
L 393.87026 381.442313 
L 398.968479 384.813015 
L 404.066697 385.581679 
L 409.164915 422.764885 
L 414.263134 434.97346 
L 419.361352 436.277647 
L 424.459571 434.698268 
L 429.557789 435.275916 
L 434.656007 435.30039 
L 439.754226 427.351471 
L 444.852444 404.231883 
L 449.950662 406.621273 
L 455.048881 410.287695 
L 460.147099 410.149962 
L 465.245317 413.007716 
L 470.343536 435.270738 
L 475.441754 434.669642 
L 480.539973 435.193483 
L 490.736409 435.212577 
L 495.834628 434.936803 
L 500.932846 430.67796 
L 506.031064 431.236247 
L 516.227501 431.06097 
L 521.32572 434.791771 
L 526.423938 436.038786 
L 531.522156 435.976295 
L 536.620375 437.075721 
L 541.718593 437.717647 
L 546.816811 417.408757 
L 551.91503 398.236802 
L 557.013248 387.087821 
L 562.111466 361.237805 
L 567.209685 349.834408 
L 572.307903 351.882162 
L 577.406122 372.399132 
L 582.50434 399.361987 
L 587.602558 398.733097 
L 592.700777 395.658411 
L 597.798995 388.41266 
L 602.897213 384.755739 
L 607.995432 406.57434 
L 613.09365 411.987422 
L 618.191868 411.936907 
L 623.290087 410.843629 
L 628.388305 411.846079 
L 633.486524 408.389466 
L 638.584742 389.053805 
L 643.68296 392.454196 
L 648.781179 392.672634 
L 653.879397 395.314897 
L 658.977615 397.73897 
L 664.075834 412.295595 
L 669.174052 412.105056 
L 674.27227 412.078431 
L 679.370489 411.013695 
L 684.468707 411.968894 
L 689.566926 412.779676 
L 694.665144 413.241176 
L 699.763362 413.48428 
L 715.058017 413.39356 
L 720.156236 413.385234 
L 725.254454 411.6122 
L 730.352672 411.718693 
L 740.549109 413.757348 
L 745.647328 413.706787 
L 750.745546 415.255108 
L 755.843764 413.800977 
L 760.941983 415.60711 
L 766.040201 415.632435 
L 771.138419 416.627908 
L 776.236638 415.549225 
L 781.334856 413.756948 
L 786.433074 411.512091 
L 791.531293 389.055511 
L 801.72773 332.178724 
L 806.825948 406.786757 
L 811.924166 414.642956 
L 817.022385 405.047559 
L 822.120603 411.805213 
L 827.218821 412.732991 
L 832.31704 409.596202 
L 837.415258 409.142897 
L 847.611695 408.714318 
L 852.709913 408.532391 
L 857.808132 412.708706 
L 862.90635 410.417091 
L 868.004568 289.482353 
L 873.102787 299.268778 
L 878.201005 300.283729 
L 883.299223 306.491478 
L 888.397442 319.931147 
L 893.49566 351.580194 
L 898.593878 371.61746 
L 903.692097 370.914524 
L 913.888534 373.484824 
L 918.986752 422.312645 
L 924.08497 433.317708 
L 934.281407 434.306192 
L 939.379625 433.75103 
L 944.477844 422.054622 
L 949.576062 412.542189 
L 954.67428 413.979087 
L 959.772499 413.919229 
L 964.870717 409.770946 
L 969.968936 414.786767 
L 975.067154 431.838026 
L 980.165372 430.895014 
L 985.263591 429.248383 
L 990.361809 434.306889 
L 995.460027 433.30611 
L 1000.558246 429.84282 
L 1005.656464 419.538225 
L 1010.754683 422.078985 
L 1015.852901 424.885172 
L 1020.951119 428.393303 
L 1026.049338 422.059487 
L 1031.147556 429.826335 
L 1036.245774 434.802279 
L 1046.442211 434.761247 
L 1051.540429 434.788884 
L 1056.638648 432.90102 
L 1061.736866 401.080958 
L 1066.835085 403.649384 
L 1071.933303 403.814062 
L 1077.031521 401.82572 
L 1082.12974 403.090744 
L 1087.227958 411.048793 
L 1092.326176 421.642553 
L 1097.424395 421.104569 
L 1102.522613 419.872041 
L 1107.620831 421.73322 
L 1112.71905 416.566689 
L 1117.817268 425.34544 
L 1122.915487 423.661898 
L 1128.013705 424.402596 
L 1133.111923 421.042181 
L 1138.210142 423.268405 
L 1143.30836 421.96324 
L 1148.406578 390.390517 
L 1153.504797 397.941991 
L 1158.603015 397.993083 
L 1163.701233 406.274512 
L 1168.799452 429.623194 
L 1173.89767 434.072964 
L 1184.094107 433.600884 
L 1194.290544 433.654314 
L 1199.388762 429.202356 
L 1204.48698 432.1579 
L 1224.879854 432.217598 
L 1229.978072 432.824767 
L 1235.076291 434.878952 
L 1240.174509 433.336681 
L 1245.272727 433.341065 
L 1245.272727 433.341065 
" style="fill:none;stroke:#000000;stroke-linecap:square;stroke-width:4;"/>
   </g>
   <g id="line2d_40">
    <path clip-path="url(#p7afda486cc)" d="M 230.727273 411.4002 
L 235.825491 414.787137 
L 240.923709 411.4002 
L 251.120146 414.787137 
L 256.218365 409.706732 
L 261.316583 411.4002 
L 266.414801 411.4002 
L 271.51302 414.787137 
L 281.709456 411.4002 
L 286.807675 418.174073 
L 291.905893 413.093669 
L 297.004111 414.787137 
L 302.10233 404.626327 
L 307.200548 418.174073 
L 317.396985 411.4002 
L 322.495203 411.4002 
L 327.593422 413.093669 
L 353.084513 413.093669 
L 358.182732 411.4002 
L 363.28095 411.4002 
L 368.379169 414.787137 
L 373.477387 414.787137 
L 378.575605 413.093669 
L 383.673824 413.093669 
L 388.772042 414.787137 
L 393.87026 411.4002 
L 398.968479 413.093669 
L 404.066697 413.093669 
L 409.164915 414.787137 
L 414.263134 408.013264 
L 419.361352 418.174073 
L 424.459571 411.4002 
L 429.557789 413.093669 
L 434.656007 409.706732 
L 439.754226 418.174073 
L 449.950662 411.4002 
L 455.048881 413.093669 
L 460.147099 411.4002 
L 470.343536 414.787137 
L 475.441754 411.4002 
L 480.539973 413.093669 
L 526.423938 413.093669 
L 531.522156 409.706732 
L 536.620375 411.4002 
L 541.718593 411.4002 
L 546.816811 416.480605 
L 551.91503 411.4002 
L 557.013248 413.093669 
L 562.111466 409.706732 
L 567.209685 416.480605 
L 572.307903 411.4002 
L 577.406122 413.093669 
L 587.602558 413.093669 
L 592.700777 414.787137 
L 597.798995 414.787137 
L 602.897213 411.4002 
L 607.995432 414.787137 
L 618.191868 411.4002 
L 623.290087 414.787137 
L 628.388305 411.4002 
L 633.486524 414.787137 
L 638.584742 411.4002 
L 648.781179 414.787137 
L 653.879397 414.787137 
L 658.977615 413.093669 
L 669.174052 413.093669 
L 674.27227 411.4002 
L 679.370489 414.787137 
L 684.468707 414.787137 
L 689.566926 413.093669 
L 725.254454 413.093669 
L 730.352672 414.787137 
L 735.450891 414.787137 
L 740.549109 413.093669 
L 745.647328 413.093669 
L 750.745546 411.4002 
L 755.843764 416.480605 
L 760.941983 413.093669 
L 766.040201 414.787137 
L 771.138419 411.4002 
L 776.236638 414.787137 
L 781.334856 411.4002 
L 786.433074 413.093669 
L 791.531293 413.093669 
L 796.629511 411.4002 
L 801.72773 413.093669 
L 806.825948 411.4002 
L 811.924166 406.319795 
L 817.022385 418.174073 
L 827.218821 411.4002 
L 832.31704 413.093669 
L 847.611695 413.093669 
L 852.709913 416.480605 
L 857.808132 406.319795 
L 862.90635 423.254478 
L 868.004568 411.4002 
L 873.102787 414.787137 
L 878.201005 413.093669 
L 883.299223 413.093669 
L 888.397442 416.480605 
L 893.49566 409.706732 
L 898.593878 414.787137 
L 903.692097 409.706732 
L 908.790315 411.4002 
L 913.888534 414.787137 
L 924.08497 411.4002 
L 929.183189 411.4002 
L 934.281407 414.787137 
L 939.379625 416.480605 
L 944.477844 409.706732 
L 949.576062 413.093669 
L 954.67428 413.093669 
L 959.772499 414.787137 
L 964.870717 409.706732 
L 969.968936 414.787137 
L 975.067154 411.4002 
L 980.165372 414.787137 
L 985.263591 408.013264 
L 990.361809 414.787137 
L 995.460027 416.480605 
L 1000.558246 411.4002 
L 1005.656464 414.787137 
L 1010.754683 409.706732 
L 1015.852901 409.706732 
L 1020.951119 418.174073 
L 1026.049338 411.4002 
L 1031.147556 413.093669 
L 1046.442211 413.093669 
L 1051.540429 416.480605 
L 1056.638648 413.093669 
L 1066.835085 413.093669 
L 1071.933303 414.787137 
L 1077.031521 411.4002 
L 1087.227958 414.787137 
L 1092.326176 411.4002 
L 1097.424395 413.093669 
L 1102.522613 413.093669 
L 1107.620831 416.480605 
L 1112.71905 408.013264 
L 1117.817268 414.787137 
L 1122.915487 413.093669 
L 1128.013705 414.787137 
L 1133.111923 413.093669 
L 1138.210142 413.093669 
L 1143.30836 414.787137 
L 1148.406578 409.706732 
L 1153.504797 413.093669 
L 1158.603015 404.626327 
L 1163.701233 418.174073 
L 1168.799452 413.093669 
L 1224.879854 413.093669 
L 1229.978072 408.013264 
L 1235.076291 418.174073 
L 1240.174509 413.093669 
L 1245.272727 409.706732 
L 1245.272727 409.706732 
" style="fill:none;stroke:#ff0000;stroke-linecap:square;stroke-width:1.5;"/>
   </g>
   <g id="patch_9">
    <path d="M 180 445.129412 
L 180 282.070588 
" style="fill:none;stroke:#000000;stroke-linecap:square;stroke-linejoin:miter;stroke-width:0.8;"/>
   </g>
   <g id="patch_10">
    <path d="M 1296 445.129412 
L 1296 282.070588 
" style="fill:none;stroke:#000000;stroke-linecap:square;stroke-linejoin:miter;stroke-width:0.8;"/>
   </g>
   <g id="patch_11">
    <path d="M 180 445.129412 
L 1296 445.129412 
" style="fill:none;stroke:#000000;stroke-linecap:square;stroke-linejoin:miter;stroke-width:0.8;"/>
   </g>
   <g id="patch_12">
    <path d="M 180 282.070588 
L 1296 282.070588 
" style="fill:none;stroke:#000000;stroke-linecap:square;stroke-linejoin:miter;stroke-width:0.8;"/>
   </g>
   <g id="legend_2">
    <g id="patch_13">
     <path d="M 1234.3125 319.426838 
L 1289 319.426838 
Q 1291 319.426838 1291 317.426838 
L 1291 289.070588 
Q 1291 287.070588 1289 287.070588 
L 1234.3125 287.070588 
Q 1232.3125 287.070588 1232.3125 289.070588 
L 1232.3125 317.426838 
Q 1232.3125 319.426838 1234.3125 319.426838 
z
" style="fill:#ffffff;opacity:0.8;stroke:#cccccc;stroke-linejoin:miter;"/>
    </g>
    <g id="line2d_41">
     <path d="M 1236.3125 295.169026 
L 1256.3125 295.169026 
" style="fill:none;stroke:#000000;stroke-linecap:square;stroke-width:4;"/>
    </g>
    <g id="line2d_42"/>
    <g id="text_37">
     <!-- Pred -->
     <g transform="translate(1264.3125 298.669026)scale(0.1 -0.1)">
      <use xlink:href="#DejaVuSans-50"/>
      <use x="60.287109" xlink:href="#DejaVuSans-72"/>
      <use x="101.369141" xlink:href="#DejaVuSans-65"/>
      <use x="162.892578" xlink:href="#DejaVuSans-64"/>
     </g>
    </g>
    <g id="line2d_43">
     <path d="M 1236.3125 309.847151 
L 1256.3125 309.847151 
" style="fill:none;stroke:#ff0000;stroke-linecap:square;stroke-width:1.5;"/>
    </g>
    <g id="line2d_44"/>
    <g id="text_38">
     <!-- True -->
     <g transform="translate(1264.3125 313.347151)scale(0.1 -0.1)">
      <use xlink:href="#DejaVuSans-54"/>
      <use x="60.865234" xlink:href="#DejaVuSans-72"/>
      <use x="101.978516" xlink:href="#DejaVuSans-75"/>
      <use x="165.357422" xlink:href="#DejaVuSans-65"/>
     </g>
    </g>
   </g>
  </g>
  <g id="axes_3">
   <g id="patch_14">
    <path d="M 180 640.8 
L 1296 640.8 
L 1296 477.741176 
L 180 477.741176 
z
" style="fill:#ffffff;"/>
   </g>
   <g id="matplotlib.axis_5">
    <g id="xtick_19">
     <g id="line2d_45">
      <g>
       <use style="stroke:#000000;stroke-width:0.8;" x="225.629054" xlink:href="#m20ef358bf9" y="640.8"/>
      </g>
     </g>
     <g id="text_39">
      <!-- 0 -->
      <g transform="translate(222.447804 655.398438)scale(0.1 -0.1)">
       <use xlink:href="#DejaVuSans-30"/>
      </g>
     </g>
    </g>
    <g id="xtick_20">
     <g id="line2d_46">
      <g>
       <use style="stroke:#000000;stroke-width:0.8;" x="353.084513" xlink:href="#m20ef358bf9" y="640.8"/>
      </g>
     </g>
     <g id="text_40">
      <!-- 500 -->
      <g transform="translate(343.540763 655.398438)scale(0.1 -0.1)">
       <use xlink:href="#DejaVuSans-35"/>
       <use x="63.623047" xlink:href="#DejaVuSans-30"/>
       <use x="127.246094" xlink:href="#DejaVuSans-30"/>
      </g>
     </g>
    </g>
    <g id="xtick_21">
     <g id="line2d_47">
      <g>
       <use style="stroke:#000000;stroke-width:0.8;" x="480.539973" xlink:href="#m20ef358bf9" y="640.8"/>
      </g>
     </g>
     <g id="text_41">
      <!-- 1000 -->
      <g transform="translate(467.814973 655.398438)scale(0.1 -0.1)">
       <use xlink:href="#DejaVuSans-31"/>
       <use x="63.623047" xlink:href="#DejaVuSans-30"/>
       <use x="127.246094" xlink:href="#DejaVuSans-30"/>
       <use x="190.869141" xlink:href="#DejaVuSans-30"/>
      </g>
     </g>
    </g>
    <g id="xtick_22">
     <g id="line2d_48">
      <g>
       <use style="stroke:#000000;stroke-width:0.8;" x="607.995432" xlink:href="#m20ef358bf9" y="640.8"/>
      </g>
     </g>
     <g id="text_42">
      <!-- 1500 -->
      <g transform="translate(595.270432 655.398438)scale(0.1 -0.1)">
       <use xlink:href="#DejaVuSans-31"/>
       <use x="63.623047" xlink:href="#DejaVuSans-35"/>
       <use x="127.246094" xlink:href="#DejaVuSans-30"/>
       <use x="190.869141" xlink:href="#DejaVuSans-30"/>
      </g>
     </g>
    </g>
    <g id="xtick_23">
     <g id="line2d_49">
      <g>
       <use style="stroke:#000000;stroke-width:0.8;" x="735.450891" xlink:href="#m20ef358bf9" y="640.8"/>
      </g>
     </g>
     <g id="text_43">
      <!-- 2000 -->
      <g transform="translate(722.725891 655.398438)scale(0.1 -0.1)">
       <use xlink:href="#DejaVuSans-32"/>
       <use x="63.623047" xlink:href="#DejaVuSans-30"/>
       <use x="127.246094" xlink:href="#DejaVuSans-30"/>
       <use x="190.869141" xlink:href="#DejaVuSans-30"/>
      </g>
     </g>
    </g>
    <g id="xtick_24">
     <g id="line2d_50">
      <g>
       <use style="stroke:#000000;stroke-width:0.8;" x="862.90635" xlink:href="#m20ef358bf9" y="640.8"/>
      </g>
     </g>
     <g id="text_44">
      <!-- 2500 -->
      <g transform="translate(850.18135 655.398438)scale(0.1 -0.1)">
       <use xlink:href="#DejaVuSans-32"/>
       <use x="63.623047" xlink:href="#DejaVuSans-35"/>
       <use x="127.246094" xlink:href="#DejaVuSans-30"/>
       <use x="190.869141" xlink:href="#DejaVuSans-30"/>
      </g>
     </g>
    </g>
    <g id="xtick_25">
     <g id="line2d_51">
      <g>
       <use style="stroke:#000000;stroke-width:0.8;" x="990.361809" xlink:href="#m20ef358bf9" y="640.8"/>
      </g>
     </g>
     <g id="text_45">
      <!-- 3000 -->
      <g transform="translate(977.636809 655.398438)scale(0.1 -0.1)">
       <use xlink:href="#DejaVuSans-33"/>
       <use x="63.623047" xlink:href="#DejaVuSans-30"/>
       <use x="127.246094" xlink:href="#DejaVuSans-30"/>
       <use x="190.869141" xlink:href="#DejaVuSans-30"/>
      </g>
     </g>
    </g>
    <g id="xtick_26">
     <g id="line2d_52">
      <g>
       <use style="stroke:#000000;stroke-width:0.8;" x="1117.817268" xlink:href="#m20ef358bf9" y="640.8"/>
      </g>
     </g>
     <g id="text_46">
      <!-- 3500 -->
      <g transform="translate(1105.092268 655.398438)scale(0.1 -0.1)">
       <use xlink:href="#DejaVuSans-33"/>
       <use x="63.623047" xlink:href="#DejaVuSans-35"/>
       <use x="127.246094" xlink:href="#DejaVuSans-30"/>
       <use x="190.869141" xlink:href="#DejaVuSans-30"/>
      </g>
     </g>
    </g>
    <g id="xtick_27">
     <g id="line2d_53">
      <g>
       <use style="stroke:#000000;stroke-width:0.8;" x="1245.272727" xlink:href="#m20ef358bf9" y="640.8"/>
      </g>
     </g>
     <g id="text_47">
      <!-- 4000 -->
      <g transform="translate(1232.547727 655.398438)scale(0.1 -0.1)">
       <use xlink:href="#DejaVuSans-34"/>
       <use x="63.623047" xlink:href="#DejaVuSans-30"/>
       <use x="127.246094" xlink:href="#DejaVuSans-30"/>
       <use x="190.869141" xlink:href="#DejaVuSans-30"/>
      </g>
     </g>
    </g>
    <g id="text_48">
     <!-- Time -->
     <defs>
      <path d="M 9.421875 54.6875 
L 18.40625 54.6875 
L 18.40625 0 
L 9.421875 0 
z
M 9.421875 75.984375 
L 18.40625 75.984375 
L 18.40625 64.59375 
L 9.421875 64.59375 
z
" id="DejaVuSans-69"/>
      <path d="M 52 44.1875 
Q 55.375 50.25 60.0625 53.125 
Q 64.75 56 71.09375 56 
Q 79.640625 56 84.28125 50.015625 
Q 88.921875 44.046875 88.921875 33.015625 
L 88.921875 0 
L 79.890625 0 
L 79.890625 32.71875 
Q 79.890625 40.578125 77.09375 44.375 
Q 74.3125 48.1875 68.609375 48.1875 
Q 61.625 48.1875 57.5625 43.546875 
Q 53.515625 38.921875 53.515625 30.90625 
L 53.515625 0 
L 44.484375 0 
L 44.484375 32.71875 
Q 44.484375 40.625 41.703125 44.40625 
Q 38.921875 48.1875 33.109375 48.1875 
Q 26.21875 48.1875 22.15625 43.53125 
Q 18.109375 38.875 18.109375 30.90625 
L 18.109375 0 
L 9.078125 0 
L 9.078125 54.6875 
L 18.109375 54.6875 
L 18.109375 46.1875 
Q 21.1875 51.21875 25.484375 53.609375 
Q 29.78125 56 35.6875 56 
Q 41.65625 56 45.828125 52.96875 
Q 50 49.953125 52 44.1875 
z
" id="DejaVuSans-6d"/>
     </defs>
     <g transform="translate(725.6125 669.076563)scale(0.1 -0.1)">
      <use xlink:href="#DejaVuSans-54"/>
      <use x="61.037109" xlink:href="#DejaVuSans-69"/>
      <use x="88.820312" xlink:href="#DejaVuSans-6d"/>
      <use x="186.232422" xlink:href="#DejaVuSans-65"/>
     </g>
    </g>
   </g>
   <g id="matplotlib.axis_6">
    <g id="ytick_15">
     <g id="line2d_54">
      <g>
       <use style="stroke:#000000;stroke-width:0.8;" x="180" xlink:href="#m8c5e2ba610" y="618.247189"/>
      </g>
     </g>
     <g id="text_49">
      <!-- −2 -->
      <g transform="translate(158.257812 622.046408)scale(0.1 -0.1)">
       <use xlink:href="#DejaVuSans-2212"/>
       <use x="83.789062" xlink:href="#DejaVuSans-32"/>
      </g>
     </g>
    </g>
    <g id="ytick_16">
     <g id="line2d_55">
      <g>
       <use style="stroke:#000000;stroke-width:0.8;" x="180" xlink:href="#m8c5e2ba610" y="591.045324"/>
      </g>
     </g>
     <g id="text_50">
      <!-- −1 -->
      <g transform="translate(158.257812 594.844543)scale(0.1 -0.1)">
       <use xlink:href="#DejaVuSans-2212"/>
       <use x="83.789062" xlink:href="#DejaVuSans-31"/>
      </g>
     </g>
    </g>
    <g id="ytick_17">
     <g id="line2d_56">
      <g>
       <use style="stroke:#000000;stroke-width:0.8;" x="180" xlink:href="#m8c5e2ba610" y="563.843458"/>
      </g>
     </g>
     <g id="text_51">
      <!-- 0 -->
      <g transform="translate(166.6375 567.642677)scale(0.1 -0.1)">
       <use xlink:href="#DejaVuSans-30"/>
      </g>
     </g>
    </g>
    <g id="ytick_18">
     <g id="line2d_57">
      <g>
       <use style="stroke:#000000;stroke-width:0.8;" x="180" xlink:href="#m8c5e2ba610" y="536.641593"/>
      </g>
     </g>
     <g id="text_52">
      <!-- 1 -->
      <g transform="translate(166.6375 540.440812)scale(0.1 -0.1)">
       <use xlink:href="#DejaVuSans-31"/>
      </g>
     </g>
    </g>
    <g id="ytick_19">
     <g id="line2d_58">
      <g>
       <use style="stroke:#000000;stroke-width:0.8;" x="180" xlink:href="#m8c5e2ba610" y="509.439728"/>
      </g>
     </g>
     <g id="text_53">
      <!-- 2 -->
      <g transform="translate(166.6375 513.238946)scale(0.1 -0.1)">
       <use xlink:href="#DejaVuSans-32"/>
      </g>
     </g>
    </g>
    <g id="ytick_20">
     <g id="line2d_59">
      <g>
       <use style="stroke:#000000;stroke-width:0.8;" x="180" xlink:href="#m8c5e2ba610" y="482.237862"/>
      </g>
     </g>
     <g id="text_54">
      <!-- 3 -->
      <g transform="translate(166.6375 486.037081)scale(0.1 -0.1)">
       <use xlink:href="#DejaVuSans-33"/>
      </g>
     </g>
    </g>
    <g id="text_55">
     <!-- Control Input -->
     <defs>
      <path d="M 64.40625 67.28125 
L 64.40625 56.890625 
Q 59.421875 61.53125 53.78125 63.8125 
Q 48.140625 66.109375 41.796875 66.109375 
Q 29.296875 66.109375 22.65625 58.46875 
Q 16.015625 50.828125 16.015625 36.375 
Q 16.015625 21.96875 22.65625 14.328125 
Q 29.296875 6.6875 41.796875 6.6875 
Q 48.140625 6.6875 53.78125 8.984375 
Q 59.421875 11.28125 64.40625 15.921875 
L 64.40625 5.609375 
Q 59.234375 2.09375 53.4375 0.328125 
Q 47.65625 -1.421875 41.21875 -1.421875 
Q 24.65625 -1.421875 15.125 8.703125 
Q 5.609375 18.84375 5.609375 36.375 
Q 5.609375 53.953125 15.125 64.078125 
Q 24.65625 74.21875 41.21875 74.21875 
Q 47.75 74.21875 53.53125 72.484375 
Q 59.328125 70.75 64.40625 67.28125 
z
" id="DejaVuSans-43"/>
      <path d="M 30.609375 48.390625 
Q 23.390625 48.390625 19.1875 42.75 
Q 14.984375 37.109375 14.984375 27.296875 
Q 14.984375 17.484375 19.15625 11.84375 
Q 23.34375 6.203125 30.609375 6.203125 
Q 37.796875 6.203125 41.984375 11.859375 
Q 46.1875 17.53125 46.1875 27.296875 
Q 46.1875 37.015625 41.984375 42.703125 
Q 37.796875 48.390625 30.609375 48.390625 
z
M 30.609375 56 
Q 42.328125 56 49.015625 48.375 
Q 55.71875 40.765625 55.71875 27.296875 
Q 55.71875 13.875 49.015625 6.21875 
Q 42.328125 -1.421875 30.609375 -1.421875 
Q 18.84375 -1.421875 12.171875 6.21875 
Q 5.515625 13.875 5.515625 27.296875 
Q 5.515625 40.765625 12.171875 48.375 
Q 18.84375 56 30.609375 56 
z
" id="DejaVuSans-6f"/>
      <path d="M 54.890625 33.015625 
L 54.890625 0 
L 45.90625 0 
L 45.90625 32.71875 
Q 45.90625 40.484375 42.875 44.328125 
Q 39.84375 48.1875 33.796875 48.1875 
Q 26.515625 48.1875 22.3125 43.546875 
Q 18.109375 38.921875 18.109375 30.90625 
L 18.109375 0 
L 9.078125 0 
L 9.078125 54.6875 
L 18.109375 54.6875 
L 18.109375 46.1875 
Q 21.34375 51.125 25.703125 53.5625 
Q 30.078125 56 35.796875 56 
Q 45.21875 56 50.046875 50.171875 
Q 54.890625 44.34375 54.890625 33.015625 
z
" id="DejaVuSans-6e"/>
      <path d="M 9.421875 75.984375 
L 18.40625 75.984375 
L 18.40625 0 
L 9.421875 0 
z
" id="DejaVuSans-6c"/>
      <path d="M 9.8125 72.90625 
L 19.671875 72.90625 
L 19.671875 0 
L 9.8125 0 
z
" id="DejaVuSans-49"/>
      <path d="M 18.109375 8.203125 
L 18.109375 -20.796875 
L 9.078125 -20.796875 
L 9.078125 54.6875 
L 18.109375 54.6875 
L 18.109375 46.390625 
Q 20.953125 51.265625 25.265625 53.625 
Q 29.59375 56 35.59375 56 
Q 45.5625 56 51.78125 48.09375 
Q 58.015625 40.1875 58.015625 27.296875 
Q 58.015625 14.40625 51.78125 6.484375 
Q 45.5625 -1.421875 35.59375 -1.421875 
Q 29.59375 -1.421875 25.265625 0.953125 
Q 20.953125 3.328125 18.109375 8.203125 
z
M 48.6875 27.296875 
Q 48.6875 37.203125 44.609375 42.84375 
Q 40.53125 48.484375 33.40625 48.484375 
Q 26.265625 48.484375 22.1875 42.84375 
Q 18.109375 37.203125 18.109375 27.296875 
Q 18.109375 17.390625 22.1875 11.75 
Q 26.265625 6.109375 33.40625 6.109375 
Q 40.53125 6.109375 44.609375 11.75 
Q 48.6875 17.390625 48.6875 27.296875 
z
" id="DejaVuSans-70"/>
     </defs>
     <g transform="translate(152.178125 591.988557)rotate(-90)scale(0.1 -0.1)">
      <use xlink:href="#DejaVuSans-43"/>
      <use x="69.824219" xlink:href="#DejaVuSans-6f"/>
      <use x="131.005859" xlink:href="#DejaVuSans-6e"/>
      <use x="194.384766" xlink:href="#DejaVuSans-74"/>
      <use x="233.59375" xlink:href="#DejaVuSans-72"/>
      <use x="274.675781" xlink:href="#DejaVuSans-6f"/>
      <use x="335.857422" xlink:href="#DejaVuSans-6c"/>
      <use x="363.640625" xlink:href="#DejaVuSans-20"/>
      <use x="395.427734" xlink:href="#DejaVuSans-49"/>
      <use x="424.919922" xlink:href="#DejaVuSans-6e"/>
      <use x="488.298828" xlink:href="#DejaVuSans-70"/>
      <use x="551.775391" xlink:href="#DejaVuSans-75"/>
      <use x="615.154297" xlink:href="#DejaVuSans-74"/>
     </g>
    </g>
   </g>
   <g id="line2d_60">
    <path clip-path="url(#p4c67bdcfb2)" d="M 230.727273 535.294929 
L 235.825491 535.442225 
L 240.923709 536.619198 
L 251.120146 535.563564 
L 256.218365 532.380916 
L 261.316583 533.558231 
L 266.414801 530.594765 
L 271.51302 545.755976 
L 276.611238 596.903014 
L 281.709456 594.905819 
L 286.807675 596.392243 
L 291.905893 596.696444 
L 297.004111 569.83103 
L 302.10233 500.625164 
L 307.200548 501.492658 
L 312.298767 503.545016 
L 317.396985 501.387452 
L 322.495203 500.890323 
L 327.593422 587.667806 
L 332.69164 589.624294 
L 337.789858 590.203611 
L 342.888077 591.345138 
L 347.986295 591.696063 
L 353.084513 592.318902 
L 358.182732 598.721818 
L 363.28095 606.82535 
L 368.379169 609.882434 
L 373.477387 610.139786 
L 378.575605 610.585339 
L 383.673824 574.76823 
L 388.772042 491.251401 
L 393.87026 500.167002 
L 398.968479 503.701043 
L 404.066697 505.065564 
L 409.164915 542.744827 
L 414.263134 588.179793 
L 419.361352 575.431854 
L 424.459571 575.376509 
L 429.557789 577.966549 
L 434.656007 578.990416 
L 439.754226 544.402865 
L 444.852444 524.107483 
L 449.950662 525.049738 
L 455.048881 524.421526 
L 460.147099 524.035121 
L 465.245317 525.673532 
L 470.343536 581.618953 
L 475.441754 579.33767 
L 485.638191 579.953897 
L 490.736409 580.475183 
L 495.834628 568.937174 
L 500.932846 555.612848 
L 506.031064 556.563569 
L 516.227501 556.265089 
L 521.32572 562.869304 
L 526.423938 615.042623 
L 531.522156 612.428198 
L 536.620375 612.691025 
L 541.718593 614.101395 
L 546.816811 615.014567 
L 551.91503 615.257489 
L 557.013248 611.355344 
L 562.111466 612.13506 
L 567.209685 615.089712 
L 572.307903 615.628891 
L 577.406122 615.717453 
L 582.50434 621.973309 
L 587.602558 624.541562 
L 592.700777 621.960453 
L 597.798995 622.278864 
L 602.897213 622.276827 
L 607.995432 574.753934 
L 613.09365 563.129316 
L 618.191868 562.334609 
L 623.290087 561.241954 
L 628.388305 560.927353 
L 633.486524 573.983737 
L 638.584742 617.74752 
L 643.68296 606.901182 
L 648.781179 607.177307 
L 653.879397 607.175978 
L 658.977615 607.371912 
L 664.075834 551.772555 
L 669.174052 548.672039 
L 674.27227 548.252993 
L 679.370489 547.609917 
L 684.468707 546.510105 
L 689.566926 543.028411 
L 694.665144 550.57594 
L 699.763362 554.553306 
L 704.861581 553.669572 
L 709.959799 553.190907 
L 720.156236 552.932674 
L 725.254454 523.934458 
L 730.352672 525.675659 
L 735.450891 525.821166 
L 740.549109 525.492262 
L 745.647328 524.630552 
L 750.745546 549.921787 
L 755.843764 542.86686 
L 760.941983 538.877079 
L 766.040201 539.242896 
L 771.138419 538.721841 
L 776.236638 537.773802 
L 781.334856 491.658086 
L 786.433074 492.352374 
L 791.531293 492.782473 
L 796.629511 491.121036 
L 801.72773 487.507833 
L 806.825948 596.128018 
L 811.924166 575.460719 
L 817.022385 576.134999 
L 822.120603 577.036627 
L 827.218821 579.738175 
L 832.31704 581.198426 
L 837.415258 582.101073 
L 842.513476 582.631624 
L 852.709913 583.316872 
L 857.808132 584.098497 
L 862.90635 537.288718 
L 868.004568 485.152941 
L 873.102787 493.170918 
L 878.201005 495.12999 
L 883.299223 493.136827 
L 888.397442 490.415854 
L 893.49566 494.771704 
L 898.593878 491.778878 
L 903.692097 491.915558 
L 908.790315 488.755611 
L 913.888534 488.064549 
L 918.986752 550.899883 
L 924.08497 571.088991 
L 929.183189 572.275364 
L 939.379625 574.089708 
L 944.477844 551.866461 
L 949.576062 528.907506 
L 954.67428 531.050739 
L 959.772499 530.645118 
L 964.870717 526.353486 
L 969.968936 528.286937 
L 975.067154 560.248485 
L 980.165372 555.26261 
L 985.263591 555.382947 
L 990.361809 555.825934 
L 1000.558246 556.243423 
L 1005.656464 535.315405 
L 1010.754683 542.566603 
L 1015.852901 540.88906 
L 1020.951119 540.710561 
L 1026.049338 539.457089 
L 1031.147556 549.455333 
L 1036.245774 603.288263 
L 1041.343993 601.284911 
L 1046.442211 601.571663 
L 1051.540429 602.728628 
L 1056.638648 569.478755 
L 1061.736866 506.35291 
L 1066.835085 510.423094 
L 1071.933303 510.399821 
L 1077.031521 509.786408 
L 1082.12974 508.408817 
L 1087.227958 521.657126 
L 1092.326176 542.470133 
L 1097.424395 538.022139 
L 1102.522613 535.619528 
L 1107.620831 538.485256 
L 1112.71905 535.535988 
L 1117.817268 540.649307 
L 1122.915487 540.706781 
L 1128.013705 541.664455 
L 1133.111923 538.714521 
L 1138.210142 542.050073 
L 1143.30836 539.371905 
L 1148.406578 488.226603 
L 1153.504797 494.32619 
L 1158.603015 494.109551 
L 1163.701233 492.527062 
L 1168.799452 541.972555 
L 1173.89767 633.388235 
L 1178.995889 621.895583 
L 1184.094107 613.637582 
L 1189.192325 613.553142 
L 1194.290544 615.873006 
L 1199.388762 541.255947 
L 1204.48698 553.265846 
L 1209.585199 553.695185 
L 1214.683417 553.85914 
L 1219.781635 556.613127 
L 1224.879854 555.762934 
L 1229.978072 581.166684 
L 1235.076291 598.508564 
L 1245.272727 598.899424 
L 1245.272727 598.899424 
" style="fill:none;stroke:#ff0000;stroke-linecap:square;stroke-width:1.5;"/>
   </g>
   <g id="patch_15">
    <path d="M 180 640.8 
L 180 477.741176 
" style="fill:none;stroke:#000000;stroke-linecap:square;stroke-linejoin:miter;stroke-width:0.8;"/>
   </g>
   <g id="patch_16">
    <path d="M 1296 640.8 
L 1296 477.741176 
" style="fill:none;stroke:#000000;stroke-linecap:square;stroke-linejoin:miter;stroke-width:0.8;"/>
   </g>
   <g id="patch_17">
    <path d="M 180 640.8 
L 1296 640.8 
" style="fill:none;stroke:#000000;stroke-linecap:square;stroke-linejoin:miter;stroke-width:0.8;"/>
   </g>
   <g id="patch_18">
    <path d="M 180 477.741176 
L 1296 477.741176 
" style="fill:none;stroke:#000000;stroke-linecap:square;stroke-linejoin:miter;stroke-width:0.8;"/>
   </g>
   <g id="legend_3">
    <g id="patch_19">
     <path d="M 1194.742188 500.419301 
L 1289 500.419301 
Q 1291 500.419301 1291 498.419301 
L 1291 484.741176 
Q 1291 482.741176 1289 482.741176 
L 1194.742188 482.741176 
Q 1192.742188 482.741176 1192.742188 484.741176 
L 1192.742188 498.419301 
Q 1192.742188 500.419301 1194.742188 500.419301 
z
" style="fill:#ffffff;opacity:0.8;stroke:#cccccc;stroke-linejoin:miter;"/>
    </g>
    <g id="line2d_61">
     <path d="M 1196.742188 490.839614 
L 1216.742188 490.839614 
" style="fill:none;stroke:#ff0000;stroke-linecap:square;stroke-width:1.5;"/>
    </g>
    <g id="line2d_62"/>
    <g id="text_56">
     <!-- ControlInput -->
     <g transform="translate(1224.742188 494.339614)scale(0.1 -0.1)">
      <use xlink:href="#DejaVuSans-43"/>
      <use x="69.824219" xlink:href="#DejaVuSans-6f"/>
      <use x="131.005859" xlink:href="#DejaVuSans-6e"/>
      <use x="194.384766" xlink:href="#DejaVuSans-74"/>
      <use x="233.59375" xlink:href="#DejaVuSans-72"/>
      <use x="274.675781" xlink:href="#DejaVuSans-6f"/>
      <use x="335.857422" xlink:href="#DejaVuSans-6c"/>
      <use x="363.640625" xlink:href="#DejaVuSans-49"/>
      <use x="393.132812" xlink:href="#DejaVuSans-6e"/>
      <use x="456.511719" xlink:href="#DejaVuSans-70"/>
      <use x="519.988281" xlink:href="#DejaVuSans-75"/>
      <use x="583.367188" xlink:href="#DejaVuSans-74"/>
     </g>
    </g>
   </g>
  </g>
 </g>
 <defs>
  <clipPath id="p3850ab411e">
   <rect height="163.058824" width="1116" x="180" y="86.4"/>
  </clipPath>
  <clipPath id="p7afda486cc">
   <rect height="163.058824" width="1116" x="180" y="282.070588"/>
  </clipPath>
  <clipPath id="p4c67bdcfb2">
   <rect height="163.058824" width="1116" x="180" y="477.741176"/>
  </clipPath>
 </defs>
</svg>
