<?xml version="1.0" encoding="utf-8" standalone="no"?>
<!DOCTYPE svg PUBLIC "-//W3C//DTD SVG 1.1//EN"
  "http://www.w3.org/Graphics/SVG/1.1/DTD/svg11.dtd">
<!-- Created with matplotlib (http://matplotlib.org/) -->
<svg height="720pt" version="1.1" viewBox="0 0 1440 720" width="1440pt" xmlns="http://www.w3.org/2000/svg" xmlns:xlink="http://www.w3.org/1999/xlink">
 <defs>
  <style type="text/css">
*{stroke-linecap:butt;stroke-linejoin:round;}
  </style>
 </defs>
 <g id="figure_1">
  <g id="patch_1">
   <path d="M 0 720 
L 1440 720 
L 1440 0 
L 0 0 
z
" style="fill:#ffffff;"/>
  </g>
  <g id="axes_1">
   <g id="patch_2">
    <path d="M 180 249.458824 
L 1296 249.458824 
L 1296 86.4 
L 180 86.4 
z
" style="fill:#ffffff;"/>
   </g>
   <g id="matplotlib.axis_1">
    <g id="xtick_1">
     <g id="line2d_1">
      <defs>
       <path d="M 0 0 
L 0 3.5 
" id="mee1115cf8d" style="stroke:#000000;stroke-width:0.8;"/>
      </defs>
      <g>
       <use style="stroke:#000000;stroke-width:0.8;" x="225.629054" xlink:href="#mee1115cf8d" y="249.458824"/>
      </g>
     </g>
     <g id="text_1">
      <!-- 0 -->
      <defs>
       <path d="M 31.78125 66.40625 
Q 24.171875 66.40625 20.328125 58.90625 
Q 16.5 51.421875 16.5 36.375 
Q 16.5 21.390625 20.328125 13.890625 
Q 24.171875 6.390625 31.78125 6.390625 
Q 39.453125 6.390625 43.28125 13.890625 
Q 47.125 21.390625 47.125 36.375 
Q 47.125 51.421875 43.28125 58.90625 
Q 39.453125 66.40625 31.78125 66.40625 
z
M 31.78125 74.21875 
Q 44.046875 74.21875 50.515625 64.515625 
Q 56.984375 54.828125 56.984375 36.375 
Q 56.984375 17.96875 50.515625 8.265625 
Q 44.046875 -1.421875 31.78125 -1.421875 
Q 19.53125 -1.421875 13.0625 8.265625 
Q 6.59375 17.96875 6.59375 36.375 
Q 6.59375 54.828125 13.0625 64.515625 
Q 19.53125 74.21875 31.78125 74.21875 
z
" id="DejaVuSans-30"/>
      </defs>
      <g transform="translate(222.447804 264.057261)scale(0.1 -0.1)">
       <use xlink:href="#DejaVuSans-30"/>
      </g>
     </g>
    </g>
    <g id="xtick_2">
     <g id="line2d_2">
      <g>
       <use style="stroke:#000000;stroke-width:0.8;" x="353.084513" xlink:href="#mee1115cf8d" y="249.458824"/>
      </g>
     </g>
     <g id="text_2">
      <!-- 500 -->
      <defs>
       <path d="M 10.796875 72.90625 
L 49.515625 72.90625 
L 49.515625 64.59375 
L 19.828125 64.59375 
L 19.828125 46.734375 
Q 21.96875 47.46875 24.109375 47.828125 
Q 26.265625 48.1875 28.421875 48.1875 
Q 40.625 48.1875 47.75 41.5 
Q 54.890625 34.8125 54.890625 23.390625 
Q 54.890625 11.625 47.5625 5.09375 
Q 40.234375 -1.421875 26.90625 -1.421875 
Q 22.3125 -1.421875 17.546875 -0.640625 
Q 12.796875 0.140625 7.71875 1.703125 
L 7.71875 11.625 
Q 12.109375 9.234375 16.796875 8.0625 
Q 21.484375 6.890625 26.703125 6.890625 
Q 35.15625 6.890625 40.078125 11.328125 
Q 45.015625 15.765625 45.015625 23.390625 
Q 45.015625 31 40.078125 35.4375 
Q 35.15625 39.890625 26.703125 39.890625 
Q 22.75 39.890625 18.8125 39.015625 
Q 14.890625 38.140625 10.796875 36.28125 
z
" id="DejaVuSans-35"/>
      </defs>
      <g transform="translate(343.540763 264.057261)scale(0.1 -0.1)">
       <use xlink:href="#DejaVuSans-35"/>
       <use x="63.623047" xlink:href="#DejaVuSans-30"/>
       <use x="127.246094" xlink:href="#DejaVuSans-30"/>
      </g>
     </g>
    </g>
    <g id="xtick_3">
     <g id="line2d_3">
      <g>
       <use style="stroke:#000000;stroke-width:0.8;" x="480.539973" xlink:href="#mee1115cf8d" y="249.458824"/>
      </g>
     </g>
     <g id="text_3">
      <!-- 1000 -->
      <defs>
       <path d="M 12.40625 8.296875 
L 28.515625 8.296875 
L 28.515625 63.921875 
L 10.984375 60.40625 
L 10.984375 69.390625 
L 28.421875 72.90625 
L 38.28125 72.90625 
L 38.28125 8.296875 
L 54.390625 8.296875 
L 54.390625 0 
L 12.40625 0 
z
" id="DejaVuSans-31"/>
      </defs>
      <g transform="translate(467.814973 264.057261)scale(0.1 -0.1)">
       <use xlink:href="#DejaVuSans-31"/>
       <use x="63.623047" xlink:href="#DejaVuSans-30"/>
       <use x="127.246094" xlink:href="#DejaVuSans-30"/>
       <use x="190.869141" xlink:href="#DejaVuSans-30"/>
      </g>
     </g>
    </g>
    <g id="xtick_4">
     <g id="line2d_4">
      <g>
       <use style="stroke:#000000;stroke-width:0.8;" x="607.995432" xlink:href="#mee1115cf8d" y="249.458824"/>
      </g>
     </g>
     <g id="text_4">
      <!-- 1500 -->
      <g transform="translate(595.270432 264.057261)scale(0.1 -0.1)">
       <use xlink:href="#DejaVuSans-31"/>
       <use x="63.623047" xlink:href="#DejaVuSans-35"/>
       <use x="127.246094" xlink:href="#DejaVuSans-30"/>
       <use x="190.869141" xlink:href="#DejaVuSans-30"/>
      </g>
     </g>
    </g>
    <g id="xtick_5">
     <g id="line2d_5">
      <g>
       <use style="stroke:#000000;stroke-width:0.8;" x="735.450891" xlink:href="#mee1115cf8d" y="249.458824"/>
      </g>
     </g>
     <g id="text_5">
      <!-- 2000 -->
      <defs>
       <path d="M 19.1875 8.296875 
L 53.609375 8.296875 
L 53.609375 0 
L 7.328125 0 
L 7.328125 8.296875 
Q 12.9375 14.109375 22.625 23.890625 
Q 32.328125 33.6875 34.8125 36.53125 
Q 39.546875 41.84375 41.421875 45.53125 
Q 43.3125 49.21875 43.3125 52.78125 
Q 43.3125 58.59375 39.234375 62.25 
Q 35.15625 65.921875 28.609375 65.921875 
Q 23.96875 65.921875 18.8125 64.3125 
Q 13.671875 62.703125 7.8125 59.421875 
L 7.8125 69.390625 
Q 13.765625 71.78125 18.9375 73 
Q 24.125 74.21875 28.421875 74.21875 
Q 39.75 74.21875 46.484375 68.546875 
Q 53.21875 62.890625 53.21875 53.421875 
Q 53.21875 48.921875 51.53125 44.890625 
Q 49.859375 40.875 45.40625 35.40625 
Q 44.1875 33.984375 37.640625 27.21875 
Q 31.109375 20.453125 19.1875 8.296875 
z
" id="DejaVuSans-32"/>
      </defs>
      <g transform="translate(722.725891 264.057261)scale(0.1 -0.1)">
       <use xlink:href="#DejaVuSans-32"/>
       <use x="63.623047" xlink:href="#DejaVuSans-30"/>
       <use x="127.246094" xlink:href="#DejaVuSans-30"/>
       <use x="190.869141" xlink:href="#DejaVuSans-30"/>
      </g>
     </g>
    </g>
    <g id="xtick_6">
     <g id="line2d_6">
      <g>
       <use style="stroke:#000000;stroke-width:0.8;" x="862.90635" xlink:href="#mee1115cf8d" y="249.458824"/>
      </g>
     </g>
     <g id="text_6">
      <!-- 2500 -->
      <g transform="translate(850.18135 264.057261)scale(0.1 -0.1)">
       <use xlink:href="#DejaVuSans-32"/>
       <use x="63.623047" xlink:href="#DejaVuSans-35"/>
       <use x="127.246094" xlink:href="#DejaVuSans-30"/>
       <use x="190.869141" xlink:href="#DejaVuSans-30"/>
      </g>
     </g>
    </g>
    <g id="xtick_7">
     <g id="line2d_7">
      <g>
       <use style="stroke:#000000;stroke-width:0.8;" x="990.361809" xlink:href="#mee1115cf8d" y="249.458824"/>
      </g>
     </g>
     <g id="text_7">
      <!-- 3000 -->
      <defs>
       <path d="M 40.578125 39.3125 
Q 47.65625 37.796875 51.625 33 
Q 55.609375 28.21875 55.609375 21.1875 
Q 55.609375 10.40625 48.1875 4.484375 
Q 40.765625 -1.421875 27.09375 -1.421875 
Q 22.515625 -1.421875 17.65625 -0.515625 
Q 12.796875 0.390625 7.625 2.203125 
L 7.625 11.71875 
Q 11.71875 9.328125 16.59375 8.109375 
Q 21.484375 6.890625 26.8125 6.890625 
Q 36.078125 6.890625 40.9375 10.546875 
Q 45.796875 14.203125 45.796875 21.1875 
Q 45.796875 27.640625 41.28125 31.265625 
Q 36.765625 34.90625 28.71875 34.90625 
L 20.21875 34.90625 
L 20.21875 43.015625 
L 29.109375 43.015625 
Q 36.375 43.015625 40.234375 45.921875 
Q 44.09375 48.828125 44.09375 54.296875 
Q 44.09375 59.90625 40.109375 62.90625 
Q 36.140625 65.921875 28.71875 65.921875 
Q 24.65625 65.921875 20.015625 65.03125 
Q 15.375 64.15625 9.8125 62.3125 
L 9.8125 71.09375 
Q 15.4375 72.65625 20.34375 73.4375 
Q 25.25 74.21875 29.59375 74.21875 
Q 40.828125 74.21875 47.359375 69.109375 
Q 53.90625 64.015625 53.90625 55.328125 
Q 53.90625 49.265625 50.4375 45.09375 
Q 46.96875 40.921875 40.578125 39.3125 
z
" id="DejaVuSans-33"/>
      </defs>
      <g transform="translate(977.636809 264.057261)scale(0.1 -0.1)">
       <use xlink:href="#DejaVuSans-33"/>
       <use x="63.623047" xlink:href="#DejaVuSans-30"/>
       <use x="127.246094" xlink:href="#DejaVuSans-30"/>
       <use x="190.869141" xlink:href="#DejaVuSans-30"/>
      </g>
     </g>
    </g>
    <g id="xtick_8">
     <g id="line2d_8">
      <g>
       <use style="stroke:#000000;stroke-width:0.8;" x="1117.817268" xlink:href="#mee1115cf8d" y="249.458824"/>
      </g>
     </g>
     <g id="text_8">
      <!-- 3500 -->
      <g transform="translate(1105.092268 264.057261)scale(0.1 -0.1)">
       <use xlink:href="#DejaVuSans-33"/>
       <use x="63.623047" xlink:href="#DejaVuSans-35"/>
       <use x="127.246094" xlink:href="#DejaVuSans-30"/>
       <use x="190.869141" xlink:href="#DejaVuSans-30"/>
      </g>
     </g>
    </g>
    <g id="xtick_9">
     <g id="line2d_9">
      <g>
       <use style="stroke:#000000;stroke-width:0.8;" x="1245.272727" xlink:href="#mee1115cf8d" y="249.458824"/>
      </g>
     </g>
     <g id="text_9">
      <!-- 4000 -->
      <defs>
       <path d="M 37.796875 64.3125 
L 12.890625 25.390625 
L 37.796875 25.390625 
z
M 35.203125 72.90625 
L 47.609375 72.90625 
L 47.609375 25.390625 
L 58.015625 25.390625 
L 58.015625 17.1875 
L 47.609375 17.1875 
L 47.609375 0 
L 37.796875 0 
L 37.796875 17.1875 
L 4.890625 17.1875 
L 4.890625 26.703125 
z
" id="DejaVuSans-34"/>
      </defs>
      <g transform="translate(1232.547727 264.057261)scale(0.1 -0.1)">
       <use xlink:href="#DejaVuSans-34"/>
       <use x="63.623047" xlink:href="#DejaVuSans-30"/>
       <use x="127.246094" xlink:href="#DejaVuSans-30"/>
       <use x="190.869141" xlink:href="#DejaVuSans-30"/>
      </g>
     </g>
    </g>
   </g>
   <g id="matplotlib.axis_2">
    <g id="ytick_1">
     <g id="line2d_10">
      <defs>
       <path d="M 0 0 
L -3.5 0 
" id="m3ae0fbb89b" style="stroke:#000000;stroke-width:0.8;"/>
      </defs>
      <g>
       <use style="stroke:#000000;stroke-width:0.8;" x="180" xlink:href="#m3ae0fbb89b" y="241.544023"/>
      </g>
     </g>
     <g id="text_10">
      <!-- −1.0 -->
      <defs>
       <path d="M 10.59375 35.5 
L 73.1875 35.5 
L 73.1875 27.203125 
L 10.59375 27.203125 
z
" id="DejaVuSans-2212"/>
       <path d="M 10.6875 12.40625 
L 21 12.40625 
L 21 0 
L 10.6875 0 
z
" id="DejaVuSans-2e"/>
      </defs>
      <g transform="translate(148.717187 245.343242)scale(0.1 -0.1)">
       <use xlink:href="#DejaVuSans-2212"/>
       <use x="83.789062" xlink:href="#DejaVuSans-31"/>
       <use x="147.412109" xlink:href="#DejaVuSans-2e"/>
       <use x="179.199219" xlink:href="#DejaVuSans-30"/>
      </g>
     </g>
    </g>
    <g id="ytick_2">
     <g id="line2d_11">
      <g>
       <use style="stroke:#000000;stroke-width:0.8;" x="180" xlink:href="#m3ae0fbb89b" y="202.533483"/>
      </g>
     </g>
     <g id="text_11">
      <!-- −0.5 -->
      <g transform="translate(148.717187 206.332701)scale(0.1 -0.1)">
       <use xlink:href="#DejaVuSans-2212"/>
       <use x="83.789062" xlink:href="#DejaVuSans-30"/>
       <use x="147.412109" xlink:href="#DejaVuSans-2e"/>
       <use x="179.199219" xlink:href="#DejaVuSans-35"/>
      </g>
     </g>
    </g>
    <g id="ytick_3">
     <g id="line2d_12">
      <g>
       <use style="stroke:#000000;stroke-width:0.8;" x="180" xlink:href="#m3ae0fbb89b" y="163.522942"/>
      </g>
     </g>
     <g id="text_12">
      <!-- 0.0 -->
      <g transform="translate(157.096875 167.322161)scale(0.1 -0.1)">
       <use xlink:href="#DejaVuSans-30"/>
       <use x="63.623047" xlink:href="#DejaVuSans-2e"/>
       <use x="95.410156" xlink:href="#DejaVuSans-30"/>
      </g>
     </g>
    </g>
    <g id="ytick_4">
     <g id="line2d_13">
      <g>
       <use style="stroke:#000000;stroke-width:0.8;" x="180" xlink:href="#m3ae0fbb89b" y="124.512402"/>
      </g>
     </g>
     <g id="text_13">
      <!-- 0.5 -->
      <g transform="translate(157.096875 128.311621)scale(0.1 -0.1)">
       <use xlink:href="#DejaVuSans-30"/>
       <use x="63.623047" xlink:href="#DejaVuSans-2e"/>
       <use x="95.410156" xlink:href="#DejaVuSans-35"/>
      </g>
     </g>
    </g>
    <g id="text_14">
     <!-- TD State:0 -->
     <defs>
      <path d="M -0.296875 72.90625 
L 61.375 72.90625 
L 61.375 64.59375 
L 35.5 64.59375 
L 35.5 0 
L 25.59375 0 
L 25.59375 64.59375 
L -0.296875 64.59375 
z
" id="DejaVuSans-54"/>
      <path d="M 19.671875 64.796875 
L 19.671875 8.109375 
L 31.59375 8.109375 
Q 46.6875 8.109375 53.6875 14.9375 
Q 60.6875 21.78125 60.6875 36.53125 
Q 60.6875 51.171875 53.6875 57.984375 
Q 46.6875 64.796875 31.59375 64.796875 
z
M 9.8125 72.90625 
L 30.078125 72.90625 
Q 51.265625 72.90625 61.171875 64.09375 
Q 71.09375 55.28125 71.09375 36.53125 
Q 71.09375 17.671875 61.125 8.828125 
Q 51.171875 0 30.078125 0 
L 9.8125 0 
z
" id="DejaVuSans-44"/>
      <path id="DejaVuSans-20"/>
      <path d="M 53.515625 70.515625 
L 53.515625 60.890625 
Q 47.90625 63.578125 42.921875 64.890625 
Q 37.9375 66.21875 33.296875 66.21875 
Q 25.25 66.21875 20.875 63.09375 
Q 16.5 59.96875 16.5 54.203125 
Q 16.5 49.359375 19.40625 46.890625 
Q 22.3125 44.4375 30.421875 42.921875 
L 36.375 41.703125 
Q 47.40625 39.59375 52.65625 34.296875 
Q 57.90625 29 57.90625 20.125 
Q 57.90625 9.515625 50.796875 4.046875 
Q 43.703125 -1.421875 29.984375 -1.421875 
Q 24.8125 -1.421875 18.96875 -0.25 
Q 13.140625 0.921875 6.890625 3.21875 
L 6.890625 13.375 
Q 12.890625 10.015625 18.65625 8.296875 
Q 24.421875 6.59375 29.984375 6.59375 
Q 38.421875 6.59375 43.015625 9.90625 
Q 47.609375 13.234375 47.609375 19.390625 
Q 47.609375 24.75 44.3125 27.78125 
Q 41.015625 30.8125 33.5 32.328125 
L 27.484375 33.5 
Q 16.453125 35.6875 11.515625 40.375 
Q 6.59375 45.0625 6.59375 53.421875 
Q 6.59375 63.09375 13.40625 68.65625 
Q 20.21875 74.21875 32.171875 74.21875 
Q 37.3125 74.21875 42.625 73.28125 
Q 47.953125 72.359375 53.515625 70.515625 
z
" id="DejaVuSans-53"/>
      <path d="M 18.3125 70.21875 
L 18.3125 54.6875 
L 36.8125 54.6875 
L 36.8125 47.703125 
L 18.3125 47.703125 
L 18.3125 18.015625 
Q 18.3125 11.328125 20.140625 9.421875 
Q 21.96875 7.515625 27.59375 7.515625 
L 36.8125 7.515625 
L 36.8125 0 
L 27.59375 0 
Q 17.1875 0 13.234375 3.875 
Q 9.28125 7.765625 9.28125 18.015625 
L 9.28125 47.703125 
L 2.6875 47.703125 
L 2.6875 54.6875 
L 9.28125 54.6875 
L 9.28125 70.21875 
z
" id="DejaVuSans-74"/>
      <path d="M 34.28125 27.484375 
Q 23.390625 27.484375 19.1875 25 
Q 14.984375 22.515625 14.984375 16.5 
Q 14.984375 11.71875 18.140625 8.90625 
Q 21.296875 6.109375 26.703125 6.109375 
Q 34.1875 6.109375 38.703125 11.40625 
Q 43.21875 16.703125 43.21875 25.484375 
L 43.21875 27.484375 
z
M 52.203125 31.203125 
L 52.203125 0 
L 43.21875 0 
L 43.21875 8.296875 
Q 40.140625 3.328125 35.546875 0.953125 
Q 30.953125 -1.421875 24.3125 -1.421875 
Q 15.921875 -1.421875 10.953125 3.296875 
Q 6 8.015625 6 15.921875 
Q 6 25.140625 12.171875 29.828125 
Q 18.359375 34.515625 30.609375 34.515625 
L 43.21875 34.515625 
L 43.21875 35.40625 
Q 43.21875 41.609375 39.140625 45 
Q 35.0625 48.390625 27.6875 48.390625 
Q 23 48.390625 18.546875 47.265625 
Q 14.109375 46.140625 10.015625 43.890625 
L 10.015625 52.203125 
Q 14.9375 54.109375 19.578125 55.046875 
Q 24.21875 56 28.609375 56 
Q 40.484375 56 46.34375 49.84375 
Q 52.203125 43.703125 52.203125 31.203125 
z
" id="DejaVuSans-61"/>
      <path d="M 56.203125 29.59375 
L 56.203125 25.203125 
L 14.890625 25.203125 
Q 15.484375 15.921875 20.484375 11.0625 
Q 25.484375 6.203125 34.421875 6.203125 
Q 39.59375 6.203125 44.453125 7.46875 
Q 49.3125 8.734375 54.109375 11.28125 
L 54.109375 2.78125 
Q 49.265625 0.734375 44.1875 -0.34375 
Q 39.109375 -1.421875 33.890625 -1.421875 
Q 20.796875 -1.421875 13.15625 6.1875 
Q 5.515625 13.8125 5.515625 26.8125 
Q 5.515625 40.234375 12.765625 48.109375 
Q 20.015625 56 32.328125 56 
Q 43.359375 56 49.78125 48.890625 
Q 56.203125 41.796875 56.203125 29.59375 
z
M 47.21875 32.234375 
Q 47.125 39.59375 43.09375 43.984375 
Q 39.0625 48.390625 32.421875 48.390625 
Q 24.90625 48.390625 20.390625 44.140625 
Q 15.875 39.890625 15.1875 32.171875 
z
" id="DejaVuSans-65"/>
      <path d="M 11.71875 12.40625 
L 22.015625 12.40625 
L 22.015625 0 
L 11.71875 0 
z
M 11.71875 51.703125 
L 22.015625 51.703125 
L 22.015625 39.3125 
L 11.71875 39.3125 
z
" id="DejaVuSans-3a"/>
     </defs>
     <g transform="translate(142.6375 194.523162)rotate(-90)scale(0.1 -0.1)">
      <use xlink:href="#DejaVuSans-54"/>
      <use x="61.083984" xlink:href="#DejaVuSans-44"/>
      <use x="138.085938" xlink:href="#DejaVuSans-20"/>
      <use x="169.873047" xlink:href="#DejaVuSans-53"/>
      <use x="233.349609" xlink:href="#DejaVuSans-74"/>
      <use x="272.558594" xlink:href="#DejaVuSans-61"/>
      <use x="333.837891" xlink:href="#DejaVuSans-74"/>
      <use x="373.046875" xlink:href="#DejaVuSans-65"/>
      <use x="434.570312" xlink:href="#DejaVuSans-3a"/>
      <use x="468.261719" xlink:href="#DejaVuSans-30"/>
     </g>
    </g>
   </g>
   <g id="line2d_14">
    <path clip-path="url(#p3d50eb9455)" d="M 230.727273 179.810519 
L 235.825491 189.259857 
L 240.923709 190.35438 
L 246.021928 185.549472 
L 251.120146 186.370822 
L 256.218365 188.988166 
L 261.316583 186.46177 
L 266.414801 186.38135 
L 271.51302 180.541661 
L 276.611238 134.379465 
L 281.709456 135.81618 
L 286.807675 134.279958 
L 291.905893 135.797022 
L 297.004111 158.65634 
L 302.10233 211.550342 
L 307.200548 198.988561 
L 312.298767 199.686068 
L 317.396985 205.91064 
L 322.495203 201.835322 
L 327.593422 139.838869 
L 332.69164 137.928358 
L 337.789858 137.362651 
L 342.888077 136.408276 
L 347.986295 136.136886 
L 353.084513 135.655198 
L 358.182732 130.703337 
L 363.28095 124.093981 
L 368.379169 121.762958 
L 373.477387 122.777596 
L 378.575605 123.294541 
L 383.673824 153.176167 
L 388.772042 207.420608 
L 393.87026 201.065238 
L 398.968479 201.569158 
L 404.066697 200.867272 
L 409.164915 181.486089 
L 414.263134 140.137598 
L 419.361352 150.472739 
L 424.459571 153.181047 
L 429.557789 149.364607 
L 434.656007 148.3648 
L 439.754226 181.152215 
L 444.852444 191.195957 
L 449.950662 195.975802 
L 455.048881 192.172368 
L 460.147099 192.691848 
L 465.245317 191.282897 
L 470.343536 145.745584 
L 475.441754 148.949036 
L 480.539973 147.634368 
L 485.638191 147.354034 
L 490.736409 146.844999 
L 495.834628 158.374863 
L 500.932846 171.132152 
L 506.031064 170.152794 
L 516.227501 170.315371 
L 521.32572 164.244208 
L 526.423938 118.31457 
L 531.522156 120.195316 
L 536.620375 119.072365 
L 541.718593 118.305646 
L 546.816811 115.414639 
L 551.91503 119.206734 
L 557.013248 120.164409 
L 562.111466 119.44046 
L 567.209685 112.882174 
L 572.307903 116.388669 
L 577.406122 114.157407 
L 582.50434 113.035708 
L 587.602558 114.713495 
L 592.700777 116.980909 
L 597.798995 125.217933 
L 602.897213 129.867215 
L 607.995432 137.497813 
L 613.09365 144.647946 
L 618.191868 144.170945 
L 623.290087 138.127245 
L 628.388305 142.854337 
L 633.486524 133.779368 
L 638.584742 140.408603 
L 643.68296 129.745588 
L 648.781179 129.864064 
L 653.879397 143.556392 
L 658.977615 152.017262 
L 664.075834 151.773866 
L 674.27227 151.768579 
L 679.370489 140.918798 
L 684.468707 151.721078 
L 689.566926 163.522286 
L 730.352672 163.521616 
L 735.450891 175.962621 
L 740.549109 184.673014 
L 745.647328 184.52734 
L 750.745546 184.108161 
L 755.843764 175.830022 
L 760.941983 191.908187 
L 766.040201 191.402059 
L 771.138419 196.737245 
L 776.236638 190.599857 
L 781.334856 173.462522 
L 786.433074 171.479984 
L 791.531293 171.991126 
L 796.629511 171.576766 
L 801.72773 174.772489 
L 806.825948 159.302015 
L 811.924166 169.707844 
L 817.022385 132.360365 
L 822.120603 162.070365 
L 827.218821 169.297838 
L 832.31704 159.572711 
L 837.415258 159.117004 
L 847.611695 158.686137 
L 852.709913 158.503198 
L 857.808132 172.169375 
L 862.90635 155.932378 
L 868.004568 173.89009 
L 873.102787 175.888085 
L 878.201005 177.553162 
L 883.299223 198.458625 
L 888.397442 221.355569 
L 893.49566 219.899853 
L 898.593878 223.663488 
L 903.692097 224.810333 
L 908.790315 215.234837 
L 913.888534 211.173919 
L 918.986752 178.404603 
L 924.08497 158.213232 
L 929.183189 156.186003 
L 934.281407 154.477846 
L 939.379625 154.197893 
L 944.477844 177.521955 
L 949.576062 196.811963 
L 954.67428 195.638921 
L 959.772499 196.347789 
L 964.870717 199.783923 
L 969.968936 199.25427 
L 975.067154 167.956244 
L 980.165372 172.283731 
L 985.263591 172.811009 
L 990.361809 170.370493 
L 995.460027 170.875869 
L 1000.558246 171.936707 
L 1005.656464 193.081069 
L 1010.754683 185.490863 
L 1015.852901 186.000172 
L 1020.951119 184.491839 
L 1026.049338 188.360348 
L 1031.147556 177.394907 
L 1036.245774 124.026052 
L 1041.343993 125.982332 
L 1046.442211 125.702309 
L 1051.540429 124.572541 
L 1056.638648 160.077357 
L 1061.736866 217.558716 
L 1066.835085 214.962945 
L 1071.933303 215.389482 
L 1077.031521 216.109897 
L 1082.12974 217.88299 
L 1087.227958 208.561393 
L 1092.326176 184.642466 
L 1097.424395 189.216846 
L 1102.522613 192.009741 
L 1107.620831 188.205266 
L 1112.71905 193.026666 
L 1117.817268 185.540904 
L 1122.915487 185.989455 
L 1128.013705 185.778514 
L 1133.111923 187.799742 
L 1138.210142 186.4359 
L 1143.30836 188.233447 
L 1148.406578 238.845924 
L 1153.504797 235.453244 
L 1158.603015 236.031635 
L 1163.701233 242.047059 
L 1168.799452 184.425547 
L 1173.89767 93.811765 
L 1178.995889 108.924273 
L 1184.094107 114.982206 
L 1189.192325 115.044145 
L 1194.290544 113.342333 
L 1199.388762 185.145109 
L 1204.48698 173.085706 
L 1209.585199 172.654598 
L 1214.683417 172.489965 
L 1219.781635 169.724633 
L 1224.879854 170.578326 
L 1229.978072 146.484908 
L 1235.076291 124.7273 
L 1240.174509 126.418167 
L 1245.272727 126.208733 
L 1245.272727 126.208733 
" style="fill:none;stroke:#000000;stroke-linecap:square;stroke-width:4;"/>
   </g>
   <g id="line2d_15">
    <path clip-path="url(#p3d50eb9455)" d="M 230.727273 198.632429 
L 235.825491 186.929267 
L 240.923709 198.632429 
L 246.021928 186.929267 
L 251.120146 186.929267 
L 256.218365 198.632429 
L 261.316583 175.226104 
L 271.51302 151.81978 
L 276.611238 163.522942 
L 281.709456 163.522942 
L 286.807675 151.81978 
L 291.905893 186.929267 
L 297.004111 186.929267 
L 302.10233 198.632429 
L 307.200548 140.116618 
L 312.298767 175.226104 
L 317.396985 186.929267 
L 327.593422 163.522942 
L 358.182732 163.522942 
L 368.379169 140.116618 
L 378.575605 163.522942 
L 388.772042 163.522942 
L 393.87026 175.226104 
L 398.968479 163.522942 
L 409.164915 163.522942 
L 414.263134 175.226104 
L 419.361352 140.116618 
L 424.459571 175.226104 
L 429.557789 163.522942 
L 434.656007 163.522942 
L 439.754226 140.116618 
L 444.852444 175.226104 
L 449.950662 186.929267 
L 455.048881 175.226104 
L 460.147099 175.226104 
L 465.245317 163.522942 
L 470.343536 163.522942 
L 475.441754 175.226104 
L 480.539973 163.522942 
L 531.522156 163.522942 
L 536.620375 140.116618 
L 546.816811 116.710294 
L 551.91503 140.116618 
L 557.013248 128.413456 
L 562.111466 128.413456 
L 567.209685 105.007132 
L 572.307903 128.413456 
L 577.406122 116.710294 
L 592.700777 116.710294 
L 602.897213 140.116618 
L 607.995432 128.413456 
L 613.09365 140.116618 
L 618.191868 140.116618 
L 623.290087 128.413456 
L 628.388305 140.116618 
L 633.486524 128.413456 
L 638.584742 140.116618 
L 643.68296 128.413456 
L 648.781179 128.413456 
L 658.977615 151.81978 
L 674.27227 151.81978 
L 679.370489 140.116618 
L 689.566926 163.522942 
L 730.352672 163.522942 
L 740.549109 186.929267 
L 750.745546 186.929267 
L 755.843764 175.226104 
L 760.941983 198.632429 
L 766.040201 198.632429 
L 771.138419 210.335591 
L 776.236638 198.632429 
L 781.334856 210.335591 
L 786.433074 198.632429 
L 796.629511 198.632429 
L 801.72773 186.929267 
L 806.825948 186.929267 
L 811.924166 175.226104 
L 817.022385 128.413456 
L 822.120603 163.522942 
L 827.218821 175.226104 
L 832.31704 163.522942 
L 852.709913 163.522942 
L 857.808132 186.929267 
L 862.90635 140.116618 
L 868.004568 210.335591 
L 873.102787 198.632429 
L 878.201005 210.335591 
L 888.397442 210.335591 
L 893.49566 233.741915 
L 898.593878 210.335591 
L 903.692097 222.038753 
L 908.790315 198.632429 
L 913.888534 186.929267 
L 918.986752 198.632429 
L 924.08497 198.632429 
L 934.281407 175.226104 
L 939.379625 186.929267 
L 944.477844 210.335591 
L 949.576062 186.929267 
L 959.772499 186.929267 
L 964.870717 198.632429 
L 969.968936 175.226104 
L 975.067154 186.929267 
L 980.165372 175.226104 
L 985.263591 186.929267 
L 990.361809 151.81978 
L 995.460027 163.522942 
L 1000.558246 186.929267 
L 1005.656464 175.226104 
L 1010.754683 186.929267 
L 1020.951119 140.116618 
L 1026.049338 175.226104 
L 1031.147556 163.522942 
L 1051.540429 163.522942 
L 1056.638648 186.929267 
L 1071.933303 186.929267 
L 1077.031521 198.632429 
L 1082.12974 186.929267 
L 1087.227958 186.929267 
L 1092.326176 198.632429 
L 1097.424395 186.929267 
L 1107.620831 186.929267 
L 1112.71905 210.335591 
L 1117.817268 175.226104 
L 1122.915487 186.929267 
L 1128.013705 186.929267 
L 1133.111923 198.632429 
L 1143.30836 198.632429 
L 1148.406578 210.335591 
L 1153.504797 186.929267 
L 1158.603015 186.929267 
L 1163.701233 128.413456 
L 1168.799452 163.522942 
L 1229.978072 163.522942 
L 1235.076291 128.413456 
L 1240.174509 163.522942 
L 1245.272727 163.522942 
L 1245.272727 163.522942 
" style="fill:none;stroke:#ff0000;stroke-linecap:square;stroke-width:1.5;"/>
   </g>
   <g id="patch_3">
    <path d="M 180 249.458824 
L 180 86.4 
" style="fill:none;stroke:#000000;stroke-linecap:square;stroke-linejoin:miter;stroke-width:0.8;"/>
   </g>
   <g id="patch_4">
    <path d="M 1296 249.458824 
L 1296 86.4 
" style="fill:none;stroke:#000000;stroke-linecap:square;stroke-linejoin:miter;stroke-width:0.8;"/>
   </g>
   <g id="patch_5">
    <path d="M 180 249.458824 
L 1296 249.458824 
" style="fill:none;stroke:#000000;stroke-linecap:square;stroke-linejoin:miter;stroke-width:0.8;"/>
   </g>
   <g id="patch_6">
    <path d="M 180 86.4 
L 1296 86.4 
" style="fill:none;stroke:#000000;stroke-linecap:square;stroke-linejoin:miter;stroke-width:0.8;"/>
   </g>
   <g id="legend_1">
    <g id="patch_7">
     <path d="M 1234.3125 123.75625 
L 1289 123.75625 
Q 1291 123.75625 1291 121.75625 
L 1291 93.4 
Q 1291 91.4 1289 91.4 
L 1234.3125 91.4 
Q 1232.3125 91.4 1232.3125 93.4 
L 1232.3125 121.75625 
Q 1232.3125 123.75625 1234.3125 123.75625 
z
" style="fill:#ffffff;opacity:0.8;stroke:#cccccc;stroke-linejoin:miter;"/>
    </g>
    <g id="line2d_16">
     <path d="M 1236.3125 99.498438 
L 1256.3125 99.498438 
" style="fill:none;stroke:#000000;stroke-linecap:square;stroke-width:4;"/>
    </g>
    <g id="line2d_17"/>
    <g id="text_15">
     <!-- Pred -->
     <defs>
      <path d="M 19.671875 64.796875 
L 19.671875 37.40625 
L 32.078125 37.40625 
Q 38.96875 37.40625 42.71875 40.96875 
Q 46.484375 44.53125 46.484375 51.125 
Q 46.484375 57.671875 42.71875 61.234375 
Q 38.96875 64.796875 32.078125 64.796875 
z
M 9.8125 72.90625 
L 32.078125 72.90625 
Q 44.34375 72.90625 50.609375 67.359375 
Q 56.890625 61.8125 56.890625 51.125 
Q 56.890625 40.328125 50.609375 34.8125 
Q 44.34375 29.296875 32.078125 29.296875 
L 19.671875 29.296875 
L 19.671875 0 
L 9.8125 0 
z
" id="DejaVuSans-50"/>
      <path d="M 41.109375 46.296875 
Q 39.59375 47.171875 37.8125 47.578125 
Q 36.03125 48 33.890625 48 
Q 26.265625 48 22.1875 43.046875 
Q 18.109375 38.09375 18.109375 28.8125 
L 18.109375 0 
L 9.078125 0 
L 9.078125 54.6875 
L 18.109375 54.6875 
L 18.109375 46.1875 
Q 20.953125 51.171875 25.484375 53.578125 
Q 30.03125 56 36.53125 56 
Q 37.453125 56 38.578125 55.875 
Q 39.703125 55.765625 41.0625 55.515625 
z
" id="DejaVuSans-72"/>
      <path d="M 45.40625 46.390625 
L 45.40625 75.984375 
L 54.390625 75.984375 
L 54.390625 0 
L 45.40625 0 
L 45.40625 8.203125 
Q 42.578125 3.328125 38.25 0.953125 
Q 33.9375 -1.421875 27.875 -1.421875 
Q 17.96875 -1.421875 11.734375 6.484375 
Q 5.515625 14.40625 5.515625 27.296875 
Q 5.515625 40.1875 11.734375 48.09375 
Q 17.96875 56 27.875 56 
Q 33.9375 56 38.25 53.625 
Q 42.578125 51.265625 45.40625 46.390625 
z
M 14.796875 27.296875 
Q 14.796875 17.390625 18.875 11.75 
Q 22.953125 6.109375 30.078125 6.109375 
Q 37.203125 6.109375 41.296875 11.75 
Q 45.40625 17.390625 45.40625 27.296875 
Q 45.40625 37.203125 41.296875 42.84375 
Q 37.203125 48.484375 30.078125 48.484375 
Q 22.953125 48.484375 18.875 42.84375 
Q 14.796875 37.203125 14.796875 27.296875 
z
" id="DejaVuSans-64"/>
     </defs>
     <g transform="translate(1264.3125 102.998438)scale(0.1 -0.1)">
      <use xlink:href="#DejaVuSans-50"/>
      <use x="60.287109" xlink:href="#DejaVuSans-72"/>
      <use x="101.369141" xlink:href="#DejaVuSans-65"/>
      <use x="162.892578" xlink:href="#DejaVuSans-64"/>
     </g>
    </g>
    <g id="line2d_18">
     <path d="M 1236.3125 114.176563 
L 1256.3125 114.176563 
" style="fill:none;stroke:#ff0000;stroke-linecap:square;stroke-width:1.5;"/>
    </g>
    <g id="line2d_19"/>
    <g id="text_16">
     <!-- True -->
     <defs>
      <path d="M 8.5 21.578125 
L 8.5 54.6875 
L 17.484375 54.6875 
L 17.484375 21.921875 
Q 17.484375 14.15625 20.5 10.265625 
Q 23.53125 6.390625 29.59375 6.390625 
Q 36.859375 6.390625 41.078125 11.03125 
Q 45.3125 15.671875 45.3125 23.6875 
L 45.3125 54.6875 
L 54.296875 54.6875 
L 54.296875 0 
L 45.3125 0 
L 45.3125 8.40625 
Q 42.046875 3.421875 37.71875 1 
Q 33.40625 -1.421875 27.6875 -1.421875 
Q 18.265625 -1.421875 13.375 4.4375 
Q 8.5 10.296875 8.5 21.578125 
z
M 31.109375 56 
z
" id="DejaVuSans-75"/>
     </defs>
     <g transform="translate(1264.3125 117.676563)scale(0.1 -0.1)">
      <use xlink:href="#DejaVuSans-54"/>
      <use x="60.865234" xlink:href="#DejaVuSans-72"/>
      <use x="101.978516" xlink:href="#DejaVuSans-75"/>
      <use x="165.357422" xlink:href="#DejaVuSans-65"/>
     </g>
    </g>
   </g>
  </g>
  <g id="axes_2">
   <g id="patch_8">
    <path d="M 180 445.129412 
L 1296 445.129412 
L 1296 282.070588 
L 180 282.070588 
z
" style="fill:#ffffff;"/>
   </g>
   <g id="matplotlib.axis_3">
    <g id="xtick_10">
     <g id="line2d_20">
      <g>
       <use style="stroke:#000000;stroke-width:0.8;" x="225.629054" xlink:href="#mee1115cf8d" y="445.129412"/>
      </g>
     </g>
     <g id="text_17">
      <!-- 0 -->
      <g transform="translate(222.447804 459.727849)scale(0.1 -0.1)">
       <use xlink:href="#DejaVuSans-30"/>
      </g>
     </g>
    </g>
    <g id="xtick_11">
     <g id="line2d_21">
      <g>
       <use style="stroke:#000000;stroke-width:0.8;" x="353.084513" xlink:href="#mee1115cf8d" y="445.129412"/>
      </g>
     </g>
     <g id="text_18">
      <!-- 500 -->
      <g transform="translate(343.540763 459.727849)scale(0.1 -0.1)">
       <use xlink:href="#DejaVuSans-35"/>
       <use x="63.623047" xlink:href="#DejaVuSans-30"/>
       <use x="127.246094" xlink:href="#DejaVuSans-30"/>
      </g>
     </g>
    </g>
    <g id="xtick_12">
     <g id="line2d_22">
      <g>
       <use style="stroke:#000000;stroke-width:0.8;" x="480.539973" xlink:href="#mee1115cf8d" y="445.129412"/>
      </g>
     </g>
     <g id="text_19">
      <!-- 1000 -->
      <g transform="translate(467.814973 459.727849)scale(0.1 -0.1)">
       <use xlink:href="#DejaVuSans-31"/>
       <use x="63.623047" xlink:href="#DejaVuSans-30"/>
       <use x="127.246094" xlink:href="#DejaVuSans-30"/>
       <use x="190.869141" xlink:href="#DejaVuSans-30"/>
      </g>
     </g>
    </g>
    <g id="xtick_13">
     <g id="line2d_23">
      <g>
       <use style="stroke:#000000;stroke-width:0.8;" x="607.995432" xlink:href="#mee1115cf8d" y="445.129412"/>
      </g>
     </g>
     <g id="text_20">
      <!-- 1500 -->
      <g transform="translate(595.270432 459.727849)scale(0.1 -0.1)">
       <use xlink:href="#DejaVuSans-31"/>
       <use x="63.623047" xlink:href="#DejaVuSans-35"/>
       <use x="127.246094" xlink:href="#DejaVuSans-30"/>
       <use x="190.869141" xlink:href="#DejaVuSans-30"/>
      </g>
     </g>
    </g>
    <g id="xtick_14">
     <g id="line2d_24">
      <g>
       <use style="stroke:#000000;stroke-width:0.8;" x="735.450891" xlink:href="#mee1115cf8d" y="445.129412"/>
      </g>
     </g>
     <g id="text_21">
      <!-- 2000 -->
      <g transform="translate(722.725891 459.727849)scale(0.1 -0.1)">
       <use xlink:href="#DejaVuSans-32"/>
       <use x="63.623047" xlink:href="#DejaVuSans-30"/>
       <use x="127.246094" xlink:href="#DejaVuSans-30"/>
       <use x="190.869141" xlink:href="#DejaVuSans-30"/>
      </g>
     </g>
    </g>
    <g id="xtick_15">
     <g id="line2d_25">
      <g>
       <use style="stroke:#000000;stroke-width:0.8;" x="862.90635" xlink:href="#mee1115cf8d" y="445.129412"/>
      </g>
     </g>
     <g id="text_22">
      <!-- 2500 -->
      <g transform="translate(850.18135 459.727849)scale(0.1 -0.1)">
       <use xlink:href="#DejaVuSans-32"/>
       <use x="63.623047" xlink:href="#DejaVuSans-35"/>
       <use x="127.246094" xlink:href="#DejaVuSans-30"/>
       <use x="190.869141" xlink:href="#DejaVuSans-30"/>
      </g>
     </g>
    </g>
    <g id="xtick_16">
     <g id="line2d_26">
      <g>
       <use style="stroke:#000000;stroke-width:0.8;" x="990.361809" xlink:href="#mee1115cf8d" y="445.129412"/>
      </g>
     </g>
     <g id="text_23">
      <!-- 3000 -->
      <g transform="translate(977.636809 459.727849)scale(0.1 -0.1)">
       <use xlink:href="#DejaVuSans-33"/>
       <use x="63.623047" xlink:href="#DejaVuSans-30"/>
       <use x="127.246094" xlink:href="#DejaVuSans-30"/>
       <use x="190.869141" xlink:href="#DejaVuSans-30"/>
      </g>
     </g>
    </g>
    <g id="xtick_17">
     <g id="line2d_27">
      <g>
       <use style="stroke:#000000;stroke-width:0.8;" x="1117.817268" xlink:href="#mee1115cf8d" y="445.129412"/>
      </g>
     </g>
     <g id="text_24">
      <!-- 3500 -->
      <g transform="translate(1105.092268 459.727849)scale(0.1 -0.1)">
       <use xlink:href="#DejaVuSans-33"/>
       <use x="63.623047" xlink:href="#DejaVuSans-35"/>
       <use x="127.246094" xlink:href="#DejaVuSans-30"/>
       <use x="190.869141" xlink:href="#DejaVuSans-30"/>
      </g>
     </g>
    </g>
    <g id="xtick_18">
     <g id="line2d_28">
      <g>
       <use style="stroke:#000000;stroke-width:0.8;" x="1245.272727" xlink:href="#mee1115cf8d" y="445.129412"/>
      </g>
     </g>
     <g id="text_25">
      <!-- 4000 -->
      <g transform="translate(1232.547727 459.727849)scale(0.1 -0.1)">
       <use xlink:href="#DejaVuSans-34"/>
       <use x="63.623047" xlink:href="#DejaVuSans-30"/>
       <use x="127.246094" xlink:href="#DejaVuSans-30"/>
       <use x="190.869141" xlink:href="#DejaVuSans-30"/>
      </g>
     </g>
    </g>
   </g>
   <g id="matplotlib.axis_4">
    <g id="ytick_5">
     <g id="line2d_29">
      <g>
       <use style="stroke:#000000;stroke-width:0.8;" x="180" xlink:href="#m3ae0fbb89b" y="426.076616"/>
      </g>
     </g>
     <g id="text_26">
      <!-- −0.20 -->
      <g transform="translate(142.354688 429.875835)scale(0.1 -0.1)">
       <use xlink:href="#DejaVuSans-2212"/>
       <use x="83.789062" xlink:href="#DejaVuSans-30"/>
       <use x="147.412109" xlink:href="#DejaVuSans-2e"/>
       <use x="179.199219" xlink:href="#DejaVuSans-32"/>
       <use x="242.822266" xlink:href="#DejaVuSans-30"/>
      </g>
     </g>
    </g>
    <g id="ytick_6">
     <g id="line2d_30">
      <g>
       <use style="stroke:#000000;stroke-width:0.8;" x="180" xlink:href="#m3ae0fbb89b" y="397.319929"/>
      </g>
     </g>
     <g id="text_27">
      <!-- −0.15 -->
      <g transform="translate(142.354688 401.119148)scale(0.1 -0.1)">
       <use xlink:href="#DejaVuSans-2212"/>
       <use x="83.789062" xlink:href="#DejaVuSans-30"/>
       <use x="147.412109" xlink:href="#DejaVuSans-2e"/>
       <use x="179.199219" xlink:href="#DejaVuSans-31"/>
       <use x="242.822266" xlink:href="#DejaVuSans-35"/>
      </g>
     </g>
    </g>
    <g id="ytick_7">
     <g id="line2d_31">
      <g>
       <use style="stroke:#000000;stroke-width:0.8;" x="180" xlink:href="#m3ae0fbb89b" y="368.563242"/>
      </g>
     </g>
     <g id="text_28">
      <!-- −0.10 -->
      <g transform="translate(142.354688 372.362461)scale(0.1 -0.1)">
       <use xlink:href="#DejaVuSans-2212"/>
       <use x="83.789062" xlink:href="#DejaVuSans-30"/>
       <use x="147.412109" xlink:href="#DejaVuSans-2e"/>
       <use x="179.199219" xlink:href="#DejaVuSans-31"/>
       <use x="242.822266" xlink:href="#DejaVuSans-30"/>
      </g>
     </g>
    </g>
    <g id="ytick_8">
     <g id="line2d_32">
      <g>
       <use style="stroke:#000000;stroke-width:0.8;" x="180" xlink:href="#m3ae0fbb89b" y="339.806555"/>
      </g>
     </g>
     <g id="text_29">
      <!-- −0.05 -->
      <g transform="translate(142.354688 343.605774)scale(0.1 -0.1)">
       <use xlink:href="#DejaVuSans-2212"/>
       <use x="83.789062" xlink:href="#DejaVuSans-30"/>
       <use x="147.412109" xlink:href="#DejaVuSans-2e"/>
       <use x="179.199219" xlink:href="#DejaVuSans-30"/>
       <use x="242.822266" xlink:href="#DejaVuSans-35"/>
      </g>
     </g>
    </g>
    <g id="ytick_9">
     <g id="line2d_33">
      <g>
       <use style="stroke:#000000;stroke-width:0.8;" x="180" xlink:href="#m3ae0fbb89b" y="311.049868"/>
      </g>
     </g>
     <g id="text_30">
      <!-- 0.00 -->
      <g transform="translate(150.734375 314.849087)scale(0.1 -0.1)">
       <use xlink:href="#DejaVuSans-30"/>
       <use x="63.623047" xlink:href="#DejaVuSans-2e"/>
       <use x="95.410156" xlink:href="#DejaVuSans-30"/>
       <use x="159.033203" xlink:href="#DejaVuSans-30"/>
      </g>
     </g>
    </g>
    <g id="ytick_10">
     <g id="line2d_34">
      <g>
       <use style="stroke:#000000;stroke-width:0.8;" x="180" xlink:href="#m3ae0fbb89b" y="282.293181"/>
      </g>
     </g>
     <g id="text_31">
      <!-- 0.05 -->
      <g transform="translate(150.734375 286.0924)scale(0.1 -0.1)">
       <use xlink:href="#DejaVuSans-30"/>
       <use x="63.623047" xlink:href="#DejaVuSans-2e"/>
       <use x="95.410156" xlink:href="#DejaVuSans-30"/>
       <use x="159.033203" xlink:href="#DejaVuSans-35"/>
      </g>
     </g>
    </g>
    <g id="text_32">
     <!-- TD State:1 -->
     <g transform="translate(136.275 390.19375)rotate(-90)scale(0.1 -0.1)">
      <use xlink:href="#DejaVuSans-54"/>
      <use x="61.083984" xlink:href="#DejaVuSans-44"/>
      <use x="138.085938" xlink:href="#DejaVuSans-20"/>
      <use x="169.873047" xlink:href="#DejaVuSans-53"/>
      <use x="233.349609" xlink:href="#DejaVuSans-74"/>
      <use x="272.558594" xlink:href="#DejaVuSans-61"/>
      <use x="333.837891" xlink:href="#DejaVuSans-74"/>
      <use x="373.046875" xlink:href="#DejaVuSans-65"/>
      <use x="434.570312" xlink:href="#DejaVuSans-3a"/>
      <use x="468.261719" xlink:href="#DejaVuSans-31"/>
     </g>
    </g>
   </g>
   <g id="line2d_35">
    <path clip-path="url(#p9407c9adfa)" d="M 230.727273 310.180186 
L 235.825491 309.241825 
L 240.923709 309.216508 
L 246.021928 313.643552 
L 251.120146 313.509488 
L 256.218365 313.570564 
L 261.316583 325.202183 
L 266.414801 358.889683 
L 271.51302 357.981953 
L 276.611238 312.137846 
L 281.709456 310.076816 
L 286.807675 313.341371 
L 291.905893 310.527688 
L 297.004111 311.088826 
L 302.10233 327.127326 
L 307.200548 437.717647 
L 312.298767 379.672009 
L 317.396985 353.536478 
L 322.495203 381.973565 
L 327.593422 307.059773 
L 337.789858 307.255331 
L 353.084513 306.802539 
L 358.182732 305.059369 
L 363.28095 307.593891 
L 368.379169 314.543503 
L 373.477387 315.700337 
L 378.575605 315.641302 
L 383.673824 311.132695 
L 388.772042 430.906983 
L 393.87026 386.219047 
L 398.968479 406.803972 
L 404.066697 404.181023 
L 409.164915 331.752869 
L 414.263134 307.781712 
L 419.361352 303.751653 
L 424.459571 311.132656 
L 429.557789 307.039967 
L 434.656007 307.118931 
L 439.754226 372.735596 
L 444.852444 340.72782 
L 449.950662 314.031473 
L 455.048881 337.269638 
L 460.147099 337.069686 
L 465.245317 361.731638 
L 470.343536 306.593218 
L 475.441754 308.048143 
L 480.539973 306.250343 
L 490.736409 306.262177 
L 495.834628 311.091079 
L 506.031064 311.030792 
L 521.32572 311.047793 
L 526.423938 312.278885 
L 531.522156 309.580904 
L 536.620375 313.31335 
L 541.718593 316.054988 
L 546.816811 314.53501 
L 551.91503 314.089738 
L 557.013248 311.590667 
L 562.111466 310.042506 
L 567.209685 314.441089 
L 572.307903 305.863923 
L 577.406122 307.390114 
L 582.50434 370.156389 
L 587.602558 369.994756 
L 592.700777 352.200163 
L 597.798995 354.773118 
L 602.897213 346.771377 
L 607.995432 341.44905 
L 613.09365 325.782454 
L 618.191868 324.027397 
L 623.290087 343.971489 
L 628.388305 319.171887 
L 633.486524 327.69048 
L 638.584742 296.319236 
L 643.68296 298.834476 
L 648.781179 298.685732 
L 653.879397 297.741716 
L 658.977615 298.994375 
L 664.075834 311.642311 
L 674.27227 311.644702 
L 679.370489 312.532086 
L 684.468707 311.630479 
L 689.566926 311.084708 
L 720.156236 311.065249 
L 730.352672 311.118824 
L 735.450891 310.995265 
L 740.549109 303.431743 
L 750.745546 303.619349 
L 755.843764 310.610551 
L 760.941983 300.93059 
L 766.040201 301.129214 
L 771.138419 299.330685 
L 776.236638 301.454359 
L 781.334856 310.015104 
L 786.433074 317.71566 
L 791.531293 319.941408 
L 796.629511 311.026694 
L 801.72773 311.017499 
L 806.825948 313.596811 
L 811.924166 308.824782 
L 817.022385 322.958912 
L 822.120603 309.434387 
L 827.218821 309.733205 
L 832.31704 307.963929 
L 857.808132 307.682673 
L 862.90635 382.347357 
L 868.004568 311.020038 
L 878.201005 310.939185 
L 883.299223 309.130059 
L 888.397442 306.904784 
L 893.49566 307.045116 
L 903.692097 307.030156 
L 908.790315 351.353846 
L 913.888534 379.384532 
L 918.986752 310.891472 
L 924.08497 311.092373 
L 939.379625 311.124516 
L 944.477844 310.963505 
L 949.576062 311.576508 
L 954.67428 311.062656 
L 959.772499 310.907211 
L 964.870717 311.124219 
L 969.968936 310.881351 
L 975.067154 311.037112 
L 1000.558246 311.025659 
L 1005.656464 310.793821 
L 1010.754683 310.911642 
L 1015.852901 310.906936 
L 1020.951119 313.241053 
L 1026.049338 310.86717 
L 1031.147556 311.009953 
L 1036.245774 300.494316 
L 1041.343993 300.339814 
L 1051.540429 300.451174 
L 1056.638648 311.07745 
L 1061.736866 312.622639 
L 1066.835085 311.837836 
L 1077.031521 311.328488 
L 1082.12974 311.377293 
L 1087.227958 310.526782 
L 1092.326176 310.973097 
L 1102.522613 310.884483 
L 1107.620831 310.942942 
L 1112.71905 310.885567 
L 1122.915487 310.985223 
L 1143.30836 310.978767 
L 1148.406578 310.573284 
L 1153.504797 309.838413 
L 1158.603015 309.875188 
L 1163.701233 432.894806 
L 1168.799452 310.989723 
L 1173.89767 291.403435 
L 1178.995889 311.486936 
L 1194.290544 311.451569 
L 1199.388762 310.987653 
L 1219.781635 311.032024 
L 1224.879854 311.029567 
L 1235.076291 311.360432 
L 1245.272727 311.348573 
L 1245.272727 311.348573 
" style="fill:none;stroke:#000000;stroke-linecap:square;stroke-width:4;"/>
   </g>
   <g id="line2d_36">
    <path clip-path="url(#p9407c9adfa)" d="M 230.727273 306.736365 
L 235.825491 315.363371 
L 240.923709 306.736365 
L 251.120146 315.363371 
L 256.218365 302.422862 
L 261.316583 306.736365 
L 266.414801 306.736365 
L 271.51302 315.363371 
L 281.709456 306.736365 
L 286.807675 323.990377 
L 291.905893 311.049868 
L 297.004111 315.363371 
L 302.10233 289.482353 
L 307.200548 323.990377 
L 317.396985 306.736365 
L 322.495203 306.736365 
L 327.593422 311.049868 
L 353.084513 311.049868 
L 358.182732 306.736365 
L 363.28095 306.736365 
L 368.379169 315.363371 
L 373.477387 315.363371 
L 378.575605 311.049868 
L 383.673824 311.049868 
L 388.772042 315.363371 
L 393.87026 306.736365 
L 398.968479 311.049868 
L 404.066697 311.049868 
L 409.164915 315.363371 
L 414.263134 298.109359 
L 419.361352 323.990377 
L 424.459571 306.736365 
L 429.557789 311.049868 
L 434.656007 302.422862 
L 439.754226 323.990377 
L 449.950662 306.736365 
L 455.048881 311.049868 
L 460.147099 306.736365 
L 470.343536 315.363371 
L 475.441754 306.736365 
L 480.539973 311.049868 
L 526.423938 311.049868 
L 531.522156 302.422862 
L 536.620375 306.736365 
L 541.718593 306.736365 
L 546.816811 319.676874 
L 551.91503 306.736365 
L 557.013248 311.049868 
L 562.111466 302.422862 
L 567.209685 319.676874 
L 572.307903 306.736365 
L 577.406122 311.049868 
L 587.602558 311.049868 
L 592.700777 315.363371 
L 597.798995 315.363371 
L 602.897213 306.736365 
L 607.995432 315.363371 
L 618.191868 306.736365 
L 623.290087 315.363371 
L 628.388305 306.736365 
L 633.486524 315.363371 
L 638.584742 306.736365 
L 648.781179 315.363371 
L 653.879397 315.363371 
L 658.977615 311.049868 
L 669.174052 311.049868 
L 674.27227 306.736365 
L 679.370489 315.363371 
L 684.468707 315.363371 
L 689.566926 311.049868 
L 725.254454 311.049868 
L 730.352672 315.363371 
L 735.450891 315.363371 
L 740.549109 311.049868 
L 745.647328 311.049868 
L 750.745546 306.736365 
L 755.843764 319.676874 
L 760.941983 311.049868 
L 766.040201 315.363371 
L 771.138419 306.736365 
L 776.236638 315.363371 
L 781.334856 306.736365 
L 786.433074 311.049868 
L 791.531293 311.049868 
L 796.629511 306.736365 
L 801.72773 311.049868 
L 806.825948 306.736365 
L 811.924166 293.795856 
L 817.022385 323.990377 
L 827.218821 306.736365 
L 832.31704 311.049868 
L 847.611695 311.049868 
L 852.709913 319.676874 
L 857.808132 293.795856 
L 862.90635 336.930887 
L 868.004568 306.736365 
L 873.102787 315.363371 
L 878.201005 311.049868 
L 883.299223 311.049868 
L 888.397442 319.676874 
L 893.49566 302.422862 
L 898.593878 315.363371 
L 903.692097 302.422862 
L 908.790315 306.736365 
L 913.888534 315.363371 
L 924.08497 306.736365 
L 929.183189 306.736365 
L 934.281407 315.363371 
L 939.379625 319.676874 
L 944.477844 302.422862 
L 949.576062 311.049868 
L 954.67428 311.049868 
L 959.772499 315.363371 
L 964.870717 302.422862 
L 969.968936 315.363371 
L 975.067154 306.736365 
L 980.165372 315.363371 
L 985.263591 298.109359 
L 990.361809 315.363371 
L 995.460027 319.676874 
L 1000.558246 306.736365 
L 1005.656464 315.363371 
L 1010.754683 302.422862 
L 1015.852901 302.422862 
L 1020.951119 323.990377 
L 1026.049338 306.736365 
L 1031.147556 311.049868 
L 1046.442211 311.049868 
L 1051.540429 319.676874 
L 1056.638648 311.049868 
L 1066.835085 311.049868 
L 1071.933303 315.363371 
L 1077.031521 306.736365 
L 1087.227958 315.363371 
L 1092.326176 306.736365 
L 1097.424395 311.049868 
L 1102.522613 311.049868 
L 1107.620831 319.676874 
L 1112.71905 298.109359 
L 1117.817268 315.363371 
L 1122.915487 311.049868 
L 1128.013705 315.363371 
L 1133.111923 311.049868 
L 1138.210142 311.049868 
L 1143.30836 315.363371 
L 1148.406578 302.422862 
L 1153.504797 311.049868 
L 1158.603015 289.482353 
L 1163.701233 323.990377 
L 1168.799452 311.049868 
L 1224.879854 311.049868 
L 1229.978072 298.109359 
L 1235.076291 323.990377 
L 1240.174509 311.049868 
L 1245.272727 302.422862 
L 1245.272727 302.422862 
" style="fill:none;stroke:#ff0000;stroke-linecap:square;stroke-width:1.5;"/>
   </g>
   <g id="patch_9">
    <path d="M 180 445.129412 
L 180 282.070588 
" style="fill:none;stroke:#000000;stroke-linecap:square;stroke-linejoin:miter;stroke-width:0.8;"/>
   </g>
   <g id="patch_10">
    <path d="M 1296 445.129412 
L 1296 282.070588 
" style="fill:none;stroke:#000000;stroke-linecap:square;stroke-linejoin:miter;stroke-width:0.8;"/>
   </g>
   <g id="patch_11">
    <path d="M 180 445.129412 
L 1296 445.129412 
" style="fill:none;stroke:#000000;stroke-linecap:square;stroke-linejoin:miter;stroke-width:0.8;"/>
   </g>
   <g id="patch_12">
    <path d="M 180 282.070588 
L 1296 282.070588 
" style="fill:none;stroke:#000000;stroke-linecap:square;stroke-linejoin:miter;stroke-width:0.8;"/>
   </g>
   <g id="legend_2">
    <g id="patch_13">
     <path d="M 1234.3125 319.426838 
L 1289 319.426838 
Q 1291 319.426838 1291 317.426838 
L 1291 289.070588 
Q 1291 287.070588 1289 287.070588 
L 1234.3125 287.070588 
Q 1232.3125 287.070588 1232.3125 289.070588 
L 1232.3125 317.426838 
Q 1232.3125 319.426838 1234.3125 319.426838 
z
" style="fill:#ffffff;opacity:0.8;stroke:#cccccc;stroke-linejoin:miter;"/>
    </g>
    <g id="line2d_37">
     <path d="M 1236.3125 295.169026 
L 1256.3125 295.169026 
" style="fill:none;stroke:#000000;stroke-linecap:square;stroke-width:4;"/>
    </g>
    <g id="line2d_38"/>
    <g id="text_33">
     <!-- Pred -->
     <g transform="translate(1264.3125 298.669026)scale(0.1 -0.1)">
      <use xlink:href="#DejaVuSans-50"/>
      <use x="60.287109" xlink:href="#DejaVuSans-72"/>
      <use x="101.369141" xlink:href="#DejaVuSans-65"/>
      <use x="162.892578" xlink:href="#DejaVuSans-64"/>
     </g>
    </g>
    <g id="line2d_39">
     <path d="M 1236.3125 309.847151 
L 1256.3125 309.847151 
" style="fill:none;stroke:#ff0000;stroke-linecap:square;stroke-width:1.5;"/>
    </g>
    <g id="line2d_40"/>
    <g id="text_34">
     <!-- True -->
     <g transform="translate(1264.3125 313.347151)scale(0.1 -0.1)">
      <use xlink:href="#DejaVuSans-54"/>
      <use x="60.865234" xlink:href="#DejaVuSans-72"/>
      <use x="101.978516" xlink:href="#DejaVuSans-75"/>
      <use x="165.357422" xlink:href="#DejaVuSans-65"/>
     </g>
    </g>
   </g>
  </g>
  <g id="axes_3">
   <g id="patch_14">
    <path d="M 180 640.8 
L 1296 640.8 
L 1296 477.741176 
L 180 477.741176 
z
" style="fill:#ffffff;"/>
   </g>
   <g id="matplotlib.axis_5">
    <g id="xtick_19">
     <g id="line2d_41">
      <g>
       <use style="stroke:#000000;stroke-width:0.8;" x="225.629054" xlink:href="#mee1115cf8d" y="640.8"/>
      </g>
     </g>
     <g id="text_35">
      <!-- 0 -->
      <g transform="translate(222.447804 655.398438)scale(0.1 -0.1)">
       <use xlink:href="#DejaVuSans-30"/>
      </g>
     </g>
    </g>
    <g id="xtick_20">
     <g id="line2d_42">
      <g>
       <use style="stroke:#000000;stroke-width:0.8;" x="353.084513" xlink:href="#mee1115cf8d" y="640.8"/>
      </g>
     </g>
     <g id="text_36">
      <!-- 500 -->
      <g transform="translate(343.540763 655.398438)scale(0.1 -0.1)">
       <use xlink:href="#DejaVuSans-35"/>
       <use x="63.623047" xlink:href="#DejaVuSans-30"/>
       <use x="127.246094" xlink:href="#DejaVuSans-30"/>
      </g>
     </g>
    </g>
    <g id="xtick_21">
     <g id="line2d_43">
      <g>
       <use style="stroke:#000000;stroke-width:0.8;" x="480.539973" xlink:href="#mee1115cf8d" y="640.8"/>
      </g>
     </g>
     <g id="text_37">
      <!-- 1000 -->
      <g transform="translate(467.814973 655.398438)scale(0.1 -0.1)">
       <use xlink:href="#DejaVuSans-31"/>
       <use x="63.623047" xlink:href="#DejaVuSans-30"/>
       <use x="127.246094" xlink:href="#DejaVuSans-30"/>
       <use x="190.869141" xlink:href="#DejaVuSans-30"/>
      </g>
     </g>
    </g>
    <g id="xtick_22">
     <g id="line2d_44">
      <g>
       <use style="stroke:#000000;stroke-width:0.8;" x="607.995432" xlink:href="#mee1115cf8d" y="640.8"/>
      </g>
     </g>
     <g id="text_38">
      <!-- 1500 -->
      <g transform="translate(595.270432 655.398438)scale(0.1 -0.1)">
       <use xlink:href="#DejaVuSans-31"/>
       <use x="63.623047" xlink:href="#DejaVuSans-35"/>
       <use x="127.246094" xlink:href="#DejaVuSans-30"/>
       <use x="190.869141" xlink:href="#DejaVuSans-30"/>
      </g>
     </g>
    </g>
    <g id="xtick_23">
     <g id="line2d_45">
      <g>
       <use style="stroke:#000000;stroke-width:0.8;" x="735.450891" xlink:href="#mee1115cf8d" y="640.8"/>
      </g>
     </g>
     <g id="text_39">
      <!-- 2000 -->
      <g transform="translate(722.725891 655.398438)scale(0.1 -0.1)">
       <use xlink:href="#DejaVuSans-32"/>
       <use x="63.623047" xlink:href="#DejaVuSans-30"/>
       <use x="127.246094" xlink:href="#DejaVuSans-30"/>
       <use x="190.869141" xlink:href="#DejaVuSans-30"/>
      </g>
     </g>
    </g>
    <g id="xtick_24">
     <g id="line2d_46">
      <g>
       <use style="stroke:#000000;stroke-width:0.8;" x="862.90635" xlink:href="#mee1115cf8d" y="640.8"/>
      </g>
     </g>
     <g id="text_40">
      <!-- 2500 -->
      <g transform="translate(850.18135 655.398438)scale(0.1 -0.1)">
       <use xlink:href="#DejaVuSans-32"/>
       <use x="63.623047" xlink:href="#DejaVuSans-35"/>
       <use x="127.246094" xlink:href="#DejaVuSans-30"/>
       <use x="190.869141" xlink:href="#DejaVuSans-30"/>
      </g>
     </g>
    </g>
    <g id="xtick_25">
     <g id="line2d_47">
      <g>
       <use style="stroke:#000000;stroke-width:0.8;" x="990.361809" xlink:href="#mee1115cf8d" y="640.8"/>
      </g>
     </g>
     <g id="text_41">
      <!-- 3000 -->
      <g transform="translate(977.636809 655.398438)scale(0.1 -0.1)">
       <use xlink:href="#DejaVuSans-33"/>
       <use x="63.623047" xlink:href="#DejaVuSans-30"/>
       <use x="127.246094" xlink:href="#DejaVuSans-30"/>
       <use x="190.869141" xlink:href="#DejaVuSans-30"/>
      </g>
     </g>
    </g>
    <g id="xtick_26">
     <g id="line2d_48">
      <g>
       <use style="stroke:#000000;stroke-width:0.8;" x="1117.817268" xlink:href="#mee1115cf8d" y="640.8"/>
      </g>
     </g>
     <g id="text_42">
      <!-- 3500 -->
      <g transform="translate(1105.092268 655.398438)scale(0.1 -0.1)">
       <use xlink:href="#DejaVuSans-33"/>
       <use x="63.623047" xlink:href="#DejaVuSans-35"/>
       <use x="127.246094" xlink:href="#DejaVuSans-30"/>
       <use x="190.869141" xlink:href="#DejaVuSans-30"/>
      </g>
     </g>
    </g>
    <g id="xtick_27">
     <g id="line2d_49">
      <g>
       <use style="stroke:#000000;stroke-width:0.8;" x="1245.272727" xlink:href="#mee1115cf8d" y="640.8"/>
      </g>
     </g>
     <g id="text_43">
      <!-- 4000 -->
      <g transform="translate(1232.547727 655.398438)scale(0.1 -0.1)">
       <use xlink:href="#DejaVuSans-34"/>
       <use x="63.623047" xlink:href="#DejaVuSans-30"/>
       <use x="127.246094" xlink:href="#DejaVuSans-30"/>
       <use x="190.869141" xlink:href="#DejaVuSans-30"/>
      </g>
     </g>
    </g>
    <g id="text_44">
     <!-- Time -->
     <defs>
      <path d="M 9.421875 54.6875 
L 18.40625 54.6875 
L 18.40625 0 
L 9.421875 0 
z
M 9.421875 75.984375 
L 18.40625 75.984375 
L 18.40625 64.59375 
L 9.421875 64.59375 
z
" id="DejaVuSans-69"/>
      <path d="M 52 44.1875 
Q 55.375 50.25 60.0625 53.125 
Q 64.75 56 71.09375 56 
Q 79.640625 56 84.28125 50.015625 
Q 88.921875 44.046875 88.921875 33.015625 
L 88.921875 0 
L 79.890625 0 
L 79.890625 32.71875 
Q 79.890625 40.578125 77.09375 44.375 
Q 74.3125 48.1875 68.609375 48.1875 
Q 61.625 48.1875 57.5625 43.546875 
Q 53.515625 38.921875 53.515625 30.90625 
L 53.515625 0 
L 44.484375 0 
L 44.484375 32.71875 
Q 44.484375 40.625 41.703125 44.40625 
Q 38.921875 48.1875 33.109375 48.1875 
Q 26.21875 48.1875 22.15625 43.53125 
Q 18.109375 38.875 18.109375 30.90625 
L 18.109375 0 
L 9.078125 0 
L 9.078125 54.6875 
L 18.109375 54.6875 
L 18.109375 46.1875 
Q 21.1875 51.21875 25.484375 53.609375 
Q 29.78125 56 35.6875 56 
Q 41.65625 56 45.828125 52.96875 
Q 50 49.953125 52 44.1875 
z
" id="DejaVuSans-6d"/>
     </defs>
     <g transform="translate(725.6125 669.076563)scale(0.1 -0.1)">
      <use xlink:href="#DejaVuSans-54"/>
      <use x="61.037109" xlink:href="#DejaVuSans-69"/>
      <use x="88.820312" xlink:href="#DejaVuSans-6d"/>
      <use x="186.232422" xlink:href="#DejaVuSans-65"/>
     </g>
    </g>
   </g>
   <g id="matplotlib.axis_6">
    <g id="ytick_11">
     <g id="line2d_50">
      <g>
       <use style="stroke:#000000;stroke-width:0.8;" x="180" xlink:href="#m3ae0fbb89b" y="618.247189"/>
      </g>
     </g>
     <g id="text_45">
      <!-- −2 -->
      <g transform="translate(158.257812 622.046408)scale(0.1 -0.1)">
       <use xlink:href="#DejaVuSans-2212"/>
       <use x="83.789062" xlink:href="#DejaVuSans-32"/>
      </g>
     </g>
    </g>
    <g id="ytick_12">
     <g id="line2d_51">
      <g>
       <use style="stroke:#000000;stroke-width:0.8;" x="180" xlink:href="#m3ae0fbb89b" y="591.045324"/>
      </g>
     </g>
     <g id="text_46">
      <!-- −1 -->
      <g transform="translate(158.257812 594.844543)scale(0.1 -0.1)">
       <use xlink:href="#DejaVuSans-2212"/>
       <use x="83.789062" xlink:href="#DejaVuSans-31"/>
      </g>
     </g>
    </g>
    <g id="ytick_13">
     <g id="line2d_52">
      <g>
       <use style="stroke:#000000;stroke-width:0.8;" x="180" xlink:href="#m3ae0fbb89b" y="563.843458"/>
      </g>
     </g>
     <g id="text_47">
      <!-- 0 -->
      <g transform="translate(166.6375 567.642677)scale(0.1 -0.1)">
       <use xlink:href="#DejaVuSans-30"/>
      </g>
     </g>
    </g>
    <g id="ytick_14">
     <g id="line2d_53">
      <g>
       <use style="stroke:#000000;stroke-width:0.8;" x="180" xlink:href="#m3ae0fbb89b" y="536.641593"/>
      </g>
     </g>
     <g id="text_48">
      <!-- 1 -->
      <g transform="translate(166.6375 540.440812)scale(0.1 -0.1)">
       <use xlink:href="#DejaVuSans-31"/>
      </g>
     </g>
    </g>
    <g id="ytick_15">
     <g id="line2d_54">
      <g>
       <use style="stroke:#000000;stroke-width:0.8;" x="180" xlink:href="#m3ae0fbb89b" y="509.439728"/>
      </g>
     </g>
     <g id="text_49">
      <!-- 2 -->
      <g transform="translate(166.6375 513.238946)scale(0.1 -0.1)">
       <use xlink:href="#DejaVuSans-32"/>
      </g>
     </g>
    </g>
    <g id="ytick_16">
     <g id="line2d_55">
      <g>
       <use style="stroke:#000000;stroke-width:0.8;" x="180" xlink:href="#m3ae0fbb89b" y="482.237862"/>
      </g>
     </g>
     <g id="text_50">
      <!-- 3 -->
      <g transform="translate(166.6375 486.037081)scale(0.1 -0.1)">
       <use xlink:href="#DejaVuSans-33"/>
      </g>
     </g>
    </g>
    <g id="text_51">
     <!-- Control Input -->
     <defs>
      <path d="M 64.40625 67.28125 
L 64.40625 56.890625 
Q 59.421875 61.53125 53.78125 63.8125 
Q 48.140625 66.109375 41.796875 66.109375 
Q 29.296875 66.109375 22.65625 58.46875 
Q 16.015625 50.828125 16.015625 36.375 
Q 16.015625 21.96875 22.65625 14.328125 
Q 29.296875 6.6875 41.796875 6.6875 
Q 48.140625 6.6875 53.78125 8.984375 
Q 59.421875 11.28125 64.40625 15.921875 
L 64.40625 5.609375 
Q 59.234375 2.09375 53.4375 0.328125 
Q 47.65625 -1.421875 41.21875 -1.421875 
Q 24.65625 -1.421875 15.125 8.703125 
Q 5.609375 18.84375 5.609375 36.375 
Q 5.609375 53.953125 15.125 64.078125 
Q 24.65625 74.21875 41.21875 74.21875 
Q 47.75 74.21875 53.53125 72.484375 
Q 59.328125 70.75 64.40625 67.28125 
z
" id="DejaVuSans-43"/>
      <path d="M 30.609375 48.390625 
Q 23.390625 48.390625 19.1875 42.75 
Q 14.984375 37.109375 14.984375 27.296875 
Q 14.984375 17.484375 19.15625 11.84375 
Q 23.34375 6.203125 30.609375 6.203125 
Q 37.796875 6.203125 41.984375 11.859375 
Q 46.1875 17.53125 46.1875 27.296875 
Q 46.1875 37.015625 41.984375 42.703125 
Q 37.796875 48.390625 30.609375 48.390625 
z
M 30.609375 56 
Q 42.328125 56 49.015625 48.375 
Q 55.71875 40.765625 55.71875 27.296875 
Q 55.71875 13.875 49.015625 6.21875 
Q 42.328125 -1.421875 30.609375 -1.421875 
Q 18.84375 -1.421875 12.171875 6.21875 
Q 5.515625 13.875 5.515625 27.296875 
Q 5.515625 40.765625 12.171875 48.375 
Q 18.84375 56 30.609375 56 
z
" id="DejaVuSans-6f"/>
      <path d="M 54.890625 33.015625 
L 54.890625 0 
L 45.90625 0 
L 45.90625 32.71875 
Q 45.90625 40.484375 42.875 44.328125 
Q 39.84375 48.1875 33.796875 48.1875 
Q 26.515625 48.1875 22.3125 43.546875 
Q 18.109375 38.921875 18.109375 30.90625 
L 18.109375 0 
L 9.078125 0 
L 9.078125 54.6875 
L 18.109375 54.6875 
L 18.109375 46.1875 
Q 21.34375 51.125 25.703125 53.5625 
Q 30.078125 56 35.796875 56 
Q 45.21875 56 50.046875 50.171875 
Q 54.890625 44.34375 54.890625 33.015625 
z
" id="DejaVuSans-6e"/>
      <path d="M 9.421875 75.984375 
L 18.40625 75.984375 
L 18.40625 0 
L 9.421875 0 
z
" id="DejaVuSans-6c"/>
      <path d="M 9.8125 72.90625 
L 19.671875 72.90625 
L 19.671875 0 
L 9.8125 0 
z
" id="DejaVuSans-49"/>
      <path d="M 18.109375 8.203125 
L 18.109375 -20.796875 
L 9.078125 -20.796875 
L 9.078125 54.6875 
L 18.109375 54.6875 
L 18.109375 46.390625 
Q 20.953125 51.265625 25.265625 53.625 
Q 29.59375 56 35.59375 56 
Q 45.5625 56 51.78125 48.09375 
Q 58.015625 40.1875 58.015625 27.296875 
Q 58.015625 14.40625 51.78125 6.484375 
Q 45.5625 -1.421875 35.59375 -1.421875 
Q 29.59375 -1.421875 25.265625 0.953125 
Q 20.953125 3.328125 18.109375 8.203125 
z
M 48.6875 27.296875 
Q 48.6875 37.203125 44.609375 42.84375 
Q 40.53125 48.484375 33.40625 48.484375 
Q 26.265625 48.484375 22.1875 42.84375 
Q 18.109375 37.203125 18.109375 27.296875 
Q 18.109375 17.390625 22.1875 11.75 
Q 26.265625 6.109375 33.40625 6.109375 
Q 40.53125 6.109375 44.609375 11.75 
Q 48.6875 17.390625 48.6875 27.296875 
z
" id="DejaVuSans-70"/>
     </defs>
     <g transform="translate(152.178125 591.988557)rotate(-90)scale(0.1 -0.1)">
      <use xlink:href="#DejaVuSans-43"/>
      <use x="69.824219" xlink:href="#DejaVuSans-6f"/>
      <use x="131.005859" xlink:href="#DejaVuSans-6e"/>
      <use x="194.384766" xlink:href="#DejaVuSans-74"/>
      <use x="233.59375" xlink:href="#DejaVuSans-72"/>
      <use x="274.675781" xlink:href="#DejaVuSans-6f"/>
      <use x="335.857422" xlink:href="#DejaVuSans-6c"/>
      <use x="363.640625" xlink:href="#DejaVuSans-20"/>
      <use x="395.427734" xlink:href="#DejaVuSans-49"/>
      <use x="424.919922" xlink:href="#DejaVuSans-6e"/>
      <use x="488.298828" xlink:href="#DejaVuSans-70"/>
      <use x="551.775391" xlink:href="#DejaVuSans-75"/>
      <use x="615.154297" xlink:href="#DejaVuSans-74"/>
     </g>
    </g>
   </g>
   <g id="line2d_56">
    <path clip-path="url(#p7453be465c)" d="M 230.727273 535.294929 
L 235.825491 535.442225 
L 240.923709 536.619198 
L 251.120146 535.563564 
L 256.218365 532.380916 
L 261.316583 533.558231 
L 266.414801 530.594765 
L 271.51302 545.755976 
L 276.611238 596.903014 
L 281.709456 594.905819 
L 286.807675 596.392243 
L 291.905893 596.696444 
L 297.004111 569.83103 
L 302.10233 500.625164 
L 307.200548 501.492658 
L 312.298767 503.545016 
L 317.396985 501.387452 
L 322.495203 500.890323 
L 327.593422 587.667806 
L 332.69164 589.624294 
L 337.789858 590.203611 
L 342.888077 591.345138 
L 347.986295 591.696063 
L 353.084513 592.318902 
L 358.182732 598.721818 
L 363.28095 606.82535 
L 368.379169 609.882434 
L 373.477387 610.139786 
L 378.575605 610.585339 
L 383.673824 574.76823 
L 388.772042 491.251401 
L 393.87026 500.167002 
L 398.968479 503.701043 
L 404.066697 505.065564 
L 409.164915 542.744827 
L 414.263134 588.179793 
L 419.361352 575.431854 
L 424.459571 575.376509 
L 429.557789 577.966549 
L 434.656007 578.990416 
L 439.754226 544.402865 
L 444.852444 524.107483 
L 449.950662 525.049738 
L 455.048881 524.421526 
L 460.147099 524.035121 
L 465.245317 525.673532 
L 470.343536 581.618953 
L 475.441754 579.33767 
L 485.638191 579.953897 
L 490.736409 580.475183 
L 495.834628 568.937174 
L 500.932846 555.612848 
L 506.031064 556.563569 
L 516.227501 556.265089 
L 521.32572 562.869304 
L 526.423938 615.042623 
L 531.522156 612.428198 
L 536.620375 612.691025 
L 541.718593 614.101395 
L 546.816811 615.014567 
L 551.91503 615.257489 
L 557.013248 611.355344 
L 562.111466 612.13506 
L 567.209685 615.089712 
L 572.307903 615.628891 
L 577.406122 615.717453 
L 582.50434 621.973309 
L 587.602558 624.541562 
L 592.700777 621.960453 
L 597.798995 622.278864 
L 602.897213 622.276827 
L 607.995432 574.753934 
L 613.09365 563.129316 
L 618.191868 562.334609 
L 623.290087 561.241954 
L 628.388305 560.927353 
L 633.486524 573.983737 
L 638.584742 617.74752 
L 643.68296 606.901182 
L 648.781179 607.177307 
L 653.879397 607.175978 
L 658.977615 607.371912 
L 664.075834 551.772555 
L 669.174052 548.672039 
L 674.27227 548.252993 
L 679.370489 547.609917 
L 684.468707 546.510105 
L 689.566926 543.028411 
L 694.665144 550.57594 
L 699.763362 554.553306 
L 704.861581 553.669572 
L 709.959799 553.190907 
L 720.156236 552.932674 
L 725.254454 523.934458 
L 730.352672 525.675659 
L 735.450891 525.821166 
L 740.549109 525.492262 
L 745.647328 524.630552 
L 750.745546 549.921787 
L 755.843764 542.86686 
L 760.941983 538.877079 
L 766.040201 539.242896 
L 771.138419 538.721841 
L 776.236638 537.773802 
L 781.334856 491.658086 
L 786.433074 492.352374 
L 791.531293 492.782473 
L 796.629511 491.121036 
L 801.72773 487.507833 
L 806.825948 596.128018 
L 811.924166 575.460719 
L 817.022385 576.134999 
L 822.120603 577.036627 
L 827.218821 579.738175 
L 832.31704 581.198426 
L 837.415258 582.101073 
L 842.513476 582.631624 
L 852.709913 583.316872 
L 857.808132 584.098497 
L 862.90635 537.288718 
L 868.004568 485.152941 
L 873.102787 493.170918 
L 878.201005 495.12999 
L 883.299223 493.136827 
L 888.397442 490.415854 
L 893.49566 494.771704 
L 898.593878 491.778878 
L 903.692097 491.915558 
L 908.790315 488.755611 
L 913.888534 488.064549 
L 918.986752 550.899883 
L 924.08497 571.088991 
L 929.183189 572.275364 
L 939.379625 574.089708 
L 944.477844 551.866461 
L 949.576062 528.907506 
L 954.67428 531.050739 
L 959.772499 530.645118 
L 964.870717 526.353486 
L 969.968936 528.286937 
L 975.067154 560.248485 
L 980.165372 555.26261 
L 985.263591 555.382947 
L 990.361809 555.825934 
L 1000.558246 556.243423 
L 1005.656464 535.315405 
L 1010.754683 542.566603 
L 1015.852901 540.88906 
L 1020.951119 540.710561 
L 1026.049338 539.457089 
L 1031.147556 549.455333 
L 1036.245774 603.288263 
L 1041.343993 601.284911 
L 1046.442211 601.571663 
L 1051.540429 602.728628 
L 1056.638648 569.478755 
L 1061.736866 506.35291 
L 1066.835085 510.423094 
L 1071.933303 510.399821 
L 1077.031521 509.786408 
L 1082.12974 508.408817 
L 1087.227958 521.657126 
L 1092.326176 542.470133 
L 1097.424395 538.022139 
L 1102.522613 535.619528 
L 1107.620831 538.485256 
L 1112.71905 535.535988 
L 1117.817268 540.649307 
L 1122.915487 540.706781 
L 1128.013705 541.664455 
L 1133.111923 538.714521 
L 1138.210142 542.050073 
L 1143.30836 539.371905 
L 1148.406578 488.226603 
L 1153.504797 494.32619 
L 1158.603015 494.109551 
L 1163.701233 492.527062 
L 1168.799452 541.972555 
L 1173.89767 633.388235 
L 1178.995889 621.895583 
L 1184.094107 613.637582 
L 1189.192325 613.553142 
L 1194.290544 615.873006 
L 1199.388762 541.255947 
L 1204.48698 553.265846 
L 1209.585199 553.695185 
L 1214.683417 553.85914 
L 1219.781635 556.613127 
L 1224.879854 555.762934 
L 1229.978072 581.166684 
L 1235.076291 598.508564 
L 1245.272727 598.899424 
L 1245.272727 598.899424 
" style="fill:none;stroke:#ff0000;stroke-linecap:square;stroke-width:1.5;"/>
   </g>
   <g id="patch_15">
    <path d="M 180 640.8 
L 180 477.741176 
" style="fill:none;stroke:#000000;stroke-linecap:square;stroke-linejoin:miter;stroke-width:0.8;"/>
   </g>
   <g id="patch_16">
    <path d="M 1296 640.8 
L 1296 477.741176 
" style="fill:none;stroke:#000000;stroke-linecap:square;stroke-linejoin:miter;stroke-width:0.8;"/>
   </g>
   <g id="patch_17">
    <path d="M 180 640.8 
L 1296 640.8 
" style="fill:none;stroke:#000000;stroke-linecap:square;stroke-linejoin:miter;stroke-width:0.8;"/>
   </g>
   <g id="patch_18">
    <path d="M 180 477.741176 
L 1296 477.741176 
" style="fill:none;stroke:#000000;stroke-linecap:square;stroke-linejoin:miter;stroke-width:0.8;"/>
   </g>
   <g id="legend_3">
    <g id="patch_19">
     <path d="M 1194.742188 500.419301 
L 1289 500.419301 
Q 1291 500.419301 1291 498.419301 
L 1291 484.741176 
Q 1291 482.741176 1289 482.741176 
L 1194.742188 482.741176 
Q 1192.742188 482.741176 1192.742188 484.741176 
L 1192.742188 498.419301 
Q 1192.742188 500.419301 1194.742188 500.419301 
z
" style="fill:#ffffff;opacity:0.8;stroke:#cccccc;stroke-linejoin:miter;"/>
    </g>
    <g id="line2d_57">
     <path d="M 1196.742188 490.839614 
L 1216.742188 490.839614 
" style="fill:none;stroke:#ff0000;stroke-linecap:square;stroke-width:1.5;"/>
    </g>
    <g id="line2d_58"/>
    <g id="text_52">
     <!-- ControlInput -->
     <g transform="translate(1224.742188 494.339614)scale(0.1 -0.1)">
      <use xlink:href="#DejaVuSans-43"/>
      <use x="69.824219" xlink:href="#DejaVuSans-6f"/>
      <use x="131.005859" xlink:href="#DejaVuSans-6e"/>
      <use x="194.384766" xlink:href="#DejaVuSans-74"/>
      <use x="233.59375" xlink:href="#DejaVuSans-72"/>
      <use x="274.675781" xlink:href="#DejaVuSans-6f"/>
      <use x="335.857422" xlink:href="#DejaVuSans-6c"/>
      <use x="363.640625" xlink:href="#DejaVuSans-49"/>
      <use x="393.132812" xlink:href="#DejaVuSans-6e"/>
      <use x="456.511719" xlink:href="#DejaVuSans-70"/>
      <use x="519.988281" xlink:href="#DejaVuSans-75"/>
      <use x="583.367188" xlink:href="#DejaVuSans-74"/>
     </g>
    </g>
   </g>
  </g>
 </g>
 <defs>
  <clipPath id="p3d50eb9455">
   <rect height="163.058824" width="1116" x="180" y="86.4"/>
  </clipPath>
  <clipPath id="p9407c9adfa">
   <rect height="163.058824" width="1116" x="180" y="282.070588"/>
  </clipPath>
  <clipPath id="p7453be465c">
   <rect height="163.058824" width="1116" x="180" y="477.741176"/>
  </clipPath>
 </defs>
</svg>
