<?xml version="1.0" encoding="utf-8" standalone="no"?>
<!DOCTYPE svg PUBLIC "-//W3C//DTD SVG 1.1//EN"
  "http://www.w3.org/Graphics/SVG/1.1/DTD/svg11.dtd">
<!-- Created with matplotlib (http://matplotlib.org/) -->
<svg height="720pt" version="1.1" viewBox="0 0 1440 720" width="1440pt" xmlns="http://www.w3.org/2000/svg" xmlns:xlink="http://www.w3.org/1999/xlink">
 <defs>
  <style type="text/css">
*{stroke-linecap:butt;stroke-linejoin:round;}
  </style>
 </defs>
 <g id="figure_1">
  <g id="patch_1">
   <path d="M 0 720 
L 1440 720 
L 1440 0 
L 0 0 
z
" style="fill:#ffffff;"/>
  </g>
  <g id="axes_1">
   <g id="patch_2">
    <path d="M 180 249.458824 
L 1296 249.458824 
L 1296 86.4 
L 180 86.4 
z
" style="fill:#ffffff;"/>
   </g>
   <g id="matplotlib.axis_1">
    <g id="xtick_1">
     <g id="line2d_1">
      <defs>
       <path d="M 0 0 
L 0 3.5 
" id="mb26557f087" style="stroke:#000000;stroke-width:0.8;"/>
      </defs>
      <g>
       <use style="stroke:#000000;stroke-width:0.8;" x="225.629054" xlink:href="#mb26557f087" y="249.458824"/>
      </g>
     </g>
     <g id="text_1">
      <!-- 0 -->
      <defs>
       <path d="M 31.78125 66.40625 
Q 24.171875 66.40625 20.328125 58.90625 
Q 16.5 51.421875 16.5 36.375 
Q 16.5 21.390625 20.328125 13.890625 
Q 24.171875 6.390625 31.78125 6.390625 
Q 39.453125 6.390625 43.28125 13.890625 
Q 47.125 21.390625 47.125 36.375 
Q 47.125 51.421875 43.28125 58.90625 
Q 39.453125 66.40625 31.78125 66.40625 
z
M 31.78125 74.21875 
Q 44.046875 74.21875 50.515625 64.515625 
Q 56.984375 54.828125 56.984375 36.375 
Q 56.984375 17.96875 50.515625 8.265625 
Q 44.046875 -1.421875 31.78125 -1.421875 
Q 19.53125 -1.421875 13.0625 8.265625 
Q 6.59375 17.96875 6.59375 36.375 
Q 6.59375 54.828125 13.0625 64.515625 
Q 19.53125 74.21875 31.78125 74.21875 
z
" id="DejaVuSans-30"/>
      </defs>
      <g transform="translate(222.447804 264.057261)scale(0.1 -0.1)">
       <use xlink:href="#DejaVuSans-30"/>
      </g>
     </g>
    </g>
    <g id="xtick_2">
     <g id="line2d_2">
      <g>
       <use style="stroke:#000000;stroke-width:0.8;" x="353.084513" xlink:href="#mb26557f087" y="249.458824"/>
      </g>
     </g>
     <g id="text_2">
      <!-- 500 -->
      <defs>
       <path d="M 10.796875 72.90625 
L 49.515625 72.90625 
L 49.515625 64.59375 
L 19.828125 64.59375 
L 19.828125 46.734375 
Q 21.96875 47.46875 24.109375 47.828125 
Q 26.265625 48.1875 28.421875 48.1875 
Q 40.625 48.1875 47.75 41.5 
Q 54.890625 34.8125 54.890625 23.390625 
Q 54.890625 11.625 47.5625 5.09375 
Q 40.234375 -1.421875 26.90625 -1.421875 
Q 22.3125 -1.421875 17.546875 -0.640625 
Q 12.796875 0.140625 7.71875 1.703125 
L 7.71875 11.625 
Q 12.109375 9.234375 16.796875 8.0625 
Q 21.484375 6.890625 26.703125 6.890625 
Q 35.15625 6.890625 40.078125 11.328125 
Q 45.015625 15.765625 45.015625 23.390625 
Q 45.015625 31 40.078125 35.4375 
Q 35.15625 39.890625 26.703125 39.890625 
Q 22.75 39.890625 18.8125 39.015625 
Q 14.890625 38.140625 10.796875 36.28125 
z
" id="DejaVuSans-35"/>
      </defs>
      <g transform="translate(343.540763 264.057261)scale(0.1 -0.1)">
       <use xlink:href="#DejaVuSans-35"/>
       <use x="63.623047" xlink:href="#DejaVuSans-30"/>
       <use x="127.246094" xlink:href="#DejaVuSans-30"/>
      </g>
     </g>
    </g>
    <g id="xtick_3">
     <g id="line2d_3">
      <g>
       <use style="stroke:#000000;stroke-width:0.8;" x="480.539973" xlink:href="#mb26557f087" y="249.458824"/>
      </g>
     </g>
     <g id="text_3">
      <!-- 1000 -->
      <defs>
       <path d="M 12.40625 8.296875 
L 28.515625 8.296875 
L 28.515625 63.921875 
L 10.984375 60.40625 
L 10.984375 69.390625 
L 28.421875 72.90625 
L 38.28125 72.90625 
L 38.28125 8.296875 
L 54.390625 8.296875 
L 54.390625 0 
L 12.40625 0 
z
" id="DejaVuSans-31"/>
      </defs>
      <g transform="translate(467.814973 264.057261)scale(0.1 -0.1)">
       <use xlink:href="#DejaVuSans-31"/>
       <use x="63.623047" xlink:href="#DejaVuSans-30"/>
       <use x="127.246094" xlink:href="#DejaVuSans-30"/>
       <use x="190.869141" xlink:href="#DejaVuSans-30"/>
      </g>
     </g>
    </g>
    <g id="xtick_4">
     <g id="line2d_4">
      <g>
       <use style="stroke:#000000;stroke-width:0.8;" x="607.995432" xlink:href="#mb26557f087" y="249.458824"/>
      </g>
     </g>
     <g id="text_4">
      <!-- 1500 -->
      <g transform="translate(595.270432 264.057261)scale(0.1 -0.1)">
       <use xlink:href="#DejaVuSans-31"/>
       <use x="63.623047" xlink:href="#DejaVuSans-35"/>
       <use x="127.246094" xlink:href="#DejaVuSans-30"/>
       <use x="190.869141" xlink:href="#DejaVuSans-30"/>
      </g>
     </g>
    </g>
    <g id="xtick_5">
     <g id="line2d_5">
      <g>
       <use style="stroke:#000000;stroke-width:0.8;" x="735.450891" xlink:href="#mb26557f087" y="249.458824"/>
      </g>
     </g>
     <g id="text_5">
      <!-- 2000 -->
      <defs>
       <path d="M 19.1875 8.296875 
L 53.609375 8.296875 
L 53.609375 0 
L 7.328125 0 
L 7.328125 8.296875 
Q 12.9375 14.109375 22.625 23.890625 
Q 32.328125 33.6875 34.8125 36.53125 
Q 39.546875 41.84375 41.421875 45.53125 
Q 43.3125 49.21875 43.3125 52.78125 
Q 43.3125 58.59375 39.234375 62.25 
Q 35.15625 65.921875 28.609375 65.921875 
Q 23.96875 65.921875 18.8125 64.3125 
Q 13.671875 62.703125 7.8125 59.421875 
L 7.8125 69.390625 
Q 13.765625 71.78125 18.9375 73 
Q 24.125 74.21875 28.421875 74.21875 
Q 39.75 74.21875 46.484375 68.546875 
Q 53.21875 62.890625 53.21875 53.421875 
Q 53.21875 48.921875 51.53125 44.890625 
Q 49.859375 40.875 45.40625 35.40625 
Q 44.1875 33.984375 37.640625 27.21875 
Q 31.109375 20.453125 19.1875 8.296875 
z
" id="DejaVuSans-32"/>
      </defs>
      <g transform="translate(722.725891 264.057261)scale(0.1 -0.1)">
       <use xlink:href="#DejaVuSans-32"/>
       <use x="63.623047" xlink:href="#DejaVuSans-30"/>
       <use x="127.246094" xlink:href="#DejaVuSans-30"/>
       <use x="190.869141" xlink:href="#DejaVuSans-30"/>
      </g>
     </g>
    </g>
    <g id="xtick_6">
     <g id="line2d_6">
      <g>
       <use style="stroke:#000000;stroke-width:0.8;" x="862.90635" xlink:href="#mb26557f087" y="249.458824"/>
      </g>
     </g>
     <g id="text_6">
      <!-- 2500 -->
      <g transform="translate(850.18135 264.057261)scale(0.1 -0.1)">
       <use xlink:href="#DejaVuSans-32"/>
       <use x="63.623047" xlink:href="#DejaVuSans-35"/>
       <use x="127.246094" xlink:href="#DejaVuSans-30"/>
       <use x="190.869141" xlink:href="#DejaVuSans-30"/>
      </g>
     </g>
    </g>
    <g id="xtick_7">
     <g id="line2d_7">
      <g>
       <use style="stroke:#000000;stroke-width:0.8;" x="990.361809" xlink:href="#mb26557f087" y="249.458824"/>
      </g>
     </g>
     <g id="text_7">
      <!-- 3000 -->
      <defs>
       <path d="M 40.578125 39.3125 
Q 47.65625 37.796875 51.625 33 
Q 55.609375 28.21875 55.609375 21.1875 
Q 55.609375 10.40625 48.1875 4.484375 
Q 40.765625 -1.421875 27.09375 -1.421875 
Q 22.515625 -1.421875 17.65625 -0.515625 
Q 12.796875 0.390625 7.625 2.203125 
L 7.625 11.71875 
Q 11.71875 9.328125 16.59375 8.109375 
Q 21.484375 6.890625 26.8125 6.890625 
Q 36.078125 6.890625 40.9375 10.546875 
Q 45.796875 14.203125 45.796875 21.1875 
Q 45.796875 27.640625 41.28125 31.265625 
Q 36.765625 34.90625 28.71875 34.90625 
L 20.21875 34.90625 
L 20.21875 43.015625 
L 29.109375 43.015625 
Q 36.375 43.015625 40.234375 45.921875 
Q 44.09375 48.828125 44.09375 54.296875 
Q 44.09375 59.90625 40.109375 62.90625 
Q 36.140625 65.921875 28.71875 65.921875 
Q 24.65625 65.921875 20.015625 65.03125 
Q 15.375 64.15625 9.8125 62.3125 
L 9.8125 71.09375 
Q 15.4375 72.65625 20.34375 73.4375 
Q 25.25 74.21875 29.59375 74.21875 
Q 40.828125 74.21875 47.359375 69.109375 
Q 53.90625 64.015625 53.90625 55.328125 
Q 53.90625 49.265625 50.4375 45.09375 
Q 46.96875 40.921875 40.578125 39.3125 
z
" id="DejaVuSans-33"/>
      </defs>
      <g transform="translate(977.636809 264.057261)scale(0.1 -0.1)">
       <use xlink:href="#DejaVuSans-33"/>
       <use x="63.623047" xlink:href="#DejaVuSans-30"/>
       <use x="127.246094" xlink:href="#DejaVuSans-30"/>
       <use x="190.869141" xlink:href="#DejaVuSans-30"/>
      </g>
     </g>
    </g>
    <g id="xtick_8">
     <g id="line2d_8">
      <g>
       <use style="stroke:#000000;stroke-width:0.8;" x="1117.817268" xlink:href="#mb26557f087" y="249.458824"/>
      </g>
     </g>
     <g id="text_8">
      <!-- 3500 -->
      <g transform="translate(1105.092268 264.057261)scale(0.1 -0.1)">
       <use xlink:href="#DejaVuSans-33"/>
       <use x="63.623047" xlink:href="#DejaVuSans-35"/>
       <use x="127.246094" xlink:href="#DejaVuSans-30"/>
       <use x="190.869141" xlink:href="#DejaVuSans-30"/>
      </g>
     </g>
    </g>
    <g id="xtick_9">
     <g id="line2d_9">
      <g>
       <use style="stroke:#000000;stroke-width:0.8;" x="1245.272727" xlink:href="#mb26557f087" y="249.458824"/>
      </g>
     </g>
     <g id="text_9">
      <!-- 4000 -->
      <defs>
       <path d="M 37.796875 64.3125 
L 12.890625 25.390625 
L 37.796875 25.390625 
z
M 35.203125 72.90625 
L 47.609375 72.90625 
L 47.609375 25.390625 
L 58.015625 25.390625 
L 58.015625 17.1875 
L 47.609375 17.1875 
L 47.609375 0 
L 37.796875 0 
L 37.796875 17.1875 
L 4.890625 17.1875 
L 4.890625 26.703125 
z
" id="DejaVuSans-34"/>
      </defs>
      <g transform="translate(1232.547727 264.057261)scale(0.1 -0.1)">
       <use xlink:href="#DejaVuSans-34"/>
       <use x="63.623047" xlink:href="#DejaVuSans-30"/>
       <use x="127.246094" xlink:href="#DejaVuSans-30"/>
       <use x="190.869141" xlink:href="#DejaVuSans-30"/>
      </g>
     </g>
    </g>
   </g>
   <g id="matplotlib.axis_2">
    <g id="ytick_1">
     <g id="line2d_10">
      <defs>
       <path d="M 0 0 
L -3.5 0 
" id="md45adc8b75" style="stroke:#000000;stroke-width:0.8;"/>
      </defs>
      <g>
       <use style="stroke:#000000;stroke-width:0.8;" x="180" xlink:href="#md45adc8b75" y="231.166911"/>
      </g>
     </g>
     <g id="text_10">
      <!-- −2.0 -->
      <defs>
       <path d="M 10.59375 35.5 
L 73.1875 35.5 
L 73.1875 27.203125 
L 10.59375 27.203125 
z
" id="DejaVuSans-2212"/>
       <path d="M 10.6875 12.40625 
L 21 12.40625 
L 21 0 
L 10.6875 0 
z
" id="DejaVuSans-2e"/>
      </defs>
      <g transform="translate(148.717187 234.96613)scale(0.1 -0.1)">
       <use xlink:href="#DejaVuSans-2212"/>
       <use x="83.789062" xlink:href="#DejaVuSans-32"/>
       <use x="147.412109" xlink:href="#DejaVuSans-2e"/>
       <use x="179.199219" xlink:href="#DejaVuSans-30"/>
      </g>
     </g>
    </g>
    <g id="ytick_2">
     <g id="line2d_11">
      <g>
       <use style="stroke:#000000;stroke-width:0.8;" x="180" xlink:href="#md45adc8b75" y="209.406617"/>
      </g>
     </g>
     <g id="text_11">
      <!-- −1.8 -->
      <defs>
       <path d="M 31.78125 34.625 
Q 24.75 34.625 20.71875 30.859375 
Q 16.703125 27.09375 16.703125 20.515625 
Q 16.703125 13.921875 20.71875 10.15625 
Q 24.75 6.390625 31.78125 6.390625 
Q 38.8125 6.390625 42.859375 10.171875 
Q 46.921875 13.96875 46.921875 20.515625 
Q 46.921875 27.09375 42.890625 30.859375 
Q 38.875 34.625 31.78125 34.625 
z
M 21.921875 38.8125 
Q 15.578125 40.375 12.03125 44.71875 
Q 8.5 49.078125 8.5 55.328125 
Q 8.5 64.0625 14.71875 69.140625 
Q 20.953125 74.21875 31.78125 74.21875 
Q 42.671875 74.21875 48.875 69.140625 
Q 55.078125 64.0625 55.078125 55.328125 
Q 55.078125 49.078125 51.53125 44.71875 
Q 48 40.375 41.703125 38.8125 
Q 48.828125 37.15625 52.796875 32.3125 
Q 56.78125 27.484375 56.78125 20.515625 
Q 56.78125 9.90625 50.3125 4.234375 
Q 43.84375 -1.421875 31.78125 -1.421875 
Q 19.734375 -1.421875 13.25 4.234375 
Q 6.78125 9.90625 6.78125 20.515625 
Q 6.78125 27.484375 10.78125 32.3125 
Q 14.796875 37.15625 21.921875 38.8125 
z
M 18.3125 54.390625 
Q 18.3125 48.734375 21.84375 45.5625 
Q 25.390625 42.390625 31.78125 42.390625 
Q 38.140625 42.390625 41.71875 45.5625 
Q 45.3125 48.734375 45.3125 54.390625 
Q 45.3125 60.0625 41.71875 63.234375 
Q 38.140625 66.40625 31.78125 66.40625 
Q 25.390625 66.40625 21.84375 63.234375 
Q 18.3125 60.0625 18.3125 54.390625 
z
" id="DejaVuSans-38"/>
      </defs>
      <g transform="translate(148.717187 213.205836)scale(0.1 -0.1)">
       <use xlink:href="#DejaVuSans-2212"/>
       <use x="83.789062" xlink:href="#DejaVuSans-31"/>
       <use x="147.412109" xlink:href="#DejaVuSans-2e"/>
       <use x="179.199219" xlink:href="#DejaVuSans-38"/>
      </g>
     </g>
    </g>
    <g id="ytick_3">
     <g id="line2d_12">
      <g>
       <use style="stroke:#000000;stroke-width:0.8;" x="180" xlink:href="#md45adc8b75" y="187.646322"/>
      </g>
     </g>
     <g id="text_12">
      <!-- −1.6 -->
      <defs>
       <path d="M 33.015625 40.375 
Q 26.375 40.375 22.484375 35.828125 
Q 18.609375 31.296875 18.609375 23.390625 
Q 18.609375 15.53125 22.484375 10.953125 
Q 26.375 6.390625 33.015625 6.390625 
Q 39.65625 6.390625 43.53125 10.953125 
Q 47.40625 15.53125 47.40625 23.390625 
Q 47.40625 31.296875 43.53125 35.828125 
Q 39.65625 40.375 33.015625 40.375 
z
M 52.59375 71.296875 
L 52.59375 62.3125 
Q 48.875 64.0625 45.09375 64.984375 
Q 41.3125 65.921875 37.59375 65.921875 
Q 27.828125 65.921875 22.671875 59.328125 
Q 17.53125 52.734375 16.796875 39.40625 
Q 19.671875 43.65625 24.015625 45.921875 
Q 28.375 48.1875 33.59375 48.1875 
Q 44.578125 48.1875 50.953125 41.515625 
Q 57.328125 34.859375 57.328125 23.390625 
Q 57.328125 12.15625 50.6875 5.359375 
Q 44.046875 -1.421875 33.015625 -1.421875 
Q 20.359375 -1.421875 13.671875 8.265625 
Q 6.984375 17.96875 6.984375 36.375 
Q 6.984375 53.65625 15.1875 63.9375 
Q 23.390625 74.21875 37.203125 74.21875 
Q 40.921875 74.21875 44.703125 73.484375 
Q 48.484375 72.75 52.59375 71.296875 
z
" id="DejaVuSans-36"/>
      </defs>
      <g transform="translate(148.717187 191.445541)scale(0.1 -0.1)">
       <use xlink:href="#DejaVuSans-2212"/>
       <use x="83.789062" xlink:href="#DejaVuSans-31"/>
       <use x="147.412109" xlink:href="#DejaVuSans-2e"/>
       <use x="179.199219" xlink:href="#DejaVuSans-36"/>
      </g>
     </g>
    </g>
    <g id="ytick_4">
     <g id="line2d_13">
      <g>
       <use style="stroke:#000000;stroke-width:0.8;" x="180" xlink:href="#md45adc8b75" y="165.886027"/>
      </g>
     </g>
     <g id="text_13">
      <!-- −1.4 -->
      <g transform="translate(148.717187 169.685246)scale(0.1 -0.1)">
       <use xlink:href="#DejaVuSans-2212"/>
       <use x="83.789062" xlink:href="#DejaVuSans-31"/>
       <use x="147.412109" xlink:href="#DejaVuSans-2e"/>
       <use x="179.199219" xlink:href="#DejaVuSans-34"/>
      </g>
     </g>
    </g>
    <g id="ytick_5">
     <g id="line2d_14">
      <g>
       <use style="stroke:#000000;stroke-width:0.8;" x="180" xlink:href="#md45adc8b75" y="144.125733"/>
      </g>
     </g>
     <g id="text_14">
      <!-- −1.2 -->
      <g transform="translate(148.717187 147.924952)scale(0.1 -0.1)">
       <use xlink:href="#DejaVuSans-2212"/>
       <use x="83.789062" xlink:href="#DejaVuSans-31"/>
       <use x="147.412109" xlink:href="#DejaVuSans-2e"/>
       <use x="179.199219" xlink:href="#DejaVuSans-32"/>
      </g>
     </g>
    </g>
    <g id="ytick_6">
     <g id="line2d_15">
      <g>
       <use style="stroke:#000000;stroke-width:0.8;" x="180" xlink:href="#md45adc8b75" y="122.365438"/>
      </g>
     </g>
     <g id="text_15">
      <!-- −1.0 -->
      <g transform="translate(148.717187 126.164657)scale(0.1 -0.1)">
       <use xlink:href="#DejaVuSans-2212"/>
       <use x="83.789062" xlink:href="#DejaVuSans-31"/>
       <use x="147.412109" xlink:href="#DejaVuSans-2e"/>
       <use x="179.199219" xlink:href="#DejaVuSans-30"/>
      </g>
     </g>
    </g>
    <g id="ytick_7">
     <g id="line2d_16">
      <g>
       <use style="stroke:#000000;stroke-width:0.8;" x="180" xlink:href="#md45adc8b75" y="100.605143"/>
      </g>
     </g>
     <g id="text_16">
      <!-- −0.8 -->
      <g transform="translate(148.717187 104.404362)scale(0.1 -0.1)">
       <use xlink:href="#DejaVuSans-2212"/>
       <use x="83.789062" xlink:href="#DejaVuSans-30"/>
       <use x="147.412109" xlink:href="#DejaVuSans-2e"/>
       <use x="179.199219" xlink:href="#DejaVuSans-38"/>
      </g>
     </g>
    </g>
    <g id="text_17">
     <!-- TD State:0 -->
     <defs>
      <path d="M -0.296875 72.90625 
L 61.375 72.90625 
L 61.375 64.59375 
L 35.5 64.59375 
L 35.5 0 
L 25.59375 0 
L 25.59375 64.59375 
L -0.296875 64.59375 
z
" id="DejaVuSans-54"/>
      <path d="M 19.671875 64.796875 
L 19.671875 8.109375 
L 31.59375 8.109375 
Q 46.6875 8.109375 53.6875 14.9375 
Q 60.6875 21.78125 60.6875 36.53125 
Q 60.6875 51.171875 53.6875 57.984375 
Q 46.6875 64.796875 31.59375 64.796875 
z
M 9.8125 72.90625 
L 30.078125 72.90625 
Q 51.265625 72.90625 61.171875 64.09375 
Q 71.09375 55.28125 71.09375 36.53125 
Q 71.09375 17.671875 61.125 8.828125 
Q 51.171875 0 30.078125 0 
L 9.8125 0 
z
" id="DejaVuSans-44"/>
      <path id="DejaVuSans-20"/>
      <path d="M 53.515625 70.515625 
L 53.515625 60.890625 
Q 47.90625 63.578125 42.921875 64.890625 
Q 37.9375 66.21875 33.296875 66.21875 
Q 25.25 66.21875 20.875 63.09375 
Q 16.5 59.96875 16.5 54.203125 
Q 16.5 49.359375 19.40625 46.890625 
Q 22.3125 44.4375 30.421875 42.921875 
L 36.375 41.703125 
Q 47.40625 39.59375 52.65625 34.296875 
Q 57.90625 29 57.90625 20.125 
Q 57.90625 9.515625 50.796875 4.046875 
Q 43.703125 -1.421875 29.984375 -1.421875 
Q 24.8125 -1.421875 18.96875 -0.25 
Q 13.140625 0.921875 6.890625 3.21875 
L 6.890625 13.375 
Q 12.890625 10.015625 18.65625 8.296875 
Q 24.421875 6.59375 29.984375 6.59375 
Q 38.421875 6.59375 43.015625 9.90625 
Q 47.609375 13.234375 47.609375 19.390625 
Q 47.609375 24.75 44.3125 27.78125 
Q 41.015625 30.8125 33.5 32.328125 
L 27.484375 33.5 
Q 16.453125 35.6875 11.515625 40.375 
Q 6.59375 45.0625 6.59375 53.421875 
Q 6.59375 63.09375 13.40625 68.65625 
Q 20.21875 74.21875 32.171875 74.21875 
Q 37.3125 74.21875 42.625 73.28125 
Q 47.953125 72.359375 53.515625 70.515625 
z
" id="DejaVuSans-53"/>
      <path d="M 18.3125 70.21875 
L 18.3125 54.6875 
L 36.8125 54.6875 
L 36.8125 47.703125 
L 18.3125 47.703125 
L 18.3125 18.015625 
Q 18.3125 11.328125 20.140625 9.421875 
Q 21.96875 7.515625 27.59375 7.515625 
L 36.8125 7.515625 
L 36.8125 0 
L 27.59375 0 
Q 17.1875 0 13.234375 3.875 
Q 9.28125 7.765625 9.28125 18.015625 
L 9.28125 47.703125 
L 2.6875 47.703125 
L 2.6875 54.6875 
L 9.28125 54.6875 
L 9.28125 70.21875 
z
" id="DejaVuSans-74"/>
      <path d="M 34.28125 27.484375 
Q 23.390625 27.484375 19.1875 25 
Q 14.984375 22.515625 14.984375 16.5 
Q 14.984375 11.71875 18.140625 8.90625 
Q 21.296875 6.109375 26.703125 6.109375 
Q 34.1875 6.109375 38.703125 11.40625 
Q 43.21875 16.703125 43.21875 25.484375 
L 43.21875 27.484375 
z
M 52.203125 31.203125 
L 52.203125 0 
L 43.21875 0 
L 43.21875 8.296875 
Q 40.140625 3.328125 35.546875 0.953125 
Q 30.953125 -1.421875 24.3125 -1.421875 
Q 15.921875 -1.421875 10.953125 3.296875 
Q 6 8.015625 6 15.921875 
Q 6 25.140625 12.171875 29.828125 
Q 18.359375 34.515625 30.609375 34.515625 
L 43.21875 34.515625 
L 43.21875 35.40625 
Q 43.21875 41.609375 39.140625 45 
Q 35.0625 48.390625 27.6875 48.390625 
Q 23 48.390625 18.546875 47.265625 
Q 14.109375 46.140625 10.015625 43.890625 
L 10.015625 52.203125 
Q 14.9375 54.109375 19.578125 55.046875 
Q 24.21875 56 28.609375 56 
Q 40.484375 56 46.34375 49.84375 
Q 52.203125 43.703125 52.203125 31.203125 
z
" id="DejaVuSans-61"/>
      <path d="M 56.203125 29.59375 
L 56.203125 25.203125 
L 14.890625 25.203125 
Q 15.484375 15.921875 20.484375 11.0625 
Q 25.484375 6.203125 34.421875 6.203125 
Q 39.59375 6.203125 44.453125 7.46875 
Q 49.3125 8.734375 54.109375 11.28125 
L 54.109375 2.78125 
Q 49.265625 0.734375 44.1875 -0.34375 
Q 39.109375 -1.421875 33.890625 -1.421875 
Q 20.796875 -1.421875 13.15625 6.1875 
Q 5.515625 13.8125 5.515625 26.8125 
Q 5.515625 40.234375 12.765625 48.109375 
Q 20.015625 56 32.328125 56 
Q 43.359375 56 49.78125 48.890625 
Q 56.203125 41.796875 56.203125 29.59375 
z
M 47.21875 32.234375 
Q 47.125 39.59375 43.09375 43.984375 
Q 39.0625 48.390625 32.421875 48.390625 
Q 24.90625 48.390625 20.390625 44.140625 
Q 15.875 39.890625 15.1875 32.171875 
z
" id="DejaVuSans-65"/>
      <path d="M 11.71875 12.40625 
L 22.015625 12.40625 
L 22.015625 0 
L 11.71875 0 
z
M 11.71875 51.703125 
L 22.015625 51.703125 
L 22.015625 39.3125 
L 11.71875 39.3125 
z
" id="DejaVuSans-3a"/>
     </defs>
     <g transform="translate(142.6375 194.523162)rotate(-90)scale(0.1 -0.1)">
      <use xlink:href="#DejaVuSans-54"/>
      <use x="61.083984" xlink:href="#DejaVuSans-44"/>
      <use x="138.085938" xlink:href="#DejaVuSans-20"/>
      <use x="169.873047" xlink:href="#DejaVuSans-53"/>
      <use x="233.349609" xlink:href="#DejaVuSans-74"/>
      <use x="272.558594" xlink:href="#DejaVuSans-61"/>
      <use x="333.837891" xlink:href="#DejaVuSans-74"/>
      <use x="373.046875" xlink:href="#DejaVuSans-65"/>
      <use x="434.570312" xlink:href="#DejaVuSans-3a"/>
      <use x="468.261719" xlink:href="#DejaVuSans-30"/>
     </g>
    </g>
   </g>
   <g id="line2d_17">
    <path clip-path="url(#p206f328a08)" d="M 230.727273 106.156828 
L 235.825491 113.056368 
L 240.923709 104.748912 
L 246.021928 104.419062 
L 251.120146 98.236537 
L 256.218365 99.171762 
L 261.316583 93.930052 
L 266.414801 101.155864 
L 271.51302 104.278284 
L 276.611238 110.7204 
L 281.709456 109.379896 
L 286.807675 108.724469 
L 291.905893 108.929547 
L 297.004111 103.720386 
L 302.10233 104.757167 
L 307.200548 100.967874 
L 312.298767 103.475315 
L 322.495203 107.214011 
L 327.593422 107.467759 
L 332.69164 108.306811 
L 337.789858 112.642472 
L 342.888077 107.555502 
L 347.986295 109.85498 
L 353.084513 105.25989 
L 358.182732 107.652934 
L 363.28095 101.960752 
L 368.379169 102.445109 
L 373.477387 100.627628 
L 378.575605 104.431928 
L 383.673824 108.395242 
L 388.772042 104.234678 
L 393.87026 112.99692 
L 398.968479 108.470624 
L 404.066697 110.83145 
L 409.164915 104.442693 
L 414.263134 107.822428 
L 419.361352 106.976022 
L 424.459571 99.15492 
L 429.557789 103.547157 
L 434.656007 101.841064 
L 439.754226 105.077063 
L 444.852444 103.466845 
L 449.950662 104.308297 
L 455.048881 102.449363 
L 460.147099 97.36434 
L 465.245317 104.416779 
L 470.343536 106.637631 
L 475.441754 102.697975 
L 480.539973 107.327384 
L 485.638191 104.525624 
L 490.736409 103.037689 
L 500.932846 99.256736 
L 506.031064 102.829907 
L 511.129283 102.798053 
L 516.227501 105.529099 
L 521.32572 101.001324 
L 526.423938 103.384822 
L 531.522156 103.923446 
L 536.620375 107.719186 
L 541.718593 109.902373 
L 546.816811 105.45631 
L 551.91503 105.006298 
L 557.013248 105.438463 
L 562.111466 93.811765 
L 567.209685 97.58146 
L 572.307903 100.119873 
L 577.406122 98.462444 
L 582.50434 101.710376 
L 587.602558 98.775803 
L 592.700777 98.942547 
L 597.798995 101.434268 
L 602.897213 101.866641 
L 607.995432 103.154265 
L 613.09365 99.008384 
L 618.191868 103.692474 
L 623.290087 103.087028 
L 628.388305 99.308253 
L 633.486524 100.691701 
L 638.584742 96.397856 
L 643.68296 97.151992 
L 648.781179 103.092423 
L 653.879397 100.259121 
L 658.977615 99.939744 
L 664.075834 105.93496 
L 669.174052 100.51842 
L 674.27227 101.404125 
L 679.370489 98.885427 
L 684.468707 98.028878 
L 689.566926 101.563814 
L 694.665144 96.511682 
L 699.763362 101.963502 
L 704.861581 104.031151 
L 709.959799 96.465716 
L 715.058017 101.500104 
L 720.156236 101.79655 
L 725.254454 100.676241 
L 730.352672 105.949902 
L 735.450891 103.318104 
L 740.549109 106.162197 
L 745.647328 104.435819 
L 750.745546 100.718056 
L 755.843764 98.021511 
L 760.941983 103.673693 
L 766.040201 103.08267 
L 771.138419 103.582176 
L 776.236638 100.883244 
L 781.334856 96.513965 
L 786.433074 102.878779 
L 791.531293 99.725996 
L 796.629511 103.795509 
L 801.72773 105.445 
L 806.825948 102.982125 
L 811.924166 106.192599 
L 817.022385 104.958464 
L 822.120603 102.097354 
L 827.218821 104.052007 
L 832.31704 101.835045 
L 837.415258 100.216579 
L 842.513476 99.380679 
L 847.611695 102.958468 
L 852.709913 104.736726 
L 857.808132 104.205054 
L 862.90635 104.474211 
L 868.004568 106.524843 
L 873.102787 108.877316 
L 878.201005 107.535062 
L 883.299223 105.824662 
L 893.49566 101.128017 
L 898.593878 102.221971 
L 903.692097 100.022026 
L 908.790315 104.97766 
L 913.888534 106.45304 
L 918.986752 103.946066 
L 924.08497 101.216629 
L 929.183189 104.728426 
L 934.281407 104.227882 
L 939.379625 107.576358 
L 944.477844 108.27602 
L 949.576062 107.091586 
L 954.67428 106.667514 
L 959.772499 106.60173 
L 964.870717 104.607544 
L 969.968936 105.812626 
L 975.067154 103.950321 
L 980.165372 103.311774 
L 985.263591 109.232387 
L 990.361809 111.511397 
L 995.460027 105.397789 
L 1000.558246 104.6615 
L 1005.656464 105.241732 
L 1010.754683 102.863526 
L 1015.852901 109.28157 
L 1026.049338 102.250298 
L 1031.147556 105.422484 
L 1036.245774 105.421654 
L 1041.343993 107.558096 
L 1046.442211 104.19665 
L 1051.540429 106.14819 
L 1056.638648 106.434363 
L 1061.736866 111.416974 
L 1066.835085 105.711563 
L 1071.933303 106.571328 
L 1077.031521 109.490545 
L 1087.227958 107.162144 
L 1092.326176 111.21215 
L 1097.424395 108.439029 
L 1102.522613 104.441111 
L 1107.620831 104.800747 
L 1112.71905 105.8257 
L 1117.817268 101.052271 
L 1122.915487 105.116181 
L 1128.013705 105.098127 
L 1133.111923 107.484426 
L 1138.210142 111.238298 
L 1143.30836 110.470465 
L 1148.406578 109.987976 
L 1158.603015 105.209566 
L 1163.701233 106.383935 
L 1168.799452 108.149328 
L 1173.89767 105.813456 
L 1178.995889 112.592588 
L 1184.094107 109.048314 
L 1189.192325 106.699992 
L 1194.290544 110.625069 
L 1199.388762 113.222834 
L 1204.48698 116.432997 
L 1209.585199 109.636433 
L 1214.683417 110.691476 
L 1219.781635 107.378382 
L 1224.879854 103.590684 
L 1229.978072 109.247743 
L 1235.076291 106.032392 
L 1240.174509 105.025909 
L 1245.272727 113.702833 
L 1245.272727 113.702833 
" style="fill:none;stroke:#000000;stroke-linecap:square;stroke-width:4;"/>
   </g>
   <g id="line2d_18">
    <path clip-path="url(#p206f328a08)" d="M 230.727273 111.485291 
L 297.004111 111.485291 
L 302.10233 127.805512 
L 307.200548 95.16507 
L 312.298767 127.805512 
L 317.396985 111.485291 
L 337.789858 111.485291 
L 342.888077 127.805512 
L 347.986295 111.485291 
L 363.28095 111.485291 
L 368.379169 127.805512 
L 373.477387 111.485291 
L 388.772042 111.485291 
L 393.87026 127.805512 
L 398.968479 95.16507 
L 404.066697 111.485291 
L 409.164915 95.16507 
L 414.263134 127.805512 
L 419.361352 95.16507 
L 424.459571 111.485291 
L 429.557789 95.16507 
L 434.656007 111.485291 
L 439.754226 95.16507 
L 444.852444 127.805512 
L 449.950662 95.16507 
L 455.048881 111.485291 
L 460.147099 95.16507 
L 465.245317 242.047059 
L 470.343536 95.16507 
L 480.539973 95.16507 
L 485.638191 111.485291 
L 490.736409 95.16507 
L 495.834628 111.485291 
L 506.031064 111.485291 
L 511.129283 95.16507 
L 516.227501 111.485291 
L 546.816811 111.485291 
L 551.91503 95.16507 
L 557.013248 111.485291 
L 567.209685 111.485291 
L 572.307903 95.16507 
L 577.406122 111.485291 
L 582.50434 95.16507 
L 587.602558 111.485291 
L 592.700777 111.485291 
L 597.798995 95.16507 
L 602.897213 111.485291 
L 607.995432 95.16507 
L 613.09365 111.485291 
L 628.388305 111.485291 
L 633.486524 95.16507 
L 638.584742 127.805512 
L 643.68296 95.16507 
L 653.879397 95.16507 
L 658.977615 111.485291 
L 664.075834 111.485291 
L 669.174052 95.16507 
L 674.27227 95.16507 
L 679.370489 111.485291 
L 684.468707 111.485291 
L 689.566926 144.125733 
L 694.665144 127.805512 
L 704.861581 127.805512 
L 709.959799 111.485291 
L 715.058017 144.125733 
L 725.254454 111.485291 
L 735.450891 144.125733 
L 740.549109 111.485291 
L 755.843764 111.485291 
L 760.941983 127.805512 
L 766.040201 111.485291 
L 771.138419 127.805512 
L 776.236638 111.485291 
L 781.334856 111.485291 
L 786.433074 144.125733 
L 791.531293 111.485291 
L 801.72773 111.485291 
L 806.825948 127.805512 
L 811.924166 127.805512 
L 817.022385 111.485291 
L 832.31704 111.485291 
L 837.415258 127.805512 
L 842.513476 95.16507 
L 847.611695 111.485291 
L 857.808132 111.485291 
L 862.90635 127.805512 
L 868.004568 111.485291 
L 878.201005 111.485291 
L 883.299223 127.805512 
L 888.397442 111.485291 
L 898.593878 111.485291 
L 903.692097 95.16507 
L 913.888534 127.805512 
L 924.08497 95.16507 
L 929.183189 111.485291 
L 939.379625 111.485291 
L 944.477844 95.16507 
L 949.576062 111.485291 
L 954.67428 111.485291 
L 959.772499 95.16507 
L 964.870717 111.485291 
L 969.968936 111.485291 
L 975.067154 95.16507 
L 980.165372 127.805512 
L 985.263591 95.16507 
L 990.361809 111.485291 
L 995.460027 95.16507 
L 1000.558246 111.485291 
L 1010.754683 111.485291 
L 1015.852901 95.16507 
L 1020.951119 95.16507 
L 1026.049338 111.485291 
L 1031.147556 111.485291 
L 1036.245774 193.086396 
L 1041.343993 111.485291 
L 1046.442211 95.16507 
L 1051.540429 111.485291 
L 1056.638648 95.16507 
L 1061.736866 111.485291 
L 1066.835085 95.16507 
L 1071.933303 111.485291 
L 1077.031521 95.16507 
L 1082.12974 95.16507 
L 1087.227958 111.485291 
L 1092.326176 95.16507 
L 1097.424395 111.485291 
L 1102.522613 95.16507 
L 1107.620831 95.16507 
L 1112.71905 111.485291 
L 1117.817268 111.485291 
L 1122.915487 95.16507 
L 1128.013705 111.485291 
L 1133.111923 95.16507 
L 1138.210142 95.16507 
L 1143.30836 111.485291 
L 1148.406578 111.485291 
L 1153.504797 95.16507 
L 1158.603015 111.485291 
L 1163.701233 95.16507 
L 1168.799452 111.485291 
L 1173.89767 111.485291 
L 1178.995889 95.16507 
L 1184.094107 111.485291 
L 1189.192325 111.485291 
L 1194.290544 95.16507 
L 1199.388762 127.805512 
L 1204.48698 111.485291 
L 1219.781635 111.485291 
L 1224.879854 127.805512 
L 1229.978072 111.485291 
L 1245.272727 111.485291 
L 1245.272727 111.485291 
" style="fill:none;stroke:#ff0000;stroke-linecap:square;stroke-width:1.5;"/>
   </g>
   <g id="patch_3">
    <path d="M 180 249.458824 
L 180 86.4 
" style="fill:none;stroke:#000000;stroke-linecap:square;stroke-linejoin:miter;stroke-width:0.8;"/>
   </g>
   <g id="patch_4">
    <path d="M 1296 249.458824 
L 1296 86.4 
" style="fill:none;stroke:#000000;stroke-linecap:square;stroke-linejoin:miter;stroke-width:0.8;"/>
   </g>
   <g id="patch_5">
    <path d="M 180 249.458824 
L 1296 249.458824 
" style="fill:none;stroke:#000000;stroke-linecap:square;stroke-linejoin:miter;stroke-width:0.8;"/>
   </g>
   <g id="patch_6">
    <path d="M 180 86.4 
L 1296 86.4 
" style="fill:none;stroke:#000000;stroke-linecap:square;stroke-linejoin:miter;stroke-width:0.8;"/>
   </g>
   <g id="legend_1">
    <g id="patch_7">
     <path d="M 1234.3125 123.75625 
L 1289 123.75625 
Q 1291 123.75625 1291 121.75625 
L 1291 93.4 
Q 1291 91.4 1289 91.4 
L 1234.3125 91.4 
Q 1232.3125 91.4 1232.3125 93.4 
L 1232.3125 121.75625 
Q 1232.3125 123.75625 1234.3125 123.75625 
z
" style="fill:#ffffff;opacity:0.8;stroke:#cccccc;stroke-linejoin:miter;"/>
    </g>
    <g id="line2d_19">
     <path d="M 1236.3125 99.498438 
L 1256.3125 99.498438 
" style="fill:none;stroke:#000000;stroke-linecap:square;stroke-width:4;"/>
    </g>
    <g id="line2d_20"/>
    <g id="text_18">
     <!-- Pred -->
     <defs>
      <path d="M 19.671875 64.796875 
L 19.671875 37.40625 
L 32.078125 37.40625 
Q 38.96875 37.40625 42.71875 40.96875 
Q 46.484375 44.53125 46.484375 51.125 
Q 46.484375 57.671875 42.71875 61.234375 
Q 38.96875 64.796875 32.078125 64.796875 
z
M 9.8125 72.90625 
L 32.078125 72.90625 
Q 44.34375 72.90625 50.609375 67.359375 
Q 56.890625 61.8125 56.890625 51.125 
Q 56.890625 40.328125 50.609375 34.8125 
Q 44.34375 29.296875 32.078125 29.296875 
L 19.671875 29.296875 
L 19.671875 0 
L 9.8125 0 
z
" id="DejaVuSans-50"/>
      <path d="M 41.109375 46.296875 
Q 39.59375 47.171875 37.8125 47.578125 
Q 36.03125 48 33.890625 48 
Q 26.265625 48 22.1875 43.046875 
Q 18.109375 38.09375 18.109375 28.8125 
L 18.109375 0 
L 9.078125 0 
L 9.078125 54.6875 
L 18.109375 54.6875 
L 18.109375 46.1875 
Q 20.953125 51.171875 25.484375 53.578125 
Q 30.03125 56 36.53125 56 
Q 37.453125 56 38.578125 55.875 
Q 39.703125 55.765625 41.0625 55.515625 
z
" id="DejaVuSans-72"/>
      <path d="M 45.40625 46.390625 
L 45.40625 75.984375 
L 54.390625 75.984375 
L 54.390625 0 
L 45.40625 0 
L 45.40625 8.203125 
Q 42.578125 3.328125 38.25 0.953125 
Q 33.9375 -1.421875 27.875 -1.421875 
Q 17.96875 -1.421875 11.734375 6.484375 
Q 5.515625 14.40625 5.515625 27.296875 
Q 5.515625 40.1875 11.734375 48.09375 
Q 17.96875 56 27.875 56 
Q 33.9375 56 38.25 53.625 
Q 42.578125 51.265625 45.40625 46.390625 
z
M 14.796875 27.296875 
Q 14.796875 17.390625 18.875 11.75 
Q 22.953125 6.109375 30.078125 6.109375 
Q 37.203125 6.109375 41.296875 11.75 
Q 45.40625 17.390625 45.40625 27.296875 
Q 45.40625 37.203125 41.296875 42.84375 
Q 37.203125 48.484375 30.078125 48.484375 
Q 22.953125 48.484375 18.875 42.84375 
Q 14.796875 37.203125 14.796875 27.296875 
z
" id="DejaVuSans-64"/>
     </defs>
     <g transform="translate(1264.3125 102.998438)scale(0.1 -0.1)">
      <use xlink:href="#DejaVuSans-50"/>
      <use x="60.287109" xlink:href="#DejaVuSans-72"/>
      <use x="101.369141" xlink:href="#DejaVuSans-65"/>
      <use x="162.892578" xlink:href="#DejaVuSans-64"/>
     </g>
    </g>
    <g id="line2d_21">
     <path d="M 1236.3125 114.176563 
L 1256.3125 114.176563 
" style="fill:none;stroke:#ff0000;stroke-linecap:square;stroke-width:1.5;"/>
    </g>
    <g id="line2d_22"/>
    <g id="text_19">
     <!-- True -->
     <defs>
      <path d="M 8.5 21.578125 
L 8.5 54.6875 
L 17.484375 54.6875 
L 17.484375 21.921875 
Q 17.484375 14.15625 20.5 10.265625 
Q 23.53125 6.390625 29.59375 6.390625 
Q 36.859375 6.390625 41.078125 11.03125 
Q 45.3125 15.671875 45.3125 23.6875 
L 45.3125 54.6875 
L 54.296875 54.6875 
L 54.296875 0 
L 45.3125 0 
L 45.3125 8.40625 
Q 42.046875 3.421875 37.71875 1 
Q 33.40625 -1.421875 27.6875 -1.421875 
Q 18.265625 -1.421875 13.375 4.4375 
Q 8.5 10.296875 8.5 21.578125 
z
M 31.109375 56 
z
" id="DejaVuSans-75"/>
     </defs>
     <g transform="translate(1264.3125 117.676563)scale(0.1 -0.1)">
      <use xlink:href="#DejaVuSans-54"/>
      <use x="60.865234" xlink:href="#DejaVuSans-72"/>
      <use x="101.978516" xlink:href="#DejaVuSans-75"/>
      <use x="165.357422" xlink:href="#DejaVuSans-65"/>
     </g>
    </g>
   </g>
  </g>
  <g id="axes_2">
   <g id="patch_8">
    <path d="M 180 445.129412 
L 1296 445.129412 
L 1296 282.070588 
L 180 282.070588 
z
" style="fill:#ffffff;"/>
   </g>
   <g id="matplotlib.axis_3">
    <g id="xtick_10">
     <g id="line2d_23">
      <g>
       <use style="stroke:#000000;stroke-width:0.8;" x="225.629054" xlink:href="#mb26557f087" y="445.129412"/>
      </g>
     </g>
     <g id="text_20">
      <!-- 0 -->
      <g transform="translate(222.447804 459.727849)scale(0.1 -0.1)">
       <use xlink:href="#DejaVuSans-30"/>
      </g>
     </g>
    </g>
    <g id="xtick_11">
     <g id="line2d_24">
      <g>
       <use style="stroke:#000000;stroke-width:0.8;" x="353.084513" xlink:href="#mb26557f087" y="445.129412"/>
      </g>
     </g>
     <g id="text_21">
      <!-- 500 -->
      <g transform="translate(343.540763 459.727849)scale(0.1 -0.1)">
       <use xlink:href="#DejaVuSans-35"/>
       <use x="63.623047" xlink:href="#DejaVuSans-30"/>
       <use x="127.246094" xlink:href="#DejaVuSans-30"/>
      </g>
     </g>
    </g>
    <g id="xtick_12">
     <g id="line2d_25">
      <g>
       <use style="stroke:#000000;stroke-width:0.8;" x="480.539973" xlink:href="#mb26557f087" y="445.129412"/>
      </g>
     </g>
     <g id="text_22">
      <!-- 1000 -->
      <g transform="translate(467.814973 459.727849)scale(0.1 -0.1)">
       <use xlink:href="#DejaVuSans-31"/>
       <use x="63.623047" xlink:href="#DejaVuSans-30"/>
       <use x="127.246094" xlink:href="#DejaVuSans-30"/>
       <use x="190.869141" xlink:href="#DejaVuSans-30"/>
      </g>
     </g>
    </g>
    <g id="xtick_13">
     <g id="line2d_26">
      <g>
       <use style="stroke:#000000;stroke-width:0.8;" x="607.995432" xlink:href="#mb26557f087" y="445.129412"/>
      </g>
     </g>
     <g id="text_23">
      <!-- 1500 -->
      <g transform="translate(595.270432 459.727849)scale(0.1 -0.1)">
       <use xlink:href="#DejaVuSans-31"/>
       <use x="63.623047" xlink:href="#DejaVuSans-35"/>
       <use x="127.246094" xlink:href="#DejaVuSans-30"/>
       <use x="190.869141" xlink:href="#DejaVuSans-30"/>
      </g>
     </g>
    </g>
    <g id="xtick_14">
     <g id="line2d_27">
      <g>
       <use style="stroke:#000000;stroke-width:0.8;" x="735.450891" xlink:href="#mb26557f087" y="445.129412"/>
      </g>
     </g>
     <g id="text_24">
      <!-- 2000 -->
      <g transform="translate(722.725891 459.727849)scale(0.1 -0.1)">
       <use xlink:href="#DejaVuSans-32"/>
       <use x="63.623047" xlink:href="#DejaVuSans-30"/>
       <use x="127.246094" xlink:href="#DejaVuSans-30"/>
       <use x="190.869141" xlink:href="#DejaVuSans-30"/>
      </g>
     </g>
    </g>
    <g id="xtick_15">
     <g id="line2d_28">
      <g>
       <use style="stroke:#000000;stroke-width:0.8;" x="862.90635" xlink:href="#mb26557f087" y="445.129412"/>
      </g>
     </g>
     <g id="text_25">
      <!-- 2500 -->
      <g transform="translate(850.18135 459.727849)scale(0.1 -0.1)">
       <use xlink:href="#DejaVuSans-32"/>
       <use x="63.623047" xlink:href="#DejaVuSans-35"/>
       <use x="127.246094" xlink:href="#DejaVuSans-30"/>
       <use x="190.869141" xlink:href="#DejaVuSans-30"/>
      </g>
     </g>
    </g>
    <g id="xtick_16">
     <g id="line2d_29">
      <g>
       <use style="stroke:#000000;stroke-width:0.8;" x="990.361809" xlink:href="#mb26557f087" y="445.129412"/>
      </g>
     </g>
     <g id="text_26">
      <!-- 3000 -->
      <g transform="translate(977.636809 459.727849)scale(0.1 -0.1)">
       <use xlink:href="#DejaVuSans-33"/>
       <use x="63.623047" xlink:href="#DejaVuSans-30"/>
       <use x="127.246094" xlink:href="#DejaVuSans-30"/>
       <use x="190.869141" xlink:href="#DejaVuSans-30"/>
      </g>
     </g>
    </g>
    <g id="xtick_17">
     <g id="line2d_30">
      <g>
       <use style="stroke:#000000;stroke-width:0.8;" x="1117.817268" xlink:href="#mb26557f087" y="445.129412"/>
      </g>
     </g>
     <g id="text_27">
      <!-- 3500 -->
      <g transform="translate(1105.092268 459.727849)scale(0.1 -0.1)">
       <use xlink:href="#DejaVuSans-33"/>
       <use x="63.623047" xlink:href="#DejaVuSans-35"/>
       <use x="127.246094" xlink:href="#DejaVuSans-30"/>
       <use x="190.869141" xlink:href="#DejaVuSans-30"/>
      </g>
     </g>
    </g>
    <g id="xtick_18">
     <g id="line2d_31">
      <g>
       <use style="stroke:#000000;stroke-width:0.8;" x="1245.272727" xlink:href="#mb26557f087" y="445.129412"/>
      </g>
     </g>
     <g id="text_28">
      <!-- 4000 -->
      <g transform="translate(1232.547727 459.727849)scale(0.1 -0.1)">
       <use xlink:href="#DejaVuSans-34"/>
       <use x="63.623047" xlink:href="#DejaVuSans-30"/>
       <use x="127.246094" xlink:href="#DejaVuSans-30"/>
       <use x="190.869141" xlink:href="#DejaVuSans-30"/>
      </g>
     </g>
    </g>
   </g>
   <g id="matplotlib.axis_4">
    <g id="ytick_8">
     <g id="line2d_32">
      <g>
       <use style="stroke:#000000;stroke-width:0.8;" x="180" xlink:href="#md45adc8b75" y="438.400942"/>
      </g>
     </g>
     <g id="text_29">
      <!-- −0.20 -->
      <g transform="translate(142.354688 442.20016)scale(0.1 -0.1)">
       <use xlink:href="#DejaVuSans-2212"/>
       <use x="83.789062" xlink:href="#DejaVuSans-30"/>
       <use x="147.412109" xlink:href="#DejaVuSans-2e"/>
       <use x="179.199219" xlink:href="#DejaVuSans-32"/>
       <use x="242.822266" xlink:href="#DejaVuSans-30"/>
      </g>
     </g>
    </g>
    <g id="ytick_9">
     <g id="line2d_33">
      <g>
       <use style="stroke:#000000;stroke-width:0.8;" x="180" xlink:href="#md45adc8b75" y="410.565691"/>
      </g>
     </g>
     <g id="text_30">
      <!-- −0.15 -->
      <g transform="translate(142.354688 414.36491)scale(0.1 -0.1)">
       <use xlink:href="#DejaVuSans-2212"/>
       <use x="83.789062" xlink:href="#DejaVuSans-30"/>
       <use x="147.412109" xlink:href="#DejaVuSans-2e"/>
       <use x="179.199219" xlink:href="#DejaVuSans-31"/>
       <use x="242.822266" xlink:href="#DejaVuSans-35"/>
      </g>
     </g>
    </g>
    <g id="ytick_10">
     <g id="line2d_34">
      <g>
       <use style="stroke:#000000;stroke-width:0.8;" x="180" xlink:href="#md45adc8b75" y="382.730441"/>
      </g>
     </g>
     <g id="text_31">
      <!-- −0.10 -->
      <g transform="translate(142.354688 386.52966)scale(0.1 -0.1)">
       <use xlink:href="#DejaVuSans-2212"/>
       <use x="83.789062" xlink:href="#DejaVuSans-30"/>
       <use x="147.412109" xlink:href="#DejaVuSans-2e"/>
       <use x="179.199219" xlink:href="#DejaVuSans-31"/>
       <use x="242.822266" xlink:href="#DejaVuSans-30"/>
      </g>
     </g>
    </g>
    <g id="ytick_11">
     <g id="line2d_35">
      <g>
       <use style="stroke:#000000;stroke-width:0.8;" x="180" xlink:href="#md45adc8b75" y="354.895191"/>
      </g>
     </g>
     <g id="text_32">
      <!-- −0.05 -->
      <g transform="translate(142.354688 358.69441)scale(0.1 -0.1)">
       <use xlink:href="#DejaVuSans-2212"/>
       <use x="83.789062" xlink:href="#DejaVuSans-30"/>
       <use x="147.412109" xlink:href="#DejaVuSans-2e"/>
       <use x="179.199219" xlink:href="#DejaVuSans-30"/>
       <use x="242.822266" xlink:href="#DejaVuSans-35"/>
      </g>
     </g>
    </g>
    <g id="ytick_12">
     <g id="line2d_36">
      <g>
       <use style="stroke:#000000;stroke-width:0.8;" x="180" xlink:href="#md45adc8b75" y="327.059941"/>
      </g>
     </g>
     <g id="text_33">
      <!-- 0.00 -->
      <g transform="translate(150.734375 330.859159)scale(0.1 -0.1)">
       <use xlink:href="#DejaVuSans-30"/>
       <use x="63.623047" xlink:href="#DejaVuSans-2e"/>
       <use x="95.410156" xlink:href="#DejaVuSans-30"/>
       <use x="159.033203" xlink:href="#DejaVuSans-30"/>
      </g>
     </g>
    </g>
    <g id="ytick_13">
     <g id="line2d_37">
      <g>
       <use style="stroke:#000000;stroke-width:0.8;" x="180" xlink:href="#md45adc8b75" y="299.224691"/>
      </g>
     </g>
     <g id="text_34">
      <!-- 0.05 -->
      <g transform="translate(150.734375 303.023909)scale(0.1 -0.1)">
       <use xlink:href="#DejaVuSans-30"/>
       <use x="63.623047" xlink:href="#DejaVuSans-2e"/>
       <use x="95.410156" xlink:href="#DejaVuSans-30"/>
       <use x="159.033203" xlink:href="#DejaVuSans-35"/>
      </g>
     </g>
    </g>
    <g id="text_35">
     <!-- TD State:1 -->
     <g transform="translate(136.275 390.19375)rotate(-90)scale(0.1 -0.1)">
      <use xlink:href="#DejaVuSans-54"/>
      <use x="61.083984" xlink:href="#DejaVuSans-44"/>
      <use x="138.085938" xlink:href="#DejaVuSans-20"/>
      <use x="169.873047" xlink:href="#DejaVuSans-53"/>
      <use x="233.349609" xlink:href="#DejaVuSans-74"/>
      <use x="272.558594" xlink:href="#DejaVuSans-61"/>
      <use x="333.837891" xlink:href="#DejaVuSans-74"/>
      <use x="373.046875" xlink:href="#DejaVuSans-65"/>
      <use x="434.570312" xlink:href="#DejaVuSans-3a"/>
      <use x="468.261719" xlink:href="#DejaVuSans-31"/>
     </g>
    </g>
   </g>
   <g id="line2d_38">
    <path clip-path="url(#pbd174c10c3)" d="M 230.727273 311.896321 
L 235.825491 305.505088 
L 240.923709 374.897936 
L 246.021928 410.080787 
L 251.120146 426.620688 
L 256.218365 435.747819 
L 261.316583 437.717647 
L 266.414801 416.866282 
L 271.51302 380.175823 
L 276.611238 356.299236 
L 281.709456 315.688798 
L 286.807675 316.112601 
L 291.905893 316.169674 
L 297.004111 318.534105 
L 302.10233 321.961827 
L 307.200548 316.294041 
L 312.298767 322.797222 
L 317.396985 318.41956 
L 322.495203 317.790426 
L 327.593422 317.826262 
L 332.69164 317.612967 
L 337.789858 315.908995 
L 342.888077 321.947359 
L 347.986295 317.409892 
L 353.084513 319.51298 
L 358.182732 318.63697 
L 363.28095 321.207927 
L 368.379169 324.871243 
L 373.477387 322.08845 
L 383.673824 319.065684 
L 388.772042 320.983881 
L 393.87026 321.118733 
L 398.968479 315.764984 
L 404.066697 318.604584 
L 409.164915 317.746891 
L 414.263134 323.877635 
L 419.361352 316.955031 
L 424.459571 324.135394 
L 429.557789 318.681301 
L 434.656007 323.255137 
L 439.754226 318.293468 
L 444.852444 326.551324 
L 449.950662 318.910126 
L 455.048881 323.548998 
L 460.147099 322.133843 
L 465.245317 352.7796 
L 470.343536 318.638297 
L 475.441754 320.438896 
L 480.539973 318.585206 
L 485.638191 323.626246 
L 490.736409 320.678605 
L 495.834628 325.307124 
L 500.932846 326.280026 
L 506.031064 324.900708 
L 511.129283 321.331896 
L 516.227501 324.015673 
L 521.32572 326.089428 
L 526.423938 325.216603 
L 531.522156 325.132718 
L 536.620375 323.658898 
L 541.718593 322.872081 
L 546.816811 324.911858 
L 551.91503 321.521433 
L 557.013248 325.184217 
L 562.111466 330.282065 
L 567.209685 328.820987 
L 572.307903 324.158489 
L 577.406122 328.710556 
L 582.50434 323.743313 
L 587.602558 328.8401 
L 592.700777 328.913897 
L 597.798995 324.270512 
L 602.897213 327.933296 
L 607.995432 323.802245 
L 613.09365 329.415081 
L 618.191868 327.563248 
L 623.290087 327.965682 
L 628.388305 329.720888 
L 633.486524 325.548956 
L 638.584742 334.334542 
L 643.68296 326.557164 
L 648.781179 324.934156 
L 653.879397 325.663103 
L 658.977615 329.358273 
L 664.075834 327.832953 
L 669.174052 325.242087 
L 674.27227 324.94212 
L 679.370489 329.117768 
L 684.468707 329.1767 
L 689.566926 335.736158 
L 694.665144 332.938765 
L 699.763362 331.596612 
L 704.861581 330.994554 
L 709.959799 328.77055 
L 715.058017 335.000309 
L 720.156236 331.033841 
L 725.254454 327.397603 
L 730.352672 329.845653 
L 735.450891 334.001658 
L 740.549109 325.744864 
L 745.647328 325.997579 
L 750.745546 326.681929 
L 755.843764 327.145949 
L 760.941983 329.508522 
L 766.040201 325.758137 
L 771.138419 329.249435 
L 776.236638 325.962008 
L 781.334856 326.790236 
L 786.433074 332.727992 
L 791.531293 325.785744 
L 796.629511 324.766387 
L 801.72773 324.277945 
L 806.825948 328.418022 
L 811.924166 327.567496 
L 817.022385 323.957272 
L 822.120603 324.454209 
L 827.218821 323.898871 
L 832.31704 324.253523 
L 837.415258 328.210965 
L 842.513476 320.78346 
L 847.611695 323.624919 
L 852.709913 323.10356 
L 857.808132 323.092942 
L 862.90635 326.637332 
L 868.004568 322.309311 
L 873.102787 321.663718 
L 878.201005 321.830425 
L 883.299223 325.805919 
L 888.397442 322.433545 
L 893.49566 322.824299 
L 898.593878 322.455844 
L 903.692097 319.077099 
L 908.790315 321.620183 
L 913.888534 324.896992 
L 924.08497 318.305148 
L 929.183189 321.158287 
L 934.281407 321.140236 
L 939.379625 320.279091 
L 944.477844 316.267495 
L 949.576062 320.149548 
L 954.67428 320.113445 
L 959.772499 316.269619 
L 964.870717 320.330059 
L 969.968936 319.938243 
L 975.067154 316.486232 
L 980.165372 323.981694 
L 985.263591 315.070812 
L 990.361809 318.195779 
L 995.460027 315.677117 
L 1000.558246 319.461481 
L 1005.656464 319.204518 
L 1010.754683 319.598458 
L 1015.852901 314.331778 
L 1020.951119 314.990113 
L 1026.049338 319.390339 
L 1031.147556 318.565297 
L 1036.245774 337.092116 
L 1041.343993 317.734945 
L 1046.442211 314.61104 
L 1051.540429 317.808211 
L 1056.638648 313.887933 
L 1061.736866 316.420399 
L 1066.835085 313.808296 
L 1071.933303 317.248627 
L 1077.031521 312.746465 
L 1082.12974 312.900431 
L 1087.227958 316.77505 
L 1092.326176 312.027606 
L 1097.424395 316.256877 
L 1102.522613 313.272071 
L 1107.620831 313.086251 
L 1112.71905 316.486232 
L 1117.817268 317.404716 
L 1122.915487 312.654086 
L 1128.013705 316.283423 
L 1133.111923 311.900186 
L 1138.210142 310.967899 
L 1143.30836 314.766067 
L 1148.406578 314.741645 
L 1153.504797 311.41493 
L 1158.603015 315.551821 
L 1163.701233 311.437228 
L 1168.799452 314.674749 
L 1173.89767 315.05807 
L 1178.995889 309.711754 
L 1184.094107 314.109856 
L 1189.192325 314.497424 
L 1194.290544 309.778649 
L 1199.388762 316.562684 
L 1204.48698 311.981947 
L 1209.585199 313.344276 
L 1214.683417 312.980068 
L 1219.781635 313.575755 
L 1224.879854 318.012083 
L 1229.978072 312.891936 
L 1235.076291 313.464263 
L 1240.174509 313.559827 
L 1245.272727 311.529607 
L 1245.272727 311.529607 
" style="fill:none;stroke:#000000;stroke-linecap:square;stroke-width:4;"/>
   </g>
   <g id="line2d_39">
    <path clip-path="url(#pbd174c10c3)" d="M 230.727273 327.059941 
L 291.905893 327.059941 
L 297.004111 331.235228 
L 302.10233 318.709366 
L 307.200548 335.410516 
L 312.298767 322.884653 
L 317.396985 327.059941 
L 332.69164 327.059941 
L 337.789858 331.235228 
L 342.888077 322.884653 
L 347.986295 327.059941 
L 358.182732 327.059941 
L 363.28095 331.235228 
L 368.379169 322.884653 
L 373.477387 327.059941 
L 383.673824 327.059941 
L 388.772042 331.235228 
L 393.87026 318.709366 
L 398.968479 331.235228 
L 404.066697 322.884653 
L 409.164915 335.410516 
L 414.263134 318.709366 
L 419.361352 331.235228 
L 424.459571 322.884653 
L 429.557789 331.235228 
L 434.656007 322.884653 
L 439.754226 335.410516 
L 444.852444 318.709366 
L 449.950662 331.235228 
L 455.048881 322.884653 
L 460.147099 364.637529 
L 465.245317 289.482353 
L 470.343536 327.059941 
L 475.441754 327.059941 
L 480.539973 331.235228 
L 485.638191 322.884653 
L 490.736409 331.235228 
L 495.834628 327.059941 
L 500.932846 327.059941 
L 506.031064 322.884653 
L 511.129283 331.235228 
L 516.227501 327.059941 
L 541.718593 327.059941 
L 546.816811 322.884653 
L 551.91503 331.235228 
L 557.013248 327.059941 
L 562.111466 327.059941 
L 567.209685 322.884653 
L 572.307903 331.235228 
L 577.406122 322.884653 
L 582.50434 331.235228 
L 592.700777 322.884653 
L 597.798995 331.235228 
L 602.897213 322.884653 
L 607.995432 331.235228 
L 613.09365 327.059941 
L 623.290087 327.059941 
L 628.388305 322.884653 
L 633.486524 335.410516 
L 638.584742 318.709366 
L 643.68296 327.059941 
L 648.781179 327.059941 
L 653.879397 331.235228 
L 664.075834 322.884653 
L 674.27227 331.235228 
L 679.370489 327.059941 
L 684.468707 335.410516 
L 689.566926 322.884653 
L 694.665144 327.059941 
L 699.763362 327.059941 
L 704.861581 322.884653 
L 709.959799 335.410516 
L 715.058017 322.884653 
L 720.156236 322.884653 
L 725.254454 331.235228 
L 730.352672 331.235228 
L 735.450891 318.709366 
L 740.549109 327.059941 
L 750.745546 327.059941 
L 755.843764 331.235228 
L 760.941983 322.884653 
L 766.040201 331.235228 
L 771.138419 322.884653 
L 776.236638 327.059941 
L 781.334856 335.410516 
L 786.433074 318.709366 
L 791.531293 327.059941 
L 796.629511 327.059941 
L 801.72773 331.235228 
L 811.924166 322.884653 
L 817.022385 327.059941 
L 827.218821 327.059941 
L 832.31704 331.235228 
L 837.415258 318.709366 
L 842.513476 331.235228 
L 847.611695 327.059941 
L 852.709913 327.059941 
L 857.808132 331.235228 
L 862.90635 322.884653 
L 868.004568 327.059941 
L 873.102787 327.059941 
L 878.201005 331.235228 
L 883.299223 322.884653 
L 888.397442 327.059941 
L 893.49566 327.059941 
L 898.593878 322.884653 
L 903.692097 331.235228 
L 908.790315 331.235228 
L 913.888534 322.884653 
L 918.986752 322.884653 
L 924.08497 331.235228 
L 929.183189 327.059941 
L 934.281407 327.059941 
L 939.379625 322.884653 
L 944.477844 331.235228 
L 954.67428 322.884653 
L 959.772499 331.235228 
L 969.968936 322.884653 
L 975.067154 335.410516 
L 980.165372 318.709366 
L 985.263591 331.235228 
L 990.361809 322.884653 
L 995.460027 331.235228 
L 1000.558246 327.059941 
L 1005.656464 327.059941 
L 1010.754683 322.884653 
L 1020.951119 331.235228 
L 1026.049338 327.059941 
L 1031.147556 347.936378 
L 1036.245774 306.183503 
L 1041.343993 322.884653 
L 1046.442211 331.235228 
L 1051.540429 322.884653 
L 1056.638648 331.235228 
L 1061.736866 322.884653 
L 1066.835085 331.235228 
L 1071.933303 322.884653 
L 1082.12974 331.235228 
L 1087.227958 322.884653 
L 1092.326176 331.235228 
L 1097.424395 322.884653 
L 1107.620831 331.235228 
L 1117.817268 322.884653 
L 1122.915487 331.235228 
L 1128.013705 322.884653 
L 1138.210142 331.235228 
L 1148.406578 322.884653 
L 1153.504797 331.235228 
L 1158.603015 322.884653 
L 1163.701233 331.235228 
L 1173.89767 322.884653 
L 1178.995889 331.235228 
L 1189.192325 322.884653 
L 1194.290544 335.410516 
L 1199.388762 322.884653 
L 1204.48698 327.059941 
L 1214.683417 327.059941 
L 1219.781635 331.235228 
L 1224.879854 322.884653 
L 1229.978072 327.059941 
L 1240.174509 327.059941 
L 1245.272727 331.235228 
L 1245.272727 331.235228 
" style="fill:none;stroke:#ff0000;stroke-linecap:square;stroke-width:1.5;"/>
   </g>
   <g id="patch_9">
    <path d="M 180 445.129412 
L 180 282.070588 
" style="fill:none;stroke:#000000;stroke-linecap:square;stroke-linejoin:miter;stroke-width:0.8;"/>
   </g>
   <g id="patch_10">
    <path d="M 1296 445.129412 
L 1296 282.070588 
" style="fill:none;stroke:#000000;stroke-linecap:square;stroke-linejoin:miter;stroke-width:0.8;"/>
   </g>
   <g id="patch_11">
    <path d="M 180 445.129412 
L 1296 445.129412 
" style="fill:none;stroke:#000000;stroke-linecap:square;stroke-linejoin:miter;stroke-width:0.8;"/>
   </g>
   <g id="patch_12">
    <path d="M 180 282.070588 
L 1296 282.070588 
" style="fill:none;stroke:#000000;stroke-linecap:square;stroke-linejoin:miter;stroke-width:0.8;"/>
   </g>
   <g id="legend_2">
    <g id="patch_13">
     <path d="M 1234.3125 319.426838 
L 1289 319.426838 
Q 1291 319.426838 1291 317.426838 
L 1291 289.070588 
Q 1291 287.070588 1289 287.070588 
L 1234.3125 287.070588 
Q 1232.3125 287.070588 1232.3125 289.070588 
L 1232.3125 317.426838 
Q 1232.3125 319.426838 1234.3125 319.426838 
z
" style="fill:#ffffff;opacity:0.8;stroke:#cccccc;stroke-linejoin:miter;"/>
    </g>
    <g id="line2d_40">
     <path d="M 1236.3125 295.169026 
L 1256.3125 295.169026 
" style="fill:none;stroke:#000000;stroke-linecap:square;stroke-width:4;"/>
    </g>
    <g id="line2d_41"/>
    <g id="text_36">
     <!-- Pred -->
     <g transform="translate(1264.3125 298.669026)scale(0.1 -0.1)">
      <use xlink:href="#DejaVuSans-50"/>
      <use x="60.287109" xlink:href="#DejaVuSans-72"/>
      <use x="101.369141" xlink:href="#DejaVuSans-65"/>
      <use x="162.892578" xlink:href="#DejaVuSans-64"/>
     </g>
    </g>
    <g id="line2d_42">
     <path d="M 1236.3125 309.847151 
L 1256.3125 309.847151 
" style="fill:none;stroke:#ff0000;stroke-linecap:square;stroke-width:1.5;"/>
    </g>
    <g id="line2d_43"/>
    <g id="text_37">
     <!-- True -->
     <g transform="translate(1264.3125 313.347151)scale(0.1 -0.1)">
      <use xlink:href="#DejaVuSans-54"/>
      <use x="60.865234" xlink:href="#DejaVuSans-72"/>
      <use x="101.978516" xlink:href="#DejaVuSans-75"/>
      <use x="165.357422" xlink:href="#DejaVuSans-65"/>
     </g>
    </g>
   </g>
  </g>
  <g id="axes_3">
   <g id="patch_14">
    <path d="M 180 640.8 
L 1296 640.8 
L 1296 477.741176 
L 180 477.741176 
z
" style="fill:#ffffff;"/>
   </g>
   <g id="matplotlib.axis_5">
    <g id="xtick_19">
     <g id="line2d_44">
      <g>
       <use style="stroke:#000000;stroke-width:0.8;" x="225.629054" xlink:href="#mb26557f087" y="640.8"/>
      </g>
     </g>
     <g id="text_38">
      <!-- 0 -->
      <g transform="translate(222.447804 655.398438)scale(0.1 -0.1)">
       <use xlink:href="#DejaVuSans-30"/>
      </g>
     </g>
    </g>
    <g id="xtick_20">
     <g id="line2d_45">
      <g>
       <use style="stroke:#000000;stroke-width:0.8;" x="353.084513" xlink:href="#mb26557f087" y="640.8"/>
      </g>
     </g>
     <g id="text_39">
      <!-- 500 -->
      <g transform="translate(343.540763 655.398438)scale(0.1 -0.1)">
       <use xlink:href="#DejaVuSans-35"/>
       <use x="63.623047" xlink:href="#DejaVuSans-30"/>
       <use x="127.246094" xlink:href="#DejaVuSans-30"/>
      </g>
     </g>
    </g>
    <g id="xtick_21">
     <g id="line2d_46">
      <g>
       <use style="stroke:#000000;stroke-width:0.8;" x="480.539973" xlink:href="#mb26557f087" y="640.8"/>
      </g>
     </g>
     <g id="text_40">
      <!-- 1000 -->
      <g transform="translate(467.814973 655.398438)scale(0.1 -0.1)">
       <use xlink:href="#DejaVuSans-31"/>
       <use x="63.623047" xlink:href="#DejaVuSans-30"/>
       <use x="127.246094" xlink:href="#DejaVuSans-30"/>
       <use x="190.869141" xlink:href="#DejaVuSans-30"/>
      </g>
     </g>
    </g>
    <g id="xtick_22">
     <g id="line2d_47">
      <g>
       <use style="stroke:#000000;stroke-width:0.8;" x="607.995432" xlink:href="#mb26557f087" y="640.8"/>
      </g>
     </g>
     <g id="text_41">
      <!-- 1500 -->
      <g transform="translate(595.270432 655.398438)scale(0.1 -0.1)">
       <use xlink:href="#DejaVuSans-31"/>
       <use x="63.623047" xlink:href="#DejaVuSans-35"/>
       <use x="127.246094" xlink:href="#DejaVuSans-30"/>
       <use x="190.869141" xlink:href="#DejaVuSans-30"/>
      </g>
     </g>
    </g>
    <g id="xtick_23">
     <g id="line2d_48">
      <g>
       <use style="stroke:#000000;stroke-width:0.8;" x="735.450891" xlink:href="#mb26557f087" y="640.8"/>
      </g>
     </g>
     <g id="text_42">
      <!-- 2000 -->
      <g transform="translate(722.725891 655.398438)scale(0.1 -0.1)">
       <use xlink:href="#DejaVuSans-32"/>
       <use x="63.623047" xlink:href="#DejaVuSans-30"/>
       <use x="127.246094" xlink:href="#DejaVuSans-30"/>
       <use x="190.869141" xlink:href="#DejaVuSans-30"/>
      </g>
     </g>
    </g>
    <g id="xtick_24">
     <g id="line2d_49">
      <g>
       <use style="stroke:#000000;stroke-width:0.8;" x="862.90635" xlink:href="#mb26557f087" y="640.8"/>
      </g>
     </g>
     <g id="text_43">
      <!-- 2500 -->
      <g transform="translate(850.18135 655.398438)scale(0.1 -0.1)">
       <use xlink:href="#DejaVuSans-32"/>
       <use x="63.623047" xlink:href="#DejaVuSans-35"/>
       <use x="127.246094" xlink:href="#DejaVuSans-30"/>
       <use x="190.869141" xlink:href="#DejaVuSans-30"/>
      </g>
     </g>
    </g>
    <g id="xtick_25">
     <g id="line2d_50">
      <g>
       <use style="stroke:#000000;stroke-width:0.8;" x="990.361809" xlink:href="#mb26557f087" y="640.8"/>
      </g>
     </g>
     <g id="text_44">
      <!-- 3000 -->
      <g transform="translate(977.636809 655.398438)scale(0.1 -0.1)">
       <use xlink:href="#DejaVuSans-33"/>
       <use x="63.623047" xlink:href="#DejaVuSans-30"/>
       <use x="127.246094" xlink:href="#DejaVuSans-30"/>
       <use x="190.869141" xlink:href="#DejaVuSans-30"/>
      </g>
     </g>
    </g>
    <g id="xtick_26">
     <g id="line2d_51">
      <g>
       <use style="stroke:#000000;stroke-width:0.8;" x="1117.817268" xlink:href="#mb26557f087" y="640.8"/>
      </g>
     </g>
     <g id="text_45">
      <!-- 3500 -->
      <g transform="translate(1105.092268 655.398438)scale(0.1 -0.1)">
       <use xlink:href="#DejaVuSans-33"/>
       <use x="63.623047" xlink:href="#DejaVuSans-35"/>
       <use x="127.246094" xlink:href="#DejaVuSans-30"/>
       <use x="190.869141" xlink:href="#DejaVuSans-30"/>
      </g>
     </g>
    </g>
    <g id="xtick_27">
     <g id="line2d_52">
      <g>
       <use style="stroke:#000000;stroke-width:0.8;" x="1245.272727" xlink:href="#mb26557f087" y="640.8"/>
      </g>
     </g>
     <g id="text_46">
      <!-- 4000 -->
      <g transform="translate(1232.547727 655.398438)scale(0.1 -0.1)">
       <use xlink:href="#DejaVuSans-34"/>
       <use x="63.623047" xlink:href="#DejaVuSans-30"/>
       <use x="127.246094" xlink:href="#DejaVuSans-30"/>
       <use x="190.869141" xlink:href="#DejaVuSans-30"/>
      </g>
     </g>
    </g>
    <g id="text_47">
     <!-- Time -->
     <defs>
      <path d="M 9.421875 54.6875 
L 18.40625 54.6875 
L 18.40625 0 
L 9.421875 0 
z
M 9.421875 75.984375 
L 18.40625 75.984375 
L 18.40625 64.59375 
L 9.421875 64.59375 
z
" id="DejaVuSans-69"/>
      <path d="M 52 44.1875 
Q 55.375 50.25 60.0625 53.125 
Q 64.75 56 71.09375 56 
Q 79.640625 56 84.28125 50.015625 
Q 88.921875 44.046875 88.921875 33.015625 
L 88.921875 0 
L 79.890625 0 
L 79.890625 32.71875 
Q 79.890625 40.578125 77.09375 44.375 
Q 74.3125 48.1875 68.609375 48.1875 
Q 61.625 48.1875 57.5625 43.546875 
Q 53.515625 38.921875 53.515625 30.90625 
L 53.515625 0 
L 44.484375 0 
L 44.484375 32.71875 
Q 44.484375 40.625 41.703125 44.40625 
Q 38.921875 48.1875 33.109375 48.1875 
Q 26.21875 48.1875 22.15625 43.53125 
Q 18.109375 38.875 18.109375 30.90625 
L 18.109375 0 
L 9.078125 0 
L 9.078125 54.6875 
L 18.109375 54.6875 
L 18.109375 46.1875 
Q 21.1875 51.21875 25.484375 53.609375 
Q 29.78125 56 35.6875 56 
Q 41.65625 56 45.828125 52.96875 
Q 50 49.953125 52 44.1875 
z
" id="DejaVuSans-6d"/>
     </defs>
     <g transform="translate(725.6125 669.076563)scale(0.1 -0.1)">
      <use xlink:href="#DejaVuSans-54"/>
      <use x="61.037109" xlink:href="#DejaVuSans-69"/>
      <use x="88.820312" xlink:href="#DejaVuSans-6d"/>
      <use x="186.232422" xlink:href="#DejaVuSans-65"/>
     </g>
    </g>
   </g>
   <g id="matplotlib.axis_6">
    <g id="ytick_14">
     <g id="line2d_53">
      <g>
       <use style="stroke:#000000;stroke-width:0.8;" x="180" xlink:href="#md45adc8b75" y="634.313444"/>
      </g>
     </g>
     <g id="text_48">
      <!-- 2.3 -->
      <g transform="translate(157.096875 638.112663)scale(0.1 -0.1)">
       <use xlink:href="#DejaVuSans-32"/>
       <use x="63.623047" xlink:href="#DejaVuSans-2e"/>
       <use x="95.410156" xlink:href="#DejaVuSans-33"/>
      </g>
     </g>
    </g>
    <g id="ytick_15">
     <g id="line2d_54">
      <g>
       <use style="stroke:#000000;stroke-width:0.8;" x="180" xlink:href="#md45adc8b75" y="606.679387"/>
      </g>
     </g>
     <g id="text_49">
      <!-- 2.4 -->
      <g transform="translate(157.096875 610.478606)scale(0.1 -0.1)">
       <use xlink:href="#DejaVuSans-32"/>
       <use x="63.623047" xlink:href="#DejaVuSans-2e"/>
       <use x="95.410156" xlink:href="#DejaVuSans-34"/>
      </g>
     </g>
    </g>
    <g id="ytick_16">
     <g id="line2d_55">
      <g>
       <use style="stroke:#000000;stroke-width:0.8;" x="180" xlink:href="#md45adc8b75" y="579.04533"/>
      </g>
     </g>
     <g id="text_50">
      <!-- 2.5 -->
      <g transform="translate(157.096875 582.844548)scale(0.1 -0.1)">
       <use xlink:href="#DejaVuSans-32"/>
       <use x="63.623047" xlink:href="#DejaVuSans-2e"/>
       <use x="95.410156" xlink:href="#DejaVuSans-35"/>
      </g>
     </g>
    </g>
    <g id="ytick_17">
     <g id="line2d_56">
      <g>
       <use style="stroke:#000000;stroke-width:0.8;" x="180" xlink:href="#md45adc8b75" y="551.411272"/>
      </g>
     </g>
     <g id="text_51">
      <!-- 2.6 -->
      <g transform="translate(157.096875 555.210491)scale(0.1 -0.1)">
       <use xlink:href="#DejaVuSans-32"/>
       <use x="63.623047" xlink:href="#DejaVuSans-2e"/>
       <use x="95.410156" xlink:href="#DejaVuSans-36"/>
      </g>
     </g>
    </g>
    <g id="ytick_18">
     <g id="line2d_57">
      <g>
       <use style="stroke:#000000;stroke-width:0.8;" x="180" xlink:href="#md45adc8b75" y="523.777215"/>
      </g>
     </g>
     <g id="text_52">
      <!-- 2.7 -->
      <defs>
       <path d="M 8.203125 72.90625 
L 55.078125 72.90625 
L 55.078125 68.703125 
L 28.609375 0 
L 18.3125 0 
L 43.21875 64.59375 
L 8.203125 64.59375 
z
" id="DejaVuSans-37"/>
      </defs>
      <g transform="translate(157.096875 527.576434)scale(0.1 -0.1)">
       <use xlink:href="#DejaVuSans-32"/>
       <use x="63.623047" xlink:href="#DejaVuSans-2e"/>
       <use x="95.410156" xlink:href="#DejaVuSans-37"/>
      </g>
     </g>
    </g>
    <g id="ytick_19">
     <g id="line2d_58">
      <g>
       <use style="stroke:#000000;stroke-width:0.8;" x="180" xlink:href="#md45adc8b75" y="496.143158"/>
      </g>
     </g>
     <g id="text_53">
      <!-- 2.8 -->
      <g transform="translate(157.096875 499.942377)scale(0.1 -0.1)">
       <use xlink:href="#DejaVuSans-32"/>
       <use x="63.623047" xlink:href="#DejaVuSans-2e"/>
       <use x="95.410156" xlink:href="#DejaVuSans-38"/>
      </g>
     </g>
    </g>
    <g id="text_54">
     <!-- Control Input -->
     <defs>
      <path d="M 64.40625 67.28125 
L 64.40625 56.890625 
Q 59.421875 61.53125 53.78125 63.8125 
Q 48.140625 66.109375 41.796875 66.109375 
Q 29.296875 66.109375 22.65625 58.46875 
Q 16.015625 50.828125 16.015625 36.375 
Q 16.015625 21.96875 22.65625 14.328125 
Q 29.296875 6.6875 41.796875 6.6875 
Q 48.140625 6.6875 53.78125 8.984375 
Q 59.421875 11.28125 64.40625 15.921875 
L 64.40625 5.609375 
Q 59.234375 2.09375 53.4375 0.328125 
Q 47.65625 -1.421875 41.21875 -1.421875 
Q 24.65625 -1.421875 15.125 8.703125 
Q 5.609375 18.84375 5.609375 36.375 
Q 5.609375 53.953125 15.125 64.078125 
Q 24.65625 74.21875 41.21875 74.21875 
Q 47.75 74.21875 53.53125 72.484375 
Q 59.328125 70.75 64.40625 67.28125 
z
" id="DejaVuSans-43"/>
      <path d="M 30.609375 48.390625 
Q 23.390625 48.390625 19.1875 42.75 
Q 14.984375 37.109375 14.984375 27.296875 
Q 14.984375 17.484375 19.15625 11.84375 
Q 23.34375 6.203125 30.609375 6.203125 
Q 37.796875 6.203125 41.984375 11.859375 
Q 46.1875 17.53125 46.1875 27.296875 
Q 46.1875 37.015625 41.984375 42.703125 
Q 37.796875 48.390625 30.609375 48.390625 
z
M 30.609375 56 
Q 42.328125 56 49.015625 48.375 
Q 55.71875 40.765625 55.71875 27.296875 
Q 55.71875 13.875 49.015625 6.21875 
Q 42.328125 -1.421875 30.609375 -1.421875 
Q 18.84375 -1.421875 12.171875 6.21875 
Q 5.515625 13.875 5.515625 27.296875 
Q 5.515625 40.765625 12.171875 48.375 
Q 18.84375 56 30.609375 56 
z
" id="DejaVuSans-6f"/>
      <path d="M 54.890625 33.015625 
L 54.890625 0 
L 45.90625 0 
L 45.90625 32.71875 
Q 45.90625 40.484375 42.875 44.328125 
Q 39.84375 48.1875 33.796875 48.1875 
Q 26.515625 48.1875 22.3125 43.546875 
Q 18.109375 38.921875 18.109375 30.90625 
L 18.109375 0 
L 9.078125 0 
L 9.078125 54.6875 
L 18.109375 54.6875 
L 18.109375 46.1875 
Q 21.34375 51.125 25.703125 53.5625 
Q 30.078125 56 35.796875 56 
Q 45.21875 56 50.046875 50.171875 
Q 54.890625 44.34375 54.890625 33.015625 
z
" id="DejaVuSans-6e"/>
      <path d="M 9.421875 75.984375 
L 18.40625 75.984375 
L 18.40625 0 
L 9.421875 0 
z
" id="DejaVuSans-6c"/>
      <path d="M 9.8125 72.90625 
L 19.671875 72.90625 
L 19.671875 0 
L 9.8125 0 
z
" id="DejaVuSans-49"/>
      <path d="M 18.109375 8.203125 
L 18.109375 -20.796875 
L 9.078125 -20.796875 
L 9.078125 54.6875 
L 18.109375 54.6875 
L 18.109375 46.390625 
Q 20.953125 51.265625 25.265625 53.625 
Q 29.59375 56 35.59375 56 
Q 45.5625 56 51.78125 48.09375 
Q 58.015625 40.1875 58.015625 27.296875 
Q 58.015625 14.40625 51.78125 6.484375 
Q 45.5625 -1.421875 35.59375 -1.421875 
Q 29.59375 -1.421875 25.265625 0.953125 
Q 20.953125 3.328125 18.109375 8.203125 
z
M 48.6875 27.296875 
Q 48.6875 37.203125 44.609375 42.84375 
Q 40.53125 48.484375 33.40625 48.484375 
Q 26.265625 48.484375 22.1875 42.84375 
Q 18.109375 37.203125 18.109375 27.296875 
Q 18.109375 17.390625 22.1875 11.75 
Q 26.265625 6.109375 33.40625 6.109375 
Q 40.53125 6.109375 44.609375 11.75 
Q 48.6875 17.390625 48.6875 27.296875 
z
" id="DejaVuSans-70"/>
     </defs>
     <g transform="translate(151.017188 591.988557)rotate(-90)scale(0.1 -0.1)">
      <use xlink:href="#DejaVuSans-43"/>
      <use x="69.824219" xlink:href="#DejaVuSans-6f"/>
      <use x="131.005859" xlink:href="#DejaVuSans-6e"/>
      <use x="194.384766" xlink:href="#DejaVuSans-74"/>
      <use x="233.59375" xlink:href="#DejaVuSans-72"/>
      <use x="274.675781" xlink:href="#DejaVuSans-6f"/>
      <use x="335.857422" xlink:href="#DejaVuSans-6c"/>
      <use x="363.640625" xlink:href="#DejaVuSans-20"/>
      <use x="395.427734" xlink:href="#DejaVuSans-49"/>
      <use x="424.919922" xlink:href="#DejaVuSans-6e"/>
      <use x="488.298828" xlink:href="#DejaVuSans-70"/>
      <use x="551.775391" xlink:href="#DejaVuSans-75"/>
      <use x="615.154297" xlink:href="#DejaVuSans-74"/>
     </g>
    </g>
   </g>
   <g id="line2d_59">
    <path clip-path="url(#p17967c34c8)" d="M 230.727273 506.026105 
L 235.825491 540.165945 
L 240.923709 542.445886 
L 246.021928 499.958102 
L 251.120146 529.709736 
L 256.218365 516.160343 
L 261.316583 552.822523 
L 266.414801 513.973363 
L 271.51302 516.163666 
L 276.611238 485.152941 
L 281.709456 522.826113 
L 286.807675 527.242222 
L 291.905893 525.589139 
L 297.004111 562.124174 
L 302.10233 556.703422 
L 307.200548 578.99221 
L 312.298767 565.331259 
L 317.396985 549.425458 
L 322.495203 536.415237 
L 327.593422 534.419167 
L 332.69164 528.294437 
L 337.789858 497.507451 
L 342.888077 535.278979 
L 347.986295 516.720499 
L 353.084513 548.924186 
L 358.182732 531.839258 
L 363.28095 571.780909 
L 368.379169 570.256297 
L 373.477387 580.736126 
L 378.575605 553.697258 
L 383.673824 525.53662 
L 388.772042 554.674426 
L 393.87026 494.764819 
L 398.968479 522.251014 
L 404.066697 507.526683 
L 409.164915 550.28314 
L 414.263134 530.468878 
L 419.361352 532.001456 
L 424.459571 589.091532 
L 429.557789 555.806973 
L 434.656007 569.766601 
L 439.754226 544.637612 
L 444.852444 560.019737 
L 449.950662 549.646665 
L 455.048881 564.683841 
L 460.147099 598.245238 
L 465.245317 567.216295 
L 470.343536 532.184518 
L 475.441754 559.799155 
L 480.539973 526.975249 
L 485.638191 548.661905 
L 490.736409 556.852312 
L 495.834628 571.72095 
L 500.932846 585.240795 
L 506.031064 559.83128 
L 511.129283 557.752162 
L 516.227501 540.413581 
L 521.32572 572.143606 
L 526.423938 555.125262 
L 531.522156 551.119415 
L 536.620375 524.139408 
L 541.718593 508.535872 
L 546.816811 539.687682 
L 551.91503 540.557841 
L 557.013248 539.43528 
L 562.111466 621.234874 
L 567.209685 594.438902 
L 572.307903 574.230302 
L 577.406122 587.84724 
L 582.50434 562.633166 
L 587.602558 585.257908 
L 592.700777 583.875487 
L 597.798995 563.995262 
L 602.897213 562.870543 
L 607.995432 551.484012 
L 613.09365 582.653945 
L 618.191868 549.409489 
L 623.290087 553.47211 
L 628.388305 579.918186 
L 633.486524 567.854828 
L 638.584742 604.236205 
L 643.68296 595.059066 
L 648.781179 550.338808 
L 653.879397 572.162757 
L 658.977615 577.308232 
L 664.075834 531.835755 
L 669.174052 572.163821 
L 674.27227 565.891609 
L 679.370489 588.081148 
L 684.468707 595.428671 
L 689.566926 572.905926 
L 694.665144 610.924524 
L 699.763362 569.503324 
L 704.861581 554.305118 
L 709.959799 611.682433 
L 715.058017 577.539419 
L 720.156236 574.10789 
L 725.254454 581.538157 
L 730.352672 543.458453 
L 735.450891 566.764105 
L 740.549109 541.509886 
L 745.647328 555.595704 
L 750.745546 585.118197 
L 755.843764 606.72303 
L 760.941983 565.70952 
L 766.040201 569.039625 
L 771.138419 567.959257 
L 776.236638 587.622278 
L 781.334856 622.191572 
L 786.433074 577.737935 
L 791.531293 598.956449 
L 796.629511 568.128544 
L 801.72773 556.053497 
L 806.825948 577.932361 
L 811.924166 553.881094 
L 817.022385 562.191014 
L 822.120603 585.072981 
L 827.218821 570.634663 
L 832.31704 588.526637 
L 837.415258 603.857715 
L 842.513476 607.000329 
L 847.611695 581.947334 
L 852.709913 568.878304 
L 857.808132 573.707936 
L 862.90635 574.414767 
L 873.102787 539.746543 
L 878.201005 550.856595 
L 883.299223 566.905647 
L 888.397442 583.643326 
L 893.49566 602.761085 
L 898.593878 594.993642 
L 903.692097 610.668978 
L 908.790315 574.936166 
L 913.888534 566.294616 
L 918.986752 584.468451 
L 924.08497 604.248324 
L 929.183189 579.707732 
L 934.281407 584.295766 
L 939.379625 559.055412 
L 944.477844 552.26245 
L 949.576062 564.116797 
L 954.67428 568.107956 
L 959.772499 567.247155 
L 964.870717 585.376265 
L 969.968936 576.746162 
L 975.067154 589.804926 
L 980.165372 599.505289 
L 985.263591 550.292356 
L 990.361809 535.306614 
L 995.460027 581.309685 
L 1000.558246 589.68543 
L 1005.656464 585.906645 
L 1010.754683 605.040273 
L 1015.852901 553.933744 
L 1020.951119 581.577051 
L 1026.049338 611.685649 
L 1031.147556 587.815523 
L 1036.245774 598.930293 
L 1041.343993 573.275601 
L 1046.442211 597.955543 
L 1051.540429 585.499989 
L 1056.638648 581.909772 
L 1061.736866 545.970299 
L 1066.835085 588.816497 
L 1071.933303 584.820412 
L 1077.031521 560.828607 
L 1082.12974 570.621136 
L 1087.227958 582.138151 
L 1092.326176 549.378801 
L 1097.424395 573.546387 
L 1102.522613 603.159029 
L 1107.620831 600.96275 
L 1112.71905 595.689951 
L 1117.817268 633.388235 
L 1122.915487 600.526581 
L 1128.013705 603.338492 
L 1133.111923 583.474192 
L 1138.210142 554.979983 
L 1143.30836 563.595273 
L 1148.406578 568.045441 
L 1153.504797 585.566857 
L 1158.603015 606.37973 
L 1163.701233 595.903735 
L 1168.799452 584.895435 
L 1173.89767 603.708823 
L 1178.995889 549.803426 
L 1184.094107 579.943084 
L 1189.192325 598.850673 
L 1194.290544 567.061385 
L 1199.388762 551.686245 
L 1204.48698 525.549208 
L 1209.585199 578.92975 
L 1214.683417 571.466579 
L 1219.781635 597.851888 
L 1224.879854 629.997834 
L 1229.978072 584.903418 
L 1235.076291 610.530055 
L 1240.174509 619.036619 
L 1245.272727 552.507902 
L 1245.272727 552.507902 
" style="fill:none;stroke:#ff0000;stroke-linecap:square;stroke-width:1.5;"/>
   </g>
   <g id="patch_15">
    <path d="M 180 640.8 
L 180 477.741176 
" style="fill:none;stroke:#000000;stroke-linecap:square;stroke-linejoin:miter;stroke-width:0.8;"/>
   </g>
   <g id="patch_16">
    <path d="M 1296 640.8 
L 1296 477.741176 
" style="fill:none;stroke:#000000;stroke-linecap:square;stroke-linejoin:miter;stroke-width:0.8;"/>
   </g>
   <g id="patch_17">
    <path d="M 180 640.8 
L 1296 640.8 
" style="fill:none;stroke:#000000;stroke-linecap:square;stroke-linejoin:miter;stroke-width:0.8;"/>
   </g>
   <g id="patch_18">
    <path d="M 180 477.741176 
L 1296 477.741176 
" style="fill:none;stroke:#000000;stroke-linecap:square;stroke-linejoin:miter;stroke-width:0.8;"/>
   </g>
   <g id="legend_3">
    <g id="patch_19">
     <path d="M 1194.742188 500.419301 
L 1289 500.419301 
Q 1291 500.419301 1291 498.419301 
L 1291 484.741176 
Q 1291 482.741176 1289 482.741176 
L 1194.742188 482.741176 
Q 1192.742188 482.741176 1192.742188 484.741176 
L 1192.742188 498.419301 
Q 1192.742188 500.419301 1194.742188 500.419301 
z
" style="fill:#ffffff;opacity:0.8;stroke:#cccccc;stroke-linejoin:miter;"/>
    </g>
    <g id="line2d_60">
     <path d="M 1196.742188 490.839614 
L 1216.742188 490.839614 
" style="fill:none;stroke:#ff0000;stroke-linecap:square;stroke-width:1.5;"/>
    </g>
    <g id="line2d_61"/>
    <g id="text_55">
     <!-- ControlInput -->
     <g transform="translate(1224.742188 494.339614)scale(0.1 -0.1)">
      <use xlink:href="#DejaVuSans-43"/>
      <use x="69.824219" xlink:href="#DejaVuSans-6f"/>
      <use x="131.005859" xlink:href="#DejaVuSans-6e"/>
      <use x="194.384766" xlink:href="#DejaVuSans-74"/>
      <use x="233.59375" xlink:href="#DejaVuSans-72"/>
      <use x="274.675781" xlink:href="#DejaVuSans-6f"/>
      <use x="335.857422" xlink:href="#DejaVuSans-6c"/>
      <use x="363.640625" xlink:href="#DejaVuSans-49"/>
      <use x="393.132812" xlink:href="#DejaVuSans-6e"/>
      <use x="456.511719" xlink:href="#DejaVuSans-70"/>
      <use x="519.988281" xlink:href="#DejaVuSans-75"/>
      <use x="583.367188" xlink:href="#DejaVuSans-74"/>
     </g>
    </g>
   </g>
  </g>
 </g>
 <defs>
  <clipPath id="p206f328a08">
   <rect height="163.058824" width="1116" x="180" y="86.4"/>
  </clipPath>
  <clipPath id="pbd174c10c3">
   <rect height="163.058824" width="1116" x="180" y="282.070588"/>
  </clipPath>
  <clipPath id="p17967c34c8">
   <rect height="163.058824" width="1116" x="180" y="477.741176"/>
  </clipPath>
 </defs>
</svg>
