<?xml version="1.0" encoding="utf-8" standalone="no"?>
<!DOCTYPE svg PUBLIC "-//W3C//DTD SVG 1.1//EN"
  "http://www.w3.org/Graphics/SVG/1.1/DTD/svg11.dtd">
<!-- Created with matplotlib (http://matplotlib.org/) -->
<svg height="345.6pt" version="1.1" viewBox="0 0 460.8 345.6" width="460.8pt" xmlns="http://www.w3.org/2000/svg" xmlns:xlink="http://www.w3.org/1999/xlink">
 <defs>
  <style type="text/css">
*{stroke-linecap:butt;stroke-linejoin:round;}
  </style>
 </defs>
 <g id="figure_1">
  <g id="patch_1">
   <path d="M 0 345.6 
L 460.8 345.6 
L 460.8 0 
L 0 0 
z
" style="fill:#ffffff;"/>
  </g>
  <g id="axes_1">
   <g id="patch_2">
    <path d="M 57.6 119.740235 
L 414.72 119.740235 
L 414.72 41.472 
L 57.6 41.472 
z
" style="fill:#ffffff;"/>
   </g>
   <g id="matplotlib.axis_1">
    <g id="xtick_1">
     <g id="line2d_1">
      <defs>
       <path d="M 0 0 
L 0 3.5 
" id="m56dba3d5aa" style="stroke:#000000;stroke-width:0.8;"/>
      </defs>
      <g>
       <use style="stroke:#000000;stroke-width:0.8;" x="73.832727" xlink:href="#m56dba3d5aa" y="119.740235"/>
      </g>
     </g>
     <g id="text_1">
      <!-- 0 -->
      <defs>
       <path d="M 31.78125 66.40625 
Q 24.171875 66.40625 20.328125 58.90625 
Q 16.5 51.421875 16.5 36.375 
Q 16.5 21.390625 20.328125 13.890625 
Q 24.171875 6.390625 31.78125 6.390625 
Q 39.453125 6.390625 43.28125 13.890625 
Q 47.125 21.390625 47.125 36.375 
Q 47.125 51.421875 43.28125 58.90625 
Q 39.453125 66.40625 31.78125 66.40625 
z
M 31.78125 74.21875 
Q 44.046875 74.21875 50.515625 64.515625 
Q 56.984375 54.828125 56.984375 36.375 
Q 56.984375 17.96875 50.515625 8.265625 
Q 44.046875 -1.421875 31.78125 -1.421875 
Q 19.53125 -1.421875 13.0625 8.265625 
Q 6.59375 17.96875 6.59375 36.375 
Q 6.59375 54.828125 13.0625 64.515625 
Q 19.53125 74.21875 31.78125 74.21875 
z
" id="DejaVuSans-30"/>
      </defs>
      <g transform="translate(70.651477 134.338673)scale(0.1 -0.1)">
       <use xlink:href="#DejaVuSans-30"/>
      </g>
     </g>
    </g>
    <g id="xtick_2">
     <g id="line2d_2">
      <g>
       <use style="stroke:#000000;stroke-width:0.8;" x="138.763636" xlink:href="#m56dba3d5aa" y="119.740235"/>
      </g>
     </g>
     <g id="text_2">
      <!-- 10 -->
      <defs>
       <path d="M 12.40625 8.296875 
L 28.515625 8.296875 
L 28.515625 63.921875 
L 10.984375 60.40625 
L 10.984375 69.390625 
L 28.421875 72.90625 
L 38.28125 72.90625 
L 38.28125 8.296875 
L 54.390625 8.296875 
L 54.390625 0 
L 12.40625 0 
z
" id="DejaVuSans-31"/>
      </defs>
      <g transform="translate(132.401136 134.338673)scale(0.1 -0.1)">
       <use xlink:href="#DejaVuSans-31"/>
       <use x="63.623047" xlink:href="#DejaVuSans-30"/>
      </g>
     </g>
    </g>
    <g id="xtick_3">
     <g id="line2d_3">
      <g>
       <use style="stroke:#000000;stroke-width:0.8;" x="203.694545" xlink:href="#m56dba3d5aa" y="119.740235"/>
      </g>
     </g>
     <g id="text_3">
      <!-- 20 -->
      <defs>
       <path d="M 19.1875 8.296875 
L 53.609375 8.296875 
L 53.609375 0 
L 7.328125 0 
L 7.328125 8.296875 
Q 12.9375 14.109375 22.625 23.890625 
Q 32.328125 33.6875 34.8125 36.53125 
Q 39.546875 41.84375 41.421875 45.53125 
Q 43.3125 49.21875 43.3125 52.78125 
Q 43.3125 58.59375 39.234375 62.25 
Q 35.15625 65.921875 28.609375 65.921875 
Q 23.96875 65.921875 18.8125 64.3125 
Q 13.671875 62.703125 7.8125 59.421875 
L 7.8125 69.390625 
Q 13.765625 71.78125 18.9375 73 
Q 24.125 74.21875 28.421875 74.21875 
Q 39.75 74.21875 46.484375 68.546875 
Q 53.21875 62.890625 53.21875 53.421875 
Q 53.21875 48.921875 51.53125 44.890625 
Q 49.859375 40.875 45.40625 35.40625 
Q 44.1875 33.984375 37.640625 27.21875 
Q 31.109375 20.453125 19.1875 8.296875 
z
" id="DejaVuSans-32"/>
      </defs>
      <g transform="translate(197.332045 134.338673)scale(0.1 -0.1)">
       <use xlink:href="#DejaVuSans-32"/>
       <use x="63.623047" xlink:href="#DejaVuSans-30"/>
      </g>
     </g>
    </g>
    <g id="xtick_4">
     <g id="line2d_4">
      <g>
       <use style="stroke:#000000;stroke-width:0.8;" x="268.625455" xlink:href="#m56dba3d5aa" y="119.740235"/>
      </g>
     </g>
     <g id="text_4">
      <!-- 30 -->
      <defs>
       <path d="M 40.578125 39.3125 
Q 47.65625 37.796875 51.625 33 
Q 55.609375 28.21875 55.609375 21.1875 
Q 55.609375 10.40625 48.1875 4.484375 
Q 40.765625 -1.421875 27.09375 -1.421875 
Q 22.515625 -1.421875 17.65625 -0.515625 
Q 12.796875 0.390625 7.625 2.203125 
L 7.625 11.71875 
Q 11.71875 9.328125 16.59375 8.109375 
Q 21.484375 6.890625 26.8125 6.890625 
Q 36.078125 6.890625 40.9375 10.546875 
Q 45.796875 14.203125 45.796875 21.1875 
Q 45.796875 27.640625 41.28125 31.265625 
Q 36.765625 34.90625 28.71875 34.90625 
L 20.21875 34.90625 
L 20.21875 43.015625 
L 29.109375 43.015625 
Q 36.375 43.015625 40.234375 45.921875 
Q 44.09375 48.828125 44.09375 54.296875 
Q 44.09375 59.90625 40.109375 62.90625 
Q 36.140625 65.921875 28.71875 65.921875 
Q 24.65625 65.921875 20.015625 65.03125 
Q 15.375 64.15625 9.8125 62.3125 
L 9.8125 71.09375 
Q 15.4375 72.65625 20.34375 73.4375 
Q 25.25 74.21875 29.59375 74.21875 
Q 40.828125 74.21875 47.359375 69.109375 
Q 53.90625 64.015625 53.90625 55.328125 
Q 53.90625 49.265625 50.4375 45.09375 
Q 46.96875 40.921875 40.578125 39.3125 
z
" id="DejaVuSans-33"/>
      </defs>
      <g transform="translate(262.262955 134.338673)scale(0.1 -0.1)">
       <use xlink:href="#DejaVuSans-33"/>
       <use x="63.623047" xlink:href="#DejaVuSans-30"/>
      </g>
     </g>
    </g>
    <g id="xtick_5">
     <g id="line2d_5">
      <g>
       <use style="stroke:#000000;stroke-width:0.8;" x="333.556364" xlink:href="#m56dba3d5aa" y="119.740235"/>
      </g>
     </g>
     <g id="text_5">
      <!-- 40 -->
      <defs>
       <path d="M 37.796875 64.3125 
L 12.890625 25.390625 
L 37.796875 25.390625 
z
M 35.203125 72.90625 
L 47.609375 72.90625 
L 47.609375 25.390625 
L 58.015625 25.390625 
L 58.015625 17.1875 
L 47.609375 17.1875 
L 47.609375 0 
L 37.796875 0 
L 37.796875 17.1875 
L 4.890625 17.1875 
L 4.890625 26.703125 
z
" id="DejaVuSans-34"/>
      </defs>
      <g transform="translate(327.193864 134.338673)scale(0.1 -0.1)">
       <use xlink:href="#DejaVuSans-34"/>
       <use x="63.623047" xlink:href="#DejaVuSans-30"/>
      </g>
     </g>
    </g>
    <g id="xtick_6">
     <g id="line2d_6">
      <g>
       <use style="stroke:#000000;stroke-width:0.8;" x="398.487273" xlink:href="#m56dba3d5aa" y="119.740235"/>
      </g>
     </g>
     <g id="text_6">
      <!-- 50 -->
      <defs>
       <path d="M 10.796875 72.90625 
L 49.515625 72.90625 
L 49.515625 64.59375 
L 19.828125 64.59375 
L 19.828125 46.734375 
Q 21.96875 47.46875 24.109375 47.828125 
Q 26.265625 48.1875 28.421875 48.1875 
Q 40.625 48.1875 47.75 41.5 
Q 54.890625 34.8125 54.890625 23.390625 
Q 54.890625 11.625 47.5625 5.09375 
Q 40.234375 -1.421875 26.90625 -1.421875 
Q 22.3125 -1.421875 17.546875 -0.640625 
Q 12.796875 0.140625 7.71875 1.703125 
L 7.71875 11.625 
Q 12.109375 9.234375 16.796875 8.0625 
Q 21.484375 6.890625 26.703125 6.890625 
Q 35.15625 6.890625 40.078125 11.328125 
Q 45.015625 15.765625 45.015625 23.390625 
Q 45.015625 31 40.078125 35.4375 
Q 35.15625 39.890625 26.703125 39.890625 
Q 22.75 39.890625 18.8125 39.015625 
Q 14.890625 38.140625 10.796875 36.28125 
z
" id="DejaVuSans-35"/>
      </defs>
      <g transform="translate(392.124773 134.338673)scale(0.1 -0.1)">
       <use xlink:href="#DejaVuSans-35"/>
       <use x="63.623047" xlink:href="#DejaVuSans-30"/>
      </g>
     </g>
    </g>
   </g>
   <g id="matplotlib.axis_2">
    <g id="ytick_1">
     <g id="line2d_7">
      <defs>
       <path d="M 0 0 
L -3.5 0 
" id="m4e764d1422" style="stroke:#000000;stroke-width:0.8;"/>
      </defs>
      <g>
       <use style="stroke:#000000;stroke-width:0.8;" x="57.6" xlink:href="#m4e764d1422" y="116.182588"/>
      </g>
     </g>
     <g id="text_7">
      <!-- 0.00 -->
      <defs>
       <path d="M 10.6875 12.40625 
L 21 12.40625 
L 21 0 
L 10.6875 0 
z
" id="DejaVuSans-2e"/>
      </defs>
      <g transform="translate(28.334375 119.981807)scale(0.1 -0.1)">
       <use xlink:href="#DejaVuSans-30"/>
       <use x="63.623047" xlink:href="#DejaVuSans-2e"/>
       <use x="95.410156" xlink:href="#DejaVuSans-30"/>
       <use x="159.033203" xlink:href="#DejaVuSans-30"/>
      </g>
     </g>
    </g>
    <g id="ytick_2">
     <g id="line2d_8">
      <g>
       <use style="stroke:#000000;stroke-width:0.8;" x="57.6" xlink:href="#m4e764d1422" y="71.820671"/>
      </g>
     </g>
     <g id="text_8">
      <!-- 0.05 -->
      <g transform="translate(28.334375 75.61989)scale(0.1 -0.1)">
       <use xlink:href="#DejaVuSans-30"/>
       <use x="63.623047" xlink:href="#DejaVuSans-2e"/>
       <use x="95.410156" xlink:href="#DejaVuSans-30"/>
       <use x="159.033203" xlink:href="#DejaVuSans-35"/>
      </g>
     </g>
    </g>
    <g id="text_9">
     <!-- State 0 -->
     <defs>
      <path d="M 53.515625 70.515625 
L 53.515625 60.890625 
Q 47.90625 63.578125 42.921875 64.890625 
Q 37.9375 66.21875 33.296875 66.21875 
Q 25.25 66.21875 20.875 63.09375 
Q 16.5 59.96875 16.5 54.203125 
Q 16.5 49.359375 19.40625 46.890625 
Q 22.3125 44.4375 30.421875 42.921875 
L 36.375 41.703125 
Q 47.40625 39.59375 52.65625 34.296875 
Q 57.90625 29 57.90625 20.125 
Q 57.90625 9.515625 50.796875 4.046875 
Q 43.703125 -1.421875 29.984375 -1.421875 
Q 24.8125 -1.421875 18.96875 -0.25 
Q 13.140625 0.921875 6.890625 3.21875 
L 6.890625 13.375 
Q 12.890625 10.015625 18.65625 8.296875 
Q 24.421875 6.59375 29.984375 6.59375 
Q 38.421875 6.59375 43.015625 9.90625 
Q 47.609375 13.234375 47.609375 19.390625 
Q 47.609375 24.75 44.3125 27.78125 
Q 41.015625 30.8125 33.5 32.328125 
L 27.484375 33.5 
Q 16.453125 35.6875 11.515625 40.375 
Q 6.59375 45.0625 6.59375 53.421875 
Q 6.59375 63.09375 13.40625 68.65625 
Q 20.21875 74.21875 32.171875 74.21875 
Q 37.3125 74.21875 42.625 73.28125 
Q 47.953125 72.359375 53.515625 70.515625 
z
" id="DejaVuSans-53"/>
      <path d="M 18.3125 70.21875 
L 18.3125 54.6875 
L 36.8125 54.6875 
L 36.8125 47.703125 
L 18.3125 47.703125 
L 18.3125 18.015625 
Q 18.3125 11.328125 20.140625 9.421875 
Q 21.96875 7.515625 27.59375 7.515625 
L 36.8125 7.515625 
L 36.8125 0 
L 27.59375 0 
Q 17.1875 0 13.234375 3.875 
Q 9.28125 7.765625 9.28125 18.015625 
L 9.28125 47.703125 
L 2.6875 47.703125 
L 2.6875 54.6875 
L 9.28125 54.6875 
L 9.28125 70.21875 
z
" id="DejaVuSans-74"/>
      <path d="M 34.28125 27.484375 
Q 23.390625 27.484375 19.1875 25 
Q 14.984375 22.515625 14.984375 16.5 
Q 14.984375 11.71875 18.140625 8.90625 
Q 21.296875 6.109375 26.703125 6.109375 
Q 34.1875 6.109375 38.703125 11.40625 
Q 43.21875 16.703125 43.21875 25.484375 
L 43.21875 27.484375 
z
M 52.203125 31.203125 
L 52.203125 0 
L 43.21875 0 
L 43.21875 8.296875 
Q 40.140625 3.328125 35.546875 0.953125 
Q 30.953125 -1.421875 24.3125 -1.421875 
Q 15.921875 -1.421875 10.953125 3.296875 
Q 6 8.015625 6 15.921875 
Q 6 25.140625 12.171875 29.828125 
Q 18.359375 34.515625 30.609375 34.515625 
L 43.21875 34.515625 
L 43.21875 35.40625 
Q 43.21875 41.609375 39.140625 45 
Q 35.0625 48.390625 27.6875 48.390625 
Q 23 48.390625 18.546875 47.265625 
Q 14.109375 46.140625 10.015625 43.890625 
L 10.015625 52.203125 
Q 14.9375 54.109375 19.578125 55.046875 
Q 24.21875 56 28.609375 56 
Q 40.484375 56 46.34375 49.84375 
Q 52.203125 43.703125 52.203125 31.203125 
z
" id="DejaVuSans-61"/>
      <path d="M 56.203125 29.59375 
L 56.203125 25.203125 
L 14.890625 25.203125 
Q 15.484375 15.921875 20.484375 11.0625 
Q 25.484375 6.203125 34.421875 6.203125 
Q 39.59375 6.203125 44.453125 7.46875 
Q 49.3125 8.734375 54.109375 11.28125 
L 54.109375 2.78125 
Q 49.265625 0.734375 44.1875 -0.34375 
Q 39.109375 -1.421875 33.890625 -1.421875 
Q 20.796875 -1.421875 13.15625 6.1875 
Q 5.515625 13.8125 5.515625 26.8125 
Q 5.515625 40.234375 12.765625 48.109375 
Q 20.015625 56 32.328125 56 
Q 43.359375 56 49.78125 48.890625 
Q 56.203125 41.796875 56.203125 29.59375 
z
M 47.21875 32.234375 
Q 47.125 39.59375 43.09375 43.984375 
Q 39.0625 48.390625 32.421875 48.390625 
Q 24.90625 48.390625 20.390625 44.140625 
Q 15.875 39.890625 15.1875 32.171875 
z
" id="DejaVuSans-65"/>
      <path id="DejaVuSans-20"/>
     </defs>
     <g transform="translate(22.254687 98.611586)rotate(-90)scale(0.1 -0.1)">
      <use xlink:href="#DejaVuSans-53"/>
      <use x="63.476562" xlink:href="#DejaVuSans-74"/>
      <use x="102.685547" xlink:href="#DejaVuSans-61"/>
      <use x="163.964844" xlink:href="#DejaVuSans-74"/>
      <use x="203.173828" xlink:href="#DejaVuSans-65"/>
      <use x="264.697266" xlink:href="#DejaVuSans-20"/>
      <use x="296.484375" xlink:href="#DejaVuSans-30"/>
     </g>
    </g>
   </g>
   <g id="line2d_9">
    <path clip-path="url(#p013e6f12fc)" d="M 73.832727 116.182588 
L 398.487273 116.182588 
L 398.487273 116.182588 
" style="fill:none;stroke:#000000;stroke-linecap:square;stroke-width:4;"/>
   </g>
   <g id="line2d_10">
    <path clip-path="url(#p013e6f12fc)" d="M 73.832727 116.182588 
L 80.351791 116.076969 
L 80.429708 114.168551 
L 80.598528 103.120277 
L 81.098496 67.963152 
L 81.429644 59.328777 
L 81.69586 57.014838 
L 81.812736 56.847634 
L 81.851695 56.880311 
L 81.981556 57.256441 
L 82.221801 58.790346 
L 82.676317 63.40678 
L 84.890461 87.694644 
L 85.81248 94.672989 
L 86.71502 99.877199 
L 86.831895 100.434914 
L 86.870854 100.154876 
L 86.96825 96.967486 
L 87.169536 81.367404 
L 87.533149 57.758717 
L 87.857804 48.95036 
L 88.111034 46.769557 
L 88.201937 46.655814 
L 88.247389 46.702851 
L 88.377251 47.160707 
L 88.623988 49.042843 
L 89.091491 54.673601 
L 91.221225 82.190708 
L 92.143244 90.511426 
L 93.045783 96.721125 
L 93.331479 98.304555 
L 93.363945 98.049576 
L 93.461341 94.924391 
L 93.662627 79.447104 
L 94.02624 56.041836 
L 94.344401 47.493917 
L 94.597632 45.34938 
L 94.682042 45.251561 
L 94.727494 45.299445 
L 94.857356 45.766299 
L 95.104093 47.686121 
L 95.571596 53.430318 
L 97.701329 81.50343 
L 98.623348 89.992376 
L 99.525888 96.327629 
L 99.82457 98.016627 
L 99.857036 97.764512 
L 99.954432 94.64775 
L 100.155718 79.18709 
L 100.519331 55.809365 
L 100.837492 47.283142 
L 101.090723 45.154417 
L 101.175133 45.0616 
L 101.220585 45.112124 
L 101.350447 45.586322 
L 101.597184 47.519312 
L 102.064687 53.285875 
L 104.187927 81.360215 
L 105.109946 89.883722 
L 106.012486 96.245139 
L 106.317661 97.97764 
L 106.350127 97.725913 
L 106.447523 94.610292 
L 106.648809 79.151883 
L 107.012422 55.777888 
L 107.330583 47.254602 
L 107.583814 45.128018 
L 107.668224 45.035879 
L 107.713676 45.086761 
L 107.843537 45.561953 
L 108.090275 47.496725 
L 108.557777 53.266317 
L 110.681018 81.350044 
L 111.603037 89.876065 
L 112.505577 96.23934 
L 112.810752 97.972361 
L 112.843217 97.720687 
L 112.940614 94.60522 
L 113.1419 79.147116 
L 113.505513 55.773626 
L 113.823674 47.250738 
L 114.076905 45.124444 
L 114.161315 45.032396 
L 114.206767 45.083326 
L 114.336628 45.558653 
L 114.583366 47.493667 
L 115.050868 53.263669 
L 117.174109 81.348666 
L 118.096128 89.875028 
L 118.998668 96.238555 
L 119.303843 97.971647 
L 119.336308 97.719979 
L 119.433705 94.604533 
L 119.634991 79.14647 
L 119.998604 55.773048 
L 120.316765 47.250215 
L 120.569996 45.12396 
L 120.654406 45.031924 
L 120.699857 45.082861 
L 120.829719 45.558206 
L 121.076457 47.493253 
L 121.543959 53.26331 
L 123.6672 81.34848 
L 124.589219 89.874887 
L 125.491759 96.238449 
L 125.796934 97.97155 
L 125.829399 97.719883 
L 125.926796 94.60444 
L 126.128081 79.146383 
L 126.491695 55.77297 
L 126.809856 47.250144 
L 127.063087 45.123894 
L 127.147497 45.031861 
L 127.192948 45.082798 
L 127.32281 45.558146 
L 127.569548 47.493197 
L 128.03705 53.263262 
L 130.160291 81.348455 
L 131.08231 89.874868 
L 131.984849 96.238434 
L 132.290025 97.971537 
L 132.32249 97.71987 
L 132.419887 94.604427 
L 132.621172 79.146371 
L 132.984785 55.77296 
L 133.302947 47.250134 
L 133.556177 45.123886 
L 133.640588 45.031852 
L 133.686039 45.08279 
L 133.815901 45.558137 
L 134.062639 47.493189 
L 134.530141 53.263255 
L 136.653382 81.348451 
L 137.575401 89.874866 
L 138.47794 96.238432 
L 138.783116 97.971535 
L 138.815581 97.719869 
L 138.912977 94.604426 
L 139.114263 79.146369 
L 139.477876 55.772958 
L 139.796038 47.250133 
L 140.049268 45.123884 
L 140.133679 45.031851 
L 140.17913 45.082789 
L 140.308992 45.558136 
L 140.555729 47.493188 
L 141.023232 53.263254 
L 143.146473 81.348451 
L 144.068492 89.874866 
L 144.971031 96.238432 
L 145.276207 97.971535 
L 145.308672 97.719868 
L 145.406068 94.604425 
L 145.607354 79.146369 
L 145.970967 55.772958 
L 146.289129 47.250133 
L 146.542359 45.123884 
L 146.626769 45.031851 
L 146.672221 45.082788 
L 146.802083 45.558136 
L 147.04882 47.493188 
L 147.516323 53.263254 
L 149.639564 81.348451 
L 150.561583 89.874865 
L 151.464122 96.238432 
L 151.769297 97.971535 
L 151.801763 97.719868 
L 151.899159 94.604425 
L 152.100445 79.146369 
L 152.464058 55.772958 
L 152.78222 47.250133 
L 153.03545 45.123884 
L 153.11986 45.031851 
L 153.165312 45.082788 
L 153.295174 45.558136 
L 153.541911 47.493188 
L 154.009414 53.263254 
L 156.132655 81.348451 
L 157.054673 89.874865 
L 157.957213 96.238432 
L 158.262388 97.971535 
L 158.294854 97.719868 
L 158.39225 94.604425 
L 158.593536 79.146369 
L 158.957149 55.772958 
L 159.275311 47.250133 
L 159.528541 45.123884 
L 159.612951 45.031851 
L 159.658403 45.082788 
L 159.788265 45.558136 
L 160.035002 47.493188 
L 160.502505 53.263254 
L 162.625745 81.348451 
L 163.547764 89.874865 
L 164.450304 96.238432 
L 164.755479 97.971535 
L 164.787945 97.719868 
L 164.885341 94.604425 
L 165.086627 79.146369 
L 165.45024 55.772958 
L 165.768401 47.250133 
L 166.021632 45.123884 
L 166.106042 45.031851 
L 166.151494 45.082788 
L 166.281356 45.558136 
L 166.528093 47.493188 
L 166.995596 53.263254 
L 169.118836 81.348451 
L 170.040855 89.874865 
L 170.943395 96.238432 
L 171.24857 97.971535 
L 171.281036 97.719868 
L 171.378432 94.604425 
L 171.579718 79.146369 
L 171.943331 55.772958 
L 172.261492 47.250133 
L 172.514723 45.123884 
L 172.599133 45.031851 
L 172.644585 45.082788 
L 172.774447 45.558136 
L 173.021184 47.493188 
L 173.488687 53.263254 
L 175.611927 81.348451 
L 176.533946 89.874865 
L 177.436486 96.238432 
L 177.741661 97.971535 
L 177.774127 97.719868 
L 177.871523 94.604425 
L 178.072809 79.146369 
L 178.436422 55.772958 
L 178.754583 47.250133 
L 179.007814 45.123884 
L 179.092224 45.031851 
L 179.137676 45.082788 
L 179.267537 45.558136 
L 179.514275 47.493188 
L 179.981777 53.263254 
L 182.105018 81.348451 
L 183.027037 89.874865 
L 183.929577 96.238432 
L 184.234752 97.971535 
L 184.267217 97.719868 
L 184.364614 94.604425 
L 184.5659 79.146369 
L 184.929513 55.772958 
L 185.247674 47.250133 
L 185.500905 45.123884 
L 185.585315 45.031851 
L 185.630767 45.082788 
L 185.760628 45.558136 
L 186.007366 47.493188 
L 186.474868 53.263254 
L 188.598109 81.348451 
L 189.520128 89.874865 
L 190.422668 96.238432 
L 190.727843 97.971535 
L 190.760308 97.719868 
L 190.857705 94.604425 
L 191.058991 79.146369 
L 191.422604 55.772958 
L 191.740765 47.250133 
L 191.993996 45.123884 
L 192.078406 45.031851 
L 192.123857 45.082788 
L 192.253719 45.558136 
L 192.500457 47.493188 
L 192.967959 53.263254 
L 195.0912 81.348451 
L 196.013219 89.874865 
L 196.915759 96.238432 
L 197.220934 97.971535 
L 197.253399 97.719868 
L 197.350796 94.604425 
L 197.552081 79.146369 
L 197.915695 55.772958 
L 198.233856 47.250133 
L 198.487087 45.123884 
L 198.571497 45.031851 
L 198.616948 45.082788 
L 198.74681 45.558136 
L 198.993548 47.493188 
L 199.46105 53.263254 
L 201.584291 81.348451 
L 202.50631 89.874865 
L 203.408849 96.238432 
L 203.714025 97.971535 
L 203.74649 97.719868 
L 203.843887 94.604425 
L 204.045172 79.146369 
L 204.408785 55.772958 
L 204.726947 47.250133 
L 204.980177 45.123884 
L 205.064588 45.031851 
L 205.110039 45.082788 
L 205.239901 45.558136 
L 205.486639 47.493188 
L 205.954141 53.263254 
L 208.077382 81.348451 
L 208.999401 89.874865 
L 209.90194 96.238432 
L 210.207116 97.971535 
L 210.239581 97.719868 
L 210.336977 94.604425 
L 210.538263 79.146369 
L 210.901876 55.772958 
L 211.220038 47.250133 
L 211.473268 45.123884 
L 211.557679 45.031851 
L 211.60313 45.082788 
L 211.732992 45.558136 
L 211.979729 47.493188 
L 212.447232 53.263254 
L 214.570473 81.348451 
L 215.492492 89.874865 
L 216.395031 96.238432 
L 216.700207 97.971535 
L 216.732672 97.719868 
L 216.830068 94.604425 
L 217.031354 79.146369 
L 217.394967 55.772958 
L 217.713129 47.250133 
L 217.966359 45.123884 
L 218.050769 45.031851 
L 218.096221 45.082788 
L 218.226083 45.558136 
L 218.47282 47.493188 
L 218.940323 53.263254 
L 221.063564 81.348451 
L 221.985583 89.874865 
L 222.888122 96.238432 
L 223.193297 97.971535 
L 223.225763 97.719868 
L 223.323159 94.604425 
L 223.524445 79.146369 
L 223.888058 55.772958 
L 224.20622 47.250133 
L 224.45945 45.123884 
L 224.54386 45.031851 
L 224.589312 45.082788 
L 224.719174 45.558136 
L 224.965911 47.493188 
L 225.433414 53.263254 
L 227.556655 81.348451 
L 228.478673 89.874865 
L 229.381213 96.238432 
L 229.686388 97.971535 
L 229.718854 97.719868 
L 229.81625 94.604425 
L 230.017536 79.146369 
L 230.381149 55.772958 
L 230.699311 47.250133 
L 230.952541 45.123884 
L 231.036951 45.031851 
L 231.082403 45.082788 
L 231.212265 45.558136 
L 231.459002 47.493188 
L 231.926505 53.263254 
L 234.049745 81.348451 
L 234.971764 89.874865 
L 235.874304 96.238432 
L 236.179479 97.971535 
L 236.211945 97.719868 
L 236.309341 94.604425 
L 236.510627 79.146369 
L 236.87424 55.772958 
L 237.192401 47.250133 
L 237.445632 45.123884 
L 237.530042 45.031851 
L 237.575494 45.082788 
L 237.705356 45.558136 
L 237.952093 47.493188 
L 238.419596 53.263254 
L 240.542836 81.348451 
L 241.464855 89.874865 
L 242.367395 96.238432 
L 242.67257 97.971535 
L 242.705036 97.719868 
L 242.802432 94.604425 
L 243.003718 79.146369 
L 243.367331 55.772958 
L 243.685492 47.250133 
L 243.938723 45.123884 
L 244.023133 45.031851 
L 244.068585 45.082788 
L 244.198447 45.558136 
L 244.445184 47.493188 
L 244.912687 53.263254 
L 247.035927 81.348451 
L 247.957946 89.874865 
L 248.860486 96.238432 
L 249.165661 97.971535 
L 249.198127 97.719868 
L 249.295523 94.604425 
L 249.496809 79.146369 
L 249.860422 55.772958 
L 250.178583 47.250133 
L 250.431814 45.123884 
L 250.516224 45.031851 
L 250.561676 45.082788 
L 250.691537 45.558136 
L 250.938275 47.493188 
L 251.405777 53.263254 
L 253.529018 81.348451 
L 254.451037 89.874865 
L 255.353577 96.238432 
L 255.658752 97.971535 
L 255.691217 97.719868 
L 255.788614 94.604425 
L 255.9899 79.146369 
L 256.353513 55.772958 
L 256.671674 47.250133 
L 256.924905 45.123884 
L 257.009315 45.031851 
L 257.054767 45.082788 
L 257.184628 45.558136 
L 257.431366 47.493188 
L 257.898868 53.263254 
L 260.022109 81.348451 
L 260.944128 89.874865 
L 261.846668 96.238432 
L 262.151843 97.971535 
L 262.184308 97.719868 
L 262.281705 94.604425 
L 262.482991 79.146369 
L 262.846604 55.772958 
L 263.164765 47.250133 
L 263.417996 45.123884 
L 263.502406 45.031851 
L 263.547857 45.082788 
L 263.677719 45.558136 
L 263.924457 47.493188 
L 264.391959 53.263254 
L 266.5152 81.348451 
L 267.437219 89.874865 
L 268.339759 96.238432 
L 268.644934 97.971535 
L 268.677399 97.719868 
L 268.774796 94.604425 
L 268.976081 79.146369 
L 269.339695 55.772958 
L 269.657856 47.250133 
L 269.911087 45.123884 
L 269.995497 45.031851 
L 270.040948 45.082788 
L 270.17081 45.558136 
L 270.417548 47.493188 
L 270.88505 53.263254 
L 273.008291 81.348451 
L 273.93031 89.874865 
L 274.832849 96.238432 
L 275.138025 97.971535 
L 275.17049 97.719868 
L 275.267887 94.604425 
L 275.469172 79.146369 
L 275.832785 55.772958 
L 276.150947 47.250133 
L 276.404177 45.123884 
L 276.488588 45.031851 
L 276.534039 45.082788 
L 276.663901 45.558136 
L 276.910639 47.493188 
L 277.378141 53.263254 
L 279.501382 81.348451 
L 280.423401 89.874865 
L 281.32594 96.238432 
L 281.631116 97.971535 
L 281.663581 97.719868 
L 281.760977 94.604425 
L 281.962263 79.146369 
L 282.325876 55.772958 
L 282.644038 47.250133 
L 282.897268 45.123884 
L 282.981679 45.031851 
L 283.02713 45.082788 
L 283.156992 45.558136 
L 283.403729 47.493188 
L 283.871232 53.263254 
L 285.994473 81.348451 
L 286.916492 89.874865 
L 287.819031 96.238432 
L 288.124207 97.971535 
L 288.156672 97.719868 
L 288.254068 94.604425 
L 288.455354 79.146369 
L 288.818967 55.772958 
L 289.137129 47.250133 
L 289.390359 45.123884 
L 289.474769 45.031851 
L 289.520221 45.082788 
L 289.650083 45.558136 
L 289.89682 47.493188 
L 290.364323 53.263254 
L 292.487564 81.348451 
L 293.409583 89.874865 
L 294.312122 96.238432 
L 294.617297 97.971535 
L 294.649763 97.719868 
L 294.747159 94.604425 
L 294.948445 79.146369 
L 295.312058 55.772958 
L 295.63022 47.250133 
L 295.88345 45.123884 
L 295.96786 45.031851 
L 296.013312 45.082788 
L 296.143174 45.558136 
L 296.389911 47.493188 
L 296.857414 53.263254 
L 298.980655 81.348451 
L 299.902673 89.874865 
L 300.805213 96.238432 
L 301.110388 97.971535 
L 301.142854 97.719868 
L 301.24025 94.604425 
L 301.441536 79.146369 
L 301.805149 55.772958 
L 302.123311 47.250133 
L 302.376541 45.123884 
L 302.460951 45.031851 
L 302.506403 45.082788 
L 302.636265 45.558136 
L 302.883002 47.493188 
L 303.350505 53.263254 
L 305.473745 81.348451 
L 306.395764 89.874865 
L 307.298304 96.238432 
L 307.603479 97.971535 
L 307.635945 97.719868 
L 307.733341 94.604425 
L 307.934627 79.146369 
L 308.29824 55.772958 
L 308.616401 47.250133 
L 308.869632 45.123884 
L 308.954042 45.031851 
L 308.999494 45.082788 
L 309.129356 45.558136 
L 309.376093 47.493188 
L 309.843596 53.263254 
L 311.966836 81.348451 
L 312.888855 89.874865 
L 313.791395 96.238432 
L 314.09657 97.971535 
L 314.129036 97.719868 
L 314.226432 94.604425 
L 314.427718 79.146369 
L 314.791331 55.772958 
L 315.109492 47.250133 
L 315.362723 45.123884 
L 315.447133 45.031851 
L 315.492585 45.082788 
L 315.622447 45.558136 
L 315.869184 47.493188 
L 316.336687 53.263254 
L 318.459927 81.348451 
L 319.381946 89.874865 
L 320.284486 96.238432 
L 320.589661 97.971535 
L 320.622127 97.719868 
L 320.719523 94.604425 
L 320.920809 79.146369 
L 321.284422 55.772958 
L 321.602583 47.250133 
L 321.855814 45.123884 
L 321.940224 45.031851 
L 321.985676 45.082788 
L 322.115537 45.558136 
L 322.362275 47.493188 
L 322.829777 53.263254 
L 324.953018 81.348451 
L 325.875037 89.874865 
L 326.777577 96.238432 
L 327.082752 97.971535 
L 327.115217 97.719868 
L 327.212614 94.604425 
L 327.4139 79.146369 
L 327.777513 55.772958 
L 328.095674 47.250133 
L 328.348905 45.123884 
L 328.433315 45.031851 
L 328.478767 45.082788 
L 328.608628 45.558136 
L 328.855366 47.493188 
L 329.322868 53.263254 
L 331.446109 81.348451 
L 332.368128 89.874865 
L 333.270668 96.238432 
L 333.575843 97.971535 
L 333.608308 97.719868 
L 333.705705 94.604425 
L 333.906991 79.146369 
L 334.270604 55.772958 
L 334.588765 47.250133 
L 334.841996 45.123884 
L 334.926406 45.031851 
L 334.971857 45.082788 
L 335.101719 45.558136 
L 335.348457 47.493188 
L 335.815959 53.263254 
L 337.9392 81.348451 
L 338.861219 89.874865 
L 339.763759 96.238432 
L 340.068934 97.971535 
L 340.101399 97.719868 
L 340.198796 94.604425 
L 340.400081 79.146369 
L 340.763695 55.772958 
L 341.081856 47.250133 
L 341.335087 45.123884 
L 341.419497 45.031851 
L 341.464948 45.082788 
L 341.59481 45.558136 
L 341.841548 47.493188 
L 342.30905 53.263254 
L 344.432291 81.348451 
L 345.35431 89.874865 
L 346.256849 96.238432 
L 346.562025 97.971535 
L 346.59449 97.719868 
L 346.691887 94.604425 
L 346.893172 79.146369 
L 347.256785 55.772958 
L 347.574947 47.250133 
L 347.828177 45.123884 
L 347.912588 45.031851 
L 347.958039 45.082788 
L 348.087901 45.558136 
L 348.334639 47.493188 
L 348.802141 53.263254 
L 350.925382 81.348451 
L 351.847401 89.874865 
L 352.74994 96.238432 
L 353.055116 97.971535 
L 353.087581 97.719868 
L 353.184977 94.604425 
L 353.386263 79.146369 
L 353.749876 55.772958 
L 354.068038 47.250133 
L 354.321268 45.123884 
L 354.405679 45.031851 
L 354.45113 45.082788 
L 354.580992 45.558136 
L 354.827729 47.493188 
L 355.295232 53.263254 
L 357.418473 81.348451 
L 358.340492 89.874865 
L 359.243031 96.238432 
L 359.548207 97.971535 
L 359.580672 97.719868 
L 359.678068 94.604425 
L 359.879354 79.146369 
L 360.242967 55.772958 
L 360.561129 47.250133 
L 360.814359 45.123884 
L 360.898769 45.031851 
L 360.944221 45.082788 
L 361.074083 45.558136 
L 361.32082 47.493188 
L 361.788323 53.263254 
L 363.911564 81.348451 
L 364.833583 89.874865 
L 365.736122 96.238432 
L 366.041297 97.971535 
L 366.073763 97.719868 
L 366.171159 94.604425 
L 366.372445 79.146369 
L 366.736058 55.772958 
L 367.05422 47.250133 
L 367.30745 45.123884 
L 367.39186 45.031851 
L 367.437312 45.082788 
L 367.567174 45.558136 
L 367.813911 47.493188 
L 368.281414 53.263254 
L 370.404655 81.348451 
L 371.326673 89.874865 
L 372.229213 96.238432 
L 372.534388 97.971535 
L 372.566854 97.719868 
L 372.66425 94.604425 
L 372.865536 79.146369 
L 373.229149 55.772958 
L 373.547311 47.250133 
L 373.800541 45.123884 
L 373.884951 45.031851 
L 373.930403 45.082788 
L 374.060265 45.558136 
L 374.307002 47.493188 
L 374.774505 53.263254 
L 376.897745 81.348451 
L 377.819764 89.874865 
L 378.722304 96.238432 
L 379.027479 97.971535 
L 379.059945 97.719868 
L 379.157341 94.604425 
L 379.358627 79.146369 
L 379.72224 55.772958 
L 380.040401 47.250133 
L 380.293632 45.123884 
L 380.378042 45.031851 
L 380.423494 45.082788 
L 380.553356 45.558136 
L 380.800093 47.493188 
L 381.267596 53.263254 
L 383.390836 81.348451 
L 384.312855 89.874865 
L 385.215395 96.238432 
L 385.52057 97.971535 
L 385.553036 97.719868 
L 385.650432 94.604425 
L 385.851718 79.146369 
L 386.215331 55.772958 
L 386.533492 47.250133 
L 386.786723 45.123884 
L 386.871133 45.031851 
L 386.916585 45.082788 
L 387.046447 45.558136 
L 387.293184 47.493188 
L 387.760687 53.263254 
L 389.883927 81.348451 
L 390.805946 89.874865 
L 391.708486 96.238432 
L 392.013661 97.971535 
L 392.046127 97.719868 
L 392.143523 94.604425 
L 392.344809 79.146369 
L 392.708422 55.772958 
L 393.026583 47.250133 
L 393.279814 45.123884 
L 393.364224 45.031851 
L 393.409676 45.082788 
L 393.539537 45.558136 
L 393.786275 47.493188 
L 394.253777 53.263254 
L 396.377018 81.348451 
L 397.299037 89.874865 
L 398.201577 96.238432 
L 398.487273 97.915457 
L 398.487273 97.915457 
" style="fill:none;stroke:#ff0000;stroke-linecap:square;stroke-width:1.5;"/>
   </g>
   <g id="patch_3">
    <path d="M 57.6 119.740235 
L 57.6 41.472 
" style="fill:none;stroke:#000000;stroke-linecap:square;stroke-linejoin:miter;stroke-width:0.8;"/>
   </g>
   <g id="patch_4">
    <path d="M 414.72 119.740235 
L 414.72 41.472 
" style="fill:none;stroke:#000000;stroke-linecap:square;stroke-linejoin:miter;stroke-width:0.8;"/>
   </g>
   <g id="patch_5">
    <path d="M 57.6 119.740235 
L 414.72 119.740235 
" style="fill:none;stroke:#000000;stroke-linecap:square;stroke-linejoin:miter;stroke-width:0.8;"/>
   </g>
   <g id="patch_6">
    <path d="M 57.6 41.472 
L 414.72 41.472 
" style="fill:none;stroke:#000000;stroke-linecap:square;stroke-linejoin:miter;stroke-width:0.8;"/>
   </g>
  </g>
  <g id="axes_2">
   <g id="patch_7">
    <path d="M 57.6 213.662118 
L 414.72 213.662118 
L 414.72 135.393882 
L 57.6 135.393882 
z
" style="fill:#ffffff;"/>
   </g>
   <g id="matplotlib.axis_3">
    <g id="xtick_7">
     <g id="line2d_11">
      <g>
       <use style="stroke:#000000;stroke-width:0.8;" x="73.832727" xlink:href="#m56dba3d5aa" y="213.662118"/>
      </g>
     </g>
     <g id="text_10">
      <!-- 0 -->
      <g transform="translate(70.651477 228.260555)scale(0.1 -0.1)">
       <use xlink:href="#DejaVuSans-30"/>
      </g>
     </g>
    </g>
    <g id="xtick_8">
     <g id="line2d_12">
      <g>
       <use style="stroke:#000000;stroke-width:0.8;" x="138.763636" xlink:href="#m56dba3d5aa" y="213.662118"/>
      </g>
     </g>
     <g id="text_11">
      <!-- 10 -->
      <g transform="translate(132.401136 228.260555)scale(0.1 -0.1)">
       <use xlink:href="#DejaVuSans-31"/>
       <use x="63.623047" xlink:href="#DejaVuSans-30"/>
      </g>
     </g>
    </g>
    <g id="xtick_9">
     <g id="line2d_13">
      <g>
       <use style="stroke:#000000;stroke-width:0.8;" x="203.694545" xlink:href="#m56dba3d5aa" y="213.662118"/>
      </g>
     </g>
     <g id="text_12">
      <!-- 20 -->
      <g transform="translate(197.332045 228.260555)scale(0.1 -0.1)">
       <use xlink:href="#DejaVuSans-32"/>
       <use x="63.623047" xlink:href="#DejaVuSans-30"/>
      </g>
     </g>
    </g>
    <g id="xtick_10">
     <g id="line2d_14">
      <g>
       <use style="stroke:#000000;stroke-width:0.8;" x="268.625455" xlink:href="#m56dba3d5aa" y="213.662118"/>
      </g>
     </g>
     <g id="text_13">
      <!-- 30 -->
      <g transform="translate(262.262955 228.260555)scale(0.1 -0.1)">
       <use xlink:href="#DejaVuSans-33"/>
       <use x="63.623047" xlink:href="#DejaVuSans-30"/>
      </g>
     </g>
    </g>
    <g id="xtick_11">
     <g id="line2d_15">
      <g>
       <use style="stroke:#000000;stroke-width:0.8;" x="333.556364" xlink:href="#m56dba3d5aa" y="213.662118"/>
      </g>
     </g>
     <g id="text_14">
      <!-- 40 -->
      <g transform="translate(327.193864 228.260555)scale(0.1 -0.1)">
       <use xlink:href="#DejaVuSans-34"/>
       <use x="63.623047" xlink:href="#DejaVuSans-30"/>
      </g>
     </g>
    </g>
    <g id="xtick_12">
     <g id="line2d_16">
      <g>
       <use style="stroke:#000000;stroke-width:0.8;" x="398.487273" xlink:href="#m56dba3d5aa" y="213.662118"/>
      </g>
     </g>
     <g id="text_15">
      <!-- 50 -->
      <g transform="translate(392.124773 228.260555)scale(0.1 -0.1)">
       <use xlink:href="#DejaVuSans-35"/>
       <use x="63.623047" xlink:href="#DejaVuSans-30"/>
      </g>
     </g>
    </g>
   </g>
   <g id="matplotlib.axis_4">
    <g id="ytick_3">
     <g id="line2d_17">
      <g>
       <use style="stroke:#000000;stroke-width:0.8;" x="57.6" xlink:href="#m4e764d1422" y="201.186217"/>
      </g>
     </g>
     <g id="text_16">
      <!-- 0.0 -->
      <g transform="translate(34.696875 204.985436)scale(0.1 -0.1)">
       <use xlink:href="#DejaVuSans-30"/>
       <use x="63.623047" xlink:href="#DejaVuSans-2e"/>
       <use x="95.410156" xlink:href="#DejaVuSans-30"/>
      </g>
     </g>
    </g>
    <g id="ytick_4">
     <g id="line2d_18">
      <g>
       <use style="stroke:#000000;stroke-width:0.8;" x="57.6" xlink:href="#m4e764d1422" y="159.660869"/>
      </g>
     </g>
     <g id="text_17">
      <!-- 0.5 -->
      <g transform="translate(34.696875 163.460088)scale(0.1 -0.1)">
       <use xlink:href="#DejaVuSans-30"/>
       <use x="63.623047" xlink:href="#DejaVuSans-2e"/>
       <use x="95.410156" xlink:href="#DejaVuSans-35"/>
      </g>
     </g>
    </g>
    <g id="text_18">
     <!-- State 1 -->
     <g transform="translate(28.617187 192.533469)rotate(-90)scale(0.1 -0.1)">
      <use xlink:href="#DejaVuSans-53"/>
      <use x="63.476562" xlink:href="#DejaVuSans-74"/>
      <use x="102.685547" xlink:href="#DejaVuSans-61"/>
      <use x="163.964844" xlink:href="#DejaVuSans-74"/>
      <use x="203.173828" xlink:href="#DejaVuSans-65"/>
      <use x="264.697266" xlink:href="#DejaVuSans-20"/>
      <use x="296.484375" xlink:href="#DejaVuSans-31"/>
     </g>
    </g>
   </g>
   <g id="line2d_19">
    <path clip-path="url(#p99ed0f34aa)" d="M 73.832727 201.186217 
L 398.487273 201.186217 
L 398.487273 201.186217 
" style="fill:none;stroke:#000000;stroke-linecap:square;stroke-width:4;"/>
   </g>
   <g id="line2d_20">
    <path clip-path="url(#p99ed0f34aa)" d="M 73.832727 201.186217 
L 80.325818 201.186217 
L 80.650473 138.951529 
L 80.669952 141.268836 
L 81.079017 176.265044 
L 81.481588 193.831056 
L 81.877667 202.453663 
L 82.254266 206.389462 
L 82.604893 208.023482 
L 82.910068 208.551007 
L 83.169792 208.61526 
L 83.468474 208.430763 
L 83.968442 207.810783 
L 86.292969 204.646486 
L 86.818909 204.13446 
L 87.143564 141.621027 
L 87.163043 143.922453 
L 87.572108 178.605787 
L 87.974679 195.899517 
L 88.364265 204.191807 
L 88.734371 207.936208 
L 89.072012 209.423002 
L 89.357708 209.860609 
L 89.597952 209.878653 
L 89.890141 209.640235 
L 90.403095 208.873863 
L 92.558801 205.397125 
L 93.312 204.534452 
L 93.636655 141.982964 
L 93.656134 144.282224 
L 94.065199 178.922977 
L 94.46777 196.179725 
L 94.857356 204.440336 
L 95.227462 208.157967 
L 95.565103 209.622862 
L 95.850799 210.043638 
L 96.08455 210.051508 
L 96.376739 209.803364 
L 96.889693 209.017894 
L 99.019427 205.507642 
L 99.805091 204.588612 
L 100.129745 142.031971 
L 100.149225 144.330939 
L 100.558289 178.965926 
L 100.960861 196.217666 
L 101.350447 204.473988 
L 101.720553 208.187994 
L 102.058193 209.649924 
L 102.343889 210.06842 
L 102.577641 210.07457 
L 102.86983 209.824441 
L 103.382784 209.035892 
L 105.506025 205.525491 
L 106.298182 204.595945 
L 106.622836 142.038607 
L 106.642316 144.337535 
L 107.05138 178.971741 
L 107.453952 196.222803 
L 107.843537 204.478545 
L 108.213644 208.19206 
L 108.551284 209.653588 
L 108.83698 210.071776 
L 109.070732 210.077692 
L 109.362921 209.827295 
L 109.875875 209.038329 
L 111.999116 205.526758 
L 112.791273 204.596938 
L 113.115927 142.039505 
L 113.135407 144.338428 
L 113.544471 178.972529 
L 113.947043 196.223499 
L 114.336628 204.479162 
L 114.706735 208.19261 
L 115.044375 209.654084 
L 115.330071 210.07223 
L 115.563823 210.078115 
L 115.856012 209.827682 
L 116.368966 209.038659 
L 118.492207 205.52693 
L 119.284364 204.597073 
L 119.609018 142.039627 
L 119.628497 144.338549 
L 120.037562 178.972635 
L 120.440134 196.223593 
L 120.829719 204.479245 
L 121.199825 208.192685 
L 121.537466 209.654152 
L 121.823162 210.072292 
L 122.056913 210.078172 
L 122.349103 209.827734 
L 122.862057 209.038703 
L 124.985297 205.526953 
L 125.777455 204.597091 
L 126.102109 142.039644 
L 126.121588 144.338565 
L 126.530653 178.97265 
L 126.933225 196.223606 
L 127.32281 204.479257 
L 127.692916 208.192695 
L 128.030557 209.654161 
L 128.316253 210.0723 
L 128.550004 210.07818 
L 128.842193 209.827741 
L 129.355148 209.038709 
L 131.478388 205.526956 
L 132.270545 204.597093 
L 132.5952 142.039646 
L 132.614679 144.338567 
L 133.023744 178.972652 
L 133.426316 196.223608 
L 133.815901 204.479258 
L 134.186007 208.192696 
L 134.523648 209.654162 
L 134.809344 210.072301 
L 135.043095 210.078181 
L 135.335284 209.827742 
L 135.848239 209.03871 
L 137.971479 205.526957 
L 138.763636 204.597094 
L 139.088291 142.039646 
L 139.10777 144.338568 
L 139.516835 178.972652 
L 139.919407 196.223608 
L 140.308992 204.479258 
L 140.679098 208.192696 
L 141.016739 209.654162 
L 141.302435 210.072301 
L 141.536186 210.078181 
L 141.828375 209.827742 
L 142.341329 209.03871 
L 144.46457 205.526957 
L 145.256727 204.597094 
L 145.581382 142.039646 
L 145.600861 144.338568 
L 146.009926 178.972652 
L 146.412497 196.223608 
L 146.802083 204.479258 
L 147.172189 208.192696 
L 147.50983 209.654162 
L 147.795526 210.072301 
L 148.029277 210.078181 
L 148.321466 209.827742 
L 148.83442 209.03871 
L 150.957661 205.526957 
L 151.749818 204.597094 
L 152.074473 142.039646 
L 152.093952 144.338568 
L 152.503017 178.972652 
L 152.905588 196.223608 
L 153.295174 204.479258 
L 153.66528 208.192696 
L 154.002921 209.654162 
L 154.288617 210.072301 
L 154.522368 210.078181 
L 154.814557 209.827742 
L 155.327511 209.03871 
L 157.450752 205.526957 
L 158.242909 204.597094 
L 158.567564 142.039646 
L 158.587043 144.338568 
L 158.996108 178.972652 
L 159.398679 196.223608 
L 159.788265 204.479258 
L 160.158371 208.192696 
L 160.496012 209.654162 
L 160.781708 210.072301 
L 161.015459 210.078181 
L 161.307648 209.827742 
L 161.820602 209.03871 
L 163.943843 205.526957 
L 164.736 204.597094 
L 165.060655 142.039646 
L 165.080134 144.338568 
L 165.489199 178.972652 
L 165.89177 196.223608 
L 166.281356 204.479258 
L 166.651462 208.192696 
L 166.989103 209.654162 
L 167.274799 210.072301 
L 167.50855 210.078181 
L 167.800739 209.827742 
L 168.313693 209.03871 
L 170.436934 205.526957 
L 171.229091 204.597094 
L 171.553745 142.039646 
L 171.573225 144.338568 
L 171.982289 178.972652 
L 172.384861 196.223608 
L 172.774447 204.479258 
L 173.144553 208.192696 
L 173.482193 209.654162 
L 173.767889 210.072301 
L 174.001641 210.078181 
L 174.29383 209.827742 
L 174.806784 209.03871 
L 176.930025 205.526957 
L 177.722182 204.597094 
L 178.046836 142.039646 
L 178.066316 144.338568 
L 178.47538 178.972652 
L 178.877952 196.223608 
L 179.267537 204.479258 
L 179.637644 208.192696 
L 179.975284 209.654162 
L 180.26098 210.072301 
L 180.494732 210.078181 
L 180.786921 209.827742 
L 181.299875 209.03871 
L 183.423116 205.526957 
L 184.215273 204.597094 
L 184.539927 142.039646 
L 184.559407 144.338568 
L 184.968471 178.972652 
L 185.371043 196.223608 
L 185.760628 204.479258 
L 186.130735 208.192696 
L 186.468375 209.654162 
L 186.754071 210.072301 
L 186.987823 210.078181 
L 187.280012 209.827742 
L 187.792966 209.03871 
L 189.916207 205.526957 
L 190.708364 204.597094 
L 191.033018 142.039646 
L 191.052497 144.338568 
L 191.461562 178.972652 
L 191.864134 196.223608 
L 192.253719 204.479258 
L 192.623825 208.192696 
L 192.961466 209.654162 
L 193.247162 210.072301 
L 193.480913 210.078181 
L 193.773103 209.827742 
L 194.286057 209.03871 
L 196.409297 205.526957 
L 197.201455 204.597094 
L 197.526109 142.039646 
L 197.545588 144.338568 
L 197.954653 178.972652 
L 198.357225 196.223608 
L 198.74681 204.479258 
L 199.116916 208.192696 
L 199.454557 209.654162 
L 199.740253 210.072301 
L 199.974004 210.078181 
L 200.266193 209.827742 
L 200.779148 209.03871 
L 202.902388 205.526957 
L 203.694545 204.597094 
L 204.0192 142.039646 
L 204.038679 144.338568 
L 204.447744 178.972652 
L 204.850316 196.223608 
L 205.239901 204.479258 
L 205.610007 208.192696 
L 205.947648 209.654162 
L 206.233344 210.072301 
L 206.467095 210.078181 
L 206.759284 209.827742 
L 207.272239 209.03871 
L 209.395479 205.526957 
L 210.187636 204.597094 
L 210.512291 142.039646 
L 210.53177 144.338568 
L 210.940835 178.972652 
L 211.343407 196.223608 
L 211.732992 204.479258 
L 212.103098 208.192696 
L 212.440739 209.654162 
L 212.726435 210.072301 
L 212.960186 210.078181 
L 213.252375 209.827742 
L 213.765329 209.03871 
L 215.88857 205.526957 
L 216.680727 204.597094 
L 217.005382 142.039646 
L 217.024861 144.338568 
L 217.433926 178.972652 
L 217.836497 196.223608 
L 218.226083 204.479258 
L 218.596189 208.192696 
L 218.93383 209.654162 
L 219.219526 210.072301 
L 219.453277 210.078181 
L 219.745466 209.827742 
L 220.25842 209.03871 
L 222.381661 205.526957 
L 223.173818 204.597094 
L 223.498473 142.039646 
L 223.517952 144.338568 
L 223.927017 178.972652 
L 224.329588 196.223608 
L 224.719174 204.479258 
L 225.08928 208.192696 
L 225.426921 209.654162 
L 225.712617 210.072301 
L 225.946368 210.078181 
L 226.238557 209.827742 
L 226.751511 209.03871 
L 228.874752 205.526957 
L 229.666909 204.597094 
L 229.991564 142.039646 
L 230.011043 144.338568 
L 230.420108 178.972652 
L 230.822679 196.223608 
L 231.212265 204.479258 
L 231.582371 208.192696 
L 231.920012 209.654162 
L 232.205708 210.072301 
L 232.439459 210.078181 
L 232.731648 209.827742 
L 233.244602 209.03871 
L 235.367843 205.526957 
L 236.16 204.597094 
L 236.484655 142.039646 
L 236.504134 144.338568 
L 236.913199 178.972652 
L 237.31577 196.223608 
L 237.705356 204.479258 
L 238.075462 208.192696 
L 238.413103 209.654162 
L 238.698799 210.072301 
L 238.93255 210.078181 
L 239.224739 209.827742 
L 239.737693 209.03871 
L 241.860934 205.526957 
L 242.653091 204.597094 
L 242.977745 142.039646 
L 242.997225 144.338568 
L 243.406289 178.972652 
L 243.808861 196.223608 
L 244.198447 204.479258 
L 244.568553 208.192696 
L 244.906193 209.654162 
L 245.191889 210.072301 
L 245.425641 210.078181 
L 245.71783 209.827742 
L 246.230784 209.03871 
L 248.354025 205.526957 
L 249.146182 204.597094 
L 249.470836 142.039646 
L 249.490316 144.338568 
L 249.89938 178.972652 
L 250.301952 196.223608 
L 250.691537 204.479258 
L 251.061644 208.192696 
L 251.399284 209.654162 
L 251.68498 210.072301 
L 251.918732 210.078181 
L 252.210921 209.827742 
L 252.723875 209.03871 
L 254.847116 205.526957 
L 255.639273 204.597094 
L 255.963927 142.039646 
L 255.983407 144.338568 
L 256.392471 178.972652 
L 256.795043 196.223608 
L 257.184628 204.479258 
L 257.554735 208.192696 
L 257.892375 209.654162 
L 258.178071 210.072301 
L 258.411823 210.078181 
L 258.704012 209.827742 
L 259.216966 209.03871 
L 261.340207 205.526957 
L 262.132364 204.597094 
L 262.457018 142.039646 
L 262.476497 144.338568 
L 262.885562 178.972652 
L 263.288134 196.223608 
L 263.677719 204.479258 
L 264.047825 208.192696 
L 264.385466 209.654162 
L 264.671162 210.072301 
L 264.904913 210.078181 
L 265.197103 209.827742 
L 265.710057 209.03871 
L 267.833297 205.526957 
L 268.625455 204.597094 
L 268.950109 142.039646 
L 268.969588 144.338568 
L 269.378653 178.972652 
L 269.781225 196.223608 
L 270.17081 204.479258 
L 270.540916 208.192696 
L 270.878557 209.654162 
L 271.164253 210.072301 
L 271.398004 210.078181 
L 271.690193 209.827742 
L 272.203148 209.03871 
L 274.326388 205.526957 
L 275.118545 204.597094 
L 275.4432 142.039646 
L 275.462679 144.338568 
L 275.871744 178.972652 
L 276.274316 196.223608 
L 276.663901 204.479258 
L 277.034007 208.192696 
L 277.371648 209.654162 
L 277.657344 210.072301 
L 277.891095 210.078181 
L 278.183284 209.827742 
L 278.696239 209.03871 
L 280.819479 205.526957 
L 281.611636 204.597094 
L 281.936291 142.039646 
L 281.95577 144.338568 
L 282.364835 178.972652 
L 282.767407 196.223608 
L 283.156992 204.479258 
L 283.527098 208.192696 
L 283.864739 209.654162 
L 284.150435 210.072301 
L 284.384186 210.078181 
L 284.676375 209.827742 
L 285.189329 209.03871 
L 287.31257 205.526957 
L 288.104727 204.597094 
L 288.429382 142.039646 
L 288.448861 144.338568 
L 288.857926 178.972652 
L 289.260497 196.223608 
L 289.650083 204.479258 
L 290.020189 208.192696 
L 290.35783 209.654162 
L 290.643526 210.072301 
L 290.877277 210.078181 
L 291.169466 209.827742 
L 291.68242 209.03871 
L 293.805661 205.526957 
L 294.597818 204.597094 
L 294.922473 142.039646 
L 294.941952 144.338568 
L 295.351017 178.972652 
L 295.753588 196.223608 
L 296.143174 204.479258 
L 296.51328 208.192696 
L 296.850921 209.654162 
L 297.136617 210.072301 
L 297.370368 210.078181 
L 297.662557 209.827742 
L 298.175511 209.03871 
L 300.298752 205.526957 
L 301.090909 204.597094 
L 301.415564 142.039646 
L 301.435043 144.338568 
L 301.844108 178.972652 
L 302.246679 196.223608 
L 302.636265 204.479258 
L 303.006371 208.192696 
L 303.344012 209.654162 
L 303.629708 210.072301 
L 303.863459 210.078181 
L 304.155648 209.827742 
L 304.668602 209.03871 
L 306.791843 205.526957 
L 307.584 204.597094 
L 307.908655 142.039646 
L 307.928134 144.338568 
L 308.337199 178.972652 
L 308.73977 196.223608 
L 309.129356 204.479258 
L 309.499462 208.192696 
L 309.837103 209.654162 
L 310.122799 210.072301 
L 310.35655 210.078181 
L 310.648739 209.827742 
L 311.161693 209.03871 
L 313.284934 205.526957 
L 314.077091 204.597094 
L 314.401745 142.039646 
L 314.421225 144.338568 
L 314.830289 178.972652 
L 315.232861 196.223608 
L 315.622447 204.479258 
L 315.992553 208.192696 
L 316.330193 209.654162 
L 316.615889 210.072301 
L 316.849641 210.078181 
L 317.14183 209.827742 
L 317.654784 209.03871 
L 319.778025 205.526957 
L 320.570182 204.597094 
L 320.894836 142.039646 
L 320.914316 144.338568 
L 321.32338 178.972652 
L 321.725952 196.223608 
L 322.115537 204.479258 
L 322.485644 208.192696 
L 322.823284 209.654162 
L 323.10898 210.072301 
L 323.342732 210.078181 
L 323.634921 209.827742 
L 324.147875 209.03871 
L 326.271116 205.526957 
L 327.063273 204.597094 
L 327.387927 142.039646 
L 327.407407 144.338568 
L 327.816471 178.972652 
L 328.219043 196.223608 
L 328.608628 204.479258 
L 328.978735 208.192696 
L 329.316375 209.654162 
L 329.602071 210.072301 
L 329.835823 210.078181 
L 330.128012 209.827742 
L 330.640966 209.03871 
L 332.764207 205.526957 
L 333.556364 204.597094 
L 333.881018 142.039646 
L 333.900497 144.338568 
L 334.309562 178.972652 
L 334.712134 196.223608 
L 335.101719 204.479258 
L 335.471825 208.192696 
L 335.809466 209.654162 
L 336.095162 210.072301 
L 336.328913 210.078181 
L 336.621103 209.827742 
L 337.134057 209.03871 
L 339.257297 205.526957 
L 340.049455 204.597094 
L 340.374109 142.039646 
L 340.393588 144.338568 
L 340.802653 178.972652 
L 341.205225 196.223608 
L 341.59481 204.479258 
L 341.964916 208.192696 
L 342.302557 209.654162 
L 342.588253 210.072301 
L 342.822004 210.078181 
L 343.114193 209.827742 
L 343.627148 209.03871 
L 345.750388 205.526957 
L 346.542545 204.597094 
L 346.8672 142.039646 
L 346.886679 144.338568 
L 347.295744 178.972652 
L 347.698316 196.223608 
L 348.087901 204.479258 
L 348.458007 208.192696 
L 348.795648 209.654162 
L 349.081344 210.072301 
L 349.315095 210.078181 
L 349.607284 209.827742 
L 350.120239 209.03871 
L 352.243479 205.526957 
L 353.035636 204.597094 
L 353.360291 142.039646 
L 353.37977 144.338568 
L 353.788835 178.972652 
L 354.191407 196.223608 
L 354.580992 204.479258 
L 354.951098 208.192696 
L 355.288739 209.654162 
L 355.574435 210.072301 
L 355.808186 210.078181 
L 356.100375 209.827742 
L 356.613329 209.03871 
L 358.73657 205.526957 
L 359.528727 204.597094 
L 359.853382 142.039646 
L 359.872861 144.338568 
L 360.281926 178.972652 
L 360.684497 196.223608 
L 361.074083 204.479258 
L 361.444189 208.192696 
L 361.78183 209.654162 
L 362.067526 210.072301 
L 362.301277 210.078181 
L 362.593466 209.827742 
L 363.10642 209.03871 
L 365.229661 205.526957 
L 366.021818 204.597094 
L 366.346473 142.039646 
L 366.365952 144.338568 
L 366.775017 178.972652 
L 367.177588 196.223608 
L 367.567174 204.479258 
L 367.93728 208.192696 
L 368.274921 209.654162 
L 368.560617 210.072301 
L 368.794368 210.078181 
L 369.086557 209.827742 
L 369.599511 209.03871 
L 371.722752 205.526957 
L 372.514909 204.597094 
L 372.839564 142.039646 
L 372.859043 144.338568 
L 373.268108 178.972652 
L 373.670679 196.223608 
L 374.060265 204.479258 
L 374.430371 208.192696 
L 374.768012 209.654162 
L 375.053708 210.072301 
L 375.287459 210.078181 
L 375.579648 209.827742 
L 376.092602 209.03871 
L 378.215843 205.526957 
L 379.008 204.597094 
L 379.332655 142.039646 
L 379.352134 144.338568 
L 379.761199 178.972652 
L 380.16377 196.223608 
L 380.553356 204.479258 
L 380.923462 208.192696 
L 381.261103 209.654162 
L 381.546799 210.072301 
L 381.78055 210.078181 
L 382.072739 209.827742 
L 382.585693 209.03871 
L 384.708934 205.526957 
L 385.501091 204.597094 
L 385.825745 142.039646 
L 385.845225 144.338568 
L 386.254289 178.972652 
L 386.656861 196.223608 
L 387.046447 204.479258 
L 387.416553 208.192696 
L 387.754193 209.654162 
L 388.039889 210.072301 
L 388.273641 210.078181 
L 388.56583 209.827742 
L 389.078784 209.03871 
L 391.202025 205.526957 
L 391.994182 204.597094 
L 392.318836 142.039646 
L 392.338316 144.338568 
L 392.74738 178.972652 
L 393.149952 196.223608 
L 393.539537 204.479258 
L 393.909644 208.192696 
L 394.247284 209.654162 
L 394.53298 210.072301 
L 394.766732 210.078181 
L 395.058921 209.827742 
L 395.571875 209.03871 
L 397.695116 205.526957 
L 398.487273 204.597094 
L 398.487273 204.597094 
" style="fill:none;stroke:#ff0000;stroke-linecap:square;stroke-width:1.5;"/>
   </g>
   <g id="patch_8">
    <path d="M 57.6 213.662118 
L 57.6 135.393882 
" style="fill:none;stroke:#000000;stroke-linecap:square;stroke-linejoin:miter;stroke-width:0.8;"/>
   </g>
   <g id="patch_9">
    <path d="M 414.72 213.662118 
L 414.72 135.393882 
" style="fill:none;stroke:#000000;stroke-linecap:square;stroke-linejoin:miter;stroke-width:0.8;"/>
   </g>
   <g id="patch_10">
    <path d="M 57.6 213.662118 
L 414.72 213.662118 
" style="fill:none;stroke:#000000;stroke-linecap:square;stroke-linejoin:miter;stroke-width:0.8;"/>
   </g>
   <g id="patch_11">
    <path d="M 57.6 135.393882 
L 414.72 135.393882 
" style="fill:none;stroke:#000000;stroke-linecap:square;stroke-linejoin:miter;stroke-width:0.8;"/>
   </g>
   <g id="legend_1">
    <g id="patch_12">
     <path d="M 353.0325 172.750132 
L 407.72 172.750132 
Q 409.72 172.750132 409.72 170.750132 
L 409.72 142.393882 
Q 409.72 140.393882 407.72 140.393882 
L 353.0325 140.393882 
Q 351.0325 140.393882 351.0325 142.393882 
L 351.0325 170.750132 
Q 351.0325 172.750132 353.0325 172.750132 
z
" style="fill:#ffffff;opacity:0.8;stroke:#cccccc;stroke-linejoin:miter;"/>
    </g>
    <g id="line2d_21">
     <path d="M 355.0325 148.49232 
L 375.0325 148.49232 
" style="fill:none;stroke:#000000;stroke-linecap:square;stroke-width:4;"/>
    </g>
    <g id="line2d_22"/>
    <g id="text_19">
     <!-- Pred -->
     <defs>
      <path d="M 19.671875 64.796875 
L 19.671875 37.40625 
L 32.078125 37.40625 
Q 38.96875 37.40625 42.71875 40.96875 
Q 46.484375 44.53125 46.484375 51.125 
Q 46.484375 57.671875 42.71875 61.234375 
Q 38.96875 64.796875 32.078125 64.796875 
z
M 9.8125 72.90625 
L 32.078125 72.90625 
Q 44.34375 72.90625 50.609375 67.359375 
Q 56.890625 61.8125 56.890625 51.125 
Q 56.890625 40.328125 50.609375 34.8125 
Q 44.34375 29.296875 32.078125 29.296875 
L 19.671875 29.296875 
L 19.671875 0 
L 9.8125 0 
z
" id="DejaVuSans-50"/>
      <path d="M 41.109375 46.296875 
Q 39.59375 47.171875 37.8125 47.578125 
Q 36.03125 48 33.890625 48 
Q 26.265625 48 22.1875 43.046875 
Q 18.109375 38.09375 18.109375 28.8125 
L 18.109375 0 
L 9.078125 0 
L 9.078125 54.6875 
L 18.109375 54.6875 
L 18.109375 46.1875 
Q 20.953125 51.171875 25.484375 53.578125 
Q 30.03125 56 36.53125 56 
Q 37.453125 56 38.578125 55.875 
Q 39.703125 55.765625 41.0625 55.515625 
z
" id="DejaVuSans-72"/>
      <path d="M 45.40625 46.390625 
L 45.40625 75.984375 
L 54.390625 75.984375 
L 54.390625 0 
L 45.40625 0 
L 45.40625 8.203125 
Q 42.578125 3.328125 38.25 0.953125 
Q 33.9375 -1.421875 27.875 -1.421875 
Q 17.96875 -1.421875 11.734375 6.484375 
Q 5.515625 14.40625 5.515625 27.296875 
Q 5.515625 40.1875 11.734375 48.09375 
Q 17.96875 56 27.875 56 
Q 33.9375 56 38.25 53.625 
Q 42.578125 51.265625 45.40625 46.390625 
z
M 14.796875 27.296875 
Q 14.796875 17.390625 18.875 11.75 
Q 22.953125 6.109375 30.078125 6.109375 
Q 37.203125 6.109375 41.296875 11.75 
Q 45.40625 17.390625 45.40625 27.296875 
Q 45.40625 37.203125 41.296875 42.84375 
Q 37.203125 48.484375 30.078125 48.484375 
Q 22.953125 48.484375 18.875 42.84375 
Q 14.796875 37.203125 14.796875 27.296875 
z
" id="DejaVuSans-64"/>
     </defs>
     <g transform="translate(383.0325 151.99232)scale(0.1 -0.1)">
      <use xlink:href="#DejaVuSans-50"/>
      <use x="60.287109" xlink:href="#DejaVuSans-72"/>
      <use x="101.369141" xlink:href="#DejaVuSans-65"/>
      <use x="162.892578" xlink:href="#DejaVuSans-64"/>
     </g>
    </g>
    <g id="line2d_23">
     <path d="M 355.0325 163.170445 
L 375.0325 163.170445 
" style="fill:none;stroke:#ff0000;stroke-linecap:square;stroke-width:1.5;"/>
    </g>
    <g id="line2d_24"/>
    <g id="text_20">
     <!-- True -->
     <defs>
      <path d="M -0.296875 72.90625 
L 61.375 72.90625 
L 61.375 64.59375 
L 35.5 64.59375 
L 35.5 0 
L 25.59375 0 
L 25.59375 64.59375 
L -0.296875 64.59375 
z
" id="DejaVuSans-54"/>
      <path d="M 8.5 21.578125 
L 8.5 54.6875 
L 17.484375 54.6875 
L 17.484375 21.921875 
Q 17.484375 14.15625 20.5 10.265625 
Q 23.53125 6.390625 29.59375 6.390625 
Q 36.859375 6.390625 41.078125 11.03125 
Q 45.3125 15.671875 45.3125 23.6875 
L 45.3125 54.6875 
L 54.296875 54.6875 
L 54.296875 0 
L 45.3125 0 
L 45.3125 8.40625 
Q 42.046875 3.421875 37.71875 1 
Q 33.40625 -1.421875 27.6875 -1.421875 
Q 18.265625 -1.421875 13.375 4.4375 
Q 8.5 10.296875 8.5 21.578125 
z
M 31.109375 56 
z
" id="DejaVuSans-75"/>
     </defs>
     <g transform="translate(383.0325 166.670445)scale(0.1 -0.1)">
      <use xlink:href="#DejaVuSans-54"/>
      <use x="60.865234" xlink:href="#DejaVuSans-72"/>
      <use x="101.978516" xlink:href="#DejaVuSans-75"/>
      <use x="165.357422" xlink:href="#DejaVuSans-65"/>
     </g>
    </g>
   </g>
  </g>
  <g id="axes_3">
   <g id="patch_13">
    <path d="M 57.6 307.584 
L 414.72 307.584 
L 414.72 229.315765 
L 57.6 229.315765 
z
" style="fill:#ffffff;"/>
   </g>
   <g id="matplotlib.axis_5">
    <g id="xtick_13">
     <g id="line2d_25">
      <g>
       <use style="stroke:#000000;stroke-width:0.8;" x="73.832727" xlink:href="#m56dba3d5aa" y="307.584"/>
      </g>
     </g>
     <g id="text_21">
      <!-- 0 -->
      <g transform="translate(70.651477 322.182437)scale(0.1 -0.1)">
       <use xlink:href="#DejaVuSans-30"/>
      </g>
     </g>
    </g>
    <g id="xtick_14">
     <g id="line2d_26">
      <g>
       <use style="stroke:#000000;stroke-width:0.8;" x="138.763636" xlink:href="#m56dba3d5aa" y="307.584"/>
      </g>
     </g>
     <g id="text_22">
      <!-- 10 -->
      <g transform="translate(132.401136 322.182437)scale(0.1 -0.1)">
       <use xlink:href="#DejaVuSans-31"/>
       <use x="63.623047" xlink:href="#DejaVuSans-30"/>
      </g>
     </g>
    </g>
    <g id="xtick_15">
     <g id="line2d_27">
      <g>
       <use style="stroke:#000000;stroke-width:0.8;" x="203.694545" xlink:href="#m56dba3d5aa" y="307.584"/>
      </g>
     </g>
     <g id="text_23">
      <!-- 20 -->
      <g transform="translate(197.332045 322.182437)scale(0.1 -0.1)">
       <use xlink:href="#DejaVuSans-32"/>
       <use x="63.623047" xlink:href="#DejaVuSans-30"/>
      </g>
     </g>
    </g>
    <g id="xtick_16">
     <g id="line2d_28">
      <g>
       <use style="stroke:#000000;stroke-width:0.8;" x="268.625455" xlink:href="#m56dba3d5aa" y="307.584"/>
      </g>
     </g>
     <g id="text_24">
      <!-- 30 -->
      <g transform="translate(262.262955 322.182437)scale(0.1 -0.1)">
       <use xlink:href="#DejaVuSans-33"/>
       <use x="63.623047" xlink:href="#DejaVuSans-30"/>
      </g>
     </g>
    </g>
    <g id="xtick_17">
     <g id="line2d_29">
      <g>
       <use style="stroke:#000000;stroke-width:0.8;" x="333.556364" xlink:href="#m56dba3d5aa" y="307.584"/>
      </g>
     </g>
     <g id="text_25">
      <!-- 40 -->
      <g transform="translate(327.193864 322.182437)scale(0.1 -0.1)">
       <use xlink:href="#DejaVuSans-34"/>
       <use x="63.623047" xlink:href="#DejaVuSans-30"/>
      </g>
     </g>
    </g>
    <g id="xtick_18">
     <g id="line2d_30">
      <g>
       <use style="stroke:#000000;stroke-width:0.8;" x="398.487273" xlink:href="#m56dba3d5aa" y="307.584"/>
      </g>
     </g>
     <g id="text_26">
      <!-- 50 -->
      <g transform="translate(392.124773 322.182437)scale(0.1 -0.1)">
       <use xlink:href="#DejaVuSans-35"/>
       <use x="63.623047" xlink:href="#DejaVuSans-30"/>
      </g>
     </g>
    </g>
    <g id="text_27">
     <!-- Time -->
     <defs>
      <path d="M 9.421875 54.6875 
L 18.40625 54.6875 
L 18.40625 0 
L 9.421875 0 
z
M 9.421875 75.984375 
L 18.40625 75.984375 
L 18.40625 64.59375 
L 9.421875 64.59375 
z
" id="DejaVuSans-69"/>
      <path d="M 52 44.1875 
Q 55.375 50.25 60.0625 53.125 
Q 64.75 56 71.09375 56 
Q 79.640625 56 84.28125 50.015625 
Q 88.921875 44.046875 88.921875 33.015625 
L 88.921875 0 
L 79.890625 0 
L 79.890625 32.71875 
Q 79.890625 40.578125 77.09375 44.375 
Q 74.3125 48.1875 68.609375 48.1875 
Q 61.625 48.1875 57.5625 43.546875 
Q 53.515625 38.921875 53.515625 30.90625 
L 53.515625 0 
L 44.484375 0 
L 44.484375 32.71875 
Q 44.484375 40.625 41.703125 44.40625 
Q 38.921875 48.1875 33.109375 48.1875 
Q 26.21875 48.1875 22.15625 43.53125 
Q 18.109375 38.875 18.109375 30.90625 
L 18.109375 0 
L 9.078125 0 
L 9.078125 54.6875 
L 18.109375 54.6875 
L 18.109375 46.1875 
Q 21.1875 51.21875 25.484375 53.609375 
Q 29.78125 56 35.6875 56 
Q 41.65625 56 45.828125 52.96875 
Q 50 49.953125 52 44.1875 
z
" id="DejaVuSans-6d"/>
     </defs>
     <g transform="translate(223.7725 335.860562)scale(0.1 -0.1)">
      <use xlink:href="#DejaVuSans-54"/>
      <use x="61.037109" xlink:href="#DejaVuSans-69"/>
      <use x="88.820312" xlink:href="#DejaVuSans-6d"/>
      <use x="186.232422" xlink:href="#DejaVuSans-65"/>
     </g>
    </g>
   </g>
   <g id="matplotlib.axis_6">
    <g id="ytick_5">
     <g id="line2d_31">
      <g>
       <use style="stroke:#000000;stroke-width:0.8;" x="57.6" xlink:href="#m4e764d1422" y="304.026353"/>
      </g>
     </g>
     <g id="text_28">
      <!-- 0 -->
      <g transform="translate(44.2375 307.825572)scale(0.1 -0.1)">
       <use xlink:href="#DejaVuSans-30"/>
      </g>
     </g>
    </g>
    <g id="ytick_6">
     <g id="line2d_32">
      <g>
       <use style="stroke:#000000;stroke-width:0.8;" x="57.6" xlink:href="#m4e764d1422" y="268.449882"/>
      </g>
     </g>
     <g id="text_29">
      <!-- 5 -->
      <g transform="translate(44.2375 272.249101)scale(0.1 -0.1)">
       <use xlink:href="#DejaVuSans-35"/>
      </g>
     </g>
    </g>
    <g id="ytick_7">
     <g id="line2d_33">
      <g>
       <use style="stroke:#000000;stroke-width:0.8;" x="57.6" xlink:href="#m4e764d1422" y="232.873412"/>
      </g>
     </g>
     <g id="text_30">
      <!-- 10 -->
      <g transform="translate(37.875 236.672631)scale(0.1 -0.1)">
       <use xlink:href="#DejaVuSans-31"/>
       <use x="63.623047" xlink:href="#DejaVuSans-30"/>
      </g>
     </g>
    </g>
    <g id="text_31">
     <!-- Control Input -->
     <defs>
      <path d="M 64.40625 67.28125 
L 64.40625 56.890625 
Q 59.421875 61.53125 53.78125 63.8125 
Q 48.140625 66.109375 41.796875 66.109375 
Q 29.296875 66.109375 22.65625 58.46875 
Q 16.015625 50.828125 16.015625 36.375 
Q 16.015625 21.96875 22.65625 14.328125 
Q 29.296875 6.6875 41.796875 6.6875 
Q 48.140625 6.6875 53.78125 8.984375 
Q 59.421875 11.28125 64.40625 15.921875 
L 64.40625 5.609375 
Q 59.234375 2.09375 53.4375 0.328125 
Q 47.65625 -1.421875 41.21875 -1.421875 
Q 24.65625 -1.421875 15.125 8.703125 
Q 5.609375 18.84375 5.609375 36.375 
Q 5.609375 53.953125 15.125 64.078125 
Q 24.65625 74.21875 41.21875 74.21875 
Q 47.75 74.21875 53.53125 72.484375 
Q 59.328125 70.75 64.40625 67.28125 
z
" id="DejaVuSans-43"/>
      <path d="M 30.609375 48.390625 
Q 23.390625 48.390625 19.1875 42.75 
Q 14.984375 37.109375 14.984375 27.296875 
Q 14.984375 17.484375 19.15625 11.84375 
Q 23.34375 6.203125 30.609375 6.203125 
Q 37.796875 6.203125 41.984375 11.859375 
Q 46.1875 17.53125 46.1875 27.296875 
Q 46.1875 37.015625 41.984375 42.703125 
Q 37.796875 48.390625 30.609375 48.390625 
z
M 30.609375 56 
Q 42.328125 56 49.015625 48.375 
Q 55.71875 40.765625 55.71875 27.296875 
Q 55.71875 13.875 49.015625 6.21875 
Q 42.328125 -1.421875 30.609375 -1.421875 
Q 18.84375 -1.421875 12.171875 6.21875 
Q 5.515625 13.875 5.515625 27.296875 
Q 5.515625 40.765625 12.171875 48.375 
Q 18.84375 56 30.609375 56 
z
" id="DejaVuSans-6f"/>
      <path d="M 54.890625 33.015625 
L 54.890625 0 
L 45.90625 0 
L 45.90625 32.71875 
Q 45.90625 40.484375 42.875 44.328125 
Q 39.84375 48.1875 33.796875 48.1875 
Q 26.515625 48.1875 22.3125 43.546875 
Q 18.109375 38.921875 18.109375 30.90625 
L 18.109375 0 
L 9.078125 0 
L 9.078125 54.6875 
L 18.109375 54.6875 
L 18.109375 46.1875 
Q 21.34375 51.125 25.703125 53.5625 
Q 30.078125 56 35.796875 56 
Q 45.21875 56 50.046875 50.171875 
Q 54.890625 44.34375 54.890625 33.015625 
z
" id="DejaVuSans-6e"/>
      <path d="M 9.421875 75.984375 
L 18.40625 75.984375 
L 18.40625 0 
L 9.421875 0 
z
" id="DejaVuSans-6c"/>
      <path d="M 9.8125 72.90625 
L 19.671875 72.90625 
L 19.671875 0 
L 9.8125 0 
z
" id="DejaVuSans-49"/>
      <path d="M 18.109375 8.203125 
L 18.109375 -20.796875 
L 9.078125 -20.796875 
L 9.078125 54.6875 
L 18.109375 54.6875 
L 18.109375 46.390625 
Q 20.953125 51.265625 25.265625 53.625 
Q 29.59375 56 35.59375 56 
Q 45.5625 56 51.78125 48.09375 
Q 58.015625 40.1875 58.015625 27.296875 
Q 58.015625 14.40625 51.78125 6.484375 
Q 45.5625 -1.421875 35.59375 -1.421875 
Q 29.59375 -1.421875 25.265625 0.953125 
Q 20.953125 3.328125 18.109375 8.203125 
z
M 48.6875 27.296875 
Q 48.6875 37.203125 44.609375 42.84375 
Q 40.53125 48.484375 33.40625 48.484375 
Q 26.265625 48.484375 22.1875 42.84375 
Q 18.109375 37.203125 18.109375 27.296875 
Q 18.109375 17.390625 22.1875 11.75 
Q 26.265625 6.109375 33.40625 6.109375 
Q 40.53125 6.109375 44.609375 11.75 
Q 48.6875 17.390625 48.6875 27.296875 
z
" id="DejaVuSans-70"/>
     </defs>
     <g transform="translate(31.795312 301.167851)rotate(-90)scale(0.1 -0.1)">
      <use xlink:href="#DejaVuSans-43"/>
      <use x="69.824219" xlink:href="#DejaVuSans-6f"/>
      <use x="131.005859" xlink:href="#DejaVuSans-6e"/>
      <use x="194.384766" xlink:href="#DejaVuSans-74"/>
      <use x="233.59375" xlink:href="#DejaVuSans-72"/>
      <use x="274.675781" xlink:href="#DejaVuSans-6f"/>
      <use x="335.857422" xlink:href="#DejaVuSans-6c"/>
      <use x="363.640625" xlink:href="#DejaVuSans-20"/>
      <use x="395.427734" xlink:href="#DejaVuSans-49"/>
      <use x="424.919922" xlink:href="#DejaVuSans-6e"/>
      <use x="488.298828" xlink:href="#DejaVuSans-70"/>
      <use x="551.775391" xlink:href="#DejaVuSans-75"/>
      <use x="615.154297" xlink:href="#DejaVuSans-74"/>
     </g>
    </g>
   </g>
   <g id="line2d_34">
    <path clip-path="url(#p333def8df8)" d="M 73.832727 304.026353 
L 80.325818 304.026353 
L 80.442694 232.873412 
L 80.650473 232.873412 
L 80.767348 304.026353 
L 86.818909 304.026353 
L 86.935785 232.873412 
L 87.143564 232.873412 
L 87.260439 304.026353 
L 93.312 304.026353 
L 93.428876 232.873412 
L 93.636655 232.873412 
L 93.75353 304.026353 
L 99.805091 304.026353 
L 99.921967 232.873412 
L 100.129745 232.873412 
L 100.246621 304.026353 
L 106.298182 304.026353 
L 106.415057 232.873412 
L 106.622836 232.873412 
L 106.739712 304.026353 
L 112.791273 304.026353 
L 112.908148 232.873412 
L 113.115927 232.873412 
L 113.232803 304.026353 
L 119.284364 304.026353 
L 119.401239 232.873412 
L 119.609018 232.873412 
L 119.725894 304.026353 
L 125.777455 304.026353 
L 125.89433 232.873412 
L 126.102109 232.873412 
L 126.218985 304.026353 
L 132.270545 304.026353 
L 132.387421 232.873412 
L 132.5952 232.873412 
L 132.712076 304.026353 
L 138.763636 304.026353 
L 138.880512 232.873412 
L 139.088291 232.873412 
L 139.205167 304.026353 
L 145.256727 304.026353 
L 145.373603 232.873412 
L 145.581382 232.873412 
L 145.698257 304.026353 
L 151.749818 304.026353 
L 151.866694 232.873412 
L 152.074473 232.873412 
L 152.191348 304.026353 
L 158.242909 304.026353 
L 158.359785 232.873412 
L 158.567564 232.873412 
L 158.684439 304.026353 
L 164.736 304.026353 
L 164.852876 232.873412 
L 165.060655 232.873412 
L 165.17753 304.026353 
L 171.229091 304.026353 
L 171.345967 232.873412 
L 171.553745 232.873412 
L 171.670621 304.026353 
L 177.722182 304.026353 
L 177.839057 232.873412 
L 178.046836 232.873412 
L 178.163712 304.026353 
L 184.215273 304.026353 
L 184.332148 232.873412 
L 184.539927 232.873412 
L 184.656803 304.026353 
L 190.708364 304.026353 
L 190.825239 232.873412 
L 191.033018 232.873412 
L 191.149894 304.026353 
L 197.201455 304.026353 
L 197.31833 232.873412 
L 197.526109 232.873412 
L 197.642985 304.026353 
L 203.694545 304.026353 
L 203.811421 232.873412 
L 204.0192 232.873412 
L 204.136076 304.026353 
L 210.187636 304.026353 
L 210.304512 232.873412 
L 210.512291 232.873412 
L 210.629167 304.026353 
L 216.680727 304.026353 
L 216.797603 232.873412 
L 217.005382 232.873412 
L 217.122257 304.026353 
L 223.173818 304.026353 
L 223.290694 232.873412 
L 223.498473 232.873412 
L 223.615348 304.026353 
L 229.666909 304.026353 
L 229.783785 232.873412 
L 229.991564 232.873412 
L 230.108439 304.026353 
L 236.16 304.026353 
L 236.276876 232.873412 
L 236.484655 232.873412 
L 236.60153 304.026353 
L 242.653091 304.026353 
L 242.769967 232.873412 
L 242.977745 232.873412 
L 243.094621 304.026353 
L 249.146182 304.026353 
L 249.263057 232.873412 
L 249.470836 232.873412 
L 249.587712 304.026353 
L 255.639273 304.026353 
L 255.756148 232.873412 
L 255.963927 232.873412 
L 256.080803 304.026353 
L 262.132364 304.026353 
L 262.249239 232.873412 
L 262.457018 232.873412 
L 262.573894 304.026353 
L 268.625455 304.026353 
L 268.74233 232.873412 
L 268.950109 232.873412 
L 269.066985 304.026353 
L 275.118545 304.026353 
L 275.235421 232.873412 
L 275.4432 232.873412 
L 275.560076 304.026353 
L 281.611636 304.026353 
L 281.728512 232.873412 
L 281.936291 232.873412 
L 282.053167 304.026353 
L 288.104727 304.026353 
L 288.221603 232.873412 
L 288.429382 232.873412 
L 288.546257 304.026353 
L 294.597818 304.026353 
L 294.714694 232.873412 
L 294.922473 232.873412 
L 295.039348 304.026353 
L 301.090909 304.026353 
L 301.207785 232.873412 
L 301.415564 232.873412 
L 301.532439 304.026353 
L 307.584 304.026353 
L 307.700876 232.873412 
L 307.908655 232.873412 
L 308.02553 304.026353 
L 314.077091 304.026353 
L 314.193967 232.873412 
L 314.401745 232.873412 
L 314.518621 304.026353 
L 320.570182 304.026353 
L 320.687057 232.873412 
L 320.894836 232.873412 
L 321.011712 304.026353 
L 327.063273 304.026353 
L 327.180148 232.873412 
L 327.387927 232.873412 
L 327.504803 304.026353 
L 333.556364 304.026353 
L 333.673239 232.873412 
L 333.881018 232.873412 
L 333.997894 304.026353 
L 340.049455 304.026353 
L 340.16633 232.873412 
L 340.374109 232.873412 
L 340.490985 304.026353 
L 346.542545 304.026353 
L 346.659421 232.873412 
L 346.8672 232.873412 
L 346.984076 304.026353 
L 353.035636 304.026353 
L 353.152512 232.873412 
L 353.360291 232.873412 
L 353.477167 304.026353 
L 359.528727 304.026353 
L 359.645603 232.873412 
L 359.853382 232.873412 
L 359.970257 304.026353 
L 366.021818 304.026353 
L 366.138694 232.873412 
L 366.346473 232.873412 
L 366.463348 304.026353 
L 372.514909 304.026353 
L 372.631785 232.873412 
L 372.839564 232.873412 
L 372.956439 304.026353 
L 379.008 304.026353 
L 379.124876 232.873412 
L 379.332655 232.873412 
L 379.44953 304.026353 
L 385.501091 304.026353 
L 385.617967 232.873412 
L 385.825745 232.873412 
L 385.942621 304.026353 
L 391.994182 304.026353 
L 392.111057 232.873412 
L 392.318836 232.873412 
L 392.435712 304.026353 
L 398.487273 304.026353 
L 398.487273 304.026353 
" style="fill:none;stroke:#000000;stroke-linecap:square;stroke-width:1.5;"/>
   </g>
   <g id="patch_14">
    <path d="M 57.6 307.584 
L 57.6 229.315765 
" style="fill:none;stroke:#000000;stroke-linecap:square;stroke-linejoin:miter;stroke-width:0.8;"/>
   </g>
   <g id="patch_15">
    <path d="M 414.72 307.584 
L 414.72 229.315765 
" style="fill:none;stroke:#000000;stroke-linecap:square;stroke-linejoin:miter;stroke-width:0.8;"/>
   </g>
   <g id="patch_16">
    <path d="M 57.6 307.584 
L 414.72 307.584 
" style="fill:none;stroke:#000000;stroke-linecap:square;stroke-linejoin:miter;stroke-width:0.8;"/>
   </g>
   <g id="patch_17">
    <path d="M 57.6 229.315765 
L 414.72 229.315765 
" style="fill:none;stroke:#000000;stroke-linecap:square;stroke-linejoin:miter;stroke-width:0.8;"/>
   </g>
   <g id="legend_2">
    <g id="patch_18">
     <path d="M 349.82625 251.99389 
L 407.72 251.99389 
Q 409.72 251.99389 409.72 249.99389 
L 409.72 236.315765 
Q 409.72 234.315765 407.72 234.315765 
L 349.82625 234.315765 
Q 347.82625 234.315765 347.82625 236.315765 
L 347.82625 249.99389 
Q 347.82625 251.99389 349.82625 251.99389 
z
" style="fill:#ffffff;opacity:0.8;stroke:#cccccc;stroke-linejoin:miter;"/>
    </g>
    <g id="line2d_35">
     <path d="M 351.82625 242.414202 
L 371.82625 242.414202 
" style="fill:none;stroke:#000000;stroke-linecap:square;stroke-width:1.5;"/>
    </g>
    <g id="line2d_36"/>
    <g id="text_32">
     <!-- Input -->
     <g transform="translate(379.82625 245.914202)scale(0.1 -0.1)">
      <use xlink:href="#DejaVuSans-49"/>
      <use x="29.492188" xlink:href="#DejaVuSans-6e"/>
      <use x="92.871094" xlink:href="#DejaVuSans-70"/>
      <use x="156.347656" xlink:href="#DejaVuSans-75"/>
      <use x="219.726562" xlink:href="#DejaVuSans-74"/>
     </g>
    </g>
   </g>
  </g>
 </g>
 <defs>
  <clipPath id="p013e6f12fc">
   <rect height="78.268235" width="357.12" x="57.6" y="41.472"/>
  </clipPath>
  <clipPath id="p99ed0f34aa">
   <rect height="78.268235" width="357.12" x="57.6" y="135.393882"/>
  </clipPath>
  <clipPath id="p333def8df8">
   <rect height="78.268235" width="357.12" x="57.6" y="229.315765"/>
  </clipPath>
 </defs>
</svg>
