<?xml version="1.0" encoding="utf-8" standalone="no"?>
<!DOCTYPE svg PUBLIC "-//W3C//DTD SVG 1.1//EN"
  "http://www.w3.org/Graphics/SVG/1.1/DTD/svg11.dtd">
<!-- Created with matplotlib (http://matplotlib.org/) -->
<svg height="345.6pt" version="1.1" viewBox="0 0 460.8 345.6" width="460.8pt" xmlns="http://www.w3.org/2000/svg" xmlns:xlink="http://www.w3.org/1999/xlink">
 <defs>
  <style type="text/css">
*{stroke-linecap:butt;stroke-linejoin:round;}
  </style>
 </defs>
 <g id="figure_1">
  <g id="patch_1">
   <path d="M 0 345.6 
L 460.8 345.6 
L 460.8 0 
L 0 0 
z
" style="fill:#ffffff;"/>
  </g>
  <g id="axes_1">
   <g id="patch_2">
    <path d="M 57.6 307.584 
L 414.72 307.584 
L 414.72 41.472 
L 57.6 41.472 
z
" style="fill:#ffffff;"/>
   </g>
   <g id="matplotlib.axis_1">
    <g id="xtick_1">
     <g id="line2d_1">
      <path clip-path="url(#pa56f6c3358)" d="M 57.591072 307.584 
L 57.591072 41.472 
" style="fill:none;stroke:#b0b0b0;stroke-linecap:square;stroke-width:0.8;"/>
     </g>
     <g id="line2d_2">
      <defs>
       <path d="M 0 0 
L 0 3.5 
" id="m2a5cca19c1" style="stroke:#000000;stroke-width:0.8;"/>
      </defs>
      <g>
       <use style="stroke:#000000;stroke-width:0.8;" x="57.591072" xlink:href="#m2a5cca19c1" y="307.584"/>
      </g>
     </g>
     <g id="text_1">
      <!-- 0 -->
      <defs>
       <path d="M 31.78125 66.40625 
Q 24.171875 66.40625 20.328125 58.90625 
Q 16.5 51.421875 16.5 36.375 
Q 16.5 21.390625 20.328125 13.890625 
Q 24.171875 6.390625 31.78125 6.390625 
Q 39.453125 6.390625 43.28125 13.890625 
Q 47.125 21.390625 47.125 36.375 
Q 47.125 51.421875 43.28125 58.90625 
Q 39.453125 66.40625 31.78125 66.40625 
z
M 31.78125 74.21875 
Q 44.046875 74.21875 50.515625 64.515625 
Q 56.984375 54.828125 56.984375 36.375 
Q 56.984375 17.96875 50.515625 8.265625 
Q 44.046875 -1.421875 31.78125 -1.421875 
Q 19.53125 -1.421875 13.0625 8.265625 
Q 6.59375 17.96875 6.59375 36.375 
Q 6.59375 54.828125 13.0625 64.515625 
Q 19.53125 74.21875 31.78125 74.21875 
z
" id="DejaVuSans-30"/>
      </defs>
      <g transform="translate(54.409822 322.182437)scale(0.1 -0.1)">
       <use xlink:href="#DejaVuSans-30"/>
      </g>
     </g>
    </g>
    <g id="xtick_2">
     <g id="line2d_3">
      <path clip-path="url(#pa56f6c3358)" d="M 102.232188 307.584 
L 102.232188 41.472 
" style="fill:none;stroke:#b0b0b0;stroke-linecap:square;stroke-width:0.8;"/>
     </g>
     <g id="line2d_4">
      <g>
       <use style="stroke:#000000;stroke-width:0.8;" x="102.232188" xlink:href="#m2a5cca19c1" y="307.584"/>
      </g>
     </g>
     <g id="text_2">
      <!-- 5000 -->
      <defs>
       <path d="M 10.796875 72.90625 
L 49.515625 72.90625 
L 49.515625 64.59375 
L 19.828125 64.59375 
L 19.828125 46.734375 
Q 21.96875 47.46875 24.109375 47.828125 
Q 26.265625 48.1875 28.421875 48.1875 
Q 40.625 48.1875 47.75 41.5 
Q 54.890625 34.8125 54.890625 23.390625 
Q 54.890625 11.625 47.5625 5.09375 
Q 40.234375 -1.421875 26.90625 -1.421875 
Q 22.3125 -1.421875 17.546875 -0.640625 
Q 12.796875 0.140625 7.71875 1.703125 
L 7.71875 11.625 
Q 12.109375 9.234375 16.796875 8.0625 
Q 21.484375 6.890625 26.703125 6.890625 
Q 35.15625 6.890625 40.078125 11.328125 
Q 45.015625 15.765625 45.015625 23.390625 
Q 45.015625 31 40.078125 35.4375 
Q 35.15625 39.890625 26.703125 39.890625 
Q 22.75 39.890625 18.8125 39.015625 
Q 14.890625 38.140625 10.796875 36.28125 
z
" id="DejaVuSans-35"/>
      </defs>
      <g transform="translate(89.507188 322.182437)scale(0.1 -0.1)">
       <use xlink:href="#DejaVuSans-35"/>
       <use x="63.623047" xlink:href="#DejaVuSans-30"/>
       <use x="127.246094" xlink:href="#DejaVuSans-30"/>
       <use x="190.869141" xlink:href="#DejaVuSans-30"/>
      </g>
     </g>
    </g>
    <g id="xtick_3">
     <g id="line2d_5">
      <path clip-path="url(#pa56f6c3358)" d="M 146.873304 307.584 
L 146.873304 41.472 
" style="fill:none;stroke:#b0b0b0;stroke-linecap:square;stroke-width:0.8;"/>
     </g>
     <g id="line2d_6">
      <g>
       <use style="stroke:#000000;stroke-width:0.8;" x="146.873304" xlink:href="#m2a5cca19c1" y="307.584"/>
      </g>
     </g>
     <g id="text_3">
      <!-- 10000 -->
      <defs>
       <path d="M 12.40625 8.296875 
L 28.515625 8.296875 
L 28.515625 63.921875 
L 10.984375 60.40625 
L 10.984375 69.390625 
L 28.421875 72.90625 
L 38.28125 72.90625 
L 38.28125 8.296875 
L 54.390625 8.296875 
L 54.390625 0 
L 12.40625 0 
z
" id="DejaVuSans-31"/>
      </defs>
      <g transform="translate(130.967054 322.182437)scale(0.1 -0.1)">
       <use xlink:href="#DejaVuSans-31"/>
       <use x="63.623047" xlink:href="#DejaVuSans-30"/>
       <use x="127.246094" xlink:href="#DejaVuSans-30"/>
       <use x="190.869141" xlink:href="#DejaVuSans-30"/>
       <use x="254.492188" xlink:href="#DejaVuSans-30"/>
      </g>
     </g>
    </g>
    <g id="xtick_4">
     <g id="line2d_7">
      <path clip-path="url(#pa56f6c3358)" d="M 191.51442 307.584 
L 191.51442 41.472 
" style="fill:none;stroke:#b0b0b0;stroke-linecap:square;stroke-width:0.8;"/>
     </g>
     <g id="line2d_8">
      <g>
       <use style="stroke:#000000;stroke-width:0.8;" x="191.51442" xlink:href="#m2a5cca19c1" y="307.584"/>
      </g>
     </g>
     <g id="text_4">
      <!-- 15000 -->
      <g transform="translate(175.60817 322.182437)scale(0.1 -0.1)">
       <use xlink:href="#DejaVuSans-31"/>
       <use x="63.623047" xlink:href="#DejaVuSans-35"/>
       <use x="127.246094" xlink:href="#DejaVuSans-30"/>
       <use x="190.869141" xlink:href="#DejaVuSans-30"/>
       <use x="254.492188" xlink:href="#DejaVuSans-30"/>
      </g>
     </g>
    </g>
    <g id="xtick_5">
     <g id="line2d_9">
      <path clip-path="url(#pa56f6c3358)" d="M 236.155536 307.584 
L 236.155536 41.472 
" style="fill:none;stroke:#b0b0b0;stroke-linecap:square;stroke-width:0.8;"/>
     </g>
     <g id="line2d_10">
      <g>
       <use style="stroke:#000000;stroke-width:0.8;" x="236.155536" xlink:href="#m2a5cca19c1" y="307.584"/>
      </g>
     </g>
     <g id="text_5">
      <!-- 20000 -->
      <defs>
       <path d="M 19.1875 8.296875 
L 53.609375 8.296875 
L 53.609375 0 
L 7.328125 0 
L 7.328125 8.296875 
Q 12.9375 14.109375 22.625 23.890625 
Q 32.328125 33.6875 34.8125 36.53125 
Q 39.546875 41.84375 41.421875 45.53125 
Q 43.3125 49.21875 43.3125 52.78125 
Q 43.3125 58.59375 39.234375 62.25 
Q 35.15625 65.921875 28.609375 65.921875 
Q 23.96875 65.921875 18.8125 64.3125 
Q 13.671875 62.703125 7.8125 59.421875 
L 7.8125 69.390625 
Q 13.765625 71.78125 18.9375 73 
Q 24.125 74.21875 28.421875 74.21875 
Q 39.75 74.21875 46.484375 68.546875 
Q 53.21875 62.890625 53.21875 53.421875 
Q 53.21875 48.921875 51.53125 44.890625 
Q 49.859375 40.875 45.40625 35.40625 
Q 44.1875 33.984375 37.640625 27.21875 
Q 31.109375 20.453125 19.1875 8.296875 
z
" id="DejaVuSans-32"/>
      </defs>
      <g transform="translate(220.249286 322.182437)scale(0.1 -0.1)">
       <use xlink:href="#DejaVuSans-32"/>
       <use x="63.623047" xlink:href="#DejaVuSans-30"/>
       <use x="127.246094" xlink:href="#DejaVuSans-30"/>
       <use x="190.869141" xlink:href="#DejaVuSans-30"/>
       <use x="254.492188" xlink:href="#DejaVuSans-30"/>
      </g>
     </g>
    </g>
    <g id="xtick_6">
     <g id="line2d_11">
      <path clip-path="url(#pa56f6c3358)" d="M 280.796652 307.584 
L 280.796652 41.472 
" style="fill:none;stroke:#b0b0b0;stroke-linecap:square;stroke-width:0.8;"/>
     </g>
     <g id="line2d_12">
      <g>
       <use style="stroke:#000000;stroke-width:0.8;" x="280.796652" xlink:href="#m2a5cca19c1" y="307.584"/>
      </g>
     </g>
     <g id="text_6">
      <!-- 25000 -->
      <g transform="translate(264.890402 322.182437)scale(0.1 -0.1)">
       <use xlink:href="#DejaVuSans-32"/>
       <use x="63.623047" xlink:href="#DejaVuSans-35"/>
       <use x="127.246094" xlink:href="#DejaVuSans-30"/>
       <use x="190.869141" xlink:href="#DejaVuSans-30"/>
       <use x="254.492188" xlink:href="#DejaVuSans-30"/>
      </g>
     </g>
    </g>
    <g id="xtick_7">
     <g id="line2d_13">
      <path clip-path="url(#pa56f6c3358)" d="M 325.437768 307.584 
L 325.437768 41.472 
" style="fill:none;stroke:#b0b0b0;stroke-linecap:square;stroke-width:0.8;"/>
     </g>
     <g id="line2d_14">
      <g>
       <use style="stroke:#000000;stroke-width:0.8;" x="325.437768" xlink:href="#m2a5cca19c1" y="307.584"/>
      </g>
     </g>
     <g id="text_7">
      <!-- 30000 -->
      <defs>
       <path d="M 40.578125 39.3125 
Q 47.65625 37.796875 51.625 33 
Q 55.609375 28.21875 55.609375 21.1875 
Q 55.609375 10.40625 48.1875 4.484375 
Q 40.765625 -1.421875 27.09375 -1.421875 
Q 22.515625 -1.421875 17.65625 -0.515625 
Q 12.796875 0.390625 7.625 2.203125 
L 7.625 11.71875 
Q 11.71875 9.328125 16.59375 8.109375 
Q 21.484375 6.890625 26.8125 6.890625 
Q 36.078125 6.890625 40.9375 10.546875 
Q 45.796875 14.203125 45.796875 21.1875 
Q 45.796875 27.640625 41.28125 31.265625 
Q 36.765625 34.90625 28.71875 34.90625 
L 20.21875 34.90625 
L 20.21875 43.015625 
L 29.109375 43.015625 
Q 36.375 43.015625 40.234375 45.921875 
Q 44.09375 48.828125 44.09375 54.296875 
Q 44.09375 59.90625 40.109375 62.90625 
Q 36.140625 65.921875 28.71875 65.921875 
Q 24.65625 65.921875 20.015625 65.03125 
Q 15.375 64.15625 9.8125 62.3125 
L 9.8125 71.09375 
Q 15.4375 72.65625 20.34375 73.4375 
Q 25.25 74.21875 29.59375 74.21875 
Q 40.828125 74.21875 47.359375 69.109375 
Q 53.90625 64.015625 53.90625 55.328125 
Q 53.90625 49.265625 50.4375 45.09375 
Q 46.96875 40.921875 40.578125 39.3125 
z
" id="DejaVuSans-33"/>
      </defs>
      <g transform="translate(309.531518 322.182437)scale(0.1 -0.1)">
       <use xlink:href="#DejaVuSans-33"/>
       <use x="63.623047" xlink:href="#DejaVuSans-30"/>
       <use x="127.246094" xlink:href="#DejaVuSans-30"/>
       <use x="190.869141" xlink:href="#DejaVuSans-30"/>
       <use x="254.492188" xlink:href="#DejaVuSans-30"/>
      </g>
     </g>
    </g>
    <g id="xtick_8">
     <g id="line2d_15">
      <path clip-path="url(#pa56f6c3358)" d="M 370.078884 307.584 
L 370.078884 41.472 
" style="fill:none;stroke:#b0b0b0;stroke-linecap:square;stroke-width:0.8;"/>
     </g>
     <g id="line2d_16">
      <g>
       <use style="stroke:#000000;stroke-width:0.8;" x="370.078884" xlink:href="#m2a5cca19c1" y="307.584"/>
      </g>
     </g>
     <g id="text_8">
      <!-- 35000 -->
      <g transform="translate(354.172634 322.182437)scale(0.1 -0.1)">
       <use xlink:href="#DejaVuSans-33"/>
       <use x="63.623047" xlink:href="#DejaVuSans-35"/>
       <use x="127.246094" xlink:href="#DejaVuSans-30"/>
       <use x="190.869141" xlink:href="#DejaVuSans-30"/>
       <use x="254.492188" xlink:href="#DejaVuSans-30"/>
      </g>
     </g>
    </g>
    <g id="xtick_9">
     <g id="line2d_17">
      <path clip-path="url(#pa56f6c3358)" d="M 414.72 307.584 
L 414.72 41.472 
" style="fill:none;stroke:#b0b0b0;stroke-linecap:square;stroke-width:0.8;"/>
     </g>
     <g id="line2d_18">
      <g>
       <use style="stroke:#000000;stroke-width:0.8;" x="414.72" xlink:href="#m2a5cca19c1" y="307.584"/>
      </g>
     </g>
     <g id="text_9">
      <!-- 40000 -->
      <defs>
       <path d="M 37.796875 64.3125 
L 12.890625 25.390625 
L 37.796875 25.390625 
z
M 35.203125 72.90625 
L 47.609375 72.90625 
L 47.609375 25.390625 
L 58.015625 25.390625 
L 58.015625 17.1875 
L 47.609375 17.1875 
L 47.609375 0 
L 37.796875 0 
L 37.796875 17.1875 
L 4.890625 17.1875 
L 4.890625 26.703125 
z
" id="DejaVuSans-34"/>
      </defs>
      <g transform="translate(398.81375 322.182437)scale(0.1 -0.1)">
       <use xlink:href="#DejaVuSans-34"/>
       <use x="63.623047" xlink:href="#DejaVuSans-30"/>
       <use x="127.246094" xlink:href="#DejaVuSans-30"/>
       <use x="190.869141" xlink:href="#DejaVuSans-30"/>
       <use x="254.492188" xlink:href="#DejaVuSans-30"/>
      </g>
     </g>
    </g>
    <g id="text_10">
     <!-- Lag -->
     <defs>
      <path d="M 9.8125 72.90625 
L 19.671875 72.90625 
L 19.671875 8.296875 
L 55.171875 8.296875 
L 55.171875 0 
L 9.8125 0 
z
" id="DejaVuSans-4c"/>
      <path d="M 34.28125 27.484375 
Q 23.390625 27.484375 19.1875 25 
Q 14.984375 22.515625 14.984375 16.5 
Q 14.984375 11.71875 18.140625 8.90625 
Q 21.296875 6.109375 26.703125 6.109375 
Q 34.1875 6.109375 38.703125 11.40625 
Q 43.21875 16.703125 43.21875 25.484375 
L 43.21875 27.484375 
z
M 52.203125 31.203125 
L 52.203125 0 
L 43.21875 0 
L 43.21875 8.296875 
Q 40.140625 3.328125 35.546875 0.953125 
Q 30.953125 -1.421875 24.3125 -1.421875 
Q 15.921875 -1.421875 10.953125 3.296875 
Q 6 8.015625 6 15.921875 
Q 6 25.140625 12.171875 29.828125 
Q 18.359375 34.515625 30.609375 34.515625 
L 43.21875 34.515625 
L 43.21875 35.40625 
Q 43.21875 41.609375 39.140625 45 
Q 35.0625 48.390625 27.6875 48.390625 
Q 23 48.390625 18.546875 47.265625 
Q 14.109375 46.140625 10.015625 43.890625 
L 10.015625 52.203125 
Q 14.9375 54.109375 19.578125 55.046875 
Q 24.21875 56 28.609375 56 
Q 40.484375 56 46.34375 49.84375 
Q 52.203125 43.703125 52.203125 31.203125 
z
" id="DejaVuSans-61"/>
      <path d="M 45.40625 27.984375 
Q 45.40625 37.75 41.375 43.109375 
Q 37.359375 48.484375 30.078125 48.484375 
Q 22.859375 48.484375 18.828125 43.109375 
Q 14.796875 37.75 14.796875 27.984375 
Q 14.796875 18.265625 18.828125 12.890625 
Q 22.859375 7.515625 30.078125 7.515625 
Q 37.359375 7.515625 41.375 12.890625 
Q 45.40625 18.265625 45.40625 27.984375 
z
M 54.390625 6.78125 
Q 54.390625 -7.171875 48.1875 -13.984375 
Q 42 -20.796875 29.203125 -20.796875 
Q 24.46875 -20.796875 20.265625 -20.09375 
Q 16.0625 -19.390625 12.109375 -17.921875 
L 12.109375 -9.1875 
Q 16.0625 -11.328125 19.921875 -12.34375 
Q 23.78125 -13.375 27.78125 -13.375 
Q 36.625 -13.375 41.015625 -8.765625 
Q 45.40625 -4.15625 45.40625 5.171875 
L 45.40625 9.625 
Q 42.625 4.78125 38.28125 2.390625 
Q 33.9375 0 27.875 0 
Q 17.828125 0 11.671875 7.65625 
Q 5.515625 15.328125 5.515625 27.984375 
Q 5.515625 40.671875 11.671875 48.328125 
Q 17.828125 56 27.875 56 
Q 33.9375 56 38.28125 53.609375 
Q 42.625 51.21875 45.40625 46.390625 
L 45.40625 54.6875 
L 54.390625 54.6875 
z
" id="DejaVuSans-67"/>
     </defs>
     <g transform="translate(227.135781 335.860562)scale(0.1 -0.1)">
      <use xlink:href="#DejaVuSans-4c"/>
      <use x="55.712891" xlink:href="#DejaVuSans-61"/>
      <use x="116.992188" xlink:href="#DejaVuSans-67"/>
     </g>
    </g>
   </g>
   <g id="matplotlib.axis_2">
    <g id="ytick_1">
     <g id="line2d_19">
      <path clip-path="url(#pa56f6c3358)" d="M 57.6 307.584 
L 414.72 307.584 
" style="fill:none;stroke:#b0b0b0;stroke-linecap:square;stroke-width:0.8;"/>
     </g>
     <g id="line2d_20">
      <defs>
       <path d="M 0 0 
L -3.5 0 
" id="m6b50c50127" style="stroke:#000000;stroke-width:0.8;"/>
      </defs>
      <g>
       <use style="stroke:#000000;stroke-width:0.8;" x="57.6" xlink:href="#m6b50c50127" y="307.584"/>
      </g>
     </g>
     <g id="text_11">
      <!-- −1.00 -->
      <defs>
       <path d="M 10.59375 35.5 
L 73.1875 35.5 
L 73.1875 27.203125 
L 10.59375 27.203125 
z
" id="DejaVuSans-2212"/>
       <path d="M 10.6875 12.40625 
L 21 12.40625 
L 21 0 
L 10.6875 0 
z
" id="DejaVuSans-2e"/>
      </defs>
      <g transform="translate(19.954687 311.383219)scale(0.1 -0.1)">
       <use xlink:href="#DejaVuSans-2212"/>
       <use x="83.789062" xlink:href="#DejaVuSans-31"/>
       <use x="147.412109" xlink:href="#DejaVuSans-2e"/>
       <use x="179.199219" xlink:href="#DejaVuSans-30"/>
       <use x="242.822266" xlink:href="#DejaVuSans-30"/>
      </g>
     </g>
    </g>
    <g id="ytick_2">
     <g id="line2d_21">
      <path clip-path="url(#pa56f6c3358)" d="M 57.6 274.32 
L 414.72 274.32 
" style="fill:none;stroke:#b0b0b0;stroke-linecap:square;stroke-width:0.8;"/>
     </g>
     <g id="line2d_22">
      <g>
       <use style="stroke:#000000;stroke-width:0.8;" x="57.6" xlink:href="#m6b50c50127" y="274.32"/>
      </g>
     </g>
     <g id="text_12">
      <!-- −0.75 -->
      <defs>
       <path d="M 8.203125 72.90625 
L 55.078125 72.90625 
L 55.078125 68.703125 
L 28.609375 0 
L 18.3125 0 
L 43.21875 64.59375 
L 8.203125 64.59375 
z
" id="DejaVuSans-37"/>
      </defs>
      <g transform="translate(19.954687 278.119219)scale(0.1 -0.1)">
       <use xlink:href="#DejaVuSans-2212"/>
       <use x="83.789062" xlink:href="#DejaVuSans-30"/>
       <use x="147.412109" xlink:href="#DejaVuSans-2e"/>
       <use x="179.199219" xlink:href="#DejaVuSans-37"/>
       <use x="242.822266" xlink:href="#DejaVuSans-35"/>
      </g>
     </g>
    </g>
    <g id="ytick_3">
     <g id="line2d_23">
      <path clip-path="url(#pa56f6c3358)" d="M 57.6 241.056 
L 414.72 241.056 
" style="fill:none;stroke:#b0b0b0;stroke-linecap:square;stroke-width:0.8;"/>
     </g>
     <g id="line2d_24">
      <g>
       <use style="stroke:#000000;stroke-width:0.8;" x="57.6" xlink:href="#m6b50c50127" y="241.056"/>
      </g>
     </g>
     <g id="text_13">
      <!-- −0.50 -->
      <g transform="translate(19.954687 244.855219)scale(0.1 -0.1)">
       <use xlink:href="#DejaVuSans-2212"/>
       <use x="83.789062" xlink:href="#DejaVuSans-30"/>
       <use x="147.412109" xlink:href="#DejaVuSans-2e"/>
       <use x="179.199219" xlink:href="#DejaVuSans-35"/>
       <use x="242.822266" xlink:href="#DejaVuSans-30"/>
      </g>
     </g>
    </g>
    <g id="ytick_4">
     <g id="line2d_25">
      <path clip-path="url(#pa56f6c3358)" d="M 57.6 207.792 
L 414.72 207.792 
" style="fill:none;stroke:#b0b0b0;stroke-linecap:square;stroke-width:0.8;"/>
     </g>
     <g id="line2d_26">
      <g>
       <use style="stroke:#000000;stroke-width:0.8;" x="57.6" xlink:href="#m6b50c50127" y="207.792"/>
      </g>
     </g>
     <g id="text_14">
      <!-- −0.25 -->
      <g transform="translate(19.954687 211.591219)scale(0.1 -0.1)">
       <use xlink:href="#DejaVuSans-2212"/>
       <use x="83.789062" xlink:href="#DejaVuSans-30"/>
       <use x="147.412109" xlink:href="#DejaVuSans-2e"/>
       <use x="179.199219" xlink:href="#DejaVuSans-32"/>
       <use x="242.822266" xlink:href="#DejaVuSans-35"/>
      </g>
     </g>
    </g>
    <g id="ytick_5">
     <g id="line2d_27">
      <path clip-path="url(#pa56f6c3358)" d="M 57.6 174.528 
L 414.72 174.528 
" style="fill:none;stroke:#b0b0b0;stroke-linecap:square;stroke-width:0.8;"/>
     </g>
     <g id="line2d_28">
      <g>
       <use style="stroke:#000000;stroke-width:0.8;" x="57.6" xlink:href="#m6b50c50127" y="174.528"/>
      </g>
     </g>
     <g id="text_15">
      <!-- 0.00 -->
      <g transform="translate(28.334375 178.327219)scale(0.1 -0.1)">
       <use xlink:href="#DejaVuSans-30"/>
       <use x="63.623047" xlink:href="#DejaVuSans-2e"/>
       <use x="95.410156" xlink:href="#DejaVuSans-30"/>
       <use x="159.033203" xlink:href="#DejaVuSans-30"/>
      </g>
     </g>
    </g>
    <g id="ytick_6">
     <g id="line2d_29">
      <path clip-path="url(#pa56f6c3358)" d="M 57.6 141.264 
L 414.72 141.264 
" style="fill:none;stroke:#b0b0b0;stroke-linecap:square;stroke-width:0.8;"/>
     </g>
     <g id="line2d_30">
      <g>
       <use style="stroke:#000000;stroke-width:0.8;" x="57.6" xlink:href="#m6b50c50127" y="141.264"/>
      </g>
     </g>
     <g id="text_16">
      <!-- 0.25 -->
      <g transform="translate(28.334375 145.063219)scale(0.1 -0.1)">
       <use xlink:href="#DejaVuSans-30"/>
       <use x="63.623047" xlink:href="#DejaVuSans-2e"/>
       <use x="95.410156" xlink:href="#DejaVuSans-32"/>
       <use x="159.033203" xlink:href="#DejaVuSans-35"/>
      </g>
     </g>
    </g>
    <g id="ytick_7">
     <g id="line2d_31">
      <path clip-path="url(#pa56f6c3358)" d="M 57.6 108 
L 414.72 108 
" style="fill:none;stroke:#b0b0b0;stroke-linecap:square;stroke-width:0.8;"/>
     </g>
     <g id="line2d_32">
      <g>
       <use style="stroke:#000000;stroke-width:0.8;" x="57.6" xlink:href="#m6b50c50127" y="108"/>
      </g>
     </g>
     <g id="text_17">
      <!-- 0.50 -->
      <g transform="translate(28.334375 111.799219)scale(0.1 -0.1)">
       <use xlink:href="#DejaVuSans-30"/>
       <use x="63.623047" xlink:href="#DejaVuSans-2e"/>
       <use x="95.410156" xlink:href="#DejaVuSans-35"/>
       <use x="159.033203" xlink:href="#DejaVuSans-30"/>
      </g>
     </g>
    </g>
    <g id="ytick_8">
     <g id="line2d_33">
      <path clip-path="url(#pa56f6c3358)" d="M 57.6 74.736 
L 414.72 74.736 
" style="fill:none;stroke:#b0b0b0;stroke-linecap:square;stroke-width:0.8;"/>
     </g>
     <g id="line2d_34">
      <g>
       <use style="stroke:#000000;stroke-width:0.8;" x="57.6" xlink:href="#m6b50c50127" y="74.736"/>
      </g>
     </g>
     <g id="text_18">
      <!-- 0.75 -->
      <g transform="translate(28.334375 78.535219)scale(0.1 -0.1)">
       <use xlink:href="#DejaVuSans-30"/>
       <use x="63.623047" xlink:href="#DejaVuSans-2e"/>
       <use x="95.410156" xlink:href="#DejaVuSans-37"/>
       <use x="159.033203" xlink:href="#DejaVuSans-35"/>
      </g>
     </g>
    </g>
    <g id="ytick_9">
     <g id="line2d_35">
      <path clip-path="url(#pa56f6c3358)" d="M 57.6 41.472 
L 414.72 41.472 
" style="fill:none;stroke:#b0b0b0;stroke-linecap:square;stroke-width:0.8;"/>
     </g>
     <g id="line2d_36">
      <g>
       <use style="stroke:#000000;stroke-width:0.8;" x="57.6" xlink:href="#m6b50c50127" y="41.472"/>
      </g>
     </g>
     <g id="text_19">
      <!-- 1.00 -->
      <g transform="translate(28.334375 45.271219)scale(0.1 -0.1)">
       <use xlink:href="#DejaVuSans-31"/>
       <use x="63.623047" xlink:href="#DejaVuSans-2e"/>
       <use x="95.410156" xlink:href="#DejaVuSans-30"/>
       <use x="159.033203" xlink:href="#DejaVuSans-30"/>
      </g>
     </g>
    </g>
    <g id="text_20">
     <!-- Autocorrelation -->
     <defs>
      <path d="M 34.1875 63.1875 
L 20.796875 26.90625 
L 47.609375 26.90625 
z
M 28.609375 72.90625 
L 39.796875 72.90625 
L 67.578125 0 
L 57.328125 0 
L 50.6875 18.703125 
L 17.828125 18.703125 
L 11.1875 0 
L 0.78125 0 
z
" id="DejaVuSans-41"/>
      <path d="M 8.5 21.578125 
L 8.5 54.6875 
L 17.484375 54.6875 
L 17.484375 21.921875 
Q 17.484375 14.15625 20.5 10.265625 
Q 23.53125 6.390625 29.59375 6.390625 
Q 36.859375 6.390625 41.078125 11.03125 
Q 45.3125 15.671875 45.3125 23.6875 
L 45.3125 54.6875 
L 54.296875 54.6875 
L 54.296875 0 
L 45.3125 0 
L 45.3125 8.40625 
Q 42.046875 3.421875 37.71875 1 
Q 33.40625 -1.421875 27.6875 -1.421875 
Q 18.265625 -1.421875 13.375 4.4375 
Q 8.5 10.296875 8.5 21.578125 
z
M 31.109375 56 
z
" id="DejaVuSans-75"/>
      <path d="M 18.3125 70.21875 
L 18.3125 54.6875 
L 36.8125 54.6875 
L 36.8125 47.703125 
L 18.3125 47.703125 
L 18.3125 18.015625 
Q 18.3125 11.328125 20.140625 9.421875 
Q 21.96875 7.515625 27.59375 7.515625 
L 36.8125 7.515625 
L 36.8125 0 
L 27.59375 0 
Q 17.1875 0 13.234375 3.875 
Q 9.28125 7.765625 9.28125 18.015625 
L 9.28125 47.703125 
L 2.6875 47.703125 
L 2.6875 54.6875 
L 9.28125 54.6875 
L 9.28125 70.21875 
z
" id="DejaVuSans-74"/>
      <path d="M 30.609375 48.390625 
Q 23.390625 48.390625 19.1875 42.75 
Q 14.984375 37.109375 14.984375 27.296875 
Q 14.984375 17.484375 19.15625 11.84375 
Q 23.34375 6.203125 30.609375 6.203125 
Q 37.796875 6.203125 41.984375 11.859375 
Q 46.1875 17.53125 46.1875 27.296875 
Q 46.1875 37.015625 41.984375 42.703125 
Q 37.796875 48.390625 30.609375 48.390625 
z
M 30.609375 56 
Q 42.328125 56 49.015625 48.375 
Q 55.71875 40.765625 55.71875 27.296875 
Q 55.71875 13.875 49.015625 6.21875 
Q 42.328125 -1.421875 30.609375 -1.421875 
Q 18.84375 -1.421875 12.171875 6.21875 
Q 5.515625 13.875 5.515625 27.296875 
Q 5.515625 40.765625 12.171875 48.375 
Q 18.84375 56 30.609375 56 
z
" id="DejaVuSans-6f"/>
      <path d="M 48.78125 52.59375 
L 48.78125 44.1875 
Q 44.96875 46.296875 41.140625 47.34375 
Q 37.3125 48.390625 33.40625 48.390625 
Q 24.65625 48.390625 19.8125 42.84375 
Q 14.984375 37.3125 14.984375 27.296875 
Q 14.984375 17.28125 19.8125 11.734375 
Q 24.65625 6.203125 33.40625 6.203125 
Q 37.3125 6.203125 41.140625 7.25 
Q 44.96875 8.296875 48.78125 10.40625 
L 48.78125 2.09375 
Q 45.015625 0.34375 40.984375 -0.53125 
Q 36.96875 -1.421875 32.421875 -1.421875 
Q 20.0625 -1.421875 12.78125 6.34375 
Q 5.515625 14.109375 5.515625 27.296875 
Q 5.515625 40.671875 12.859375 48.328125 
Q 20.21875 56 33.015625 56 
Q 37.15625 56 41.109375 55.140625 
Q 45.0625 54.296875 48.78125 52.59375 
z
" id="DejaVuSans-63"/>
      <path d="M 41.109375 46.296875 
Q 39.59375 47.171875 37.8125 47.578125 
Q 36.03125 48 33.890625 48 
Q 26.265625 48 22.1875 43.046875 
Q 18.109375 38.09375 18.109375 28.8125 
L 18.109375 0 
L 9.078125 0 
L 9.078125 54.6875 
L 18.109375 54.6875 
L 18.109375 46.1875 
Q 20.953125 51.171875 25.484375 53.578125 
Q 30.03125 56 36.53125 56 
Q 37.453125 56 38.578125 55.875 
Q 39.703125 55.765625 41.0625 55.515625 
z
" id="DejaVuSans-72"/>
      <path d="M 56.203125 29.59375 
L 56.203125 25.203125 
L 14.890625 25.203125 
Q 15.484375 15.921875 20.484375 11.0625 
Q 25.484375 6.203125 34.421875 6.203125 
Q 39.59375 6.203125 44.453125 7.46875 
Q 49.3125 8.734375 54.109375 11.28125 
L 54.109375 2.78125 
Q 49.265625 0.734375 44.1875 -0.34375 
Q 39.109375 -1.421875 33.890625 -1.421875 
Q 20.796875 -1.421875 13.15625 6.1875 
Q 5.515625 13.8125 5.515625 26.8125 
Q 5.515625 40.234375 12.765625 48.109375 
Q 20.015625 56 32.328125 56 
Q 43.359375 56 49.78125 48.890625 
Q 56.203125 41.796875 56.203125 29.59375 
z
M 47.21875 32.234375 
Q 47.125 39.59375 43.09375 43.984375 
Q 39.0625 48.390625 32.421875 48.390625 
Q 24.90625 48.390625 20.390625 44.140625 
Q 15.875 39.890625 15.1875 32.171875 
z
" id="DejaVuSans-65"/>
      <path d="M 9.421875 75.984375 
L 18.40625 75.984375 
L 18.40625 0 
L 9.421875 0 
z
" id="DejaVuSans-6c"/>
      <path d="M 9.421875 54.6875 
L 18.40625 54.6875 
L 18.40625 0 
L 9.421875 0 
z
M 9.421875 75.984375 
L 18.40625 75.984375 
L 18.40625 64.59375 
L 9.421875 64.59375 
z
" id="DejaVuSans-69"/>
      <path d="M 54.890625 33.015625 
L 54.890625 0 
L 45.90625 0 
L 45.90625 32.71875 
Q 45.90625 40.484375 42.875 44.328125 
Q 39.84375 48.1875 33.796875 48.1875 
Q 26.515625 48.1875 22.3125 43.546875 
Q 18.109375 38.921875 18.109375 30.90625 
L 18.109375 0 
L 9.078125 0 
L 9.078125 54.6875 
L 18.109375 54.6875 
L 18.109375 46.1875 
Q 21.34375 51.125 25.703125 53.5625 
Q 30.078125 56 35.796875 56 
Q 45.21875 56 50.046875 50.171875 
Q 54.890625 44.34375 54.890625 33.015625 
z
" id="DejaVuSans-6e"/>
     </defs>
     <g transform="translate(13.875 213.160812)rotate(-90)scale(0.1 -0.1)">
      <use xlink:href="#DejaVuSans-41"/>
      <use x="68.408203" xlink:href="#DejaVuSans-75"/>
      <use x="131.787109" xlink:href="#DejaVuSans-74"/>
      <use x="170.996094" xlink:href="#DejaVuSans-6f"/>
      <use x="232.177734" xlink:href="#DejaVuSans-63"/>
      <use x="287.158203" xlink:href="#DejaVuSans-6f"/>
      <use x="348.339844" xlink:href="#DejaVuSans-72"/>
      <use x="389.4375" xlink:href="#DejaVuSans-72"/>
      <use x="430.519531" xlink:href="#DejaVuSans-65"/>
      <use x="492.042969" xlink:href="#DejaVuSans-6c"/>
      <use x="519.826172" xlink:href="#DejaVuSans-61"/>
      <use x="581.105469" xlink:href="#DejaVuSans-74"/>
      <use x="620.314453" xlink:href="#DejaVuSans-69"/>
      <use x="648.097656" xlink:href="#DejaVuSans-6f"/>
      <use x="709.279297" xlink:href="#DejaVuSans-6e"/>
     </g>
    </g>
   </g>
   <g id="line2d_37">
    <path clip-path="url(#pa56f6c3358)" d="M 57.6 172.814352 
L 414.72 172.814352 
" style="fill:none;stroke:#808080;stroke-dasharray:5.55,2.4;stroke-dashoffset:0;stroke-width:1.5;"/>
   </g>
   <g id="line2d_38">
    <path clip-path="url(#pa56f6c3358)" d="M 57.6 173.224075 
L 414.72 173.224075 
" style="fill:none;stroke:#808080;stroke-linecap:square;stroke-width:1.5;"/>
   </g>
   <g id="line2d_39">
    <path clip-path="url(#pa56f6c3358)" d="M 57.6 174.528 
L 414.72 174.528 
" style="fill:none;stroke:#000000;stroke-linecap:square;stroke-width:1.5;"/>
   </g>
   <g id="line2d_40">
    <path clip-path="url(#pa56f6c3358)" d="M 57.6 175.831925 
L 414.72 175.831925 
" style="fill:none;stroke:#808080;stroke-linecap:square;stroke-width:1.5;"/>
   </g>
   <g id="line2d_41">
    <path clip-path="url(#pa56f6c3358)" d="M 57.6 176.241648 
L 414.72 176.241648 
" style="fill:none;stroke:#808080;stroke-dasharray:5.55,2.4;stroke-dashoffset:0;stroke-width:1.5;"/>
   </g>
   <g id="line2d_42">
    <path clip-path="url(#pa56f6c3358)" d="M 57.6 41.505657 
L 57.653569 43.019792 
L 57.796421 55.797882 
L 58.751741 161.199575 
L 59.216008 183.281419 
L 59.680276 195.650345 
L 60.135615 202.321201 
L 60.573098 205.795936 
L 61.001653 207.598031 
L 61.412351 208.465252 
L 61.796265 208.816586 
L 62.153394 208.864885 
L 62.492666 208.682372 
L 62.831939 208.228674 
L 63.18014 207.355227 
L 63.537268 205.793286 
L 63.903326 203.083002 
L 64.278311 198.457411 
L 64.662225 190.647415 
L 65.046138 177.926761 
L 65.43898 156.896456 
L 65.831822 123.121211 
L 66.305018 59.891556 
L 66.519295 44.7984 
L 66.537151 44.927725 
L 66.608577 47.793837 
L 66.787142 66.872824 
L 67.474615 147.363649 
L 67.947811 175.41494 
L 68.412078 190.862953 
L 68.867418 199.28592 
L 69.313829 203.804021 
L 69.751312 206.166452 
L 70.170938 207.330655 
L 70.572708 207.853806 
L 70.947694 208.005566 
L 71.295894 207.909967 
L 71.635167 207.574643 
L 71.983368 206.887212 
L 72.331568 205.669797 
L 72.688697 203.555705 
L 73.054754 199.95424 
L 73.42974 193.891747 
L 73.813653 183.76653 
L 74.206495 166.935678 
L 74.599337 139.791458 
L 75.001107 95.187384 
L 75.447518 48.1248 
L 75.483231 48.618548 
L 75.59037 55.183987 
L 75.867145 91.247766 
L 76.340341 143.132825 
L 76.813536 172.611525 
L 77.277804 188.883465 
L 77.733143 197.783817 
L 78.179554 202.578452 
L 78.617037 205.10068 
L 79.036664 206.356515 
L 79.438434 206.93617 
L 79.822348 207.131026 
L 80.179476 207.067286 
L 80.527677 206.763431 
L 80.875878 206.135057 
L 81.224079 205.013533 
L 81.581208 203.058403 
L 81.947265 199.718997 
L 82.32225 194.086235 
L 82.706164 184.663462 
L 83.099005 168.980068 
L 83.491847 143.661247 
L 83.893617 102.02515 
L 84.375741 51.4512 
L 84.38467 51.482339 
L 84.438239 52.882822 
L 84.581091 64.701268 
L 85.53641 162.179502 
L 86.000678 182.60091 
L 86.464946 194.039539 
L 86.920285 200.208366 
L 87.357768 203.421257 
L 87.786323 205.087169 
L 88.197021 205.888468 
L 88.589863 206.216614 
L 88.95592 206.253254 
L 89.304121 206.06481 
L 89.652321 205.605777 
L 90.000522 204.749683 
L 90.357651 203.227735 
L 90.723708 200.59588 
L 91.098693 196.115155 
L 91.482607 188.564133 
L 91.866521 176.283437 
L 92.259362 156.003683 
L 92.652204 123.462202 
L 93.303965 54.7776 
L 93.393247 57.542398 
L 93.571811 75.151562 
L 94.259284 149.43583 
L 94.73248 175.323688 
L 95.196748 189.580098 
L 95.652087 197.353078 
L 96.098498 201.522188 
L 96.535981 203.701753 
L 96.955608 204.775438 
L 97.357378 205.257522 
L 97.741292 205.397284 
L 98.09842 205.298018 
L 98.446621 204.963009 
L 98.794822 204.298671 
L 99.151951 203.090252 
L 99.518008 200.973651 
L 99.884065 197.446849 
L 100.25905 191.52524 
L 100.642964 181.655313 
L 101.035806 165.274905 
L 101.428648 138.889321 
L 101.830418 95.60289 
L 102.214331 58.219877 
L 102.232188 58.104 
L 102.267901 58.558756 
L 102.375039 64.605216 
L 102.651814 97.816475 
L 103.12501 145.594577 
L 103.598206 172.739793 
L 104.062474 187.723492 
L 104.517813 195.918943 
L 104.964224 200.333512 
L 105.401707 202.655416 
L 105.821334 203.811102 
L 106.232032 204.351478 
L 106.624874 204.524946 
L 106.990931 204.450632 
L 107.34806 204.14022 
L 107.69626 203.524108 
L 108.053389 202.397401 
L 108.419446 200.418459 
L 108.785504 197.114822 
L 109.160489 191.559823 
L 109.544403 182.290101 
L 109.937244 166.89147 
L 110.330086 142.06948 
L 110.731856 101.2982 
L 111.151483 61.458839 
L 111.160411 61.4304 
L 111.187196 61.681352 
L 111.276478 65.720661 
L 111.490755 88.478713 
L 112.044305 145.758981 
L 112.517501 172.412419 
L 112.981769 187.129382 
L 113.437108 195.182413 
L 113.883519 199.522749 
L 114.321002 201.807398 
L 114.740629 202.945995 
L 115.151327 203.480118 
L 115.544169 203.654586 
L 115.919154 203.583163 
L 116.276283 203.281614 
L 116.633412 202.662809 
L 116.990541 201.553721 
L 117.356598 199.607797 
L 117.722655 196.361562 
L 118.09764 190.90595 
L 118.481554 181.805818 
L 118.874396 166.69376 
L 119.267238 142.33968 
L 119.669008 102.348786 
L 120.079706 64.784399 
L 120.088634 64.7568 
L 120.115419 65.000372 
L 120.204701 68.92072 
L 120.427907 92.12336 
L 120.972528 146.598922 
L 121.445724 172.466094 
L 121.909992 186.748846 
L 122.365331 194.564181 
L 122.811742 198.776283 
L 123.249225 200.993288 
L 123.668852 202.09802 
L 124.07955 202.616105 
L 124.472392 202.785178 
L 124.847377 202.715694 
L 125.213434 202.412263 
L 125.570563 201.802446 
L 125.927692 200.711725 
L 126.293749 198.800046 
L 126.659806 195.613165 
L 127.034792 190.260104 
L 127.418705 181.334685 
L 127.811547 166.517497 
L 128.204389 142.64443 
L 128.606159 103.459071 
L 129.007929 68.10996 
L 129.016857 68.0832 
L 129.043642 68.319391 
L 129.132924 72.12078 
L 129.35613 94.618937 
L 129.900752 147.438862 
L 130.373947 172.51977 
L 130.838215 186.36831 
L 131.293554 193.94595 
L 131.739965 198.029816 
L 132.177448 200.179177 
L 132.606003 201.265689 
L 133.016701 201.75879 
L 133.418471 201.917361 
L 133.802385 201.835011 
L 134.168442 201.521621 
L 134.525571 200.902446 
L 134.8827 199.801129 
L 135.248757 197.876434 
L 135.623743 194.574554 
L 135.998728 189.140737 
L 136.382642 180.094868 
L 136.775483 165.096288 
L 137.168325 140.953909 
L 137.570095 101.455216 
L 137.927224 71.512223 
L 137.945081 71.4096 
L 137.980794 71.812367 
L 138.087932 77.166856 
L 138.364707 106.574754 
L 138.837903 148.876913 
L 139.311099 172.910817 
L 139.775366 186.176862 
L 140.230706 193.432445 
L 140.677117 197.340259 
L 141.1146 199.395066 
L 141.543155 200.432126 
L 141.953853 200.900894 
L 142.355623 201.048484 
L 142.748465 200.958765 
L 143.114522 200.642552 
L 143.471651 200.024381 
L 143.82878 198.928788 
L 144.194837 197.017735 
L 144.569822 193.743558 
L 144.944808 188.360694 
L 145.328721 179.406615 
L 145.721563 164.569297 
L 146.114405 140.697645 
L 146.516175 101.759619 
L 146.855447 74.835309 
L 146.873304 74.736 
L 146.909017 75.12577 
L 147.016155 80.307265 
L 147.29293 108.764323 
L 147.766126 149.697497 
L 148.239322 172.953573 
L 148.70359 185.790204 
L 149.158929 192.81082 
L 149.60534 196.591945 
L 150.042823 198.579978 
L 150.471378 199.583166 
L 150.891004 200.042432 
L 151.301703 200.179789 
L 151.694544 200.082599 
L 152.06953 199.752989 
L 152.426659 199.127285 
L 152.783788 198.023894 
L 153.149845 196.104461 
L 153.52483 192.822182 
L 153.899815 187.433847 
L 154.283729 178.480898 
L 154.676571 163.658779 
L 155.069413 139.827987 
L 155.480111 100.242093 
L 155.792599 78.086643 
L 155.801527 78.0624 
L 155.828312 78.27645 
L 155.917594 81.720959 
L 156.1408 102.105667 
L 156.685421 149.958684 
L 157.158617 172.680796 
L 157.622885 185.226702 
L 158.078224 192.091255 
L 158.524635 195.790416 
L 158.962118 197.736845 
L 159.390673 198.720276 
L 159.810299 199.172012 
L 160.220998 199.309932 
L 160.622768 199.216137 
L 160.997753 198.897556 
L 161.36381 198.272927 
L 161.720939 197.19272 
L 162.086996 195.315428 
L 162.461982 192.107357 
L 162.845895 186.684531 
L 163.229809 177.843359 
L 163.622651 163.214961 
L 164.015492 139.706269 
L 164.444047 99.090827 
L 164.720822 81.412204 
L 164.72975 81.3888 
L 164.756535 81.595469 
L 164.845817 84.921019 
L 165.069023 104.601243 
L 165.613644 150.798624 
L 166.08684 172.734471 
L 166.551108 184.846166 
L 167.006447 191.473023 
L 167.452858 195.04395 
L 167.890341 196.922734 
L 168.318896 197.871805 
L 168.738522 198.307571 
L 169.158149 198.440728 
L 169.568847 198.34042 
L 169.952761 198.009762 
L 170.318818 197.379454 
L 170.684875 196.259396 
L 171.050932 194.355075 
L 171.425918 191.108738 
L 171.809831 185.631645 
L 172.193745 176.715252 
L 172.586587 161.979438 
L 172.979428 138.319056 
L 173.657973 84.7152 
L 173.756184 87.200071 
L 173.943677 101.714375 
L 174.586509 154.187266 
L 175.059704 174.224951 
L 175.523972 185.270262 
L 175.979311 191.299923 
L 176.425723 194.538965 
L 176.863206 196.235577 
L 177.29176 197.086073 
L 177.711387 197.468668 
L 178.139941 197.570847 
L 178.55064 197.444679 
L 178.934553 197.088386 
L 179.300611 196.425064 
L 179.666668 195.256391 
L 180.032725 193.279035 
L 180.40771 189.919963 
L 180.791624 184.268225 
L 181.175537 175.087318 
L 181.568379 159.93977 
L 181.961221 135.649476 
L 182.586197 88.0416 
L 182.657622 89.342999 
L 182.809402 98.811491 
L 183.666512 162.357998 
L 184.130779 178.173565 
L 184.595047 187.061664 
L 185.050386 191.876269 
L 185.496797 194.435347 
L 185.93428 195.755197 
L 186.362835 196.398028 
L 186.79139 196.665256 
L 187.219944 196.681355 
L 187.630643 196.475177 
L 188.014556 196.017347 
L 188.380614 195.204983 
L 188.746671 193.80163 
L 189.121656 191.382764 
L 189.496641 187.387267 
L 189.880555 180.715752 
L 190.273397 169.627093 
L 190.666239 151.744487 
L 191.068009 122.359732 
L 191.51442 91.368 
L 191.550133 91.692783 
L 191.657271 96.009315 
L 191.934046 119.712172 
L 192.407242 153.800417 
L 192.880438 173.167354 
L 193.344706 183.856916 
L 193.800045 189.702697 
L 194.246456 192.850379 
L 194.683939 194.50454 
L 195.112494 195.338365 
L 195.541049 195.724021 
L 195.978531 195.832242 
L 196.407086 195.714584 
L 196.799928 195.373976 
L 197.174913 194.731718 
L 197.540971 193.62313 
L 197.907028 191.750757 
L 198.282013 188.573999 
L 198.665927 183.234105 
L 199.04984 174.566095 
L 199.442682 160.272748 
L 199.844452 136.706909 
L 200.442643 94.6944 
L 200.505141 95.622617 
L 200.647992 103.282606 
L 201.603312 166.425855 
L 202.06758 179.652039 
L 202.531847 187.059378 
L 202.987187 191.05275 
L 203.42467 193.13098 
L 203.862153 194.222349 
L 204.290707 194.744063 
L 204.72819 194.947959 
L 205.174601 194.91756 
L 205.594228 194.663565 
L 205.978141 194.154488 
L 206.344199 193.272655 
L 206.710256 191.766752 
L 207.085241 189.191287 
L 207.469155 184.834597 
L 207.853068 177.727047 
L 208.24591 165.960745 
L 208.638752 147.043462 
L 209.04945 115.621001 
L 209.361938 98.040008 
L 209.370866 98.0208 
L 209.397651 98.190567 
L 209.486933 100.921317 
L 209.710139 117.079126 
L 210.25476 154.998326 
L 210.727956 173.002848 
L 211.192224 182.943487 
L 211.647563 188.381865 
L 212.093974 191.311617 
L 212.531457 192.852181 
L 212.960012 193.62945 
L 213.397495 193.994322 
L 213.852834 194.092634 
L 214.299245 193.965598 
L 214.701016 193.618766 
L 215.076001 192.985282 
L 215.442058 191.899126 
L 215.817043 190.014766 
L 216.192029 186.886577 
L 216.575942 181.642282 
L 216.968784 172.897661 
L 217.361626 158.759845 
L 217.763396 135.483815 
L 218.299089 101.3472 
L 218.334802 101.632991 
L 218.441941 105.430544 
L 218.718716 126.280881 
L 219.191912 156.262169 
L 219.665108 173.295622 
L 220.129375 182.696943 
L 220.584715 187.837823 
L 221.031126 190.605438 
L 221.468609 192.059277 
L 221.906092 192.801824 
L 222.343575 193.13761 
L 222.807842 193.221754 
L 223.263182 193.081665 
L 223.67388 192.715521 
L 224.048865 192.066019 
L 224.414922 190.958975 
L 224.789908 189.045378 
L 225.164893 185.877241 
L 225.548807 180.577213 
L 225.941649 171.754457 
L 226.33449 157.508719 
L 226.73626 134.078045 
L 227.227313 104.6736 
L 227.245169 104.743281 
L 227.316595 106.285202 
L 227.495159 116.545254 
L 228.182633 159.796731 
L 228.655828 174.867433 
L 229.120096 183.165821 
L 229.575435 187.688868 
L 230.021847 190.113026 
L 230.459329 191.378257 
L 230.896812 192.017088 
L 231.343224 192.299581 
L 231.816419 192.344189 
L 232.271759 192.17005 
L 232.673529 191.777793 
L 233.048514 191.085906 
L 233.4235 189.879723 
L 233.798485 187.844774 
L 234.17347 184.491188 
L 234.557384 178.901226 
L 234.950226 169.622543 
L 235.343068 154.673811 
L 235.744838 130.137472 
L 236.146608 108.016691 
L 236.155536 108 
L 236.182321 108.147626 
L 236.271603 110.521496 
L 236.494808 124.565856 
L 237.03943 157.518148 
L 237.512626 173.163874 
L 237.976893 181.801879 
L 238.432233 186.52717 
L 238.878644 189.072217 
L 239.316127 190.409849 
L 239.75361 191.093564 
L 240.208949 191.410671 
L 240.691073 191.480816 
L 241.164269 191.330451 
L 241.583896 190.958492 
L 241.967809 190.298358 
L 242.342795 189.166401 
L 242.71778 187.25576 
L 243.092765 184.105753 
L 243.476679 178.853306 
L 243.869521 170.132329 
L 244.262363 156.078859 
L 244.664133 133.002762 
L 245.074831 111.342252 
L 245.083759 111.3264 
L 245.110544 111.466645 
L 245.199826 113.721556 
L 245.423032 127.061432 
L 245.967653 158.358088 
L 246.440849 173.21755 
L 246.905117 181.421343 
L 247.360456 185.908938 
L 247.806867 188.325751 
L 248.24435 189.595738 
L 248.681833 190.244604 
L 249.137172 190.545243 
L 249.628225 190.610624 
L 250.110349 190.458366 
L 250.529975 190.09384 
L 250.913889 189.450364 
L 251.288874 188.349513 
L 251.66386 186.494078 
L 252.047773 183.34592 
L 252.431687 178.197184 
L 252.824529 169.656464 
L 253.21737 155.903389 
L 253.61914 133.357863 
L 253.994126 114.712347 
L 254.011982 114.6528 
L 254.047695 114.886602 
L 254.154834 117.992183 
L 254.431609 135.03916 
L 254.904805 159.544505 
L 255.378 173.466646 
L 255.842268 181.150312 
L 256.297607 185.351324 
L 256.744019 187.612185 
L 257.181502 188.798926 
L 257.618984 189.404056 
L 258.083252 189.685901 
L 258.592161 189.737672 
L 259.083213 189.57155 
L 259.511768 189.187176 
L 259.895681 188.526958 
L 260.270667 187.404129 
L 260.645652 185.518993 
L 261.029566 182.329931 
L 261.413479 177.126406 
L 261.806321 168.510448 
L 262.199163 154.65552 
L 262.609861 131.575383 
L 262.931277 117.993373 
L 262.940206 117.9792 
L 262.96699 118.104684 
L 263.056272 120.121675 
L 263.279478 132.052586 
L 263.8241 160.037969 
L 264.297295 173.324901 
L 264.761563 180.660271 
L 265.216902 184.672475 
L 265.663314 186.832817 
L 266.109725 187.983838 
L 266.556136 188.562419 
L 267.029332 188.825531 
L 267.556097 188.864046 
L 268.056077 188.685318 
L 268.484632 188.293955 
L 268.868546 187.628541 
L 269.243531 186.502165 
L 269.618516 184.617014 
L 270.00243 181.435606 
L 270.386344 176.254338 
L 270.779185 167.687791 
L 271.172027 153.927758 
L 271.618438 129.405027 
L 271.868429 121.3056 
L 271.877357 121.319118 
L 271.930926 121.92403 
L 272.073778 127.024967 
L 273.02017 168.816029 
L 273.484437 177.711368 
L 273.948705 182.69418 
L 274.404044 185.380594 
L 274.850455 186.798502 
L 275.296866 187.53158 
L 275.761134 187.887069 
L 276.278971 188.00609 
L 276.823593 187.905353 
L 277.28786 187.594734 
L 277.68963 187.046087 
L 278.073544 186.110114 
L 278.448529 184.561236 
L 278.832443 181.934123 
L 279.216356 177.638271 
L 279.609198 170.512871 
L 280.00204 159.03924 
L 280.40381 140.230788 
L 280.778795 124.681606 
L 280.796652 124.632 
L 280.832365 124.82681 
L 280.939503 127.413413 
L 281.216278 141.607869 
L 281.689474 162.006257 
L 282.16267 173.594915 
L 282.626938 179.990339 
L 283.082277 183.48645 
L 283.528688 185.367245 
L 283.975099 186.367834 
L 284.430439 186.875968 
L 284.930419 187.103951 
L 285.492897 187.113898 
L 286.010734 186.910156 
L 286.448217 186.493614 
L 286.841059 185.788497 
L 287.216044 184.627714 
L 287.599958 182.641143 
L 287.983872 179.369342 
L 288.376713 173.911471 
L 288.769555 165.083833 
L 289.171325 150.545021 
L 289.724875 127.9584 
L 289.769516 128.239704 
L 289.885583 131.179698 
L 290.233784 148.243947 
L 290.70698 165.36494 
L 291.180176 175.066908 
L 291.644443 180.402706 
L 292.099782 183.305661 
L 292.546194 184.857016 
L 292.992605 185.67422 
L 293.456872 186.086643 
L 293.983638 186.257066 
L 294.563972 186.214527 
L 295.072881 185.964791 
L 295.501436 185.498643 
L 295.894277 184.712787 
L 296.278191 183.39286 
L 296.662105 181.191384 
L 297.046018 177.587943 
L 297.43886 171.606001 
L 297.831702 161.967078 
L 298.233472 146.14018 
L 298.64417 131.295617 
L 298.653098 131.2848 
L 298.679883 131.380762 
L 298.769165 132.921914 
L 298.992371 142.034892 
L 299.536992 163.397731 
L 300.010188 173.539602 
L 300.474456 179.138127 
L 300.929795 182.199548 
L 301.376206 183.846951 
L 301.822618 184.723488 
L 302.286885 185.174284 
L 302.81365 185.374925 
L 303.42077 185.364528 
L 303.965391 185.141144 
L 304.402874 184.721556 
L 304.795716 184.022509 
L 305.179629 182.846578 
L 305.563543 180.882786 
L 305.947457 177.664975 
L 306.340299 172.318508 
L 306.73314 163.697516 
L 307.13491 149.532081 
L 307.572393 134.621178 
L 307.581322 134.6112 
L 307.608106 134.699782 
L 307.697388 136.121973 
L 307.920594 144.530468 
L 308.465216 164.237671 
L 308.938411 173.593278 
L 309.402679 178.757592 
L 309.858018 181.581316 
L 310.313358 183.122305 
L 310.759769 183.91968 
L 311.232965 184.3337 
L 311.777586 184.512756 
L 312.41149 184.484294 
L 312.96504 184.245082 
L 313.411451 183.802131 
L 313.804293 183.08216 
L 314.188207 181.878527 
L 314.57212 179.877656 
L 314.956034 176.610704 
L 315.348876 171.197656 
L 315.741718 162.487955 
L 316.143488 148.260099 
L 316.491688 137.973952 
L 316.509545 137.9376 
L 316.545258 138.080421 
L 316.652396 139.975052 
L 316.929171 150.366147 
L 317.402367 165.288593 
L 317.875563 173.765939 
L 318.33983 178.443708 
L 318.79517 180.999951 
L 319.250509 182.393713 
L 319.705849 183.123835 
L 320.187973 183.495422 
L 320.759379 183.650606 
L 321.420068 183.59948 
L 321.973617 183.345488 
L 322.420029 182.889262 
L 322.821799 182.133022 
L 323.205712 180.897654 
L 323.589626 178.853831 
L 323.982468 175.431363 
L 324.375309 169.878624 
L 324.768151 160.965995 
L 325.437768 141.264 
L 325.535978 142.182051 
L 325.723471 147.537349 
L 326.366303 166.855535 
L 326.839499 174.2293 
L 327.303767 178.292407 
L 327.759106 180.508301 
L 328.214445 181.712934 
L 328.678713 182.349504 
L 329.178693 182.668436 
L 329.785813 182.78784 
L 330.473286 182.701504 
L 331.026836 182.415793 
L 331.464319 181.933466 
L 331.866089 181.132086 
L 332.250002 179.832914 
L 332.633916 177.69585 
L 333.026758 174.133447 
L 333.419599 168.374012 
L 333.82137 158.890846 
L 334.365991 144.5904 
L 334.401704 144.707227 
L 334.508843 146.255872 
L 334.785618 154.745287 
L 335.258813 166.929761 
L 335.732009 173.851451 
L 336.196277 177.670393 
L 336.651616 179.756702 
L 337.106956 180.893439 
L 337.571223 181.495998 
L 338.080132 181.803007 
L 338.714036 181.918599 
L 339.437222 181.83011 
L 339.9997 181.552191 
L 340.446111 181.080307 
L 340.847881 180.311767 
L 341.240723 179.033403 
L 341.633565 176.912739 
L 342.026407 173.44919 
L 342.419248 167.861048 
L 342.821019 158.674247 
L 343.294214 147.9168 
L 343.303143 147.923605 
L 343.36564 148.316095 
L 343.51742 151.215546 
L 344.374529 170.610734 
L 344.838797 175.43365 
L 345.303065 178.142151 
L 345.758404 179.606709 
L 346.222672 180.403822 
L 346.713724 180.820518 
L 347.294058 181.017284 
L 348.044029 181.030058 
L 348.731502 180.83647 
L 349.231483 180.4726 
L 349.651109 179.88607 
L 350.043951 178.935232 
L 350.436793 177.34944 
L 350.829635 174.74811 
L 351.222477 170.536498 
L 351.624247 163.593863 
L 352.222438 151.2432 
L 352.284935 151.51312 
L 352.427787 153.735125 
L 353.374178 171.88203 
L 353.838446 175.741184 
L 354.302714 177.901277 
L 354.766981 179.080021 
L 355.240177 179.708251 
L 355.758014 180.03377 
L 356.418702 180.173568 
L 357.249027 180.119464 
L 357.900788 179.871035 
L 358.382912 179.447643 
L 358.802538 178.76271 
L 359.19538 177.667169 
L 359.588222 175.858615 
L 359.981064 172.915517 
L 360.373905 168.179888 
L 360.775675 160.434545 
L 361.132804 154.589384 
L 361.159589 154.574726 
L 361.195302 154.689932 
L 361.311369 155.943928 
L 361.668498 163.379716 
L 362.141694 170.570318 
L 362.614889 174.6432 
L 363.079157 176.880905 
L 363.543425 178.112909 
L 364.01662 178.77796 
L 364.534457 179.130165 
L 365.186218 179.292835 
L 366.070112 179.274982 
L 366.811154 179.056749 
L 367.328991 178.673825 
L 367.757546 178.069719 
L 368.159316 177.093063 
L 368.552158 175.511223 
L 368.945 172.940541 
L 369.34677 168.689886 
L 369.766396 161.58779 
L 370.069956 157.900104 
L 370.09674 157.912665 
L 370.123525 157.99621 
L 370.239592 159.039457 
L 370.596721 165.219223 
L 371.069917 171.191092 
L 371.543113 174.573429 
L 372.00738 176.431305 
L 372.471648 177.453565 
L 372.953772 178.011788 
L 373.498393 178.307674 
L 374.230508 178.435752 
L 375.221541 178.377311 
L 375.944727 178.134961 
L 376.453635 177.732878 
L 376.88219 177.101171 
L 377.28396 176.090574 
L 377.68573 174.419728 
L 378.0875 171.691724 
L 378.48927 167.281215 
L 379.007107 161.2224 
L 379.033892 161.251938 
L 379.123174 161.72245 
L 379.34638 164.495081 
L 379.882073 170.880898 
L 380.355269 173.979661 
L 380.828465 175.713304 
L 381.301661 176.661538 
L 381.792713 177.176208 
L 382.364119 177.452633 
L 383.149803 177.568202 
L 384.265831 177.501498 
L 385.033658 177.2576 
L 385.560423 176.858593 
L 385.997906 176.238134 
L 386.408604 175.242026 
L 386.810374 173.633964 
L 387.212144 171.022385 
L 387.640699 166.577721 
L 387.926402 164.551226 
L 387.9889 164.634203 
L 388.122823 165.448821 
L 389.167425 173.595149 
L 389.640621 175.083671 
L 390.122745 175.913299 
L 390.631654 176.366275 
L 391.247701 176.609945 
L 392.149452 176.702487 
L 393.452972 176.610038 
L 394.238656 176.358366 
L 394.774349 175.956945 
L 395.220761 175.33456 
L 395.640387 174.335058 
L 396.042157 172.762148 
L 396.443927 170.225447 
L 396.845697 167.88173 
L 396.908195 167.915045 
L 396.926051 167.951503 
L 397.077831 168.62818 
L 397.961725 173.419403 
L 398.443849 174.584905 
L 398.934901 175.230211 
L 399.488451 175.595862 
L 400.193781 175.783437 
L 401.35445 175.831841 
L 402.934745 175.689945 
L 403.711501 175.415081 
L 404.247194 174.992308 
L 404.702534 174.335732 
L 405.12216 173.313883 
L 405.809633 171.20501 
L 405.881059 171.275608 
L 406.07748 171.79657 
L 406.702456 173.528713 
L 407.202436 174.240868 
L 407.755986 174.651462 
L 408.443459 174.876506 
L 409.514846 174.965874 
L 412.345093 174.898313 
L 413.952173 174.711902 
L 414.72 174.528 
L 414.72 174.528 
" style="fill:none;stroke:#1f77b4;stroke-linecap:square;stroke-width:1.5;"/>
   </g>
   <g id="patch_3">
    <path d="M 57.6 307.584 
L 57.6 41.472 
" style="fill:none;stroke:#000000;stroke-linecap:square;stroke-linejoin:miter;stroke-width:0.8;"/>
   </g>
   <g id="patch_4">
    <path d="M 414.72 307.584 
L 414.72 41.472 
" style="fill:none;stroke:#000000;stroke-linecap:square;stroke-linejoin:miter;stroke-width:0.8;"/>
   </g>
   <g id="patch_5">
    <path d="M 57.6 307.584 
L 414.72 307.584 
" style="fill:none;stroke:#000000;stroke-linecap:square;stroke-linejoin:miter;stroke-width:0.8;"/>
   </g>
   <g id="patch_6">
    <path d="M 57.6 41.472 
L 414.72 41.472 
" style="fill:none;stroke:#000000;stroke-linecap:square;stroke-linejoin:miter;stroke-width:0.8;"/>
   </g>
  </g>
 </g>
 <defs>
  <clipPath id="pa56f6c3358">
   <rect height="266.112" width="357.12" x="57.6" y="41.472"/>
  </clipPath>
 </defs>
</svg>
