<?xml version="1.0" encoding="utf-8" standalone="no"?>
<!DOCTYPE svg PUBLIC "-//W3C//DTD SVG 1.1//EN"
  "http://www.w3.org/Graphics/SVG/1.1/DTD/svg11.dtd">
<!-- Created with matplotlib (http://matplotlib.org/) -->
<svg height="345.6pt" version="1.1" viewBox="0 0 460.8 345.6" width="460.8pt" xmlns="http://www.w3.org/2000/svg" xmlns:xlink="http://www.w3.org/1999/xlink">
 <defs>
  <style type="text/css">
*{stroke-linecap:butt;stroke-linejoin:round;}
  </style>
 </defs>
 <g id="figure_1">
  <g id="patch_1">
   <path d="M 0 345.6 
L 460.8 345.6 
L 460.8 0 
L 0 0 
z
" style="fill:#ffffff;"/>
  </g>
  <g id="axes_1">
   <g id="patch_2">
    <path d="M 57.6 307.584 
L 414.72 307.584 
L 414.72 41.472 
L 57.6 41.472 
z
" style="fill:#ffffff;"/>
   </g>
   <g id="matplotlib.axis_1">
    <g id="xtick_1">
     <g id="line2d_1">
      <path clip-path="url(#pfd2d65b4ce)" d="M 57.591072 307.584 
L 57.591072 41.472 
" style="fill:none;stroke:#b0b0b0;stroke-linecap:square;stroke-width:0.8;"/>
     </g>
     <g id="line2d_2">
      <defs>
       <path d="M 0 0 
L 0 3.5 
" id="mdd01602908" style="stroke:#000000;stroke-width:0.8;"/>
      </defs>
      <g>
       <use style="stroke:#000000;stroke-width:0.8;" x="57.591072" xlink:href="#mdd01602908" y="307.584"/>
      </g>
     </g>
     <g id="text_1">
      <!-- 0 -->
      <defs>
       <path d="M 31.78125 66.40625 
Q 24.171875 66.40625 20.328125 58.90625 
Q 16.5 51.421875 16.5 36.375 
Q 16.5 21.390625 20.328125 13.890625 
Q 24.171875 6.390625 31.78125 6.390625 
Q 39.453125 6.390625 43.28125 13.890625 
Q 47.125 21.390625 47.125 36.375 
Q 47.125 51.421875 43.28125 58.90625 
Q 39.453125 66.40625 31.78125 66.40625 
z
M 31.78125 74.21875 
Q 44.046875 74.21875 50.515625 64.515625 
Q 56.984375 54.828125 56.984375 36.375 
Q 56.984375 17.96875 50.515625 8.265625 
Q 44.046875 -1.421875 31.78125 -1.421875 
Q 19.53125 -1.421875 13.0625 8.265625 
Q 6.59375 17.96875 6.59375 36.375 
Q 6.59375 54.828125 13.0625 64.515625 
Q 19.53125 74.21875 31.78125 74.21875 
z
" id="DejaVuSans-30"/>
      </defs>
      <g transform="translate(54.409822 322.182437)scale(0.1 -0.1)">
       <use xlink:href="#DejaVuSans-30"/>
      </g>
     </g>
    </g>
    <g id="xtick_2">
     <g id="line2d_3">
      <path clip-path="url(#pfd2d65b4ce)" d="M 102.232188 307.584 
L 102.232188 41.472 
" style="fill:none;stroke:#b0b0b0;stroke-linecap:square;stroke-width:0.8;"/>
     </g>
     <g id="line2d_4">
      <g>
       <use style="stroke:#000000;stroke-width:0.8;" x="102.232188" xlink:href="#mdd01602908" y="307.584"/>
      </g>
     </g>
     <g id="text_2">
      <!-- 5000 -->
      <defs>
       <path d="M 10.796875 72.90625 
L 49.515625 72.90625 
L 49.515625 64.59375 
L 19.828125 64.59375 
L 19.828125 46.734375 
Q 21.96875 47.46875 24.109375 47.828125 
Q 26.265625 48.1875 28.421875 48.1875 
Q 40.625 48.1875 47.75 41.5 
Q 54.890625 34.8125 54.890625 23.390625 
Q 54.890625 11.625 47.5625 5.09375 
Q 40.234375 -1.421875 26.90625 -1.421875 
Q 22.3125 -1.421875 17.546875 -0.640625 
Q 12.796875 0.140625 7.71875 1.703125 
L 7.71875 11.625 
Q 12.109375 9.234375 16.796875 8.0625 
Q 21.484375 6.890625 26.703125 6.890625 
Q 35.15625 6.890625 40.078125 11.328125 
Q 45.015625 15.765625 45.015625 23.390625 
Q 45.015625 31 40.078125 35.4375 
Q 35.15625 39.890625 26.703125 39.890625 
Q 22.75 39.890625 18.8125 39.015625 
Q 14.890625 38.140625 10.796875 36.28125 
z
" id="DejaVuSans-35"/>
      </defs>
      <g transform="translate(89.507188 322.182437)scale(0.1 -0.1)">
       <use xlink:href="#DejaVuSans-35"/>
       <use x="63.623047" xlink:href="#DejaVuSans-30"/>
       <use x="127.246094" xlink:href="#DejaVuSans-30"/>
       <use x="190.869141" xlink:href="#DejaVuSans-30"/>
      </g>
     </g>
    </g>
    <g id="xtick_3">
     <g id="line2d_5">
      <path clip-path="url(#pfd2d65b4ce)" d="M 146.873304 307.584 
L 146.873304 41.472 
" style="fill:none;stroke:#b0b0b0;stroke-linecap:square;stroke-width:0.8;"/>
     </g>
     <g id="line2d_6">
      <g>
       <use style="stroke:#000000;stroke-width:0.8;" x="146.873304" xlink:href="#mdd01602908" y="307.584"/>
      </g>
     </g>
     <g id="text_3">
      <!-- 10000 -->
      <defs>
       <path d="M 12.40625 8.296875 
L 28.515625 8.296875 
L 28.515625 63.921875 
L 10.984375 60.40625 
L 10.984375 69.390625 
L 28.421875 72.90625 
L 38.28125 72.90625 
L 38.28125 8.296875 
L 54.390625 8.296875 
L 54.390625 0 
L 12.40625 0 
z
" id="DejaVuSans-31"/>
      </defs>
      <g transform="translate(130.967054 322.182437)scale(0.1 -0.1)">
       <use xlink:href="#DejaVuSans-31"/>
       <use x="63.623047" xlink:href="#DejaVuSans-30"/>
       <use x="127.246094" xlink:href="#DejaVuSans-30"/>
       <use x="190.869141" xlink:href="#DejaVuSans-30"/>
       <use x="254.492188" xlink:href="#DejaVuSans-30"/>
      </g>
     </g>
    </g>
    <g id="xtick_4">
     <g id="line2d_7">
      <path clip-path="url(#pfd2d65b4ce)" d="M 191.51442 307.584 
L 191.51442 41.472 
" style="fill:none;stroke:#b0b0b0;stroke-linecap:square;stroke-width:0.8;"/>
     </g>
     <g id="line2d_8">
      <g>
       <use style="stroke:#000000;stroke-width:0.8;" x="191.51442" xlink:href="#mdd01602908" y="307.584"/>
      </g>
     </g>
     <g id="text_4">
      <!-- 15000 -->
      <g transform="translate(175.60817 322.182437)scale(0.1 -0.1)">
       <use xlink:href="#DejaVuSans-31"/>
       <use x="63.623047" xlink:href="#DejaVuSans-35"/>
       <use x="127.246094" xlink:href="#DejaVuSans-30"/>
       <use x="190.869141" xlink:href="#DejaVuSans-30"/>
       <use x="254.492188" xlink:href="#DejaVuSans-30"/>
      </g>
     </g>
    </g>
    <g id="xtick_5">
     <g id="line2d_9">
      <path clip-path="url(#pfd2d65b4ce)" d="M 236.155536 307.584 
L 236.155536 41.472 
" style="fill:none;stroke:#b0b0b0;stroke-linecap:square;stroke-width:0.8;"/>
     </g>
     <g id="line2d_10">
      <g>
       <use style="stroke:#000000;stroke-width:0.8;" x="236.155536" xlink:href="#mdd01602908" y="307.584"/>
      </g>
     </g>
     <g id="text_5">
      <!-- 20000 -->
      <defs>
       <path d="M 19.1875 8.296875 
L 53.609375 8.296875 
L 53.609375 0 
L 7.328125 0 
L 7.328125 8.296875 
Q 12.9375 14.109375 22.625 23.890625 
Q 32.328125 33.6875 34.8125 36.53125 
Q 39.546875 41.84375 41.421875 45.53125 
Q 43.3125 49.21875 43.3125 52.78125 
Q 43.3125 58.59375 39.234375 62.25 
Q 35.15625 65.921875 28.609375 65.921875 
Q 23.96875 65.921875 18.8125 64.3125 
Q 13.671875 62.703125 7.8125 59.421875 
L 7.8125 69.390625 
Q 13.765625 71.78125 18.9375 73 
Q 24.125 74.21875 28.421875 74.21875 
Q 39.75 74.21875 46.484375 68.546875 
Q 53.21875 62.890625 53.21875 53.421875 
Q 53.21875 48.921875 51.53125 44.890625 
Q 49.859375 40.875 45.40625 35.40625 
Q 44.1875 33.984375 37.640625 27.21875 
Q 31.109375 20.453125 19.1875 8.296875 
z
" id="DejaVuSans-32"/>
      </defs>
      <g transform="translate(220.249286 322.182437)scale(0.1 -0.1)">
       <use xlink:href="#DejaVuSans-32"/>
       <use x="63.623047" xlink:href="#DejaVuSans-30"/>
       <use x="127.246094" xlink:href="#DejaVuSans-30"/>
       <use x="190.869141" xlink:href="#DejaVuSans-30"/>
       <use x="254.492188" xlink:href="#DejaVuSans-30"/>
      </g>
     </g>
    </g>
    <g id="xtick_6">
     <g id="line2d_11">
      <path clip-path="url(#pfd2d65b4ce)" d="M 280.796652 307.584 
L 280.796652 41.472 
" style="fill:none;stroke:#b0b0b0;stroke-linecap:square;stroke-width:0.8;"/>
     </g>
     <g id="line2d_12">
      <g>
       <use style="stroke:#000000;stroke-width:0.8;" x="280.796652" xlink:href="#mdd01602908" y="307.584"/>
      </g>
     </g>
     <g id="text_6">
      <!-- 25000 -->
      <g transform="translate(264.890402 322.182437)scale(0.1 -0.1)">
       <use xlink:href="#DejaVuSans-32"/>
       <use x="63.623047" xlink:href="#DejaVuSans-35"/>
       <use x="127.246094" xlink:href="#DejaVuSans-30"/>
       <use x="190.869141" xlink:href="#DejaVuSans-30"/>
       <use x="254.492188" xlink:href="#DejaVuSans-30"/>
      </g>
     </g>
    </g>
    <g id="xtick_7">
     <g id="line2d_13">
      <path clip-path="url(#pfd2d65b4ce)" d="M 325.437768 307.584 
L 325.437768 41.472 
" style="fill:none;stroke:#b0b0b0;stroke-linecap:square;stroke-width:0.8;"/>
     </g>
     <g id="line2d_14">
      <g>
       <use style="stroke:#000000;stroke-width:0.8;" x="325.437768" xlink:href="#mdd01602908" y="307.584"/>
      </g>
     </g>
     <g id="text_7">
      <!-- 30000 -->
      <defs>
       <path d="M 40.578125 39.3125 
Q 47.65625 37.796875 51.625 33 
Q 55.609375 28.21875 55.609375 21.1875 
Q 55.609375 10.40625 48.1875 4.484375 
Q 40.765625 -1.421875 27.09375 -1.421875 
Q 22.515625 -1.421875 17.65625 -0.515625 
Q 12.796875 0.390625 7.625 2.203125 
L 7.625 11.71875 
Q 11.71875 9.328125 16.59375 8.109375 
Q 21.484375 6.890625 26.8125 6.890625 
Q 36.078125 6.890625 40.9375 10.546875 
Q 45.796875 14.203125 45.796875 21.1875 
Q 45.796875 27.640625 41.28125 31.265625 
Q 36.765625 34.90625 28.71875 34.90625 
L 20.21875 34.90625 
L 20.21875 43.015625 
L 29.109375 43.015625 
Q 36.375 43.015625 40.234375 45.921875 
Q 44.09375 48.828125 44.09375 54.296875 
Q 44.09375 59.90625 40.109375 62.90625 
Q 36.140625 65.921875 28.71875 65.921875 
Q 24.65625 65.921875 20.015625 65.03125 
Q 15.375 64.15625 9.8125 62.3125 
L 9.8125 71.09375 
Q 15.4375 72.65625 20.34375 73.4375 
Q 25.25 74.21875 29.59375 74.21875 
Q 40.828125 74.21875 47.359375 69.109375 
Q 53.90625 64.015625 53.90625 55.328125 
Q 53.90625 49.265625 50.4375 45.09375 
Q 46.96875 40.921875 40.578125 39.3125 
z
" id="DejaVuSans-33"/>
      </defs>
      <g transform="translate(309.531518 322.182437)scale(0.1 -0.1)">
       <use xlink:href="#DejaVuSans-33"/>
       <use x="63.623047" xlink:href="#DejaVuSans-30"/>
       <use x="127.246094" xlink:href="#DejaVuSans-30"/>
       <use x="190.869141" xlink:href="#DejaVuSans-30"/>
       <use x="254.492188" xlink:href="#DejaVuSans-30"/>
      </g>
     </g>
    </g>
    <g id="xtick_8">
     <g id="line2d_15">
      <path clip-path="url(#pfd2d65b4ce)" d="M 370.078884 307.584 
L 370.078884 41.472 
" style="fill:none;stroke:#b0b0b0;stroke-linecap:square;stroke-width:0.8;"/>
     </g>
     <g id="line2d_16">
      <g>
       <use style="stroke:#000000;stroke-width:0.8;" x="370.078884" xlink:href="#mdd01602908" y="307.584"/>
      </g>
     </g>
     <g id="text_8">
      <!-- 35000 -->
      <g transform="translate(354.172634 322.182437)scale(0.1 -0.1)">
       <use xlink:href="#DejaVuSans-33"/>
       <use x="63.623047" xlink:href="#DejaVuSans-35"/>
       <use x="127.246094" xlink:href="#DejaVuSans-30"/>
       <use x="190.869141" xlink:href="#DejaVuSans-30"/>
       <use x="254.492188" xlink:href="#DejaVuSans-30"/>
      </g>
     </g>
    </g>
    <g id="xtick_9">
     <g id="line2d_17">
      <path clip-path="url(#pfd2d65b4ce)" d="M 414.72 307.584 
L 414.72 41.472 
" style="fill:none;stroke:#b0b0b0;stroke-linecap:square;stroke-width:0.8;"/>
     </g>
     <g id="line2d_18">
      <g>
       <use style="stroke:#000000;stroke-width:0.8;" x="414.72" xlink:href="#mdd01602908" y="307.584"/>
      </g>
     </g>
     <g id="text_9">
      <!-- 40000 -->
      <defs>
       <path d="M 37.796875 64.3125 
L 12.890625 25.390625 
L 37.796875 25.390625 
z
M 35.203125 72.90625 
L 47.609375 72.90625 
L 47.609375 25.390625 
L 58.015625 25.390625 
L 58.015625 17.1875 
L 47.609375 17.1875 
L 47.609375 0 
L 37.796875 0 
L 37.796875 17.1875 
L 4.890625 17.1875 
L 4.890625 26.703125 
z
" id="DejaVuSans-34"/>
      </defs>
      <g transform="translate(398.81375 322.182437)scale(0.1 -0.1)">
       <use xlink:href="#DejaVuSans-34"/>
       <use x="63.623047" xlink:href="#DejaVuSans-30"/>
       <use x="127.246094" xlink:href="#DejaVuSans-30"/>
       <use x="190.869141" xlink:href="#DejaVuSans-30"/>
       <use x="254.492188" xlink:href="#DejaVuSans-30"/>
      </g>
     </g>
    </g>
    <g id="text_10">
     <!-- Lag -->
     <defs>
      <path d="M 9.8125 72.90625 
L 19.671875 72.90625 
L 19.671875 8.296875 
L 55.171875 8.296875 
L 55.171875 0 
L 9.8125 0 
z
" id="DejaVuSans-4c"/>
      <path d="M 34.28125 27.484375 
Q 23.390625 27.484375 19.1875 25 
Q 14.984375 22.515625 14.984375 16.5 
Q 14.984375 11.71875 18.140625 8.90625 
Q 21.296875 6.109375 26.703125 6.109375 
Q 34.1875 6.109375 38.703125 11.40625 
Q 43.21875 16.703125 43.21875 25.484375 
L 43.21875 27.484375 
z
M 52.203125 31.203125 
L 52.203125 0 
L 43.21875 0 
L 43.21875 8.296875 
Q 40.140625 3.328125 35.546875 0.953125 
Q 30.953125 -1.421875 24.3125 -1.421875 
Q 15.921875 -1.421875 10.953125 3.296875 
Q 6 8.015625 6 15.921875 
Q 6 25.140625 12.171875 29.828125 
Q 18.359375 34.515625 30.609375 34.515625 
L 43.21875 34.515625 
L 43.21875 35.40625 
Q 43.21875 41.609375 39.140625 45 
Q 35.0625 48.390625 27.6875 48.390625 
Q 23 48.390625 18.546875 47.265625 
Q 14.109375 46.140625 10.015625 43.890625 
L 10.015625 52.203125 
Q 14.9375 54.109375 19.578125 55.046875 
Q 24.21875 56 28.609375 56 
Q 40.484375 56 46.34375 49.84375 
Q 52.203125 43.703125 52.203125 31.203125 
z
" id="DejaVuSans-61"/>
      <path d="M 45.40625 27.984375 
Q 45.40625 37.75 41.375 43.109375 
Q 37.359375 48.484375 30.078125 48.484375 
Q 22.859375 48.484375 18.828125 43.109375 
Q 14.796875 37.75 14.796875 27.984375 
Q 14.796875 18.265625 18.828125 12.890625 
Q 22.859375 7.515625 30.078125 7.515625 
Q 37.359375 7.515625 41.375 12.890625 
Q 45.40625 18.265625 45.40625 27.984375 
z
M 54.390625 6.78125 
Q 54.390625 -7.171875 48.1875 -13.984375 
Q 42 -20.796875 29.203125 -20.796875 
Q 24.46875 -20.796875 20.265625 -20.09375 
Q 16.0625 -19.390625 12.109375 -17.921875 
L 12.109375 -9.1875 
Q 16.0625 -11.328125 19.921875 -12.34375 
Q 23.78125 -13.375 27.78125 -13.375 
Q 36.625 -13.375 41.015625 -8.765625 
Q 45.40625 -4.15625 45.40625 5.171875 
L 45.40625 9.625 
Q 42.625 4.78125 38.28125 2.390625 
Q 33.9375 0 27.875 0 
Q 17.828125 0 11.671875 7.65625 
Q 5.515625 15.328125 5.515625 27.984375 
Q 5.515625 40.671875 11.671875 48.328125 
Q 17.828125 56 27.875 56 
Q 33.9375 56 38.28125 53.609375 
Q 42.625 51.21875 45.40625 46.390625 
L 45.40625 54.6875 
L 54.390625 54.6875 
z
" id="DejaVuSans-67"/>
     </defs>
     <g transform="translate(227.135781 335.860562)scale(0.1 -0.1)">
      <use xlink:href="#DejaVuSans-4c"/>
      <use x="55.712891" xlink:href="#DejaVuSans-61"/>
      <use x="116.992188" xlink:href="#DejaVuSans-67"/>
     </g>
    </g>
   </g>
   <g id="matplotlib.axis_2">
    <g id="ytick_1">
     <g id="line2d_19">
      <path clip-path="url(#pfd2d65b4ce)" d="M 57.6 307.584 
L 414.72 307.584 
" style="fill:none;stroke:#b0b0b0;stroke-linecap:square;stroke-width:0.8;"/>
     </g>
     <g id="line2d_20">
      <defs>
       <path d="M 0 0 
L -3.5 0 
" id="me9b9d14b17" style="stroke:#000000;stroke-width:0.8;"/>
      </defs>
      <g>
       <use style="stroke:#000000;stroke-width:0.8;" x="57.6" xlink:href="#me9b9d14b17" y="307.584"/>
      </g>
     </g>
     <g id="text_11">
      <!-- −1.00 -->
      <defs>
       <path d="M 10.59375 35.5 
L 73.1875 35.5 
L 73.1875 27.203125 
L 10.59375 27.203125 
z
" id="DejaVuSans-2212"/>
       <path d="M 10.6875 12.40625 
L 21 12.40625 
L 21 0 
L 10.6875 0 
z
" id="DejaVuSans-2e"/>
      </defs>
      <g transform="translate(19.954687 311.383219)scale(0.1 -0.1)">
       <use xlink:href="#DejaVuSans-2212"/>
       <use x="83.789062" xlink:href="#DejaVuSans-31"/>
       <use x="147.412109" xlink:href="#DejaVuSans-2e"/>
       <use x="179.199219" xlink:href="#DejaVuSans-30"/>
       <use x="242.822266" xlink:href="#DejaVuSans-30"/>
      </g>
     </g>
    </g>
    <g id="ytick_2">
     <g id="line2d_21">
      <path clip-path="url(#pfd2d65b4ce)" d="M 57.6 274.32 
L 414.72 274.32 
" style="fill:none;stroke:#b0b0b0;stroke-linecap:square;stroke-width:0.8;"/>
     </g>
     <g id="line2d_22">
      <g>
       <use style="stroke:#000000;stroke-width:0.8;" x="57.6" xlink:href="#me9b9d14b17" y="274.32"/>
      </g>
     </g>
     <g id="text_12">
      <!-- −0.75 -->
      <defs>
       <path d="M 8.203125 72.90625 
L 55.078125 72.90625 
L 55.078125 68.703125 
L 28.609375 0 
L 18.3125 0 
L 43.21875 64.59375 
L 8.203125 64.59375 
z
" id="DejaVuSans-37"/>
      </defs>
      <g transform="translate(19.954687 278.119219)scale(0.1 -0.1)">
       <use xlink:href="#DejaVuSans-2212"/>
       <use x="83.789062" xlink:href="#DejaVuSans-30"/>
       <use x="147.412109" xlink:href="#DejaVuSans-2e"/>
       <use x="179.199219" xlink:href="#DejaVuSans-37"/>
       <use x="242.822266" xlink:href="#DejaVuSans-35"/>
      </g>
     </g>
    </g>
    <g id="ytick_3">
     <g id="line2d_23">
      <path clip-path="url(#pfd2d65b4ce)" d="M 57.6 241.056 
L 414.72 241.056 
" style="fill:none;stroke:#b0b0b0;stroke-linecap:square;stroke-width:0.8;"/>
     </g>
     <g id="line2d_24">
      <g>
       <use style="stroke:#000000;stroke-width:0.8;" x="57.6" xlink:href="#me9b9d14b17" y="241.056"/>
      </g>
     </g>
     <g id="text_13">
      <!-- −0.50 -->
      <g transform="translate(19.954687 244.855219)scale(0.1 -0.1)">
       <use xlink:href="#DejaVuSans-2212"/>
       <use x="83.789062" xlink:href="#DejaVuSans-30"/>
       <use x="147.412109" xlink:href="#DejaVuSans-2e"/>
       <use x="179.199219" xlink:href="#DejaVuSans-35"/>
       <use x="242.822266" xlink:href="#DejaVuSans-30"/>
      </g>
     </g>
    </g>
    <g id="ytick_4">
     <g id="line2d_25">
      <path clip-path="url(#pfd2d65b4ce)" d="M 57.6 207.792 
L 414.72 207.792 
" style="fill:none;stroke:#b0b0b0;stroke-linecap:square;stroke-width:0.8;"/>
     </g>
     <g id="line2d_26">
      <g>
       <use style="stroke:#000000;stroke-width:0.8;" x="57.6" xlink:href="#me9b9d14b17" y="207.792"/>
      </g>
     </g>
     <g id="text_14">
      <!-- −0.25 -->
      <g transform="translate(19.954687 211.591219)scale(0.1 -0.1)">
       <use xlink:href="#DejaVuSans-2212"/>
       <use x="83.789062" xlink:href="#DejaVuSans-30"/>
       <use x="147.412109" xlink:href="#DejaVuSans-2e"/>
       <use x="179.199219" xlink:href="#DejaVuSans-32"/>
       <use x="242.822266" xlink:href="#DejaVuSans-35"/>
      </g>
     </g>
    </g>
    <g id="ytick_5">
     <g id="line2d_27">
      <path clip-path="url(#pfd2d65b4ce)" d="M 57.6 174.528 
L 414.72 174.528 
" style="fill:none;stroke:#b0b0b0;stroke-linecap:square;stroke-width:0.8;"/>
     </g>
     <g id="line2d_28">
      <g>
       <use style="stroke:#000000;stroke-width:0.8;" x="57.6" xlink:href="#me9b9d14b17" y="174.528"/>
      </g>
     </g>
     <g id="text_15">
      <!-- 0.00 -->
      <g transform="translate(28.334375 178.327219)scale(0.1 -0.1)">
       <use xlink:href="#DejaVuSans-30"/>
       <use x="63.623047" xlink:href="#DejaVuSans-2e"/>
       <use x="95.410156" xlink:href="#DejaVuSans-30"/>
       <use x="159.033203" xlink:href="#DejaVuSans-30"/>
      </g>
     </g>
    </g>
    <g id="ytick_6">
     <g id="line2d_29">
      <path clip-path="url(#pfd2d65b4ce)" d="M 57.6 141.264 
L 414.72 141.264 
" style="fill:none;stroke:#b0b0b0;stroke-linecap:square;stroke-width:0.8;"/>
     </g>
     <g id="line2d_30">
      <g>
       <use style="stroke:#000000;stroke-width:0.8;" x="57.6" xlink:href="#me9b9d14b17" y="141.264"/>
      </g>
     </g>
     <g id="text_16">
      <!-- 0.25 -->
      <g transform="translate(28.334375 145.063219)scale(0.1 -0.1)">
       <use xlink:href="#DejaVuSans-30"/>
       <use x="63.623047" xlink:href="#DejaVuSans-2e"/>
       <use x="95.410156" xlink:href="#DejaVuSans-32"/>
       <use x="159.033203" xlink:href="#DejaVuSans-35"/>
      </g>
     </g>
    </g>
    <g id="ytick_7">
     <g id="line2d_31">
      <path clip-path="url(#pfd2d65b4ce)" d="M 57.6 108 
L 414.72 108 
" style="fill:none;stroke:#b0b0b0;stroke-linecap:square;stroke-width:0.8;"/>
     </g>
     <g id="line2d_32">
      <g>
       <use style="stroke:#000000;stroke-width:0.8;" x="57.6" xlink:href="#me9b9d14b17" y="108"/>
      </g>
     </g>
     <g id="text_17">
      <!-- 0.50 -->
      <g transform="translate(28.334375 111.799219)scale(0.1 -0.1)">
       <use xlink:href="#DejaVuSans-30"/>
       <use x="63.623047" xlink:href="#DejaVuSans-2e"/>
       <use x="95.410156" xlink:href="#DejaVuSans-35"/>
       <use x="159.033203" xlink:href="#DejaVuSans-30"/>
      </g>
     </g>
    </g>
    <g id="ytick_8">
     <g id="line2d_33">
      <path clip-path="url(#pfd2d65b4ce)" d="M 57.6 74.736 
L 414.72 74.736 
" style="fill:none;stroke:#b0b0b0;stroke-linecap:square;stroke-width:0.8;"/>
     </g>
     <g id="line2d_34">
      <g>
       <use style="stroke:#000000;stroke-width:0.8;" x="57.6" xlink:href="#me9b9d14b17" y="74.736"/>
      </g>
     </g>
     <g id="text_18">
      <!-- 0.75 -->
      <g transform="translate(28.334375 78.535219)scale(0.1 -0.1)">
       <use xlink:href="#DejaVuSans-30"/>
       <use x="63.623047" xlink:href="#DejaVuSans-2e"/>
       <use x="95.410156" xlink:href="#DejaVuSans-37"/>
       <use x="159.033203" xlink:href="#DejaVuSans-35"/>
      </g>
     </g>
    </g>
    <g id="ytick_9">
     <g id="line2d_35">
      <path clip-path="url(#pfd2d65b4ce)" d="M 57.6 41.472 
L 414.72 41.472 
" style="fill:none;stroke:#b0b0b0;stroke-linecap:square;stroke-width:0.8;"/>
     </g>
     <g id="line2d_36">
      <g>
       <use style="stroke:#000000;stroke-width:0.8;" x="57.6" xlink:href="#me9b9d14b17" y="41.472"/>
      </g>
     </g>
     <g id="text_19">
      <!-- 1.00 -->
      <g transform="translate(28.334375 45.271219)scale(0.1 -0.1)">
       <use xlink:href="#DejaVuSans-31"/>
       <use x="63.623047" xlink:href="#DejaVuSans-2e"/>
       <use x="95.410156" xlink:href="#DejaVuSans-30"/>
       <use x="159.033203" xlink:href="#DejaVuSans-30"/>
      </g>
     </g>
    </g>
    <g id="text_20">
     <!-- Autocorrelation -->
     <defs>
      <path d="M 34.1875 63.1875 
L 20.796875 26.90625 
L 47.609375 26.90625 
z
M 28.609375 72.90625 
L 39.796875 72.90625 
L 67.578125 0 
L 57.328125 0 
L 50.6875 18.703125 
L 17.828125 18.703125 
L 11.1875 0 
L 0.78125 0 
z
" id="DejaVuSans-41"/>
      <path d="M 8.5 21.578125 
L 8.5 54.6875 
L 17.484375 54.6875 
L 17.484375 21.921875 
Q 17.484375 14.15625 20.5 10.265625 
Q 23.53125 6.390625 29.59375 6.390625 
Q 36.859375 6.390625 41.078125 11.03125 
Q 45.3125 15.671875 45.3125 23.6875 
L 45.3125 54.6875 
L 54.296875 54.6875 
L 54.296875 0 
L 45.3125 0 
L 45.3125 8.40625 
Q 42.046875 3.421875 37.71875 1 
Q 33.40625 -1.421875 27.6875 -1.421875 
Q 18.265625 -1.421875 13.375 4.4375 
Q 8.5 10.296875 8.5 21.578125 
z
M 31.109375 56 
z
" id="DejaVuSans-75"/>
      <path d="M 18.3125 70.21875 
L 18.3125 54.6875 
L 36.8125 54.6875 
L 36.8125 47.703125 
L 18.3125 47.703125 
L 18.3125 18.015625 
Q 18.3125 11.328125 20.140625 9.421875 
Q 21.96875 7.515625 27.59375 7.515625 
L 36.8125 7.515625 
L 36.8125 0 
L 27.59375 0 
Q 17.1875 0 13.234375 3.875 
Q 9.28125 7.765625 9.28125 18.015625 
L 9.28125 47.703125 
L 2.6875 47.703125 
L 2.6875 54.6875 
L 9.28125 54.6875 
L 9.28125 70.21875 
z
" id="DejaVuSans-74"/>
      <path d="M 30.609375 48.390625 
Q 23.390625 48.390625 19.1875 42.75 
Q 14.984375 37.109375 14.984375 27.296875 
Q 14.984375 17.484375 19.15625 11.84375 
Q 23.34375 6.203125 30.609375 6.203125 
Q 37.796875 6.203125 41.984375 11.859375 
Q 46.1875 17.53125 46.1875 27.296875 
Q 46.1875 37.015625 41.984375 42.703125 
Q 37.796875 48.390625 30.609375 48.390625 
z
M 30.609375 56 
Q 42.328125 56 49.015625 48.375 
Q 55.71875 40.765625 55.71875 27.296875 
Q 55.71875 13.875 49.015625 6.21875 
Q 42.328125 -1.421875 30.609375 -1.421875 
Q 18.84375 -1.421875 12.171875 6.21875 
Q 5.515625 13.875 5.515625 27.296875 
Q 5.515625 40.765625 12.171875 48.375 
Q 18.84375 56 30.609375 56 
z
" id="DejaVuSans-6f"/>
      <path d="M 48.78125 52.59375 
L 48.78125 44.1875 
Q 44.96875 46.296875 41.140625 47.34375 
Q 37.3125 48.390625 33.40625 48.390625 
Q 24.65625 48.390625 19.8125 42.84375 
Q 14.984375 37.3125 14.984375 27.296875 
Q 14.984375 17.28125 19.8125 11.734375 
Q 24.65625 6.203125 33.40625 6.203125 
Q 37.3125 6.203125 41.140625 7.25 
Q 44.96875 8.296875 48.78125 10.40625 
L 48.78125 2.09375 
Q 45.015625 0.34375 40.984375 -0.53125 
Q 36.96875 -1.421875 32.421875 -1.421875 
Q 20.0625 -1.421875 12.78125 6.34375 
Q 5.515625 14.109375 5.515625 27.296875 
Q 5.515625 40.671875 12.859375 48.328125 
Q 20.21875 56 33.015625 56 
Q 37.15625 56 41.109375 55.140625 
Q 45.0625 54.296875 48.78125 52.59375 
z
" id="DejaVuSans-63"/>
      <path d="M 41.109375 46.296875 
Q 39.59375 47.171875 37.8125 47.578125 
Q 36.03125 48 33.890625 48 
Q 26.265625 48 22.1875 43.046875 
Q 18.109375 38.09375 18.109375 28.8125 
L 18.109375 0 
L 9.078125 0 
L 9.078125 54.6875 
L 18.109375 54.6875 
L 18.109375 46.1875 
Q 20.953125 51.171875 25.484375 53.578125 
Q 30.03125 56 36.53125 56 
Q 37.453125 56 38.578125 55.875 
Q 39.703125 55.765625 41.0625 55.515625 
z
" id="DejaVuSans-72"/>
      <path d="M 56.203125 29.59375 
L 56.203125 25.203125 
L 14.890625 25.203125 
Q 15.484375 15.921875 20.484375 11.0625 
Q 25.484375 6.203125 34.421875 6.203125 
Q 39.59375 6.203125 44.453125 7.46875 
Q 49.3125 8.734375 54.109375 11.28125 
L 54.109375 2.78125 
Q 49.265625 0.734375 44.1875 -0.34375 
Q 39.109375 -1.421875 33.890625 -1.421875 
Q 20.796875 -1.421875 13.15625 6.1875 
Q 5.515625 13.8125 5.515625 26.8125 
Q 5.515625 40.234375 12.765625 48.109375 
Q 20.015625 56 32.328125 56 
Q 43.359375 56 49.78125 48.890625 
Q 56.203125 41.796875 56.203125 29.59375 
z
M 47.21875 32.234375 
Q 47.125 39.59375 43.09375 43.984375 
Q 39.0625 48.390625 32.421875 48.390625 
Q 24.90625 48.390625 20.390625 44.140625 
Q 15.875 39.890625 15.1875 32.171875 
z
" id="DejaVuSans-65"/>
      <path d="M 9.421875 75.984375 
L 18.40625 75.984375 
L 18.40625 0 
L 9.421875 0 
z
" id="DejaVuSans-6c"/>
      <path d="M 9.421875 54.6875 
L 18.40625 54.6875 
L 18.40625 0 
L 9.421875 0 
z
M 9.421875 75.984375 
L 18.40625 75.984375 
L 18.40625 64.59375 
L 9.421875 64.59375 
z
" id="DejaVuSans-69"/>
      <path d="M 54.890625 33.015625 
L 54.890625 0 
L 45.90625 0 
L 45.90625 32.71875 
Q 45.90625 40.484375 42.875 44.328125 
Q 39.84375 48.1875 33.796875 48.1875 
Q 26.515625 48.1875 22.3125 43.546875 
Q 18.109375 38.921875 18.109375 30.90625 
L 18.109375 0 
L 9.078125 0 
L 9.078125 54.6875 
L 18.109375 54.6875 
L 18.109375 46.1875 
Q 21.34375 51.125 25.703125 53.5625 
Q 30.078125 56 35.796875 56 
Q 45.21875 56 50.046875 50.171875 
Q 54.890625 44.34375 54.890625 33.015625 
z
" id="DejaVuSans-6e"/>
     </defs>
     <g transform="translate(13.875 213.160812)rotate(-90)scale(0.1 -0.1)">
      <use xlink:href="#DejaVuSans-41"/>
      <use x="68.408203" xlink:href="#DejaVuSans-75"/>
      <use x="131.787109" xlink:href="#DejaVuSans-74"/>
      <use x="170.996094" xlink:href="#DejaVuSans-6f"/>
      <use x="232.177734" xlink:href="#DejaVuSans-63"/>
      <use x="287.158203" xlink:href="#DejaVuSans-6f"/>
      <use x="348.339844" xlink:href="#DejaVuSans-72"/>
      <use x="389.4375" xlink:href="#DejaVuSans-72"/>
      <use x="430.519531" xlink:href="#DejaVuSans-65"/>
      <use x="492.042969" xlink:href="#DejaVuSans-6c"/>
      <use x="519.826172" xlink:href="#DejaVuSans-61"/>
      <use x="581.105469" xlink:href="#DejaVuSans-74"/>
      <use x="620.314453" xlink:href="#DejaVuSans-69"/>
      <use x="648.097656" xlink:href="#DejaVuSans-6f"/>
      <use x="709.279297" xlink:href="#DejaVuSans-6e"/>
     </g>
    </g>
   </g>
   <g id="line2d_37">
    <path clip-path="url(#pfd2d65b4ce)" d="M 57.6 172.814352 
L 414.72 172.814352 
" style="fill:none;stroke:#808080;stroke-dasharray:5.55,2.4;stroke-dashoffset:0;stroke-width:1.5;"/>
   </g>
   <g id="line2d_38">
    <path clip-path="url(#pfd2d65b4ce)" d="M 57.6 173.224075 
L 414.72 173.224075 
" style="fill:none;stroke:#808080;stroke-linecap:square;stroke-width:1.5;"/>
   </g>
   <g id="line2d_39">
    <path clip-path="url(#pfd2d65b4ce)" d="M 57.6 174.528 
L 414.72 174.528 
" style="fill:none;stroke:#000000;stroke-linecap:square;stroke-width:1.5;"/>
   </g>
   <g id="line2d_40">
    <path clip-path="url(#pfd2d65b4ce)" d="M 57.6 175.831925 
L 414.72 175.831925 
" style="fill:none;stroke:#808080;stroke-linecap:square;stroke-width:1.5;"/>
   </g>
   <g id="line2d_41">
    <path clip-path="url(#pfd2d65b4ce)" d="M 57.6 176.241648 
L 414.72 176.241648 
" style="fill:none;stroke:#808080;stroke-dasharray:5.55,2.4;stroke-dashoffset:0;stroke-width:1.5;"/>
   </g>
   <g id="line2d_42">
    <path clip-path="url(#pfd2d65b4ce)" d="M 57.6 41.484638 
L 57.671426 41.964627 
L 57.814277 44.873759 
L 58.064268 55.322328 
L 58.510679 84.899261 
L 60.590955 234.852416 
L 61.171289 257.971781 
L 61.6177 268.155442 
L 61.930188 271.255609 
L 62.07304 271.560242 
L 62.099824 271.539534 
L 62.206963 271.210918 
L 62.385528 269.789841 
L 62.653374 265.616603 
L 63.019431 255.983303 
L 63.492627 236.955295 
L 64.090818 202.94736 
L 64.903287 142.58 
L 66.09074 55.532833 
L 66.412156 45.450093 
L 66.510367 44.79621 
L 66.555008 44.910209 
L 66.662147 46.21998 
L 66.858567 52.118088 
L 67.19784 70.333462 
L 67.885313 122.022087 
L 69.099551 210.60762 
L 69.778096 244.686248 
L 70.304862 261.234462 
L 70.697703 267.656761 
L 70.956622 269.08393 
L 71.019119 269.093205 
L 71.054832 269.039942 
L 71.179827 268.518168 
L 71.385177 266.529569 
L 71.679808 261.22866 
L 72.07265 249.72261 
L 72.57263 227.959573 
L 73.206534 189.8558 
L 74.17971 115.74727 
L 75.001107 59.418616 
L 75.331451 48.874695 
L 75.43859 48.122477 
L 75.483231 48.234495 
L 75.59037 49.51286 
L 75.786791 55.262915 
L 76.126063 73.01234 
L 76.813536 123.366009 
L 78.027775 209.657491 
L 78.70632 242.855096 
L 79.233085 258.977188 
L 79.625927 265.235631 
L 79.884845 266.627725 
L 79.947343 266.637242 
L 79.983056 266.585638 
L 80.108051 266.078381 
L 80.3134 264.143004 
L 80.608031 258.981985 
L 81.000873 247.777581 
L 81.500854 226.58303 
L 82.134757 189.472499 
L 83.107934 117.294663 
L 83.92933 62.440503 
L 84.259674 52.178894 
L 84.366813 51.448745 
L 84.411454 51.55878 
L 84.518593 52.80574 
L 84.715014 58.407741 
L 85.054286 75.691218 
L 85.74176 124.70993 
L 86.955998 208.707363 
L 87.634543 241.023945 
L 88.161308 256.719913 
L 88.55415 262.814501 
L 88.813068 264.17152 
L 88.884494 264.172578 
L 88.911279 264.131335 
L 89.036274 263.638593 
L 89.241623 261.75644 
L 89.536254 256.73531 
L 89.929096 245.832552 
L 90.429077 225.206488 
L 91.062981 189.089198 
L 92.036157 118.842055 
L 92.857553 65.462389 
L 93.187898 55.483092 
L 93.295036 54.775013 
L 93.339677 54.883066 
L 93.446816 56.098619 
L 93.643237 61.552567 
L 93.98251 78.370097 
L 94.669983 126.053851 
L 95.884221 207.757234 
L 96.562766 239.192793 
L 97.089531 254.462639 
L 97.482373 260.39337 
L 97.741292 261.715315 
L 97.812717 261.716926 
L 97.839502 261.677031 
L 97.964497 261.198806 
L 98.169846 259.369875 
L 98.464478 254.488634 
L 98.857319 243.887523 
L 99.3573 223.829945 
L 99.991204 188.705897 
L 100.96438 120.389448 
L 101.785777 68.484276 
L 102.116121 58.787291 
L 102.22326 58.101281 
L 102.267901 58.207351 
L 102.375039 59.391499 
L 102.57146 64.697393 
L 102.910733 81.048975 
L 103.598206 127.397773 
L 104.812444 206.807105 
L 105.490989 237.361642 
L 106.017754 252.205364 
L 106.410596 257.97224 
L 106.669515 259.259109 
L 106.740941 259.261274 
L 106.767725 259.222727 
L 106.89272 258.759018 
L 107.098069 256.983311 
L 107.392701 252.241959 
L 107.785543 241.942494 
L 108.285523 222.453403 
L 108.919427 188.322595 
L 109.892603 121.93684 
L 110.714 71.506162 
L 111.044344 62.09149 
L 111.151483 61.427548 
L 111.196124 61.531636 
L 111.303263 62.684379 
L 111.499683 67.842219 
L 111.838956 83.727853 
L 112.526429 128.741694 
L 113.740668 205.856976 
L 114.419212 235.53049 
L 114.945978 249.94809 
L 115.338819 255.55111 
L 115.597738 256.802904 
L 115.669164 256.805622 
L 115.704877 256.751391 
L 115.8388 256.218016 
L 116.053077 254.28198 
L 116.356637 249.267826 
L 116.758407 238.58607 
L 117.276244 218.243506 
L 117.936932 182.555047 
L 119.142243 101.9359 
L 119.731505 71.117094 
L 120.017208 64.977016 
L 120.079706 64.753816 
L 120.133275 64.902432 
L 120.249342 66.280897 
L 120.454691 71.930988 
L 120.820749 89.390833 
L 121.606432 140.359681 
L 122.686747 205.809672 
L 123.356364 233.999156 
L 123.883129 247.862258 
L 124.275971 253.203344 
L 124.525961 254.346699 
L 124.597387 254.34997 
L 124.6331 254.297675 
L 124.767023 253.781408 
L 124.981301 251.905045 
L 125.28486 247.043166 
L 125.68663 236.683521 
L 126.204467 216.95197 
L 126.865156 182.333007 
L 128.070466 104.130099 
L 128.659728 74.243288 
L 128.945432 68.294975 
L 129.007929 68.080084 
L 129.061499 68.225529 
L 129.177565 69.564979 
L 129.391843 75.364791 
L 129.7579 92.471786 
L 130.570368 143.722476 
L 131.623899 205.266776 
L 132.293515 232.447451 
L 132.811352 245.599786 
L 133.204194 250.780038 
L 133.454184 251.890494 
L 133.534538 251.884995 
L 133.561323 251.843959 
L 133.695246 251.3448 
L 133.909524 249.52811 
L 134.213083 244.818506 
L 134.614853 234.780971 
L 135.13269 215.660434 
L 135.793379 182.110967 
L 136.998689 106.324298 
L 137.587952 77.369482 
L 137.873655 71.612933 
L 137.936152 71.406352 
L 137.989722 71.548626 
L 138.105789 72.849062 
L 138.320066 78.471581 
L 138.686123 95.044385 
L 139.498591 144.677693 
L 140.552122 204.275241 
L 141.221739 230.598056 
L 141.739575 243.337314 
L 142.132417 248.356732 
L 142.382408 249.434289 
L 142.462762 249.429723 
L 142.489546 249.390242 
L 142.62347 248.908191 
L 142.837747 247.151175 
L 143.141307 242.593847 
L 143.543077 232.878422 
L 144.060914 214.368898 
L 144.721602 181.888927 
L 145.926912 108.518497 
L 146.516175 80.495676 
L 146.801878 74.930891 
L 146.864376 74.732619 
L 146.917945 74.871723 
L 147.034012 76.133145 
L 147.248289 81.578371 
L 147.623275 98.081604 
L 148.462528 147.812812 
L 149.489273 203.689424 
L 150.15889 229.017151 
L 150.676727 241.228684 
L 151.060641 245.933425 
L 151.310631 246.978084 
L 151.390985 246.974452 
L 151.417769 246.936526 
L 151.551693 246.471583 
L 151.76597 244.77424 
L 152.06953 240.369187 
L 152.4713 230.975872 
L 152.989137 213.077362 
L 153.649825 181.666887 
L 154.864064 110.209136 
L 155.444398 83.62187 
L 155.730101 78.248849 
L 155.792599 78.058887 
L 155.846168 78.19482 
L 155.962235 79.417228 
L 156.176512 84.685162 
L 156.551498 100.63863 
L 157.390751 148.694423 
L 158.417496 202.684201 
L 159.087113 227.158732 
L 159.60495 238.961083 
L 159.988864 243.510119 
L 160.238854 244.521879 
L 160.328136 244.509027 
L 160.345993 244.48281 
L 160.479916 244.034975 
L 160.694193 242.397305 
L 160.997753 238.144527 
L 161.399523 229.073322 
L 161.91736 211.785825 
L 162.578048 181.444847 
L 163.792287 112.420542 
L 164.372621 86.748065 
L 164.658324 81.566807 
L 164.720822 81.385155 
L 164.774391 81.517918 
L 164.890458 82.701311 
L 165.104736 87.791952 
L 165.479721 103.195657 
L 166.318974 149.576034 
L 167.34572 201.678979 
L 168.015336 225.300313 
L 168.533173 236.693482 
L 168.917087 241.086813 
L 169.167077 242.065673 
L 169.256359 242.054205 
L 169.274216 242.029094 
L 169.408139 241.598367 
L 169.622417 240.02037 
L 169.925976 235.919867 
L 170.327746 227.170773 
L 170.845583 210.494289 
L 171.506272 181.222807 
L 172.72051 114.631948 
L 173.300845 89.874259 
L 173.586548 84.884765 
L 173.649045 84.711423 
L 173.702615 84.841015 
L 173.818681 85.985394 
L 174.032959 90.898742 
L 174.407944 105.752684 
L 175.247197 150.457645 
L 176.273943 200.673756 
L 176.94356 223.441894 
L 177.461397 234.425881 
L 177.84531 238.663506 
L 178.0953 239.609468 
L 178.184583 239.599382 
L 178.211367 239.560627 
L 178.354219 239.075474 
L 178.577424 237.379652 
L 178.89884 232.937896 
L 179.318467 223.634919 
L 179.845232 206.547896 
L 180.523777 176.626082 
L 182.380848 89.665256 
L 182.577268 88.03769 
L 182.586197 88.0416 
L 182.648694 88.260905 
L 182.782618 89.828975 
L 183.02368 95.942519 
L 183.443306 113.303062 
L 185.720003 217.406881 
L 186.273553 230.289837 
L 186.693179 235.653784 
L 186.978882 237.091504 
L 187.086021 237.165684 
L 187.121734 237.133992 
L 187.255657 236.763922 
L 187.469935 235.3475 
L 187.773494 231.610989 
L 188.175264 223.583368 
L 188.684173 208.534264 
L 189.335933 182.019398 
L 190.434105 126.168317 
L 191.11265 97.356691 
L 191.416209 91.686374 
L 191.505492 91.363958 
L 191.550133 91.450205 
L 191.657271 92.320298 
L 191.853692 96.145654 
L 192.201893 108.207928 
L 192.907223 142.206956 
L 194.094676 197.305817 
L 194.773221 219.050126 
L 195.299986 229.632619 
L 195.692828 233.76094 
L 195.951747 234.697058 
L 196.049957 234.679688 
L 196.067814 234.654508 
L 196.210665 234.209168 
L 196.433871 232.64628 
L 196.746359 228.689853 
L 197.157057 220.393481 
L 197.683822 204.78859 
L 198.353439 177.737566 
L 200.25515 95.923868 
L 200.433715 94.690226 
L 200.451571 94.704922 
L 200.531925 95.083194 
L 200.692633 97.301104 
L 200.969408 104.889807 
L 201.478317 126.199627 
L 203.237177 203.842351 
L 203.862153 220.896292 
L 204.353205 228.974863 
L 204.710334 231.804653 
L 204.924611 232.258195 
L 205.03175 232.134078 
L 205.201386 231.459169 
L 205.451376 229.397724 
L 205.799577 224.421889 
L 206.245988 214.523934 
L 206.817394 196.377051 
L 207.567365 164.694053 
L 209.004809 102.596129 
L 209.290512 98.200835 
L 209.361938 98.016494 
L 209.415507 98.133404 
L 209.531574 99.121725 
L 209.745852 103.325902 
L 210.120837 115.980792 
L 210.969018 154.399391 
L 211.995764 196.961481 
L 212.665381 216.212069 
L 213.183218 225.471884 
L 213.567131 229.020331 
L 213.817121 229.791193 
L 213.933188 229.73471 
L 214.084968 229.264182 
L 214.317102 227.67618 
L 214.638518 223.752417 
L 215.067073 215.45004 
L 215.602766 200.33374 
L 216.299167 173.746683 
L 218.049099 103.374728 
L 218.281233 101.344145 
L 218.334802 101.423062 
L 218.441941 102.198938 
L 218.638362 105.580133 
L 218.986563 116.199932 
L 219.700821 146.472944 
L 220.879346 194.455431 
L 221.557891 213.556671 
L 222.084656 222.860796 
L 222.477498 226.49755 
L 222.736416 227.328443 
L 222.852483 227.29533 
L 222.861412 227.282376 
L 223.013191 226.834761 
L 223.245325 225.32036 
L 223.566741 221.575051 
L 223.995296 213.646746 
L 224.530989 199.207933 
L 225.227391 173.808933 
L 226.977322 106.600384 
L 227.209456 104.670016 
L 227.263026 104.747347 
L 227.370164 105.491818 
L 227.566585 108.724959 
L 227.914786 118.863933 
L 228.629044 147.742711 
L 229.807569 193.505302 
L 230.486114 211.72552 
L 231.012879 220.603521 
L 231.405721 224.07642 
L 231.66464 224.872238 
L 231.789635 224.830043 
L 231.941415 224.405339 
L 232.173548 222.964541 
L 232.494964 219.397685 
L 232.923519 211.843451 
L 233.459212 198.082126 
L 234.155614 173.871183 
L 235.905546 109.82604 
L 236.137679 107.995887 
L 236.200177 108.102695 
L 236.325172 109.075895 
L 236.548378 113.056286 
L 236.94122 124.904401 
L 237.914396 163.405721 
L 238.851859 196.006167 
L 239.50362 211.644927 
L 240.012528 219.140083 
L 240.387514 221.905557 
L 240.628576 222.432049 
L 240.744643 222.335114 
L 240.914279 221.78363 
L 241.164269 220.085486 
L 241.51247 215.973278 
L 241.958881 207.779911 
L 242.521359 193.015856 
L 243.27133 166.825706 
L 244.717702 115.062477 
L 245.003405 111.463726 
L 245.074831 111.321565 
L 245.119472 111.395918 
L 245.235539 112.1655 
L 245.440888 115.376813 
L 245.806945 125.333989 
L 246.592629 154.421973 
L 247.681872 192.120614 
L 248.360417 208.405309 
L 248.887182 216.285075 
L 249.280024 219.318676 
L 249.530014 219.965681 
L 249.655009 219.913321 
L 249.815717 219.47763 
L 250.056779 218.048188 
L 250.387124 214.585273 
L 250.824607 207.365065 
L 251.378156 194.116642 
L 252.092414 171.141182 
L 253.708423 117.073476 
L 253.967341 114.675611 
L 254.011982 114.6528 
L 254.047695 114.720203 
L 254.163762 115.454106 
L 254.369111 118.503007 
L 254.735168 127.93745 
L 255.520852 155.469479 
L 256.610095 191.142824 
L 257.28864 206.555913 
L 257.815405 214.017474 
L 258.208247 216.893262 
L 258.458237 217.509303 
L 258.583233 217.461782 
L 258.743941 217.052216 
L 258.985003 215.703854 
L 259.315347 212.433181 
L 259.75283 205.609505 
L 260.30638 193.084217 
L 261.020638 171.358615 
L 262.636646 120.253164 
L 262.895564 117.998708 
L 262.940206 117.9792 
L 262.975918 118.044489 
L 263.091985 118.742711 
L 263.297334 121.629201 
L 263.663392 130.540912 
L 264.458003 156.824116 
L 265.538318 190.165034 
L 266.216863 204.706518 
L 266.743629 211.749873 
L 267.13647 214.467849 
L 267.395389 215.057292 
L 267.520384 214.998638 
L 267.681092 214.594667 
L 267.922154 213.296668 
L 268.261427 210.070804 
L 268.698909 203.535867 
L 269.252459 191.606815 
L 269.975645 170.717322 
L 271.547013 123.695854 
L 271.814859 121.33775 
L 271.8595 121.300368 
L 271.904142 121.368774 
L 272.020209 122.031316 
L 272.234486 124.91297 
L 272.609471 133.633379 
L 273.448724 159.868364 
L 274.484398 189.616307 
L 275.154015 202.999284 
L 275.671852 209.482272 
L 276.064694 212.042435 
L 276.323612 212.60081 
L 276.457535 212.53615 
L 276.627172 212.108091 
L 276.877162 210.773248 
L 277.225363 207.524666 
L 277.671774 201.035888 
L 278.234252 189.326893 
L 278.984223 168.54064 
L 280.430595 127.528826 
L 280.716298 124.726618 
L 280.787724 124.626636 
L 280.832365 124.69306 
L 280.948432 125.319922 
L 281.162709 128.029558 
L 281.537694 136.205978 
L 282.376947 160.768355 
L 283.412621 188.611085 
L 284.082238 201.140865 
L 284.600075 207.214671 
L 284.992917 209.617021 
L 285.251835 210.144329 
L 285.385759 210.086409 
L 285.555395 209.689206 
L 285.805385 208.445188 
L 286.153586 205.412513 
L 286.599997 199.349882 
L 287.162475 188.404652 
L 287.912446 168.969374 
L 289.34989 130.778868 
L 289.635593 128.070137 
L 289.715947 127.952904 
L 289.760588 128.017345 
L 289.876655 128.608527 
L 290.090932 131.146145 
L 290.465918 138.778578 
L 291.314099 161.918589 
L 292.340845 187.605862 
L 293.010461 199.282445 
L 293.537226 205.017929 
L 293.930068 207.221761 
L 294.188987 207.69097 
L 294.331838 207.613973 
L 294.510403 207.181689 
L 294.778249 205.834513 
L 295.135378 202.743014 
L 295.599646 196.556127 
L 296.17998 185.573605 
L 296.965664 166.025127 
L 298.224544 134.681058 
L 298.537031 131.479663 
L 298.64417 131.279171 
L 298.679883 131.322291 
L 298.79595 131.834857 
L 299.001299 134.007577 
L 299.367356 140.758269 
L 300.15304 160.473668 
L 301.242283 186.079427 
L 301.920828 197.193029 
L 302.447593 202.612822 
L 302.840435 204.737217 
L 303.108282 205.231365 
L 303.260062 205.166305 
L 303.447554 204.741065 
L 303.715401 203.473617 
L 304.081458 200.494814 
L 304.545726 194.689339 
L 305.134988 184.250905 
L 305.938528 165.577229 
L 307.13491 137.987668 
L 307.456326 134.819195 
L 307.563465 134.602856 
L 307.608106 134.647501 
L 307.724173 135.127737 
L 307.929522 137.143185 
L 308.295579 143.377017 
L 309.090191 161.754518 
L 310.170506 185.115439 
L 310.849051 195.352723 
L 311.375816 200.350351 
L 311.768658 202.313911 
L 312.036505 202.774883 
L 312.188285 202.718638 
L 312.375777 202.331852 
L 312.643624 201.172025 
L 313.000753 198.521949 
L 313.465021 193.229861 
L 314.054283 183.682437 
L 314.848895 166.764555 
L 316.072062 140.88845 
L 316.38455 138.119873 
L 316.491688 137.928727 
L 316.536329 137.972711 
L 316.652396 138.420617 
L 316.866674 140.386366 
L 317.241659 146.32856 
L 318.080912 164.173048 
L 319.125514 184.590195 
L 319.795131 193.707188 
L 320.321896 198.199944 
L 320.714738 199.939405 
L 320.973656 200.321421 
L 321.134364 200.251592 
L 321.330785 199.846748 
L 321.60756 198.680994 
L 321.982546 195.999434 
L 322.455741 190.847344 
L 323.053932 181.697377 
L 323.893185 165.023013 
L 324.964572 144.372036 
L 325.294916 141.484906 
L 325.419911 141.254598 
L 325.455624 141.28398 
L 325.571691 141.666469 
L 325.77704 143.318046 
L 326.143098 148.464756 
L 326.928781 163.49368 
L 328.026953 183.187463 
L 328.705498 191.67211 
L 329.232263 195.825407 
L 329.634033 197.489953 
L 329.90188 197.864904 
L 330.071516 197.796775 
L 330.276865 197.396955 
L 330.562568 196.263749 
L 330.946482 193.692779 
L 331.428606 188.804123 
L 332.044653 180.063611 
L 332.937475 163.741444 
L 333.883867 147.464485 
L 334.22314 144.777786 
L 334.348135 144.58047 
L 334.383848 144.609851 
L 334.499914 144.963373 
L 334.705264 146.462872 
L 335.071321 151.098691 
L 335.865933 164.737649 
L 336.955176 182.223476 
L 337.633721 189.831803 
L 338.169414 193.609066 
L 338.571184 195.084501 
L 338.839031 195.41075 
L 339.017595 195.33453 
L 339.231873 194.932635 
L 339.526504 193.828399 
L 339.919346 191.371734 
L 340.419326 186.663299 
L 341.05323 178.356767 
L 342.035335 162.015119 
L 342.821019 150.346502 
L 343.151363 148.070665 
L 343.276358 147.906341 
L 343.312071 147.935722 
L 343.437066 148.299256 
L 343.651343 149.764948 
L 344.035257 154.214175 
L 344.937007 168.045188 
L 345.936968 181.885727 
L 346.606585 188.338919 
L 347.13335 191.500385 
L 347.526192 192.707723 
L 347.794039 192.958347 
L 347.981532 192.856145 
L 348.213665 192.412612 
L 348.526153 191.263401 
L 348.936851 188.800356 
L 349.454688 184.204597 
L 350.115377 176.17345 
L 352.017088 151.563789 
L 352.195653 151.229505 
L 352.213509 151.236778 
L 352.320648 151.434425 
L 352.508141 152.367108 
L 352.838485 155.359055 
L 353.499173 163.798732 
L 354.802694 180.203499 
L 355.490167 186.151191 
L 356.025861 189.073865 
L 356.427631 190.229597 
L 356.704406 190.499769 
L 356.900827 190.429593 
L 357.13296 190.065978 
L 357.445448 189.097554 
L 357.856146 186.997861 
L 358.373983 183.055683 
L 359.034672 176.139564 
L 360.936383 154.851338 
L 361.123876 154.554715 
L 361.132804 154.558083 
L 361.248871 154.744901 
L 361.445292 155.615934 
L 361.793493 158.391686 
L 362.516679 166.371492 
L 363.721989 179.17492 
L 364.409462 184.258246 
L 364.954084 186.806264 
L 365.364782 187.815614 
L 365.650485 188.046421 
L 365.864763 187.96402 
L 366.114753 187.590695 
L 366.445097 186.640922 
L 366.873652 184.644376 
L 367.409345 180.982724 
L 368.105747 174.527718 
L 369.757468 158.485163 
L 370.007458 157.879842 
L 370.123525 157.949153 
L 370.293161 158.434333 
L 370.587793 160.123032 
L 371.150271 164.900314 
L 372.766279 179.057846 
L 373.435896 182.889393 
L 373.962661 184.755502 
L 374.355503 185.458024 
L 374.641206 185.592707 
L 374.882268 185.458323 
L 375.167971 185.004828 
L 375.534028 183.959775 
L 375.998296 181.899275 
L 376.587559 178.17238 
L 377.400027 171.429426 
L 378.507127 162.435382 
L 378.837471 161.276562 
L 378.998179 161.215581 
L 379.007107 161.2224 
L 379.158887 161.494581 
L 379.417805 162.532248 
L 379.908858 165.615061 
L 381.890923 178.954925 
L 382.524827 181.499386 
L 383.024808 182.691735 
L 383.399793 183.096819 
L 383.685496 183.119769 
L 383.962271 182.905045 
L 384.301544 182.323899 
L 384.730098 181.094677 
L 385.265792 178.81045 
L 385.962193 174.754999 
L 387.578201 164.902917 
L 387.83712 164.516824 
L 387.9889 164.606975 
L 388.203177 165.094174 
L 388.596019 166.687912 
L 389.569195 171.855844 
L 390.578084 176.656024 
L 391.274486 178.985612 
L 391.828036 180.147802 
L 392.265519 180.610032 
L 392.613719 180.68316 
L 392.935135 180.516327 
L 393.301193 180.051887 
L 393.747604 179.094533 
L 394.301154 177.337763 
L 395.033268 174.19925 
L 396.390358 168.269898 
L 396.684989 167.838753 
L 396.872482 167.882812 
L 397.095687 168.22701 
L 397.53317 169.424041 
L 399.934862 176.575846 
L 400.586623 177.640249 
L 401.113388 178.119273 
L 401.559799 178.246653 
L 401.970497 178.132944 
L 402.40798 177.766627 
L 402.916889 177.027502 
L 403.541865 175.695654 
L 404.586467 172.827703 
L 405.238227 171.360717 
L 405.541787 171.1135 
L 405.77392 171.187438 
L 406.104265 171.581622 
L 407.773842 173.856837 
L 408.854157 174.944504 
L 409.755908 175.554691 
L 410.523735 175.820184 
L 411.220137 175.833263 
L 411.90761 175.622812 
L 412.693293 175.136277 
L 414.06824 174.241789 
L 414.407512 174.303099 
L 414.72 174.528 
L 414.72 174.528 
" style="fill:none;stroke:#1f77b4;stroke-linecap:square;stroke-width:1.5;"/>
   </g>
   <g id="patch_3">
    <path d="M 57.6 307.584 
L 57.6 41.472 
" style="fill:none;stroke:#000000;stroke-linecap:square;stroke-linejoin:miter;stroke-width:0.8;"/>
   </g>
   <g id="patch_4">
    <path d="M 414.72 307.584 
L 414.72 41.472 
" style="fill:none;stroke:#000000;stroke-linecap:square;stroke-linejoin:miter;stroke-width:0.8;"/>
   </g>
   <g id="patch_5">
    <path d="M 57.6 307.584 
L 414.72 307.584 
" style="fill:none;stroke:#000000;stroke-linecap:square;stroke-linejoin:miter;stroke-width:0.8;"/>
   </g>
   <g id="patch_6">
    <path d="M 57.6 41.472 
L 414.72 41.472 
" style="fill:none;stroke:#000000;stroke-linecap:square;stroke-linejoin:miter;stroke-width:0.8;"/>
   </g>
  </g>
 </g>
 <defs>
  <clipPath id="pfd2d65b4ce">
   <rect height="266.112" width="357.12" x="57.6" y="41.472"/>
  </clipPath>
 </defs>
</svg>
