<?xml version="1.0" encoding="utf-8" standalone="no"?>
<!DOCTYPE svg PUBLIC "-//W3C//DTD SVG 1.1//EN"
  "http://www.w3.org/Graphics/SVG/1.1/DTD/svg11.dtd">
<!-- Created with matplotlib (http://matplotlib.org/) -->
<svg height="720pt" version="1.1" viewBox="0 0 1440 720" width="1440pt" xmlns="http://www.w3.org/2000/svg" xmlns:xlink="http://www.w3.org/1999/xlink">
 <defs>
  <style type="text/css">
*{stroke-linecap:butt;stroke-linejoin:round;}
  </style>
 </defs>
 <g id="figure_1">
  <g id="patch_1">
   <path d="M 0 720 
L 1440 720 
L 1440 0 
L 0 0 
z
" style="fill:#ffffff;"/>
  </g>
  <g id="axes_1">
   <g id="patch_2">
    <path d="M 180 249.458824 
L 1296 249.458824 
L 1296 86.4 
L 180 86.4 
z
" style="fill:#ffffff;"/>
   </g>
   <g id="matplotlib.axis_1">
    <g id="xtick_1">
     <g id="line2d_1">
      <defs>
       <path d="M 0 0 
L 0 3.5 
" id="mc973061dde" style="stroke:#000000;stroke-width:0.8;"/>
      </defs>
      <g>
       <use style="stroke:#000000;stroke-width:0.8;" x="230.727273" xlink:href="#mc973061dde" y="249.458824"/>
      </g>
     </g>
     <g id="text_1">
      <!-- 0 -->
      <defs>
       <path d="M 31.78125 66.40625 
Q 24.171875 66.40625 20.328125 58.90625 
Q 16.5 51.421875 16.5 36.375 
Q 16.5 21.390625 20.328125 13.890625 
Q 24.171875 6.390625 31.78125 6.390625 
Q 39.453125 6.390625 43.28125 13.890625 
Q 47.125 21.390625 47.125 36.375 
Q 47.125 51.421875 43.28125 58.90625 
Q 39.453125 66.40625 31.78125 66.40625 
z
M 31.78125 74.21875 
Q 44.046875 74.21875 50.515625 64.515625 
Q 56.984375 54.828125 56.984375 36.375 
Q 56.984375 17.96875 50.515625 8.265625 
Q 44.046875 -1.421875 31.78125 -1.421875 
Q 19.53125 -1.421875 13.0625 8.265625 
Q 6.59375 17.96875 6.59375 36.375 
Q 6.59375 54.828125 13.0625 64.515625 
Q 19.53125 74.21875 31.78125 74.21875 
z
" id="DejaVuSans-30"/>
      </defs>
      <g transform="translate(227.546023 264.057261)scale(0.1 -0.1)">
       <use xlink:href="#DejaVuSans-30"/>
      </g>
     </g>
    </g>
    <g id="xtick_2">
     <g id="line2d_2">
      <g>
       <use style="stroke:#000000;stroke-width:0.8;" x="358.182732" xlink:href="#mc973061dde" y="249.458824"/>
      </g>
     </g>
     <g id="text_2">
      <!-- 25 -->
      <defs>
       <path d="M 19.1875 8.296875 
L 53.609375 8.296875 
L 53.609375 0 
L 7.328125 0 
L 7.328125 8.296875 
Q 12.9375 14.109375 22.625 23.890625 
Q 32.328125 33.6875 34.8125 36.53125 
Q 39.546875 41.84375 41.421875 45.53125 
Q 43.3125 49.21875 43.3125 52.78125 
Q 43.3125 58.59375 39.234375 62.25 
Q 35.15625 65.921875 28.609375 65.921875 
Q 23.96875 65.921875 18.8125 64.3125 
Q 13.671875 62.703125 7.8125 59.421875 
L 7.8125 69.390625 
Q 13.765625 71.78125 18.9375 73 
Q 24.125 74.21875 28.421875 74.21875 
Q 39.75 74.21875 46.484375 68.546875 
Q 53.21875 62.890625 53.21875 53.421875 
Q 53.21875 48.921875 51.53125 44.890625 
Q 49.859375 40.875 45.40625 35.40625 
Q 44.1875 33.984375 37.640625 27.21875 
Q 31.109375 20.453125 19.1875 8.296875 
z
" id="DejaVuSans-32"/>
       <path d="M 10.796875 72.90625 
L 49.515625 72.90625 
L 49.515625 64.59375 
L 19.828125 64.59375 
L 19.828125 46.734375 
Q 21.96875 47.46875 24.109375 47.828125 
Q 26.265625 48.1875 28.421875 48.1875 
Q 40.625 48.1875 47.75 41.5 
Q 54.890625 34.8125 54.890625 23.390625 
Q 54.890625 11.625 47.5625 5.09375 
Q 40.234375 -1.421875 26.90625 -1.421875 
Q 22.3125 -1.421875 17.546875 -0.640625 
Q 12.796875 0.140625 7.71875 1.703125 
L 7.71875 11.625 
Q 12.109375 9.234375 16.796875 8.0625 
Q 21.484375 6.890625 26.703125 6.890625 
Q 35.15625 6.890625 40.078125 11.328125 
Q 45.015625 15.765625 45.015625 23.390625 
Q 45.015625 31 40.078125 35.4375 
Q 35.15625 39.890625 26.703125 39.890625 
Q 22.75 39.890625 18.8125 39.015625 
Q 14.890625 38.140625 10.796875 36.28125 
z
" id="DejaVuSans-35"/>
      </defs>
      <g transform="translate(351.820232 264.057261)scale(0.1 -0.1)">
       <use xlink:href="#DejaVuSans-32"/>
       <use x="63.623047" xlink:href="#DejaVuSans-35"/>
      </g>
     </g>
    </g>
    <g id="xtick_3">
     <g id="line2d_3">
      <g>
       <use style="stroke:#000000;stroke-width:0.8;" x="485.638191" xlink:href="#mc973061dde" y="249.458824"/>
      </g>
     </g>
     <g id="text_3">
      <!-- 50 -->
      <g transform="translate(479.275691 264.057261)scale(0.1 -0.1)">
       <use xlink:href="#DejaVuSans-35"/>
       <use x="63.623047" xlink:href="#DejaVuSans-30"/>
      </g>
     </g>
    </g>
    <g id="xtick_4">
     <g id="line2d_4">
      <g>
       <use style="stroke:#000000;stroke-width:0.8;" x="613.09365" xlink:href="#mc973061dde" y="249.458824"/>
      </g>
     </g>
     <g id="text_4">
      <!-- 75 -->
      <defs>
       <path d="M 8.203125 72.90625 
L 55.078125 72.90625 
L 55.078125 68.703125 
L 28.609375 0 
L 18.3125 0 
L 43.21875 64.59375 
L 8.203125 64.59375 
z
" id="DejaVuSans-37"/>
      </defs>
      <g transform="translate(606.73115 264.057261)scale(0.1 -0.1)">
       <use xlink:href="#DejaVuSans-37"/>
       <use x="63.623047" xlink:href="#DejaVuSans-35"/>
      </g>
     </g>
    </g>
    <g id="xtick_5">
     <g id="line2d_5">
      <g>
       <use style="stroke:#000000;stroke-width:0.8;" x="740.549109" xlink:href="#mc973061dde" y="249.458824"/>
      </g>
     </g>
     <g id="text_5">
      <!-- 100 -->
      <defs>
       <path d="M 12.40625 8.296875 
L 28.515625 8.296875 
L 28.515625 63.921875 
L 10.984375 60.40625 
L 10.984375 69.390625 
L 28.421875 72.90625 
L 38.28125 72.90625 
L 38.28125 8.296875 
L 54.390625 8.296875 
L 54.390625 0 
L 12.40625 0 
z
" id="DejaVuSans-31"/>
      </defs>
      <g transform="translate(731.005359 264.057261)scale(0.1 -0.1)">
       <use xlink:href="#DejaVuSans-31"/>
       <use x="63.623047" xlink:href="#DejaVuSans-30"/>
       <use x="127.246094" xlink:href="#DejaVuSans-30"/>
      </g>
     </g>
    </g>
    <g id="xtick_6">
     <g id="line2d_6">
      <g>
       <use style="stroke:#000000;stroke-width:0.8;" x="868.004568" xlink:href="#mc973061dde" y="249.458824"/>
      </g>
     </g>
     <g id="text_6">
      <!-- 125 -->
      <g transform="translate(858.460818 264.057261)scale(0.1 -0.1)">
       <use xlink:href="#DejaVuSans-31"/>
       <use x="63.623047" xlink:href="#DejaVuSans-32"/>
       <use x="127.246094" xlink:href="#DejaVuSans-35"/>
      </g>
     </g>
    </g>
    <g id="xtick_7">
     <g id="line2d_7">
      <g>
       <use style="stroke:#000000;stroke-width:0.8;" x="995.460027" xlink:href="#mc973061dde" y="249.458824"/>
      </g>
     </g>
     <g id="text_7">
      <!-- 150 -->
      <g transform="translate(985.916277 264.057261)scale(0.1 -0.1)">
       <use xlink:href="#DejaVuSans-31"/>
       <use x="63.623047" xlink:href="#DejaVuSans-35"/>
       <use x="127.246094" xlink:href="#DejaVuSans-30"/>
      </g>
     </g>
    </g>
    <g id="xtick_8">
     <g id="line2d_8">
      <g>
       <use style="stroke:#000000;stroke-width:0.8;" x="1122.915487" xlink:href="#mc973061dde" y="249.458824"/>
      </g>
     </g>
     <g id="text_8">
      <!-- 175 -->
      <g transform="translate(1113.371737 264.057261)scale(0.1 -0.1)">
       <use xlink:href="#DejaVuSans-31"/>
       <use x="63.623047" xlink:href="#DejaVuSans-37"/>
       <use x="127.246094" xlink:href="#DejaVuSans-35"/>
      </g>
     </g>
    </g>
    <g id="xtick_9">
     <g id="line2d_9">
      <g>
       <use style="stroke:#000000;stroke-width:0.8;" x="1250.370946" xlink:href="#mc973061dde" y="249.458824"/>
      </g>
     </g>
     <g id="text_9">
      <!-- 200 -->
      <g transform="translate(1240.827196 264.057261)scale(0.1 -0.1)">
       <use xlink:href="#DejaVuSans-32"/>
       <use x="63.623047" xlink:href="#DejaVuSans-30"/>
       <use x="127.246094" xlink:href="#DejaVuSans-30"/>
      </g>
     </g>
    </g>
   </g>
   <g id="matplotlib.axis_2">
    <g id="ytick_1">
     <g id="line2d_10">
      <defs>
       <path d="M 0 0 
L -3.5 0 
" id="m2596bc9b87" style="stroke:#000000;stroke-width:0.8;"/>
      </defs>
      <g>
       <use style="stroke:#000000;stroke-width:0.8;" x="180" xlink:href="#m2596bc9b87" y="245.537515"/>
      </g>
     </g>
     <g id="text_10">
      <!-- −140 -->
      <defs>
       <path d="M 10.59375 35.5 
L 73.1875 35.5 
L 73.1875 27.203125 
L 10.59375 27.203125 
z
" id="DejaVuSans-2212"/>
       <path d="M 37.796875 64.3125 
L 12.890625 25.390625 
L 37.796875 25.390625 
z
M 35.203125 72.90625 
L 47.609375 72.90625 
L 47.609375 25.390625 
L 58.015625 25.390625 
L 58.015625 17.1875 
L 47.609375 17.1875 
L 47.609375 0 
L 37.796875 0 
L 37.796875 17.1875 
L 4.890625 17.1875 
L 4.890625 26.703125 
z
" id="DejaVuSans-34"/>
      </defs>
      <g transform="translate(145.532813 249.336733)scale(0.1 -0.1)">
       <use xlink:href="#DejaVuSans-2212"/>
       <use x="83.789062" xlink:href="#DejaVuSans-31"/>
       <use x="147.412109" xlink:href="#DejaVuSans-34"/>
       <use x="211.035156" xlink:href="#DejaVuSans-30"/>
      </g>
     </g>
    </g>
    <g id="ytick_2">
     <g id="line2d_11">
      <g>
       <use style="stroke:#000000;stroke-width:0.8;" x="180" xlink:href="#m2596bc9b87" y="223.722166"/>
      </g>
     </g>
     <g id="text_11">
      <!-- −120 -->
      <g transform="translate(145.532813 227.521385)scale(0.1 -0.1)">
       <use xlink:href="#DejaVuSans-2212"/>
       <use x="83.789062" xlink:href="#DejaVuSans-31"/>
       <use x="147.412109" xlink:href="#DejaVuSans-32"/>
       <use x="211.035156" xlink:href="#DejaVuSans-30"/>
      </g>
     </g>
    </g>
    <g id="ytick_3">
     <g id="line2d_12">
      <g>
       <use style="stroke:#000000;stroke-width:0.8;" x="180" xlink:href="#m2596bc9b87" y="201.906817"/>
      </g>
     </g>
     <g id="text_12">
      <!-- −100 -->
      <g transform="translate(145.532813 205.706036)scale(0.1 -0.1)">
       <use xlink:href="#DejaVuSans-2212"/>
       <use x="83.789062" xlink:href="#DejaVuSans-31"/>
       <use x="147.412109" xlink:href="#DejaVuSans-30"/>
       <use x="211.035156" xlink:href="#DejaVuSans-30"/>
      </g>
     </g>
    </g>
    <g id="ytick_4">
     <g id="line2d_13">
      <g>
       <use style="stroke:#000000;stroke-width:0.8;" x="180" xlink:href="#m2596bc9b87" y="180.091469"/>
      </g>
     </g>
     <g id="text_13">
      <!-- −80 -->
      <defs>
       <path d="M 31.78125 34.625 
Q 24.75 34.625 20.71875 30.859375 
Q 16.703125 27.09375 16.703125 20.515625 
Q 16.703125 13.921875 20.71875 10.15625 
Q 24.75 6.390625 31.78125 6.390625 
Q 38.8125 6.390625 42.859375 10.171875 
Q 46.921875 13.96875 46.921875 20.515625 
Q 46.921875 27.09375 42.890625 30.859375 
Q 38.875 34.625 31.78125 34.625 
z
M 21.921875 38.8125 
Q 15.578125 40.375 12.03125 44.71875 
Q 8.5 49.078125 8.5 55.328125 
Q 8.5 64.0625 14.71875 69.140625 
Q 20.953125 74.21875 31.78125 74.21875 
Q 42.671875 74.21875 48.875 69.140625 
Q 55.078125 64.0625 55.078125 55.328125 
Q 55.078125 49.078125 51.53125 44.71875 
Q 48 40.375 41.703125 38.8125 
Q 48.828125 37.15625 52.796875 32.3125 
Q 56.78125 27.484375 56.78125 20.515625 
Q 56.78125 9.90625 50.3125 4.234375 
Q 43.84375 -1.421875 31.78125 -1.421875 
Q 19.734375 -1.421875 13.25 4.234375 
Q 6.78125 9.90625 6.78125 20.515625 
Q 6.78125 27.484375 10.78125 32.3125 
Q 14.796875 37.15625 21.921875 38.8125 
z
M 18.3125 54.390625 
Q 18.3125 48.734375 21.84375 45.5625 
Q 25.390625 42.390625 31.78125 42.390625 
Q 38.140625 42.390625 41.71875 45.5625 
Q 45.3125 48.734375 45.3125 54.390625 
Q 45.3125 60.0625 41.71875 63.234375 
Q 38.140625 66.40625 31.78125 66.40625 
Q 25.390625 66.40625 21.84375 63.234375 
Q 18.3125 60.0625 18.3125 54.390625 
z
" id="DejaVuSans-38"/>
      </defs>
      <g transform="translate(151.895312 183.890687)scale(0.1 -0.1)">
       <use xlink:href="#DejaVuSans-2212"/>
       <use x="83.789062" xlink:href="#DejaVuSans-38"/>
       <use x="147.412109" xlink:href="#DejaVuSans-30"/>
      </g>
     </g>
    </g>
    <g id="ytick_5">
     <g id="line2d_14">
      <g>
       <use style="stroke:#000000;stroke-width:0.8;" x="180" xlink:href="#m2596bc9b87" y="158.27612"/>
      </g>
     </g>
     <g id="text_14">
      <!-- −60 -->
      <defs>
       <path d="M 33.015625 40.375 
Q 26.375 40.375 22.484375 35.828125 
Q 18.609375 31.296875 18.609375 23.390625 
Q 18.609375 15.53125 22.484375 10.953125 
Q 26.375 6.390625 33.015625 6.390625 
Q 39.65625 6.390625 43.53125 10.953125 
Q 47.40625 15.53125 47.40625 23.390625 
Q 47.40625 31.296875 43.53125 35.828125 
Q 39.65625 40.375 33.015625 40.375 
z
M 52.59375 71.296875 
L 52.59375 62.3125 
Q 48.875 64.0625 45.09375 64.984375 
Q 41.3125 65.921875 37.59375 65.921875 
Q 27.828125 65.921875 22.671875 59.328125 
Q 17.53125 52.734375 16.796875 39.40625 
Q 19.671875 43.65625 24.015625 45.921875 
Q 28.375 48.1875 33.59375 48.1875 
Q 44.578125 48.1875 50.953125 41.515625 
Q 57.328125 34.859375 57.328125 23.390625 
Q 57.328125 12.15625 50.6875 5.359375 
Q 44.046875 -1.421875 33.015625 -1.421875 
Q 20.359375 -1.421875 13.671875 8.265625 
Q 6.984375 17.96875 6.984375 36.375 
Q 6.984375 53.65625 15.1875 63.9375 
Q 23.390625 74.21875 37.203125 74.21875 
Q 40.921875 74.21875 44.703125 73.484375 
Q 48.484375 72.75 52.59375 71.296875 
z
" id="DejaVuSans-36"/>
      </defs>
      <g transform="translate(151.895312 162.075339)scale(0.1 -0.1)">
       <use xlink:href="#DejaVuSans-2212"/>
       <use x="83.789062" xlink:href="#DejaVuSans-36"/>
       <use x="147.412109" xlink:href="#DejaVuSans-30"/>
      </g>
     </g>
    </g>
    <g id="ytick_6">
     <g id="line2d_15">
      <g>
       <use style="stroke:#000000;stroke-width:0.8;" x="180" xlink:href="#m2596bc9b87" y="136.460771"/>
      </g>
     </g>
     <g id="text_15">
      <!-- −40 -->
      <g transform="translate(151.895312 140.25999)scale(0.1 -0.1)">
       <use xlink:href="#DejaVuSans-2212"/>
       <use x="83.789062" xlink:href="#DejaVuSans-34"/>
       <use x="147.412109" xlink:href="#DejaVuSans-30"/>
      </g>
     </g>
    </g>
    <g id="ytick_7">
     <g id="line2d_16">
      <g>
       <use style="stroke:#000000;stroke-width:0.8;" x="180" xlink:href="#m2596bc9b87" y="114.645423"/>
      </g>
     </g>
     <g id="text_16">
      <!-- −20 -->
      <g transform="translate(151.895312 118.444641)scale(0.1 -0.1)">
       <use xlink:href="#DejaVuSans-2212"/>
       <use x="83.789062" xlink:href="#DejaVuSans-32"/>
       <use x="147.412109" xlink:href="#DejaVuSans-30"/>
      </g>
     </g>
    </g>
    <g id="ytick_8">
     <g id="line2d_17">
      <g>
       <use style="stroke:#000000;stroke-width:0.8;" x="180" xlink:href="#m2596bc9b87" y="92.830074"/>
      </g>
     </g>
     <g id="text_17">
      <!-- 0 -->
      <g transform="translate(166.6375 96.629293)scale(0.1 -0.1)">
       <use xlink:href="#DejaVuSans-30"/>
      </g>
     </g>
    </g>
    <g id="text_18">
     <!-- State:0 -->
     <defs>
      <path d="M 53.515625 70.515625 
L 53.515625 60.890625 
Q 47.90625 63.578125 42.921875 64.890625 
Q 37.9375 66.21875 33.296875 66.21875 
Q 25.25 66.21875 20.875 63.09375 
Q 16.5 59.96875 16.5 54.203125 
Q 16.5 49.359375 19.40625 46.890625 
Q 22.3125 44.4375 30.421875 42.921875 
L 36.375 41.703125 
Q 47.40625 39.59375 52.65625 34.296875 
Q 57.90625 29 57.90625 20.125 
Q 57.90625 9.515625 50.796875 4.046875 
Q 43.703125 -1.421875 29.984375 -1.421875 
Q 24.8125 -1.421875 18.96875 -0.25 
Q 13.140625 0.921875 6.890625 3.21875 
L 6.890625 13.375 
Q 12.890625 10.015625 18.65625 8.296875 
Q 24.421875 6.59375 29.984375 6.59375 
Q 38.421875 6.59375 43.015625 9.90625 
Q 47.609375 13.234375 47.609375 19.390625 
Q 47.609375 24.75 44.3125 27.78125 
Q 41.015625 30.8125 33.5 32.328125 
L 27.484375 33.5 
Q 16.453125 35.6875 11.515625 40.375 
Q 6.59375 45.0625 6.59375 53.421875 
Q 6.59375 63.09375 13.40625 68.65625 
Q 20.21875 74.21875 32.171875 74.21875 
Q 37.3125 74.21875 42.625 73.28125 
Q 47.953125 72.359375 53.515625 70.515625 
z
" id="DejaVuSans-53"/>
      <path d="M 18.3125 70.21875 
L 18.3125 54.6875 
L 36.8125 54.6875 
L 36.8125 47.703125 
L 18.3125 47.703125 
L 18.3125 18.015625 
Q 18.3125 11.328125 20.140625 9.421875 
Q 21.96875 7.515625 27.59375 7.515625 
L 36.8125 7.515625 
L 36.8125 0 
L 27.59375 0 
Q 17.1875 0 13.234375 3.875 
Q 9.28125 7.765625 9.28125 18.015625 
L 9.28125 47.703125 
L 2.6875 47.703125 
L 2.6875 54.6875 
L 9.28125 54.6875 
L 9.28125 70.21875 
z
" id="DejaVuSans-74"/>
      <path d="M 34.28125 27.484375 
Q 23.390625 27.484375 19.1875 25 
Q 14.984375 22.515625 14.984375 16.5 
Q 14.984375 11.71875 18.140625 8.90625 
Q 21.296875 6.109375 26.703125 6.109375 
Q 34.1875 6.109375 38.703125 11.40625 
Q 43.21875 16.703125 43.21875 25.484375 
L 43.21875 27.484375 
z
M 52.203125 31.203125 
L 52.203125 0 
L 43.21875 0 
L 43.21875 8.296875 
Q 40.140625 3.328125 35.546875 0.953125 
Q 30.953125 -1.421875 24.3125 -1.421875 
Q 15.921875 -1.421875 10.953125 3.296875 
Q 6 8.015625 6 15.921875 
Q 6 25.140625 12.171875 29.828125 
Q 18.359375 34.515625 30.609375 34.515625 
L 43.21875 34.515625 
L 43.21875 35.40625 
Q 43.21875 41.609375 39.140625 45 
Q 35.0625 48.390625 27.6875 48.390625 
Q 23 48.390625 18.546875 47.265625 
Q 14.109375 46.140625 10.015625 43.890625 
L 10.015625 52.203125 
Q 14.9375 54.109375 19.578125 55.046875 
Q 24.21875 56 28.609375 56 
Q 40.484375 56 46.34375 49.84375 
Q 52.203125 43.703125 52.203125 31.203125 
z
" id="DejaVuSans-61"/>
      <path d="M 56.203125 29.59375 
L 56.203125 25.203125 
L 14.890625 25.203125 
Q 15.484375 15.921875 20.484375 11.0625 
Q 25.484375 6.203125 34.421875 6.203125 
Q 39.59375 6.203125 44.453125 7.46875 
Q 49.3125 8.734375 54.109375 11.28125 
L 54.109375 2.78125 
Q 49.265625 0.734375 44.1875 -0.34375 
Q 39.109375 -1.421875 33.890625 -1.421875 
Q 20.796875 -1.421875 13.15625 6.1875 
Q 5.515625 13.8125 5.515625 26.8125 
Q 5.515625 40.234375 12.765625 48.109375 
Q 20.015625 56 32.328125 56 
Q 43.359375 56 49.78125 48.890625 
Q 56.203125 41.796875 56.203125 29.59375 
z
M 47.21875 32.234375 
Q 47.125 39.59375 43.09375 43.984375 
Q 39.0625 48.390625 32.421875 48.390625 
Q 24.90625 48.390625 20.390625 44.140625 
Q 15.875 39.890625 15.1875 32.171875 
z
" id="DejaVuSans-65"/>
      <path d="M 11.71875 12.40625 
L 22.015625 12.40625 
L 22.015625 0 
L 11.71875 0 
z
M 11.71875 51.703125 
L 22.015625 51.703125 
L 22.015625 39.3125 
L 11.71875 39.3125 
z
" id="DejaVuSans-3a"/>
     </defs>
     <g transform="translate(139.453125 186.030193)rotate(-90)scale(0.1 -0.1)">
      <use xlink:href="#DejaVuSans-53"/>
      <use x="63.476562" xlink:href="#DejaVuSans-74"/>
      <use x="102.685547" xlink:href="#DejaVuSans-61"/>
      <use x="163.964844" xlink:href="#DejaVuSans-74"/>
      <use x="203.173828" xlink:href="#DejaVuSans-65"/>
      <use x="264.697266" xlink:href="#DejaVuSans-3a"/>
      <use x="298.388672" xlink:href="#DejaVuSans-30"/>
     </g>
    </g>
   </g>
   <g id="line2d_18">
    <path clip-path="url(#p4b1b536b2b)" d="M 230.727273 94.957071 
L 235.825491 96.265991 
L 240.923709 97.411297 
L 246.021928 98.720218 
L 251.120146 99.865524 
L 266.414801 103.792287 
L 276.611238 106.158867 
L 291.905893 109.891226 
L 302.10233 112.483885 
L 317.396985 116.59772 
L 342.888077 123.984413 
L 358.182732 128.714247 
L 388.772042 138.259349 
L 404.066697 142.819752 
L 429.557789 149.961187 
L 444.852444 154.257176 
L 500.932846 170.07255 
L 526.423938 177.497645 
L 546.816811 183.778263 
L 582.50434 194.885277 
L 602.897213 200.806065 
L 613.09365 203.538037 
L 628.388305 207.333021 
L 653.879397 213.386305 
L 674.27227 217.997884 
L 679.370489 218.833768 
L 684.468707 219.108749 
L 694.665144 218.795951 
L 699.763362 218.621123 
L 704.861581 218.683006 
L 709.959799 218.62299 
L 715.058017 218.338921 
L 725.254454 217.931461 
L 745.647328 216.396061 
L 760.941983 214.979239 
L 776.236638 213.38242 
L 832.31704 207.289322 
L 847.611695 205.917968 
L 857.808132 205.021403 
L 868.004568 203.94852 
L 883.299223 202.132852 
L 908.790315 199.010187 
L 918.986752 197.381131 
L 949.576062 192.614442 
L 954.67428 192.018388 
L 959.772499 191.658733 
L 964.870717 191.587558 
L 969.968936 191.754462 
L 975.067154 192.279633 
L 980.165372 193.014551 
L 995.460027 195.491203 
L 1000.558246 196.066217 
L 1015.852901 197.028563 
L 1041.343993 198.406773 
L 1051.540429 199.271956 
L 1061.736866 200.434474 
L 1071.933303 201.787412 
L 1082.12974 203.364799 
L 1107.620831 207.642829 
L 1122.915487 210.538322 
L 1143.30836 214.870024 
L 1153.504797 217.168155 
L 1163.701233 219.584763 
L 1173.89767 222.298898 
L 1194.290544 228.32975 
L 1199.388762 229.510388 
L 1204.48698 230.516353 
L 1219.781635 232.937323 
L 1229.978072 234.382592 
L 1245.272727 236.732684 
L 1245.272727 236.732684 
" style="fill:none;stroke:#000000;stroke-linecap:square;stroke-width:4;"/>
   </g>
   <g id="line2d_19">
    <path clip-path="url(#p4b1b536b2b)" d="M 230.727273 93.811765 
L 235.825491 94.957071 
L 240.923709 96.265991 
L 246.021928 97.411297 
L 251.120146 98.720218 
L 256.218365 99.865524 
L 271.51302 103.792287 
L 276.611238 104.937593 
L 281.709456 106.246513 
L 291.905893 108.537125 
L 297.004111 109.846046 
L 302.10233 110.991352 
L 312.298767 113.609194 
L 317.396985 115.08173 
L 322.495203 116.390651 
L 327.593422 117.863187 
L 332.69164 119.172108 
L 353.084513 125.062252 
L 358.182732 126.371173 
L 363.28095 128.007324 
L 378.575605 132.424932 
L 383.673824 133.733853 
L 393.87026 136.678925 
L 398.968479 138.478691 
L 404.066697 139.787612 
L 409.164915 141.260148 
L 414.263134 142.569069 
L 419.361352 144.041605 
L 424.459571 145.677756 
L 444.852444 150.91344 
L 449.950662 152.385976 
L 470.343536 157.62166 
L 475.441754 159.094196 
L 480.539973 160.403116 
L 485.638191 161.548422 
L 495.834628 164.166264 
L 500.932846 167.602182 
L 506.031064 168.911102 
L 531.522156 174.637631 
L 536.620375 175.946552 
L 551.91503 180.36416 
L 557.013248 181.673081 
L 562.111466 183.145617 
L 567.209685 184.454538 
L 577.406122 187.39961 
L 582.50434 189.035762 
L 587.602558 190.508298 
L 592.700777 191.817219 
L 602.897213 194.762291 
L 607.995432 196.398442 
L 618.191868 199.343514 
L 623.290087 200.652435 
L 628.388305 202.124971 
L 638.584742 204.742813 
L 643.68296 206.215349 
L 653.879397 208.83319 
L 658.977615 210.469342 
L 664.075834 211.778263 
L 669.174052 212.923568 
L 674.27227 213.905259 
L 679.370489 214.55972 
L 689.566926 215.54141 
L 704.861581 216.523101 
L 709.959799 216.686716 
L 735.450891 216.686716 
L 750.745546 216.195871 
L 755.843764 215.86864 
L 760.941983 215.86864 
L 776.236638 214.88695 
L 786.433074 213.905259 
L 791.531293 213.578029 
L 827.218821 210.142111 
L 832.31704 209.487651 
L 842.513476 208.50596 
L 847.611695 207.8515 
L 852.709913 207.360654 
L 857.808132 206.542579 
L 873.102787 204.579198 
L 883.299223 202.943046 
L 888.397442 202.288586 
L 893.49566 201.47051 
L 898.593878 200.81605 
L 918.986752 197.543748 
L 929.183189 196.234827 
L 934.281407 195.743981 
L 939.379625 195.580366 
L 944.477844 195.253136 
L 949.576062 195.089521 
L 954.67428 195.089521 
L 959.772499 194.925906 
L 969.968936 194.925906 
L 975.067154 194.762291 
L 980.165372 195.253136 
L 985.263591 195.907596 
L 1000.558246 197.380132 
L 1005.656464 198.198208 
L 1010.754683 198.852668 
L 1015.852901 199.343514 
L 1020.951119 199.997974 
L 1026.049338 200.81605 
L 1031.147556 202.452201 
L 1041.343993 203.761122 
L 1046.442211 204.579198 
L 1051.540429 205.233658 
L 1092.326176 211.778263 
L 1097.424395 212.759953 
L 1117.817268 216.032256 
L 1122.915487 217.013946 
L 1128.013705 217.832022 
L 1138.210142 219.795403 
L 1143.30836 220.613479 
L 1153.504797 222.57686 
L 1158.603015 223.394936 
L 1168.799452 225.358317 
L 1184.094107 228.794235 
L 1199.388762 231.739307 
L 1204.48698 233.048228 
L 1209.585199 234.193533 
L 1219.781635 236.156915 
L 1224.879854 237.30222 
L 1235.076291 239.920062 
L 1240.174509 240.901753 
L 1245.272727 242.047059 
L 1245.272727 242.047059 
" style="fill:none;stroke:#ff0000;stroke-linecap:square;stroke-width:1.5;"/>
   </g>
   <g id="patch_3">
    <path d="M 180 249.458824 
L 180 86.4 
" style="fill:none;stroke:#000000;stroke-linecap:square;stroke-linejoin:miter;stroke-width:0.8;"/>
   </g>
   <g id="patch_4">
    <path d="M 1296 249.458824 
L 1296 86.4 
" style="fill:none;stroke:#000000;stroke-linecap:square;stroke-linejoin:miter;stroke-width:0.8;"/>
   </g>
   <g id="patch_5">
    <path d="M 180 249.458824 
L 1296 249.458824 
" style="fill:none;stroke:#000000;stroke-linecap:square;stroke-linejoin:miter;stroke-width:0.8;"/>
   </g>
   <g id="patch_6">
    <path d="M 180 86.4 
L 1296 86.4 
" style="fill:none;stroke:#000000;stroke-linecap:square;stroke-linejoin:miter;stroke-width:0.8;"/>
   </g>
   <g id="legend_1">
    <g id="patch_7">
     <path d="M 1234.3125 123.75625 
L 1289 123.75625 
Q 1291 123.75625 1291 121.75625 
L 1291 93.4 
Q 1291 91.4 1289 91.4 
L 1234.3125 91.4 
Q 1232.3125 91.4 1232.3125 93.4 
L 1232.3125 121.75625 
Q 1232.3125 123.75625 1234.3125 123.75625 
z
" style="fill:#ffffff;opacity:0.8;stroke:#cccccc;stroke-linejoin:miter;"/>
    </g>
    <g id="line2d_20">
     <path d="M 1236.3125 99.498438 
L 1256.3125 99.498438 
" style="fill:none;stroke:#000000;stroke-linecap:square;stroke-width:4;"/>
    </g>
    <g id="line2d_21"/>
    <g id="text_19">
     <!-- Pred -->
     <defs>
      <path d="M 19.671875 64.796875 
L 19.671875 37.40625 
L 32.078125 37.40625 
Q 38.96875 37.40625 42.71875 40.96875 
Q 46.484375 44.53125 46.484375 51.125 
Q 46.484375 57.671875 42.71875 61.234375 
Q 38.96875 64.796875 32.078125 64.796875 
z
M 9.8125 72.90625 
L 32.078125 72.90625 
Q 44.34375 72.90625 50.609375 67.359375 
Q 56.890625 61.8125 56.890625 51.125 
Q 56.890625 40.328125 50.609375 34.8125 
Q 44.34375 29.296875 32.078125 29.296875 
L 19.671875 29.296875 
L 19.671875 0 
L 9.8125 0 
z
" id="DejaVuSans-50"/>
      <path d="M 41.109375 46.296875 
Q 39.59375 47.171875 37.8125 47.578125 
Q 36.03125 48 33.890625 48 
Q 26.265625 48 22.1875 43.046875 
Q 18.109375 38.09375 18.109375 28.8125 
L 18.109375 0 
L 9.078125 0 
L 9.078125 54.6875 
L 18.109375 54.6875 
L 18.109375 46.1875 
Q 20.953125 51.171875 25.484375 53.578125 
Q 30.03125 56 36.53125 56 
Q 37.453125 56 38.578125 55.875 
Q 39.703125 55.765625 41.0625 55.515625 
z
" id="DejaVuSans-72"/>
      <path d="M 45.40625 46.390625 
L 45.40625 75.984375 
L 54.390625 75.984375 
L 54.390625 0 
L 45.40625 0 
L 45.40625 8.203125 
Q 42.578125 3.328125 38.25 0.953125 
Q 33.9375 -1.421875 27.875 -1.421875 
Q 17.96875 -1.421875 11.734375 6.484375 
Q 5.515625 14.40625 5.515625 27.296875 
Q 5.515625 40.1875 11.734375 48.09375 
Q 17.96875 56 27.875 56 
Q 33.9375 56 38.25 53.625 
Q 42.578125 51.265625 45.40625 46.390625 
z
M 14.796875 27.296875 
Q 14.796875 17.390625 18.875 11.75 
Q 22.953125 6.109375 30.078125 6.109375 
Q 37.203125 6.109375 41.296875 11.75 
Q 45.40625 17.390625 45.40625 27.296875 
Q 45.40625 37.203125 41.296875 42.84375 
Q 37.203125 48.484375 30.078125 48.484375 
Q 22.953125 48.484375 18.875 42.84375 
Q 14.796875 37.203125 14.796875 27.296875 
z
" id="DejaVuSans-64"/>
     </defs>
     <g transform="translate(1264.3125 102.998438)scale(0.1 -0.1)">
      <use xlink:href="#DejaVuSans-50"/>
      <use x="60.287109" xlink:href="#DejaVuSans-72"/>
      <use x="101.369141" xlink:href="#DejaVuSans-65"/>
      <use x="162.892578" xlink:href="#DejaVuSans-64"/>
     </g>
    </g>
    <g id="line2d_22">
     <path d="M 1236.3125 114.176563 
L 1256.3125 114.176563 
" style="fill:none;stroke:#ff0000;stroke-linecap:square;stroke-width:1.5;"/>
    </g>
    <g id="line2d_23"/>
    <g id="text_20">
     <!-- True -->
     <defs>
      <path d="M -0.296875 72.90625 
L 61.375 72.90625 
L 61.375 64.59375 
L 35.5 64.59375 
L 35.5 0 
L 25.59375 0 
L 25.59375 64.59375 
L -0.296875 64.59375 
z
" id="DejaVuSans-54"/>
      <path d="M 8.5 21.578125 
L 8.5 54.6875 
L 17.484375 54.6875 
L 17.484375 21.921875 
Q 17.484375 14.15625 20.5 10.265625 
Q 23.53125 6.390625 29.59375 6.390625 
Q 36.859375 6.390625 41.078125 11.03125 
Q 45.3125 15.671875 45.3125 23.6875 
L 45.3125 54.6875 
L 54.296875 54.6875 
L 54.296875 0 
L 45.3125 0 
L 45.3125 8.40625 
Q 42.046875 3.421875 37.71875 1 
Q 33.40625 -1.421875 27.6875 -1.421875 
Q 18.265625 -1.421875 13.375 4.4375 
Q 8.5 10.296875 8.5 21.578125 
z
M 31.109375 56 
z
" id="DejaVuSans-75"/>
     </defs>
     <g transform="translate(1264.3125 117.676563)scale(0.1 -0.1)">
      <use xlink:href="#DejaVuSans-54"/>
      <use x="60.865234" xlink:href="#DejaVuSans-72"/>
      <use x="101.978516" xlink:href="#DejaVuSans-75"/>
      <use x="165.357422" xlink:href="#DejaVuSans-65"/>
     </g>
    </g>
   </g>
  </g>
  <g id="axes_2">
   <g id="patch_8">
    <path d="M 180 445.129412 
L 1296 445.129412 
L 1296 282.070588 
L 180 282.070588 
z
" style="fill:#ffffff;"/>
   </g>
   <g id="matplotlib.axis_3">
    <g id="xtick_10">
     <g id="line2d_24">
      <g>
       <use style="stroke:#000000;stroke-width:0.8;" x="230.727273" xlink:href="#mc973061dde" y="445.129412"/>
      </g>
     </g>
     <g id="text_21">
      <!-- 0 -->
      <g transform="translate(227.546023 459.727849)scale(0.1 -0.1)">
       <use xlink:href="#DejaVuSans-30"/>
      </g>
     </g>
    </g>
    <g id="xtick_11">
     <g id="line2d_25">
      <g>
       <use style="stroke:#000000;stroke-width:0.8;" x="358.182732" xlink:href="#mc973061dde" y="445.129412"/>
      </g>
     </g>
     <g id="text_22">
      <!-- 25 -->
      <g transform="translate(351.820232 459.727849)scale(0.1 -0.1)">
       <use xlink:href="#DejaVuSans-32"/>
       <use x="63.623047" xlink:href="#DejaVuSans-35"/>
      </g>
     </g>
    </g>
    <g id="xtick_12">
     <g id="line2d_26">
      <g>
       <use style="stroke:#000000;stroke-width:0.8;" x="485.638191" xlink:href="#mc973061dde" y="445.129412"/>
      </g>
     </g>
     <g id="text_23">
      <!-- 50 -->
      <g transform="translate(479.275691 459.727849)scale(0.1 -0.1)">
       <use xlink:href="#DejaVuSans-35"/>
       <use x="63.623047" xlink:href="#DejaVuSans-30"/>
      </g>
     </g>
    </g>
    <g id="xtick_13">
     <g id="line2d_27">
      <g>
       <use style="stroke:#000000;stroke-width:0.8;" x="613.09365" xlink:href="#mc973061dde" y="445.129412"/>
      </g>
     </g>
     <g id="text_24">
      <!-- 75 -->
      <g transform="translate(606.73115 459.727849)scale(0.1 -0.1)">
       <use xlink:href="#DejaVuSans-37"/>
       <use x="63.623047" xlink:href="#DejaVuSans-35"/>
      </g>
     </g>
    </g>
    <g id="xtick_14">
     <g id="line2d_28">
      <g>
       <use style="stroke:#000000;stroke-width:0.8;" x="740.549109" xlink:href="#mc973061dde" y="445.129412"/>
      </g>
     </g>
     <g id="text_25">
      <!-- 100 -->
      <g transform="translate(731.005359 459.727849)scale(0.1 -0.1)">
       <use xlink:href="#DejaVuSans-31"/>
       <use x="63.623047" xlink:href="#DejaVuSans-30"/>
       <use x="127.246094" xlink:href="#DejaVuSans-30"/>
      </g>
     </g>
    </g>
    <g id="xtick_15">
     <g id="line2d_29">
      <g>
       <use style="stroke:#000000;stroke-width:0.8;" x="868.004568" xlink:href="#mc973061dde" y="445.129412"/>
      </g>
     </g>
     <g id="text_26">
      <!-- 125 -->
      <g transform="translate(858.460818 459.727849)scale(0.1 -0.1)">
       <use xlink:href="#DejaVuSans-31"/>
       <use x="63.623047" xlink:href="#DejaVuSans-32"/>
       <use x="127.246094" xlink:href="#DejaVuSans-35"/>
      </g>
     </g>
    </g>
    <g id="xtick_16">
     <g id="line2d_30">
      <g>
       <use style="stroke:#000000;stroke-width:0.8;" x="995.460027" xlink:href="#mc973061dde" y="445.129412"/>
      </g>
     </g>
     <g id="text_27">
      <!-- 150 -->
      <g transform="translate(985.916277 459.727849)scale(0.1 -0.1)">
       <use xlink:href="#DejaVuSans-31"/>
       <use x="63.623047" xlink:href="#DejaVuSans-35"/>
       <use x="127.246094" xlink:href="#DejaVuSans-30"/>
      </g>
     </g>
    </g>
    <g id="xtick_17">
     <g id="line2d_31">
      <g>
       <use style="stroke:#000000;stroke-width:0.8;" x="1122.915487" xlink:href="#mc973061dde" y="445.129412"/>
      </g>
     </g>
     <g id="text_28">
      <!-- 175 -->
      <g transform="translate(1113.371737 459.727849)scale(0.1 -0.1)">
       <use xlink:href="#DejaVuSans-31"/>
       <use x="63.623047" xlink:href="#DejaVuSans-37"/>
       <use x="127.246094" xlink:href="#DejaVuSans-35"/>
      </g>
     </g>
    </g>
    <g id="xtick_18">
     <g id="line2d_32">
      <g>
       <use style="stroke:#000000;stroke-width:0.8;" x="1250.370946" xlink:href="#mc973061dde" y="445.129412"/>
      </g>
     </g>
     <g id="text_29">
      <!-- 200 -->
      <g transform="translate(1240.827196 459.727849)scale(0.1 -0.1)">
       <use xlink:href="#DejaVuSans-32"/>
       <use x="63.623047" xlink:href="#DejaVuSans-30"/>
       <use x="127.246094" xlink:href="#DejaVuSans-30"/>
      </g>
     </g>
    </g>
   </g>
   <g id="matplotlib.axis_4">
    <g id="ytick_9">
     <g id="line2d_33">
      <g>
       <use style="stroke:#000000;stroke-width:0.8;" x="180" xlink:href="#m2596bc9b87" y="417.166054"/>
      </g>
     </g>
     <g id="text_30">
      <!-- 0.0 -->
      <defs>
       <path d="M 10.6875 12.40625 
L 21 12.40625 
L 21 0 
L 10.6875 0 
z
" id="DejaVuSans-2e"/>
      </defs>
      <g transform="translate(157.096875 420.965273)scale(0.1 -0.1)">
       <use xlink:href="#DejaVuSans-30"/>
       <use x="63.623047" xlink:href="#DejaVuSans-2e"/>
       <use x="95.410156" xlink:href="#DejaVuSans-30"/>
      </g>
     </g>
    </g>
    <g id="ytick_10">
     <g id="line2d_34">
      <g>
       <use style="stroke:#000000;stroke-width:0.8;" x="180" xlink:href="#m2596bc9b87" y="387.318165"/>
      </g>
     </g>
     <g id="text_31">
      <!-- 0.5 -->
      <g transform="translate(157.096875 391.117384)scale(0.1 -0.1)">
       <use xlink:href="#DejaVuSans-30"/>
       <use x="63.623047" xlink:href="#DejaVuSans-2e"/>
       <use x="95.410156" xlink:href="#DejaVuSans-35"/>
      </g>
     </g>
    </g>
    <g id="ytick_11">
     <g id="line2d_35">
      <g>
       <use style="stroke:#000000;stroke-width:0.8;" x="180" xlink:href="#m2596bc9b87" y="357.470276"/>
      </g>
     </g>
     <g id="text_32">
      <!-- 1.0 -->
      <g transform="translate(157.096875 361.269495)scale(0.1 -0.1)">
       <use xlink:href="#DejaVuSans-31"/>
       <use x="63.623047" xlink:href="#DejaVuSans-2e"/>
       <use x="95.410156" xlink:href="#DejaVuSans-30"/>
      </g>
     </g>
    </g>
    <g id="ytick_12">
     <g id="line2d_36">
      <g>
       <use style="stroke:#000000;stroke-width:0.8;" x="180" xlink:href="#m2596bc9b87" y="327.622387"/>
      </g>
     </g>
     <g id="text_33">
      <!-- 1.5 -->
      <g transform="translate(157.096875 331.421605)scale(0.1 -0.1)">
       <use xlink:href="#DejaVuSans-31"/>
       <use x="63.623047" xlink:href="#DejaVuSans-2e"/>
       <use x="95.410156" xlink:href="#DejaVuSans-35"/>
      </g>
     </g>
    </g>
    <g id="ytick_13">
     <g id="line2d_37">
      <g>
       <use style="stroke:#000000;stroke-width:0.8;" x="180" xlink:href="#m2596bc9b87" y="297.774497"/>
      </g>
     </g>
     <g id="text_34">
      <!-- 2.0 -->
      <g transform="translate(157.096875 301.573716)scale(0.1 -0.1)">
       <use xlink:href="#DejaVuSans-32"/>
       <use x="63.623047" xlink:href="#DejaVuSans-2e"/>
       <use x="95.410156" xlink:href="#DejaVuSans-30"/>
      </g>
     </g>
    </g>
    <g id="text_35">
     <!-- State:1 -->
     <g transform="translate(151.017188 381.700781)rotate(-90)scale(0.1 -0.1)">
      <use xlink:href="#DejaVuSans-53"/>
      <use x="63.476562" xlink:href="#DejaVuSans-74"/>
      <use x="102.685547" xlink:href="#DejaVuSans-61"/>
      <use x="163.964844" xlink:href="#DejaVuSans-74"/>
      <use x="203.173828" xlink:href="#DejaVuSans-65"/>
      <use x="264.697266" xlink:href="#DejaVuSans-3a"/>
      <use x="298.388672" xlink:href="#DejaVuSans-31"/>
     </g>
    </g>
   </g>
   <g id="line2d_38">
    <path clip-path="url(#pfa303cca2a)" d="M 230.727273 420.747801 
L 235.825491 420.300083 
L 240.923709 420.747801 
L 246.021928 420.300083 
L 251.120146 420.747801 
L 261.316583 420.747801 
L 266.414801 420.300083 
L 271.51302 420.747801 
L 276.611238 421.323091 
L 281.709456 421.031179 
L 286.807675 420.03347 
L 291.905893 418.676115 
L 302.10233 416.546009 
L 307.200548 415.011838 
L 312.298767 413.930758 
L 317.396985 412.611471 
L 322.495203 411.877765 
L 327.593422 411.33547 
L 332.69164 411.229616 
L 347.986295 412.363991 
L 353.084513 412.337424 
L 358.182732 412.118161 
L 363.28095 412.09189 
L 368.379169 412.521823 
L 373.477387 413.309982 
L 378.575605 414.404262 
L 383.673824 415.85351 
L 388.772042 416.822486 
L 398.968479 418.045169 
L 404.066697 417.796694 
L 424.459571 414.881134 
L 429.557789 414.091119 
L 434.656007 413.125832 
L 439.754226 412.348823 
L 449.950662 411.755679 
L 455.048881 411.760248 
L 465.245317 412.275215 
L 470.343536 412.294179 
L 485.638191 413.161635 
L 490.736409 413.65475 
L 495.834628 414.480471 
L 500.932846 415.44708 
L 511.129283 417.830841 
L 521.32572 419.942993 
L 526.423938 420.817251 
L 536.620375 422.918857 
L 546.816811 425.761643 
L 562.111466 429.170308 
L 567.209685 430.102518 
L 572.307903 430.782185 
L 582.50434 432.32703 
L 587.602558 433.022898 
L 602.897213 435.583585 
L 613.09365 437.374767 
L 618.191868 437.717647 
L 623.290087 437.589845 
L 628.388305 437.267061 
L 633.486524 436.766362 
L 648.781179 434.592479 
L 653.879397 433.66513 
L 664.075834 431.594928 
L 669.174052 430.939107 
L 674.27227 430.525989 
L 679.370489 434.05663 
L 684.468707 436.468635 
L 689.566926 431.114948 
L 694.665144 429.297644 
L 699.763362 425.697121 
L 704.861581 420.357136 
L 709.959799 417.165961 
L 715.058017 417.088108 
L 720.156236 415.170892 
L 725.254454 413.583374 
L 730.352672 412.1261 
L 735.450891 410.28265 
L 740.549109 408.585688 
L 745.647328 407.208317 
L 750.745546 406.250299 
L 755.843764 405.609313 
L 766.040201 403.862445 
L 781.334856 400.075908 
L 791.531293 397.337258 
L 796.629511 395.8592 
L 801.72773 394.264887 
L 806.825948 392.409813 
L 811.924166 390.085139 
L 822.120603 384.615464 
L 827.218821 381.624163 
L 832.31704 378.289335 
L 837.415258 374.34494 
L 842.513476 369.905375 
L 847.611695 364.873206 
L 857.808132 354.428404 
L 862.90635 349.758131 
L 868.004568 345.981473 
L 873.102787 342.049506 
L 878.201005 337.699109 
L 883.299223 332.56639 
L 888.397442 326.78373 
L 893.49566 320.251108 
L 903.692097 308.613602 
L 908.790315 303.747073 
L 913.888534 300.568296 
L 918.986752 298.088504 
L 924.08497 297.892364 
L 929.183189 302.531153 
L 939.379625 312.800675 
L 944.477844 316.920653 
L 949.576062 321.639433 
L 954.67428 321.315642 
L 959.772499 315.652313 
L 964.870717 307.440009 
L 969.968936 300.122846 
L 975.067154 294.290748 
L 980.165372 290.748611 
L 985.263591 291.334091 
L 990.361809 289.89023 
L 995.460027 289.482353 
L 1005.656464 290.372791 
L 1010.754683 291.3422 
L 1015.852901 292.620991 
L 1020.951119 293.63351 
L 1036.245774 295.945451 
L 1041.343993 296.87515 
L 1046.442211 298.237866 
L 1051.540429 299.402387 
L 1056.638648 300.391808 
L 1061.736866 300.875539 
L 1071.933303 300.70128 
L 1077.031521 300.679734 
L 1082.12974 301.100735 
L 1097.424395 302.912991 
L 1112.71905 305.370369 
L 1117.817268 305.971137 
L 1122.915487 306.328636 
L 1128.013705 307.259428 
L 1133.111923 308.389486 
L 1138.210142 310.085978 
L 1148.406578 314.143456 
L 1153.504797 316.846882 
L 1158.603015 319.977963 
L 1163.701233 323.412842 
L 1168.799452 328.152439 
L 1173.89767 333.352757 
L 1178.995889 339.471294 
L 1184.094107 346.6897 
L 1194.290544 362.743938 
L 1199.388762 368.974783 
L 1204.48698 372.501575 
L 1209.585199 374.11833 
L 1214.683417 375.303172 
L 1219.781635 375.36672 
L 1224.879854 376.592709 
L 1229.978072 378.111269 
L 1235.076291 379.160516 
L 1240.174509 379.322419 
L 1245.272727 378.776644 
L 1245.272727 378.776644 
" style="fill:none;stroke:#000000;stroke-linecap:square;stroke-width:4;"/>
   </g>
   <g id="line2d_39">
    <path clip-path="url(#pfa303cca2a)" d="M 230.727273 420.300083 
L 235.825491 420.747801 
L 240.923709 420.300083 
L 246.021928 420.747801 
L 251.120146 420.300083 
L 256.218365 420.747801 
L 266.414801 420.747801 
L 271.51302 420.300083 
L 276.611238 420.747801 
L 281.709456 420.300083 
L 286.807675 420.300083 
L 291.905893 420.747801 
L 297.004111 420.300083 
L 302.10233 420.747801 
L 307.200548 420.747801 
L 312.298767 421.195519 
L 317.396985 420.747801 
L 322.495203 421.195519 
L 327.593422 420.747801 
L 332.69164 421.195519 
L 347.986295 421.195519 
L 353.084513 420.747801 
L 358.182732 421.643238 
L 363.28095 421.195519 
L 373.477387 421.195519 
L 378.575605 420.747801 
L 383.673824 421.195519 
L 388.772042 421.195519 
L 393.87026 422.090956 
L 398.968479 420.747801 
L 404.066697 421.195519 
L 409.164915 420.747801 
L 419.361352 421.643238 
L 424.459571 420.747801 
L 439.754226 420.747801 
L 444.852444 421.195519 
L 449.950662 420.747801 
L 465.245317 420.747801 
L 470.343536 421.195519 
L 480.539973 420.300083 
L 485.638191 420.747801 
L 490.736409 420.747801 
L 495.834628 426.56814 
L 500.932846 420.747801 
L 506.031064 420.300083 
L 526.423938 420.300083 
L 536.620375 421.195519 
L 546.816811 421.195519 
L 551.91503 420.747801 
L 557.013248 421.195519 
L 562.111466 420.747801 
L 567.209685 421.195519 
L 572.307903 421.195519 
L 577.406122 421.643238 
L 587.602558 420.747801 
L 592.700777 421.195519 
L 597.798995 421.195519 
L 602.897213 421.643238 
L 607.995432 421.195519 
L 613.09365 421.195519 
L 618.191868 420.747801 
L 623.290087 421.195519 
L 628.388305 420.747801 
L 633.486524 420.747801 
L 638.584742 421.195519 
L 643.68296 420.747801 
L 648.781179 420.747801 
L 653.879397 421.643238 
L 658.977615 420.747801 
L 669.174052 419.852364 
L 674.27227 418.956928 
L 679.370489 418.509209 
L 684.468707 418.509209 
L 689.566926 418.061491 
L 699.763362 418.061491 
L 709.959799 417.166054 
L 730.352672 417.166054 
L 735.450891 416.718336 
L 745.647328 416.718336 
L 750.745546 416.270618 
L 755.843764 417.166054 
L 760.941983 416.270618 
L 771.138419 416.270618 
L 776.236638 415.822899 
L 781.334856 415.822899 
L 786.433074 416.270618 
L 791.531293 415.822899 
L 822.120603 415.822899 
L 827.218821 415.375181 
L 832.31704 415.822899 
L 837.415258 415.822899 
L 842.513476 415.375181 
L 847.611695 415.822899 
L 852.709913 414.927463 
L 857.808132 415.375181 
L 868.004568 415.375181 
L 873.102787 414.927463 
L 878.201005 414.927463 
L 883.299223 415.375181 
L 888.397442 414.927463 
L 893.49566 415.375181 
L 898.593878 414.927463 
L 913.888534 414.927463 
L 918.986752 415.375181 
L 924.08497 415.375181 
L 929.183189 415.822899 
L 934.281407 416.718336 
L 939.379625 416.270618 
L 949.576062 417.166054 
L 954.67428 416.718336 
L 959.772499 417.166054 
L 964.870717 417.166054 
L 969.968936 416.718336 
L 975.067154 418.509209 
L 980.165372 418.956928 
L 985.263591 418.509209 
L 995.460027 418.509209 
L 1000.558246 419.404646 
L 1010.754683 418.509209 
L 1020.951119 419.404646 
L 1026.049338 421.643238 
L 1031.147556 418.956928 
L 1036.245774 418.956928 
L 1041.343993 419.404646 
L 1046.442211 418.956928 
L 1051.540429 419.404646 
L 1087.227958 419.404646 
L 1092.326176 419.852364 
L 1097.424395 419.404646 
L 1112.71905 419.404646 
L 1117.817268 419.852364 
L 1122.915487 419.404646 
L 1128.013705 419.852364 
L 1133.111923 419.852364 
L 1138.210142 419.404646 
L 1143.30836 419.852364 
L 1148.406578 419.852364 
L 1153.504797 419.404646 
L 1158.603015 419.852364 
L 1163.701233 419.852364 
L 1168.799452 420.300083 
L 1178.995889 420.300083 
L 1184.094107 419.852364 
L 1194.290544 419.852364 
L 1199.388762 420.747801 
L 1209.585199 419.852364 
L 1214.683417 419.852364 
L 1224.879854 420.747801 
L 1229.978072 420.747801 
L 1235.076291 419.852364 
L 1240.174509 420.300083 
L 1245.272727 419.852364 
L 1245.272727 419.852364 
" style="fill:none;stroke:#ff0000;stroke-linecap:square;stroke-width:1.5;"/>
   </g>
   <g id="patch_9">
    <path d="M 180 445.129412 
L 180 282.070588 
" style="fill:none;stroke:#000000;stroke-linecap:square;stroke-linejoin:miter;stroke-width:0.8;"/>
   </g>
   <g id="patch_10">
    <path d="M 1296 445.129412 
L 1296 282.070588 
" style="fill:none;stroke:#000000;stroke-linecap:square;stroke-linejoin:miter;stroke-width:0.8;"/>
   </g>
   <g id="patch_11">
    <path d="M 180 445.129412 
L 1296 445.129412 
" style="fill:none;stroke:#000000;stroke-linecap:square;stroke-linejoin:miter;stroke-width:0.8;"/>
   </g>
   <g id="patch_12">
    <path d="M 180 282.070588 
L 1296 282.070588 
" style="fill:none;stroke:#000000;stroke-linecap:square;stroke-linejoin:miter;stroke-width:0.8;"/>
   </g>
   <g id="legend_2">
    <g id="patch_13">
     <path d="M 1234.3125 319.426838 
L 1289 319.426838 
Q 1291 319.426838 1291 317.426838 
L 1291 289.070588 
Q 1291 287.070588 1289 287.070588 
L 1234.3125 287.070588 
Q 1232.3125 287.070588 1232.3125 289.070588 
L 1232.3125 317.426838 
Q 1232.3125 319.426838 1234.3125 319.426838 
z
" style="fill:#ffffff;opacity:0.8;stroke:#cccccc;stroke-linejoin:miter;"/>
    </g>
    <g id="line2d_40">
     <path d="M 1236.3125 295.169026 
L 1256.3125 295.169026 
" style="fill:none;stroke:#000000;stroke-linecap:square;stroke-width:4;"/>
    </g>
    <g id="line2d_41"/>
    <g id="text_36">
     <!-- Pred -->
     <g transform="translate(1264.3125 298.669026)scale(0.1 -0.1)">
      <use xlink:href="#DejaVuSans-50"/>
      <use x="60.287109" xlink:href="#DejaVuSans-72"/>
      <use x="101.369141" xlink:href="#DejaVuSans-65"/>
      <use x="162.892578" xlink:href="#DejaVuSans-64"/>
     </g>
    </g>
    <g id="line2d_42">
     <path d="M 1236.3125 309.847151 
L 1256.3125 309.847151 
" style="fill:none;stroke:#ff0000;stroke-linecap:square;stroke-width:1.5;"/>
    </g>
    <g id="line2d_43"/>
    <g id="text_37">
     <!-- True -->
     <g transform="translate(1264.3125 313.347151)scale(0.1 -0.1)">
      <use xlink:href="#DejaVuSans-54"/>
      <use x="60.865234" xlink:href="#DejaVuSans-72"/>
      <use x="101.978516" xlink:href="#DejaVuSans-75"/>
      <use x="165.357422" xlink:href="#DejaVuSans-65"/>
     </g>
    </g>
   </g>
  </g>
  <g id="axes_3">
   <g id="patch_14">
    <path d="M 180 640.8 
L 1296 640.8 
L 1296 477.741176 
L 180 477.741176 
z
" style="fill:#ffffff;"/>
   </g>
   <g id="matplotlib.axis_5">
    <g id="xtick_19">
     <g id="line2d_44">
      <g>
       <use style="stroke:#000000;stroke-width:0.8;" x="230.727273" xlink:href="#mc973061dde" y="640.8"/>
      </g>
     </g>
     <g id="text_38">
      <!-- 0 -->
      <g transform="translate(227.546023 655.398438)scale(0.1 -0.1)">
       <use xlink:href="#DejaVuSans-30"/>
      </g>
     </g>
    </g>
    <g id="xtick_20">
     <g id="line2d_45">
      <g>
       <use style="stroke:#000000;stroke-width:0.8;" x="358.182732" xlink:href="#mc973061dde" y="640.8"/>
      </g>
     </g>
     <g id="text_39">
      <!-- 25 -->
      <g transform="translate(351.820232 655.398438)scale(0.1 -0.1)">
       <use xlink:href="#DejaVuSans-32"/>
       <use x="63.623047" xlink:href="#DejaVuSans-35"/>
      </g>
     </g>
    </g>
    <g id="xtick_21">
     <g id="line2d_46">
      <g>
       <use style="stroke:#000000;stroke-width:0.8;" x="485.638191" xlink:href="#mc973061dde" y="640.8"/>
      </g>
     </g>
     <g id="text_40">
      <!-- 50 -->
      <g transform="translate(479.275691 655.398438)scale(0.1 -0.1)">
       <use xlink:href="#DejaVuSans-35"/>
       <use x="63.623047" xlink:href="#DejaVuSans-30"/>
      </g>
     </g>
    </g>
    <g id="xtick_22">
     <g id="line2d_47">
      <g>
       <use style="stroke:#000000;stroke-width:0.8;" x="613.09365" xlink:href="#mc973061dde" y="640.8"/>
      </g>
     </g>
     <g id="text_41">
      <!-- 75 -->
      <g transform="translate(606.73115 655.398438)scale(0.1 -0.1)">
       <use xlink:href="#DejaVuSans-37"/>
       <use x="63.623047" xlink:href="#DejaVuSans-35"/>
      </g>
     </g>
    </g>
    <g id="xtick_23">
     <g id="line2d_48">
      <g>
       <use style="stroke:#000000;stroke-width:0.8;" x="740.549109" xlink:href="#mc973061dde" y="640.8"/>
      </g>
     </g>
     <g id="text_42">
      <!-- 100 -->
      <g transform="translate(731.005359 655.398438)scale(0.1 -0.1)">
       <use xlink:href="#DejaVuSans-31"/>
       <use x="63.623047" xlink:href="#DejaVuSans-30"/>
       <use x="127.246094" xlink:href="#DejaVuSans-30"/>
      </g>
     </g>
    </g>
    <g id="xtick_24">
     <g id="line2d_49">
      <g>
       <use style="stroke:#000000;stroke-width:0.8;" x="868.004568" xlink:href="#mc973061dde" y="640.8"/>
      </g>
     </g>
     <g id="text_43">
      <!-- 125 -->
      <g transform="translate(858.460818 655.398438)scale(0.1 -0.1)">
       <use xlink:href="#DejaVuSans-31"/>
       <use x="63.623047" xlink:href="#DejaVuSans-32"/>
       <use x="127.246094" xlink:href="#DejaVuSans-35"/>
      </g>
     </g>
    </g>
    <g id="xtick_25">
     <g id="line2d_50">
      <g>
       <use style="stroke:#000000;stroke-width:0.8;" x="995.460027" xlink:href="#mc973061dde" y="640.8"/>
      </g>
     </g>
     <g id="text_44">
      <!-- 150 -->
      <g transform="translate(985.916277 655.398438)scale(0.1 -0.1)">
       <use xlink:href="#DejaVuSans-31"/>
       <use x="63.623047" xlink:href="#DejaVuSans-35"/>
       <use x="127.246094" xlink:href="#DejaVuSans-30"/>
      </g>
     </g>
    </g>
    <g id="xtick_26">
     <g id="line2d_51">
      <g>
       <use style="stroke:#000000;stroke-width:0.8;" x="1122.915487" xlink:href="#mc973061dde" y="640.8"/>
      </g>
     </g>
     <g id="text_45">
      <!-- 175 -->
      <g transform="translate(1113.371737 655.398438)scale(0.1 -0.1)">
       <use xlink:href="#DejaVuSans-31"/>
       <use x="63.623047" xlink:href="#DejaVuSans-37"/>
       <use x="127.246094" xlink:href="#DejaVuSans-35"/>
      </g>
     </g>
    </g>
    <g id="xtick_27">
     <g id="line2d_52">
      <g>
       <use style="stroke:#000000;stroke-width:0.8;" x="1250.370946" xlink:href="#mc973061dde" y="640.8"/>
      </g>
     </g>
     <g id="text_46">
      <!-- 200 -->
      <g transform="translate(1240.827196 655.398438)scale(0.1 -0.1)">
       <use xlink:href="#DejaVuSans-32"/>
       <use x="63.623047" xlink:href="#DejaVuSans-30"/>
       <use x="127.246094" xlink:href="#DejaVuSans-30"/>
      </g>
     </g>
    </g>
    <g id="text_47">
     <!-- Time -->
     <defs>
      <path d="M 9.421875 54.6875 
L 18.40625 54.6875 
L 18.40625 0 
L 9.421875 0 
z
M 9.421875 75.984375 
L 18.40625 75.984375 
L 18.40625 64.59375 
L 9.421875 64.59375 
z
" id="DejaVuSans-69"/>
      <path d="M 52 44.1875 
Q 55.375 50.25 60.0625 53.125 
Q 64.75 56 71.09375 56 
Q 79.640625 56 84.28125 50.015625 
Q 88.921875 44.046875 88.921875 33.015625 
L 88.921875 0 
L 79.890625 0 
L 79.890625 32.71875 
Q 79.890625 40.578125 77.09375 44.375 
Q 74.3125 48.1875 68.609375 48.1875 
Q 61.625 48.1875 57.5625 43.546875 
Q 53.515625 38.921875 53.515625 30.90625 
L 53.515625 0 
L 44.484375 0 
L 44.484375 32.71875 
Q 44.484375 40.625 41.703125 44.40625 
Q 38.921875 48.1875 33.109375 48.1875 
Q 26.21875 48.1875 22.15625 43.53125 
Q 18.109375 38.875 18.109375 30.90625 
L 18.109375 0 
L 9.078125 0 
L 9.078125 54.6875 
L 18.109375 54.6875 
L 18.109375 46.1875 
Q 21.1875 51.21875 25.484375 53.609375 
Q 29.78125 56 35.6875 56 
Q 41.65625 56 45.828125 52.96875 
Q 50 49.953125 52 44.1875 
z
" id="DejaVuSans-6d"/>
     </defs>
     <g transform="translate(725.6125 669.076563)scale(0.1 -0.1)">
      <use xlink:href="#DejaVuSans-54"/>
      <use x="61.037109" xlink:href="#DejaVuSans-69"/>
      <use x="88.820312" xlink:href="#DejaVuSans-6d"/>
      <use x="186.232422" xlink:href="#DejaVuSans-65"/>
     </g>
    </g>
   </g>
   <g id="matplotlib.axis_6">
    <g id="ytick_14">
     <g id="line2d_53">
      <g>
       <use style="stroke:#000000;stroke-width:0.8;" x="180" xlink:href="#m2596bc9b87" y="627.897829"/>
      </g>
     </g>
     <g id="text_48">
      <!-- −2 -->
      <g transform="translate(158.257812 631.697047)scale(0.1 -0.1)">
       <use xlink:href="#DejaVuSans-2212"/>
       <use x="83.789062" xlink:href="#DejaVuSans-32"/>
      </g>
     </g>
    </g>
    <g id="ytick_15">
     <g id="line2d_54">
      <g>
       <use style="stroke:#000000;stroke-width:0.8;" x="180" xlink:href="#m2596bc9b87" y="603.58191"/>
      </g>
     </g>
     <g id="text_49">
      <!-- −1 -->
      <g transform="translate(158.257812 607.381129)scale(0.1 -0.1)">
       <use xlink:href="#DejaVuSans-2212"/>
       <use x="83.789062" xlink:href="#DejaVuSans-31"/>
      </g>
     </g>
    </g>
    <g id="ytick_16">
     <g id="line2d_55">
      <g>
       <use style="stroke:#000000;stroke-width:0.8;" x="180" xlink:href="#m2596bc9b87" y="579.265992"/>
      </g>
     </g>
     <g id="text_50">
      <!-- 0 -->
      <g transform="translate(166.6375 583.065211)scale(0.1 -0.1)">
       <use xlink:href="#DejaVuSans-30"/>
      </g>
     </g>
    </g>
    <g id="ytick_17">
     <g id="line2d_56">
      <g>
       <use style="stroke:#000000;stroke-width:0.8;" x="180" xlink:href="#m2596bc9b87" y="554.950074"/>
      </g>
     </g>
     <g id="text_51">
      <!-- 1 -->
      <g transform="translate(166.6375 558.749292)scale(0.1 -0.1)">
       <use xlink:href="#DejaVuSans-31"/>
      </g>
     </g>
    </g>
    <g id="ytick_18">
     <g id="line2d_57">
      <g>
       <use style="stroke:#000000;stroke-width:0.8;" x="180" xlink:href="#m2596bc9b87" y="530.634155"/>
      </g>
     </g>
     <g id="text_52">
      <!-- 2 -->
      <g transform="translate(166.6375 534.433374)scale(0.1 -0.1)">
       <use xlink:href="#DejaVuSans-32"/>
      </g>
     </g>
    </g>
    <g id="ytick_19">
     <g id="line2d_58">
      <g>
       <use style="stroke:#000000;stroke-width:0.8;" x="180" xlink:href="#m2596bc9b87" y="506.318237"/>
      </g>
     </g>
     <g id="text_53">
      <!-- 3 -->
      <defs>
       <path d="M 40.578125 39.3125 
Q 47.65625 37.796875 51.625 33 
Q 55.609375 28.21875 55.609375 21.1875 
Q 55.609375 10.40625 48.1875 4.484375 
Q 40.765625 -1.421875 27.09375 -1.421875 
Q 22.515625 -1.421875 17.65625 -0.515625 
Q 12.796875 0.390625 7.625 2.203125 
L 7.625 11.71875 
Q 11.71875 9.328125 16.59375 8.109375 
Q 21.484375 6.890625 26.8125 6.890625 
Q 36.078125 6.890625 40.9375 10.546875 
Q 45.796875 14.203125 45.796875 21.1875 
Q 45.796875 27.640625 41.28125 31.265625 
Q 36.765625 34.90625 28.71875 34.90625 
L 20.21875 34.90625 
L 20.21875 43.015625 
L 29.109375 43.015625 
Q 36.375 43.015625 40.234375 45.921875 
Q 44.09375 48.828125 44.09375 54.296875 
Q 44.09375 59.90625 40.109375 62.90625 
Q 36.140625 65.921875 28.71875 65.921875 
Q 24.65625 65.921875 20.015625 65.03125 
Q 15.375 64.15625 9.8125 62.3125 
L 9.8125 71.09375 
Q 15.4375 72.65625 20.34375 73.4375 
Q 25.25 74.21875 29.59375 74.21875 
Q 40.828125 74.21875 47.359375 69.109375 
Q 53.90625 64.015625 53.90625 55.328125 
Q 53.90625 49.265625 50.4375 45.09375 
Q 46.96875 40.921875 40.578125 39.3125 
z
" id="DejaVuSans-33"/>
      </defs>
      <g transform="translate(166.6375 510.117456)scale(0.1 -0.1)">
       <use xlink:href="#DejaVuSans-33"/>
      </g>
     </g>
    </g>
    <g id="ytick_20">
     <g id="line2d_59">
      <g>
       <use style="stroke:#000000;stroke-width:0.8;" x="180" xlink:href="#m2596bc9b87" y="482.002319"/>
      </g>
     </g>
     <g id="text_54">
      <!-- 4 -->
      <g transform="translate(166.6375 485.801537)scale(0.1 -0.1)">
       <use xlink:href="#DejaVuSans-34"/>
      </g>
     </g>
    </g>
    <g id="text_55">
     <!-- Control Input -->
     <defs>
      <path d="M 64.40625 67.28125 
L 64.40625 56.890625 
Q 59.421875 61.53125 53.78125 63.8125 
Q 48.140625 66.109375 41.796875 66.109375 
Q 29.296875 66.109375 22.65625 58.46875 
Q 16.015625 50.828125 16.015625 36.375 
Q 16.015625 21.96875 22.65625 14.328125 
Q 29.296875 6.6875 41.796875 6.6875 
Q 48.140625 6.6875 53.78125 8.984375 
Q 59.421875 11.28125 64.40625 15.921875 
L 64.40625 5.609375 
Q 59.234375 2.09375 53.4375 0.328125 
Q 47.65625 -1.421875 41.21875 -1.421875 
Q 24.65625 -1.421875 15.125 8.703125 
Q 5.609375 18.84375 5.609375 36.375 
Q 5.609375 53.953125 15.125 64.078125 
Q 24.65625 74.21875 41.21875 74.21875 
Q 47.75 74.21875 53.53125 72.484375 
Q 59.328125 70.75 64.40625 67.28125 
z
" id="DejaVuSans-43"/>
      <path d="M 30.609375 48.390625 
Q 23.390625 48.390625 19.1875 42.75 
Q 14.984375 37.109375 14.984375 27.296875 
Q 14.984375 17.484375 19.15625 11.84375 
Q 23.34375 6.203125 30.609375 6.203125 
Q 37.796875 6.203125 41.984375 11.859375 
Q 46.1875 17.53125 46.1875 27.296875 
Q 46.1875 37.015625 41.984375 42.703125 
Q 37.796875 48.390625 30.609375 48.390625 
z
M 30.609375 56 
Q 42.328125 56 49.015625 48.375 
Q 55.71875 40.765625 55.71875 27.296875 
Q 55.71875 13.875 49.015625 6.21875 
Q 42.328125 -1.421875 30.609375 -1.421875 
Q 18.84375 -1.421875 12.171875 6.21875 
Q 5.515625 13.875 5.515625 27.296875 
Q 5.515625 40.765625 12.171875 48.375 
Q 18.84375 56 30.609375 56 
z
" id="DejaVuSans-6f"/>
      <path d="M 54.890625 33.015625 
L 54.890625 0 
L 45.90625 0 
L 45.90625 32.71875 
Q 45.90625 40.484375 42.875 44.328125 
Q 39.84375 48.1875 33.796875 48.1875 
Q 26.515625 48.1875 22.3125 43.546875 
Q 18.109375 38.921875 18.109375 30.90625 
L 18.109375 0 
L 9.078125 0 
L 9.078125 54.6875 
L 18.109375 54.6875 
L 18.109375 46.1875 
Q 21.34375 51.125 25.703125 53.5625 
Q 30.078125 56 35.796875 56 
Q 45.21875 56 50.046875 50.171875 
Q 54.890625 44.34375 54.890625 33.015625 
z
" id="DejaVuSans-6e"/>
      <path d="M 9.421875 75.984375 
L 18.40625 75.984375 
L 18.40625 0 
L 9.421875 0 
z
" id="DejaVuSans-6c"/>
      <path id="DejaVuSans-20"/>
      <path d="M 9.8125 72.90625 
L 19.671875 72.90625 
L 19.671875 0 
L 9.8125 0 
z
" id="DejaVuSans-49"/>
      <path d="M 18.109375 8.203125 
L 18.109375 -20.796875 
L 9.078125 -20.796875 
L 9.078125 54.6875 
L 18.109375 54.6875 
L 18.109375 46.390625 
Q 20.953125 51.265625 25.265625 53.625 
Q 29.59375 56 35.59375 56 
Q 45.5625 56 51.78125 48.09375 
Q 58.015625 40.1875 58.015625 27.296875 
Q 58.015625 14.40625 51.78125 6.484375 
Q 45.5625 -1.421875 35.59375 -1.421875 
Q 29.59375 -1.421875 25.265625 0.953125 
Q 20.953125 3.328125 18.109375 8.203125 
z
M 48.6875 27.296875 
Q 48.6875 37.203125 44.609375 42.84375 
Q 40.53125 48.484375 33.40625 48.484375 
Q 26.265625 48.484375 22.1875 42.84375 
Q 18.109375 37.203125 18.109375 27.296875 
Q 18.109375 17.390625 22.1875 11.75 
Q 26.265625 6.109375 33.40625 6.109375 
Q 40.53125 6.109375 44.609375 11.75 
Q 48.6875 17.390625 48.6875 27.296875 
z
" id="DejaVuSans-70"/>
     </defs>
     <g transform="translate(152.178125 591.988557)rotate(-90)scale(0.1 -0.1)">
      <use xlink:href="#DejaVuSans-43"/>
      <use x="69.824219" xlink:href="#DejaVuSans-6f"/>
      <use x="131.005859" xlink:href="#DejaVuSans-6e"/>
      <use x="194.384766" xlink:href="#DejaVuSans-74"/>
      <use x="233.59375" xlink:href="#DejaVuSans-72"/>
      <use x="274.675781" xlink:href="#DejaVuSans-6f"/>
      <use x="335.857422" xlink:href="#DejaVuSans-6c"/>
      <use x="363.640625" xlink:href="#DejaVuSans-20"/>
      <use x="395.427734" xlink:href="#DejaVuSans-49"/>
      <use x="424.919922" xlink:href="#DejaVuSans-6e"/>
      <use x="488.298828" xlink:href="#DejaVuSans-70"/>
      <use x="551.775391" xlink:href="#DejaVuSans-75"/>
      <use x="615.154297" xlink:href="#DejaVuSans-74"/>
     </g>
    </g>
   </g>
   <g id="line2d_60">
    <path clip-path="url(#pb3ed271def)" d="M 230.727273 493.919343 
L 235.825491 493.751704 
L 246.021928 493.204148 
L 251.120146 491.285889 
L 256.218365 491.177831 
L 261.316583 491.545938 
L 266.414801 492.076689 
L 271.51302 491.800626 
L 276.611238 492.193637 
L 281.709456 487.54845 
L 286.807675 491.415953 
L 291.905893 492.399283 
L 297.004111 491.481543 
L 302.10233 491.801373 
L 307.200548 490.576495 
L 312.298767 490.081831 
L 317.396985 489.369455 
L 322.495203 489.902175 
L 327.593422 489.092321 
L 332.69164 488.719306 
L 337.789858 489.386633 
L 342.888077 489.685847 
L 347.986295 490.113754 
L 353.084513 490.964074 
L 358.182732 490.125936 
L 363.28095 488.896286 
L 368.379169 488.029132 
L 373.477387 489.721055 
L 378.575605 488.199077 
L 383.673824 487.54715 
L 388.772042 487.589614 
L 393.87026 486.529232 
L 398.968479 489.673961 
L 404.066697 488.135692 
L 409.164915 485.824264 
L 414.263134 485.152941 
L 419.361352 490.772816 
L 424.459571 489.106708 
L 429.557789 489.315614 
L 439.754226 490.782601 
L 444.852444 490.453119 
L 449.950662 489.037322 
L 460.147099 488.453479 
L 465.245317 488.587442 
L 470.343536 490.986446 
L 475.441754 491.363371 
L 480.539973 491.135325 
L 485.638191 492.780337 
L 490.736409 491.760648 
L 495.834628 490.063753 
L 500.932846 489.276958 
L 506.031064 488.30214 
L 511.129283 489.889196 
L 516.227501 489.613843 
L 521.32572 490.434998 
L 526.423938 490.337437 
L 531.522156 488.488953 
L 536.620375 493.709188 
L 541.718593 491.394042 
L 546.816811 490.987777 
L 551.91503 491.645997 
L 557.013248 490.692954 
L 562.111466 489.192178 
L 567.209685 491.22928 
L 572.307903 492.403355 
L 577.406122 492.445246 
L 582.50434 491.672357 
L 587.602558 491.684459 
L 592.700777 490.671356 
L 597.798995 491.030752 
L 602.897213 491.773863 
L 607.995432 492.770986 
L 613.09365 491.320477 
L 618.191868 491.376959 
L 623.290087 492.205604 
L 628.388305 490.768515 
L 633.486524 491.249684 
L 638.584742 489.919552 
L 643.68296 493.00008 
L 648.781179 492.5985 
L 653.879397 491.676767 
L 664.075834 490.791904 
L 669.174052 491.760756 
L 674.27227 570.082247 
L 679.370489 601.185451 
L 684.468707 599.952099 
L 689.566926 600.421564 
L 694.665144 601.57914 
L 699.763362 602.921675 
L 704.861581 606.010927 
L 709.959799 607.005547 
L 715.058017 608.710876 
L 720.156236 611.257565 
L 730.352672 613.383169 
L 735.450891 614.212937 
L 740.549109 614.602232 
L 745.647328 612.954682 
L 750.745546 613.235115 
L 755.843764 614.032981 
L 760.941983 614.540156 
L 766.040201 614.414566 
L 771.138419 612.429545 
L 776.236638 612.607572 
L 781.334856 615.497175 
L 786.433074 615.826795 
L 791.531293 617.023058 
L 796.629511 616.813611 
L 801.72773 617.862129 
L 806.825948 618.340703 
L 811.924166 617.830041 
L 817.022385 619.390713 
L 822.120603 619.54416 
L 827.218821 621.679073 
L 832.31704 621.536013 
L 837.415258 623.124869 
L 847.611695 626.039062 
L 852.709913 626.554234 
L 857.808132 625.781145 
L 862.90635 627.727003 
L 868.004568 630.238086 
L 873.102787 630.190606 
L 878.201005 627.275026 
L 883.299223 625.211286 
L 888.397442 628.234258 
L 893.49566 626.528029 
L 898.593878 626.654598 
L 908.790315 628.320234 
L 913.888534 628.535283 
L 918.986752 631.609496 
L 924.08497 633.380038 
L 929.183189 633.388235 
L 934.281407 551.793519 
L 939.379625 537.779012 
L 944.477844 538.315064 
L 949.576062 536.596638 
L 954.67428 535.16665 
L 959.772499 533.084153 
L 964.870717 532.431936 
L 969.968936 534.209936 
L 975.067154 533.219207 
L 980.165372 531.566286 
L 985.263591 528.122364 
L 990.361809 528.512652 
L 995.460027 529.947058 
L 1000.558246 529.663438 
L 1005.656464 528.970223 
L 1015.852901 528.298915 
L 1020.951119 528.227756 
L 1026.049338 527.736689 
L 1031.147556 524.626456 
L 1036.245774 523.237345 
L 1041.343993 523.570548 
L 1046.442211 523.109697 
L 1051.540429 518.970672 
L 1056.638648 518.845389 
L 1066.835085 520.39416 
L 1071.933303 520.499525 
L 1077.031521 520.2287 
L 1082.12974 520.922196 
L 1087.227958 517.649913 
L 1092.326176 520.9196 
L 1097.424395 517.02928 
L 1102.522613 516.328794 
L 1107.620831 516.353476 
L 1112.71905 514.755739 
L 1117.817268 511.332494 
L 1122.915487 515.878526 
L 1128.013705 513.104887 
L 1133.111923 514.699559 
L 1138.210142 515.249283 
L 1143.30836 511.885836 
L 1148.406578 511.529527 
L 1153.504797 512.252046 
L 1158.603015 512.467981 
L 1163.701233 509.241289 
L 1168.799452 510.762153 
L 1173.89767 504.971293 
L 1178.995889 503.86381 
L 1184.094107 506.535945 
L 1189.192325 507.238068 
L 1194.290544 514.585445 
L 1199.388762 507.738976 
L 1204.48698 511.808001 
L 1209.585199 511.892095 
L 1214.683417 515.195068 
L 1219.781635 513.133718 
L 1224.879854 513.444749 
L 1229.978072 511.587282 
L 1235.076291 509.176074 
L 1240.174509 511.534277 
L 1245.272727 511.479905 
L 1245.272727 511.479905 
" style="fill:none;stroke:#ff0000;stroke-linecap:square;stroke-width:1.5;"/>
   </g>
   <g id="patch_15">
    <path d="M 180 640.8 
L 180 477.741176 
" style="fill:none;stroke:#000000;stroke-linecap:square;stroke-linejoin:miter;stroke-width:0.8;"/>
   </g>
   <g id="patch_16">
    <path d="M 1296 640.8 
L 1296 477.741176 
" style="fill:none;stroke:#000000;stroke-linecap:square;stroke-linejoin:miter;stroke-width:0.8;"/>
   </g>
   <g id="patch_17">
    <path d="M 180 640.8 
L 1296 640.8 
" style="fill:none;stroke:#000000;stroke-linecap:square;stroke-linejoin:miter;stroke-width:0.8;"/>
   </g>
   <g id="patch_18">
    <path d="M 180 477.741176 
L 1296 477.741176 
" style="fill:none;stroke:#000000;stroke-linecap:square;stroke-linejoin:miter;stroke-width:0.8;"/>
   </g>
   <g id="legend_3">
    <g id="patch_19">
     <path d="M 1194.742188 500.419301 
L 1289 500.419301 
Q 1291 500.419301 1291 498.419301 
L 1291 484.741176 
Q 1291 482.741176 1289 482.741176 
L 1194.742188 482.741176 
Q 1192.742188 482.741176 1192.742188 484.741176 
L 1192.742188 498.419301 
Q 1192.742188 500.419301 1194.742188 500.419301 
z
" style="fill:#ffffff;opacity:0.8;stroke:#cccccc;stroke-linejoin:miter;"/>
    </g>
    <g id="line2d_61">
     <path d="M 1196.742188 490.839614 
L 1216.742188 490.839614 
" style="fill:none;stroke:#ff0000;stroke-linecap:square;stroke-width:1.5;"/>
    </g>
    <g id="line2d_62"/>
    <g id="text_56">
     <!-- ControlInput -->
     <g transform="translate(1224.742188 494.339614)scale(0.1 -0.1)">
      <use xlink:href="#DejaVuSans-43"/>
      <use x="69.824219" xlink:href="#DejaVuSans-6f"/>
      <use x="131.005859" xlink:href="#DejaVuSans-6e"/>
      <use x="194.384766" xlink:href="#DejaVuSans-74"/>
      <use x="233.59375" xlink:href="#DejaVuSans-72"/>
      <use x="274.675781" xlink:href="#DejaVuSans-6f"/>
      <use x="335.857422" xlink:href="#DejaVuSans-6c"/>
      <use x="363.640625" xlink:href="#DejaVuSans-49"/>
      <use x="393.132812" xlink:href="#DejaVuSans-6e"/>
      <use x="456.511719" xlink:href="#DejaVuSans-70"/>
      <use x="519.988281" xlink:href="#DejaVuSans-75"/>
      <use x="583.367188" xlink:href="#DejaVuSans-74"/>
     </g>
    </g>
   </g>
  </g>
 </g>
 <defs>
  <clipPath id="p4b1b536b2b">
   <rect height="163.058824" width="1116" x="180" y="86.4"/>
  </clipPath>
  <clipPath id="pfa303cca2a">
   <rect height="163.058824" width="1116" x="180" y="282.070588"/>
  </clipPath>
  <clipPath id="pb3ed271def">
   <rect height="163.058824" width="1116" x="180" y="477.741176"/>
  </clipPath>
 </defs>
</svg>
