<?xml version="1.0" encoding="utf-8" standalone="no"?>
<!DOCTYPE svg PUBLIC "-//W3C//DTD SVG 1.1//EN"
  "http://www.w3.org/Graphics/SVG/1.1/DTD/svg11.dtd">
<!-- Created with matplotlib (http://matplotlib.org/) -->
<svg height="720pt" version="1.1" viewBox="0 0 1440 720" width="1440pt" xmlns="http://www.w3.org/2000/svg" xmlns:xlink="http://www.w3.org/1999/xlink">
 <defs>
  <style type="text/css">
*{stroke-linecap:butt;stroke-linejoin:round;}
  </style>
 </defs>
 <g id="figure_1">
  <g id="patch_1">
   <path d="M 0 720 
L 1440 720 
L 1440 0 
L 0 0 
z
" style="fill:#ffffff;"/>
  </g>
  <g id="axes_1">
   <g id="patch_2">
    <path d="M 180 249.458824 
L 1296 249.458824 
L 1296 86.4 
L 180 86.4 
z
" style="fill:#ffffff;"/>
   </g>
   <g id="matplotlib.axis_1">
    <g id="xtick_1">
     <g id="line2d_1">
      <defs>
       <path d="M 0 0 
L 0 3.5 
" id="m29b15f8069" style="stroke:#000000;stroke-width:0.8;"/>
      </defs>
      <g>
       <use style="stroke:#000000;stroke-width:0.8;" x="230.727273" xlink:href="#m29b15f8069" y="249.458824"/>
      </g>
     </g>
     <g id="text_1">
      <!-- 0 -->
      <defs>
       <path d="M 31.78125 66.40625 
Q 24.171875 66.40625 20.328125 58.90625 
Q 16.5 51.421875 16.5 36.375 
Q 16.5 21.390625 20.328125 13.890625 
Q 24.171875 6.390625 31.78125 6.390625 
Q 39.453125 6.390625 43.28125 13.890625 
Q 47.125 21.390625 47.125 36.375 
Q 47.125 51.421875 43.28125 58.90625 
Q 39.453125 66.40625 31.78125 66.40625 
z
M 31.78125 74.21875 
Q 44.046875 74.21875 50.515625 64.515625 
Q 56.984375 54.828125 56.984375 36.375 
Q 56.984375 17.96875 50.515625 8.265625 
Q 44.046875 -1.421875 31.78125 -1.421875 
Q 19.53125 -1.421875 13.0625 8.265625 
Q 6.59375 17.96875 6.59375 36.375 
Q 6.59375 54.828125 13.0625 64.515625 
Q 19.53125 74.21875 31.78125 74.21875 
z
" id="DejaVuSans-30"/>
      </defs>
      <g transform="translate(227.546023 264.057261)scale(0.1 -0.1)">
       <use xlink:href="#DejaVuSans-30"/>
      </g>
     </g>
    </g>
    <g id="xtick_2">
     <g id="line2d_2">
      <g>
       <use style="stroke:#000000;stroke-width:0.8;" x="358.182732" xlink:href="#m29b15f8069" y="249.458824"/>
      </g>
     </g>
     <g id="text_2">
      <!-- 25 -->
      <defs>
       <path d="M 19.1875 8.296875 
L 53.609375 8.296875 
L 53.609375 0 
L 7.328125 0 
L 7.328125 8.296875 
Q 12.9375 14.109375 22.625 23.890625 
Q 32.328125 33.6875 34.8125 36.53125 
Q 39.546875 41.84375 41.421875 45.53125 
Q 43.3125 49.21875 43.3125 52.78125 
Q 43.3125 58.59375 39.234375 62.25 
Q 35.15625 65.921875 28.609375 65.921875 
Q 23.96875 65.921875 18.8125 64.3125 
Q 13.671875 62.703125 7.8125 59.421875 
L 7.8125 69.390625 
Q 13.765625 71.78125 18.9375 73 
Q 24.125 74.21875 28.421875 74.21875 
Q 39.75 74.21875 46.484375 68.546875 
Q 53.21875 62.890625 53.21875 53.421875 
Q 53.21875 48.921875 51.53125 44.890625 
Q 49.859375 40.875 45.40625 35.40625 
Q 44.1875 33.984375 37.640625 27.21875 
Q 31.109375 20.453125 19.1875 8.296875 
z
" id="DejaVuSans-32"/>
       <path d="M 10.796875 72.90625 
L 49.515625 72.90625 
L 49.515625 64.59375 
L 19.828125 64.59375 
L 19.828125 46.734375 
Q 21.96875 47.46875 24.109375 47.828125 
Q 26.265625 48.1875 28.421875 48.1875 
Q 40.625 48.1875 47.75 41.5 
Q 54.890625 34.8125 54.890625 23.390625 
Q 54.890625 11.625 47.5625 5.09375 
Q 40.234375 -1.421875 26.90625 -1.421875 
Q 22.3125 -1.421875 17.546875 -0.640625 
Q 12.796875 0.140625 7.71875 1.703125 
L 7.71875 11.625 
Q 12.109375 9.234375 16.796875 8.0625 
Q 21.484375 6.890625 26.703125 6.890625 
Q 35.15625 6.890625 40.078125 11.328125 
Q 45.015625 15.765625 45.015625 23.390625 
Q 45.015625 31 40.078125 35.4375 
Q 35.15625 39.890625 26.703125 39.890625 
Q 22.75 39.890625 18.8125 39.015625 
Q 14.890625 38.140625 10.796875 36.28125 
z
" id="DejaVuSans-35"/>
      </defs>
      <g transform="translate(351.820232 264.057261)scale(0.1 -0.1)">
       <use xlink:href="#DejaVuSans-32"/>
       <use x="63.623047" xlink:href="#DejaVuSans-35"/>
      </g>
     </g>
    </g>
    <g id="xtick_3">
     <g id="line2d_3">
      <g>
       <use style="stroke:#000000;stroke-width:0.8;" x="485.638191" xlink:href="#m29b15f8069" y="249.458824"/>
      </g>
     </g>
     <g id="text_3">
      <!-- 50 -->
      <g transform="translate(479.275691 264.057261)scale(0.1 -0.1)">
       <use xlink:href="#DejaVuSans-35"/>
       <use x="63.623047" xlink:href="#DejaVuSans-30"/>
      </g>
     </g>
    </g>
    <g id="xtick_4">
     <g id="line2d_4">
      <g>
       <use style="stroke:#000000;stroke-width:0.8;" x="613.09365" xlink:href="#m29b15f8069" y="249.458824"/>
      </g>
     </g>
     <g id="text_4">
      <!-- 75 -->
      <defs>
       <path d="M 8.203125 72.90625 
L 55.078125 72.90625 
L 55.078125 68.703125 
L 28.609375 0 
L 18.3125 0 
L 43.21875 64.59375 
L 8.203125 64.59375 
z
" id="DejaVuSans-37"/>
      </defs>
      <g transform="translate(606.73115 264.057261)scale(0.1 -0.1)">
       <use xlink:href="#DejaVuSans-37"/>
       <use x="63.623047" xlink:href="#DejaVuSans-35"/>
      </g>
     </g>
    </g>
    <g id="xtick_5">
     <g id="line2d_5">
      <g>
       <use style="stroke:#000000;stroke-width:0.8;" x="740.549109" xlink:href="#m29b15f8069" y="249.458824"/>
      </g>
     </g>
     <g id="text_5">
      <!-- 100 -->
      <defs>
       <path d="M 12.40625 8.296875 
L 28.515625 8.296875 
L 28.515625 63.921875 
L 10.984375 60.40625 
L 10.984375 69.390625 
L 28.421875 72.90625 
L 38.28125 72.90625 
L 38.28125 8.296875 
L 54.390625 8.296875 
L 54.390625 0 
L 12.40625 0 
z
" id="DejaVuSans-31"/>
      </defs>
      <g transform="translate(731.005359 264.057261)scale(0.1 -0.1)">
       <use xlink:href="#DejaVuSans-31"/>
       <use x="63.623047" xlink:href="#DejaVuSans-30"/>
       <use x="127.246094" xlink:href="#DejaVuSans-30"/>
      </g>
     </g>
    </g>
    <g id="xtick_6">
     <g id="line2d_6">
      <g>
       <use style="stroke:#000000;stroke-width:0.8;" x="868.004568" xlink:href="#m29b15f8069" y="249.458824"/>
      </g>
     </g>
     <g id="text_6">
      <!-- 125 -->
      <g transform="translate(858.460818 264.057261)scale(0.1 -0.1)">
       <use xlink:href="#DejaVuSans-31"/>
       <use x="63.623047" xlink:href="#DejaVuSans-32"/>
       <use x="127.246094" xlink:href="#DejaVuSans-35"/>
      </g>
     </g>
    </g>
    <g id="xtick_7">
     <g id="line2d_7">
      <g>
       <use style="stroke:#000000;stroke-width:0.8;" x="995.460027" xlink:href="#m29b15f8069" y="249.458824"/>
      </g>
     </g>
     <g id="text_7">
      <!-- 150 -->
      <g transform="translate(985.916277 264.057261)scale(0.1 -0.1)">
       <use xlink:href="#DejaVuSans-31"/>
       <use x="63.623047" xlink:href="#DejaVuSans-35"/>
       <use x="127.246094" xlink:href="#DejaVuSans-30"/>
      </g>
     </g>
    </g>
    <g id="xtick_8">
     <g id="line2d_8">
      <g>
       <use style="stroke:#000000;stroke-width:0.8;" x="1122.915487" xlink:href="#m29b15f8069" y="249.458824"/>
      </g>
     </g>
     <g id="text_8">
      <!-- 175 -->
      <g transform="translate(1113.371737 264.057261)scale(0.1 -0.1)">
       <use xlink:href="#DejaVuSans-31"/>
       <use x="63.623047" xlink:href="#DejaVuSans-37"/>
       <use x="127.246094" xlink:href="#DejaVuSans-35"/>
      </g>
     </g>
    </g>
    <g id="xtick_9">
     <g id="line2d_9">
      <g>
       <use style="stroke:#000000;stroke-width:0.8;" x="1250.370946" xlink:href="#m29b15f8069" y="249.458824"/>
      </g>
     </g>
     <g id="text_9">
      <!-- 200 -->
      <g transform="translate(1240.827196 264.057261)scale(0.1 -0.1)">
       <use xlink:href="#DejaVuSans-32"/>
       <use x="63.623047" xlink:href="#DejaVuSans-30"/>
       <use x="127.246094" xlink:href="#DejaVuSans-30"/>
      </g>
     </g>
    </g>
   </g>
   <g id="matplotlib.axis_2">
    <g id="ytick_1">
     <g id="line2d_10">
      <defs>
       <path d="M 0 0 
L -3.5 0 
" id="m0b6f64c94b" style="stroke:#000000;stroke-width:0.8;"/>
      </defs>
      <g>
       <use style="stroke:#000000;stroke-width:0.8;" x="180" xlink:href="#m0b6f64c94b" y="238.517647"/>
      </g>
     </g>
     <g id="text_10">
      <!-- −175 -->
      <defs>
       <path d="M 10.59375 35.5 
L 73.1875 35.5 
L 73.1875 27.203125 
L 10.59375 27.203125 
z
" id="DejaVuSans-2212"/>
      </defs>
      <g transform="translate(145.532813 242.316866)scale(0.1 -0.1)">
       <use xlink:href="#DejaVuSans-2212"/>
       <use x="83.789062" xlink:href="#DejaVuSans-31"/>
       <use x="147.412109" xlink:href="#DejaVuSans-37"/>
       <use x="211.035156" xlink:href="#DejaVuSans-35"/>
      </g>
     </g>
    </g>
    <g id="ytick_2">
     <g id="line2d_11">
      <g>
       <use style="stroke:#000000;stroke-width:0.8;" x="180" xlink:href="#m0b6f64c94b" y="217.756401"/>
      </g>
     </g>
     <g id="text_11">
      <!-- −150 -->
      <g transform="translate(145.532813 221.55562)scale(0.1 -0.1)">
       <use xlink:href="#DejaVuSans-2212"/>
       <use x="83.789062" xlink:href="#DejaVuSans-31"/>
       <use x="147.412109" xlink:href="#DejaVuSans-35"/>
       <use x="211.035156" xlink:href="#DejaVuSans-30"/>
      </g>
     </g>
    </g>
    <g id="ytick_3">
     <g id="line2d_12">
      <g>
       <use style="stroke:#000000;stroke-width:0.8;" x="180" xlink:href="#m0b6f64c94b" y="196.995156"/>
      </g>
     </g>
     <g id="text_12">
      <!-- −125 -->
      <g transform="translate(145.532813 200.794374)scale(0.1 -0.1)">
       <use xlink:href="#DejaVuSans-2212"/>
       <use x="83.789062" xlink:href="#DejaVuSans-31"/>
       <use x="147.412109" xlink:href="#DejaVuSans-32"/>
       <use x="211.035156" xlink:href="#DejaVuSans-35"/>
      </g>
     </g>
    </g>
    <g id="ytick_4">
     <g id="line2d_13">
      <g>
       <use style="stroke:#000000;stroke-width:0.8;" x="180" xlink:href="#m0b6f64c94b" y="176.23391"/>
      </g>
     </g>
     <g id="text_13">
      <!-- −100 -->
      <g transform="translate(145.532813 180.033129)scale(0.1 -0.1)">
       <use xlink:href="#DejaVuSans-2212"/>
       <use x="83.789062" xlink:href="#DejaVuSans-31"/>
       <use x="147.412109" xlink:href="#DejaVuSans-30"/>
       <use x="211.035156" xlink:href="#DejaVuSans-30"/>
      </g>
     </g>
    </g>
    <g id="ytick_5">
     <g id="line2d_14">
      <g>
       <use style="stroke:#000000;stroke-width:0.8;" x="180" xlink:href="#m0b6f64c94b" y="155.472664"/>
      </g>
     </g>
     <g id="text_14">
      <!-- −75 -->
      <g transform="translate(151.895312 159.271883)scale(0.1 -0.1)">
       <use xlink:href="#DejaVuSans-2212"/>
       <use x="83.789062" xlink:href="#DejaVuSans-37"/>
       <use x="147.412109" xlink:href="#DejaVuSans-35"/>
      </g>
     </g>
    </g>
    <g id="ytick_6">
     <g id="line2d_15">
      <g>
       <use style="stroke:#000000;stroke-width:0.8;" x="180" xlink:href="#m0b6f64c94b" y="134.711419"/>
      </g>
     </g>
     <g id="text_15">
      <!-- −50 -->
      <g transform="translate(151.895312 138.510637)scale(0.1 -0.1)">
       <use xlink:href="#DejaVuSans-2212"/>
       <use x="83.789062" xlink:href="#DejaVuSans-35"/>
       <use x="147.412109" xlink:href="#DejaVuSans-30"/>
      </g>
     </g>
    </g>
    <g id="ytick_7">
     <g id="line2d_16">
      <g>
       <use style="stroke:#000000;stroke-width:0.8;" x="180" xlink:href="#m0b6f64c94b" y="113.950173"/>
      </g>
     </g>
     <g id="text_16">
      <!-- −25 -->
      <g transform="translate(151.895312 117.749392)scale(0.1 -0.1)">
       <use xlink:href="#DejaVuSans-2212"/>
       <use x="83.789062" xlink:href="#DejaVuSans-32"/>
       <use x="147.412109" xlink:href="#DejaVuSans-35"/>
      </g>
     </g>
    </g>
    <g id="ytick_8">
     <g id="line2d_17">
      <g>
       <use style="stroke:#000000;stroke-width:0.8;" x="180" xlink:href="#m0b6f64c94b" y="93.188927"/>
      </g>
     </g>
     <g id="text_17">
      <!-- 0 -->
      <g transform="translate(166.6375 96.988146)scale(0.1 -0.1)">
       <use xlink:href="#DejaVuSans-30"/>
      </g>
     </g>
    </g>
    <g id="text_18">
     <!-- State:0 -->
     <defs>
      <path d="M 53.515625 70.515625 
L 53.515625 60.890625 
Q 47.90625 63.578125 42.921875 64.890625 
Q 37.9375 66.21875 33.296875 66.21875 
Q 25.25 66.21875 20.875 63.09375 
Q 16.5 59.96875 16.5 54.203125 
Q 16.5 49.359375 19.40625 46.890625 
Q 22.3125 44.4375 30.421875 42.921875 
L 36.375 41.703125 
Q 47.40625 39.59375 52.65625 34.296875 
Q 57.90625 29 57.90625 20.125 
Q 57.90625 9.515625 50.796875 4.046875 
Q 43.703125 -1.421875 29.984375 -1.421875 
Q 24.8125 -1.421875 18.96875 -0.25 
Q 13.140625 0.921875 6.890625 3.21875 
L 6.890625 13.375 
Q 12.890625 10.015625 18.65625 8.296875 
Q 24.421875 6.59375 29.984375 6.59375 
Q 38.421875 6.59375 43.015625 9.90625 
Q 47.609375 13.234375 47.609375 19.390625 
Q 47.609375 24.75 44.3125 27.78125 
Q 41.015625 30.8125 33.5 32.328125 
L 27.484375 33.5 
Q 16.453125 35.6875 11.515625 40.375 
Q 6.59375 45.0625 6.59375 53.421875 
Q 6.59375 63.09375 13.40625 68.65625 
Q 20.21875 74.21875 32.171875 74.21875 
Q 37.3125 74.21875 42.625 73.28125 
Q 47.953125 72.359375 53.515625 70.515625 
z
" id="DejaVuSans-53"/>
      <path d="M 18.3125 70.21875 
L 18.3125 54.6875 
L 36.8125 54.6875 
L 36.8125 47.703125 
L 18.3125 47.703125 
L 18.3125 18.015625 
Q 18.3125 11.328125 20.140625 9.421875 
Q 21.96875 7.515625 27.59375 7.515625 
L 36.8125 7.515625 
L 36.8125 0 
L 27.59375 0 
Q 17.1875 0 13.234375 3.875 
Q 9.28125 7.765625 9.28125 18.015625 
L 9.28125 47.703125 
L 2.6875 47.703125 
L 2.6875 54.6875 
L 9.28125 54.6875 
L 9.28125 70.21875 
z
" id="DejaVuSans-74"/>
      <path d="M 34.28125 27.484375 
Q 23.390625 27.484375 19.1875 25 
Q 14.984375 22.515625 14.984375 16.5 
Q 14.984375 11.71875 18.140625 8.90625 
Q 21.296875 6.109375 26.703125 6.109375 
Q 34.1875 6.109375 38.703125 11.40625 
Q 43.21875 16.703125 43.21875 25.484375 
L 43.21875 27.484375 
z
M 52.203125 31.203125 
L 52.203125 0 
L 43.21875 0 
L 43.21875 8.296875 
Q 40.140625 3.328125 35.546875 0.953125 
Q 30.953125 -1.421875 24.3125 -1.421875 
Q 15.921875 -1.421875 10.953125 3.296875 
Q 6 8.015625 6 15.921875 
Q 6 25.140625 12.171875 29.828125 
Q 18.359375 34.515625 30.609375 34.515625 
L 43.21875 34.515625 
L 43.21875 35.40625 
Q 43.21875 41.609375 39.140625 45 
Q 35.0625 48.390625 27.6875 48.390625 
Q 23 48.390625 18.546875 47.265625 
Q 14.109375 46.140625 10.015625 43.890625 
L 10.015625 52.203125 
Q 14.9375 54.109375 19.578125 55.046875 
Q 24.21875 56 28.609375 56 
Q 40.484375 56 46.34375 49.84375 
Q 52.203125 43.703125 52.203125 31.203125 
z
" id="DejaVuSans-61"/>
      <path d="M 56.203125 29.59375 
L 56.203125 25.203125 
L 14.890625 25.203125 
Q 15.484375 15.921875 20.484375 11.0625 
Q 25.484375 6.203125 34.421875 6.203125 
Q 39.59375 6.203125 44.453125 7.46875 
Q 49.3125 8.734375 54.109375 11.28125 
L 54.109375 2.78125 
Q 49.265625 0.734375 44.1875 -0.34375 
Q 39.109375 -1.421875 33.890625 -1.421875 
Q 20.796875 -1.421875 13.15625 6.1875 
Q 5.515625 13.8125 5.515625 26.8125 
Q 5.515625 40.234375 12.765625 48.109375 
Q 20.015625 56 32.328125 56 
Q 43.359375 56 49.78125 48.890625 
Q 56.203125 41.796875 56.203125 29.59375 
z
M 47.21875 32.234375 
Q 47.125 39.59375 43.09375 43.984375 
Q 39.0625 48.390625 32.421875 48.390625 
Q 24.90625 48.390625 20.390625 44.140625 
Q 15.875 39.890625 15.1875 32.171875 
z
" id="DejaVuSans-65"/>
      <path d="M 11.71875 12.40625 
L 22.015625 12.40625 
L 22.015625 0 
L 11.71875 0 
z
M 11.71875 51.703125 
L 22.015625 51.703125 
L 22.015625 39.3125 
L 11.71875 39.3125 
z
" id="DejaVuSans-3a"/>
     </defs>
     <g transform="translate(139.453125 186.030193)rotate(-90)scale(0.1 -0.1)">
      <use xlink:href="#DejaVuSans-53"/>
      <use x="63.476562" xlink:href="#DejaVuSans-74"/>
      <use x="102.685547" xlink:href="#DejaVuSans-61"/>
      <use x="163.964844" xlink:href="#DejaVuSans-74"/>
      <use x="203.173828" xlink:href="#DejaVuSans-65"/>
      <use x="264.697266" xlink:href="#DejaVuSans-3a"/>
      <use x="298.388672" xlink:href="#DejaVuSans-30"/>
     </g>
    </g>
   </g>
   <g id="line2d_18">
    <path clip-path="url(#p430f171cbb)" d="M 230.727273 94.55917 
L 281.709456 102.113831 
L 302.10233 105.5383 
L 317.396985 108.339667 
L 347.986295 114.101225 
L 378.575605 119.612846 
L 393.87026 122.6102 
L 409.164915 125.437169 
L 475.441754 136.868338 
L 506.031064 142.314145 
L 536.620375 148.080232 
L 562.111466 152.976855 
L 582.50434 156.53758 
L 597.798995 158.966711 
L 618.191868 162.047156 
L 643.68296 165.628211 
L 674.27227 169.689018 
L 689.566926 171.670796 
L 709.959799 174.295182 
L 740.549109 178.34505 
L 760.941983 180.887389 
L 811.924166 186.932958 
L 837.415258 189.779893 
L 857.808132 191.767712 
L 868.004568 192.644732 
L 883.299223 193.695784 
L 913.888534 195.620722 
L 934.281407 197.178802 
L 949.576062 198.522644 
L 964.870717 200.106349 
L 985.263591 202.49894 
L 995.460027 203.869031 
L 1005.656464 205.416659 
L 1020.951119 208.141806 
L 1031.147556 209.955834 
L 1041.343993 211.55004 
L 1051.540429 212.705909 
L 1077.031521 215.071069 
L 1092.326176 216.579318 
L 1112.71905 218.638111 
L 1133.111923 221.063937 
L 1143.30836 222.411517 
L 1153.504797 223.987295 
L 1168.799452 226.775484 
L 1189.192325 230.986976 
L 1194.290544 231.726383 
L 1204.48698 232.847161 
L 1245.272727 236.662891 
L 1245.272727 236.662891 
" style="fill:none;stroke:#000000;stroke-linecap:square;stroke-width:4;"/>
   </g>
   <g id="line2d_19">
    <path clip-path="url(#p430f171cbb)" d="M 230.727273 93.811765 
L 302.10233 104.275433 
L 307.200548 105.147405 
L 312.298767 105.770242 
L 317.396985 106.642215 
L 342.888077 110.379239 
L 347.986295 111.251211 
L 368.379169 114.24083 
L 373.477387 115.112803 
L 393.87026 118.102422 
L 398.968479 118.974394 
L 404.066697 119.597232 
L 409.164915 120.344637 
L 414.263134 120.967474 
L 419.361352 121.839446 
L 424.459571 122.462284 
L 429.557789 123.209689 
L 434.656007 123.832526 
L 439.754226 124.579931 
L 444.852444 125.202768 
L 449.950662 126.07474 
L 455.048881 126.697578 
L 460.147099 127.444983 
L 465.245317 128.06782 
L 470.343536 129.811765 
L 485.638191 131.680277 
L 490.736409 132.427682 
L 495.834628 133.050519 
L 511.129283 135.292734 
L 516.227501 135.915571 
L 551.91503 141.147405 
L 557.013248 141.770242 
L 572.307903 144.012457 
L 577.406122 144.635294 
L 582.50434 145.382699 
L 587.602558 146.005536 
L 597.798995 147.500346 
L 602.897213 148.123183 
L 607.995432 148.870588 
L 613.09365 149.493426 
L 633.486524 152.483045 
L 638.584742 153.105882 
L 643.68296 153.977855 
L 658.977615 155.846367 
L 669.174052 157.341176 
L 679.370489 158.586851 
L 689.566926 160.081661 
L 694.665144 161.078201 
L 709.959799 163.694118 
L 715.058017 164.441522 
L 720.156236 165.438062 
L 725.254454 166.310035 
L 730.352672 167.057439 
L 735.450891 167.929412 
L 740.549109 168.925952 
L 760.941983 171.915571 
L 766.040201 172.787543 
L 771.138419 173.534948 
L 776.236638 174.40692 
L 786.433074 175.90173 
L 791.531293 176.89827 
L 806.825948 179.140484 
L 817.022385 180.884429 
L 837.415258 183.874048 
L 842.513476 184.746021 
L 847.611695 185.368858 
L 862.90635 187.611073 
L 868.004568 188.483045 
L 883.299223 190.72526 
L 888.397442 191.597232 
L 903.692097 193.839446 
L 908.790315 194.462284 
L 913.888534 195.209689 
L 918.986752 196.081661 
L 924.08497 196.829066 
L 929.183189 197.451903 
L 944.477844 199.694118 
L 949.576062 200.316955 
L 959.772499 201.811765 
L 964.870717 202.434602 
L 975.067154 203.929412 
L 980.165372 204.552249 
L 985.263591 205.424221 
L 990.361809 206.047059 
L 995.460027 206.794464 
L 1000.558246 207.417301 
L 1015.852901 209.659516 
L 1026.049338 210.90519 
L 1036.245774 212.4 
L 1041.343993 213.770242 
L 1046.442211 214.517647 
L 1051.540429 215.140484 
L 1056.638648 215.887889 
L 1061.736866 216.510727 
L 1066.835085 217.258131 
L 1071.933303 217.880969 
L 1077.031521 218.628374 
L 1087.227958 219.874048 
L 1092.326176 220.621453 
L 1097.424395 221.244291 
L 1102.522613 221.991696 
L 1112.71905 223.23737 
L 1122.915487 224.73218 
L 1128.013705 225.355017 
L 1133.111923 226.102422 
L 1143.30836 227.348097 
L 1153.504797 228.842907 
L 1158.603015 229.465744 
L 1163.701233 230.213149 
L 1168.799452 230.835986 
L 1178.995889 232.330796 
L 1184.094107 232.953633 
L 1194.290544 234.448443 
L 1199.388762 235.07128 
L 1204.48698 235.943253 
L 1224.879854 238.932872 
L 1229.978072 239.804844 
L 1245.272727 242.047059 
L 1245.272727 242.047059 
" style="fill:none;stroke:#ff0000;stroke-linecap:square;stroke-width:1.5;"/>
   </g>
   <g id="patch_3">
    <path d="M 180 249.458824 
L 180 86.4 
" style="fill:none;stroke:#000000;stroke-linecap:square;stroke-linejoin:miter;stroke-width:0.8;"/>
   </g>
   <g id="patch_4">
    <path d="M 1296 249.458824 
L 1296 86.4 
" style="fill:none;stroke:#000000;stroke-linecap:square;stroke-linejoin:miter;stroke-width:0.8;"/>
   </g>
   <g id="patch_5">
    <path d="M 180 249.458824 
L 1296 249.458824 
" style="fill:none;stroke:#000000;stroke-linecap:square;stroke-linejoin:miter;stroke-width:0.8;"/>
   </g>
   <g id="patch_6">
    <path d="M 180 86.4 
L 1296 86.4 
" style="fill:none;stroke:#000000;stroke-linecap:square;stroke-linejoin:miter;stroke-width:0.8;"/>
   </g>
   <g id="legend_1">
    <g id="patch_7">
     <path d="M 1234.3125 123.75625 
L 1289 123.75625 
Q 1291 123.75625 1291 121.75625 
L 1291 93.4 
Q 1291 91.4 1289 91.4 
L 1234.3125 91.4 
Q 1232.3125 91.4 1232.3125 93.4 
L 1232.3125 121.75625 
Q 1232.3125 123.75625 1234.3125 123.75625 
z
" style="fill:#ffffff;opacity:0.8;stroke:#cccccc;stroke-linejoin:miter;"/>
    </g>
    <g id="line2d_20">
     <path d="M 1236.3125 99.498438 
L 1256.3125 99.498438 
" style="fill:none;stroke:#000000;stroke-linecap:square;stroke-width:4;"/>
    </g>
    <g id="line2d_21"/>
    <g id="text_19">
     <!-- Pred -->
     <defs>
      <path d="M 19.671875 64.796875 
L 19.671875 37.40625 
L 32.078125 37.40625 
Q 38.96875 37.40625 42.71875 40.96875 
Q 46.484375 44.53125 46.484375 51.125 
Q 46.484375 57.671875 42.71875 61.234375 
Q 38.96875 64.796875 32.078125 64.796875 
z
M 9.8125 72.90625 
L 32.078125 72.90625 
Q 44.34375 72.90625 50.609375 67.359375 
Q 56.890625 61.8125 56.890625 51.125 
Q 56.890625 40.328125 50.609375 34.8125 
Q 44.34375 29.296875 32.078125 29.296875 
L 19.671875 29.296875 
L 19.671875 0 
L 9.8125 0 
z
" id="DejaVuSans-50"/>
      <path d="M 41.109375 46.296875 
Q 39.59375 47.171875 37.8125 47.578125 
Q 36.03125 48 33.890625 48 
Q 26.265625 48 22.1875 43.046875 
Q 18.109375 38.09375 18.109375 28.8125 
L 18.109375 0 
L 9.078125 0 
L 9.078125 54.6875 
L 18.109375 54.6875 
L 18.109375 46.1875 
Q 20.953125 51.171875 25.484375 53.578125 
Q 30.03125 56 36.53125 56 
Q 37.453125 56 38.578125 55.875 
Q 39.703125 55.765625 41.0625 55.515625 
z
" id="DejaVuSans-72"/>
      <path d="M 45.40625 46.390625 
L 45.40625 75.984375 
L 54.390625 75.984375 
L 54.390625 0 
L 45.40625 0 
L 45.40625 8.203125 
Q 42.578125 3.328125 38.25 0.953125 
Q 33.9375 -1.421875 27.875 -1.421875 
Q 17.96875 -1.421875 11.734375 6.484375 
Q 5.515625 14.40625 5.515625 27.296875 
Q 5.515625 40.1875 11.734375 48.09375 
Q 17.96875 56 27.875 56 
Q 33.9375 56 38.25 53.625 
Q 42.578125 51.265625 45.40625 46.390625 
z
M 14.796875 27.296875 
Q 14.796875 17.390625 18.875 11.75 
Q 22.953125 6.109375 30.078125 6.109375 
Q 37.203125 6.109375 41.296875 11.75 
Q 45.40625 17.390625 45.40625 27.296875 
Q 45.40625 37.203125 41.296875 42.84375 
Q 37.203125 48.484375 30.078125 48.484375 
Q 22.953125 48.484375 18.875 42.84375 
Q 14.796875 37.203125 14.796875 27.296875 
z
" id="DejaVuSans-64"/>
     </defs>
     <g transform="translate(1264.3125 102.998438)scale(0.1 -0.1)">
      <use xlink:href="#DejaVuSans-50"/>
      <use x="60.287109" xlink:href="#DejaVuSans-72"/>
      <use x="101.369141" xlink:href="#DejaVuSans-65"/>
      <use x="162.892578" xlink:href="#DejaVuSans-64"/>
     </g>
    </g>
    <g id="line2d_22">
     <path d="M 1236.3125 114.176563 
L 1256.3125 114.176563 
" style="fill:none;stroke:#ff0000;stroke-linecap:square;stroke-width:1.5;"/>
    </g>
    <g id="line2d_23"/>
    <g id="text_20">
     <!-- True -->
     <defs>
      <path d="M -0.296875 72.90625 
L 61.375 72.90625 
L 61.375 64.59375 
L 35.5 64.59375 
L 35.5 0 
L 25.59375 0 
L 25.59375 64.59375 
L -0.296875 64.59375 
z
" id="DejaVuSans-54"/>
      <path d="M 8.5 21.578125 
L 8.5 54.6875 
L 17.484375 54.6875 
L 17.484375 21.921875 
Q 17.484375 14.15625 20.5 10.265625 
Q 23.53125 6.390625 29.59375 6.390625 
Q 36.859375 6.390625 41.078125 11.03125 
Q 45.3125 15.671875 45.3125 23.6875 
L 45.3125 54.6875 
L 54.296875 54.6875 
L 54.296875 0 
L 45.3125 0 
L 45.3125 8.40625 
Q 42.046875 3.421875 37.71875 1 
Q 33.40625 -1.421875 27.6875 -1.421875 
Q 18.265625 -1.421875 13.375 4.4375 
Q 8.5 10.296875 8.5 21.578125 
z
M 31.109375 56 
z
" id="DejaVuSans-75"/>
     </defs>
     <g transform="translate(1264.3125 117.676563)scale(0.1 -0.1)">
      <use xlink:href="#DejaVuSans-54"/>
      <use x="60.865234" xlink:href="#DejaVuSans-72"/>
      <use x="101.978516" xlink:href="#DejaVuSans-75"/>
      <use x="165.357422" xlink:href="#DejaVuSans-65"/>
     </g>
    </g>
   </g>
  </g>
  <g id="axes_2">
   <g id="patch_8">
    <path d="M 180 445.129412 
L 1296 445.129412 
L 1296 282.070588 
L 180 282.070588 
z
" style="fill:#ffffff;"/>
   </g>
   <g id="matplotlib.axis_3">
    <g id="xtick_10">
     <g id="line2d_24">
      <g>
       <use style="stroke:#000000;stroke-width:0.8;" x="230.727273" xlink:href="#m29b15f8069" y="445.129412"/>
      </g>
     </g>
     <g id="text_21">
      <!-- 0 -->
      <g transform="translate(227.546023 459.727849)scale(0.1 -0.1)">
       <use xlink:href="#DejaVuSans-30"/>
      </g>
     </g>
    </g>
    <g id="xtick_11">
     <g id="line2d_25">
      <g>
       <use style="stroke:#000000;stroke-width:0.8;" x="358.182732" xlink:href="#m29b15f8069" y="445.129412"/>
      </g>
     </g>
     <g id="text_22">
      <!-- 25 -->
      <g transform="translate(351.820232 459.727849)scale(0.1 -0.1)">
       <use xlink:href="#DejaVuSans-32"/>
       <use x="63.623047" xlink:href="#DejaVuSans-35"/>
      </g>
     </g>
    </g>
    <g id="xtick_12">
     <g id="line2d_26">
      <g>
       <use style="stroke:#000000;stroke-width:0.8;" x="485.638191" xlink:href="#m29b15f8069" y="445.129412"/>
      </g>
     </g>
     <g id="text_23">
      <!-- 50 -->
      <g transform="translate(479.275691 459.727849)scale(0.1 -0.1)">
       <use xlink:href="#DejaVuSans-35"/>
       <use x="63.623047" xlink:href="#DejaVuSans-30"/>
      </g>
     </g>
    </g>
    <g id="xtick_13">
     <g id="line2d_27">
      <g>
       <use style="stroke:#000000;stroke-width:0.8;" x="613.09365" xlink:href="#m29b15f8069" y="445.129412"/>
      </g>
     </g>
     <g id="text_24">
      <!-- 75 -->
      <g transform="translate(606.73115 459.727849)scale(0.1 -0.1)">
       <use xlink:href="#DejaVuSans-37"/>
       <use x="63.623047" xlink:href="#DejaVuSans-35"/>
      </g>
     </g>
    </g>
    <g id="xtick_14">
     <g id="line2d_28">
      <g>
       <use style="stroke:#000000;stroke-width:0.8;" x="740.549109" xlink:href="#m29b15f8069" y="445.129412"/>
      </g>
     </g>
     <g id="text_25">
      <!-- 100 -->
      <g transform="translate(731.005359 459.727849)scale(0.1 -0.1)">
       <use xlink:href="#DejaVuSans-31"/>
       <use x="63.623047" xlink:href="#DejaVuSans-30"/>
       <use x="127.246094" xlink:href="#DejaVuSans-30"/>
      </g>
     </g>
    </g>
    <g id="xtick_15">
     <g id="line2d_29">
      <g>
       <use style="stroke:#000000;stroke-width:0.8;" x="868.004568" xlink:href="#m29b15f8069" y="445.129412"/>
      </g>
     </g>
     <g id="text_26">
      <!-- 125 -->
      <g transform="translate(858.460818 459.727849)scale(0.1 -0.1)">
       <use xlink:href="#DejaVuSans-31"/>
       <use x="63.623047" xlink:href="#DejaVuSans-32"/>
       <use x="127.246094" xlink:href="#DejaVuSans-35"/>
      </g>
     </g>
    </g>
    <g id="xtick_16">
     <g id="line2d_30">
      <g>
       <use style="stroke:#000000;stroke-width:0.8;" x="995.460027" xlink:href="#m29b15f8069" y="445.129412"/>
      </g>
     </g>
     <g id="text_27">
      <!-- 150 -->
      <g transform="translate(985.916277 459.727849)scale(0.1 -0.1)">
       <use xlink:href="#DejaVuSans-31"/>
       <use x="63.623047" xlink:href="#DejaVuSans-35"/>
       <use x="127.246094" xlink:href="#DejaVuSans-30"/>
      </g>
     </g>
    </g>
    <g id="xtick_17">
     <g id="line2d_31">
      <g>
       <use style="stroke:#000000;stroke-width:0.8;" x="1122.915487" xlink:href="#m29b15f8069" y="445.129412"/>
      </g>
     </g>
     <g id="text_28">
      <!-- 175 -->
      <g transform="translate(1113.371737 459.727849)scale(0.1 -0.1)">
       <use xlink:href="#DejaVuSans-31"/>
       <use x="63.623047" xlink:href="#DejaVuSans-37"/>
       <use x="127.246094" xlink:href="#DejaVuSans-35"/>
      </g>
     </g>
    </g>
    <g id="xtick_18">
     <g id="line2d_32">
      <g>
       <use style="stroke:#000000;stroke-width:0.8;" x="1250.370946" xlink:href="#m29b15f8069" y="445.129412"/>
      </g>
     </g>
     <g id="text_29">
      <!-- 200 -->
      <g transform="translate(1240.827196 459.727849)scale(0.1 -0.1)">
       <use xlink:href="#DejaVuSans-32"/>
       <use x="63.623047" xlink:href="#DejaVuSans-30"/>
       <use x="127.246094" xlink:href="#DejaVuSans-30"/>
      </g>
     </g>
    </g>
   </g>
   <g id="matplotlib.axis_4">
    <g id="ytick_9">
     <g id="line2d_33">
      <g>
       <use style="stroke:#000000;stroke-width:0.8;" x="180" xlink:href="#m0b6f64c94b" y="425.634297"/>
      </g>
     </g>
     <g id="text_30">
      <!-- 0.0 -->
      <defs>
       <path d="M 10.6875 12.40625 
L 21 12.40625 
L 21 0 
L 10.6875 0 
z
" id="DejaVuSans-2e"/>
      </defs>
      <g transform="translate(157.096875 429.433516)scale(0.1 -0.1)">
       <use xlink:href="#DejaVuSans-30"/>
       <use x="63.623047" xlink:href="#DejaVuSans-2e"/>
       <use x="95.410156" xlink:href="#DejaVuSans-30"/>
      </g>
     </g>
    </g>
    <g id="ytick_10">
     <g id="line2d_34">
      <g>
       <use style="stroke:#000000;stroke-width:0.8;" x="180" xlink:href="#m0b6f64c94b" y="394.539722"/>
      </g>
     </g>
     <g id="text_31">
      <!-- 0.5 -->
      <g transform="translate(157.096875 398.338941)scale(0.1 -0.1)">
       <use xlink:href="#DejaVuSans-30"/>
       <use x="63.623047" xlink:href="#DejaVuSans-2e"/>
       <use x="95.410156" xlink:href="#DejaVuSans-35"/>
      </g>
     </g>
    </g>
    <g id="ytick_11">
     <g id="line2d_35">
      <g>
       <use style="stroke:#000000;stroke-width:0.8;" x="180" xlink:href="#m0b6f64c94b" y="363.445148"/>
      </g>
     </g>
     <g id="text_32">
      <!-- 1.0 -->
      <g transform="translate(157.096875 367.244366)scale(0.1 -0.1)">
       <use xlink:href="#DejaVuSans-31"/>
       <use x="63.623047" xlink:href="#DejaVuSans-2e"/>
       <use x="95.410156" xlink:href="#DejaVuSans-30"/>
      </g>
     </g>
    </g>
    <g id="ytick_12">
     <g id="line2d_36">
      <g>
       <use style="stroke:#000000;stroke-width:0.8;" x="180" xlink:href="#m0b6f64c94b" y="332.350573"/>
      </g>
     </g>
     <g id="text_33">
      <!-- 1.5 -->
      <g transform="translate(157.096875 336.149792)scale(0.1 -0.1)">
       <use xlink:href="#DejaVuSans-31"/>
       <use x="63.623047" xlink:href="#DejaVuSans-2e"/>
       <use x="95.410156" xlink:href="#DejaVuSans-35"/>
      </g>
     </g>
    </g>
    <g id="ytick_13">
     <g id="line2d_37">
      <g>
       <use style="stroke:#000000;stroke-width:0.8;" x="180" xlink:href="#m0b6f64c94b" y="301.255999"/>
      </g>
     </g>
     <g id="text_34">
      <!-- 2.0 -->
      <g transform="translate(157.096875 305.055217)scale(0.1 -0.1)">
       <use xlink:href="#DejaVuSans-32"/>
       <use x="63.623047" xlink:href="#DejaVuSans-2e"/>
       <use x="95.410156" xlink:href="#DejaVuSans-30"/>
      </g>
     </g>
    </g>
    <g id="text_35">
     <!-- State:1 -->
     <g transform="translate(151.017188 381.700781)rotate(-90)scale(0.1 -0.1)">
      <use xlink:href="#DejaVuSans-53"/>
      <use x="63.476562" xlink:href="#DejaVuSans-74"/>
      <use x="102.685547" xlink:href="#DejaVuSans-61"/>
      <use x="163.964844" xlink:href="#DejaVuSans-74"/>
      <use x="203.173828" xlink:href="#DejaVuSans-65"/>
      <use x="264.697266" xlink:href="#DejaVuSans-3a"/>
      <use x="298.388672" xlink:href="#DejaVuSans-31"/>
     </g>
    </g>
   </g>
   <g id="line2d_38">
    <path clip-path="url(#p15858dcff6)" d="M 230.727273 428.432808 
L 271.51302 428.432808 
L 286.807675 431.758943 
L 291.905893 432.292072 
L 297.004111 432.539937 
L 302.10233 433.004412 
L 307.200548 432.8601 
L 312.298767 432.405283 
L 317.396985 431.662702 
L 322.495203 430.791556 
L 327.593422 430.06305 
L 332.69164 429.039121 
L 337.789858 428.185458 
L 347.986295 425.16766 
L 358.182732 422.53712 
L 363.28095 422.171994 
L 368.379169 422.425138 
L 373.477387 423.687944 
L 378.575605 424.770415 
L 383.673824 426.356897 
L 388.772042 427.722358 
L 393.87026 429.336571 
L 398.968479 429.195072 
L 404.066697 428.867818 
L 414.263134 424.533902 
L 419.361352 421.993423 
L 424.459571 420.394751 
L 429.557789 420.052402 
L 434.656007 419.855093 
L 439.754226 420.490994 
L 449.950662 421.192345 
L 455.048881 421.250564 
L 465.245317 422.111354 
L 470.343536 422.605691 
L 480.539973 424.637681 
L 485.638191 425.463619 
L 490.736409 426.158887 
L 495.834628 426.568409 
L 500.932846 427.125875 
L 506.031064 427.80049 
L 511.129283 428.867601 
L 521.32572 431.174068 
L 526.423938 432.243649 
L 536.620375 433.724494 
L 541.718593 434.192588 
L 546.816811 434.888852 
L 562.111466 436.690802 
L 567.209685 437.381409 
L 577.406122 437.344547 
L 587.602558 437.578281 
L 592.700777 437.717647 
L 597.798995 437.549036 
L 602.897213 437.182366 
L 607.995432 436.519158 
L 618.191868 435.45306 
L 623.290087 434.760106 
L 633.486524 433.93471 
L 638.584742 433.680292 
L 643.68296 433.741585 
L 648.781179 433.487006 
L 653.879397 433.378403 
L 658.977615 433.630232 
L 664.075834 433.764225 
L 669.174052 433.559728 
L 674.27227 433.851206 
L 679.370489 433.770042 
L 684.468707 433.186936 
L 689.566926 432.757062 
L 694.665144 432.202779 
L 699.763362 431.891645 
L 704.861581 431.455875 
L 709.959799 431.162148 
L 715.058017 431.351921 
L 725.254454 430.106368 
L 730.352672 429.829283 
L 735.450891 429.191211 
L 740.549109 428.903811 
L 750.745546 428.044924 
L 755.843764 427.943568 
L 760.941983 427.228524 
L 766.040201 426.637437 
L 771.138419 426.206324 
L 776.236638 426.07156 
L 781.334856 425.768785 
L 786.433074 425.353451 
L 791.531293 424.599435 
L 806.825948 423.102991 
L 811.924166 423.140201 
L 817.022385 422.708071 
L 827.218821 422.179014 
L 837.415258 421.099382 
L 842.513476 420.206084 
L 862.90635 413.668918 
L 888.397442 404.380977 
L 893.49566 401.882519 
L 898.593878 398.969596 
L 908.790315 392.698468 
L 913.888534 389.588882 
L 918.986752 386.040592 
L 924.08497 382.037134 
L 929.183189 377.440989 
L 934.281407 372.477968 
L 939.379625 366.704395 
L 944.477844 360.568466 
L 949.576062 354.713104 
L 954.67428 349.144332 
L 959.772499 343.754085 
L 969.968936 334.372352 
L 975.067154 330.542621 
L 980.165372 327.172435 
L 985.263591 324.465518 
L 990.361809 322.583892 
L 995.460027 321.880624 
L 1000.558246 321.700322 
L 1005.656464 322.181157 
L 1010.754683 324.400973 
L 1015.852901 328.481864 
L 1020.951119 334.13779 
L 1026.049338 340.951174 
L 1031.147556 348.106841 
L 1036.245774 355.687226 
L 1041.343993 363.715999 
L 1046.442211 369.754918 
L 1051.540429 373.678305 
L 1056.638648 374.379606 
L 1061.736866 373.10149 
L 1066.835085 371.631058 
L 1071.933303 369.193112 
L 1077.031521 365.566481 
L 1082.12974 361.050496 
L 1087.227958 356.077066 
L 1092.326176 350.249602 
L 1097.424395 343.967469 
L 1102.522613 337.482566 
L 1107.620831 330.39248 
L 1112.71905 322.755284 
L 1117.817268 315.595788 
L 1122.915487 308.829305 
L 1128.013705 302.378649 
L 1133.111923 296.747478 
L 1138.210142 292.620979 
L 1143.30836 290.307438 
L 1148.406578 289.482353 
L 1153.504797 290.434514 
L 1158.603015 294.705068 
L 1163.701233 301.405061 
L 1168.799452 310.597788 
L 1173.89767 321.506984 
L 1178.995889 333.83021 
L 1184.094107 347.692048 
L 1189.192325 361.938308 
L 1194.290544 372.915475 
L 1199.388762 379.147436 
L 1204.48698 381.12026 
L 1209.585199 378.293103 
L 1214.683417 373.441438 
L 1219.781635 369.556478 
L 1224.879854 364.654322 
L 1229.978072 359.58427 
L 1235.076291 353.814436 
L 1245.272727 340.648568 
L 1245.272727 340.648568 
" style="fill:none;stroke:#000000;stroke-linecap:square;stroke-width:4;"/>
   </g>
   <g id="line2d_39">
    <path clip-path="url(#p15858dcff6)" d="M 230.727273 428.432808 
L 297.004111 428.432808 
L 302.10233 428.899227 
L 307.200548 427.96639 
L 312.298767 428.899227 
L 317.396985 428.432808 
L 337.789858 428.432808 
L 342.888077 428.899227 
L 347.986295 428.432808 
L 363.28095 428.432808 
L 368.379169 428.899227 
L 373.477387 428.432808 
L 388.772042 428.432808 
L 393.87026 428.899227 
L 398.968479 427.96639 
L 404.066697 428.432808 
L 409.164915 427.96639 
L 414.263134 428.899227 
L 419.361352 427.96639 
L 424.459571 428.432808 
L 429.557789 427.96639 
L 434.656007 428.432808 
L 439.754226 427.96639 
L 444.852444 428.899227 
L 449.950662 427.96639 
L 455.048881 428.432808 
L 460.147099 427.96639 
L 465.245317 432.164157 
L 470.343536 427.96639 
L 480.539973 427.96639 
L 485.638191 428.432808 
L 490.736409 427.96639 
L 495.834628 428.432808 
L 506.031064 428.432808 
L 511.129283 427.96639 
L 516.227501 428.432808 
L 546.816811 428.432808 
L 551.91503 427.96639 
L 557.013248 428.432808 
L 567.209685 428.432808 
L 572.307903 427.96639 
L 577.406122 428.432808 
L 582.50434 427.96639 
L 587.602558 428.432808 
L 592.700777 428.432808 
L 597.798995 427.96639 
L 602.897213 428.432808 
L 607.995432 427.96639 
L 613.09365 428.432808 
L 628.388305 428.432808 
L 633.486524 427.96639 
L 638.584742 428.899227 
L 643.68296 427.96639 
L 653.879397 427.96639 
L 658.977615 428.432808 
L 664.075834 428.432808 
L 669.174052 427.96639 
L 674.27227 427.96639 
L 679.370489 428.432808 
L 684.468707 428.432808 
L 689.566926 429.365646 
L 694.665144 428.899227 
L 704.861581 428.899227 
L 709.959799 428.432808 
L 715.058017 429.365646 
L 725.254454 428.432808 
L 735.450891 429.365646 
L 740.549109 428.432808 
L 755.843764 428.432808 
L 760.941983 428.899227 
L 766.040201 428.432808 
L 771.138419 428.899227 
L 776.236638 428.432808 
L 781.334856 428.432808 
L 786.433074 429.365646 
L 791.531293 428.432808 
L 801.72773 428.432808 
L 806.825948 428.899227 
L 811.924166 428.899227 
L 817.022385 428.432808 
L 832.31704 428.432808 
L 837.415258 428.899227 
L 842.513476 427.96639 
L 847.611695 428.432808 
L 857.808132 428.432808 
L 862.90635 428.899227 
L 868.004568 428.432808 
L 878.201005 428.432808 
L 883.299223 428.899227 
L 888.397442 428.432808 
L 898.593878 428.432808 
L 903.692097 427.96639 
L 913.888534 428.899227 
L 924.08497 427.96639 
L 929.183189 428.432808 
L 939.379625 428.432808 
L 944.477844 427.96639 
L 949.576062 428.432808 
L 954.67428 428.432808 
L 959.772499 427.96639 
L 964.870717 428.432808 
L 969.968936 428.432808 
L 975.067154 427.96639 
L 980.165372 428.899227 
L 985.263591 427.96639 
L 990.361809 428.432808 
L 995.460027 427.96639 
L 1000.558246 428.432808 
L 1010.754683 428.432808 
L 1015.852901 427.96639 
L 1020.951119 427.96639 
L 1026.049338 428.432808 
L 1031.147556 428.432808 
L 1036.245774 430.764902 
L 1041.343993 428.432808 
L 1046.442211 427.96639 
L 1051.540429 428.432808 
L 1056.638648 427.96639 
L 1061.736866 428.432808 
L 1066.835085 427.96639 
L 1071.933303 428.432808 
L 1077.031521 427.96639 
L 1082.12974 427.96639 
L 1087.227958 428.432808 
L 1092.326176 427.96639 
L 1097.424395 428.432808 
L 1102.522613 427.96639 
L 1107.620831 427.96639 
L 1112.71905 428.432808 
L 1117.817268 428.432808 
L 1122.915487 427.96639 
L 1128.013705 428.432808 
L 1133.111923 427.96639 
L 1138.210142 427.96639 
L 1143.30836 428.432808 
L 1148.406578 428.432808 
L 1153.504797 427.96639 
L 1158.603015 428.432808 
L 1163.701233 427.96639 
L 1168.799452 428.432808 
L 1173.89767 428.432808 
L 1178.995889 427.96639 
L 1184.094107 428.432808 
L 1189.192325 428.432808 
L 1194.290544 427.96639 
L 1199.388762 428.899227 
L 1204.48698 428.432808 
L 1219.781635 428.432808 
L 1224.879854 428.899227 
L 1229.978072 428.432808 
L 1245.272727 428.432808 
L 1245.272727 428.432808 
" style="fill:none;stroke:#ff0000;stroke-linecap:square;stroke-width:1.5;"/>
   </g>
   <g id="patch_9">
    <path d="M 180 445.129412 
L 180 282.070588 
" style="fill:none;stroke:#000000;stroke-linecap:square;stroke-linejoin:miter;stroke-width:0.8;"/>
   </g>
   <g id="patch_10">
    <path d="M 1296 445.129412 
L 1296 282.070588 
" style="fill:none;stroke:#000000;stroke-linecap:square;stroke-linejoin:miter;stroke-width:0.8;"/>
   </g>
   <g id="patch_11">
    <path d="M 180 445.129412 
L 1296 445.129412 
" style="fill:none;stroke:#000000;stroke-linecap:square;stroke-linejoin:miter;stroke-width:0.8;"/>
   </g>
   <g id="patch_12">
    <path d="M 180 282.070588 
L 1296 282.070588 
" style="fill:none;stroke:#000000;stroke-linecap:square;stroke-linejoin:miter;stroke-width:0.8;"/>
   </g>
   <g id="legend_2">
    <g id="patch_13">
     <path d="M 1234.3125 319.426838 
L 1289 319.426838 
Q 1291 319.426838 1291 317.426838 
L 1291 289.070588 
Q 1291 287.070588 1289 287.070588 
L 1234.3125 287.070588 
Q 1232.3125 287.070588 1232.3125 289.070588 
L 1232.3125 317.426838 
Q 1232.3125 319.426838 1234.3125 319.426838 
z
" style="fill:#ffffff;opacity:0.8;stroke:#cccccc;stroke-linejoin:miter;"/>
    </g>
    <g id="line2d_40">
     <path d="M 1236.3125 295.169026 
L 1256.3125 295.169026 
" style="fill:none;stroke:#000000;stroke-linecap:square;stroke-width:4;"/>
    </g>
    <g id="line2d_41"/>
    <g id="text_36">
     <!-- Pred -->
     <g transform="translate(1264.3125 298.669026)scale(0.1 -0.1)">
      <use xlink:href="#DejaVuSans-50"/>
      <use x="60.287109" xlink:href="#DejaVuSans-72"/>
      <use x="101.369141" xlink:href="#DejaVuSans-65"/>
      <use x="162.892578" xlink:href="#DejaVuSans-64"/>
     </g>
    </g>
    <g id="line2d_42">
     <path d="M 1236.3125 309.847151 
L 1256.3125 309.847151 
" style="fill:none;stroke:#ff0000;stroke-linecap:square;stroke-width:1.5;"/>
    </g>
    <g id="line2d_43"/>
    <g id="text_37">
     <!-- True -->
     <g transform="translate(1264.3125 313.347151)scale(0.1 -0.1)">
      <use xlink:href="#DejaVuSans-54"/>
      <use x="60.865234" xlink:href="#DejaVuSans-72"/>
      <use x="101.978516" xlink:href="#DejaVuSans-75"/>
      <use x="165.357422" xlink:href="#DejaVuSans-65"/>
     </g>
    </g>
   </g>
  </g>
  <g id="axes_3">
   <g id="patch_14">
    <path d="M 180 640.8 
L 1296 640.8 
L 1296 477.741176 
L 180 477.741176 
z
" style="fill:#ffffff;"/>
   </g>
   <g id="matplotlib.axis_5">
    <g id="xtick_19">
     <g id="line2d_44">
      <g>
       <use style="stroke:#000000;stroke-width:0.8;" x="230.727273" xlink:href="#m29b15f8069" y="640.8"/>
      </g>
     </g>
     <g id="text_38">
      <!-- 0 -->
      <g transform="translate(227.546023 655.398438)scale(0.1 -0.1)">
       <use xlink:href="#DejaVuSans-30"/>
      </g>
     </g>
    </g>
    <g id="xtick_20">
     <g id="line2d_45">
      <g>
       <use style="stroke:#000000;stroke-width:0.8;" x="358.182732" xlink:href="#m29b15f8069" y="640.8"/>
      </g>
     </g>
     <g id="text_39">
      <!-- 25 -->
      <g transform="translate(351.820232 655.398438)scale(0.1 -0.1)">
       <use xlink:href="#DejaVuSans-32"/>
       <use x="63.623047" xlink:href="#DejaVuSans-35"/>
      </g>
     </g>
    </g>
    <g id="xtick_21">
     <g id="line2d_46">
      <g>
       <use style="stroke:#000000;stroke-width:0.8;" x="485.638191" xlink:href="#m29b15f8069" y="640.8"/>
      </g>
     </g>
     <g id="text_40">
      <!-- 50 -->
      <g transform="translate(479.275691 655.398438)scale(0.1 -0.1)">
       <use xlink:href="#DejaVuSans-35"/>
       <use x="63.623047" xlink:href="#DejaVuSans-30"/>
      </g>
     </g>
    </g>
    <g id="xtick_22">
     <g id="line2d_47">
      <g>
       <use style="stroke:#000000;stroke-width:0.8;" x="613.09365" xlink:href="#m29b15f8069" y="640.8"/>
      </g>
     </g>
     <g id="text_41">
      <!-- 75 -->
      <g transform="translate(606.73115 655.398438)scale(0.1 -0.1)">
       <use xlink:href="#DejaVuSans-37"/>
       <use x="63.623047" xlink:href="#DejaVuSans-35"/>
      </g>
     </g>
    </g>
    <g id="xtick_23">
     <g id="line2d_48">
      <g>
       <use style="stroke:#000000;stroke-width:0.8;" x="740.549109" xlink:href="#m29b15f8069" y="640.8"/>
      </g>
     </g>
     <g id="text_42">
      <!-- 100 -->
      <g transform="translate(731.005359 655.398438)scale(0.1 -0.1)">
       <use xlink:href="#DejaVuSans-31"/>
       <use x="63.623047" xlink:href="#DejaVuSans-30"/>
       <use x="127.246094" xlink:href="#DejaVuSans-30"/>
      </g>
     </g>
    </g>
    <g id="xtick_24">
     <g id="line2d_49">
      <g>
       <use style="stroke:#000000;stroke-width:0.8;" x="868.004568" xlink:href="#m29b15f8069" y="640.8"/>
      </g>
     </g>
     <g id="text_43">
      <!-- 125 -->
      <g transform="translate(858.460818 655.398438)scale(0.1 -0.1)">
       <use xlink:href="#DejaVuSans-31"/>
       <use x="63.623047" xlink:href="#DejaVuSans-32"/>
       <use x="127.246094" xlink:href="#DejaVuSans-35"/>
      </g>
     </g>
    </g>
    <g id="xtick_25">
     <g id="line2d_50">
      <g>
       <use style="stroke:#000000;stroke-width:0.8;" x="995.460027" xlink:href="#m29b15f8069" y="640.8"/>
      </g>
     </g>
     <g id="text_44">
      <!-- 150 -->
      <g transform="translate(985.916277 655.398438)scale(0.1 -0.1)">
       <use xlink:href="#DejaVuSans-31"/>
       <use x="63.623047" xlink:href="#DejaVuSans-35"/>
       <use x="127.246094" xlink:href="#DejaVuSans-30"/>
      </g>
     </g>
    </g>
    <g id="xtick_26">
     <g id="line2d_51">
      <g>
       <use style="stroke:#000000;stroke-width:0.8;" x="1122.915487" xlink:href="#m29b15f8069" y="640.8"/>
      </g>
     </g>
     <g id="text_45">
      <!-- 175 -->
      <g transform="translate(1113.371737 655.398438)scale(0.1 -0.1)">
       <use xlink:href="#DejaVuSans-31"/>
       <use x="63.623047" xlink:href="#DejaVuSans-37"/>
       <use x="127.246094" xlink:href="#DejaVuSans-35"/>
      </g>
     </g>
    </g>
    <g id="xtick_27">
     <g id="line2d_52">
      <g>
       <use style="stroke:#000000;stroke-width:0.8;" x="1250.370946" xlink:href="#m29b15f8069" y="640.8"/>
      </g>
     </g>
     <g id="text_46">
      <!-- 200 -->
      <g transform="translate(1240.827196 655.398438)scale(0.1 -0.1)">
       <use xlink:href="#DejaVuSans-32"/>
       <use x="63.623047" xlink:href="#DejaVuSans-30"/>
       <use x="127.246094" xlink:href="#DejaVuSans-30"/>
      </g>
     </g>
    </g>
    <g id="text_47">
     <!-- Time -->
     <defs>
      <path d="M 9.421875 54.6875 
L 18.40625 54.6875 
L 18.40625 0 
L 9.421875 0 
z
M 9.421875 75.984375 
L 18.40625 75.984375 
L 18.40625 64.59375 
L 9.421875 64.59375 
z
" id="DejaVuSans-69"/>
      <path d="M 52 44.1875 
Q 55.375 50.25 60.0625 53.125 
Q 64.75 56 71.09375 56 
Q 79.640625 56 84.28125 50.015625 
Q 88.921875 44.046875 88.921875 33.015625 
L 88.921875 0 
L 79.890625 0 
L 79.890625 32.71875 
Q 79.890625 40.578125 77.09375 44.375 
Q 74.3125 48.1875 68.609375 48.1875 
Q 61.625 48.1875 57.5625 43.546875 
Q 53.515625 38.921875 53.515625 30.90625 
L 53.515625 0 
L 44.484375 0 
L 44.484375 32.71875 
Q 44.484375 40.625 41.703125 44.40625 
Q 38.921875 48.1875 33.109375 48.1875 
Q 26.21875 48.1875 22.15625 43.53125 
Q 18.109375 38.875 18.109375 30.90625 
L 18.109375 0 
L 9.078125 0 
L 9.078125 54.6875 
L 18.109375 54.6875 
L 18.109375 46.1875 
Q 21.1875 51.21875 25.484375 53.609375 
Q 29.78125 56 35.6875 56 
Q 41.65625 56 45.828125 52.96875 
Q 50 49.953125 52 44.1875 
z
" id="DejaVuSans-6d"/>
     </defs>
     <g transform="translate(725.6125 669.076563)scale(0.1 -0.1)">
      <use xlink:href="#DejaVuSans-54"/>
      <use x="61.037109" xlink:href="#DejaVuSans-69"/>
      <use x="88.820312" xlink:href="#DejaVuSans-6d"/>
      <use x="186.232422" xlink:href="#DejaVuSans-65"/>
     </g>
    </g>
   </g>
   <g id="matplotlib.axis_6">
    <g id="ytick_14">
     <g id="line2d_53">
      <g>
       <use style="stroke:#000000;stroke-width:0.8;" x="180" xlink:href="#m0b6f64c94b" y="634.313444"/>
      </g>
     </g>
     <g id="text_48">
      <!-- 2.3 -->
      <defs>
       <path d="M 40.578125 39.3125 
Q 47.65625 37.796875 51.625 33 
Q 55.609375 28.21875 55.609375 21.1875 
Q 55.609375 10.40625 48.1875 4.484375 
Q 40.765625 -1.421875 27.09375 -1.421875 
Q 22.515625 -1.421875 17.65625 -0.515625 
Q 12.796875 0.390625 7.625 2.203125 
L 7.625 11.71875 
Q 11.71875 9.328125 16.59375 8.109375 
Q 21.484375 6.890625 26.8125 6.890625 
Q 36.078125 6.890625 40.9375 10.546875 
Q 45.796875 14.203125 45.796875 21.1875 
Q 45.796875 27.640625 41.28125 31.265625 
Q 36.765625 34.90625 28.71875 34.90625 
L 20.21875 34.90625 
L 20.21875 43.015625 
L 29.109375 43.015625 
Q 36.375 43.015625 40.234375 45.921875 
Q 44.09375 48.828125 44.09375 54.296875 
Q 44.09375 59.90625 40.109375 62.90625 
Q 36.140625 65.921875 28.71875 65.921875 
Q 24.65625 65.921875 20.015625 65.03125 
Q 15.375 64.15625 9.8125 62.3125 
L 9.8125 71.09375 
Q 15.4375 72.65625 20.34375 73.4375 
Q 25.25 74.21875 29.59375 74.21875 
Q 40.828125 74.21875 47.359375 69.109375 
Q 53.90625 64.015625 53.90625 55.328125 
Q 53.90625 49.265625 50.4375 45.09375 
Q 46.96875 40.921875 40.578125 39.3125 
z
" id="DejaVuSans-33"/>
      </defs>
      <g transform="translate(157.096875 638.112663)scale(0.1 -0.1)">
       <use xlink:href="#DejaVuSans-32"/>
       <use x="63.623047" xlink:href="#DejaVuSans-2e"/>
       <use x="95.410156" xlink:href="#DejaVuSans-33"/>
      </g>
     </g>
    </g>
    <g id="ytick_15">
     <g id="line2d_54">
      <g>
       <use style="stroke:#000000;stroke-width:0.8;" x="180" xlink:href="#m0b6f64c94b" y="606.679387"/>
      </g>
     </g>
     <g id="text_49">
      <!-- 2.4 -->
      <defs>
       <path d="M 37.796875 64.3125 
L 12.890625 25.390625 
L 37.796875 25.390625 
z
M 35.203125 72.90625 
L 47.609375 72.90625 
L 47.609375 25.390625 
L 58.015625 25.390625 
L 58.015625 17.1875 
L 47.609375 17.1875 
L 47.609375 0 
L 37.796875 0 
L 37.796875 17.1875 
L 4.890625 17.1875 
L 4.890625 26.703125 
z
" id="DejaVuSans-34"/>
      </defs>
      <g transform="translate(157.096875 610.478606)scale(0.1 -0.1)">
       <use xlink:href="#DejaVuSans-32"/>
       <use x="63.623047" xlink:href="#DejaVuSans-2e"/>
       <use x="95.410156" xlink:href="#DejaVuSans-34"/>
      </g>
     </g>
    </g>
    <g id="ytick_16">
     <g id="line2d_55">
      <g>
       <use style="stroke:#000000;stroke-width:0.8;" x="180" xlink:href="#m0b6f64c94b" y="579.04533"/>
      </g>
     </g>
     <g id="text_50">
      <!-- 2.5 -->
      <g transform="translate(157.096875 582.844548)scale(0.1 -0.1)">
       <use xlink:href="#DejaVuSans-32"/>
       <use x="63.623047" xlink:href="#DejaVuSans-2e"/>
       <use x="95.410156" xlink:href="#DejaVuSans-35"/>
      </g>
     </g>
    </g>
    <g id="ytick_17">
     <g id="line2d_56">
      <g>
       <use style="stroke:#000000;stroke-width:0.8;" x="180" xlink:href="#m0b6f64c94b" y="551.411272"/>
      </g>
     </g>
     <g id="text_51">
      <!-- 2.6 -->
      <defs>
       <path d="M 33.015625 40.375 
Q 26.375 40.375 22.484375 35.828125 
Q 18.609375 31.296875 18.609375 23.390625 
Q 18.609375 15.53125 22.484375 10.953125 
Q 26.375 6.390625 33.015625 6.390625 
Q 39.65625 6.390625 43.53125 10.953125 
Q 47.40625 15.53125 47.40625 23.390625 
Q 47.40625 31.296875 43.53125 35.828125 
Q 39.65625 40.375 33.015625 40.375 
z
M 52.59375 71.296875 
L 52.59375 62.3125 
Q 48.875 64.0625 45.09375 64.984375 
Q 41.3125 65.921875 37.59375 65.921875 
Q 27.828125 65.921875 22.671875 59.328125 
Q 17.53125 52.734375 16.796875 39.40625 
Q 19.671875 43.65625 24.015625 45.921875 
Q 28.375 48.1875 33.59375 48.1875 
Q 44.578125 48.1875 50.953125 41.515625 
Q 57.328125 34.859375 57.328125 23.390625 
Q 57.328125 12.15625 50.6875 5.359375 
Q 44.046875 -1.421875 33.015625 -1.421875 
Q 20.359375 -1.421875 13.671875 8.265625 
Q 6.984375 17.96875 6.984375 36.375 
Q 6.984375 53.65625 15.1875 63.9375 
Q 23.390625 74.21875 37.203125 74.21875 
Q 40.921875 74.21875 44.703125 73.484375 
Q 48.484375 72.75 52.59375 71.296875 
z
" id="DejaVuSans-36"/>
      </defs>
      <g transform="translate(157.096875 555.210491)scale(0.1 -0.1)">
       <use xlink:href="#DejaVuSans-32"/>
       <use x="63.623047" xlink:href="#DejaVuSans-2e"/>
       <use x="95.410156" xlink:href="#DejaVuSans-36"/>
      </g>
     </g>
    </g>
    <g id="ytick_18">
     <g id="line2d_57">
      <g>
       <use style="stroke:#000000;stroke-width:0.8;" x="180" xlink:href="#m0b6f64c94b" y="523.777215"/>
      </g>
     </g>
     <g id="text_52">
      <!-- 2.7 -->
      <g transform="translate(157.096875 527.576434)scale(0.1 -0.1)">
       <use xlink:href="#DejaVuSans-32"/>
       <use x="63.623047" xlink:href="#DejaVuSans-2e"/>
       <use x="95.410156" xlink:href="#DejaVuSans-37"/>
      </g>
     </g>
    </g>
    <g id="ytick_19">
     <g id="line2d_58">
      <g>
       <use style="stroke:#000000;stroke-width:0.8;" x="180" xlink:href="#m0b6f64c94b" y="496.143158"/>
      </g>
     </g>
     <g id="text_53">
      <!-- 2.8 -->
      <defs>
       <path d="M 31.78125 34.625 
Q 24.75 34.625 20.71875 30.859375 
Q 16.703125 27.09375 16.703125 20.515625 
Q 16.703125 13.921875 20.71875 10.15625 
Q 24.75 6.390625 31.78125 6.390625 
Q 38.8125 6.390625 42.859375 10.171875 
Q 46.921875 13.96875 46.921875 20.515625 
Q 46.921875 27.09375 42.890625 30.859375 
Q 38.875 34.625 31.78125 34.625 
z
M 21.921875 38.8125 
Q 15.578125 40.375 12.03125 44.71875 
Q 8.5 49.078125 8.5 55.328125 
Q 8.5 64.0625 14.71875 69.140625 
Q 20.953125 74.21875 31.78125 74.21875 
Q 42.671875 74.21875 48.875 69.140625 
Q 55.078125 64.0625 55.078125 55.328125 
Q 55.078125 49.078125 51.53125 44.71875 
Q 48 40.375 41.703125 38.8125 
Q 48.828125 37.15625 52.796875 32.3125 
Q 56.78125 27.484375 56.78125 20.515625 
Q 56.78125 9.90625 50.3125 4.234375 
Q 43.84375 -1.421875 31.78125 -1.421875 
Q 19.734375 -1.421875 13.25 4.234375 
Q 6.78125 9.90625 6.78125 20.515625 
Q 6.78125 27.484375 10.78125 32.3125 
Q 14.796875 37.15625 21.921875 38.8125 
z
M 18.3125 54.390625 
Q 18.3125 48.734375 21.84375 45.5625 
Q 25.390625 42.390625 31.78125 42.390625 
Q 38.140625 42.390625 41.71875 45.5625 
Q 45.3125 48.734375 45.3125 54.390625 
Q 45.3125 60.0625 41.71875 63.234375 
Q 38.140625 66.40625 31.78125 66.40625 
Q 25.390625 66.40625 21.84375 63.234375 
Q 18.3125 60.0625 18.3125 54.390625 
z
" id="DejaVuSans-38"/>
      </defs>
      <g transform="translate(157.096875 499.942377)scale(0.1 -0.1)">
       <use xlink:href="#DejaVuSans-32"/>
       <use x="63.623047" xlink:href="#DejaVuSans-2e"/>
       <use x="95.410156" xlink:href="#DejaVuSans-38"/>
      </g>
     </g>
    </g>
    <g id="text_54">
     <!-- Control Input -->
     <defs>
      <path d="M 64.40625 67.28125 
L 64.40625 56.890625 
Q 59.421875 61.53125 53.78125 63.8125 
Q 48.140625 66.109375 41.796875 66.109375 
Q 29.296875 66.109375 22.65625 58.46875 
Q 16.015625 50.828125 16.015625 36.375 
Q 16.015625 21.96875 22.65625 14.328125 
Q 29.296875 6.6875 41.796875 6.6875 
Q 48.140625 6.6875 53.78125 8.984375 
Q 59.421875 11.28125 64.40625 15.921875 
L 64.40625 5.609375 
Q 59.234375 2.09375 53.4375 0.328125 
Q 47.65625 -1.421875 41.21875 -1.421875 
Q 24.65625 -1.421875 15.125 8.703125 
Q 5.609375 18.84375 5.609375 36.375 
Q 5.609375 53.953125 15.125 64.078125 
Q 24.65625 74.21875 41.21875 74.21875 
Q 47.75 74.21875 53.53125 72.484375 
Q 59.328125 70.75 64.40625 67.28125 
z
" id="DejaVuSans-43"/>
      <path d="M 30.609375 48.390625 
Q 23.390625 48.390625 19.1875 42.75 
Q 14.984375 37.109375 14.984375 27.296875 
Q 14.984375 17.484375 19.15625 11.84375 
Q 23.34375 6.203125 30.609375 6.203125 
Q 37.796875 6.203125 41.984375 11.859375 
Q 46.1875 17.53125 46.1875 27.296875 
Q 46.1875 37.015625 41.984375 42.703125 
Q 37.796875 48.390625 30.609375 48.390625 
z
M 30.609375 56 
Q 42.328125 56 49.015625 48.375 
Q 55.71875 40.765625 55.71875 27.296875 
Q 55.71875 13.875 49.015625 6.21875 
Q 42.328125 -1.421875 30.609375 -1.421875 
Q 18.84375 -1.421875 12.171875 6.21875 
Q 5.515625 13.875 5.515625 27.296875 
Q 5.515625 40.765625 12.171875 48.375 
Q 18.84375 56 30.609375 56 
z
" id="DejaVuSans-6f"/>
      <path d="M 54.890625 33.015625 
L 54.890625 0 
L 45.90625 0 
L 45.90625 32.71875 
Q 45.90625 40.484375 42.875 44.328125 
Q 39.84375 48.1875 33.796875 48.1875 
Q 26.515625 48.1875 22.3125 43.546875 
Q 18.109375 38.921875 18.109375 30.90625 
L 18.109375 0 
L 9.078125 0 
L 9.078125 54.6875 
L 18.109375 54.6875 
L 18.109375 46.1875 
Q 21.34375 51.125 25.703125 53.5625 
Q 30.078125 56 35.796875 56 
Q 45.21875 56 50.046875 50.171875 
Q 54.890625 44.34375 54.890625 33.015625 
z
" id="DejaVuSans-6e"/>
      <path d="M 9.421875 75.984375 
L 18.40625 75.984375 
L 18.40625 0 
L 9.421875 0 
z
" id="DejaVuSans-6c"/>
      <path id="DejaVuSans-20"/>
      <path d="M 9.8125 72.90625 
L 19.671875 72.90625 
L 19.671875 0 
L 9.8125 0 
z
" id="DejaVuSans-49"/>
      <path d="M 18.109375 8.203125 
L 18.109375 -20.796875 
L 9.078125 -20.796875 
L 9.078125 54.6875 
L 18.109375 54.6875 
L 18.109375 46.390625 
Q 20.953125 51.265625 25.265625 53.625 
Q 29.59375 56 35.59375 56 
Q 45.5625 56 51.78125 48.09375 
Q 58.015625 40.1875 58.015625 27.296875 
Q 58.015625 14.40625 51.78125 6.484375 
Q 45.5625 -1.421875 35.59375 -1.421875 
Q 29.59375 -1.421875 25.265625 0.953125 
Q 20.953125 3.328125 18.109375 8.203125 
z
M 48.6875 27.296875 
Q 48.6875 37.203125 44.609375 42.84375 
Q 40.53125 48.484375 33.40625 48.484375 
Q 26.265625 48.484375 22.1875 42.84375 
Q 18.109375 37.203125 18.109375 27.296875 
Q 18.109375 17.390625 22.1875 11.75 
Q 26.265625 6.109375 33.40625 6.109375 
Q 40.53125 6.109375 44.609375 11.75 
Q 48.6875 17.390625 48.6875 27.296875 
z
" id="DejaVuSans-70"/>
     </defs>
     <g transform="translate(151.017188 591.988557)rotate(-90)scale(0.1 -0.1)">
      <use xlink:href="#DejaVuSans-43"/>
      <use x="69.824219" xlink:href="#DejaVuSans-6f"/>
      <use x="131.005859" xlink:href="#DejaVuSans-6e"/>
      <use x="194.384766" xlink:href="#DejaVuSans-74"/>
      <use x="233.59375" xlink:href="#DejaVuSans-72"/>
      <use x="274.675781" xlink:href="#DejaVuSans-6f"/>
      <use x="335.857422" xlink:href="#DejaVuSans-6c"/>
      <use x="363.640625" xlink:href="#DejaVuSans-20"/>
      <use x="395.427734" xlink:href="#DejaVuSans-49"/>
      <use x="424.919922" xlink:href="#DejaVuSans-6e"/>
      <use x="488.298828" xlink:href="#DejaVuSans-70"/>
      <use x="551.775391" xlink:href="#DejaVuSans-75"/>
      <use x="615.154297" xlink:href="#DejaVuSans-74"/>
     </g>
    </g>
   </g>
   <g id="line2d_59">
    <path clip-path="url(#pad79523ed9)" d="M 230.727273 540.165945 
L 235.825491 542.445886 
L 240.923709 499.958102 
L 246.021928 529.709736 
L 251.120146 516.160343 
L 256.218365 552.822523 
L 261.316583 513.973363 
L 266.414801 516.163666 
L 271.51302 485.152941 
L 276.611238 522.826113 
L 281.709456 527.242222 
L 286.807675 525.589139 
L 291.905893 562.124174 
L 297.004111 556.703422 
L 302.10233 578.99221 
L 307.200548 565.331259 
L 312.298767 549.425458 
L 317.396985 536.415237 
L 322.495203 534.419167 
L 327.593422 528.294437 
L 332.69164 497.507451 
L 337.789858 535.278979 
L 342.888077 516.720499 
L 347.986295 548.924186 
L 353.084513 531.839258 
L 358.182732 571.780909 
L 363.28095 570.256297 
L 368.379169 580.736126 
L 373.477387 553.697258 
L 378.575605 525.53662 
L 383.673824 554.674426 
L 388.772042 494.764819 
L 393.87026 522.251014 
L 398.968479 507.526683 
L 404.066697 550.28314 
L 409.164915 530.468878 
L 414.263134 532.001456 
L 419.361352 589.091532 
L 424.459571 555.806973 
L 429.557789 569.766601 
L 434.656007 544.637612 
L 439.754226 560.019737 
L 444.852444 549.646665 
L 449.950662 564.683841 
L 455.048881 598.245238 
L 460.147099 567.216295 
L 465.245317 532.184518 
L 470.343536 559.799155 
L 475.441754 526.975249 
L 480.539973 548.661905 
L 485.638191 556.852312 
L 490.736409 571.72095 
L 495.834628 585.240795 
L 500.932846 559.83128 
L 506.031064 557.752162 
L 511.129283 540.413581 
L 516.227501 572.143606 
L 521.32572 555.125262 
L 526.423938 551.119415 
L 531.522156 524.139408 
L 536.620375 508.535872 
L 541.718593 539.687682 
L 546.816811 540.557841 
L 551.91503 539.43528 
L 557.013248 621.234874 
L 562.111466 594.438902 
L 567.209685 574.230302 
L 572.307903 587.84724 
L 577.406122 562.633166 
L 582.50434 585.257908 
L 587.602558 583.875487 
L 592.700777 563.995262 
L 597.798995 562.870543 
L 602.897213 551.484012 
L 607.995432 582.653945 
L 613.09365 549.409489 
L 618.191868 553.47211 
L 623.290087 579.918186 
L 628.388305 567.854828 
L 633.486524 604.236205 
L 638.584742 595.059066 
L 643.68296 550.338808 
L 648.781179 572.162757 
L 653.879397 577.308232 
L 658.977615 531.835755 
L 664.075834 572.163821 
L 669.174052 565.891609 
L 674.27227 588.081148 
L 679.370489 595.428671 
L 684.468707 572.905926 
L 689.566926 610.924524 
L 694.665144 569.503324 
L 699.763362 554.305118 
L 704.861581 611.682433 
L 709.959799 577.539419 
L 715.058017 574.10789 
L 720.156236 581.538157 
L 725.254454 543.458453 
L 730.352672 566.764105 
L 735.450891 541.509886 
L 740.549109 555.595704 
L 745.647328 585.118197 
L 750.745546 606.72303 
L 755.843764 565.70952 
L 760.941983 569.039625 
L 766.040201 567.959257 
L 771.138419 587.622278 
L 776.236638 622.191572 
L 781.334856 577.737935 
L 786.433074 598.956449 
L 791.531293 568.128544 
L 796.629511 556.053497 
L 801.72773 577.932361 
L 806.825948 553.881094 
L 811.924166 562.191014 
L 817.022385 585.072981 
L 822.120603 570.634663 
L 827.218821 588.526637 
L 832.31704 603.857715 
L 837.415258 607.000329 
L 842.513476 581.947334 
L 847.611695 568.878304 
L 852.709913 573.707936 
L 857.808132 574.414767 
L 868.004568 539.746543 
L 873.102787 550.856595 
L 878.201005 566.905647 
L 883.299223 583.643326 
L 888.397442 602.761085 
L 893.49566 594.993642 
L 898.593878 610.668978 
L 903.692097 574.936166 
L 908.790315 566.294616 
L 913.888534 584.468451 
L 918.986752 604.248324 
L 924.08497 579.707732 
L 929.183189 584.295766 
L 934.281407 559.055412 
L 939.379625 552.26245 
L 944.477844 564.116797 
L 949.576062 568.107956 
L 954.67428 567.247155 
L 959.772499 585.376265 
L 964.870717 576.746162 
L 969.968936 589.804926 
L 975.067154 599.505289 
L 980.165372 550.292356 
L 985.263591 535.306614 
L 990.361809 581.309685 
L 995.460027 589.68543 
L 1000.558246 585.906645 
L 1005.656464 605.040273 
L 1010.754683 553.933744 
L 1015.852901 581.577051 
L 1020.951119 611.685649 
L 1026.049338 587.815523 
L 1031.147556 598.930293 
L 1036.245774 573.275601 
L 1041.343993 597.955543 
L 1046.442211 585.499989 
L 1051.540429 581.909772 
L 1056.638648 545.970299 
L 1061.736866 588.816497 
L 1066.835085 584.820412 
L 1071.933303 560.828607 
L 1077.031521 570.621136 
L 1082.12974 582.138151 
L 1087.227958 549.378801 
L 1092.326176 573.546387 
L 1097.424395 603.159029 
L 1102.522613 600.96275 
L 1107.620831 595.689951 
L 1112.71905 633.388235 
L 1117.817268 600.526581 
L 1122.915487 603.338492 
L 1128.013705 583.474192 
L 1133.111923 554.979983 
L 1138.210142 563.595273 
L 1143.30836 568.045441 
L 1148.406578 585.566857 
L 1153.504797 606.37973 
L 1158.603015 595.903735 
L 1163.701233 584.895435 
L 1168.799452 603.708823 
L 1173.89767 549.803426 
L 1178.995889 579.943084 
L 1184.094107 598.850673 
L 1189.192325 567.061385 
L 1194.290544 551.686245 
L 1199.388762 525.549208 
L 1204.48698 578.92975 
L 1209.585199 571.466579 
L 1214.683417 597.851888 
L 1219.781635 629.997834 
L 1224.879854 584.903418 
L 1229.978072 610.530055 
L 1235.076291 619.036619 
L 1240.174509 552.507902 
L 1245.272727 595.466129 
L 1245.272727 595.466129 
" style="fill:none;stroke:#ff0000;stroke-linecap:square;stroke-width:1.5;"/>
   </g>
   <g id="patch_15">
    <path d="M 180 640.8 
L 180 477.741176 
" style="fill:none;stroke:#000000;stroke-linecap:square;stroke-linejoin:miter;stroke-width:0.8;"/>
   </g>
   <g id="patch_16">
    <path d="M 1296 640.8 
L 1296 477.741176 
" style="fill:none;stroke:#000000;stroke-linecap:square;stroke-linejoin:miter;stroke-width:0.8;"/>
   </g>
   <g id="patch_17">
    <path d="M 180 640.8 
L 1296 640.8 
" style="fill:none;stroke:#000000;stroke-linecap:square;stroke-linejoin:miter;stroke-width:0.8;"/>
   </g>
   <g id="patch_18">
    <path d="M 180 477.741176 
L 1296 477.741176 
" style="fill:none;stroke:#000000;stroke-linecap:square;stroke-linejoin:miter;stroke-width:0.8;"/>
   </g>
   <g id="legend_3">
    <g id="patch_19">
     <path d="M 1194.742188 500.419301 
L 1289 500.419301 
Q 1291 500.419301 1291 498.419301 
L 1291 484.741176 
Q 1291 482.741176 1289 482.741176 
L 1194.742188 482.741176 
Q 1192.742188 482.741176 1192.742188 484.741176 
L 1192.742188 498.419301 
Q 1192.742188 500.419301 1194.742188 500.419301 
z
" style="fill:#ffffff;opacity:0.8;stroke:#cccccc;stroke-linejoin:miter;"/>
    </g>
    <g id="line2d_60">
     <path d="M 1196.742188 490.839614 
L 1216.742188 490.839614 
" style="fill:none;stroke:#ff0000;stroke-linecap:square;stroke-width:1.5;"/>
    </g>
    <g id="line2d_61"/>
    <g id="text_55">
     <!-- ControlInput -->
     <g transform="translate(1224.742188 494.339614)scale(0.1 -0.1)">
      <use xlink:href="#DejaVuSans-43"/>
      <use x="69.824219" xlink:href="#DejaVuSans-6f"/>
      <use x="131.005859" xlink:href="#DejaVuSans-6e"/>
      <use x="194.384766" xlink:href="#DejaVuSans-74"/>
      <use x="233.59375" xlink:href="#DejaVuSans-72"/>
      <use x="274.675781" xlink:href="#DejaVuSans-6f"/>
      <use x="335.857422" xlink:href="#DejaVuSans-6c"/>
      <use x="363.640625" xlink:href="#DejaVuSans-49"/>
      <use x="393.132812" xlink:href="#DejaVuSans-6e"/>
      <use x="456.511719" xlink:href="#DejaVuSans-70"/>
      <use x="519.988281" xlink:href="#DejaVuSans-75"/>
      <use x="583.367188" xlink:href="#DejaVuSans-74"/>
     </g>
    </g>
   </g>
  </g>
 </g>
 <defs>
  <clipPath id="p430f171cbb">
   <rect height="163.058824" width="1116" x="180" y="86.4"/>
  </clipPath>
  <clipPath id="p15858dcff6">
   <rect height="163.058824" width="1116" x="180" y="282.070588"/>
  </clipPath>
  <clipPath id="pad79523ed9">
   <rect height="163.058824" width="1116" x="180" y="477.741176"/>
  </clipPath>
 </defs>
</svg>
