<?xml version="1.0" encoding="utf-8" standalone="no"?>
<!DOCTYPE svg PUBLIC "-//W3C//DTD SVG 1.1//EN"
  "http://www.w3.org/Graphics/SVG/1.1/DTD/svg11.dtd">
<!-- Created with matplotlib (http://matplotlib.org/) -->
<svg height="720pt" version="1.1" viewBox="0 0 1440 720" width="1440pt" xmlns="http://www.w3.org/2000/svg" xmlns:xlink="http://www.w3.org/1999/xlink">
 <defs>
  <style type="text/css">
*{stroke-linecap:butt;stroke-linejoin:round;}
  </style>
 </defs>
 <g id="figure_1">
  <g id="patch_1">
   <path d="M 0 720 
L 1440 720 
L 1440 0 
L 0 0 
z
" style="fill:#ffffff;"/>
  </g>
  <g id="axes_1">
   <g id="patch_2">
    <path d="M 180 249.458824 
L 1296 249.458824 
L 1296 86.4 
L 180 86.4 
z
" style="fill:#ffffff;"/>
   </g>
   <g id="matplotlib.axis_1">
    <g id="xtick_1">
     <g id="line2d_1">
      <defs>
       <path d="M 0 0 
L 0 3.5 
" id="me511f002c0" style="stroke:#000000;stroke-width:0.8;"/>
      </defs>
      <g>
       <use style="stroke:#000000;stroke-width:0.8;" x="230.727273" xlink:href="#me511f002c0" y="249.458824"/>
      </g>
     </g>
     <g id="text_1">
      <!-- 0 -->
      <defs>
       <path d="M 31.78125 66.40625 
Q 24.171875 66.40625 20.328125 58.90625 
Q 16.5 51.421875 16.5 36.375 
Q 16.5 21.390625 20.328125 13.890625 
Q 24.171875 6.390625 31.78125 6.390625 
Q 39.453125 6.390625 43.28125 13.890625 
Q 47.125 21.390625 47.125 36.375 
Q 47.125 51.421875 43.28125 58.90625 
Q 39.453125 66.40625 31.78125 66.40625 
z
M 31.78125 74.21875 
Q 44.046875 74.21875 50.515625 64.515625 
Q 56.984375 54.828125 56.984375 36.375 
Q 56.984375 17.96875 50.515625 8.265625 
Q 44.046875 -1.421875 31.78125 -1.421875 
Q 19.53125 -1.421875 13.0625 8.265625 
Q 6.59375 17.96875 6.59375 36.375 
Q 6.59375 54.828125 13.0625 64.515625 
Q 19.53125 74.21875 31.78125 74.21875 
z
" id="DejaVuSans-30"/>
      </defs>
      <g transform="translate(227.546023 264.057261)scale(0.1 -0.1)">
       <use xlink:href="#DejaVuSans-30"/>
      </g>
     </g>
    </g>
    <g id="xtick_2">
     <g id="line2d_2">
      <g>
       <use style="stroke:#000000;stroke-width:0.8;" x="435.68595" xlink:href="#me511f002c0" y="249.458824"/>
      </g>
     </g>
     <g id="text_2">
      <!-- 20 -->
      <defs>
       <path d="M 19.1875 8.296875 
L 53.609375 8.296875 
L 53.609375 0 
L 7.328125 0 
L 7.328125 8.296875 
Q 12.9375 14.109375 22.625 23.890625 
Q 32.328125 33.6875 34.8125 36.53125 
Q 39.546875 41.84375 41.421875 45.53125 
Q 43.3125 49.21875 43.3125 52.78125 
Q 43.3125 58.59375 39.234375 62.25 
Q 35.15625 65.921875 28.609375 65.921875 
Q 23.96875 65.921875 18.8125 64.3125 
Q 13.671875 62.703125 7.8125 59.421875 
L 7.8125 69.390625 
Q 13.765625 71.78125 18.9375 73 
Q 24.125 74.21875 28.421875 74.21875 
Q 39.75 74.21875 46.484375 68.546875 
Q 53.21875 62.890625 53.21875 53.421875 
Q 53.21875 48.921875 51.53125 44.890625 
Q 49.859375 40.875 45.40625 35.40625 
Q 44.1875 33.984375 37.640625 27.21875 
Q 31.109375 20.453125 19.1875 8.296875 
z
" id="DejaVuSans-32"/>
      </defs>
      <g transform="translate(429.32345 264.057261)scale(0.1 -0.1)">
       <use xlink:href="#DejaVuSans-32"/>
       <use x="63.623047" xlink:href="#DejaVuSans-30"/>
      </g>
     </g>
    </g>
    <g id="xtick_3">
     <g id="line2d_3">
      <g>
       <use style="stroke:#000000;stroke-width:0.8;" x="640.644628" xlink:href="#me511f002c0" y="249.458824"/>
      </g>
     </g>
     <g id="text_3">
      <!-- 40 -->
      <defs>
       <path d="M 37.796875 64.3125 
L 12.890625 25.390625 
L 37.796875 25.390625 
z
M 35.203125 72.90625 
L 47.609375 72.90625 
L 47.609375 25.390625 
L 58.015625 25.390625 
L 58.015625 17.1875 
L 47.609375 17.1875 
L 47.609375 0 
L 37.796875 0 
L 37.796875 17.1875 
L 4.890625 17.1875 
L 4.890625 26.703125 
z
" id="DejaVuSans-34"/>
      </defs>
      <g transform="translate(634.282128 264.057261)scale(0.1 -0.1)">
       <use xlink:href="#DejaVuSans-34"/>
       <use x="63.623047" xlink:href="#DejaVuSans-30"/>
      </g>
     </g>
    </g>
    <g id="xtick_4">
     <g id="line2d_4">
      <g>
       <use style="stroke:#000000;stroke-width:0.8;" x="845.603306" xlink:href="#me511f002c0" y="249.458824"/>
      </g>
     </g>
     <g id="text_4">
      <!-- 60 -->
      <defs>
       <path d="M 33.015625 40.375 
Q 26.375 40.375 22.484375 35.828125 
Q 18.609375 31.296875 18.609375 23.390625 
Q 18.609375 15.53125 22.484375 10.953125 
Q 26.375 6.390625 33.015625 6.390625 
Q 39.65625 6.390625 43.53125 10.953125 
Q 47.40625 15.53125 47.40625 23.390625 
Q 47.40625 31.296875 43.53125 35.828125 
Q 39.65625 40.375 33.015625 40.375 
z
M 52.59375 71.296875 
L 52.59375 62.3125 
Q 48.875 64.0625 45.09375 64.984375 
Q 41.3125 65.921875 37.59375 65.921875 
Q 27.828125 65.921875 22.671875 59.328125 
Q 17.53125 52.734375 16.796875 39.40625 
Q 19.671875 43.65625 24.015625 45.921875 
Q 28.375 48.1875 33.59375 48.1875 
Q 44.578125 48.1875 50.953125 41.515625 
Q 57.328125 34.859375 57.328125 23.390625 
Q 57.328125 12.15625 50.6875 5.359375 
Q 44.046875 -1.421875 33.015625 -1.421875 
Q 20.359375 -1.421875 13.671875 8.265625 
Q 6.984375 17.96875 6.984375 36.375 
Q 6.984375 53.65625 15.1875 63.9375 
Q 23.390625 74.21875 37.203125 74.21875 
Q 40.921875 74.21875 44.703125 73.484375 
Q 48.484375 72.75 52.59375 71.296875 
z
" id="DejaVuSans-36"/>
      </defs>
      <g transform="translate(839.240806 264.057261)scale(0.1 -0.1)">
       <use xlink:href="#DejaVuSans-36"/>
       <use x="63.623047" xlink:href="#DejaVuSans-30"/>
      </g>
     </g>
    </g>
    <g id="xtick_5">
     <g id="line2d_5">
      <g>
       <use style="stroke:#000000;stroke-width:0.8;" x="1050.561983" xlink:href="#me511f002c0" y="249.458824"/>
      </g>
     </g>
     <g id="text_5">
      <!-- 80 -->
      <defs>
       <path d="M 31.78125 34.625 
Q 24.75 34.625 20.71875 30.859375 
Q 16.703125 27.09375 16.703125 20.515625 
Q 16.703125 13.921875 20.71875 10.15625 
Q 24.75 6.390625 31.78125 6.390625 
Q 38.8125 6.390625 42.859375 10.171875 
Q 46.921875 13.96875 46.921875 20.515625 
Q 46.921875 27.09375 42.890625 30.859375 
Q 38.875 34.625 31.78125 34.625 
z
M 21.921875 38.8125 
Q 15.578125 40.375 12.03125 44.71875 
Q 8.5 49.078125 8.5 55.328125 
Q 8.5 64.0625 14.71875 69.140625 
Q 20.953125 74.21875 31.78125 74.21875 
Q 42.671875 74.21875 48.875 69.140625 
Q 55.078125 64.0625 55.078125 55.328125 
Q 55.078125 49.078125 51.53125 44.71875 
Q 48 40.375 41.703125 38.8125 
Q 48.828125 37.15625 52.796875 32.3125 
Q 56.78125 27.484375 56.78125 20.515625 
Q 56.78125 9.90625 50.3125 4.234375 
Q 43.84375 -1.421875 31.78125 -1.421875 
Q 19.734375 -1.421875 13.25 4.234375 
Q 6.78125 9.90625 6.78125 20.515625 
Q 6.78125 27.484375 10.78125 32.3125 
Q 14.796875 37.15625 21.921875 38.8125 
z
M 18.3125 54.390625 
Q 18.3125 48.734375 21.84375 45.5625 
Q 25.390625 42.390625 31.78125 42.390625 
Q 38.140625 42.390625 41.71875 45.5625 
Q 45.3125 48.734375 45.3125 54.390625 
Q 45.3125 60.0625 41.71875 63.234375 
Q 38.140625 66.40625 31.78125 66.40625 
Q 25.390625 66.40625 21.84375 63.234375 
Q 18.3125 60.0625 18.3125 54.390625 
z
" id="DejaVuSans-38"/>
      </defs>
      <g transform="translate(1044.199483 264.057261)scale(0.1 -0.1)">
       <use xlink:href="#DejaVuSans-38"/>
       <use x="63.623047" xlink:href="#DejaVuSans-30"/>
      </g>
     </g>
    </g>
    <g id="xtick_6">
     <g id="line2d_6">
      <g>
       <use style="stroke:#000000;stroke-width:0.8;" x="1255.520661" xlink:href="#me511f002c0" y="249.458824"/>
      </g>
     </g>
     <g id="text_6">
      <!-- 100 -->
      <defs>
       <path d="M 12.40625 8.296875 
L 28.515625 8.296875 
L 28.515625 63.921875 
L 10.984375 60.40625 
L 10.984375 69.390625 
L 28.421875 72.90625 
L 38.28125 72.90625 
L 38.28125 8.296875 
L 54.390625 8.296875 
L 54.390625 0 
L 12.40625 0 
z
" id="DejaVuSans-31"/>
      </defs>
      <g transform="translate(1245.976911 264.057261)scale(0.1 -0.1)">
       <use xlink:href="#DejaVuSans-31"/>
       <use x="63.623047" xlink:href="#DejaVuSans-30"/>
       <use x="127.246094" xlink:href="#DejaVuSans-30"/>
      </g>
     </g>
    </g>
   </g>
   <g id="matplotlib.axis_2">
    <g id="ytick_1">
     <g id="line2d_7">
      <defs>
       <path d="M 0 0 
L -3.5 0 
" id="m2d75ec4403" style="stroke:#000000;stroke-width:0.8;"/>
      </defs>
      <g>
       <use style="stroke:#000000;stroke-width:0.8;" x="180" xlink:href="#m2d75ec4403" y="228.571123"/>
      </g>
     </g>
     <g id="text_7">
      <!-- 0 -->
      <g transform="translate(166.6375 232.370342)scale(0.1 -0.1)">
       <use xlink:href="#DejaVuSans-30"/>
      </g>
     </g>
    </g>
    <g id="ytick_2">
     <g id="line2d_8">
      <g>
       <use style="stroke:#000000;stroke-width:0.8;" x="180" xlink:href="#m2d75ec4403" y="201.619251"/>
      </g>
     </g>
     <g id="text_8">
      <!-- 20 -->
      <g transform="translate(160.275 205.41847)scale(0.1 -0.1)">
       <use xlink:href="#DejaVuSans-32"/>
       <use x="63.623047" xlink:href="#DejaVuSans-30"/>
      </g>
     </g>
    </g>
    <g id="ytick_3">
     <g id="line2d_9">
      <g>
       <use style="stroke:#000000;stroke-width:0.8;" x="180" xlink:href="#m2d75ec4403" y="174.66738"/>
      </g>
     </g>
     <g id="text_9">
      <!-- 40 -->
      <g transform="translate(160.275 178.466598)scale(0.1 -0.1)">
       <use xlink:href="#DejaVuSans-34"/>
       <use x="63.623047" xlink:href="#DejaVuSans-30"/>
      </g>
     </g>
    </g>
    <g id="ytick_4">
     <g id="line2d_10">
      <g>
       <use style="stroke:#000000;stroke-width:0.8;" x="180" xlink:href="#m2d75ec4403" y="147.715508"/>
      </g>
     </g>
     <g id="text_10">
      <!-- 60 -->
      <g transform="translate(160.275 151.514727)scale(0.1 -0.1)">
       <use xlink:href="#DejaVuSans-36"/>
       <use x="63.623047" xlink:href="#DejaVuSans-30"/>
      </g>
     </g>
    </g>
    <g id="ytick_5">
     <g id="line2d_11">
      <g>
       <use style="stroke:#000000;stroke-width:0.8;" x="180" xlink:href="#m2d75ec4403" y="120.763636"/>
      </g>
     </g>
     <g id="text_11">
      <!-- 80 -->
      <g transform="translate(160.275 124.562855)scale(0.1 -0.1)">
       <use xlink:href="#DejaVuSans-38"/>
       <use x="63.623047" xlink:href="#DejaVuSans-30"/>
      </g>
     </g>
    </g>
    <g id="ytick_6">
     <g id="line2d_12">
      <g>
       <use style="stroke:#000000;stroke-width:0.8;" x="180" xlink:href="#m2d75ec4403" y="93.811765"/>
      </g>
     </g>
     <g id="text_12">
      <!-- 100 -->
      <g transform="translate(153.9125 97.610983)scale(0.1 -0.1)">
       <use xlink:href="#DejaVuSans-31"/>
       <use x="63.623047" xlink:href="#DejaVuSans-30"/>
       <use x="127.246094" xlink:href="#DejaVuSans-30"/>
      </g>
     </g>
    </g>
    <g id="text_13">
     <!-- State:0 -->
     <defs>
      <path d="M 53.515625 70.515625 
L 53.515625 60.890625 
Q 47.90625 63.578125 42.921875 64.890625 
Q 37.9375 66.21875 33.296875 66.21875 
Q 25.25 66.21875 20.875 63.09375 
Q 16.5 59.96875 16.5 54.203125 
Q 16.5 49.359375 19.40625 46.890625 
Q 22.3125 44.4375 30.421875 42.921875 
L 36.375 41.703125 
Q 47.40625 39.59375 52.65625 34.296875 
Q 57.90625 29 57.90625 20.125 
Q 57.90625 9.515625 50.796875 4.046875 
Q 43.703125 -1.421875 29.984375 -1.421875 
Q 24.8125 -1.421875 18.96875 -0.25 
Q 13.140625 0.921875 6.890625 3.21875 
L 6.890625 13.375 
Q 12.890625 10.015625 18.65625 8.296875 
Q 24.421875 6.59375 29.984375 6.59375 
Q 38.421875 6.59375 43.015625 9.90625 
Q 47.609375 13.234375 47.609375 19.390625 
Q 47.609375 24.75 44.3125 27.78125 
Q 41.015625 30.8125 33.5 32.328125 
L 27.484375 33.5 
Q 16.453125 35.6875 11.515625 40.375 
Q 6.59375 45.0625 6.59375 53.421875 
Q 6.59375 63.09375 13.40625 68.65625 
Q 20.21875 74.21875 32.171875 74.21875 
Q 37.3125 74.21875 42.625 73.28125 
Q 47.953125 72.359375 53.515625 70.515625 
z
" id="DejaVuSans-53"/>
      <path d="M 18.3125 70.21875 
L 18.3125 54.6875 
L 36.8125 54.6875 
L 36.8125 47.703125 
L 18.3125 47.703125 
L 18.3125 18.015625 
Q 18.3125 11.328125 20.140625 9.421875 
Q 21.96875 7.515625 27.59375 7.515625 
L 36.8125 7.515625 
L 36.8125 0 
L 27.59375 0 
Q 17.1875 0 13.234375 3.875 
Q 9.28125 7.765625 9.28125 18.015625 
L 9.28125 47.703125 
L 2.6875 47.703125 
L 2.6875 54.6875 
L 9.28125 54.6875 
L 9.28125 70.21875 
z
" id="DejaVuSans-74"/>
      <path d="M 34.28125 27.484375 
Q 23.390625 27.484375 19.1875 25 
Q 14.984375 22.515625 14.984375 16.5 
Q 14.984375 11.71875 18.140625 8.90625 
Q 21.296875 6.109375 26.703125 6.109375 
Q 34.1875 6.109375 38.703125 11.40625 
Q 43.21875 16.703125 43.21875 25.484375 
L 43.21875 27.484375 
z
M 52.203125 31.203125 
L 52.203125 0 
L 43.21875 0 
L 43.21875 8.296875 
Q 40.140625 3.328125 35.546875 0.953125 
Q 30.953125 -1.421875 24.3125 -1.421875 
Q 15.921875 -1.421875 10.953125 3.296875 
Q 6 8.015625 6 15.921875 
Q 6 25.140625 12.171875 29.828125 
Q 18.359375 34.515625 30.609375 34.515625 
L 43.21875 34.515625 
L 43.21875 35.40625 
Q 43.21875 41.609375 39.140625 45 
Q 35.0625 48.390625 27.6875 48.390625 
Q 23 48.390625 18.546875 47.265625 
Q 14.109375 46.140625 10.015625 43.890625 
L 10.015625 52.203125 
Q 14.9375 54.109375 19.578125 55.046875 
Q 24.21875 56 28.609375 56 
Q 40.484375 56 46.34375 49.84375 
Q 52.203125 43.703125 52.203125 31.203125 
z
" id="DejaVuSans-61"/>
      <path d="M 56.203125 29.59375 
L 56.203125 25.203125 
L 14.890625 25.203125 
Q 15.484375 15.921875 20.484375 11.0625 
Q 25.484375 6.203125 34.421875 6.203125 
Q 39.59375 6.203125 44.453125 7.46875 
Q 49.3125 8.734375 54.109375 11.28125 
L 54.109375 2.78125 
Q 49.265625 0.734375 44.1875 -0.34375 
Q 39.109375 -1.421875 33.890625 -1.421875 
Q 20.796875 -1.421875 13.15625 6.1875 
Q 5.515625 13.8125 5.515625 26.8125 
Q 5.515625 40.234375 12.765625 48.109375 
Q 20.015625 56 32.328125 56 
Q 43.359375 56 49.78125 48.890625 
Q 56.203125 41.796875 56.203125 29.59375 
z
M 47.21875 32.234375 
Q 47.125 39.59375 43.09375 43.984375 
Q 39.0625 48.390625 32.421875 48.390625 
Q 24.90625 48.390625 20.390625 44.140625 
Q 15.875 39.890625 15.1875 32.171875 
z
" id="DejaVuSans-65"/>
      <path d="M 11.71875 12.40625 
L 22.015625 12.40625 
L 22.015625 0 
L 11.71875 0 
z
M 11.71875 51.703125 
L 22.015625 51.703125 
L 22.015625 39.3125 
L 11.71875 39.3125 
z
" id="DejaVuSans-3a"/>
     </defs>
     <g transform="translate(147.832812 186.030193)rotate(-90)scale(0.1 -0.1)">
      <use xlink:href="#DejaVuSans-53"/>
      <use x="63.476562" xlink:href="#DejaVuSans-74"/>
      <use x="102.685547" xlink:href="#DejaVuSans-61"/>
      <use x="163.964844" xlink:href="#DejaVuSans-74"/>
      <use x="203.173828" xlink:href="#DejaVuSans-65"/>
      <use x="264.697266" xlink:href="#DejaVuSans-3a"/>
      <use x="298.388672" xlink:href="#DejaVuSans-30"/>
     </g>
    </g>
   </g>
   <g id="line2d_13">
    <path clip-path="url(#p70f411135a)" d="M 230.727273 218.282839 
L 240.975207 216.21544 
L 251.22314 214.474406 
L 261.471074 214.97534 
L 271.719008 216.526526 
L 281.966942 218.388873 
L 292.214876 220.246419 
L 302.46281 221.601807 
L 312.710744 222.7359 
L 322.958678 223.68448 
L 333.206612 224.479044 
L 343.454545 225.144218 
L 353.702479 225.70203 
L 363.950413 226.169015 
L 374.198347 226.559725 
L 384.446281 226.887492 
L 394.694215 227.161232 
L 404.942149 227.391095 
L 415.190083 227.583184 
L 425.438017 227.74406 
L 435.68595 227.878556 
L 445.933884 227.99129 
L 456.181818 228.085433 
L 466.429752 228.16494 
L 476.677686 228.230861 
L 486.92562 228.286615 
L 497.173554 228.332889 
L 507.421488 228.371747 
L 517.669421 228.404149 
L 527.917355 228.431368 
L 538.165289 228.454027 
L 548.413223 228.473185 
L 558.661157 228.489171 
L 568.909091 228.502208 
L 579.157025 228.513377 
L 589.404959 228.522337 
L 599.652893 228.53118 
L 609.900826 228.538542 
L 620.14876 228.543786 
L 630.396694 228.548174 
L 640.644628 228.551678 
L 650.892562 228.555296 
L 661.140496 228.558093 
L 671.38843 228.560369 
L 681.636364 228.561194 
L 691.884298 228.561906 
L 702.132231 228.562815 
L 712.380165 228.563384 
L 722.628099 228.563996 
L 732.876033 228.564422 
L 743.123967 228.564357 
L 753.371901 228.564705 
L 763.619835 228.564623 
L 773.867769 228.565089 
L 784.115702 228.565074 
L 794.363636 228.56497 
L 804.61157 228.565 
L 814.859504 228.564274 
L 825.107438 228.564501 
L 835.355372 228.564018 
L 845.603306 228.564658 
L 855.85124 228.558445 
L 866.099174 228.552974 
L 876.347107 228.549753 
L 886.595041 228.548927 
L 896.842975 228.550382 
L 907.090909 228.550663 
L 917.338843 228.552693 
L 927.586777 228.568056 
L 937.834711 228.582833 
L 948.082645 228.593656 
L 958.330579 228.600078 
L 968.578512 228.602354 
L 978.826446 228.611274 
L 989.07438 228.618752 
L 999.322314 228.62293 
L 1009.570248 228.623618 
L 1019.818182 228.626585 
L 1030.066116 228.627883 
L 1040.31405 228.631244 
L 1050.561983 228.632389 
L 1060.809917 228.635632 
L 1071.057851 228.636514 
L 1081.305785 228.639589 
L 1091.553719 228.640222 
L 1101.801653 228.643141 
L 1112.049587 228.643557 
L 1122.297521 228.646337 
L 1132.545455 228.646571 
L 1142.793388 228.649234 
L 1153.041322 228.649317 
L 1163.289256 228.652214 
L 1173.53719 228.65254 
L 1183.785124 228.655683 
L 1194.033058 228.656198 
L 1204.280992 228.659508 
L 1214.528926 228.66015 
L 1224.77686 228.663917 
L 1235.024793 228.665154 
L 1245.272727 228.66371 
" style="fill:none;stroke:#000000;stroke-linecap:square;stroke-width:4;"/>
   </g>
   <g id="line2d_14">
    <path clip-path="url(#p70f411135a)" d="M 230.727273 93.811765 
L 240.975207 242.047059 
L 251.22314 242.047059 
L 261.471074 242.047059 
L 271.719008 242.047059 
L 281.966942 242.047059 
L 292.214876 242.047059 
L 302.46281 242.047059 
L 312.710744 242.047059 
L 322.958678 242.047059 
L 333.206612 242.047059 
L 343.454545 242.047059 
L 353.702479 242.047059 
L 363.950413 242.047059 
L 374.198347 242.047059 
L 384.446281 242.047059 
L 394.694215 242.047059 
L 404.942149 242.047059 
L 415.190083 242.047059 
L 425.438017 242.047059 
L 435.68595 242.047059 
L 445.933884 242.047059 
L 456.181818 242.047059 
L 466.429752 242.047059 
L 476.677686 242.047059 
L 486.92562 242.047059 
L 497.173554 242.047059 
L 507.421488 242.047059 
L 517.669421 242.047059 
L 527.917355 242.047059 
L 538.165289 242.047059 
L 548.413223 242.047059 
L 558.661157 242.047059 
L 568.909091 242.047059 
L 579.157025 242.047059 
L 589.404959 242.047059 
L 599.652893 242.047059 
L 609.900826 242.047059 
L 620.14876 242.047059 
L 630.396694 242.047059 
L 640.644628 242.047059 
L 650.892562 242.047059 
L 661.140496 242.047059 
L 671.38843 242.047059 
L 681.636364 242.047059 
L 691.884298 242.047059 
L 702.132231 242.047059 
L 712.380165 242.047059 
L 722.628099 242.047059 
L 732.876033 242.047059 
L 743.123967 242.047059 
L 753.371901 242.047059 
L 763.619835 242.047059 
L 773.867769 242.047059 
L 784.115702 242.047059 
L 794.363636 242.047059 
L 804.61157 242.047059 
L 814.859504 242.047059 
L 825.107438 242.047059 
L 835.355372 242.047059 
L 845.603306 242.047059 
L 855.85124 242.047059 
L 866.099174 242.047059 
L 876.347107 242.047059 
L 886.595041 242.047059 
L 896.842975 242.047059 
L 907.090909 242.047059 
L 917.338843 242.047059 
L 927.586777 242.047059 
L 937.834711 242.047059 
L 948.082645 242.047059 
L 958.330579 242.047059 
L 968.578512 242.047059 
L 978.826446 242.047059 
L 989.07438 242.047059 
L 999.322314 242.047059 
L 1009.570248 242.047059 
L 1019.818182 242.047059 
L 1030.066116 242.047059 
L 1040.31405 242.047059 
L 1050.561983 242.047059 
L 1060.809917 242.047059 
L 1071.057851 242.047059 
L 1081.305785 242.047059 
L 1091.553719 242.047059 
L 1101.801653 242.047059 
L 1112.049587 242.047059 
L 1122.297521 242.047059 
L 1132.545455 242.047059 
L 1142.793388 242.047059 
L 1153.041322 242.047059 
L 1163.289256 242.047059 
L 1173.53719 242.047059 
L 1183.785124 242.047059 
L 1194.033058 242.047059 
L 1204.280992 242.047059 
L 1214.528926 242.047059 
L 1224.77686 242.047059 
L 1235.024793 242.047059 
L 1245.272727 242.047059 
" style="fill:none;stroke:#ff0000;stroke-linecap:square;stroke-width:1.5;"/>
   </g>
   <g id="patch_3">
    <path d="M 180 249.458824 
L 180 86.4 
" style="fill:none;stroke:#000000;stroke-linecap:square;stroke-linejoin:miter;stroke-width:0.8;"/>
   </g>
   <g id="patch_4">
    <path d="M 1296 249.458824 
L 1296 86.4 
" style="fill:none;stroke:#000000;stroke-linecap:square;stroke-linejoin:miter;stroke-width:0.8;"/>
   </g>
   <g id="patch_5">
    <path d="M 180 249.458824 
L 1296 249.458824 
" style="fill:none;stroke:#000000;stroke-linecap:square;stroke-linejoin:miter;stroke-width:0.8;"/>
   </g>
   <g id="patch_6">
    <path d="M 180 86.4 
L 1296 86.4 
" style="fill:none;stroke:#000000;stroke-linecap:square;stroke-linejoin:miter;stroke-width:0.8;"/>
   </g>
   <g id="legend_1">
    <g id="patch_7">
     <path d="M 1179.510937 123.75625 
L 1289 123.75625 
Q 1291 123.75625 1291 121.75625 
L 1291 93.4 
Q 1291 91.4 1289 91.4 
L 1179.510937 91.4 
Q 1177.510937 91.4 1177.510937 93.4 
L 1177.510937 121.75625 
Q 1177.510937 123.75625 1179.510937 123.75625 
z
" style="fill:#ffffff;opacity:0.8;stroke:#cccccc;stroke-linejoin:miter;"/>
    </g>
    <g id="line2d_15">
     <path d="M 1181.510937 99.498438 
L 1201.510937 99.498438 
" style="fill:none;stroke:#000000;stroke-linecap:square;stroke-width:4;"/>
    </g>
    <g id="line2d_16"/>
    <g id="text_14">
     <!-- CurrentState -->
     <defs>
      <path d="M 64.40625 67.28125 
L 64.40625 56.890625 
Q 59.421875 61.53125 53.78125 63.8125 
Q 48.140625 66.109375 41.796875 66.109375 
Q 29.296875 66.109375 22.65625 58.46875 
Q 16.015625 50.828125 16.015625 36.375 
Q 16.015625 21.96875 22.65625 14.328125 
Q 29.296875 6.6875 41.796875 6.6875 
Q 48.140625 6.6875 53.78125 8.984375 
Q 59.421875 11.28125 64.40625 15.921875 
L 64.40625 5.609375 
Q 59.234375 2.09375 53.4375 0.328125 
Q 47.65625 -1.421875 41.21875 -1.421875 
Q 24.65625 -1.421875 15.125 8.703125 
Q 5.609375 18.84375 5.609375 36.375 
Q 5.609375 53.953125 15.125 64.078125 
Q 24.65625 74.21875 41.21875 74.21875 
Q 47.75 74.21875 53.53125 72.484375 
Q 59.328125 70.75 64.40625 67.28125 
z
" id="DejaVuSans-43"/>
      <path d="M 8.5 21.578125 
L 8.5 54.6875 
L 17.484375 54.6875 
L 17.484375 21.921875 
Q 17.484375 14.15625 20.5 10.265625 
Q 23.53125 6.390625 29.59375 6.390625 
Q 36.859375 6.390625 41.078125 11.03125 
Q 45.3125 15.671875 45.3125 23.6875 
L 45.3125 54.6875 
L 54.296875 54.6875 
L 54.296875 0 
L 45.3125 0 
L 45.3125 8.40625 
Q 42.046875 3.421875 37.71875 1 
Q 33.40625 -1.421875 27.6875 -1.421875 
Q 18.265625 -1.421875 13.375 4.4375 
Q 8.5 10.296875 8.5 21.578125 
z
M 31.109375 56 
z
" id="DejaVuSans-75"/>
      <path d="M 41.109375 46.296875 
Q 39.59375 47.171875 37.8125 47.578125 
Q 36.03125 48 33.890625 48 
Q 26.265625 48 22.1875 43.046875 
Q 18.109375 38.09375 18.109375 28.8125 
L 18.109375 0 
L 9.078125 0 
L 9.078125 54.6875 
L 18.109375 54.6875 
L 18.109375 46.1875 
Q 20.953125 51.171875 25.484375 53.578125 
Q 30.03125 56 36.53125 56 
Q 37.453125 56 38.578125 55.875 
Q 39.703125 55.765625 41.0625 55.515625 
z
" id="DejaVuSans-72"/>
      <path d="M 54.890625 33.015625 
L 54.890625 0 
L 45.90625 0 
L 45.90625 32.71875 
Q 45.90625 40.484375 42.875 44.328125 
Q 39.84375 48.1875 33.796875 48.1875 
Q 26.515625 48.1875 22.3125 43.546875 
Q 18.109375 38.921875 18.109375 30.90625 
L 18.109375 0 
L 9.078125 0 
L 9.078125 54.6875 
L 18.109375 54.6875 
L 18.109375 46.1875 
Q 21.34375 51.125 25.703125 53.5625 
Q 30.078125 56 35.796875 56 
Q 45.21875 56 50.046875 50.171875 
Q 54.890625 44.34375 54.890625 33.015625 
z
" id="DejaVuSans-6e"/>
     </defs>
     <g transform="translate(1209.510937 102.998438)scale(0.1 -0.1)">
      <use xlink:href="#DejaVuSans-43"/>
      <use x="69.824219" xlink:href="#DejaVuSans-75"/>
      <use x="133.203125" xlink:href="#DejaVuSans-72"/>
      <use x="174.300781" xlink:href="#DejaVuSans-72"/>
      <use x="215.382812" xlink:href="#DejaVuSans-65"/>
      <use x="276.90625" xlink:href="#DejaVuSans-6e"/>
      <use x="340.285156" xlink:href="#DejaVuSans-74"/>
      <use x="379.494141" xlink:href="#DejaVuSans-53"/>
      <use x="442.970703" xlink:href="#DejaVuSans-74"/>
      <use x="482.179688" xlink:href="#DejaVuSans-61"/>
      <use x="543.458984" xlink:href="#DejaVuSans-74"/>
      <use x="582.667969" xlink:href="#DejaVuSans-65"/>
     </g>
    </g>
    <g id="line2d_17">
     <path d="M 1181.510937 114.176563 
L 1201.510937 114.176563 
" style="fill:none;stroke:#ff0000;stroke-linecap:square;stroke-width:1.5;"/>
    </g>
    <g id="line2d_18"/>
    <g id="text_15">
     <!-- ReferenceState -->
     <defs>
      <path d="M 44.390625 34.1875 
Q 47.5625 33.109375 50.5625 29.59375 
Q 53.5625 26.078125 56.59375 19.921875 
L 66.609375 0 
L 56 0 
L 46.6875 18.703125 
Q 43.0625 26.03125 39.671875 28.421875 
Q 36.28125 30.8125 30.421875 30.8125 
L 19.671875 30.8125 
L 19.671875 0 
L 9.8125 0 
L 9.8125 72.90625 
L 32.078125 72.90625 
Q 44.578125 72.90625 50.734375 67.671875 
Q 56.890625 62.453125 56.890625 51.90625 
Q 56.890625 45.015625 53.6875 40.46875 
Q 50.484375 35.9375 44.390625 34.1875 
z
M 19.671875 64.796875 
L 19.671875 38.921875 
L 32.078125 38.921875 
Q 39.203125 38.921875 42.84375 42.21875 
Q 46.484375 45.515625 46.484375 51.90625 
Q 46.484375 58.296875 42.84375 61.546875 
Q 39.203125 64.796875 32.078125 64.796875 
z
" id="DejaVuSans-52"/>
      <path d="M 37.109375 75.984375 
L 37.109375 68.5 
L 28.515625 68.5 
Q 23.6875 68.5 21.796875 66.546875 
Q 19.921875 64.59375 19.921875 59.515625 
L 19.921875 54.6875 
L 34.71875 54.6875 
L 34.71875 47.703125 
L 19.921875 47.703125 
L 19.921875 0 
L 10.890625 0 
L 10.890625 47.703125 
L 2.296875 47.703125 
L 2.296875 54.6875 
L 10.890625 54.6875 
L 10.890625 58.5 
Q 10.890625 67.625 15.140625 71.796875 
Q 19.390625 75.984375 28.609375 75.984375 
z
" id="DejaVuSans-66"/>
      <path d="M 48.78125 52.59375 
L 48.78125 44.1875 
Q 44.96875 46.296875 41.140625 47.34375 
Q 37.3125 48.390625 33.40625 48.390625 
Q 24.65625 48.390625 19.8125 42.84375 
Q 14.984375 37.3125 14.984375 27.296875 
Q 14.984375 17.28125 19.8125 11.734375 
Q 24.65625 6.203125 33.40625 6.203125 
Q 37.3125 6.203125 41.140625 7.25 
Q 44.96875 8.296875 48.78125 10.40625 
L 48.78125 2.09375 
Q 45.015625 0.34375 40.984375 -0.53125 
Q 36.96875 -1.421875 32.421875 -1.421875 
Q 20.0625 -1.421875 12.78125 6.34375 
Q 5.515625 14.109375 5.515625 27.296875 
Q 5.515625 40.671875 12.859375 48.328125 
Q 20.21875 56 33.015625 56 
Q 37.15625 56 41.109375 55.140625 
Q 45.0625 54.296875 48.78125 52.59375 
z
" id="DejaVuSans-63"/>
     </defs>
     <g transform="translate(1209.510937 117.676563)scale(0.1 -0.1)">
      <use xlink:href="#DejaVuSans-52"/>
      <use x="69.419922" xlink:href="#DejaVuSans-65"/>
      <use x="130.943359" xlink:href="#DejaVuSans-66"/>
      <use x="166.148438" xlink:href="#DejaVuSans-65"/>
      <use x="227.671875" xlink:href="#DejaVuSans-72"/>
      <use x="268.753906" xlink:href="#DejaVuSans-65"/>
      <use x="330.277344" xlink:href="#DejaVuSans-6e"/>
      <use x="393.65625" xlink:href="#DejaVuSans-63"/>
      <use x="448.636719" xlink:href="#DejaVuSans-65"/>
      <use x="510.160156" xlink:href="#DejaVuSans-53"/>
      <use x="573.636719" xlink:href="#DejaVuSans-74"/>
      <use x="612.845703" xlink:href="#DejaVuSans-61"/>
      <use x="674.125" xlink:href="#DejaVuSans-74"/>
      <use x="713.333984" xlink:href="#DejaVuSans-65"/>
     </g>
    </g>
   </g>
  </g>
  <g id="axes_2">
   <g id="patch_8">
    <path d="M 180 445.129412 
L 1296 445.129412 
L 1296 282.070588 
L 180 282.070588 
z
" style="fill:#ffffff;"/>
   </g>
   <g id="matplotlib.axis_3">
    <g id="xtick_7">
     <g id="line2d_19">
      <g>
       <use style="stroke:#000000;stroke-width:0.8;" x="230.727273" xlink:href="#me511f002c0" y="445.129412"/>
      </g>
     </g>
     <g id="text_16">
      <!-- 0 -->
      <g transform="translate(227.546023 459.727849)scale(0.1 -0.1)">
       <use xlink:href="#DejaVuSans-30"/>
      </g>
     </g>
    </g>
    <g id="xtick_8">
     <g id="line2d_20">
      <g>
       <use style="stroke:#000000;stroke-width:0.8;" x="435.68595" xlink:href="#me511f002c0" y="445.129412"/>
      </g>
     </g>
     <g id="text_17">
      <!-- 20 -->
      <g transform="translate(429.32345 459.727849)scale(0.1 -0.1)">
       <use xlink:href="#DejaVuSans-32"/>
       <use x="63.623047" xlink:href="#DejaVuSans-30"/>
      </g>
     </g>
    </g>
    <g id="xtick_9">
     <g id="line2d_21">
      <g>
       <use style="stroke:#000000;stroke-width:0.8;" x="640.644628" xlink:href="#me511f002c0" y="445.129412"/>
      </g>
     </g>
     <g id="text_18">
      <!-- 40 -->
      <g transform="translate(634.282128 459.727849)scale(0.1 -0.1)">
       <use xlink:href="#DejaVuSans-34"/>
       <use x="63.623047" xlink:href="#DejaVuSans-30"/>
      </g>
     </g>
    </g>
    <g id="xtick_10">
     <g id="line2d_22">
      <g>
       <use style="stroke:#000000;stroke-width:0.8;" x="845.603306" xlink:href="#me511f002c0" y="445.129412"/>
      </g>
     </g>
     <g id="text_19">
      <!-- 60 -->
      <g transform="translate(839.240806 459.727849)scale(0.1 -0.1)">
       <use xlink:href="#DejaVuSans-36"/>
       <use x="63.623047" xlink:href="#DejaVuSans-30"/>
      </g>
     </g>
    </g>
    <g id="xtick_11">
     <g id="line2d_23">
      <g>
       <use style="stroke:#000000;stroke-width:0.8;" x="1050.561983" xlink:href="#me511f002c0" y="445.129412"/>
      </g>
     </g>
     <g id="text_20">
      <!-- 80 -->
      <g transform="translate(1044.199483 459.727849)scale(0.1 -0.1)">
       <use xlink:href="#DejaVuSans-38"/>
       <use x="63.623047" xlink:href="#DejaVuSans-30"/>
      </g>
     </g>
    </g>
    <g id="xtick_12">
     <g id="line2d_24">
      <g>
       <use style="stroke:#000000;stroke-width:0.8;" x="1255.520661" xlink:href="#me511f002c0" y="445.129412"/>
      </g>
     </g>
     <g id="text_21">
      <!-- 100 -->
      <g transform="translate(1245.976911 459.727849)scale(0.1 -0.1)">
       <use xlink:href="#DejaVuSans-31"/>
       <use x="63.623047" xlink:href="#DejaVuSans-30"/>
       <use x="127.246094" xlink:href="#DejaVuSans-30"/>
      </g>
     </g>
    </g>
   </g>
   <g id="matplotlib.axis_4">
    <g id="ytick_7">
     <g id="line2d_25">
      <g>
       <use style="stroke:#000000;stroke-width:0.8;" x="180" xlink:href="#m2d75ec4403" y="440.385562"/>
      </g>
     </g>
     <g id="text_22">
      <!-- −15 -->
      <defs>
       <path d="M 10.59375 35.5 
L 73.1875 35.5 
L 73.1875 27.203125 
L 10.59375 27.203125 
z
" id="DejaVuSans-2212"/>
       <path d="M 10.796875 72.90625 
L 49.515625 72.90625 
L 49.515625 64.59375 
L 19.828125 64.59375 
L 19.828125 46.734375 
Q 21.96875 47.46875 24.109375 47.828125 
Q 26.265625 48.1875 28.421875 48.1875 
Q 40.625 48.1875 47.75 41.5 
Q 54.890625 34.8125 54.890625 23.390625 
Q 54.890625 11.625 47.5625 5.09375 
Q 40.234375 -1.421875 26.90625 -1.421875 
Q 22.3125 -1.421875 17.546875 -0.640625 
Q 12.796875 0.140625 7.71875 1.703125 
L 7.71875 11.625 
Q 12.109375 9.234375 16.796875 8.0625 
Q 21.484375 6.890625 26.703125 6.890625 
Q 35.15625 6.890625 40.078125 11.328125 
Q 45.015625 15.765625 45.015625 23.390625 
Q 45.015625 31 40.078125 35.4375 
Q 35.15625 39.890625 26.703125 39.890625 
Q 22.75 39.890625 18.8125 39.015625 
Q 14.890625 38.140625 10.796875 36.28125 
z
" id="DejaVuSans-35"/>
      </defs>
      <g transform="translate(151.895312 444.184781)scale(0.1 -0.1)">
       <use xlink:href="#DejaVuSans-2212"/>
       <use x="83.789062" xlink:href="#DejaVuSans-31"/>
       <use x="147.412109" xlink:href="#DejaVuSans-35"/>
      </g>
     </g>
    </g>
    <g id="ytick_8">
     <g id="line2d_26">
      <g>
       <use style="stroke:#000000;stroke-width:0.8;" x="180" xlink:href="#m2d75ec4403" y="415.451148"/>
      </g>
     </g>
     <g id="text_23">
      <!-- −10 -->
      <g transform="translate(151.895312 419.250367)scale(0.1 -0.1)">
       <use xlink:href="#DejaVuSans-2212"/>
       <use x="83.789062" xlink:href="#DejaVuSans-31"/>
       <use x="147.412109" xlink:href="#DejaVuSans-30"/>
      </g>
     </g>
    </g>
    <g id="ytick_9">
     <g id="line2d_27">
      <g>
       <use style="stroke:#000000;stroke-width:0.8;" x="180" xlink:href="#m2d75ec4403" y="390.516734"/>
      </g>
     </g>
     <g id="text_24">
      <!-- −5 -->
      <g transform="translate(158.257812 394.315952)scale(0.1 -0.1)">
       <use xlink:href="#DejaVuSans-2212"/>
       <use x="83.789062" xlink:href="#DejaVuSans-35"/>
      </g>
     </g>
    </g>
    <g id="ytick_10">
     <g id="line2d_28">
      <g>
       <use style="stroke:#000000;stroke-width:0.8;" x="180" xlink:href="#m2d75ec4403" y="365.582319"/>
      </g>
     </g>
     <g id="text_25">
      <!-- 0 -->
      <g transform="translate(166.6375 369.381538)scale(0.1 -0.1)">
       <use xlink:href="#DejaVuSans-30"/>
      </g>
     </g>
    </g>
    <g id="ytick_11">
     <g id="line2d_29">
      <g>
       <use style="stroke:#000000;stroke-width:0.8;" x="180" xlink:href="#m2d75ec4403" y="340.647905"/>
      </g>
     </g>
     <g id="text_26">
      <!-- 5 -->
      <g transform="translate(166.6375 344.447124)scale(0.1 -0.1)">
       <use xlink:href="#DejaVuSans-35"/>
      </g>
     </g>
    </g>
    <g id="ytick_12">
     <g id="line2d_30">
      <g>
       <use style="stroke:#000000;stroke-width:0.8;" x="180" xlink:href="#m2d75ec4403" y="315.713491"/>
      </g>
     </g>
     <g id="text_27">
      <!-- 10 -->
      <g transform="translate(160.275 319.51271)scale(0.1 -0.1)">
       <use xlink:href="#DejaVuSans-31"/>
       <use x="63.623047" xlink:href="#DejaVuSans-30"/>
      </g>
     </g>
    </g>
    <g id="ytick_13">
     <g id="line2d_31">
      <g>
       <use style="stroke:#000000;stroke-width:0.8;" x="180" xlink:href="#m2d75ec4403" y="290.779077"/>
      </g>
     </g>
     <g id="text_28">
      <!-- 15 -->
      <g transform="translate(160.275 294.578296)scale(0.1 -0.1)">
       <use xlink:href="#DejaVuSans-31"/>
       <use x="63.623047" xlink:href="#DejaVuSans-35"/>
      </g>
     </g>
    </g>
    <g id="text_29">
     <!-- State:1 -->
     <g transform="translate(145.815625 381.700781)rotate(-90)scale(0.1 -0.1)">
      <use xlink:href="#DejaVuSans-53"/>
      <use x="63.476562" xlink:href="#DejaVuSans-74"/>
      <use x="102.685547" xlink:href="#DejaVuSans-61"/>
      <use x="163.964844" xlink:href="#DejaVuSans-74"/>
      <use x="203.173828" xlink:href="#DejaVuSans-65"/>
      <use x="264.697266" xlink:href="#DejaVuSans-3a"/>
      <use x="298.388672" xlink:href="#DejaVuSans-31"/>
     </g>
    </g>
   </g>
   <g id="line2d_32">
    <path clip-path="url(#p2f1629d25e)" d="M 230.727273 289.482353 
L 240.975207 300.99796 
L 251.22314 380.481484 
L 261.471074 420.353015 
L 271.719008 437.717647 
L 281.966942 431.057091 
L 292.214876 415.516275 
L 302.46281 407.391664 
L 312.710744 400.57396 
L 322.958678 394.891594 
L 333.206612 390.130377 
L 343.454545 386.153701 
L 353.702479 382.80443 
L 363.950413 380.000701 
L 374.198347 377.66297 
L 384.446281 375.687888 
L 394.694215 374.053176 
L 404.942149 372.666545 
L 415.190083 371.513115 
L 425.438017 370.545234 
L 435.68595 369.740376 
L 445.933884 369.063835 
L 456.181818 368.506713 
L 466.429752 368.021342 
L 476.677686 367.632118 
L 486.92562 367.290832 
L 497.173554 367.01451 
L 507.421488 366.77771 
L 517.669421 366.585387 
L 527.917355 366.421253 
L 538.165289 366.288011 
L 548.413223 366.17185 
L 558.661157 366.075597 
L 568.909091 365.987166 
L 579.157025 365.930766 
L 589.404959 365.906511 
L 599.652893 365.841284 
L 609.900826 365.778014 
L 620.14876 365.745052 
L 630.396694 365.71857 
L 640.644628 365.714453 
L 650.892562 365.685326 
L 661.140496 365.666737 
L 671.38843 365.613069 
L 681.636364 365.608625 
L 691.884298 365.615917 
L 702.132231 365.603406 
L 712.380165 365.604969 
L 722.628099 365.598185 
L 732.876033 365.57994 
L 743.123967 365.595206 
L 753.371901 365.579272 
L 763.619835 365.59955 
L 773.867769 365.581844 
L 784.115702 365.578523 
L 794.363636 365.583515 
L 804.61157 365.555492 
L 814.859504 365.590683 
L 825.107438 365.564453 
L 835.355372 365.606703 
L 845.603306 365.353682 
L 855.85124 365.379905 
L 866.099174 365.462769 
L 876.347107 365.551298 
L 886.595041 365.635954 
L 896.842975 365.592707 
L 907.090909 365.658287 
L 917.338843 366.150837 
L 927.586777 366.129513 
L 937.834711 365.983217 
L 948.082645 365.820194 
L 958.330579 365.667845 
L 968.578512 365.912579 
L 978.826446 365.859403 
L 989.07438 365.737217 
L 999.322314 365.608569 
L 1009.570248 365.692273 
L 1019.818182 365.631079 
L 1030.066116 365.706868 
L 1040.31405 365.625484 
L 1050.561983 365.702484 
L 1060.809917 365.615753 
L 1071.057851 365.696302 
L 1081.305785 365.606554 
L 1091.553719 365.690517 
L 1101.801653 365.598573 
L 1112.049587 365.685387 
L 1122.297521 365.591849 
L 1132.545455 365.681035 
L 1142.793388 365.586327 
L 1153.041322 365.689701 
L 1163.289256 365.595341 
L 1173.53719 365.69884 
L 1183.785124 365.602361 
L 1194.033058 365.705048 
L 1204.280992 365.607137 
L 1214.528926 365.722 
L 1224.77686 365.624571 
L 1235.024793 365.529274 
L 1245.272727 365.509933 
" style="fill:none;stroke:#000000;stroke-linecap:square;stroke-width:4;"/>
   </g>
   <g id="line2d_33">
    <path clip-path="url(#p2f1629d25e)" d="M 230.727273 365.582319 
L 240.975207 365.582319 
L 251.22314 365.582319 
L 261.471074 365.582319 
L 271.719008 365.582319 
L 281.966942 365.582319 
L 292.214876 365.582319 
L 302.46281 365.582319 
L 312.710744 365.582319 
L 322.958678 365.582319 
L 333.206612 365.582319 
L 343.454545 365.582319 
L 353.702479 365.582319 
L 363.950413 365.582319 
L 374.198347 365.582319 
L 384.446281 365.582319 
L 394.694215 365.582319 
L 404.942149 365.582319 
L 415.190083 365.582319 
L 425.438017 365.582319 
L 435.68595 365.582319 
L 445.933884 365.582319 
L 456.181818 365.582319 
L 466.429752 365.582319 
L 476.677686 365.582319 
L 486.92562 365.582319 
L 497.173554 365.582319 
L 507.421488 365.582319 
L 517.669421 365.582319 
L 527.917355 365.582319 
L 538.165289 365.582319 
L 548.413223 365.582319 
L 558.661157 365.582319 
L 568.909091 365.582319 
L 579.157025 365.582319 
L 589.404959 365.582319 
L 599.652893 365.582319 
L 609.900826 365.582319 
L 620.14876 365.582319 
L 630.396694 365.582319 
L 640.644628 365.582319 
L 650.892562 365.582319 
L 661.140496 365.582319 
L 671.38843 365.582319 
L 681.636364 365.582319 
L 691.884298 365.582319 
L 702.132231 365.582319 
L 712.380165 365.582319 
L 722.628099 365.582319 
L 732.876033 365.582319 
L 743.123967 365.582319 
L 753.371901 365.582319 
L 763.619835 365.582319 
L 773.867769 365.582319 
L 784.115702 365.582319 
L 794.363636 365.582319 
L 804.61157 365.582319 
L 814.859504 365.582319 
L 825.107438 365.582319 
L 835.355372 365.582319 
L 845.603306 365.582319 
L 855.85124 365.582319 
L 866.099174 365.582319 
L 876.347107 365.582319 
L 886.595041 365.582319 
L 896.842975 365.582319 
L 907.090909 365.582319 
L 917.338843 365.582319 
L 927.586777 365.582319 
L 937.834711 365.582319 
L 948.082645 365.582319 
L 958.330579 365.582319 
L 968.578512 365.582319 
L 978.826446 365.582319 
L 989.07438 365.582319 
L 999.322314 365.582319 
L 1009.570248 365.582319 
L 1019.818182 365.582319 
L 1030.066116 365.582319 
L 1040.31405 365.582319 
L 1050.561983 365.582319 
L 1060.809917 365.582319 
L 1071.057851 365.582319 
L 1081.305785 365.582319 
L 1091.553719 365.582319 
L 1101.801653 365.582319 
L 1112.049587 365.582319 
L 1122.297521 365.582319 
L 1132.545455 365.582319 
L 1142.793388 365.582319 
L 1153.041322 365.582319 
L 1163.289256 365.582319 
L 1173.53719 365.582319 
L 1183.785124 365.582319 
L 1194.033058 365.582319 
L 1204.280992 365.582319 
L 1214.528926 365.582319 
L 1224.77686 365.582319 
L 1235.024793 365.582319 
L 1245.272727 365.582319 
" style="fill:none;stroke:#ff0000;stroke-linecap:square;stroke-width:1.5;"/>
   </g>
   <g id="patch_9">
    <path d="M 180 445.129412 
L 180 282.070588 
" style="fill:none;stroke:#000000;stroke-linecap:square;stroke-linejoin:miter;stroke-width:0.8;"/>
   </g>
   <g id="patch_10">
    <path d="M 1296 445.129412 
L 1296 282.070588 
" style="fill:none;stroke:#000000;stroke-linecap:square;stroke-linejoin:miter;stroke-width:0.8;"/>
   </g>
   <g id="patch_11">
    <path d="M 180 445.129412 
L 1296 445.129412 
" style="fill:none;stroke:#000000;stroke-linecap:square;stroke-linejoin:miter;stroke-width:0.8;"/>
   </g>
   <g id="patch_12">
    <path d="M 180 282.070588 
L 1296 282.070588 
" style="fill:none;stroke:#000000;stroke-linecap:square;stroke-linejoin:miter;stroke-width:0.8;"/>
   </g>
   <g id="legend_2">
    <g id="patch_13">
     <path d="M 1179.510937 319.426838 
L 1289 319.426838 
Q 1291 319.426838 1291 317.426838 
L 1291 289.070588 
Q 1291 287.070588 1289 287.070588 
L 1179.510937 287.070588 
Q 1177.510937 287.070588 1177.510937 289.070588 
L 1177.510937 317.426838 
Q 1177.510937 319.426838 1179.510937 319.426838 
z
" style="fill:#ffffff;opacity:0.8;stroke:#cccccc;stroke-linejoin:miter;"/>
    </g>
    <g id="line2d_34">
     <path d="M 1181.510937 295.169026 
L 1201.510937 295.169026 
" style="fill:none;stroke:#000000;stroke-linecap:square;stroke-width:4;"/>
    </g>
    <g id="line2d_35"/>
    <g id="text_30">
     <!-- CurrentState -->
     <g transform="translate(1209.510937 298.669026)scale(0.1 -0.1)">
      <use xlink:href="#DejaVuSans-43"/>
      <use x="69.824219" xlink:href="#DejaVuSans-75"/>
      <use x="133.203125" xlink:href="#DejaVuSans-72"/>
      <use x="174.300781" xlink:href="#DejaVuSans-72"/>
      <use x="215.382812" xlink:href="#DejaVuSans-65"/>
      <use x="276.90625" xlink:href="#DejaVuSans-6e"/>
      <use x="340.285156" xlink:href="#DejaVuSans-74"/>
      <use x="379.494141" xlink:href="#DejaVuSans-53"/>
      <use x="442.970703" xlink:href="#DejaVuSans-74"/>
      <use x="482.179688" xlink:href="#DejaVuSans-61"/>
      <use x="543.458984" xlink:href="#DejaVuSans-74"/>
      <use x="582.667969" xlink:href="#DejaVuSans-65"/>
     </g>
    </g>
    <g id="line2d_36">
     <path d="M 1181.510937 309.847151 
L 1201.510937 309.847151 
" style="fill:none;stroke:#ff0000;stroke-linecap:square;stroke-width:1.5;"/>
    </g>
    <g id="line2d_37"/>
    <g id="text_31">
     <!-- ReferenceState -->
     <g transform="translate(1209.510937 313.347151)scale(0.1 -0.1)">
      <use xlink:href="#DejaVuSans-52"/>
      <use x="69.419922" xlink:href="#DejaVuSans-65"/>
      <use x="130.943359" xlink:href="#DejaVuSans-66"/>
      <use x="166.148438" xlink:href="#DejaVuSans-65"/>
      <use x="227.671875" xlink:href="#DejaVuSans-72"/>
      <use x="268.753906" xlink:href="#DejaVuSans-65"/>
      <use x="330.277344" xlink:href="#DejaVuSans-6e"/>
      <use x="393.65625" xlink:href="#DejaVuSans-63"/>
      <use x="448.636719" xlink:href="#DejaVuSans-65"/>
      <use x="510.160156" xlink:href="#DejaVuSans-53"/>
      <use x="573.636719" xlink:href="#DejaVuSans-74"/>
      <use x="612.845703" xlink:href="#DejaVuSans-61"/>
      <use x="674.125" xlink:href="#DejaVuSans-74"/>
      <use x="713.333984" xlink:href="#DejaVuSans-65"/>
     </g>
    </g>
   </g>
  </g>
  <g id="axes_3">
   <g id="patch_14">
    <path d="M 180 640.8 
L 1296 640.8 
L 1296 477.741176 
L 180 477.741176 
z
" style="fill:#ffffff;"/>
   </g>
   <g id="matplotlib.axis_5">
    <g id="xtick_13">
     <g id="line2d_38">
      <g>
       <use style="stroke:#000000;stroke-width:0.8;" x="230.727273" xlink:href="#me511f002c0" y="640.8"/>
      </g>
     </g>
     <g id="text_32">
      <!-- 0 -->
      <g transform="translate(227.546023 655.398438)scale(0.1 -0.1)">
       <use xlink:href="#DejaVuSans-30"/>
      </g>
     </g>
    </g>
    <g id="xtick_14">
     <g id="line2d_39">
      <g>
       <use style="stroke:#000000;stroke-width:0.8;" x="435.68595" xlink:href="#me511f002c0" y="640.8"/>
      </g>
     </g>
     <g id="text_33">
      <!-- 20 -->
      <g transform="translate(429.32345 655.398438)scale(0.1 -0.1)">
       <use xlink:href="#DejaVuSans-32"/>
       <use x="63.623047" xlink:href="#DejaVuSans-30"/>
      </g>
     </g>
    </g>
    <g id="xtick_15">
     <g id="line2d_40">
      <g>
       <use style="stroke:#000000;stroke-width:0.8;" x="640.644628" xlink:href="#me511f002c0" y="640.8"/>
      </g>
     </g>
     <g id="text_34">
      <!-- 40 -->
      <g transform="translate(634.282128 655.398438)scale(0.1 -0.1)">
       <use xlink:href="#DejaVuSans-34"/>
       <use x="63.623047" xlink:href="#DejaVuSans-30"/>
      </g>
     </g>
    </g>
    <g id="xtick_16">
     <g id="line2d_41">
      <g>
       <use style="stroke:#000000;stroke-width:0.8;" x="845.603306" xlink:href="#me511f002c0" y="640.8"/>
      </g>
     </g>
     <g id="text_35">
      <!-- 60 -->
      <g transform="translate(839.240806 655.398438)scale(0.1 -0.1)">
       <use xlink:href="#DejaVuSans-36"/>
       <use x="63.623047" xlink:href="#DejaVuSans-30"/>
      </g>
     </g>
    </g>
    <g id="xtick_17">
     <g id="line2d_42">
      <g>
       <use style="stroke:#000000;stroke-width:0.8;" x="1050.561983" xlink:href="#me511f002c0" y="640.8"/>
      </g>
     </g>
     <g id="text_36">
      <!-- 80 -->
      <g transform="translate(1044.199483 655.398438)scale(0.1 -0.1)">
       <use xlink:href="#DejaVuSans-38"/>
       <use x="63.623047" xlink:href="#DejaVuSans-30"/>
      </g>
     </g>
    </g>
    <g id="xtick_18">
     <g id="line2d_43">
      <g>
       <use style="stroke:#000000;stroke-width:0.8;" x="1255.520661" xlink:href="#me511f002c0" y="640.8"/>
      </g>
     </g>
     <g id="text_37">
      <!-- 100 -->
      <g transform="translate(1245.976911 655.398438)scale(0.1 -0.1)">
       <use xlink:href="#DejaVuSans-31"/>
       <use x="63.623047" xlink:href="#DejaVuSans-30"/>
       <use x="127.246094" xlink:href="#DejaVuSans-30"/>
      </g>
     </g>
    </g>
    <g id="text_38">
     <!-- Time -->
     <defs>
      <path d="M -0.296875 72.90625 
L 61.375 72.90625 
L 61.375 64.59375 
L 35.5 64.59375 
L 35.5 0 
L 25.59375 0 
L 25.59375 64.59375 
L -0.296875 64.59375 
z
" id="DejaVuSans-54"/>
      <path d="M 9.421875 54.6875 
L 18.40625 54.6875 
L 18.40625 0 
L 9.421875 0 
z
M 9.421875 75.984375 
L 18.40625 75.984375 
L 18.40625 64.59375 
L 9.421875 64.59375 
z
" id="DejaVuSans-69"/>
      <path d="M 52 44.1875 
Q 55.375 50.25 60.0625 53.125 
Q 64.75 56 71.09375 56 
Q 79.640625 56 84.28125 50.015625 
Q 88.921875 44.046875 88.921875 33.015625 
L 88.921875 0 
L 79.890625 0 
L 79.890625 32.71875 
Q 79.890625 40.578125 77.09375 44.375 
Q 74.3125 48.1875 68.609375 48.1875 
Q 61.625 48.1875 57.5625 43.546875 
Q 53.515625 38.921875 53.515625 30.90625 
L 53.515625 0 
L 44.484375 0 
L 44.484375 32.71875 
Q 44.484375 40.625 41.703125 44.40625 
Q 38.921875 48.1875 33.109375 48.1875 
Q 26.21875 48.1875 22.15625 43.53125 
Q 18.109375 38.875 18.109375 30.90625 
L 18.109375 0 
L 9.078125 0 
L 9.078125 54.6875 
L 18.109375 54.6875 
L 18.109375 46.1875 
Q 21.1875 51.21875 25.484375 53.609375 
Q 29.78125 56 35.6875 56 
Q 41.65625 56 45.828125 52.96875 
Q 50 49.953125 52 44.1875 
z
" id="DejaVuSans-6d"/>
     </defs>
     <g transform="translate(725.6125 669.076563)scale(0.1 -0.1)">
      <use xlink:href="#DejaVuSans-54"/>
      <use x="61.037109" xlink:href="#DejaVuSans-69"/>
      <use x="88.820312" xlink:href="#DejaVuSans-6d"/>
      <use x="186.232422" xlink:href="#DejaVuSans-65"/>
     </g>
    </g>
   </g>
   <g id="matplotlib.axis_6">
    <g id="ytick_14">
     <g id="line2d_44">
      <g>
       <use style="stroke:#000000;stroke-width:0.8;" x="180" xlink:href="#m2d75ec4403" y="632.633413"/>
      </g>
     </g>
     <g id="text_39">
      <!-- 0 -->
      <g transform="translate(166.6375 636.432632)scale(0.1 -0.1)">
       <use xlink:href="#DejaVuSans-30"/>
      </g>
     </g>
    </g>
    <g id="ytick_15">
     <g id="line2d_45">
      <g>
       <use style="stroke:#000000;stroke-width:0.8;" x="180" xlink:href="#m2d75ec4403" y="609.053918"/>
      </g>
     </g>
     <g id="text_40">
      <!-- 25 -->
      <g transform="translate(160.275 612.853137)scale(0.1 -0.1)">
       <use xlink:href="#DejaVuSans-32"/>
       <use x="63.623047" xlink:href="#DejaVuSans-35"/>
      </g>
     </g>
    </g>
    <g id="ytick_16">
     <g id="line2d_46">
      <g>
       <use style="stroke:#000000;stroke-width:0.8;" x="180" xlink:href="#m2d75ec4403" y="585.474424"/>
      </g>
     </g>
     <g id="text_41">
      <!-- 50 -->
      <g transform="translate(160.275 589.273642)scale(0.1 -0.1)">
       <use xlink:href="#DejaVuSans-35"/>
       <use x="63.623047" xlink:href="#DejaVuSans-30"/>
      </g>
     </g>
    </g>
    <g id="ytick_17">
     <g id="line2d_47">
      <g>
       <use style="stroke:#000000;stroke-width:0.8;" x="180" xlink:href="#m2d75ec4403" y="561.894929"/>
      </g>
     </g>
     <g id="text_42">
      <!-- 75 -->
      <defs>
       <path d="M 8.203125 72.90625 
L 55.078125 72.90625 
L 55.078125 68.703125 
L 28.609375 0 
L 18.3125 0 
L 43.21875 64.59375 
L 8.203125 64.59375 
z
" id="DejaVuSans-37"/>
      </defs>
      <g transform="translate(160.275 565.694147)scale(0.1 -0.1)">
       <use xlink:href="#DejaVuSans-37"/>
       <use x="63.623047" xlink:href="#DejaVuSans-35"/>
      </g>
     </g>
    </g>
    <g id="ytick_18">
     <g id="line2d_48">
      <g>
       <use style="stroke:#000000;stroke-width:0.8;" x="180" xlink:href="#m2d75ec4403" y="538.315434"/>
      </g>
     </g>
     <g id="text_43">
      <!-- 100 -->
      <g transform="translate(153.9125 542.114653)scale(0.1 -0.1)">
       <use xlink:href="#DejaVuSans-31"/>
       <use x="63.623047" xlink:href="#DejaVuSans-30"/>
       <use x="127.246094" xlink:href="#DejaVuSans-30"/>
      </g>
     </g>
    </g>
    <g id="ytick_19">
     <g id="line2d_49">
      <g>
       <use style="stroke:#000000;stroke-width:0.8;" x="180" xlink:href="#m2d75ec4403" y="514.735939"/>
      </g>
     </g>
     <g id="text_44">
      <!-- 125 -->
      <g transform="translate(153.9125 518.535158)scale(0.1 -0.1)">
       <use xlink:href="#DejaVuSans-31"/>
       <use x="63.623047" xlink:href="#DejaVuSans-32"/>
       <use x="127.246094" xlink:href="#DejaVuSans-35"/>
      </g>
     </g>
    </g>
    <g id="ytick_20">
     <g id="line2d_50">
      <g>
       <use style="stroke:#000000;stroke-width:0.8;" x="180" xlink:href="#m2d75ec4403" y="491.156444"/>
      </g>
     </g>
     <g id="text_45">
      <!-- 150 -->
      <g transform="translate(153.9125 494.955663)scale(0.1 -0.1)">
       <use xlink:href="#DejaVuSans-31"/>
       <use x="63.623047" xlink:href="#DejaVuSans-35"/>
       <use x="127.246094" xlink:href="#DejaVuSans-30"/>
      </g>
     </g>
    </g>
    <g id="text_46">
     <!-- Control Input -->
     <defs>
      <path d="M 30.609375 48.390625 
Q 23.390625 48.390625 19.1875 42.75 
Q 14.984375 37.109375 14.984375 27.296875 
Q 14.984375 17.484375 19.15625 11.84375 
Q 23.34375 6.203125 30.609375 6.203125 
Q 37.796875 6.203125 41.984375 11.859375 
Q 46.1875 17.53125 46.1875 27.296875 
Q 46.1875 37.015625 41.984375 42.703125 
Q 37.796875 48.390625 30.609375 48.390625 
z
M 30.609375 56 
Q 42.328125 56 49.015625 48.375 
Q 55.71875 40.765625 55.71875 27.296875 
Q 55.71875 13.875 49.015625 6.21875 
Q 42.328125 -1.421875 30.609375 -1.421875 
Q 18.84375 -1.421875 12.171875 6.21875 
Q 5.515625 13.875 5.515625 27.296875 
Q 5.515625 40.765625 12.171875 48.375 
Q 18.84375 56 30.609375 56 
z
" id="DejaVuSans-6f"/>
      <path d="M 9.421875 75.984375 
L 18.40625 75.984375 
L 18.40625 0 
L 9.421875 0 
z
" id="DejaVuSans-6c"/>
      <path id="DejaVuSans-20"/>
      <path d="M 9.8125 72.90625 
L 19.671875 72.90625 
L 19.671875 0 
L 9.8125 0 
z
" id="DejaVuSans-49"/>
      <path d="M 18.109375 8.203125 
L 18.109375 -20.796875 
L 9.078125 -20.796875 
L 9.078125 54.6875 
L 18.109375 54.6875 
L 18.109375 46.390625 
Q 20.953125 51.265625 25.265625 53.625 
Q 29.59375 56 35.59375 56 
Q 45.5625 56 51.78125 48.09375 
Q 58.015625 40.1875 58.015625 27.296875 
Q 58.015625 14.40625 51.78125 6.484375 
Q 45.5625 -1.421875 35.59375 -1.421875 
Q 29.59375 -1.421875 25.265625 0.953125 
Q 20.953125 3.328125 18.109375 8.203125 
z
M 48.6875 27.296875 
Q 48.6875 37.203125 44.609375 42.84375 
Q 40.53125 48.484375 33.40625 48.484375 
Q 26.265625 48.484375 22.1875 42.84375 
Q 18.109375 37.203125 18.109375 27.296875 
Q 18.109375 17.390625 22.1875 11.75 
Q 26.265625 6.109375 33.40625 6.109375 
Q 40.53125 6.109375 44.609375 11.75 
Q 48.6875 17.390625 48.6875 27.296875 
z
" id="DejaVuSans-70"/>
     </defs>
     <g transform="translate(147.832812 591.988557)rotate(-90)scale(0.1 -0.1)">
      <use xlink:href="#DejaVuSans-43"/>
      <use x="69.824219" xlink:href="#DejaVuSans-6f"/>
      <use x="131.005859" xlink:href="#DejaVuSans-6e"/>
      <use x="194.384766" xlink:href="#DejaVuSans-74"/>
      <use x="233.59375" xlink:href="#DejaVuSans-72"/>
      <use x="274.675781" xlink:href="#DejaVuSans-6f"/>
      <use x="335.857422" xlink:href="#DejaVuSans-6c"/>
      <use x="363.640625" xlink:href="#DejaVuSans-20"/>
      <use x="395.427734" xlink:href="#DejaVuSans-49"/>
      <use x="424.919922" xlink:href="#DejaVuSans-6e"/>
      <use x="488.298828" xlink:href="#DejaVuSans-70"/>
      <use x="551.775391" xlink:href="#DejaVuSans-75"/>
      <use x="615.154297" xlink:href="#DejaVuSans-74"/>
     </g>
    </g>
   </g>
   <g id="line2d_51">
    <path clip-path="url(#pf9fc33f701)" d="M 230.727273 488.726536 
L 240.975207 485.152941 
L 251.22314 548.148288 
L 261.471074 589.433617 
L 271.719008 616.689699 
L 281.966942 623.602876 
L 292.214876 621.667302 
L 302.46281 623.472381 
L 312.710744 624.948835 
L 322.958678 626.203995 
L 333.206612 627.253871 
L 343.454545 628.142044 
L 353.702479 628.87233 
L 363.950413 629.483907 
L 374.198347 630.003675 
L 384.446281 630.425695 
L 394.694215 630.793026 
L 404.942149 631.08747 
L 415.190083 631.33889 
L 425.438017 631.54757 
L 435.68595 631.726363 
L 445.933884 631.87431 
L 456.181818 632.005737 
L 466.429752 632.101809 
L 476.677686 632.194729 
L 486.92562 632.261169 
L 497.173554 632.323279 
L 507.421488 632.37039 
L 517.669421 632.415319 
L 527.917355 632.450243 
L 538.165289 632.482732 
L 548.413223 632.506679 
L 558.661157 632.527335 
L 568.909091 632.533049 
L 579.157025 632.559544 
L 589.404959 632.600275 
L 599.652893 632.600042 
L 609.900826 632.590819 
L 620.14876 632.596013 
L 630.396694 632.601608 
L 640.644628 632.623025 
L 650.892562 632.620568 
L 661.140496 632.622464 
L 671.38843 632.587304 
L 681.636364 632.588871 
L 691.884298 632.600743 
L 702.132231 632.595263 
L 712.380165 632.600719 
L 722.628099 632.598584 
L 732.876033 632.584311 
L 743.123967 632.59829 
L 753.371901 632.585659 
L 763.619835 632.604256 
L 773.867769 632.590774 
L 784.115702 632.587523 
L 794.363636 632.591523 
L 804.61157 632.56523 
L 814.859504 632.593429 
L 825.107438 632.570214 
L 835.355372 632.60679 
L 845.603306 632.371987 
L 855.85124 632.353319 
L 866.099174 632.393433 
L 876.347107 632.454635 
L 886.595041 632.528934 
L 896.842975 632.498214 
L 907.090909 632.562197 
L 917.338843 633.04218 
L 927.586777 633.129523 
L 937.834711 633.094519 
L 948.082645 633.016033 
L 958.330579 632.91685 
L 968.578512 633.164216 
L 978.826446 633.17634 
L 989.07438 633.113086 
L 999.322314 633.02063 
L 1009.570248 633.104593 
L 1019.818182 633.067477 
L 1030.066116 633.148228 
L 1040.31405 633.094777 
L 1050.561983 633.175603 
L 1060.809917 633.116267 
L 1071.057851 633.198604 
L 1081.305785 633.135247 
L 1091.553719 633.219069 
L 1101.801653 633.15254 
L 1112.049587 633.237546 
L 1122.297521 633.16854 
L 1132.545455 633.254515 
L 1142.793388 633.18358 
L 1153.041322 633.281918 
L 1163.289256 633.212949 
L 1173.53719 633.313103 
L 1183.785124 633.243853 
L 1194.033058 633.34456 
L 1204.280992 633.275123 
L 1214.528926 633.388235 
L 1224.77686 633.322453 
L 1235.024793 633.240945 
L 1245.272727 633.21308 
" style="fill:none;stroke:#ff0000;stroke-linecap:square;stroke-width:1.5;"/>
   </g>
   <g id="patch_15">
    <path d="M 180 640.8 
L 180 477.741176 
" style="fill:none;stroke:#000000;stroke-linecap:square;stroke-linejoin:miter;stroke-width:0.8;"/>
   </g>
   <g id="patch_16">
    <path d="M 1296 640.8 
L 1296 477.741176 
" style="fill:none;stroke:#000000;stroke-linecap:square;stroke-linejoin:miter;stroke-width:0.8;"/>
   </g>
   <g id="patch_17">
    <path d="M 180 640.8 
L 1296 640.8 
" style="fill:none;stroke:#000000;stroke-linecap:square;stroke-linejoin:miter;stroke-width:0.8;"/>
   </g>
   <g id="patch_18">
    <path d="M 180 477.741176 
L 1296 477.741176 
" style="fill:none;stroke:#000000;stroke-linecap:square;stroke-linejoin:miter;stroke-width:0.8;"/>
   </g>
   <g id="legend_3">
    <g id="patch_19">
     <path d="M 1194.742188 500.419301 
L 1289 500.419301 
Q 1291 500.419301 1291 498.419301 
L 1291 484.741176 
Q 1291 482.741176 1289 482.741176 
L 1194.742188 482.741176 
Q 1192.742188 482.741176 1192.742188 484.741176 
L 1192.742188 498.419301 
Q 1192.742188 500.419301 1194.742188 500.419301 
z
" style="fill:#ffffff;opacity:0.8;stroke:#cccccc;stroke-linejoin:miter;"/>
    </g>
    <g id="line2d_52">
     <path d="M 1196.742188 490.839614 
L 1216.742188 490.839614 
" style="fill:none;stroke:#ff0000;stroke-linecap:square;stroke-width:1.5;"/>
    </g>
    <g id="line2d_53"/>
    <g id="text_47">
     <!-- ControlInput -->
     <g transform="translate(1224.742188 494.339614)scale(0.1 -0.1)">
      <use xlink:href="#DejaVuSans-43"/>
      <use x="69.824219" xlink:href="#DejaVuSans-6f"/>
      <use x="131.005859" xlink:href="#DejaVuSans-6e"/>
      <use x="194.384766" xlink:href="#DejaVuSans-74"/>
      <use x="233.59375" xlink:href="#DejaVuSans-72"/>
      <use x="274.675781" xlink:href="#DejaVuSans-6f"/>
      <use x="335.857422" xlink:href="#DejaVuSans-6c"/>
      <use x="363.640625" xlink:href="#DejaVuSans-49"/>
      <use x="393.132812" xlink:href="#DejaVuSans-6e"/>
      <use x="456.511719" xlink:href="#DejaVuSans-70"/>
      <use x="519.988281" xlink:href="#DejaVuSans-75"/>
      <use x="583.367188" xlink:href="#DejaVuSans-74"/>
     </g>
    </g>
   </g>
  </g>
 </g>
 <defs>
  <clipPath id="p70f411135a">
   <rect height="163.058824" width="1116" x="180" y="86.4"/>
  </clipPath>
  <clipPath id="p2f1629d25e">
   <rect height="163.058824" width="1116" x="180" y="282.070588"/>
  </clipPath>
  <clipPath id="pf9fc33f701">
   <rect height="163.058824" width="1116" x="180" y="477.741176"/>
  </clipPath>
 </defs>
</svg>
