<?xml version="1.0" encoding="utf-8" standalone="no"?>
<!DOCTYPE svg PUBLIC "-//W3C//DTD SVG 1.1//EN"
  "http://www.w3.org/Graphics/SVG/1.1/DTD/svg11.dtd">
<!-- Created with matplotlib (http://matplotlib.org/) -->
<svg height="720pt" version="1.1" viewBox="0 0 1440 720" width="1440pt" xmlns="http://www.w3.org/2000/svg" xmlns:xlink="http://www.w3.org/1999/xlink">
 <defs>
  <style type="text/css">
*{stroke-linecap:butt;stroke-linejoin:round;}
  </style>
 </defs>
 <g id="figure_1">
  <g id="patch_1">
   <path d="M 0 720 
L 1440 720 
L 1440 0 
L 0 0 
z
" style="fill:#ffffff;"/>
  </g>
  <g id="axes_1">
   <g id="patch_2">
    <path d="M 180 338.4 
L 1296 338.4 
L 1296 86.4 
L 180 86.4 
z
" style="fill:#ffffff;"/>
   </g>
   <g id="matplotlib.axis_1">
    <g id="xtick_1">
     <g id="line2d_1">
      <defs>
       <path d="M 0 0 
L 0 3.5 
" id="m6b9f9a812d" style="stroke:#000000;stroke-width:0.8;"/>
      </defs>
      <g>
       <use style="stroke:#000000;stroke-width:0.8;" x="230.727273" xlink:href="#m6b9f9a812d" y="338.4"/>
      </g>
     </g>
     <g id="text_1">
      <!-- 0 -->
      <defs>
       <path d="M 31.78125 66.40625 
Q 24.171875 66.40625 20.328125 58.90625 
Q 16.5 51.421875 16.5 36.375 
Q 16.5 21.390625 20.328125 13.890625 
Q 24.171875 6.390625 31.78125 6.390625 
Q 39.453125 6.390625 43.28125 13.890625 
Q 47.125 21.390625 47.125 36.375 
Q 47.125 51.421875 43.28125 58.90625 
Q 39.453125 66.40625 31.78125 66.40625 
z
M 31.78125 74.21875 
Q 44.046875 74.21875 50.515625 64.515625 
Q 56.984375 54.828125 56.984375 36.375 
Q 56.984375 17.96875 50.515625 8.265625 
Q 44.046875 -1.421875 31.78125 -1.421875 
Q 19.53125 -1.421875 13.0625 8.265625 
Q 6.59375 17.96875 6.59375 36.375 
Q 6.59375 54.828125 13.0625 64.515625 
Q 19.53125 74.21875 31.78125 74.21875 
z
" id="DejaVuSans-30"/>
      </defs>
      <g transform="translate(227.546023 352.998437)scale(0.1 -0.1)">
       <use xlink:href="#DejaVuSans-30"/>
      </g>
     </g>
    </g>
    <g id="xtick_2">
     <g id="line2d_2">
      <g>
       <use style="stroke:#000000;stroke-width:0.8;" x="357.704176" xlink:href="#m6b9f9a812d" y="338.4"/>
      </g>
     </g>
     <g id="text_2">
      <!-- 100 -->
      <defs>
       <path d="M 12.40625 8.296875 
L 28.515625 8.296875 
L 28.515625 63.921875 
L 10.984375 60.40625 
L 10.984375 69.390625 
L 28.421875 72.90625 
L 38.28125 72.90625 
L 38.28125 8.296875 
L 54.390625 8.296875 
L 54.390625 0 
L 12.40625 0 
z
" id="DejaVuSans-31"/>
      </defs>
      <g transform="translate(348.160426 352.998437)scale(0.1 -0.1)">
       <use xlink:href="#DejaVuSans-31"/>
       <use x="63.623047" xlink:href="#DejaVuSans-30"/>
       <use x="127.246094" xlink:href="#DejaVuSans-30"/>
      </g>
     </g>
    </g>
    <g id="xtick_3">
     <g id="line2d_3">
      <g>
       <use style="stroke:#000000;stroke-width:0.8;" x="484.681079" xlink:href="#m6b9f9a812d" y="338.4"/>
      </g>
     </g>
     <g id="text_3">
      <!-- 200 -->
      <defs>
       <path d="M 19.1875 8.296875 
L 53.609375 8.296875 
L 53.609375 0 
L 7.328125 0 
L 7.328125 8.296875 
Q 12.9375 14.109375 22.625 23.890625 
Q 32.328125 33.6875 34.8125 36.53125 
Q 39.546875 41.84375 41.421875 45.53125 
Q 43.3125 49.21875 43.3125 52.78125 
Q 43.3125 58.59375 39.234375 62.25 
Q 35.15625 65.921875 28.609375 65.921875 
Q 23.96875 65.921875 18.8125 64.3125 
Q 13.671875 62.703125 7.8125 59.421875 
L 7.8125 69.390625 
Q 13.765625 71.78125 18.9375 73 
Q 24.125 74.21875 28.421875 74.21875 
Q 39.75 74.21875 46.484375 68.546875 
Q 53.21875 62.890625 53.21875 53.421875 
Q 53.21875 48.921875 51.53125 44.890625 
Q 49.859375 40.875 45.40625 35.40625 
Q 44.1875 33.984375 37.640625 27.21875 
Q 31.109375 20.453125 19.1875 8.296875 
z
" id="DejaVuSans-32"/>
      </defs>
      <g transform="translate(475.137329 352.998437)scale(0.1 -0.1)">
       <use xlink:href="#DejaVuSans-32"/>
       <use x="63.623047" xlink:href="#DejaVuSans-30"/>
       <use x="127.246094" xlink:href="#DejaVuSans-30"/>
      </g>
     </g>
    </g>
    <g id="xtick_4">
     <g id="line2d_4">
      <g>
       <use style="stroke:#000000;stroke-width:0.8;" x="611.657982" xlink:href="#m6b9f9a812d" y="338.4"/>
      </g>
     </g>
     <g id="text_4">
      <!-- 300 -->
      <defs>
       <path d="M 40.578125 39.3125 
Q 47.65625 37.796875 51.625 33 
Q 55.609375 28.21875 55.609375 21.1875 
Q 55.609375 10.40625 48.1875 4.484375 
Q 40.765625 -1.421875 27.09375 -1.421875 
Q 22.515625 -1.421875 17.65625 -0.515625 
Q 12.796875 0.390625 7.625 2.203125 
L 7.625 11.71875 
Q 11.71875 9.328125 16.59375 8.109375 
Q 21.484375 6.890625 26.8125 6.890625 
Q 36.078125 6.890625 40.9375 10.546875 
Q 45.796875 14.203125 45.796875 21.1875 
Q 45.796875 27.640625 41.28125 31.265625 
Q 36.765625 34.90625 28.71875 34.90625 
L 20.21875 34.90625 
L 20.21875 43.015625 
L 29.109375 43.015625 
Q 36.375 43.015625 40.234375 45.921875 
Q 44.09375 48.828125 44.09375 54.296875 
Q 44.09375 59.90625 40.109375 62.90625 
Q 36.140625 65.921875 28.71875 65.921875 
Q 24.65625 65.921875 20.015625 65.03125 
Q 15.375 64.15625 9.8125 62.3125 
L 9.8125 71.09375 
Q 15.4375 72.65625 20.34375 73.4375 
Q 25.25 74.21875 29.59375 74.21875 
Q 40.828125 74.21875 47.359375 69.109375 
Q 53.90625 64.015625 53.90625 55.328125 
Q 53.90625 49.265625 50.4375 45.09375 
Q 46.96875 40.921875 40.578125 39.3125 
z
" id="DejaVuSans-33"/>
      </defs>
      <g transform="translate(602.114232 352.998437)scale(0.1 -0.1)">
       <use xlink:href="#DejaVuSans-33"/>
       <use x="63.623047" xlink:href="#DejaVuSans-30"/>
       <use x="127.246094" xlink:href="#DejaVuSans-30"/>
      </g>
     </g>
    </g>
    <g id="xtick_5">
     <g id="line2d_5">
      <g>
       <use style="stroke:#000000;stroke-width:0.8;" x="738.634885" xlink:href="#m6b9f9a812d" y="338.4"/>
      </g>
     </g>
     <g id="text_5">
      <!-- 400 -->
      <defs>
       <path d="M 37.796875 64.3125 
L 12.890625 25.390625 
L 37.796875 25.390625 
z
M 35.203125 72.90625 
L 47.609375 72.90625 
L 47.609375 25.390625 
L 58.015625 25.390625 
L 58.015625 17.1875 
L 47.609375 17.1875 
L 47.609375 0 
L 37.796875 0 
L 37.796875 17.1875 
L 4.890625 17.1875 
L 4.890625 26.703125 
z
" id="DejaVuSans-34"/>
      </defs>
      <g transform="translate(729.091135 352.998437)scale(0.1 -0.1)">
       <use xlink:href="#DejaVuSans-34"/>
       <use x="63.623047" xlink:href="#DejaVuSans-30"/>
       <use x="127.246094" xlink:href="#DejaVuSans-30"/>
      </g>
     </g>
    </g>
    <g id="xtick_6">
     <g id="line2d_6">
      <g>
       <use style="stroke:#000000;stroke-width:0.8;" x="865.611787" xlink:href="#m6b9f9a812d" y="338.4"/>
      </g>
     </g>
     <g id="text_6">
      <!-- 500 -->
      <defs>
       <path d="M 10.796875 72.90625 
L 49.515625 72.90625 
L 49.515625 64.59375 
L 19.828125 64.59375 
L 19.828125 46.734375 
Q 21.96875 47.46875 24.109375 47.828125 
Q 26.265625 48.1875 28.421875 48.1875 
Q 40.625 48.1875 47.75 41.5 
Q 54.890625 34.8125 54.890625 23.390625 
Q 54.890625 11.625 47.5625 5.09375 
Q 40.234375 -1.421875 26.90625 -1.421875 
Q 22.3125 -1.421875 17.546875 -0.640625 
Q 12.796875 0.140625 7.71875 1.703125 
L 7.71875 11.625 
Q 12.109375 9.234375 16.796875 8.0625 
Q 21.484375 6.890625 26.703125 6.890625 
Q 35.15625 6.890625 40.078125 11.328125 
Q 45.015625 15.765625 45.015625 23.390625 
Q 45.015625 31 40.078125 35.4375 
Q 35.15625 39.890625 26.703125 39.890625 
Q 22.75 39.890625 18.8125 39.015625 
Q 14.890625 38.140625 10.796875 36.28125 
z
" id="DejaVuSans-35"/>
      </defs>
      <g transform="translate(856.068037 352.998437)scale(0.1 -0.1)">
       <use xlink:href="#DejaVuSans-35"/>
       <use x="63.623047" xlink:href="#DejaVuSans-30"/>
       <use x="127.246094" xlink:href="#DejaVuSans-30"/>
      </g>
     </g>
    </g>
    <g id="xtick_7">
     <g id="line2d_7">
      <g>
       <use style="stroke:#000000;stroke-width:0.8;" x="992.58869" xlink:href="#m6b9f9a812d" y="338.4"/>
      </g>
     </g>
     <g id="text_7">
      <!-- 600 -->
      <defs>
       <path d="M 33.015625 40.375 
Q 26.375 40.375 22.484375 35.828125 
Q 18.609375 31.296875 18.609375 23.390625 
Q 18.609375 15.53125 22.484375 10.953125 
Q 26.375 6.390625 33.015625 6.390625 
Q 39.65625 6.390625 43.53125 10.953125 
Q 47.40625 15.53125 47.40625 23.390625 
Q 47.40625 31.296875 43.53125 35.828125 
Q 39.65625 40.375 33.015625 40.375 
z
M 52.59375 71.296875 
L 52.59375 62.3125 
Q 48.875 64.0625 45.09375 64.984375 
Q 41.3125 65.921875 37.59375 65.921875 
Q 27.828125 65.921875 22.671875 59.328125 
Q 17.53125 52.734375 16.796875 39.40625 
Q 19.671875 43.65625 24.015625 45.921875 
Q 28.375 48.1875 33.59375 48.1875 
Q 44.578125 48.1875 50.953125 41.515625 
Q 57.328125 34.859375 57.328125 23.390625 
Q 57.328125 12.15625 50.6875 5.359375 
Q 44.046875 -1.421875 33.015625 -1.421875 
Q 20.359375 -1.421875 13.671875 8.265625 
Q 6.984375 17.96875 6.984375 36.375 
Q 6.984375 53.65625 15.1875 63.9375 
Q 23.390625 74.21875 37.203125 74.21875 
Q 40.921875 74.21875 44.703125 73.484375 
Q 48.484375 72.75 52.59375 71.296875 
z
" id="DejaVuSans-36"/>
      </defs>
      <g transform="translate(983.04494 352.998437)scale(0.1 -0.1)">
       <use xlink:href="#DejaVuSans-36"/>
       <use x="63.623047" xlink:href="#DejaVuSans-30"/>
       <use x="127.246094" xlink:href="#DejaVuSans-30"/>
      </g>
     </g>
    </g>
    <g id="xtick_8">
     <g id="line2d_8">
      <g>
       <use style="stroke:#000000;stroke-width:0.8;" x="1119.565593" xlink:href="#m6b9f9a812d" y="338.4"/>
      </g>
     </g>
     <g id="text_8">
      <!-- 700 -->
      <defs>
       <path d="M 8.203125 72.90625 
L 55.078125 72.90625 
L 55.078125 68.703125 
L 28.609375 0 
L 18.3125 0 
L 43.21875 64.59375 
L 8.203125 64.59375 
z
" id="DejaVuSans-37"/>
      </defs>
      <g transform="translate(1110.021843 352.998437)scale(0.1 -0.1)">
       <use xlink:href="#DejaVuSans-37"/>
       <use x="63.623047" xlink:href="#DejaVuSans-30"/>
       <use x="127.246094" xlink:href="#DejaVuSans-30"/>
      </g>
     </g>
    </g>
    <g id="xtick_9">
     <g id="line2d_9">
      <g>
       <use style="stroke:#000000;stroke-width:0.8;" x="1246.542496" xlink:href="#m6b9f9a812d" y="338.4"/>
      </g>
     </g>
     <g id="text_9">
      <!-- 800 -->
      <defs>
       <path d="M 31.78125 34.625 
Q 24.75 34.625 20.71875 30.859375 
Q 16.703125 27.09375 16.703125 20.515625 
Q 16.703125 13.921875 20.71875 10.15625 
Q 24.75 6.390625 31.78125 6.390625 
Q 38.8125 6.390625 42.859375 10.171875 
Q 46.921875 13.96875 46.921875 20.515625 
Q 46.921875 27.09375 42.890625 30.859375 
Q 38.875 34.625 31.78125 34.625 
z
M 21.921875 38.8125 
Q 15.578125 40.375 12.03125 44.71875 
Q 8.5 49.078125 8.5 55.328125 
Q 8.5 64.0625 14.71875 69.140625 
Q 20.953125 74.21875 31.78125 74.21875 
Q 42.671875 74.21875 48.875 69.140625 
Q 55.078125 64.0625 55.078125 55.328125 
Q 55.078125 49.078125 51.53125 44.71875 
Q 48 40.375 41.703125 38.8125 
Q 48.828125 37.15625 52.796875 32.3125 
Q 56.78125 27.484375 56.78125 20.515625 
Q 56.78125 9.90625 50.3125 4.234375 
Q 43.84375 -1.421875 31.78125 -1.421875 
Q 19.734375 -1.421875 13.25 4.234375 
Q 6.78125 9.90625 6.78125 20.515625 
Q 6.78125 27.484375 10.78125 32.3125 
Q 14.796875 37.15625 21.921875 38.8125 
z
M 18.3125 54.390625 
Q 18.3125 48.734375 21.84375 45.5625 
Q 25.390625 42.390625 31.78125 42.390625 
Q 38.140625 42.390625 41.71875 45.5625 
Q 45.3125 48.734375 45.3125 54.390625 
Q 45.3125 60.0625 41.71875 63.234375 
Q 38.140625 66.40625 31.78125 66.40625 
Q 25.390625 66.40625 21.84375 63.234375 
Q 18.3125 60.0625 18.3125 54.390625 
z
" id="DejaVuSans-38"/>
      </defs>
      <g transform="translate(1236.998746 352.998437)scale(0.1 -0.1)">
       <use xlink:href="#DejaVuSans-38"/>
       <use x="63.623047" xlink:href="#DejaVuSans-30"/>
       <use x="127.246094" xlink:href="#DejaVuSans-30"/>
      </g>
     </g>
    </g>
   </g>
   <g id="matplotlib.axis_2">
    <g id="ytick_1">
     <g id="line2d_10">
      <defs>
       <path d="M 0 0 
L -3.5 0 
" id="m551e57dda5" style="stroke:#000000;stroke-width:0.8;"/>
      </defs>
      <g>
       <use style="stroke:#000000;stroke-width:0.8;" x="180" xlink:href="#m551e57dda5" y="335.330274"/>
      </g>
     </g>
     <g id="text_10">
      <!-- −500 -->
      <defs>
       <path d="M 10.59375 35.5 
L 73.1875 35.5 
L 73.1875 27.203125 
L 10.59375 27.203125 
z
" id="DejaVuSans-2212"/>
      </defs>
      <g transform="translate(145.532813 339.129493)scale(0.1 -0.1)">
       <use xlink:href="#DejaVuSans-2212"/>
       <use x="83.789062" xlink:href="#DejaVuSans-35"/>
       <use x="147.412109" xlink:href="#DejaVuSans-30"/>
       <use x="211.035156" xlink:href="#DejaVuSans-30"/>
      </g>
     </g>
    </g>
    <g id="ytick_2">
     <g id="line2d_11">
      <g>
       <use style="stroke:#000000;stroke-width:0.8;" x="180" xlink:href="#m551e57dda5" y="304.700012"/>
      </g>
     </g>
     <g id="text_11">
      <!-- −400 -->
      <g transform="translate(145.532813 308.49923)scale(0.1 -0.1)">
       <use xlink:href="#DejaVuSans-2212"/>
       <use x="83.789062" xlink:href="#DejaVuSans-34"/>
       <use x="147.412109" xlink:href="#DejaVuSans-30"/>
       <use x="211.035156" xlink:href="#DejaVuSans-30"/>
      </g>
     </g>
    </g>
    <g id="ytick_3">
     <g id="line2d_12">
      <g>
       <use style="stroke:#000000;stroke-width:0.8;" x="180" xlink:href="#m551e57dda5" y="274.069749"/>
      </g>
     </g>
     <g id="text_12">
      <!-- −300 -->
      <g transform="translate(145.532813 277.868968)scale(0.1 -0.1)">
       <use xlink:href="#DejaVuSans-2212"/>
       <use x="83.789062" xlink:href="#DejaVuSans-33"/>
       <use x="147.412109" xlink:href="#DejaVuSans-30"/>
       <use x="211.035156" xlink:href="#DejaVuSans-30"/>
      </g>
     </g>
    </g>
    <g id="ytick_4">
     <g id="line2d_13">
      <g>
       <use style="stroke:#000000;stroke-width:0.8;" x="180" xlink:href="#m551e57dda5" y="243.439487"/>
      </g>
     </g>
     <g id="text_13">
      <!-- −200 -->
      <g transform="translate(145.532813 247.238706)scale(0.1 -0.1)">
       <use xlink:href="#DejaVuSans-2212"/>
       <use x="83.789062" xlink:href="#DejaVuSans-32"/>
       <use x="147.412109" xlink:href="#DejaVuSans-30"/>
       <use x="211.035156" xlink:href="#DejaVuSans-30"/>
      </g>
     </g>
    </g>
    <g id="ytick_5">
     <g id="line2d_14">
      <g>
       <use style="stroke:#000000;stroke-width:0.8;" x="180" xlink:href="#m551e57dda5" y="212.809225"/>
      </g>
     </g>
     <g id="text_14">
      <!-- −100 -->
      <g transform="translate(145.532813 216.608443)scale(0.1 -0.1)">
       <use xlink:href="#DejaVuSans-2212"/>
       <use x="83.789062" xlink:href="#DejaVuSans-31"/>
       <use x="147.412109" xlink:href="#DejaVuSans-30"/>
       <use x="211.035156" xlink:href="#DejaVuSans-30"/>
      </g>
     </g>
    </g>
    <g id="ytick_6">
     <g id="line2d_15">
      <g>
       <use style="stroke:#000000;stroke-width:0.8;" x="180" xlink:href="#m551e57dda5" y="182.178962"/>
      </g>
     </g>
     <g id="text_15">
      <!-- 0 -->
      <g transform="translate(166.6375 185.978181)scale(0.1 -0.1)">
       <use xlink:href="#DejaVuSans-30"/>
      </g>
     </g>
    </g>
    <g id="ytick_7">
     <g id="line2d_16">
      <g>
       <use style="stroke:#000000;stroke-width:0.8;" x="180" xlink:href="#m551e57dda5" y="151.5487"/>
      </g>
     </g>
     <g id="text_16">
      <!-- 100 -->
      <g transform="translate(153.9125 155.347919)scale(0.1 -0.1)">
       <use xlink:href="#DejaVuSans-31"/>
       <use x="63.623047" xlink:href="#DejaVuSans-30"/>
       <use x="127.246094" xlink:href="#DejaVuSans-30"/>
      </g>
     </g>
    </g>
    <g id="ytick_8">
     <g id="line2d_17">
      <g>
       <use style="stroke:#000000;stroke-width:0.8;" x="180" xlink:href="#m551e57dda5" y="120.918438"/>
      </g>
     </g>
     <g id="text_17">
      <!-- 200 -->
      <g transform="translate(153.9125 124.717656)scale(0.1 -0.1)">
       <use xlink:href="#DejaVuSans-32"/>
       <use x="63.623047" xlink:href="#DejaVuSans-30"/>
       <use x="127.246094" xlink:href="#DejaVuSans-30"/>
      </g>
     </g>
    </g>
    <g id="ytick_9">
     <g id="line2d_18">
      <g>
       <use style="stroke:#000000;stroke-width:0.8;" x="180" xlink:href="#m551e57dda5" y="90.288175"/>
      </g>
     </g>
     <g id="text_18">
      <!-- 300 -->
      <g transform="translate(153.9125 94.087394)scale(0.1 -0.1)">
       <use xlink:href="#DejaVuSans-33"/>
       <use x="63.623047" xlink:href="#DejaVuSans-30"/>
       <use x="127.246094" xlink:href="#DejaVuSans-30"/>
      </g>
     </g>
    </g>
    <g id="text_19">
     <!-- State:0 -->
     <defs>
      <path d="M 53.515625 70.515625 
L 53.515625 60.890625 
Q 47.90625 63.578125 42.921875 64.890625 
Q 37.9375 66.21875 33.296875 66.21875 
Q 25.25 66.21875 20.875 63.09375 
Q 16.5 59.96875 16.5 54.203125 
Q 16.5 49.359375 19.40625 46.890625 
Q 22.3125 44.4375 30.421875 42.921875 
L 36.375 41.703125 
Q 47.40625 39.59375 52.65625 34.296875 
Q 57.90625 29 57.90625 20.125 
Q 57.90625 9.515625 50.796875 4.046875 
Q 43.703125 -1.421875 29.984375 -1.421875 
Q 24.8125 -1.421875 18.96875 -0.25 
Q 13.140625 0.921875 6.890625 3.21875 
L 6.890625 13.375 
Q 12.890625 10.015625 18.65625 8.296875 
Q 24.421875 6.59375 29.984375 6.59375 
Q 38.421875 6.59375 43.015625 9.90625 
Q 47.609375 13.234375 47.609375 19.390625 
Q 47.609375 24.75 44.3125 27.78125 
Q 41.015625 30.8125 33.5 32.328125 
L 27.484375 33.5 
Q 16.453125 35.6875 11.515625 40.375 
Q 6.59375 45.0625 6.59375 53.421875 
Q 6.59375 63.09375 13.40625 68.65625 
Q 20.21875 74.21875 32.171875 74.21875 
Q 37.3125 74.21875 42.625 73.28125 
Q 47.953125 72.359375 53.515625 70.515625 
z
" id="DejaVuSans-53"/>
      <path d="M 18.3125 70.21875 
L 18.3125 54.6875 
L 36.8125 54.6875 
L 36.8125 47.703125 
L 18.3125 47.703125 
L 18.3125 18.015625 
Q 18.3125 11.328125 20.140625 9.421875 
Q 21.96875 7.515625 27.59375 7.515625 
L 36.8125 7.515625 
L 36.8125 0 
L 27.59375 0 
Q 17.1875 0 13.234375 3.875 
Q 9.28125 7.765625 9.28125 18.015625 
L 9.28125 47.703125 
L 2.6875 47.703125 
L 2.6875 54.6875 
L 9.28125 54.6875 
L 9.28125 70.21875 
z
" id="DejaVuSans-74"/>
      <path d="M 34.28125 27.484375 
Q 23.390625 27.484375 19.1875 25 
Q 14.984375 22.515625 14.984375 16.5 
Q 14.984375 11.71875 18.140625 8.90625 
Q 21.296875 6.109375 26.703125 6.109375 
Q 34.1875 6.109375 38.703125 11.40625 
Q 43.21875 16.703125 43.21875 25.484375 
L 43.21875 27.484375 
z
M 52.203125 31.203125 
L 52.203125 0 
L 43.21875 0 
L 43.21875 8.296875 
Q 40.140625 3.328125 35.546875 0.953125 
Q 30.953125 -1.421875 24.3125 -1.421875 
Q 15.921875 -1.421875 10.953125 3.296875 
Q 6 8.015625 6 15.921875 
Q 6 25.140625 12.171875 29.828125 
Q 18.359375 34.515625 30.609375 34.515625 
L 43.21875 34.515625 
L 43.21875 35.40625 
Q 43.21875 41.609375 39.140625 45 
Q 35.0625 48.390625 27.6875 48.390625 
Q 23 48.390625 18.546875 47.265625 
Q 14.109375 46.140625 10.015625 43.890625 
L 10.015625 52.203125 
Q 14.9375 54.109375 19.578125 55.046875 
Q 24.21875 56 28.609375 56 
Q 40.484375 56 46.34375 49.84375 
Q 52.203125 43.703125 52.203125 31.203125 
z
" id="DejaVuSans-61"/>
      <path d="M 56.203125 29.59375 
L 56.203125 25.203125 
L 14.890625 25.203125 
Q 15.484375 15.921875 20.484375 11.0625 
Q 25.484375 6.203125 34.421875 6.203125 
Q 39.59375 6.203125 44.453125 7.46875 
Q 49.3125 8.734375 54.109375 11.28125 
L 54.109375 2.78125 
Q 49.265625 0.734375 44.1875 -0.34375 
Q 39.109375 -1.421875 33.890625 -1.421875 
Q 20.796875 -1.421875 13.15625 6.1875 
Q 5.515625 13.8125 5.515625 26.8125 
Q 5.515625 40.234375 12.765625 48.109375 
Q 20.015625 56 32.328125 56 
Q 43.359375 56 49.78125 48.890625 
Q 56.203125 41.796875 56.203125 29.59375 
z
M 47.21875 32.234375 
Q 47.125 39.59375 43.09375 43.984375 
Q 39.0625 48.390625 32.421875 48.390625 
Q 24.90625 48.390625 20.390625 44.140625 
Q 15.875 39.890625 15.1875 32.171875 
z
" id="DejaVuSans-65"/>
      <path d="M 11.71875 12.40625 
L 22.015625 12.40625 
L 22.015625 0 
L 11.71875 0 
z
M 11.71875 51.703125 
L 22.015625 51.703125 
L 22.015625 39.3125 
L 11.71875 39.3125 
z
" id="DejaVuSans-3a"/>
     </defs>
     <g transform="translate(139.453125 230.500781)rotate(-90)scale(0.1 -0.1)">
      <use xlink:href="#DejaVuSans-53"/>
      <use x="63.476562" xlink:href="#DejaVuSans-74"/>
      <use x="102.685547" xlink:href="#DejaVuSans-61"/>
      <use x="163.964844" xlink:href="#DejaVuSans-74"/>
      <use x="203.173828" xlink:href="#DejaVuSans-65"/>
      <use x="264.697266" xlink:href="#DejaVuSans-3a"/>
      <use x="298.388672" xlink:href="#DejaVuSans-30"/>
     </g>
    </g>
   </g>
   <g id="line2d_19">
    <path clip-path="url(#pfdd13c4e14)" d="M 230.727273 187.889087 
L 231.997042 184.992656 
L 233.266811 182.732598 
L 238.345887 182.71623 
L 242.155194 182.773185 
L 248.504039 182.77205 
L 251.043577 182.644263 
L 262.471498 182.520496 
L 306.913414 182.150193 
L 357.704176 181.536149 
L 365.32279 181.270815 
L 378.02048 180.697771 
L 381.829787 180.781869 
L 386.908863 181.094678 
L 390.71817 180.350239 
L 393.257708 180.345161 
L 394.527478 180.250923 
L 397.067016 180.383974 
L 400.876323 180.948371 
L 404.68563 180.319115 
L 405.955399 180.517394 
L 407.225168 180.476006 
L 408.494937 180.099095 
L 413.574013 179.912291 
L 414.843782 180.050242 
L 416.113551 179.761839 
L 417.38332 179.723605 
L 419.922858 179.972437 
L 421.192627 180.146444 
L 423.732165 180.842768 
L 425.001934 180.7729 
L 426.271703 178.745415 
L 427.541472 179.431976 
L 428.811241 179.760775 
L 430.08101 179.209058 
L 431.350779 180.379643 
L 432.620548 181.045045 
L 433.890317 180.730324 
L 436.429856 181.798009 
L 437.699625 180.896224 
L 438.969394 180.364488 
L 440.239163 181.381564 
L 441.508932 180.157729 
L 442.778701 180.694714 
L 444.04847 180.774287 
L 445.318239 180.323789 
L 446.588008 181.369464 
L 447.857777 181.721927 
L 449.127546 181.528788 
L 450.397315 180.79778 
L 451.667084 181.322954 
L 452.936853 181.326512 
L 454.206622 181.787161 
L 455.476391 181.221721 
L 458.015929 181.171188 
L 459.285698 180.64773 
L 463.095005 179.878943 
L 466.904312 179.662759 
L 468.174081 179.870936 
L 469.44385 179.929942 
L 471.983388 179.59691 
L 473.253157 179.638235 
L 474.522926 179.161979 
L 475.792695 179.347567 
L 477.062464 178.980364 
L 478.332233 179.33705 
L 479.602003 179.482089 
L 480.871772 179.376735 
L 482.141541 180.202455 
L 483.41131 179.484783 
L 484.681079 180.657517 
L 485.950848 175.570274 
L 487.220617 177.708823 
L 488.490386 179.51184 
L 489.760155 173.920276 
L 491.029924 180.351247 
L 492.299693 177.940082 
L 493.569462 177.38471 
L 494.839231 172.823105 
L 496.109 168.818293 
L 497.378769 166.146868 
L 498.648538 164.940549 
L 499.918307 165.240511 
L 501.188076 165.940357 
L 502.457845 168.302975 
L 503.727614 172.138165 
L 504.997383 169.572094 
L 506.267152 155.389628 
L 507.536921 161.975606 
L 508.80669 162.605633 
L 510.076459 156.437011 
L 511.346228 156.67968 
L 512.615997 160.357326 
L 513.885766 162.361167 
L 515.155535 163.213063 
L 516.425304 166.265888 
L 517.695073 155.734648 
L 518.964842 163.954106 
L 520.234611 166.962339 
L 521.50438 175.522647 
L 522.77415 163.49221 
L 524.043919 168.990957 
L 525.313688 168.985104 
L 526.583457 165.804031 
L 529.122995 170.063435 
L 530.392764 175.463458 
L 531.662533 167.069932 
L 532.932302 172.188964 
L 534.202071 171.446023 
L 535.47184 169.209884 
L 536.741609 170.971351 
L 538.011378 171.807694 
L 539.281147 174.359784 
L 540.550916 172.154837 
L 544.360223 174.221795 
L 545.629992 171.757866 
L 546.899761 172.374677 
L 548.16953 174.055546 
L 549.439299 174.10651 
L 550.709068 172.074158 
L 551.978837 172.390312 
L 553.248606 173.580619 
L 554.518375 171.064985 
L 555.788144 170.51718 
L 557.057913 172.366443 
L 558.327682 174.772689 
L 559.597451 171.49062 
L 562.136989 173.276568 
L 563.406758 170.763833 
L 564.676527 172.246139 
L 565.946297 172.409639 
L 567.216066 174.257792 
L 568.485835 172.543129 
L 569.755604 171.687623 
L 571.025373 172.280533 
L 572.295142 171.900154 
L 573.564911 172.288389 
L 574.83468 172.32524 
L 576.104449 173.587435 
L 577.374218 172.027473 
L 578.643987 171.776617 
L 579.913756 171.695339 
L 581.183525 171.934474 
L 582.453294 172.501698 
L 583.723063 171.530346 
L 584.992832 172.744496 
L 586.262601 172.706048 
L 587.53237 172.113413 
L 588.802139 171.830332 
L 590.071908 172.473209 
L 591.341677 172.138759 
L 592.611446 172.091034 
L 595.150984 173.029817 
L 596.420753 171.973637 
L 597.690522 171.910928 
L 598.960291 172.597345 
L 600.23006 172.286783 
L 601.499829 172.620511 
L 602.769598 172.467785 
L 604.039367 172.987076 
L 605.309136 172.568134 
L 606.578905 172.444927 
L 607.848674 172.45745 
L 609.118444 172.889162 
L 610.388213 172.562737 
L 611.657982 172.533905 
L 612.927751 173.061966 
L 614.19752 172.713352 
L 615.467289 172.729815 
L 616.737058 172.618242 
L 618.006827 172.914106 
L 619.276596 173.084794 
L 620.546365 172.860447 
L 621.816134 172.870183 
L 623.085903 173.170705 
L 624.355672 172.718751 
L 625.625441 172.943381 
L 629.434748 173.046894 
L 631.974286 172.9012 
L 633.244055 172.956592 
L 634.513824 172.783226 
L 635.783593 172.923408 
L 639.5929 172.950005 
L 640.862669 172.769626 
L 642.132438 172.855688 
L 644.671976 172.76526 
L 645.941745 172.874452 
L 651.020821 172.812331 
L 657.369667 173.034597 
L 658.639436 172.915758 
L 662.448743 173.008754 
L 663.718512 173.115143 
L 664.988281 173.012951 
L 666.25805 173.134401 
L 668.797588 173.051594 
L 670.067357 173.146076 
L 671.337126 173.086837 
L 672.606895 173.268411 
L 673.876664 173.091551 
L 675.146433 173.196842 
L 677.685971 173.130146 
L 678.95574 173.289414 
L 680.225509 173.092485 
L 681.495278 173.351567 
L 682.765047 173.109763 
L 684.034816 173.245443 
L 685.304585 173.240739 
L 686.574354 173.114821 
L 687.844123 173.428874 
L 689.113892 173.02189 
L 690.383661 173.45132 
L 691.65343 173.090727 
L 694.192968 173.358657 
L 695.462738 173.007473 
L 696.732507 173.651754 
L 698.002276 172.845785 
L 699.272045 173.629904 
L 700.541814 173.03424 
L 703.081352 173.470187 
L 704.351121 172.885937 
L 705.62089 173.951494 
L 706.890659 172.604373 
L 708.160428 173.886593 
L 709.430197 172.964448 
L 710.699966 173.506739 
L 713.239504 173.047382 
L 714.509273 173.934667 
L 715.779042 172.518577 
L 717.048811 174.108067 
L 718.31858 172.721607 
L 719.588349 173.738321 
L 720.858118 172.991153 
L 722.127887 173.426899 
L 723.397656 173.514 
L 724.667425 172.773843 
L 725.937194 173.99014 
L 727.206963 172.406169 
L 728.476732 173.956469 
L 729.746501 172.70631 
L 731.01627 173.762908 
L 732.286039 173.072384 
L 733.555808 173.226573 
L 734.825577 173.748795 
L 736.095346 172.4008 
L 737.365115 174.045989 
L 738.634885 172.679462 
L 739.904654 167.814231 
L 741.174423 169.280701 
L 742.444192 137.348973 
L 743.713961 140.634482 
L 744.98373 129.90106 
L 746.253499 132.26187 
L 747.523268 106.279592 
L 748.793037 97.854545 
L 750.062806 116.740283 
L 751.332575 159.875412 
L 752.602344 163.631567 
L 753.872113 157.242829 
L 755.141882 167.358233 
L 756.411651 166.430943 
L 757.68142 179.173882 
L 758.951189 228.898245 
L 760.220958 171.336184 
L 761.490727 162.48721 
L 762.760496 159.541994 
L 764.030265 155.725139 
L 765.300034 148.276715 
L 766.569803 151.817785 
L 767.839572 152.439717 
L 769.109341 147.325815 
L 770.37911 158.898656 
L 771.648879 148.050612 
L 772.918648 139.629538 
L 774.188417 135.554722 
L 775.458186 152.59259 
L 776.727955 134.529489 
L 777.997724 145.382205 
L 779.267493 154.117251 
L 780.537262 135.446121 
L 781.807032 147.427267 
L 783.076801 133.843631 
L 784.34657 138.525749 
L 785.616339 145.423549 
L 786.886108 134.15064 
L 788.155877 147.541462 
L 789.425646 151.546461 
L 790.695415 130.154095 
L 791.965184 136.72171 
L 793.234953 145.659193 
L 794.504722 133.725286 
L 795.774491 146.008518 
L 797.04426 146.581079 
L 798.314029 155.124494 
L 799.583798 141.107354 
L 800.853567 137.453937 
L 802.123336 148.399788 
L 803.393105 142.310355 
L 804.662874 144.982459 
L 805.932643 145.572873 
L 807.202412 158.410891 
L 808.472181 132.632335 
L 809.74195 141.204611 
L 811.011719 146.191302 
L 812.281488 141.863197 
L 813.551257 150.150367 
L 814.821026 146.402712 
L 816.090795 152.332021 
L 817.360564 139.755703 
L 818.630333 141.718665 
L 819.900102 144.520098 
L 821.169871 158.23725 
L 822.43964 133.81449 
L 823.709409 138.708957 
L 824.979179 144.278247 
L 826.248948 141.508376 
L 827.518717 144.734196 
L 828.788486 145.127066 
L 830.058255 156.439049 
L 831.328024 134.390626 
L 832.597793 135.640528 
L 833.867562 138.64852 
L 835.137331 142.093471 
L 836.4071 142.864719 
L 837.676869 145.624612 
L 838.946638 156.819399 
L 840.216407 135.51656 
L 841.486176 139.635586 
L 842.755945 139.325409 
L 844.025714 143.670577 
L 845.295483 142.545994 
L 846.565252 145.916005 
L 847.835021 157.93263 
L 849.10479 137.764699 
L 850.374559 143.33716 
L 851.644328 143.74025 
L 852.914097 143.110459 
L 854.183866 147.143606 
L 855.453635 148.450587 
L 856.723404 155.438235 
L 857.993173 143.173261 
L 859.262942 147.885346 
L 860.532711 151.766964 
L 861.80248 142.865322 
L 863.072249 149.394322 
L 864.342018 153.189197 
L 865.611787 152.899047 
L 866.881556 158.337699 
L 868.151326 148.441801 
L 869.421095 156.118073 
L 870.690864 162.717031 
L 871.960633 172.890162 
L 873.230402 152.905193 
L 874.500171 157.745878 
L 875.76994 176.63327 
L 877.039709 190.120144 
L 878.309478 197.222258 
L 879.579247 187.050265 
L 880.849016 189.06392 
L 882.118785 198.995833 
L 883.388554 178.31964 
L 884.658323 175.129391 
L 885.928092 181.113039 
L 887.197861 189.987914 
L 888.46763 175.849715 
L 889.737399 200.438947 
L 891.007168 205.511086 
L 892.276937 179.613937 
L 893.546706 173.103634 
L 894.816475 177.456422 
L 896.086244 175.604565 
L 898.625782 176.19013 
L 899.895551 178.017253 
L 901.16532 176.487689 
L 903.704858 179.039849 
L 904.974627 177.226657 
L 906.244396 177.054453 
L 907.514165 177.326935 
L 908.783934 178.854016 
L 910.053703 177.620557 
L 911.323473 177.226311 
L 912.593242 178.57897 
L 913.863011 178.69377 
L 915.13278 177.351642 
L 916.402549 177.303962 
L 917.672318 179.511235 
L 918.942087 177.979988 
L 920.211856 177.281584 
L 921.481625 177.100493 
L 922.751394 179.173177 
L 924.021163 177.897113 
L 925.290932 177.260597 
L 926.560701 178.638821 
L 927.83047 178.490621 
L 929.100239 177.306273 
L 930.370008 177.340294 
L 931.639777 179.992448 
L 932.909546 178.189175 
L 934.179315 177.51104 
L 935.449084 177.327813 
L 936.718853 179.00925 
L 937.988622 177.976094 
L 939.258391 177.556091 
L 940.52816 179.286246 
L 941.797929 178.618741 
L 943.067698 177.438608 
L 944.337467 177.712408 
L 945.607236 180.202648 
L 946.877005 178.151795 
L 948.146774 177.765212 
L 949.416543 177.817792 
L 950.686312 178.695569 
L 951.956081 177.880206 
L 953.22585 177.748623 
L 954.49562 179.776396 
L 955.765389 178.50254 
L 957.035158 177.981916 
L 958.304927 177.988938 
L 959.574696 179.386679 
L 960.844465 178.103742 
L 962.114234 177.822247 
L 963.384003 179.334036 
L 965.923541 177.772848 
L 967.19331 177.953357 
L 968.463079 179.758872 
L 969.732848 178.459129 
L 971.002617 177.979221 
L 972.272386 179.494898 
L 974.811924 177.906837 
L 976.081693 178.0442 
L 977.351462 179.528926 
L 978.621231 178.464215 
L 979.891 178.172957 
L 981.160769 179.147889 
L 982.430538 178.873746 
L 983.700307 177.949423 
L 984.970076 178.314449 
L 986.239845 179.758448 
L 987.509614 178.540401 
L 988.779383 178.407246 
L 990.049152 178.871918 
L 991.318921 178.669468 
L 992.58869 178.217992 
L 993.858459 178.667135 
L 995.128228 179.668813 
L 996.397997 178.926148 
L 997.667767 179.110667 
L 998.937536 180.276881 
L 1000.207305 179.706942 
L 1002.746843 179.992166 
L 1004.016612 180.758496 
L 1005.286381 180.11386 
L 1006.55615 180.672483 
L 1007.825919 181.033307 
L 1009.095688 180.629289 
L 1010.365457 180.520349 
L 1011.635226 180.551237 
L 1012.904995 180.094073 
L 1014.174764 178.968499 
L 1016.714302 178.234222 
L 1017.984071 177.426455 
L 1020.523609 176.943885 
L 1021.793378 177.19387 
L 1023.063147 177.242375 
L 1024.332916 177.524194 
L 1025.602685 178.151639 
L 1026.872454 179.402225 
L 1028.142223 180.299551 
L 1029.411992 180.807192 
L 1030.681761 183.369072 
L 1031.95153 182.194701 
L 1033.221299 183.591737 
L 1034.491068 189.186915 
L 1035.760837 192.550687 
L 1037.030606 192.416045 
L 1038.300375 189.960221 
L 1039.570144 187.078329 
L 1042.109683 183.926856 
L 1043.379452 184.364989 
L 1044.649221 183.782107 
L 1045.91899 183.070794 
L 1047.188759 182.790594 
L 1048.458528 182.957836 
L 1049.728297 183.399928 
L 1050.998066 183.488506 
L 1052.267835 185.468079 
L 1056.077142 210.322301 
L 1057.346911 209.386483 
L 1058.61668 205.673891 
L 1059.886449 191.069684 
L 1061.156218 178.359306 
L 1062.425987 176.856063 
L 1063.695756 175.823632 
L 1064.965525 175.812854 
L 1066.235294 175.540076 
L 1067.505063 175.546444 
L 1068.774832 178.860772 
L 1070.044601 178.939678 
L 1071.31437 183.747803 
L 1072.584139 185.584414 
L 1073.853908 185.348046 
L 1075.123677 183.660441 
L 1076.393446 191.919877 
L 1077.663215 183.361363 
L 1078.932984 187.04616 
L 1080.202753 188.670988 
L 1081.472522 184.619361 
L 1082.742292 183.368363 
L 1084.012061 187.281225 
L 1085.28183 184.748033 
L 1086.551599 200.470852 
L 1087.821368 186.146095 
L 1089.091137 185.992013 
L 1090.360906 185.65039 
L 1091.630675 217.157737 
L 1092.900444 199.927413 
L 1094.170213 203.679681 
L 1095.439982 181.195559 
L 1096.709751 176.501303 
L 1097.97952 175.652086 
L 1099.249289 177.246401 
L 1100.519058 180.155881 
L 1101.788827 183.647335 
L 1103.058596 183.284382 
L 1104.328365 213.048495 
L 1105.598134 183.41976 
L 1106.867903 180.246392 
L 1108.137672 181.845198 
L 1109.407441 184.991346 
L 1110.67721 183.436794 
L 1111.946979 191.929332 
L 1113.216748 196.688114 
L 1114.486517 193.075519 
L 1115.756286 201.46053 
L 1117.026055 190.816601 
L 1118.295824 195.257528 
L 1119.565593 201.964735 
L 1120.835362 195.206372 
L 1122.105131 221.193009 
L 1123.3749 220.185806 
L 1124.644669 192.333384 
L 1125.914439 187.714948 
L 1127.184208 184.15229 
L 1128.453977 175.460478 
L 1129.723746 178.867097 
L 1130.993515 182.85062 
L 1132.263284 189.22124 
L 1133.533053 191.927275 
L 1134.802822 180.347703 
L 1136.072591 246.445796 
L 1137.34236 215.697432 
L 1138.612129 190.313522 
L 1139.881898 192.756497 
L 1142.421436 174.49635 
L 1143.691205 242.120739 
L 1144.960974 185.742708 
L 1146.230743 195.707748 
L 1147.500512 184.869219 
L 1148.770281 243.896978 
L 1150.04005 255.487921 
L 1151.309819 249.590497 
L 1152.579588 202.041329 
L 1153.849357 190.319486 
L 1155.119126 192.827126 
L 1156.388895 227.587055 
L 1157.658664 193.350343 
L 1158.928433 199.560353 
L 1160.198202 202.737757 
L 1161.467971 192.865582 
L 1162.73774 209.550151 
L 1164.007509 212.80556 
L 1165.277278 250.759033 
L 1166.547047 211.550631 
L 1167.816816 197.020016 
L 1169.086586 196.174348 
L 1170.356355 227.988175 
L 1171.626124 205.130585 
L 1172.895893 212.311022 
L 1174.165662 216.110192 
L 1175.435431 203.307746 
L 1176.7052 218.599441 
L 1177.974969 326.945455 
L 1179.244738 218.802929 
L 1180.514507 219.697841 
L 1181.784276 212.959551 
L 1183.054045 202.742653 
L 1184.323814 239.043304 
L 1185.593583 222.10516 
L 1186.863352 217.402037 
L 1188.133121 219.474312 
L 1189.40289 205.320318 
L 1190.672659 209.530731 
L 1191.942428 289.877958 
L 1193.212197 227.769132 
L 1194.481966 219.027879 
L 1195.751735 215.717286 
L 1197.021504 207.939286 
L 1198.291273 227.936296 
L 1199.561042 229.688632 
L 1200.830811 227.086714 
L 1202.10058 218.578495 
L 1203.370349 220.564641 
L 1204.640118 219.863117 
L 1205.909887 253.727116 
L 1207.179656 235.668857 
L 1208.449425 232.295355 
L 1209.719194 231.566928 
L 1210.988963 235.211553 
L 1212.258733 231.28778 
L 1213.528502 234.260279 
L 1214.798271 239.71743 
L 1216.06804 230.744478 
L 1217.337809 229.821294 
L 1218.607578 233.873358 
L 1219.877347 231.177684 
L 1221.147116 236.894577 
L 1222.416885 236.280168 
L 1223.686654 229.694573 
L 1224.956423 231.926166 
L 1226.226192 232.25251 
L 1227.495961 230.488494 
L 1228.76573 235.318625 
L 1230.035499 227.679919 
L 1231.305268 227.159014 
L 1232.575037 235.183179 
L 1233.844806 230.582811 
L 1235.114575 236.215384 
L 1236.384344 234.633632 
L 1237.654113 229.792353 
L 1238.923882 238.027896 
L 1240.193651 231.958051 
L 1241.46342 235.952997 
L 1242.733189 237.762363 
L 1244.002958 227.276368 
L 1245.272727 236.544416 
L 1245.272727 236.544416 
" style="fill:none;stroke:#000000;stroke-linecap:square;stroke-width:4;"/>
   </g>
   <g id="line2d_20">
    <path clip-path="url(#pfdd13c4e14)" d="M 230.727273 181.260054 
L 484.681079 181.260054 
L 485.950848 172.989883 
L 738.634885 172.989883 
L 739.904654 151.5487 
L 865.611787 151.5487 
L 866.881556 179.115936 
L 992.58869 179.115936 
L 1245.272727 240.070158 
L 1245.272727 240.070158 
" style="fill:none;stroke:#ff0000;stroke-linecap:square;stroke-width:1.5;"/>
   </g>
   <g id="patch_3">
    <path d="M 180 338.4 
L 180 86.4 
" style="fill:none;stroke:#000000;stroke-linecap:square;stroke-linejoin:miter;stroke-width:0.8;"/>
   </g>
   <g id="patch_4">
    <path d="M 1296 338.4 
L 1296 86.4 
" style="fill:none;stroke:#000000;stroke-linecap:square;stroke-linejoin:miter;stroke-width:0.8;"/>
   </g>
   <g id="patch_5">
    <path d="M 180 338.4 
L 1296 338.4 
" style="fill:none;stroke:#000000;stroke-linecap:square;stroke-linejoin:miter;stroke-width:0.8;"/>
   </g>
   <g id="patch_6">
    <path d="M 180 86.4 
L 1296 86.4 
" style="fill:none;stroke:#000000;stroke-linecap:square;stroke-linejoin:miter;stroke-width:0.8;"/>
   </g>
   <g id="legend_1">
    <g id="patch_7">
     <path d="M 1179.510937 123.75625 
L 1289 123.75625 
Q 1291 123.75625 1291 121.75625 
L 1291 93.4 
Q 1291 91.4 1289 91.4 
L 1179.510937 91.4 
Q 1177.510937 91.4 1177.510937 93.4 
L 1177.510937 121.75625 
Q 1177.510937 123.75625 1179.510937 123.75625 
z
" style="fill:#ffffff;opacity:0.8;stroke:#cccccc;stroke-linejoin:miter;"/>
    </g>
    <g id="line2d_21">
     <path d="M 1181.510937 99.498437 
L 1201.510937 99.498437 
" style="fill:none;stroke:#000000;stroke-linecap:square;stroke-width:4;"/>
    </g>
    <g id="line2d_22"/>
    <g id="text_20">
     <!-- CurrentState -->
     <defs>
      <path d="M 64.40625 67.28125 
L 64.40625 56.890625 
Q 59.421875 61.53125 53.78125 63.8125 
Q 48.140625 66.109375 41.796875 66.109375 
Q 29.296875 66.109375 22.65625 58.46875 
Q 16.015625 50.828125 16.015625 36.375 
Q 16.015625 21.96875 22.65625 14.328125 
Q 29.296875 6.6875 41.796875 6.6875 
Q 48.140625 6.6875 53.78125 8.984375 
Q 59.421875 11.28125 64.40625 15.921875 
L 64.40625 5.609375 
Q 59.234375 2.09375 53.4375 0.328125 
Q 47.65625 -1.421875 41.21875 -1.421875 
Q 24.65625 -1.421875 15.125 8.703125 
Q 5.609375 18.84375 5.609375 36.375 
Q 5.609375 53.953125 15.125 64.078125 
Q 24.65625 74.21875 41.21875 74.21875 
Q 47.75 74.21875 53.53125 72.484375 
Q 59.328125 70.75 64.40625 67.28125 
z
" id="DejaVuSans-43"/>
      <path d="M 8.5 21.578125 
L 8.5 54.6875 
L 17.484375 54.6875 
L 17.484375 21.921875 
Q 17.484375 14.15625 20.5 10.265625 
Q 23.53125 6.390625 29.59375 6.390625 
Q 36.859375 6.390625 41.078125 11.03125 
Q 45.3125 15.671875 45.3125 23.6875 
L 45.3125 54.6875 
L 54.296875 54.6875 
L 54.296875 0 
L 45.3125 0 
L 45.3125 8.40625 
Q 42.046875 3.421875 37.71875 1 
Q 33.40625 -1.421875 27.6875 -1.421875 
Q 18.265625 -1.421875 13.375 4.4375 
Q 8.5 10.296875 8.5 21.578125 
z
M 31.109375 56 
z
" id="DejaVuSans-75"/>
      <path d="M 41.109375 46.296875 
Q 39.59375 47.171875 37.8125 47.578125 
Q 36.03125 48 33.890625 48 
Q 26.265625 48 22.1875 43.046875 
Q 18.109375 38.09375 18.109375 28.8125 
L 18.109375 0 
L 9.078125 0 
L 9.078125 54.6875 
L 18.109375 54.6875 
L 18.109375 46.1875 
Q 20.953125 51.171875 25.484375 53.578125 
Q 30.03125 56 36.53125 56 
Q 37.453125 56 38.578125 55.875 
Q 39.703125 55.765625 41.0625 55.515625 
z
" id="DejaVuSans-72"/>
      <path d="M 54.890625 33.015625 
L 54.890625 0 
L 45.90625 0 
L 45.90625 32.71875 
Q 45.90625 40.484375 42.875 44.328125 
Q 39.84375 48.1875 33.796875 48.1875 
Q 26.515625 48.1875 22.3125 43.546875 
Q 18.109375 38.921875 18.109375 30.90625 
L 18.109375 0 
L 9.078125 0 
L 9.078125 54.6875 
L 18.109375 54.6875 
L 18.109375 46.1875 
Q 21.34375 51.125 25.703125 53.5625 
Q 30.078125 56 35.796875 56 
Q 45.21875 56 50.046875 50.171875 
Q 54.890625 44.34375 54.890625 33.015625 
z
" id="DejaVuSans-6e"/>
     </defs>
     <g transform="translate(1209.510937 102.998437)scale(0.1 -0.1)">
      <use xlink:href="#DejaVuSans-43"/>
      <use x="69.824219" xlink:href="#DejaVuSans-75"/>
      <use x="133.203125" xlink:href="#DejaVuSans-72"/>
      <use x="174.300781" xlink:href="#DejaVuSans-72"/>
      <use x="215.382812" xlink:href="#DejaVuSans-65"/>
      <use x="276.90625" xlink:href="#DejaVuSans-6e"/>
      <use x="340.285156" xlink:href="#DejaVuSans-74"/>
      <use x="379.494141" xlink:href="#DejaVuSans-53"/>
      <use x="442.970703" xlink:href="#DejaVuSans-74"/>
      <use x="482.179688" xlink:href="#DejaVuSans-61"/>
      <use x="543.458984" xlink:href="#DejaVuSans-74"/>
      <use x="582.667969" xlink:href="#DejaVuSans-65"/>
     </g>
    </g>
    <g id="line2d_23">
     <path d="M 1181.510937 114.176562 
L 1201.510937 114.176562 
" style="fill:none;stroke:#ff0000;stroke-linecap:square;stroke-width:1.5;"/>
    </g>
    <g id="line2d_24"/>
    <g id="text_21">
     <!-- ReferenceState -->
     <defs>
      <path d="M 44.390625 34.1875 
Q 47.5625 33.109375 50.5625 29.59375 
Q 53.5625 26.078125 56.59375 19.921875 
L 66.609375 0 
L 56 0 
L 46.6875 18.703125 
Q 43.0625 26.03125 39.671875 28.421875 
Q 36.28125 30.8125 30.421875 30.8125 
L 19.671875 30.8125 
L 19.671875 0 
L 9.8125 0 
L 9.8125 72.90625 
L 32.078125 72.90625 
Q 44.578125 72.90625 50.734375 67.671875 
Q 56.890625 62.453125 56.890625 51.90625 
Q 56.890625 45.015625 53.6875 40.46875 
Q 50.484375 35.9375 44.390625 34.1875 
z
M 19.671875 64.796875 
L 19.671875 38.921875 
L 32.078125 38.921875 
Q 39.203125 38.921875 42.84375 42.21875 
Q 46.484375 45.515625 46.484375 51.90625 
Q 46.484375 58.296875 42.84375 61.546875 
Q 39.203125 64.796875 32.078125 64.796875 
z
" id="DejaVuSans-52"/>
      <path d="M 37.109375 75.984375 
L 37.109375 68.5 
L 28.515625 68.5 
Q 23.6875 68.5 21.796875 66.546875 
Q 19.921875 64.59375 19.921875 59.515625 
L 19.921875 54.6875 
L 34.71875 54.6875 
L 34.71875 47.703125 
L 19.921875 47.703125 
L 19.921875 0 
L 10.890625 0 
L 10.890625 47.703125 
L 2.296875 47.703125 
L 2.296875 54.6875 
L 10.890625 54.6875 
L 10.890625 58.5 
Q 10.890625 67.625 15.140625 71.796875 
Q 19.390625 75.984375 28.609375 75.984375 
z
" id="DejaVuSans-66"/>
      <path d="M 48.78125 52.59375 
L 48.78125 44.1875 
Q 44.96875 46.296875 41.140625 47.34375 
Q 37.3125 48.390625 33.40625 48.390625 
Q 24.65625 48.390625 19.8125 42.84375 
Q 14.984375 37.3125 14.984375 27.296875 
Q 14.984375 17.28125 19.8125 11.734375 
Q 24.65625 6.203125 33.40625 6.203125 
Q 37.3125 6.203125 41.140625 7.25 
Q 44.96875 8.296875 48.78125 10.40625 
L 48.78125 2.09375 
Q 45.015625 0.34375 40.984375 -0.53125 
Q 36.96875 -1.421875 32.421875 -1.421875 
Q 20.0625 -1.421875 12.78125 6.34375 
Q 5.515625 14.109375 5.515625 27.296875 
Q 5.515625 40.671875 12.859375 48.328125 
Q 20.21875 56 33.015625 56 
Q 37.15625 56 41.109375 55.140625 
Q 45.0625 54.296875 48.78125 52.59375 
z
" id="DejaVuSans-63"/>
     </defs>
     <g transform="translate(1209.510937 117.676562)scale(0.1 -0.1)">
      <use xlink:href="#DejaVuSans-52"/>
      <use x="69.419922" xlink:href="#DejaVuSans-65"/>
      <use x="130.943359" xlink:href="#DejaVuSans-66"/>
      <use x="166.148438" xlink:href="#DejaVuSans-65"/>
      <use x="227.671875" xlink:href="#DejaVuSans-72"/>
      <use x="268.753906" xlink:href="#DejaVuSans-65"/>
      <use x="330.277344" xlink:href="#DejaVuSans-6e"/>
      <use x="393.65625" xlink:href="#DejaVuSans-63"/>
      <use x="448.636719" xlink:href="#DejaVuSans-65"/>
      <use x="510.160156" xlink:href="#DejaVuSans-53"/>
      <use x="573.636719" xlink:href="#DejaVuSans-74"/>
      <use x="612.845703" xlink:href="#DejaVuSans-61"/>
      <use x="674.125" xlink:href="#DejaVuSans-74"/>
      <use x="713.333984" xlink:href="#DejaVuSans-65"/>
     </g>
    </g>
   </g>
  </g>
  <g id="axes_2">
   <g id="patch_8">
    <path d="M 180 640.8 
L 1296 640.8 
L 1296 388.8 
L 180 388.8 
z
" style="fill:#ffffff;"/>
   </g>
   <g id="matplotlib.axis_3">
    <g id="xtick_10">
     <g id="line2d_25">
      <g>
       <use style="stroke:#000000;stroke-width:0.8;" x="230.727273" xlink:href="#m6b9f9a812d" y="640.8"/>
      </g>
     </g>
     <g id="text_22">
      <!-- 0 -->
      <g transform="translate(227.546023 655.398438)scale(0.1 -0.1)">
       <use xlink:href="#DejaVuSans-30"/>
      </g>
     </g>
    </g>
    <g id="xtick_11">
     <g id="line2d_26">
      <g>
       <use style="stroke:#000000;stroke-width:0.8;" x="357.704176" xlink:href="#m6b9f9a812d" y="640.8"/>
      </g>
     </g>
     <g id="text_23">
      <!-- 100 -->
      <g transform="translate(348.160426 655.398438)scale(0.1 -0.1)">
       <use xlink:href="#DejaVuSans-31"/>
       <use x="63.623047" xlink:href="#DejaVuSans-30"/>
       <use x="127.246094" xlink:href="#DejaVuSans-30"/>
      </g>
     </g>
    </g>
    <g id="xtick_12">
     <g id="line2d_27">
      <g>
       <use style="stroke:#000000;stroke-width:0.8;" x="484.681079" xlink:href="#m6b9f9a812d" y="640.8"/>
      </g>
     </g>
     <g id="text_24">
      <!-- 200 -->
      <g transform="translate(475.137329 655.398438)scale(0.1 -0.1)">
       <use xlink:href="#DejaVuSans-32"/>
       <use x="63.623047" xlink:href="#DejaVuSans-30"/>
       <use x="127.246094" xlink:href="#DejaVuSans-30"/>
      </g>
     </g>
    </g>
    <g id="xtick_13">
     <g id="line2d_28">
      <g>
       <use style="stroke:#000000;stroke-width:0.8;" x="611.657982" xlink:href="#m6b9f9a812d" y="640.8"/>
      </g>
     </g>
     <g id="text_25">
      <!-- 300 -->
      <g transform="translate(602.114232 655.398438)scale(0.1 -0.1)">
       <use xlink:href="#DejaVuSans-33"/>
       <use x="63.623047" xlink:href="#DejaVuSans-30"/>
       <use x="127.246094" xlink:href="#DejaVuSans-30"/>
      </g>
     </g>
    </g>
    <g id="xtick_14">
     <g id="line2d_29">
      <g>
       <use style="stroke:#000000;stroke-width:0.8;" x="738.634885" xlink:href="#m6b9f9a812d" y="640.8"/>
      </g>
     </g>
     <g id="text_26">
      <!-- 400 -->
      <g transform="translate(729.091135 655.398438)scale(0.1 -0.1)">
       <use xlink:href="#DejaVuSans-34"/>
       <use x="63.623047" xlink:href="#DejaVuSans-30"/>
       <use x="127.246094" xlink:href="#DejaVuSans-30"/>
      </g>
     </g>
    </g>
    <g id="xtick_15">
     <g id="line2d_30">
      <g>
       <use style="stroke:#000000;stroke-width:0.8;" x="865.611787" xlink:href="#m6b9f9a812d" y="640.8"/>
      </g>
     </g>
     <g id="text_27">
      <!-- 500 -->
      <g transform="translate(856.068037 655.398438)scale(0.1 -0.1)">
       <use xlink:href="#DejaVuSans-35"/>
       <use x="63.623047" xlink:href="#DejaVuSans-30"/>
       <use x="127.246094" xlink:href="#DejaVuSans-30"/>
      </g>
     </g>
    </g>
    <g id="xtick_16">
     <g id="line2d_31">
      <g>
       <use style="stroke:#000000;stroke-width:0.8;" x="992.58869" xlink:href="#m6b9f9a812d" y="640.8"/>
      </g>
     </g>
     <g id="text_28">
      <!-- 600 -->
      <g transform="translate(983.04494 655.398438)scale(0.1 -0.1)">
       <use xlink:href="#DejaVuSans-36"/>
       <use x="63.623047" xlink:href="#DejaVuSans-30"/>
       <use x="127.246094" xlink:href="#DejaVuSans-30"/>
      </g>
     </g>
    </g>
    <g id="xtick_17">
     <g id="line2d_32">
      <g>
       <use style="stroke:#000000;stroke-width:0.8;" x="1119.565593" xlink:href="#m6b9f9a812d" y="640.8"/>
      </g>
     </g>
     <g id="text_29">
      <!-- 700 -->
      <g transform="translate(1110.021843 655.398438)scale(0.1 -0.1)">
       <use xlink:href="#DejaVuSans-37"/>
       <use x="63.623047" xlink:href="#DejaVuSans-30"/>
       <use x="127.246094" xlink:href="#DejaVuSans-30"/>
      </g>
     </g>
    </g>
    <g id="xtick_18">
     <g id="line2d_33">
      <g>
       <use style="stroke:#000000;stroke-width:0.8;" x="1246.542496" xlink:href="#m6b9f9a812d" y="640.8"/>
      </g>
     </g>
     <g id="text_30">
      <!-- 800 -->
      <g transform="translate(1236.998746 655.398438)scale(0.1 -0.1)">
       <use xlink:href="#DejaVuSans-38"/>
       <use x="63.623047" xlink:href="#DejaVuSans-30"/>
       <use x="127.246094" xlink:href="#DejaVuSans-30"/>
      </g>
     </g>
    </g>
    <g id="text_31">
     <!-- Time -->
     <defs>
      <path d="M -0.296875 72.90625 
L 61.375 72.90625 
L 61.375 64.59375 
L 35.5 64.59375 
L 35.5 0 
L 25.59375 0 
L 25.59375 64.59375 
L -0.296875 64.59375 
z
" id="DejaVuSans-54"/>
      <path d="M 9.421875 54.6875 
L 18.40625 54.6875 
L 18.40625 0 
L 9.421875 0 
z
M 9.421875 75.984375 
L 18.40625 75.984375 
L 18.40625 64.59375 
L 9.421875 64.59375 
z
" id="DejaVuSans-69"/>
      <path d="M 52 44.1875 
Q 55.375 50.25 60.0625 53.125 
Q 64.75 56 71.09375 56 
Q 79.640625 56 84.28125 50.015625 
Q 88.921875 44.046875 88.921875 33.015625 
L 88.921875 0 
L 79.890625 0 
L 79.890625 32.71875 
Q 79.890625 40.578125 77.09375 44.375 
Q 74.3125 48.1875 68.609375 48.1875 
Q 61.625 48.1875 57.5625 43.546875 
Q 53.515625 38.921875 53.515625 30.90625 
L 53.515625 0 
L 44.484375 0 
L 44.484375 32.71875 
Q 44.484375 40.625 41.703125 44.40625 
Q 38.921875 48.1875 33.109375 48.1875 
Q 26.21875 48.1875 22.15625 43.53125 
Q 18.109375 38.875 18.109375 30.90625 
L 18.109375 0 
L 9.078125 0 
L 9.078125 54.6875 
L 18.109375 54.6875 
L 18.109375 46.1875 
Q 21.1875 51.21875 25.484375 53.609375 
Q 29.78125 56 35.6875 56 
Q 41.65625 56 45.828125 52.96875 
Q 50 49.953125 52 44.1875 
z
" id="DejaVuSans-6d"/>
     </defs>
     <g transform="translate(725.6125 669.076563)scale(0.1 -0.1)">
      <use xlink:href="#DejaVuSans-54"/>
      <use x="61.037109" xlink:href="#DejaVuSans-69"/>
      <use x="88.820312" xlink:href="#DejaVuSans-6d"/>
      <use x="186.232422" xlink:href="#DejaVuSans-65"/>
     </g>
    </g>
   </g>
   <g id="matplotlib.axis_4">
    <g id="ytick_10">
     <g id="line2d_34">
      <g>
       <use style="stroke:#000000;stroke-width:0.8;" x="180" xlink:href="#m551e57dda5" y="601.121293"/>
      </g>
     </g>
     <g id="text_32">
      <!-- −20 -->
      <g transform="translate(151.895312 604.920512)scale(0.1 -0.1)">
       <use xlink:href="#DejaVuSans-2212"/>
       <use x="83.789062" xlink:href="#DejaVuSans-32"/>
       <use x="147.412109" xlink:href="#DejaVuSans-30"/>
      </g>
     </g>
    </g>
    <g id="ytick_11">
     <g id="line2d_35">
      <g>
       <use style="stroke:#000000;stroke-width:0.8;" x="180" xlink:href="#m551e57dda5" y="549.118164"/>
      </g>
     </g>
     <g id="text_33">
      <!-- 0 -->
      <g transform="translate(166.6375 552.917383)scale(0.1 -0.1)">
       <use xlink:href="#DejaVuSans-30"/>
      </g>
     </g>
    </g>
    <g id="ytick_12">
     <g id="line2d_36">
      <g>
       <use style="stroke:#000000;stroke-width:0.8;" x="180" xlink:href="#m551e57dda5" y="497.115035"/>
      </g>
     </g>
     <g id="text_34">
      <!-- 20 -->
      <g transform="translate(160.275 500.914254)scale(0.1 -0.1)">
       <use xlink:href="#DejaVuSans-32"/>
       <use x="63.623047" xlink:href="#DejaVuSans-30"/>
      </g>
     </g>
    </g>
    <g id="ytick_13">
     <g id="line2d_37">
      <g>
       <use style="stroke:#000000;stroke-width:0.8;" x="180" xlink:href="#m551e57dda5" y="445.111906"/>
      </g>
     </g>
     <g id="text_35">
      <!-- 40 -->
      <g transform="translate(160.275 448.911125)scale(0.1 -0.1)">
       <use xlink:href="#DejaVuSans-34"/>
       <use x="63.623047" xlink:href="#DejaVuSans-30"/>
      </g>
     </g>
    </g>
    <g id="ytick_14">
     <g id="line2d_38">
      <g>
       <use style="stroke:#000000;stroke-width:0.8;" x="180" xlink:href="#m551e57dda5" y="393.108777"/>
      </g>
     </g>
     <g id="text_36">
      <!-- 60 -->
      <g transform="translate(160.275 396.907996)scale(0.1 -0.1)">
       <use xlink:href="#DejaVuSans-36"/>
       <use x="63.623047" xlink:href="#DejaVuSans-30"/>
      </g>
     </g>
    </g>
    <g id="text_37">
     <!-- Control Input -->
     <defs>
      <path d="M 30.609375 48.390625 
Q 23.390625 48.390625 19.1875 42.75 
Q 14.984375 37.109375 14.984375 27.296875 
Q 14.984375 17.484375 19.15625 11.84375 
Q 23.34375 6.203125 30.609375 6.203125 
Q 37.796875 6.203125 41.984375 11.859375 
Q 46.1875 17.53125 46.1875 27.296875 
Q 46.1875 37.015625 41.984375 42.703125 
Q 37.796875 48.390625 30.609375 48.390625 
z
M 30.609375 56 
Q 42.328125 56 49.015625 48.375 
Q 55.71875 40.765625 55.71875 27.296875 
Q 55.71875 13.875 49.015625 6.21875 
Q 42.328125 -1.421875 30.609375 -1.421875 
Q 18.84375 -1.421875 12.171875 6.21875 
Q 5.515625 13.875 5.515625 27.296875 
Q 5.515625 40.765625 12.171875 48.375 
Q 18.84375 56 30.609375 56 
z
" id="DejaVuSans-6f"/>
      <path d="M 9.421875 75.984375 
L 18.40625 75.984375 
L 18.40625 0 
L 9.421875 0 
z
" id="DejaVuSans-6c"/>
      <path id="DejaVuSans-20"/>
      <path d="M 9.8125 72.90625 
L 19.671875 72.90625 
L 19.671875 0 
L 9.8125 0 
z
" id="DejaVuSans-49"/>
      <path d="M 18.109375 8.203125 
L 18.109375 -20.796875 
L 9.078125 -20.796875 
L 9.078125 54.6875 
L 18.109375 54.6875 
L 18.109375 46.390625 
Q 20.953125 51.265625 25.265625 53.625 
Q 29.59375 56 35.59375 56 
Q 45.5625 56 51.78125 48.09375 
Q 58.015625 40.1875 58.015625 27.296875 
Q 58.015625 14.40625 51.78125 6.484375 
Q 45.5625 -1.421875 35.59375 -1.421875 
Q 29.59375 -1.421875 25.265625 0.953125 
Q 20.953125 3.328125 18.109375 8.203125 
z
M 48.6875 27.296875 
Q 48.6875 37.203125 44.609375 42.84375 
Q 40.53125 48.484375 33.40625 48.484375 
Q 26.265625 48.484375 22.1875 42.84375 
Q 18.109375 37.203125 18.109375 27.296875 
Q 18.109375 17.390625 22.1875 11.75 
Q 26.265625 6.109375 33.40625 6.109375 
Q 40.53125 6.109375 44.609375 11.75 
Q 48.6875 17.390625 48.6875 27.296875 
z
" id="DejaVuSans-70"/>
     </defs>
     <g transform="translate(145.815625 547.517969)rotate(-90)scale(0.1 -0.1)">
      <use xlink:href="#DejaVuSans-43"/>
      <use x="69.824219" xlink:href="#DejaVuSans-6f"/>
      <use x="131.005859" xlink:href="#DejaVuSans-6e"/>
      <use x="194.384766" xlink:href="#DejaVuSans-74"/>
      <use x="233.59375" xlink:href="#DejaVuSans-72"/>
      <use x="274.675781" xlink:href="#DejaVuSans-6f"/>
      <use x="335.857422" xlink:href="#DejaVuSans-6c"/>
      <use x="363.640625" xlink:href="#DejaVuSans-20"/>
      <use x="395.427734" xlink:href="#DejaVuSans-49"/>
      <use x="424.919922" xlink:href="#DejaVuSans-6e"/>
      <use x="488.298828" xlink:href="#DejaVuSans-70"/>
      <use x="551.775391" xlink:href="#DejaVuSans-75"/>
      <use x="615.154297" xlink:href="#DejaVuSans-74"/>
     </g>
    </g>
   </g>
   <g id="line2d_39">
    <path clip-path="url(#p23c6bb62a3)" d="M 230.727273 544.627589 
L 231.997042 543.009156 
L 233.266811 541.67006 
L 234.53658 543.031588 
L 235.806349 544.143509 
L 237.076118 543.585047 
L 238.345887 542.668144 
L 239.615656 546.66045 
L 240.885425 548.916751 
L 242.155194 547.220882 
L 243.424963 547.199528 
L 244.694732 546.73902 
L 245.964501 546.757242 
L 247.23427 547.269942 
L 248.504039 547.327492 
L 249.773808 547.118635 
L 251.043577 547.477765 
L 253.583115 546.957939 
L 254.852884 546.954662 
L 256.122653 546.788823 
L 271.359882 546.53092 
L 292.945955 546.437565 
L 296.755262 546.300062 
L 301.834338 546.087745 
L 309.452953 546.012717 
L 317.071567 545.959393 
L 323.420412 545.887806 
L 338.65764 545.645332 
L 348.815792 545.31523 
L 356.434407 544.842741 
L 358.973945 544.47613 
L 362.783252 543.702803 
L 369.132097 542.249469 
L 371.671635 541.940229 
L 372.941404 541.925493 
L 374.211173 542.097969 
L 376.750711 542.976593 
L 383.099556 544.621975 
L 384.369325 544.724241 
L 385.639094 543.858709 
L 386.908863 540.956604 
L 388.178632 539.524036 
L 389.448401 539.502663 
L 390.71817 541.533568 
L 391.987939 542.4384 
L 393.257708 543.0972 
L 394.527478 543.3386 
L 397.067016 543.403269 
L 398.336785 544.572612 
L 399.606554 545.001935 
L 400.876323 541.843557 
L 402.146092 540.951084 
L 403.415861 541.763545 
L 404.68563 541.260119 
L 405.955399 541.431002 
L 407.225168 543.303554 
L 408.494937 542.075588 
L 409.764706 541.420937 
L 411.034475 541.345463 
L 412.304244 541.384252 
L 413.574013 541.274001 
L 414.843782 541.01166 
L 416.113551 542.010894 
L 417.38332 542.763204 
L 418.653089 542.133201 
L 419.922858 544.638422 
L 421.192627 546.74235 
L 422.462396 545.861788 
L 423.732165 542.963009 
L 425.001934 544.502708 
L 426.271703 536.561216 
L 427.541472 539.602432 
L 428.811241 544.29176 
L 430.08101 546.729768 
L 431.350779 545.289227 
L 432.620548 546.526743 
L 433.890317 547.388585 
L 435.160086 546.33251 
L 436.429856 546.021189 
L 437.699625 546.611569 
L 438.969394 548.342429 
L 440.239163 549.217914 
L 441.508932 546.412075 
L 442.778701 547.451871 
L 444.04847 548.343517 
L 445.318239 547.862271 
L 446.588008 548.448992 
L 447.857777 548.752889 
L 449.127546 547.836633 
L 450.397315 545.351688 
L 451.667084 546.114387 
L 452.936853 546.447822 
L 454.206622 546.00042 
L 455.476391 543.96087 
L 458.015929 542.453703 
L 459.285698 541.484297 
L 460.555467 541.602867 
L 461.825236 542.878248 
L 463.095005 543.552355 
L 464.364774 543.485635 
L 466.904312 542.669539 
L 468.174081 541.687767 
L 469.44385 541.106847 
L 470.713619 541.458029 
L 471.983388 542.371147 
L 473.253157 542.897425 
L 474.522926 542.977957 
L 475.792695 544.991123 
L 477.062464 547.285723 
L 478.332233 546.39851 
L 479.602003 545.350817 
L 480.871772 547.382668 
L 482.141541 549.973632 
L 483.41131 547.512347 
L 484.681079 549.215247 
L 485.950848 536.156396 
L 487.220617 551.961688 
L 488.490386 539.802179 
L 489.760155 520.75139 
L 491.029924 509.455882 
L 492.299693 520.972969 
L 493.569462 505.172749 
L 494.839231 493.604287 
L 496.109 494.925259 
L 497.378769 511.596864 
L 498.648538 524.960377 
L 501.188076 537.583279 
L 502.457845 542.159257 
L 503.727614 525.477251 
L 504.997383 495.97461 
L 506.267152 475.55369 
L 507.536921 486.1548 
L 508.80669 501.446475 
L 510.076459 514.790661 
L 511.346228 540.912137 
L 512.615997 556.395104 
L 513.885766 534.493953 
L 515.155535 517.573822 
L 516.425304 524.807712 
L 517.695073 522.876034 
L 518.964842 534.615841 
L 520.234611 551.754551 
L 521.50438 561.900911 
L 522.77415 531.22306 
L 524.043919 531.950368 
L 525.313688 538.530902 
L 526.583457 532.327499 
L 527.853226 532.568011 
L 529.122995 547.031047 
L 530.392764 555.426598 
L 531.662533 534.928899 
L 532.932302 531.62128 
L 534.202071 541.376228 
L 535.47184 538.670121 
L 536.741609 533.161214 
L 538.011378 539.324669 
L 539.281147 548.693934 
L 540.550916 542.931552 
L 541.820685 535.232369 
L 544.360223 541.896979 
L 545.629992 533.100293 
L 546.899761 531.530396 
L 548.16953 539.629317 
L 549.439299 541.573758 
L 550.709068 533.495501 
L 551.978837 533.679896 
L 553.248606 540.850082 
L 554.518375 537.187455 
L 555.788144 533.88026 
L 557.057913 541.158861 
L 558.327682 545.748224 
L 559.597451 535.637822 
L 560.86722 532.754457 
L 562.136989 539.446506 
L 563.406758 538.805801 
L 564.676527 536.133554 
L 565.946297 539.129559 
L 567.216066 544.492328 
L 569.755604 532.299111 
L 571.025373 536.829847 
L 572.295142 539.712424 
L 573.564911 536.750623 
L 574.83468 535.857008 
L 576.104449 541.360367 
L 577.374218 539.972966 
L 578.643987 535.375409 
L 579.913756 536.451296 
L 581.183525 540.215645 
L 582.453294 539.787826 
L 583.723063 536.371869 
L 584.992832 539.739582 
L 586.262601 541.975019 
L 587.53237 537.953782 
L 588.802139 535.484859 
L 590.071908 539.607792 
L 591.341677 541.245679 
L 592.611446 538.272032 
L 593.881215 538.440667 
L 595.150984 541.75408 
L 596.420753 539.756748 
L 597.690522 537.030651 
L 598.960291 539.444941 
L 600.23006 541.600478 
L 601.499829 540.271122 
L 602.769598 538.535917 
L 604.039367 540.603249 
L 605.309136 541.115682 
L 606.578905 539.011978 
L 607.848674 538.572699 
L 609.118444 541.1791 
L 610.388213 541.275946 
L 611.657982 539.658681 
L 612.927751 540.437857 
L 614.19752 541.385492 
L 615.467289 540.847658 
L 616.737058 539.678544 
L 619.276596 541.897157 
L 620.546365 540.614472 
L 621.816134 539.715966 
L 623.085903 540.893681 
L 624.355672 540.962735 
L 625.625441 540.325716 
L 626.89521 540.236388 
L 628.164979 541.065047 
L 629.434748 541.389738 
L 630.704517 540.345043 
L 631.974286 540.069889 
L 633.244055 540.921692 
L 634.513824 540.930752 
L 635.783593 540.480542 
L 637.053362 540.55575 
L 638.323131 541.136162 
L 639.5929 541.270688 
L 640.862669 540.449765 
L 642.132438 540.579021 
L 643.402207 541.24697 
L 644.671976 541.316445 
L 645.941745 541.051633 
L 647.211514 541.116643 
L 648.481283 541.647487 
L 649.751052 541.462118 
L 651.020821 541.032313 
L 652.290591 541.299222 
L 653.56036 541.852473 
L 654.830129 542.004347 
L 656.099898 541.588951 
L 658.639436 541.907158 
L 661.178974 541.739701 
L 662.448743 541.936816 
L 663.718512 542.314662 
L 664.988281 542.047879 
L 667.527819 542.009018 
L 670.067357 542.287557 
L 671.337126 542.136554 
L 672.606895 542.398898 
L 673.876664 542.219597 
L 676.416202 542.251965 
L 677.685971 542.289231 
L 678.95574 542.586914 
L 680.225509 542.295856 
L 681.495278 542.576287 
L 682.765047 542.313829 
L 684.034816 542.520634 
L 685.304585 542.586082 
L 686.574354 542.407352 
L 687.844123 542.873857 
L 689.113892 542.352062 
L 690.383661 542.893848 
L 691.65343 542.473896 
L 694.192968 542.949621 
L 695.462738 542.445783 
L 696.732507 543.328728 
L 698.002276 542.238416 
L 699.272045 543.310292 
L 700.541814 542.665758 
L 701.811583 542.905143 
L 703.081352 543.322018 
L 704.351121 542.53327 
L 705.62089 544.040179 
L 706.890659 541.946742 
L 708.160428 543.744932 
L 709.430197 542.801405 
L 710.699966 543.042957 
L 713.239504 542.780104 
L 714.509273 544.363864 
L 715.779042 541.878196 
L 717.048811 544.04974 
L 718.31858 542.490718 
L 719.588349 543.593246 
L 720.858118 542.620057 
L 723.397656 543.780775 
L 724.667425 542.433753 
L 725.937194 544.268767 
L 727.206963 542.202829 
L 728.476732 544.507433 
L 729.746501 542.910114 
L 731.01627 543.752869 
L 732.286039 542.906404 
L 733.555808 543.299134 
L 734.825577 544.436287 
L 736.095346 541.97473 
L 737.365115 544.840538 
L 738.634885 543.24475 
L 739.904654 526.431312 
L 741.174423 543.564554 
L 742.444192 465.619105 
L 743.713961 402.302819 
L 744.98373 400.254545 
L 746.253499 465.135156 
L 747.523268 489.782143 
L 748.793037 525.386266 
L 751.332575 629.345455 
L 752.602344 613.707514 
L 753.872113 569.417226 
L 755.141882 554.274145 
L 756.411651 576.008203 
L 757.68142 550.052402 
L 758.951189 510.493436 
L 760.220958 496.702472 
L 761.490727 512.938579 
L 762.760496 510.512004 
L 764.030265 492.716817 
L 766.569803 554.053208 
L 767.839572 542.844867 
L 769.109341 528.770646 
L 770.37911 552.743655 
L 771.648879 518.68528 
L 772.918648 477.675304 
L 774.188417 501.142925 
L 775.458186 536.601779 
L 776.727955 499.76179 
L 777.997724 515.954034 
L 779.267493 555.273891 
L 780.537262 514.69528 
L 781.807032 508.709568 
L 783.076801 514.639605 
L 784.34657 530.046998 
L 785.616339 530.861702 
L 786.886108 514.831036 
L 788.155877 561.010557 
L 789.425646 542.590791 
L 790.695415 486.555857 
L 791.965184 506.286254 
L 793.234953 545.986379 
L 794.504722 511.281072 
L 795.774491 519.227042 
L 797.04426 555.411336 
L 798.314029 553.793638 
L 799.583798 500.81605 
L 800.853567 514.906394 
L 802.123336 556.08187 
L 803.393105 523.730336 
L 804.662874 506.320687 
L 805.932643 547.693545 
L 807.202412 560.575349 
L 808.472181 487.37344 
L 809.74195 504.529325 
L 811.011719 550.617481 
L 812.281488 532.305918 
L 813.551257 512.137097 
L 814.821026 526.617404 
L 816.090795 552.895249 
L 817.360564 517.145895 
L 818.630333 505.278136 
L 819.900102 542.395857 
L 821.169871 550.171145 
L 822.43964 487.79489 
L 823.709409 505.188906 
L 824.979179 547.970578 
L 826.248948 534.100357 
L 827.518717 515.575029 
L 828.788486 540.452068 
L 830.058255 552.473417 
L 831.328024 497.601052 
L 832.597793 497.490403 
L 833.867562 540.298911 
L 835.137331 537.427116 
L 836.4071 517.352943 
L 837.676869 537.870353 
L 838.946638 551.818523 
L 840.216407 506.729982 
L 841.486176 505.905347 
L 842.755945 539.089918 
L 844.025714 535.746193 
L 845.295483 520.11429 
L 846.565252 539.371654 
L 847.835021 552.807721 
L 849.10479 511.359527 
L 850.374559 516.070322 
L 851.644328 542.605724 
L 852.914097 531.092572 
L 854.183866 527.062431 
L 855.453635 542.994839 
L 856.723404 547.436727 
L 857.993173 522.337308 
L 859.262942 527.109007 
L 860.532711 539.346507 
L 861.80248 523.755438 
L 863.072249 529.430931 
L 864.342018 543.628388 
L 865.611787 537.843778 
L 866.881556 542.031234 
L 868.151326 527.859824 
L 869.421095 563.63611 
L 870.690864 553.823315 
L 871.960633 554.279742 
L 873.230402 523.176442 
L 874.500171 562.873505 
L 875.76994 568.611693 
L 877.039709 568.778899 
L 878.309478 534.820853 
L 879.579247 558.280899 
L 880.849016 559.927569 
L 882.118785 522.144851 
L 883.388554 542.934759 
L 884.658323 551.32619 
L 885.928092 548.496501 
L 887.197861 546.416027 
L 888.46763 549.032291 
L 889.737399 553.818572 
L 891.007168 550.535476 
L 892.276937 532.533284 
L 893.546706 550.100346 
L 894.816475 550.589624 
L 896.086244 539.588022 
L 897.356013 545.748887 
L 898.625782 550.49951 
L 899.895551 552.012581 
L 901.16532 543.19318 
L 902.435089 547.388364 
L 903.704858 552.136941 
L 904.974627 545.934144 
L 906.244396 542.88302 
L 907.514165 548.903809 
L 908.783934 549.516652 
L 910.053703 544.31509 
L 911.323473 545.438652 
L 912.593242 549.755241 
L 913.863011 549.329317 
L 915.13278 544.500544 
L 916.402549 547.185127 
L 917.672318 550.329972 
L 918.942087 546.416914 
L 920.211856 543.976697 
L 921.481625 548.350379 
L 922.751394 549.243728 
L 924.021163 544.817254 
L 925.290932 545.947264 
L 926.560701 549.543445 
L 927.83047 548.682201 
L 929.100239 545.251004 
L 931.639777 550.00408 
L 932.909546 546.49903 
L 934.179315 544.763667 
L 935.449084 548.526264 
L 936.718853 548.724075 
L 937.988622 545.056205 
L 939.258391 546.500676 
L 940.52816 549.452457 
L 941.797929 548.141854 
L 943.067698 545.68693 
L 944.337467 548.12212 
L 945.607236 549.810894 
L 946.877005 546.254351 
L 948.146774 545.374222 
L 949.416543 548.941586 
L 950.686312 548.240688 
L 951.956081 545.042756 
L 954.49562 549.555512 
L 955.765389 547.240865 
L 957.035158 546.19486 
L 958.304927 548.950989 
L 959.574696 548.86061 
L 960.844465 545.984954 
L 962.114234 546.666572 
L 963.384003 549.10562 
L 964.653772 547.211976 
L 965.923541 545.644722 
L 967.19331 548.313892 
L 968.463079 549.070307 
L 969.732848 546.424924 
L 971.002617 547.037362 
L 972.272386 549.354318 
L 974.811924 546.006814 
L 976.081693 547.854345 
L 977.351462 548.722456 
L 978.621231 546.459437 
L 979.891 546.631601 
L 981.160769 549.093293 
L 982.430538 548.070667 
L 983.700307 546.434378 
L 984.970076 548.250564 
L 986.239845 548.950641 
L 987.509614 546.739466 
L 988.779383 546.815304 
L 990.049152 548.712733 
L 991.318921 547.684413 
L 992.58869 546.435215 
L 993.858459 548.428313 
L 995.128228 548.816025 
L 996.397997 547.451382 
L 997.667767 548.627151 
L 998.937536 549.637657 
L 1000.207305 548.355092 
L 1001.477074 548.319105 
L 1002.746843 549.250978 
L 1004.016612 549.330496 
L 1005.286381 547.994974 
L 1007.825919 549.095387 
L 1010.365457 547.885054 
L 1011.635226 547.391984 
L 1012.904995 547.451614 
L 1014.174764 546.393187 
L 1015.444533 546.12026 
L 1016.714302 546.643559 
L 1017.984071 546.228125 
L 1020.523609 546.528885 
L 1021.793378 547.562842 
L 1023.063147 547.732599 
L 1024.332916 548.139948 
L 1025.602685 549.218566 
L 1026.872454 550.035746 
L 1028.142223 550.422085 
L 1029.411992 550.509712 
L 1030.681761 553.522404 
L 1031.95153 555.047654 
L 1033.221299 556.303087 
L 1034.491068 554.978215 
L 1035.760837 554.339138 
L 1037.030606 551.201197 
L 1038.300375 547.158712 
L 1039.570144 545.596396 
L 1040.839914 545.367862 
L 1042.109683 549.726198 
L 1044.649221 547.31259 
L 1045.91899 548.35515 
L 1047.188759 549.72084 
L 1048.458528 550.210191 
L 1049.728297 549.179749 
L 1050.998066 551.722485 
L 1052.267835 552.448912 
L 1053.537604 554.071388 
L 1054.807373 551.973727 
L 1056.077142 547.885131 
L 1057.346911 542.307552 
L 1058.61668 535.372668 
L 1059.886449 545.518095 
L 1061.156218 542.564968 
L 1062.425987 543.343271 
L 1063.695756 546.396243 
L 1064.965525 545.538824 
L 1067.505063 546.75432 
L 1068.774832 555.701896 
L 1070.044601 555.395512 
L 1071.31437 565.495819 
L 1072.584139 548.33468 
L 1073.853908 545.345426 
L 1075.123677 562.30914 
L 1076.393446 537.467411 
L 1077.663215 561.050068 
L 1078.932984 555.822459 
L 1080.202753 538.749234 
L 1081.472522 543.951088 
L 1082.742292 553.393523 
L 1084.012061 549.517971 
L 1086.551599 554.667388 
L 1087.821368 547.28343 
L 1089.091137 548.539498 
L 1090.360906 554.115238 
L 1091.630675 557.221673 
L 1092.900444 540.435275 
L 1094.170213 537.772315 
L 1095.439982 532.981711 
L 1096.709751 544.311603 
L 1097.97952 551.870949 
L 1099.249289 556.83217 
L 1100.519058 558.509877 
L 1101.788827 548.438426 
L 1103.058596 544.275392 
L 1104.328365 552.153374 
L 1105.598134 541.785602 
L 1106.867903 553.535893 
L 1108.137672 556.146119 
L 1109.407441 546.990837 
L 1110.67721 547.986329 
L 1111.946979 547.54456 
L 1113.216748 539.92703 
L 1114.486517 559.41704 
L 1115.756286 560.226926 
L 1117.026055 560.587033 
L 1118.295824 548.599098 
L 1119.565593 538.399016 
L 1120.835362 544.610435 
L 1122.105131 566.39072 
L 1123.3749 563.665209 
L 1124.644669 538.37552 
L 1125.914439 539.453931 
L 1127.184208 521.06719 
L 1128.453977 555.874399 
L 1129.723746 562.145695 
L 1130.993515 569.491021 
L 1132.263284 559.37007 
L 1133.533053 516.644301 
L 1134.802822 554.192047 
L 1137.34236 563.365552 
L 1138.612129 558.68741 
L 1139.881898 525.355997 
L 1141.151667 516.964931 
L 1142.421436 554.694529 
L 1143.691205 576.55597 
L 1144.960974 580.138463 
L 1146.230743 520.676741 
L 1147.500512 562.154728 
L 1148.770281 541.539395 
L 1150.04005 583.883609 
L 1151.309819 570.229884 
L 1152.579588 520.312408 
L 1153.849357 551.714447 
L 1155.119126 546.456273 
L 1156.388895 556.19393 
L 1157.658664 573.139894 
L 1158.928433 569.836936 
L 1160.198202 517.010675 
L 1161.467971 583.12515 
L 1162.73774 555.81224 
L 1164.007509 543.113887 
L 1165.277278 589.423317 
L 1166.547047 520.770999 
L 1167.816816 537.935237 
L 1169.086586 574.933989 
L 1170.356355 569.233505 
L 1171.626124 569.584698 
L 1172.895893 565.199605 
L 1174.165662 524.535708 
L 1175.435431 563.854366 
L 1176.7052 582.275381 
L 1177.974969 569.308457 
L 1179.244738 560.867698 
L 1180.514507 541.887084 
L 1181.784276 517.95074 
L 1183.054045 582.305358 
L 1184.323814 587.884051 
L 1185.593583 554.976238 
L 1186.863352 561.812019 
L 1188.133121 519.802056 
L 1190.672659 590.33434 
L 1191.942428 592.145182 
L 1193.212197 535.681435 
L 1194.481966 545.975538 
L 1195.751735 528.480221 
L 1197.021504 564.011708 
L 1198.291273 587.493707 
L 1199.561042 588.974406 
L 1200.830811 531.648715 
L 1202.10058 558.771487 
L 1203.370349 555.424464 
L 1204.640118 567.774319 
L 1205.909887 592.620863 
L 1207.179656 567.873631 
L 1208.449425 546.898944 
L 1209.719194 565.945519 
L 1210.988963 556.284831 
L 1212.258733 565.304928 
L 1213.528502 583.221425 
L 1214.798271 547.388839 
L 1216.06804 554.755738 
L 1217.337809 568.702497 
L 1218.607578 557.422663 
L 1219.877347 574.237922 
L 1221.147116 564.385151 
L 1222.416885 545.389857 
L 1223.686654 566.690084 
L 1224.956423 561.76112 
L 1226.226192 558.961234 
L 1227.495961 572.960944 
L 1228.76573 546.57208 
L 1230.035499 559.495977 
L 1231.305268 577.42542 
L 1232.575037 554.33401 
L 1233.844806 575.667425 
L 1235.114575 558.139872 
L 1236.384344 549.69349 
L 1237.654113 579.788731 
L 1238.923882 548.033304 
L 1240.193651 571.966896 
L 1241.46342 567.893737 
L 1242.733189 538.459297 
L 1244.002958 584.103056 
L 1245.272727 552.426057 
L 1245.272727 552.426057 
" style="fill:none;stroke:#ff0000;stroke-linecap:square;stroke-width:1.5;"/>
   </g>
   <g id="patch_9">
    <path d="M 180 640.8 
L 180 388.8 
" style="fill:none;stroke:#000000;stroke-linecap:square;stroke-linejoin:miter;stroke-width:0.8;"/>
   </g>
   <g id="patch_10">
    <path d="M 1296 640.8 
L 1296 388.8 
" style="fill:none;stroke:#000000;stroke-linecap:square;stroke-linejoin:miter;stroke-width:0.8;"/>
   </g>
   <g id="patch_11">
    <path d="M 180 640.8 
L 1296 640.8 
" style="fill:none;stroke:#000000;stroke-linecap:square;stroke-linejoin:miter;stroke-width:0.8;"/>
   </g>
   <g id="patch_12">
    <path d="M 180 388.8 
L 1296 388.8 
" style="fill:none;stroke:#000000;stroke-linecap:square;stroke-linejoin:miter;stroke-width:0.8;"/>
   </g>
   <g id="legend_2">
    <g id="patch_13">
     <path d="M 1194.742188 411.478125 
L 1289 411.478125 
Q 1291 411.478125 1291 409.478125 
L 1291 395.8 
Q 1291 393.8 1289 393.8 
L 1194.742188 393.8 
Q 1192.742188 393.8 1192.742188 395.8 
L 1192.742188 409.478125 
Q 1192.742188 411.478125 1194.742188 411.478125 
z
" style="fill:#ffffff;opacity:0.8;stroke:#cccccc;stroke-linejoin:miter;"/>
    </g>
    <g id="line2d_40">
     <path d="M 1196.742188 401.898438 
L 1216.742188 401.898438 
" style="fill:none;stroke:#ff0000;stroke-linecap:square;stroke-width:1.5;"/>
    </g>
    <g id="line2d_41"/>
    <g id="text_38">
     <!-- ControlInput -->
     <g transform="translate(1224.742188 405.398438)scale(0.1 -0.1)">
      <use xlink:href="#DejaVuSans-43"/>
      <use x="69.824219" xlink:href="#DejaVuSans-6f"/>
      <use x="131.005859" xlink:href="#DejaVuSans-6e"/>
      <use x="194.384766" xlink:href="#DejaVuSans-74"/>
      <use x="233.59375" xlink:href="#DejaVuSans-72"/>
      <use x="274.675781" xlink:href="#DejaVuSans-6f"/>
      <use x="335.857422" xlink:href="#DejaVuSans-6c"/>
      <use x="363.640625" xlink:href="#DejaVuSans-49"/>
      <use x="393.132812" xlink:href="#DejaVuSans-6e"/>
      <use x="456.511719" xlink:href="#DejaVuSans-70"/>
      <use x="519.988281" xlink:href="#DejaVuSans-75"/>
      <use x="583.367188" xlink:href="#DejaVuSans-74"/>
     </g>
    </g>
   </g>
  </g>
 </g>
 <defs>
  <clipPath id="pfdd13c4e14">
   <rect height="252" width="1116" x="180" y="86.4"/>
  </clipPath>
  <clipPath id="p23c6bb62a3">
   <rect height="252" width="1116" x="180" y="388.8"/>
  </clipPath>
 </defs>
</svg>
