<?xml version="1.0" encoding="utf-8" standalone="no"?>
<!DOCTYPE svg PUBLIC "-//W3C//DTD SVG 1.1//EN"
  "http://www.w3.org/Graphics/SVG/1.1/DTD/svg11.dtd">
<!-- Created with matplotlib (http://matplotlib.org/) -->
<svg height="720pt" version="1.1" viewBox="0 0 1440 720" width="1440pt" xmlns="http://www.w3.org/2000/svg" xmlns:xlink="http://www.w3.org/1999/xlink">
 <defs>
  <style type="text/css">
*{stroke-linecap:butt;stroke-linejoin:round;}
  </style>
 </defs>
 <g id="figure_1">
  <g id="patch_1">
   <path d="M 0 720 
L 1440 720 
L 1440 0 
L 0 0 
z
" style="fill:#ffffff;"/>
  </g>
  <g id="axes_1">
   <g id="patch_2">
    <path d="M 180 338.4 
L 1296 338.4 
L 1296 86.4 
L 180 86.4 
z
" style="fill:#ffffff;"/>
   </g>
   <g id="matplotlib.axis_1">
    <g id="xtick_1">
     <g id="line2d_1">
      <defs>
       <path d="M 0 0 
L 0 3.5 
" id="m45a9c8dd45" style="stroke:#000000;stroke-width:0.8;"/>
      </defs>
      <g>
       <use style="stroke:#000000;stroke-width:0.8;" x="230.727273" xlink:href="#m45a9c8dd45" y="338.4"/>
      </g>
     </g>
     <g id="text_1">
      <!-- 0 -->
      <defs>
       <path d="M 31.78125 66.40625 
Q 24.171875 66.40625 20.328125 58.90625 
Q 16.5 51.421875 16.5 36.375 
Q 16.5 21.390625 20.328125 13.890625 
Q 24.171875 6.390625 31.78125 6.390625 
Q 39.453125 6.390625 43.28125 13.890625 
Q 47.125 21.390625 47.125 36.375 
Q 47.125 51.421875 43.28125 58.90625 
Q 39.453125 66.40625 31.78125 66.40625 
z
M 31.78125 74.21875 
Q 44.046875 74.21875 50.515625 64.515625 
Q 56.984375 54.828125 56.984375 36.375 
Q 56.984375 17.96875 50.515625 8.265625 
Q 44.046875 -1.421875 31.78125 -1.421875 
Q 19.53125 -1.421875 13.0625 8.265625 
Q 6.59375 17.96875 6.59375 36.375 
Q 6.59375 54.828125 13.0625 64.515625 
Q 19.53125 74.21875 31.78125 74.21875 
z
" id="DejaVuSans-30"/>
      </defs>
      <g transform="translate(227.546023 352.998437)scale(0.1 -0.1)">
       <use xlink:href="#DejaVuSans-30"/>
      </g>
     </g>
    </g>
    <g id="xtick_2">
     <g id="line2d_2">
      <g>
       <use style="stroke:#000000;stroke-width:0.8;" x="357.704176" xlink:href="#m45a9c8dd45" y="338.4"/>
      </g>
     </g>
     <g id="text_2">
      <!-- 100 -->
      <defs>
       <path d="M 12.40625 8.296875 
L 28.515625 8.296875 
L 28.515625 63.921875 
L 10.984375 60.40625 
L 10.984375 69.390625 
L 28.421875 72.90625 
L 38.28125 72.90625 
L 38.28125 8.296875 
L 54.390625 8.296875 
L 54.390625 0 
L 12.40625 0 
z
" id="DejaVuSans-31"/>
      </defs>
      <g transform="translate(348.160426 352.998437)scale(0.1 -0.1)">
       <use xlink:href="#DejaVuSans-31"/>
       <use x="63.623047" xlink:href="#DejaVuSans-30"/>
       <use x="127.246094" xlink:href="#DejaVuSans-30"/>
      </g>
     </g>
    </g>
    <g id="xtick_3">
     <g id="line2d_3">
      <g>
       <use style="stroke:#000000;stroke-width:0.8;" x="484.681079" xlink:href="#m45a9c8dd45" y="338.4"/>
      </g>
     </g>
     <g id="text_3">
      <!-- 200 -->
      <defs>
       <path d="M 19.1875 8.296875 
L 53.609375 8.296875 
L 53.609375 0 
L 7.328125 0 
L 7.328125 8.296875 
Q 12.9375 14.109375 22.625 23.890625 
Q 32.328125 33.6875 34.8125 36.53125 
Q 39.546875 41.84375 41.421875 45.53125 
Q 43.3125 49.21875 43.3125 52.78125 
Q 43.3125 58.59375 39.234375 62.25 
Q 35.15625 65.921875 28.609375 65.921875 
Q 23.96875 65.921875 18.8125 64.3125 
Q 13.671875 62.703125 7.8125 59.421875 
L 7.8125 69.390625 
Q 13.765625 71.78125 18.9375 73 
Q 24.125 74.21875 28.421875 74.21875 
Q 39.75 74.21875 46.484375 68.546875 
Q 53.21875 62.890625 53.21875 53.421875 
Q 53.21875 48.921875 51.53125 44.890625 
Q 49.859375 40.875 45.40625 35.40625 
Q 44.1875 33.984375 37.640625 27.21875 
Q 31.109375 20.453125 19.1875 8.296875 
z
" id="DejaVuSans-32"/>
      </defs>
      <g transform="translate(475.137329 352.998437)scale(0.1 -0.1)">
       <use xlink:href="#DejaVuSans-32"/>
       <use x="63.623047" xlink:href="#DejaVuSans-30"/>
       <use x="127.246094" xlink:href="#DejaVuSans-30"/>
      </g>
     </g>
    </g>
    <g id="xtick_4">
     <g id="line2d_4">
      <g>
       <use style="stroke:#000000;stroke-width:0.8;" x="611.657982" xlink:href="#m45a9c8dd45" y="338.4"/>
      </g>
     </g>
     <g id="text_4">
      <!-- 300 -->
      <defs>
       <path d="M 40.578125 39.3125 
Q 47.65625 37.796875 51.625 33 
Q 55.609375 28.21875 55.609375 21.1875 
Q 55.609375 10.40625 48.1875 4.484375 
Q 40.765625 -1.421875 27.09375 -1.421875 
Q 22.515625 -1.421875 17.65625 -0.515625 
Q 12.796875 0.390625 7.625 2.203125 
L 7.625 11.71875 
Q 11.71875 9.328125 16.59375 8.109375 
Q 21.484375 6.890625 26.8125 6.890625 
Q 36.078125 6.890625 40.9375 10.546875 
Q 45.796875 14.203125 45.796875 21.1875 
Q 45.796875 27.640625 41.28125 31.265625 
Q 36.765625 34.90625 28.71875 34.90625 
L 20.21875 34.90625 
L 20.21875 43.015625 
L 29.109375 43.015625 
Q 36.375 43.015625 40.234375 45.921875 
Q 44.09375 48.828125 44.09375 54.296875 
Q 44.09375 59.90625 40.109375 62.90625 
Q 36.140625 65.921875 28.71875 65.921875 
Q 24.65625 65.921875 20.015625 65.03125 
Q 15.375 64.15625 9.8125 62.3125 
L 9.8125 71.09375 
Q 15.4375 72.65625 20.34375 73.4375 
Q 25.25 74.21875 29.59375 74.21875 
Q 40.828125 74.21875 47.359375 69.109375 
Q 53.90625 64.015625 53.90625 55.328125 
Q 53.90625 49.265625 50.4375 45.09375 
Q 46.96875 40.921875 40.578125 39.3125 
z
" id="DejaVuSans-33"/>
      </defs>
      <g transform="translate(602.114232 352.998437)scale(0.1 -0.1)">
       <use xlink:href="#DejaVuSans-33"/>
       <use x="63.623047" xlink:href="#DejaVuSans-30"/>
       <use x="127.246094" xlink:href="#DejaVuSans-30"/>
      </g>
     </g>
    </g>
    <g id="xtick_5">
     <g id="line2d_5">
      <g>
       <use style="stroke:#000000;stroke-width:0.8;" x="738.634885" xlink:href="#m45a9c8dd45" y="338.4"/>
      </g>
     </g>
     <g id="text_5">
      <!-- 400 -->
      <defs>
       <path d="M 37.796875 64.3125 
L 12.890625 25.390625 
L 37.796875 25.390625 
z
M 35.203125 72.90625 
L 47.609375 72.90625 
L 47.609375 25.390625 
L 58.015625 25.390625 
L 58.015625 17.1875 
L 47.609375 17.1875 
L 47.609375 0 
L 37.796875 0 
L 37.796875 17.1875 
L 4.890625 17.1875 
L 4.890625 26.703125 
z
" id="DejaVuSans-34"/>
      </defs>
      <g transform="translate(729.091135 352.998437)scale(0.1 -0.1)">
       <use xlink:href="#DejaVuSans-34"/>
       <use x="63.623047" xlink:href="#DejaVuSans-30"/>
       <use x="127.246094" xlink:href="#DejaVuSans-30"/>
      </g>
     </g>
    </g>
    <g id="xtick_6">
     <g id="line2d_6">
      <g>
       <use style="stroke:#000000;stroke-width:0.8;" x="865.611787" xlink:href="#m45a9c8dd45" y="338.4"/>
      </g>
     </g>
     <g id="text_6">
      <!-- 500 -->
      <defs>
       <path d="M 10.796875 72.90625 
L 49.515625 72.90625 
L 49.515625 64.59375 
L 19.828125 64.59375 
L 19.828125 46.734375 
Q 21.96875 47.46875 24.109375 47.828125 
Q 26.265625 48.1875 28.421875 48.1875 
Q 40.625 48.1875 47.75 41.5 
Q 54.890625 34.8125 54.890625 23.390625 
Q 54.890625 11.625 47.5625 5.09375 
Q 40.234375 -1.421875 26.90625 -1.421875 
Q 22.3125 -1.421875 17.546875 -0.640625 
Q 12.796875 0.140625 7.71875 1.703125 
L 7.71875 11.625 
Q 12.109375 9.234375 16.796875 8.0625 
Q 21.484375 6.890625 26.703125 6.890625 
Q 35.15625 6.890625 40.078125 11.328125 
Q 45.015625 15.765625 45.015625 23.390625 
Q 45.015625 31 40.078125 35.4375 
Q 35.15625 39.890625 26.703125 39.890625 
Q 22.75 39.890625 18.8125 39.015625 
Q 14.890625 38.140625 10.796875 36.28125 
z
" id="DejaVuSans-35"/>
      </defs>
      <g transform="translate(856.068037 352.998437)scale(0.1 -0.1)">
       <use xlink:href="#DejaVuSans-35"/>
       <use x="63.623047" xlink:href="#DejaVuSans-30"/>
       <use x="127.246094" xlink:href="#DejaVuSans-30"/>
      </g>
     </g>
    </g>
    <g id="xtick_7">
     <g id="line2d_7">
      <g>
       <use style="stroke:#000000;stroke-width:0.8;" x="992.58869" xlink:href="#m45a9c8dd45" y="338.4"/>
      </g>
     </g>
     <g id="text_7">
      <!-- 600 -->
      <defs>
       <path d="M 33.015625 40.375 
Q 26.375 40.375 22.484375 35.828125 
Q 18.609375 31.296875 18.609375 23.390625 
Q 18.609375 15.53125 22.484375 10.953125 
Q 26.375 6.390625 33.015625 6.390625 
Q 39.65625 6.390625 43.53125 10.953125 
Q 47.40625 15.53125 47.40625 23.390625 
Q 47.40625 31.296875 43.53125 35.828125 
Q 39.65625 40.375 33.015625 40.375 
z
M 52.59375 71.296875 
L 52.59375 62.3125 
Q 48.875 64.0625 45.09375 64.984375 
Q 41.3125 65.921875 37.59375 65.921875 
Q 27.828125 65.921875 22.671875 59.328125 
Q 17.53125 52.734375 16.796875 39.40625 
Q 19.671875 43.65625 24.015625 45.921875 
Q 28.375 48.1875 33.59375 48.1875 
Q 44.578125 48.1875 50.953125 41.515625 
Q 57.328125 34.859375 57.328125 23.390625 
Q 57.328125 12.15625 50.6875 5.359375 
Q 44.046875 -1.421875 33.015625 -1.421875 
Q 20.359375 -1.421875 13.671875 8.265625 
Q 6.984375 17.96875 6.984375 36.375 
Q 6.984375 53.65625 15.1875 63.9375 
Q 23.390625 74.21875 37.203125 74.21875 
Q 40.921875 74.21875 44.703125 73.484375 
Q 48.484375 72.75 52.59375 71.296875 
z
" id="DejaVuSans-36"/>
      </defs>
      <g transform="translate(983.04494 352.998437)scale(0.1 -0.1)">
       <use xlink:href="#DejaVuSans-36"/>
       <use x="63.623047" xlink:href="#DejaVuSans-30"/>
       <use x="127.246094" xlink:href="#DejaVuSans-30"/>
      </g>
     </g>
    </g>
    <g id="xtick_8">
     <g id="line2d_8">
      <g>
       <use style="stroke:#000000;stroke-width:0.8;" x="1119.565593" xlink:href="#m45a9c8dd45" y="338.4"/>
      </g>
     </g>
     <g id="text_8">
      <!-- 700 -->
      <defs>
       <path d="M 8.203125 72.90625 
L 55.078125 72.90625 
L 55.078125 68.703125 
L 28.609375 0 
L 18.3125 0 
L 43.21875 64.59375 
L 8.203125 64.59375 
z
" id="DejaVuSans-37"/>
      </defs>
      <g transform="translate(1110.021843 352.998437)scale(0.1 -0.1)">
       <use xlink:href="#DejaVuSans-37"/>
       <use x="63.623047" xlink:href="#DejaVuSans-30"/>
       <use x="127.246094" xlink:href="#DejaVuSans-30"/>
      </g>
     </g>
    </g>
    <g id="xtick_9">
     <g id="line2d_9">
      <g>
       <use style="stroke:#000000;stroke-width:0.8;" x="1246.542496" xlink:href="#m45a9c8dd45" y="338.4"/>
      </g>
     </g>
     <g id="text_9">
      <!-- 800 -->
      <defs>
       <path d="M 31.78125 34.625 
Q 24.75 34.625 20.71875 30.859375 
Q 16.703125 27.09375 16.703125 20.515625 
Q 16.703125 13.921875 20.71875 10.15625 
Q 24.75 6.390625 31.78125 6.390625 
Q 38.8125 6.390625 42.859375 10.171875 
Q 46.921875 13.96875 46.921875 20.515625 
Q 46.921875 27.09375 42.890625 30.859375 
Q 38.875 34.625 31.78125 34.625 
z
M 21.921875 38.8125 
Q 15.578125 40.375 12.03125 44.71875 
Q 8.5 49.078125 8.5 55.328125 
Q 8.5 64.0625 14.71875 69.140625 
Q 20.953125 74.21875 31.78125 74.21875 
Q 42.671875 74.21875 48.875 69.140625 
Q 55.078125 64.0625 55.078125 55.328125 
Q 55.078125 49.078125 51.53125 44.71875 
Q 48 40.375 41.703125 38.8125 
Q 48.828125 37.15625 52.796875 32.3125 
Q 56.78125 27.484375 56.78125 20.515625 
Q 56.78125 9.90625 50.3125 4.234375 
Q 43.84375 -1.421875 31.78125 -1.421875 
Q 19.734375 -1.421875 13.25 4.234375 
Q 6.78125 9.90625 6.78125 20.515625 
Q 6.78125 27.484375 10.78125 32.3125 
Q 14.796875 37.15625 21.921875 38.8125 
z
M 18.3125 54.390625 
Q 18.3125 48.734375 21.84375 45.5625 
Q 25.390625 42.390625 31.78125 42.390625 
Q 38.140625 42.390625 41.71875 45.5625 
Q 45.3125 48.734375 45.3125 54.390625 
Q 45.3125 60.0625 41.71875 63.234375 
Q 38.140625 66.40625 31.78125 66.40625 
Q 25.390625 66.40625 21.84375 63.234375 
Q 18.3125 60.0625 18.3125 54.390625 
z
" id="DejaVuSans-38"/>
      </defs>
      <g transform="translate(1236.998746 352.998437)scale(0.1 -0.1)">
       <use xlink:href="#DejaVuSans-38"/>
       <use x="63.623047" xlink:href="#DejaVuSans-30"/>
       <use x="127.246094" xlink:href="#DejaVuSans-30"/>
      </g>
     </g>
    </g>
   </g>
   <g id="matplotlib.axis_2">
    <g id="ytick_1">
     <g id="line2d_10">
      <defs>
       <path d="M 0 0 
L -3.5 0 
" id="m707720962e" style="stroke:#000000;stroke-width:0.8;"/>
      </defs>
      <g>
       <use style="stroke:#000000;stroke-width:0.8;" x="180" xlink:href="#m707720962e" y="303.880738"/>
      </g>
     </g>
     <g id="text_10">
      <!-- −200 -->
      <defs>
       <path d="M 10.59375 35.5 
L 73.1875 35.5 
L 73.1875 27.203125 
L 10.59375 27.203125 
z
" id="DejaVuSans-2212"/>
      </defs>
      <g transform="translate(145.532813 307.679957)scale(0.1 -0.1)">
       <use xlink:href="#DejaVuSans-2212"/>
       <use x="83.789062" xlink:href="#DejaVuSans-32"/>
       <use x="147.412109" xlink:href="#DejaVuSans-30"/>
       <use x="211.035156" xlink:href="#DejaVuSans-30"/>
      </g>
     </g>
    </g>
    <g id="ytick_2">
     <g id="line2d_11">
      <g>
       <use style="stroke:#000000;stroke-width:0.8;" x="180" xlink:href="#m707720962e" y="256.561657"/>
      </g>
     </g>
     <g id="text_11">
      <!-- 0 -->
      <g transform="translate(166.6375 260.360876)scale(0.1 -0.1)">
       <use xlink:href="#DejaVuSans-30"/>
      </g>
     </g>
    </g>
    <g id="ytick_3">
     <g id="line2d_12">
      <g>
       <use style="stroke:#000000;stroke-width:0.8;" x="180" xlink:href="#m707720962e" y="209.242576"/>
      </g>
     </g>
     <g id="text_12">
      <!-- 200 -->
      <g transform="translate(153.9125 213.041795)scale(0.1 -0.1)">
       <use xlink:href="#DejaVuSans-32"/>
       <use x="63.623047" xlink:href="#DejaVuSans-30"/>
       <use x="127.246094" xlink:href="#DejaVuSans-30"/>
      </g>
     </g>
    </g>
    <g id="ytick_4">
     <g id="line2d_13">
      <g>
       <use style="stroke:#000000;stroke-width:0.8;" x="180" xlink:href="#m707720962e" y="161.923495"/>
      </g>
     </g>
     <g id="text_13">
      <!-- 400 -->
      <g transform="translate(153.9125 165.722714)scale(0.1 -0.1)">
       <use xlink:href="#DejaVuSans-34"/>
       <use x="63.623047" xlink:href="#DejaVuSans-30"/>
       <use x="127.246094" xlink:href="#DejaVuSans-30"/>
      </g>
     </g>
    </g>
    <g id="ytick_5">
     <g id="line2d_14">
      <g>
       <use style="stroke:#000000;stroke-width:0.8;" x="180" xlink:href="#m707720962e" y="114.604414"/>
      </g>
     </g>
     <g id="text_14">
      <!-- 600 -->
      <g transform="translate(153.9125 118.403633)scale(0.1 -0.1)">
       <use xlink:href="#DejaVuSans-36"/>
       <use x="63.623047" xlink:href="#DejaVuSans-30"/>
       <use x="127.246094" xlink:href="#DejaVuSans-30"/>
      </g>
     </g>
    </g>
    <g id="text_15">
     <!-- State:0 -->
     <defs>
      <path d="M 53.515625 70.515625 
L 53.515625 60.890625 
Q 47.90625 63.578125 42.921875 64.890625 
Q 37.9375 66.21875 33.296875 66.21875 
Q 25.25 66.21875 20.875 63.09375 
Q 16.5 59.96875 16.5 54.203125 
Q 16.5 49.359375 19.40625 46.890625 
Q 22.3125 44.4375 30.421875 42.921875 
L 36.375 41.703125 
Q 47.40625 39.59375 52.65625 34.296875 
Q 57.90625 29 57.90625 20.125 
Q 57.90625 9.515625 50.796875 4.046875 
Q 43.703125 -1.421875 29.984375 -1.421875 
Q 24.8125 -1.421875 18.96875 -0.25 
Q 13.140625 0.921875 6.890625 3.21875 
L 6.890625 13.375 
Q 12.890625 10.015625 18.65625 8.296875 
Q 24.421875 6.59375 29.984375 6.59375 
Q 38.421875 6.59375 43.015625 9.90625 
Q 47.609375 13.234375 47.609375 19.390625 
Q 47.609375 24.75 44.3125 27.78125 
Q 41.015625 30.8125 33.5 32.328125 
L 27.484375 33.5 
Q 16.453125 35.6875 11.515625 40.375 
Q 6.59375 45.0625 6.59375 53.421875 
Q 6.59375 63.09375 13.40625 68.65625 
Q 20.21875 74.21875 32.171875 74.21875 
Q 37.3125 74.21875 42.625 73.28125 
Q 47.953125 72.359375 53.515625 70.515625 
z
" id="DejaVuSans-53"/>
      <path d="M 18.3125 70.21875 
L 18.3125 54.6875 
L 36.8125 54.6875 
L 36.8125 47.703125 
L 18.3125 47.703125 
L 18.3125 18.015625 
Q 18.3125 11.328125 20.140625 9.421875 
Q 21.96875 7.515625 27.59375 7.515625 
L 36.8125 7.515625 
L 36.8125 0 
L 27.59375 0 
Q 17.1875 0 13.234375 3.875 
Q 9.28125 7.765625 9.28125 18.015625 
L 9.28125 47.703125 
L 2.6875 47.703125 
L 2.6875 54.6875 
L 9.28125 54.6875 
L 9.28125 70.21875 
z
" id="DejaVuSans-74"/>
      <path d="M 34.28125 27.484375 
Q 23.390625 27.484375 19.1875 25 
Q 14.984375 22.515625 14.984375 16.5 
Q 14.984375 11.71875 18.140625 8.90625 
Q 21.296875 6.109375 26.703125 6.109375 
Q 34.1875 6.109375 38.703125 11.40625 
Q 43.21875 16.703125 43.21875 25.484375 
L 43.21875 27.484375 
z
M 52.203125 31.203125 
L 52.203125 0 
L 43.21875 0 
L 43.21875 8.296875 
Q 40.140625 3.328125 35.546875 0.953125 
Q 30.953125 -1.421875 24.3125 -1.421875 
Q 15.921875 -1.421875 10.953125 3.296875 
Q 6 8.015625 6 15.921875 
Q 6 25.140625 12.171875 29.828125 
Q 18.359375 34.515625 30.609375 34.515625 
L 43.21875 34.515625 
L 43.21875 35.40625 
Q 43.21875 41.609375 39.140625 45 
Q 35.0625 48.390625 27.6875 48.390625 
Q 23 48.390625 18.546875 47.265625 
Q 14.109375 46.140625 10.015625 43.890625 
L 10.015625 52.203125 
Q 14.9375 54.109375 19.578125 55.046875 
Q 24.21875 56 28.609375 56 
Q 40.484375 56 46.34375 49.84375 
Q 52.203125 43.703125 52.203125 31.203125 
z
" id="DejaVuSans-61"/>
      <path d="M 56.203125 29.59375 
L 56.203125 25.203125 
L 14.890625 25.203125 
Q 15.484375 15.921875 20.484375 11.0625 
Q 25.484375 6.203125 34.421875 6.203125 
Q 39.59375 6.203125 44.453125 7.46875 
Q 49.3125 8.734375 54.109375 11.28125 
L 54.109375 2.78125 
Q 49.265625 0.734375 44.1875 -0.34375 
Q 39.109375 -1.421875 33.890625 -1.421875 
Q 20.796875 -1.421875 13.15625 6.1875 
Q 5.515625 13.8125 5.515625 26.8125 
Q 5.515625 40.234375 12.765625 48.109375 
Q 20.015625 56 32.328125 56 
Q 43.359375 56 49.78125 48.890625 
Q 56.203125 41.796875 56.203125 29.59375 
z
M 47.21875 32.234375 
Q 47.125 39.59375 43.09375 43.984375 
Q 39.0625 48.390625 32.421875 48.390625 
Q 24.90625 48.390625 20.390625 44.140625 
Q 15.875 39.890625 15.1875 32.171875 
z
" id="DejaVuSans-65"/>
      <path d="M 11.71875 12.40625 
L 22.015625 12.40625 
L 22.015625 0 
L 11.71875 0 
z
M 11.71875 51.703125 
L 22.015625 51.703125 
L 22.015625 39.3125 
L 11.71875 39.3125 
z
" id="DejaVuSans-3a"/>
     </defs>
     <g transform="translate(139.453125 230.500781)rotate(-90)scale(0.1 -0.1)">
      <use xlink:href="#DejaVuSans-53"/>
      <use x="63.476562" xlink:href="#DejaVuSans-74"/>
      <use x="102.685547" xlink:href="#DejaVuSans-61"/>
      <use x="163.964844" xlink:href="#DejaVuSans-74"/>
      <use x="203.173828" xlink:href="#DejaVuSans-65"/>
      <use x="264.697266" xlink:href="#DejaVuSans-3a"/>
      <use x="298.388672" xlink:href="#DejaVuSans-30"/>
     </g>
    </g>
   </g>
   <g id="line2d_15">
    <path clip-path="url(#p4dbff5a6ec)" d="M 230.727273 258.535298 
L 231.997042 257.716885 
L 233.266811 256.598681 
L 234.53658 256.694594 
L 235.806349 256.638785 
L 238.345887 256.815984 
L 242.155194 256.90664 
L 249.773808 256.883284 
L 263.741267 256.769599 
L 287.866879 256.583724 
L 305.643645 255.988856 
L 311.992491 255.110029 
L 314.532029 254.592879 
L 318.341336 253.725911 
L 324.690181 251.587954 
L 328.499488 249.966853 
L 332.308795 247.906939 
L 337.387871 244.043114 
L 339.927409 241.672041 
L 342.466947 238.958957 
L 345.006485 235.980509 
L 348.815792 230.649366 
L 351.355331 226.467528 
L 353.894869 221.859849 
L 356.434407 216.688566 
L 360.243714 207.911908 
L 365.32279 194.29443 
L 369.132097 182.138756 
L 372.941404 168.282791 
L 375.480942 158.87642 
L 376.750711 155.62324 
L 378.02048 151.508214 
L 379.290249 146.640774 
L 380.560018 140.32872 
L 381.829787 135.91647 
L 385.639094 124.866841 
L 386.908863 121.416828 
L 388.178632 118.832633 
L 389.448401 115.713354 
L 390.71817 111.989446 
L 391.987939 108.759869 
L 393.257708 106.079239 
L 394.527478 103.800579 
L 395.797247 104.531694 
L 398.336785 100.33705 
L 399.606554 98.451695 
L 400.876323 99.31484 
L 402.146092 97.854545 
L 403.415861 100.499926 
L 404.68563 99.318191 
L 405.955399 100.476575 
L 407.225168 98.419535 
L 408.494937 100.255229 
L 409.764706 102.813619 
L 411.034475 103.75242 
L 412.304244 106.985938 
L 413.574013 108.213869 
L 414.843782 113.228698 
L 416.113551 113.305002 
L 417.38332 116.80924 
L 418.653089 118.159223 
L 419.922858 122.840487 
L 422.462396 130.035896 
L 423.732165 134.667557 
L 425.001934 137.185737 
L 426.271703 142.028138 
L 427.541472 145.093553 
L 428.811241 149.938019 
L 430.08101 153.569774 
L 431.350779 158.412399 
L 437.699625 179.456328 
L 438.969394 183.002205 
L 440.239163 187.45777 
L 444.04847 199.064057 
L 447.857777 209.598155 
L 450.397315 216.093103 
L 455.476391 229.772955 
L 458.015929 239.318229 
L 459.285698 247.171866 
L 460.555467 250.374275 
L 461.825236 288.152765 
L 463.095005 304.652417 
L 464.364774 293.252898 
L 465.634543 326.945455 
L 466.904312 303.423158 
L 468.174081 323.609646 
L 469.44385 287.178538 
L 471.983388 236.425533 
L 473.253157 235.052216 
L 474.522926 235.563467 
L 475.792695 235.649134 
L 477.062464 236.55069 
L 478.332233 237.249772 
L 479.602003 235.26893 
L 480.871772 231.94545 
L 482.141541 230.909632 
L 483.41131 230.513029 
L 484.681079 232.330688 
L 487.220617 236.749715 
L 488.490386 241.535199 
L 489.760155 241.163936 
L 491.029924 243.632545 
L 492.299693 242.80563 
L 493.569462 240.617776 
L 494.839231 241.027623 
L 496.109 216.232751 
L 497.378769 231.488757 
L 498.648538 240.685864 
L 499.918307 236.810232 
L 501.188076 239.906812 
L 502.457845 239.530106 
L 503.727614 240.81051 
L 504.997383 240.819272 
L 507.536921 240.587937 
L 508.80669 241.531279 
L 510.076459 241.737741 
L 511.346228 242.735233 
L 512.615997 243.321461 
L 513.885766 244.054862 
L 515.155535 244.058313 
L 516.425304 244.750432 
L 517.695073 245.101689 
L 518.964842 245.627102 
L 520.234611 245.877771 
L 521.50438 246.376066 
L 526.583457 247.500194 
L 532.932302 248.352402 
L 538.011378 248.796959 
L 544.360223 249.174246 
L 551.978837 249.417216 
L 568.485835 249.576272 
L 684.034816 250.054139 
L 738.634885 250.167731 
L 739.904654 248.550954 
L 741.174423 249.470202 
L 742.444192 248.076928 
L 743.713961 240.933747 
L 744.98373 237.503429 
L 746.253499 236.369067 
L 747.523268 231.878164 
L 748.793037 222.746641 
L 750.062806 220.634875 
L 751.332575 215.543109 
L 752.602344 216.576113 
L 753.872113 218.839878 
L 755.141882 222.941304 
L 756.411651 226.025121 
L 757.68142 228.22796 
L 758.951189 229.966211 
L 760.220958 232.019639 
L 761.490727 231.147049 
L 762.760496 231.434515 
L 764.030265 233.487491 
L 765.300034 231.458087 
L 766.569803 232.772801 
L 767.839572 231.710495 
L 769.109341 230.827587 
L 770.37911 231.155709 
L 771.648879 231.74896 
L 774.188417 233.714543 
L 775.458186 234.430312 
L 776.727955 234.380887 
L 777.997724 233.542839 
L 779.267493 233.137236 
L 780.537262 232.484109 
L 781.807032 232.084004 
L 783.076801 232.346524 
L 786.886108 234.67427 
L 788.155877 234.942676 
L 789.425646 234.557037 
L 790.695415 233.04357 
L 791.965184 232.960128 
L 794.504722 232.520758 
L 798.314029 234.650199 
L 799.583798 235.006645 
L 800.853567 234.737175 
L 802.123336 233.288016 
L 803.393105 233.367576 
L 804.662874 232.867161 
L 805.932643 232.585526 
L 807.202412 232.946487 
L 808.472181 233.426438 
L 809.74195 234.247389 
L 811.011719 234.764656 
L 812.281488 234.701243 
L 813.551257 233.323361 
L 814.821026 233.446401 
L 817.360564 232.565283 
L 818.630333 232.721103 
L 819.900102 233.364831 
L 821.169871 234.226332 
L 822.43964 234.849951 
L 823.709409 234.827093 
L 824.979179 233.56087 
L 826.248948 233.537234 
L 828.788486 232.230934 
L 830.058255 232.312417 
L 831.328024 233.075728 
L 833.867562 234.919755 
L 835.137331 235.094123 
L 836.4071 233.404653 
L 837.676869 233.798361 
L 838.946638 233.101446 
L 840.216407 232.024418 
L 841.486176 231.750667 
L 842.755945 232.805202 
L 844.025714 234.142519 
L 845.295483 235.195019 
L 846.565252 235.262536 
L 847.835021 232.722865 
L 849.10479 233.768669 
L 850.374559 233.646384 
L 851.644328 231.885299 
L 852.914097 231.547859 
L 854.183866 233.167926 
L 855.453635 234.990724 
L 856.723404 236.090202 
L 857.993173 235.484812 
L 859.262942 232.772823 
L 860.532711 233.624239 
L 861.80248 232.367761 
L 863.072249 230.136872 
L 864.342018 229.402484 
L 866.881556 234.353784 
L 868.151326 233.826531 
L 869.421095 234.580373 
L 870.690864 238.1121 
L 871.960633 239.701895 
L 873.230402 237.171177 
L 874.500171 243.569863 
L 875.76994 257.05454 
L 877.039709 254.454062 
L 878.309478 258.067302 
L 879.579247 266.439136 
L 880.849016 277.539799 
L 882.118785 275.797686 
L 883.388554 277.414835 
L 884.658323 291.835348 
L 887.197861 257.758704 
L 888.46763 251.563418 
L 889.737399 251.286172 
L 893.546706 252.27243 
L 894.816475 252.579628 
L 896.086244 252.454586 
L 897.356013 252.17893 
L 902.435089 252.240784 
L 904.974627 252.767855 
L 907.514165 252.857669 
L 908.783934 252.805926 
L 910.053703 252.889297 
L 912.593242 252.836332 
L 922.751394 253.163612 
L 930.370008 253.29186 
L 960.844465 253.539979 
L 992.58869 253.672904 
L 993.858459 249.217583 
L 995.128228 250.289833 
L 996.397997 248.362347 
L 997.667767 236.279619 
L 998.937536 230.424863 
L 1000.207305 223.440871 
L 1002.746843 200.582613 
L 1004.016612 196.512201 
L 1005.286381 194.000389 
L 1006.55615 199.785215 
L 1007.825919 212.319147 
L 1009.095688 221.809725 
L 1010.365457 220.809209 
L 1011.635226 221.015902 
L 1012.904995 235.396376 
L 1014.174764 207.902803 
L 1015.444533 226.911507 
L 1016.714302 234.109849 
L 1017.984071 226.681751 
L 1019.25384 228.137885 
L 1021.793378 228.951873 
L 1023.063147 230.953818 
L 1024.332916 228.92862 
L 1025.602685 231.483102 
L 1026.872454 235.481664 
L 1028.142223 233.649434 
L 1029.411992 232.605493 
L 1030.681761 232.125003 
L 1031.95153 231.190087 
L 1033.221299 227.758817 
L 1034.491068 225.071963 
L 1035.760837 224.250742 
L 1037.030606 228.349433 
L 1038.300375 233.520562 
L 1039.570144 236.822858 
L 1040.839914 232.288565 
L 1042.109683 232.152507 
L 1043.379452 230.894899 
L 1044.649221 225.60644 
L 1045.91899 221.15886 
L 1047.188759 222.874895 
L 1048.458528 230.029327 
L 1049.728297 239.783635 
L 1050.998066 234.964749 
L 1053.537604 230.355832 
L 1054.807373 224.766186 
L 1056.077142 218.005682 
L 1057.346911 216.133302 
L 1058.61668 227.458542 
L 1059.886449 236.575089 
L 1061.156218 238.233893 
L 1062.425987 231.244171 
L 1063.695756 232.140907 
L 1064.965525 222.044396 
L 1066.235294 220.846892 
L 1067.505063 216.588464 
L 1068.774832 231.06825 
L 1070.044601 235.736105 
L 1071.31437 234.640813 
L 1072.584139 237.200604 
L 1073.853908 230.379018 
L 1075.123677 226.345111 
L 1076.393446 224.422939 
L 1077.663215 227.081152 
L 1078.932984 230.294831 
L 1080.202753 231.602272 
L 1081.472522 236.09181 
L 1082.742292 235.767538 
L 1084.012061 225.379476 
L 1085.28183 226.965121 
L 1086.551599 232.388824 
L 1087.821368 233.137227 
L 1089.091137 229.816959 
L 1090.360906 233.941969 
L 1091.630675 235.510816 
L 1092.900444 225.876617 
L 1094.170213 227.457262 
L 1095.439982 231.153861 
L 1096.709751 233.521828 
L 1097.97952 233.19843 
L 1099.249289 233.524156 
L 1100.519058 237.0979 
L 1101.788827 222.976045 
L 1103.058596 225.26089 
L 1104.328365 231.915359 
L 1105.598134 231.561246 
L 1106.867903 231.701912 
L 1108.137672 233.263505 
L 1109.407441 235.011513 
L 1110.67721 230.622247 
L 1111.946979 228.750378 
L 1113.216748 230.337546 
L 1114.486517 234.753262 
L 1115.756286 231.762487 
L 1117.026055 233.019945 
L 1118.295824 235.283627 
L 1119.565593 229.096438 
L 1120.835362 229.709313 
L 1122.105131 230.852553 
L 1123.3749 230.557587 
L 1124.644669 233.383779 
L 1125.914439 228.406656 
L 1127.184208 233.632432 
L 1128.453977 237.047439 
L 1129.723746 223.088657 
L 1130.993515 227.396824 
L 1132.263284 230.093438 
L 1133.533053 231.717694 
L 1134.802822 232.808254 
L 1136.072591 231.993512 
L 1137.34236 236.257789 
L 1138.612129 231.049471 
L 1139.881898 231.840338 
L 1141.151667 230.252216 
L 1143.691205 229.246336 
L 1144.960974 229.772482 
L 1146.230743 231.861651 
L 1147.500512 235.218567 
L 1148.770281 229.271206 
L 1150.04005 232.400788 
L 1151.309819 232.207385 
L 1152.579588 230.341837 
L 1153.849357 230.441766 
L 1155.119126 231.765353 
L 1156.388895 233.825144 
L 1157.658664 232.619846 
L 1158.928433 231.978817 
L 1160.198202 233.334914 
L 1161.467971 231.935302 
L 1162.73774 230.10375 
L 1164.007509 231.89646 
L 1165.277278 232.437329 
L 1166.547047 234.195039 
L 1167.816816 232.373355 
L 1169.086586 233.933171 
L 1170.356355 233.749125 
L 1171.626124 231.863342 
L 1172.895893 231.957896 
L 1174.165662 232.698926 
L 1175.435431 232.553711 
L 1176.7052 232.713027 
L 1177.974969 233.269012 
L 1179.244738 234.786533 
L 1181.784276 233.091488 
L 1183.054045 232.976363 
L 1185.593583 232.358732 
L 1186.863352 232.417805 
L 1188.133121 233.251241 
L 1189.40289 234.65756 
L 1190.672659 233.792072 
L 1191.942428 233.989495 
L 1193.212197 233.424117 
L 1194.481966 232.464309 
L 1195.751735 232.18637 
L 1197.021504 232.300545 
L 1198.291273 232.68437 
L 1199.561042 233.525373 
L 1202.10058 234.608137 
L 1203.370349 233.678485 
L 1204.640118 232.904184 
L 1207.179656 232.488958 
L 1208.449425 232.498548 
L 1210.988963 233.49697 
L 1212.258733 234.742219 
L 1213.528502 233.85461 
L 1217.337809 232.470528 
L 1218.607578 232.592084 
L 1219.877347 232.830101 
L 1221.147116 233.241993 
L 1222.416885 234.564987 
L 1223.686654 233.44524 
L 1224.956423 233.704619 
L 1227.495961 232.234086 
L 1228.76573 232.363387 
L 1230.035499 232.606481 
L 1231.305268 233.189671 
L 1232.575037 234.294842 
L 1233.844806 233.499067 
L 1235.114575 233.609874 
L 1237.654113 232.38249 
L 1240.193651 232.916893 
L 1241.46342 233.570254 
L 1242.733189 233.695814 
L 1244.002958 233.409904 
L 1245.272727 233.541151 
L 1245.272727 233.541151 
" style="fill:none;stroke:#000000;stroke-linecap:square;stroke-width:4;"/>
   </g>
   <g id="line2d_16">
    <path clip-path="url(#p4dbff5a6ec)" d="M 230.727273 254.432299 
L 484.681079 301.75138 
L 485.950848 249.463795 
L 738.634885 249.463795 
L 739.904654 232.902117 
L 865.611787 232.902117 
L 866.881556 254.195703 
L 992.58869 254.195703 
L 993.858459 232.902117 
L 1245.272727 232.902117 
L 1245.272727 232.902117 
" style="fill:none;stroke:#ff0000;stroke-linecap:square;stroke-width:1.5;"/>
   </g>
   <g id="patch_3">
    <path d="M 180 338.4 
L 180 86.4 
" style="fill:none;stroke:#000000;stroke-linecap:square;stroke-linejoin:miter;stroke-width:0.8;"/>
   </g>
   <g id="patch_4">
    <path d="M 1296 338.4 
L 1296 86.4 
" style="fill:none;stroke:#000000;stroke-linecap:square;stroke-linejoin:miter;stroke-width:0.8;"/>
   </g>
   <g id="patch_5">
    <path d="M 180 338.4 
L 1296 338.4 
" style="fill:none;stroke:#000000;stroke-linecap:square;stroke-linejoin:miter;stroke-width:0.8;"/>
   </g>
   <g id="patch_6">
    <path d="M 180 86.4 
L 1296 86.4 
" style="fill:none;stroke:#000000;stroke-linecap:square;stroke-linejoin:miter;stroke-width:0.8;"/>
   </g>
   <g id="legend_1">
    <g id="patch_7">
     <path d="M 1179.510937 123.75625 
L 1289 123.75625 
Q 1291 123.75625 1291 121.75625 
L 1291 93.4 
Q 1291 91.4 1289 91.4 
L 1179.510937 91.4 
Q 1177.510937 91.4 1177.510937 93.4 
L 1177.510937 121.75625 
Q 1177.510937 123.75625 1179.510937 123.75625 
z
" style="fill:#ffffff;opacity:0.8;stroke:#cccccc;stroke-linejoin:miter;"/>
    </g>
    <g id="line2d_17">
     <path d="M 1181.510937 99.498437 
L 1201.510937 99.498437 
" style="fill:none;stroke:#000000;stroke-linecap:square;stroke-width:4;"/>
    </g>
    <g id="line2d_18"/>
    <g id="text_16">
     <!-- CurrentState -->
     <defs>
      <path d="M 64.40625 67.28125 
L 64.40625 56.890625 
Q 59.421875 61.53125 53.78125 63.8125 
Q 48.140625 66.109375 41.796875 66.109375 
Q 29.296875 66.109375 22.65625 58.46875 
Q 16.015625 50.828125 16.015625 36.375 
Q 16.015625 21.96875 22.65625 14.328125 
Q 29.296875 6.6875 41.796875 6.6875 
Q 48.140625 6.6875 53.78125 8.984375 
Q 59.421875 11.28125 64.40625 15.921875 
L 64.40625 5.609375 
Q 59.234375 2.09375 53.4375 0.328125 
Q 47.65625 -1.421875 41.21875 -1.421875 
Q 24.65625 -1.421875 15.125 8.703125 
Q 5.609375 18.84375 5.609375 36.375 
Q 5.609375 53.953125 15.125 64.078125 
Q 24.65625 74.21875 41.21875 74.21875 
Q 47.75 74.21875 53.53125 72.484375 
Q 59.328125 70.75 64.40625 67.28125 
z
" id="DejaVuSans-43"/>
      <path d="M 8.5 21.578125 
L 8.5 54.6875 
L 17.484375 54.6875 
L 17.484375 21.921875 
Q 17.484375 14.15625 20.5 10.265625 
Q 23.53125 6.390625 29.59375 6.390625 
Q 36.859375 6.390625 41.078125 11.03125 
Q 45.3125 15.671875 45.3125 23.6875 
L 45.3125 54.6875 
L 54.296875 54.6875 
L 54.296875 0 
L 45.3125 0 
L 45.3125 8.40625 
Q 42.046875 3.421875 37.71875 1 
Q 33.40625 -1.421875 27.6875 -1.421875 
Q 18.265625 -1.421875 13.375 4.4375 
Q 8.5 10.296875 8.5 21.578125 
z
M 31.109375 56 
z
" id="DejaVuSans-75"/>
      <path d="M 41.109375 46.296875 
Q 39.59375 47.171875 37.8125 47.578125 
Q 36.03125 48 33.890625 48 
Q 26.265625 48 22.1875 43.046875 
Q 18.109375 38.09375 18.109375 28.8125 
L 18.109375 0 
L 9.078125 0 
L 9.078125 54.6875 
L 18.109375 54.6875 
L 18.109375 46.1875 
Q 20.953125 51.171875 25.484375 53.578125 
Q 30.03125 56 36.53125 56 
Q 37.453125 56 38.578125 55.875 
Q 39.703125 55.765625 41.0625 55.515625 
z
" id="DejaVuSans-72"/>
      <path d="M 54.890625 33.015625 
L 54.890625 0 
L 45.90625 0 
L 45.90625 32.71875 
Q 45.90625 40.484375 42.875 44.328125 
Q 39.84375 48.1875 33.796875 48.1875 
Q 26.515625 48.1875 22.3125 43.546875 
Q 18.109375 38.921875 18.109375 30.90625 
L 18.109375 0 
L 9.078125 0 
L 9.078125 54.6875 
L 18.109375 54.6875 
L 18.109375 46.1875 
Q 21.34375 51.125 25.703125 53.5625 
Q 30.078125 56 35.796875 56 
Q 45.21875 56 50.046875 50.171875 
Q 54.890625 44.34375 54.890625 33.015625 
z
" id="DejaVuSans-6e"/>
     </defs>
     <g transform="translate(1209.510937 102.998437)scale(0.1 -0.1)">
      <use xlink:href="#DejaVuSans-43"/>
      <use x="69.824219" xlink:href="#DejaVuSans-75"/>
      <use x="133.203125" xlink:href="#DejaVuSans-72"/>
      <use x="174.300781" xlink:href="#DejaVuSans-72"/>
      <use x="215.382812" xlink:href="#DejaVuSans-65"/>
      <use x="276.90625" xlink:href="#DejaVuSans-6e"/>
      <use x="340.285156" xlink:href="#DejaVuSans-74"/>
      <use x="379.494141" xlink:href="#DejaVuSans-53"/>
      <use x="442.970703" xlink:href="#DejaVuSans-74"/>
      <use x="482.179688" xlink:href="#DejaVuSans-61"/>
      <use x="543.458984" xlink:href="#DejaVuSans-74"/>
      <use x="582.667969" xlink:href="#DejaVuSans-65"/>
     </g>
    </g>
    <g id="line2d_19">
     <path d="M 1181.510937 114.176562 
L 1201.510937 114.176562 
" style="fill:none;stroke:#ff0000;stroke-linecap:square;stroke-width:1.5;"/>
    </g>
    <g id="line2d_20"/>
    <g id="text_17">
     <!-- ReferenceState -->
     <defs>
      <path d="M 44.390625 34.1875 
Q 47.5625 33.109375 50.5625 29.59375 
Q 53.5625 26.078125 56.59375 19.921875 
L 66.609375 0 
L 56 0 
L 46.6875 18.703125 
Q 43.0625 26.03125 39.671875 28.421875 
Q 36.28125 30.8125 30.421875 30.8125 
L 19.671875 30.8125 
L 19.671875 0 
L 9.8125 0 
L 9.8125 72.90625 
L 32.078125 72.90625 
Q 44.578125 72.90625 50.734375 67.671875 
Q 56.890625 62.453125 56.890625 51.90625 
Q 56.890625 45.015625 53.6875 40.46875 
Q 50.484375 35.9375 44.390625 34.1875 
z
M 19.671875 64.796875 
L 19.671875 38.921875 
L 32.078125 38.921875 
Q 39.203125 38.921875 42.84375 42.21875 
Q 46.484375 45.515625 46.484375 51.90625 
Q 46.484375 58.296875 42.84375 61.546875 
Q 39.203125 64.796875 32.078125 64.796875 
z
" id="DejaVuSans-52"/>
      <path d="M 37.109375 75.984375 
L 37.109375 68.5 
L 28.515625 68.5 
Q 23.6875 68.5 21.796875 66.546875 
Q 19.921875 64.59375 19.921875 59.515625 
L 19.921875 54.6875 
L 34.71875 54.6875 
L 34.71875 47.703125 
L 19.921875 47.703125 
L 19.921875 0 
L 10.890625 0 
L 10.890625 47.703125 
L 2.296875 47.703125 
L 2.296875 54.6875 
L 10.890625 54.6875 
L 10.890625 58.5 
Q 10.890625 67.625 15.140625 71.796875 
Q 19.390625 75.984375 28.609375 75.984375 
z
" id="DejaVuSans-66"/>
      <path d="M 48.78125 52.59375 
L 48.78125 44.1875 
Q 44.96875 46.296875 41.140625 47.34375 
Q 37.3125 48.390625 33.40625 48.390625 
Q 24.65625 48.390625 19.8125 42.84375 
Q 14.984375 37.3125 14.984375 27.296875 
Q 14.984375 17.28125 19.8125 11.734375 
Q 24.65625 6.203125 33.40625 6.203125 
Q 37.3125 6.203125 41.140625 7.25 
Q 44.96875 8.296875 48.78125 10.40625 
L 48.78125 2.09375 
Q 45.015625 0.34375 40.984375 -0.53125 
Q 36.96875 -1.421875 32.421875 -1.421875 
Q 20.0625 -1.421875 12.78125 6.34375 
Q 5.515625 14.109375 5.515625 27.296875 
Q 5.515625 40.671875 12.859375 48.328125 
Q 20.21875 56 33.015625 56 
Q 37.15625 56 41.109375 55.140625 
Q 45.0625 54.296875 48.78125 52.59375 
z
" id="DejaVuSans-63"/>
     </defs>
     <g transform="translate(1209.510937 117.676562)scale(0.1 -0.1)">
      <use xlink:href="#DejaVuSans-52"/>
      <use x="69.419922" xlink:href="#DejaVuSans-65"/>
      <use x="130.943359" xlink:href="#DejaVuSans-66"/>
      <use x="166.148438" xlink:href="#DejaVuSans-65"/>
      <use x="227.671875" xlink:href="#DejaVuSans-72"/>
      <use x="268.753906" xlink:href="#DejaVuSans-65"/>
      <use x="330.277344" xlink:href="#DejaVuSans-6e"/>
      <use x="393.65625" xlink:href="#DejaVuSans-63"/>
      <use x="448.636719" xlink:href="#DejaVuSans-65"/>
      <use x="510.160156" xlink:href="#DejaVuSans-53"/>
      <use x="573.636719" xlink:href="#DejaVuSans-74"/>
      <use x="612.845703" xlink:href="#DejaVuSans-61"/>
      <use x="674.125" xlink:href="#DejaVuSans-74"/>
      <use x="713.333984" xlink:href="#DejaVuSans-65"/>
     </g>
    </g>
   </g>
  </g>
  <g id="axes_2">
   <g id="patch_8">
    <path d="M 180 640.8 
L 1296 640.8 
L 1296 388.8 
L 180 388.8 
z
" style="fill:#ffffff;"/>
   </g>
   <g id="matplotlib.axis_3">
    <g id="xtick_10">
     <g id="line2d_21">
      <g>
       <use style="stroke:#000000;stroke-width:0.8;" x="230.727273" xlink:href="#m45a9c8dd45" y="640.8"/>
      </g>
     </g>
     <g id="text_18">
      <!-- 0 -->
      <g transform="translate(227.546023 655.398438)scale(0.1 -0.1)">
       <use xlink:href="#DejaVuSans-30"/>
      </g>
     </g>
    </g>
    <g id="xtick_11">
     <g id="line2d_22">
      <g>
       <use style="stroke:#000000;stroke-width:0.8;" x="357.704176" xlink:href="#m45a9c8dd45" y="640.8"/>
      </g>
     </g>
     <g id="text_19">
      <!-- 100 -->
      <g transform="translate(348.160426 655.398438)scale(0.1 -0.1)">
       <use xlink:href="#DejaVuSans-31"/>
       <use x="63.623047" xlink:href="#DejaVuSans-30"/>
       <use x="127.246094" xlink:href="#DejaVuSans-30"/>
      </g>
     </g>
    </g>
    <g id="xtick_12">
     <g id="line2d_23">
      <g>
       <use style="stroke:#000000;stroke-width:0.8;" x="484.681079" xlink:href="#m45a9c8dd45" y="640.8"/>
      </g>
     </g>
     <g id="text_20">
      <!-- 200 -->
      <g transform="translate(475.137329 655.398438)scale(0.1 -0.1)">
       <use xlink:href="#DejaVuSans-32"/>
       <use x="63.623047" xlink:href="#DejaVuSans-30"/>
       <use x="127.246094" xlink:href="#DejaVuSans-30"/>
      </g>
     </g>
    </g>
    <g id="xtick_13">
     <g id="line2d_24">
      <g>
       <use style="stroke:#000000;stroke-width:0.8;" x="611.657982" xlink:href="#m45a9c8dd45" y="640.8"/>
      </g>
     </g>
     <g id="text_21">
      <!-- 300 -->
      <g transform="translate(602.114232 655.398438)scale(0.1 -0.1)">
       <use xlink:href="#DejaVuSans-33"/>
       <use x="63.623047" xlink:href="#DejaVuSans-30"/>
       <use x="127.246094" xlink:href="#DejaVuSans-30"/>
      </g>
     </g>
    </g>
    <g id="xtick_14">
     <g id="line2d_25">
      <g>
       <use style="stroke:#000000;stroke-width:0.8;" x="738.634885" xlink:href="#m45a9c8dd45" y="640.8"/>
      </g>
     </g>
     <g id="text_22">
      <!-- 400 -->
      <g transform="translate(729.091135 655.398438)scale(0.1 -0.1)">
       <use xlink:href="#DejaVuSans-34"/>
       <use x="63.623047" xlink:href="#DejaVuSans-30"/>
       <use x="127.246094" xlink:href="#DejaVuSans-30"/>
      </g>
     </g>
    </g>
    <g id="xtick_15">
     <g id="line2d_26">
      <g>
       <use style="stroke:#000000;stroke-width:0.8;" x="865.611787" xlink:href="#m45a9c8dd45" y="640.8"/>
      </g>
     </g>
     <g id="text_23">
      <!-- 500 -->
      <g transform="translate(856.068037 655.398438)scale(0.1 -0.1)">
       <use xlink:href="#DejaVuSans-35"/>
       <use x="63.623047" xlink:href="#DejaVuSans-30"/>
       <use x="127.246094" xlink:href="#DejaVuSans-30"/>
      </g>
     </g>
    </g>
    <g id="xtick_16">
     <g id="line2d_27">
      <g>
       <use style="stroke:#000000;stroke-width:0.8;" x="992.58869" xlink:href="#m45a9c8dd45" y="640.8"/>
      </g>
     </g>
     <g id="text_24">
      <!-- 600 -->
      <g transform="translate(983.04494 655.398438)scale(0.1 -0.1)">
       <use xlink:href="#DejaVuSans-36"/>
       <use x="63.623047" xlink:href="#DejaVuSans-30"/>
       <use x="127.246094" xlink:href="#DejaVuSans-30"/>
      </g>
     </g>
    </g>
    <g id="xtick_17">
     <g id="line2d_28">
      <g>
       <use style="stroke:#000000;stroke-width:0.8;" x="1119.565593" xlink:href="#m45a9c8dd45" y="640.8"/>
      </g>
     </g>
     <g id="text_25">
      <!-- 700 -->
      <g transform="translate(1110.021843 655.398438)scale(0.1 -0.1)">
       <use xlink:href="#DejaVuSans-37"/>
       <use x="63.623047" xlink:href="#DejaVuSans-30"/>
       <use x="127.246094" xlink:href="#DejaVuSans-30"/>
      </g>
     </g>
    </g>
    <g id="xtick_18">
     <g id="line2d_29">
      <g>
       <use style="stroke:#000000;stroke-width:0.8;" x="1246.542496" xlink:href="#m45a9c8dd45" y="640.8"/>
      </g>
     </g>
     <g id="text_26">
      <!-- 800 -->
      <g transform="translate(1236.998746 655.398438)scale(0.1 -0.1)">
       <use xlink:href="#DejaVuSans-38"/>
       <use x="63.623047" xlink:href="#DejaVuSans-30"/>
       <use x="127.246094" xlink:href="#DejaVuSans-30"/>
      </g>
     </g>
    </g>
    <g id="text_27">
     <!-- Time -->
     <defs>
      <path d="M -0.296875 72.90625 
L 61.375 72.90625 
L 61.375 64.59375 
L 35.5 64.59375 
L 35.5 0 
L 25.59375 0 
L 25.59375 64.59375 
L -0.296875 64.59375 
z
" id="DejaVuSans-54"/>
      <path d="M 9.421875 54.6875 
L 18.40625 54.6875 
L 18.40625 0 
L 9.421875 0 
z
M 9.421875 75.984375 
L 18.40625 75.984375 
L 18.40625 64.59375 
L 9.421875 64.59375 
z
" id="DejaVuSans-69"/>
      <path d="M 52 44.1875 
Q 55.375 50.25 60.0625 53.125 
Q 64.75 56 71.09375 56 
Q 79.640625 56 84.28125 50.015625 
Q 88.921875 44.046875 88.921875 33.015625 
L 88.921875 0 
L 79.890625 0 
L 79.890625 32.71875 
Q 79.890625 40.578125 77.09375 44.375 
Q 74.3125 48.1875 68.609375 48.1875 
Q 61.625 48.1875 57.5625 43.546875 
Q 53.515625 38.921875 53.515625 30.90625 
L 53.515625 0 
L 44.484375 0 
L 44.484375 32.71875 
Q 44.484375 40.625 41.703125 44.40625 
Q 38.921875 48.1875 33.109375 48.1875 
Q 26.21875 48.1875 22.15625 43.53125 
Q 18.109375 38.875 18.109375 30.90625 
L 18.109375 0 
L 9.078125 0 
L 9.078125 54.6875 
L 18.109375 54.6875 
L 18.109375 46.1875 
Q 21.1875 51.21875 25.484375 53.609375 
Q 29.78125 56 35.6875 56 
Q 41.65625 56 45.828125 52.96875 
Q 50 49.953125 52 44.1875 
z
" id="DejaVuSans-6d"/>
     </defs>
     <g transform="translate(725.6125 669.076563)scale(0.1 -0.1)">
      <use xlink:href="#DejaVuSans-54"/>
      <use x="61.037109" xlink:href="#DejaVuSans-69"/>
      <use x="88.820312" xlink:href="#DejaVuSans-6d"/>
      <use x="186.232422" xlink:href="#DejaVuSans-65"/>
     </g>
    </g>
   </g>
   <g id="matplotlib.axis_4">
    <g id="ytick_6">
     <g id="line2d_30">
      <g>
       <use style="stroke:#000000;stroke-width:0.8;" x="180" xlink:href="#m707720962e" y="630.815091"/>
      </g>
     </g>
     <g id="text_28">
      <!-- −50 -->
      <g transform="translate(151.895312 634.61431)scale(0.1 -0.1)">
       <use xlink:href="#DejaVuSans-2212"/>
       <use x="83.789062" xlink:href="#DejaVuSans-35"/>
       <use x="147.412109" xlink:href="#DejaVuSans-30"/>
      </g>
     </g>
    </g>
    <g id="ytick_7">
     <g id="line2d_31">
      <g>
       <use style="stroke:#000000;stroke-width:0.8;" x="180" xlink:href="#m707720962e" y="593.460729"/>
      </g>
     </g>
     <g id="text_29">
      <!-- 0 -->
      <g transform="translate(166.6375 597.259948)scale(0.1 -0.1)">
       <use xlink:href="#DejaVuSans-30"/>
      </g>
     </g>
    </g>
    <g id="ytick_8">
     <g id="line2d_32">
      <g>
       <use style="stroke:#000000;stroke-width:0.8;" x="180" xlink:href="#m707720962e" y="556.106366"/>
      </g>
     </g>
     <g id="text_30">
      <!-- 50 -->
      <g transform="translate(160.275 559.905585)scale(0.1 -0.1)">
       <use xlink:href="#DejaVuSans-35"/>
       <use x="63.623047" xlink:href="#DejaVuSans-30"/>
      </g>
     </g>
    </g>
    <g id="ytick_9">
     <g id="line2d_33">
      <g>
       <use style="stroke:#000000;stroke-width:0.8;" x="180" xlink:href="#m707720962e" y="518.752004"/>
      </g>
     </g>
     <g id="text_31">
      <!-- 100 -->
      <g transform="translate(153.9125 522.551223)scale(0.1 -0.1)">
       <use xlink:href="#DejaVuSans-31"/>
       <use x="63.623047" xlink:href="#DejaVuSans-30"/>
       <use x="127.246094" xlink:href="#DejaVuSans-30"/>
      </g>
     </g>
    </g>
    <g id="ytick_10">
     <g id="line2d_34">
      <g>
       <use style="stroke:#000000;stroke-width:0.8;" x="180" xlink:href="#m707720962e" y="481.397641"/>
      </g>
     </g>
     <g id="text_32">
      <!-- 150 -->
      <g transform="translate(153.9125 485.19686)scale(0.1 -0.1)">
       <use xlink:href="#DejaVuSans-31"/>
       <use x="63.623047" xlink:href="#DejaVuSans-35"/>
       <use x="127.246094" xlink:href="#DejaVuSans-30"/>
      </g>
     </g>
    </g>
    <g id="ytick_11">
     <g id="line2d_35">
      <g>
       <use style="stroke:#000000;stroke-width:0.8;" x="180" xlink:href="#m707720962e" y="444.043279"/>
      </g>
     </g>
     <g id="text_33">
      <!-- 200 -->
      <g transform="translate(153.9125 447.842498)scale(0.1 -0.1)">
       <use xlink:href="#DejaVuSans-32"/>
       <use x="63.623047" xlink:href="#DejaVuSans-30"/>
       <use x="127.246094" xlink:href="#DejaVuSans-30"/>
      </g>
     </g>
    </g>
    <g id="ytick_12">
     <g id="line2d_36">
      <g>
       <use style="stroke:#000000;stroke-width:0.8;" x="180" xlink:href="#m707720962e" y="406.688916"/>
      </g>
     </g>
     <g id="text_34">
      <!-- 250 -->
      <g transform="translate(153.9125 410.488135)scale(0.1 -0.1)">
       <use xlink:href="#DejaVuSans-32"/>
       <use x="63.623047" xlink:href="#DejaVuSans-35"/>
       <use x="127.246094" xlink:href="#DejaVuSans-30"/>
      </g>
     </g>
    </g>
    <g id="text_35">
     <!-- Control Input -->
     <defs>
      <path d="M 30.609375 48.390625 
Q 23.390625 48.390625 19.1875 42.75 
Q 14.984375 37.109375 14.984375 27.296875 
Q 14.984375 17.484375 19.15625 11.84375 
Q 23.34375 6.203125 30.609375 6.203125 
Q 37.796875 6.203125 41.984375 11.859375 
Q 46.1875 17.53125 46.1875 27.296875 
Q 46.1875 37.015625 41.984375 42.703125 
Q 37.796875 48.390625 30.609375 48.390625 
z
M 30.609375 56 
Q 42.328125 56 49.015625 48.375 
Q 55.71875 40.765625 55.71875 27.296875 
Q 55.71875 13.875 49.015625 6.21875 
Q 42.328125 -1.421875 30.609375 -1.421875 
Q 18.84375 -1.421875 12.171875 6.21875 
Q 5.515625 13.875 5.515625 27.296875 
Q 5.515625 40.765625 12.171875 48.375 
Q 18.84375 56 30.609375 56 
z
" id="DejaVuSans-6f"/>
      <path d="M 9.421875 75.984375 
L 18.40625 75.984375 
L 18.40625 0 
L 9.421875 0 
z
" id="DejaVuSans-6c"/>
      <path id="DejaVuSans-20"/>
      <path d="M 9.8125 72.90625 
L 19.671875 72.90625 
L 19.671875 0 
L 9.8125 0 
z
" id="DejaVuSans-49"/>
      <path d="M 18.109375 8.203125 
L 18.109375 -20.796875 
L 9.078125 -20.796875 
L 9.078125 54.6875 
L 18.109375 54.6875 
L 18.109375 46.390625 
Q 20.953125 51.265625 25.265625 53.625 
Q 29.59375 56 35.59375 56 
Q 45.5625 56 51.78125 48.09375 
Q 58.015625 40.1875 58.015625 27.296875 
Q 58.015625 14.40625 51.78125 6.484375 
Q 45.5625 -1.421875 35.59375 -1.421875 
Q 29.59375 -1.421875 25.265625 0.953125 
Q 20.953125 3.328125 18.109375 8.203125 
z
M 48.6875 27.296875 
Q 48.6875 37.203125 44.609375 42.84375 
Q 40.53125 48.484375 33.40625 48.484375 
Q 26.265625 48.484375 22.1875 42.84375 
Q 18.109375 37.203125 18.109375 27.296875 
Q 18.109375 17.390625 22.1875 11.75 
Q 26.265625 6.109375 33.40625 6.109375 
Q 40.53125 6.109375 44.609375 11.75 
Q 48.6875 17.390625 48.6875 27.296875 
z
" id="DejaVuSans-70"/>
     </defs>
     <g transform="translate(145.815625 547.517969)rotate(-90)scale(0.1 -0.1)">
      <use xlink:href="#DejaVuSans-43"/>
      <use x="69.824219" xlink:href="#DejaVuSans-6f"/>
      <use x="131.005859" xlink:href="#DejaVuSans-6e"/>
      <use x="194.384766" xlink:href="#DejaVuSans-74"/>
      <use x="233.59375" xlink:href="#DejaVuSans-72"/>
      <use x="274.675781" xlink:href="#DejaVuSans-6f"/>
      <use x="335.857422" xlink:href="#DejaVuSans-6c"/>
      <use x="363.640625" xlink:href="#DejaVuSans-20"/>
      <use x="395.427734" xlink:href="#DejaVuSans-49"/>
      <use x="424.919922" xlink:href="#DejaVuSans-6e"/>
      <use x="488.298828" xlink:href="#DejaVuSans-70"/>
      <use x="551.775391" xlink:href="#DejaVuSans-75"/>
      <use x="615.154297" xlink:href="#DejaVuSans-74"/>
     </g>
    </g>
   </g>
   <g id="line2d_37">
    <path clip-path="url(#p9e24a01687)" d="M 230.727273 591.482314 
L 231.997042 591.35588 
L 233.266811 591.804703 
L 235.806349 591.782755 
L 237.076118 592.094406 
L 240.885425 592.275492 
L 245.964501 592.669089 
L 247.23427 592.976145 
L 249.773808 593.121636 
L 253.583115 592.754501 
L 256.122653 592.305374 
L 257.392422 592.408542 
L 263.741267 591.965219 
L 265.011037 591.68109 
L 267.550575 591.443108 
L 275.169189 590.371449 
L 276.438958 590.063273 
L 277.708727 589.937578 
L 278.978496 589.475353 
L 280.248265 589.453306 
L 281.518034 588.879571 
L 282.787803 588.886295 
L 284.057572 588.353777 
L 285.327341 588.199881 
L 287.866879 587.319098 
L 289.136648 587.155793 
L 290.406417 586.413861 
L 291.676186 586.294679 
L 294.215724 585.224768 
L 295.485493 584.977453 
L 298.025031 583.519628 
L 299.2948 583.444438 
L 300.564569 582.588493 
L 301.834338 582.036222 
L 303.104107 581.032633 
L 304.373876 580.51123 
L 310.722722 576.421278 
L 313.26226 574.288799 
L 315.801798 572.235462 
L 320.880874 567.209497 
L 322.150643 565.642194 
L 323.420412 564.416165 
L 327.229719 559.694006 
L 328.499488 557.859176 
L 329.769257 556.233165 
L 331.039026 554.354799 
L 333.578564 548.847664 
L 334.848333 546.930058 
L 336.118102 544.369752 
L 338.65764 538.55946 
L 339.927409 535.993799 
L 341.197178 532.655321 
L 342.466947 528.840885 
L 345.006485 522.252887 
L 346.276254 518.199759 
L 348.815792 511.380559 
L 350.085561 507.547804 
L 353.894869 494.815174 
L 358.973945 475.551013 
L 360.243714 471.184174 
L 364.053021 456.277938 
L 365.32279 452.682182 
L 367.862328 441.434265 
L 369.132097 437.892942 
L 370.401866 432.047681 
L 371.671635 425.676179 
L 372.941404 421.553098 
L 374.211173 415.703028 
L 375.480942 412.77879 
L 376.750711 417.91994 
L 378.02048 413.810139 
L 379.290249 410.542043 
L 380.560018 404.510136 
L 381.829787 402.125683 
L 383.099556 400.254545 
L 384.369325 401.477386 
L 385.639094 403.321609 
L 386.908863 404.581509 
L 388.178632 405.112117 
L 389.448401 404.379177 
L 390.71817 404.40233 
L 391.987939 414.009576 
L 393.257708 403.531989 
L 394.527478 425.148193 
L 395.797247 412.736053 
L 397.067016 417.757107 
L 398.336785 414.945042 
L 399.606554 429.165931 
L 400.876323 422.559265 
L 402.146092 441.686037 
L 403.415861 436.015944 
L 404.68563 438.495196 
L 405.955399 445.715516 
L 407.225168 440.969478 
L 408.494937 464.439823 
L 409.764706 453.604607 
L 411.034475 474.858872 
L 412.304244 465.095406 
L 413.574013 484.940994 
L 414.843782 478.79191 
L 416.113551 480.549018 
L 417.38332 495.269176 
L 418.653089 491.402952 
L 419.922858 507.229805 
L 421.192627 503.44877 
L 422.462396 514.586801 
L 423.732165 514.325453 
L 425.001934 518.483434 
L 426.271703 526.218305 
L 427.541472 528.349059 
L 428.811241 537.256446 
L 430.08101 536.898925 
L 431.350779 543.721551 
L 432.620548 545.528252 
L 433.890317 549.257008 
L 435.160086 554.058183 
L 436.429856 556.886795 
L 437.699625 561.447503 
L 438.969394 562.962524 
L 440.239163 566.998276 
L 441.508932 569.210674 
L 445.318239 576.716358 
L 447.857777 580.814046 
L 449.127546 581.8774 
L 451.667084 586.359252 
L 452.936853 591.033698 
L 454.206622 591.520474 
L 455.476391 593.695128 
L 456.74616 596.212643 
L 458.015929 598.43259 
L 459.285698 602.422441 
L 460.555467 607.669816 
L 461.825236 629.345455 
L 463.095005 627.546311 
L 464.364774 604.974195 
L 465.634543 598.420213 
L 466.904312 577.431765 
L 468.174081 570.158957 
L 469.44385 559.30926 
L 471.983388 559.658012 
L 474.522926 579.123923 
L 475.792695 584.179346 
L 477.062464 581.08525 
L 478.332233 574.778768 
L 480.871772 568.660433 
L 482.141541 574.036725 
L 483.41131 584.634407 
L 484.681079 589.593959 
L 485.950848 591.386296 
L 487.220617 598.071618 
L 488.490386 589.527471 
L 489.760155 599.813584 
L 491.029924 583.941683 
L 492.299693 592.700236 
L 493.569462 582.740428 
L 494.839231 580.490235 
L 496.109 554.054795 
L 497.378769 586.779571 
L 498.648538 584.66233 
L 499.918307 588.644412 
L 501.188076 586.185879 
L 502.457845 588.810653 
L 504.997383 585.151689 
L 506.267152 584.747159 
L 507.536921 589.768224 
L 508.80669 588.260407 
L 510.076459 589.034617 
L 511.346228 588.776055 
L 512.615997 589.692807 
L 513.885766 589.5132 
L 515.155535 589.175456 
L 516.425304 589.510096 
L 517.695073 590.168096 
L 518.964842 589.892693 
L 522.77415 590.217796 
L 525.313688 590.083273 
L 527.853226 590.238371 
L 530.392764 590.195107 
L 535.47184 590.283807 
L 543.090454 590.463029 
L 557.057913 590.60107 
L 596.420753 591.033513 
L 691.65343 591.722956 
L 738.634885 591.913205 
L 739.904654 589.74629 
L 741.174423 592.194161 
L 742.444192 589.119265 
L 744.98373 575.901394 
L 746.253499 581.730485 
L 747.523268 571.414175 
L 748.793037 573.092038 
L 750.062806 579.162923 
L 751.332575 582.293908 
L 752.602344 587.116617 
L 753.872113 589.067058 
L 755.141882 591.314039 
L 756.411651 592.257033 
L 757.68142 591.020203 
L 758.951189 590.501374 
L 760.220958 590.838587 
L 761.490727 589.048286 
L 762.760496 588.440375 
L 764.030265 589.3193 
L 765.300034 586.556276 
L 767.839572 587.164849 
L 769.109341 587.327614 
L 771.648879 589.234738 
L 772.918648 589.701794 
L 774.188417 589.823109 
L 775.458186 589.022731 
L 777.997724 587.292741 
L 779.267493 587.209506 
L 780.537262 587.56009 
L 781.807032 588.089482 
L 783.076801 588.942403 
L 784.34657 589.60732 
L 785.616339 589.737863 
L 786.886108 589.410409 
L 788.155877 588.701174 
L 790.695415 586.76061 
L 791.965184 587.763247 
L 793.234953 588.415804 
L 794.504722 588.677261 
L 795.774491 589.434342 
L 797.04426 589.732649 
L 798.314029 589.583332 
L 799.583798 588.932315 
L 802.123336 587.105478 
L 803.393105 587.865519 
L 805.932643 588.526622 
L 807.202412 589.201693 
L 808.472181 589.639765 
L 809.74195 589.697996 
L 811.011719 589.223631 
L 813.551257 587.253145 
L 814.821026 587.946431 
L 816.090795 588.315202 
L 817.360564 588.4314 
L 818.630333 589.275225 
L 819.900102 589.843093 
L 821.169871 589.888881 
L 822.43964 589.405955 
L 824.979179 587.55627 
L 827.518717 588.001199 
L 828.788486 588.370674 
L 830.058255 589.246289 
L 831.328024 589.935115 
L 832.597793 590.262574 
L 833.867562 589.844214 
L 835.137331 588.80858 
L 836.4071 587.269533 
L 837.676869 587.953621 
L 838.946638 588.063768 
L 840.216407 588.059875 
L 842.755945 590.258706 
L 844.025714 590.852514 
L 845.295483 590.173734 
L 847.835021 586.606509 
L 849.10479 588.715559 
L 850.374559 588.618485 
L 851.644328 587.47228 
L 852.914097 589.49241 
L 854.183866 591.063529 
L 855.453635 591.333486 
L 856.723404 590.623959 
L 859.262942 586.030265 
L 860.532711 587.519125 
L 863.072249 586.712426 
L 864.342018 589.617954 
L 865.611787 591.924344 
L 866.881556 592.11711 
L 868.151326 586.971243 
L 869.421095 592.939767 
L 870.690864 593.189685 
L 871.960633 595.183753 
L 873.230402 588.272084 
L 874.500171 598.952234 
L 875.76994 601.271877 
L 877.039709 597.805518 
L 878.309478 595.517657 
L 879.579247 595.815963 
L 880.849016 595.113049 
L 882.118785 591.150884 
L 884.658323 591.413305 
L 885.928092 591.048331 
L 888.46763 591.428062 
L 889.737399 592.634686 
L 891.007168 593.073837 
L 892.276937 592.940392 
L 893.546706 593.396566 
L 894.816475 592.983749 
L 896.086244 592.345944 
L 897.356013 592.382078 
L 898.625782 592.619584 
L 902.435089 592.855177 
L 903.704858 593.103563 
L 904.974627 593.027571 
L 906.244396 592.808013 
L 908.783934 592.83511 
L 911.323473 592.766289 
L 917.672318 592.913905 
L 954.49562 592.953885 
L 992.58869 593.00041 
L 993.858459 588.487726 
L 995.128228 592.005293 
L 996.397997 587.998803 
L 997.667767 577.854478 
L 998.937536 573.945956 
L 1000.207305 578.763593 
L 1001.477074 568.739495 
L 1002.746843 575.800268 
L 1004.016612 585.346039 
L 1005.286381 588.116469 
L 1006.55615 594.05469 
L 1007.825919 597.867231 
L 1009.095688 596.122327 
L 1010.365457 581.265224 
L 1011.635226 598.296256 
L 1012.904995 598.38602 
L 1014.174764 576.674361 
L 1015.444533 598.265112 
L 1016.714302 596.392244 
L 1017.984071 582.475434 
L 1019.25384 588.143112 
L 1020.523609 587.954415 
L 1021.793378 591.749215 
L 1023.063147 590.917971 
L 1024.332916 587.313325 
L 1025.602685 594.594914 
L 1026.872454 594.680012 
L 1028.142223 587.585898 
L 1029.411992 587.39478 
L 1030.681761 587.926895 
L 1031.95153 587.128853 
L 1033.221299 585.746415 
L 1034.491068 586.301861 
L 1035.760837 591.220638 
L 1037.030606 595.111464 
L 1038.300375 595.691841 
L 1039.570144 592.602247 
L 1040.839914 585.508534 
L 1042.109683 585.644313 
L 1043.379452 586.583228 
L 1044.649221 583.591651 
L 1045.91899 587.083028 
L 1047.188759 594.048157 
L 1048.458528 599.525813 
L 1049.728297 598.209529 
L 1050.998066 582.665119 
L 1052.267835 583.496233 
L 1053.537604 592.678849 
L 1054.807373 578.959727 
L 1056.077142 579.134221 
L 1057.346911 596.195245 
L 1058.61668 599.58879 
L 1059.886449 599.076805 
L 1061.156218 584.721417 
L 1062.425987 586.621177 
L 1063.695756 595.773276 
L 1064.965525 576.493529 
L 1066.235294 577.799546 
L 1067.505063 599.601999 
L 1068.774832 599.159713 
L 1070.044601 590.825423 
L 1071.31437 592.181326 
L 1072.584139 595.371601 
L 1073.853908 579.807137 
L 1075.123677 579.025308 
L 1076.393446 592.162189 
L 1077.663215 596.158112 
L 1078.932984 590.359888 
L 1080.202753 593.524371 
L 1081.472522 595.795043 
L 1082.742292 585.968809 
L 1084.012061 578.395922 
L 1085.28183 592.785643 
L 1086.551599 597.393642 
L 1087.821368 585.260455 
L 1089.091137 591.134389 
L 1090.360906 596.285864 
L 1091.630675 588.90452 
L 1092.900444 579.890592 
L 1094.170213 589.328001 
L 1095.439982 597.032717 
L 1096.709751 593.069628 
L 1097.97952 586.37258 
L 1099.249289 594.73691 
L 1100.519058 591.820068 
L 1101.788827 576.463868 
L 1103.058596 591.34888 
L 1104.328365 595.708993 
L 1105.598134 589.678449 
L 1106.867903 591.189273 
L 1108.137672 591.920165 
L 1109.407441 591.973241 
L 1110.67721 585.95725 
L 1111.946979 584.472834 
L 1113.216748 595.490893 
L 1114.486517 594.702379 
L 1115.756286 586.109743 
L 1117.026055 592.079907 
L 1118.295824 591.230383 
L 1119.565593 584.405868 
L 1120.835362 589.924285 
L 1122.105131 590.644595 
L 1123.3749 592.563684 
L 1124.644669 592.720291 
L 1125.914439 585.863679 
L 1127.184208 594.26055 
L 1128.453977 593.286708 
L 1129.723746 578.674224 
L 1130.993515 589.023893 
L 1132.263284 595.452865 
L 1133.533053 593.007645 
L 1134.802822 588.321003 
L 1136.072591 592.798437 
L 1137.34236 595.305976 
L 1138.612129 584.9456 
L 1139.881898 585.357568 
L 1141.151667 589.52548 
L 1142.421436 590.837275 
L 1143.691205 590.486635 
L 1144.960974 590.549136 
L 1146.230743 593.726801 
L 1147.500512 593.949848 
L 1148.770281 584.257954 
L 1151.309819 592.889951 
L 1152.579588 589.184949 
L 1153.849357 589.120952 
L 1155.119126 592.559032 
L 1156.388895 593.358581 
L 1157.658664 589.526804 
L 1158.928433 587.968026 
L 1160.198202 590.251196 
L 1161.467971 590.267954 
L 1162.73774 588.77777 
L 1164.007509 591.097656 
L 1165.277278 592.984386 
L 1166.547047 592.180143 
L 1167.816816 589.467441 
L 1169.086586 590.191378 
L 1170.356355 590.550518 
L 1171.626124 589.060088 
L 1172.895893 589.414062 
L 1174.165662 591.119749 
L 1175.435431 591.634087 
L 1177.974969 591.210477 
L 1179.244738 591.508692 
L 1180.514507 590.181311 
L 1181.784276 589.105927 
L 1183.054045 589.580181 
L 1184.323814 590.259856 
L 1186.863352 591.20447 
L 1188.133121 591.956029 
L 1189.40289 592.064571 
L 1190.672659 590.160837 
L 1191.942428 589.676098 
L 1193.212197 589.713116 
L 1194.481966 589.542156 
L 1195.751735 590.058759 
L 1198.291273 591.8695 
L 1199.561042 592.130156 
L 1200.830811 591.178022 
L 1202.10058 590.635427 
L 1203.370349 589.755097 
L 1204.640118 589.364174 
L 1207.179656 590.537601 
L 1209.719194 591.832503 
L 1210.988963 591.736168 
L 1212.258733 591.372886 
L 1213.528502 590.005233 
L 1214.798271 589.482987 
L 1217.337809 590.15988 
L 1219.877347 591.581492 
L 1221.147116 591.793875 
L 1222.416885 591.609817 
L 1223.686654 589.969124 
L 1224.956423 589.837856 
L 1227.495961 589.914479 
L 1230.035499 591.530377 
L 1231.305268 591.920678 
L 1232.575037 591.568229 
L 1233.844806 590.206566 
L 1236.384344 590.074965 
L 1237.654113 590.077286 
L 1238.923882 590.891734 
L 1240.193651 591.486989 
L 1241.46342 591.62954 
L 1244.002958 590.433485 
L 1245.272727 590.486053 
L 1245.272727 590.486053 
" style="fill:none;stroke:#ff0000;stroke-linecap:square;stroke-width:1.5;"/>
   </g>
   <g id="patch_9">
    <path d="M 180 640.8 
L 180 388.8 
" style="fill:none;stroke:#000000;stroke-linecap:square;stroke-linejoin:miter;stroke-width:0.8;"/>
   </g>
   <g id="patch_10">
    <path d="M 1296 640.8 
L 1296 388.8 
" style="fill:none;stroke:#000000;stroke-linecap:square;stroke-linejoin:miter;stroke-width:0.8;"/>
   </g>
   <g id="patch_11">
    <path d="M 180 640.8 
L 1296 640.8 
" style="fill:none;stroke:#000000;stroke-linecap:square;stroke-linejoin:miter;stroke-width:0.8;"/>
   </g>
   <g id="patch_12">
    <path d="M 180 388.8 
L 1296 388.8 
" style="fill:none;stroke:#000000;stroke-linecap:square;stroke-linejoin:miter;stroke-width:0.8;"/>
   </g>
   <g id="legend_2">
    <g id="patch_13">
     <path d="M 1194.742188 411.478125 
L 1289 411.478125 
Q 1291 411.478125 1291 409.478125 
L 1291 395.8 
Q 1291 393.8 1289 393.8 
L 1194.742188 393.8 
Q 1192.742188 393.8 1192.742188 395.8 
L 1192.742188 409.478125 
Q 1192.742188 411.478125 1194.742188 411.478125 
z
" style="fill:#ffffff;opacity:0.8;stroke:#cccccc;stroke-linejoin:miter;"/>
    </g>
    <g id="line2d_38">
     <path d="M 1196.742188 401.898438 
L 1216.742188 401.898438 
" style="fill:none;stroke:#ff0000;stroke-linecap:square;stroke-width:1.5;"/>
    </g>
    <g id="line2d_39"/>
    <g id="text_36">
     <!-- ControlInput -->
     <g transform="translate(1224.742188 405.398438)scale(0.1 -0.1)">
      <use xlink:href="#DejaVuSans-43"/>
      <use x="69.824219" xlink:href="#DejaVuSans-6f"/>
      <use x="131.005859" xlink:href="#DejaVuSans-6e"/>
      <use x="194.384766" xlink:href="#DejaVuSans-74"/>
      <use x="233.59375" xlink:href="#DejaVuSans-72"/>
      <use x="274.675781" xlink:href="#DejaVuSans-6f"/>
      <use x="335.857422" xlink:href="#DejaVuSans-6c"/>
      <use x="363.640625" xlink:href="#DejaVuSans-49"/>
      <use x="393.132812" xlink:href="#DejaVuSans-6e"/>
      <use x="456.511719" xlink:href="#DejaVuSans-70"/>
      <use x="519.988281" xlink:href="#DejaVuSans-75"/>
      <use x="583.367188" xlink:href="#DejaVuSans-74"/>
     </g>
    </g>
   </g>
  </g>
 </g>
 <defs>
  <clipPath id="p4dbff5a6ec">
   <rect height="252" width="1116" x="180" y="86.4"/>
  </clipPath>
  <clipPath id="p9e24a01687">
   <rect height="252" width="1116" x="180" y="388.8"/>
  </clipPath>
 </defs>
</svg>
