<?xml version="1.0" encoding="utf-8" standalone="no"?>
<!DOCTYPE svg PUBLIC "-//W3C//DTD SVG 1.1//EN"
  "http://www.w3.org/Graphics/SVG/1.1/DTD/svg11.dtd">
<!-- Created with matplotlib (https://matplotlib.org/) -->
<svg height="720pt" version="1.1" viewBox="0 0 1440 720" width="1440pt" xmlns="http://www.w3.org/2000/svg" xmlns:xlink="http://www.w3.org/1999/xlink">
 <defs>
  <style type="text/css">
*{stroke-linecap:butt;stroke-linejoin:round;}
  </style>
 </defs>
 <g id="figure_1">
  <g id="patch_1">
   <path d="M 0 720 
L 1440 720 
L 1440 0 
L 0 0 
z
" style="fill:#ffffff;"/>
  </g>
  <g id="axes_1">
   <g id="patch_2">
    <path d="M 180 154.009756 
L 1296 154.009756 
L 1296 86.4 
L 180 86.4 
z
" style="fill:#ffffff;"/>
   </g>
   <g id="matplotlib.axis_1">
    <g id="xtick_1">
     <g id="line2d_1">
      <defs>
       <path d="M 0 0 
L 0 3.5 
" id="mb6d287d27b" style="stroke:#000000;stroke-width:0.8;"/>
      </defs>
      <g>
       <use style="stroke:#000000;stroke-width:0.8;" x="230.727273" xlink:href="#mb6d287d27b" y="154.009756"/>
      </g>
     </g>
     <g id="text_1">
      <!-- 0.00 -->
      <defs>
       <path d="M 31.78125 66.40625 
Q 24.171875 66.40625 20.328125 58.90625 
Q 16.5 51.421875 16.5 36.375 
Q 16.5 21.390625 20.328125 13.890625 
Q 24.171875 6.390625 31.78125 6.390625 
Q 39.453125 6.390625 43.28125 13.890625 
Q 47.125 21.390625 47.125 36.375 
Q 47.125 51.421875 43.28125 58.90625 
Q 39.453125 66.40625 31.78125 66.40625 
z
M 31.78125 74.21875 
Q 44.046875 74.21875 50.515625 64.515625 
Q 56.984375 54.828125 56.984375 36.375 
Q 56.984375 17.96875 50.515625 8.265625 
Q 44.046875 -1.421875 31.78125 -1.421875 
Q 19.53125 -1.421875 13.0625 8.265625 
Q 6.59375 17.96875 6.59375 36.375 
Q 6.59375 54.828125 13.0625 64.515625 
Q 19.53125 74.21875 31.78125 74.21875 
z
" id="DejaVuSans-48"/>
       <path d="M 10.6875 12.40625 
L 21 12.40625 
L 21 0 
L 10.6875 0 
z
" id="DejaVuSans-46"/>
      </defs>
      <g transform="translate(219.59446 168.608194)scale(0.1 -0.1)">
       <use xlink:href="#DejaVuSans-48"/>
       <use x="63.623047" xlink:href="#DejaVuSans-46"/>
       <use x="95.410156" xlink:href="#DejaVuSans-48"/>
       <use x="159.033203" xlink:href="#DejaVuSans-48"/>
      </g>
     </g>
    </g>
    <g id="xtick_2">
     <g id="line2d_2">
      <g>
       <use style="stroke:#000000;stroke-width:0.8;" x="357.545455" xlink:href="#mb6d287d27b" y="154.009756"/>
      </g>
     </g>
     <g id="text_2">
      <!-- 0.25 -->
      <defs>
       <path d="M 19.1875 8.296875 
L 53.609375 8.296875 
L 53.609375 0 
L 7.328125 0 
L 7.328125 8.296875 
Q 12.9375 14.109375 22.625 23.890625 
Q 32.328125 33.6875 34.8125 36.53125 
Q 39.546875 41.84375 41.421875 45.53125 
Q 43.3125 49.21875 43.3125 52.78125 
Q 43.3125 58.59375 39.234375 62.25 
Q 35.15625 65.921875 28.609375 65.921875 
Q 23.96875 65.921875 18.8125 64.3125 
Q 13.671875 62.703125 7.8125 59.421875 
L 7.8125 69.390625 
Q 13.765625 71.78125 18.9375 73 
Q 24.125 74.21875 28.421875 74.21875 
Q 39.75 74.21875 46.484375 68.546875 
Q 53.21875 62.890625 53.21875 53.421875 
Q 53.21875 48.921875 51.53125 44.890625 
Q 49.859375 40.875 45.40625 35.40625 
Q 44.1875 33.984375 37.640625 27.21875 
Q 31.109375 20.453125 19.1875 8.296875 
z
" id="DejaVuSans-50"/>
       <path d="M 10.796875 72.90625 
L 49.515625 72.90625 
L 49.515625 64.59375 
L 19.828125 64.59375 
L 19.828125 46.734375 
Q 21.96875 47.46875 24.109375 47.828125 
Q 26.265625 48.1875 28.421875 48.1875 
Q 40.625 48.1875 47.75 41.5 
Q 54.890625 34.8125 54.890625 23.390625 
Q 54.890625 11.625 47.5625 5.09375 
Q 40.234375 -1.421875 26.90625 -1.421875 
Q 22.3125 -1.421875 17.546875 -0.640625 
Q 12.796875 0.140625 7.71875 1.703125 
L 7.71875 11.625 
Q 12.109375 9.234375 16.796875 8.0625 
Q 21.484375 6.890625 26.703125 6.890625 
Q 35.15625 6.890625 40.078125 11.328125 
Q 45.015625 15.765625 45.015625 23.390625 
Q 45.015625 31 40.078125 35.4375 
Q 35.15625 39.890625 26.703125 39.890625 
Q 22.75 39.890625 18.8125 39.015625 
Q 14.890625 38.140625 10.796875 36.28125 
z
" id="DejaVuSans-53"/>
      </defs>
      <g transform="translate(346.412642 168.608194)scale(0.1 -0.1)">
       <use xlink:href="#DejaVuSans-48"/>
       <use x="63.623047" xlink:href="#DejaVuSans-46"/>
       <use x="95.410156" xlink:href="#DejaVuSans-50"/>
       <use x="159.033203" xlink:href="#DejaVuSans-53"/>
      </g>
     </g>
    </g>
    <g id="xtick_3">
     <g id="line2d_3">
      <g>
       <use style="stroke:#000000;stroke-width:0.8;" x="484.363636" xlink:href="#mb6d287d27b" y="154.009756"/>
      </g>
     </g>
     <g id="text_3">
      <!-- 0.50 -->
      <g transform="translate(473.230824 168.608194)scale(0.1 -0.1)">
       <use xlink:href="#DejaVuSans-48"/>
       <use x="63.623047" xlink:href="#DejaVuSans-46"/>
       <use x="95.410156" xlink:href="#DejaVuSans-53"/>
       <use x="159.033203" xlink:href="#DejaVuSans-48"/>
      </g>
     </g>
    </g>
    <g id="xtick_4">
     <g id="line2d_4">
      <g>
       <use style="stroke:#000000;stroke-width:0.8;" x="611.181818" xlink:href="#mb6d287d27b" y="154.009756"/>
      </g>
     </g>
     <g id="text_4">
      <!-- 0.75 -->
      <defs>
       <path d="M 8.203125 72.90625 
L 55.078125 72.90625 
L 55.078125 68.703125 
L 28.609375 0 
L 18.3125 0 
L 43.21875 64.59375 
L 8.203125 64.59375 
z
" id="DejaVuSans-55"/>
      </defs>
      <g transform="translate(600.049006 168.608194)scale(0.1 -0.1)">
       <use xlink:href="#DejaVuSans-48"/>
       <use x="63.623047" xlink:href="#DejaVuSans-46"/>
       <use x="95.410156" xlink:href="#DejaVuSans-55"/>
       <use x="159.033203" xlink:href="#DejaVuSans-53"/>
      </g>
     </g>
    </g>
    <g id="xtick_5">
     <g id="line2d_5">
      <g>
       <use style="stroke:#000000;stroke-width:0.8;" x="738" xlink:href="#mb6d287d27b" y="154.009756"/>
      </g>
     </g>
     <g id="text_5">
      <!-- 1.00 -->
      <defs>
       <path d="M 12.40625 8.296875 
L 28.515625 8.296875 
L 28.515625 63.921875 
L 10.984375 60.40625 
L 10.984375 69.390625 
L 28.421875 72.90625 
L 38.28125 72.90625 
L 38.28125 8.296875 
L 54.390625 8.296875 
L 54.390625 0 
L 12.40625 0 
z
" id="DejaVuSans-49"/>
      </defs>
      <g transform="translate(726.867188 168.608194)scale(0.1 -0.1)">
       <use xlink:href="#DejaVuSans-49"/>
       <use x="63.623047" xlink:href="#DejaVuSans-46"/>
       <use x="95.410156" xlink:href="#DejaVuSans-48"/>
       <use x="159.033203" xlink:href="#DejaVuSans-48"/>
      </g>
     </g>
    </g>
    <g id="xtick_6">
     <g id="line2d_6">
      <g>
       <use style="stroke:#000000;stroke-width:0.8;" x="864.818182" xlink:href="#mb6d287d27b" y="154.009756"/>
      </g>
     </g>
     <g id="text_6">
      <!-- 1.25 -->
      <g transform="translate(853.685369 168.608194)scale(0.1 -0.1)">
       <use xlink:href="#DejaVuSans-49"/>
       <use x="63.623047" xlink:href="#DejaVuSans-46"/>
       <use x="95.410156" xlink:href="#DejaVuSans-50"/>
       <use x="159.033203" xlink:href="#DejaVuSans-53"/>
      </g>
     </g>
    </g>
    <g id="xtick_7">
     <g id="line2d_7">
      <g>
       <use style="stroke:#000000;stroke-width:0.8;" x="991.636364" xlink:href="#mb6d287d27b" y="154.009756"/>
      </g>
     </g>
     <g id="text_7">
      <!-- 1.50 -->
      <g transform="translate(980.503551 168.608194)scale(0.1 -0.1)">
       <use xlink:href="#DejaVuSans-49"/>
       <use x="63.623047" xlink:href="#DejaVuSans-46"/>
       <use x="95.410156" xlink:href="#DejaVuSans-53"/>
       <use x="159.033203" xlink:href="#DejaVuSans-48"/>
      </g>
     </g>
    </g>
    <g id="xtick_8">
     <g id="line2d_8">
      <g>
       <use style="stroke:#000000;stroke-width:0.8;" x="1118.454545" xlink:href="#mb6d287d27b" y="154.009756"/>
      </g>
     </g>
     <g id="text_8">
      <!-- 1.75 -->
      <g transform="translate(1107.321733 168.608194)scale(0.1 -0.1)">
       <use xlink:href="#DejaVuSans-49"/>
       <use x="63.623047" xlink:href="#DejaVuSans-46"/>
       <use x="95.410156" xlink:href="#DejaVuSans-55"/>
       <use x="159.033203" xlink:href="#DejaVuSans-53"/>
      </g>
     </g>
    </g>
    <g id="xtick_9">
     <g id="line2d_9">
      <g>
       <use style="stroke:#000000;stroke-width:0.8;" x="1245.272727" xlink:href="#mb6d287d27b" y="154.009756"/>
      </g>
     </g>
     <g id="text_9">
      <!-- 2.00 -->
      <g transform="translate(1234.139915 168.608194)scale(0.1 -0.1)">
       <use xlink:href="#DejaVuSans-50"/>
       <use x="63.623047" xlink:href="#DejaVuSans-46"/>
       <use x="95.410156" xlink:href="#DejaVuSans-48"/>
       <use x="159.033203" xlink:href="#DejaVuSans-48"/>
      </g>
     </g>
    </g>
   </g>
   <g id="matplotlib.axis_2">
    <g id="ytick_1">
     <g id="line2d_10">
      <defs>
       <path d="M 0 0 
L -3.5 0 
" id="m17a2a9c894" style="stroke:#000000;stroke-width:0.8;"/>
      </defs>
      <g>
       <use style="stroke:#000000;stroke-width:0.8;" x="180" xlink:href="#m17a2a9c894" y="140.784257"/>
      </g>
     </g>
     <g id="text_10">
      <!-- −0.2 -->
      <defs>
       <path d="M 10.59375 35.5 
L 73.1875 35.5 
L 73.1875 27.203125 
L 10.59375 27.203125 
z
" id="DejaVuSans-8722"/>
      </defs>
      <g transform="translate(148.717187 144.583476)scale(0.1 -0.1)">
       <use xlink:href="#DejaVuSans-8722"/>
       <use x="83.789062" xlink:href="#DejaVuSans-48"/>
       <use x="147.412109" xlink:href="#DejaVuSans-46"/>
       <use x="179.199219" xlink:href="#DejaVuSans-50"/>
      </g>
     </g>
    </g>
    <g id="ytick_2">
     <g id="line2d_11">
      <g>
       <use style="stroke:#000000;stroke-width:0.8;" x="180" xlink:href="#m17a2a9c894" y="115.375419"/>
      </g>
     </g>
     <g id="text_11">
      <!-- 0.0 -->
      <g transform="translate(157.096875 119.174638)scale(0.1 -0.1)">
       <use xlink:href="#DejaVuSans-48"/>
       <use x="63.623047" xlink:href="#DejaVuSans-46"/>
       <use x="95.410156" xlink:href="#DejaVuSans-48"/>
      </g>
     </g>
    </g>
    <g id="ytick_3">
     <g id="line2d_12">
      <g>
       <use style="stroke:#000000;stroke-width:0.8;" x="180" xlink:href="#m17a2a9c894" y="89.966581"/>
      </g>
     </g>
     <g id="text_12">
      <!-- 0.2 -->
      <g transform="translate(157.096875 93.7658)scale(0.1 -0.1)">
       <use xlink:href="#DejaVuSans-48"/>
       <use x="63.623047" xlink:href="#DejaVuSans-46"/>
       <use x="95.410156" xlink:href="#DejaVuSans-50"/>
      </g>
     </g>
    </g>
    <g id="text_13">
     <!-- TD State:0 -->
     <defs>
      <path d="M -0.296875 72.90625 
L 61.375 72.90625 
L 61.375 64.59375 
L 35.5 64.59375 
L 35.5 0 
L 25.59375 0 
L 25.59375 64.59375 
L -0.296875 64.59375 
z
" id="DejaVuSans-84"/>
      <path d="M 19.671875 64.796875 
L 19.671875 8.109375 
L 31.59375 8.109375 
Q 46.6875 8.109375 53.6875 14.9375 
Q 60.6875 21.78125 60.6875 36.53125 
Q 60.6875 51.171875 53.6875 57.984375 
Q 46.6875 64.796875 31.59375 64.796875 
z
M 9.8125 72.90625 
L 30.078125 72.90625 
Q 51.265625 72.90625 61.171875 64.09375 
Q 71.09375 55.28125 71.09375 36.53125 
Q 71.09375 17.671875 61.125 8.828125 
Q 51.171875 0 30.078125 0 
L 9.8125 0 
z
" id="DejaVuSans-68"/>
      <path id="DejaVuSans-32"/>
      <path d="M 53.515625 70.515625 
L 53.515625 60.890625 
Q 47.90625 63.578125 42.921875 64.890625 
Q 37.9375 66.21875 33.296875 66.21875 
Q 25.25 66.21875 20.875 63.09375 
Q 16.5 59.96875 16.5 54.203125 
Q 16.5 49.359375 19.40625 46.890625 
Q 22.3125 44.4375 30.421875 42.921875 
L 36.375 41.703125 
Q 47.40625 39.59375 52.65625 34.296875 
Q 57.90625 29 57.90625 20.125 
Q 57.90625 9.515625 50.796875 4.046875 
Q 43.703125 -1.421875 29.984375 -1.421875 
Q 24.8125 -1.421875 18.96875 -0.25 
Q 13.140625 0.921875 6.890625 3.21875 
L 6.890625 13.375 
Q 12.890625 10.015625 18.65625 8.296875 
Q 24.421875 6.59375 29.984375 6.59375 
Q 38.421875 6.59375 43.015625 9.90625 
Q 47.609375 13.234375 47.609375 19.390625 
Q 47.609375 24.75 44.3125 27.78125 
Q 41.015625 30.8125 33.5 32.328125 
L 27.484375 33.5 
Q 16.453125 35.6875 11.515625 40.375 
Q 6.59375 45.0625 6.59375 53.421875 
Q 6.59375 63.09375 13.40625 68.65625 
Q 20.21875 74.21875 32.171875 74.21875 
Q 37.3125 74.21875 42.625 73.28125 
Q 47.953125 72.359375 53.515625 70.515625 
z
" id="DejaVuSans-83"/>
      <path d="M 18.3125 70.21875 
L 18.3125 54.6875 
L 36.8125 54.6875 
L 36.8125 47.703125 
L 18.3125 47.703125 
L 18.3125 18.015625 
Q 18.3125 11.328125 20.140625 9.421875 
Q 21.96875 7.515625 27.59375 7.515625 
L 36.8125 7.515625 
L 36.8125 0 
L 27.59375 0 
Q 17.1875 0 13.234375 3.875 
Q 9.28125 7.765625 9.28125 18.015625 
L 9.28125 47.703125 
L 2.6875 47.703125 
L 2.6875 54.6875 
L 9.28125 54.6875 
L 9.28125 70.21875 
z
" id="DejaVuSans-116"/>
      <path d="M 34.28125 27.484375 
Q 23.390625 27.484375 19.1875 25 
Q 14.984375 22.515625 14.984375 16.5 
Q 14.984375 11.71875 18.140625 8.90625 
Q 21.296875 6.109375 26.703125 6.109375 
Q 34.1875 6.109375 38.703125 11.40625 
Q 43.21875 16.703125 43.21875 25.484375 
L 43.21875 27.484375 
z
M 52.203125 31.203125 
L 52.203125 0 
L 43.21875 0 
L 43.21875 8.296875 
Q 40.140625 3.328125 35.546875 0.953125 
Q 30.953125 -1.421875 24.3125 -1.421875 
Q 15.921875 -1.421875 10.953125 3.296875 
Q 6 8.015625 6 15.921875 
Q 6 25.140625 12.171875 29.828125 
Q 18.359375 34.515625 30.609375 34.515625 
L 43.21875 34.515625 
L 43.21875 35.40625 
Q 43.21875 41.609375 39.140625 45 
Q 35.0625 48.390625 27.6875 48.390625 
Q 23 48.390625 18.546875 47.265625 
Q 14.109375 46.140625 10.015625 43.890625 
L 10.015625 52.203125 
Q 14.9375 54.109375 19.578125 55.046875 
Q 24.21875 56 28.609375 56 
Q 40.484375 56 46.34375 49.84375 
Q 52.203125 43.703125 52.203125 31.203125 
z
" id="DejaVuSans-97"/>
      <path d="M 56.203125 29.59375 
L 56.203125 25.203125 
L 14.890625 25.203125 
Q 15.484375 15.921875 20.484375 11.0625 
Q 25.484375 6.203125 34.421875 6.203125 
Q 39.59375 6.203125 44.453125 7.46875 
Q 49.3125 8.734375 54.109375 11.28125 
L 54.109375 2.78125 
Q 49.265625 0.734375 44.1875 -0.34375 
Q 39.109375 -1.421875 33.890625 -1.421875 
Q 20.796875 -1.421875 13.15625 6.1875 
Q 5.515625 13.8125 5.515625 26.8125 
Q 5.515625 40.234375 12.765625 48.109375 
Q 20.015625 56 32.328125 56 
Q 43.359375 56 49.78125 48.890625 
Q 56.203125 41.796875 56.203125 29.59375 
z
M 47.21875 32.234375 
Q 47.125 39.59375 43.09375 43.984375 
Q 39.0625 48.390625 32.421875 48.390625 
Q 24.90625 48.390625 20.390625 44.140625 
Q 15.875 39.890625 15.1875 32.171875 
z
" id="DejaVuSans-101"/>
      <path d="M 11.71875 12.40625 
L 22.015625 12.40625 
L 22.015625 0 
L 11.71875 0 
z
M 11.71875 51.703125 
L 22.015625 51.703125 
L 22.015625 39.3125 
L 11.71875 39.3125 
z
" id="DejaVuSans-58"/>
     </defs>
     <g transform="translate(142.6375 146.798628)rotate(-90)scale(0.1 -0.1)">
      <use xlink:href="#DejaVuSans-84"/>
      <use x="61.083984" xlink:href="#DejaVuSans-68"/>
      <use x="138.085938" xlink:href="#DejaVuSans-32"/>
      <use x="169.873047" xlink:href="#DejaVuSans-83"/>
      <use x="233.349609" xlink:href="#DejaVuSans-116"/>
      <use x="272.558594" xlink:href="#DejaVuSans-97"/>
      <use x="333.837891" xlink:href="#DejaVuSans-116"/>
      <use x="373.046875" xlink:href="#DejaVuSans-101"/>
      <use x="434.570312" xlink:href="#DejaVuSans-58"/>
      <use x="468.261719" xlink:href="#DejaVuSans-48"/>
     </g>
    </g>
   </g>
   <g id="line2d_13">
    <path clip-path="url(#pf45b1a5bef)" d="M 738 115.287606 
L 738 122.19509 
L 738 114.710797 
L 1245.272727 122.531971 
L 1245.272727 106.493822 
L 1245.272727 124.32302 
L 738 112.932113 
L 738 127.456677 
L 738 115.563562 
L 230.727273 115.375419 
L 230.727273 115.411522 
L 230.727273 120.297935 
L 230.727273 108.819877 
L 230.727273 115.30067 
L 738 115.5106 
L 738 115.425767 
L 738 126.532294 
L 738 115.113035 
L 1245.272727 120.499238 
L 1245.272727 101.103905 
L 1245.272727 144.828683 
L 738 129.712034 
L 738 114.312712 
L 738 127.228279 
L 230.727273 116.51199 
L 230.727273 116.797349 
L 230.727273 106.935757 
L 230.727273 115.388516 
L 1245.272727 125.983455 
L 1245.272727 96.723513 
L 1245.272727 143.766812 
L 1245.272727 107.039369 
L 738 117.121335 
L 738 103.055582 
L 738 144.3093 
L 738 115.030816 
L 1245.272727 118.041451 
L 1245.272727 150.936585 
L 1245.272727 89.473171 
L 1245.272727 94.187675 
" style="fill:none;stroke:#000000;stroke-linecap:square;stroke-width:4;"/>
   </g>
   <g id="line2d_14">
    <path clip-path="url(#pf45b1a5bef)" d="M 738 115.311709 
L 738 115.253157 
L 738 115.477495 
L 738 115.389093 
L 1245.272727 115.486803 
L 1245.272727 115.872434 
L 1245.272727 114.831715 
L 1245.272727 115.409465 
L 738 115.441026 
L 738 115.323469 
L 738 115.28228 
L 738 115.590584 
L 738 115.362193 
L 230.727273 115.07471 
L 230.727273 116.849185 
L 230.727273 113.82758 
L 230.727273 115.437493 
L 738 115.922103 
L 738 115.901223 
L 738 114.806488 
L 738 114.965637 
L 1245.272727 114.786216 
L 1245.272727 116.98542 
L 1245.272727 113.780335 
L 1245.272727 115.75709 
L 738 115.578106 
L 738 115.052274 
L 738 115.661781 
L 738 115.254518 
L 230.727273 115.579106 
L 230.727273 116.266045 
L 230.727273 114.456449 
L 230.727273 115.265999 
L 1245.272727 115.64159 
L 1245.272727 116.983203 
L 1245.272727 113.899183 
L 1245.272727 115.947759 
L 738 115.751297 
L 738 114.589392 
L 738 116.721744 
L 1245.272727 117.317301 
L 1245.272727 112.200821 
L 1245.272727 118.696213 
L 1245.272727 114.960163 
" style="fill:none;stroke:#ff0000;stroke-linecap:square;stroke-width:1.5;"/>
   </g>
   <g id="patch_3">
    <path d="M 180 154.009756 
L 180 86.4 
" style="fill:none;stroke:#000000;stroke-linecap:square;stroke-linejoin:miter;stroke-width:0.8;"/>
   </g>
   <g id="patch_4">
    <path d="M 1296 154.009756 
L 1296 86.4 
" style="fill:none;stroke:#000000;stroke-linecap:square;stroke-linejoin:miter;stroke-width:0.8;"/>
   </g>
   <g id="patch_5">
    <path d="M 180 154.009756 
L 1296 154.009756 
" style="fill:none;stroke:#000000;stroke-linecap:square;stroke-linejoin:miter;stroke-width:0.8;"/>
   </g>
   <g id="patch_6">
    <path d="M 180 86.4 
L 1296 86.4 
" style="fill:none;stroke:#000000;stroke-linecap:square;stroke-linejoin:miter;stroke-width:0.8;"/>
   </g>
   <g id="legend_1">
    <g id="patch_7">
     <path d="M 1234.3125 123.75625 
L 1289 123.75625 
Q 1291 123.75625 1291 121.75625 
L 1291 93.4 
Q 1291 91.4 1289 91.4 
L 1234.3125 91.4 
Q 1232.3125 91.4 1232.3125 93.4 
L 1232.3125 121.75625 
Q 1232.3125 123.75625 1234.3125 123.75625 
z
" style="fill:#ffffff;opacity:0.8;stroke:#cccccc;stroke-linejoin:miter;"/>
    </g>
    <g id="line2d_15">
     <path d="M 1236.3125 99.498438 
L 1256.3125 99.498438 
" style="fill:none;stroke:#000000;stroke-linecap:square;stroke-width:4;"/>
    </g>
    <g id="line2d_16"/>
    <g id="text_14">
     <!-- Pred -->
     <defs>
      <path d="M 19.671875 64.796875 
L 19.671875 37.40625 
L 32.078125 37.40625 
Q 38.96875 37.40625 42.71875 40.96875 
Q 46.484375 44.53125 46.484375 51.125 
Q 46.484375 57.671875 42.71875 61.234375 
Q 38.96875 64.796875 32.078125 64.796875 
z
M 9.8125 72.90625 
L 32.078125 72.90625 
Q 44.34375 72.90625 50.609375 67.359375 
Q 56.890625 61.8125 56.890625 51.125 
Q 56.890625 40.328125 50.609375 34.8125 
Q 44.34375 29.296875 32.078125 29.296875 
L 19.671875 29.296875 
L 19.671875 0 
L 9.8125 0 
z
" id="DejaVuSans-80"/>
      <path d="M 41.109375 46.296875 
Q 39.59375 47.171875 37.8125 47.578125 
Q 36.03125 48 33.890625 48 
Q 26.265625 48 22.1875 43.046875 
Q 18.109375 38.09375 18.109375 28.8125 
L 18.109375 0 
L 9.078125 0 
L 9.078125 54.6875 
L 18.109375 54.6875 
L 18.109375 46.1875 
Q 20.953125 51.171875 25.484375 53.578125 
Q 30.03125 56 36.53125 56 
Q 37.453125 56 38.578125 55.875 
Q 39.703125 55.765625 41.0625 55.515625 
z
" id="DejaVuSans-114"/>
      <path d="M 45.40625 46.390625 
L 45.40625 75.984375 
L 54.390625 75.984375 
L 54.390625 0 
L 45.40625 0 
L 45.40625 8.203125 
Q 42.578125 3.328125 38.25 0.953125 
Q 33.9375 -1.421875 27.875 -1.421875 
Q 17.96875 -1.421875 11.734375 6.484375 
Q 5.515625 14.40625 5.515625 27.296875 
Q 5.515625 40.1875 11.734375 48.09375 
Q 17.96875 56 27.875 56 
Q 33.9375 56 38.25 53.625 
Q 42.578125 51.265625 45.40625 46.390625 
z
M 14.796875 27.296875 
Q 14.796875 17.390625 18.875 11.75 
Q 22.953125 6.109375 30.078125 6.109375 
Q 37.203125 6.109375 41.296875 11.75 
Q 45.40625 17.390625 45.40625 27.296875 
Q 45.40625 37.203125 41.296875 42.84375 
Q 37.203125 48.484375 30.078125 48.484375 
Q 22.953125 48.484375 18.875 42.84375 
Q 14.796875 37.203125 14.796875 27.296875 
z
" id="DejaVuSans-100"/>
     </defs>
     <g transform="translate(1264.3125 102.998438)scale(0.1 -0.1)">
      <use xlink:href="#DejaVuSans-80"/>
      <use x="60.287109" xlink:href="#DejaVuSans-114"/>
      <use x="101.369141" xlink:href="#DejaVuSans-101"/>
      <use x="162.892578" xlink:href="#DejaVuSans-100"/>
     </g>
    </g>
    <g id="line2d_17">
     <path d="M 1236.3125 114.176563 
L 1256.3125 114.176563 
" style="fill:none;stroke:#ff0000;stroke-linecap:square;stroke-width:1.5;"/>
    </g>
    <g id="line2d_18"/>
    <g id="text_15">
     <!-- True -->
     <defs>
      <path d="M 8.5 21.578125 
L 8.5 54.6875 
L 17.484375 54.6875 
L 17.484375 21.921875 
Q 17.484375 14.15625 20.5 10.265625 
Q 23.53125 6.390625 29.59375 6.390625 
Q 36.859375 6.390625 41.078125 11.03125 
Q 45.3125 15.671875 45.3125 23.6875 
L 45.3125 54.6875 
L 54.296875 54.6875 
L 54.296875 0 
L 45.3125 0 
L 45.3125 8.40625 
Q 42.046875 3.421875 37.71875 1 
Q 33.40625 -1.421875 27.6875 -1.421875 
Q 18.265625 -1.421875 13.375 4.4375 
Q 8.5 10.296875 8.5 21.578125 
z
M 31.109375 56 
z
" id="DejaVuSans-117"/>
     </defs>
     <g transform="translate(1264.3125 117.676563)scale(0.1 -0.1)">
      <use xlink:href="#DejaVuSans-84"/>
      <use x="60.865234" xlink:href="#DejaVuSans-114"/>
      <use x="101.978516" xlink:href="#DejaVuSans-117"/>
      <use x="165.357422" xlink:href="#DejaVuSans-101"/>
     </g>
    </g>
   </g>
  </g>
  <g id="axes_2">
   <g id="patch_8">
    <path d="M 180 235.141463 
L 1296 235.141463 
L 1296 167.531707 
L 180 167.531707 
z
" style="fill:#ffffff;"/>
   </g>
   <g id="matplotlib.axis_3">
    <g id="xtick_10">
     <g id="line2d_19">
      <g>
       <use style="stroke:#000000;stroke-width:0.8;" x="230.727273" xlink:href="#mb6d287d27b" y="235.141463"/>
      </g>
     </g>
     <g id="text_16">
      <!-- 0.00 -->
      <g transform="translate(219.59446 249.739901)scale(0.1 -0.1)">
       <use xlink:href="#DejaVuSans-48"/>
       <use x="63.623047" xlink:href="#DejaVuSans-46"/>
       <use x="95.410156" xlink:href="#DejaVuSans-48"/>
       <use x="159.033203" xlink:href="#DejaVuSans-48"/>
      </g>
     </g>
    </g>
    <g id="xtick_11">
     <g id="line2d_20">
      <g>
       <use style="stroke:#000000;stroke-width:0.8;" x="357.545455" xlink:href="#mb6d287d27b" y="235.141463"/>
      </g>
     </g>
     <g id="text_17">
      <!-- 0.25 -->
      <g transform="translate(346.412642 249.739901)scale(0.1 -0.1)">
       <use xlink:href="#DejaVuSans-48"/>
       <use x="63.623047" xlink:href="#DejaVuSans-46"/>
       <use x="95.410156" xlink:href="#DejaVuSans-50"/>
       <use x="159.033203" xlink:href="#DejaVuSans-53"/>
      </g>
     </g>
    </g>
    <g id="xtick_12">
     <g id="line2d_21">
      <g>
       <use style="stroke:#000000;stroke-width:0.8;" x="484.363636" xlink:href="#mb6d287d27b" y="235.141463"/>
      </g>
     </g>
     <g id="text_18">
      <!-- 0.50 -->
      <g transform="translate(473.230824 249.739901)scale(0.1 -0.1)">
       <use xlink:href="#DejaVuSans-48"/>
       <use x="63.623047" xlink:href="#DejaVuSans-46"/>
       <use x="95.410156" xlink:href="#DejaVuSans-53"/>
       <use x="159.033203" xlink:href="#DejaVuSans-48"/>
      </g>
     </g>
    </g>
    <g id="xtick_13">
     <g id="line2d_22">
      <g>
       <use style="stroke:#000000;stroke-width:0.8;" x="611.181818" xlink:href="#mb6d287d27b" y="235.141463"/>
      </g>
     </g>
     <g id="text_19">
      <!-- 0.75 -->
      <g transform="translate(600.049006 249.739901)scale(0.1 -0.1)">
       <use xlink:href="#DejaVuSans-48"/>
       <use x="63.623047" xlink:href="#DejaVuSans-46"/>
       <use x="95.410156" xlink:href="#DejaVuSans-55"/>
       <use x="159.033203" xlink:href="#DejaVuSans-53"/>
      </g>
     </g>
    </g>
    <g id="xtick_14">
     <g id="line2d_23">
      <g>
       <use style="stroke:#000000;stroke-width:0.8;" x="738" xlink:href="#mb6d287d27b" y="235.141463"/>
      </g>
     </g>
     <g id="text_20">
      <!-- 1.00 -->
      <g transform="translate(726.867188 249.739901)scale(0.1 -0.1)">
       <use xlink:href="#DejaVuSans-49"/>
       <use x="63.623047" xlink:href="#DejaVuSans-46"/>
       <use x="95.410156" xlink:href="#DejaVuSans-48"/>
       <use x="159.033203" xlink:href="#DejaVuSans-48"/>
      </g>
     </g>
    </g>
    <g id="xtick_15">
     <g id="line2d_24">
      <g>
       <use style="stroke:#000000;stroke-width:0.8;" x="864.818182" xlink:href="#mb6d287d27b" y="235.141463"/>
      </g>
     </g>
     <g id="text_21">
      <!-- 1.25 -->
      <g transform="translate(853.685369 249.739901)scale(0.1 -0.1)">
       <use xlink:href="#DejaVuSans-49"/>
       <use x="63.623047" xlink:href="#DejaVuSans-46"/>
       <use x="95.410156" xlink:href="#DejaVuSans-50"/>
       <use x="159.033203" xlink:href="#DejaVuSans-53"/>
      </g>
     </g>
    </g>
    <g id="xtick_16">
     <g id="line2d_25">
      <g>
       <use style="stroke:#000000;stroke-width:0.8;" x="991.636364" xlink:href="#mb6d287d27b" y="235.141463"/>
      </g>
     </g>
     <g id="text_22">
      <!-- 1.50 -->
      <g transform="translate(980.503551 249.739901)scale(0.1 -0.1)">
       <use xlink:href="#DejaVuSans-49"/>
       <use x="63.623047" xlink:href="#DejaVuSans-46"/>
       <use x="95.410156" xlink:href="#DejaVuSans-53"/>
       <use x="159.033203" xlink:href="#DejaVuSans-48"/>
      </g>
     </g>
    </g>
    <g id="xtick_17">
     <g id="line2d_26">
      <g>
       <use style="stroke:#000000;stroke-width:0.8;" x="1118.454545" xlink:href="#mb6d287d27b" y="235.141463"/>
      </g>
     </g>
     <g id="text_23">
      <!-- 1.75 -->
      <g transform="translate(1107.321733 249.739901)scale(0.1 -0.1)">
       <use xlink:href="#DejaVuSans-49"/>
       <use x="63.623047" xlink:href="#DejaVuSans-46"/>
       <use x="95.410156" xlink:href="#DejaVuSans-55"/>
       <use x="159.033203" xlink:href="#DejaVuSans-53"/>
      </g>
     </g>
    </g>
    <g id="xtick_18">
     <g id="line2d_27">
      <g>
       <use style="stroke:#000000;stroke-width:0.8;" x="1245.272727" xlink:href="#mb6d287d27b" y="235.141463"/>
      </g>
     </g>
     <g id="text_24">
      <!-- 2.00 -->
      <g transform="translate(1234.139915 249.739901)scale(0.1 -0.1)">
       <use xlink:href="#DejaVuSans-50"/>
       <use x="63.623047" xlink:href="#DejaVuSans-46"/>
       <use x="95.410156" xlink:href="#DejaVuSans-48"/>
       <use x="159.033203" xlink:href="#DejaVuSans-48"/>
      </g>
     </g>
    </g>
   </g>
   <g id="matplotlib.axis_4">
    <g id="ytick_4">
     <g id="line2d_28">
      <g>
       <use style="stroke:#000000;stroke-width:0.8;" x="180" xlink:href="#m17a2a9c894" y="233.330354"/>
      </g>
     </g>
     <g id="text_25">
      <!-- −0.2 -->
      <g transform="translate(148.717187 237.129572)scale(0.1 -0.1)">
       <use xlink:href="#DejaVuSans-8722"/>
       <use x="83.789062" xlink:href="#DejaVuSans-48"/>
       <use x="147.412109" xlink:href="#DejaVuSans-46"/>
       <use x="179.199219" xlink:href="#DejaVuSans-50"/>
      </g>
     </g>
    </g>
    <g id="ytick_5">
     <g id="line2d_29">
      <g>
       <use style="stroke:#000000;stroke-width:0.8;" x="180" xlink:href="#m17a2a9c894" y="207.459456"/>
      </g>
     </g>
     <g id="text_26">
      <!-- 0.0 -->
      <g transform="translate(157.096875 211.258675)scale(0.1 -0.1)">
       <use xlink:href="#DejaVuSans-48"/>
       <use x="63.623047" xlink:href="#DejaVuSans-46"/>
       <use x="95.410156" xlink:href="#DejaVuSans-48"/>
      </g>
     </g>
    </g>
    <g id="ytick_6">
     <g id="line2d_30">
      <g>
       <use style="stroke:#000000;stroke-width:0.8;" x="180" xlink:href="#m17a2a9c894" y="181.588559"/>
      </g>
     </g>
     <g id="text_27">
      <!-- 0.2 -->
      <g transform="translate(157.096875 185.387778)scale(0.1 -0.1)">
       <use xlink:href="#DejaVuSans-48"/>
       <use x="63.623047" xlink:href="#DejaVuSans-46"/>
       <use x="95.410156" xlink:href="#DejaVuSans-50"/>
      </g>
     </g>
    </g>
    <g id="text_28">
     <!-- TD State:1 -->
     <g transform="translate(142.6375 227.930335)rotate(-90)scale(0.1 -0.1)">
      <use xlink:href="#DejaVuSans-84"/>
      <use x="61.083984" xlink:href="#DejaVuSans-68"/>
      <use x="138.085938" xlink:href="#DejaVuSans-32"/>
      <use x="169.873047" xlink:href="#DejaVuSans-83"/>
      <use x="233.349609" xlink:href="#DejaVuSans-116"/>
      <use x="272.558594" xlink:href="#DejaVuSans-97"/>
      <use x="333.837891" xlink:href="#DejaVuSans-116"/>
      <use x="373.046875" xlink:href="#DejaVuSans-101"/>
      <use x="434.570312" xlink:href="#DejaVuSans-58"/>
      <use x="468.261719" xlink:href="#DejaVuSans-49"/>
     </g>
    </g>
   </g>
   <g id="line2d_31">
    <path clip-path="url(#pedce8eb844)" d="M 738 207.503353 
L 738 203.7194 
L 738 206.926626 
L 1245.272727 206.023846 
L 1245.272727 206.600378 
L 1245.272727 189.645747 
L 1245.272727 192.524714 
L 738 205.359297 
L 738 210.540793 
L 738 201.413978 
L 738 207.804836 
L 230.727273 207.459456 
L 230.727273 207.525731 
L 230.727273 199.098382 
L 230.727273 221.705356 
L 230.727273 209.698309 
L 738 208.855627 
L 738 200.635552 
L 738 207.473521 
L 1245.272727 218.655591 
L 1245.272727 222.138818 
L 1245.272727 182.973606 
L 1245.272727 197.400169 
L 738 199.864225 
L 738 208.293953 
L 738 200.634089 
L 230.727273 207.045301 
L 230.727273 199.97284 
L 230.727273 218.838305 
L 230.727273 207.518724 
L 1245.272727 218.217602 
L 1245.272727 179.795357 
L 1245.272727 202.185105 
L 738 207.711076 
L 738 186.970853 
L 738 231.67343 
L 738 223.577861 
L 1245.272727 216.811865 
L 1245.272727 232.068293 
L 1245.272727 170.604878 
L 1245.272727 174.478581 
" style="fill:none;stroke:#000000;stroke-linecap:square;stroke-width:4;"/>
   </g>
   <g id="line2d_32">
    <path clip-path="url(#pedce8eb844)" d="M 738 206.358315 
L 738 203.608272 
L 738 210.619057 
L 738 210.452299 
L 1245.272727 211.168705 
L 1245.272727 212.530683 
L 1245.272727 201.394795 
L 1245.272727 204.14218 
L 738 205.569964 
L 738 211.944707 
L 738 207.307064 
L 230.727273 203.143478 
L 230.727273 196.081522 
L 230.727273 219.058327 
L 230.727273 217.593337 
L 738 214.929502 
L 738 198.344548 
L 738 210.972052 
L 1245.272727 215.712196 
L 1245.272727 219.732541 
L 1245.272727 195.643067 
L 1245.272727 200.599004 
L 738 205.218836 
L 738 213.924656 
L 738 201.581132 
L 230.727273 200.365449 
L 230.727273 198.861418 
L 230.727273 215.669072 
L 230.727273 214.431788 
L 1245.272727 214.527587 
L 1245.272727 219.146288 
L 1245.272727 196.766353 
L 1245.272727 214.709747 
L 738 210.617013 
L 738 196.09657 
L 738 220.628436 
L 738 220.367077 
L 1245.272727 217.450302 
L 1245.272727 191.033422 
L 1245.272727 225.98454 
L 1245.272727 191.509347 
" style="fill:none;stroke:#ff0000;stroke-linecap:square;stroke-width:1.5;"/>
   </g>
   <g id="patch_9">
    <path d="M 180 235.141463 
L 180 167.531707 
" style="fill:none;stroke:#000000;stroke-linecap:square;stroke-linejoin:miter;stroke-width:0.8;"/>
   </g>
   <g id="patch_10">
    <path d="M 1296 235.141463 
L 1296 167.531707 
" style="fill:none;stroke:#000000;stroke-linecap:square;stroke-linejoin:miter;stroke-width:0.8;"/>
   </g>
   <g id="patch_11">
    <path d="M 180 235.141463 
L 1296 235.141463 
" style="fill:none;stroke:#000000;stroke-linecap:square;stroke-linejoin:miter;stroke-width:0.8;"/>
   </g>
   <g id="patch_12">
    <path d="M 180 167.531707 
L 1296 167.531707 
" style="fill:none;stroke:#000000;stroke-linecap:square;stroke-linejoin:miter;stroke-width:0.8;"/>
   </g>
   <g id="legend_2">
    <g id="patch_13">
     <path d="M 1234.3125 204.887957 
L 1289 204.887957 
Q 1291 204.887957 1291 202.887957 
L 1291 174.531707 
Q 1291 172.531707 1289 172.531707 
L 1234.3125 172.531707 
Q 1232.3125 172.531707 1232.3125 174.531707 
L 1232.3125 202.887957 
Q 1232.3125 204.887957 1234.3125 204.887957 
z
" style="fill:#ffffff;opacity:0.8;stroke:#cccccc;stroke-linejoin:miter;"/>
    </g>
    <g id="line2d_33">
     <path d="M 1236.3125 180.630145 
L 1256.3125 180.630145 
" style="fill:none;stroke:#000000;stroke-linecap:square;stroke-width:4;"/>
    </g>
    <g id="line2d_34"/>
    <g id="text_29">
     <!-- Pred -->
     <g transform="translate(1264.3125 184.130145)scale(0.1 -0.1)">
      <use xlink:href="#DejaVuSans-80"/>
      <use x="60.287109" xlink:href="#DejaVuSans-114"/>
      <use x="101.369141" xlink:href="#DejaVuSans-101"/>
      <use x="162.892578" xlink:href="#DejaVuSans-100"/>
     </g>
    </g>
    <g id="line2d_35">
     <path d="M 1236.3125 195.30827 
L 1256.3125 195.30827 
" style="fill:none;stroke:#ff0000;stroke-linecap:square;stroke-width:1.5;"/>
    </g>
    <g id="line2d_36"/>
    <g id="text_30">
     <!-- True -->
     <g transform="translate(1264.3125 198.80827)scale(0.1 -0.1)">
      <use xlink:href="#DejaVuSans-84"/>
      <use x="60.865234" xlink:href="#DejaVuSans-114"/>
      <use x="101.978516" xlink:href="#DejaVuSans-117"/>
      <use x="165.357422" xlink:href="#DejaVuSans-101"/>
     </g>
    </g>
   </g>
  </g>
  <g id="axes_3">
   <g id="patch_14">
    <path d="M 180 316.273171 
L 1296 316.273171 
L 1296 248.663415 
L 180 248.663415 
z
" style="fill:#ffffff;"/>
   </g>
   <g id="matplotlib.axis_5">
    <g id="xtick_19">
     <g id="line2d_37">
      <g>
       <use style="stroke:#000000;stroke-width:0.8;" x="230.727273" xlink:href="#mb6d287d27b" y="316.273171"/>
      </g>
     </g>
     <g id="text_31">
      <!-- 0.00 -->
      <g transform="translate(219.59446 330.871608)scale(0.1 -0.1)">
       <use xlink:href="#DejaVuSans-48"/>
       <use x="63.623047" xlink:href="#DejaVuSans-46"/>
       <use x="95.410156" xlink:href="#DejaVuSans-48"/>
       <use x="159.033203" xlink:href="#DejaVuSans-48"/>
      </g>
     </g>
    </g>
    <g id="xtick_20">
     <g id="line2d_38">
      <g>
       <use style="stroke:#000000;stroke-width:0.8;" x="357.545455" xlink:href="#mb6d287d27b" y="316.273171"/>
      </g>
     </g>
     <g id="text_32">
      <!-- 0.25 -->
      <g transform="translate(346.412642 330.871608)scale(0.1 -0.1)">
       <use xlink:href="#DejaVuSans-48"/>
       <use x="63.623047" xlink:href="#DejaVuSans-46"/>
       <use x="95.410156" xlink:href="#DejaVuSans-50"/>
       <use x="159.033203" xlink:href="#DejaVuSans-53"/>
      </g>
     </g>
    </g>
    <g id="xtick_21">
     <g id="line2d_39">
      <g>
       <use style="stroke:#000000;stroke-width:0.8;" x="484.363636" xlink:href="#mb6d287d27b" y="316.273171"/>
      </g>
     </g>
     <g id="text_33">
      <!-- 0.50 -->
      <g transform="translate(473.230824 330.871608)scale(0.1 -0.1)">
       <use xlink:href="#DejaVuSans-48"/>
       <use x="63.623047" xlink:href="#DejaVuSans-46"/>
       <use x="95.410156" xlink:href="#DejaVuSans-53"/>
       <use x="159.033203" xlink:href="#DejaVuSans-48"/>
      </g>
     </g>
    </g>
    <g id="xtick_22">
     <g id="line2d_40">
      <g>
       <use style="stroke:#000000;stroke-width:0.8;" x="611.181818" xlink:href="#mb6d287d27b" y="316.273171"/>
      </g>
     </g>
     <g id="text_34">
      <!-- 0.75 -->
      <g transform="translate(600.049006 330.871608)scale(0.1 -0.1)">
       <use xlink:href="#DejaVuSans-48"/>
       <use x="63.623047" xlink:href="#DejaVuSans-46"/>
       <use x="95.410156" xlink:href="#DejaVuSans-55"/>
       <use x="159.033203" xlink:href="#DejaVuSans-53"/>
      </g>
     </g>
    </g>
    <g id="xtick_23">
     <g id="line2d_41">
      <g>
       <use style="stroke:#000000;stroke-width:0.8;" x="738" xlink:href="#mb6d287d27b" y="316.273171"/>
      </g>
     </g>
     <g id="text_35">
      <!-- 1.00 -->
      <g transform="translate(726.867188 330.871608)scale(0.1 -0.1)">
       <use xlink:href="#DejaVuSans-49"/>
       <use x="63.623047" xlink:href="#DejaVuSans-46"/>
       <use x="95.410156" xlink:href="#DejaVuSans-48"/>
       <use x="159.033203" xlink:href="#DejaVuSans-48"/>
      </g>
     </g>
    </g>
    <g id="xtick_24">
     <g id="line2d_42">
      <g>
       <use style="stroke:#000000;stroke-width:0.8;" x="864.818182" xlink:href="#mb6d287d27b" y="316.273171"/>
      </g>
     </g>
     <g id="text_36">
      <!-- 1.25 -->
      <g transform="translate(853.685369 330.871608)scale(0.1 -0.1)">
       <use xlink:href="#DejaVuSans-49"/>
       <use x="63.623047" xlink:href="#DejaVuSans-46"/>
       <use x="95.410156" xlink:href="#DejaVuSans-50"/>
       <use x="159.033203" xlink:href="#DejaVuSans-53"/>
      </g>
     </g>
    </g>
    <g id="xtick_25">
     <g id="line2d_43">
      <g>
       <use style="stroke:#000000;stroke-width:0.8;" x="991.636364" xlink:href="#mb6d287d27b" y="316.273171"/>
      </g>
     </g>
     <g id="text_37">
      <!-- 1.50 -->
      <g transform="translate(980.503551 330.871608)scale(0.1 -0.1)">
       <use xlink:href="#DejaVuSans-49"/>
       <use x="63.623047" xlink:href="#DejaVuSans-46"/>
       <use x="95.410156" xlink:href="#DejaVuSans-53"/>
       <use x="159.033203" xlink:href="#DejaVuSans-48"/>
      </g>
     </g>
    </g>
    <g id="xtick_26">
     <g id="line2d_44">
      <g>
       <use style="stroke:#000000;stroke-width:0.8;" x="1118.454545" xlink:href="#mb6d287d27b" y="316.273171"/>
      </g>
     </g>
     <g id="text_38">
      <!-- 1.75 -->
      <g transform="translate(1107.321733 330.871608)scale(0.1 -0.1)">
       <use xlink:href="#DejaVuSans-49"/>
       <use x="63.623047" xlink:href="#DejaVuSans-46"/>
       <use x="95.410156" xlink:href="#DejaVuSans-55"/>
       <use x="159.033203" xlink:href="#DejaVuSans-53"/>
      </g>
     </g>
    </g>
    <g id="xtick_27">
     <g id="line2d_45">
      <g>
       <use style="stroke:#000000;stroke-width:0.8;" x="1245.272727" xlink:href="#mb6d287d27b" y="316.273171"/>
      </g>
     </g>
     <g id="text_39">
      <!-- 2.00 -->
      <g transform="translate(1234.139915 330.871608)scale(0.1 -0.1)">
       <use xlink:href="#DejaVuSans-50"/>
       <use x="63.623047" xlink:href="#DejaVuSans-46"/>
       <use x="95.410156" xlink:href="#DejaVuSans-48"/>
       <use x="159.033203" xlink:href="#DejaVuSans-48"/>
      </g>
     </g>
    </g>
   </g>
   <g id="matplotlib.axis_6">
    <g id="ytick_7">
     <g id="line2d_46">
      <g>
       <use style="stroke:#000000;stroke-width:0.8;" x="180" xlink:href="#m17a2a9c894" y="304.120762"/>
      </g>
     </g>
     <g id="text_40">
      <!-- −0.2 -->
      <g transform="translate(148.717187 307.919981)scale(0.1 -0.1)">
       <use xlink:href="#DejaVuSans-8722"/>
       <use x="83.789062" xlink:href="#DejaVuSans-48"/>
       <use x="147.412109" xlink:href="#DejaVuSans-46"/>
       <use x="179.199219" xlink:href="#DejaVuSans-50"/>
      </g>
     </g>
    </g>
    <g id="ytick_8">
     <g id="line2d_47">
      <g>
       <use style="stroke:#000000;stroke-width:0.8;" x="180" xlink:href="#m17a2a9c894" y="279.294321"/>
      </g>
     </g>
     <g id="text_41">
      <!-- 0.0 -->
      <g transform="translate(157.096875 283.09354)scale(0.1 -0.1)">
       <use xlink:href="#DejaVuSans-48"/>
       <use x="63.623047" xlink:href="#DejaVuSans-46"/>
       <use x="95.410156" xlink:href="#DejaVuSans-48"/>
      </g>
     </g>
    </g>
    <g id="ytick_9">
     <g id="line2d_48">
      <g>
       <use style="stroke:#000000;stroke-width:0.8;" x="180" xlink:href="#m17a2a9c894" y="254.467881"/>
      </g>
     </g>
     <g id="text_42">
      <!-- 0.2 -->
      <g transform="translate(157.096875 258.2671)scale(0.1 -0.1)">
       <use xlink:href="#DejaVuSans-48"/>
       <use x="63.623047" xlink:href="#DejaVuSans-46"/>
       <use x="95.410156" xlink:href="#DejaVuSans-50"/>
      </g>
     </g>
    </g>
    <g id="text_43">
     <!-- TD State:2 -->
     <g transform="translate(142.6375 309.062043)rotate(-90)scale(0.1 -0.1)">
      <use xlink:href="#DejaVuSans-84"/>
      <use x="61.083984" xlink:href="#DejaVuSans-68"/>
      <use x="138.085938" xlink:href="#DejaVuSans-32"/>
      <use x="169.873047" xlink:href="#DejaVuSans-83"/>
      <use x="233.349609" xlink:href="#DejaVuSans-116"/>
      <use x="272.558594" xlink:href="#DejaVuSans-97"/>
      <use x="333.837891" xlink:href="#DejaVuSans-116"/>
      <use x="373.046875" xlink:href="#DejaVuSans-101"/>
      <use x="434.570312" xlink:href="#DejaVuSans-58"/>
      <use x="468.261719" xlink:href="#DejaVuSans-50"/>
     </g>
    </g>
   </g>
   <g id="line2d_49">
    <path clip-path="url(#pf7770bbaa9)" d="M 738 275.349201 
L 738 272.456207 
L 738 279.352839 
L 1245.272727 281.825697 
L 1245.272727 297.645213 
L 1245.272727 297.299583 
L 738 284.398019 
L 738 266.318747 
L 738 272.549594 
L 230.727273 279.294321 
L 230.727273 267.392646 
L 230.727273 289.27718 
L 230.727273 277.875756 
L 738 271.41376 
L 738 279.466658 
L 738 271.556078 
L 1245.272727 271.873182 
L 1245.272727 303.730178 
L 1245.272727 286.186048 
L 738 275.661255 
L 738 268.723274 
L 738 281.259475 
L 738 278.642722 
L 230.727273 275.280904 
L 230.727273 289.136033 
L 230.727273 270.182403 
L 230.727273 279.249705 
L 1245.272727 265.583007 
L 1245.272727 305.603528 
L 1245.272727 304.652024 
L 738 278.202955 
L 738 253.856319 
L 738 291.172746 
L 738 257.231777 
L 1245.272727 286.782666 
L 1245.272727 313.2 
L 1245.272727 251.736585 
L 1245.272727 270.39299 
" style="fill:none;stroke:#000000;stroke-linecap:square;stroke-width:4;"/>
   </g>
   <g id="line2d_50">
    <path clip-path="url(#pf7770bbaa9)" d="M 738 279.289184 
L 738 279.579569 
L 738 279.224574 
L 738 279.536492 
L 1245.272727 279.755067 
L 1245.272727 281.768695 
L 1245.272727 277.323253 
L 1245.272727 278.292434 
L 738 278.310536 
L 738 278.075727 
L 738 279.89016 
L 738 278.961805 
L 230.727273 279.319581 
L 230.727273 283.062984 
L 230.727273 275.556122 
L 230.727273 277.846762 
L 738 278.752964 
L 738 279.471018 
L 738 279.431201 
L 1245.272727 280.841978 
L 1245.272727 286.332725 
L 1245.272727 271.826468 
L 1245.272727 279.513123 
L 738 279.535805 
L 738 278.810471 
L 738 279.796036 
L 230.727273 280.8925 
L 230.727273 283.478475 
L 230.727273 275.43668 
L 230.727273 278.045201 
L 1245.272727 278.768215 
L 1245.272727 287.346567 
L 1245.272727 270.70909 
L 1245.272727 285.914613 
L 738 278.929889 
L 738 268.424707 
L 738 289.483013 
L 738 273.186567 
L 1245.272727 281.571339 
L 1245.272727 294.549279 
L 1245.272727 260.57449 
L 1245.272727 272.229849 
" style="fill:none;stroke:#ff0000;stroke-linecap:square;stroke-width:1.5;"/>
   </g>
   <g id="patch_15">
    <path d="M 180 316.273171 
L 180 248.663415 
" style="fill:none;stroke:#000000;stroke-linecap:square;stroke-linejoin:miter;stroke-width:0.8;"/>
   </g>
   <g id="patch_16">
    <path d="M 1296 316.273171 
L 1296 248.663415 
" style="fill:none;stroke:#000000;stroke-linecap:square;stroke-linejoin:miter;stroke-width:0.8;"/>
   </g>
   <g id="patch_17">
    <path d="M 180 316.273171 
L 1296 316.273171 
" style="fill:none;stroke:#000000;stroke-linecap:square;stroke-linejoin:miter;stroke-width:0.8;"/>
   </g>
   <g id="patch_18">
    <path d="M 180 248.663415 
L 1296 248.663415 
" style="fill:none;stroke:#000000;stroke-linecap:square;stroke-linejoin:miter;stroke-width:0.8;"/>
   </g>
   <g id="legend_3">
    <g id="patch_19">
     <path d="M 1234.3125 286.019665 
L 1289 286.019665 
Q 1291 286.019665 1291 284.019665 
L 1291 255.663415 
Q 1291 253.663415 1289 253.663415 
L 1234.3125 253.663415 
Q 1232.3125 253.663415 1232.3125 255.663415 
L 1232.3125 284.019665 
Q 1232.3125 286.019665 1234.3125 286.019665 
z
" style="fill:#ffffff;opacity:0.8;stroke:#cccccc;stroke-linejoin:miter;"/>
    </g>
    <g id="line2d_51">
     <path d="M 1236.3125 261.761852 
L 1256.3125 261.761852 
" style="fill:none;stroke:#000000;stroke-linecap:square;stroke-width:4;"/>
    </g>
    <g id="line2d_52"/>
    <g id="text_44">
     <!-- Pred -->
     <g transform="translate(1264.3125 265.261852)scale(0.1 -0.1)">
      <use xlink:href="#DejaVuSans-80"/>
      <use x="60.287109" xlink:href="#DejaVuSans-114"/>
      <use x="101.369141" xlink:href="#DejaVuSans-101"/>
      <use x="162.892578" xlink:href="#DejaVuSans-100"/>
     </g>
    </g>
    <g id="line2d_53">
     <path d="M 1236.3125 276.439977 
L 1256.3125 276.439977 
" style="fill:none;stroke:#ff0000;stroke-linecap:square;stroke-width:1.5;"/>
    </g>
    <g id="line2d_54"/>
    <g id="text_45">
     <!-- True -->
     <g transform="translate(1264.3125 279.939977)scale(0.1 -0.1)">
      <use xlink:href="#DejaVuSans-84"/>
      <use x="60.865234" xlink:href="#DejaVuSans-114"/>
      <use x="101.978516" xlink:href="#DejaVuSans-117"/>
      <use x="165.357422" xlink:href="#DejaVuSans-101"/>
     </g>
    </g>
   </g>
  </g>
  <g id="axes_4">
   <g id="patch_20">
    <path d="M 180 397.404878 
L 1296 397.404878 
L 1296 329.795122 
L 180 329.795122 
z
" style="fill:#ffffff;"/>
   </g>
   <g id="matplotlib.axis_7">
    <g id="xtick_28">
     <g id="line2d_55">
      <g>
       <use style="stroke:#000000;stroke-width:0.8;" x="230.727273" xlink:href="#mb6d287d27b" y="397.404878"/>
      </g>
     </g>
     <g id="text_46">
      <!-- 0.00 -->
      <g transform="translate(219.59446 412.003316)scale(0.1 -0.1)">
       <use xlink:href="#DejaVuSans-48"/>
       <use x="63.623047" xlink:href="#DejaVuSans-46"/>
       <use x="95.410156" xlink:href="#DejaVuSans-48"/>
       <use x="159.033203" xlink:href="#DejaVuSans-48"/>
      </g>
     </g>
    </g>
    <g id="xtick_29">
     <g id="line2d_56">
      <g>
       <use style="stroke:#000000;stroke-width:0.8;" x="357.545455" xlink:href="#mb6d287d27b" y="397.404878"/>
      </g>
     </g>
     <g id="text_47">
      <!-- 0.25 -->
      <g transform="translate(346.412642 412.003316)scale(0.1 -0.1)">
       <use xlink:href="#DejaVuSans-48"/>
       <use x="63.623047" xlink:href="#DejaVuSans-46"/>
       <use x="95.410156" xlink:href="#DejaVuSans-50"/>
       <use x="159.033203" xlink:href="#DejaVuSans-53"/>
      </g>
     </g>
    </g>
    <g id="xtick_30">
     <g id="line2d_57">
      <g>
       <use style="stroke:#000000;stroke-width:0.8;" x="484.363636" xlink:href="#mb6d287d27b" y="397.404878"/>
      </g>
     </g>
     <g id="text_48">
      <!-- 0.50 -->
      <g transform="translate(473.230824 412.003316)scale(0.1 -0.1)">
       <use xlink:href="#DejaVuSans-48"/>
       <use x="63.623047" xlink:href="#DejaVuSans-46"/>
       <use x="95.410156" xlink:href="#DejaVuSans-53"/>
       <use x="159.033203" xlink:href="#DejaVuSans-48"/>
      </g>
     </g>
    </g>
    <g id="xtick_31">
     <g id="line2d_58">
      <g>
       <use style="stroke:#000000;stroke-width:0.8;" x="611.181818" xlink:href="#mb6d287d27b" y="397.404878"/>
      </g>
     </g>
     <g id="text_49">
      <!-- 0.75 -->
      <g transform="translate(600.049006 412.003316)scale(0.1 -0.1)">
       <use xlink:href="#DejaVuSans-48"/>
       <use x="63.623047" xlink:href="#DejaVuSans-46"/>
       <use x="95.410156" xlink:href="#DejaVuSans-55"/>
       <use x="159.033203" xlink:href="#DejaVuSans-53"/>
      </g>
     </g>
    </g>
    <g id="xtick_32">
     <g id="line2d_59">
      <g>
       <use style="stroke:#000000;stroke-width:0.8;" x="738" xlink:href="#mb6d287d27b" y="397.404878"/>
      </g>
     </g>
     <g id="text_50">
      <!-- 1.00 -->
      <g transform="translate(726.867188 412.003316)scale(0.1 -0.1)">
       <use xlink:href="#DejaVuSans-49"/>
       <use x="63.623047" xlink:href="#DejaVuSans-46"/>
       <use x="95.410156" xlink:href="#DejaVuSans-48"/>
       <use x="159.033203" xlink:href="#DejaVuSans-48"/>
      </g>
     </g>
    </g>
    <g id="xtick_33">
     <g id="line2d_60">
      <g>
       <use style="stroke:#000000;stroke-width:0.8;" x="864.818182" xlink:href="#mb6d287d27b" y="397.404878"/>
      </g>
     </g>
     <g id="text_51">
      <!-- 1.25 -->
      <g transform="translate(853.685369 412.003316)scale(0.1 -0.1)">
       <use xlink:href="#DejaVuSans-49"/>
       <use x="63.623047" xlink:href="#DejaVuSans-46"/>
       <use x="95.410156" xlink:href="#DejaVuSans-50"/>
       <use x="159.033203" xlink:href="#DejaVuSans-53"/>
      </g>
     </g>
    </g>
    <g id="xtick_34">
     <g id="line2d_61">
      <g>
       <use style="stroke:#000000;stroke-width:0.8;" x="991.636364" xlink:href="#mb6d287d27b" y="397.404878"/>
      </g>
     </g>
     <g id="text_52">
      <!-- 1.50 -->
      <g transform="translate(980.503551 412.003316)scale(0.1 -0.1)">
       <use xlink:href="#DejaVuSans-49"/>
       <use x="63.623047" xlink:href="#DejaVuSans-46"/>
       <use x="95.410156" xlink:href="#DejaVuSans-53"/>
       <use x="159.033203" xlink:href="#DejaVuSans-48"/>
      </g>
     </g>
    </g>
    <g id="xtick_35">
     <g id="line2d_62">
      <g>
       <use style="stroke:#000000;stroke-width:0.8;" x="1118.454545" xlink:href="#mb6d287d27b" y="397.404878"/>
      </g>
     </g>
     <g id="text_53">
      <!-- 1.75 -->
      <g transform="translate(1107.321733 412.003316)scale(0.1 -0.1)">
       <use xlink:href="#DejaVuSans-49"/>
       <use x="63.623047" xlink:href="#DejaVuSans-46"/>
       <use x="95.410156" xlink:href="#DejaVuSans-55"/>
       <use x="159.033203" xlink:href="#DejaVuSans-53"/>
      </g>
     </g>
    </g>
    <g id="xtick_36">
     <g id="line2d_63">
      <g>
       <use style="stroke:#000000;stroke-width:0.8;" x="1245.272727" xlink:href="#mb6d287d27b" y="397.404878"/>
      </g>
     </g>
     <g id="text_54">
      <!-- 2.00 -->
      <g transform="translate(1234.139915 412.003316)scale(0.1 -0.1)">
       <use xlink:href="#DejaVuSans-50"/>
       <use x="63.623047" xlink:href="#DejaVuSans-46"/>
       <use x="95.410156" xlink:href="#DejaVuSans-48"/>
       <use x="159.033203" xlink:href="#DejaVuSans-48"/>
      </g>
     </g>
    </g>
   </g>
   <g id="matplotlib.axis_8">
    <g id="ytick_10">
     <g id="line2d_64">
      <g>
       <use style="stroke:#000000;stroke-width:0.8;" x="180" xlink:href="#m17a2a9c894" y="387.957741"/>
      </g>
     </g>
     <g id="text_55">
      <!-- −0.25 -->
      <g transform="translate(142.354688 391.75696)scale(0.1 -0.1)">
       <use xlink:href="#DejaVuSans-8722"/>
       <use x="83.789062" xlink:href="#DejaVuSans-48"/>
       <use x="147.412109" xlink:href="#DejaVuSans-46"/>
       <use x="179.199219" xlink:href="#DejaVuSans-50"/>
       <use x="242.822266" xlink:href="#DejaVuSans-53"/>
      </g>
     </g>
    </g>
    <g id="ytick_11">
     <g id="line2d_65">
      <g>
       <use style="stroke:#000000;stroke-width:0.8;" x="180" xlink:href="#m17a2a9c894" y="361.697772"/>
      </g>
     </g>
     <g id="text_56">
      <!-- 0.00 -->
      <g transform="translate(150.734375 365.496991)scale(0.1 -0.1)">
       <use xlink:href="#DejaVuSans-48"/>
       <use x="63.623047" xlink:href="#DejaVuSans-46"/>
       <use x="95.410156" xlink:href="#DejaVuSans-48"/>
       <use x="159.033203" xlink:href="#DejaVuSans-48"/>
      </g>
     </g>
    </g>
    <g id="ytick_12">
     <g id="line2d_66">
      <g>
       <use style="stroke:#000000;stroke-width:0.8;" x="180" xlink:href="#m17a2a9c894" y="335.437803"/>
      </g>
     </g>
     <g id="text_57">
      <!-- 0.25 -->
      <g transform="translate(150.734375 339.237022)scale(0.1 -0.1)">
       <use xlink:href="#DejaVuSans-48"/>
       <use x="63.623047" xlink:href="#DejaVuSans-46"/>
       <use x="95.410156" xlink:href="#DejaVuSans-50"/>
       <use x="159.033203" xlink:href="#DejaVuSans-53"/>
      </g>
     </g>
    </g>
    <g id="text_58">
     <!-- TD State:3 -->
     <defs>
      <path d="M 40.578125 39.3125 
Q 47.65625 37.796875 51.625 33 
Q 55.609375 28.21875 55.609375 21.1875 
Q 55.609375 10.40625 48.1875 4.484375 
Q 40.765625 -1.421875 27.09375 -1.421875 
Q 22.515625 -1.421875 17.65625 -0.515625 
Q 12.796875 0.390625 7.625 2.203125 
L 7.625 11.71875 
Q 11.71875 9.328125 16.59375 8.109375 
Q 21.484375 6.890625 26.8125 6.890625 
Q 36.078125 6.890625 40.9375 10.546875 
Q 45.796875 14.203125 45.796875 21.1875 
Q 45.796875 27.640625 41.28125 31.265625 
Q 36.765625 34.90625 28.71875 34.90625 
L 20.21875 34.90625 
L 20.21875 43.015625 
L 29.109375 43.015625 
Q 36.375 43.015625 40.234375 45.921875 
Q 44.09375 48.828125 44.09375 54.296875 
Q 44.09375 59.90625 40.109375 62.90625 
Q 36.140625 65.921875 28.71875 65.921875 
Q 24.65625 65.921875 20.015625 65.03125 
Q 15.375 64.15625 9.8125 62.3125 
L 9.8125 71.09375 
Q 15.4375 72.65625 20.34375 73.4375 
Q 25.25 74.21875 29.59375 74.21875 
Q 40.828125 74.21875 47.359375 69.109375 
Q 53.90625 64.015625 53.90625 55.328125 
Q 53.90625 49.265625 50.4375 45.09375 
Q 46.96875 40.921875 40.578125 39.3125 
z
" id="DejaVuSans-51"/>
     </defs>
     <g transform="translate(136.275 390.19375)rotate(-90)scale(0.1 -0.1)">
      <use xlink:href="#DejaVuSans-84"/>
      <use x="61.083984" xlink:href="#DejaVuSans-68"/>
      <use x="138.085938" xlink:href="#DejaVuSans-32"/>
      <use x="169.873047" xlink:href="#DejaVuSans-83"/>
      <use x="233.349609" xlink:href="#DejaVuSans-116"/>
      <use x="272.558594" xlink:href="#DejaVuSans-97"/>
      <use x="333.837891" xlink:href="#DejaVuSans-116"/>
      <use x="373.046875" xlink:href="#DejaVuSans-101"/>
      <use x="434.570312" xlink:href="#DejaVuSans-58"/>
      <use x="468.261719" xlink:href="#DejaVuSans-51"/>
     </g>
    </g>
   </g>
   <g id="line2d_67">
    <path clip-path="url(#p1175ac81b0)" d="M 738 362.083158 
L 738 365.323155 
L 738 361.726933 
L 1245.272727 361.913304 
L 1245.272727 358.209259 
L 1245.272727 368.109639 
L 1245.272727 367.233505 
L 738 361.333125 
L 738 366.777655 
L 738 362.338926 
L 230.727273 361.697772 
L 230.727273 364.879359 
L 230.727273 352.689783 
L 230.727273 360.238138 
L 738 361.869348 
L 738 361.693093 
L 738 367.306486 
L 738 362.458417 
L 1245.272727 353.784237 
L 1245.272727 348.254162 
L 1245.272727 373.159967 
L 1245.272727 369.897913 
L 738 368.59639 
L 738 361.087037 
L 738 367.372641 
L 230.727273 362.575119 
L 230.727273 363.566408 
L 230.727273 352.005833 
L 230.727273 361.63367 
L 1245.272727 357.798679 
L 1245.272727 350.992447 
L 1245.272727 373.18857 
L 1245.272727 357.532335 
L 738 357.176212 
L 738 374.50675 
L 738 345.476822 
L 738 352.253828 
L 1245.272727 353.283417 
L 1245.272727 376.551787 
L 1245.272727 343.650317 
L 1245.272727 368.643994 
" style="fill:none;stroke:#000000;stroke-linecap:square;stroke-width:4;"/>
   </g>
   <g id="line2d_68">
    <path clip-path="url(#p1175ac81b0)" d="M 738 362.068535 
L 738 363.836596 
L 738 357.487327 
L 738 359.467897 
L 1245.272727 358.41069 
L 1245.272727 353.924873 
L 1245.272727 366.861523 
L 1245.272727 365.248883 
L 738 365.875349 
L 738 370.334403 
L 738 358.060695 
L 230.727273 362.044897 
L 230.727273 372.667559 
L 230.727273 350.926213 
L 230.727273 353.208074 
L 738 355.366962 
L 738 365.744443 
L 738 354.122699 
L 1245.272727 349.708467 
L 1245.272727 345.836036 
L 1245.272727 379.583183 
L 1245.272727 370.938915 
L 738 364.355556 
L 738 355.280797 
L 738 369.961915 
L 230.727273 371.459845 
L 230.727273 373.261787 
L 230.727273 351.188419 
L 230.727273 353.658719 
L 1245.272727 351.802323 
L 1245.272727 344.821007 
L 1245.272727 381.16172 
L 1245.272727 353.073111 
L 738 362.127451 
L 738 394.331707 
L 738 335.683767 
L 1245.272727 333.107732 
L 1245.272727 393.628816 
L 1245.272727 332.868293 
L 1245.272727 369.058495 
" style="fill:none;stroke:#ff0000;stroke-linecap:square;stroke-width:1.5;"/>
   </g>
   <g id="patch_21">
    <path d="M 180 397.404878 
L 180 329.795122 
" style="fill:none;stroke:#000000;stroke-linecap:square;stroke-linejoin:miter;stroke-width:0.8;"/>
   </g>
   <g id="patch_22">
    <path d="M 1296 397.404878 
L 1296 329.795122 
" style="fill:none;stroke:#000000;stroke-linecap:square;stroke-linejoin:miter;stroke-width:0.8;"/>
   </g>
   <g id="patch_23">
    <path d="M 180 397.404878 
L 1296 397.404878 
" style="fill:none;stroke:#000000;stroke-linecap:square;stroke-linejoin:miter;stroke-width:0.8;"/>
   </g>
   <g id="patch_24">
    <path d="M 180 329.795122 
L 1296 329.795122 
" style="fill:none;stroke:#000000;stroke-linecap:square;stroke-linejoin:miter;stroke-width:0.8;"/>
   </g>
   <g id="legend_4">
    <g id="patch_25">
     <path d="M 1234.3125 367.151372 
L 1289 367.151372 
Q 1291 367.151372 1291 365.151372 
L 1291 336.795122 
Q 1291 334.795122 1289 334.795122 
L 1234.3125 334.795122 
Q 1232.3125 334.795122 1232.3125 336.795122 
L 1232.3125 365.151372 
Q 1232.3125 367.151372 1234.3125 367.151372 
z
" style="fill:#ffffff;opacity:0.8;stroke:#cccccc;stroke-linejoin:miter;"/>
    </g>
    <g id="line2d_69">
     <path d="M 1236.3125 342.893559 
L 1256.3125 342.893559 
" style="fill:none;stroke:#000000;stroke-linecap:square;stroke-width:4;"/>
    </g>
    <g id="line2d_70"/>
    <g id="text_59">
     <!-- Pred -->
     <g transform="translate(1264.3125 346.393559)scale(0.1 -0.1)">
      <use xlink:href="#DejaVuSans-80"/>
      <use x="60.287109" xlink:href="#DejaVuSans-114"/>
      <use x="101.369141" xlink:href="#DejaVuSans-101"/>
      <use x="162.892578" xlink:href="#DejaVuSans-100"/>
     </g>
    </g>
    <g id="line2d_71">
     <path d="M 1236.3125 357.571684 
L 1256.3125 357.571684 
" style="fill:none;stroke:#ff0000;stroke-linecap:square;stroke-width:1.5;"/>
    </g>
    <g id="line2d_72"/>
    <g id="text_60">
     <!-- True -->
     <g transform="translate(1264.3125 361.071684)scale(0.1 -0.1)">
      <use xlink:href="#DejaVuSans-84"/>
      <use x="60.865234" xlink:href="#DejaVuSans-114"/>
      <use x="101.978516" xlink:href="#DejaVuSans-117"/>
      <use x="165.357422" xlink:href="#DejaVuSans-101"/>
     </g>
    </g>
   </g>
  </g>
  <g id="axes_5">
   <g id="patch_26">
    <path d="M 180 478.536585 
L 1296 478.536585 
L 1296 410.926829 
L 180 410.926829 
z
" style="fill:#ffffff;"/>
   </g>
   <g id="matplotlib.axis_9">
    <g id="xtick_37">
     <g id="line2d_73">
      <g>
       <use style="stroke:#000000;stroke-width:0.8;" x="230.727273" xlink:href="#mb6d287d27b" y="478.536585"/>
      </g>
     </g>
     <g id="text_61">
      <!-- 0.00 -->
      <g transform="translate(219.59446 493.135023)scale(0.1 -0.1)">
       <use xlink:href="#DejaVuSans-48"/>
       <use x="63.623047" xlink:href="#DejaVuSans-46"/>
       <use x="95.410156" xlink:href="#DejaVuSans-48"/>
       <use x="159.033203" xlink:href="#DejaVuSans-48"/>
      </g>
     </g>
    </g>
    <g id="xtick_38">
     <g id="line2d_74">
      <g>
       <use style="stroke:#000000;stroke-width:0.8;" x="357.545455" xlink:href="#mb6d287d27b" y="478.536585"/>
      </g>
     </g>
     <g id="text_62">
      <!-- 0.25 -->
      <g transform="translate(346.412642 493.135023)scale(0.1 -0.1)">
       <use xlink:href="#DejaVuSans-48"/>
       <use x="63.623047" xlink:href="#DejaVuSans-46"/>
       <use x="95.410156" xlink:href="#DejaVuSans-50"/>
       <use x="159.033203" xlink:href="#DejaVuSans-53"/>
      </g>
     </g>
    </g>
    <g id="xtick_39">
     <g id="line2d_75">
      <g>
       <use style="stroke:#000000;stroke-width:0.8;" x="484.363636" xlink:href="#mb6d287d27b" y="478.536585"/>
      </g>
     </g>
     <g id="text_63">
      <!-- 0.50 -->
      <g transform="translate(473.230824 493.135023)scale(0.1 -0.1)">
       <use xlink:href="#DejaVuSans-48"/>
       <use x="63.623047" xlink:href="#DejaVuSans-46"/>
       <use x="95.410156" xlink:href="#DejaVuSans-53"/>
       <use x="159.033203" xlink:href="#DejaVuSans-48"/>
      </g>
     </g>
    </g>
    <g id="xtick_40">
     <g id="line2d_76">
      <g>
       <use style="stroke:#000000;stroke-width:0.8;" x="611.181818" xlink:href="#mb6d287d27b" y="478.536585"/>
      </g>
     </g>
     <g id="text_64">
      <!-- 0.75 -->
      <g transform="translate(600.049006 493.135023)scale(0.1 -0.1)">
       <use xlink:href="#DejaVuSans-48"/>
       <use x="63.623047" xlink:href="#DejaVuSans-46"/>
       <use x="95.410156" xlink:href="#DejaVuSans-55"/>
       <use x="159.033203" xlink:href="#DejaVuSans-53"/>
      </g>
     </g>
    </g>
    <g id="xtick_41">
     <g id="line2d_77">
      <g>
       <use style="stroke:#000000;stroke-width:0.8;" x="738" xlink:href="#mb6d287d27b" y="478.536585"/>
      </g>
     </g>
     <g id="text_65">
      <!-- 1.00 -->
      <g transform="translate(726.867188 493.135023)scale(0.1 -0.1)">
       <use xlink:href="#DejaVuSans-49"/>
       <use x="63.623047" xlink:href="#DejaVuSans-46"/>
       <use x="95.410156" xlink:href="#DejaVuSans-48"/>
       <use x="159.033203" xlink:href="#DejaVuSans-48"/>
      </g>
     </g>
    </g>
    <g id="xtick_42">
     <g id="line2d_78">
      <g>
       <use style="stroke:#000000;stroke-width:0.8;" x="864.818182" xlink:href="#mb6d287d27b" y="478.536585"/>
      </g>
     </g>
     <g id="text_66">
      <!-- 1.25 -->
      <g transform="translate(853.685369 493.135023)scale(0.1 -0.1)">
       <use xlink:href="#DejaVuSans-49"/>
       <use x="63.623047" xlink:href="#DejaVuSans-46"/>
       <use x="95.410156" xlink:href="#DejaVuSans-50"/>
       <use x="159.033203" xlink:href="#DejaVuSans-53"/>
      </g>
     </g>
    </g>
    <g id="xtick_43">
     <g id="line2d_79">
      <g>
       <use style="stroke:#000000;stroke-width:0.8;" x="991.636364" xlink:href="#mb6d287d27b" y="478.536585"/>
      </g>
     </g>
     <g id="text_67">
      <!-- 1.50 -->
      <g transform="translate(980.503551 493.135023)scale(0.1 -0.1)">
       <use xlink:href="#DejaVuSans-49"/>
       <use x="63.623047" xlink:href="#DejaVuSans-46"/>
       <use x="95.410156" xlink:href="#DejaVuSans-53"/>
       <use x="159.033203" xlink:href="#DejaVuSans-48"/>
      </g>
     </g>
    </g>
    <g id="xtick_44">
     <g id="line2d_80">
      <g>
       <use style="stroke:#000000;stroke-width:0.8;" x="1118.454545" xlink:href="#mb6d287d27b" y="478.536585"/>
      </g>
     </g>
     <g id="text_68">
      <!-- 1.75 -->
      <g transform="translate(1107.321733 493.135023)scale(0.1 -0.1)">
       <use xlink:href="#DejaVuSans-49"/>
       <use x="63.623047" xlink:href="#DejaVuSans-46"/>
       <use x="95.410156" xlink:href="#DejaVuSans-55"/>
       <use x="159.033203" xlink:href="#DejaVuSans-53"/>
      </g>
     </g>
    </g>
    <g id="xtick_45">
     <g id="line2d_81">
      <g>
       <use style="stroke:#000000;stroke-width:0.8;" x="1245.272727" xlink:href="#mb6d287d27b" y="478.536585"/>
      </g>
     </g>
     <g id="text_69">
      <!-- 2.00 -->
      <g transform="translate(1234.139915 493.135023)scale(0.1 -0.1)">
       <use xlink:href="#DejaVuSans-50"/>
       <use x="63.623047" xlink:href="#DejaVuSans-46"/>
       <use x="95.410156" xlink:href="#DejaVuSans-48"/>
       <use x="159.033203" xlink:href="#DejaVuSans-48"/>
      </g>
     </g>
    </g>
   </g>
   <g id="matplotlib.axis_10">
    <g id="ytick_13">
     <g id="line2d_82">
      <g>
       <use style="stroke:#000000;stroke-width:0.8;" x="180" xlink:href="#m17a2a9c894" y="465.762834"/>
      </g>
     </g>
     <g id="text_70">
      <!-- −0.5 -->
      <g transform="translate(148.717187 469.562053)scale(0.1 -0.1)">
       <use xlink:href="#DejaVuSans-8722"/>
       <use x="83.789062" xlink:href="#DejaVuSans-48"/>
       <use x="147.412109" xlink:href="#DejaVuSans-46"/>
       <use x="179.199219" xlink:href="#DejaVuSans-53"/>
      </g>
     </g>
    </g>
    <g id="ytick_14">
     <g id="line2d_83">
      <g>
       <use style="stroke:#000000;stroke-width:0.8;" x="180" xlink:href="#m17a2a9c894" y="443.124642"/>
      </g>
     </g>
     <g id="text_71">
      <!-- 0.0 -->
      <g transform="translate(157.096875 446.92386)scale(0.1 -0.1)">
       <use xlink:href="#DejaVuSans-48"/>
       <use x="63.623047" xlink:href="#DejaVuSans-46"/>
       <use x="95.410156" xlink:href="#DejaVuSans-48"/>
      </g>
     </g>
    </g>
    <g id="ytick_15">
     <g id="line2d_84">
      <g>
       <use style="stroke:#000000;stroke-width:0.8;" x="180" xlink:href="#m17a2a9c894" y="420.486449"/>
      </g>
     </g>
     <g id="text_72">
      <!-- 0.5 -->
      <g transform="translate(157.096875 424.285668)scale(0.1 -0.1)">
       <use xlink:href="#DejaVuSans-48"/>
       <use x="63.623047" xlink:href="#DejaVuSans-46"/>
       <use x="95.410156" xlink:href="#DejaVuSans-53"/>
      </g>
     </g>
    </g>
    <g id="text_73">
     <!-- TD State:4 -->
     <defs>
      <path d="M 37.796875 64.3125 
L 12.890625 25.390625 
L 37.796875 25.390625 
z
M 35.203125 72.90625 
L 47.609375 72.90625 
L 47.609375 25.390625 
L 58.015625 25.390625 
L 58.015625 17.1875 
L 47.609375 17.1875 
L 47.609375 0 
L 37.796875 0 
L 37.796875 17.1875 
L 4.890625 17.1875 
L 4.890625 26.703125 
z
" id="DejaVuSans-52"/>
     </defs>
     <g transform="translate(142.6375 471.325457)rotate(-90)scale(0.1 -0.1)">
      <use xlink:href="#DejaVuSans-84"/>
      <use x="61.083984" xlink:href="#DejaVuSans-68"/>
      <use x="138.085938" xlink:href="#DejaVuSans-32"/>
      <use x="169.873047" xlink:href="#DejaVuSans-83"/>
      <use x="233.349609" xlink:href="#DejaVuSans-116"/>
      <use x="272.558594" xlink:href="#DejaVuSans-97"/>
      <use x="333.837891" xlink:href="#DejaVuSans-116"/>
      <use x="373.046875" xlink:href="#DejaVuSans-101"/>
      <use x="434.570312" xlink:href="#DejaVuSans-58"/>
      <use x="468.261719" xlink:href="#DejaVuSans-52"/>
     </g>
    </g>
   </g>
   <g id="line2d_85">
    <path clip-path="url(#pd2c2a5f0b0)" d="M 738 444.683505 
L 738 447.145651 
L 738 444.014231 
L 1245.272727 456.960354 
L 1245.272727 446.183223 
L 1245.272727 455.644253 
L 738 444.612461 
L 738 450.418798 
L 738 445.326101 
L 230.727273 443.124642 
L 230.727273 452.130368 
L 230.727273 443.085927 
L 738 445.549641 
L 738 443.124642 
L 738 448.512265 
L 738 446.305856 
L 1245.272727 459.289863 
L 1245.272727 434.217702 
L 1245.272727 461.930405 
L 738 449.155908 
L 738 449.273906 
L 738 443.246663 
L 738 447.725542 
L 230.727273 444.847192 
L 230.727273 451.180803 
L 230.727273 443.087907 
L 1245.272727 457.90932 
L 1245.272727 435.432473 
L 1245.272727 466.020356 
L 1245.272727 444.156039 
L 738 414.171061 
L 738 458.876667 
L 738 446.783901 
L 1245.272727 438.443537 
L 1245.272727 414 
L 1245.272727 475.463415 
L 1245.272727 430.789932 
" style="fill:none;stroke:#000000;stroke-linecap:square;stroke-width:4;"/>
   </g>
   <g id="line2d_86">
    <path clip-path="url(#pd2c2a5f0b0)" d="M 738 439.633581 
L 738 446.454267 
L 738 442.036179 
L 1245.272727 446.652494 
L 1245.272727 437.797014 
L 1245.272727 447.984559 
L 738 443.1672 
L 738 446.095911 
L 738 438.747988 
L 230.727273 433.24766 
L 230.727273 453.884153 
L 230.727273 437.717463 
L 738 439.493374 
L 738 435.019989 
L 738 450.930471 
L 738 449.775654 
L 1245.272727 452.649613 
L 1245.272727 431.80156 
L 1245.272727 452.9257 
L 738 449.092046 
L 738 449.357744 
L 738 437.148385 
L 738 442.386765 
L 230.727273 439.717487 
L 230.727273 451.126163 
L 230.727273 435.000531 
L 230.727273 438.877999 
L 1245.272727 447.6827 
L 1245.272727 432.959014 
L 1245.272727 453.645233 
L 1245.272727 440.280474 
L 738 431.902249 
L 738 455.08148 
L 738 439.002988 
L 1245.272727 437.536798 
L 1245.272727 427.789613 
L 1245.272727 459.013273 
L 1245.272727 442.876128 
" style="fill:none;stroke:#ff0000;stroke-linecap:square;stroke-width:1.5;"/>
   </g>
   <g id="patch_27">
    <path d="M 180 478.536585 
L 180 410.926829 
" style="fill:none;stroke:#000000;stroke-linecap:square;stroke-linejoin:miter;stroke-width:0.8;"/>
   </g>
   <g id="patch_28">
    <path d="M 1296 478.536585 
L 1296 410.926829 
" style="fill:none;stroke:#000000;stroke-linecap:square;stroke-linejoin:miter;stroke-width:0.8;"/>
   </g>
   <g id="patch_29">
    <path d="M 180 478.536585 
L 1296 478.536585 
" style="fill:none;stroke:#000000;stroke-linecap:square;stroke-linejoin:miter;stroke-width:0.8;"/>
   </g>
   <g id="patch_30">
    <path d="M 180 410.926829 
L 1296 410.926829 
" style="fill:none;stroke:#000000;stroke-linecap:square;stroke-linejoin:miter;stroke-width:0.8;"/>
   </g>
   <g id="legend_5">
    <g id="patch_31">
     <path d="M 1234.3125 448.283079 
L 1289 448.283079 
Q 1291 448.283079 1291 446.283079 
L 1291 417.926829 
Q 1291 415.926829 1289 415.926829 
L 1234.3125 415.926829 
Q 1232.3125 415.926829 1232.3125 417.926829 
L 1232.3125 446.283079 
Q 1232.3125 448.283079 1234.3125 448.283079 
z
" style="fill:#ffffff;opacity:0.8;stroke:#cccccc;stroke-linejoin:miter;"/>
    </g>
    <g id="line2d_87">
     <path d="M 1236.3125 424.025267 
L 1256.3125 424.025267 
" style="fill:none;stroke:#000000;stroke-linecap:square;stroke-width:4;"/>
    </g>
    <g id="line2d_88"/>
    <g id="text_74">
     <!-- Pred -->
     <g transform="translate(1264.3125 427.525267)scale(0.1 -0.1)">
      <use xlink:href="#DejaVuSans-80"/>
      <use x="60.287109" xlink:href="#DejaVuSans-114"/>
      <use x="101.369141" xlink:href="#DejaVuSans-101"/>
      <use x="162.892578" xlink:href="#DejaVuSans-100"/>
     </g>
    </g>
    <g id="line2d_89">
     <path d="M 1236.3125 438.703392 
L 1256.3125 438.703392 
" style="fill:none;stroke:#ff0000;stroke-linecap:square;stroke-width:1.5;"/>
    </g>
    <g id="line2d_90"/>
    <g id="text_75">
     <!-- True -->
     <g transform="translate(1264.3125 442.203392)scale(0.1 -0.1)">
      <use xlink:href="#DejaVuSans-84"/>
      <use x="60.865234" xlink:href="#DejaVuSans-114"/>
      <use x="101.978516" xlink:href="#DejaVuSans-117"/>
      <use x="165.357422" xlink:href="#DejaVuSans-101"/>
     </g>
    </g>
   </g>
  </g>
  <g id="axes_6">
   <g id="patch_32">
    <path d="M 180 559.668293 
L 1296 559.668293 
L 1296 492.058537 
L 180 492.058537 
z
" style="fill:#ffffff;"/>
   </g>
   <g id="matplotlib.axis_11">
    <g id="xtick_46">
     <g id="line2d_91">
      <g>
       <use style="stroke:#000000;stroke-width:0.8;" x="230.727273" xlink:href="#mb6d287d27b" y="559.668293"/>
      </g>
     </g>
     <g id="text_76">
      <!-- 0.00 -->
      <g transform="translate(219.59446 574.26673)scale(0.1 -0.1)">
       <use xlink:href="#DejaVuSans-48"/>
       <use x="63.623047" xlink:href="#DejaVuSans-46"/>
       <use x="95.410156" xlink:href="#DejaVuSans-48"/>
       <use x="159.033203" xlink:href="#DejaVuSans-48"/>
      </g>
     </g>
    </g>
    <g id="xtick_47">
     <g id="line2d_92">
      <g>
       <use style="stroke:#000000;stroke-width:0.8;" x="357.545455" xlink:href="#mb6d287d27b" y="559.668293"/>
      </g>
     </g>
     <g id="text_77">
      <!-- 0.25 -->
      <g transform="translate(346.412642 574.26673)scale(0.1 -0.1)">
       <use xlink:href="#DejaVuSans-48"/>
       <use x="63.623047" xlink:href="#DejaVuSans-46"/>
       <use x="95.410156" xlink:href="#DejaVuSans-50"/>
       <use x="159.033203" xlink:href="#DejaVuSans-53"/>
      </g>
     </g>
    </g>
    <g id="xtick_48">
     <g id="line2d_93">
      <g>
       <use style="stroke:#000000;stroke-width:0.8;" x="484.363636" xlink:href="#mb6d287d27b" y="559.668293"/>
      </g>
     </g>
     <g id="text_78">
      <!-- 0.50 -->
      <g transform="translate(473.230824 574.26673)scale(0.1 -0.1)">
       <use xlink:href="#DejaVuSans-48"/>
       <use x="63.623047" xlink:href="#DejaVuSans-46"/>
       <use x="95.410156" xlink:href="#DejaVuSans-53"/>
       <use x="159.033203" xlink:href="#DejaVuSans-48"/>
      </g>
     </g>
    </g>
    <g id="xtick_49">
     <g id="line2d_94">
      <g>
       <use style="stroke:#000000;stroke-width:0.8;" x="611.181818" xlink:href="#mb6d287d27b" y="559.668293"/>
      </g>
     </g>
     <g id="text_79">
      <!-- 0.75 -->
      <g transform="translate(600.049006 574.26673)scale(0.1 -0.1)">
       <use xlink:href="#DejaVuSans-48"/>
       <use x="63.623047" xlink:href="#DejaVuSans-46"/>
       <use x="95.410156" xlink:href="#DejaVuSans-55"/>
       <use x="159.033203" xlink:href="#DejaVuSans-53"/>
      </g>
     </g>
    </g>
    <g id="xtick_50">
     <g id="line2d_95">
      <g>
       <use style="stroke:#000000;stroke-width:0.8;" x="738" xlink:href="#mb6d287d27b" y="559.668293"/>
      </g>
     </g>
     <g id="text_80">
      <!-- 1.00 -->
      <g transform="translate(726.867188 574.26673)scale(0.1 -0.1)">
       <use xlink:href="#DejaVuSans-49"/>
       <use x="63.623047" xlink:href="#DejaVuSans-46"/>
       <use x="95.410156" xlink:href="#DejaVuSans-48"/>
       <use x="159.033203" xlink:href="#DejaVuSans-48"/>
      </g>
     </g>
    </g>
    <g id="xtick_51">
     <g id="line2d_96">
      <g>
       <use style="stroke:#000000;stroke-width:0.8;" x="864.818182" xlink:href="#mb6d287d27b" y="559.668293"/>
      </g>
     </g>
     <g id="text_81">
      <!-- 1.25 -->
      <g transform="translate(853.685369 574.26673)scale(0.1 -0.1)">
       <use xlink:href="#DejaVuSans-49"/>
       <use x="63.623047" xlink:href="#DejaVuSans-46"/>
       <use x="95.410156" xlink:href="#DejaVuSans-50"/>
       <use x="159.033203" xlink:href="#DejaVuSans-53"/>
      </g>
     </g>
    </g>
    <g id="xtick_52">
     <g id="line2d_97">
      <g>
       <use style="stroke:#000000;stroke-width:0.8;" x="991.636364" xlink:href="#mb6d287d27b" y="559.668293"/>
      </g>
     </g>
     <g id="text_82">
      <!-- 1.50 -->
      <g transform="translate(980.503551 574.26673)scale(0.1 -0.1)">
       <use xlink:href="#DejaVuSans-49"/>
       <use x="63.623047" xlink:href="#DejaVuSans-46"/>
       <use x="95.410156" xlink:href="#DejaVuSans-53"/>
       <use x="159.033203" xlink:href="#DejaVuSans-48"/>
      </g>
     </g>
    </g>
    <g id="xtick_53">
     <g id="line2d_98">
      <g>
       <use style="stroke:#000000;stroke-width:0.8;" x="1118.454545" xlink:href="#mb6d287d27b" y="559.668293"/>
      </g>
     </g>
     <g id="text_83">
      <!-- 1.75 -->
      <g transform="translate(1107.321733 574.26673)scale(0.1 -0.1)">
       <use xlink:href="#DejaVuSans-49"/>
       <use x="63.623047" xlink:href="#DejaVuSans-46"/>
       <use x="95.410156" xlink:href="#DejaVuSans-55"/>
       <use x="159.033203" xlink:href="#DejaVuSans-53"/>
      </g>
     </g>
    </g>
    <g id="xtick_54">
     <g id="line2d_99">
      <g>
       <use style="stroke:#000000;stroke-width:0.8;" x="1245.272727" xlink:href="#mb6d287d27b" y="559.668293"/>
      </g>
     </g>
     <g id="text_84">
      <!-- 2.00 -->
      <g transform="translate(1234.139915 574.26673)scale(0.1 -0.1)">
       <use xlink:href="#DejaVuSans-50"/>
       <use x="63.623047" xlink:href="#DejaVuSans-46"/>
       <use x="95.410156" xlink:href="#DejaVuSans-48"/>
       <use x="159.033203" xlink:href="#DejaVuSans-48"/>
      </g>
     </g>
    </g>
   </g>
   <g id="matplotlib.axis_12">
    <g id="ytick_16">
     <g id="line2d_100">
      <g>
       <use style="stroke:#000000;stroke-width:0.8;" x="180" xlink:href="#m17a2a9c894" y="528.74746"/>
      </g>
     </g>
     <g id="text_85">
      <!-- 0 -->
      <g transform="translate(166.6375 532.546679)scale(0.1 -0.1)">
       <use xlink:href="#DejaVuSans-48"/>
      </g>
     </g>
    </g>
    <g id="ytick_17">
     <g id="line2d_101">
      <g>
       <use style="stroke:#000000;stroke-width:0.8;" x="180" xlink:href="#m17a2a9c894" y="496.846716"/>
      </g>
     </g>
     <g id="text_86">
      <!-- 1 -->
      <g transform="translate(166.6375 500.645935)scale(0.1 -0.1)">
       <use xlink:href="#DejaVuSans-49"/>
      </g>
     </g>
    </g>
    <g id="text_87">
     <!-- TD State:5 -->
     <g transform="translate(160.557812 552.457165)rotate(-90)scale(0.1 -0.1)">
      <use xlink:href="#DejaVuSans-84"/>
      <use x="61.083984" xlink:href="#DejaVuSans-68"/>
      <use x="138.085938" xlink:href="#DejaVuSans-32"/>
      <use x="169.873047" xlink:href="#DejaVuSans-83"/>
      <use x="233.349609" xlink:href="#DejaVuSans-116"/>
      <use x="272.558594" xlink:href="#DejaVuSans-97"/>
      <use x="333.837891" xlink:href="#DejaVuSans-116"/>
      <use x="373.046875" xlink:href="#DejaVuSans-101"/>
      <use x="434.570312" xlink:href="#DejaVuSans-58"/>
      <use x="468.261719" xlink:href="#DejaVuSans-53"/>
     </g>
    </g>
   </g>
   <g id="line2d_102">
    <path clip-path="url(#p8cb5ba886b)" d="M 738 527.788252 
L 738 524.084905 
L 738 528.255198 
L 1245.272727 514.980647 
L 1245.272727 527.689176 
L 1245.272727 515.690516 
L 738 528.043627 
L 738 520.067138 
L 738 527.364845 
L 230.727273 528.74746 
L 230.727273 522.470033 
L 230.727273 528.563609 
L 738 527.140238 
L 738 528.74746 
L 738 521.834917 
L 738 526.797441 
L 1245.272727 512.567075 
L 1245.272727 539.47524 
L 1245.272727 504.65955 
L 738 520.485498 
L 738 528.679246 
L 738 522.104482 
L 230.727273 527.336591 
L 230.727273 523.668544 
L 230.727273 528.759908 
L 1245.272727 513.003308 
L 1245.272727 538.971368 
L 1245.272727 502.259581 
L 1245.272727 530.964211 
L 738 556.357264 
L 738 511.142547 
L 738 524.953105 
L 1245.272727 532.464371 
L 1245.272727 556.595122 
L 1245.272727 495.131707 
L 1245.272727 541.649955 
" style="fill:none;stroke:#000000;stroke-linecap:square;stroke-width:4;"/>
   </g>
   <g id="line2d_103">
    <path clip-path="url(#p8cb5ba886b)" d="M 738 531.010244 
L 738 525.875086 
L 738 532.028188 
L 1245.272727 522.311337 
L 1245.272727 534.450904 
L 1245.272727 524.953438 
L 738 534.414695 
L 738 524.127634 
L 738 528.907136 
L 230.727273 540.3442 
L 230.727273 518.907992 
L 230.727273 535.425994 
L 738 528.623239 
L 738 533.777823 
L 738 523.014476 
L 738 525.537595 
L 1245.272727 518.763968 
L 1245.272727 542.712562 
L 1245.272727 514.797488 
L 738 523.226113 
L 738 522.878921 
L 738 535.273985 
L 738 527.641008 
L 230.727273 534.513685 
L 230.727273 519.614176 
L 230.727273 537.307013 
L 230.727273 535.187649 
L 1245.272727 516.951346 
L 1245.272727 541.979003 
L 1245.272727 513.869817 
L 1245.272727 538.409082 
L 738 551.359979 
L 738 506.473646 
L 738 525.156277 
L 1245.272727 525.890153 
L 1245.272727 547.698408 
L 1245.272727 504.825064 
L 1245.272727 539.837244 
" style="fill:none;stroke:#ff0000;stroke-linecap:square;stroke-width:1.5;"/>
   </g>
   <g id="patch_33">
    <path d="M 180 559.668293 
L 180 492.058537 
" style="fill:none;stroke:#000000;stroke-linecap:square;stroke-linejoin:miter;stroke-width:0.8;"/>
   </g>
   <g id="patch_34">
    <path d="M 1296 559.668293 
L 1296 492.058537 
" style="fill:none;stroke:#000000;stroke-linecap:square;stroke-linejoin:miter;stroke-width:0.8;"/>
   </g>
   <g id="patch_35">
    <path d="M 180 559.668293 
L 1296 559.668293 
" style="fill:none;stroke:#000000;stroke-linecap:square;stroke-linejoin:miter;stroke-width:0.8;"/>
   </g>
   <g id="patch_36">
    <path d="M 180 492.058537 
L 1296 492.058537 
" style="fill:none;stroke:#000000;stroke-linecap:square;stroke-linejoin:miter;stroke-width:0.8;"/>
   </g>
   <g id="legend_6">
    <g id="patch_37">
     <path d="M 1234.3125 529.414787 
L 1289 529.414787 
Q 1291 529.414787 1291 527.414787 
L 1291 499.058537 
Q 1291 497.058537 1289 497.058537 
L 1234.3125 497.058537 
Q 1232.3125 497.058537 1232.3125 499.058537 
L 1232.3125 527.414787 
Q 1232.3125 529.414787 1234.3125 529.414787 
z
" style="fill:#ffffff;opacity:0.8;stroke:#cccccc;stroke-linejoin:miter;"/>
    </g>
    <g id="line2d_104">
     <path d="M 1236.3125 505.156974 
L 1256.3125 505.156974 
" style="fill:none;stroke:#000000;stroke-linecap:square;stroke-width:4;"/>
    </g>
    <g id="line2d_105"/>
    <g id="text_88">
     <!-- Pred -->
     <g transform="translate(1264.3125 508.656974)scale(0.1 -0.1)">
      <use xlink:href="#DejaVuSans-80"/>
      <use x="60.287109" xlink:href="#DejaVuSans-114"/>
      <use x="101.369141" xlink:href="#DejaVuSans-101"/>
      <use x="162.892578" xlink:href="#DejaVuSans-100"/>
     </g>
    </g>
    <g id="line2d_106">
     <path d="M 1236.3125 519.835099 
L 1256.3125 519.835099 
" style="fill:none;stroke:#ff0000;stroke-linecap:square;stroke-width:1.5;"/>
    </g>
    <g id="line2d_107"/>
    <g id="text_89">
     <!-- True -->
     <g transform="translate(1264.3125 523.335099)scale(0.1 -0.1)">
      <use xlink:href="#DejaVuSans-84"/>
      <use x="60.865234" xlink:href="#DejaVuSans-114"/>
      <use x="101.978516" xlink:href="#DejaVuSans-117"/>
      <use x="165.357422" xlink:href="#DejaVuSans-101"/>
     </g>
    </g>
   </g>
  </g>
  <g id="axes_7">
   <g id="patch_38">
    <path d="M 180 640.8 
L 1296 640.8 
L 1296 573.190244 
L 180 573.190244 
z
" style="fill:#ffffff;"/>
   </g>
   <g id="matplotlib.axis_13">
    <g id="xtick_55">
     <g id="line2d_108">
      <g>
       <use style="stroke:#000000;stroke-width:0.8;" x="230.727273" xlink:href="#mb6d287d27b" y="640.8"/>
      </g>
     </g>
     <g id="text_90">
      <!-- 0.00 -->
      <g transform="translate(219.59446 655.398438)scale(0.1 -0.1)">
       <use xlink:href="#DejaVuSans-48"/>
       <use x="63.623047" xlink:href="#DejaVuSans-46"/>
       <use x="95.410156" xlink:href="#DejaVuSans-48"/>
       <use x="159.033203" xlink:href="#DejaVuSans-48"/>
      </g>
     </g>
    </g>
    <g id="xtick_56">
     <g id="line2d_109">
      <g>
       <use style="stroke:#000000;stroke-width:0.8;" x="357.545455" xlink:href="#mb6d287d27b" y="640.8"/>
      </g>
     </g>
     <g id="text_91">
      <!-- 0.25 -->
      <g transform="translate(346.412642 655.398438)scale(0.1 -0.1)">
       <use xlink:href="#DejaVuSans-48"/>
       <use x="63.623047" xlink:href="#DejaVuSans-46"/>
       <use x="95.410156" xlink:href="#DejaVuSans-50"/>
       <use x="159.033203" xlink:href="#DejaVuSans-53"/>
      </g>
     </g>
    </g>
    <g id="xtick_57">
     <g id="line2d_110">
      <g>
       <use style="stroke:#000000;stroke-width:0.8;" x="484.363636" xlink:href="#mb6d287d27b" y="640.8"/>
      </g>
     </g>
     <g id="text_92">
      <!-- 0.50 -->
      <g transform="translate(473.230824 655.398438)scale(0.1 -0.1)">
       <use xlink:href="#DejaVuSans-48"/>
       <use x="63.623047" xlink:href="#DejaVuSans-46"/>
       <use x="95.410156" xlink:href="#DejaVuSans-53"/>
       <use x="159.033203" xlink:href="#DejaVuSans-48"/>
      </g>
     </g>
    </g>
    <g id="xtick_58">
     <g id="line2d_111">
      <g>
       <use style="stroke:#000000;stroke-width:0.8;" x="611.181818" xlink:href="#mb6d287d27b" y="640.8"/>
      </g>
     </g>
     <g id="text_93">
      <!-- 0.75 -->
      <g transform="translate(600.049006 655.398438)scale(0.1 -0.1)">
       <use xlink:href="#DejaVuSans-48"/>
       <use x="63.623047" xlink:href="#DejaVuSans-46"/>
       <use x="95.410156" xlink:href="#DejaVuSans-55"/>
       <use x="159.033203" xlink:href="#DejaVuSans-53"/>
      </g>
     </g>
    </g>
    <g id="xtick_59">
     <g id="line2d_112">
      <g>
       <use style="stroke:#000000;stroke-width:0.8;" x="738" xlink:href="#mb6d287d27b" y="640.8"/>
      </g>
     </g>
     <g id="text_94">
      <!-- 1.00 -->
      <g transform="translate(726.867188 655.398438)scale(0.1 -0.1)">
       <use xlink:href="#DejaVuSans-49"/>
       <use x="63.623047" xlink:href="#DejaVuSans-46"/>
       <use x="95.410156" xlink:href="#DejaVuSans-48"/>
       <use x="159.033203" xlink:href="#DejaVuSans-48"/>
      </g>
     </g>
    </g>
    <g id="xtick_60">
     <g id="line2d_113">
      <g>
       <use style="stroke:#000000;stroke-width:0.8;" x="864.818182" xlink:href="#mb6d287d27b" y="640.8"/>
      </g>
     </g>
     <g id="text_95">
      <!-- 1.25 -->
      <g transform="translate(853.685369 655.398438)scale(0.1 -0.1)">
       <use xlink:href="#DejaVuSans-49"/>
       <use x="63.623047" xlink:href="#DejaVuSans-46"/>
       <use x="95.410156" xlink:href="#DejaVuSans-50"/>
       <use x="159.033203" xlink:href="#DejaVuSans-53"/>
      </g>
     </g>
    </g>
    <g id="xtick_61">
     <g id="line2d_114">
      <g>
       <use style="stroke:#000000;stroke-width:0.8;" x="991.636364" xlink:href="#mb6d287d27b" y="640.8"/>
      </g>
     </g>
     <g id="text_96">
      <!-- 1.50 -->
      <g transform="translate(980.503551 655.398438)scale(0.1 -0.1)">
       <use xlink:href="#DejaVuSans-49"/>
       <use x="63.623047" xlink:href="#DejaVuSans-46"/>
       <use x="95.410156" xlink:href="#DejaVuSans-53"/>
       <use x="159.033203" xlink:href="#DejaVuSans-48"/>
      </g>
     </g>
    </g>
    <g id="xtick_62">
     <g id="line2d_115">
      <g>
       <use style="stroke:#000000;stroke-width:0.8;" x="1118.454545" xlink:href="#mb6d287d27b" y="640.8"/>
      </g>
     </g>
     <g id="text_97">
      <!-- 1.75 -->
      <g transform="translate(1107.321733 655.398438)scale(0.1 -0.1)">
       <use xlink:href="#DejaVuSans-49"/>
       <use x="63.623047" xlink:href="#DejaVuSans-46"/>
       <use x="95.410156" xlink:href="#DejaVuSans-55"/>
       <use x="159.033203" xlink:href="#DejaVuSans-53"/>
      </g>
     </g>
    </g>
    <g id="xtick_63">
     <g id="line2d_116">
      <g>
       <use style="stroke:#000000;stroke-width:0.8;" x="1245.272727" xlink:href="#mb6d287d27b" y="640.8"/>
      </g>
     </g>
     <g id="text_98">
      <!-- 2.00 -->
      <g transform="translate(1234.139915 655.398438)scale(0.1 -0.1)">
       <use xlink:href="#DejaVuSans-50"/>
       <use x="63.623047" xlink:href="#DejaVuSans-46"/>
       <use x="95.410156" xlink:href="#DejaVuSans-48"/>
       <use x="159.033203" xlink:href="#DejaVuSans-48"/>
      </g>
     </g>
    </g>
    <g id="text_99">
     <!-- Time -->
     <defs>
      <path d="M 9.421875 54.6875 
L 18.40625 54.6875 
L 18.40625 0 
L 9.421875 0 
z
M 9.421875 75.984375 
L 18.40625 75.984375 
L 18.40625 64.59375 
L 9.421875 64.59375 
z
" id="DejaVuSans-105"/>
      <path d="M 52 44.1875 
Q 55.375 50.25 60.0625 53.125 
Q 64.75 56 71.09375 56 
Q 79.640625 56 84.28125 50.015625 
Q 88.921875 44.046875 88.921875 33.015625 
L 88.921875 0 
L 79.890625 0 
L 79.890625 32.71875 
Q 79.890625 40.578125 77.09375 44.375 
Q 74.3125 48.1875 68.609375 48.1875 
Q 61.625 48.1875 57.5625 43.546875 
Q 53.515625 38.921875 53.515625 30.90625 
L 53.515625 0 
L 44.484375 0 
L 44.484375 32.71875 
Q 44.484375 40.625 41.703125 44.40625 
Q 38.921875 48.1875 33.109375 48.1875 
Q 26.21875 48.1875 22.15625 43.53125 
Q 18.109375 38.875 18.109375 30.90625 
L 18.109375 0 
L 9.078125 0 
L 9.078125 54.6875 
L 18.109375 54.6875 
L 18.109375 46.1875 
Q 21.1875 51.21875 25.484375 53.609375 
Q 29.78125 56 35.6875 56 
Q 41.65625 56 45.828125 52.96875 
Q 50 49.953125 52 44.1875 
z
" id="DejaVuSans-109"/>
     </defs>
     <g transform="translate(725.6125 669.076563)scale(0.1 -0.1)">
      <use xlink:href="#DejaVuSans-84"/>
      <use x="61.037109" xlink:href="#DejaVuSans-105"/>
      <use x="88.820312" xlink:href="#DejaVuSans-109"/>
      <use x="186.232422" xlink:href="#DejaVuSans-101"/>
     </g>
    </g>
   </g>
   <g id="matplotlib.axis_14">
    <g id="ytick_18">
     <g id="line2d_117">
      <g>
       <use style="stroke:#000000;stroke-width:0.8;" x="180" xlink:href="#m17a2a9c894" y="625.02749"/>
      </g>
     </g>
     <g id="text_100">
      <!-- −1 -->
      <g transform="translate(158.257812 628.826709)scale(0.1 -0.1)">
       <use xlink:href="#DejaVuSans-8722"/>
       <use x="83.789062" xlink:href="#DejaVuSans-49"/>
      </g>
     </g>
    </g>
    <g id="ytick_19">
     <g id="line2d_118">
      <g>
       <use style="stroke:#000000;stroke-width:0.8;" x="180" xlink:href="#m17a2a9c894" y="605.036807"/>
      </g>
     </g>
     <g id="text_101">
      <!-- 0 -->
      <g transform="translate(166.6375 608.836026)scale(0.1 -0.1)">
       <use xlink:href="#DejaVuSans-48"/>
      </g>
     </g>
    </g>
    <g id="ytick_20">
     <g id="line2d_119">
      <g>
       <use style="stroke:#000000;stroke-width:0.8;" x="180" xlink:href="#m17a2a9c894" y="585.046123"/>
      </g>
     </g>
     <g id="text_102">
      <!-- 1 -->
      <g transform="translate(166.6375 588.845342)scale(0.1 -0.1)">
       <use xlink:href="#DejaVuSans-49"/>
      </g>
     </g>
    </g>
    <g id="text_103">
     <!-- Control Input -->
     <defs>
      <path d="M 64.40625 67.28125 
L 64.40625 56.890625 
Q 59.421875 61.53125 53.78125 63.8125 
Q 48.140625 66.109375 41.796875 66.109375 
Q 29.296875 66.109375 22.65625 58.46875 
Q 16.015625 50.828125 16.015625 36.375 
Q 16.015625 21.96875 22.65625 14.328125 
Q 29.296875 6.6875 41.796875 6.6875 
Q 48.140625 6.6875 53.78125 8.984375 
Q 59.421875 11.28125 64.40625 15.921875 
L 64.40625 5.609375 
Q 59.234375 2.09375 53.4375 0.328125 
Q 47.65625 -1.421875 41.21875 -1.421875 
Q 24.65625 -1.421875 15.125 8.703125 
Q 5.609375 18.84375 5.609375 36.375 
Q 5.609375 53.953125 15.125 64.078125 
Q 24.65625 74.21875 41.21875 74.21875 
Q 47.75 74.21875 53.53125 72.484375 
Q 59.328125 70.75 64.40625 67.28125 
z
" id="DejaVuSans-67"/>
      <path d="M 30.609375 48.390625 
Q 23.390625 48.390625 19.1875 42.75 
Q 14.984375 37.109375 14.984375 27.296875 
Q 14.984375 17.484375 19.15625 11.84375 
Q 23.34375 6.203125 30.609375 6.203125 
Q 37.796875 6.203125 41.984375 11.859375 
Q 46.1875 17.53125 46.1875 27.296875 
Q 46.1875 37.015625 41.984375 42.703125 
Q 37.796875 48.390625 30.609375 48.390625 
z
M 30.609375 56 
Q 42.328125 56 49.015625 48.375 
Q 55.71875 40.765625 55.71875 27.296875 
Q 55.71875 13.875 49.015625 6.21875 
Q 42.328125 -1.421875 30.609375 -1.421875 
Q 18.84375 -1.421875 12.171875 6.21875 
Q 5.515625 13.875 5.515625 27.296875 
Q 5.515625 40.765625 12.171875 48.375 
Q 18.84375 56 30.609375 56 
z
" id="DejaVuSans-111"/>
      <path d="M 54.890625 33.015625 
L 54.890625 0 
L 45.90625 0 
L 45.90625 32.71875 
Q 45.90625 40.484375 42.875 44.328125 
Q 39.84375 48.1875 33.796875 48.1875 
Q 26.515625 48.1875 22.3125 43.546875 
Q 18.109375 38.921875 18.109375 30.90625 
L 18.109375 0 
L 9.078125 0 
L 9.078125 54.6875 
L 18.109375 54.6875 
L 18.109375 46.1875 
Q 21.34375 51.125 25.703125 53.5625 
Q 30.078125 56 35.796875 56 
Q 45.21875 56 50.046875 50.171875 
Q 54.890625 44.34375 54.890625 33.015625 
z
" id="DejaVuSans-110"/>
      <path d="M 9.421875 75.984375 
L 18.40625 75.984375 
L 18.40625 0 
L 9.421875 0 
z
" id="DejaVuSans-108"/>
      <path d="M 9.8125 72.90625 
L 19.671875 72.90625 
L 19.671875 0 
L 9.8125 0 
z
" id="DejaVuSans-73"/>
      <path d="M 18.109375 8.203125 
L 18.109375 -20.796875 
L 9.078125 -20.796875 
L 9.078125 54.6875 
L 18.109375 54.6875 
L 18.109375 46.390625 
Q 20.953125 51.265625 25.265625 53.625 
Q 29.59375 56 35.59375 56 
Q 45.5625 56 51.78125 48.09375 
Q 58.015625 40.1875 58.015625 27.296875 
Q 58.015625 14.40625 51.78125 6.484375 
Q 45.5625 -1.421875 35.59375 -1.421875 
Q 29.59375 -1.421875 25.265625 0.953125 
Q 20.953125 3.328125 18.109375 8.203125 
z
M 48.6875 27.296875 
Q 48.6875 37.203125 44.609375 42.84375 
Q 40.53125 48.484375 33.40625 48.484375 
Q 26.265625 48.484375 22.1875 42.84375 
Q 18.109375 37.203125 18.109375 27.296875 
Q 18.109375 17.390625 22.1875 11.75 
Q 26.265625 6.109375 33.40625 6.109375 
Q 40.53125 6.109375 44.609375 11.75 
Q 48.6875 17.390625 48.6875 27.296875 
z
" id="DejaVuSans-112"/>
     </defs>
     <g transform="translate(152.178125 639.713091)rotate(-90)scale(0.1 -0.1)">
      <use xlink:href="#DejaVuSans-67"/>
      <use x="69.824219" xlink:href="#DejaVuSans-111"/>
      <use x="131.005859" xlink:href="#DejaVuSans-110"/>
      <use x="194.384766" xlink:href="#DejaVuSans-116"/>
      <use x="233.59375" xlink:href="#DejaVuSans-114"/>
      <use x="274.675781" xlink:href="#DejaVuSans-111"/>
      <use x="335.857422" xlink:href="#DejaVuSans-108"/>
      <use x="363.640625" xlink:href="#DejaVuSans-32"/>
      <use x="395.427734" xlink:href="#DejaVuSans-73"/>
      <use x="424.919922" xlink:href="#DejaVuSans-110"/>
      <use x="488.298828" xlink:href="#DejaVuSans-112"/>
      <use x="551.775391" xlink:href="#DejaVuSans-117"/>
      <use x="615.154297" xlink:href="#DejaVuSans-116"/>
     </g>
    </g>
   </g>
   <g id="line2d_120">
    <path clip-path="url(#p963e7b3180)" d="M 738 604.660084 
L 738 606.995134 
L 738 600.984504 
L 738 601.948978 
L 1245.272727 604.004855 
L 1245.272727 597.579391 
L 1245.272727 610.388147 
L 1245.272727 609.602434 
L 738 607.2249 
L 738 613.324859 
L 738 601.571064 
L 230.727273 601.671125 
L 230.727273 616.306746 
L 230.727273 594.5684 
L 230.727273 595.042494 
L 738 599.227614 
L 738 599.149771 
L 738 608.934784 
L 738 598.999955 
L 1245.272727 596.988485 
L 1245.272727 589.034624 
L 1245.272727 622.647788 
L 1245.272727 617.978394 
L 738 609.236608 
L 738 598.771455 
L 738 613.054034 
L 230.727273 612.360673 
L 230.727273 616.206696 
L 230.727273 594.595075 
L 230.727273 595.517264 
L 1245.272727 599.553024 
L 1245.272727 588.128929 
L 1245.272727 624.277155 
L 1245.272727 592.430487 
L 738 598.484968 
L 738 636.199776 
L 738 581.446242 
L 1245.272727 579.195818 
L 1245.272727 576.263415 
L 1245.272727 637.726829 
L 1245.272727 610.264128 
" style="fill:none;stroke:#ff0000;stroke-linecap:square;stroke-width:1.5;"/>
   </g>
   <g id="patch_39">
    <path d="M 180 640.8 
L 180 573.190244 
" style="fill:none;stroke:#000000;stroke-linecap:square;stroke-linejoin:miter;stroke-width:0.8;"/>
   </g>
   <g id="patch_40">
    <path d="M 1296 640.8 
L 1296 573.190244 
" style="fill:none;stroke:#000000;stroke-linecap:square;stroke-linejoin:miter;stroke-width:0.8;"/>
   </g>
   <g id="patch_41">
    <path d="M 180 640.8 
L 1296 640.8 
" style="fill:none;stroke:#000000;stroke-linecap:square;stroke-linejoin:miter;stroke-width:0.8;"/>
   </g>
   <g id="patch_42">
    <path d="M 180 573.190244 
L 1296 573.190244 
" style="fill:none;stroke:#000000;stroke-linecap:square;stroke-linejoin:miter;stroke-width:0.8;"/>
   </g>
   <g id="legend_7">
    <g id="patch_43">
     <path d="M 1194.742188 595.868369 
L 1289 595.868369 
Q 1291 595.868369 1291 593.868369 
L 1291 580.190244 
Q 1291 578.190244 1289 578.190244 
L 1194.742188 578.190244 
Q 1192.742188 578.190244 1192.742188 580.190244 
L 1192.742188 593.868369 
Q 1192.742188 595.868369 1194.742188 595.868369 
z
" style="fill:#ffffff;opacity:0.8;stroke:#cccccc;stroke-linejoin:miter;"/>
    </g>
    <g id="line2d_121">
     <path d="M 1196.742188 586.288681 
L 1216.742188 586.288681 
" style="fill:none;stroke:#ff0000;stroke-linecap:square;stroke-width:1.5;"/>
    </g>
    <g id="line2d_122"/>
    <g id="text_104">
     <!-- ControlInput -->
     <g transform="translate(1224.742188 589.788681)scale(0.1 -0.1)">
      <use xlink:href="#DejaVuSans-67"/>
      <use x="69.824219" xlink:href="#DejaVuSans-111"/>
      <use x="131.005859" xlink:href="#DejaVuSans-110"/>
      <use x="194.384766" xlink:href="#DejaVuSans-116"/>
      <use x="233.59375" xlink:href="#DejaVuSans-114"/>
      <use x="274.675781" xlink:href="#DejaVuSans-111"/>
      <use x="335.857422" xlink:href="#DejaVuSans-108"/>
      <use x="363.640625" xlink:href="#DejaVuSans-73"/>
      <use x="393.132812" xlink:href="#DejaVuSans-110"/>
      <use x="456.511719" xlink:href="#DejaVuSans-112"/>
      <use x="519.988281" xlink:href="#DejaVuSans-117"/>
      <use x="583.367188" xlink:href="#DejaVuSans-116"/>
     </g>
    </g>
   </g>
  </g>
 </g>
 <defs>
  <clipPath id="pf45b1a5bef">
   <rect height="67.609756" width="1116" x="180" y="86.4"/>
  </clipPath>
  <clipPath id="pedce8eb844">
   <rect height="67.609756" width="1116" x="180" y="167.531707"/>
  </clipPath>
  <clipPath id="pf7770bbaa9">
   <rect height="67.609756" width="1116" x="180" y="248.663415"/>
  </clipPath>
  <clipPath id="p1175ac81b0">
   <rect height="67.609756" width="1116" x="180" y="329.795122"/>
  </clipPath>
  <clipPath id="pd2c2a5f0b0">
   <rect height="67.609756" width="1116" x="180" y="410.926829"/>
  </clipPath>
  <clipPath id="p8cb5ba886b">
   <rect height="67.609756" width="1116" x="180" y="492.058537"/>
  </clipPath>
  <clipPath id="p963e7b3180">
   <rect height="67.609756" width="1116" x="180" y="573.190244"/>
  </clipPath>
 </defs>
</svg>
