<?xml version="1.0" encoding="utf-8" standalone="no"?>
<!DOCTYPE svg PUBLIC "-//W3C//DTD SVG 1.1//EN"
  "http://www.w3.org/Graphics/SVG/1.1/DTD/svg11.dtd">
<!-- Created with matplotlib (http://matplotlib.org/) -->
<svg height="345.6pt" version="1.1" viewBox="0 0 460.8 345.6" width="460.8pt" xmlns="http://www.w3.org/2000/svg" xmlns:xlink="http://www.w3.org/1999/xlink">
 <defs>
  <style type="text/css">
*{stroke-linecap:butt;stroke-linejoin:round;}
  </style>
 </defs>
 <g id="figure_1">
  <g id="patch_1">
   <path d="M 0 345.6 
L 460.8 345.6 
L 460.8 0 
L 0 0 
z
" style="fill:#ffffff;"/>
  </g>
  <g id="axes_1">
   <g id="patch_2">
    <path d="M 57.6 307.584 
L 414.72 307.584 
L 414.72 41.472 
L 57.6 41.472 
z
" style="fill:#ffffff;"/>
   </g>
   <g id="matplotlib.axis_1">
    <g id="xtick_1">
     <g id="line2d_1">
      <defs>
       <path d="M 0 0 
L 0 3.5 
" id="mc150b40225" style="stroke:#000000;stroke-width:0.8;"/>
      </defs>
      <g>
       <use style="stroke:#000000;stroke-width:0.8;" x="73.832727" xlink:href="#mc150b40225" y="307.584"/>
      </g>
     </g>
     <g id="text_1">
      <!-- −20000 -->
      <defs>
       <path d="M 10.59375 35.5 
L 73.1875 35.5 
L 73.1875 27.203125 
L 10.59375 27.203125 
z
" id="DejaVuSans-2212"/>
       <path d="M 19.1875 8.296875 
L 53.609375 8.296875 
L 53.609375 0 
L 7.328125 0 
L 7.328125 8.296875 
Q 12.9375 14.109375 22.625 23.890625 
Q 32.328125 33.6875 34.8125 36.53125 
Q 39.546875 41.84375 41.421875 45.53125 
Q 43.3125 49.21875 43.3125 52.78125 
Q 43.3125 58.59375 39.234375 62.25 
Q 35.15625 65.921875 28.609375 65.921875 
Q 23.96875 65.921875 18.8125 64.3125 
Q 13.671875 62.703125 7.8125 59.421875 
L 7.8125 69.390625 
Q 13.765625 71.78125 18.9375 73 
Q 24.125 74.21875 28.421875 74.21875 
Q 39.75 74.21875 46.484375 68.546875 
Q 53.21875 62.890625 53.21875 53.421875 
Q 53.21875 48.921875 51.53125 44.890625 
Q 49.859375 40.875 45.40625 35.40625 
Q 44.1875 33.984375 37.640625 27.21875 
Q 31.109375 20.453125 19.1875 8.296875 
z
" id="DejaVuSans-32"/>
       <path d="M 31.78125 66.40625 
Q 24.171875 66.40625 20.328125 58.90625 
Q 16.5 51.421875 16.5 36.375 
Q 16.5 21.390625 20.328125 13.890625 
Q 24.171875 6.390625 31.78125 6.390625 
Q 39.453125 6.390625 43.28125 13.890625 
Q 47.125 21.390625 47.125 36.375 
Q 47.125 51.421875 43.28125 58.90625 
Q 39.453125 66.40625 31.78125 66.40625 
z
M 31.78125 74.21875 
Q 44.046875 74.21875 50.515625 64.515625 
Q 56.984375 54.828125 56.984375 36.375 
Q 56.984375 17.96875 50.515625 8.265625 
Q 44.046875 -1.421875 31.78125 -1.421875 
Q 19.53125 -1.421875 13.0625 8.265625 
Q 6.59375 17.96875 6.59375 36.375 
Q 6.59375 54.828125 13.0625 64.515625 
Q 19.53125 74.21875 31.78125 74.21875 
z
" id="DejaVuSans-30"/>
      </defs>
      <g transform="translate(53.736634 322.182437)scale(0.1 -0.1)">
       <use xlink:href="#DejaVuSans-2212"/>
       <use x="83.789062" xlink:href="#DejaVuSans-32"/>
       <use x="147.412109" xlink:href="#DejaVuSans-30"/>
       <use x="211.035156" xlink:href="#DejaVuSans-30"/>
       <use x="274.658203" xlink:href="#DejaVuSans-30"/>
       <use x="338.28125" xlink:href="#DejaVuSans-30"/>
      </g>
     </g>
    </g>
    <g id="xtick_2">
     <g id="line2d_2">
      <g>
       <use style="stroke:#000000;stroke-width:0.8;" x="114.41556" xlink:href="#mc150b40225" y="307.584"/>
      </g>
     </g>
     <g id="text_2">
      <!-- −15000 -->
      <defs>
       <path d="M 12.40625 8.296875 
L 28.515625 8.296875 
L 28.515625 63.921875 
L 10.984375 60.40625 
L 10.984375 69.390625 
L 28.421875 72.90625 
L 38.28125 72.90625 
L 38.28125 8.296875 
L 54.390625 8.296875 
L 54.390625 0 
L 12.40625 0 
z
" id="DejaVuSans-31"/>
       <path d="M 10.796875 72.90625 
L 49.515625 72.90625 
L 49.515625 64.59375 
L 19.828125 64.59375 
L 19.828125 46.734375 
Q 21.96875 47.46875 24.109375 47.828125 
Q 26.265625 48.1875 28.421875 48.1875 
Q 40.625 48.1875 47.75 41.5 
Q 54.890625 34.8125 54.890625 23.390625 
Q 54.890625 11.625 47.5625 5.09375 
Q 40.234375 -1.421875 26.90625 -1.421875 
Q 22.3125 -1.421875 17.546875 -0.640625 
Q 12.796875 0.140625 7.71875 1.703125 
L 7.71875 11.625 
Q 12.109375 9.234375 16.796875 8.0625 
Q 21.484375 6.890625 26.703125 6.890625 
Q 35.15625 6.890625 40.078125 11.328125 
Q 45.015625 15.765625 45.015625 23.390625 
Q 45.015625 31 40.078125 35.4375 
Q 35.15625 39.890625 26.703125 39.890625 
Q 22.75 39.890625 18.8125 39.015625 
Q 14.890625 38.140625 10.796875 36.28125 
z
" id="DejaVuSans-35"/>
      </defs>
      <g transform="translate(94.319466 322.182437)scale(0.1 -0.1)">
       <use xlink:href="#DejaVuSans-2212"/>
       <use x="83.789062" xlink:href="#DejaVuSans-31"/>
       <use x="147.412109" xlink:href="#DejaVuSans-35"/>
       <use x="211.035156" xlink:href="#DejaVuSans-30"/>
       <use x="274.658203" xlink:href="#DejaVuSans-30"/>
       <use x="338.28125" xlink:href="#DejaVuSans-30"/>
      </g>
     </g>
    </g>
    <g id="xtick_3">
     <g id="line2d_3">
      <g>
       <use style="stroke:#000000;stroke-width:0.8;" x="154.998393" xlink:href="#mc150b40225" y="307.584"/>
      </g>
     </g>
     <g id="text_3">
      <!-- −10000 -->
      <g transform="translate(134.902299 322.182437)scale(0.1 -0.1)">
       <use xlink:href="#DejaVuSans-2212"/>
       <use x="83.789062" xlink:href="#DejaVuSans-31"/>
       <use x="147.412109" xlink:href="#DejaVuSans-30"/>
       <use x="211.035156" xlink:href="#DejaVuSans-30"/>
       <use x="274.658203" xlink:href="#DejaVuSans-30"/>
       <use x="338.28125" xlink:href="#DejaVuSans-30"/>
      </g>
     </g>
    </g>
    <g id="xtick_4">
     <g id="line2d_4">
      <g>
       <use style="stroke:#000000;stroke-width:0.8;" x="195.581226" xlink:href="#mc150b40225" y="307.584"/>
      </g>
     </g>
     <g id="text_4">
      <!-- −5000 -->
      <g transform="translate(178.666382 322.182437)scale(0.1 -0.1)">
       <use xlink:href="#DejaVuSans-2212"/>
       <use x="83.789062" xlink:href="#DejaVuSans-35"/>
       <use x="147.412109" xlink:href="#DejaVuSans-30"/>
       <use x="211.035156" xlink:href="#DejaVuSans-30"/>
       <use x="274.658203" xlink:href="#DejaVuSans-30"/>
      </g>
     </g>
    </g>
    <g id="xtick_5">
     <g id="line2d_5">
      <g>
       <use style="stroke:#000000;stroke-width:0.8;" x="236.164058" xlink:href="#mc150b40225" y="307.584"/>
      </g>
     </g>
     <g id="text_5">
      <!-- 0 -->
      <g transform="translate(232.982808 322.182437)scale(0.1 -0.1)">
       <use xlink:href="#DejaVuSans-30"/>
      </g>
     </g>
    </g>
    <g id="xtick_6">
     <g id="line2d_6">
      <g>
       <use style="stroke:#000000;stroke-width:0.8;" x="276.746891" xlink:href="#mc150b40225" y="307.584"/>
      </g>
     </g>
     <g id="text_6">
      <!-- 5000 -->
      <g transform="translate(264.021891 322.182437)scale(0.1 -0.1)">
       <use xlink:href="#DejaVuSans-35"/>
       <use x="63.623047" xlink:href="#DejaVuSans-30"/>
       <use x="127.246094" xlink:href="#DejaVuSans-30"/>
       <use x="190.869141" xlink:href="#DejaVuSans-30"/>
      </g>
     </g>
    </g>
    <g id="xtick_7">
     <g id="line2d_7">
      <g>
       <use style="stroke:#000000;stroke-width:0.8;" x="317.329724" xlink:href="#mc150b40225" y="307.584"/>
      </g>
     </g>
     <g id="text_7">
      <!-- 10000 -->
      <g transform="translate(301.423474 322.182437)scale(0.1 -0.1)">
       <use xlink:href="#DejaVuSans-31"/>
       <use x="63.623047" xlink:href="#DejaVuSans-30"/>
       <use x="127.246094" xlink:href="#DejaVuSans-30"/>
       <use x="190.869141" xlink:href="#DejaVuSans-30"/>
       <use x="254.492188" xlink:href="#DejaVuSans-30"/>
      </g>
     </g>
    </g>
    <g id="xtick_8">
     <g id="line2d_8">
      <g>
       <use style="stroke:#000000;stroke-width:0.8;" x="357.912557" xlink:href="#mc150b40225" y="307.584"/>
      </g>
     </g>
     <g id="text_8">
      <!-- 15000 -->
      <g transform="translate(342.006307 322.182437)scale(0.1 -0.1)">
       <use xlink:href="#DejaVuSans-31"/>
       <use x="63.623047" xlink:href="#DejaVuSans-35"/>
       <use x="127.246094" xlink:href="#DejaVuSans-30"/>
       <use x="190.869141" xlink:href="#DejaVuSans-30"/>
       <use x="254.492188" xlink:href="#DejaVuSans-30"/>
      </g>
     </g>
    </g>
    <g id="xtick_9">
     <g id="line2d_9">
      <g>
       <use style="stroke:#000000;stroke-width:0.8;" x="398.495389" xlink:href="#mc150b40225" y="307.584"/>
      </g>
     </g>
     <g id="text_9">
      <!-- 20000 -->
      <g transform="translate(382.589139 322.182437)scale(0.1 -0.1)">
       <use xlink:href="#DejaVuSans-32"/>
       <use x="63.623047" xlink:href="#DejaVuSans-30"/>
       <use x="127.246094" xlink:href="#DejaVuSans-30"/>
       <use x="190.869141" xlink:href="#DejaVuSans-30"/>
       <use x="254.492188" xlink:href="#DejaVuSans-30"/>
      </g>
     </g>
    </g>
   </g>
   <g id="matplotlib.axis_2">
    <g id="ytick_1">
     <g id="line2d_10">
      <defs>
       <path d="M 0 0 
L -3.5 0 
" id="m430300c46f" style="stroke:#000000;stroke-width:0.8;"/>
      </defs>
      <g>
       <use style="stroke:#000000;stroke-width:0.8;" x="57.6" xlink:href="#m430300c46f" y="288.281921"/>
      </g>
     </g>
     <g id="text_10">
      <!-- −0.2 -->
      <defs>
       <path d="M 10.6875 12.40625 
L 21 12.40625 
L 21 0 
L 10.6875 0 
z
" id="DejaVuSans-2e"/>
      </defs>
      <g transform="translate(26.317187 292.08114)scale(0.1 -0.1)">
       <use xlink:href="#DejaVuSans-2212"/>
       <use x="83.789062" xlink:href="#DejaVuSans-30"/>
       <use x="147.412109" xlink:href="#DejaVuSans-2e"/>
       <use x="179.199219" xlink:href="#DejaVuSans-32"/>
      </g>
     </g>
    </g>
    <g id="ytick_2">
     <g id="line2d_11">
      <g>
       <use style="stroke:#000000;stroke-width:0.8;" x="57.6" xlink:href="#m430300c46f" y="249.134707"/>
      </g>
     </g>
     <g id="text_11">
      <!-- 0.0 -->
      <g transform="translate(34.696875 252.933925)scale(0.1 -0.1)">
       <use xlink:href="#DejaVuSans-30"/>
       <use x="63.623047" xlink:href="#DejaVuSans-2e"/>
       <use x="95.410156" xlink:href="#DejaVuSans-30"/>
      </g>
     </g>
    </g>
    <g id="ytick_3">
     <g id="line2d_12">
      <g>
       <use style="stroke:#000000;stroke-width:0.8;" x="57.6" xlink:href="#m430300c46f" y="209.987492"/>
      </g>
     </g>
     <g id="text_12">
      <!-- 0.2 -->
      <g transform="translate(34.696875 213.786711)scale(0.1 -0.1)">
       <use xlink:href="#DejaVuSans-30"/>
       <use x="63.623047" xlink:href="#DejaVuSans-2e"/>
       <use x="95.410156" xlink:href="#DejaVuSans-32"/>
      </g>
     </g>
    </g>
    <g id="ytick_4">
     <g id="line2d_13">
      <g>
       <use style="stroke:#000000;stroke-width:0.8;" x="57.6" xlink:href="#m430300c46f" y="170.840277"/>
      </g>
     </g>
     <g id="text_13">
      <!-- 0.4 -->
      <defs>
       <path d="M 37.796875 64.3125 
L 12.890625 25.390625 
L 37.796875 25.390625 
z
M 35.203125 72.90625 
L 47.609375 72.90625 
L 47.609375 25.390625 
L 58.015625 25.390625 
L 58.015625 17.1875 
L 47.609375 17.1875 
L 47.609375 0 
L 37.796875 0 
L 37.796875 17.1875 
L 4.890625 17.1875 
L 4.890625 26.703125 
z
" id="DejaVuSans-34"/>
      </defs>
      <g transform="translate(34.696875 174.639496)scale(0.1 -0.1)">
       <use xlink:href="#DejaVuSans-30"/>
       <use x="63.623047" xlink:href="#DejaVuSans-2e"/>
       <use x="95.410156" xlink:href="#DejaVuSans-34"/>
      </g>
     </g>
    </g>
    <g id="ytick_5">
     <g id="line2d_14">
      <g>
       <use style="stroke:#000000;stroke-width:0.8;" x="57.6" xlink:href="#m430300c46f" y="131.693063"/>
      </g>
     </g>
     <g id="text_14">
      <!-- 0.6 -->
      <defs>
       <path d="M 33.015625 40.375 
Q 26.375 40.375 22.484375 35.828125 
Q 18.609375 31.296875 18.609375 23.390625 
Q 18.609375 15.53125 22.484375 10.953125 
Q 26.375 6.390625 33.015625 6.390625 
Q 39.65625 6.390625 43.53125 10.953125 
Q 47.40625 15.53125 47.40625 23.390625 
Q 47.40625 31.296875 43.53125 35.828125 
Q 39.65625 40.375 33.015625 40.375 
z
M 52.59375 71.296875 
L 52.59375 62.3125 
Q 48.875 64.0625 45.09375 64.984375 
Q 41.3125 65.921875 37.59375 65.921875 
Q 27.828125 65.921875 22.671875 59.328125 
Q 17.53125 52.734375 16.796875 39.40625 
Q 19.671875 43.65625 24.015625 45.921875 
Q 28.375 48.1875 33.59375 48.1875 
Q 44.578125 48.1875 50.953125 41.515625 
Q 57.328125 34.859375 57.328125 23.390625 
Q 57.328125 12.15625 50.6875 5.359375 
Q 44.046875 -1.421875 33.015625 -1.421875 
Q 20.359375 -1.421875 13.671875 8.265625 
Q 6.984375 17.96875 6.984375 36.375 
Q 6.984375 53.65625 15.1875 63.9375 
Q 23.390625 74.21875 37.203125 74.21875 
Q 40.921875 74.21875 44.703125 73.484375 
Q 48.484375 72.75 52.59375 71.296875 
z
" id="DejaVuSans-36"/>
      </defs>
      <g transform="translate(34.696875 135.492281)scale(0.1 -0.1)">
       <use xlink:href="#DejaVuSans-30"/>
       <use x="63.623047" xlink:href="#DejaVuSans-2e"/>
       <use x="95.410156" xlink:href="#DejaVuSans-36"/>
      </g>
     </g>
    </g>
    <g id="ytick_6">
     <g id="line2d_15">
      <g>
       <use style="stroke:#000000;stroke-width:0.8;" x="57.6" xlink:href="#m430300c46f" y="92.545848"/>
      </g>
     </g>
     <g id="text_15">
      <!-- 0.8 -->
      <defs>
       <path d="M 31.78125 34.625 
Q 24.75 34.625 20.71875 30.859375 
Q 16.703125 27.09375 16.703125 20.515625 
Q 16.703125 13.921875 20.71875 10.15625 
Q 24.75 6.390625 31.78125 6.390625 
Q 38.8125 6.390625 42.859375 10.171875 
Q 46.921875 13.96875 46.921875 20.515625 
Q 46.921875 27.09375 42.890625 30.859375 
Q 38.875 34.625 31.78125 34.625 
z
M 21.921875 38.8125 
Q 15.578125 40.375 12.03125 44.71875 
Q 8.5 49.078125 8.5 55.328125 
Q 8.5 64.0625 14.71875 69.140625 
Q 20.953125 74.21875 31.78125 74.21875 
Q 42.671875 74.21875 48.875 69.140625 
Q 55.078125 64.0625 55.078125 55.328125 
Q 55.078125 49.078125 51.53125 44.71875 
Q 48 40.375 41.703125 38.8125 
Q 48.828125 37.15625 52.796875 32.3125 
Q 56.78125 27.484375 56.78125 20.515625 
Q 56.78125 9.90625 50.3125 4.234375 
Q 43.84375 -1.421875 31.78125 -1.421875 
Q 19.734375 -1.421875 13.25 4.234375 
Q 6.78125 9.90625 6.78125 20.515625 
Q 6.78125 27.484375 10.78125 32.3125 
Q 14.796875 37.15625 21.921875 38.8125 
z
M 18.3125 54.390625 
Q 18.3125 48.734375 21.84375 45.5625 
Q 25.390625 42.390625 31.78125 42.390625 
Q 38.140625 42.390625 41.71875 45.5625 
Q 45.3125 48.734375 45.3125 54.390625 
Q 45.3125 60.0625 41.71875 63.234375 
Q 38.140625 66.40625 31.78125 66.40625 
Q 25.390625 66.40625 21.84375 63.234375 
Q 18.3125 60.0625 18.3125 54.390625 
z
" id="DejaVuSans-38"/>
      </defs>
      <g transform="translate(34.696875 96.345067)scale(0.1 -0.1)">
       <use xlink:href="#DejaVuSans-30"/>
       <use x="63.623047" xlink:href="#DejaVuSans-2e"/>
       <use x="95.410156" xlink:href="#DejaVuSans-38"/>
      </g>
     </g>
    </g>
    <g id="ytick_7">
     <g id="line2d_16">
      <g>
       <use style="stroke:#000000;stroke-width:0.8;" x="57.6" xlink:href="#m430300c46f" y="53.398633"/>
      </g>
     </g>
     <g id="text_16">
      <!-- 1.0 -->
      <g transform="translate(34.696875 57.197852)scale(0.1 -0.1)">
       <use xlink:href="#DejaVuSans-31"/>
       <use x="63.623047" xlink:href="#DejaVuSans-2e"/>
       <use x="95.410156" xlink:href="#DejaVuSans-30"/>
      </g>
     </g>
    </g>
   </g>
   <g id="line2d_17">
    <path clip-path="url(#p32ac9672cc)" d="M 73.832727 244.43909 
L 74.254789 244.242808 
L 74.514519 244.383414 
L 75.318059 244.908792 
L 75.602139 244.787162 
L 75.81317 244.329086 
L 76.137832 242.77392 
L 76.59236 238.960978 
L 77.339084 229.876805 
L 78.037109 221.958933 
L 78.694551 216.190713 
L 79.425042 212.181076 
L 79.725355 211.694033 
L 79.847103 211.750242 
L 80.171766 212.595245 
L 80.553244 214.554536 
L 81.770729 221.04486 
L 82.26584 222.538304 
L 82.939515 223.636219 
L 83.84857 226.729943 
L 84.359914 229.086478 
L 85.098522 233.952092 
L 87.054614 246.404429 
L 87.39551 247.343682 
L 88.166584 249.358012 
L 88.612995 250.298843 
L 89.148688 251.065837 
L 90.276891 252.91962 
L 90.788235 254.70006 
L 91.258996 257.140992 
L 92.103119 261.926434 
L 92.476481 262.9766 
L 92.736211 263.371666 
L 92.922892 263.286927 
L 93.142039 262.856818 
L 93.361186 261.947101 
L 94.757236 254.466507 
L 95.163064 253.394935 
L 95.374095 253.382903 
L 96.177635 253.716199 
L 96.632163 254.308593 
L 96.964942 254.480878 
L 97.167856 254.383816 
L 97.378887 253.953613 
L 98.580139 250.860157 
L 99.067133 249.084241 
L 99.52166 247.601353 
L 100.495648 245.529425 
L 100.787845 245.570983 
L 100.94206 245.866288 
L 101.599501 248.098578 
L 102.013446 250.336936 
L 102.476091 252.487615 
L 102.881919 253.117646 
L 103.425729 253.758662 
L 103.734158 253.770077 
L 103.937073 253.732259 
L 104.188686 253.459241 
L 104.886711 251.83178 
L 105.511687 250.174953 
L 105.998681 249.789342 
L 106.372043 250.082123 
L 106.648006 250.644352 
L 107.070067 251.996337 
L 108.595982 258.745969 
L 108.790779 258.787767 
L 109.480688 258.230221 
L 110.836154 256.01036 
L 111.030952 256.103658 
L 111.331265 256.585813 
L 111.599111 257.659224 
L 112.987044 263.786234 
L 114.245112 266.545572 
L 114.561658 266.777622 
L 114.837621 266.483217 
L 115.048652 266.102944 
L 115.422014 264.916068 
L 116.379769 262.113425 
L 116.655732 261.851506 
L 116.988512 261.870711 
L 117.264475 261.864585 
L 117.499855 262.137753 
L 118.116714 263.868619 
L 118.676757 265.27577 
L 118.944604 265.460167 
L 119.115052 265.369494 
L 119.317966 265.059372 
L 119.626396 264.133551 
L 120.129623 261.64456 
L 120.989979 257.480716 
L 121.485089 256.272132 
L 121.785402 255.839142 
L 122.045133 255.787905 
L 122.207464 255.941192 
L 122.450961 256.585012 
L 122.889256 258.573725 
L 123.376249 261.826503 
L 124.829115 273.227368 
L 125.121311 273.919707 
L 125.332342 274.106382 
L 125.575839 274.183008 
L 125.884269 274.391736 
L 126.208931 275.044999 
L 126.671576 276.542956 
L 127.15857 279.380109 
L 128.075742 285.363203 
L 129.975018 294.887698 
L 130.291564 295.488 
L 130.470129 295.369423 
L 130.737975 294.873485 
L 131.119454 293.850808 
L 131.500933 292.538984 
L 132.085325 290.501236 
L 132.491154 289.319423 
L 133.30281 287.187731 
L 134.633927 284.139543 
L 135.072222 282.305837 
L 135.429351 279.778436 
L 136.346523 270.182189 
L 137.637057 254.883959 
L 138.473063 246.637671 
L 139.276603 241.097297 
L 140.193775 235.781778 
L 140.729469 230.964405 
L 142.2635 214.698374 
L 142.791077 211.30278 
L 143.245604 210.054639 
L 143.740715 209.70587 
L 144.000445 210.120128 
L 144.72282 212.472716 
L 146.126986 218.130863 
L 146.427299 218.585436 
L 146.711378 218.480773 
L 146.995458 217.622598 
L 147.620434 215.091743 
L 148.724287 208.844094 
L 149.065183 208.076098 
L 149.381729 208.000176 
L 149.527827 208.260321 
L 149.982355 210.025634 
L 150.712846 213.765072 
L 151.621901 218.250462 
L 151.962797 218.708154 
L 152.133245 218.81561 
L 152.457907 219.303879 
L 152.733871 219.851333 
L 154.040638 223.034505 
L 154.487049 225.798685 
L 154.998393 231.068815 
L 156.32951 244.547714 
L 157.051884 249.34125 
L 157.482062 250.882096 
L 157.806725 251.471154 
L 158.115154 251.444602 
L 158.512866 250.973195 
L 158.707664 250.332386 
L 158.983627 248.78737 
L 159.56802 245.455077 
L 160.030664 244.032188 
L 160.566357 243.155694 
L 160.785505 243.183846 
L 161.442947 243.556079 
L 161.848775 243.588064 
L 162.100389 243.962609 
L 162.579266 244.6598 
L 162.765947 244.614285 
L 163.252941 244.223063 
L 163.56137 243.877353 
L 163.796751 243.215436 
L 164.275628 241.441597 
L 165.184684 238.494323 
L 165.395715 238.268244 
L 165.655445 238.316328 
L 165.825893 238.81672 
L 166.394052 241.056613 
L 167.579071 245.43368 
L 167.830684 245.626327 
L 168.130997 245.779086 
L 168.43131 246.129569 
L 168.942654 246.866698 
L 169.137452 246.862581 
L 169.421532 246.669859 
L 169.616329 246.623774 
L 169.746194 246.531373 
L 170.005924 246.372222 
L 170.37117 246.063563 
L 171.483139 245.026785 
L 171.897084 245.010405 
L 172.083765 245.383427 
L 172.367845 246.467388 
L 173.228201 249.896587 
L 173.650263 250.87394 
L 174.161606 251.474969 
L 174.323938 251.384728 
L 174.6486 251.164889 
L 174.835281 251.18328 
L 175.046312 251.418726 
L 175.354742 251.633946 
L 175.671288 251.647872 
L 176.060883 251.811593 
L 176.442362 251.941886 
L 176.685859 251.653987 
L 176.994288 251.286405 
L 177.172853 251.410596 
L 177.392 252.004558 
L 178.357871 255.472615 
L 179.315626 261.22121 
L 180.005534 264.260889 
L 180.427596 265.03405 
L 180.671093 265.038355 
L 180.841541 264.855331 
L 181.612614 263.6674 
L 181.839878 263.694607 
L 182.513553 264.947672 
L 182.813866 266.369929 
L 183.576824 270.251672 
L 184.737493 274.767826 
L 185.573499 277.035015 
L 186.190358 278.568235 
L 186.409505 278.629629 
L 186.799101 278.726318 
L 187.351027 279.966052 
L 188.97434 285.099805 
L 189.144788 284.936555 
L 189.501917 284.050895 
L 189.948328 282.10976 
L 190.484022 278.570396 
L 191.441777 269.91585 
L 193.162489 253.453566 
L 193.519618 252.206332 
L 193.754998 252.09542 
L 193.901096 252.221384 
L 194.526072 253.281994 
L 195.134814 254.824403 
L 195.727324 256.496234 
L 196.214318 256.899725 
L 196.376649 257.061501 
L 196.636379 257.212034 
L 196.814944 257.114359 
L 197.374987 256.716293 
L 197.569784 257.018621 
L 198.105478 258.16691 
L 198.45449 259.731123 
L 199.23368 263.435863 
L 201.230356 270.629015 
L 201.45762 270.784517 
L 201.676767 270.841997 
L 201.830982 270.826446 
L 202.033896 270.394365 
L 202.366675 268.983405 
L 203.519228 262.821303 
L 203.795191 262.675548 
L 203.949406 262.738705 
L 204.15232 263.173447 
L 204.420167 264.480339 
L 204.850345 267.481952 
L 206.351909 278.846558 
L 206.611639 279.311587 
L 206.627873 279.30251 
L 206.733388 279.144148 
L 206.879486 278.698623 
L 207.244732 276.734661 
L 207.902174 271.17219 
L 208.884278 263.190525 
L 210.458892 253.79392 
L 210.88907 252.985698 
L 211.351714 252.390184 
L 211.505929 252.213548 
L 211.903641 251.184131 
L 212.763997 247.453136 
L 213.729868 243.479154 
L 214.200629 242.533101 
L 214.736323 242.041398 
L 214.858071 242.283278 
L 216.603133 246.998633 
L 216.87098 247.131925 
L 217.187526 247.211876 
L 217.36609 247.496977 
L 217.67452 247.914559 
L 218.42936 248.216467 
L 218.786489 248.457106 
L 219.176084 248.672954 
L 219.630612 249.72976 
L 219.947158 251.761981 
L 220.36922 255.559872 
L 221.042895 263.150325 
L 221.862668 271.937043 
L 222.268496 274.486651 
L 222.568809 275.321055 
L 222.828539 275.48328 
L 222.958405 275.294667 
L 223.210018 274.602957 
L 223.550914 273.086932 
L 224.054141 270.007624 
L 225.036246 263.6242 
L 226.131982 258.261859 
L 226.732608 256.334332 
L 226.984222 255.610503 
L 227.268301 254.177361 
L 227.795878 250.144093 
L 228.258522 244.553373 
L 228.891615 233.218859 
L 231.943444 176.33394 
L 232.811916 159.451606 
L 233.501824 142.329183 
L 234.459579 112.537151 
L 236.155942 53.568 
L 236.180291 53.989491 
L 236.504954 61.755296 
L 237.12993 83.62323 
L 238.599028 136.190408 
L 239.556783 160.633455 
L 240.595704 180.076394 
L 242.194667 207.730729 
L 244.093944 245.080753 
L 244.564705 250.591018 
L 245.051699 254.238449 
L 245.481877 256.122581 
L 245.985104 257.577705 
L 246.658779 260.020792 
L 247.170123 262.812172 
L 248.517473 271.694813 
L 249.036933 274.439313 
L 249.442761 275.637158 
L 249.613209 275.720642 
L 249.840473 275.448894 
L 250.05962 274.784726 
L 250.376166 273.000688 
L 251.009259 266.692902 
L 252.551406 250.722691 
L 252.876069 249.285957 
L 253.34683 248.565992 
L 253.768891 248.407149 
L 253.963689 248.159349 
L 254.166603 248.088016 
L 254.393867 248.141779 
L 254.759112 247.938277 
L 255.026959 247.468217 
L 255.286689 247.230231 
L 255.587002 247.209141 
L 255.798033 246.95497 
L 257.096683 243.541815 
L 257.640493 242.034128 
L 257.835291 242.18794 
L 258.866095 244.281187 
L 259.369322 246.461385 
L 260.205328 250.242048 
L 260.692322 251.848832 
L 261.154967 252.556633 
L 262.031556 254.280252 
L 262.437384 256.296591 
L 262.973078 260.122018 
L 264.547692 272.252258 
L 265.229483 277.711276 
L 265.627195 279.245719 
L 265.765176 279.363968 
L 265.789526 279.340331 
L 266.008673 278.835159 
L 266.227821 277.894061 
L 266.731048 274.173387 
L 268.21638 263.414626 
L 268.467993 263.031252 
L 268.727723 263.039768 
L 268.930637 263.439662 
L 269.239067 264.561099 
L 270.456552 271.080446 
L 270.618883 271.147209 
L 271.138344 270.761948 
L 271.66592 268.963189 
L 272.225963 267.112246 
L 273.199951 263.204863 
L 273.946676 259.433038 
L 274.376854 257.860879 
L 275.009946 256.655423 
L 275.220977 256.658317 
L 275.407658 256.922808 
L 275.691737 257.102327 
L 275.943351 256.951591 
L 276.268014 256.694809 
L 276.706308 256.189443 
L 277.07967 255.086293 
L 277.599131 253.51094 
L 277.802045 253.113139 
L 278.086125 252.64349 
L 278.743566 251.908241 
L 278.873431 252.11995 
L 279.060113 252.761172 
L 279.441591 255.081576 
L 280.009751 260.407015 
L 281.827862 278.342575 
L 282.436604 282.245194 
L 282.923598 284.267788 
L 283.272611 284.943856 
L 283.394359 284.978068 
L 283.418709 284.95373 
L 283.662206 284.373335 
L 285.009556 279.68861 
L 285.415384 278.799147 
L 285.691347 278.544761 
L 286.227041 278.369953 
L 286.600403 277.405887 
L 287.801655 274.023999 
L 288.239949 272.261369 
L 288.913624 269.603617 
L 289.481784 266.523159 
L 289.911962 264.59403 
L 290.236625 263.967143 
L 290.674919 263.602065 
L 290.829134 263.694322 
L 291.12133 264.155469 
L 291.640791 265.058211 
L 291.868055 265.08883 
L 292.038502 264.949823 
L 292.25765 264.470256 
L 292.744644 262.677636 
L 293.548184 258.21848 
L 294.457239 253.160261 
L 295.317595 251.162107 
L 295.455577 251.270031 
L 296.031853 251.823232 
L 296.502614 251.612854 
L 296.875976 251.481278 
L 297.062657 251.408898 
L 297.36297 251.054439 
L 297.638933 250.916167 
L 297.914897 251.043114 
L 298.158394 251.243195 
L 298.393774 251.093885 
L 298.621038 250.744533 
L 299.010633 249.89992 
L 299.359645 248.564161 
L 300.439149 244.715649 
L 300.690762 244.66928 
L 301.648517 245.422278 
L 302.094928 245.985336 
L 303.32053 246.65704 
L 303.588377 246.358523 
L 303.880573 245.930304 
L 304.14842 245.613069 
L 304.700346 245.264263 
L 305.057475 244.396392 
L 305.463303 242.876818 
L 306.623973 238.131386 
L 306.81877 237.953971 
L 307.062267 238.128366 
L 307.354463 238.865864 
L 308.920961 243.957093 
L 309.724501 244.565786 
L 309.951765 244.366181 
L 310.64979 243.429228 
L 310.86082 243.51649 
L 311.185483 243.509191 
L 311.834808 243.222279 
L 312.021489 243.497942 
L 312.662698 245.121004 
L 313.190275 247.842479 
L 313.807134 250.946108 
L 314.091214 251.293858 
L 314.448343 251.462858 
L 314.651257 251.254967 
L 314.984036 250.416353 
L 315.349282 248.956613 
L 315.958024 244.95759 
L 316.607349 239.047933 
L 318.003399 224.716672 
L 318.514743 222.339969 
L 319.853976 219.474087 
L 320.730565 218.314269 
L 320.957829 217.568375 
L 321.347424 215.514245 
L 322.077915 211.437536 
L 322.913922 208.212043 
L 323.116836 208.144208 
L 323.368449 208.388209 
L 323.684995 209.397274 
L 324.196339 212.204222 
L 325.316425 217.880847 
L 325.689787 218.856781 
L 325.981984 218.868059 
L 326.209248 218.424153 
L 326.631309 217.000195 
L 328.42507 210.111214 
L 328.70915 209.803554 
L 328.928297 210.025355 
L 329.301659 210.583087 
L 329.658788 211.914823 
L 329.926635 213.681145 
L 330.697709 220.524083 
L 331.298335 227.616884 
L 331.963893 234.720017 
L 332.678151 239.533449 
L 333.392409 243.398176 
L 334.155366 249.56691 
L 335.096888 259.747584 
L 336.947465 280.415363 
L 337.38576 283.106223 
L 337.962036 284.937989 
L 338.635711 286.199315 
L 339.22822 287.583543 
L 339.674632 288.776199 
L 341.94727 295.351519 
L 342.125835 295.344587 
L 342.288166 295.024584 
L 342.612829 293.777113 
L 344.049461 286.424943 
L 344.92605 281.244013 
L 345.624075 276.725142 
L 346.021787 275.329869 
L 346.508781 274.364608 
L 346.79286 274.212858 
L 347.312321 273.868013 
L 347.531468 273.257401 
L 347.831781 271.594745 
L 348.310658 267.755151 
L 349.382045 259.163491 
L 349.917738 256.749128 
L 350.226168 256.151503 
L 350.518364 256.184933 
L 350.729395 256.395272 
L 351.289438 257.666686 
L 351.630334 258.974239 
L 352.977684 265.309242 
L 353.26988 265.700336 
L 353.480911 265.732279 
L 353.748758 265.376465 
L 355.063642 262.085756 
L 355.834716 262.021024 
L 356.070096 262.466905 
L 356.735654 264.667795 
L 357.425563 266.517136 
L 357.855741 266.893338 
L 358.034305 266.720794 
L 358.626814 265.781167 
L 358.951477 264.937712 
L 359.933582 261.780269 
L 361.183533 256.381163 
L 361.475729 256.138215 
L 361.71111 256.280243 
L 362.149404 257.079423 
L 362.660748 258.093 
L 363.545454 258.964857 
L 363.764601 258.84211 
L 363.999981 258.216745 
L 364.519442 255.987772 
L 364.909037 253.997218 
L 365.404147 251.537689 
L 365.858675 250.352336 
L 366.191454 250.01881 
L 366.53235 249.953853 
L 366.719031 250.203474 
L 367.214142 251.395458 
L 367.717369 252.99438 
L 368.033915 253.650388 
L 368.374811 254.052558 
L 368.894271 254.102999 
L 369.105302 253.931747 
L 369.900725 252.610304 
L 370.347136 250.382942 
L 370.996462 247.222942 
L 371.532155 245.738005 
L 371.759419 245.630314 
L 371.978566 245.725726 
L 373.00937 248.302482 
L 374.600217 253.302346 
L 375.411874 254.485627 
L 375.695954 254.266856 
L 376.596893 253.348749 
L 377.002721 253.228496 
L 377.189402 253.282917 
L 377.392316 253.712529 
L 377.895543 255.749906 
L 378.455586 258.858029 
L 379.307826 263.057618 
L 379.575673 263.309651 
L 379.705538 263.229382 
L 380.070783 262.475165 
L 380.419796 261.09876 
L 380.776925 259.020274 
L 381.572348 254.437984 
L 382.25414 252.312083 
L 382.619385 251.742686 
L 383.00898 251.28603 
L 383.55279 250.559043 
L 383.942385 250.073654 
L 384.283281 249.179101 
L 385.005656 247.30402 
L 385.216686 246.727104 
L 385.663098 244.638696 
L 386.369239 240.159592 
L 387.951969 229.171509 
L 388.528246 226.629116 
L 389.072056 224.600644 
L 389.567166 223.15054 
L 389.899945 222.79279 
L 390.273307 222.118648 
L 390.8577 219.657291 
L 391.409627 216.515981 
L 392.261866 212.038956 
L 392.545946 211.52925 
L 392.659578 211.612895 
L 392.927425 212.096616 
L 393.252087 213.60044 
L 393.885179 218.004863 
L 394.591321 224.96245 
L 395.191947 232.450794 
L 395.971137 241.057436 
L 396.450015 243.975414 
L 396.750327 244.672917 
L 397.05064 244.751384 
L 397.33472 244.559608 
L 397.683733 244.240355 
L 397.967812 244.039545 
L 398.324941 244.143924 
L 398.487273 244.230115 
L 398.487273 244.230115 
" style="fill:none;stroke:#000000;stroke-linecap:square;stroke-width:4;"/>
   </g>
   <g id="patch_3">
    <path d="M 57.6 307.584 
L 57.6 41.472 
" style="fill:none;stroke:#000000;stroke-linecap:square;stroke-linejoin:miter;stroke-width:0.8;"/>
   </g>
   <g id="patch_4">
    <path d="M 414.72 307.584 
L 414.72 41.472 
" style="fill:none;stroke:#000000;stroke-linecap:square;stroke-linejoin:miter;stroke-width:0.8;"/>
   </g>
   <g id="patch_5">
    <path d="M 57.6 307.584 
L 414.72 307.584 
" style="fill:none;stroke:#000000;stroke-linecap:square;stroke-linejoin:miter;stroke-width:0.8;"/>
   </g>
   <g id="patch_6">
    <path d="M 57.6 41.472 
L 414.72 41.472 
" style="fill:none;stroke:#000000;stroke-linecap:square;stroke-linejoin:miter;stroke-width:0.8;"/>
   </g>
  </g>
 </g>
 <defs>
  <clipPath id="p32ac9672cc">
   <rect height="266.112" width="357.12" x="57.6" y="41.472"/>
  </clipPath>
 </defs>
</svg>
