<?xml version="1.0" encoding="utf-8" standalone="no"?>
<!DOCTYPE svg PUBLIC "-//W3C//DTD SVG 1.1//EN"
  "http://www.w3.org/Graphics/SVG/1.1/DTD/svg11.dtd">
<!-- Created with matplotlib (http://matplotlib.org/) -->
<svg height="345.6pt" version="1.1" viewBox="0 0 460.8 345.6" width="460.8pt" xmlns="http://www.w3.org/2000/svg" xmlns:xlink="http://www.w3.org/1999/xlink">
 <defs>
  <style type="text/css">
*{stroke-linecap:butt;stroke-linejoin:round;}
  </style>
 </defs>
 <g id="figure_1">
  <g id="patch_1">
   <path d="M 0 345.6 
L 460.8 345.6 
L 460.8 0 
L 0 0 
z
" style="fill:#ffffff;"/>
  </g>
  <g id="axes_1">
   <g id="patch_2">
    <path d="M 57.6 307.584 
L 414.72 307.584 
L 414.72 41.472 
L 57.6 41.472 
z
" style="fill:#ffffff;"/>
   </g>
   <g id="matplotlib.axis_1">
    <g id="xtick_1">
     <g id="line2d_1">
      <defs>
       <path d="M 0 0 
L 0 3.5 
" id="mf62b12e271" style="stroke:#000000;stroke-width:0.8;"/>
      </defs>
      <g>
       <use style="stroke:#000000;stroke-width:0.8;" x="73.832727" xlink:href="#mf62b12e271" y="307.584"/>
      </g>
     </g>
     <g id="text_1">
      <!-- −20000 -->
      <defs>
       <path d="M 10.59375 35.5 
L 73.1875 35.5 
L 73.1875 27.203125 
L 10.59375 27.203125 
z
" id="DejaVuSans-2212"/>
       <path d="M 19.1875 8.296875 
L 53.609375 8.296875 
L 53.609375 0 
L 7.328125 0 
L 7.328125 8.296875 
Q 12.9375 14.109375 22.625 23.890625 
Q 32.328125 33.6875 34.8125 36.53125 
Q 39.546875 41.84375 41.421875 45.53125 
Q 43.3125 49.21875 43.3125 52.78125 
Q 43.3125 58.59375 39.234375 62.25 
Q 35.15625 65.921875 28.609375 65.921875 
Q 23.96875 65.921875 18.8125 64.3125 
Q 13.671875 62.703125 7.8125 59.421875 
L 7.8125 69.390625 
Q 13.765625 71.78125 18.9375 73 
Q 24.125 74.21875 28.421875 74.21875 
Q 39.75 74.21875 46.484375 68.546875 
Q 53.21875 62.890625 53.21875 53.421875 
Q 53.21875 48.921875 51.53125 44.890625 
Q 49.859375 40.875 45.40625 35.40625 
Q 44.1875 33.984375 37.640625 27.21875 
Q 31.109375 20.453125 19.1875 8.296875 
z
" id="DejaVuSans-32"/>
       <path d="M 31.78125 66.40625 
Q 24.171875 66.40625 20.328125 58.90625 
Q 16.5 51.421875 16.5 36.375 
Q 16.5 21.390625 20.328125 13.890625 
Q 24.171875 6.390625 31.78125 6.390625 
Q 39.453125 6.390625 43.28125 13.890625 
Q 47.125 21.390625 47.125 36.375 
Q 47.125 51.421875 43.28125 58.90625 
Q 39.453125 66.40625 31.78125 66.40625 
z
M 31.78125 74.21875 
Q 44.046875 74.21875 50.515625 64.515625 
Q 56.984375 54.828125 56.984375 36.375 
Q 56.984375 17.96875 50.515625 8.265625 
Q 44.046875 -1.421875 31.78125 -1.421875 
Q 19.53125 -1.421875 13.0625 8.265625 
Q 6.59375 17.96875 6.59375 36.375 
Q 6.59375 54.828125 13.0625 64.515625 
Q 19.53125 74.21875 31.78125 74.21875 
z
" id="DejaVuSans-30"/>
      </defs>
      <g transform="translate(53.736634 322.182437)scale(0.1 -0.1)">
       <use xlink:href="#DejaVuSans-2212"/>
       <use x="83.789062" xlink:href="#DejaVuSans-32"/>
       <use x="147.412109" xlink:href="#DejaVuSans-30"/>
       <use x="211.035156" xlink:href="#DejaVuSans-30"/>
       <use x="274.658203" xlink:href="#DejaVuSans-30"/>
       <use x="338.28125" xlink:href="#DejaVuSans-30"/>
      </g>
     </g>
    </g>
    <g id="xtick_2">
     <g id="line2d_2">
      <g>
       <use style="stroke:#000000;stroke-width:0.8;" x="114.41556" xlink:href="#mf62b12e271" y="307.584"/>
      </g>
     </g>
     <g id="text_2">
      <!-- −15000 -->
      <defs>
       <path d="M 12.40625 8.296875 
L 28.515625 8.296875 
L 28.515625 63.921875 
L 10.984375 60.40625 
L 10.984375 69.390625 
L 28.421875 72.90625 
L 38.28125 72.90625 
L 38.28125 8.296875 
L 54.390625 8.296875 
L 54.390625 0 
L 12.40625 0 
z
" id="DejaVuSans-31"/>
       <path d="M 10.796875 72.90625 
L 49.515625 72.90625 
L 49.515625 64.59375 
L 19.828125 64.59375 
L 19.828125 46.734375 
Q 21.96875 47.46875 24.109375 47.828125 
Q 26.265625 48.1875 28.421875 48.1875 
Q 40.625 48.1875 47.75 41.5 
Q 54.890625 34.8125 54.890625 23.390625 
Q 54.890625 11.625 47.5625 5.09375 
Q 40.234375 -1.421875 26.90625 -1.421875 
Q 22.3125 -1.421875 17.546875 -0.640625 
Q 12.796875 0.140625 7.71875 1.703125 
L 7.71875 11.625 
Q 12.109375 9.234375 16.796875 8.0625 
Q 21.484375 6.890625 26.703125 6.890625 
Q 35.15625 6.890625 40.078125 11.328125 
Q 45.015625 15.765625 45.015625 23.390625 
Q 45.015625 31 40.078125 35.4375 
Q 35.15625 39.890625 26.703125 39.890625 
Q 22.75 39.890625 18.8125 39.015625 
Q 14.890625 38.140625 10.796875 36.28125 
z
" id="DejaVuSans-35"/>
      </defs>
      <g transform="translate(94.319466 322.182437)scale(0.1 -0.1)">
       <use xlink:href="#DejaVuSans-2212"/>
       <use x="83.789062" xlink:href="#DejaVuSans-31"/>
       <use x="147.412109" xlink:href="#DejaVuSans-35"/>
       <use x="211.035156" xlink:href="#DejaVuSans-30"/>
       <use x="274.658203" xlink:href="#DejaVuSans-30"/>
       <use x="338.28125" xlink:href="#DejaVuSans-30"/>
      </g>
     </g>
    </g>
    <g id="xtick_3">
     <g id="line2d_3">
      <g>
       <use style="stroke:#000000;stroke-width:0.8;" x="154.998393" xlink:href="#mf62b12e271" y="307.584"/>
      </g>
     </g>
     <g id="text_3">
      <!-- −10000 -->
      <g transform="translate(134.902299 322.182437)scale(0.1 -0.1)">
       <use xlink:href="#DejaVuSans-2212"/>
       <use x="83.789062" xlink:href="#DejaVuSans-31"/>
       <use x="147.412109" xlink:href="#DejaVuSans-30"/>
       <use x="211.035156" xlink:href="#DejaVuSans-30"/>
       <use x="274.658203" xlink:href="#DejaVuSans-30"/>
       <use x="338.28125" xlink:href="#DejaVuSans-30"/>
      </g>
     </g>
    </g>
    <g id="xtick_4">
     <g id="line2d_4">
      <g>
       <use style="stroke:#000000;stroke-width:0.8;" x="195.581226" xlink:href="#mf62b12e271" y="307.584"/>
      </g>
     </g>
     <g id="text_4">
      <!-- −5000 -->
      <g transform="translate(178.666382 322.182437)scale(0.1 -0.1)">
       <use xlink:href="#DejaVuSans-2212"/>
       <use x="83.789062" xlink:href="#DejaVuSans-35"/>
       <use x="147.412109" xlink:href="#DejaVuSans-30"/>
       <use x="211.035156" xlink:href="#DejaVuSans-30"/>
       <use x="274.658203" xlink:href="#DejaVuSans-30"/>
      </g>
     </g>
    </g>
    <g id="xtick_5">
     <g id="line2d_5">
      <g>
       <use style="stroke:#000000;stroke-width:0.8;" x="236.164058" xlink:href="#mf62b12e271" y="307.584"/>
      </g>
     </g>
     <g id="text_5">
      <!-- 0 -->
      <g transform="translate(232.982808 322.182437)scale(0.1 -0.1)">
       <use xlink:href="#DejaVuSans-30"/>
      </g>
     </g>
    </g>
    <g id="xtick_6">
     <g id="line2d_6">
      <g>
       <use style="stroke:#000000;stroke-width:0.8;" x="276.746891" xlink:href="#mf62b12e271" y="307.584"/>
      </g>
     </g>
     <g id="text_6">
      <!-- 5000 -->
      <g transform="translate(264.021891 322.182437)scale(0.1 -0.1)">
       <use xlink:href="#DejaVuSans-35"/>
       <use x="63.623047" xlink:href="#DejaVuSans-30"/>
       <use x="127.246094" xlink:href="#DejaVuSans-30"/>
       <use x="190.869141" xlink:href="#DejaVuSans-30"/>
      </g>
     </g>
    </g>
    <g id="xtick_7">
     <g id="line2d_7">
      <g>
       <use style="stroke:#000000;stroke-width:0.8;" x="317.329724" xlink:href="#mf62b12e271" y="307.584"/>
      </g>
     </g>
     <g id="text_7">
      <!-- 10000 -->
      <g transform="translate(301.423474 322.182437)scale(0.1 -0.1)">
       <use xlink:href="#DejaVuSans-31"/>
       <use x="63.623047" xlink:href="#DejaVuSans-30"/>
       <use x="127.246094" xlink:href="#DejaVuSans-30"/>
       <use x="190.869141" xlink:href="#DejaVuSans-30"/>
       <use x="254.492188" xlink:href="#DejaVuSans-30"/>
      </g>
     </g>
    </g>
    <g id="xtick_8">
     <g id="line2d_8">
      <g>
       <use style="stroke:#000000;stroke-width:0.8;" x="357.912557" xlink:href="#mf62b12e271" y="307.584"/>
      </g>
     </g>
     <g id="text_8">
      <!-- 15000 -->
      <g transform="translate(342.006307 322.182437)scale(0.1 -0.1)">
       <use xlink:href="#DejaVuSans-31"/>
       <use x="63.623047" xlink:href="#DejaVuSans-35"/>
       <use x="127.246094" xlink:href="#DejaVuSans-30"/>
       <use x="190.869141" xlink:href="#DejaVuSans-30"/>
       <use x="254.492188" xlink:href="#DejaVuSans-30"/>
      </g>
     </g>
    </g>
    <g id="xtick_9">
     <g id="line2d_9">
      <g>
       <use style="stroke:#000000;stroke-width:0.8;" x="398.495389" xlink:href="#mf62b12e271" y="307.584"/>
      </g>
     </g>
     <g id="text_9">
      <!-- 20000 -->
      <g transform="translate(382.589139 322.182437)scale(0.1 -0.1)">
       <use xlink:href="#DejaVuSans-32"/>
       <use x="63.623047" xlink:href="#DejaVuSans-30"/>
       <use x="127.246094" xlink:href="#DejaVuSans-30"/>
       <use x="190.869141" xlink:href="#DejaVuSans-30"/>
       <use x="254.492188" xlink:href="#DejaVuSans-30"/>
      </g>
     </g>
    </g>
   </g>
   <g id="matplotlib.axis_2">
    <g id="ytick_1">
     <g id="line2d_10">
      <defs>
       <path d="M 0 0 
L -3.5 0 
" id="mc582a48876" style="stroke:#000000;stroke-width:0.8;"/>
      </defs>
      <g>
       <use style="stroke:#000000;stroke-width:0.8;" x="57.6" xlink:href="#mc582a48876" y="295.275696"/>
      </g>
     </g>
     <g id="text_10">
      <!-- −0.2 -->
      <defs>
       <path d="M 10.6875 12.40625 
L 21 12.40625 
L 21 0 
L 10.6875 0 
z
" id="DejaVuSans-2e"/>
      </defs>
      <g transform="translate(26.317187 299.074915)scale(0.1 -0.1)">
       <use xlink:href="#DejaVuSans-2212"/>
       <use x="83.789062" xlink:href="#DejaVuSans-30"/>
       <use x="147.412109" xlink:href="#DejaVuSans-2e"/>
       <use x="179.199219" xlink:href="#DejaVuSans-32"/>
      </g>
     </g>
    </g>
    <g id="ytick_2">
     <g id="line2d_11">
      <g>
       <use style="stroke:#000000;stroke-width:0.8;" x="57.6" xlink:href="#mc582a48876" y="254.966857"/>
      </g>
     </g>
     <g id="text_11">
      <!-- 0.0 -->
      <g transform="translate(34.696875 258.766076)scale(0.1 -0.1)">
       <use xlink:href="#DejaVuSans-30"/>
       <use x="63.623047" xlink:href="#DejaVuSans-2e"/>
       <use x="95.410156" xlink:href="#DejaVuSans-30"/>
      </g>
     </g>
    </g>
    <g id="ytick_3">
     <g id="line2d_12">
      <g>
       <use style="stroke:#000000;stroke-width:0.8;" x="57.6" xlink:href="#mc582a48876" y="214.658019"/>
      </g>
     </g>
     <g id="text_12">
      <!-- 0.2 -->
      <g transform="translate(34.696875 218.457238)scale(0.1 -0.1)">
       <use xlink:href="#DejaVuSans-30"/>
       <use x="63.623047" xlink:href="#DejaVuSans-2e"/>
       <use x="95.410156" xlink:href="#DejaVuSans-32"/>
      </g>
     </g>
    </g>
    <g id="ytick_4">
     <g id="line2d_13">
      <g>
       <use style="stroke:#000000;stroke-width:0.8;" x="57.6" xlink:href="#mc582a48876" y="174.349181"/>
      </g>
     </g>
     <g id="text_13">
      <!-- 0.4 -->
      <defs>
       <path d="M 37.796875 64.3125 
L 12.890625 25.390625 
L 37.796875 25.390625 
z
M 35.203125 72.90625 
L 47.609375 72.90625 
L 47.609375 25.390625 
L 58.015625 25.390625 
L 58.015625 17.1875 
L 47.609375 17.1875 
L 47.609375 0 
L 37.796875 0 
L 37.796875 17.1875 
L 4.890625 17.1875 
L 4.890625 26.703125 
z
" id="DejaVuSans-34"/>
      </defs>
      <g transform="translate(34.696875 178.148399)scale(0.1 -0.1)">
       <use xlink:href="#DejaVuSans-30"/>
       <use x="63.623047" xlink:href="#DejaVuSans-2e"/>
       <use x="95.410156" xlink:href="#DejaVuSans-34"/>
      </g>
     </g>
    </g>
    <g id="ytick_5">
     <g id="line2d_14">
      <g>
       <use style="stroke:#000000;stroke-width:0.8;" x="57.6" xlink:href="#mc582a48876" y="134.040342"/>
      </g>
     </g>
     <g id="text_14">
      <!-- 0.6 -->
      <defs>
       <path d="M 33.015625 40.375 
Q 26.375 40.375 22.484375 35.828125 
Q 18.609375 31.296875 18.609375 23.390625 
Q 18.609375 15.53125 22.484375 10.953125 
Q 26.375 6.390625 33.015625 6.390625 
Q 39.65625 6.390625 43.53125 10.953125 
Q 47.40625 15.53125 47.40625 23.390625 
Q 47.40625 31.296875 43.53125 35.828125 
Q 39.65625 40.375 33.015625 40.375 
z
M 52.59375 71.296875 
L 52.59375 62.3125 
Q 48.875 64.0625 45.09375 64.984375 
Q 41.3125 65.921875 37.59375 65.921875 
Q 27.828125 65.921875 22.671875 59.328125 
Q 17.53125 52.734375 16.796875 39.40625 
Q 19.671875 43.65625 24.015625 45.921875 
Q 28.375 48.1875 33.59375 48.1875 
Q 44.578125 48.1875 50.953125 41.515625 
Q 57.328125 34.859375 57.328125 23.390625 
Q 57.328125 12.15625 50.6875 5.359375 
Q 44.046875 -1.421875 33.015625 -1.421875 
Q 20.359375 -1.421875 13.671875 8.265625 
Q 6.984375 17.96875 6.984375 36.375 
Q 6.984375 53.65625 15.1875 63.9375 
Q 23.390625 74.21875 37.203125 74.21875 
Q 40.921875 74.21875 44.703125 73.484375 
Q 48.484375 72.75 52.59375 71.296875 
z
" id="DejaVuSans-36"/>
      </defs>
      <g transform="translate(34.696875 137.839561)scale(0.1 -0.1)">
       <use xlink:href="#DejaVuSans-30"/>
       <use x="63.623047" xlink:href="#DejaVuSans-2e"/>
       <use x="95.410156" xlink:href="#DejaVuSans-36"/>
      </g>
     </g>
    </g>
    <g id="ytick_6">
     <g id="line2d_15">
      <g>
       <use style="stroke:#000000;stroke-width:0.8;" x="57.6" xlink:href="#mc582a48876" y="93.731504"/>
      </g>
     </g>
     <g id="text_15">
      <!-- 0.8 -->
      <defs>
       <path d="M 31.78125 34.625 
Q 24.75 34.625 20.71875 30.859375 
Q 16.703125 27.09375 16.703125 20.515625 
Q 16.703125 13.921875 20.71875 10.15625 
Q 24.75 6.390625 31.78125 6.390625 
Q 38.8125 6.390625 42.859375 10.171875 
Q 46.921875 13.96875 46.921875 20.515625 
Q 46.921875 27.09375 42.890625 30.859375 
Q 38.875 34.625 31.78125 34.625 
z
M 21.921875 38.8125 
Q 15.578125 40.375 12.03125 44.71875 
Q 8.5 49.078125 8.5 55.328125 
Q 8.5 64.0625 14.71875 69.140625 
Q 20.953125 74.21875 31.78125 74.21875 
Q 42.671875 74.21875 48.875 69.140625 
Q 55.078125 64.0625 55.078125 55.328125 
Q 55.078125 49.078125 51.53125 44.71875 
Q 48 40.375 41.703125 38.8125 
Q 48.828125 37.15625 52.796875 32.3125 
Q 56.78125 27.484375 56.78125 20.515625 
Q 56.78125 9.90625 50.3125 4.234375 
Q 43.84375 -1.421875 31.78125 -1.421875 
Q 19.734375 -1.421875 13.25 4.234375 
Q 6.78125 9.90625 6.78125 20.515625 
Q 6.78125 27.484375 10.78125 32.3125 
Q 14.796875 37.15625 21.921875 38.8125 
z
M 18.3125 54.390625 
Q 18.3125 48.734375 21.84375 45.5625 
Q 25.390625 42.390625 31.78125 42.390625 
Q 38.140625 42.390625 41.71875 45.5625 
Q 45.3125 48.734375 45.3125 54.390625 
Q 45.3125 60.0625 41.71875 63.234375 
Q 38.140625 66.40625 31.78125 66.40625 
Q 25.390625 66.40625 21.84375 63.234375 
Q 18.3125 60.0625 18.3125 54.390625 
z
" id="DejaVuSans-38"/>
      </defs>
      <g transform="translate(34.696875 97.530723)scale(0.1 -0.1)">
       <use xlink:href="#DejaVuSans-30"/>
       <use x="63.623047" xlink:href="#DejaVuSans-2e"/>
       <use x="95.410156" xlink:href="#DejaVuSans-38"/>
      </g>
     </g>
    </g>
    <g id="ytick_7">
     <g id="line2d_16">
      <g>
       <use style="stroke:#000000;stroke-width:0.8;" x="57.6" xlink:href="#mc582a48876" y="53.422665"/>
      </g>
     </g>
     <g id="text_16">
      <!-- 1.0 -->
      <g transform="translate(34.696875 57.221884)scale(0.1 -0.1)">
       <use xlink:href="#DejaVuSans-31"/>
       <use x="63.623047" xlink:href="#DejaVuSans-2e"/>
       <use x="95.410156" xlink:href="#DejaVuSans-30"/>
      </g>
     </g>
    </g>
   </g>
   <g id="line2d_17">
    <path clip-path="url(#p0edc07e557)" d="M 73.832727 250.605787 
L 74.059991 250.428344 
L 74.254789 250.457595 
L 74.39277 250.358447 
L 74.579451 250.407768 
L 74.7012 250.355048 
L 75.050212 250.02426 
L 75.163844 250.138793 
L 75.464157 250.617398 
L 75.520973 250.545029 
L 75.853752 249.850902 
L 76.641059 245.157696 
L 78.475403 226.576333 
L 79.668539 219.065393 
L 79.790287 219.199613 
L 80.39903 220.749749 
L 80.772392 222.867272 
L 81.316202 225.494645 
L 81.673331 226.695877 
L 81.965527 227.51317 
L 82.436288 228.017243 
L 82.631085 228.197281 
L 82.834 228.091306 
L 83.085613 227.907127 
L 83.239828 227.780346 
L 83.256061 227.790068 
L 83.61319 228.147149 
L 84.100184 229.273013 
L 84.506012 230.894638 
L 84.879374 233.20228 
L 85.5287 237.728149 
L 86.040043 240.163334 
L 86.291657 241.570746 
L 87.257528 246.703061 
L 87.841921 248.880669 
L 88.426314 252.929757 
L 88.791559 254.365324 
L 89.80613 257.57836 
L 89.968462 257.501654 
L 90.130793 257.416633 
L 90.601554 257.62986 
L 90.698953 257.733736 
L 90.974916 258.711394 
L 91.567425 261.755239 
L 92.054419 264.261003 
L 92.249217 264.738654 
L 92.26545 264.727614 
L 92.379082 264.710384 
L 92.403432 264.754344 
L 92.776794 265.543392 
L 92.817376 265.522509 
L 92.931008 265.37986 
L 93.109573 264.74947 
L 93.555984 261.868329 
L 93.994279 259.106713 
L 94.205309 258.482561 
L 94.586788 257.879863 
L 95.146831 256.399195 
L 95.390328 255.944785 
L 95.406561 255.951016 
L 95.755574 256.104259 
L 96.104586 256.020417 
L 96.250684 255.934317 
L 96.275034 255.953321 
L 96.437365 255.927068 
L 96.624046 255.87031 
L 96.956825 255.962148 
L 97.08669 255.745497 
L 97.533102 255.010391 
L 97.849648 254.547351 
L 97.873997 254.564569 
L 98.011979 254.524621 
L 98.661304 253.563305 
L 99.399912 251.664026 
L 99.602826 251.578534 
L 99.976188 251.504051 
L 100.601164 251.098254 
L 100.795961 251.341439 
L 101.104391 252.502407 
L 101.502103 254.119537 
L 102.135195 257.731764 
L 102.50044 259.373289 
L 102.776404 259.66834 
L 102.800753 259.646026 
L 103.084833 259.413544 
L 103.125416 259.491359 
L 103.385146 259.812328 
L 103.63676 260.031169 
L 103.742275 260.110062 
L 103.774741 260.088126 
L 103.945189 260.108687 
L 104.261735 260.3059 
L 104.277968 260.284349 
L 104.456533 259.647366 
L 105.162674 255.994084 
L 105.292539 256.012695 
L 105.747067 255.698376 
L 106.161012 254.751732 
L 106.355809 254.59128 
L 106.404509 254.69008 
L 107.484012 258.245238 
L 107.751859 258.991029 
L 108.214503 259.915529 
L 108.677147 261.121359 
L 108.685264 261.115778 
L 108.904411 260.856528 
L 109.253424 260.227046 
L 109.350822 260.155937 
L 109.383289 260.201327 
L 109.643019 260.478556 
L 109.886516 260.609755 
L 110.292344 260.285794 
L 110.828038 259.357667 
L 110.982252 259.332114 
L 111.104001 259.441762 
L 111.258216 259.877482 
L 111.607228 262.056259 
L 113.311707 272.02977 
L 113.668836 272.776226 
L 113.790584 272.984554 
L 114.017848 273.322219 
L 114.034081 273.310749 
L 114.310045 273.112377 
L 114.659057 272.94705 
L 115.162284 272.119367 
L 115.576229 270.873726 
L 116.030757 270.232517 
L 116.404119 269.550119 
L 116.753131 269.491222 
L 116.956045 270.01223 
L 117.451156 271.861044 
L 117.751469 272.813381 
L 118.822856 275.533211 
L 118.904021 275.513569 
L 118.920254 275.489127 
L 119.52088 274.204996 
L 119.926709 272.413813 
L 120.37312 270.005024 
L 120.714016 267.887573 
L 121.014329 266.420508 
L 121.274059 265.883915 
L 121.541905 265.831119 
L 121.712353 265.759578 
L 121.923384 265.692393 
L 122.231814 265.617076 
L 122.23993 265.633001 
L 122.670108 266.580813 
L 123.06782 268.172906 
L 123.944409 273.5101 
L 124.447636 276.831105 
L 124.715483 277.50246 
L 124.869698 277.551198 
L 124.885931 277.533394 
L 125.421624 277.145212 
L 125.851802 277.153086 
L 126.233281 276.90877 
L 126.249514 276.938737 
L 126.752741 278.227053 
L 128.083858 284.449292 
L 128.351705 285.546378 
L 129.650355 294.558695 
L 129.975018 295.472389 
L 129.983135 295.470099 
L 130.104883 295.323885 
L 130.34838 295.036396 
L 130.526945 294.630951 
L 131.013939 292.806747 
L 131.476583 291.13118 
L 131.638914 291.009831 
L 132.158375 289.808335 
L 132.174608 289.820283 
L 132.385638 289.766472 
L 132.49927 289.801493 
L 132.767117 289.827678 
L 133.189178 289.504813 
L 133.806038 288.578569 
L 134.252449 288.302869 
L 134.682627 288.102459 
L 134.828725 287.760752 
L 135.055989 286.508316 
L 135.900112 280.26266 
L 136.784817 270.731285 
L 137.953603 257.807508 
L 138.408131 253.630072 
L 138.789609 251.60656 
L 139.187321 250.199044 
L 139.487634 249.037133 
L 140.169426 246.585015 
L 140.615837 242.809674 
L 142.279733 225.370792 
L 142.734261 222.168439 
L 143.286187 220.255511 
L 143.489101 220.079679 
L 143.651433 220.097049 
L 143.813764 220.41151 
L 144.049145 220.710354 
L 144.170893 221.083097 
L 144.584838 222.889512 
L 145.136764 226.015651 
L 145.729274 227.571784 
L 146.3299 229.023893 
L 146.354249 229.006636 
L 146.500348 228.896698 
L 146.54093 228.934459 
L 146.630213 228.915851 
L 146.646446 228.889995 
L 146.784427 228.450323 
L 147.117207 226.578073 
L 147.571734 223.391578 
L 148.367158 217.189498 
L 148.772986 215.496694 
L 148.919084 215.232302 
L 148.951551 215.260484 
L 149.113882 215.228952 
L 149.28433 215.344236 
L 149.438545 215.413922 
L 149.54406 215.539864 
L 150.079753 217.171751 
L 151.021275 222.415446 
L 151.776116 226.55871 
L 152.441674 228.864506 
L 152.457907 228.855826 
L 152.75822 228.914926 
L 152.977368 229.288168 
L 153.026067 229.238702 
L 153.220865 229.113751 
L 153.237098 229.129855 
L 153.293914 229.136266 
L 153.334497 229.085558 
L 153.594227 228.567386 
L 153.797141 228.429542 
L 153.975705 228.456843 
L 154.048754 228.557828 
L 154.519515 230.323545 
L 154.860411 233.5662 
L 156.418792 250.311957 
L 156.970718 254.314486 
L 157.490179 256.233867 
L 157.993406 257.25726 
L 158.107038 257.190252 
L 158.423584 256.079621 
L 158.602148 255.814475 
L 158.967394 255.524444 
L 159.446271 254.781134 
L 160.192995 253.218262 
L 160.550124 252.164054 
L 161.215683 251.227193 
L 161.345548 251.159548 
L 161.499763 251.172272 
L 161.637744 251.015214 
L 162.384468 249.27852 
L 162.652315 248.792405 
L 162.887695 248.552108 
L 162.952628 248.623758 
L 163.033794 248.653579 
L 163.06626 248.613278 
L 163.317873 248.313665 
L 163.439622 248.25113 
L 163.642536 247.932522 
L 164.332444 245.847016 
L 165.428181 240.332657 
L 165.78531 240.356293 
L 166.54015 243.835264 
L 167.181359 246.354141 
L 167.749519 247.629716 
L 169.527047 251.848921 
L 169.56763 251.805162 
L 169.900409 251.779655 
L 170.168256 252.652486 
L 170.484802 253.529146 
L 170.525385 253.540079 
L 170.582201 253.481784 
L 170.809464 252.882799 
L 171.239642 251.751952 
L 171.312692 251.734056 
L 171.353274 251.76901 
L 171.499373 251.977645 
L 172.78179 254.939366 
L 172.879189 255.092967 
L 173.195735 256.394422 
L 173.528514 257.662953 
L 173.89376 258.408395 
L 174.039858 258.416993 
L 174.218422 258.258057 
L 174.534968 257.741284 
L 174.608018 257.863981 
L 174.859631 258.20644 
L 175.208643 258.635716 
L 175.232993 258.611152 
L 175.379091 258.49334 
L 175.411558 258.524509 
L 175.549539 258.433558 
L 175.809269 258.192131 
L 175.833619 258.225648 
L 176.077116 258.872571 
L 176.418012 259.377271 
L 176.53976 259.292528 
L 177.124153 258.205233 
L 177.221552 258.147867 
L 177.262135 258.194626 
L 177.489399 258.436837 
L 177.513748 258.418345 
L 177.830294 258.22873 
L 177.984509 258.32765 
L 178.333522 258.647661 
L 178.50397 258.796471 
L 178.731233 259.905597 
L 179.997418 266.541038 
L 180.257148 267.26637 
L 180.289614 267.237724 
L 180.638627 266.807962 
L 181.020105 266.106273 
L 181.710013 263.31504 
L 181.799296 263.471843 
L 182.156424 264.111854 
L 182.399921 264.792497 
L 182.651535 266.484215 
L 184.445296 279.850398 
L 185.127088 282.60094 
L 185.971211 285.829747 
L 186.198475 286.178553 
L 186.401389 286.239882 
L 186.53937 286.366463 
L 186.701702 286.645229 
L 186.782867 286.562533 
L 186.977665 286.760017 
L 187.099413 287.185355 
L 187.62699 289.598382 
L 187.95977 290.345881 
L 188.357481 291.183264 
L 188.860708 292.528643 
L 189.039273 292.660046 
L 189.380169 293.052054 
L 189.550617 292.841069 
L 189.745414 292.267589 
L 189.988911 291.64625 
L 190.199942 290.934905 
L 190.500255 289.267522 
L 191.052181 284.983056 
L 191.855721 278.127368 
L 192.513163 271.685684 
L 193.121906 265.774437 
L 193.332937 265.331039 
L 193.446569 265.175214 
L 193.527734 265.234196 
L 193.998495 265.349344 
L 194.404323 264.788013 
L 194.69652 264.489235 
L 195.004949 263.952277 
L 195.175397 263.800768 
L 195.289029 263.724072 
L 195.394544 263.501663 
L 195.613692 262.971879 
L 195.654275 262.995619 
L 195.78414 263.207869 
L 196.035753 263.594647 
L 196.149385 263.500936 
L 196.490281 262.810419 
L 197.090907 261.742885 
L 197.448036 261.072866 
L 197.545435 260.944186 
L 197.602251 261.007427 
L 197.853864 261.048468 
L 198.056778 261.110467 
L 198.495073 261.694837 
L 198.771036 262.719938 
L 199.030766 263.993881 
L 199.761257 268.208332 
L 200.34565 271.150535 
L 200.62973 272.0296 
L 200.832644 272.240173 
L 200.938159 272.357782 
L 201.132957 272.500845 
L 201.465736 272.540702 
L 201.628068 273.115428 
L 202.017663 273.885485 
L 202.050129 273.871783 
L 202.188111 273.691794 
L 202.480307 272.527937 
L 202.861786 271.037139 
L 203.291964 270.255564 
L 203.308197 270.26957 
L 203.462412 270.277347 
L 203.478645 270.228224 
L 203.697792 269.734778 
L 203.722142 269.752591 
L 203.835774 270.018661 
L 204.014338 271.296875 
L 205.386038 282.627081 
L 206.011014 286.145139 
L 206.351909 286.96661 
L 206.473658 286.792319 
L 206.814554 285.601434 
L 207.407063 282.33599 
L 207.845358 278.423188 
L 208.786879 271.49732 
L 209.265757 269.787569 
L 209.54172 269.393792 
L 209.639119 269.514899 
L 209.785217 269.552427 
L 209.882616 269.438818 
L 210.036831 268.638687 
L 210.515708 266.256908 
L 211.051401 264.909848 
L 211.311132 263.682197 
L 212.49615 255.963802 
L 212.950678 253.030832 
L 214.346727 248.57386 
L 214.468476 248.704057 
L 214.971703 250.223345 
L 215.198967 250.970522 
L 215.320715 251.173377 
L 215.73466 251.884833 
L 215.767127 251.849156 
L 215.978157 251.616182 
L 216.01874 251.648114 
L 216.521967 252.564595 
L 216.651832 252.893009 
L 216.692415 252.850459 
L 216.806047 252.79259 
L 216.84663 252.842531 
L 217.008961 252.824549 
L 217.065777 252.786936 
L 217.10636 252.861779 
L 217.455372 253.413292 
L 217.633937 253.295734 
L 217.877434 252.999577 
L 218.080348 252.703163 
L 218.283262 251.503193 
L 218.656624 249.693586 
L 218.965054 248.557624 
L 219.070569 248.645481 
L 219.216667 248.880878 
L 219.452048 250.005099 
L 220.231238 253.756383 
L 220.766932 259.617302 
L 222.073699 273.8367 
L 222.54446 276.658326 
L 222.601276 276.619359 
L 222.974638 276.099215 
L 223.112619 275.683181 
L 223.283067 274.806749 
L 223.86746 270.931964 
L 224.711583 265.731149 
L 225.157994 264.470763 
L 225.263509 264.253813 
L 225.588172 263.394193 
L 225.791086 263.276288 
L 225.888485 263.210907 
L 226.083283 262.9838 
L 226.099516 263.001543 
L 226.148215 263.025139 
L 226.196915 262.962572 
L 226.602743 261.992056 
L 226.756958 261.759396 
L 226.781307 261.78055 
L 227.122203 262.215928 
L 227.308884 262.644698 
L 227.381933 262.595791 
L 227.471216 262.471751 
L 227.868927 261.095728 
L 228.144891 258.569076 
L 228.510136 252.713778 
L 233.266444 160.68162 
L 234.207966 132.543367 
L 235.230653 94.362736 
L 236.155942 53.568 
L 236.220874 56.411394 
L 237.779255 121.613118 
L 238.97239 158.932077 
L 239.710998 176.210681 
L 240.555121 190.491659 
L 241.066464 199.645395 
L 244.118294 257.884078 
L 244.483539 261.276799 
L 244.743269 262.119472 
L 245.011116 262.536924 
L 245.067932 262.457608 
L 245.457527 261.749288 
L 245.595509 261.700168 
L 245.611742 261.723109 
L 246.488331 263.2285 
L 246.812994 263.497739 
L 247.470435 265.196348 
L 247.868147 267.070509 
L 248.898951 273.938599 
L 249.247964 275.938944 
L 249.385945 276.205609 
L 249.426528 276.189085 
L 249.51581 276.268012 
L 249.767424 276.650183 
L 249.79989 276.577037 
L 249.962221 275.6015 
L 251.057958 266.131537 
L 252.380958 251.785726 
L 253.338713 248.48071 
L 253.419879 248.615223 
L 253.663376 249.587493 
L 254.093554 251.990653 
L 254.328934 252.821359 
L 254.970143 253.414807 
L 255.018842 253.328942 
L 255.246106 252.799898 
L 255.311039 252.896944 
L 255.432787 252.906084 
L 255.440904 252.899217 
L 255.611352 252.891659 
L 255.692517 252.878857 
L 255.708751 252.841643 
L 256.073996 252.125121 
L 256.439242 251.542515 
L 256.455475 251.564775 
L 256.609689 251.810628 
L 256.650272 251.750094 
L 257.315831 250.260464 
L 257.616144 249.061746 
L 257.843408 248.487324 
L 257.965156 248.398742 
L 257.997622 248.429922 
L 258.387217 249.216645 
L 258.71188 250.730719 
L 259.109592 252.194475 
L 259.271923 252.713442 
L 259.653402 254.733024 
L 260.335193 259.745062 
L 261.520212 265.813947 
L 261.942274 266.887448 
L 262.583482 269.686349 
L 262.680881 269.621597 
L 262.786397 269.515284 
L 262.826979 269.541093 
L 262.964961 269.773176 
L 263.265274 270.489434 
L 263.979532 273.720823 
L 264.604507 279.779529 
L 265.229483 284.493854 
L 265.797643 286.801986 
L 265.959974 287.050774 
L 266.000557 286.995486 
L 266.146655 286.626039 
L 266.471318 285.458492 
L 266.925846 282.554567 
L 267.769968 275.525299 
L 268.42741 270.197937 
L 268.614091 269.676866 
L 268.703374 269.787086 
L 268.914404 270.13501 
L 268.946871 270.12111 
L 269.076736 270.194521 
L 269.401398 270.818434 
L 269.653012 271.567906 
L 270.03449 273.265655 
L 270.286104 273.807026 
L 270.34292 273.805357 
L 270.383503 273.753664 
L 270.545834 273.423429 
L 271.024712 272.374083 
L 271.073411 272.426436 
L 271.227626 272.507308 
L 271.260092 272.476151 
L 271.706503 271.945836 
L 271.901301 271.372267 
L 272.875289 266.54593 
L 273.646363 262.13711 
L 273.962909 261.248697 
L 274.490486 260.97228 
L 274.628467 260.944683 
L 274.790798 260.824202 
L 274.815148 260.864016 
L 275.253443 261.728949 
L 275.797253 262.728023 
L 276.203081 263.542676 
L 276.389762 263.483334 
L 276.755008 262.876148 
L 276.771241 262.888675 
L 276.901106 263.324724 
L 277.112137 263.669783 
L 277.12837 263.657975 
L 277.258235 263.682485 
L 277.266351 263.700368 
L 277.574781 264.2514 
L 278.42702 265.38338 
L 278.516303 265.254678 
L 278.889665 265.110238 
L 278.978947 265.275362 
L 279.214327 265.816441 
L 279.401008 267.21133 
L 279.969168 273.686369 
L 280.480512 278.334903 
L 281.373334 286.208167 
L 281.819745 289.346197 
L 282.412254 291.897275 
L 282.598936 292.541336 
L 282.826199 293.029705 
L 283.004764 293.15473 
L 283.029114 293.126125 
L 283.637856 292.329491 
L 284.051801 290.912172 
L 284.279065 290.514957 
L 284.43328 290.189778 
L 285.082605 288.104712 
L 285.407268 286.738935 
L 285.593949 286.732253 
L 285.683231 286.724057 
L 285.699464 286.691422 
L 285.861795 286.356544 
L 285.902378 286.395243 
L 286.056593 286.366611 
L 286.308206 286.072153 
L 286.600403 285.05087 
L 288.304882 277.883417 
L 288.532146 276.323979 
L 289.863263 265.051511 
L 290.139226 264.141421 
L 290.60187 263.351481 
L 290.609987 263.355296 
L 290.772318 263.621193 
L 290.950882 264.471131 
L 291.421643 266.586519 
L 291.608324 266.737974 
L 292.103435 267.357603 
L 292.160251 267.216236 
L 292.75276 264.527812 
L 293.264104 261.684783 
L 293.393969 261.130888 
L 293.86473 258.764575 
L 294.035178 258.66728 
L 294.246209 258.469945 
L 294.611454 258.243517 
L 294.716969 258.324191 
L 294.830601 258.468795 
L 294.871184 258.430897 
L 295.122798 258.229312 
L 295.155264 258.260168 
L 295.44746 258.597223 
L 295.893872 259.304416 
L 296.03997 259.182281 
L 296.551313 258.056663 
L 296.624363 258.135956 
L 297.281804 258.440679 
L 297.500952 258.008487 
L 297.6714 257.870524 
L 297.809381 257.714513 
L 297.874314 257.816611 
L 298.280142 258.477941 
L 298.401891 258.490796 
L 298.42624 258.454874 
L 298.572338 258.154098 
L 299.870989 254.508663 
L 299.952155 254.346524 
L 300.479732 252.870165 
L 300.934259 251.807364 
L 301.064124 251.770489 
L 301.088474 251.819997 
L 301.810849 253.521054 
L 301.851431 253.463155 
L 302.078695 252.938446 
L 302.443941 251.72399 
L 302.598155 251.647504 
L 302.695554 251.796334 
L 302.874119 251.812936 
L 302.987751 251.616824 
L 303.564027 250.060351 
L 303.880573 249.481656 
L 304.318868 248.113215 
L 304.546131 247.720661 
L 304.757162 247.409168 
L 304.911377 246.946508 
L 305.357788 245.807723 
L 305.536353 245.067421 
L 306.226261 241.891589 
L 306.623973 240.220741 
L 306.737604 240.296735 
L 307.013568 240.676461 
L 307.281414 241.981851 
L 308.149887 246.774113 
L 308.880378 248.352442 
L 309.25374 248.700455 
L 309.391722 248.673811 
L 309.481004 248.657177 
L 309.51347 248.695879 
L 309.870599 249.239923 
L 310.795888 251.191193 
L 311.299115 251.238864 
L 311.526379 251.747148 
L 311.92409 252.627135 
L 312.873729 254.837661 
L 313.750318 255.878608 
L 313.847717 255.992789 
L 314.253545 257.267206 
L 314.342827 257.210966 
L 314.651257 256.907126 
L 315.44668 253.75767 
L 315.77946 251.288777 
L 316.526184 244.214622 
L 318.003399 229.396216 
L 318.514743 228.410019 
L 318.636491 228.416347 
L 318.644608 228.42726 
L 318.831289 228.828402 
L 319.050436 229.158874 
L 319.058552 229.154272 
L 319.25335 229.22774 
L 319.399448 229.267582 
L 319.423798 229.222572 
L 319.707878 228.656909 
L 319.756577 228.715932 
L 319.959491 228.771501 
L 319.967608 228.760847 
L 320.202988 228.147683 
L 320.746798 225.471949 
L 321.850651 218.917065 
L 322.54056 216.060433 
L 322.913922 215.593355 
L 323.019437 215.499962 
L 323.173652 215.400512 
L 323.360333 215.349279 
L 323.449615 215.373684 
L 323.465848 215.406723 
L 323.749928 216.385794 
L 324.374904 219.795982 
L 325.007996 225.527859 
L 325.511223 228.327802 
L 325.722254 228.9311 
L 325.738487 228.920972 
L 325.933284 228.904549 
L 326.063149 228.892505 
L 326.347229 228.458417 
L 327.158886 225.997389 
L 327.3618 225.266491 
L 327.767628 222.500089 
L 328.16534 220.838949 
L 328.465653 220.305305 
L 328.749733 219.920092 
L 329.123095 220.360079 
L 329.244843 220.782501 
L 330.235065 227.120307 
L 331.647347 242.25907 
L 332.191157 246.947091 
L 332.532053 248.354999 
L 333.019047 249.61881 
L 334.114783 255.29673 
L 334.544961 259.952953 
L 335.048189 265.200641 
L 335.4459 269.724767 
L 336.590336 281.849995 
L 337.07733 285.284814 
L 337.572441 287.995442 
L 337.978269 288.355099 
L 337.986386 288.348392 
L 338.132484 288.345512 
L 338.538312 288.624238 
L 339.211987 289.587049 
L 339.366202 289.633115 
L 339.528533 289.689087 
L 339.747681 289.742447 
L 339.885662 289.67206 
L 339.983061 289.720634 
L 340.169742 289.791058 
L 340.299607 289.945003 
L 340.583687 290.728106 
L 340.762251 291.115102 
L 340.794718 291.097034 
L 340.900233 291.165694 
L 341.086914 291.871975 
L 341.97162 295.017999 
L 342.361215 295.480339 
L 342.401798 295.440219 
L 342.547896 295.068924 
L 343.254037 291.361423 
L 344.09816 284.744192 
L 344.650087 282.808148 
L 345.672774 277.721782 
L 346.143535 276.815008 
L 346.184118 276.837833 
L 346.500664 277.132007 
L 346.711695 277.241097 
L 346.736044 277.214323 
L 346.987658 277.151465 
L 347.482769 277.63706 
L 347.661333 277.472555 
L 347.807431 277.071634 
L 348.205143 274.866173 
L 348.822002 270.70042 
L 349.674241 266.570867 
L 350.193702 265.64524 
L 350.323567 265.747567 
L 350.526481 265.826056 
L 350.826794 265.894774 
L 351.013475 265.900185 
L 351.224506 266.204491 
L 351.45177 267.030004 
L 351.7115 268.688832 
L 352.044279 270.332819 
L 352.279659 271.66705 
L 352.766653 274.142656 
L 353.156249 275.20674 
L 353.359163 275.393309 
L 353.456562 275.52277 
L 353.521494 275.477984 
L 353.81369 274.907244 
L 354.057187 274.327015 
L 354.178936 273.83828 
L 354.463016 272.984338 
L 354.803912 271.938895 
L 355.071758 271.279384 
L 355.680501 269.418486 
L 355.810366 269.466005 
L 355.997047 269.691392 
L 356.175611 270.062666 
L 356.565206 270.774298 
L 356.79247 271.083785 
L 357.044084 271.821589 
L 357.393096 272.658876 
L 357.498612 272.819156 
L 357.758342 273.044513 
L 358.310268 273.27347 
L 358.415784 273.166826 
L 359.268023 271.141724 
L 359.53587 269.773033 
L 360.753355 261.602244 
L 361.297165 259.242501 
L 361.467613 259.247338 
L 361.99519 260.151055 
L 362.173754 260.453131 
L 362.222453 260.414667 
L 362.352318 260.46446 
L 362.522766 260.559636 
L 362.563349 260.508867 
L 363.00976 260.030194 
L 363.066576 260.103374 
L 363.237024 260.531742 
L 363.659086 261.047016 
L 363.732135 260.902397 
L 364.324644 259.17766 
L 364.803522 258.198515 
L 365.574595 255.696308 
L 365.850559 254.862998 
L 366.01289 254.544533 
L 366.045356 254.56424 
L 366.24827 254.834684 
L 366.402485 255.199776 
L 366.848896 255.967311 
L 367.132976 256.014797 
L 367.238492 256.277697 
L 367.563154 257.753439 
L 368.074498 260.371751 
L 368.236829 260.317607 
L 368.520909 260.101272 
L 368.545259 260.129292 
L 368.634541 260.107702 
L 368.650774 260.076155 
L 368.894271 259.799952 
L 369.089069 259.694391 
L 369.300099 259.320559 
L 369.348799 259.364748 
L 369.665345 259.561811 
L 369.81956 259.320372 
L 370.006241 258.75359 
L 371.418523 251.519922 
L 371.791885 250.910139 
L 371.808118 250.921509 
L 372.011033 251.198795 
L 372.416861 251.514092 
L 372.668475 251.559445 
L 372.895738 251.648975 
L 373.147352 252.097086 
L 373.894076 254.0627 
L 374.032058 254.137073 
L 374.332371 254.553886 
L 374.624567 254.726473 
L 374.868064 255.112958 
L 375.046629 255.433294 
L 375.395641 256.043013 
L 375.598555 256.006639 
L 375.77712 255.848424 
L 375.817702 255.905364 
L 376.0125 256.037191 
L 376.166715 256.04248 
L 376.393979 256.177752 
L 376.418328 256.150031 
L 376.605009 256.111185 
L 376.84039 256.057171 
L 376.929672 255.950459 
L 376.970255 256.003139 
L 377.286801 256.720738 
L 378.122807 258.600509 
L 378.244556 258.888611 
L 378.47182 260.180233 
L 378.877648 262.946726 
L 379.307826 265.223307 
L 379.543206 265.59114 
L 379.664955 265.543439 
L 379.835403 265.061032 
L 380.005851 264.77268 
L 380.013967 264.777723 
L 380.111366 264.7606 
L 380.127599 264.735185 
L 380.289931 264.18523 
L 381.702213 257.669883 
L 381.92136 257.497381 
L 382.099925 257.436092 
L 382.343422 257.408321 
L 382.432704 257.513246 
L 382.505753 257.450819 
L 382.635618 257.258193 
L 382.903465 256.222584 
L 383.31741 254.839502 
L 383.479741 254.443954 
L 383.934269 252.630696 
L 384.364447 249.701961 
L 384.770275 247.280202 
L 385.411484 245.081789 
L 387.310761 234.151659 
L 387.935736 230.247311 
L 388.601295 228.217404 
L 388.901608 227.860865 
L 389.153221 227.688422 
L 389.737614 228.08759 
L 389.859362 227.978478 
L 390.102859 227.665202 
L 390.524921 227.138507 
L 391.612541 222.479872 
L 392.213167 219.946506 
L 392.635228 219.150791 
L 392.692044 219.231418 
L 392.968007 220.481998 
L 393.34137 222.97861 
L 393.974462 227.633381 
L 394.388407 231.483536 
L 394.891634 236.422566 
L 395.816922 246.568363 
L 396.238984 249.079988 
L 396.53118 250.117794 
L 396.79091 250.555699 
L 396.872076 250.620032 
L 396.920775 250.578198 
L 397.399653 250.143959 
L 397.513285 250.247213 
L 397.708082 250.466823 
L 397.740549 250.443612 
L 397.967812 250.427687 
L 398.097678 250.489969 
L 398.130144 250.456911 
L 398.292475 250.463014 
L 398.487273 250.609966 
L 398.487273 250.609966 
" style="fill:none;stroke:#000000;stroke-linecap:square;stroke-width:4;"/>
   </g>
   <g id="patch_3">
    <path d="M 57.6 307.584 
L 57.6 41.472 
" style="fill:none;stroke:#000000;stroke-linecap:square;stroke-linejoin:miter;stroke-width:0.8;"/>
   </g>
   <g id="patch_4">
    <path d="M 414.72 307.584 
L 414.72 41.472 
" style="fill:none;stroke:#000000;stroke-linecap:square;stroke-linejoin:miter;stroke-width:0.8;"/>
   </g>
   <g id="patch_5">
    <path d="M 57.6 307.584 
L 414.72 307.584 
" style="fill:none;stroke:#000000;stroke-linecap:square;stroke-linejoin:miter;stroke-width:0.8;"/>
   </g>
   <g id="patch_6">
    <path d="M 57.6 41.472 
L 414.72 41.472 
" style="fill:none;stroke:#000000;stroke-linecap:square;stroke-linejoin:miter;stroke-width:0.8;"/>
   </g>
  </g>
 </g>
 <defs>
  <clipPath id="p0edc07e557">
   <rect height="266.112" width="357.12" x="57.6" y="41.472"/>
  </clipPath>
 </defs>
</svg>
