<?xml version="1.0" encoding="utf-8" standalone="no"?>
<!DOCTYPE svg PUBLIC "-//W3C//DTD SVG 1.1//EN"
  "http://www.w3.org/Graphics/SVG/1.1/DTD/svg11.dtd">
<!-- Created with matplotlib (http://matplotlib.org/) -->
<svg height="345.6pt" version="1.1" viewBox="0 0 460.8 345.6" width="460.8pt" xmlns="http://www.w3.org/2000/svg" xmlns:xlink="http://www.w3.org/1999/xlink">
 <defs>
  <style type="text/css">
*{stroke-linecap:butt;stroke-linejoin:round;}
  </style>
 </defs>
 <g id="figure_1">
  <g id="patch_1">
   <path d="M 0 345.6 
L 460.8 345.6 
L 460.8 0 
L 0 0 
z
" style="fill:#ffffff;"/>
  </g>
  <g id="axes_1">
   <g id="patch_2">
    <path d="M 57.6 87.353379 
L 414.72 87.353379 
L 414.72 41.472 
L 57.6 41.472 
z
" style="fill:#ffffff;"/>
   </g>
   <g id="matplotlib.axis_1">
    <g id="xtick_1">
     <g id="line2d_1">
      <defs>
       <path d="M 0 0 
L 0 3.5 
" id="m44553a29d4" style="stroke:#000000;stroke-width:0.8;"/>
      </defs>
      <g>
       <use style="stroke:#000000;stroke-width:0.8;" x="73.832727" xlink:href="#m44553a29d4" y="87.353379"/>
      </g>
     </g>
     <g id="text_1">
      <!-- 0 -->
      <defs>
       <path d="M 31.78125 66.40625 
Q 24.171875 66.40625 20.328125 58.90625 
Q 16.5 51.421875 16.5 36.375 
Q 16.5 21.390625 20.328125 13.890625 
Q 24.171875 6.390625 31.78125 6.390625 
Q 39.453125 6.390625 43.28125 13.890625 
Q 47.125 21.390625 47.125 36.375 
Q 47.125 51.421875 43.28125 58.90625 
Q 39.453125 66.40625 31.78125 66.40625 
z
M 31.78125 74.21875 
Q 44.046875 74.21875 50.515625 64.515625 
Q 56.984375 54.828125 56.984375 36.375 
Q 56.984375 17.96875 50.515625 8.265625 
Q 44.046875 -1.421875 31.78125 -1.421875 
Q 19.53125 -1.421875 13.0625 8.265625 
Q 6.59375 17.96875 6.59375 36.375 
Q 6.59375 54.828125 13.0625 64.515625 
Q 19.53125 74.21875 31.78125 74.21875 
z
" id="DejaVuSans-30"/>
      </defs>
      <g transform="translate(70.651477 101.951817)scale(0.1 -0.1)">
       <use xlink:href="#DejaVuSans-30"/>
      </g>
     </g>
    </g>
    <g id="xtick_2">
     <g id="line2d_2">
      <g>
       <use style="stroke:#000000;stroke-width:0.8;" x="138.763636" xlink:href="#m44553a29d4" y="87.353379"/>
      </g>
     </g>
     <g id="text_2">
      <!-- 1 -->
      <defs>
       <path d="M 12.40625 8.296875 
L 28.515625 8.296875 
L 28.515625 63.921875 
L 10.984375 60.40625 
L 10.984375 69.390625 
L 28.421875 72.90625 
L 38.28125 72.90625 
L 38.28125 8.296875 
L 54.390625 8.296875 
L 54.390625 0 
L 12.40625 0 
z
" id="DejaVuSans-31"/>
      </defs>
      <g transform="translate(135.582386 101.951817)scale(0.1 -0.1)">
       <use xlink:href="#DejaVuSans-31"/>
      </g>
     </g>
    </g>
    <g id="xtick_3">
     <g id="line2d_3">
      <g>
       <use style="stroke:#000000;stroke-width:0.8;" x="203.694545" xlink:href="#m44553a29d4" y="87.353379"/>
      </g>
     </g>
     <g id="text_3">
      <!-- 2 -->
      <defs>
       <path d="M 19.1875 8.296875 
L 53.609375 8.296875 
L 53.609375 0 
L 7.328125 0 
L 7.328125 8.296875 
Q 12.9375 14.109375 22.625 23.890625 
Q 32.328125 33.6875 34.8125 36.53125 
Q 39.546875 41.84375 41.421875 45.53125 
Q 43.3125 49.21875 43.3125 52.78125 
Q 43.3125 58.59375 39.234375 62.25 
Q 35.15625 65.921875 28.609375 65.921875 
Q 23.96875 65.921875 18.8125 64.3125 
Q 13.671875 62.703125 7.8125 59.421875 
L 7.8125 69.390625 
Q 13.765625 71.78125 18.9375 73 
Q 24.125 74.21875 28.421875 74.21875 
Q 39.75 74.21875 46.484375 68.546875 
Q 53.21875 62.890625 53.21875 53.421875 
Q 53.21875 48.921875 51.53125 44.890625 
Q 49.859375 40.875 45.40625 35.40625 
Q 44.1875 33.984375 37.640625 27.21875 
Q 31.109375 20.453125 19.1875 8.296875 
z
" id="DejaVuSans-32"/>
      </defs>
      <g transform="translate(200.513295 101.951817)scale(0.1 -0.1)">
       <use xlink:href="#DejaVuSans-32"/>
      </g>
     </g>
    </g>
    <g id="xtick_4">
     <g id="line2d_4">
      <g>
       <use style="stroke:#000000;stroke-width:0.8;" x="268.625455" xlink:href="#m44553a29d4" y="87.353379"/>
      </g>
     </g>
     <g id="text_4">
      <!-- 3 -->
      <defs>
       <path d="M 40.578125 39.3125 
Q 47.65625 37.796875 51.625 33 
Q 55.609375 28.21875 55.609375 21.1875 
Q 55.609375 10.40625 48.1875 4.484375 
Q 40.765625 -1.421875 27.09375 -1.421875 
Q 22.515625 -1.421875 17.65625 -0.515625 
Q 12.796875 0.390625 7.625 2.203125 
L 7.625 11.71875 
Q 11.71875 9.328125 16.59375 8.109375 
Q 21.484375 6.890625 26.8125 6.890625 
Q 36.078125 6.890625 40.9375 10.546875 
Q 45.796875 14.203125 45.796875 21.1875 
Q 45.796875 27.640625 41.28125 31.265625 
Q 36.765625 34.90625 28.71875 34.90625 
L 20.21875 34.90625 
L 20.21875 43.015625 
L 29.109375 43.015625 
Q 36.375 43.015625 40.234375 45.921875 
Q 44.09375 48.828125 44.09375 54.296875 
Q 44.09375 59.90625 40.109375 62.90625 
Q 36.140625 65.921875 28.71875 65.921875 
Q 24.65625 65.921875 20.015625 65.03125 
Q 15.375 64.15625 9.8125 62.3125 
L 9.8125 71.09375 
Q 15.4375 72.65625 20.34375 73.4375 
Q 25.25 74.21875 29.59375 74.21875 
Q 40.828125 74.21875 47.359375 69.109375 
Q 53.90625 64.015625 53.90625 55.328125 
Q 53.90625 49.265625 50.4375 45.09375 
Q 46.96875 40.921875 40.578125 39.3125 
z
" id="DejaVuSans-33"/>
      </defs>
      <g transform="translate(265.444205 101.951817)scale(0.1 -0.1)">
       <use xlink:href="#DejaVuSans-33"/>
      </g>
     </g>
    </g>
    <g id="xtick_5">
     <g id="line2d_5">
      <g>
       <use style="stroke:#000000;stroke-width:0.8;" x="333.556364" xlink:href="#m44553a29d4" y="87.353379"/>
      </g>
     </g>
     <g id="text_5">
      <!-- 4 -->
      <defs>
       <path d="M 37.796875 64.3125 
L 12.890625 25.390625 
L 37.796875 25.390625 
z
M 35.203125 72.90625 
L 47.609375 72.90625 
L 47.609375 25.390625 
L 58.015625 25.390625 
L 58.015625 17.1875 
L 47.609375 17.1875 
L 47.609375 0 
L 37.796875 0 
L 37.796875 17.1875 
L 4.890625 17.1875 
L 4.890625 26.703125 
z
" id="DejaVuSans-34"/>
      </defs>
      <g transform="translate(330.375114 101.951817)scale(0.1 -0.1)">
       <use xlink:href="#DejaVuSans-34"/>
      </g>
     </g>
    </g>
    <g id="xtick_6">
     <g id="line2d_6">
      <g>
       <use style="stroke:#000000;stroke-width:0.8;" x="398.487273" xlink:href="#m44553a29d4" y="87.353379"/>
      </g>
     </g>
     <g id="text_6">
      <!-- 5 -->
      <defs>
       <path d="M 10.796875 72.90625 
L 49.515625 72.90625 
L 49.515625 64.59375 
L 19.828125 64.59375 
L 19.828125 46.734375 
Q 21.96875 47.46875 24.109375 47.828125 
Q 26.265625 48.1875 28.421875 48.1875 
Q 40.625 48.1875 47.75 41.5 
Q 54.890625 34.8125 54.890625 23.390625 
Q 54.890625 11.625 47.5625 5.09375 
Q 40.234375 -1.421875 26.90625 -1.421875 
Q 22.3125 -1.421875 17.546875 -0.640625 
Q 12.796875 0.140625 7.71875 1.703125 
L 7.71875 11.625 
Q 12.109375 9.234375 16.796875 8.0625 
Q 21.484375 6.890625 26.703125 6.890625 
Q 35.15625 6.890625 40.078125 11.328125 
Q 45.015625 15.765625 45.015625 23.390625 
Q 45.015625 31 40.078125 35.4375 
Q 35.15625 39.890625 26.703125 39.890625 
Q 22.75 39.890625 18.8125 39.015625 
Q 14.890625 38.140625 10.796875 36.28125 
z
" id="DejaVuSans-35"/>
      </defs>
      <g transform="translate(395.306023 101.951817)scale(0.1 -0.1)">
       <use xlink:href="#DejaVuSans-35"/>
      </g>
     </g>
    </g>
   </g>
   <g id="matplotlib.axis_2">
    <g id="ytick_1">
     <g id="line2d_7">
      <defs>
       <path d="M 0 0 
L -3.5 0 
" id="m8823e0634a" style="stroke:#000000;stroke-width:0.8;"/>
      </defs>
      <g>
       <use style="stroke:#000000;stroke-width:0.8;" x="57.6" xlink:href="#m8823e0634a" y="85.267862"/>
      </g>
     </g>
     <g id="text_7">
      <!-- 0 -->
      <g transform="translate(44.2375 89.067081)scale(0.1 -0.1)">
       <use xlink:href="#DejaVuSans-30"/>
      </g>
     </g>
    </g>
    <g id="ytick_2">
     <g id="line2d_8">
      <g>
       <use style="stroke:#000000;stroke-width:0.8;" x="57.6" xlink:href="#m8823e0634a" y="62.385945"/>
      </g>
     </g>
     <g id="text_8">
      <!-- 2500 -->
      <g transform="translate(25.15 66.185163)scale(0.1 -0.1)">
       <use xlink:href="#DejaVuSans-32"/>
       <use x="63.623047" xlink:href="#DejaVuSans-35"/>
       <use x="127.246094" xlink:href="#DejaVuSans-30"/>
       <use x="190.869141" xlink:href="#DejaVuSans-30"/>
      </g>
     </g>
    </g>
    <g id="text_9">
     <!-- State:0 -->
     <defs>
      <path d="M 53.515625 70.515625 
L 53.515625 60.890625 
Q 47.90625 63.578125 42.921875 64.890625 
Q 37.9375 66.21875 33.296875 66.21875 
Q 25.25 66.21875 20.875 63.09375 
Q 16.5 59.96875 16.5 54.203125 
Q 16.5 49.359375 19.40625 46.890625 
Q 22.3125 44.4375 30.421875 42.921875 
L 36.375 41.703125 
Q 47.40625 39.59375 52.65625 34.296875 
Q 57.90625 29 57.90625 20.125 
Q 57.90625 9.515625 50.796875 4.046875 
Q 43.703125 -1.421875 29.984375 -1.421875 
Q 24.8125 -1.421875 18.96875 -0.25 
Q 13.140625 0.921875 6.890625 3.21875 
L 6.890625 13.375 
Q 12.890625 10.015625 18.65625 8.296875 
Q 24.421875 6.59375 29.984375 6.59375 
Q 38.421875 6.59375 43.015625 9.90625 
Q 47.609375 13.234375 47.609375 19.390625 
Q 47.609375 24.75 44.3125 27.78125 
Q 41.015625 30.8125 33.5 32.328125 
L 27.484375 33.5 
Q 16.453125 35.6875 11.515625 40.375 
Q 6.59375 45.0625 6.59375 53.421875 
Q 6.59375 63.09375 13.40625 68.65625 
Q 20.21875 74.21875 32.171875 74.21875 
Q 37.3125 74.21875 42.625 73.28125 
Q 47.953125 72.359375 53.515625 70.515625 
z
" id="DejaVuSans-53"/>
      <path d="M 18.3125 70.21875 
L 18.3125 54.6875 
L 36.8125 54.6875 
L 36.8125 47.703125 
L 18.3125 47.703125 
L 18.3125 18.015625 
Q 18.3125 11.328125 20.140625 9.421875 
Q 21.96875 7.515625 27.59375 7.515625 
L 36.8125 7.515625 
L 36.8125 0 
L 27.59375 0 
Q 17.1875 0 13.234375 3.875 
Q 9.28125 7.765625 9.28125 18.015625 
L 9.28125 47.703125 
L 2.6875 47.703125 
L 2.6875 54.6875 
L 9.28125 54.6875 
L 9.28125 70.21875 
z
" id="DejaVuSans-74"/>
      <path d="M 34.28125 27.484375 
Q 23.390625 27.484375 19.1875 25 
Q 14.984375 22.515625 14.984375 16.5 
Q 14.984375 11.71875 18.140625 8.90625 
Q 21.296875 6.109375 26.703125 6.109375 
Q 34.1875 6.109375 38.703125 11.40625 
Q 43.21875 16.703125 43.21875 25.484375 
L 43.21875 27.484375 
z
M 52.203125 31.203125 
L 52.203125 0 
L 43.21875 0 
L 43.21875 8.296875 
Q 40.140625 3.328125 35.546875 0.953125 
Q 30.953125 -1.421875 24.3125 -1.421875 
Q 15.921875 -1.421875 10.953125 3.296875 
Q 6 8.015625 6 15.921875 
Q 6 25.140625 12.171875 29.828125 
Q 18.359375 34.515625 30.609375 34.515625 
L 43.21875 34.515625 
L 43.21875 35.40625 
Q 43.21875 41.609375 39.140625 45 
Q 35.0625 48.390625 27.6875 48.390625 
Q 23 48.390625 18.546875 47.265625 
Q 14.109375 46.140625 10.015625 43.890625 
L 10.015625 52.203125 
Q 14.9375 54.109375 19.578125 55.046875 
Q 24.21875 56 28.609375 56 
Q 40.484375 56 46.34375 49.84375 
Q 52.203125 43.703125 52.203125 31.203125 
z
" id="DejaVuSans-61"/>
      <path d="M 56.203125 29.59375 
L 56.203125 25.203125 
L 14.890625 25.203125 
Q 15.484375 15.921875 20.484375 11.0625 
Q 25.484375 6.203125 34.421875 6.203125 
Q 39.59375 6.203125 44.453125 7.46875 
Q 49.3125 8.734375 54.109375 11.28125 
L 54.109375 2.78125 
Q 49.265625 0.734375 44.1875 -0.34375 
Q 39.109375 -1.421875 33.890625 -1.421875 
Q 20.796875 -1.421875 13.15625 6.1875 
Q 5.515625 13.8125 5.515625 26.8125 
Q 5.515625 40.234375 12.765625 48.109375 
Q 20.015625 56 32.328125 56 
Q 43.359375 56 49.78125 48.890625 
Q 56.203125 41.796875 56.203125 29.59375 
z
M 47.21875 32.234375 
Q 47.125 39.59375 43.09375 43.984375 
Q 39.0625 48.390625 32.421875 48.390625 
Q 24.90625 48.390625 20.390625 44.140625 
Q 15.875 39.890625 15.1875 32.171875 
z
" id="DejaVuSans-65"/>
      <path d="M 11.71875 12.40625 
L 22.015625 12.40625 
L 22.015625 0 
L 11.71875 0 
z
M 11.71875 51.703125 
L 22.015625 51.703125 
L 22.015625 39.3125 
L 11.71875 39.3125 
z
" id="DejaVuSans-3a"/>
     </defs>
     <g transform="translate(19.070312 82.513471)rotate(-90)scale(0.1 -0.1)">
      <use xlink:href="#DejaVuSans-53"/>
      <use x="63.476562" xlink:href="#DejaVuSans-74"/>
      <use x="102.685547" xlink:href="#DejaVuSans-61"/>
      <use x="163.964844" xlink:href="#DejaVuSans-74"/>
      <use x="203.173828" xlink:href="#DejaVuSans-65"/>
      <use x="264.697266" xlink:href="#DejaVuSans-3a"/>
      <use x="298.388672" xlink:href="#DejaVuSans-30"/>
     </g>
    </g>
   </g>
   <g id="line2d_9">
    <path clip-path="url(#pef0d31580c)" d="M 73.832727 85.267862 
L 318.966388 85.156776 
L 332.296704 84.9678 
L 344.601111 84.516936 
L 351.944797 83.969607 
L 357.898961 83.244267 
L 364.463476 81.96669 
L 368.4827 80.81323 
L 370.703337 80.011592 
L 375.943261 77.499174 
L 378.501539 75.867326 
L 382.910348 72.208524 
L 384.416745 70.657275 
L 385.455639 69.479656 
L 386.793216 67.824639 
L 391.072163 61.271177 
L 391.883799 59.771528 
L 392.188975 59.191207 
L 392.520122 58.535552 
L 396.221184 50.040906 
L 397.630185 46.142086 
L 398.169111 44.529092 
L 398.279494 44.201346 
L 398.487273 43.558923 
L 398.487273 43.558923 
" style="fill:none;stroke:#000000;stroke-linecap:square;stroke-width:4;"/>
   </g>
   <g id="line2d_10">
    <path clip-path="url(#pef0d31580c)" d="M 73.832727 85.267862 
L 318.966388 85.156783 
L 334.342028 84.918361 
L 343.789475 84.561016 
L 350.672151 84.087102 
L 356.106868 83.497269 
L 360.613073 82.790362 
L 364.469969 81.965033 
L 367.85287 81.017633 
L 370.87865 79.942168 
L 373.625228 78.732035 
L 376.15104 77.377858 
L 378.501539 75.866778 
L 380.715683 74.179589 
L 382.819444 72.296782 
L 384.838796 70.189456 
L 386.786723 67.832849 
L 388.682705 65.185844 
L 390.533236 62.215213 
L 392.351302 58.86912 
L 394.136902 55.11042 
L 395.903023 50.866542 
L 397.649664 46.082394 
L 398.487273 43.557517 
L 398.487273 43.557517 
" style="fill:none;stroke:#ff0000;stroke-linecap:square;stroke-width:1.5;"/>
   </g>
   <g id="patch_3">
    <path d="M 57.6 87.353379 
L 57.6 41.472 
" style="fill:none;stroke:#000000;stroke-linecap:square;stroke-linejoin:miter;stroke-width:0.8;"/>
   </g>
   <g id="patch_4">
    <path d="M 414.72 87.353379 
L 414.72 41.472 
" style="fill:none;stroke:#000000;stroke-linecap:square;stroke-linejoin:miter;stroke-width:0.8;"/>
   </g>
   <g id="patch_5">
    <path d="M 57.6 87.353379 
L 414.72 87.353379 
" style="fill:none;stroke:#000000;stroke-linecap:square;stroke-linejoin:miter;stroke-width:0.8;"/>
   </g>
   <g id="patch_6">
    <path d="M 57.6 41.472 
L 414.72 41.472 
" style="fill:none;stroke:#000000;stroke-linecap:square;stroke-linejoin:miter;stroke-width:0.8;"/>
   </g>
  </g>
  <g id="axes_2">
   <g id="patch_7">
    <path d="M 57.6 142.411034 
L 414.72 142.411034 
L 414.72 96.529655 
L 57.6 96.529655 
z
" style="fill:#ffffff;"/>
   </g>
   <g id="matplotlib.axis_3">
    <g id="xtick_7">
     <g id="line2d_11">
      <g>
       <use style="stroke:#000000;stroke-width:0.8;" x="73.832727" xlink:href="#m44553a29d4" y="142.411034"/>
      </g>
     </g>
     <g id="text_10">
      <!-- 0 -->
      <g transform="translate(70.651477 157.009472)scale(0.1 -0.1)">
       <use xlink:href="#DejaVuSans-30"/>
      </g>
     </g>
    </g>
    <g id="xtick_8">
     <g id="line2d_12">
      <g>
       <use style="stroke:#000000;stroke-width:0.8;" x="138.763636" xlink:href="#m44553a29d4" y="142.411034"/>
      </g>
     </g>
     <g id="text_11">
      <!-- 1 -->
      <g transform="translate(135.582386 157.009472)scale(0.1 -0.1)">
       <use xlink:href="#DejaVuSans-31"/>
      </g>
     </g>
    </g>
    <g id="xtick_9">
     <g id="line2d_13">
      <g>
       <use style="stroke:#000000;stroke-width:0.8;" x="203.694545" xlink:href="#m44553a29d4" y="142.411034"/>
      </g>
     </g>
     <g id="text_12">
      <!-- 2 -->
      <g transform="translate(200.513295 157.009472)scale(0.1 -0.1)">
       <use xlink:href="#DejaVuSans-32"/>
      </g>
     </g>
    </g>
    <g id="xtick_10">
     <g id="line2d_14">
      <g>
       <use style="stroke:#000000;stroke-width:0.8;" x="268.625455" xlink:href="#m44553a29d4" y="142.411034"/>
      </g>
     </g>
     <g id="text_13">
      <!-- 3 -->
      <g transform="translate(265.444205 157.009472)scale(0.1 -0.1)">
       <use xlink:href="#DejaVuSans-33"/>
      </g>
     </g>
    </g>
    <g id="xtick_11">
     <g id="line2d_15">
      <g>
       <use style="stroke:#000000;stroke-width:0.8;" x="333.556364" xlink:href="#m44553a29d4" y="142.411034"/>
      </g>
     </g>
     <g id="text_14">
      <!-- 4 -->
      <g transform="translate(330.375114 157.009472)scale(0.1 -0.1)">
       <use xlink:href="#DejaVuSans-34"/>
      </g>
     </g>
    </g>
    <g id="xtick_12">
     <g id="line2d_16">
      <g>
       <use style="stroke:#000000;stroke-width:0.8;" x="398.487273" xlink:href="#m44553a29d4" y="142.411034"/>
      </g>
     </g>
     <g id="text_15">
      <!-- 5 -->
      <g transform="translate(395.306023 157.009472)scale(0.1 -0.1)">
       <use xlink:href="#DejaVuSans-35"/>
      </g>
     </g>
    </g>
   </g>
   <g id="matplotlib.axis_4">
    <g id="ytick_3">
     <g id="line2d_17">
      <g>
       <use style="stroke:#000000;stroke-width:0.8;" x="57.6" xlink:href="#m8823e0634a" y="140.325517"/>
      </g>
     </g>
     <g id="text_16">
      <!-- 0 -->
      <g transform="translate(44.2375 144.124736)scale(0.1 -0.1)">
       <use xlink:href="#DejaVuSans-30"/>
      </g>
     </g>
    </g>
    <g id="ytick_4">
     <g id="line2d_18">
      <g>
       <use style="stroke:#000000;stroke-width:0.8;" x="57.6" xlink:href="#m8823e0634a" y="102.517684"/>
      </g>
     </g>
     <g id="text_17">
      <!-- 20000 -->
      <g transform="translate(18.7875 106.316902)scale(0.1 -0.1)">
       <use xlink:href="#DejaVuSans-32"/>
       <use x="63.623047" xlink:href="#DejaVuSans-30"/>
       <use x="127.246094" xlink:href="#DejaVuSans-30"/>
       <use x="190.869141" xlink:href="#DejaVuSans-30"/>
       <use x="254.492188" xlink:href="#DejaVuSans-30"/>
      </g>
     </g>
    </g>
    <g id="text_18">
     <!-- State:1 -->
     <g transform="translate(12.707812 137.571126)rotate(-90)scale(0.1 -0.1)">
      <use xlink:href="#DejaVuSans-53"/>
      <use x="63.476562" xlink:href="#DejaVuSans-74"/>
      <use x="102.685547" xlink:href="#DejaVuSans-61"/>
      <use x="163.964844" xlink:href="#DejaVuSans-74"/>
      <use x="203.173828" xlink:href="#DejaVuSans-65"/>
      <use x="264.697266" xlink:href="#DejaVuSans-3a"/>
      <use x="298.388672" xlink:href="#DejaVuSans-31"/>
     </g>
    </g>
   </g>
   <g id="line2d_19">
    <path clip-path="url(#pa54ae5a58e)" d="M 73.832727 140.325517 
L 318.966388 140.214432 
L 333.46546 139.998148 
L 346.652928 139.450461 
L 353.042129 138.916569 
L 358.054796 138.27815 
L 361.496134 137.679424 
L 365.197196 136.838655 
L 368.184017 135.96898 
L 370.398161 135.18721 
L 373.196684 133.995269 
L 376.417257 132.277274 
L 378.241815 131.104739 
L 380.670231 129.274684 
L 382.41038 127.744284 
L 385.936128 123.961699 
L 387.695756 121.667936 
L 389.513821 118.959585 
L 390.715043 116.958102 
L 392.13703 114.34561 
L 395.442013 107.086606 
L 397.558761 101.40456 
L 398.487273 98.615562 
L 398.487273 98.615562 
" style="fill:none;stroke:#000000;stroke-linecap:square;stroke-width:4;"/>
   </g>
   <g id="line2d_20">
    <path clip-path="url(#pa54ae5a58e)" d="M 73.832727 140.325517 
L 318.966388 140.214435 
L 334.342028 139.976013 
L 343.789475 139.618668 
L 350.672151 139.144753 
L 356.106868 138.55492 
L 360.613073 137.848013 
L 364.469969 137.022684 
L 367.85287 136.075284 
L 370.87865 134.999819 
L 373.625228 133.789687 
L 376.15104 132.435509 
L 378.501539 130.92443 
L 380.715683 129.23724 
L 382.819444 127.354434 
L 384.838796 125.247108 
L 386.786723 122.890501 
L 388.682705 120.243497 
L 390.533236 117.272865 
L 392.351302 113.926773 
L 394.136902 110.168074 
L 395.903023 105.924196 
L 397.649664 101.140049 
L 398.487273 98.615172 
L 398.487273 98.615172 
" style="fill:none;stroke:#ff0000;stroke-linecap:square;stroke-width:1.5;"/>
   </g>
   <g id="patch_8">
    <path d="M 57.6 142.411034 
L 57.6 96.529655 
" style="fill:none;stroke:#000000;stroke-linecap:square;stroke-linejoin:miter;stroke-width:0.8;"/>
   </g>
   <g id="patch_9">
    <path d="M 414.72 142.411034 
L 414.72 96.529655 
" style="fill:none;stroke:#000000;stroke-linecap:square;stroke-linejoin:miter;stroke-width:0.8;"/>
   </g>
   <g id="patch_10">
    <path d="M 57.6 142.411034 
L 414.72 142.411034 
" style="fill:none;stroke:#000000;stroke-linecap:square;stroke-linejoin:miter;stroke-width:0.8;"/>
   </g>
   <g id="patch_11">
    <path d="M 57.6 96.529655 
L 414.72 96.529655 
" style="fill:none;stroke:#000000;stroke-linecap:square;stroke-linejoin:miter;stroke-width:0.8;"/>
   </g>
  </g>
  <g id="axes_3">
   <g id="patch_12">
    <path d="M 57.6 197.46869 
L 414.72 197.46869 
L 414.72 151.58731 
L 57.6 151.58731 
z
" style="fill:#ffffff;"/>
   </g>
   <g id="matplotlib.axis_5">
    <g id="xtick_13">
     <g id="line2d_21">
      <g>
       <use style="stroke:#000000;stroke-width:0.8;" x="73.832727" xlink:href="#m44553a29d4" y="197.46869"/>
      </g>
     </g>
     <g id="text_19">
      <!-- 0 -->
      <g transform="translate(70.651477 212.067127)scale(0.1 -0.1)">
       <use xlink:href="#DejaVuSans-30"/>
      </g>
     </g>
    </g>
    <g id="xtick_14">
     <g id="line2d_22">
      <g>
       <use style="stroke:#000000;stroke-width:0.8;" x="138.763636" xlink:href="#m44553a29d4" y="197.46869"/>
      </g>
     </g>
     <g id="text_20">
      <!-- 1 -->
      <g transform="translate(135.582386 212.067127)scale(0.1 -0.1)">
       <use xlink:href="#DejaVuSans-31"/>
      </g>
     </g>
    </g>
    <g id="xtick_15">
     <g id="line2d_23">
      <g>
       <use style="stroke:#000000;stroke-width:0.8;" x="203.694545" xlink:href="#m44553a29d4" y="197.46869"/>
      </g>
     </g>
     <g id="text_21">
      <!-- 2 -->
      <g transform="translate(200.513295 212.067127)scale(0.1 -0.1)">
       <use xlink:href="#DejaVuSans-32"/>
      </g>
     </g>
    </g>
    <g id="xtick_16">
     <g id="line2d_24">
      <g>
       <use style="stroke:#000000;stroke-width:0.8;" x="268.625455" xlink:href="#m44553a29d4" y="197.46869"/>
      </g>
     </g>
     <g id="text_22">
      <!-- 3 -->
      <g transform="translate(265.444205 212.067127)scale(0.1 -0.1)">
       <use xlink:href="#DejaVuSans-33"/>
      </g>
     </g>
    </g>
    <g id="xtick_17">
     <g id="line2d_25">
      <g>
       <use style="stroke:#000000;stroke-width:0.8;" x="333.556364" xlink:href="#m44553a29d4" y="197.46869"/>
      </g>
     </g>
     <g id="text_23">
      <!-- 4 -->
      <g transform="translate(330.375114 212.067127)scale(0.1 -0.1)">
       <use xlink:href="#DejaVuSans-34"/>
      </g>
     </g>
    </g>
    <g id="xtick_18">
     <g id="line2d_26">
      <g>
       <use style="stroke:#000000;stroke-width:0.8;" x="398.487273" xlink:href="#m44553a29d4" y="197.46869"/>
      </g>
     </g>
     <g id="text_24">
      <!-- 5 -->
      <g transform="translate(395.306023 212.067127)scale(0.1 -0.1)">
       <use xlink:href="#DejaVuSans-35"/>
      </g>
     </g>
    </g>
   </g>
   <g id="matplotlib.axis_6">
    <g id="ytick_5">
     <g id="line2d_27">
      <g>
       <use style="stroke:#000000;stroke-width:0.8;" x="57.6" xlink:href="#m8823e0634a" y="195.383172"/>
      </g>
     </g>
     <g id="text_25">
      <!-- 0 -->
      <g transform="translate(44.2375 199.182391)scale(0.1 -0.1)">
       <use xlink:href="#DejaVuSans-30"/>
      </g>
     </g>
    </g>
    <g id="ytick_6">
     <g id="line2d_28">
      <g>
       <use style="stroke:#000000;stroke-width:0.8;" x="57.6" xlink:href="#m8823e0634a" y="173.262738"/>
      </g>
     </g>
     <g id="text_26">
      <!-- 50000 -->
      <g transform="translate(18.7875 177.061957)scale(0.1 -0.1)">
       <use xlink:href="#DejaVuSans-35"/>
       <use x="63.623047" xlink:href="#DejaVuSans-30"/>
       <use x="127.246094" xlink:href="#DejaVuSans-30"/>
       <use x="190.869141" xlink:href="#DejaVuSans-30"/>
       <use x="254.492188" xlink:href="#DejaVuSans-30"/>
      </g>
     </g>
    </g>
    <g id="ytick_7">
     <g id="line2d_29">
      <g>
       <use style="stroke:#000000;stroke-width:0.8;" x="57.6" xlink:href="#m8823e0634a" y="151.142303"/>
      </g>
     </g>
     <g id="text_27">
      <!-- 100000 -->
      <g transform="translate(12.425 154.941522)scale(0.1 -0.1)">
       <use xlink:href="#DejaVuSans-31"/>
       <use x="63.623047" xlink:href="#DejaVuSans-30"/>
       <use x="127.246094" xlink:href="#DejaVuSans-30"/>
       <use x="190.869141" xlink:href="#DejaVuSans-30"/>
       <use x="254.492188" xlink:href="#DejaVuSans-30"/>
       <use x="318.115234" xlink:href="#DejaVuSans-30"/>
      </g>
     </g>
    </g>
    <g id="text_28">
     <!-- State:2 -->
     <g transform="translate(6.345312 192.628781)rotate(-90)scale(0.1 -0.1)">
      <use xlink:href="#DejaVuSans-53"/>
      <use x="63.476562" xlink:href="#DejaVuSans-74"/>
      <use x="102.685547" xlink:href="#DejaVuSans-61"/>
      <use x="163.964844" xlink:href="#DejaVuSans-74"/>
      <use x="203.173828" xlink:href="#DejaVuSans-65"/>
      <use x="264.697266" xlink:href="#DejaVuSans-3a"/>
      <use x="298.388672" xlink:href="#DejaVuSans-32"/>
     </g>
    </g>
   </g>
   <g id="line2d_30">
    <path clip-path="url(#p24e4d9055f)" d="M 73.832727 195.383172 
L 318.966388 195.272091 
L 334.523834 195.0289 
L 344.055692 194.662158 
L 350.990313 194.174079 
L 356.808122 193.517546 
L 361.06759 192.820272 
L 364.619311 192.043371 
L 368.047663 191.07078 
L 371.118895 189.961235 
L 373.813527 188.754977 
L 376.521146 187.272501 
L 379.261231 185.434179 
L 380.852038 184.181552 
L 382.618159 182.605267 
L 384.488169 180.693854 
L 386.617903 178.16629 
L 388.73465 175.223223 
L 390.461812 172.452899 
L 392.03314 169.603267 
L 393.877178 165.803988 
L 395.558889 161.853025 
L 397.130217 157.686369 
L 398.487273 153.672828 
L 398.487273 153.672828 
" style="fill:none;stroke:#000000;stroke-linecap:square;stroke-width:4;"/>
   </g>
   <g id="line2d_31">
    <path clip-path="url(#p24e4d9055f)" d="M 73.832727 195.383172 
L 318.966388 195.27209 
L 334.342028 195.033668 
L 343.789475 194.676323 
L 350.672151 194.202409 
L 356.106868 193.612577 
L 360.613073 192.905671 
L 364.469969 192.080343 
L 367.85287 191.132945 
L 370.87865 190.057481 
L 373.625228 188.84735 
L 376.15104 187.493174 
L 378.501539 185.982097 
L 380.715683 184.29491 
L 382.819444 182.412106 
L 384.838796 180.304783 
L 386.786723 177.948179 
L 388.682705 175.301178 
L 390.533236 172.33055 
L 392.351302 168.984462 
L 394.136902 165.225767 
L 395.903023 160.981895 
L 397.649664 156.197754 
L 398.487273 153.672881 
L 398.487273 153.672881 
" style="fill:none;stroke:#ff0000;stroke-linecap:square;stroke-width:1.5;"/>
   </g>
   <g id="patch_13">
    <path d="M 57.6 197.46869 
L 57.6 151.58731 
" style="fill:none;stroke:#000000;stroke-linecap:square;stroke-linejoin:miter;stroke-width:0.8;"/>
   </g>
   <g id="patch_14">
    <path d="M 414.72 197.46869 
L 414.72 151.58731 
" style="fill:none;stroke:#000000;stroke-linecap:square;stroke-linejoin:miter;stroke-width:0.8;"/>
   </g>
   <g id="patch_15">
    <path d="M 57.6 197.46869 
L 414.72 197.46869 
" style="fill:none;stroke:#000000;stroke-linecap:square;stroke-linejoin:miter;stroke-width:0.8;"/>
   </g>
   <g id="patch_16">
    <path d="M 57.6 151.58731 
L 414.72 151.58731 
" style="fill:none;stroke:#000000;stroke-linecap:square;stroke-linejoin:miter;stroke-width:0.8;"/>
   </g>
  </g>
  <g id="axes_4">
   <g id="patch_17">
    <path d="M 57.6 252.526345 
L 414.72 252.526345 
L 414.72 206.644966 
L 57.6 206.644966 
z
" style="fill:#ffffff;"/>
   </g>
   <g id="matplotlib.axis_7">
    <g id="xtick_19">
     <g id="line2d_32">
      <g>
       <use style="stroke:#000000;stroke-width:0.8;" x="73.832727" xlink:href="#m44553a29d4" y="252.526345"/>
      </g>
     </g>
     <g id="text_29">
      <!-- 0 -->
      <g transform="translate(70.651477 267.124782)scale(0.1 -0.1)">
       <use xlink:href="#DejaVuSans-30"/>
      </g>
     </g>
    </g>
    <g id="xtick_20">
     <g id="line2d_33">
      <g>
       <use style="stroke:#000000;stroke-width:0.8;" x="138.763636" xlink:href="#m44553a29d4" y="252.526345"/>
      </g>
     </g>
     <g id="text_30">
      <!-- 1 -->
      <g transform="translate(135.582386 267.124782)scale(0.1 -0.1)">
       <use xlink:href="#DejaVuSans-31"/>
      </g>
     </g>
    </g>
    <g id="xtick_21">
     <g id="line2d_34">
      <g>
       <use style="stroke:#000000;stroke-width:0.8;" x="203.694545" xlink:href="#m44553a29d4" y="252.526345"/>
      </g>
     </g>
     <g id="text_31">
      <!-- 2 -->
      <g transform="translate(200.513295 267.124782)scale(0.1 -0.1)">
       <use xlink:href="#DejaVuSans-32"/>
      </g>
     </g>
    </g>
    <g id="xtick_22">
     <g id="line2d_35">
      <g>
       <use style="stroke:#000000;stroke-width:0.8;" x="268.625455" xlink:href="#m44553a29d4" y="252.526345"/>
      </g>
     </g>
     <g id="text_32">
      <!-- 3 -->
      <g transform="translate(265.444205 267.124782)scale(0.1 -0.1)">
       <use xlink:href="#DejaVuSans-33"/>
      </g>
     </g>
    </g>
    <g id="xtick_23">
     <g id="line2d_36">
      <g>
       <use style="stroke:#000000;stroke-width:0.8;" x="333.556364" xlink:href="#m44553a29d4" y="252.526345"/>
      </g>
     </g>
     <g id="text_33">
      <!-- 4 -->
      <g transform="translate(330.375114 267.124782)scale(0.1 -0.1)">
       <use xlink:href="#DejaVuSans-34"/>
      </g>
     </g>
    </g>
    <g id="xtick_24">
     <g id="line2d_37">
      <g>
       <use style="stroke:#000000;stroke-width:0.8;" x="398.487273" xlink:href="#m44553a29d4" y="252.526345"/>
      </g>
     </g>
     <g id="text_34">
      <!-- 5 -->
      <g transform="translate(395.306023 267.124782)scale(0.1 -0.1)">
       <use xlink:href="#DejaVuSans-35"/>
      </g>
     </g>
    </g>
   </g>
   <g id="matplotlib.axis_8">
    <g id="ytick_8">
     <g id="line2d_38">
      <g>
       <use style="stroke:#000000;stroke-width:0.8;" x="57.6" xlink:href="#m8823e0634a" y="250.440828"/>
      </g>
     </g>
     <g id="text_35">
      <!-- 0 -->
      <g transform="translate(44.2375 254.240046)scale(0.1 -0.1)">
       <use xlink:href="#DejaVuSans-30"/>
      </g>
     </g>
    </g>
    <g id="ytick_9">
     <g id="line2d_39">
      <g>
       <use style="stroke:#000000;stroke-width:0.8;" x="57.6" xlink:href="#m8823e0634a" y="227.597291"/>
      </g>
     </g>
     <g id="text_36">
      <!-- 250000 -->
      <g transform="translate(12.425 231.39651)scale(0.1 -0.1)">
       <use xlink:href="#DejaVuSans-32"/>
       <use x="63.623047" xlink:href="#DejaVuSans-35"/>
       <use x="127.246094" xlink:href="#DejaVuSans-30"/>
       <use x="190.869141" xlink:href="#DejaVuSans-30"/>
       <use x="254.492188" xlink:href="#DejaVuSans-30"/>
       <use x="318.115234" xlink:href="#DejaVuSans-30"/>
      </g>
     </g>
    </g>
    <g id="text_37">
     <!-- State:3 -->
     <g transform="translate(6.345312 247.686436)rotate(-90)scale(0.1 -0.1)">
      <use xlink:href="#DejaVuSans-53"/>
      <use x="63.476562" xlink:href="#DejaVuSans-74"/>
      <use x="102.685547" xlink:href="#DejaVuSans-61"/>
      <use x="163.964844" xlink:href="#DejaVuSans-74"/>
      <use x="203.173828" xlink:href="#DejaVuSans-65"/>
      <use x="264.697266" xlink:href="#DejaVuSans-3a"/>
      <use x="298.388672" xlink:href="#DejaVuSans-33"/>
     </g>
    </g>
   </g>
   <g id="line2d_40">
    <path clip-path="url(#p36825630cf)" d="M 73.832727 250.440828 
L 318.966388 250.329745 
L 334.348521 250.091153 
L 343.750516 249.736028 
L 350.659165 249.261207 
L 356.106868 248.670232 
L 360.62606 247.960926 
L 364.476463 247.136398 
L 367.872349 246.18442 
L 370.885143 245.112554 
L 373.638214 243.89867 
L 376.15104 242.550824 
L 378.501539 241.039751 
L 380.735162 239.336438 
L 382.806458 237.482292 
L 384.767372 235.442504 
L 386.721792 233.090019 
L 388.643747 230.417065 
L 390.507264 227.432797 
L 392.344809 224.054865 
L 394.097943 220.370857 
L 395.851078 216.172493 
L 397.604212 211.387933 
L 398.487273 208.730483 
L 398.487273 208.730483 
" style="fill:none;stroke:#000000;stroke-linecap:square;stroke-width:4;"/>
   </g>
   <g id="line2d_41">
    <path clip-path="url(#p36825630cf)" d="M 73.832727 250.440828 
L 318.966388 250.329745 
L 334.342028 250.091323 
L 343.789475 249.733978 
L 350.672151 249.260064 
L 356.106868 248.670232 
L 360.613073 247.963325 
L 364.469969 247.137996 
L 367.85287 246.190597 
L 370.87865 245.115133 
L 373.625228 243.905002 
L 376.15104 242.550825 
L 378.501539 241.039747 
L 380.715683 239.352559 
L 382.819444 237.469754 
L 384.838796 235.362429 
L 386.786723 233.005824 
L 388.682705 230.358822 
L 390.533236 227.388193 
L 392.351302 224.042103 
L 394.136902 220.283406 
L 395.903023 216.039532 
L 397.649664 211.255388 
L 398.487273 208.730513 
L 398.487273 208.730513 
" style="fill:none;stroke:#ff0000;stroke-linecap:square;stroke-width:1.5;"/>
   </g>
   <g id="patch_18">
    <path d="M 57.6 252.526345 
L 57.6 206.644966 
" style="fill:none;stroke:#000000;stroke-linecap:square;stroke-linejoin:miter;stroke-width:0.8;"/>
   </g>
   <g id="patch_19">
    <path d="M 414.72 252.526345 
L 414.72 206.644966 
" style="fill:none;stroke:#000000;stroke-linecap:square;stroke-linejoin:miter;stroke-width:0.8;"/>
   </g>
   <g id="patch_20">
    <path d="M 57.6 252.526345 
L 414.72 252.526345 
" style="fill:none;stroke:#000000;stroke-linecap:square;stroke-linejoin:miter;stroke-width:0.8;"/>
   </g>
   <g id="patch_21">
    <path d="M 57.6 206.644966 
L 414.72 206.644966 
" style="fill:none;stroke:#000000;stroke-linecap:square;stroke-linejoin:miter;stroke-width:0.8;"/>
   </g>
  </g>
  <g id="axes_5">
   <g id="patch_22">
    <path d="M 57.6 307.584 
L 414.72 307.584 
L 414.72 261.702621 
L 57.6 261.702621 
z
" style="fill:#ffffff;"/>
   </g>
   <g id="matplotlib.axis_9">
    <g id="xtick_25">
     <g id="line2d_42">
      <g>
       <use style="stroke:#000000;stroke-width:0.8;" x="73.832727" xlink:href="#m44553a29d4" y="307.584"/>
      </g>
     </g>
     <g id="text_38">
      <!-- 0 -->
      <g transform="translate(70.651477 322.182437)scale(0.1 -0.1)">
       <use xlink:href="#DejaVuSans-30"/>
      </g>
     </g>
    </g>
    <g id="xtick_26">
     <g id="line2d_43">
      <g>
       <use style="stroke:#000000;stroke-width:0.8;" x="138.763636" xlink:href="#m44553a29d4" y="307.584"/>
      </g>
     </g>
     <g id="text_39">
      <!-- 1 -->
      <g transform="translate(135.582386 322.182437)scale(0.1 -0.1)">
       <use xlink:href="#DejaVuSans-31"/>
      </g>
     </g>
    </g>
    <g id="xtick_27">
     <g id="line2d_44">
      <g>
       <use style="stroke:#000000;stroke-width:0.8;" x="203.694545" xlink:href="#m44553a29d4" y="307.584"/>
      </g>
     </g>
     <g id="text_40">
      <!-- 2 -->
      <g transform="translate(200.513295 322.182437)scale(0.1 -0.1)">
       <use xlink:href="#DejaVuSans-32"/>
      </g>
     </g>
    </g>
    <g id="xtick_28">
     <g id="line2d_45">
      <g>
       <use style="stroke:#000000;stroke-width:0.8;" x="268.625455" xlink:href="#m44553a29d4" y="307.584"/>
      </g>
     </g>
     <g id="text_41">
      <!-- 3 -->
      <g transform="translate(265.444205 322.182437)scale(0.1 -0.1)">
       <use xlink:href="#DejaVuSans-33"/>
      </g>
     </g>
    </g>
    <g id="xtick_29">
     <g id="line2d_46">
      <g>
       <use style="stroke:#000000;stroke-width:0.8;" x="333.556364" xlink:href="#m44553a29d4" y="307.584"/>
      </g>
     </g>
     <g id="text_42">
      <!-- 4 -->
      <g transform="translate(330.375114 322.182437)scale(0.1 -0.1)">
       <use xlink:href="#DejaVuSans-34"/>
      </g>
     </g>
    </g>
    <g id="xtick_30">
     <g id="line2d_47">
      <g>
       <use style="stroke:#000000;stroke-width:0.8;" x="398.487273" xlink:href="#m44553a29d4" y="307.584"/>
      </g>
     </g>
     <g id="text_43">
      <!-- 5 -->
      <g transform="translate(395.306023 322.182437)scale(0.1 -0.1)">
       <use xlink:href="#DejaVuSans-35"/>
      </g>
     </g>
    </g>
    <g id="text_44">
     <!-- Time -->
     <defs>
      <path d="M -0.296875 72.90625 
L 61.375 72.90625 
L 61.375 64.59375 
L 35.5 64.59375 
L 35.5 0 
L 25.59375 0 
L 25.59375 64.59375 
L -0.296875 64.59375 
z
" id="DejaVuSans-54"/>
      <path d="M 9.421875 54.6875 
L 18.40625 54.6875 
L 18.40625 0 
L 9.421875 0 
z
M 9.421875 75.984375 
L 18.40625 75.984375 
L 18.40625 64.59375 
L 9.421875 64.59375 
z
" id="DejaVuSans-69"/>
      <path d="M 52 44.1875 
Q 55.375 50.25 60.0625 53.125 
Q 64.75 56 71.09375 56 
Q 79.640625 56 84.28125 50.015625 
Q 88.921875 44.046875 88.921875 33.015625 
L 88.921875 0 
L 79.890625 0 
L 79.890625 32.71875 
Q 79.890625 40.578125 77.09375 44.375 
Q 74.3125 48.1875 68.609375 48.1875 
Q 61.625 48.1875 57.5625 43.546875 
Q 53.515625 38.921875 53.515625 30.90625 
L 53.515625 0 
L 44.484375 0 
L 44.484375 32.71875 
Q 44.484375 40.625 41.703125 44.40625 
Q 38.921875 48.1875 33.109375 48.1875 
Q 26.21875 48.1875 22.15625 43.53125 
Q 18.109375 38.875 18.109375 30.90625 
L 18.109375 0 
L 9.078125 0 
L 9.078125 54.6875 
L 18.109375 54.6875 
L 18.109375 46.1875 
Q 21.1875 51.21875 25.484375 53.609375 
Q 29.78125 56 35.6875 56 
Q 41.65625 56 45.828125 52.96875 
Q 50 49.953125 52 44.1875 
z
" id="DejaVuSans-6d"/>
     </defs>
     <g transform="translate(223.7725 335.860562)scale(0.1 -0.1)">
      <use xlink:href="#DejaVuSans-54"/>
      <use x="61.037109" xlink:href="#DejaVuSans-69"/>
      <use x="88.820312" xlink:href="#DejaVuSans-6d"/>
      <use x="186.232422" xlink:href="#DejaVuSans-65"/>
     </g>
    </g>
   </g>
   <g id="matplotlib.axis_10">
    <g id="ytick_10">
     <g id="line2d_48">
      <g>
       <use style="stroke:#000000;stroke-width:0.8;" x="57.6" xlink:href="#m8823e0634a" y="305.550231"/>
      </g>
     </g>
     <g id="text_45">
      <!-- −0.001 -->
      <defs>
       <path d="M 10.59375 35.5 
L 73.1875 35.5 
L 73.1875 27.203125 
L 10.59375 27.203125 
z
" id="DejaVuSans-2212"/>
       <path d="M 10.6875 12.40625 
L 21 12.40625 
L 21 0 
L 10.6875 0 
z
" id="DejaVuSans-2e"/>
      </defs>
      <g transform="translate(13.592188 309.349449)scale(0.1 -0.1)">
       <use xlink:href="#DejaVuSans-2212"/>
       <use x="83.789062" xlink:href="#DejaVuSans-30"/>
       <use x="147.412109" xlink:href="#DejaVuSans-2e"/>
       <use x="179.199219" xlink:href="#DejaVuSans-30"/>
       <use x="242.822266" xlink:href="#DejaVuSans-30"/>
       <use x="306.445312" xlink:href="#DejaVuSans-31"/>
      </g>
     </g>
    </g>
    <g id="ytick_11">
     <g id="line2d_49">
      <g>
       <use style="stroke:#000000;stroke-width:0.8;" x="57.6" xlink:href="#m8823e0634a" y="284.609673"/>
      </g>
     </g>
     <g id="text_46">
      <!-- 0.000 -->
      <g transform="translate(21.971875 288.408892)scale(0.1 -0.1)">
       <use xlink:href="#DejaVuSans-30"/>
       <use x="63.623047" xlink:href="#DejaVuSans-2e"/>
       <use x="95.410156" xlink:href="#DejaVuSans-30"/>
       <use x="159.033203" xlink:href="#DejaVuSans-30"/>
       <use x="222.65625" xlink:href="#DejaVuSans-30"/>
      </g>
     </g>
    </g>
    <g id="ytick_12">
     <g id="line2d_50">
      <g>
       <use style="stroke:#000000;stroke-width:0.8;" x="57.6" xlink:href="#m8823e0634a" y="263.669115"/>
      </g>
     </g>
     <g id="text_47">
      <!-- 0.001 -->
      <g transform="translate(21.971875 267.468334)scale(0.1 -0.1)">
       <use xlink:href="#DejaVuSans-30"/>
       <use x="63.623047" xlink:href="#DejaVuSans-2e"/>
       <use x="95.410156" xlink:href="#DejaVuSans-30"/>
       <use x="159.033203" xlink:href="#DejaVuSans-30"/>
       <use x="222.65625" xlink:href="#DejaVuSans-31"/>
      </g>
     </g>
    </g>
    <g id="text_48">
     <!-- Control Input -->
     <defs>
      <path d="M 64.40625 67.28125 
L 64.40625 56.890625 
Q 59.421875 61.53125 53.78125 63.8125 
Q 48.140625 66.109375 41.796875 66.109375 
Q 29.296875 66.109375 22.65625 58.46875 
Q 16.015625 50.828125 16.015625 36.375 
Q 16.015625 21.96875 22.65625 14.328125 
Q 29.296875 6.6875 41.796875 6.6875 
Q 48.140625 6.6875 53.78125 8.984375 
Q 59.421875 11.28125 64.40625 15.921875 
L 64.40625 5.609375 
Q 59.234375 2.09375 53.4375 0.328125 
Q 47.65625 -1.421875 41.21875 -1.421875 
Q 24.65625 -1.421875 15.125 8.703125 
Q 5.609375 18.84375 5.609375 36.375 
Q 5.609375 53.953125 15.125 64.078125 
Q 24.65625 74.21875 41.21875 74.21875 
Q 47.75 74.21875 53.53125 72.484375 
Q 59.328125 70.75 64.40625 67.28125 
z
" id="DejaVuSans-43"/>
      <path d="M 30.609375 48.390625 
Q 23.390625 48.390625 19.1875 42.75 
Q 14.984375 37.109375 14.984375 27.296875 
Q 14.984375 17.484375 19.15625 11.84375 
Q 23.34375 6.203125 30.609375 6.203125 
Q 37.796875 6.203125 41.984375 11.859375 
Q 46.1875 17.53125 46.1875 27.296875 
Q 46.1875 37.015625 41.984375 42.703125 
Q 37.796875 48.390625 30.609375 48.390625 
z
M 30.609375 56 
Q 42.328125 56 49.015625 48.375 
Q 55.71875 40.765625 55.71875 27.296875 
Q 55.71875 13.875 49.015625 6.21875 
Q 42.328125 -1.421875 30.609375 -1.421875 
Q 18.84375 -1.421875 12.171875 6.21875 
Q 5.515625 13.875 5.515625 27.296875 
Q 5.515625 40.765625 12.171875 48.375 
Q 18.84375 56 30.609375 56 
z
" id="DejaVuSans-6f"/>
      <path d="M 54.890625 33.015625 
L 54.890625 0 
L 45.90625 0 
L 45.90625 32.71875 
Q 45.90625 40.484375 42.875 44.328125 
Q 39.84375 48.1875 33.796875 48.1875 
Q 26.515625 48.1875 22.3125 43.546875 
Q 18.109375 38.921875 18.109375 30.90625 
L 18.109375 0 
L 9.078125 0 
L 9.078125 54.6875 
L 18.109375 54.6875 
L 18.109375 46.1875 
Q 21.34375 51.125 25.703125 53.5625 
Q 30.078125 56 35.796875 56 
Q 45.21875 56 50.046875 50.171875 
Q 54.890625 44.34375 54.890625 33.015625 
z
" id="DejaVuSans-6e"/>
      <path d="M 41.109375 46.296875 
Q 39.59375 47.171875 37.8125 47.578125 
Q 36.03125 48 33.890625 48 
Q 26.265625 48 22.1875 43.046875 
Q 18.109375 38.09375 18.109375 28.8125 
L 18.109375 0 
L 9.078125 0 
L 9.078125 54.6875 
L 18.109375 54.6875 
L 18.109375 46.1875 
Q 20.953125 51.171875 25.484375 53.578125 
Q 30.03125 56 36.53125 56 
Q 37.453125 56 38.578125 55.875 
Q 39.703125 55.765625 41.0625 55.515625 
z
" id="DejaVuSans-72"/>
      <path d="M 9.421875 75.984375 
L 18.40625 75.984375 
L 18.40625 0 
L 9.421875 0 
z
" id="DejaVuSans-6c"/>
      <path id="DejaVuSans-20"/>
      <path d="M 9.8125 72.90625 
L 19.671875 72.90625 
L 19.671875 0 
L 9.8125 0 
z
" id="DejaVuSans-49"/>
      <path d="M 18.109375 8.203125 
L 18.109375 -20.796875 
L 9.078125 -20.796875 
L 9.078125 54.6875 
L 18.109375 54.6875 
L 18.109375 46.390625 
Q 20.953125 51.265625 25.265625 53.625 
Q 29.59375 56 35.59375 56 
Q 45.5625 56 51.78125 48.09375 
Q 58.015625 40.1875 58.015625 27.296875 
Q 58.015625 14.40625 51.78125 6.484375 
Q 45.5625 -1.421875 35.59375 -1.421875 
Q 29.59375 -1.421875 25.265625 0.953125 
Q 20.953125 3.328125 18.109375 8.203125 
z
M 48.6875 27.296875 
Q 48.6875 37.203125 44.609375 42.84375 
Q 40.53125 48.484375 33.40625 48.484375 
Q 26.265625 48.484375 22.1875 42.84375 
Q 18.109375 37.203125 18.109375 27.296875 
Q 18.109375 17.390625 22.1875 11.75 
Q 26.265625 6.109375 33.40625 6.109375 
Q 40.53125 6.109375 44.609375 11.75 
Q 48.6875 17.390625 48.6875 27.296875 
z
" id="DejaVuSans-70"/>
      <path d="M 8.5 21.578125 
L 8.5 54.6875 
L 17.484375 54.6875 
L 17.484375 21.921875 
Q 17.484375 14.15625 20.5 10.265625 
Q 23.53125 6.390625 29.59375 6.390625 
Q 36.859375 6.390625 41.078125 11.03125 
Q 45.3125 15.671875 45.3125 23.6875 
L 45.3125 54.6875 
L 54.296875 54.6875 
L 54.296875 0 
L 45.3125 0 
L 45.3125 8.40625 
Q 42.046875 3.421875 37.71875 1 
Q 33.40625 -1.421875 27.6875 -1.421875 
Q 18.265625 -1.421875 13.375 4.4375 
Q 8.5 10.296875 8.5 21.578125 
z
M 31.109375 56 
z
" id="DejaVuSans-75"/>
     </defs>
     <g transform="translate(7.5125 317.361279)rotate(-90)scale(0.1 -0.1)">
      <use xlink:href="#DejaVuSans-43"/>
      <use x="69.824219" xlink:href="#DejaVuSans-6f"/>
      <use x="131.005859" xlink:href="#DejaVuSans-6e"/>
      <use x="194.384766" xlink:href="#DejaVuSans-74"/>
      <use x="233.59375" xlink:href="#DejaVuSans-72"/>
      <use x="274.675781" xlink:href="#DejaVuSans-6f"/>
      <use x="335.857422" xlink:href="#DejaVuSans-6c"/>
      <use x="363.640625" xlink:href="#DejaVuSans-20"/>
      <use x="395.427734" xlink:href="#DejaVuSans-49"/>
      <use x="424.919922" xlink:href="#DejaVuSans-6e"/>
      <use x="488.298828" xlink:href="#DejaVuSans-70"/>
      <use x="551.775391" xlink:href="#DejaVuSans-75"/>
      <use x="615.154297" xlink:href="#DejaVuSans-74"/>
     </g>
    </g>
   </g>
   <g id="line2d_51">
    <path clip-path="url(#pb75f226528)" d="M 73.832727 284.609673 
L 73.949603 288.344993 
L 74.482036 288.344993 
L 74.598912 275.496553 
L 75.131345 275.496553 
L 75.248221 265.866134 
L 75.780655 265.866134 
L 75.89753 273.482442 
L 76.429964 273.482442 
L 76.546839 292.450694 
L 77.079273 292.450694 
L 77.196148 293.654932 
L 77.728582 293.654932 
L 77.845457 292.401783 
L 78.377891 292.401783 
L 78.494767 284.08952 
L 79.0272 284.08952 
L 79.144076 299.597529 
L 79.676509 299.597529 
L 79.793385 284.571507 
L 80.325818 284.571507 
L 80.442694 285.918204 
L 80.975127 285.918204 
L 81.092003 275.136877 
L 81.624436 275.136877 
L 81.741312 299.604703 
L 82.273745 299.604703 
L 82.390621 276.850047 
L 82.923055 276.850047 
L 83.03993 272.897417 
L 83.572364 272.897417 
L 83.689239 295.509617 
L 84.221673 295.509617 
L 84.338548 275.119929 
L 84.870982 275.119929 
L 84.987857 300.346015 
L 85.520291 300.346015 
L 85.637167 271.284567 
L 86.1696 271.284567 
L 86.286476 303.589194 
L 86.818909 303.589194 
L 86.935785 267.465808 
L 87.468218 267.465808 
L 87.585094 275.84639 
L 88.117527 275.84639 
L 88.234403 290.178023 
L 88.766836 290.178023 
L 88.883712 301.868017 
L 89.416145 301.868017 
L 89.533021 287.332844 
L 90.065455 287.332844 
L 90.18233 291.898688 
L 90.714764 291.898688 
L 90.831639 269.279505 
L 91.364073 269.279505 
L 91.480948 281.029555 
L 92.013382 281.029555 
L 92.130257 282.761409 
L 92.662691 282.761409 
L 92.779567 264.289334 
L 93.312 264.289334 
L 93.428876 292.748608 
L 93.961309 292.748608 
L 94.078185 271.479428 
L 94.610618 271.479428 
L 94.727494 268.110284 
L 95.259927 268.110284 
L 95.376803 285.466748 
L 95.909236 285.466748 
L 96.026112 290.396995 
L 96.558545 290.396995 
L 96.675421 276.644112 
L 97.207855 276.644112 
L 97.32473 294.277167 
L 97.857164 294.277167 
L 97.974039 270.972847 
L 98.506473 270.972847 
L 98.623348 265.954618 
L 99.155782 265.954618 
L 99.272657 266.929515 
L 99.805091 266.929515 
L 99.921967 285.295409 
L 100.4544 285.295409 
L 100.571276 280.679543 
L 101.103709 280.679543 
L 101.220585 304.06333 
L 101.753018 304.06333 
L 101.869894 290.028312 
L 102.402327 290.028312 
L 102.519203 276.490948 
L 103.051636 276.490948 
L 103.168512 285.350743 
L 103.700945 285.350743 
L 103.817821 274.871909 
L 104.350255 274.871909 
L 104.46713 264.396183 
L 104.999564 264.396183 
L 105.116439 289.678451 
L 105.648873 289.678451 
L 105.765748 292.217636 
L 106.298182 292.217636 
L 106.415057 299.083552 
L 106.947491 299.083552 
L 107.064367 291.685113 
L 107.5968 291.685113 
L 107.713676 277.498812 
L 108.246109 277.498812 
L 108.362985 264.356646 
L 108.895418 264.356646 
L 109.012294 285.802978 
L 109.544727 285.802978 
L 109.661603 305.036262 
L 110.194036 305.036262 
L 110.310912 281.833124 
L 110.843345 281.833124 
L 110.960221 266.415244 
L 111.492655 266.415244 
L 111.60953 278.332525 
L 112.141964 278.332525 
L 112.258839 270.408293 
L 112.791273 270.408293 
L 112.908148 282.251238 
L 113.440582 282.251238 
L 113.557457 304.132107 
L 114.089891 304.132107 
L 114.206767 286.854455 
L 114.7392 286.854455 
L 114.856076 290.181198 
L 115.388509 290.181198 
L 115.505385 297.88054 
L 116.037818 297.88054 
L 116.154694 285.234608 
L 116.687127 285.234608 
L 116.804003 290.431335 
L 117.336436 290.431335 
L 117.453312 280.365035 
L 117.985745 280.365035 
L 118.102621 305.495017 
L 118.635055 305.495017 
L 118.75193 296.67331 
L 119.284364 296.67331 
L 119.401239 284.790872 
L 119.933673 284.790872 
L 120.050548 296.264756 
L 120.582982 296.264756 
L 120.699857 281.123558 
L 121.232291 281.123558 
L 121.349167 295.259628 
L 121.8816 295.259628 
L 121.998476 284.925311 
L 122.530909 284.925311 
L 122.647785 299.205884 
L 123.180218 299.205884 
L 123.297094 285.720837 
L 123.829527 285.720837 
L 123.946403 289.916637 
L 124.478836 289.916637 
L 124.595712 296.123749 
L 125.128145 296.123749 
L 125.245021 267.407622 
L 125.777455 267.407622 
L 125.89433 284.52581 
L 126.426764 284.52581 
L 126.543639 285.749881 
L 127.076073 285.749881 
L 127.192948 278.312665 
L 127.725382 278.312665 
L 127.842257 285.572692 
L 128.374691 285.572692 
L 128.491567 270.980031 
L 129.024 270.980031 
L 129.140876 302.081002 
L 129.673309 302.081002 
L 129.790185 304.958273 
L 130.322618 304.958273 
L 130.439494 288.991792 
L 130.971927 288.991792 
L 131.088803 275.451066 
L 131.621236 275.451066 
L 131.738112 286.070255 
L 132.270545 286.070255 
L 132.387421 292.498557 
L 132.919855 292.498557 
L 133.03673 289.077396 
L 133.569164 289.077396 
L 133.686039 276.664816 
L 134.218473 276.664816 
L 134.335348 302.001092 
L 134.867782 302.001092 
L 134.984657 297.439787 
L 135.517091 297.439787 
L 135.633967 288.684972 
L 136.1664 288.684972 
L 136.283276 291.728982 
L 136.815709 291.728982 
L 136.932585 293.105825 
L 137.465018 293.105825 
L 137.581894 294.61496 
L 138.114327 294.61496 
L 138.231203 293.036448 
L 138.763636 293.036448 
L 138.880512 282.317257 
L 139.412945 282.317257 
L 139.529821 275.856194 
L 140.062255 275.856194 
L 140.17913 298.390527 
L 140.711564 298.390527 
L 140.828439 273.2865 
L 141.360873 273.2865 
L 141.477748 277.153171 
L 142.010182 277.153171 
L 142.127057 291.427044 
L 142.659491 291.427044 
L 142.776367 284.293957 
L 143.3088 284.293957 
L 143.425676 284.674699 
L 143.958109 284.674699 
L 144.074985 291.248036 
L 144.607418 291.248036 
L 144.724294 297.890755 
L 145.256727 297.890755 
L 145.373603 284.933114 
L 145.906036 284.933114 
L 146.022912 289.562673 
L 146.555345 289.562673 
L 146.672221 272.450648 
L 147.204655 272.450648 
L 147.32153 292.917692 
L 147.853964 292.917692 
L 147.970839 286.869422 
L 148.503273 286.869422 
L 148.620148 297.283318 
L 149.152582 297.283318 
L 149.269457 303.310715 
L 150.4512 303.250671 
L 150.568076 266.707811 
L 151.100509 266.707811 
L 151.217385 290.598274 
L 151.749818 290.598274 
L 151.866694 300.578058 
L 152.399127 300.578058 
L 152.516003 273.996962 
L 153.048436 273.996962 
L 153.165312 274.63879 
L 153.697745 274.63879 
L 153.814621 289.568921 
L 154.347055 289.568921 
L 154.46393 291.213916 
L 154.996364 291.213916 
L 155.113239 303.738669 
L 155.645673 303.738669 
L 155.762548 265.468746 
L 156.294982 265.468746 
L 156.411857 285.837168 
L 156.944291 285.837168 
L 157.061167 296.093709 
L 157.5936 296.093709 
L 157.710476 297.99326 
L 158.242909 297.99326 
L 158.359785 292.754128 
L 158.892218 292.754128 
L 159.009094 299.734265 
L 159.541527 299.734265 
L 159.658403 283.646976 
L 160.190836 283.646976 
L 160.307712 272.776273 
L 160.840145 272.776273 
L 160.957021 276.144358 
L 161.489455 276.144358 
L 161.60633 266.734094 
L 162.138764 266.734094 
L 162.255639 279.542673 
L 162.788073 279.542673 
L 162.904948 305.498483 
L 163.437382 305.498483 
L 163.554257 279.431186 
L 164.086691 279.431186 
L 164.203567 294.67225 
L 164.736 294.67225 
L 164.852876 287.076156 
L 165.385309 287.076156 
L 165.502185 278.428717 
L 166.034618 278.428717 
L 166.151494 281.773948 
L 166.683927 281.773948 
L 166.800803 295.931135 
L 167.333236 295.931135 
L 167.450112 285.551424 
L 167.982545 285.551424 
L 168.099421 289.148413 
L 168.631855 289.148413 
L 168.74873 294.965278 
L 169.281164 294.965278 
L 169.398039 299.601537 
L 169.930473 299.601537 
L 170.047348 303.935868 
L 170.579782 303.935868 
L 170.696657 290.203873 
L 171.229091 290.203873 
L 171.345967 266.314979 
L 171.8784 266.314979 
L 171.995276 272.907713 
L 172.527709 272.907713 
L 172.644585 302.617937 
L 173.177018 302.617937 
L 173.293894 290.093385 
L 173.826327 290.093385 
L 173.943203 287.426246 
L 174.475636 287.426246 
L 174.592512 298.631718 
L 175.124945 298.631718 
L 175.241821 289.995205 
L 175.774255 289.995205 
L 175.89113 296.558344 
L 176.423564 296.558344 
L 176.540439 295.959602 
L 177.072873 295.959602 
L 177.189748 265.885018 
L 177.722182 265.885018 
L 177.839057 268.999155 
L 178.371491 268.999155 
L 178.488367 268.15691 
L 179.0208 268.15691 
L 179.137676 263.788138 
L 179.670109 263.788138 
L 179.786985 301.37603 
L 180.319418 301.37603 
L 180.436294 304.434192 
L 180.968727 304.434192 
L 181.085603 282.380396 
L 181.618036 282.380396 
L 181.734912 269.283636 
L 182.267345 269.283636 
L 182.384221 296.391788 
L 182.916655 296.391788 
L 183.03353 291.024119 
L 183.565964 291.024119 
L 183.682839 279.000116 
L 184.215273 279.000116 
L 184.332148 273.910578 
L 184.864582 273.910578 
L 184.981457 304.13108 
L 185.513891 304.13108 
L 185.630767 264.165933 
L 186.1632 264.165933 
L 186.280076 289.670646 
L 186.812509 289.670646 
L 186.929385 290.070107 
L 187.461818 290.070107 
L 187.578694 278.805272 
L 188.111127 278.805272 
L 188.228003 285.122919 
L 188.760436 285.122919 
L 188.877312 281.514381 
L 189.409745 281.514381 
L 189.526621 292.32711 
L 190.059055 292.32711 
L 190.17593 291.029542 
L 190.708364 291.029542 
L 190.825239 279.075196 
L 191.357673 279.075196 
L 191.474548 283.086605 
L 192.006982 283.086605 
L 192.123857 281.369076 
L 192.656291 281.369076 
L 192.773167 291.916201 
L 193.3056 291.916201 
L 193.422476 300.01219 
L 193.954909 300.01219 
L 194.071785 274.842891 
L 194.604218 274.842891 
L 194.721094 299.359877 
L 195.253527 299.359877 
L 195.370403 276.913417 
L 195.902836 276.913417 
L 196.019712 286.825256 
L 196.552145 286.825256 
L 196.669021 292.729197 
L 197.201455 292.729197 
L 197.31833 287.952738 
L 197.850764 287.952738 
L 197.967639 273.520206 
L 198.500073 273.520206 
L 198.616948 285.388035 
L 199.149382 285.388035 
L 199.266257 272.504092 
L 199.798691 272.504092 
L 199.915567 294.787774 
L 200.448 294.787774 
L 200.564876 271.466104 
L 201.097309 271.466104 
L 201.214185 299.369704 
L 201.746618 299.369704 
L 201.863494 302.216758 
L 202.395927 302.216758 
L 202.512803 284.121751 
L 203.045236 284.121751 
L 203.162112 278.276874 
L 203.694545 278.276874 
L 203.811421 276.185709 
L 204.343855 276.185709 
L 204.46073 265.555179 
L 204.993164 265.555179 
L 205.110039 271.71288 
L 205.642473 271.71288 
L 205.759348 296.972028 
L 206.291782 296.972028 
L 206.408657 266.817417 
L 206.941091 266.817417 
L 207.057967 264.280425 
L 207.5904 264.280425 
L 207.707276 291.353918 
L 208.239709 291.353918 
L 208.356585 302.616599 
L 208.889018 302.616599 
L 209.005894 268.276178 
L 209.538327 268.276178 
L 209.655203 291.728447 
L 210.187636 291.728447 
L 210.304512 290.005537 
L 210.836945 290.005537 
L 210.953821 302.358599 
L 211.486255 302.358599 
L 211.60313 270.598382 
L 212.135564 270.598382 
L 212.252439 300.832059 
L 212.784873 300.832059 
L 212.901748 273.299535 
L 213.434182 273.299535 
L 213.551057 275.728159 
L 214.083491 275.728159 
L 214.200367 304.367246 
L 214.7328 304.367246 
L 214.849676 300.043758 
L 215.382109 300.043758 
L 215.498985 286.474523 
L 216.031418 286.474523 
L 216.148294 264.814613 
L 216.680727 264.814613 
L 216.797603 272.3252 
L 217.979345 272.418178 
L 218.096221 268.967458 
L 218.628655 268.967458 
L 218.74553 291.451596 
L 219.277964 291.451596 
L 219.394839 294.565181 
L 219.927273 294.565181 
L 220.044148 268.032867 
L 220.576582 268.032867 
L 220.693457 282.746727 
L 221.225891 282.746727 
L 221.342767 281.80873 
L 221.8752 281.80873 
L 221.992076 264.138772 
L 222.524509 264.138772 
L 222.641385 272.192356 
L 223.173818 272.192356 
L 223.290694 289.221802 
L 223.823127 289.221802 
L 223.940003 287.035813 
L 224.472436 287.035813 
L 224.589312 271.571814 
L 225.121745 271.571814 
L 225.238621 297.112845 
L 225.771055 297.112845 
L 225.88793 283.754739 
L 226.420364 283.754739 
L 226.537239 293.080435 
L 227.069673 293.080435 
L 227.186548 298.935658 
L 227.718982 298.935658 
L 227.835857 287.277659 
L 228.368291 287.277659 
L 228.485167 265.963067 
L 229.0176 265.963067 
L 229.134476 273.127495 
L 229.666909 273.127495 
L 229.783785 282.846184 
L 230.316218 282.846184 
L 230.433094 297.807245 
L 230.965527 297.807245 
L 231.082403 281.195094 
L 231.614836 281.195094 
L 231.731712 270.564855 
L 232.264145 270.564855 
L 232.381021 290.343578 
L 232.913455 290.343578 
L 233.03033 285.933744 
L 233.562764 285.933744 
L 233.679639 273.86199 
L 234.212073 273.86199 
L 234.328948 304.219009 
L 234.861382 304.219009 
L 234.978257 268.080535 
L 235.510691 268.080535 
L 235.627567 282.396898 
L 236.16 282.396898 
L 236.276876 267.682299 
L 236.809309 267.682299 
L 236.926185 283.310766 
L 237.458618 283.310766 
L 237.575494 291.17044 
L 238.107927 291.17044 
L 238.224803 291.961635 
L 238.757236 291.961635 
L 238.874112 287.113127 
L 239.406545 287.113127 
L 239.523421 267.215036 
L 240.055855 267.215036 
L 240.17273 296.278131 
L 240.705164 296.278131 
L 240.822039 293.178037 
L 241.354473 293.178037 
L 241.471348 271.17027 
L 242.003782 271.17027 
L 242.120657 297.341209 
L 242.653091 297.341209 
L 242.769967 273.190017 
L 243.3024 273.190017 
L 243.419276 289.941619 
L 243.951709 289.941619 
L 244.068585 302.644537 
L 244.601018 302.644537 
L 244.717894 305.159177 
L 245.250327 305.159177 
L 245.367203 302.539602 
L 245.899636 302.539602 
L 246.016512 300.912115 
L 246.548945 300.912115 
L 246.665821 286.725293 
L 247.198255 286.725293 
L 247.31513 280.173608 
L 247.847564 280.173608 
L 247.964439 296.354971 
L 248.496873 296.354971 
L 248.613748 281.195097 
L 249.146182 281.195097 
L 249.263057 275.196238 
L 249.795491 275.196238 
L 249.912367 303.757705 
L 250.4448 303.757705 
L 250.561676 286.37417 
L 251.094109 286.37417 
L 251.210985 291.707005 
L 251.743418 291.707005 
L 251.860294 276.686595 
L 252.392727 276.686595 
L 252.509603 284.514954 
L 253.042036 284.514954 
L 253.158912 276.895972 
L 253.691345 276.895972 
L 253.808221 300.151165 
L 254.340655 300.151165 
L 254.45753 271.640559 
L 254.989964 271.640559 
L 255.106839 279.145813 
L 255.639273 279.145813 
L 255.756148 303.317145 
L 256.288582 303.317145 
L 256.405457 290.280369 
L 256.937891 290.280369 
L 257.054767 291.40581 
L 257.5872 291.40581 
L 257.704076 301.691763 
L 258.236509 301.691763 
L 258.353385 265.574693 
L 258.885818 265.574693 
L 259.002694 272.123574 
L 259.535127 272.123574 
L 259.652003 268.951502 
L 260.184436 268.951502 
L 260.301312 292.367404 
L 260.833745 292.367404 
L 260.950621 277.925432 
L 261.483055 277.925432 
L 261.59993 286.115468 
L 262.132364 286.115468 
L 262.249239 301.189172 
L 262.781673 301.189172 
L 262.898548 277.407908 
L 263.430982 277.407908 
L 263.547857 300.377388 
L 264.080291 300.377388 
L 264.197167 303.246988 
L 264.7296 303.246988 
L 264.846476 282.184511 
L 265.378909 282.184511 
L 265.495785 294.645055 
L 266.028218 294.645055 
L 266.145094 304.963689 
L 266.677527 304.963689 
L 266.794403 292.341775 
L 267.326836 292.341775 
L 267.443712 273.635873 
L 268.625455 273.720706 
L 268.74233 304.67442 
L 269.274764 304.67442 
L 269.391639 292.773616 
L 269.924073 292.773616 
L 270.040948 278.27994 
L 270.573382 278.27994 
L 270.690257 293.214975 
L 271.222691 293.214975 
L 271.339567 297.299699 
L 271.872 297.299699 
L 271.988876 276.403035 
L 272.521309 276.403035 
L 272.638185 284.81827 
L 273.170618 284.81827 
L 273.287494 286.880262 
L 273.819927 286.880262 
L 273.936803 295.423554 
L 274.469236 295.423554 
L 274.586112 282.845243 
L 275.118545 282.845243 
L 275.235421 275.739193 
L 275.767855 275.739193 
L 275.88473 304.365241 
L 276.417164 304.365241 
L 276.534039 282.741943 
L 277.066473 282.741943 
L 277.183348 298.298195 
L 277.715782 298.298195 
L 277.832657 285.707195 
L 278.365091 285.707195 
L 278.481967 284.020198 
L 279.0144 284.020198 
L 279.131276 276.028011 
L 279.663709 276.028011 
L 279.780585 301.92302 
L 280.313018 301.92302 
L 280.429894 263.919286 
L 280.962327 263.919286 
L 281.079203 275.82848 
L 281.611636 275.82848 
L 281.728512 300.680026 
L 282.260945 300.680026 
L 282.377821 301.385354 
L 282.910255 301.385354 
L 283.02713 293.570866 
L 283.559564 293.570866 
L 283.676439 288.389472 
L 284.208873 288.389472 
L 284.325748 269.08513 
L 284.858182 269.08513 
L 284.975057 294.068834 
L 285.507491 294.068834 
L 285.624367 274.025702 
L 286.1568 274.025702 
L 286.273676 287.275462 
L 286.806109 287.275462 
L 286.922985 270.199646 
L 287.455418 270.199646 
L 287.572294 284.173145 
L 288.104727 284.173145 
L 288.221603 293.272017 
L 288.754036 293.272017 
L 288.870912 269.497902 
L 289.403345 269.497902 
L 289.520221 279.982306 
L 290.052655 279.982306 
L 290.16953 272.874095 
L 290.701964 272.874095 
L 290.818839 275.871371 
L 291.351273 275.871371 
L 291.468148 265.204095 
L 292.000582 265.204095 
L 292.117457 284.615115 
L 292.649891 284.615115 
L 292.766767 274.551265 
L 293.2992 274.551265 
L 293.416076 268.363331 
L 293.948509 268.363331 
L 294.065385 297.410261 
L 294.597818 297.410261 
L 294.714694 288.851418 
L 295.247127 288.851418 
L 295.364003 287.772051 
L 295.896436 287.772051 
L 296.013312 264.625777 
L 296.545745 264.625777 
L 296.662621 276.304773 
L 297.195055 276.304773 
L 297.31193 294.524533 
L 297.844364 294.524533 
L 297.961239 278.010561 
L 298.493673 278.010561 
L 298.610548 267.542668 
L 299.142982 267.542668 
L 299.259857 287.181955 
L 299.792291 287.181955 
L 299.909167 296.139842 
L 300.4416 296.139842 
L 300.558476 293.407187 
L 301.090909 293.407187 
L 301.207785 296.107143 
L 301.740218 296.107143 
L 301.857094 289.419432 
L 302.389527 289.419432 
L 302.506403 276.612513 
L 303.038836 276.612513 
L 303.155712 272.506598 
L 303.688145 272.506598 
L 303.805021 285.511207 
L 304.337455 285.511207 
L 304.45433 297.304466 
L 304.986764 297.304466 
L 305.103639 292.146709 
L 305.636073 292.146709 
L 305.752948 275.574749 
L 306.285382 275.574749 
L 306.402257 294.662751 
L 306.934691 294.662751 
L 307.051567 295.489974 
L 307.584 295.489974 
L 307.700876 273.215834 
L 308.233309 273.215834 
L 308.350185 297.119494 
L 308.882618 297.119494 
L 308.999494 289.654835 
L 309.531927 289.654835 
L 309.648803 283.039392 
L 310.181236 283.039392 
L 310.298112 292.762209 
L 310.830545 292.762209 
L 310.947421 267.418634 
L 311.479855 267.418634 
L 311.59673 288.317982 
L 312.129164 288.317982 
L 312.246039 288.145738 
L 312.778473 288.145738 
L 312.895348 272.453067 
L 313.427782 272.453067 
L 313.544657 298.53181 
L 314.077091 298.53181 
L 314.193967 297.873805 
L 314.7264 297.873805 
L 314.843276 263.979467 
L 315.375709 263.979467 
L 315.492585 289.336849 
L 316.025018 289.336849 
L 316.141894 282.656869 
L 316.674327 282.656869 
L 316.791203 294.307631 
L 317.323636 294.307631 
L 317.440512 270.761539 
L 317.972945 270.761539 
L 318.089821 271.341518 
L 318.622255 271.341518 
L 318.73913 282.587597 
L 319.271564 282.587597 
L 319.388439 296.135859 
L 319.920873 296.135859 
L 320.037748 299.484591 
L 320.570182 299.484591 
L 320.687057 269.927122 
L 321.219491 269.927122 
L 321.336367 287.41083 
L 321.8688 287.41083 
L 321.985676 294.944207 
L 322.518109 294.944207 
L 322.634985 278.884101 
L 323.167418 278.884101 
L 323.284294 277.28718 
L 323.816727 277.28718 
L 323.933603 266.137976 
L 324.466036 266.137976 
L 324.582912 291.002591 
L 325.115345 291.002591 
L 325.232221 303.495171 
L 325.764655 303.495171 
L 325.88153 270.97384 
L 326.413964 270.97384 
L 326.530839 275.953866 
L 327.063273 275.953866 
L 327.180148 284.418183 
L 327.712582 284.418183 
L 327.829457 293.006728 
L 328.361891 293.006728 
L 328.478767 288.457919 
L 329.0112 288.457919 
L 329.128076 283.094315 
L 330.309818 282.990251 
L 330.426694 295.300186 
L 330.959127 295.300186 
L 331.076003 275.738265 
L 331.608436 275.738265 
L 331.725312 305.314703 
L 332.257745 305.314703 
L 332.374621 283.127378 
L 332.907055 283.127378 
L 333.02393 273.583421 
L 333.556364 273.583421 
L 333.673239 266.502539 
L 334.205673 266.502539 
L 334.322548 295.949973 
L 334.854982 295.949973 
L 334.971857 265.584848 
L 335.504291 265.584848 
L 335.621167 268.043946 
L 336.1536 268.043946 
L 336.270476 303.084547 
L 336.802909 303.084547 
L 336.919785 277.194188 
L 337.452218 277.194188 
L 337.569094 267.5537 
L 338.101527 267.5537 
L 338.218403 296.556398 
L 338.750836 296.556398 
L 338.867712 299.369356 
L 339.400145 299.369356 
L 339.517021 293.410023 
L 340.049455 293.410023 
L 340.16633 294.334262 
L 340.698764 294.334262 
L 340.815639 269.294372 
L 341.348073 269.294372 
L 341.464948 301.824549 
L 341.997382 301.824549 
L 342.114257 293.527335 
L 342.646691 293.527335 
L 342.763567 297.083008 
L 343.296 297.083008 
L 343.412876 265.467626 
L 343.945309 265.467626 
L 344.062185 269.665335 
L 344.594618 269.665335 
L 344.711494 300.908718 
L 345.243927 300.908718 
L 345.360803 299.302298 
L 345.893236 299.302298 
L 346.010112 267.619859 
L 346.542545 267.619859 
L 346.659421 275.685634 
L 347.191855 275.685634 
L 347.30873 276.528905 
L 347.841164 276.528905 
L 347.958039 281.709426 
L 348.490473 281.709426 
L 348.607348 274.618774 
L 349.139782 274.618774 
L 349.256657 295.311074 
L 349.789091 295.311074 
L 349.905967 289.974218 
L 350.4384 289.974218 
L 350.555276 292.351365 
L 351.087709 292.351365 
L 351.204585 279.408912 
L 351.737018 279.408912 
L 351.853894 280.880632 
L 352.386327 280.880632 
L 352.503203 302.596021 
L 353.035636 302.596021 
L 353.152512 268.324017 
L 353.684945 268.324017 
L 353.801821 264.038968 
L 354.334255 264.038968 
L 354.45113 304.503075 
L 354.983564 304.503075 
L 355.100439 291.387316 
L 355.632873 291.387316 
L 355.749748 267.498015 
L 356.282182 267.498015 
L 356.399057 299.818229 
L 356.931491 299.818229 
L 357.048367 291.203576 
L 357.5808 291.203576 
L 357.697676 286.112087 
L 358.230109 286.112087 
L 358.346985 302.838472 
L 358.879418 302.838472 
L 358.996294 304.498508 
L 359.528727 304.498508 
L 359.645603 267.76777 
L 360.178036 267.76777 
L 360.294912 295.943907 
L 360.827345 295.943907 
L 360.944221 284.884568 
L 361.476655 284.884568 
L 361.59353 264.00658 
L 362.125964 264.00658 
L 362.242839 270.395081 
L 362.775273 270.395081 
L 362.892148 283.191153 
L 363.424582 283.191153 
L 363.541457 290.164603 
L 364.073891 290.164603 
L 364.190767 298.206294 
L 364.7232 298.206294 
L 364.840076 278.89743 
L 365.372509 278.89743 
L 365.489385 299.738139 
L 366.021818 299.738139 
L 366.138694 282.613904 
L 366.671127 282.613904 
L 366.788003 265.581087 
L 367.320436 265.581087 
L 367.437312 265.197977 
L 367.969745 265.197977 
L 368.086621 280.566504 
L 368.619055 280.566504 
L 368.73593 270.283331 
L 369.268364 270.283331 
L 369.385239 281.317566 
L 369.917673 281.317566 
L 370.034548 297.622774 
L 370.566982 297.622774 
L 370.683857 281.377402 
L 371.216291 281.377402 
L 371.333167 299.93143 
L 371.8656 299.93143 
L 371.982476 279.934201 
L 372.514909 279.934201 
L 372.631785 280.113901 
L 373.164218 280.113901 
L 373.281094 291.387668 
L 373.813527 291.387668 
L 373.930403 278.584533 
L 374.462836 278.584533 
L 374.579712 273.532192 
L 375.112145 273.532192 
L 375.229021 289.390839 
L 375.761455 289.390839 
L 375.87833 269.417737 
L 376.410764 269.417737 
L 376.527639 299.532283 
L 377.060073 299.532283 
L 377.176948 265.751652 
L 377.709382 265.751652 
L 377.826257 283.075177 
L 378.358691 283.075177 
L 378.475567 303.797718 
L 379.008 303.797718 
L 379.124876 271.147488 
L 379.657309 271.147488 
L 379.774185 277.579937 
L 380.306618 277.579937 
L 380.423494 265.399041 
L 380.955927 265.399041 
L 381.072803 283.635775 
L 381.605236 283.635775 
L 381.722112 266.760805 
L 382.254545 266.760805 
L 382.371421 268.588981 
L 382.903855 268.588981 
L 383.02073 293.659261 
L 383.553164 293.659261 
L 383.670039 273.539265 
L 384.202473 273.539265 
L 384.319348 267.565953 
L 384.851782 267.565953 
L 384.968657 288.865551 
L 385.501091 288.865551 
L 385.617967 301.081206 
L 386.1504 301.081206 
L 386.267276 271.027861 
L 386.799709 271.027861 
L 386.916585 276.696939 
L 387.449018 276.696939 
L 387.565894 291.444548 
L 388.098327 291.444548 
L 388.215203 284.050324 
L 388.747636 284.050324 
L 388.864512 300.239652 
L 389.396945 300.239652 
L 389.513821 304.78046 
L 390.046255 304.78046 
L 390.16313 282.093823 
L 390.695564 282.093823 
L 390.812439 288.779394 
L 391.344873 288.779394 
L 391.461748 304.901367 
L 391.994182 304.901367 
L 392.111057 271.057021 
L 392.643491 271.057021 
L 392.760367 276.162778 
L 393.2928 276.162778 
L 393.409676 265.138762 
L 393.942109 265.138762 
L 394.058985 285.768954 
L 394.591418 285.768954 
L 394.708294 304.093538 
L 395.240727 304.093538 
L 395.357603 269.272504 
L 395.890036 269.272504 
L 396.006912 289.747077 
L 396.539345 289.747077 
L 396.656221 270.331855 
L 397.188655 270.331855 
L 397.30553 279.073313 
L 397.837964 279.073313 
L 397.954839 295.579458 
L 398.487273 295.579458 
L 398.487273 295.579458 
" style="fill:none;stroke:#ff0000;stroke-linecap:square;stroke-width:1.5;"/>
   </g>
   <g id="patch_23">
    <path d="M 57.6 307.584 
L 57.6 261.702621 
" style="fill:none;stroke:#000000;stroke-linecap:square;stroke-linejoin:miter;stroke-width:0.8;"/>
   </g>
   <g id="patch_24">
    <path d="M 414.72 307.584 
L 414.72 261.702621 
" style="fill:none;stroke:#000000;stroke-linecap:square;stroke-linejoin:miter;stroke-width:0.8;"/>
   </g>
   <g id="patch_25">
    <path d="M 57.6 307.584 
L 414.72 307.584 
" style="fill:none;stroke:#000000;stroke-linecap:square;stroke-linejoin:miter;stroke-width:0.8;"/>
   </g>
   <g id="patch_26">
    <path d="M 57.6 261.702621 
L 414.72 261.702621 
" style="fill:none;stroke:#000000;stroke-linecap:square;stroke-linejoin:miter;stroke-width:0.8;"/>
   </g>
   <g id="legend_1">
    <g id="patch_27">
     <path d="M 313.462188 284.380746 
L 407.72 284.380746 
Q 409.72 284.380746 409.72 282.380746 
L 409.72 268.702621 
Q 409.72 266.702621 407.72 266.702621 
L 313.462188 266.702621 
Q 311.462188 266.702621 311.462188 268.702621 
L 311.462188 282.380746 
Q 311.462188 284.380746 313.462188 284.380746 
z
" style="fill:#ffffff;opacity:0.8;stroke:#cccccc;stroke-linejoin:miter;"/>
    </g>
    <g id="line2d_52">
     <path d="M 315.462188 274.801058 
L 335.462188 274.801058 
" style="fill:none;stroke:#ff0000;stroke-linecap:square;stroke-width:1.5;"/>
    </g>
    <g id="line2d_53"/>
    <g id="text_49">
     <!-- ControlInput -->
     <g transform="translate(343.462188 278.301058)scale(0.1 -0.1)">
      <use xlink:href="#DejaVuSans-43"/>
      <use x="69.824219" xlink:href="#DejaVuSans-6f"/>
      <use x="131.005859" xlink:href="#DejaVuSans-6e"/>
      <use x="194.384766" xlink:href="#DejaVuSans-74"/>
      <use x="233.59375" xlink:href="#DejaVuSans-72"/>
      <use x="274.675781" xlink:href="#DejaVuSans-6f"/>
      <use x="335.857422" xlink:href="#DejaVuSans-6c"/>
      <use x="363.640625" xlink:href="#DejaVuSans-49"/>
      <use x="393.132812" xlink:href="#DejaVuSans-6e"/>
      <use x="456.511719" xlink:href="#DejaVuSans-70"/>
      <use x="519.988281" xlink:href="#DejaVuSans-75"/>
      <use x="583.367188" xlink:href="#DejaVuSans-74"/>
     </g>
    </g>
   </g>
  </g>
 </g>
 <defs>
  <clipPath id="pef0d31580c">
   <rect height="45.881379" width="357.12" x="57.6" y="41.472"/>
  </clipPath>
  <clipPath id="pa54ae5a58e">
   <rect height="45.881379" width="357.12" x="57.6" y="96.529655"/>
  </clipPath>
  <clipPath id="p24e4d9055f">
   <rect height="45.881379" width="357.12" x="57.6" y="151.58731"/>
  </clipPath>
  <clipPath id="p36825630cf">
   <rect height="45.881379" width="357.12" x="57.6" y="206.644966"/>
  </clipPath>
  <clipPath id="pb75f226528">
   <rect height="45.881379" width="357.12" x="57.6" y="261.702621"/>
  </clipPath>
 </defs>
</svg>
