<?xml version="1.0" encoding="utf-8" standalone="no"?>
<!DOCTYPE svg PUBLIC "-//W3C//DTD SVG 1.1//EN"
  "http://www.w3.org/Graphics/SVG/1.1/DTD/svg11.dtd">
<!-- Created with matplotlib (http://matplotlib.org/) -->
<svg height="345.6pt" version="1.1" viewBox="0 0 460.8 345.6" width="460.8pt" xmlns="http://www.w3.org/2000/svg" xmlns:xlink="http://www.w3.org/1999/xlink">
 <defs>
  <style type="text/css">
*{stroke-linecap:butt;stroke-linejoin:round;}
  </style>
 </defs>
 <g id="figure_1">
  <g id="patch_1">
   <path d="M 0 345.6 
L 460.8 345.6 
L 460.8 0 
L 0 0 
z
" style="fill:#ffffff;"/>
  </g>
  <g id="axes_1">
   <g id="patch_2">
    <path d="M 57.6 119.740235 
L 414.72 119.740235 
L 414.72 41.472 
L 57.6 41.472 
z
" style="fill:#ffffff;"/>
   </g>
   <g id="matplotlib.axis_1">
    <g id="xtick_1">
     <g id="line2d_1">
      <defs>
       <path d="M 0 0 
L 0 3.5 
" id="ma580ab5b17" style="stroke:#000000;stroke-width:0.8;"/>
      </defs>
      <g>
       <use style="stroke:#000000;stroke-width:0.8;" x="73.832727" xlink:href="#ma580ab5b17" y="119.740235"/>
      </g>
     </g>
     <g id="text_1">
      <!-- 0 -->
      <defs>
       <path d="M 31.78125 66.40625 
Q 24.171875 66.40625 20.328125 58.90625 
Q 16.5 51.421875 16.5 36.375 
Q 16.5 21.390625 20.328125 13.890625 
Q 24.171875 6.390625 31.78125 6.390625 
Q 39.453125 6.390625 43.28125 13.890625 
Q 47.125 21.390625 47.125 36.375 
Q 47.125 51.421875 43.28125 58.90625 
Q 39.453125 66.40625 31.78125 66.40625 
z
M 31.78125 74.21875 
Q 44.046875 74.21875 50.515625 64.515625 
Q 56.984375 54.828125 56.984375 36.375 
Q 56.984375 17.96875 50.515625 8.265625 
Q 44.046875 -1.421875 31.78125 -1.421875 
Q 19.53125 -1.421875 13.0625 8.265625 
Q 6.59375 17.96875 6.59375 36.375 
Q 6.59375 54.828125 13.0625 64.515625 
Q 19.53125 74.21875 31.78125 74.21875 
z
" id="DejaVuSans-30"/>
      </defs>
      <g transform="translate(70.651477 134.338673)scale(0.1 -0.1)">
       <use xlink:href="#DejaVuSans-30"/>
      </g>
     </g>
    </g>
    <g id="xtick_2">
     <g id="line2d_2">
      <g>
       <use style="stroke:#000000;stroke-width:0.8;" x="138.763636" xlink:href="#ma580ab5b17" y="119.740235"/>
      </g>
     </g>
     <g id="text_2">
      <!-- 10 -->
      <defs>
       <path d="M 12.40625 8.296875 
L 28.515625 8.296875 
L 28.515625 63.921875 
L 10.984375 60.40625 
L 10.984375 69.390625 
L 28.421875 72.90625 
L 38.28125 72.90625 
L 38.28125 8.296875 
L 54.390625 8.296875 
L 54.390625 0 
L 12.40625 0 
z
" id="DejaVuSans-31"/>
      </defs>
      <g transform="translate(132.401136 134.338673)scale(0.1 -0.1)">
       <use xlink:href="#DejaVuSans-31"/>
       <use x="63.623047" xlink:href="#DejaVuSans-30"/>
      </g>
     </g>
    </g>
    <g id="xtick_3">
     <g id="line2d_3">
      <g>
       <use style="stroke:#000000;stroke-width:0.8;" x="203.694545" xlink:href="#ma580ab5b17" y="119.740235"/>
      </g>
     </g>
     <g id="text_3">
      <!-- 20 -->
      <defs>
       <path d="M 19.1875 8.296875 
L 53.609375 8.296875 
L 53.609375 0 
L 7.328125 0 
L 7.328125 8.296875 
Q 12.9375 14.109375 22.625 23.890625 
Q 32.328125 33.6875 34.8125 36.53125 
Q 39.546875 41.84375 41.421875 45.53125 
Q 43.3125 49.21875 43.3125 52.78125 
Q 43.3125 58.59375 39.234375 62.25 
Q 35.15625 65.921875 28.609375 65.921875 
Q 23.96875 65.921875 18.8125 64.3125 
Q 13.671875 62.703125 7.8125 59.421875 
L 7.8125 69.390625 
Q 13.765625 71.78125 18.9375 73 
Q 24.125 74.21875 28.421875 74.21875 
Q 39.75 74.21875 46.484375 68.546875 
Q 53.21875 62.890625 53.21875 53.421875 
Q 53.21875 48.921875 51.53125 44.890625 
Q 49.859375 40.875 45.40625 35.40625 
Q 44.1875 33.984375 37.640625 27.21875 
Q 31.109375 20.453125 19.1875 8.296875 
z
" id="DejaVuSans-32"/>
      </defs>
      <g transform="translate(197.332045 134.338673)scale(0.1 -0.1)">
       <use xlink:href="#DejaVuSans-32"/>
       <use x="63.623047" xlink:href="#DejaVuSans-30"/>
      </g>
     </g>
    </g>
    <g id="xtick_4">
     <g id="line2d_4">
      <g>
       <use style="stroke:#000000;stroke-width:0.8;" x="268.625455" xlink:href="#ma580ab5b17" y="119.740235"/>
      </g>
     </g>
     <g id="text_4">
      <!-- 30 -->
      <defs>
       <path d="M 40.578125 39.3125 
Q 47.65625 37.796875 51.625 33 
Q 55.609375 28.21875 55.609375 21.1875 
Q 55.609375 10.40625 48.1875 4.484375 
Q 40.765625 -1.421875 27.09375 -1.421875 
Q 22.515625 -1.421875 17.65625 -0.515625 
Q 12.796875 0.390625 7.625 2.203125 
L 7.625 11.71875 
Q 11.71875 9.328125 16.59375 8.109375 
Q 21.484375 6.890625 26.8125 6.890625 
Q 36.078125 6.890625 40.9375 10.546875 
Q 45.796875 14.203125 45.796875 21.1875 
Q 45.796875 27.640625 41.28125 31.265625 
Q 36.765625 34.90625 28.71875 34.90625 
L 20.21875 34.90625 
L 20.21875 43.015625 
L 29.109375 43.015625 
Q 36.375 43.015625 40.234375 45.921875 
Q 44.09375 48.828125 44.09375 54.296875 
Q 44.09375 59.90625 40.109375 62.90625 
Q 36.140625 65.921875 28.71875 65.921875 
Q 24.65625 65.921875 20.015625 65.03125 
Q 15.375 64.15625 9.8125 62.3125 
L 9.8125 71.09375 
Q 15.4375 72.65625 20.34375 73.4375 
Q 25.25 74.21875 29.59375 74.21875 
Q 40.828125 74.21875 47.359375 69.109375 
Q 53.90625 64.015625 53.90625 55.328125 
Q 53.90625 49.265625 50.4375 45.09375 
Q 46.96875 40.921875 40.578125 39.3125 
z
" id="DejaVuSans-33"/>
      </defs>
      <g transform="translate(262.262955 134.338673)scale(0.1 -0.1)">
       <use xlink:href="#DejaVuSans-33"/>
       <use x="63.623047" xlink:href="#DejaVuSans-30"/>
      </g>
     </g>
    </g>
    <g id="xtick_5">
     <g id="line2d_5">
      <g>
       <use style="stroke:#000000;stroke-width:0.8;" x="333.556364" xlink:href="#ma580ab5b17" y="119.740235"/>
      </g>
     </g>
     <g id="text_5">
      <!-- 40 -->
      <defs>
       <path d="M 37.796875 64.3125 
L 12.890625 25.390625 
L 37.796875 25.390625 
z
M 35.203125 72.90625 
L 47.609375 72.90625 
L 47.609375 25.390625 
L 58.015625 25.390625 
L 58.015625 17.1875 
L 47.609375 17.1875 
L 47.609375 0 
L 37.796875 0 
L 37.796875 17.1875 
L 4.890625 17.1875 
L 4.890625 26.703125 
z
" id="DejaVuSans-34"/>
      </defs>
      <g transform="translate(327.193864 134.338673)scale(0.1 -0.1)">
       <use xlink:href="#DejaVuSans-34"/>
       <use x="63.623047" xlink:href="#DejaVuSans-30"/>
      </g>
     </g>
    </g>
    <g id="xtick_6">
     <g id="line2d_6">
      <g>
       <use style="stroke:#000000;stroke-width:0.8;" x="398.487273" xlink:href="#ma580ab5b17" y="119.740235"/>
      </g>
     </g>
     <g id="text_6">
      <!-- 50 -->
      <defs>
       <path d="M 10.796875 72.90625 
L 49.515625 72.90625 
L 49.515625 64.59375 
L 19.828125 64.59375 
L 19.828125 46.734375 
Q 21.96875 47.46875 24.109375 47.828125 
Q 26.265625 48.1875 28.421875 48.1875 
Q 40.625 48.1875 47.75 41.5 
Q 54.890625 34.8125 54.890625 23.390625 
Q 54.890625 11.625 47.5625 5.09375 
Q 40.234375 -1.421875 26.90625 -1.421875 
Q 22.3125 -1.421875 17.546875 -0.640625 
Q 12.796875 0.140625 7.71875 1.703125 
L 7.71875 11.625 
Q 12.109375 9.234375 16.796875 8.0625 
Q 21.484375 6.890625 26.703125 6.890625 
Q 35.15625 6.890625 40.078125 11.328125 
Q 45.015625 15.765625 45.015625 23.390625 
Q 45.015625 31 40.078125 35.4375 
Q 35.15625 39.890625 26.703125 39.890625 
Q 22.75 39.890625 18.8125 39.015625 
Q 14.890625 38.140625 10.796875 36.28125 
z
" id="DejaVuSans-35"/>
      </defs>
      <g transform="translate(392.124773 134.338673)scale(0.1 -0.1)">
       <use xlink:href="#DejaVuSans-35"/>
       <use x="63.623047" xlink:href="#DejaVuSans-30"/>
      </g>
     </g>
    </g>
   </g>
   <g id="matplotlib.axis_2">
    <g id="ytick_1">
     <g id="line2d_7">
      <defs>
       <path d="M 0 0 
L -3.5 0 
" id="mc0a5b09f5f" style="stroke:#000000;stroke-width:0.8;"/>
      </defs>
      <g>
       <use style="stroke:#000000;stroke-width:0.8;" x="57.6" xlink:href="#mc0a5b09f5f" y="107.264334"/>
      </g>
     </g>
     <g id="text_7">
      <!-- 0.0000 -->
      <defs>
       <path d="M 10.6875 12.40625 
L 21 12.40625 
L 21 0 
L 10.6875 0 
z
" id="DejaVuSans-2e"/>
      </defs>
      <g transform="translate(15.609375 111.063553)scale(0.1 -0.1)">
       <use xlink:href="#DejaVuSans-30"/>
       <use x="63.623047" xlink:href="#DejaVuSans-2e"/>
       <use x="95.410156" xlink:href="#DejaVuSans-30"/>
       <use x="159.033203" xlink:href="#DejaVuSans-30"/>
       <use x="222.65625" xlink:href="#DejaVuSans-30"/>
       <use x="286.279297" xlink:href="#DejaVuSans-30"/>
      </g>
     </g>
    </g>
    <g id="ytick_2">
     <g id="line2d_8">
      <g>
       <use style="stroke:#000000;stroke-width:0.8;" x="57.6" xlink:href="#mc0a5b09f5f" y="65.738986"/>
      </g>
     </g>
     <g id="text_8">
      <!-- 0.0005 -->
      <g transform="translate(15.609375 69.538205)scale(0.1 -0.1)">
       <use xlink:href="#DejaVuSans-30"/>
       <use x="63.623047" xlink:href="#DejaVuSans-2e"/>
       <use x="95.410156" xlink:href="#DejaVuSans-30"/>
       <use x="159.033203" xlink:href="#DejaVuSans-30"/>
       <use x="222.65625" xlink:href="#DejaVuSans-30"/>
       <use x="286.279297" xlink:href="#DejaVuSans-35"/>
      </g>
     </g>
    </g>
    <g id="text_9">
     <!-- TD State 0 -->
     <defs>
      <path d="M -0.296875 72.90625 
L 61.375 72.90625 
L 61.375 64.59375 
L 35.5 64.59375 
L 35.5 0 
L 25.59375 0 
L 25.59375 64.59375 
L -0.296875 64.59375 
z
" id="DejaVuSans-54"/>
      <path d="M 19.671875 64.796875 
L 19.671875 8.109375 
L 31.59375 8.109375 
Q 46.6875 8.109375 53.6875 14.9375 
Q 60.6875 21.78125 60.6875 36.53125 
Q 60.6875 51.171875 53.6875 57.984375 
Q 46.6875 64.796875 31.59375 64.796875 
z
M 9.8125 72.90625 
L 30.078125 72.90625 
Q 51.265625 72.90625 61.171875 64.09375 
Q 71.09375 55.28125 71.09375 36.53125 
Q 71.09375 17.671875 61.125 8.828125 
Q 51.171875 0 30.078125 0 
L 9.8125 0 
z
" id="DejaVuSans-44"/>
      <path id="DejaVuSans-20"/>
      <path d="M 53.515625 70.515625 
L 53.515625 60.890625 
Q 47.90625 63.578125 42.921875 64.890625 
Q 37.9375 66.21875 33.296875 66.21875 
Q 25.25 66.21875 20.875 63.09375 
Q 16.5 59.96875 16.5 54.203125 
Q 16.5 49.359375 19.40625 46.890625 
Q 22.3125 44.4375 30.421875 42.921875 
L 36.375 41.703125 
Q 47.40625 39.59375 52.65625 34.296875 
Q 57.90625 29 57.90625 20.125 
Q 57.90625 9.515625 50.796875 4.046875 
Q 43.703125 -1.421875 29.984375 -1.421875 
Q 24.8125 -1.421875 18.96875 -0.25 
Q 13.140625 0.921875 6.890625 3.21875 
L 6.890625 13.375 
Q 12.890625 10.015625 18.65625 8.296875 
Q 24.421875 6.59375 29.984375 6.59375 
Q 38.421875 6.59375 43.015625 9.90625 
Q 47.609375 13.234375 47.609375 19.390625 
Q 47.609375 24.75 44.3125 27.78125 
Q 41.015625 30.8125 33.5 32.328125 
L 27.484375 33.5 
Q 16.453125 35.6875 11.515625 40.375 
Q 6.59375 45.0625 6.59375 53.421875 
Q 6.59375 63.09375 13.40625 68.65625 
Q 20.21875 74.21875 32.171875 74.21875 
Q 37.3125 74.21875 42.625 73.28125 
Q 47.953125 72.359375 53.515625 70.515625 
z
" id="DejaVuSans-53"/>
      <path d="M 18.3125 70.21875 
L 18.3125 54.6875 
L 36.8125 54.6875 
L 36.8125 47.703125 
L 18.3125 47.703125 
L 18.3125 18.015625 
Q 18.3125 11.328125 20.140625 9.421875 
Q 21.96875 7.515625 27.59375 7.515625 
L 36.8125 7.515625 
L 36.8125 0 
L 27.59375 0 
Q 17.1875 0 13.234375 3.875 
Q 9.28125 7.765625 9.28125 18.015625 
L 9.28125 47.703125 
L 2.6875 47.703125 
L 2.6875 54.6875 
L 9.28125 54.6875 
L 9.28125 70.21875 
z
" id="DejaVuSans-74"/>
      <path d="M 34.28125 27.484375 
Q 23.390625 27.484375 19.1875 25 
Q 14.984375 22.515625 14.984375 16.5 
Q 14.984375 11.71875 18.140625 8.90625 
Q 21.296875 6.109375 26.703125 6.109375 
Q 34.1875 6.109375 38.703125 11.40625 
Q 43.21875 16.703125 43.21875 25.484375 
L 43.21875 27.484375 
z
M 52.203125 31.203125 
L 52.203125 0 
L 43.21875 0 
L 43.21875 8.296875 
Q 40.140625 3.328125 35.546875 0.953125 
Q 30.953125 -1.421875 24.3125 -1.421875 
Q 15.921875 -1.421875 10.953125 3.296875 
Q 6 8.015625 6 15.921875 
Q 6 25.140625 12.171875 29.828125 
Q 18.359375 34.515625 30.609375 34.515625 
L 43.21875 34.515625 
L 43.21875 35.40625 
Q 43.21875 41.609375 39.140625 45 
Q 35.0625 48.390625 27.6875 48.390625 
Q 23 48.390625 18.546875 47.265625 
Q 14.109375 46.140625 10.015625 43.890625 
L 10.015625 52.203125 
Q 14.9375 54.109375 19.578125 55.046875 
Q 24.21875 56 28.609375 56 
Q 40.484375 56 46.34375 49.84375 
Q 52.203125 43.703125 52.203125 31.203125 
z
" id="DejaVuSans-61"/>
      <path d="M 56.203125 29.59375 
L 56.203125 25.203125 
L 14.890625 25.203125 
Q 15.484375 15.921875 20.484375 11.0625 
Q 25.484375 6.203125 34.421875 6.203125 
Q 39.59375 6.203125 44.453125 7.46875 
Q 49.3125 8.734375 54.109375 11.28125 
L 54.109375 2.78125 
Q 49.265625 0.734375 44.1875 -0.34375 
Q 39.109375 -1.421875 33.890625 -1.421875 
Q 20.796875 -1.421875 13.15625 6.1875 
Q 5.515625 13.8125 5.515625 26.8125 
Q 5.515625 40.234375 12.765625 48.109375 
Q 20.015625 56 32.328125 56 
Q 43.359375 56 49.78125 48.890625 
Q 56.203125 41.796875 56.203125 29.59375 
z
M 47.21875 32.234375 
Q 47.125 39.59375 43.09375 43.984375 
Q 39.0625 48.390625 32.421875 48.390625 
Q 24.90625 48.390625 20.390625 44.140625 
Q 15.875 39.890625 15.1875 32.171875 
z
" id="DejaVuSans-65"/>
     </defs>
     <g transform="translate(9.529687 107.104555)rotate(-90)scale(0.1 -0.1)">
      <use xlink:href="#DejaVuSans-54"/>
      <use x="61.083984" xlink:href="#DejaVuSans-44"/>
      <use x="138.085938" xlink:href="#DejaVuSans-20"/>
      <use x="169.873047" xlink:href="#DejaVuSans-53"/>
      <use x="233.349609" xlink:href="#DejaVuSans-74"/>
      <use x="272.558594" xlink:href="#DejaVuSans-61"/>
      <use x="333.837891" xlink:href="#DejaVuSans-74"/>
      <use x="373.046875" xlink:href="#DejaVuSans-65"/>
      <use x="434.570312" xlink:href="#DejaVuSans-20"/>
      <use x="466.357422" xlink:href="#DejaVuSans-30"/>
     </g>
    </g>
   </g>
   <g id="line2d_9">
    <path clip-path="url(#p7630093a84)" d="M 73.832727 107.264334 
L 138.770129 107.264334 
L 138.776623 109.007428 
L 138.83506 94.870647 
L 139.094784 48.117769 
L 139.127249 51.90943 
L 139.536314 85.811369 
L 139.938886 102.681818 
L 140.328471 110.741337 
L 140.698577 114.353982 
L 141.036218 115.764372 
L 141.315421 116.153965 
L 141.549172 116.153366 
L 141.847855 115.890124 
L 142.380288 115.059524 
L 144.406132 111.691039 
L 145.26322 110.675208 
L 145.587875 48.117769 
L 145.607354 50.416686 
L 146.016419 85.05077 
L 146.418991 102.301727 
L 146.808576 110.557376 
L 147.178682 114.270814 
L 147.516323 115.732279 
L 147.802019 116.150419 
L 148.03577 116.156299 
L 148.327959 115.90586 
L 148.840913 115.116828 
L 150.964154 111.605075 
L 151.756311 110.675208 
L 152.080966 48.117769 
L 152.100445 50.416686 
L 152.50951 85.05077 
L 152.912081 102.301727 
L 153.301667 110.557376 
L 153.671773 114.270814 
L 154.009414 115.732279 
L 154.29511 116.150419 
L 154.528861 116.156299 
L 154.82105 115.90586 
L 155.334004 115.116828 
L 157.457245 111.605075 
L 158.249402 110.675208 
L 158.574057 48.117769 
L 158.593536 50.416686 
L 159.002601 85.05077 
L 159.405172 102.301727 
L 159.794758 110.557376 
L 160.164864 114.270814 
L 160.502505 115.732279 
L 160.788201 116.150419 
L 161.021952 116.156299 
L 161.314141 115.90586 
L 161.827095 115.116828 
L 163.950336 111.605075 
L 164.742493 110.675208 
L 165.067148 48.117769 
L 165.086627 50.416686 
L 165.495692 85.05077 
L 165.898263 102.301727 
L 166.287849 110.557376 
L 166.657955 114.270814 
L 166.995596 115.732279 
L 167.281292 116.150419 
L 167.515043 116.156299 
L 167.807232 115.90586 
L 168.320186 115.116828 
L 170.443427 111.605075 
L 171.235584 110.675208 
L 171.560239 48.117769 
L 171.579718 50.416686 
L 171.988783 85.05077 
L 172.391354 102.301727 
L 172.78094 110.557376 
L 173.151046 114.270814 
L 173.488687 115.732279 
L 173.774383 116.150419 
L 174.008134 116.156299 
L 174.300323 115.90586 
L 174.813277 115.116828 
L 176.936518 111.605075 
L 177.728675 110.675208 
L 178.053329 48.117769 
L 178.072809 50.416686 
L 178.481873 85.05077 
L 178.884445 102.301727 
L 179.274031 110.557376 
L 179.644137 114.270814 
L 179.981777 115.732279 
L 180.267473 116.150419 
L 180.501225 116.156299 
L 180.793414 115.90586 
L 181.306368 115.116828 
L 183.429609 111.605075 
L 184.221766 110.675208 
L 184.54642 48.117769 
L 184.5659 50.416686 
L 184.974964 85.05077 
L 185.377536 102.301727 
L 185.767121 110.557376 
L 186.137228 114.270814 
L 186.474868 115.732279 
L 186.760564 116.150419 
L 186.994316 116.156299 
L 187.286505 115.90586 
L 187.799459 115.116828 
L 189.9227 111.605075 
L 190.714857 110.675208 
L 191.039511 48.117769 
L 191.058991 50.416686 
L 191.468055 85.05077 
L 191.870627 102.301727 
L 192.260212 110.557376 
L 192.630319 114.270814 
L 192.967959 115.732279 
L 193.253655 116.150419 
L 193.487407 116.156299 
L 193.779596 115.90586 
L 194.29255 115.116828 
L 196.415791 111.605075 
L 197.207948 110.675208 
L 197.532602 48.117769 
L 197.552081 50.416686 
L 197.961146 85.05077 
L 198.363718 102.301727 
L 198.753303 110.557376 
L 199.123409 114.270814 
L 199.46105 115.732279 
L 199.746746 116.150419 
L 199.980497 116.156299 
L 200.272687 115.90586 
L 200.785641 115.116828 
L 202.908881 111.605075 
L 203.701039 110.675208 
L 204.025693 48.117769 
L 204.045172 50.416686 
L 204.454237 85.05077 
L 204.856809 102.301727 
L 205.246394 110.557376 
L 205.6165 114.270814 
L 205.954141 115.732279 
L 206.239837 116.150419 
L 206.473588 116.156299 
L 206.765777 115.90586 
L 207.278732 115.116828 
L 209.401972 111.605075 
L 210.194129 110.675208 
L 210.518784 48.117769 
L 210.538263 50.416686 
L 210.947328 85.05077 
L 211.3499 102.301727 
L 211.739485 110.557376 
L 212.109591 114.270814 
L 212.447232 115.732279 
L 212.732928 116.150419 
L 212.966679 116.156299 
L 213.258868 115.90586 
L 213.771823 115.116828 
L 215.895063 111.605075 
L 216.68722 110.675208 
L 217.011875 48.117769 
L 217.031354 50.416686 
L 217.440419 85.05077 
L 217.842991 102.301727 
L 218.232576 110.557376 
L 218.602682 114.270814 
L 218.940323 115.732279 
L 219.226019 116.150419 
L 219.45977 116.156299 
L 219.751959 115.90586 
L 220.264913 115.116828 
L 222.388154 111.605075 
L 223.180311 110.675208 
L 223.504966 48.117769 
L 223.524445 50.416686 
L 223.93351 85.05077 
L 224.336081 102.301727 
L 224.725667 110.557376 
L 225.095773 114.270814 
L 225.433414 115.732279 
L 225.71911 116.150419 
L 225.952861 116.156299 
L 226.24505 115.90586 
L 226.758004 115.116828 
L 228.881245 111.605075 
L 229.673402 110.675208 
L 229.998057 48.117769 
L 230.017536 50.416686 
L 230.426601 85.05077 
L 230.829172 102.301727 
L 231.218758 110.557376 
L 231.588864 114.270814 
L 231.926505 115.732279 
L 232.212201 116.150419 
L 232.445952 116.156299 
L 232.738141 115.90586 
L 233.251095 115.116828 
L 235.374336 111.605075 
L 236.166493 110.675208 
L 236.491148 48.117769 
L 236.510627 50.416686 
L 236.919692 85.05077 
L 237.322263 102.301727 
L 237.711849 110.557376 
L 238.081955 114.270814 
L 238.419596 115.732279 
L 238.705292 116.150419 
L 238.939043 116.156299 
L 239.231232 115.90586 
L 239.744186 115.116828 
L 241.867427 111.605075 
L 242.659584 110.675208 
L 242.984239 48.117769 
L 243.003718 50.416686 
L 243.412783 85.05077 
L 243.815354 102.301727 
L 244.20494 110.557376 
L 244.575046 114.270814 
L 244.912687 115.732279 
L 245.198383 116.150419 
L 245.432134 116.156299 
L 245.724323 115.90586 
L 246.237277 115.116828 
L 248.360518 111.605075 
L 249.152675 110.675208 
L 249.477329 48.117769 
L 249.496809 50.416686 
L 249.905873 85.05077 
L 250.308445 102.301727 
L 250.698031 110.557376 
L 251.068137 114.270814 
L 251.405777 115.732279 
L 251.691473 116.150419 
L 251.925225 116.156299 
L 252.217414 115.90586 
L 252.730368 115.116828 
L 254.853609 111.605075 
L 255.645766 110.675208 
L 255.97042 48.117769 
L 255.9899 50.416686 
L 256.398964 85.05077 
L 256.801536 102.301727 
L 257.191121 110.557376 
L 257.561228 114.270814 
L 257.898868 115.732279 
L 258.184564 116.150419 
L 258.418316 116.156299 
L 258.710505 115.90586 
L 259.223459 115.116828 
L 261.3467 111.605075 
L 262.138857 110.675208 
L 262.463511 48.117769 
L 262.482991 50.416686 
L 262.892055 85.05077 
L 263.294627 102.301727 
L 263.684212 110.557376 
L 264.054319 114.270814 
L 264.391959 115.732279 
L 264.677655 116.150419 
L 264.911407 116.156299 
L 265.203596 115.90586 
L 265.71655 115.116828 
L 267.839791 111.605075 
L 268.631948 110.675208 
L 268.956602 48.117769 
L 268.976081 50.416686 
L 269.385146 85.05077 
L 269.787718 102.301727 
L 270.177303 110.557376 
L 270.547409 114.270814 
L 270.88505 115.732279 
L 271.170746 116.150419 
L 271.404497 116.156299 
L 271.696687 115.90586 
L 272.209641 115.116828 
L 274.332881 111.605075 
L 275.125039 110.675208 
L 275.449693 48.117769 
L 275.469172 50.416686 
L 275.878237 85.05077 
L 276.280809 102.301727 
L 276.670394 110.557376 
L 277.0405 114.270814 
L 277.378141 115.732279 
L 277.663837 116.150419 
L 277.897588 116.156299 
L 278.189777 115.90586 
L 278.702732 115.116828 
L 280.825972 111.605075 
L 281.618129 110.675208 
L 281.942784 48.117769 
L 281.962263 50.416686 
L 282.371328 85.05077 
L 282.7739 102.301727 
L 283.163485 110.557376 
L 283.533591 114.270814 
L 283.871232 115.732279 
L 284.156928 116.150419 
L 284.390679 116.156299 
L 284.682868 115.90586 
L 285.195823 115.116828 
L 287.319063 111.605075 
L 288.11122 110.675208 
L 288.435875 48.117769 
L 288.455354 50.416686 
L 288.864419 85.05077 
L 289.266991 102.301727 
L 289.656576 110.557376 
L 290.026682 114.270814 
L 290.364323 115.732279 
L 290.650019 116.150419 
L 290.88377 116.156299 
L 291.175959 115.90586 
L 291.688913 115.116828 
L 293.812154 111.605075 
L 294.604311 110.675208 
L 294.928966 48.117769 
L 294.948445 50.416686 
L 295.35751 85.05077 
L 295.760081 102.301727 
L 296.149667 110.557376 
L 296.519773 114.270814 
L 296.857414 115.732279 
L 297.14311 116.150419 
L 297.376861 116.156299 
L 297.66905 115.90586 
L 298.182004 115.116828 
L 300.305245 111.605075 
L 301.097402 110.675208 
L 301.422057 48.117769 
L 301.441536 50.416686 
L 301.850601 85.05077 
L 302.253172 102.301727 
L 302.642758 110.557376 
L 303.012864 114.270814 
L 303.350505 115.732279 
L 303.636201 116.150419 
L 303.869952 116.156299 
L 304.162141 115.90586 
L 304.675095 115.116828 
L 306.798336 111.605075 
L 307.590493 110.675208 
L 307.915148 48.117769 
L 307.934627 50.416686 
L 308.343692 85.05077 
L 308.746263 102.301727 
L 309.135849 110.557376 
L 309.505955 114.270814 
L 309.843596 115.732279 
L 310.129292 116.150419 
L 310.363043 116.156299 
L 310.655232 115.90586 
L 311.168186 115.116828 
L 313.291427 111.605075 
L 314.083584 110.675208 
L 314.408239 48.117769 
L 314.427718 50.416686 
L 314.836783 85.05077 
L 315.239354 102.301727 
L 315.62894 110.557376 
L 315.999046 114.270814 
L 316.336687 115.732279 
L 316.622383 116.150419 
L 316.856134 116.156299 
L 317.148323 115.90586 
L 317.661277 115.116828 
L 319.784518 111.605075 
L 320.576675 110.675208 
L 320.901329 48.117769 
L 320.920809 50.416686 
L 321.329873 85.05077 
L 321.732445 102.301727 
L 322.122031 110.557376 
L 322.492137 114.270814 
L 322.829777 115.732279 
L 323.115473 116.150419 
L 323.349225 116.156299 
L 323.641414 115.90586 
L 324.154368 115.116828 
L 326.277609 111.605075 
L 327.069766 110.675208 
L 327.39442 48.117769 
L 327.4139 50.416686 
L 327.822964 85.05077 
L 328.225536 102.301727 
L 328.615121 110.557376 
L 328.985228 114.270814 
L 329.322868 115.732279 
L 329.608564 116.150419 
L 329.842316 116.156299 
L 330.134505 115.90586 
L 330.647459 115.116828 
L 332.7707 111.605075 
L 333.562857 110.675208 
L 333.887511 48.117769 
L 333.906991 50.416686 
L 334.316055 85.05077 
L 334.718627 102.301727 
L 335.108212 110.557376 
L 335.478319 114.270814 
L 335.815959 115.732279 
L 336.101655 116.150419 
L 336.335407 116.156299 
L 336.627596 115.90586 
L 337.14055 115.116828 
L 339.263791 111.605075 
L 340.055948 110.675208 
L 340.380602 48.117769 
L 340.400081 50.416686 
L 340.809146 85.05077 
L 341.211718 102.301727 
L 341.601303 110.557376 
L 341.971409 114.270814 
L 342.30905 115.732279 
L 342.594746 116.150419 
L 342.828497 116.156299 
L 343.120687 115.90586 
L 343.633641 115.116828 
L 345.756881 111.605075 
L 346.549039 110.675208 
L 346.873693 48.117769 
L 346.893172 50.416686 
L 347.302237 85.05077 
L 347.704809 102.301727 
L 348.094394 110.557376 
L 348.4645 114.270814 
L 348.802141 115.732279 
L 349.087837 116.150419 
L 349.321588 116.156299 
L 349.613777 115.90586 
L 350.126732 115.116828 
L 352.249972 111.605075 
L 353.042129 110.675208 
L 353.366784 48.117769 
L 353.386263 50.416686 
L 353.795328 85.05077 
L 354.1979 102.301727 
L 354.587485 110.557376 
L 354.957591 114.270814 
L 355.295232 115.732279 
L 355.580928 116.150419 
L 355.814679 116.156299 
L 356.106868 115.90586 
L 356.619823 115.116828 
L 358.743063 111.605075 
L 359.53522 110.675208 
L 359.859875 48.117769 
L 359.879354 50.416686 
L 360.288419 85.05077 
L 360.690991 102.301727 
L 361.080576 110.557376 
L 361.450682 114.270814 
L 361.788323 115.732279 
L 362.074019 116.150419 
L 362.30777 116.156299 
L 362.599959 115.90586 
L 363.112913 115.116828 
L 365.236154 111.605075 
L 366.028311 110.675208 
L 366.352966 48.117769 
L 366.372445 50.416686 
L 366.78151 85.05077 
L 367.184081 102.301727 
L 367.573667 110.557376 
L 367.943773 114.270814 
L 368.281414 115.732279 
L 368.56711 116.150419 
L 368.800861 116.156299 
L 369.09305 115.90586 
L 369.606004 115.116828 
L 371.729245 111.605075 
L 372.521402 110.675208 
L 372.846057 48.117769 
L 372.865536 50.416686 
L 373.274601 85.05077 
L 373.677172 102.301727 
L 374.066758 110.557376 
L 374.436864 114.270814 
L 374.774505 115.732279 
L 375.060201 116.150419 
L 375.293952 116.156299 
L 375.586141 115.90586 
L 376.099095 115.116828 
L 378.222336 111.605075 
L 379.014493 110.675208 
L 379.339148 48.117769 
L 379.358627 50.416686 
L 379.767692 85.05077 
L 380.170263 102.301727 
L 380.559849 110.557376 
L 380.929955 114.270814 
L 381.267596 115.732279 
L 381.553292 116.150419 
L 381.787043 116.156299 
L 382.079232 115.90586 
L 382.592186 115.116828 
L 384.715427 111.605075 
L 385.507584 110.675208 
L 385.832239 48.117769 
L 385.851718 50.416686 
L 386.260783 85.05077 
L 386.663354 102.301727 
L 387.05294 110.557376 
L 387.423046 114.270814 
L 387.760687 115.732279 
L 388.046383 116.150419 
L 388.280134 116.156299 
L 388.572323 115.90586 
L 389.085277 115.116828 
L 391.208518 111.605075 
L 392.000675 110.675208 
L 392.325329 48.117769 
L 392.344809 50.416686 
L 392.753873 85.05077 
L 393.156445 102.301727 
L 393.546031 110.557376 
L 393.916137 114.270814 
L 394.253777 115.732279 
L 394.539473 116.150419 
L 394.773225 116.156299 
L 395.065414 115.90586 
L 395.578368 115.116828 
L 397.701609 111.605075 
L 398.487273 110.681991 
L 398.487273 110.681991 
" style="fill:none;stroke:#000000;stroke-linecap:square;stroke-width:4;"/>
   </g>
   <g id="line2d_10">
    <path clip-path="url(#p7630093a84)" d="M 73.832727 107.264334 
L 80.332311 107.264334 
L 80.656966 45.029647 
L 80.676445 47.346953 
L 81.08551 82.343161 
L 81.488081 99.909173 
L 81.88416 108.531781 
L 82.260759 112.46758 
L 82.611386 114.1016 
L 82.916561 114.629125 
L 83.176285 114.693377 
L 83.474967 114.50888 
L 83.974935 113.888901 
L 86.299462 110.724603 
L 86.825402 110.212578 
L 87.150057 47.699145 
L 87.169536 50.00057 
L 87.578601 84.683905 
L 87.981172 101.977634 
L 88.370758 110.269924 
L 88.740864 114.014325 
L 89.078505 115.50112 
L 89.364201 115.938727 
L 89.604445 115.956771 
L 89.896634 115.718352 
L 90.409588 114.951981 
L 92.565295 111.475243 
L 93.318493 110.612569 
L 93.643148 48.061081 
L 93.662627 50.360342 
L 94.071692 85.001095 
L 94.474263 102.257843 
L 94.863849 110.518454 
L 95.233955 114.236085 
L 95.571596 115.70098 
L 95.857292 116.121755 
L 96.091043 116.129626 
L 96.383232 115.881482 
L 96.896186 115.096012 
L 99.02592 111.58576 
L 99.811584 110.666729 
L 100.136239 48.110089 
L 100.155718 50.409056 
L 100.564783 85.044044 
L 100.967354 102.295784 
L 101.35694 110.552106 
L 101.727046 114.266111 
L 102.064687 115.728042 
L 102.350383 116.146538 
L 102.584134 116.152687 
L 102.876323 115.902559 
L 103.389277 115.114009 
L 105.512518 111.603609 
L 106.304675 110.674063 
L 106.629329 48.116725 
L 106.648809 50.415652 
L 107.057873 85.049859 
L 107.460445 102.300921 
L 107.850031 110.556662 
L 108.220137 114.270177 
L 108.557777 115.731706 
L 108.843473 116.149893 
L 109.077225 116.15581 
L 109.369414 115.905413 
L 109.882368 115.116446 
L 112.005609 111.604876 
L 112.797766 110.675056 
L 113.12242 48.117623 
L 113.1419 50.416545 
L 113.550964 85.050646 
L 113.953536 102.301617 
L 114.343121 110.557279 
L 114.713228 114.270728 
L 115.050868 115.732202 
L 115.336564 116.150348 
L 115.570316 116.156233 
L 115.862505 115.905799 
L 116.375459 115.116776 
L 118.4987 111.605048 
L 119.290857 110.67519 
L 119.615511 48.117745 
L 119.634991 50.416666 
L 120.044055 85.050753 
L 120.446627 102.301711 
L 120.836212 110.557363 
L 121.206319 114.270802 
L 121.543959 115.732269 
L 121.829655 116.150409 
L 122.063407 116.15629 
L 122.355596 115.905852 
L 122.86855 115.116821 
L 124.991791 111.605071 
L 125.783948 110.675208 
L 126.108602 48.117761 
L 126.128081 50.416683 
L 126.537146 85.050768 
L 126.939718 102.301724 
L 127.329303 110.557374 
L 127.699409 114.270812 
L 128.03705 115.732278 
L 128.322746 116.150418 
L 128.556497 116.156298 
L 128.848687 115.905859 
L 129.361641 115.116827 
L 131.484881 111.605074 
L 132.277039 110.675211 
L 132.601693 48.117763 
L 132.621172 50.416685 
L 133.030237 85.050769 
L 133.432809 102.301725 
L 133.822394 110.557376 
L 134.1925 114.270814 
L 134.530141 115.73228 
L 134.815837 116.150419 
L 135.049588 116.156299 
L 135.341777 115.90586 
L 135.854732 115.116828 
L 137.977972 111.605075 
L 138.770129 110.675211 
L 139.094784 48.117764 
L 139.114263 50.416685 
L 139.523328 85.05077 
L 139.9259 102.301726 
L 140.315485 110.557376 
L 140.685591 114.270814 
L 141.023232 115.73228 
L 141.308928 116.150419 
L 141.542679 116.156299 
L 141.834868 115.90586 
L 142.347823 115.116828 
L 144.471063 111.605075 
L 145.26322 110.675211 
L 145.587875 48.117764 
L 145.607354 50.416685 
L 146.016419 85.05077 
L 146.418991 102.301726 
L 146.808576 110.557376 
L 147.178682 114.270814 
L 147.516323 115.73228 
L 147.802019 116.150419 
L 148.03577 116.156299 
L 148.327959 115.90586 
L 148.840913 115.116828 
L 150.964154 111.605075 
L 151.756311 110.675211 
L 152.080966 48.117764 
L 152.100445 50.416685 
L 152.50951 85.05077 
L 152.912081 102.301726 
L 153.301667 110.557376 
L 153.671773 114.270814 
L 154.009414 115.73228 
L 154.29511 116.150419 
L 154.528861 116.156299 
L 154.82105 115.90586 
L 155.334004 115.116828 
L 157.457245 111.605075 
L 158.249402 110.675211 
L 158.574057 48.117764 
L 158.593536 50.416685 
L 159.002601 85.05077 
L 159.405172 102.301726 
L 159.794758 110.557376 
L 160.164864 114.270814 
L 160.502505 115.73228 
L 160.788201 116.150419 
L 161.021952 116.156299 
L 161.314141 115.90586 
L 161.827095 115.116828 
L 163.950336 111.605075 
L 164.742493 110.675211 
L 165.067148 48.117764 
L 165.086627 50.416685 
L 165.495692 85.05077 
L 165.898263 102.301726 
L 166.287849 110.557376 
L 166.657955 114.270814 
L 166.995596 115.73228 
L 167.281292 116.150419 
L 167.515043 116.156299 
L 167.807232 115.90586 
L 168.320186 115.116828 
L 170.443427 111.605075 
L 171.235584 110.675211 
L 171.560239 48.117764 
L 171.579718 50.416685 
L 171.988783 85.05077 
L 172.391354 102.301726 
L 172.78094 110.557376 
L 173.151046 114.270814 
L 173.488687 115.73228 
L 173.774383 116.150419 
L 174.008134 116.156299 
L 174.300323 115.90586 
L 174.813277 115.116828 
L 176.936518 111.605075 
L 177.728675 110.675211 
L 178.053329 48.117764 
L 178.072809 50.416685 
L 178.481873 85.05077 
L 178.884445 102.301726 
L 179.274031 110.557376 
L 179.644137 114.270814 
L 179.981777 115.73228 
L 180.267473 116.150419 
L 180.501225 116.156299 
L 180.793414 115.90586 
L 181.306368 115.116828 
L 183.429609 111.605075 
L 184.221766 110.675211 
L 184.54642 48.117764 
L 184.5659 50.416685 
L 184.974964 85.05077 
L 185.377536 102.301726 
L 185.767121 110.557376 
L 186.137228 114.270814 
L 186.474868 115.73228 
L 186.760564 116.150419 
L 186.994316 116.156299 
L 187.286505 115.90586 
L 187.799459 115.116828 
L 189.9227 111.605075 
L 190.714857 110.675211 
L 191.039511 48.117764 
L 191.058991 50.416685 
L 191.468055 85.05077 
L 191.870627 102.301726 
L 192.260212 110.557376 
L 192.630319 114.270814 
L 192.967959 115.73228 
L 193.253655 116.150419 
L 193.487407 116.156299 
L 193.779596 115.90586 
L 194.29255 115.116828 
L 196.415791 111.605075 
L 197.207948 110.675211 
L 197.532602 48.117764 
L 197.552081 50.416685 
L 197.961146 85.05077 
L 198.363718 102.301726 
L 198.753303 110.557376 
L 199.123409 114.270814 
L 199.46105 115.73228 
L 199.746746 116.150419 
L 199.980497 116.156299 
L 200.272687 115.90586 
L 200.785641 115.116828 
L 202.908881 111.605075 
L 203.701039 110.675211 
L 204.025693 48.117764 
L 204.045172 50.416685 
L 204.454237 85.05077 
L 204.856809 102.301726 
L 205.246394 110.557376 
L 205.6165 114.270814 
L 205.954141 115.73228 
L 206.239837 116.150419 
L 206.473588 116.156299 
L 206.765777 115.90586 
L 207.278732 115.116828 
L 209.401972 111.605075 
L 210.194129 110.675211 
L 210.518784 48.117764 
L 210.538263 50.416685 
L 210.947328 85.05077 
L 211.3499 102.301726 
L 211.739485 110.557376 
L 212.109591 114.270814 
L 212.447232 115.73228 
L 212.732928 116.150419 
L 212.966679 116.156299 
L 213.258868 115.90586 
L 213.771823 115.116828 
L 215.895063 111.605075 
L 216.68722 110.675211 
L 217.011875 48.117764 
L 217.031354 50.416685 
L 217.440419 85.05077 
L 217.842991 102.301726 
L 218.232576 110.557376 
L 218.602682 114.270814 
L 218.940323 115.73228 
L 219.226019 116.150419 
L 219.45977 116.156299 
L 219.751959 115.90586 
L 220.264913 115.116828 
L 222.388154 111.605075 
L 223.180311 110.675211 
L 223.504966 48.117764 
L 223.524445 50.416685 
L 223.93351 85.05077 
L 224.336081 102.301726 
L 224.725667 110.557376 
L 225.095773 114.270814 
L 225.433414 115.73228 
L 225.71911 116.150419 
L 225.952861 116.156299 
L 226.24505 115.90586 
L 226.758004 115.116828 
L 228.881245 111.605075 
L 229.673402 110.675211 
L 229.998057 48.117764 
L 230.017536 50.416685 
L 230.426601 85.05077 
L 230.829172 102.301726 
L 231.218758 110.557376 
L 231.588864 114.270814 
L 231.926505 115.73228 
L 232.212201 116.150419 
L 232.445952 116.156299 
L 232.738141 115.90586 
L 233.251095 115.116828 
L 235.374336 111.605075 
L 236.166493 110.675211 
L 236.491148 48.117764 
L 236.510627 50.416685 
L 236.919692 85.05077 
L 237.322263 102.301726 
L 237.711849 110.557376 
L 238.081955 114.270814 
L 238.419596 115.73228 
L 238.705292 116.150419 
L 238.939043 116.156299 
L 239.231232 115.90586 
L 239.744186 115.116828 
L 241.867427 111.605075 
L 242.659584 110.675211 
L 242.984239 48.117764 
L 243.003718 50.416685 
L 243.412783 85.05077 
L 243.815354 102.301726 
L 244.20494 110.557376 
L 244.575046 114.270814 
L 244.912687 115.73228 
L 245.198383 116.150419 
L 245.432134 116.156299 
L 245.724323 115.90586 
L 246.237277 115.116828 
L 248.360518 111.605075 
L 249.152675 110.675211 
L 249.477329 48.117764 
L 249.496809 50.416685 
L 249.905873 85.05077 
L 250.308445 102.301726 
L 250.698031 110.557376 
L 251.068137 114.270814 
L 251.405777 115.73228 
L 251.691473 116.150419 
L 251.925225 116.156299 
L 252.217414 115.90586 
L 252.730368 115.116828 
L 254.853609 111.605075 
L 255.645766 110.675211 
L 255.97042 48.117764 
L 255.9899 50.416685 
L 256.398964 85.05077 
L 256.801536 102.301726 
L 257.191121 110.557376 
L 257.561228 114.270814 
L 257.898868 115.73228 
L 258.184564 116.150419 
L 258.418316 116.156299 
L 258.710505 115.90586 
L 259.223459 115.116828 
L 261.3467 111.605075 
L 262.138857 110.675211 
L 262.463511 48.117764 
L 262.482991 50.416685 
L 262.892055 85.05077 
L 263.294627 102.301726 
L 263.684212 110.557376 
L 264.054319 114.270814 
L 264.391959 115.73228 
L 264.677655 116.150419 
L 264.911407 116.156299 
L 265.203596 115.90586 
L 265.71655 115.116828 
L 267.839791 111.605075 
L 268.631948 110.675211 
L 268.956602 48.117764 
L 268.976081 50.416685 
L 269.385146 85.05077 
L 269.787718 102.301726 
L 270.177303 110.557376 
L 270.547409 114.270814 
L 270.88505 115.73228 
L 271.170746 116.150419 
L 271.404497 116.156299 
L 271.696687 115.90586 
L 272.209641 115.116828 
L 274.332881 111.605075 
L 275.125039 110.675211 
L 275.449693 48.117764 
L 275.469172 50.416685 
L 275.878237 85.05077 
L 276.280809 102.301726 
L 276.670394 110.557376 
L 277.0405 114.270814 
L 277.378141 115.73228 
L 277.663837 116.150419 
L 277.897588 116.156299 
L 278.189777 115.90586 
L 278.702732 115.116828 
L 280.825972 111.605075 
L 281.618129 110.675211 
L 281.942784 48.117764 
L 281.962263 50.416685 
L 282.371328 85.05077 
L 282.7739 102.301726 
L 283.163485 110.557376 
L 283.533591 114.270814 
L 283.871232 115.73228 
L 284.156928 116.150419 
L 284.390679 116.156299 
L 284.682868 115.90586 
L 285.195823 115.116828 
L 287.319063 111.605075 
L 288.11122 110.675211 
L 288.435875 48.117764 
L 288.455354 50.416685 
L 288.864419 85.05077 
L 289.266991 102.301726 
L 289.656576 110.557376 
L 290.026682 114.270814 
L 290.364323 115.73228 
L 290.650019 116.150419 
L 290.88377 116.156299 
L 291.175959 115.90586 
L 291.688913 115.116828 
L 293.812154 111.605075 
L 294.604311 110.675211 
L 294.928966 48.117764 
L 294.948445 50.416685 
L 295.35751 85.05077 
L 295.760081 102.301726 
L 296.149667 110.557376 
L 296.519773 114.270814 
L 296.857414 115.73228 
L 297.14311 116.150419 
L 297.376861 116.156299 
L 297.66905 115.90586 
L 298.182004 115.116828 
L 300.305245 111.605075 
L 301.097402 110.675211 
L 301.422057 48.117764 
L 301.441536 50.416685 
L 301.850601 85.05077 
L 302.253172 102.301726 
L 302.642758 110.557376 
L 303.012864 114.270814 
L 303.350505 115.73228 
L 303.636201 116.150419 
L 303.869952 116.156299 
L 304.162141 115.90586 
L 304.675095 115.116828 
L 306.798336 111.605075 
L 307.590493 110.675211 
L 307.915148 48.117764 
L 307.934627 50.416685 
L 308.343692 85.05077 
L 308.746263 102.301726 
L 309.135849 110.557376 
L 309.505955 114.270814 
L 309.843596 115.73228 
L 310.129292 116.150419 
L 310.363043 116.156299 
L 310.655232 115.90586 
L 311.168186 115.116828 
L 313.291427 111.605075 
L 314.083584 110.675211 
L 314.408239 48.117764 
L 314.427718 50.416685 
L 314.836783 85.05077 
L 315.239354 102.301726 
L 315.62894 110.557376 
L 315.999046 114.270814 
L 316.336687 115.73228 
L 316.622383 116.150419 
L 316.856134 116.156299 
L 317.148323 115.90586 
L 317.661277 115.116828 
L 319.784518 111.605075 
L 320.576675 110.675211 
L 320.901329 48.117764 
L 320.920809 50.416685 
L 321.329873 85.05077 
L 321.732445 102.301726 
L 322.122031 110.557376 
L 322.492137 114.270814 
L 322.829777 115.73228 
L 323.115473 116.150419 
L 323.349225 116.156299 
L 323.641414 115.90586 
L 324.154368 115.116828 
L 326.277609 111.605075 
L 327.069766 110.675211 
L 327.39442 48.117764 
L 327.4139 50.416685 
L 327.822964 85.05077 
L 328.225536 102.301726 
L 328.615121 110.557376 
L 328.985228 114.270814 
L 329.322868 115.73228 
L 329.608564 116.150419 
L 329.842316 116.156299 
L 330.134505 115.90586 
L 330.647459 115.116828 
L 332.7707 111.605075 
L 333.562857 110.675211 
L 333.887511 48.117764 
L 333.906991 50.416685 
L 334.316055 85.05077 
L 334.718627 102.301726 
L 335.108212 110.557376 
L 335.478319 114.270814 
L 335.815959 115.73228 
L 336.101655 116.150419 
L 336.335407 116.156299 
L 336.627596 115.90586 
L 337.14055 115.116828 
L 339.263791 111.605075 
L 340.055948 110.675211 
L 340.380602 48.117764 
L 340.400081 50.416685 
L 340.809146 85.05077 
L 341.211718 102.301726 
L 341.601303 110.557376 
L 341.971409 114.270814 
L 342.30905 115.73228 
L 342.594746 116.150419 
L 342.828497 116.156299 
L 343.120687 115.90586 
L 343.633641 115.116828 
L 345.756881 111.605075 
L 346.549039 110.675211 
L 346.873693 48.117764 
L 346.893172 50.416685 
L 347.302237 85.05077 
L 347.704809 102.301726 
L 348.094394 110.557376 
L 348.4645 114.270814 
L 348.802141 115.73228 
L 349.087837 116.150419 
L 349.321588 116.156299 
L 349.613777 115.90586 
L 350.126732 115.116828 
L 352.249972 111.605075 
L 353.042129 110.675211 
L 353.366784 48.117764 
L 353.386263 50.416685 
L 353.795328 85.05077 
L 354.1979 102.301726 
L 354.587485 110.557376 
L 354.957591 114.270814 
L 355.295232 115.73228 
L 355.580928 116.150419 
L 355.814679 116.156299 
L 356.106868 115.90586 
L 356.619823 115.116828 
L 358.743063 111.605075 
L 359.53522 110.675211 
L 359.859875 48.117764 
L 359.879354 50.416685 
L 360.288419 85.05077 
L 360.690991 102.301726 
L 361.080576 110.557376 
L 361.450682 114.270814 
L 361.788323 115.73228 
L 362.074019 116.150419 
L 362.30777 116.156299 
L 362.599959 115.90586 
L 363.112913 115.116828 
L 365.236154 111.605075 
L 366.028311 110.675211 
L 366.352966 48.117764 
L 366.372445 50.416685 
L 366.78151 85.05077 
L 367.184081 102.301726 
L 367.573667 110.557376 
L 367.943773 114.270814 
L 368.281414 115.73228 
L 368.56711 116.150419 
L 368.800861 116.156299 
L 369.09305 115.90586 
L 369.606004 115.116828 
L 371.729245 111.605075 
L 372.521402 110.675211 
L 372.846057 48.117764 
L 372.865536 50.416685 
L 373.274601 85.05077 
L 373.677172 102.301726 
L 374.066758 110.557376 
L 374.436864 114.270814 
L 374.774505 115.73228 
L 375.060201 116.150419 
L 375.293952 116.156299 
L 375.586141 115.90586 
L 376.099095 115.116828 
L 378.222336 111.605075 
L 379.014493 110.675211 
L 379.339148 48.117764 
L 379.358627 50.416685 
L 379.767692 85.05077 
L 380.170263 102.301726 
L 380.559849 110.557376 
L 380.929955 114.270814 
L 381.267596 115.73228 
L 381.553292 116.150419 
L 381.787043 116.156299 
L 382.079232 115.90586 
L 382.592186 115.116828 
L 384.715427 111.605075 
L 385.507584 110.675211 
L 385.832239 48.117764 
L 385.851718 50.416685 
L 386.260783 85.05077 
L 386.663354 102.301726 
L 387.05294 110.557376 
L 387.423046 114.270814 
L 387.760687 115.73228 
L 388.046383 116.150419 
L 388.280134 116.156299 
L 388.572323 115.90586 
L 389.085277 115.116828 
L 391.208518 111.605075 
L 392.000675 110.675211 
L 392.325329 48.117764 
L 392.344809 50.416685 
L 392.753873 85.05077 
L 393.156445 102.301726 
L 393.546031 110.557376 
L 393.916137 114.270814 
L 394.253777 115.73228 
L 394.539473 116.150419 
L 394.773225 116.156299 
L 395.065414 115.90586 
L 395.578368 115.116828 
L 397.701609 111.605075 
L 398.487273 110.681991 
L 398.487273 110.681991 
" style="fill:none;stroke:#ff0000;stroke-linecap:square;stroke-width:1.5;"/>
   </g>
   <g id="patch_3">
    <path d="M 57.6 119.740235 
L 57.6 41.472 
" style="fill:none;stroke:#000000;stroke-linecap:square;stroke-linejoin:miter;stroke-width:0.8;"/>
   </g>
   <g id="patch_4">
    <path d="M 414.72 119.740235 
L 414.72 41.472 
" style="fill:none;stroke:#000000;stroke-linecap:square;stroke-linejoin:miter;stroke-width:0.8;"/>
   </g>
   <g id="patch_5">
    <path d="M 57.6 119.740235 
L 414.72 119.740235 
" style="fill:none;stroke:#000000;stroke-linecap:square;stroke-linejoin:miter;stroke-width:0.8;"/>
   </g>
   <g id="patch_6">
    <path d="M 57.6 41.472 
L 414.72 41.472 
" style="fill:none;stroke:#000000;stroke-linecap:square;stroke-linejoin:miter;stroke-width:0.8;"/>
   </g>
  </g>
  <g id="axes_2">
   <g id="patch_7">
    <path d="M 57.6 213.662118 
L 414.72 213.662118 
L 414.72 135.393882 
L 57.6 135.393882 
z
" style="fill:#ffffff;"/>
   </g>
   <g id="matplotlib.axis_3">
    <g id="xtick_7">
     <g id="line2d_11">
      <g>
       <use style="stroke:#000000;stroke-width:0.8;" x="73.832727" xlink:href="#ma580ab5b17" y="213.662118"/>
      </g>
     </g>
     <g id="text_10">
      <!-- 0 -->
      <g transform="translate(70.651477 228.260555)scale(0.1 -0.1)">
       <use xlink:href="#DejaVuSans-30"/>
      </g>
     </g>
    </g>
    <g id="xtick_8">
     <g id="line2d_12">
      <g>
       <use style="stroke:#000000;stroke-width:0.8;" x="138.763636" xlink:href="#ma580ab5b17" y="213.662118"/>
      </g>
     </g>
     <g id="text_11">
      <!-- 10 -->
      <g transform="translate(132.401136 228.260555)scale(0.1 -0.1)">
       <use xlink:href="#DejaVuSans-31"/>
       <use x="63.623047" xlink:href="#DejaVuSans-30"/>
      </g>
     </g>
    </g>
    <g id="xtick_9">
     <g id="line2d_13">
      <g>
       <use style="stroke:#000000;stroke-width:0.8;" x="203.694545" xlink:href="#ma580ab5b17" y="213.662118"/>
      </g>
     </g>
     <g id="text_12">
      <!-- 20 -->
      <g transform="translate(197.332045 228.260555)scale(0.1 -0.1)">
       <use xlink:href="#DejaVuSans-32"/>
       <use x="63.623047" xlink:href="#DejaVuSans-30"/>
      </g>
     </g>
    </g>
    <g id="xtick_10">
     <g id="line2d_14">
      <g>
       <use style="stroke:#000000;stroke-width:0.8;" x="268.625455" xlink:href="#ma580ab5b17" y="213.662118"/>
      </g>
     </g>
     <g id="text_13">
      <!-- 30 -->
      <g transform="translate(262.262955 228.260555)scale(0.1 -0.1)">
       <use xlink:href="#DejaVuSans-33"/>
       <use x="63.623047" xlink:href="#DejaVuSans-30"/>
      </g>
     </g>
    </g>
    <g id="xtick_11">
     <g id="line2d_15">
      <g>
       <use style="stroke:#000000;stroke-width:0.8;" x="333.556364" xlink:href="#ma580ab5b17" y="213.662118"/>
      </g>
     </g>
     <g id="text_14">
      <!-- 40 -->
      <g transform="translate(327.193864 228.260555)scale(0.1 -0.1)">
       <use xlink:href="#DejaVuSans-34"/>
       <use x="63.623047" xlink:href="#DejaVuSans-30"/>
      </g>
     </g>
    </g>
    <g id="xtick_12">
     <g id="line2d_16">
      <g>
       <use style="stroke:#000000;stroke-width:0.8;" x="398.487273" xlink:href="#ma580ab5b17" y="213.662118"/>
      </g>
     </g>
     <g id="text_15">
      <!-- 50 -->
      <g transform="translate(392.124773 228.260555)scale(0.1 -0.1)">
       <use xlink:href="#DejaVuSans-35"/>
       <use x="63.623047" xlink:href="#DejaVuSans-30"/>
      </g>
     </g>
    </g>
   </g>
   <g id="matplotlib.axis_4">
    <g id="ytick_3">
     <g id="line2d_17">
      <g>
       <use style="stroke:#000000;stroke-width:0.8;" x="57.6" xlink:href="#mc0a5b09f5f" y="187.420641"/>
      </g>
     </g>
     <g id="text_16">
      <!-- 0.00 -->
      <g transform="translate(28.334375 191.21986)scale(0.1 -0.1)">
       <use xlink:href="#DejaVuSans-30"/>
       <use x="63.623047" xlink:href="#DejaVuSans-2e"/>
       <use x="95.410156" xlink:href="#DejaVuSans-30"/>
       <use x="159.033203" xlink:href="#DejaVuSans-30"/>
      </g>
     </g>
    </g>
    <g id="ytick_4">
     <g id="line2d_18">
      <g>
       <use style="stroke:#000000;stroke-width:0.8;" x="57.6" xlink:href="#mc0a5b09f5f" y="139.14818"/>
      </g>
     </g>
     <g id="text_17">
      <!-- 0.02 -->
      <g transform="translate(28.334375 142.947399)scale(0.1 -0.1)">
       <use xlink:href="#DejaVuSans-30"/>
       <use x="63.623047" xlink:href="#DejaVuSans-2e"/>
       <use x="95.410156" xlink:href="#DejaVuSans-30"/>
       <use x="159.033203" xlink:href="#DejaVuSans-32"/>
      </g>
     </g>
    </g>
    <g id="text_18">
     <!-- TD State 1 -->
     <g transform="translate(22.254687 201.026437)rotate(-90)scale(0.1 -0.1)">
      <use xlink:href="#DejaVuSans-54"/>
      <use x="61.083984" xlink:href="#DejaVuSans-44"/>
      <use x="138.085938" xlink:href="#DejaVuSans-20"/>
      <use x="169.873047" xlink:href="#DejaVuSans-53"/>
      <use x="233.349609" xlink:href="#DejaVuSans-74"/>
      <use x="272.558594" xlink:href="#DejaVuSans-61"/>
      <use x="333.837891" xlink:href="#DejaVuSans-74"/>
      <use x="373.046875" xlink:href="#DejaVuSans-65"/>
      <use x="434.570312" xlink:href="#DejaVuSans-20"/>
      <use x="466.357422" xlink:href="#DejaVuSans-31"/>
     </g>
    </g>
   </g>
   <g id="line2d_19">
    <path clip-path="url(#p110e2c5ae8)" d="M 73.832727 187.420641 
L 138.770129 187.420641 
L 138.776623 139.531176 
L 138.880512 148.030858 
L 139.088291 161.306365 
L 139.094784 209.926023 
L 139.205167 206.226658 
L 139.620724 196.849407 
L 140.036282 191.976088 
L 140.45184 189.463087 
L 140.867398 188.184697 
L 141.289449 187.543335 
L 141.756951 187.223209 
L 142.373795 187.086469 
L 143.510086 187.10593 
L 145.256727 187.223612 
L 145.26322 138.951529 
L 145.36711 147.540101 
L 145.581382 161.306365 
L 145.587875 209.926023 
L 145.698257 206.226658 
L 146.113815 196.849407 
L 146.529373 191.976088 
L 146.944931 189.463087 
L 147.360489 188.184697 
L 147.78254 187.543335 
L 148.250042 187.223209 
L 148.866886 187.086469 
L 150.003177 187.10593 
L 151.749818 187.223612 
L 151.756311 138.951529 
L 151.860201 147.540101 
L 152.074473 161.306365 
L 152.080966 209.926023 
L 152.191348 206.226658 
L 152.606906 196.849407 
L 153.022464 191.976088 
L 153.438022 189.463087 
L 153.85358 188.184697 
L 154.275631 187.543335 
L 154.743133 187.223209 
L 155.359977 187.086469 
L 156.496268 187.10593 
L 158.242909 187.223612 
L 158.249402 138.951529 
L 158.353292 147.540101 
L 158.567564 161.306365 
L 158.574057 209.926023 
L 158.684439 206.226658 
L 159.099997 196.849407 
L 159.515555 191.976088 
L 159.931113 189.463087 
L 160.346671 188.184697 
L 160.768721 187.543335 
L 161.236224 187.223209 
L 161.853068 187.086469 
L 162.989359 187.10593 
L 164.736 187.223612 
L 164.742493 138.951529 
L 164.846383 147.540101 
L 165.060655 161.306365 
L 165.067148 209.926023 
L 165.17753 206.226658 
L 165.593088 196.849407 
L 166.008646 191.976088 
L 166.424204 189.463087 
L 166.839761 188.184697 
L 167.261812 187.543335 
L 167.729315 187.223209 
L 168.346159 187.086469 
L 169.482449 187.10593 
L 171.229091 187.223612 
L 171.235584 138.951529 
L 171.339473 147.540101 
L 171.553745 161.306365 
L 171.560239 209.926023 
L 171.670621 206.226658 
L 172.086179 196.849407 
L 172.501737 191.976088 
L 172.917295 189.463087 
L 173.332852 188.184697 
L 173.754903 187.543335 
L 174.222406 187.223209 
L 174.839249 187.086469 
L 175.97554 187.10593 
L 177.722182 187.223612 
L 177.728675 138.951529 
L 177.832564 147.540101 
L 178.046836 161.306365 
L 178.053329 209.926023 
L 178.163712 206.226658 
L 178.57927 196.849407 
L 178.994828 191.976088 
L 179.410385 189.463087 
L 179.825943 188.184697 
L 180.247994 187.543335 
L 180.715497 187.223209 
L 181.33234 187.086469 
L 182.468631 187.10593 
L 184.215273 187.223612 
L 184.221766 138.951529 
L 184.325655 147.540101 
L 184.539927 161.306365 
L 184.54642 209.926023 
L 184.656803 206.226658 
L 185.072361 196.849407 
L 185.487919 191.976088 
L 185.903476 189.463087 
L 186.319034 188.184697 
L 186.741085 187.543335 
L 187.208588 187.223209 
L 187.825431 187.086469 
L 188.961722 187.10593 
L 190.708364 187.223612 
L 190.714857 138.951529 
L 190.818746 147.540101 
L 191.033018 161.306365 
L 191.039511 209.926023 
L 191.149894 206.226658 
L 191.565452 196.849407 
L 191.981009 191.976088 
L 192.396567 189.463087 
L 192.812125 188.184697 
L 193.234176 187.543335 
L 193.701679 187.223209 
L 194.318522 187.086469 
L 195.454813 187.10593 
L 197.201455 187.223612 
L 197.207948 138.951529 
L 197.311837 147.540101 
L 197.526109 161.306365 
L 197.532602 209.926023 
L 197.642985 206.226658 
L 198.058543 196.849407 
L 198.4741 191.976088 
L 198.889658 189.463087 
L 199.305216 188.184697 
L 199.727267 187.543335 
L 200.194769 187.223209 
L 200.811613 187.086469 
L 201.947904 187.10593 
L 203.694545 187.223612 
L 203.701039 138.951529 
L 203.804928 147.540101 
L 204.0192 161.306365 
L 204.025693 209.926023 
L 204.136076 206.226658 
L 204.551633 196.849407 
L 204.967191 191.976088 
L 205.382749 189.463087 
L 205.798307 188.184697 
L 206.220358 187.543335 
L 206.68786 187.223209 
L 207.304704 187.086469 
L 208.440995 187.10593 
L 210.187636 187.223612 
L 210.194129 138.951529 
L 210.298019 147.540101 
L 210.512291 161.306365 
L 210.518784 209.926023 
L 210.629167 206.226658 
L 211.044724 196.849407 
L 211.460282 191.976088 
L 211.87584 189.463087 
L 212.291398 188.184697 
L 212.713449 187.543335 
L 213.180951 187.223209 
L 213.797795 187.086469 
L 214.934086 187.10593 
L 216.680727 187.223612 
L 216.68722 138.951529 
L 216.79111 147.540101 
L 217.005382 161.306365 
L 217.011875 209.926023 
L 217.122257 206.226658 
L 217.537815 196.849407 
L 217.953373 191.976088 
L 218.368931 189.463087 
L 218.784489 188.184697 
L 219.20654 187.543335 
L 219.674042 187.223209 
L 220.290886 187.086469 
L 221.427177 187.10593 
L 223.173818 187.223612 
L 223.180311 138.951529 
L 223.284201 147.540101 
L 223.498473 161.306365 
L 223.504966 209.926023 
L 223.615348 206.226658 
L 224.030906 196.849407 
L 224.446464 191.976088 
L 224.862022 189.463087 
L 225.27758 188.184697 
L 225.699631 187.543335 
L 226.167133 187.223209 
L 226.783977 187.086469 
L 227.920268 187.10593 
L 229.666909 187.223612 
L 229.673402 138.951529 
L 229.777292 147.540101 
L 229.991564 161.306365 
L 229.998057 209.926023 
L 230.108439 206.226658 
L 230.523997 196.849407 
L 230.939555 191.976088 
L 231.355113 189.463087 
L 231.770671 188.184697 
L 232.192721 187.543335 
L 232.660224 187.223209 
L 233.277068 187.086469 
L 234.413359 187.10593 
L 236.16 187.223612 
L 236.166493 138.951529 
L 236.270383 147.540101 
L 236.484655 161.306365 
L 236.491148 209.926023 
L 236.60153 206.226658 
L 237.017088 196.849407 
L 237.432646 191.976088 
L 237.848204 189.463087 
L 238.263761 188.184697 
L 238.685812 187.543335 
L 239.153315 187.223209 
L 239.770159 187.086469 
L 240.906449 187.10593 
L 242.653091 187.223612 
L 242.659584 138.951529 
L 242.763473 147.540101 
L 242.977745 161.306365 
L 242.984239 209.926023 
L 243.094621 206.226658 
L 243.510179 196.849407 
L 243.925737 191.976088 
L 244.341295 189.463087 
L 244.756852 188.184697 
L 245.178903 187.543335 
L 245.646406 187.223209 
L 246.263249 187.086469 
L 247.39954 187.10593 
L 249.146182 187.223612 
L 249.152675 138.951529 
L 249.256564 147.540101 
L 249.470836 161.306365 
L 249.477329 209.926023 
L 249.587712 206.226658 
L 250.00327 196.849407 
L 250.418828 191.976088 
L 250.834385 189.463087 
L 251.249943 188.184697 
L 251.671994 187.543335 
L 252.139497 187.223209 
L 252.75634 187.086469 
L 253.892631 187.10593 
L 255.639273 187.223612 
L 255.645766 138.951529 
L 255.749655 147.540101 
L 255.963927 161.306365 
L 255.97042 209.926023 
L 256.080803 206.226658 
L 256.496361 196.849407 
L 256.911919 191.976088 
L 257.327476 189.463087 
L 257.743034 188.184697 
L 258.165085 187.543335 
L 258.632588 187.223209 
L 259.249431 187.086469 
L 260.385722 187.10593 
L 262.132364 187.223612 
L 262.138857 138.951529 
L 262.242746 147.540101 
L 262.457018 161.306365 
L 262.463511 209.926023 
L 262.573894 206.226658 
L 262.989452 196.849407 
L 263.405009 191.976088 
L 263.820567 189.463087 
L 264.236125 188.184697 
L 264.658176 187.543335 
L 265.125679 187.223209 
L 265.742522 187.086469 
L 266.878813 187.10593 
L 268.625455 187.223612 
L 268.631948 138.951529 
L 268.735837 147.540101 
L 268.950109 161.306365 
L 268.956602 209.926023 
L 269.066985 206.226658 
L 269.482543 196.849407 
L 269.8981 191.976088 
L 270.313658 189.463087 
L 270.729216 188.184697 
L 271.151267 187.543335 
L 271.618769 187.223209 
L 272.235613 187.086469 
L 273.371904 187.10593 
L 275.118545 187.223612 
L 275.125039 138.951529 
L 275.228928 147.540101 
L 275.4432 161.306365 
L 275.449693 209.926023 
L 275.560076 206.226658 
L 275.975633 196.849407 
L 276.391191 191.976088 
L 276.806749 189.463087 
L 277.222307 188.184697 
L 277.644358 187.543335 
L 278.11186 187.223209 
L 278.728704 187.086469 
L 279.864995 187.10593 
L 281.611636 187.223612 
L 281.618129 138.951529 
L 281.722019 147.540101 
L 281.936291 161.306365 
L 281.942784 209.926023 
L 282.053167 206.226658 
L 282.468724 196.849407 
L 282.884282 191.976088 
L 283.29984 189.463087 
L 283.715398 188.184697 
L 284.137449 187.543335 
L 284.604951 187.223209 
L 285.221795 187.086469 
L 286.358086 187.10593 
L 288.104727 187.223612 
L 288.11122 138.951529 
L 288.21511 147.540101 
L 288.429382 161.306365 
L 288.435875 209.926023 
L 288.546257 206.226658 
L 288.961815 196.849407 
L 289.377373 191.976088 
L 289.792931 189.463087 
L 290.208489 188.184697 
L 290.63054 187.543335 
L 291.098042 187.223209 
L 291.714886 187.086469 
L 292.851177 187.10593 
L 294.597818 187.223612 
L 294.604311 138.951529 
L 294.708201 147.540101 
L 294.922473 161.306365 
L 294.928966 209.926023 
L 295.039348 206.226658 
L 295.454906 196.849407 
L 295.870464 191.976088 
L 296.286022 189.463087 
L 296.70158 188.184697 
L 297.123631 187.543335 
L 297.591133 187.223209 
L 298.207977 187.086469 
L 299.344268 187.10593 
L 301.090909 187.223612 
L 301.097402 138.951529 
L 301.201292 147.540101 
L 301.415564 161.306365 
L 301.422057 209.926023 
L 301.532439 206.226658 
L 301.947997 196.849407 
L 302.363555 191.976088 
L 302.779113 189.463087 
L 303.194671 188.184697 
L 303.616721 187.543335 
L 304.084224 187.223209 
L 304.701068 187.086469 
L 305.837359 187.10593 
L 307.584 187.223612 
L 307.590493 138.951529 
L 307.694383 147.540101 
L 307.908655 161.306365 
L 307.915148 209.926023 
L 308.02553 206.226658 
L 308.441088 196.849407 
L 308.856646 191.976088 
L 309.272204 189.463087 
L 309.687761 188.184697 
L 310.109812 187.543335 
L 310.577315 187.223209 
L 311.194159 187.086469 
L 312.330449 187.10593 
L 314.077091 187.223612 
L 314.083584 138.951529 
L 314.187473 147.540101 
L 314.401745 161.306365 
L 314.408239 209.926023 
L 314.518621 206.226658 
L 314.934179 196.849407 
L 315.349737 191.976088 
L 315.765295 189.463087 
L 316.180852 188.184697 
L 316.602903 187.543335 
L 317.070406 187.223209 
L 317.687249 187.086469 
L 318.82354 187.10593 
L 320.570182 187.223612 
L 320.576675 138.951529 
L 320.680564 147.540101 
L 320.894836 161.306365 
L 320.901329 209.926023 
L 321.011712 206.226658 
L 321.42727 196.849407 
L 321.842828 191.976088 
L 322.258385 189.463087 
L 322.673943 188.184697 
L 323.095994 187.543335 
L 323.563497 187.223209 
L 324.18034 187.086469 
L 325.316631 187.10593 
L 327.063273 187.223612 
L 327.069766 138.951529 
L 327.173655 147.540101 
L 327.387927 161.306365 
L 327.39442 209.926023 
L 327.504803 206.226658 
L 327.920361 196.849407 
L 328.335919 191.976088 
L 328.751476 189.463087 
L 329.167034 188.184697 
L 329.589085 187.543335 
L 330.056588 187.223209 
L 330.673431 187.086469 
L 331.809722 187.10593 
L 333.556364 187.223612 
L 333.562857 138.951529 
L 333.666746 147.540101 
L 333.881018 161.306365 
L 333.887511 209.926023 
L 333.997894 206.226658 
L 334.413452 196.849407 
L 334.829009 191.976088 
L 335.244567 189.463087 
L 335.660125 188.184697 
L 336.082176 187.543335 
L 336.549679 187.223209 
L 337.166522 187.086469 
L 338.302813 187.10593 
L 340.049455 187.223612 
L 340.055948 138.951529 
L 340.159837 147.540101 
L 340.374109 161.306365 
L 340.380602 209.926023 
L 340.490985 206.226658 
L 340.906543 196.849407 
L 341.3221 191.976088 
L 341.737658 189.463087 
L 342.153216 188.184697 
L 342.575267 187.543335 
L 343.042769 187.223209 
L 343.659613 187.086469 
L 344.795904 187.10593 
L 346.542545 187.223612 
L 346.549039 138.951529 
L 346.652928 147.540101 
L 346.8672 161.306365 
L 346.873693 209.926023 
L 346.984076 206.226658 
L 347.399633 196.849407 
L 347.815191 191.976088 
L 348.230749 189.463087 
L 348.646307 188.184697 
L 349.068358 187.543335 
L 349.53586 187.223209 
L 350.152704 187.086469 
L 351.288995 187.10593 
L 353.035636 187.223612 
L 353.042129 138.951529 
L 353.146019 147.540101 
L 353.360291 161.306365 
L 353.366784 209.926023 
L 353.477167 206.226658 
L 353.892724 196.849407 
L 354.308282 191.976088 
L 354.72384 189.463087 
L 355.139398 188.184697 
L 355.561449 187.543335 
L 356.028951 187.223209 
L 356.645795 187.086469 
L 357.782086 187.10593 
L 359.528727 187.223612 
L 359.53522 138.951529 
L 359.63911 147.540101 
L 359.853382 161.306365 
L 359.859875 209.926023 
L 359.970257 206.226658 
L 360.385815 196.849407 
L 360.801373 191.976088 
L 361.216931 189.463087 
L 361.632489 188.184697 
L 362.05454 187.543335 
L 362.522042 187.223209 
L 363.138886 187.086469 
L 364.275177 187.10593 
L 366.021818 187.223612 
L 366.028311 138.951529 
L 366.132201 147.540101 
L 366.346473 161.306365 
L 366.352966 209.926023 
L 366.463348 206.226658 
L 366.878906 196.849407 
L 367.294464 191.976088 
L 367.710022 189.463087 
L 368.12558 188.184697 
L 368.547631 187.543335 
L 369.015133 187.223209 
L 369.631977 187.086469 
L 370.768268 187.10593 
L 372.514909 187.223612 
L 372.521402 138.951529 
L 372.625292 147.540101 
L 372.839564 161.306365 
L 372.846057 209.926023 
L 372.956439 206.226658 
L 373.371997 196.849407 
L 373.787555 191.976088 
L 374.203113 189.463087 
L 374.618671 188.184697 
L 375.040721 187.543335 
L 375.508224 187.223209 
L 376.125068 187.086469 
L 377.261359 187.10593 
L 379.008 187.223612 
L 379.014493 138.951529 
L 379.118383 147.540101 
L 379.332655 161.306365 
L 379.339148 209.926023 
L 379.44953 206.226658 
L 379.865088 196.849407 
L 380.280646 191.976088 
L 380.696204 189.463087 
L 381.111761 188.184697 
L 381.533812 187.543335 
L 382.001315 187.223209 
L 382.618159 187.086469 
L 383.754449 187.10593 
L 385.501091 187.223612 
L 385.507584 138.951529 
L 385.611473 147.540101 
L 385.825745 161.306365 
L 385.832239 209.926023 
L 385.942621 206.226658 
L 386.358179 196.849407 
L 386.773737 191.976088 
L 387.189295 189.463087 
L 387.604852 188.184697 
L 388.026903 187.543335 
L 388.494406 187.223209 
L 389.111249 187.086469 
L 390.24754 187.10593 
L 391.994182 187.223612 
L 392.000675 138.951529 
L 392.104564 147.540101 
L 392.318836 161.306365 
L 392.325329 209.926023 
L 392.435712 206.226658 
L 392.85127 196.849407 
L 393.266828 191.976088 
L 393.682385 189.463087 
L 394.097943 188.184697 
L 394.519994 187.543335 
L 394.987497 187.223209 
L 395.60434 187.086469 
L 396.740631 187.10593 
L 398.487273 187.223612 
L 398.487273 187.223612 
" style="fill:none;stroke:#000000;stroke-linecap:square;stroke-width:4;"/>
   </g>
   <g id="line2d_20">
    <path clip-path="url(#p110e2c5ae8)" d="M 73.832727 187.420641 
L 80.325818 187.420641 
L 80.332311 139.14818 
L 80.436201 147.73076 
L 80.650473 161.485165 
L 80.656966 210.104471 
L 80.767348 206.39927 
L 81.182906 197.001592 
L 81.598464 192.110154 
L 82.014022 189.581134 
L 82.42958 188.288609 
L 82.858124 187.627799 
L 83.325626 187.299399 
L 83.94247 187.151194 
L 85.065775 187.151679 
L 86.818909 187.250523 
L 86.825402 138.978388 
L 86.929292 147.566115 
L 87.143564 161.330718 
L 87.150057 209.950324 
L 87.260439 206.250148 
L 87.675997 196.870075 
L 88.091555 191.994274 
L 88.507113 189.479089 
L 88.922671 188.198777 
L 89.344721 187.555698 
L 89.812224 187.233915 
L 90.429068 187.095323 
L 91.565359 187.11217 
L 93.312 187.227256 
L 93.318493 138.955168 
L 93.422383 147.543626 
L 93.636655 161.309665 
L 93.643148 209.929313 
L 93.75353 206.229839 
L 94.169088 196.852206 
L 94.584646 191.978551 
L 95.000204 189.465255 
L 95.415761 188.186604 
L 95.837812 187.545009 
L 96.305315 187.22466 
L 96.922159 187.087668 
L 98.058449 187.106775 
L 99.805091 187.224106 
L 99.811584 138.952024 
L 99.915473 147.540581 
L 100.129745 161.306814 
L 100.136239 209.926468 
L 100.246621 206.227089 
L 100.662179 196.849786 
L 101.077737 191.976422 
L 101.493295 189.463381 
L 101.908852 188.184956 
L 102.330903 187.543562 
L 102.798406 187.223406 
L 103.415249 187.086632 
L 104.55154 187.106045 
L 106.298182 187.223679 
L 106.304675 138.951598 
L 106.408564 147.540168 
L 106.622836 161.306428 
L 106.629329 209.926083 
L 106.739712 206.226717 
L 107.15527 196.849459 
L 107.570828 191.976134 
L 107.986385 189.463128 
L 108.401943 188.184733 
L 108.823994 187.543366 
L 109.291497 187.223237 
L 109.90834 187.086491 
L 111.044631 187.105946 
L 112.791273 187.223622 
L 112.797766 138.951541 
L 112.901655 147.540113 
L 113.115927 161.306376 
L 113.12242 209.92603 
L 113.232803 206.226667 
L 113.648361 196.849414 
L 114.063919 191.976095 
L 114.479476 189.463093 
L 114.895034 188.184703 
L 115.317085 187.54334 
L 115.784588 187.223214 
L 116.401431 187.086472 
L 117.537722 187.105933 
L 119.284364 187.223614 
L 119.290857 138.951533 
L 119.394746 147.540105 
L 119.609018 161.306369 
L 119.615511 209.926023 
L 119.725894 206.22666 
L 120.141452 196.849408 
L 120.557009 191.97609 
L 120.972567 189.463089 
L 121.388125 188.184698 
L 121.810176 187.543336 
L 122.277679 187.223211 
L 122.894522 187.08647 
L 124.030813 187.105931 
L 125.777455 187.223613 
L 125.783948 138.951532 
L 125.887837 147.540104 
L 126.102109 161.306368 
L 126.108602 209.926022 
L 126.218985 206.226659 
L 126.634543 196.849408 
L 127.0501 191.976089 
L 127.465658 189.463088 
L 127.881216 188.184698 
L 128.303267 187.543335 
L 128.770769 187.22321 
L 129.387613 187.086469 
L 130.523904 187.105931 
L 132.270545 187.223612 
L 132.277039 138.951532 
L 132.380928 147.540104 
L 132.5952 161.306368 
L 132.601693 209.926022 
L 132.712076 206.226659 
L 133.127633 196.849407 
L 133.543191 191.976089 
L 133.958749 189.463088 
L 134.374307 188.184698 
L 134.796358 187.543335 
L 135.26386 187.22321 
L 135.880704 187.086469 
L 137.016995 187.105931 
L 138.763636 187.223612 
L 138.770129 138.951532 
L 138.874019 147.540104 
L 139.088291 161.306368 
L 139.094784 209.926022 
L 139.205167 206.226659 
L 139.620724 196.849407 
L 140.036282 191.976089 
L 140.45184 189.463088 
L 140.867398 188.184698 
L 141.289449 187.543335 
L 141.756951 187.22321 
L 142.373795 187.086469 
L 143.510086 187.105931 
L 145.256727 187.223612 
L 145.26322 138.951532 
L 145.36711 147.540104 
L 145.581382 161.306368 
L 145.587875 209.926022 
L 145.698257 206.226659 
L 146.113815 196.849407 
L 146.529373 191.976089 
L 146.944931 189.463088 
L 147.360489 188.184698 
L 147.78254 187.543335 
L 148.250042 187.22321 
L 148.866886 187.086469 
L 150.003177 187.105931 
L 151.749818 187.223612 
L 151.756311 138.951532 
L 151.860201 147.540104 
L 152.074473 161.306368 
L 152.080966 209.926022 
L 152.191348 206.226659 
L 152.606906 196.849407 
L 153.022464 191.976089 
L 153.438022 189.463088 
L 153.85358 188.184698 
L 154.275631 187.543335 
L 154.743133 187.22321 
L 155.359977 187.086469 
L 156.496268 187.105931 
L 158.242909 187.223612 
L 158.249402 138.951532 
L 158.353292 147.540104 
L 158.567564 161.306368 
L 158.574057 209.926022 
L 158.684439 206.226659 
L 159.099997 196.849407 
L 159.515555 191.976089 
L 159.931113 189.463088 
L 160.346671 188.184698 
L 160.768721 187.543335 
L 161.236224 187.22321 
L 161.853068 187.086469 
L 162.989359 187.105931 
L 164.736 187.223612 
L 164.742493 138.951532 
L 164.846383 147.540104 
L 165.060655 161.306368 
L 165.067148 209.926022 
L 165.17753 206.226659 
L 165.593088 196.849407 
L 166.008646 191.976089 
L 166.424204 189.463088 
L 166.839761 188.184698 
L 167.261812 187.543335 
L 167.729315 187.22321 
L 168.346159 187.086469 
L 169.482449 187.105931 
L 171.229091 187.223612 
L 171.235584 138.951532 
L 171.339473 147.540104 
L 171.553745 161.306368 
L 171.560239 209.926022 
L 171.670621 206.226659 
L 172.086179 196.849407 
L 172.501737 191.976089 
L 172.917295 189.463088 
L 173.332852 188.184698 
L 173.754903 187.543335 
L 174.222406 187.22321 
L 174.839249 187.086469 
L 175.97554 187.105931 
L 177.722182 187.223612 
L 177.728675 138.951532 
L 177.832564 147.540104 
L 178.046836 161.306368 
L 178.053329 209.926022 
L 178.163712 206.226659 
L 178.57927 196.849407 
L 178.994828 191.976089 
L 179.410385 189.463088 
L 179.825943 188.184698 
L 180.247994 187.543335 
L 180.715497 187.22321 
L 181.33234 187.086469 
L 182.468631 187.105931 
L 184.215273 187.223612 
L 184.221766 138.951532 
L 184.325655 147.540104 
L 184.539927 161.306368 
L 184.54642 209.926022 
L 184.656803 206.226659 
L 185.072361 196.849407 
L 185.487919 191.976089 
L 185.903476 189.463088 
L 186.319034 188.184698 
L 186.741085 187.543335 
L 187.208588 187.22321 
L 187.825431 187.086469 
L 188.961722 187.105931 
L 190.708364 187.223612 
L 190.714857 138.951532 
L 190.818746 147.540104 
L 191.033018 161.306368 
L 191.039511 209.926022 
L 191.149894 206.226659 
L 191.565452 196.849407 
L 191.981009 191.976089 
L 192.396567 189.463088 
L 192.812125 188.184698 
L 193.234176 187.543335 
L 193.701679 187.22321 
L 194.318522 187.086469 
L 195.454813 187.105931 
L 197.201455 187.223612 
L 197.207948 138.951532 
L 197.311837 147.540104 
L 197.526109 161.306368 
L 197.532602 209.926022 
L 197.642985 206.226659 
L 198.058543 196.849407 
L 198.4741 191.976089 
L 198.889658 189.463088 
L 199.305216 188.184698 
L 199.727267 187.543335 
L 200.194769 187.22321 
L 200.811613 187.086469 
L 201.947904 187.105931 
L 203.694545 187.223612 
L 203.701039 138.951532 
L 203.804928 147.540104 
L 204.0192 161.306368 
L 204.025693 209.926022 
L 204.136076 206.226659 
L 204.551633 196.849407 
L 204.967191 191.976089 
L 205.382749 189.463088 
L 205.798307 188.184698 
L 206.220358 187.543335 
L 206.68786 187.22321 
L 207.304704 187.086469 
L 208.440995 187.105931 
L 210.187636 187.223612 
L 210.194129 138.951532 
L 210.298019 147.540104 
L 210.512291 161.306368 
L 210.518784 209.926022 
L 210.629167 206.226659 
L 211.044724 196.849407 
L 211.460282 191.976089 
L 211.87584 189.463088 
L 212.291398 188.184698 
L 212.713449 187.543335 
L 213.180951 187.22321 
L 213.797795 187.086469 
L 214.934086 187.105931 
L 216.680727 187.223612 
L 216.68722 138.951532 
L 216.79111 147.540104 
L 217.005382 161.306368 
L 217.011875 209.926022 
L 217.122257 206.226659 
L 217.537815 196.849407 
L 217.953373 191.976089 
L 218.368931 189.463088 
L 218.784489 188.184698 
L 219.20654 187.543335 
L 219.674042 187.22321 
L 220.290886 187.086469 
L 221.427177 187.105931 
L 223.173818 187.223612 
L 223.180311 138.951532 
L 223.284201 147.540104 
L 223.498473 161.306368 
L 223.504966 209.926022 
L 223.615348 206.226659 
L 224.030906 196.849407 
L 224.446464 191.976089 
L 224.862022 189.463088 
L 225.27758 188.184698 
L 225.699631 187.543335 
L 226.167133 187.22321 
L 226.783977 187.086469 
L 227.920268 187.105931 
L 229.666909 187.223612 
L 229.673402 138.951532 
L 229.777292 147.540104 
L 229.991564 161.306368 
L 229.998057 209.926022 
L 230.108439 206.226659 
L 230.523997 196.849407 
L 230.939555 191.976089 
L 231.355113 189.463088 
L 231.770671 188.184698 
L 232.192721 187.543335 
L 232.660224 187.22321 
L 233.277068 187.086469 
L 234.413359 187.105931 
L 236.16 187.223612 
L 236.166493 138.951532 
L 236.270383 147.540104 
L 236.484655 161.306368 
L 236.491148 209.926022 
L 236.60153 206.226659 
L 237.017088 196.849407 
L 237.432646 191.976089 
L 237.848204 189.463088 
L 238.263761 188.184698 
L 238.685812 187.543335 
L 239.153315 187.22321 
L 239.770159 187.086469 
L 240.906449 187.105931 
L 242.653091 187.223612 
L 242.659584 138.951532 
L 242.763473 147.540104 
L 242.977745 161.306368 
L 242.984239 209.926022 
L 243.094621 206.226659 
L 243.510179 196.849407 
L 243.925737 191.976089 
L 244.341295 189.463088 
L 244.756852 188.184698 
L 245.178903 187.543335 
L 245.646406 187.22321 
L 246.263249 187.086469 
L 247.39954 187.105931 
L 249.146182 187.223612 
L 249.152675 138.951532 
L 249.256564 147.540104 
L 249.470836 161.306368 
L 249.477329 209.926022 
L 249.587712 206.226659 
L 250.00327 196.849407 
L 250.418828 191.976089 
L 250.834385 189.463088 
L 251.249943 188.184698 
L 251.671994 187.543335 
L 252.139497 187.22321 
L 252.75634 187.086469 
L 253.892631 187.105931 
L 255.639273 187.223612 
L 255.645766 138.951532 
L 255.749655 147.540104 
L 255.963927 161.306368 
L 255.97042 209.926022 
L 256.080803 206.226659 
L 256.496361 196.849407 
L 256.911919 191.976089 
L 257.327476 189.463088 
L 257.743034 188.184698 
L 258.165085 187.543335 
L 258.632588 187.22321 
L 259.249431 187.086469 
L 260.385722 187.105931 
L 262.132364 187.223612 
L 262.138857 138.951532 
L 262.242746 147.540104 
L 262.457018 161.306368 
L 262.463511 209.926022 
L 262.573894 206.226659 
L 262.989452 196.849407 
L 263.405009 191.976089 
L 263.820567 189.463088 
L 264.236125 188.184698 
L 264.658176 187.543335 
L 265.125679 187.22321 
L 265.742522 187.086469 
L 266.878813 187.105931 
L 268.625455 187.223612 
L 268.631948 138.951532 
L 268.735837 147.540104 
L 268.950109 161.306368 
L 268.956602 209.926022 
L 269.066985 206.226659 
L 269.482543 196.849407 
L 269.8981 191.976089 
L 270.313658 189.463088 
L 270.729216 188.184698 
L 271.151267 187.543335 
L 271.618769 187.22321 
L 272.235613 187.086469 
L 273.371904 187.105931 
L 275.118545 187.223612 
L 275.125039 138.951532 
L 275.228928 147.540104 
L 275.4432 161.306368 
L 275.449693 209.926022 
L 275.560076 206.226659 
L 275.975633 196.849407 
L 276.391191 191.976089 
L 276.806749 189.463088 
L 277.222307 188.184698 
L 277.644358 187.543335 
L 278.11186 187.22321 
L 278.728704 187.086469 
L 279.864995 187.105931 
L 281.611636 187.223612 
L 281.618129 138.951532 
L 281.722019 147.540104 
L 281.936291 161.306368 
L 281.942784 209.926022 
L 282.053167 206.226659 
L 282.468724 196.849407 
L 282.884282 191.976089 
L 283.29984 189.463088 
L 283.715398 188.184698 
L 284.137449 187.543335 
L 284.604951 187.22321 
L 285.221795 187.086469 
L 286.358086 187.105931 
L 288.104727 187.223612 
L 288.11122 138.951532 
L 288.21511 147.540104 
L 288.429382 161.306368 
L 288.435875 209.926022 
L 288.546257 206.226659 
L 288.961815 196.849407 
L 289.377373 191.976089 
L 289.792931 189.463088 
L 290.208489 188.184698 
L 290.63054 187.543335 
L 291.098042 187.22321 
L 291.714886 187.086469 
L 292.851177 187.105931 
L 294.597818 187.223612 
L 294.604311 138.951532 
L 294.708201 147.540104 
L 294.922473 161.306368 
L 294.928966 209.926022 
L 295.039348 206.226659 
L 295.454906 196.849407 
L 295.870464 191.976089 
L 296.286022 189.463088 
L 296.70158 188.184698 
L 297.123631 187.543335 
L 297.591133 187.22321 
L 298.207977 187.086469 
L 299.344268 187.105931 
L 301.090909 187.223612 
L 301.097402 138.951532 
L 301.201292 147.540104 
L 301.415564 161.306368 
L 301.422057 209.926022 
L 301.532439 206.226659 
L 301.947997 196.849407 
L 302.363555 191.976089 
L 302.779113 189.463088 
L 303.194671 188.184698 
L 303.616721 187.543335 
L 304.084224 187.22321 
L 304.701068 187.086469 
L 305.837359 187.105931 
L 307.584 187.223612 
L 307.590493 138.951532 
L 307.694383 147.540104 
L 307.908655 161.306368 
L 307.915148 209.926022 
L 308.02553 206.226659 
L 308.441088 196.849407 
L 308.856646 191.976089 
L 309.272204 189.463088 
L 309.687761 188.184698 
L 310.109812 187.543335 
L 310.577315 187.22321 
L 311.194159 187.086469 
L 312.330449 187.105931 
L 314.077091 187.223612 
L 314.083584 138.951532 
L 314.187473 147.540104 
L 314.401745 161.306368 
L 314.408239 209.926022 
L 314.518621 206.226659 
L 314.934179 196.849407 
L 315.349737 191.976089 
L 315.765295 189.463088 
L 316.180852 188.184698 
L 316.602903 187.543335 
L 317.070406 187.22321 
L 317.687249 187.086469 
L 318.82354 187.105931 
L 320.570182 187.223612 
L 320.576675 138.951532 
L 320.680564 147.540104 
L 320.894836 161.306368 
L 320.901329 209.926022 
L 321.011712 206.226659 
L 321.42727 196.849407 
L 321.842828 191.976089 
L 322.258385 189.463088 
L 322.673943 188.184698 
L 323.095994 187.543335 
L 323.563497 187.22321 
L 324.18034 187.086469 
L 325.316631 187.105931 
L 327.063273 187.223612 
L 327.069766 138.951532 
L 327.173655 147.540104 
L 327.387927 161.306368 
L 327.39442 209.926022 
L 327.504803 206.226659 
L 327.920361 196.849407 
L 328.335919 191.976089 
L 328.751476 189.463088 
L 329.167034 188.184698 
L 329.589085 187.543335 
L 330.056588 187.22321 
L 330.673431 187.086469 
L 331.809722 187.105931 
L 333.556364 187.223612 
L 333.562857 138.951532 
L 333.666746 147.540104 
L 333.881018 161.306368 
L 333.887511 209.926022 
L 333.997894 206.226659 
L 334.413452 196.849407 
L 334.829009 191.976089 
L 335.244567 189.463088 
L 335.660125 188.184698 
L 336.082176 187.543335 
L 336.549679 187.22321 
L 337.166522 187.086469 
L 338.302813 187.105931 
L 340.049455 187.223612 
L 340.055948 138.951532 
L 340.159837 147.540104 
L 340.374109 161.306368 
L 340.380602 209.926022 
L 340.490985 206.226659 
L 340.906543 196.849407 
L 341.3221 191.976089 
L 341.737658 189.463088 
L 342.153216 188.184698 
L 342.575267 187.543335 
L 343.042769 187.22321 
L 343.659613 187.086469 
L 344.795904 187.105931 
L 346.542545 187.223612 
L 346.549039 138.951532 
L 346.652928 147.540104 
L 346.8672 161.306368 
L 346.873693 209.926022 
L 346.984076 206.226659 
L 347.399633 196.849407 
L 347.815191 191.976089 
L 348.230749 189.463088 
L 348.646307 188.184698 
L 349.068358 187.543335 
L 349.53586 187.22321 
L 350.152704 187.086469 
L 351.288995 187.105931 
L 353.035636 187.223612 
L 353.042129 138.951532 
L 353.146019 147.540104 
L 353.360291 161.306368 
L 353.366784 209.926022 
L 353.477167 206.226659 
L 353.892724 196.849407 
L 354.308282 191.976089 
L 354.72384 189.463088 
L 355.139398 188.184698 
L 355.561449 187.543335 
L 356.028951 187.22321 
L 356.645795 187.086469 
L 357.782086 187.105931 
L 359.528727 187.223612 
L 359.53522 138.951532 
L 359.63911 147.540104 
L 359.853382 161.306368 
L 359.859875 209.926022 
L 359.970257 206.226659 
L 360.385815 196.849407 
L 360.801373 191.976089 
L 361.216931 189.463088 
L 361.632489 188.184698 
L 362.05454 187.543335 
L 362.522042 187.22321 
L 363.138886 187.086469 
L 364.275177 187.105931 
L 366.021818 187.223612 
L 366.028311 138.951532 
L 366.132201 147.540104 
L 366.346473 161.306368 
L 366.352966 209.926022 
L 366.463348 206.226659 
L 366.878906 196.849407 
L 367.294464 191.976089 
L 367.710022 189.463088 
L 368.12558 188.184698 
L 368.547631 187.543335 
L 369.015133 187.22321 
L 369.631977 187.086469 
L 370.768268 187.105931 
L 372.514909 187.223612 
L 372.521402 138.951532 
L 372.625292 147.540104 
L 372.839564 161.306368 
L 372.846057 209.926022 
L 372.956439 206.226659 
L 373.371997 196.849407 
L 373.787555 191.976089 
L 374.203113 189.463088 
L 374.618671 188.184698 
L 375.040721 187.543335 
L 375.508224 187.22321 
L 376.125068 187.086469 
L 377.261359 187.105931 
L 379.008 187.223612 
L 379.014493 138.951532 
L 379.118383 147.540104 
L 379.332655 161.306368 
L 379.339148 209.926022 
L 379.44953 206.226659 
L 379.865088 196.849407 
L 380.280646 191.976089 
L 380.696204 189.463088 
L 381.111761 188.184698 
L 381.533812 187.543335 
L 382.001315 187.22321 
L 382.618159 187.086469 
L 383.754449 187.105931 
L 385.501091 187.223612 
L 385.507584 138.951532 
L 385.611473 147.540104 
L 385.825745 161.306368 
L 385.832239 209.926022 
L 385.942621 206.226659 
L 386.358179 196.849407 
L 386.773737 191.976089 
L 387.189295 189.463088 
L 387.604852 188.184698 
L 388.026903 187.543335 
L 388.494406 187.22321 
L 389.111249 187.086469 
L 390.24754 187.105931 
L 391.994182 187.223612 
L 392.000675 138.951532 
L 392.104564 147.540104 
L 392.318836 161.306368 
L 392.325329 209.926022 
L 392.435712 206.226659 
L 392.85127 196.849407 
L 393.266828 191.976089 
L 393.682385 189.463088 
L 394.097943 188.184698 
L 394.519994 187.543335 
L 394.987497 187.22321 
L 395.60434 187.086469 
L 396.740631 187.105931 
L 398.487273 187.223612 
L 398.487273 187.223612 
" style="fill:none;stroke:#ff0000;stroke-linecap:square;stroke-width:1.5;"/>
   </g>
   <g id="patch_8">
    <path d="M 57.6 213.662118 
L 57.6 135.393882 
" style="fill:none;stroke:#000000;stroke-linecap:square;stroke-linejoin:miter;stroke-width:0.8;"/>
   </g>
   <g id="patch_9">
    <path d="M 414.72 213.662118 
L 414.72 135.393882 
" style="fill:none;stroke:#000000;stroke-linecap:square;stroke-linejoin:miter;stroke-width:0.8;"/>
   </g>
   <g id="patch_10">
    <path d="M 57.6 213.662118 
L 414.72 213.662118 
" style="fill:none;stroke:#000000;stroke-linecap:square;stroke-linejoin:miter;stroke-width:0.8;"/>
   </g>
   <g id="patch_11">
    <path d="M 57.6 135.393882 
L 414.72 135.393882 
" style="fill:none;stroke:#000000;stroke-linecap:square;stroke-linejoin:miter;stroke-width:0.8;"/>
   </g>
   <g id="legend_1">
    <g id="patch_12">
     <path d="M 353.0325 172.750132 
L 407.72 172.750132 
Q 409.72 172.750132 409.72 170.750132 
L 409.72 142.393882 
Q 409.72 140.393882 407.72 140.393882 
L 353.0325 140.393882 
Q 351.0325 140.393882 351.0325 142.393882 
L 351.0325 170.750132 
Q 351.0325 172.750132 353.0325 172.750132 
z
" style="fill:#ffffff;opacity:0.8;stroke:#cccccc;stroke-linejoin:miter;"/>
    </g>
    <g id="line2d_21">
     <path d="M 355.0325 148.49232 
L 375.0325 148.49232 
" style="fill:none;stroke:#000000;stroke-linecap:square;stroke-width:4;"/>
    </g>
    <g id="line2d_22"/>
    <g id="text_19">
     <!-- Pred -->
     <defs>
      <path d="M 19.671875 64.796875 
L 19.671875 37.40625 
L 32.078125 37.40625 
Q 38.96875 37.40625 42.71875 40.96875 
Q 46.484375 44.53125 46.484375 51.125 
Q 46.484375 57.671875 42.71875 61.234375 
Q 38.96875 64.796875 32.078125 64.796875 
z
M 9.8125 72.90625 
L 32.078125 72.90625 
Q 44.34375 72.90625 50.609375 67.359375 
Q 56.890625 61.8125 56.890625 51.125 
Q 56.890625 40.328125 50.609375 34.8125 
Q 44.34375 29.296875 32.078125 29.296875 
L 19.671875 29.296875 
L 19.671875 0 
L 9.8125 0 
z
" id="DejaVuSans-50"/>
      <path d="M 41.109375 46.296875 
Q 39.59375 47.171875 37.8125 47.578125 
Q 36.03125 48 33.890625 48 
Q 26.265625 48 22.1875 43.046875 
Q 18.109375 38.09375 18.109375 28.8125 
L 18.109375 0 
L 9.078125 0 
L 9.078125 54.6875 
L 18.109375 54.6875 
L 18.109375 46.1875 
Q 20.953125 51.171875 25.484375 53.578125 
Q 30.03125 56 36.53125 56 
Q 37.453125 56 38.578125 55.875 
Q 39.703125 55.765625 41.0625 55.515625 
z
" id="DejaVuSans-72"/>
      <path d="M 45.40625 46.390625 
L 45.40625 75.984375 
L 54.390625 75.984375 
L 54.390625 0 
L 45.40625 0 
L 45.40625 8.203125 
Q 42.578125 3.328125 38.25 0.953125 
Q 33.9375 -1.421875 27.875 -1.421875 
Q 17.96875 -1.421875 11.734375 6.484375 
Q 5.515625 14.40625 5.515625 27.296875 
Q 5.515625 40.1875 11.734375 48.09375 
Q 17.96875 56 27.875 56 
Q 33.9375 56 38.25 53.625 
Q 42.578125 51.265625 45.40625 46.390625 
z
M 14.796875 27.296875 
Q 14.796875 17.390625 18.875 11.75 
Q 22.953125 6.109375 30.078125 6.109375 
Q 37.203125 6.109375 41.296875 11.75 
Q 45.40625 17.390625 45.40625 27.296875 
Q 45.40625 37.203125 41.296875 42.84375 
Q 37.203125 48.484375 30.078125 48.484375 
Q 22.953125 48.484375 18.875 42.84375 
Q 14.796875 37.203125 14.796875 27.296875 
z
" id="DejaVuSans-64"/>
     </defs>
     <g transform="translate(383.0325 151.99232)scale(0.1 -0.1)">
      <use xlink:href="#DejaVuSans-50"/>
      <use x="60.287109" xlink:href="#DejaVuSans-72"/>
      <use x="101.369141" xlink:href="#DejaVuSans-65"/>
      <use x="162.892578" xlink:href="#DejaVuSans-64"/>
     </g>
    </g>
    <g id="line2d_23">
     <path d="M 355.0325 163.170445 
L 375.0325 163.170445 
" style="fill:none;stroke:#ff0000;stroke-linecap:square;stroke-width:1.5;"/>
    </g>
    <g id="line2d_24"/>
    <g id="text_20">
     <!-- True -->
     <defs>
      <path d="M 8.5 21.578125 
L 8.5 54.6875 
L 17.484375 54.6875 
L 17.484375 21.921875 
Q 17.484375 14.15625 20.5 10.265625 
Q 23.53125 6.390625 29.59375 6.390625 
Q 36.859375 6.390625 41.078125 11.03125 
Q 45.3125 15.671875 45.3125 23.6875 
L 45.3125 54.6875 
L 54.296875 54.6875 
L 54.296875 0 
L 45.3125 0 
L 45.3125 8.40625 
Q 42.046875 3.421875 37.71875 1 
Q 33.40625 -1.421875 27.6875 -1.421875 
Q 18.265625 -1.421875 13.375 4.4375 
Q 8.5 10.296875 8.5 21.578125 
z
M 31.109375 56 
z
" id="DejaVuSans-75"/>
     </defs>
     <g transform="translate(383.0325 166.670445)scale(0.1 -0.1)">
      <use xlink:href="#DejaVuSans-54"/>
      <use x="60.865234" xlink:href="#DejaVuSans-72"/>
      <use x="101.978516" xlink:href="#DejaVuSans-75"/>
      <use x="165.357422" xlink:href="#DejaVuSans-65"/>
     </g>
    </g>
   </g>
  </g>
  <g id="axes_3">
   <g id="patch_13">
    <path d="M 57.6 307.584 
L 414.72 307.584 
L 414.72 229.315765 
L 57.6 229.315765 
z
" style="fill:#ffffff;"/>
   </g>
   <g id="matplotlib.axis_5">
    <g id="xtick_13">
     <g id="line2d_25">
      <g>
       <use style="stroke:#000000;stroke-width:0.8;" x="73.832727" xlink:href="#ma580ab5b17" y="307.584"/>
      </g>
     </g>
     <g id="text_21">
      <!-- 0 -->
      <g transform="translate(70.651477 322.182437)scale(0.1 -0.1)">
       <use xlink:href="#DejaVuSans-30"/>
      </g>
     </g>
    </g>
    <g id="xtick_14">
     <g id="line2d_26">
      <g>
       <use style="stroke:#000000;stroke-width:0.8;" x="138.763636" xlink:href="#ma580ab5b17" y="307.584"/>
      </g>
     </g>
     <g id="text_22">
      <!-- 10 -->
      <g transform="translate(132.401136 322.182437)scale(0.1 -0.1)">
       <use xlink:href="#DejaVuSans-31"/>
       <use x="63.623047" xlink:href="#DejaVuSans-30"/>
      </g>
     </g>
    </g>
    <g id="xtick_15">
     <g id="line2d_27">
      <g>
       <use style="stroke:#000000;stroke-width:0.8;" x="203.694545" xlink:href="#ma580ab5b17" y="307.584"/>
      </g>
     </g>
     <g id="text_23">
      <!-- 20 -->
      <g transform="translate(197.332045 322.182437)scale(0.1 -0.1)">
       <use xlink:href="#DejaVuSans-32"/>
       <use x="63.623047" xlink:href="#DejaVuSans-30"/>
      </g>
     </g>
    </g>
    <g id="xtick_16">
     <g id="line2d_28">
      <g>
       <use style="stroke:#000000;stroke-width:0.8;" x="268.625455" xlink:href="#ma580ab5b17" y="307.584"/>
      </g>
     </g>
     <g id="text_24">
      <!-- 30 -->
      <g transform="translate(262.262955 322.182437)scale(0.1 -0.1)">
       <use xlink:href="#DejaVuSans-33"/>
       <use x="63.623047" xlink:href="#DejaVuSans-30"/>
      </g>
     </g>
    </g>
    <g id="xtick_17">
     <g id="line2d_29">
      <g>
       <use style="stroke:#000000;stroke-width:0.8;" x="333.556364" xlink:href="#ma580ab5b17" y="307.584"/>
      </g>
     </g>
     <g id="text_25">
      <!-- 40 -->
      <g transform="translate(327.193864 322.182437)scale(0.1 -0.1)">
       <use xlink:href="#DejaVuSans-34"/>
       <use x="63.623047" xlink:href="#DejaVuSans-30"/>
      </g>
     </g>
    </g>
    <g id="xtick_18">
     <g id="line2d_30">
      <g>
       <use style="stroke:#000000;stroke-width:0.8;" x="398.487273" xlink:href="#ma580ab5b17" y="307.584"/>
      </g>
     </g>
     <g id="text_26">
      <!-- 50 -->
      <g transform="translate(392.124773 322.182437)scale(0.1 -0.1)">
       <use xlink:href="#DejaVuSans-35"/>
       <use x="63.623047" xlink:href="#DejaVuSans-30"/>
      </g>
     </g>
    </g>
    <g id="text_27">
     <!-- Time -->
     <defs>
      <path d="M 9.421875 54.6875 
L 18.40625 54.6875 
L 18.40625 0 
L 9.421875 0 
z
M 9.421875 75.984375 
L 18.40625 75.984375 
L 18.40625 64.59375 
L 9.421875 64.59375 
z
" id="DejaVuSans-69"/>
      <path d="M 52 44.1875 
Q 55.375 50.25 60.0625 53.125 
Q 64.75 56 71.09375 56 
Q 79.640625 56 84.28125 50.015625 
Q 88.921875 44.046875 88.921875 33.015625 
L 88.921875 0 
L 79.890625 0 
L 79.890625 32.71875 
Q 79.890625 40.578125 77.09375 44.375 
Q 74.3125 48.1875 68.609375 48.1875 
Q 61.625 48.1875 57.5625 43.546875 
Q 53.515625 38.921875 53.515625 30.90625 
L 53.515625 0 
L 44.484375 0 
L 44.484375 32.71875 
Q 44.484375 40.625 41.703125 44.40625 
Q 38.921875 48.1875 33.109375 48.1875 
Q 26.21875 48.1875 22.15625 43.53125 
Q 18.109375 38.875 18.109375 30.90625 
L 18.109375 0 
L 9.078125 0 
L 9.078125 54.6875 
L 18.109375 54.6875 
L 18.109375 46.1875 
Q 21.1875 51.21875 25.484375 53.609375 
Q 29.78125 56 35.6875 56 
Q 41.65625 56 45.828125 52.96875 
Q 50 49.953125 52 44.1875 
z
" id="DejaVuSans-6d"/>
     </defs>
     <g transform="translate(223.7725 335.860562)scale(0.1 -0.1)">
      <use xlink:href="#DejaVuSans-54"/>
      <use x="61.037109" xlink:href="#DejaVuSans-69"/>
      <use x="88.820312" xlink:href="#DejaVuSans-6d"/>
      <use x="186.232422" xlink:href="#DejaVuSans-65"/>
     </g>
    </g>
   </g>
   <g id="matplotlib.axis_6">
    <g id="ytick_5">
     <g id="line2d_31">
      <g>
       <use style="stroke:#000000;stroke-width:0.8;" x="57.6" xlink:href="#mc0a5b09f5f" y="304.026353"/>
      </g>
     </g>
     <g id="text_28">
      <!-- 0 -->
      <g transform="translate(44.2375 307.825572)scale(0.1 -0.1)">
       <use xlink:href="#DejaVuSans-30"/>
      </g>
     </g>
    </g>
    <g id="ytick_6">
     <g id="line2d_32">
      <g>
       <use style="stroke:#000000;stroke-width:0.8;" x="57.6" xlink:href="#mc0a5b09f5f" y="268.449882"/>
      </g>
     </g>
     <g id="text_29">
      <!-- 5 -->
      <g transform="translate(44.2375 272.249101)scale(0.1 -0.1)">
       <use xlink:href="#DejaVuSans-35"/>
      </g>
     </g>
    </g>
    <g id="ytick_7">
     <g id="line2d_33">
      <g>
       <use style="stroke:#000000;stroke-width:0.8;" x="57.6" xlink:href="#mc0a5b09f5f" y="232.873412"/>
      </g>
     </g>
     <g id="text_30">
      <!-- 10 -->
      <g transform="translate(37.875 236.672631)scale(0.1 -0.1)">
       <use xlink:href="#DejaVuSans-31"/>
       <use x="63.623047" xlink:href="#DejaVuSans-30"/>
      </g>
     </g>
    </g>
    <g id="text_31">
     <!-- Control Input -->
     <defs>
      <path d="M 64.40625 67.28125 
L 64.40625 56.890625 
Q 59.421875 61.53125 53.78125 63.8125 
Q 48.140625 66.109375 41.796875 66.109375 
Q 29.296875 66.109375 22.65625 58.46875 
Q 16.015625 50.828125 16.015625 36.375 
Q 16.015625 21.96875 22.65625 14.328125 
Q 29.296875 6.6875 41.796875 6.6875 
Q 48.140625 6.6875 53.78125 8.984375 
Q 59.421875 11.28125 64.40625 15.921875 
L 64.40625 5.609375 
Q 59.234375 2.09375 53.4375 0.328125 
Q 47.65625 -1.421875 41.21875 -1.421875 
Q 24.65625 -1.421875 15.125 8.703125 
Q 5.609375 18.84375 5.609375 36.375 
Q 5.609375 53.953125 15.125 64.078125 
Q 24.65625 74.21875 41.21875 74.21875 
Q 47.75 74.21875 53.53125 72.484375 
Q 59.328125 70.75 64.40625 67.28125 
z
" id="DejaVuSans-43"/>
      <path d="M 30.609375 48.390625 
Q 23.390625 48.390625 19.1875 42.75 
Q 14.984375 37.109375 14.984375 27.296875 
Q 14.984375 17.484375 19.15625 11.84375 
Q 23.34375 6.203125 30.609375 6.203125 
Q 37.796875 6.203125 41.984375 11.859375 
Q 46.1875 17.53125 46.1875 27.296875 
Q 46.1875 37.015625 41.984375 42.703125 
Q 37.796875 48.390625 30.609375 48.390625 
z
M 30.609375 56 
Q 42.328125 56 49.015625 48.375 
Q 55.71875 40.765625 55.71875 27.296875 
Q 55.71875 13.875 49.015625 6.21875 
Q 42.328125 -1.421875 30.609375 -1.421875 
Q 18.84375 -1.421875 12.171875 6.21875 
Q 5.515625 13.875 5.515625 27.296875 
Q 5.515625 40.765625 12.171875 48.375 
Q 18.84375 56 30.609375 56 
z
" id="DejaVuSans-6f"/>
      <path d="M 54.890625 33.015625 
L 54.890625 0 
L 45.90625 0 
L 45.90625 32.71875 
Q 45.90625 40.484375 42.875 44.328125 
Q 39.84375 48.1875 33.796875 48.1875 
Q 26.515625 48.1875 22.3125 43.546875 
Q 18.109375 38.921875 18.109375 30.90625 
L 18.109375 0 
L 9.078125 0 
L 9.078125 54.6875 
L 18.109375 54.6875 
L 18.109375 46.1875 
Q 21.34375 51.125 25.703125 53.5625 
Q 30.078125 56 35.796875 56 
Q 45.21875 56 50.046875 50.171875 
Q 54.890625 44.34375 54.890625 33.015625 
z
" id="DejaVuSans-6e"/>
      <path d="M 9.421875 75.984375 
L 18.40625 75.984375 
L 18.40625 0 
L 9.421875 0 
z
" id="DejaVuSans-6c"/>
      <path d="M 9.8125 72.90625 
L 19.671875 72.90625 
L 19.671875 0 
L 9.8125 0 
z
" id="DejaVuSans-49"/>
      <path d="M 18.109375 8.203125 
L 18.109375 -20.796875 
L 9.078125 -20.796875 
L 9.078125 54.6875 
L 18.109375 54.6875 
L 18.109375 46.390625 
Q 20.953125 51.265625 25.265625 53.625 
Q 29.59375 56 35.59375 56 
Q 45.5625 56 51.78125 48.09375 
Q 58.015625 40.1875 58.015625 27.296875 
Q 58.015625 14.40625 51.78125 6.484375 
Q 45.5625 -1.421875 35.59375 -1.421875 
Q 29.59375 -1.421875 25.265625 0.953125 
Q 20.953125 3.328125 18.109375 8.203125 
z
M 48.6875 27.296875 
Q 48.6875 37.203125 44.609375 42.84375 
Q 40.53125 48.484375 33.40625 48.484375 
Q 26.265625 48.484375 22.1875 42.84375 
Q 18.109375 37.203125 18.109375 27.296875 
Q 18.109375 17.390625 22.1875 11.75 
Q 26.265625 6.109375 33.40625 6.109375 
Q 40.53125 6.109375 44.609375 11.75 
Q 48.6875 17.390625 48.6875 27.296875 
z
" id="DejaVuSans-70"/>
     </defs>
     <g transform="translate(31.795312 301.167851)rotate(-90)scale(0.1 -0.1)">
      <use xlink:href="#DejaVuSans-43"/>
      <use x="69.824219" xlink:href="#DejaVuSans-6f"/>
      <use x="131.005859" xlink:href="#DejaVuSans-6e"/>
      <use x="194.384766" xlink:href="#DejaVuSans-74"/>
      <use x="233.59375" xlink:href="#DejaVuSans-72"/>
      <use x="274.675781" xlink:href="#DejaVuSans-6f"/>
      <use x="335.857422" xlink:href="#DejaVuSans-6c"/>
      <use x="363.640625" xlink:href="#DejaVuSans-20"/>
      <use x="395.427734" xlink:href="#DejaVuSans-49"/>
      <use x="424.919922" xlink:href="#DejaVuSans-6e"/>
      <use x="488.298828" xlink:href="#DejaVuSans-70"/>
      <use x="551.775391" xlink:href="#DejaVuSans-75"/>
      <use x="615.154297" xlink:href="#DejaVuSans-74"/>
     </g>
    </g>
   </g>
   <g id="line2d_34">
    <path clip-path="url(#p889137a155)" d="M 73.832727 304.026353 
L 80.325818 304.026353 
L 80.442694 232.873412 
L 80.650473 232.873412 
L 80.767348 304.026353 
L 86.818909 304.026353 
L 86.935785 232.873412 
L 87.143564 232.873412 
L 87.260439 304.026353 
L 93.312 304.026353 
L 93.428876 232.873412 
L 93.636655 232.873412 
L 93.75353 304.026353 
L 99.805091 304.026353 
L 99.921967 232.873412 
L 100.129745 232.873412 
L 100.246621 304.026353 
L 106.298182 304.026353 
L 106.415057 232.873412 
L 106.622836 232.873412 
L 106.739712 304.026353 
L 112.791273 304.026353 
L 112.908148 232.873412 
L 113.115927 232.873412 
L 113.232803 304.026353 
L 119.284364 304.026353 
L 119.401239 232.873412 
L 119.609018 232.873412 
L 119.725894 304.026353 
L 125.777455 304.026353 
L 125.89433 232.873412 
L 126.102109 232.873412 
L 126.218985 304.026353 
L 132.270545 304.026353 
L 132.387421 232.873412 
L 132.5952 232.873412 
L 132.712076 304.026353 
L 138.763636 304.026353 
L 138.880512 232.873412 
L 139.088291 232.873412 
L 139.205167 304.026353 
L 145.256727 304.026353 
L 145.373603 232.873412 
L 145.581382 232.873412 
L 145.698257 304.026353 
L 151.749818 304.026353 
L 151.866694 232.873412 
L 152.074473 232.873412 
L 152.191348 304.026353 
L 158.242909 304.026353 
L 158.359785 232.873412 
L 158.567564 232.873412 
L 158.684439 304.026353 
L 164.736 304.026353 
L 164.852876 232.873412 
L 165.060655 232.873412 
L 165.17753 304.026353 
L 171.229091 304.026353 
L 171.345967 232.873412 
L 171.553745 232.873412 
L 171.670621 304.026353 
L 177.722182 304.026353 
L 177.839057 232.873412 
L 178.046836 232.873412 
L 178.163712 304.026353 
L 184.215273 304.026353 
L 184.332148 232.873412 
L 184.539927 232.873412 
L 184.656803 304.026353 
L 190.708364 304.026353 
L 190.825239 232.873412 
L 191.033018 232.873412 
L 191.149894 304.026353 
L 197.201455 304.026353 
L 197.31833 232.873412 
L 197.526109 232.873412 
L 197.642985 304.026353 
L 203.694545 304.026353 
L 203.811421 232.873412 
L 204.0192 232.873412 
L 204.136076 304.026353 
L 210.187636 304.026353 
L 210.304512 232.873412 
L 210.512291 232.873412 
L 210.629167 304.026353 
L 216.680727 304.026353 
L 216.797603 232.873412 
L 217.005382 232.873412 
L 217.122257 304.026353 
L 223.173818 304.026353 
L 223.290694 232.873412 
L 223.498473 232.873412 
L 223.615348 304.026353 
L 229.666909 304.026353 
L 229.783785 232.873412 
L 229.991564 232.873412 
L 230.108439 304.026353 
L 236.16 304.026353 
L 236.276876 232.873412 
L 236.484655 232.873412 
L 236.60153 304.026353 
L 242.653091 304.026353 
L 242.769967 232.873412 
L 242.977745 232.873412 
L 243.094621 304.026353 
L 249.146182 304.026353 
L 249.263057 232.873412 
L 249.470836 232.873412 
L 249.587712 304.026353 
L 255.639273 304.026353 
L 255.756148 232.873412 
L 255.963927 232.873412 
L 256.080803 304.026353 
L 262.132364 304.026353 
L 262.249239 232.873412 
L 262.457018 232.873412 
L 262.573894 304.026353 
L 268.625455 304.026353 
L 268.74233 232.873412 
L 268.950109 232.873412 
L 269.066985 304.026353 
L 275.118545 304.026353 
L 275.235421 232.873412 
L 275.4432 232.873412 
L 275.560076 304.026353 
L 281.611636 304.026353 
L 281.728512 232.873412 
L 281.936291 232.873412 
L 282.053167 304.026353 
L 288.104727 304.026353 
L 288.221603 232.873412 
L 288.429382 232.873412 
L 288.546257 304.026353 
L 294.597818 304.026353 
L 294.714694 232.873412 
L 294.922473 232.873412 
L 295.039348 304.026353 
L 301.090909 304.026353 
L 301.207785 232.873412 
L 301.415564 232.873412 
L 301.532439 304.026353 
L 307.584 304.026353 
L 307.700876 232.873412 
L 307.908655 232.873412 
L 308.02553 304.026353 
L 314.077091 304.026353 
L 314.193967 232.873412 
L 314.401745 232.873412 
L 314.518621 304.026353 
L 320.570182 304.026353 
L 320.687057 232.873412 
L 320.894836 232.873412 
L 321.011712 304.026353 
L 327.063273 304.026353 
L 327.180148 232.873412 
L 327.387927 232.873412 
L 327.504803 304.026353 
L 333.556364 304.026353 
L 333.673239 232.873412 
L 333.881018 232.873412 
L 333.997894 304.026353 
L 340.049455 304.026353 
L 340.16633 232.873412 
L 340.374109 232.873412 
L 340.490985 304.026353 
L 346.542545 304.026353 
L 346.659421 232.873412 
L 346.8672 232.873412 
L 346.984076 304.026353 
L 353.035636 304.026353 
L 353.152512 232.873412 
L 353.360291 232.873412 
L 353.477167 304.026353 
L 359.528727 304.026353 
L 359.645603 232.873412 
L 359.853382 232.873412 
L 359.970257 304.026353 
L 366.021818 304.026353 
L 366.138694 232.873412 
L 366.346473 232.873412 
L 366.463348 304.026353 
L 372.514909 304.026353 
L 372.631785 232.873412 
L 372.839564 232.873412 
L 372.956439 304.026353 
L 379.008 304.026353 
L 379.124876 232.873412 
L 379.332655 232.873412 
L 379.44953 304.026353 
L 385.501091 304.026353 
L 385.617967 232.873412 
L 385.825745 232.873412 
L 385.942621 304.026353 
L 391.994182 304.026353 
L 392.111057 232.873412 
L 392.318836 232.873412 
L 392.435712 304.026353 
L 398.487273 304.026353 
L 398.487273 304.026353 
" style="fill:none;stroke:#000000;stroke-linecap:square;stroke-width:1.5;"/>
   </g>
   <g id="patch_14">
    <path d="M 57.6 307.584 
L 57.6 229.315765 
" style="fill:none;stroke:#000000;stroke-linecap:square;stroke-linejoin:miter;stroke-width:0.8;"/>
   </g>
   <g id="patch_15">
    <path d="M 414.72 307.584 
L 414.72 229.315765 
" style="fill:none;stroke:#000000;stroke-linecap:square;stroke-linejoin:miter;stroke-width:0.8;"/>
   </g>
   <g id="patch_16">
    <path d="M 57.6 307.584 
L 414.72 307.584 
" style="fill:none;stroke:#000000;stroke-linecap:square;stroke-linejoin:miter;stroke-width:0.8;"/>
   </g>
   <g id="patch_17">
    <path d="M 57.6 229.315765 
L 414.72 229.315765 
" style="fill:none;stroke:#000000;stroke-linecap:square;stroke-linejoin:miter;stroke-width:0.8;"/>
   </g>
   <g id="legend_2">
    <g id="patch_18">
     <path d="M 349.82625 251.99389 
L 407.72 251.99389 
Q 409.72 251.99389 409.72 249.99389 
L 409.72 236.315765 
Q 409.72 234.315765 407.72 234.315765 
L 349.82625 234.315765 
Q 347.82625 234.315765 347.82625 236.315765 
L 347.82625 249.99389 
Q 347.82625 251.99389 349.82625 251.99389 
z
" style="fill:#ffffff;opacity:0.8;stroke:#cccccc;stroke-linejoin:miter;"/>
    </g>
    <g id="line2d_35">
     <path d="M 351.82625 242.414202 
L 371.82625 242.414202 
" style="fill:none;stroke:#000000;stroke-linecap:square;stroke-width:1.5;"/>
    </g>
    <g id="line2d_36"/>
    <g id="text_32">
     <!-- Input -->
     <g transform="translate(379.82625 245.914202)scale(0.1 -0.1)">
      <use xlink:href="#DejaVuSans-49"/>
      <use x="29.492188" xlink:href="#DejaVuSans-6e"/>
      <use x="92.871094" xlink:href="#DejaVuSans-70"/>
      <use x="156.347656" xlink:href="#DejaVuSans-75"/>
      <use x="219.726562" xlink:href="#DejaVuSans-74"/>
     </g>
    </g>
   </g>
  </g>
 </g>
 <defs>
  <clipPath id="p7630093a84">
   <rect height="78.268235" width="357.12" x="57.6" y="41.472"/>
  </clipPath>
  <clipPath id="p110e2c5ae8">
   <rect height="78.268235" width="357.12" x="57.6" y="135.393882"/>
  </clipPath>
  <clipPath id="p889137a155">
   <rect height="78.268235" width="357.12" x="57.6" y="229.315765"/>
  </clipPath>
 </defs>
</svg>
