<?xml version="1.0" encoding="utf-8" standalone="no"?>
<!DOCTYPE svg PUBLIC "-//W3C//DTD SVG 1.1//EN"
  "http://www.w3.org/Graphics/SVG/1.1/DTD/svg11.dtd">
<!-- Created with matplotlib (https://matplotlib.org/) -->
<svg height="720pt" version="1.1" viewBox="0 0 1440 720" width="1440pt" xmlns="http://www.w3.org/2000/svg" xmlns:xlink="http://www.w3.org/1999/xlink">
 <defs>
  <style type="text/css">
*{stroke-linecap:butt;stroke-linejoin:round;}
  </style>
 </defs>
 <g id="figure_1">
  <g id="patch_1">
   <path d="M 0 720 
L 1440 720 
L 1440 0 
L 0 0 
z
" style="fill:#ffffff;"/>
  </g>
  <g id="axes_1">
   <g id="patch_2">
    <path d="M 180 206.921739 
L 1296 206.921739 
L 1296 86.4 
L 180 86.4 
z
" style="fill:#ffffff;"/>
   </g>
   <g id="matplotlib.axis_1">
    <g id="xtick_1">
     <g id="line2d_1">
      <defs>
       <path d="M 0 0 
L 0 3.5 
" id="m6960f2ebb2" style="stroke:#000000;stroke-width:0.8;"/>
      </defs>
      <g>
       <use style="stroke:#000000;stroke-width:0.8;" x="230.727273" xlink:href="#m6960f2ebb2" y="206.921739"/>
      </g>
     </g>
     <g id="text_1">
      <!-- 0 -->
      <defs>
       <path d="M 31.78125 66.40625 
Q 24.171875 66.40625 20.328125 58.90625 
Q 16.5 51.421875 16.5 36.375 
Q 16.5 21.390625 20.328125 13.890625 
Q 24.171875 6.390625 31.78125 6.390625 
Q 39.453125 6.390625 43.28125 13.890625 
Q 47.125 21.390625 47.125 36.375 
Q 47.125 51.421875 43.28125 58.90625 
Q 39.453125 66.40625 31.78125 66.40625 
z
M 31.78125 74.21875 
Q 44.046875 74.21875 50.515625 64.515625 
Q 56.984375 54.828125 56.984375 36.375 
Q 56.984375 17.96875 50.515625 8.265625 
Q 44.046875 -1.421875 31.78125 -1.421875 
Q 19.53125 -1.421875 13.0625 8.265625 
Q 6.59375 17.96875 6.59375 36.375 
Q 6.59375 54.828125 13.0625 64.515625 
Q 19.53125 74.21875 31.78125 74.21875 
z
" id="DejaVuSans-48"/>
      </defs>
      <g transform="translate(227.546023 221.520177)scale(0.1 -0.1)">
       <use xlink:href="#DejaVuSans-48"/>
      </g>
     </g>
    </g>
    <g id="xtick_2">
     <g id="line2d_2">
      <g>
       <use style="stroke:#000000;stroke-width:0.8;" x="434.656007" xlink:href="#m6960f2ebb2" y="206.921739"/>
      </g>
     </g>
     <g id="text_2">
      <!-- 2 -->
      <defs>
       <path d="M 19.1875 8.296875 
L 53.609375 8.296875 
L 53.609375 0 
L 7.328125 0 
L 7.328125 8.296875 
Q 12.9375 14.109375 22.625 23.890625 
Q 32.328125 33.6875 34.8125 36.53125 
Q 39.546875 41.84375 41.421875 45.53125 
Q 43.3125 49.21875 43.3125 52.78125 
Q 43.3125 58.59375 39.234375 62.25 
Q 35.15625 65.921875 28.609375 65.921875 
Q 23.96875 65.921875 18.8125 64.3125 
Q 13.671875 62.703125 7.8125 59.421875 
L 7.8125 69.390625 
Q 13.765625 71.78125 18.9375 73 
Q 24.125 74.21875 28.421875 74.21875 
Q 39.75 74.21875 46.484375 68.546875 
Q 53.21875 62.890625 53.21875 53.421875 
Q 53.21875 48.921875 51.53125 44.890625 
Q 49.859375 40.875 45.40625 35.40625 
Q 44.1875 33.984375 37.640625 27.21875 
Q 31.109375 20.453125 19.1875 8.296875 
z
" id="DejaVuSans-50"/>
      </defs>
      <g transform="translate(431.474757 221.520177)scale(0.1 -0.1)">
       <use xlink:href="#DejaVuSans-50"/>
      </g>
     </g>
    </g>
    <g id="xtick_3">
     <g id="line2d_3">
      <g>
       <use style="stroke:#000000;stroke-width:0.8;" x="638.584742" xlink:href="#m6960f2ebb2" y="206.921739"/>
      </g>
     </g>
     <g id="text_3">
      <!-- 4 -->
      <defs>
       <path d="M 37.796875 64.3125 
L 12.890625 25.390625 
L 37.796875 25.390625 
z
M 35.203125 72.90625 
L 47.609375 72.90625 
L 47.609375 25.390625 
L 58.015625 25.390625 
L 58.015625 17.1875 
L 47.609375 17.1875 
L 47.609375 0 
L 37.796875 0 
L 37.796875 17.1875 
L 4.890625 17.1875 
L 4.890625 26.703125 
z
" id="DejaVuSans-52"/>
      </defs>
      <g transform="translate(635.403492 221.520177)scale(0.1 -0.1)">
       <use xlink:href="#DejaVuSans-52"/>
      </g>
     </g>
    </g>
    <g id="xtick_4">
     <g id="line2d_4">
      <g>
       <use style="stroke:#000000;stroke-width:0.8;" x="842.513476" xlink:href="#m6960f2ebb2" y="206.921739"/>
      </g>
     </g>
     <g id="text_4">
      <!-- 6 -->
      <defs>
       <path d="M 33.015625 40.375 
Q 26.375 40.375 22.484375 35.828125 
Q 18.609375 31.296875 18.609375 23.390625 
Q 18.609375 15.53125 22.484375 10.953125 
Q 26.375 6.390625 33.015625 6.390625 
Q 39.65625 6.390625 43.53125 10.953125 
Q 47.40625 15.53125 47.40625 23.390625 
Q 47.40625 31.296875 43.53125 35.828125 
Q 39.65625 40.375 33.015625 40.375 
z
M 52.59375 71.296875 
L 52.59375 62.3125 
Q 48.875 64.0625 45.09375 64.984375 
Q 41.3125 65.921875 37.59375 65.921875 
Q 27.828125 65.921875 22.671875 59.328125 
Q 17.53125 52.734375 16.796875 39.40625 
Q 19.671875 43.65625 24.015625 45.921875 
Q 28.375 48.1875 33.59375 48.1875 
Q 44.578125 48.1875 50.953125 41.515625 
Q 57.328125 34.859375 57.328125 23.390625 
Q 57.328125 12.15625 50.6875 5.359375 
Q 44.046875 -1.421875 33.015625 -1.421875 
Q 20.359375 -1.421875 13.671875 8.265625 
Q 6.984375 17.96875 6.984375 36.375 
Q 6.984375 53.65625 15.1875 63.9375 
Q 23.390625 74.21875 37.203125 74.21875 
Q 40.921875 74.21875 44.703125 73.484375 
Q 48.484375 72.75 52.59375 71.296875 
z
" id="DejaVuSans-54"/>
      </defs>
      <g transform="translate(839.332226 221.520177)scale(0.1 -0.1)">
       <use xlink:href="#DejaVuSans-54"/>
      </g>
     </g>
    </g>
    <g id="xtick_5">
     <g id="line2d_5">
      <g>
       <use style="stroke:#000000;stroke-width:0.8;" x="1046.442211" xlink:href="#m6960f2ebb2" y="206.921739"/>
      </g>
     </g>
     <g id="text_5">
      <!-- 8 -->
      <defs>
       <path d="M 31.78125 34.625 
Q 24.75 34.625 20.71875 30.859375 
Q 16.703125 27.09375 16.703125 20.515625 
Q 16.703125 13.921875 20.71875 10.15625 
Q 24.75 6.390625 31.78125 6.390625 
Q 38.8125 6.390625 42.859375 10.171875 
Q 46.921875 13.96875 46.921875 20.515625 
Q 46.921875 27.09375 42.890625 30.859375 
Q 38.875 34.625 31.78125 34.625 
z
M 21.921875 38.8125 
Q 15.578125 40.375 12.03125 44.71875 
Q 8.5 49.078125 8.5 55.328125 
Q 8.5 64.0625 14.71875 69.140625 
Q 20.953125 74.21875 31.78125 74.21875 
Q 42.671875 74.21875 48.875 69.140625 
Q 55.078125 64.0625 55.078125 55.328125 
Q 55.078125 49.078125 51.53125 44.71875 
Q 48 40.375 41.703125 38.8125 
Q 48.828125 37.15625 52.796875 32.3125 
Q 56.78125 27.484375 56.78125 20.515625 
Q 56.78125 9.90625 50.3125 4.234375 
Q 43.84375 -1.421875 31.78125 -1.421875 
Q 19.734375 -1.421875 13.25 4.234375 
Q 6.78125 9.90625 6.78125 20.515625 
Q 6.78125 27.484375 10.78125 32.3125 
Q 14.796875 37.15625 21.921875 38.8125 
z
M 18.3125 54.390625 
Q 18.3125 48.734375 21.84375 45.5625 
Q 25.390625 42.390625 31.78125 42.390625 
Q 38.140625 42.390625 41.71875 45.5625 
Q 45.3125 48.734375 45.3125 54.390625 
Q 45.3125 60.0625 41.71875 63.234375 
Q 38.140625 66.40625 31.78125 66.40625 
Q 25.390625 66.40625 21.84375 63.234375 
Q 18.3125 60.0625 18.3125 54.390625 
z
" id="DejaVuSans-56"/>
      </defs>
      <g transform="translate(1043.260961 221.520177)scale(0.1 -0.1)">
       <use xlink:href="#DejaVuSans-56"/>
      </g>
     </g>
    </g>
    <g id="xtick_6">
     <g id="line2d_6">
      <g>
       <use style="stroke:#000000;stroke-width:0.8;" x="1250.370946" xlink:href="#m6960f2ebb2" y="206.921739"/>
      </g>
     </g>
     <g id="text_6">
      <!-- 10 -->
      <defs>
       <path d="M 12.40625 8.296875 
L 28.515625 8.296875 
L 28.515625 63.921875 
L 10.984375 60.40625 
L 10.984375 69.390625 
L 28.421875 72.90625 
L 38.28125 72.90625 
L 38.28125 8.296875 
L 54.390625 8.296875 
L 54.390625 0 
L 12.40625 0 
z
" id="DejaVuSans-49"/>
      </defs>
      <g transform="translate(1244.008446 221.520177)scale(0.1 -0.1)">
       <use xlink:href="#DejaVuSans-49"/>
       <use x="63.623047" xlink:href="#DejaVuSans-48"/>
      </g>
     </g>
    </g>
   </g>
   <g id="matplotlib.axis_2">
    <g id="ytick_1">
     <g id="line2d_7">
      <defs>
       <path d="M 0 0 
L -3.5 0 
" id="m83c9ed04ef" style="stroke:#000000;stroke-width:0.8;"/>
      </defs>
      <g>
       <use style="stroke:#000000;stroke-width:0.8;" x="180" xlink:href="#m83c9ed04ef" y="201.190258"/>
      </g>
     </g>
     <g id="text_7">
      <!-- −1.0 -->
      <defs>
       <path d="M 10.59375 35.5 
L 73.1875 35.5 
L 73.1875 27.203125 
L 10.59375 27.203125 
z
" id="DejaVuSans-8722"/>
       <path d="M 10.6875 12.40625 
L 21 12.40625 
L 21 0 
L 10.6875 0 
z
" id="DejaVuSans-46"/>
      </defs>
      <g transform="translate(148.717187 204.989477)scale(0.1 -0.1)">
       <use xlink:href="#DejaVuSans-8722"/>
       <use x="83.789062" xlink:href="#DejaVuSans-49"/>
       <use x="147.412109" xlink:href="#DejaVuSans-46"/>
       <use x="179.199219" xlink:href="#DejaVuSans-48"/>
      </g>
     </g>
    </g>
    <g id="ytick_2">
     <g id="line2d_8">
      <g>
       <use style="stroke:#000000;stroke-width:0.8;" x="180" xlink:href="#m83c9ed04ef" y="170.019282"/>
      </g>
     </g>
     <g id="text_8">
      <!-- −0.8 -->
      <g transform="translate(148.717187 173.818501)scale(0.1 -0.1)">
       <use xlink:href="#DejaVuSans-8722"/>
       <use x="83.789062" xlink:href="#DejaVuSans-48"/>
       <use x="147.412109" xlink:href="#DejaVuSans-46"/>
       <use x="179.199219" xlink:href="#DejaVuSans-56"/>
      </g>
     </g>
    </g>
    <g id="ytick_3">
     <g id="line2d_9">
      <g>
       <use style="stroke:#000000;stroke-width:0.8;" x="180" xlink:href="#m83c9ed04ef" y="138.848306"/>
      </g>
     </g>
     <g id="text_9">
      <!-- −0.6 -->
      <g transform="translate(148.717187 142.647525)scale(0.1 -0.1)">
       <use xlink:href="#DejaVuSans-8722"/>
       <use x="83.789062" xlink:href="#DejaVuSans-48"/>
       <use x="147.412109" xlink:href="#DejaVuSans-46"/>
       <use x="179.199219" xlink:href="#DejaVuSans-54"/>
      </g>
     </g>
    </g>
    <g id="ytick_4">
     <g id="line2d_10">
      <g>
       <use style="stroke:#000000;stroke-width:0.8;" x="180" xlink:href="#m83c9ed04ef" y="107.67733"/>
      </g>
     </g>
     <g id="text_10">
      <!-- −0.4 -->
      <g transform="translate(148.717187 111.476549)scale(0.1 -0.1)">
       <use xlink:href="#DejaVuSans-8722"/>
       <use x="83.789062" xlink:href="#DejaVuSans-48"/>
       <use x="147.412109" xlink:href="#DejaVuSans-46"/>
       <use x="179.199219" xlink:href="#DejaVuSans-52"/>
      </g>
     </g>
    </g>
    <g id="text_11">
     <!-- TD State:0 -->
     <defs>
      <path d="M -0.296875 72.90625 
L 61.375 72.90625 
L 61.375 64.59375 
L 35.5 64.59375 
L 35.5 0 
L 25.59375 0 
L 25.59375 64.59375 
L -0.296875 64.59375 
z
" id="DejaVuSans-84"/>
      <path d="M 19.671875 64.796875 
L 19.671875 8.109375 
L 31.59375 8.109375 
Q 46.6875 8.109375 53.6875 14.9375 
Q 60.6875 21.78125 60.6875 36.53125 
Q 60.6875 51.171875 53.6875 57.984375 
Q 46.6875 64.796875 31.59375 64.796875 
z
M 9.8125 72.90625 
L 30.078125 72.90625 
Q 51.265625 72.90625 61.171875 64.09375 
Q 71.09375 55.28125 71.09375 36.53125 
Q 71.09375 17.671875 61.125 8.828125 
Q 51.171875 0 30.078125 0 
L 9.8125 0 
z
" id="DejaVuSans-68"/>
      <path id="DejaVuSans-32"/>
      <path d="M 53.515625 70.515625 
L 53.515625 60.890625 
Q 47.90625 63.578125 42.921875 64.890625 
Q 37.9375 66.21875 33.296875 66.21875 
Q 25.25 66.21875 20.875 63.09375 
Q 16.5 59.96875 16.5 54.203125 
Q 16.5 49.359375 19.40625 46.890625 
Q 22.3125 44.4375 30.421875 42.921875 
L 36.375 41.703125 
Q 47.40625 39.59375 52.65625 34.296875 
Q 57.90625 29 57.90625 20.125 
Q 57.90625 9.515625 50.796875 4.046875 
Q 43.703125 -1.421875 29.984375 -1.421875 
Q 24.8125 -1.421875 18.96875 -0.25 
Q 13.140625 0.921875 6.890625 3.21875 
L 6.890625 13.375 
Q 12.890625 10.015625 18.65625 8.296875 
Q 24.421875 6.59375 29.984375 6.59375 
Q 38.421875 6.59375 43.015625 9.90625 
Q 47.609375 13.234375 47.609375 19.390625 
Q 47.609375 24.75 44.3125 27.78125 
Q 41.015625 30.8125 33.5 32.328125 
L 27.484375 33.5 
Q 16.453125 35.6875 11.515625 40.375 
Q 6.59375 45.0625 6.59375 53.421875 
Q 6.59375 63.09375 13.40625 68.65625 
Q 20.21875 74.21875 32.171875 74.21875 
Q 37.3125 74.21875 42.625 73.28125 
Q 47.953125 72.359375 53.515625 70.515625 
z
" id="DejaVuSans-83"/>
      <path d="M 18.3125 70.21875 
L 18.3125 54.6875 
L 36.8125 54.6875 
L 36.8125 47.703125 
L 18.3125 47.703125 
L 18.3125 18.015625 
Q 18.3125 11.328125 20.140625 9.421875 
Q 21.96875 7.515625 27.59375 7.515625 
L 36.8125 7.515625 
L 36.8125 0 
L 27.59375 0 
Q 17.1875 0 13.234375 3.875 
Q 9.28125 7.765625 9.28125 18.015625 
L 9.28125 47.703125 
L 2.6875 47.703125 
L 2.6875 54.6875 
L 9.28125 54.6875 
L 9.28125 70.21875 
z
" id="DejaVuSans-116"/>
      <path d="M 34.28125 27.484375 
Q 23.390625 27.484375 19.1875 25 
Q 14.984375 22.515625 14.984375 16.5 
Q 14.984375 11.71875 18.140625 8.90625 
Q 21.296875 6.109375 26.703125 6.109375 
Q 34.1875 6.109375 38.703125 11.40625 
Q 43.21875 16.703125 43.21875 25.484375 
L 43.21875 27.484375 
z
M 52.203125 31.203125 
L 52.203125 0 
L 43.21875 0 
L 43.21875 8.296875 
Q 40.140625 3.328125 35.546875 0.953125 
Q 30.953125 -1.421875 24.3125 -1.421875 
Q 15.921875 -1.421875 10.953125 3.296875 
Q 6 8.015625 6 15.921875 
Q 6 25.140625 12.171875 29.828125 
Q 18.359375 34.515625 30.609375 34.515625 
L 43.21875 34.515625 
L 43.21875 35.40625 
Q 43.21875 41.609375 39.140625 45 
Q 35.0625 48.390625 27.6875 48.390625 
Q 23 48.390625 18.546875 47.265625 
Q 14.109375 46.140625 10.015625 43.890625 
L 10.015625 52.203125 
Q 14.9375 54.109375 19.578125 55.046875 
Q 24.21875 56 28.609375 56 
Q 40.484375 56 46.34375 49.84375 
Q 52.203125 43.703125 52.203125 31.203125 
z
" id="DejaVuSans-97"/>
      <path d="M 56.203125 29.59375 
L 56.203125 25.203125 
L 14.890625 25.203125 
Q 15.484375 15.921875 20.484375 11.0625 
Q 25.484375 6.203125 34.421875 6.203125 
Q 39.59375 6.203125 44.453125 7.46875 
Q 49.3125 8.734375 54.109375 11.28125 
L 54.109375 2.78125 
Q 49.265625 0.734375 44.1875 -0.34375 
Q 39.109375 -1.421875 33.890625 -1.421875 
Q 20.796875 -1.421875 13.15625 6.1875 
Q 5.515625 13.8125 5.515625 26.8125 
Q 5.515625 40.234375 12.765625 48.109375 
Q 20.015625 56 32.328125 56 
Q 43.359375 56 49.78125 48.890625 
Q 56.203125 41.796875 56.203125 29.59375 
z
M 47.21875 32.234375 
Q 47.125 39.59375 43.09375 43.984375 
Q 39.0625 48.390625 32.421875 48.390625 
Q 24.90625 48.390625 20.390625 44.140625 
Q 15.875 39.890625 15.1875 32.171875 
z
" id="DejaVuSans-101"/>
      <path d="M 11.71875 12.40625 
L 22.015625 12.40625 
L 22.015625 0 
L 11.71875 0 
z
M 11.71875 51.703125 
L 22.015625 51.703125 
L 22.015625 39.3125 
L 11.71875 39.3125 
z
" id="DejaVuSans-58"/>
     </defs>
     <g transform="translate(142.6375 173.25462)rotate(-90)scale(0.1 -0.1)">
      <use xlink:href="#DejaVuSans-84"/>
      <use x="61.083984" xlink:href="#DejaVuSans-68"/>
      <use x="138.085938" xlink:href="#DejaVuSans-32"/>
      <use x="169.873047" xlink:href="#DejaVuSans-83"/>
      <use x="233.349609" xlink:href="#DejaVuSans-116"/>
      <use x="272.558594" xlink:href="#DejaVuSans-97"/>
      <use x="333.837891" xlink:href="#DejaVuSans-116"/>
      <use x="373.046875" xlink:href="#DejaVuSans-101"/>
      <use x="434.570312" xlink:href="#DejaVuSans-58"/>
      <use x="468.261719" xlink:href="#DejaVuSans-48"/>
     </g>
    </g>
   </g>
   <g id="line2d_11">
    <path clip-path="url(#pd92a235ce1)" d="M 230.727273 103.097322 
L 235.825491 112.830863 
L 240.923709 127.463721 
L 246.021928 143.029113 
L 251.120146 160.292274 
L 256.218365 176.439509 
L 261.316583 189.664914 
L 266.414801 198.424048 
L 271.51302 201.428444 
L 276.611238 198.146245 
L 281.709456 189.041727 
L 286.807675 175.929123 
L 291.905893 160.235425 
L 302.10233 131.499046 
L 307.200548 122.806076 
L 312.298767 116.758415 
L 317.396985 115.792426 
L 322.495203 119.085074 
L 327.593422 128.131883 
L 332.69164 141.043935 
L 342.888077 168.825244 
L 347.986295 183.124078 
L 353.084513 193.948808 
L 358.182732 200.132016 
L 363.28095 201.190983 
L 368.379169 196.566724 
L 373.477387 186.230501 
L 383.673824 157.244337 
L 388.772042 141.554026 
L 393.87026 128.553963 
L 398.968479 120.792638 
L 404.066697 116.648775 
L 409.164915 117.587246 
L 414.263134 122.052212 
L 419.361352 131.68748 
L 429.557789 158.91226 
L 434.656007 174.472385 
L 439.754226 188.713362 
L 444.852444 198.249235 
L 449.950662 201.443478 
L 455.048881 197.823082 
L 460.147099 188.711965 
L 465.245317 175.246954 
L 470.343536 158.533517 
L 475.441754 143.056012 
L 480.539973 130.10247 
L 485.638191 121.614245 
L 490.736409 118.36121 
L 495.834628 118.097932 
L 500.932846 123.705418 
L 506.031064 133.631633 
L 511.129283 146.442476 
L 516.227501 162.37055 
L 521.32572 177.34252 
L 526.423938 190.716647 
L 531.522156 199.013867 
L 536.620375 201.362964 
L 541.718593 197.092469 
L 546.816811 186.81161 
L 551.91503 172.844404 
L 557.013248 156.570495 
L 562.111466 139.338668 
L 567.209685 125.05887 
L 572.307903 114.834656 
L 577.406122 108.860748 
L 582.50434 109.252849 
L 587.602558 114.007897 
L 592.700777 124.333618 
L 597.798995 136.314424 
L 602.897213 150.568564 
L 607.995432 167.31135 
L 613.09365 182.253164 
L 618.191868 193.698278 
L 623.290087 200.566259 
L 628.388305 200.645613 
L 633.486524 193.875109 
L 638.584742 181.114475 
L 643.68296 163.874619 
L 653.879397 127.292241 
L 658.977615 113.130403 
L 664.075834 103.615979 
L 669.174052 96.912604 
L 674.27227 96.222746 
L 679.370489 98.648156 
L 684.468707 106.297617 
L 689.566926 118.424361 
L 699.763362 152.852948 
L 704.861581 171.085278 
L 709.959799 186.703804 
L 715.058017 197.596976 
L 720.156236 201.427541 
L 725.254454 197.550979 
L 730.352672 186.895287 
L 735.450891 170.161111 
L 740.549109 151.614111 
L 745.647328 132.514772 
L 750.745546 116.147005 
L 755.843764 104.891599 
L 760.941983 97.166894 
L 766.040201 96.340685 
L 771.138419 100.16557 
L 776.236638 107.018672 
L 781.334856 120.855438 
L 786.433074 138.103877 
L 791.531293 158.07499 
L 796.629511 175.64844 
L 801.72773 189.971292 
L 806.825948 199.487753 
L 811.924166 200.992404 
L 817.022385 194.916338 
L 822.120603 181.678534 
L 827.218821 163.4146 
L 832.31704 142.235334 
L 837.415258 121.747141 
L 842.513476 106.047092 
L 847.611695 95.940289 
L 852.709913 91.878261 
L 857.808132 94.02263 
L 862.90635 101.261361 
L 868.004568 111.38842 
L 873.102787 126.182179 
L 883.299223 161.6203 
L 888.397442 179.842206 
L 893.49566 193.781053 
L 898.593878 200.792957 
L 903.692097 200.200885 
L 908.790315 192.367527 
L 913.888534 177.666903 
L 918.986752 160.299684 
L 924.08497 140.95303 
L 929.183189 124.408389 
L 934.281407 110.278617 
L 939.379625 102.067857 
L 944.477844 99.007189 
L 949.576062 100.630208 
L 954.67428 105.628539 
L 959.772499 114.285972 
L 964.870717 126.448116 
L 969.968936 140.935254 
L 980.165372 173.009777 
L 985.263591 187.798174 
L 990.361809 197.791006 
L 995.460027 201.396736 
L 1000.558246 198.957109 
L 1005.656464 189.937521 
L 1010.754683 176.354761 
L 1020.951119 146.513034 
L 1026.049338 132.472841 
L 1031.147556 123.073021 
L 1036.245774 116.777154 
L 1041.343993 113.263818 
L 1046.442211 114.026597 
L 1051.540429 120.946522 
L 1056.638648 131.442255 
L 1061.736866 144.677535 
L 1066.835085 159.162138 
L 1071.933303 175.323214 
L 1077.031521 189.681548 
L 1082.12974 199.048957 
L 1087.227958 201.283989 
L 1092.326176 196.396625 
L 1097.424395 185.374294 
L 1112.71905 138.258711 
L 1117.817268 124.552935 
L 1122.915487 114.939362 
L 1128.013705 110.569464 
L 1133.111923 111.009125 
L 1138.210142 114.853422 
L 1143.30836 122.002958 
L 1148.406578 133.448993 
L 1153.504797 148.373016 
L 1158.603015 163.763141 
L 1163.701233 179.548939 
L 1168.799452 191.534197 
L 1173.89767 199.273972 
L 1178.995889 201.293373 
L 1184.094107 197.131108 
L 1189.192325 187.275117 
L 1194.290544 173.55254 
L 1199.388762 156.945916 
L 1204.48698 142.047524 
L 1209.585199 130.475273 
L 1214.683417 120.735841 
L 1219.781635 114.47894 
L 1224.879854 111.64804 
L 1229.978072 112.763013 
L 1235.076291 121.10844 
L 1240.174509 133.417199 
L 1245.272727 147.708537 
L 1245.272727 147.708537 
" style="fill:none;stroke:#000000;stroke-linecap:square;stroke-width:4;"/>
   </g>
   <g id="line2d_12">
    <path clip-path="url(#pd92a235ce1)" d="M 230.727273 105.336452 
L 235.825491 115.502841 
L 240.923709 128.668202 
L 246.021928 144.465024 
L 251.120146 161.145226 
L 256.218365 176.851536 
L 261.316583 189.803229 
L 266.414801 198.344741 
L 271.51302 201.186096 
L 276.611238 197.885113 
L 281.709456 189.094432 
L 286.807675 176.092203 
L 291.905893 161.492043 
L 297.004111 146.380122 
L 302.10233 133.963126 
L 307.200548 124.398067 
L 312.298767 118.973447 
L 317.396985 117.814198 
L 322.495203 121.853482 
L 327.593422 130.648599 
L 332.69164 142.306796 
L 337.789858 155.561531 
L 342.888077 170.122872 
L 347.986295 183.546413 
L 353.084513 193.896472 
L 358.182732 199.90215 
L 363.28095 200.902565 
L 368.379169 196.155242 
L 373.477387 186.033637 
L 378.575605 172.81431 
L 383.673824 157.638605 
L 388.772042 142.815776 
L 393.87026 131.055185 
L 398.968479 122.803145 
L 404.066697 119.069274 
L 409.164915 119.372823 
L 414.263134 124.442178 
L 419.361352 134.157889 
L 424.459571 146.143909 
L 429.557789 160.574408 
L 434.656007 175.89323 
L 439.754226 189.302188 
L 444.852444 198.155264 
L 449.950662 201.183485 
L 455.048881 197.765567 
L 460.147099 188.748656 
L 465.245317 175.163787 
L 470.343536 159.707649 
L 475.441754 144.72724 
L 480.539973 132.431555 
L 485.638191 124.406853 
L 490.736409 120.084262 
L 495.834628 120.723851 
L 500.932846 126.166973 
L 506.031064 135.532426 
L 511.129283 148.775226 
L 521.32572 178.540317 
L 526.423938 190.983099 
L 531.522156 198.893716 
L 536.620375 201.10841 
L 541.718593 196.840965 
L 546.816811 187.024846 
L 551.91503 173.217027 
L 562.111466 140.814965 
L 567.209685 127.130718 
L 572.307903 116.909847 
L 577.406122 111.873523 
L 582.50434 111.659495 
L 587.602558 116.940624 
L 592.700777 125.780253 
L 597.798995 137.585521 
L 602.897213 152.560386 
L 607.995432 168.299917 
L 613.09365 182.580291 
L 618.191868 194.142973 
L 623.290087 200.389532 
L 628.388305 200.306742 
L 633.486524 193.57222 
L 638.584742 180.915368 
L 643.68296 164.406626 
L 648.781179 146.200109 
L 653.879397 129.248818 
L 658.977615 115.592442 
L 664.075834 105.109482 
L 669.174052 99.449413 
L 674.27227 97.761226 
L 679.370489 100.777904 
L 684.468707 108.438021 
L 689.566926 121.336087 
L 694.665144 136.810725 
L 704.861581 172.026905 
L 709.959799 187.293836 
L 715.058017 197.761453 
L 720.156236 201.186647 
L 725.254454 197.351447 
L 730.352672 186.520253 
L 735.450891 170.811039 
L 745.647328 134.115699 
L 750.745546 118.785805 
L 755.843764 106.842718 
L 760.941983 100.315276 
L 766.040201 99.012134 
L 771.138419 101.683298 
L 776.236638 110.157085 
L 781.334856 123.35096 
L 786.433074 140.749022 
L 791.531293 159.02824 
L 796.629511 176.143151 
L 801.72773 190.647243 
L 806.825948 199.468037 
L 811.924166 200.794627 
L 817.022385 194.56827 
L 822.120603 181.581454 
L 827.218821 163.526578 
L 832.31704 143.160817 
L 837.415258 124.205008 
L 842.513476 109.104385 
L 847.611695 99.231993 
L 852.709913 95.284114 
L 857.808132 97.015646 
L 862.90635 103.002308 
L 868.004568 113.630995 
L 873.102787 128.178607 
L 878.201005 144.93173 
L 883.299223 163.445383 
L 888.397442 180.835275 
L 893.49566 193.953707 
L 898.593878 200.545209 
L 903.692097 199.948344 
L 908.790315 191.940434 
L 913.888534 178.270704 
L 918.986752 160.74754 
L 924.08497 142.773185 
L 929.183189 125.987072 
L 934.281407 113.034161 
L 939.379625 104.818003 
L 944.477844 101.497584 
L 949.576062 102.352229 
L 954.67428 107.176615 
L 959.772499 115.857944 
L 964.870717 127.731424 
L 969.968936 142.097365 
L 975.067154 157.929045 
L 980.165372 174.196054 
L 985.263591 188.288819 
L 990.361809 197.609793 
L 995.460027 201.16397 
L 1000.558246 198.510302 
L 1005.656464 189.838197 
L 1010.754683 177.041544 
L 1015.852901 162.419781 
L 1020.951119 147.375876 
L 1026.049338 134.621981 
L 1031.147556 124.814534 
L 1036.245774 117.970139 
L 1041.343993 114.778179 
L 1046.442211 116.695956 
L 1051.540429 123.067213 
L 1056.638648 133.17825 
L 1061.736866 145.834507 
L 1066.835085 160.981369 
L 1071.933303 176.750966 
L 1077.031521 190.401297 
L 1082.12974 199.014415 
L 1087.227958 201.037984 
L 1092.326176 196.226746 
L 1097.424395 185.30404 
L 1102.522613 170.872405 
L 1107.620831 155.007121 
L 1112.71905 139.527844 
L 1117.817268 126.453865 
L 1122.915487 117.431777 
L 1128.013705 113.061595 
L 1133.111923 112.808379 
L 1138.210142 116.274193 
L 1143.30836 123.875574 
L 1148.406578 135.565768 
L 1153.504797 149.540052 
L 1158.603015 165.294181 
L 1163.701233 179.849533 
L 1168.799452 191.659351 
L 1173.89767 199.28899 
L 1178.995889 201.06598 
L 1184.094107 196.838829 
L 1189.192325 187.291553 
L 1194.290544 173.49162 
L 1199.388762 158.219171 
L 1204.48698 144.115077 
L 1209.585199 131.760916 
L 1214.683417 122.185923 
L 1219.781635 115.827978 
L 1224.879854 113.033545 
L 1229.978072 115.881615 
L 1235.076291 123.703665 
L 1240.174509 135.13317 
L 1245.272727 148.628313 
L 1245.272727 148.628313 
" style="fill:none;stroke:#ff0000;stroke-linecap:square;stroke-width:1.5;"/>
   </g>
   <g id="patch_3">
    <path d="M 180 206.921739 
L 180 86.4 
" style="fill:none;stroke:#000000;stroke-linecap:square;stroke-linejoin:miter;stroke-width:0.8;"/>
   </g>
   <g id="patch_4">
    <path d="M 1296 206.921739 
L 1296 86.4 
" style="fill:none;stroke:#000000;stroke-linecap:square;stroke-linejoin:miter;stroke-width:0.8;"/>
   </g>
   <g id="patch_5">
    <path d="M 180 206.921739 
L 1296 206.921739 
" style="fill:none;stroke:#000000;stroke-linecap:square;stroke-linejoin:miter;stroke-width:0.8;"/>
   </g>
   <g id="patch_6">
    <path d="M 180 86.4 
L 1296 86.4 
" style="fill:none;stroke:#000000;stroke-linecap:square;stroke-linejoin:miter;stroke-width:0.8;"/>
   </g>
   <g id="legend_1">
    <g id="patch_7">
     <path d="M 1234.3125 123.75625 
L 1289 123.75625 
Q 1291 123.75625 1291 121.75625 
L 1291 93.4 
Q 1291 91.4 1289 91.4 
L 1234.3125 91.4 
Q 1232.3125 91.4 1232.3125 93.4 
L 1232.3125 121.75625 
Q 1232.3125 123.75625 1234.3125 123.75625 
z
" style="fill:#ffffff;opacity:0.8;stroke:#cccccc;stroke-linejoin:miter;"/>
    </g>
    <g id="line2d_13">
     <path d="M 1236.3125 99.498438 
L 1256.3125 99.498438 
" style="fill:none;stroke:#000000;stroke-linecap:square;stroke-width:4;"/>
    </g>
    <g id="line2d_14"/>
    <g id="text_12">
     <!-- Pred -->
     <defs>
      <path d="M 19.671875 64.796875 
L 19.671875 37.40625 
L 32.078125 37.40625 
Q 38.96875 37.40625 42.71875 40.96875 
Q 46.484375 44.53125 46.484375 51.125 
Q 46.484375 57.671875 42.71875 61.234375 
Q 38.96875 64.796875 32.078125 64.796875 
z
M 9.8125 72.90625 
L 32.078125 72.90625 
Q 44.34375 72.90625 50.609375 67.359375 
Q 56.890625 61.8125 56.890625 51.125 
Q 56.890625 40.328125 50.609375 34.8125 
Q 44.34375 29.296875 32.078125 29.296875 
L 19.671875 29.296875 
L 19.671875 0 
L 9.8125 0 
z
" id="DejaVuSans-80"/>
      <path d="M 41.109375 46.296875 
Q 39.59375 47.171875 37.8125 47.578125 
Q 36.03125 48 33.890625 48 
Q 26.265625 48 22.1875 43.046875 
Q 18.109375 38.09375 18.109375 28.8125 
L 18.109375 0 
L 9.078125 0 
L 9.078125 54.6875 
L 18.109375 54.6875 
L 18.109375 46.1875 
Q 20.953125 51.171875 25.484375 53.578125 
Q 30.03125 56 36.53125 56 
Q 37.453125 56 38.578125 55.875 
Q 39.703125 55.765625 41.0625 55.515625 
z
" id="DejaVuSans-114"/>
      <path d="M 45.40625 46.390625 
L 45.40625 75.984375 
L 54.390625 75.984375 
L 54.390625 0 
L 45.40625 0 
L 45.40625 8.203125 
Q 42.578125 3.328125 38.25 0.953125 
Q 33.9375 -1.421875 27.875 -1.421875 
Q 17.96875 -1.421875 11.734375 6.484375 
Q 5.515625 14.40625 5.515625 27.296875 
Q 5.515625 40.1875 11.734375 48.09375 
Q 17.96875 56 27.875 56 
Q 33.9375 56 38.25 53.625 
Q 42.578125 51.265625 45.40625 46.390625 
z
M 14.796875 27.296875 
Q 14.796875 17.390625 18.875 11.75 
Q 22.953125 6.109375 30.078125 6.109375 
Q 37.203125 6.109375 41.296875 11.75 
Q 45.40625 17.390625 45.40625 27.296875 
Q 45.40625 37.203125 41.296875 42.84375 
Q 37.203125 48.484375 30.078125 48.484375 
Q 22.953125 48.484375 18.875 42.84375 
Q 14.796875 37.203125 14.796875 27.296875 
z
" id="DejaVuSans-100"/>
     </defs>
     <g transform="translate(1264.3125 102.998438)scale(0.1 -0.1)">
      <use xlink:href="#DejaVuSans-80"/>
      <use x="60.287109" xlink:href="#DejaVuSans-114"/>
      <use x="101.369141" xlink:href="#DejaVuSans-101"/>
      <use x="162.892578" xlink:href="#DejaVuSans-100"/>
     </g>
    </g>
    <g id="line2d_15">
     <path d="M 1236.3125 114.176563 
L 1256.3125 114.176563 
" style="fill:none;stroke:#ff0000;stroke-linecap:square;stroke-width:1.5;"/>
    </g>
    <g id="line2d_16"/>
    <g id="text_13">
     <!-- True -->
     <defs>
      <path d="M 8.5 21.578125 
L 8.5 54.6875 
L 17.484375 54.6875 
L 17.484375 21.921875 
Q 17.484375 14.15625 20.5 10.265625 
Q 23.53125 6.390625 29.59375 6.390625 
Q 36.859375 6.390625 41.078125 11.03125 
Q 45.3125 15.671875 45.3125 23.6875 
L 45.3125 54.6875 
L 54.296875 54.6875 
L 54.296875 0 
L 45.3125 0 
L 45.3125 8.40625 
Q 42.046875 3.421875 37.71875 1 
Q 33.40625 -1.421875 27.6875 -1.421875 
Q 18.265625 -1.421875 13.375 4.4375 
Q 8.5 10.296875 8.5 21.578125 
z
M 31.109375 56 
z
" id="DejaVuSans-117"/>
     </defs>
     <g transform="translate(1264.3125 117.676563)scale(0.1 -0.1)">
      <use xlink:href="#DejaVuSans-84"/>
      <use x="60.865234" xlink:href="#DejaVuSans-114"/>
      <use x="101.978516" xlink:href="#DejaVuSans-117"/>
      <use x="165.357422" xlink:href="#DejaVuSans-101"/>
     </g>
    </g>
   </g>
  </g>
  <g id="axes_2">
   <g id="patch_8">
    <path d="M 180 351.547826 
L 1296 351.547826 
L 1296 231.026087 
L 180 231.026087 
z
" style="fill:#ffffff;"/>
   </g>
   <g id="matplotlib.axis_3">
    <g id="xtick_7">
     <g id="line2d_17">
      <g>
       <use style="stroke:#000000;stroke-width:0.8;" x="230.727273" xlink:href="#m6960f2ebb2" y="351.547826"/>
      </g>
     </g>
     <g id="text_14">
      <!-- 0 -->
      <g transform="translate(227.546023 366.146264)scale(0.1 -0.1)">
       <use xlink:href="#DejaVuSans-48"/>
      </g>
     </g>
    </g>
    <g id="xtick_8">
     <g id="line2d_18">
      <g>
       <use style="stroke:#000000;stroke-width:0.8;" x="434.656007" xlink:href="#m6960f2ebb2" y="351.547826"/>
      </g>
     </g>
     <g id="text_15">
      <!-- 2 -->
      <g transform="translate(431.474757 366.146264)scale(0.1 -0.1)">
       <use xlink:href="#DejaVuSans-50"/>
      </g>
     </g>
    </g>
    <g id="xtick_9">
     <g id="line2d_19">
      <g>
       <use style="stroke:#000000;stroke-width:0.8;" x="638.584742" xlink:href="#m6960f2ebb2" y="351.547826"/>
      </g>
     </g>
     <g id="text_16">
      <!-- 4 -->
      <g transform="translate(635.403492 366.146264)scale(0.1 -0.1)">
       <use xlink:href="#DejaVuSans-52"/>
      </g>
     </g>
    </g>
    <g id="xtick_10">
     <g id="line2d_20">
      <g>
       <use style="stroke:#000000;stroke-width:0.8;" x="842.513476" xlink:href="#m6960f2ebb2" y="351.547826"/>
      </g>
     </g>
     <g id="text_17">
      <!-- 6 -->
      <g transform="translate(839.332226 366.146264)scale(0.1 -0.1)">
       <use xlink:href="#DejaVuSans-54"/>
      </g>
     </g>
    </g>
    <g id="xtick_11">
     <g id="line2d_21">
      <g>
       <use style="stroke:#000000;stroke-width:0.8;" x="1046.442211" xlink:href="#m6960f2ebb2" y="351.547826"/>
      </g>
     </g>
     <g id="text_18">
      <!-- 8 -->
      <g transform="translate(1043.260961 366.146264)scale(0.1 -0.1)">
       <use xlink:href="#DejaVuSans-56"/>
      </g>
     </g>
    </g>
    <g id="xtick_12">
     <g id="line2d_22">
      <g>
       <use style="stroke:#000000;stroke-width:0.8;" x="1250.370946" xlink:href="#m6960f2ebb2" y="351.547826"/>
      </g>
     </g>
     <g id="text_19">
      <!-- 10 -->
      <g transform="translate(1244.008446 366.146264)scale(0.1 -0.1)">
       <use xlink:href="#DejaVuSans-49"/>
       <use x="63.623047" xlink:href="#DejaVuSans-48"/>
      </g>
     </g>
    </g>
   </g>
   <g id="matplotlib.axis_4">
    <g id="ytick_5">
     <g id="line2d_23">
      <g>
       <use style="stroke:#000000;stroke-width:0.8;" x="180" xlink:href="#m83c9ed04ef" y="348.793382"/>
      </g>
     </g>
     <g id="text_20">
      <!-- −1.0 -->
      <g transform="translate(148.717187 352.5926)scale(0.1 -0.1)">
       <use xlink:href="#DejaVuSans-8722"/>
       <use x="83.789062" xlink:href="#DejaVuSans-49"/>
       <use x="147.412109" xlink:href="#DejaVuSans-46"/>
       <use x="179.199219" xlink:href="#DejaVuSans-48"/>
      </g>
     </g>
    </g>
    <g id="ytick_6">
     <g id="line2d_24">
      <g>
       <use style="stroke:#000000;stroke-width:0.8;" x="180" xlink:href="#m83c9ed04ef" y="319.909908"/>
      </g>
     </g>
     <g id="text_21">
      <!-- −0.5 -->
      <defs>
       <path d="M 10.796875 72.90625 
L 49.515625 72.90625 
L 49.515625 64.59375 
L 19.828125 64.59375 
L 19.828125 46.734375 
Q 21.96875 47.46875 24.109375 47.828125 
Q 26.265625 48.1875 28.421875 48.1875 
Q 40.625 48.1875 47.75 41.5 
Q 54.890625 34.8125 54.890625 23.390625 
Q 54.890625 11.625 47.5625 5.09375 
Q 40.234375 -1.421875 26.90625 -1.421875 
Q 22.3125 -1.421875 17.546875 -0.640625 
Q 12.796875 0.140625 7.71875 1.703125 
L 7.71875 11.625 
Q 12.109375 9.234375 16.796875 8.0625 
Q 21.484375 6.890625 26.703125 6.890625 
Q 35.15625 6.890625 40.078125 11.328125 
Q 45.015625 15.765625 45.015625 23.390625 
Q 45.015625 31 40.078125 35.4375 
Q 35.15625 39.890625 26.703125 39.890625 
Q 22.75 39.890625 18.8125 39.015625 
Q 14.890625 38.140625 10.796875 36.28125 
z
" id="DejaVuSans-53"/>
      </defs>
      <g transform="translate(148.717187 323.709127)scale(0.1 -0.1)">
       <use xlink:href="#DejaVuSans-8722"/>
       <use x="83.789062" xlink:href="#DejaVuSans-48"/>
       <use x="147.412109" xlink:href="#DejaVuSans-46"/>
       <use x="179.199219" xlink:href="#DejaVuSans-53"/>
      </g>
     </g>
    </g>
    <g id="ytick_7">
     <g id="line2d_25">
      <g>
       <use style="stroke:#000000;stroke-width:0.8;" x="180" xlink:href="#m83c9ed04ef" y="291.026435"/>
      </g>
     </g>
     <g id="text_22">
      <!-- 0.0 -->
      <g transform="translate(157.096875 294.825654)scale(0.1 -0.1)">
       <use xlink:href="#DejaVuSans-48"/>
       <use x="63.623047" xlink:href="#DejaVuSans-46"/>
       <use x="95.410156" xlink:href="#DejaVuSans-48"/>
      </g>
     </g>
    </g>
    <g id="ytick_8">
     <g id="line2d_26">
      <g>
       <use style="stroke:#000000;stroke-width:0.8;" x="180" xlink:href="#m83c9ed04ef" y="262.142962"/>
      </g>
     </g>
     <g id="text_23">
      <!-- 0.5 -->
      <g transform="translate(157.096875 265.942181)scale(0.1 -0.1)">
       <use xlink:href="#DejaVuSans-48"/>
       <use x="63.623047" xlink:href="#DejaVuSans-46"/>
       <use x="95.410156" xlink:href="#DejaVuSans-53"/>
      </g>
     </g>
    </g>
    <g id="ytick_9">
     <g id="line2d_27">
      <g>
       <use style="stroke:#000000;stroke-width:0.8;" x="180" xlink:href="#m83c9ed04ef" y="233.259489"/>
      </g>
     </g>
     <g id="text_24">
      <!-- 1.0 -->
      <g transform="translate(157.096875 237.058708)scale(0.1 -0.1)">
       <use xlink:href="#DejaVuSans-49"/>
       <use x="63.623047" xlink:href="#DejaVuSans-46"/>
       <use x="95.410156" xlink:href="#DejaVuSans-48"/>
      </g>
     </g>
    </g>
    <g id="text_25">
     <!-- TD State:1 -->
     <g transform="translate(142.6375 317.880707)rotate(-90)scale(0.1 -0.1)">
      <use xlink:href="#DejaVuSans-84"/>
      <use x="61.083984" xlink:href="#DejaVuSans-68"/>
      <use x="138.085938" xlink:href="#DejaVuSans-32"/>
      <use x="169.873047" xlink:href="#DejaVuSans-83"/>
      <use x="233.349609" xlink:href="#DejaVuSans-116"/>
      <use x="272.558594" xlink:href="#DejaVuSans-97"/>
      <use x="333.837891" xlink:href="#DejaVuSans-116"/>
      <use x="373.046875" xlink:href="#DejaVuSans-101"/>
      <use x="434.570312" xlink:href="#DejaVuSans-58"/>
      <use x="468.261719" xlink:href="#DejaVuSans-49"/>
     </g>
    </g>
   </g>
   <g id="line2d_28">
    <path clip-path="url(#p77a5424fc4)" d="M 230.727273 237.439096 
L 235.825491 239.064881 
L 240.923709 241.977241 
L 246.021928 246.08783 
L 251.120146 252.061316 
L 256.218365 259.790306 
L 261.316583 269.151681 
L 266.414801 279.879863 
L 276.611238 302.95089 
L 281.709456 313.678303 
L 286.807675 322.776443 
L 291.905893 330.154079 
L 297.004111 335.343147 
L 302.10233 339.154517 
L 307.200548 341.180881 
L 312.298767 342.347948 
L 317.396985 342.525228 
L 322.495203 341.82634 
L 327.593422 339.870003 
L 332.69164 336.582446 
L 337.789858 332.134879 
L 342.888077 326.207117 
L 347.986295 318.054194 
L 353.084513 308.604919 
L 358.182732 298.388293 
L 363.28095 287.826691 
L 368.379169 276.602953 
L 373.477387 266.054912 
L 378.575605 257.171293 
L 383.673824 250.678928 
L 388.772042 245.512138 
L 393.87026 242.19896 
L 398.968479 240.48712 
L 404.066697 239.705549 
L 409.164915 239.869372 
L 414.263134 240.818761 
L 419.361352 243.036964 
L 424.459571 246.710178 
L 429.557789 251.549361 
L 434.656007 258.755613 
L 439.754226 268.353879 
L 444.852444 279.559429 
L 449.950662 291.291683 
L 455.048881 303.444849 
L 460.147099 313.968361 
L 465.245317 323.186522 
L 470.343536 330.840589 
L 475.441754 336.084175 
L 480.539973 339.501426 
L 485.638191 341.356845 
L 490.736409 342.06035 
L 495.834628 342.042477 
L 500.932846 340.879188 
L 506.031064 338.56378 
L 511.129283 334.87263 
L 516.227501 329.128846 
L 521.32572 321.672291 
L 526.423938 311.920932 
L 531.522156 301.028797 
L 536.620375 289.48675 
L 541.718593 277.398191 
L 546.816811 266.544035 
L 551.91503 257.630447 
L 557.013248 250.413456 
L 562.111466 244.887014 
L 567.209685 241.375303 
L 572.307903 239.323201 
L 577.406122 238.344106 
L 582.50434 238.396973 
L 587.602558 239.272356 
L 592.700777 241.2726 
L 597.798995 244.168698 
L 602.897213 248.516629 
L 607.995432 255.112178 
L 613.09365 263.405495 
L 618.191868 273.243069 
L 633.486524 308.937582 
L 638.584742 319.674603 
L 643.68296 328.704752 
L 648.781179 335.451679 
L 653.879397 340.202294 
L 658.977615 343.037802 
L 664.075834 344.636257 
L 669.174052 345.500214 
L 674.27227 345.625746 
L 679.370489 345.259941 
L 684.468707 344.124297 
L 689.566926 341.915888 
L 694.665144 338.060707 
L 699.763362 332.757832 
L 704.861581 325.107468 
L 709.959799 315.347982 
L 715.058017 303.538519 
L 720.156236 290.465162 
L 725.254454 278.123854 
L 730.352672 266.55088 
L 735.450891 256.272665 
L 740.549109 248.647445 
L 745.647328 243.080667 
L 750.745546 239.576444 
L 755.843764 237.634343 
L 760.941983 236.616109 
L 766.040201 236.504348 
L 771.138419 236.974627 
L 776.236638 238.09922 
L 781.334856 240.60582 
L 786.433074 244.749398 
L 791.531293 251.195457 
L 796.629511 259.352881 
L 801.72773 269.490559 
L 806.825948 282.100189 
L 811.924166 295.40011 
L 817.022385 307.712744 
L 822.120603 319.297373 
L 827.218821 328.945863 
L 832.31704 336.401326 
L 837.415258 341.393235 
L 842.513476 344.199826 
L 847.611695 345.602127 
L 852.709913 346.069565 
L 857.808132 345.814858 
L 862.90635 344.906815 
L 868.004568 343.265025 
L 873.102787 340.324854 
L 878.201005 335.772137 
L 883.299223 329.371587 
L 888.397442 320.150406 
L 893.49566 308.730407 
L 903.692097 283.690226 
L 908.790315 271.493781 
L 913.888534 260.324268 
L 918.986752 251.863595 
L 924.08497 245.353851 
L 929.183189 241.194786 
L 934.281407 238.539564 
L 939.379625 237.266081 
L 944.477844 236.841134 
L 949.576062 237.043208 
L 954.67428 237.788912 
L 959.772499 239.267521 
L 964.870717 241.744968 
L 969.968936 245.453308 
L 975.067154 250.73941 
L 980.165372 257.955921 
L 985.263591 267.573319 
L 995.460027 290.14561 
L 1005.656464 312.905016 
L 1010.754683 322.481352 
L 1015.852901 329.74307 
L 1020.951119 335.078297 
L 1026.049338 338.93363 
L 1031.147556 341.116611 
L 1036.245774 342.406292 
L 1041.343993 343.024937 
L 1046.442211 342.804756 
L 1051.540429 341.476797 
L 1056.638648 339.119184 
L 1061.736866 335.504256 
L 1066.835085 330.387483 
L 1071.933303 322.808902 
L 1077.031521 312.802687 
L 1082.12974 300.908411 
L 1087.227958 288.463468 
L 1092.326176 276.374771 
L 1097.424395 265.403932 
L 1102.522613 256.110903 
L 1107.620831 249.472822 
L 1112.71905 244.579565 
L 1117.817268 241.258078 
L 1122.915487 239.367934 
L 1128.013705 238.608217 
L 1133.111923 238.664504 
L 1138.210142 239.345314 
L 1143.30836 240.791548 
L 1148.406578 243.467329 
L 1153.504797 247.733789 
L 1158.603015 253.553213 
L 1163.701233 261.64183 
L 1168.799452 270.913271 
L 1173.89767 281.602179 
L 1178.995889 293.4893 
L 1184.094107 304.63809 
L 1189.192325 315.171254 
L 1194.290544 324.105764 
L 1199.388762 331.442825 
L 1204.48698 336.352152 
L 1209.585199 339.473927 
L 1214.683417 341.620209 
L 1219.781635 342.825732 
L 1224.879854 343.315942 
L 1229.978072 343.004429 
L 1235.076291 341.410957 
L 1240.174509 338.621443 
L 1245.272727 334.562796 
L 1245.272727 334.562796 
" style="fill:none;stroke:#000000;stroke-linecap:square;stroke-width:4;"/>
   </g>
   <g id="line2d_29">
    <path clip-path="url(#p77a5424fc4)" d="M 230.727273 237.711891 
L 235.825491 239.445024 
L 240.923709 242.21029 
L 246.021928 246.45013 
L 251.120146 252.367494 
L 256.218365 260.028741 
L 261.316583 269.351475 
L 266.414801 280.038315 
L 276.611238 302.859976 
L 281.709456 313.339425 
L 286.807675 322.462342 
L 291.905893 329.542168 
L 297.004111 335.008051 
L 302.10233 338.544123 
L 307.200548 340.808773 
L 312.298767 341.938885 
L 317.396985 342.166903 
L 322.495203 341.352051 
L 327.593422 339.370345 
L 332.69164 336.250209 
L 337.789858 331.86638 
L 342.888077 325.63535 
L 347.986295 317.724388 
L 353.084513 308.49146 
L 358.182732 298.438021 
L 368.379169 276.46184 
L 373.477387 266.177289 
L 378.575605 257.792375 
L 383.673824 250.97143 
L 388.772042 245.953238 
L 393.87026 242.781431 
L 398.968479 240.900812 
L 404.066697 240.133042 
L 409.164915 240.193619 
L 414.263134 241.253726 
L 419.361352 243.558733 
L 424.459571 246.970417 
L 429.557789 252.133863 
L 434.656007 259.477121 
L 439.754226 268.89823 
L 444.852444 279.681855 
L 449.950662 291.564981 
L 455.048881 303.069747 
L 460.147099 313.64304 
L 465.245317 322.986604 
L 470.343536 330.268923 
L 475.441754 335.522454 
L 480.539973 338.931589 
L 485.638191 340.806856 
L 490.736409 341.716014 
L 495.834628 341.585722 
L 500.932846 340.416974 
L 506.031064 338.136713 
L 511.129283 334.236387 
L 516.227501 328.684893 
L 521.32572 321.017121 
L 526.423938 311.588039 
L 531.522156 300.906632 
L 541.718593 277.474781 
L 546.816811 266.963453 
L 551.91503 258.005608 
L 557.013248 250.686331 
L 562.111466 245.36867 
L 567.209685 241.854351 
L 572.307903 239.711288 
L 577.406122 238.788499 
L 582.50434 238.751121 
L 587.602558 239.717187 
L 592.700777 241.549234 
L 597.798995 244.465519 
L 602.897213 249.103238 
L 607.995432 255.532455 
L 613.09365 263.652353 
L 618.191868 273.852121 
L 623.290087 285.178298 
L 628.388305 297.168651 
L 633.486524 308.865944 
L 638.584742 319.517522 
L 643.68296 328.299433 
L 648.781179 335.064779 
L 653.879397 339.705752 
L 658.977615 342.591088 
L 664.075834 344.375993 
L 669.174052 345.199596 
L 674.27227 345.427172 
L 679.370489 345.014737 
L 684.468707 343.846769 
L 689.566926 341.459643 
L 694.665144 337.796882 
L 699.763362 332.27054 
L 704.861581 324.671598 
L 709.959799 314.870625 
L 715.058017 303.076899 
L 725.254454 278.284315 
L 730.352672 266.559396 
L 735.450891 256.76104 
L 740.549109 249.050784 
L 745.647328 243.547891 
L 750.745546 240.076762 
L 755.843764 237.948218 
L 760.941983 236.973178 
L 766.040201 236.793542 
L 771.138419 237.167063 
L 776.236638 238.492858 
L 781.334856 241.017668 
L 786.433074 245.349736 
L 791.531293 251.513659 
L 796.629511 259.61966 
L 801.72773 270.140933 
L 806.825948 282.462458 
L 817.022385 307.686075 
L 822.120603 319.077609 
L 827.218821 328.682261 
L 832.31704 335.996819 
L 837.415258 340.850825 
L 842.513476 343.736712 
L 847.611695 345.229364 
L 852.709913 345.746435 
L 857.808132 345.52509 
L 862.90635 344.693671 
L 868.004568 342.951842 
L 873.102787 339.956927 
L 878.201005 335.459594 
L 883.299223 328.717244 
L 888.397442 319.569818 
L 893.49566 308.424436 
L 898.593878 296.276694 
L 908.790315 271.421759 
L 913.888534 260.871853 
L 918.986752 252.204455 
L 924.08497 245.940589 
L 929.183189 241.595511 
L 934.281407 238.993769 
L 939.379625 237.632141 
L 944.477844 237.140421 
L 949.576062 237.263863 
L 954.67428 238.001544 
L 959.772499 239.511596 
L 964.870717 241.992323 
L 969.968936 245.741077 
L 975.067154 251.083601 
L 980.165372 258.532683 
L 985.263591 268.013373 
L 990.361809 278.715382 
L 995.460027 289.965494 
L 1000.558246 301.692961 
L 1005.656464 312.66935 
L 1010.754683 321.913102 
L 1015.852901 329.15431 
L 1020.951119 334.691083 
L 1026.049338 338.374373 
L 1031.147556 340.717585 
L 1036.245774 342.1365 
L 1041.343993 342.742396 
L 1046.442211 342.38249 
L 1051.540429 341.095866 
L 1056.638648 338.743923 
L 1061.736866 335.179458 
L 1066.835085 329.752704 
L 1071.933303 322.082671 
L 1077.031521 312.145511 
L 1082.12974 300.645367 
L 1092.326176 276.563942 
L 1097.424395 265.617549 
L 1102.522613 256.791932 
L 1107.620831 249.981955 
L 1112.71905 245.002856 
L 1117.817268 241.700555 
L 1122.915487 239.811761 
L 1128.013705 238.998674 
L 1133.111923 238.953496 
L 1138.210142 239.59017 
L 1143.30836 241.130607 
L 1148.406578 243.92493 
L 1153.504797 248.069683 
L 1158.603015 254.146478 
L 1163.701233 261.849562 
L 1168.799452 271.135365 
L 1173.89767 282.030895 
L 1184.094107 304.581371 
L 1189.192325 314.872493 
L 1194.290544 323.900688 
L 1199.388762 330.856614 
L 1204.48698 335.709335 
L 1209.585199 339.098158 
L 1214.683417 341.282412 
L 1219.781635 342.546908 
L 1224.879854 343.059211 
L 1229.978072 342.536821 
L 1235.076291 340.959384 
L 1240.174509 338.241378 
L 1245.272727 334.28464 
L 1245.272727 334.28464 
" style="fill:none;stroke:#ff0000;stroke-linecap:square;stroke-width:1.5;"/>
   </g>
   <g id="patch_9">
    <path d="M 180 351.547826 
L 180 231.026087 
" style="fill:none;stroke:#000000;stroke-linecap:square;stroke-linejoin:miter;stroke-width:0.8;"/>
   </g>
   <g id="patch_10">
    <path d="M 1296 351.547826 
L 1296 231.026087 
" style="fill:none;stroke:#000000;stroke-linecap:square;stroke-linejoin:miter;stroke-width:0.8;"/>
   </g>
   <g id="patch_11">
    <path d="M 180 351.547826 
L 1296 351.547826 
" style="fill:none;stroke:#000000;stroke-linecap:square;stroke-linejoin:miter;stroke-width:0.8;"/>
   </g>
   <g id="patch_12">
    <path d="M 180 231.026087 
L 1296 231.026087 
" style="fill:none;stroke:#000000;stroke-linecap:square;stroke-linejoin:miter;stroke-width:0.8;"/>
   </g>
   <g id="legend_2">
    <g id="patch_13">
     <path d="M 1234.3125 268.382337 
L 1289 268.382337 
Q 1291 268.382337 1291 266.382337 
L 1291 238.026087 
Q 1291 236.026087 1289 236.026087 
L 1234.3125 236.026087 
Q 1232.3125 236.026087 1232.3125 238.026087 
L 1232.3125 266.382337 
Q 1232.3125 268.382337 1234.3125 268.382337 
z
" style="fill:#ffffff;opacity:0.8;stroke:#cccccc;stroke-linejoin:miter;"/>
    </g>
    <g id="line2d_30">
     <path d="M 1236.3125 244.124524 
L 1256.3125 244.124524 
" style="fill:none;stroke:#000000;stroke-linecap:square;stroke-width:4;"/>
    </g>
    <g id="line2d_31"/>
    <g id="text_26">
     <!-- Pred -->
     <g transform="translate(1264.3125 247.624524)scale(0.1 -0.1)">
      <use xlink:href="#DejaVuSans-80"/>
      <use x="60.287109" xlink:href="#DejaVuSans-114"/>
      <use x="101.369141" xlink:href="#DejaVuSans-101"/>
      <use x="162.892578" xlink:href="#DejaVuSans-100"/>
     </g>
    </g>
    <g id="line2d_32">
     <path d="M 1236.3125 258.802649 
L 1256.3125 258.802649 
" style="fill:none;stroke:#ff0000;stroke-linecap:square;stroke-width:1.5;"/>
    </g>
    <g id="line2d_33"/>
    <g id="text_27">
     <!-- True -->
     <g transform="translate(1264.3125 262.302649)scale(0.1 -0.1)">
      <use xlink:href="#DejaVuSans-84"/>
      <use x="60.865234" xlink:href="#DejaVuSans-114"/>
      <use x="101.978516" xlink:href="#DejaVuSans-117"/>
      <use x="165.357422" xlink:href="#DejaVuSans-101"/>
     </g>
    </g>
   </g>
  </g>
  <g id="axes_3">
   <g id="patch_14">
    <path d="M 180 496.173913 
L 1296 496.173913 
L 1296 375.652174 
L 180 375.652174 
z
" style="fill:#ffffff;"/>
   </g>
   <g id="matplotlib.axis_5">
    <g id="xtick_13">
     <g id="line2d_34">
      <g>
       <use style="stroke:#000000;stroke-width:0.8;" x="230.727273" xlink:href="#m6960f2ebb2" y="496.173913"/>
      </g>
     </g>
     <g id="text_28">
      <!-- 0 -->
      <g transform="translate(227.546023 510.772351)scale(0.1 -0.1)">
       <use xlink:href="#DejaVuSans-48"/>
      </g>
     </g>
    </g>
    <g id="xtick_14">
     <g id="line2d_35">
      <g>
       <use style="stroke:#000000;stroke-width:0.8;" x="434.656007" xlink:href="#m6960f2ebb2" y="496.173913"/>
      </g>
     </g>
     <g id="text_29">
      <!-- 2 -->
      <g transform="translate(431.474757 510.772351)scale(0.1 -0.1)">
       <use xlink:href="#DejaVuSans-50"/>
      </g>
     </g>
    </g>
    <g id="xtick_15">
     <g id="line2d_36">
      <g>
       <use style="stroke:#000000;stroke-width:0.8;" x="638.584742" xlink:href="#m6960f2ebb2" y="496.173913"/>
      </g>
     </g>
     <g id="text_30">
      <!-- 4 -->
      <g transform="translate(635.403492 510.772351)scale(0.1 -0.1)">
       <use xlink:href="#DejaVuSans-52"/>
      </g>
     </g>
    </g>
    <g id="xtick_16">
     <g id="line2d_37">
      <g>
       <use style="stroke:#000000;stroke-width:0.8;" x="842.513476" xlink:href="#m6960f2ebb2" y="496.173913"/>
      </g>
     </g>
     <g id="text_31">
      <!-- 6 -->
      <g transform="translate(839.332226 510.772351)scale(0.1 -0.1)">
       <use xlink:href="#DejaVuSans-54"/>
      </g>
     </g>
    </g>
    <g id="xtick_17">
     <g id="line2d_38">
      <g>
       <use style="stroke:#000000;stroke-width:0.8;" x="1046.442211" xlink:href="#m6960f2ebb2" y="496.173913"/>
      </g>
     </g>
     <g id="text_32">
      <!-- 8 -->
      <g transform="translate(1043.260961 510.772351)scale(0.1 -0.1)">
       <use xlink:href="#DejaVuSans-56"/>
      </g>
     </g>
    </g>
    <g id="xtick_18">
     <g id="line2d_39">
      <g>
       <use style="stroke:#000000;stroke-width:0.8;" x="1250.370946" xlink:href="#m6960f2ebb2" y="496.173913"/>
      </g>
     </g>
     <g id="text_33">
      <!-- 10 -->
      <g transform="translate(1244.008446 510.772351)scale(0.1 -0.1)">
       <use xlink:href="#DejaVuSans-49"/>
       <use x="63.623047" xlink:href="#DejaVuSans-48"/>
      </g>
     </g>
    </g>
   </g>
   <g id="matplotlib.axis_6">
    <g id="ytick_10">
     <g id="line2d_40">
      <g>
       <use style="stroke:#000000;stroke-width:0.8;" x="180" xlink:href="#m83c9ed04ef" y="485.74702"/>
      </g>
     </g>
     <g id="text_34">
      <!-- −4 -->
      <g transform="translate(158.257812 489.546238)scale(0.1 -0.1)">
       <use xlink:href="#DejaVuSans-8722"/>
       <use x="83.789062" xlink:href="#DejaVuSans-52"/>
      </g>
     </g>
    </g>
    <g id="ytick_11">
     <g id="line2d_41">
      <g>
       <use style="stroke:#000000;stroke-width:0.8;" x="180" xlink:href="#m83c9ed04ef" y="460.914084"/>
      </g>
     </g>
     <g id="text_35">
      <!-- −2 -->
      <g transform="translate(158.257812 464.713303)scale(0.1 -0.1)">
       <use xlink:href="#DejaVuSans-8722"/>
       <use x="83.789062" xlink:href="#DejaVuSans-50"/>
      </g>
     </g>
    </g>
    <g id="ytick_12">
     <g id="line2d_42">
      <g>
       <use style="stroke:#000000;stroke-width:0.8;" x="180" xlink:href="#m83c9ed04ef" y="436.081149"/>
      </g>
     </g>
     <g id="text_36">
      <!-- 0 -->
      <g transform="translate(166.6375 439.880368)scale(0.1 -0.1)">
       <use xlink:href="#DejaVuSans-48"/>
      </g>
     </g>
    </g>
    <g id="ytick_13">
     <g id="line2d_43">
      <g>
       <use style="stroke:#000000;stroke-width:0.8;" x="180" xlink:href="#m83c9ed04ef" y="411.248213"/>
      </g>
     </g>
     <g id="text_37">
      <!-- 2 -->
      <g transform="translate(166.6375 415.047432)scale(0.1 -0.1)">
       <use xlink:href="#DejaVuSans-50"/>
      </g>
     </g>
    </g>
    <g id="ytick_14">
     <g id="line2d_44">
      <g>
       <use style="stroke:#000000;stroke-width:0.8;" x="180" xlink:href="#m83c9ed04ef" y="386.415278"/>
      </g>
     </g>
     <g id="text_38">
      <!-- 4 -->
      <g transform="translate(166.6375 390.214497)scale(0.1 -0.1)">
       <use xlink:href="#DejaVuSans-52"/>
      </g>
     </g>
    </g>
    <g id="text_39">
     <!-- TD State:2 -->
     <g transform="translate(152.178125 462.506793)rotate(-90)scale(0.1 -0.1)">
      <use xlink:href="#DejaVuSans-84"/>
      <use x="61.083984" xlink:href="#DejaVuSans-68"/>
      <use x="138.085938" xlink:href="#DejaVuSans-32"/>
      <use x="169.873047" xlink:href="#DejaVuSans-83"/>
      <use x="233.349609" xlink:href="#DejaVuSans-116"/>
      <use x="272.558594" xlink:href="#DejaVuSans-97"/>
      <use x="333.837891" xlink:href="#DejaVuSans-116"/>
      <use x="373.046875" xlink:href="#DejaVuSans-101"/>
      <use x="434.570312" xlink:href="#DejaVuSans-58"/>
      <use x="468.261719" xlink:href="#DejaVuSans-50"/>
     </g>
    </g>
   </g>
   <g id="line2d_45">
    <path clip-path="url(#p2ef1f82d8c)" d="M 230.727273 427.49407 
L 235.825491 418.255585 
L 240.923709 411.962922 
L 246.021928 404.991571 
L 251.120146 399.264735 
L 256.218365 394.676137 
L 261.316583 390.949239 
L 266.414801 388.102165 
L 271.51302 386.751227 
L 276.611238 386.674356 
L 281.709456 388.842785 
L 286.807675 391.679517 
L 291.905893 397.740326 
L 297.004111 402.421985 
L 302.10233 411.120259 
L 307.200548 417.996915 
L 312.298767 426.165311 
L 317.396985 433.98961 
L 322.495203 443.402285 
L 327.593422 452.476064 
L 332.69164 458.997926 
L 337.789858 464.39887 
L 342.888077 471.538062 
L 347.986295 476.292252 
L 353.084513 479.109559 
L 358.182732 480.399096 
L 363.28095 483.107504 
L 368.379169 484.26994 
L 373.477387 483.200749 
L 378.575605 477.874905 
L 383.673824 474.114019 
L 388.772042 468.084566 
L 393.87026 459.265482 
L 398.968479 451.517631 
L 404.066697 442.887388 
L 409.164915 435.532215 
L 414.263134 426.812351 
L 419.361352 417.706077 
L 424.459571 411.994516 
L 434.656007 396.150116 
L 439.754226 390.240176 
L 444.852444 387.557837 
L 449.950662 384.693327 
L 455.048881 386.248875 
L 465.245317 390.402842 
L 470.343536 396.213072 
L 475.441754 403.201343 
L 480.539973 411.605451 
L 485.638191 420.960687 
L 490.736409 428.163811 
L 500.932846 446.098872 
L 506.031064 453.933699 
L 511.129283 463.033837 
L 516.227501 469.588071 
L 521.32572 476.847842 
L 526.423938 481.256922 
L 531.522156 483.762128 
L 536.620375 486.798178 
L 541.718593 486.826077 
L 546.816811 483.964793 
L 557.013248 476.938396 
L 562.111466 470.438041 
L 572.307903 454.794363 
L 577.406122 445.037747 
L 582.50434 436.460992 
L 587.602558 426.704982 
L 592.700777 419.943313 
L 597.798995 413.471852 
L 602.897213 404.979385 
L 607.995432 398.734612 
L 613.09365 394.372218 
L 618.191868 388.463698 
L 623.290087 386.311963 
L 628.388305 384.457794 
L 633.486524 384.585628 
L 638.584742 385.976969 
L 643.68296 390.013533 
L 648.781179 394.967073 
L 653.879397 402.481313 
L 658.977615 411.025949 
L 664.075834 417.70217 
L 669.174052 426.391731 
L 674.27227 433.222391 
L 684.468707 449.276994 
L 689.566926 459.049701 
L 694.665144 465.349932 
L 699.763362 472.919048 
L 704.861581 479.143079 
L 709.959799 484.798047 
L 715.058017 489.542268 
L 720.156236 489.950389 
L 725.254454 489.611087 
L 730.352672 489.444674 
L 735.450891 485.150302 
L 740.549109 480.381161 
L 745.647328 473.652581 
L 750.745546 464.719771 
L 755.843764 457.198757 
L 760.941983 447.299151 
L 766.040201 438.299314 
L 771.138419 431.530493 
L 776.236638 421.433201 
L 781.334856 412.422314 
L 786.433074 402.674385 
L 791.531293 396.671869 
L 796.629511 391.781765 
L 801.72773 385.217683 
L 806.825948 381.183234 
L 811.924166 381.44024 
L 817.022385 381.144918 
L 822.120603 382.830325 
L 827.218821 385.686766 
L 832.31704 390.844198 
L 837.415258 399.340349 
L 842.513476 408.996799 
L 852.709913 429.404523 
L 857.808132 438.994721 
L 862.90635 446.267954 
L 868.004568 454.596879 
L 873.102787 462.601934 
L 878.201005 469.059658 
L 883.299223 477.47059 
L 888.397442 484.247982 
L 893.49566 488.44039 
L 898.593878 489.44375 
L 908.790315 490.680335 
L 913.888534 486.472311 
L 918.986752 482.698615 
L 924.08497 475.428931 
L 929.183189 468.721339 
L 939.379625 450.424792 
L 944.477844 441.779939 
L 949.576062 434.6185 
L 959.772499 420.800554 
L 969.968936 408.076735 
L 975.067154 401.94658 
L 980.165372 394.849146 
L 985.263591 389.492708 
L 990.361809 387.667484 
L 995.460027 387.317257 
L 1000.558246 385.417912 
L 1005.656464 386.8447 
L 1010.754683 391.364133 
L 1015.852901 397.165118 
L 1020.951119 402.283838 
L 1026.049338 410.309211 
L 1031.147556 417.488369 
L 1036.245774 423.590283 
L 1041.343993 430.370097 
L 1046.442211 439.50138 
L 1051.540429 447.638709 
L 1056.638648 455.101672 
L 1061.736866 461.415574 
L 1066.835085 469.661185 
L 1071.933303 477.569722 
L 1077.031521 484.077147 
L 1082.12974 487.468227 
L 1087.227958 488.593153 
L 1092.326176 487.933572 
L 1097.424395 486.327337 
L 1112.71905 468.754949 
L 1117.817268 461.297659 
L 1128.013705 443.874791 
L 1133.111923 436.528597 
L 1138.210142 429.916846 
L 1143.30836 422.279384 
L 1148.406578 413.917866 
L 1153.504797 407.553434 
L 1158.603015 399.832439 
L 1163.701233 395.614685 
L 1168.799452 391.900568 
L 1173.89767 387.628937 
L 1178.995889 387.34343 
L 1184.094107 387.192361 
L 1189.192325 389.239923 
L 1194.290544 391.42786 
L 1199.388762 397.494925 
L 1204.48698 405.400219 
L 1209.585199 411.588754 
L 1219.781635 424.588465 
L 1224.879854 431.117474 
L 1229.978072 441.137012 
L 1235.076291 450.264472 
L 1240.174509 457.720251 
L 1245.272727 463.508978 
L 1245.272727 463.508978 
" style="fill:none;stroke:#000000;stroke-linecap:square;stroke-width:4;"/>
   </g>
   <g id="line2d_46">
    <path clip-path="url(#p2ef1f82d8c)" d="M 230.727273 427.49098 
L 235.825491 418.247577 
L 240.923709 411.960717 
L 246.021928 404.984973 
L 251.120146 399.258558 
L 256.218365 394.669678 
L 261.316583 390.941281 
L 266.414801 388.092317 
L 271.51302 386.740934 
L 276.611238 386.663035 
L 281.709456 388.83351 
L 286.807675 391.668616 
L 291.905893 397.735803 
L 297.004111 402.412108 
L 302.10233 411.120838 
L 307.200548 417.992769 
L 312.298767 426.165487 
L 317.396985 433.990092 
L 322.495203 443.408873 
L 327.593422 452.483938 
L 332.69164 459.001122 
L 337.789858 464.401391 
L 342.888077 471.548327 
L 347.986295 476.299502 
L 353.084513 479.115255 
L 358.182732 480.404518 
L 363.28095 483.121097 
L 368.379169 484.283842 
L 373.477387 483.212769 
L 378.575605 477.878508 
L 383.673824 474.124278 
L 388.772042 468.090201 
L 393.87026 459.263862 
L 398.968479 451.51851 
L 404.066697 442.884862 
L 409.164915 435.531845 
L 414.263134 426.8065 
L 419.361352 417.696877 
L 424.459571 411.99221 
L 434.656007 396.135123 
L 439.754226 390.226516 
L 444.852444 387.548504 
L 449.950662 384.678722 
L 455.048881 386.241762 
L 465.245317 390.389484 
L 470.343536 396.207372 
L 475.441754 403.19748 
L 480.539973 411.605145 
L 485.638191 420.963598 
L 490.736409 428.161828 
L 500.932846 446.104759 
L 506.031064 453.938936 
L 511.129283 463.045182 
L 516.227501 469.595467 
L 521.32572 476.860719 
L 526.423938 481.266032 
L 531.522156 483.770295 
L 536.620375 486.812463 
L 541.718593 486.836875 
L 546.816811 483.971836 
L 557.013248 476.949729 
L 562.111466 470.44303 
L 572.307903 454.79609 
L 577.406122 445.033162 
L 582.50434 436.458127 
L 587.602558 426.696951 
L 592.700777 419.941428 
L 597.798995 413.468624 
L 602.897213 404.967851 
L 607.995432 398.725913 
L 613.09365 394.365059 
L 618.191868 388.448019 
L 623.290087 386.30186 
L 628.388305 384.443703 
L 633.486524 384.57223 
L 638.584742 385.962748 
L 643.68296 390.003138 
L 648.781179 394.956834 
L 653.879397 402.476918 
L 658.977615 411.02435 
L 664.075834 417.695954 
L 669.174052 426.392049 
L 674.27227 433.2189 
L 684.468707 449.280234 
L 689.566926 459.059913 
L 694.665144 465.353102 
L 699.763362 472.928537 
L 704.861581 479.152343 
L 709.959799 484.809838 
L 715.058017 489.556336 
L 720.156236 489.95752 
L 725.254454 489.620946 
L 730.352672 489.459707 
L 735.450891 485.158011 
L 740.549109 480.390453 
L 745.647328 473.658291 
L 750.745546 464.719952 
L 755.843764 457.202512 
L 760.941983 447.295371 
L 766.040201 438.296453 
L 771.138419 431.5322 
L 776.236638 421.423793 
L 781.334856 412.413384 
L 786.433074 402.660431 
L 791.531293 396.664873 
L 796.629511 391.774237 
L 801.72773 385.201158 
L 806.825948 381.168501 
L 811.924166 381.432175 
L 817.022385 381.130435 
L 822.120603 382.816675 
L 827.218821 385.672498 
L 832.31704 390.833501 
L 837.415258 399.337554 
L 842.513476 408.997299 
L 852.709913 429.409465 
L 857.808132 438.999556 
L 862.90635 446.268248 
L 868.004568 454.60203 
L 873.102787 462.60852 
L 878.201005 469.064584 
L 883.299223 477.484129 
L 888.397442 484.261104 
L 893.49566 488.45098 
L 898.593878 489.450324 
L 908.790315 490.695652 
L 913.888534 486.478639 
L 918.986752 482.70943 
L 924.08497 475.432331 
L 929.183189 468.727317 
L 939.379625 450.423271 
L 944.477844 441.778473 
L 949.576062 434.619667 
L 959.772499 420.798986 
L 969.968936 408.072699 
L 975.067154 401.94017 
L 980.165372 394.836574 
L 985.263591 389.480723 
L 990.361809 387.660786 
L 995.460027 387.310239 
L 1000.558246 385.402054 
L 1005.656464 386.833496 
L 1010.754683 391.357889 
L 1015.852901 397.15998 
L 1020.951119 402.275239 
L 1026.049338 410.307949 
L 1031.147556 417.484986 
L 1036.245774 423.584468 
L 1041.343993 430.366991 
L 1046.442211 439.506203 
L 1051.540429 447.642713 
L 1056.638648 455.105924 
L 1061.736866 461.418966 
L 1066.835085 469.672755 
L 1071.933303 477.58406 
L 1077.031521 484.09201 
L 1082.12974 487.479295 
L 1087.227958 488.602837 
L 1092.326176 487.943052 
L 1097.424395 486.338561 
L 1112.71905 468.761104 
L 1117.817268 461.300455 
L 1128.013705 443.872678 
L 1133.111923 436.528919 
L 1138.210142 429.917739 
L 1143.30836 422.275694 
L 1148.406578 413.909891 
L 1153.504797 407.548313 
L 1158.603015 399.820445 
L 1163.701233 395.608723 
L 1168.799452 391.892132 
L 1173.89767 387.61452 
L 1178.995889 387.335331 
L 1184.094107 387.180224 
L 1189.192325 389.229756 
L 1194.290544 391.414606 
L 1199.388762 397.489832 
L 1204.48698 405.399029 
L 1209.585199 411.58249 
L 1219.781635 424.583502 
L 1224.879854 431.113709 
L 1229.978072 441.144422 
L 1235.076291 450.271591 
L 1240.174509 457.725076 
L 1245.272727 463.5116 
L 1245.272727 463.5116 
" style="fill:none;stroke:#ff0000;stroke-linecap:square;stroke-width:1.5;"/>
   </g>
   <g id="patch_15">
    <path d="M 180 496.173913 
L 180 375.652174 
" style="fill:none;stroke:#000000;stroke-linecap:square;stroke-linejoin:miter;stroke-width:0.8;"/>
   </g>
   <g id="patch_16">
    <path d="M 1296 496.173913 
L 1296 375.652174 
" style="fill:none;stroke:#000000;stroke-linecap:square;stroke-linejoin:miter;stroke-width:0.8;"/>
   </g>
   <g id="patch_17">
    <path d="M 180 496.173913 
L 1296 496.173913 
" style="fill:none;stroke:#000000;stroke-linecap:square;stroke-linejoin:miter;stroke-width:0.8;"/>
   </g>
   <g id="patch_18">
    <path d="M 180 375.652174 
L 1296 375.652174 
" style="fill:none;stroke:#000000;stroke-linecap:square;stroke-linejoin:miter;stroke-width:0.8;"/>
   </g>
   <g id="legend_3">
    <g id="patch_19">
     <path d="M 1234.3125 413.008424 
L 1289 413.008424 
Q 1291 413.008424 1291 411.008424 
L 1291 382.652174 
Q 1291 380.652174 1289 380.652174 
L 1234.3125 380.652174 
Q 1232.3125 380.652174 1232.3125 382.652174 
L 1232.3125 411.008424 
Q 1232.3125 413.008424 1234.3125 413.008424 
z
" style="fill:#ffffff;opacity:0.8;stroke:#cccccc;stroke-linejoin:miter;"/>
    </g>
    <g id="line2d_47">
     <path d="M 1236.3125 388.750611 
L 1256.3125 388.750611 
" style="fill:none;stroke:#000000;stroke-linecap:square;stroke-width:4;"/>
    </g>
    <g id="line2d_48"/>
    <g id="text_40">
     <!-- Pred -->
     <g transform="translate(1264.3125 392.250611)scale(0.1 -0.1)">
      <use xlink:href="#DejaVuSans-80"/>
      <use x="60.287109" xlink:href="#DejaVuSans-114"/>
      <use x="101.369141" xlink:href="#DejaVuSans-101"/>
      <use x="162.892578" xlink:href="#DejaVuSans-100"/>
     </g>
    </g>
    <g id="line2d_49">
     <path d="M 1236.3125 403.428736 
L 1256.3125 403.428736 
" style="fill:none;stroke:#ff0000;stroke-linecap:square;stroke-width:1.5;"/>
    </g>
    <g id="line2d_50"/>
    <g id="text_41">
     <!-- True -->
     <g transform="translate(1264.3125 406.928736)scale(0.1 -0.1)">
      <use xlink:href="#DejaVuSans-84"/>
      <use x="60.865234" xlink:href="#DejaVuSans-114"/>
      <use x="101.978516" xlink:href="#DejaVuSans-117"/>
      <use x="165.357422" xlink:href="#DejaVuSans-101"/>
     </g>
    </g>
   </g>
  </g>
  <g id="axes_4">
   <g id="patch_20">
    <path d="M 180 640.8 
L 1296 640.8 
L 1296 520.278261 
L 180 520.278261 
z
" style="fill:#ffffff;"/>
   </g>
   <g id="matplotlib.axis_7">
    <g id="xtick_19">
     <g id="line2d_51">
      <g>
       <use style="stroke:#000000;stroke-width:0.8;" x="230.727273" xlink:href="#m6960f2ebb2" y="640.8"/>
      </g>
     </g>
     <g id="text_42">
      <!-- 0 -->
      <g transform="translate(227.546023 655.398438)scale(0.1 -0.1)">
       <use xlink:href="#DejaVuSans-48"/>
      </g>
     </g>
    </g>
    <g id="xtick_20">
     <g id="line2d_52">
      <g>
       <use style="stroke:#000000;stroke-width:0.8;" x="434.656007" xlink:href="#m6960f2ebb2" y="640.8"/>
      </g>
     </g>
     <g id="text_43">
      <!-- 2 -->
      <g transform="translate(431.474757 655.398438)scale(0.1 -0.1)">
       <use xlink:href="#DejaVuSans-50"/>
      </g>
     </g>
    </g>
    <g id="xtick_21">
     <g id="line2d_53">
      <g>
       <use style="stroke:#000000;stroke-width:0.8;" x="638.584742" xlink:href="#m6960f2ebb2" y="640.8"/>
      </g>
     </g>
     <g id="text_44">
      <!-- 4 -->
      <g transform="translate(635.403492 655.398438)scale(0.1 -0.1)">
       <use xlink:href="#DejaVuSans-52"/>
      </g>
     </g>
    </g>
    <g id="xtick_22">
     <g id="line2d_54">
      <g>
       <use style="stroke:#000000;stroke-width:0.8;" x="842.513476" xlink:href="#m6960f2ebb2" y="640.8"/>
      </g>
     </g>
     <g id="text_45">
      <!-- 6 -->
      <g transform="translate(839.332226 655.398438)scale(0.1 -0.1)">
       <use xlink:href="#DejaVuSans-54"/>
      </g>
     </g>
    </g>
    <g id="xtick_23">
     <g id="line2d_55">
      <g>
       <use style="stroke:#000000;stroke-width:0.8;" x="1046.442211" xlink:href="#m6960f2ebb2" y="640.8"/>
      </g>
     </g>
     <g id="text_46">
      <!-- 8 -->
      <g transform="translate(1043.260961 655.398438)scale(0.1 -0.1)">
       <use xlink:href="#DejaVuSans-56"/>
      </g>
     </g>
    </g>
    <g id="xtick_24">
     <g id="line2d_56">
      <g>
       <use style="stroke:#000000;stroke-width:0.8;" x="1250.370946" xlink:href="#m6960f2ebb2" y="640.8"/>
      </g>
     </g>
     <g id="text_47">
      <!-- 10 -->
      <g transform="translate(1244.008446 655.398438)scale(0.1 -0.1)">
       <use xlink:href="#DejaVuSans-49"/>
       <use x="63.623047" xlink:href="#DejaVuSans-48"/>
      </g>
     </g>
    </g>
    <g id="text_48">
     <!-- Time -->
     <defs>
      <path d="M 9.421875 54.6875 
L 18.40625 54.6875 
L 18.40625 0 
L 9.421875 0 
z
M 9.421875 75.984375 
L 18.40625 75.984375 
L 18.40625 64.59375 
L 9.421875 64.59375 
z
" id="DejaVuSans-105"/>
      <path d="M 52 44.1875 
Q 55.375 50.25 60.0625 53.125 
Q 64.75 56 71.09375 56 
Q 79.640625 56 84.28125 50.015625 
Q 88.921875 44.046875 88.921875 33.015625 
L 88.921875 0 
L 79.890625 0 
L 79.890625 32.71875 
Q 79.890625 40.578125 77.09375 44.375 
Q 74.3125 48.1875 68.609375 48.1875 
Q 61.625 48.1875 57.5625 43.546875 
Q 53.515625 38.921875 53.515625 30.90625 
L 53.515625 0 
L 44.484375 0 
L 44.484375 32.71875 
Q 44.484375 40.625 41.703125 44.40625 
Q 38.921875 48.1875 33.109375 48.1875 
Q 26.21875 48.1875 22.15625 43.53125 
Q 18.109375 38.875 18.109375 30.90625 
L 18.109375 0 
L 9.078125 0 
L 9.078125 54.6875 
L 18.109375 54.6875 
L 18.109375 46.1875 
Q 21.1875 51.21875 25.484375 53.609375 
Q 29.78125 56 35.6875 56 
Q 41.65625 56 45.828125 52.96875 
Q 50 49.953125 52 44.1875 
z
" id="DejaVuSans-109"/>
     </defs>
     <g transform="translate(725.6125 669.076563)scale(0.1 -0.1)">
      <use xlink:href="#DejaVuSans-84"/>
      <use x="61.037109" xlink:href="#DejaVuSans-105"/>
      <use x="88.820312" xlink:href="#DejaVuSans-109"/>
      <use x="186.232422" xlink:href="#DejaVuSans-101"/>
     </g>
    </g>
   </g>
   <g id="matplotlib.axis_8">
    <g id="ytick_15">
     <g id="line2d_57">
      <g>
       <use style="stroke:#000000;stroke-width:0.8;" x="180" xlink:href="#m83c9ed04ef" y="635.334306"/>
      </g>
     </g>
     <g id="text_49">
      <!-- −1.0 -->
      <g transform="translate(148.717187 639.133524)scale(0.1 -0.1)">
       <use xlink:href="#DejaVuSans-8722"/>
       <use x="83.789062" xlink:href="#DejaVuSans-49"/>
       <use x="147.412109" xlink:href="#DejaVuSans-46"/>
       <use x="179.199219" xlink:href="#DejaVuSans-48"/>
      </g>
     </g>
    </g>
    <g id="ytick_16">
     <g id="line2d_58">
      <g>
       <use style="stroke:#000000;stroke-width:0.8;" x="180" xlink:href="#m83c9ed04ef" y="607.866324"/>
      </g>
     </g>
     <g id="text_50">
      <!-- −0.5 -->
      <g transform="translate(148.717187 611.665543)scale(0.1 -0.1)">
       <use xlink:href="#DejaVuSans-8722"/>
       <use x="83.789062" xlink:href="#DejaVuSans-48"/>
       <use x="147.412109" xlink:href="#DejaVuSans-46"/>
       <use x="179.199219" xlink:href="#DejaVuSans-53"/>
      </g>
     </g>
    </g>
    <g id="ytick_17">
     <g id="line2d_59">
      <g>
       <use style="stroke:#000000;stroke-width:0.8;" x="180" xlink:href="#m83c9ed04ef" y="580.398342"/>
      </g>
     </g>
     <g id="text_51">
      <!-- 0.0 -->
      <g transform="translate(157.096875 584.197561)scale(0.1 -0.1)">
       <use xlink:href="#DejaVuSans-48"/>
       <use x="63.623047" xlink:href="#DejaVuSans-46"/>
       <use x="95.410156" xlink:href="#DejaVuSans-48"/>
      </g>
     </g>
    </g>
    <g id="ytick_18">
     <g id="line2d_60">
      <g>
       <use style="stroke:#000000;stroke-width:0.8;" x="180" xlink:href="#m83c9ed04ef" y="552.93036"/>
      </g>
     </g>
     <g id="text_52">
      <!-- 0.5 -->
      <g transform="translate(157.096875 556.729579)scale(0.1 -0.1)">
       <use xlink:href="#DejaVuSans-48"/>
       <use x="63.623047" xlink:href="#DejaVuSans-46"/>
       <use x="95.410156" xlink:href="#DejaVuSans-53"/>
      </g>
     </g>
    </g>
    <g id="ytick_19">
     <g id="line2d_61">
      <g>
       <use style="stroke:#000000;stroke-width:0.8;" x="180" xlink:href="#m83c9ed04ef" y="525.462378"/>
      </g>
     </g>
     <g id="text_53">
      <!-- 1.0 -->
      <g transform="translate(157.096875 529.261597)scale(0.1 -0.1)">
       <use xlink:href="#DejaVuSans-49"/>
       <use x="63.623047" xlink:href="#DejaVuSans-46"/>
       <use x="95.410156" xlink:href="#DejaVuSans-48"/>
      </g>
     </g>
    </g>
    <g id="text_54">
     <!-- Control Input -->
     <defs>
      <path d="M 64.40625 67.28125 
L 64.40625 56.890625 
Q 59.421875 61.53125 53.78125 63.8125 
Q 48.140625 66.109375 41.796875 66.109375 
Q 29.296875 66.109375 22.65625 58.46875 
Q 16.015625 50.828125 16.015625 36.375 
Q 16.015625 21.96875 22.65625 14.328125 
Q 29.296875 6.6875 41.796875 6.6875 
Q 48.140625 6.6875 53.78125 8.984375 
Q 59.421875 11.28125 64.40625 15.921875 
L 64.40625 5.609375 
Q 59.234375 2.09375 53.4375 0.328125 
Q 47.65625 -1.421875 41.21875 -1.421875 
Q 24.65625 -1.421875 15.125 8.703125 
Q 5.609375 18.84375 5.609375 36.375 
Q 5.609375 53.953125 15.125 64.078125 
Q 24.65625 74.21875 41.21875 74.21875 
Q 47.75 74.21875 53.53125 72.484375 
Q 59.328125 70.75 64.40625 67.28125 
z
" id="DejaVuSans-67"/>
      <path d="M 30.609375 48.390625 
Q 23.390625 48.390625 19.1875 42.75 
Q 14.984375 37.109375 14.984375 27.296875 
Q 14.984375 17.484375 19.15625 11.84375 
Q 23.34375 6.203125 30.609375 6.203125 
Q 37.796875 6.203125 41.984375 11.859375 
Q 46.1875 17.53125 46.1875 27.296875 
Q 46.1875 37.015625 41.984375 42.703125 
Q 37.796875 48.390625 30.609375 48.390625 
z
M 30.609375 56 
Q 42.328125 56 49.015625 48.375 
Q 55.71875 40.765625 55.71875 27.296875 
Q 55.71875 13.875 49.015625 6.21875 
Q 42.328125 -1.421875 30.609375 -1.421875 
Q 18.84375 -1.421875 12.171875 6.21875 
Q 5.515625 13.875 5.515625 27.296875 
Q 5.515625 40.765625 12.171875 48.375 
Q 18.84375 56 30.609375 56 
z
" id="DejaVuSans-111"/>
      <path d="M 54.890625 33.015625 
L 54.890625 0 
L 45.90625 0 
L 45.90625 32.71875 
Q 45.90625 40.484375 42.875 44.328125 
Q 39.84375 48.1875 33.796875 48.1875 
Q 26.515625 48.1875 22.3125 43.546875 
Q 18.109375 38.921875 18.109375 30.90625 
L 18.109375 0 
L 9.078125 0 
L 9.078125 54.6875 
L 18.109375 54.6875 
L 18.109375 46.1875 
Q 21.34375 51.125 25.703125 53.5625 
Q 30.078125 56 35.796875 56 
Q 45.21875 56 50.046875 50.171875 
Q 54.890625 44.34375 54.890625 33.015625 
z
" id="DejaVuSans-110"/>
      <path d="M 9.421875 75.984375 
L 18.40625 75.984375 
L 18.40625 0 
L 9.421875 0 
z
" id="DejaVuSans-108"/>
      <path d="M 9.8125 72.90625 
L 19.671875 72.90625 
L 19.671875 0 
L 9.8125 0 
z
" id="DejaVuSans-73"/>
      <path d="M 18.109375 8.203125 
L 18.109375 -20.796875 
L 9.078125 -20.796875 
L 9.078125 54.6875 
L 18.109375 54.6875 
L 18.109375 46.390625 
Q 20.953125 51.265625 25.265625 53.625 
Q 29.59375 56 35.59375 56 
Q 45.5625 56 51.78125 48.09375 
Q 58.015625 40.1875 58.015625 27.296875 
Q 58.015625 14.40625 51.78125 6.484375 
Q 45.5625 -1.421875 35.59375 -1.421875 
Q 29.59375 -1.421875 25.265625 0.953125 
Q 20.953125 3.328125 18.109375 8.203125 
z
M 48.6875 27.296875 
Q 48.6875 37.203125 44.609375 42.84375 
Q 40.53125 48.484375 33.40625 48.484375 
Q 26.265625 48.484375 22.1875 42.84375 
Q 18.109375 37.203125 18.109375 27.296875 
Q 18.109375 17.390625 22.1875 11.75 
Q 26.265625 6.109375 33.40625 6.109375 
Q 40.53125 6.109375 44.609375 11.75 
Q 48.6875 17.390625 48.6875 27.296875 
z
" id="DejaVuSans-112"/>
     </defs>
     <g transform="translate(142.6375 613.257099)rotate(-90)scale(0.1 -0.1)">
      <use xlink:href="#DejaVuSans-67"/>
      <use x="69.824219" xlink:href="#DejaVuSans-111"/>
      <use x="131.005859" xlink:href="#DejaVuSans-110"/>
      <use x="194.384766" xlink:href="#DejaVuSans-116"/>
      <use x="233.59375" xlink:href="#DejaVuSans-114"/>
      <use x="274.675781" xlink:href="#DejaVuSans-111"/>
      <use x="335.857422" xlink:href="#DejaVuSans-108"/>
      <use x="363.640625" xlink:href="#DejaVuSans-32"/>
      <use x="395.427734" xlink:href="#DejaVuSans-73"/>
      <use x="424.919922" xlink:href="#DejaVuSans-110"/>
      <use x="488.298828" xlink:href="#DejaVuSans-112"/>
      <use x="551.775391" xlink:href="#DejaVuSans-117"/>
      <use x="615.154297" xlink:href="#DejaVuSans-116"/>
     </g>
    </g>
   </g>
   <g id="line2d_62">
    <path clip-path="url(#p250908dc29)" d="M 230.727273 589.515294 
L 235.825491 556.190865 
L 240.923709 635.321739 
L 246.021928 602.116443 
L 251.120146 619.209953 
L 256.218365 625.188886 
L 261.316583 614.869537 
L 266.414801 597.366883 
L 271.51302 591.740699 
L 276.611238 576.133473 
L 281.709456 589.276596 
L 286.807675 560.047918 
L 291.905893 612.870743 
L 297.004111 538.85385 
L 302.10233 632.325178 
L 307.200548 561.668748 
L 312.298767 589.484223 
L 317.396985 573.949977 
L 322.495203 619.909722 
L 327.593422 613.568513 
L 332.69164 547.354956 
L 337.789858 528.94954 
L 342.888077 600.897787 
L 347.986295 559.267485 
L 353.084513 539.04374 
L 358.182732 537.042147 
L 363.28095 625.990334 
L 368.379169 631.043281 
L 373.477387 616.67471 
L 378.575605 538.851096 
L 383.673824 624.52875 
L 388.772042 589.066399 
L 393.87026 530.089137 
L 398.968479 576.754408 
L 404.066697 559.316434 
L 409.164915 600.667995 
L 414.263134 559.907126 
L 419.361352 543.632374 
L 424.459571 633.324937 
L 429.557789 552.914504 
L 434.656007 526.686232 
L 439.754226 553.131903 
L 444.852444 604.521384 
L 449.950662 548.614665 
L 455.048881 623.992665 
L 460.147099 586.123381 
L 465.245317 535.505166 
L 470.343536 603.074353 
L 475.441754 603.715875 
L 480.539973 621.047816 
L 485.638191 633.206421 
L 490.736409 560.749337 
L 495.834628 612.082317 
L 500.932846 606.158182 
L 506.031064 581.324215 
L 511.129283 629.47126 
L 516.227501 572.254898 
L 521.32572 619.212954 
L 526.423938 570.58617 
L 531.522156 558.450506 
L 536.620375 624.090625 
L 541.718593 589.841176 
L 546.816811 559.039222 
L 551.91503 589.827631 
L 557.013248 629.845823 
L 562.111466 576.454335 
L 567.209685 562.401909 
L 572.307903 578.762446 
L 577.406122 531.549859 
L 582.50434 570.888373 
L 587.602558 536.075796 
L 592.700777 620.229695 
L 597.798995 620.031745 
L 602.897213 546.624669 
L 607.995432 591.640785 
L 613.09365 617.166521 
L 618.191868 533.42715 
L 623.290087 597.1246 
L 628.388305 552.841133 
L 633.486524 555.567508 
L 638.584742 538.283763 
L 643.68296 566.810238 
L 648.781179 552.826813 
L 653.879397 597.000172 
L 658.977615 605.676808 
L 664.075834 536.90156 
L 669.174052 588.299102 
L 674.27227 529.32547 
L 679.370489 562.44071 
L 684.468707 567.027399 
L 689.566926 622.726944 
L 694.665144 531.012091 
L 699.763362 585.901592 
L 704.861581 571.785524 
L 715.058017 609.291695 
L 720.156236 536.078256 
L 725.254454 572.303035 
L 730.352672 635.018937 
L 735.450891 567.527404 
L 740.549109 599.445201 
L 745.647328 577.425416 
L 750.745546 537.99414 
L 755.843764 596.080389 
L 760.941983 535.511797 
L 766.040201 566.844528 
L 771.138419 633.595995 
L 776.236638 533.215245 
L 781.334856 559.42413 
L 786.433074 525.756522 
L 791.531293 616.398922 
L 796.629511 620.266937 
L 801.72773 532.868245 
L 806.825948 558.773551 
L 811.924166 628.08274 
L 817.022385 552.330124 
L 822.120603 552.504476 
L 827.218821 533.919821 
L 832.31704 557.157709 
L 837.415258 621.680416 
L 842.513476 633.150037 
L 847.611695 632.454454 
L 852.709913 632.224217 
L 857.808132 608.282621 
L 862.90635 540.841377 
L 868.004568 576.131898 
L 873.102787 574.594689 
L 878.201005 542.818749 
L 883.299223 621.691144 
L 888.397442 604.659857 
L 893.49566 570.975805 
L 898.593878 528.802952 
L 903.692097 573.692834 
L 908.790315 633.285492 
L 913.888534 547.367251 
L 918.986752 609.736973 
L 924.08497 546.656102 
L 929.183189 592.719309 
L 934.281407 540.455298 
L 939.379625 553.246611 
L 944.477844 574.219119 
L 949.576062 620.341707 
L 954.67428 628.751034 
L 959.772499 622.002066 
L 964.870717 630.439305 
L 969.968936 623.523719 
L 975.067154 610.535186 
L 980.165372 556.996832 
L 985.263591 573.837122 
L 990.361809 633.954756 
L 995.460027 627.426353 
L 1000.558246 529.057791 
L 1005.656464 572.916013 
L 1010.754683 612.998086 
L 1015.852901 607.61079 
L 1020.951119 553.608725 
L 1026.049338 613.862092 
L 1036.245774 528.75634 
L 1041.343993 542.291593 
L 1046.442211 608.98177 
L 1051.540429 581.082875 
L 1056.638648 567.218576 
L 1061.736866 544.252576 
L 1066.835085 618.107333 
L 1071.933303 633.293303 
L 1077.031521 627.640838 
L 1082.12974 581.898631 
L 1087.227958 568.715719 
L 1092.326176 572.833502 
L 1097.424395 600.465086 
L 1102.522613 526.713143 
L 1107.620831 571.636581 
L 1112.71905 593.567462 
L 1117.817268 574.800563 
L 1122.915487 553.442975 
L 1128.013705 561.804398 
L 1133.111923 606.227083 
L 1138.210142 628.04597 
L 1143.30836 594.672442 
L 1148.406578 566.146029 
L 1153.504797 612.242082 
L 1158.603015 552.627602 
L 1163.701233 628.023814 
L 1168.799452 606.732984 
L 1173.89767 546.914371 
L 1178.995889 614.081308 
L 1184.094107 565.075506 
L 1189.192325 577.687768 
L 1194.290544 533.723871 
L 1199.388762 606.405382 
L 1204.48698 628.087034 
L 1209.585199 554.571191 
L 1214.683417 550.493617 
L 1219.781635 535.590828 
L 1224.879854 532.936738 
L 1229.978072 633.801419 
L 1235.076291 609.584492 
L 1240.174509 567.567679 
L 1245.272727 531.064053 
L 1245.272727 531.064053 
" style="fill:none;stroke:#ff0000;stroke-linecap:square;stroke-width:1.5;"/>
   </g>
   <g id="patch_21">
    <path d="M 180 640.8 
L 180 520.278261 
" style="fill:none;stroke:#000000;stroke-linecap:square;stroke-linejoin:miter;stroke-width:0.8;"/>
   </g>
   <g id="patch_22">
    <path d="M 1296 640.8 
L 1296 520.278261 
" style="fill:none;stroke:#000000;stroke-linecap:square;stroke-linejoin:miter;stroke-width:0.8;"/>
   </g>
   <g id="patch_23">
    <path d="M 180 640.8 
L 1296 640.8 
" style="fill:none;stroke:#000000;stroke-linecap:square;stroke-linejoin:miter;stroke-width:0.8;"/>
   </g>
   <g id="patch_24">
    <path d="M 180 520.278261 
L 1296 520.278261 
" style="fill:none;stroke:#000000;stroke-linecap:square;stroke-linejoin:miter;stroke-width:0.8;"/>
   </g>
   <g id="legend_4">
    <g id="patch_25">
     <path d="M 1194.742188 542.956386 
L 1289 542.956386 
Q 1291 542.956386 1291 540.956386 
L 1291 527.278261 
Q 1291 525.278261 1289 525.278261 
L 1194.742188 525.278261 
Q 1192.742188 525.278261 1192.742188 527.278261 
L 1192.742188 540.956386 
Q 1192.742188 542.956386 1194.742188 542.956386 
z
" style="fill:#ffffff;opacity:0.8;stroke:#cccccc;stroke-linejoin:miter;"/>
    </g>
    <g id="line2d_63">
     <path d="M 1196.742188 533.376698 
L 1216.742188 533.376698 
" style="fill:none;stroke:#ff0000;stroke-linecap:square;stroke-width:1.5;"/>
    </g>
    <g id="line2d_64"/>
    <g id="text_55">
     <!-- ControlInput -->
     <g transform="translate(1224.742188 536.876698)scale(0.1 -0.1)">
      <use xlink:href="#DejaVuSans-67"/>
      <use x="69.824219" xlink:href="#DejaVuSans-111"/>
      <use x="131.005859" xlink:href="#DejaVuSans-110"/>
      <use x="194.384766" xlink:href="#DejaVuSans-116"/>
      <use x="233.59375" xlink:href="#DejaVuSans-114"/>
      <use x="274.675781" xlink:href="#DejaVuSans-111"/>
      <use x="335.857422" xlink:href="#DejaVuSans-108"/>
      <use x="363.640625" xlink:href="#DejaVuSans-73"/>
      <use x="393.132812" xlink:href="#DejaVuSans-110"/>
      <use x="456.511719" xlink:href="#DejaVuSans-112"/>
      <use x="519.988281" xlink:href="#DejaVuSans-117"/>
      <use x="583.367188" xlink:href="#DejaVuSans-116"/>
     </g>
    </g>
   </g>
  </g>
 </g>
 <defs>
  <clipPath id="pd92a235ce1">
   <rect height="120.521739" width="1116" x="180" y="86.4"/>
  </clipPath>
  <clipPath id="p77a5424fc4">
   <rect height="120.521739" width="1116" x="180" y="231.026087"/>
  </clipPath>
  <clipPath id="p2ef1f82d8c">
   <rect height="120.521739" width="1116" x="180" y="375.652174"/>
  </clipPath>
  <clipPath id="p250908dc29">
   <rect height="120.521739" width="1116" x="180" y="520.278261"/>
  </clipPath>
 </defs>
</svg>
