<?xml version="1.0" encoding="utf-8" standalone="no"?>
<!DOCTYPE svg PUBLIC "-//W3C//DTD SVG 1.1//EN"
  "http://www.w3.org/Graphics/SVG/1.1/DTD/svg11.dtd">
<!-- Created with matplotlib (https://matplotlib.org/) -->
<svg height="720pt" version="1.1" viewBox="0 0 1440 720" width="1440pt" xmlns="http://www.w3.org/2000/svg" xmlns:xlink="http://www.w3.org/1999/xlink">
 <defs>
  <style type="text/css">
*{stroke-linecap:butt;stroke-linejoin:round;}
  </style>
 </defs>
 <g id="figure_1">
  <g id="patch_1">
   <path d="M 0 720 
L 1440 720 
L 1440 0 
L 0 0 
z
" style="fill:#ffffff;"/>
  </g>
  <g id="axes_1">
   <g id="patch_2">
    <path d="M 180 206.921739 
L 1296 206.921739 
L 1296 86.4 
L 180 86.4 
z
" style="fill:#ffffff;"/>
   </g>
   <g id="matplotlib.axis_1">
    <g id="xtick_1">
     <g id="line2d_1">
      <defs>
       <path d="M 0 0 
L 0 3.5 
" id="m0fc8dcd1f7" style="stroke:#000000;stroke-width:0.8;"/>
      </defs>
      <g>
       <use style="stroke:#000000;stroke-width:0.8;" x="230.727273" xlink:href="#m0fc8dcd1f7" y="206.921739"/>
      </g>
     </g>
     <g id="text_1">
      <!-- 0 -->
      <defs>
       <path d="M 31.78125 66.40625 
Q 24.171875 66.40625 20.328125 58.90625 
Q 16.5 51.421875 16.5 36.375 
Q 16.5 21.390625 20.328125 13.890625 
Q 24.171875 6.390625 31.78125 6.390625 
Q 39.453125 6.390625 43.28125 13.890625 
Q 47.125 21.390625 47.125 36.375 
Q 47.125 51.421875 43.28125 58.90625 
Q 39.453125 66.40625 31.78125 66.40625 
z
M 31.78125 74.21875 
Q 44.046875 74.21875 50.515625 64.515625 
Q 56.984375 54.828125 56.984375 36.375 
Q 56.984375 17.96875 50.515625 8.265625 
Q 44.046875 -1.421875 31.78125 -1.421875 
Q 19.53125 -1.421875 13.0625 8.265625 
Q 6.59375 17.96875 6.59375 36.375 
Q 6.59375 54.828125 13.0625 64.515625 
Q 19.53125 74.21875 31.78125 74.21875 
z
" id="DejaVuSans-48"/>
      </defs>
      <g transform="translate(227.546023 221.520177)scale(0.1 -0.1)">
       <use xlink:href="#DejaVuSans-48"/>
      </g>
     </g>
    </g>
    <g id="xtick_2">
     <g id="line2d_2">
      <g>
       <use style="stroke:#000000;stroke-width:0.8;" x="434.656007" xlink:href="#m0fc8dcd1f7" y="206.921739"/>
      </g>
     </g>
     <g id="text_2">
      <!-- 2 -->
      <defs>
       <path d="M 19.1875 8.296875 
L 53.609375 8.296875 
L 53.609375 0 
L 7.328125 0 
L 7.328125 8.296875 
Q 12.9375 14.109375 22.625 23.890625 
Q 32.328125 33.6875 34.8125 36.53125 
Q 39.546875 41.84375 41.421875 45.53125 
Q 43.3125 49.21875 43.3125 52.78125 
Q 43.3125 58.59375 39.234375 62.25 
Q 35.15625 65.921875 28.609375 65.921875 
Q 23.96875 65.921875 18.8125 64.3125 
Q 13.671875 62.703125 7.8125 59.421875 
L 7.8125 69.390625 
Q 13.765625 71.78125 18.9375 73 
Q 24.125 74.21875 28.421875 74.21875 
Q 39.75 74.21875 46.484375 68.546875 
Q 53.21875 62.890625 53.21875 53.421875 
Q 53.21875 48.921875 51.53125 44.890625 
Q 49.859375 40.875 45.40625 35.40625 
Q 44.1875 33.984375 37.640625 27.21875 
Q 31.109375 20.453125 19.1875 8.296875 
z
" id="DejaVuSans-50"/>
      </defs>
      <g transform="translate(431.474757 221.520177)scale(0.1 -0.1)">
       <use xlink:href="#DejaVuSans-50"/>
      </g>
     </g>
    </g>
    <g id="xtick_3">
     <g id="line2d_3">
      <g>
       <use style="stroke:#000000;stroke-width:0.8;" x="638.584742" xlink:href="#m0fc8dcd1f7" y="206.921739"/>
      </g>
     </g>
     <g id="text_3">
      <!-- 4 -->
      <defs>
       <path d="M 37.796875 64.3125 
L 12.890625 25.390625 
L 37.796875 25.390625 
z
M 35.203125 72.90625 
L 47.609375 72.90625 
L 47.609375 25.390625 
L 58.015625 25.390625 
L 58.015625 17.1875 
L 47.609375 17.1875 
L 47.609375 0 
L 37.796875 0 
L 37.796875 17.1875 
L 4.890625 17.1875 
L 4.890625 26.703125 
z
" id="DejaVuSans-52"/>
      </defs>
      <g transform="translate(635.403492 221.520177)scale(0.1 -0.1)">
       <use xlink:href="#DejaVuSans-52"/>
      </g>
     </g>
    </g>
    <g id="xtick_4">
     <g id="line2d_4">
      <g>
       <use style="stroke:#000000;stroke-width:0.8;" x="842.513476" xlink:href="#m0fc8dcd1f7" y="206.921739"/>
      </g>
     </g>
     <g id="text_4">
      <!-- 6 -->
      <defs>
       <path d="M 33.015625 40.375 
Q 26.375 40.375 22.484375 35.828125 
Q 18.609375 31.296875 18.609375 23.390625 
Q 18.609375 15.53125 22.484375 10.953125 
Q 26.375 6.390625 33.015625 6.390625 
Q 39.65625 6.390625 43.53125 10.953125 
Q 47.40625 15.53125 47.40625 23.390625 
Q 47.40625 31.296875 43.53125 35.828125 
Q 39.65625 40.375 33.015625 40.375 
z
M 52.59375 71.296875 
L 52.59375 62.3125 
Q 48.875 64.0625 45.09375 64.984375 
Q 41.3125 65.921875 37.59375 65.921875 
Q 27.828125 65.921875 22.671875 59.328125 
Q 17.53125 52.734375 16.796875 39.40625 
Q 19.671875 43.65625 24.015625 45.921875 
Q 28.375 48.1875 33.59375 48.1875 
Q 44.578125 48.1875 50.953125 41.515625 
Q 57.328125 34.859375 57.328125 23.390625 
Q 57.328125 12.15625 50.6875 5.359375 
Q 44.046875 -1.421875 33.015625 -1.421875 
Q 20.359375 -1.421875 13.671875 8.265625 
Q 6.984375 17.96875 6.984375 36.375 
Q 6.984375 53.65625 15.1875 63.9375 
Q 23.390625 74.21875 37.203125 74.21875 
Q 40.921875 74.21875 44.703125 73.484375 
Q 48.484375 72.75 52.59375 71.296875 
z
" id="DejaVuSans-54"/>
      </defs>
      <g transform="translate(839.332226 221.520177)scale(0.1 -0.1)">
       <use xlink:href="#DejaVuSans-54"/>
      </g>
     </g>
    </g>
    <g id="xtick_5">
     <g id="line2d_5">
      <g>
       <use style="stroke:#000000;stroke-width:0.8;" x="1046.442211" xlink:href="#m0fc8dcd1f7" y="206.921739"/>
      </g>
     </g>
     <g id="text_5">
      <!-- 8 -->
      <defs>
       <path d="M 31.78125 34.625 
Q 24.75 34.625 20.71875 30.859375 
Q 16.703125 27.09375 16.703125 20.515625 
Q 16.703125 13.921875 20.71875 10.15625 
Q 24.75 6.390625 31.78125 6.390625 
Q 38.8125 6.390625 42.859375 10.171875 
Q 46.921875 13.96875 46.921875 20.515625 
Q 46.921875 27.09375 42.890625 30.859375 
Q 38.875 34.625 31.78125 34.625 
z
M 21.921875 38.8125 
Q 15.578125 40.375 12.03125 44.71875 
Q 8.5 49.078125 8.5 55.328125 
Q 8.5 64.0625 14.71875 69.140625 
Q 20.953125 74.21875 31.78125 74.21875 
Q 42.671875 74.21875 48.875 69.140625 
Q 55.078125 64.0625 55.078125 55.328125 
Q 55.078125 49.078125 51.53125 44.71875 
Q 48 40.375 41.703125 38.8125 
Q 48.828125 37.15625 52.796875 32.3125 
Q 56.78125 27.484375 56.78125 20.515625 
Q 56.78125 9.90625 50.3125 4.234375 
Q 43.84375 -1.421875 31.78125 -1.421875 
Q 19.734375 -1.421875 13.25 4.234375 
Q 6.78125 9.90625 6.78125 20.515625 
Q 6.78125 27.484375 10.78125 32.3125 
Q 14.796875 37.15625 21.921875 38.8125 
z
M 18.3125 54.390625 
Q 18.3125 48.734375 21.84375 45.5625 
Q 25.390625 42.390625 31.78125 42.390625 
Q 38.140625 42.390625 41.71875 45.5625 
Q 45.3125 48.734375 45.3125 54.390625 
Q 45.3125 60.0625 41.71875 63.234375 
Q 38.140625 66.40625 31.78125 66.40625 
Q 25.390625 66.40625 21.84375 63.234375 
Q 18.3125 60.0625 18.3125 54.390625 
z
" id="DejaVuSans-56"/>
      </defs>
      <g transform="translate(1043.260961 221.520177)scale(0.1 -0.1)">
       <use xlink:href="#DejaVuSans-56"/>
      </g>
     </g>
    </g>
    <g id="xtick_6">
     <g id="line2d_6">
      <g>
       <use style="stroke:#000000;stroke-width:0.8;" x="1250.370946" xlink:href="#m0fc8dcd1f7" y="206.921739"/>
      </g>
     </g>
     <g id="text_6">
      <!-- 10 -->
      <defs>
       <path d="M 12.40625 8.296875 
L 28.515625 8.296875 
L 28.515625 63.921875 
L 10.984375 60.40625 
L 10.984375 69.390625 
L 28.421875 72.90625 
L 38.28125 72.90625 
L 38.28125 8.296875 
L 54.390625 8.296875 
L 54.390625 0 
L 12.40625 0 
z
" id="DejaVuSans-49"/>
      </defs>
      <g transform="translate(1244.008446 221.520177)scale(0.1 -0.1)">
       <use xlink:href="#DejaVuSans-49"/>
       <use x="63.623047" xlink:href="#DejaVuSans-48"/>
      </g>
     </g>
    </g>
   </g>
   <g id="matplotlib.axis_2">
    <g id="ytick_1">
     <g id="line2d_7">
      <defs>
       <path d="M 0 0 
L -3.5 0 
" id="m0930ee8b20" style="stroke:#000000;stroke-width:0.8;"/>
      </defs>
      <g>
       <use style="stroke:#000000;stroke-width:0.8;" x="180" xlink:href="#m0930ee8b20" y="201.443765"/>
      </g>
     </g>
     <g id="text_7">
      <!-- −1.0 -->
      <defs>
       <path d="M 10.59375 35.5 
L 73.1875 35.5 
L 73.1875 27.203125 
L 10.59375 27.203125 
z
" id="DejaVuSans-8722"/>
       <path d="M 10.6875 12.40625 
L 21 12.40625 
L 21 0 
L 10.6875 0 
z
" id="DejaVuSans-46"/>
      </defs>
      <g transform="translate(148.717187 205.242984)scale(0.1 -0.1)">
       <use xlink:href="#DejaVuSans-8722"/>
       <use x="83.789062" xlink:href="#DejaVuSans-49"/>
       <use x="147.412109" xlink:href="#DejaVuSans-46"/>
       <use x="179.199219" xlink:href="#DejaVuSans-48"/>
      </g>
     </g>
    </g>
    <g id="ytick_2">
     <g id="line2d_8">
      <g>
       <use style="stroke:#000000;stroke-width:0.8;" x="180" xlink:href="#m0930ee8b20" y="170.219625"/>
      </g>
     </g>
     <g id="text_8">
      <!-- −0.8 -->
      <g transform="translate(148.717187 174.018844)scale(0.1 -0.1)">
       <use xlink:href="#DejaVuSans-8722"/>
       <use x="83.789062" xlink:href="#DejaVuSans-48"/>
       <use x="147.412109" xlink:href="#DejaVuSans-46"/>
       <use x="179.199219" xlink:href="#DejaVuSans-56"/>
      </g>
     </g>
    </g>
    <g id="ytick_3">
     <g id="line2d_9">
      <g>
       <use style="stroke:#000000;stroke-width:0.8;" x="180" xlink:href="#m0930ee8b20" y="138.995484"/>
      </g>
     </g>
     <g id="text_9">
      <!-- −0.6 -->
      <g transform="translate(148.717187 142.794703)scale(0.1 -0.1)">
       <use xlink:href="#DejaVuSans-8722"/>
       <use x="83.789062" xlink:href="#DejaVuSans-48"/>
       <use x="147.412109" xlink:href="#DejaVuSans-46"/>
       <use x="179.199219" xlink:href="#DejaVuSans-54"/>
      </g>
     </g>
    </g>
    <g id="ytick_4">
     <g id="line2d_10">
      <g>
       <use style="stroke:#000000;stroke-width:0.8;" x="180" xlink:href="#m0930ee8b20" y="107.771344"/>
      </g>
     </g>
     <g id="text_10">
      <!-- −0.4 -->
      <g transform="translate(148.717187 111.570563)scale(0.1 -0.1)">
       <use xlink:href="#DejaVuSans-8722"/>
       <use x="83.789062" xlink:href="#DejaVuSans-48"/>
       <use x="147.412109" xlink:href="#DejaVuSans-46"/>
       <use x="179.199219" xlink:href="#DejaVuSans-52"/>
      </g>
     </g>
    </g>
    <g id="text_11">
     <!-- TD State:0 -->
     <defs>
      <path d="M -0.296875 72.90625 
L 61.375 72.90625 
L 61.375 64.59375 
L 35.5 64.59375 
L 35.5 0 
L 25.59375 0 
L 25.59375 64.59375 
L -0.296875 64.59375 
z
" id="DejaVuSans-84"/>
      <path d="M 19.671875 64.796875 
L 19.671875 8.109375 
L 31.59375 8.109375 
Q 46.6875 8.109375 53.6875 14.9375 
Q 60.6875 21.78125 60.6875 36.53125 
Q 60.6875 51.171875 53.6875 57.984375 
Q 46.6875 64.796875 31.59375 64.796875 
z
M 9.8125 72.90625 
L 30.078125 72.90625 
Q 51.265625 72.90625 61.171875 64.09375 
Q 71.09375 55.28125 71.09375 36.53125 
Q 71.09375 17.671875 61.125 8.828125 
Q 51.171875 0 30.078125 0 
L 9.8125 0 
z
" id="DejaVuSans-68"/>
      <path id="DejaVuSans-32"/>
      <path d="M 53.515625 70.515625 
L 53.515625 60.890625 
Q 47.90625 63.578125 42.921875 64.890625 
Q 37.9375 66.21875 33.296875 66.21875 
Q 25.25 66.21875 20.875 63.09375 
Q 16.5 59.96875 16.5 54.203125 
Q 16.5 49.359375 19.40625 46.890625 
Q 22.3125 44.4375 30.421875 42.921875 
L 36.375 41.703125 
Q 47.40625 39.59375 52.65625 34.296875 
Q 57.90625 29 57.90625 20.125 
Q 57.90625 9.515625 50.796875 4.046875 
Q 43.703125 -1.421875 29.984375 -1.421875 
Q 24.8125 -1.421875 18.96875 -0.25 
Q 13.140625 0.921875 6.890625 3.21875 
L 6.890625 13.375 
Q 12.890625 10.015625 18.65625 8.296875 
Q 24.421875 6.59375 29.984375 6.59375 
Q 38.421875 6.59375 43.015625 9.90625 
Q 47.609375 13.234375 47.609375 19.390625 
Q 47.609375 24.75 44.3125 27.78125 
Q 41.015625 30.8125 33.5 32.328125 
L 27.484375 33.5 
Q 16.453125 35.6875 11.515625 40.375 
Q 6.59375 45.0625 6.59375 53.421875 
Q 6.59375 63.09375 13.40625 68.65625 
Q 20.21875 74.21875 32.171875 74.21875 
Q 37.3125 74.21875 42.625 73.28125 
Q 47.953125 72.359375 53.515625 70.515625 
z
" id="DejaVuSans-83"/>
      <path d="M 18.3125 70.21875 
L 18.3125 54.6875 
L 36.8125 54.6875 
L 36.8125 47.703125 
L 18.3125 47.703125 
L 18.3125 18.015625 
Q 18.3125 11.328125 20.140625 9.421875 
Q 21.96875 7.515625 27.59375 7.515625 
L 36.8125 7.515625 
L 36.8125 0 
L 27.59375 0 
Q 17.1875 0 13.234375 3.875 
Q 9.28125 7.765625 9.28125 18.015625 
L 9.28125 47.703125 
L 2.6875 47.703125 
L 2.6875 54.6875 
L 9.28125 54.6875 
L 9.28125 70.21875 
z
" id="DejaVuSans-116"/>
      <path d="M 34.28125 27.484375 
Q 23.390625 27.484375 19.1875 25 
Q 14.984375 22.515625 14.984375 16.5 
Q 14.984375 11.71875 18.140625 8.90625 
Q 21.296875 6.109375 26.703125 6.109375 
Q 34.1875 6.109375 38.703125 11.40625 
Q 43.21875 16.703125 43.21875 25.484375 
L 43.21875 27.484375 
z
M 52.203125 31.203125 
L 52.203125 0 
L 43.21875 0 
L 43.21875 8.296875 
Q 40.140625 3.328125 35.546875 0.953125 
Q 30.953125 -1.421875 24.3125 -1.421875 
Q 15.921875 -1.421875 10.953125 3.296875 
Q 6 8.015625 6 15.921875 
Q 6 25.140625 12.171875 29.828125 
Q 18.359375 34.515625 30.609375 34.515625 
L 43.21875 34.515625 
L 43.21875 35.40625 
Q 43.21875 41.609375 39.140625 45 
Q 35.0625 48.390625 27.6875 48.390625 
Q 23 48.390625 18.546875 47.265625 
Q 14.109375 46.140625 10.015625 43.890625 
L 10.015625 52.203125 
Q 14.9375 54.109375 19.578125 55.046875 
Q 24.21875 56 28.609375 56 
Q 40.484375 56 46.34375 49.84375 
Q 52.203125 43.703125 52.203125 31.203125 
z
" id="DejaVuSans-97"/>
      <path d="M 56.203125 29.59375 
L 56.203125 25.203125 
L 14.890625 25.203125 
Q 15.484375 15.921875 20.484375 11.0625 
Q 25.484375 6.203125 34.421875 6.203125 
Q 39.59375 6.203125 44.453125 7.46875 
Q 49.3125 8.734375 54.109375 11.28125 
L 54.109375 2.78125 
Q 49.265625 0.734375 44.1875 -0.34375 
Q 39.109375 -1.421875 33.890625 -1.421875 
Q 20.796875 -1.421875 13.15625 6.1875 
Q 5.515625 13.8125 5.515625 26.8125 
Q 5.515625 40.234375 12.765625 48.109375 
Q 20.015625 56 32.328125 56 
Q 43.359375 56 49.78125 48.890625 
Q 56.203125 41.796875 56.203125 29.59375 
z
M 47.21875 32.234375 
Q 47.125 39.59375 43.09375 43.984375 
Q 39.0625 48.390625 32.421875 48.390625 
Q 24.90625 48.390625 20.390625 44.140625 
Q 15.875 39.890625 15.1875 32.171875 
z
" id="DejaVuSans-101"/>
      <path d="M 11.71875 12.40625 
L 22.015625 12.40625 
L 22.015625 0 
L 11.71875 0 
z
M 11.71875 51.703125 
L 22.015625 51.703125 
L 22.015625 39.3125 
L 11.71875 39.3125 
z
" id="DejaVuSans-58"/>
     </defs>
     <g transform="translate(142.6375 173.25462)rotate(-90)scale(0.1 -0.1)">
      <use xlink:href="#DejaVuSans-84"/>
      <use x="61.083984" xlink:href="#DejaVuSans-68"/>
      <use x="138.085938" xlink:href="#DejaVuSans-32"/>
      <use x="169.873047" xlink:href="#DejaVuSans-83"/>
      <use x="233.349609" xlink:href="#DejaVuSans-116"/>
      <use x="272.558594" xlink:href="#DejaVuSans-97"/>
      <use x="333.837891" xlink:href="#DejaVuSans-116"/>
      <use x="373.046875" xlink:href="#DejaVuSans-101"/>
      <use x="434.570312" xlink:href="#DejaVuSans-58"/>
      <use x="468.261719" xlink:href="#DejaVuSans-48"/>
     </g>
    </g>
   </g>
   <g id="line2d_11">
    <path clip-path="url(#p53681f738c)" d="M 230.727273 103.098368 
L 235.825491 112.829302 
L 240.923709 127.494947 
L 246.021928 143.055403 
L 251.120146 160.328131 
L 256.218365 176.478428 
L 261.316583 189.698563 
L 266.414801 198.447032 
L 271.51302 201.441681 
L 276.611238 198.144971 
L 281.709456 189.034691 
L 286.807675 175.90502 
L 291.905893 160.222039 
L 297.004111 145.671107 
L 302.10233 131.49083 
L 307.200548 122.781529 
L 312.298767 116.748081 
L 317.396985 115.785117 
L 322.495203 119.100551 
L 327.593422 128.155709 
L 332.69164 141.05652 
L 342.888077 168.864432 
L 347.986295 183.152666 
L 353.084513 193.968934 
L 358.182732 200.145914 
L 363.28095 201.224829 
L 368.379169 196.592534 
L 373.477387 186.241183 
L 383.673824 157.242551 
L 388.772042 141.537153 
L 393.87026 128.518493 
L 398.968479 120.775477 
L 404.066697 116.630826 
L 409.164915 117.588464 
L 414.263134 122.046901 
L 419.361352 131.684581 
L 429.557789 158.923376 
L 434.656007 174.478681 
L 439.754226 188.727755 
L 444.852444 198.274819 
L 449.950662 201.443478 
L 455.048881 197.83595 
L 460.147099 188.703523 
L 465.245317 175.21451 
L 470.343536 158.515471 
L 475.441754 143.036859 
L 480.539973 130.091042 
L 485.638191 121.612467 
L 490.736409 118.345002 
L 495.834628 118.104986 
L 500.932846 123.720354 
L 506.031064 133.648374 
L 511.129283 146.482462 
L 516.227501 162.400257 
L 521.32572 177.390114 
L 526.423938 190.749112 
L 531.522156 199.037492 
L 536.620375 201.398625 
L 541.718593 197.106539 
L 546.816811 186.804594 
L 551.91503 172.837549 
L 557.013248 156.568941 
L 562.111466 139.315584 
L 567.209685 125.030911 
L 572.307903 114.814439 
L 577.406122 108.830356 
L 582.50434 109.241933 
L 587.602558 113.993447 
L 592.700777 124.353657 
L 597.798995 136.340334 
L 602.897213 150.57684 
L 607.995432 167.338126 
L 613.09365 182.28847 
L 618.191868 193.70461 
L 623.290087 200.585979 
L 628.388305 200.642207 
L 633.486524 193.861471 
L 638.584742 181.084706 
L 643.68296 163.844694 
L 648.781179 145.337046 
L 653.879397 127.265142 
L 658.977615 113.109363 
L 664.075834 103.579667 
L 669.174052 96.898127 
L 674.27227 96.198617 
L 679.370489 98.642015 
L 684.468707 106.302278 
L 689.566926 118.456191 
L 699.763362 152.889725 
L 704.861581 171.122051 
L 709.959799 186.746223 
L 715.058017 197.640403 
L 720.156236 201.438429 
L 725.254454 197.560707 
L 730.352672 186.911748 
L 735.450891 170.144183 
L 740.549109 151.598884 
L 745.647328 132.487674 
L 750.745546 116.106949 
L 755.843764 104.872972 
L 760.941983 97.133647 
L 766.040201 96.324629 
L 771.138419 100.177745 
L 776.236638 107.006187 
L 781.334856 120.860349 
L 786.433074 138.106173 
L 791.531293 158.111606 
L 796.629511 175.687385 
L 801.72773 189.980561 
L 806.825948 199.498487 
L 811.924166 201.013731 
L 817.022385 194.902223 
L 822.120603 181.652125 
L 827.218821 163.372158 
L 832.31704 142.192882 
L 837.415258 121.722526 
L 842.513476 106.030033 
L 847.611695 95.930596 
L 852.709913 91.878261 
L 857.808132 94.026289 
L 862.90635 101.254835 
L 868.004568 111.401788 
L 873.102787 126.204785 
L 883.299223 161.670966 
L 888.397442 179.890648 
L 893.49566 193.816185 
L 898.593878 200.806515 
L 903.692097 200.216768 
L 908.790315 192.389065 
L 913.888534 177.648458 
L 918.986752 160.291271 
L 924.08497 140.918222 
L 929.183189 124.386418 
L 934.281407 110.241212 
L 939.379625 102.03925 
L 944.477844 98.991428 
L 949.576062 100.635641 
L 954.67428 105.642884 
L 959.772499 114.304641 
L 964.870717 126.475864 
L 969.968936 140.966411 
L 980.165372 173.026824 
L 985.263591 187.819895 
L 990.361809 197.826436 
L 995.460027 201.422086 
L 1000.558246 198.942552 
L 1005.656464 189.925714 
L 1010.754683 176.346479 
L 1020.951119 146.479985 
L 1026.049338 132.458941 
L 1031.147556 123.050852 
L 1036.245774 116.747169 
L 1041.343993 113.243544 
L 1046.442211 114.034309 
L 1051.540429 120.955502 
L 1056.638648 131.455898 
L 1061.736866 144.691729 
L 1066.835085 159.205095 
L 1071.933303 175.375764 
L 1077.031521 189.73299 
L 1082.12974 199.081258 
L 1087.227958 201.302498 
L 1092.326176 196.404503 
L 1097.424395 185.378817 
L 1112.71905 138.241748 
L 1117.817268 124.52975 
L 1122.915487 114.912289 
L 1128.013705 110.550347 
L 1133.111923 111.010258 
L 1138.210142 114.867374 
L 1143.30836 122.012482 
L 1148.406578 133.456422 
L 1153.504797 148.401208 
L 1158.603015 163.776651 
L 1163.701233 179.587763 
L 1168.799452 191.564046 
L 1173.89767 199.279973 
L 1178.995889 201.311925 
L 1184.094107 197.125002 
L 1189.192325 187.263221 
L 1194.290544 173.519086 
L 1199.388762 156.928974 
L 1204.48698 142.036766 
L 1209.585199 130.44496 
L 1214.683417 120.707777 
L 1219.781635 114.451364 
L 1224.879854 111.625563 
L 1229.978072 112.779141 
L 1235.076291 121.128079 
L 1240.174509 133.433663 
L 1245.272727 147.721058 
L 1245.272727 147.721058 
" style="fill:none;stroke:#000000;stroke-linecap:square;stroke-width:4;"/>
   </g>
   <g id="line2d_12">
    <path clip-path="url(#p53681f738c)" d="M 230.727273 105.426473 
L 235.825491 115.610202 
L 240.923709 128.798018 
L 246.021928 144.621782 
L 251.120146 161.330434 
L 256.218365 177.063532 
L 261.316583 190.037315 
L 266.414801 198.593395 
L 271.51302 201.439597 
L 276.611238 198.132983 
L 281.709456 189.327309 
L 286.807675 176.302904 
L 291.905893 161.677842 
L 297.004111 146.540146 
L 302.10233 134.101972 
L 307.200548 124.520599 
L 312.298767 119.086727 
L 317.396985 117.9255 
L 322.495203 121.971674 
L 327.593422 130.781792 
L 332.69164 142.459873 
L 337.789858 155.737215 
L 342.888077 170.323392 
L 347.986295 183.769827 
L 353.084513 194.13754 
L 358.182732 200.153461 
L 363.28095 201.155582 
L 368.379169 196.400162 
L 373.477387 186.261293 
L 378.575605 173.01942 
L 383.673824 157.817831 
L 388.772042 142.969721 
L 393.87026 131.189071 
L 398.968479 122.922957 
L 404.066697 119.182718 
L 409.164915 119.486784 
L 414.263134 124.564785 
L 419.361352 134.297067 
L 424.459571 146.303531 
L 429.557789 160.758641 
L 434.656007 176.103591 
L 439.754226 189.53542 
L 444.852444 198.403595 
L 449.950662 201.436981 
L 455.048881 198.013233 
L 460.147099 188.980943 
L 465.245317 175.372905 
L 470.343536 159.890405 
L 475.441754 144.884445 
L 480.539973 132.567789 
L 485.638191 124.5294 
L 490.736409 120.199437 
L 495.834628 120.840116 
L 500.932846 126.292523 
L 506.031064 135.673949 
L 511.129283 148.939335 
L 521.32572 178.755194 
L 526.423938 191.219197 
L 531.522156 199.143307 
L 536.620375 201.361778 
L 541.718593 197.087055 
L 546.816811 187.254194 
L 551.91503 173.422824 
L 562.111466 140.965498 
L 567.209685 127.257911 
L 572.307903 117.019608 
L 577.406122 111.974693 
L 582.50434 111.7603 
L 587.602558 117.050437 
L 592.700777 125.905142 
L 597.798995 137.730545 
L 602.897213 152.730952 
L 607.995432 168.497327 
L 613.09365 182.802058 
L 618.191868 194.38446 
L 623.290087 200.641674 
L 628.388305 200.558742 
L 633.486524 193.812734 
L 638.584742 181.134295 
L 643.68296 164.597396 
L 648.781179 146.359827 
L 653.879397 129.379623 
L 658.977615 115.699955 
L 664.075834 105.199116 
L 669.174052 99.529393 
L 674.27227 97.838327 
L 679.370489 100.86015 
L 684.468707 108.533332 
L 689.566926 121.453397 
L 694.665144 136.954428 
L 704.861581 172.230672 
L 709.959799 187.523642 
L 715.058017 198.009112 
L 720.156236 201.440148 
L 725.254454 197.598407 
L 730.352672 186.74874 
L 735.450891 171.012732 
L 745.647328 134.254805 
L 750.745546 118.898765 
L 755.843764 106.935308 
L 760.941983 100.396733 
L 766.040201 99.091368 
L 771.138419 101.767089 
L 776.236638 110.255328 
L 781.334856 123.471706 
L 786.433074 140.899443 
L 791.531293 159.209837 
L 796.629511 176.353939 
L 801.72773 190.882769 
L 806.825948 199.718607 
L 811.924166 201.04746 
L 817.022385 194.810483 
L 822.120603 181.801517 
L 827.218821 163.715847 
L 832.31704 143.31535 
L 837.415258 124.32721 
L 842.513476 109.200833 
L 847.611695 99.311603 
L 852.709913 95.35699 
L 857.808132 97.091476 
L 862.90635 103.088348 
L 868.004568 113.735163 
L 873.102787 128.307587 
L 878.201005 145.089284 
L 883.299223 163.634514 
L 888.397442 181.054066 
L 893.49566 194.194872 
L 898.593878 200.797616 
L 903.692097 200.199733 
L 908.790315 192.178165 
L 913.888534 178.48512 
L 918.986752 160.932069 
L 924.08497 142.927058 
L 929.183189 126.112315 
L 934.281407 113.137311 
L 939.379625 104.90714 
L 944.477844 101.581058 
L 949.576062 102.43716 
L 954.67428 107.269774 
L 959.772499 115.96591 
L 964.870717 127.859641 
L 969.968936 142.250085 
L 975.067154 158.108767 
L 980.165372 174.403521 
L 985.263591 188.520322 
L 990.361809 197.857194 
L 995.460027 201.417433 
L 1000.558246 198.759239 
L 1005.656464 190.072343 
L 1010.754683 177.253864 
L 1015.852901 162.607163 
L 1020.951119 147.537598 
L 1026.049338 134.761951 
L 1031.147556 124.937776 
L 1036.245774 118.081708 
L 1041.343993 114.884304 
L 1046.442211 116.805352 
L 1051.540429 123.187475 
L 1056.638648 133.315758 
L 1061.736866 145.993601 
L 1066.835085 161.166297 
L 1071.933303 176.96279 
L 1077.031521 190.636404 
L 1082.12974 199.264212 
L 1087.227958 201.291232 
L 1092.326176 196.471787 
L 1097.424395 185.530453 
L 1102.522613 171.074203 
L 1107.620831 155.181859 
L 1112.71905 139.676182 
L 1117.817268 126.579904 
L 1122.915487 117.542428 
L 1128.013705 113.164792 
L 1133.111923 112.911144 
L 1138.210142 116.382869 
L 1143.30836 123.997215 
L 1148.406578 135.707347 
L 1153.504797 149.705466 
L 1158.603015 165.486465 
L 1163.701233 180.066642 
L 1168.799452 191.896603 
L 1173.89767 199.539255 
L 1178.995889 201.319275 
L 1184.094107 197.084915 
L 1189.192325 187.521355 
L 1194.290544 173.697885 
L 1199.388762 158.399388 
L 1204.48698 144.271238 
L 1209.585199 131.896006 
L 1214.683417 122.304683 
L 1219.781635 115.935893 
L 1224.879854 113.136694 
L 1229.978072 115.989622 
L 1235.076291 123.825013 
L 1240.174509 135.274012 
L 1245.272727 148.792172 
L 1245.272727 148.792172 
" style="fill:none;stroke:#ff0000;stroke-linecap:square;stroke-width:1.5;"/>
   </g>
   <g id="patch_3">
    <path d="M 180 206.921739 
L 180 86.4 
" style="fill:none;stroke:#000000;stroke-linecap:square;stroke-linejoin:miter;stroke-width:0.8;"/>
   </g>
   <g id="patch_4">
    <path d="M 1296 206.921739 
L 1296 86.4 
" style="fill:none;stroke:#000000;stroke-linecap:square;stroke-linejoin:miter;stroke-width:0.8;"/>
   </g>
   <g id="patch_5">
    <path d="M 180 206.921739 
L 1296 206.921739 
" style="fill:none;stroke:#000000;stroke-linecap:square;stroke-linejoin:miter;stroke-width:0.8;"/>
   </g>
   <g id="patch_6">
    <path d="M 180 86.4 
L 1296 86.4 
" style="fill:none;stroke:#000000;stroke-linecap:square;stroke-linejoin:miter;stroke-width:0.8;"/>
   </g>
   <g id="legend_1">
    <g id="patch_7">
     <path d="M 1234.3125 123.75625 
L 1289 123.75625 
Q 1291 123.75625 1291 121.75625 
L 1291 93.4 
Q 1291 91.4 1289 91.4 
L 1234.3125 91.4 
Q 1232.3125 91.4 1232.3125 93.4 
L 1232.3125 121.75625 
Q 1232.3125 123.75625 1234.3125 123.75625 
z
" style="fill:#ffffff;opacity:0.8;stroke:#cccccc;stroke-linejoin:miter;"/>
    </g>
    <g id="line2d_13">
     <path d="M 1236.3125 99.498438 
L 1256.3125 99.498438 
" style="fill:none;stroke:#000000;stroke-linecap:square;stroke-width:4;"/>
    </g>
    <g id="line2d_14"/>
    <g id="text_12">
     <!-- Pred -->
     <defs>
      <path d="M 19.671875 64.796875 
L 19.671875 37.40625 
L 32.078125 37.40625 
Q 38.96875 37.40625 42.71875 40.96875 
Q 46.484375 44.53125 46.484375 51.125 
Q 46.484375 57.671875 42.71875 61.234375 
Q 38.96875 64.796875 32.078125 64.796875 
z
M 9.8125 72.90625 
L 32.078125 72.90625 
Q 44.34375 72.90625 50.609375 67.359375 
Q 56.890625 61.8125 56.890625 51.125 
Q 56.890625 40.328125 50.609375 34.8125 
Q 44.34375 29.296875 32.078125 29.296875 
L 19.671875 29.296875 
L 19.671875 0 
L 9.8125 0 
z
" id="DejaVuSans-80"/>
      <path d="M 41.109375 46.296875 
Q 39.59375 47.171875 37.8125 47.578125 
Q 36.03125 48 33.890625 48 
Q 26.265625 48 22.1875 43.046875 
Q 18.109375 38.09375 18.109375 28.8125 
L 18.109375 0 
L 9.078125 0 
L 9.078125 54.6875 
L 18.109375 54.6875 
L 18.109375 46.1875 
Q 20.953125 51.171875 25.484375 53.578125 
Q 30.03125 56 36.53125 56 
Q 37.453125 56 38.578125 55.875 
Q 39.703125 55.765625 41.0625 55.515625 
z
" id="DejaVuSans-114"/>
      <path d="M 45.40625 46.390625 
L 45.40625 75.984375 
L 54.390625 75.984375 
L 54.390625 0 
L 45.40625 0 
L 45.40625 8.203125 
Q 42.578125 3.328125 38.25 0.953125 
Q 33.9375 -1.421875 27.875 -1.421875 
Q 17.96875 -1.421875 11.734375 6.484375 
Q 5.515625 14.40625 5.515625 27.296875 
Q 5.515625 40.1875 11.734375 48.09375 
Q 17.96875 56 27.875 56 
Q 33.9375 56 38.25 53.625 
Q 42.578125 51.265625 45.40625 46.390625 
z
M 14.796875 27.296875 
Q 14.796875 17.390625 18.875 11.75 
Q 22.953125 6.109375 30.078125 6.109375 
Q 37.203125 6.109375 41.296875 11.75 
Q 45.40625 17.390625 45.40625 27.296875 
Q 45.40625 37.203125 41.296875 42.84375 
Q 37.203125 48.484375 30.078125 48.484375 
Q 22.953125 48.484375 18.875 42.84375 
Q 14.796875 37.203125 14.796875 27.296875 
z
" id="DejaVuSans-100"/>
     </defs>
     <g transform="translate(1264.3125 102.998438)scale(0.1 -0.1)">
      <use xlink:href="#DejaVuSans-80"/>
      <use x="60.287109" xlink:href="#DejaVuSans-114"/>
      <use x="101.369141" xlink:href="#DejaVuSans-101"/>
      <use x="162.892578" xlink:href="#DejaVuSans-100"/>
     </g>
    </g>
    <g id="line2d_15">
     <path d="M 1236.3125 114.176563 
L 1256.3125 114.176563 
" style="fill:none;stroke:#ff0000;stroke-linecap:square;stroke-width:1.5;"/>
    </g>
    <g id="line2d_16"/>
    <g id="text_13">
     <!-- True -->
     <defs>
      <path d="M 8.5 21.578125 
L 8.5 54.6875 
L 17.484375 54.6875 
L 17.484375 21.921875 
Q 17.484375 14.15625 20.5 10.265625 
Q 23.53125 6.390625 29.59375 6.390625 
Q 36.859375 6.390625 41.078125 11.03125 
Q 45.3125 15.671875 45.3125 23.6875 
L 45.3125 54.6875 
L 54.296875 54.6875 
L 54.296875 0 
L 45.3125 0 
L 45.3125 8.40625 
Q 42.046875 3.421875 37.71875 1 
Q 33.40625 -1.421875 27.6875 -1.421875 
Q 18.265625 -1.421875 13.375 4.4375 
Q 8.5 10.296875 8.5 21.578125 
z
M 31.109375 56 
z
" id="DejaVuSans-117"/>
     </defs>
     <g transform="translate(1264.3125 117.676563)scale(0.1 -0.1)">
      <use xlink:href="#DejaVuSans-84"/>
      <use x="60.865234" xlink:href="#DejaVuSans-114"/>
      <use x="101.978516" xlink:href="#DejaVuSans-117"/>
      <use x="165.357422" xlink:href="#DejaVuSans-101"/>
     </g>
    </g>
   </g>
  </g>
  <g id="axes_2">
   <g id="patch_8">
    <path d="M 180 351.547826 
L 1296 351.547826 
L 1296 231.026087 
L 180 231.026087 
z
" style="fill:#ffffff;"/>
   </g>
   <g id="matplotlib.axis_3">
    <g id="xtick_7">
     <g id="line2d_17">
      <g>
       <use style="stroke:#000000;stroke-width:0.8;" x="230.727273" xlink:href="#m0fc8dcd1f7" y="351.547826"/>
      </g>
     </g>
     <g id="text_14">
      <!-- 0 -->
      <g transform="translate(227.546023 366.146264)scale(0.1 -0.1)">
       <use xlink:href="#DejaVuSans-48"/>
      </g>
     </g>
    </g>
    <g id="xtick_8">
     <g id="line2d_18">
      <g>
       <use style="stroke:#000000;stroke-width:0.8;" x="434.656007" xlink:href="#m0fc8dcd1f7" y="351.547826"/>
      </g>
     </g>
     <g id="text_15">
      <!-- 2 -->
      <g transform="translate(431.474757 366.146264)scale(0.1 -0.1)">
       <use xlink:href="#DejaVuSans-50"/>
      </g>
     </g>
    </g>
    <g id="xtick_9">
     <g id="line2d_19">
      <g>
       <use style="stroke:#000000;stroke-width:0.8;" x="638.584742" xlink:href="#m0fc8dcd1f7" y="351.547826"/>
      </g>
     </g>
     <g id="text_16">
      <!-- 4 -->
      <g transform="translate(635.403492 366.146264)scale(0.1 -0.1)">
       <use xlink:href="#DejaVuSans-52"/>
      </g>
     </g>
    </g>
    <g id="xtick_10">
     <g id="line2d_20">
      <g>
       <use style="stroke:#000000;stroke-width:0.8;" x="842.513476" xlink:href="#m0fc8dcd1f7" y="351.547826"/>
      </g>
     </g>
     <g id="text_17">
      <!-- 6 -->
      <g transform="translate(839.332226 366.146264)scale(0.1 -0.1)">
       <use xlink:href="#DejaVuSans-54"/>
      </g>
     </g>
    </g>
    <g id="xtick_11">
     <g id="line2d_21">
      <g>
       <use style="stroke:#000000;stroke-width:0.8;" x="1046.442211" xlink:href="#m0fc8dcd1f7" y="351.547826"/>
      </g>
     </g>
     <g id="text_18">
      <!-- 8 -->
      <g transform="translate(1043.260961 366.146264)scale(0.1 -0.1)">
       <use xlink:href="#DejaVuSans-56"/>
      </g>
     </g>
    </g>
    <g id="xtick_12">
     <g id="line2d_22">
      <g>
       <use style="stroke:#000000;stroke-width:0.8;" x="1250.370946" xlink:href="#m0fc8dcd1f7" y="351.547826"/>
      </g>
     </g>
     <g id="text_19">
      <!-- 10 -->
      <g transform="translate(1244.008446 366.146264)scale(0.1 -0.1)">
       <use xlink:href="#DejaVuSans-49"/>
       <use x="63.623047" xlink:href="#DejaVuSans-48"/>
      </g>
     </g>
    </g>
   </g>
   <g id="matplotlib.axis_4">
    <g id="ytick_5">
     <g id="line2d_23">
      <g>
       <use style="stroke:#000000;stroke-width:0.8;" x="180" xlink:href="#m0930ee8b20" y="348.693667"/>
      </g>
     </g>
     <g id="text_20">
      <!-- −1.0 -->
      <g transform="translate(148.717187 352.492886)scale(0.1 -0.1)">
       <use xlink:href="#DejaVuSans-8722"/>
       <use x="83.789062" xlink:href="#DejaVuSans-49"/>
       <use x="147.412109" xlink:href="#DejaVuSans-46"/>
       <use x="179.199219" xlink:href="#DejaVuSans-48"/>
      </g>
     </g>
    </g>
    <g id="ytick_6">
     <g id="line2d_24">
      <g>
       <use style="stroke:#000000;stroke-width:0.8;" x="180" xlink:href="#m0930ee8b20" y="319.855225"/>
      </g>
     </g>
     <g id="text_21">
      <!-- −0.5 -->
      <defs>
       <path d="M 10.796875 72.90625 
L 49.515625 72.90625 
L 49.515625 64.59375 
L 19.828125 64.59375 
L 19.828125 46.734375 
Q 21.96875 47.46875 24.109375 47.828125 
Q 26.265625 48.1875 28.421875 48.1875 
Q 40.625 48.1875 47.75 41.5 
Q 54.890625 34.8125 54.890625 23.390625 
Q 54.890625 11.625 47.5625 5.09375 
Q 40.234375 -1.421875 26.90625 -1.421875 
Q 22.3125 -1.421875 17.546875 -0.640625 
Q 12.796875 0.140625 7.71875 1.703125 
L 7.71875 11.625 
Q 12.109375 9.234375 16.796875 8.0625 
Q 21.484375 6.890625 26.703125 6.890625 
Q 35.15625 6.890625 40.078125 11.328125 
Q 45.015625 15.765625 45.015625 23.390625 
Q 45.015625 31 40.078125 35.4375 
Q 35.15625 39.890625 26.703125 39.890625 
Q 22.75 39.890625 18.8125 39.015625 
Q 14.890625 38.140625 10.796875 36.28125 
z
" id="DejaVuSans-53"/>
      </defs>
      <g transform="translate(148.717187 323.654444)scale(0.1 -0.1)">
       <use xlink:href="#DejaVuSans-8722"/>
       <use x="83.789062" xlink:href="#DejaVuSans-48"/>
       <use x="147.412109" xlink:href="#DejaVuSans-46"/>
       <use x="179.199219" xlink:href="#DejaVuSans-53"/>
      </g>
     </g>
    </g>
    <g id="ytick_7">
     <g id="line2d_25">
      <g>
       <use style="stroke:#000000;stroke-width:0.8;" x="180" xlink:href="#m0930ee8b20" y="291.016783"/>
      </g>
     </g>
     <g id="text_22">
      <!-- 0.0 -->
      <g transform="translate(157.096875 294.816002)scale(0.1 -0.1)">
       <use xlink:href="#DejaVuSans-48"/>
       <use x="63.623047" xlink:href="#DejaVuSans-46"/>
       <use x="95.410156" xlink:href="#DejaVuSans-48"/>
      </g>
     </g>
    </g>
    <g id="ytick_8">
     <g id="line2d_26">
      <g>
       <use style="stroke:#000000;stroke-width:0.8;" x="180" xlink:href="#m0930ee8b20" y="262.178341"/>
      </g>
     </g>
     <g id="text_23">
      <!-- 0.5 -->
      <g transform="translate(157.096875 265.97756)scale(0.1 -0.1)">
       <use xlink:href="#DejaVuSans-48"/>
       <use x="63.623047" xlink:href="#DejaVuSans-46"/>
       <use x="95.410156" xlink:href="#DejaVuSans-53"/>
      </g>
     </g>
    </g>
    <g id="ytick_9">
     <g id="line2d_27">
      <g>
       <use style="stroke:#000000;stroke-width:0.8;" x="180" xlink:href="#m0930ee8b20" y="233.339899"/>
      </g>
     </g>
     <g id="text_24">
      <!-- 1.0 -->
      <g transform="translate(157.096875 237.139118)scale(0.1 -0.1)">
       <use xlink:href="#DejaVuSans-49"/>
       <use x="63.623047" xlink:href="#DejaVuSans-46"/>
       <use x="95.410156" xlink:href="#DejaVuSans-48"/>
      </g>
     </g>
    </g>
    <g id="text_25">
     <!-- TD State:1 -->
     <g transform="translate(142.6375 317.880707)rotate(-90)scale(0.1 -0.1)">
      <use xlink:href="#DejaVuSans-84"/>
      <use x="61.083984" xlink:href="#DejaVuSans-68"/>
      <use x="138.085938" xlink:href="#DejaVuSans-32"/>
      <use x="169.873047" xlink:href="#DejaVuSans-83"/>
      <use x="233.349609" xlink:href="#DejaVuSans-116"/>
      <use x="272.558594" xlink:href="#DejaVuSans-97"/>
      <use x="333.837891" xlink:href="#DejaVuSans-116"/>
      <use x="373.046875" xlink:href="#DejaVuSans-101"/>
      <use x="434.570312" xlink:href="#DejaVuSans-58"/>
      <use x="468.261719" xlink:href="#DejaVuSans-49"/>
     </g>
    </g>
   </g>
   <g id="line2d_28">
    <path clip-path="url(#pad1d4009a8)" d="M 230.727273 237.434693 
L 235.825491 239.010518 
L 240.923709 241.97546 
L 246.021928 246.03925 
L 251.120146 252.010893 
L 256.218365 259.730085 
L 261.316583 269.06898 
L 266.414801 279.770306 
L 276.611238 302.810693 
L 281.709456 313.551402 
L 286.807675 322.629144 
L 291.905893 330.065322 
L 297.004111 335.201206 
L 302.10233 339.112969 
L 307.200548 341.094151 
L 312.298767 342.303662 
L 317.396985 342.485143 
L 322.495203 341.847119 
L 327.593422 339.906155 
L 332.69164 336.577282 
L 337.789858 332.127755 
L 342.888077 326.280589 
L 347.986295 318.106107 
L 353.084513 308.649761 
L 358.182732 298.438332 
L 363.28095 287.963316 
L 368.379169 276.750452 
L 373.477387 266.190793 
L 378.575605 257.230273 
L 383.673824 250.804535 
L 388.772042 245.59468 
L 393.87026 242.211559 
L 398.968479 240.523131 
L 404.066697 239.70764 
L 409.164915 239.890833 
L 414.263134 240.7853 
L 419.361352 242.96805 
L 424.459571 246.703734 
L 429.557789 251.453046 
L 434.656007 258.614542 
L 439.754226 268.216851 
L 444.852444 279.454891 
L 449.950662 291.127378 
L 455.048881 303.344568 
L 460.147099 313.837505 
L 465.245317 323.015054 
L 470.343536 330.739767 
L 475.441754 335.999815 
L 480.539973 339.451277 
L 485.638191 341.338494 
L 490.736409 341.995809 
L 495.834628 342.042633 
L 500.932846 340.894355 
L 506.031064 338.575799 
L 511.129283 334.947967 
L 516.227501 329.172041 
L 521.32572 321.775595 
L 526.423938 311.996613 
L 531.522156 301.104181 
L 536.620375 289.629916 
L 541.718593 277.516119 
L 546.816811 266.632071 
L 551.91503 257.739217 
L 557.013248 250.550228 
L 562.111466 244.964206 
L 567.209685 241.423519 
L 572.307903 239.368613 
L 577.406122 238.327525 
L 582.50434 238.395496 
L 587.602558 239.218957 
L 592.700777 241.275806 
L 597.798995 244.155629 
L 602.897213 248.418644 
L 607.995432 255.034989 
L 613.09365 263.335683 
L 618.191868 273.082529 
L 633.486524 308.772928 
L 638.584742 319.495739 
L 643.68296 328.558454 
L 648.781179 335.304463 
L 653.879397 340.110558 
L 658.977615 342.973305 
L 664.075834 344.527701 
L 669.174052 345.455524 
L 674.27227 345.545287 
L 679.370489 345.225734 
L 684.468707 344.112085 
L 689.566926 341.974051 
L 694.665144 338.055254 
L 699.763362 332.818935 
L 704.861581 325.173874 
L 709.959799 315.447665 
L 715.058017 303.670237 
L 720.156236 290.539895 
L 725.254454 278.233097 
L 730.352672 266.717106 
L 735.450891 256.373522 
L 740.549109 248.766403 
L 745.647328 243.166385 
L 750.745546 239.60873 
L 755.843764 237.700523 
L 760.941983 236.608574 
L 766.040201 236.504348 
L 771.138419 237.017367 
L 776.236638 238.032572 
L 781.334856 240.540453 
L 786.433074 244.630685 
L 791.531293 251.137318 
L 796.629511 259.282063 
L 801.72773 269.323889 
L 806.825948 281.940243 
L 811.924166 295.294765 
L 817.022385 307.537503 
L 822.120603 319.123352 
L 827.218821 328.761112 
L 832.31704 336.248267 
L 837.415258 341.315699 
L 842.513476 344.154647 
L 847.611695 345.579317 
L 852.709913 346.069565 
L 857.808132 345.815339 
L 862.90635 344.865187 
L 868.004568 343.272676 
L 873.102787 340.349966 
L 878.201005 335.786137 
L 883.299223 329.475307 
L 888.397442 320.258987 
L 893.49566 308.824551 
L 903.692097 283.799838 
L 908.790315 271.65999 
L 913.888534 260.409887 
L 918.986752 251.996065 
L 924.08497 245.416668 
L 929.183189 241.282912 
L 934.281407 238.562724 
L 939.379625 237.280478 
L 944.477844 236.854912 
L 949.576062 237.081156 
L 954.67428 237.818779 
L 959.772499 239.275423 
L 964.870717 241.744397 
L 969.968936 245.430462 
L 975.067154 250.688356 
L 980.165372 257.838426 
L 985.263591 267.452774 
L 1000.558246 301.299679 
L 1005.656464 312.759528 
L 1010.754683 322.378847 
L 1015.852901 329.648491 
L 1020.951119 334.948745 
L 1026.049338 338.874323 
L 1031.147556 341.037163 
L 1036.245774 342.303835 
L 1041.343993 342.949382 
L 1046.442211 342.807213 
L 1051.540429 341.473663 
L 1056.638648 339.121508 
L 1061.736866 335.502279 
L 1066.835085 330.469825 
L 1071.933303 322.925533 
L 1077.031521 312.933651 
L 1082.12974 301.012728 
L 1087.227958 288.563715 
L 1092.326176 276.481052 
L 1097.424395 265.53345 
L 1102.522613 256.165854 
L 1107.620831 249.55478 
L 1112.71905 244.667739 
L 1117.817268 241.314049 
L 1122.915487 239.386598 
L 1128.013705 238.615092 
L 1133.111923 238.69356 
L 1138.210142 239.378339 
L 1143.30836 240.778127 
L 1148.406578 243.40919 
L 1153.504797 247.698618 
L 1158.603015 253.445813 
L 1163.701233 261.585171 
L 1168.799452 270.824893 
L 1173.89767 281.447392 
L 1178.995889 293.386622 
L 1184.094107 304.489085 
L 1189.192325 315.03497 
L 1194.290544 323.935022 
L 1199.388762 331.347806 
L 1204.48698 336.29384 
L 1209.585199 339.366487 
L 1214.683417 341.524235 
L 1219.781635 342.73141 
L 1224.879854 343.233976 
L 1229.978072 343.03193 
L 1235.076291 341.438303 
L 1240.174509 338.630126 
L 1245.272727 334.554557 
L 1245.272727 334.554557 
" style="fill:none;stroke:#000000;stroke-linecap:square;stroke-width:4;"/>
   </g>
   <g id="line2d_29">
    <path clip-path="url(#pad1d4009a8)" d="M 230.727273 237.785359 
L 235.825491 239.515791 
L 240.923709 242.276745 
L 246.021928 246.509975 
L 251.120146 252.418114 
L 256.218365 260.067416 
L 261.316583 269.375615 
L 266.414801 280.045794 
L 276.611238 302.831874 
L 281.709456 313.294986 
L 286.807675 322.40368 
L 291.905893 329.472467 
L 297.004111 334.929829 
L 302.10233 338.460388 
L 307.200548 340.721507 
L 312.298767 341.849857 
L 317.396985 342.07752 
L 322.495203 341.263938 
L 327.593422 339.285322 
L 332.69164 336.17005 
L 337.789858 331.793055 
L 342.888077 325.571741 
L 347.986295 317.673113 
L 353.084513 308.454579 
L 358.182732 298.416813 
L 368.379169 276.474895 
L 373.477387 266.206378 
L 378.575605 257.834537 
L 383.673824 251.024226 
L 388.772042 246.013858 
L 393.87026 242.846996 
L 398.968479 240.969308 
L 404.066697 240.202736 
L 409.164915 240.263218 
L 414.263134 241.321672 
L 419.361352 243.623086 
L 424.459571 247.029451 
L 429.557789 252.184847 
L 434.656007 259.516656 
L 439.754226 268.923077 
L 444.852444 279.689889 
L 449.950662 291.554489 
L 455.048881 303.041319 
L 460.147099 313.598127 
L 465.245317 322.927124 
L 470.343536 330.198089 
L 475.441754 335.44343 
L 480.539973 338.84725 
L 485.638191 340.719593 
L 490.736409 341.627334 
L 495.834628 341.497245 
L 500.932846 340.330319 
L 506.031064 338.053613 
L 511.129283 334.159368 
L 516.227501 328.616529 
L 521.32572 320.960712 
L 526.423938 311.54633 
L 531.522156 300.881576 
L 541.718593 277.486257 
L 546.816811 266.991316 
L 551.91503 258.047438 
L 557.013248 250.739571 
L 562.111466 245.430201 
L 567.209685 241.921361 
L 572.307903 239.781639 
L 577.406122 238.860289 
L 582.50434 238.822969 
L 587.602558 239.787529 
L 592.700777 241.61672 
L 597.798995 244.528458 
L 602.897213 249.158947 
L 607.995432 255.57814 
L 613.09365 263.685379 
L 618.191868 273.869244 
L 623.290087 285.177764 
L 628.388305 297.149423 
L 633.486524 308.828479 
L 638.584742 319.46345 
L 643.68296 328.23167 
L 648.781179 334.986468 
L 653.879397 339.620205 
L 658.977615 342.501044 
L 664.075834 344.283166 
L 669.174052 345.105485 
L 674.27227 345.332706 
L 679.370489 344.920913 
L 684.468707 343.754766 
L 689.566926 341.371363 
L 694.665144 337.714312 
L 699.763362 332.196586 
L 704.861581 324.60949 
L 709.959799 314.823798 
L 715.058017 303.048459 
L 725.254454 278.294528 
L 730.352672 266.587889 
L 735.450891 256.804809 
L 740.549109 249.106574 
L 745.647328 243.612261 
L 750.745546 240.146544 
L 755.843764 238.021318 
L 760.941983 237.047799 
L 766.040201 236.868443 
L 771.138419 237.241381 
L 776.236638 238.565109 
L 781.334856 241.085983 
L 786.433074 245.411296 
L 791.531293 251.565609 
L 796.629511 259.658973 
L 801.72773 270.163843 
L 806.825948 282.466157 
L 817.022385 307.650449 
L 822.120603 319.024224 
L 827.218821 328.613901 
L 832.31704 335.917055 
L 837.415258 340.763494 
L 842.513476 343.644881 
L 847.611695 345.135207 
L 852.709913 345.651471 
L 857.808132 345.430471 
L 862.90635 344.600348 
L 868.004568 342.861235 
L 873.102787 339.870989 
L 878.201005 335.380668 
L 883.299223 328.648829 
L 888.397442 319.515665 
L 893.49566 308.387659 
L 898.593878 296.258856 
L 908.790315 271.442672 
L 913.888534 260.909213 
L 918.986752 252.255328 
L 924.08497 246.001228 
L 929.183189 241.662924 
L 934.281407 239.065239 
L 939.379625 237.705733 
L 944.477844 237.214781 
L 949.576062 237.33803 
L 954.67428 238.074561 
L 959.772499 239.582259 
L 964.870717 242.059117 
L 969.968936 245.802028 
L 975.067154 251.136222 
L 980.165372 258.57369 
L 985.263591 268.039599 
L 990.361809 278.724924 
L 995.460027 289.957496 
L 1000.558246 301.666679 
L 1005.656464 312.625955 
L 1010.754683 321.855295 
L 1015.852901 329.085214 
L 1020.951119 334.613355 
L 1026.049338 338.290902 
L 1031.147556 340.630462 
L 1036.245774 342.047164 
L 1041.343993 342.652115 
L 1046.442211 342.292771 
L 1051.540429 341.008153 
L 1056.638648 338.659876 
L 1061.736866 335.100968 
L 1066.835085 329.682675 
L 1071.933303 322.0246 
L 1077.031521 312.102933 
L 1082.12974 300.620719 
L 1092.326176 276.576837 
L 1097.424395 265.647511 
L 1102.522613 256.835654 
L 1107.620831 250.036294 
L 1112.71905 245.064957 
L 1117.817268 241.767805 
L 1122.915487 239.881955 
L 1128.013705 239.070136 
L 1133.111923 239.025028 
L 1138.210142 239.66071 
L 1143.30836 241.198745 
L 1148.406578 243.988712 
L 1153.504797 248.127003 
L 1158.603015 254.194324 
L 1163.701233 261.885399 
L 1168.799452 271.156724 
L 1173.89767 282.035267 
L 1184.094107 304.550586 
L 1189.192325 314.825663 
L 1194.290544 323.839783 
L 1199.388762 330.784865 
L 1204.48698 335.630019 
L 1209.585199 339.013559 
L 1214.683417 341.194408 
L 1219.781635 342.456932 
L 1224.879854 342.968437 
L 1229.978072 342.446861 
L 1235.076291 340.871883 
L 1240.174509 338.158115 
L 1245.272727 334.207546 
L 1245.272727 334.207546 
" style="fill:none;stroke:#ff0000;stroke-linecap:square;stroke-width:1.5;"/>
   </g>
   <g id="patch_9">
    <path d="M 180 351.547826 
L 180 231.026087 
" style="fill:none;stroke:#000000;stroke-linecap:square;stroke-linejoin:miter;stroke-width:0.8;"/>
   </g>
   <g id="patch_10">
    <path d="M 1296 351.547826 
L 1296 231.026087 
" style="fill:none;stroke:#000000;stroke-linecap:square;stroke-linejoin:miter;stroke-width:0.8;"/>
   </g>
   <g id="patch_11">
    <path d="M 180 351.547826 
L 1296 351.547826 
" style="fill:none;stroke:#000000;stroke-linecap:square;stroke-linejoin:miter;stroke-width:0.8;"/>
   </g>
   <g id="patch_12">
    <path d="M 180 231.026087 
L 1296 231.026087 
" style="fill:none;stroke:#000000;stroke-linecap:square;stroke-linejoin:miter;stroke-width:0.8;"/>
   </g>
   <g id="legend_2">
    <g id="patch_13">
     <path d="M 1234.3125 268.382337 
L 1289 268.382337 
Q 1291 268.382337 1291 266.382337 
L 1291 238.026087 
Q 1291 236.026087 1289 236.026087 
L 1234.3125 236.026087 
Q 1232.3125 236.026087 1232.3125 238.026087 
L 1232.3125 266.382337 
Q 1232.3125 268.382337 1234.3125 268.382337 
z
" style="fill:#ffffff;opacity:0.8;stroke:#cccccc;stroke-linejoin:miter;"/>
    </g>
    <g id="line2d_30">
     <path d="M 1236.3125 244.124524 
L 1256.3125 244.124524 
" style="fill:none;stroke:#000000;stroke-linecap:square;stroke-width:4;"/>
    </g>
    <g id="line2d_31"/>
    <g id="text_26">
     <!-- Pred -->
     <g transform="translate(1264.3125 247.624524)scale(0.1 -0.1)">
      <use xlink:href="#DejaVuSans-80"/>
      <use x="60.287109" xlink:href="#DejaVuSans-114"/>
      <use x="101.369141" xlink:href="#DejaVuSans-101"/>
      <use x="162.892578" xlink:href="#DejaVuSans-100"/>
     </g>
    </g>
    <g id="line2d_32">
     <path d="M 1236.3125 258.802649 
L 1256.3125 258.802649 
" style="fill:none;stroke:#ff0000;stroke-linecap:square;stroke-width:1.5;"/>
    </g>
    <g id="line2d_33"/>
    <g id="text_27">
     <!-- True -->
     <g transform="translate(1264.3125 262.302649)scale(0.1 -0.1)">
      <use xlink:href="#DejaVuSans-84"/>
      <use x="60.865234" xlink:href="#DejaVuSans-114"/>
      <use x="101.978516" xlink:href="#DejaVuSans-117"/>
      <use x="165.357422" xlink:href="#DejaVuSans-101"/>
     </g>
    </g>
   </g>
  </g>
  <g id="axes_3">
   <g id="patch_14">
    <path d="M 180 496.173913 
L 1296 496.173913 
L 1296 375.652174 
L 180 375.652174 
z
" style="fill:#ffffff;"/>
   </g>
   <g id="matplotlib.axis_5">
    <g id="xtick_13">
     <g id="line2d_34">
      <g>
       <use style="stroke:#000000;stroke-width:0.8;" x="230.727273" xlink:href="#m0fc8dcd1f7" y="496.173913"/>
      </g>
     </g>
     <g id="text_28">
      <!-- 0 -->
      <g transform="translate(227.546023 510.772351)scale(0.1 -0.1)">
       <use xlink:href="#DejaVuSans-48"/>
      </g>
     </g>
    </g>
    <g id="xtick_14">
     <g id="line2d_35">
      <g>
       <use style="stroke:#000000;stroke-width:0.8;" x="434.656007" xlink:href="#m0fc8dcd1f7" y="496.173913"/>
      </g>
     </g>
     <g id="text_29">
      <!-- 2 -->
      <g transform="translate(431.474757 510.772351)scale(0.1 -0.1)">
       <use xlink:href="#DejaVuSans-50"/>
      </g>
     </g>
    </g>
    <g id="xtick_15">
     <g id="line2d_36">
      <g>
       <use style="stroke:#000000;stroke-width:0.8;" x="638.584742" xlink:href="#m0fc8dcd1f7" y="496.173913"/>
      </g>
     </g>
     <g id="text_30">
      <!-- 4 -->
      <g transform="translate(635.403492 510.772351)scale(0.1 -0.1)">
       <use xlink:href="#DejaVuSans-52"/>
      </g>
     </g>
    </g>
    <g id="xtick_16">
     <g id="line2d_37">
      <g>
       <use style="stroke:#000000;stroke-width:0.8;" x="842.513476" xlink:href="#m0fc8dcd1f7" y="496.173913"/>
      </g>
     </g>
     <g id="text_31">
      <!-- 6 -->
      <g transform="translate(839.332226 510.772351)scale(0.1 -0.1)">
       <use xlink:href="#DejaVuSans-54"/>
      </g>
     </g>
    </g>
    <g id="xtick_17">
     <g id="line2d_38">
      <g>
       <use style="stroke:#000000;stroke-width:0.8;" x="1046.442211" xlink:href="#m0fc8dcd1f7" y="496.173913"/>
      </g>
     </g>
     <g id="text_32">
      <!-- 8 -->
      <g transform="translate(1043.260961 510.772351)scale(0.1 -0.1)">
       <use xlink:href="#DejaVuSans-56"/>
      </g>
     </g>
    </g>
    <g id="xtick_18">
     <g id="line2d_39">
      <g>
       <use style="stroke:#000000;stroke-width:0.8;" x="1250.370946" xlink:href="#m0fc8dcd1f7" y="496.173913"/>
      </g>
     </g>
     <g id="text_33">
      <!-- 10 -->
      <g transform="translate(1244.008446 510.772351)scale(0.1 -0.1)">
       <use xlink:href="#DejaVuSans-49"/>
       <use x="63.623047" xlink:href="#DejaVuSans-48"/>
      </g>
     </g>
    </g>
   </g>
   <g id="matplotlib.axis_6">
    <g id="ytick_10">
     <g id="line2d_40">
      <g>
       <use style="stroke:#000000;stroke-width:0.8;" x="180" xlink:href="#m0930ee8b20" y="485.766649"/>
      </g>
     </g>
     <g id="text_34">
      <!-- −4 -->
      <g transform="translate(158.257812 489.565868)scale(0.1 -0.1)">
       <use xlink:href="#DejaVuSans-8722"/>
       <use x="83.789062" xlink:href="#DejaVuSans-52"/>
      </g>
     </g>
    </g>
    <g id="ytick_11">
     <g id="line2d_41">
      <g>
       <use style="stroke:#000000;stroke-width:0.8;" x="180" xlink:href="#m0930ee8b20" y="461.032215"/>
      </g>
     </g>
     <g id="text_35">
      <!-- −2 -->
      <g transform="translate(158.257812 464.831434)scale(0.1 -0.1)">
       <use xlink:href="#DejaVuSans-8722"/>
       <use x="83.789062" xlink:href="#DejaVuSans-50"/>
      </g>
     </g>
    </g>
    <g id="ytick_12">
     <g id="line2d_42">
      <g>
       <use style="stroke:#000000;stroke-width:0.8;" x="180" xlink:href="#m0930ee8b20" y="436.297782"/>
      </g>
     </g>
     <g id="text_36">
      <!-- 0 -->
      <g transform="translate(166.6375 440.097001)scale(0.1 -0.1)">
       <use xlink:href="#DejaVuSans-48"/>
      </g>
     </g>
    </g>
    <g id="ytick_13">
     <g id="line2d_43">
      <g>
       <use style="stroke:#000000;stroke-width:0.8;" x="180" xlink:href="#m0930ee8b20" y="411.563349"/>
      </g>
     </g>
     <g id="text_37">
      <!-- 2 -->
      <g transform="translate(166.6375 415.362567)scale(0.1 -0.1)">
       <use xlink:href="#DejaVuSans-50"/>
      </g>
     </g>
    </g>
    <g id="ytick_14">
     <g id="line2d_44">
      <g>
       <use style="stroke:#000000;stroke-width:0.8;" x="180" xlink:href="#m0930ee8b20" y="386.828915"/>
      </g>
     </g>
     <g id="text_38">
      <!-- 4 -->
      <g transform="translate(166.6375 390.628134)scale(0.1 -0.1)">
       <use xlink:href="#DejaVuSans-52"/>
      </g>
     </g>
    </g>
    <g id="text_39">
     <!-- TD State:2 -->
     <g transform="translate(152.178125 462.506793)rotate(-90)scale(0.1 -0.1)">
      <use xlink:href="#DejaVuSans-84"/>
      <use x="61.083984" xlink:href="#DejaVuSans-68"/>
      <use x="138.085938" xlink:href="#DejaVuSans-32"/>
      <use x="169.873047" xlink:href="#DejaVuSans-83"/>
      <use x="233.349609" xlink:href="#DejaVuSans-116"/>
      <use x="272.558594" xlink:href="#DejaVuSans-97"/>
      <use x="333.837891" xlink:href="#DejaVuSans-116"/>
      <use x="373.046875" xlink:href="#DejaVuSans-101"/>
      <use x="434.570312" xlink:href="#DejaVuSans-58"/>
      <use x="468.261719" xlink:href="#DejaVuSans-50"/>
     </g>
    </g>
   </g>
   <g id="line2d_45">
    <path clip-path="url(#p50f1c1cbba)" d="M 230.727273 431.72496 
L 235.825491 423.444858 
L 240.923709 414.70849 
L 246.021928 408.523972 
L 251.120146 401.981629 
L 256.218365 396.768729 
L 261.316583 392.75726 
L 266.414801 389.703261 
L 271.51302 387.682662 
L 276.611238 387.16849 
L 281.709456 388.044197 
L 286.807675 390.907183 
L 291.905893 394.671777 
L 297.004111 400.959493 
L 302.10233 406.441834 
L 307.200548 415.095989 
L 312.298767 422.236247 
L 322.495203 438.405396 
L 327.593422 447.695939 
L 332.69164 456.299604 
L 337.789858 462.467763 
L 342.888077 467.805398 
L 347.986295 474.258022 
L 353.084513 478.282572 
L 358.182732 480.352285 
L 363.28095 481.220907 
L 368.379169 483.08889 
L 373.477387 483.316494 
L 378.575605 481.112013 
L 383.673824 475.500854 
L 388.772042 471.075175 
L 393.87026 464.421271 
L 398.968479 455.577368 
L 404.066697 447.64117 
L 409.164915 439.155907 
L 414.263134 431.664771 
L 424.459571 414.475202 
L 429.557789 408.722172 
L 434.656007 401.157207 
L 439.754226 393.912896 
L 444.852444 388.98587 
L 449.950662 386.930925 
L 455.048881 385.325631 
L 460.147099 387.627789 
L 465.245317 390.334404 
L 470.343536 393.397616 
L 475.441754 399.768088 
L 480.539973 407.216961 
L 485.638191 415.91082 
L 490.736409 425.073851 
L 495.834628 432.531735 
L 500.932846 441.542633 
L 506.031064 450.171459 
L 511.129283 457.998385 
L 516.227501 466.520132 
L 526.423938 479.233768 
L 531.522156 482.828526 
L 541.718593 486.720449 
L 546.816811 485.695815 
L 551.91503 482.145096 
L 557.013248 478.141217 
L 562.111466 473.813752 
L 567.209685 466.855168 
L 577.406122 450.694958 
L 582.50434 441.064201 
L 587.602558 432.373294 
L 592.700777 423.082058 
L 602.897213 409.969102 
L 607.995432 402.056945 
L 613.09365 396.453344 
L 618.191868 392.395176 
L 623.290087 387.572965 
L 628.388305 386.139511 
L 633.486524 385.243603 
L 638.584742 386.218977 
L 643.68296 388.562429 
L 648.781179 393.218706 
L 653.879397 398.871488 
L 658.977615 406.763507 
L 664.075834 415.213745 
L 669.174052 422.216267 
L 674.27227 430.693738 
L 679.370489 437.651195 
L 684.468707 445.591926 
L 689.566926 453.778947 
L 694.665144 462.944892 
L 699.763362 469.156631 
L 704.861581 476.207636 
L 709.959799 481.887847 
L 715.058017 486.831142 
L 720.156236 490.321878 
L 725.254454 489.89534 
L 730.352672 488.853247 
L 735.450891 487.485278 
L 740.549109 482.564462 
L 745.647328 477.116247 
L 750.745546 469.811395 
L 755.843764 460.880594 
L 760.941983 452.969844 
L 766.040201 443.157543 
L 771.138419 434.461944 
L 776.236638 427.330203 
L 781.334856 417.476829 
L 791.531293 399.567866 
L 796.629511 394.097379 
L 801.72773 389.494989 
L 806.825948 383.885116 
L 811.924166 381.130435 
L 817.022385 382.070735 
L 822.120603 382.758031 
L 827.218821 385.255393 
L 832.31704 388.953644 
L 837.415258 394.942017 
L 842.513476 403.842652 
L 847.611695 413.688199 
L 857.808132 434.075488 
L 862.90635 443.325454 
L 868.004568 450.648862 
L 873.102787 458.806056 
L 878.201005 466.41103 
L 883.299223 472.820567 
L 888.397442 480.604356 
L 893.49566 486.492573 
L 898.593878 489.610928 
L 903.692097 489.840037 
L 908.790315 489.705607 
L 913.888534 489.013783 
L 924.08497 479.54427 
L 929.183189 471.997644 
L 934.281407 464.756761 
L 944.477844 446.356009 
L 949.576062 437.901498 
L 954.67428 430.816296 
L 964.870717 417.234408 
L 969.968936 410.984077 
L 980.165372 399.050851 
L 985.263591 392.632589 
L 990.361809 388.297655 
L 995.460027 387.299388 
L 1000.558246 387.420145 
L 1005.656464 386.627341 
L 1010.754683 389.085886 
L 1015.852901 394.296868 
L 1020.951119 400.41772 
L 1026.049338 406.202638 
L 1031.147556 414.314294 
L 1036.245774 421.466971 
L 1041.343993 427.711027 
L 1046.442211 434.795818 
L 1051.540429 443.7527 
L 1056.638648 451.697186 
L 1061.736866 458.848809 
L 1066.835085 465.168109 
L 1071.933303 473.026295 
L 1077.031521 480.278903 
L 1082.12974 485.78613 
L 1087.227958 488.199533 
L 1092.326176 488.378348 
L 1097.424395 486.900801 
L 1102.522613 484.130134 
L 1107.620831 477.814324 
L 1112.71905 471.688273 
L 1117.817268 465.203467 
L 1122.915487 457.422444 
L 1128.013705 448.637238 
L 1133.111923 440.07402 
L 1138.210142 432.847935 
L 1143.30836 426.172201 
L 1148.406578 418.561256 
L 1153.504797 410.643058 
L 1158.603015 404.381179 
L 1163.701233 397.480319 
L 1168.799452 393.801493 
L 1178.995889 387.457831 
L 1184.094107 387.862106 
L 1189.192325 388.645852 
L 1194.290544 391.311361 
L 1199.388762 394.504649 
L 1204.48698 401.19457 
L 1209.585199 409.143882 
L 1214.683417 415.552228 
L 1229.978072 435.669263 
L 1235.076291 445.516868 
L 1240.174509 454.306372 
L 1245.272727 461.362364 
L 1245.272727 461.362364 
" style="fill:none;stroke:#000000;stroke-linecap:square;stroke-width:4;"/>
   </g>
   <g id="line2d_46">
    <path clip-path="url(#p50f1c1cbba)" d="M 230.727273 427.741686 
L 235.825491 418.534949 
L 240.923709 412.273026 
L 246.021928 405.324952 
L 251.120146 399.621252 
L 256.218365 395.050574 
L 261.316583 391.336965 
L 266.414801 388.499302 
L 271.51302 387.153279 
L 276.611238 387.075689 
L 281.709456 389.237555 
L 286.807675 392.061415 
L 291.905893 398.104536 
L 297.004111 402.762292 
L 302.10233 411.436479 
L 307.200548 418.281151 
L 312.298767 426.421452 
L 317.396985 434.21502 
L 322.495203 443.59644 
L 327.593422 452.635508 
L 332.69164 459.126841 
L 337.789858 464.50569 
L 342.888077 471.624277 
L 347.986295 476.356606 
L 353.084513 479.16119 
L 358.182732 480.445339 
L 363.28095 483.151142 
L 368.379169 484.309275 
L 373.477387 483.24245 
L 378.575605 477.929348 
L 383.673824 474.19001 
L 388.772042 468.179867 
L 393.87026 459.388539 
L 398.968479 451.673909 
L 404.066697 443.074508 
L 409.164915 435.750658 
L 414.263134 427.059922 
L 419.361352 417.986433 
L 424.459571 412.304394 
L 434.656007 396.510206 
L 439.754226 390.625035 
L 444.852444 387.957646 
L 449.950662 385.099248 
L 455.048881 386.656088 
L 465.245317 390.787358 
L 470.343536 396.582168 
L 475.441754 403.544549 
L 480.539973 411.918864 
L 485.638191 421.240197 
L 490.736409 428.409874 
L 500.932846 446.281633 
L 506.031064 454.084735 
L 511.129283 463.15486 
L 516.227501 469.679163 
L 521.32572 476.915596 
L 526.423938 481.303435 
L 531.522156 483.797765 
L 536.620375 486.827866 
L 541.718593 486.852181 
L 546.816811 483.998507 
L 557.013248 477.004254 
L 562.111466 470.523364 
L 572.307903 454.938489 
L 577.406122 445.214286 
L 582.50434 436.673265 
L 587.602558 426.950807 
L 592.700777 420.222081 
L 597.798995 413.774952 
L 602.897213 405.307898 
L 607.995432 399.090719 
L 613.09365 394.747163 
L 618.191868 388.853593 
L 623.290087 386.715947 
L 628.388305 384.86516 
L 633.486524 384.993177 
L 638.584742 386.37818 
L 643.68296 390.402544 
L 648.781179 395.33659 
L 653.879397 402.826845 
L 658.977615 411.340373 
L 664.075834 417.985514 
L 669.174052 426.647115 
L 674.27227 433.446886 
L 684.468707 449.444512 
L 689.566926 459.185399 
L 694.665144 465.453625 
L 699.763362 472.999012 
L 704.861581 479.19813 
L 709.959799 484.833185 
L 715.058017 489.560855 
L 720.156236 489.960448 
L 725.254454 489.625209 
L 730.352672 489.464609 
L 735.450891 485.179977 
L 740.549109 480.43133 
L 745.647328 473.725871 
L 750.745546 464.822987 
L 755.843764 457.335366 
L 760.941983 447.467522 
L 766.040201 438.504299 
L 771.138419 431.766878 
L 776.236638 421.698566 
L 781.334856 412.723898 
L 786.433074 403.00963 
L 791.531293 397.037855 
L 796.629511 392.166617 
L 801.72773 385.619611 
L 806.825948 381.60295 
L 811.924166 381.865578 
L 817.022385 381.565035 
L 822.120603 383.244586 
L 827.218821 386.089081 
L 832.31704 391.229613 
L 837.415258 399.699934 
L 842.513476 409.321363 
L 852.709913 429.652562 
L 857.808132 439.204613 
L 862.90635 446.444473 
L 868.004568 454.745199 
L 873.102787 462.71993 
L 878.201005 469.150385 
L 883.299223 477.536534 
L 888.397442 484.286627 
L 893.49566 488.459883 
L 898.593878 489.455264 
L 908.790315 490.695652 
L 913.888534 486.495366 
L 918.986752 482.741108 
L 924.08497 475.492874 
L 929.183189 468.814457 
L 939.379625 450.583015 
L 944.477844 441.972508 
L 949.576062 434.842098 
L 959.772499 421.076237 
L 969.968936 408.40043 
L 975.067154 402.292227 
L 980.165372 395.216807 
L 985.263591 389.882201 
L 990.361809 388.069483 
L 995.460027 387.720326 
L 1000.558246 385.81971 
L 1005.656464 387.245475 
L 1010.754683 391.751921 
L 1015.852901 397.530998 
L 1020.951119 402.625967 
L 1026.049338 410.626814 
L 1031.147556 417.775382 
L 1036.245774 423.85067 
L 1041.343993 430.60629 
L 1046.442211 439.709251 
L 1051.540429 447.813486 
L 1056.638648 455.247094 
L 1061.736866 461.535095 
L 1066.835085 469.756144 
L 1071.933303 477.636068 
L 1077.031521 484.118204 
L 1082.12974 487.492053 
L 1087.227958 488.611138 
L 1092.326176 487.953971 
L 1097.424395 486.355844 
L 1112.71905 468.84811 
L 1117.817268 461.417054 
L 1128.013705 444.058405 
L 1133.111923 436.743776 
L 1138.210142 430.15882 
L 1143.30836 422.547088 
L 1148.406578 414.214468 
L 1153.504797 407.878124 
L 1158.603015 400.18091 
L 1163.701233 395.985894 
L 1168.799452 392.284044 
L 1173.89767 388.0234 
L 1178.995889 387.745318 
L 1184.094107 387.590827 
L 1189.192325 389.632229 
L 1194.290544 391.808413 
L 1199.388762 397.859541 
L 1204.48698 405.737365 
L 1209.585199 411.896299 
L 1219.781635 424.845742 
L 1224.879854 431.350046 
L 1229.978072 441.340971 
L 1235.076291 450.431936 
L 1240.174509 457.855857 
L 1245.272727 463.619428 
L 1245.272727 463.619428 
" style="fill:none;stroke:#ff0000;stroke-linecap:square;stroke-width:1.5;"/>
   </g>
   <g id="patch_15">
    <path d="M 180 496.173913 
L 180 375.652174 
" style="fill:none;stroke:#000000;stroke-linecap:square;stroke-linejoin:miter;stroke-width:0.8;"/>
   </g>
   <g id="patch_16">
    <path d="M 1296 496.173913 
L 1296 375.652174 
" style="fill:none;stroke:#000000;stroke-linecap:square;stroke-linejoin:miter;stroke-width:0.8;"/>
   </g>
   <g id="patch_17">
    <path d="M 180 496.173913 
L 1296 496.173913 
" style="fill:none;stroke:#000000;stroke-linecap:square;stroke-linejoin:miter;stroke-width:0.8;"/>
   </g>
   <g id="patch_18">
    <path d="M 180 375.652174 
L 1296 375.652174 
" style="fill:none;stroke:#000000;stroke-linecap:square;stroke-linejoin:miter;stroke-width:0.8;"/>
   </g>
   <g id="legend_3">
    <g id="patch_19">
     <path d="M 1234.3125 413.008424 
L 1289 413.008424 
Q 1291 413.008424 1291 411.008424 
L 1291 382.652174 
Q 1291 380.652174 1289 380.652174 
L 1234.3125 380.652174 
Q 1232.3125 380.652174 1232.3125 382.652174 
L 1232.3125 411.008424 
Q 1232.3125 413.008424 1234.3125 413.008424 
z
" style="fill:#ffffff;opacity:0.8;stroke:#cccccc;stroke-linejoin:miter;"/>
    </g>
    <g id="line2d_47">
     <path d="M 1236.3125 388.750611 
L 1256.3125 388.750611 
" style="fill:none;stroke:#000000;stroke-linecap:square;stroke-width:4;"/>
    </g>
    <g id="line2d_48"/>
    <g id="text_40">
     <!-- Pred -->
     <g transform="translate(1264.3125 392.250611)scale(0.1 -0.1)">
      <use xlink:href="#DejaVuSans-80"/>
      <use x="60.287109" xlink:href="#DejaVuSans-114"/>
      <use x="101.369141" xlink:href="#DejaVuSans-101"/>
      <use x="162.892578" xlink:href="#DejaVuSans-100"/>
     </g>
    </g>
    <g id="line2d_49">
     <path d="M 1236.3125 403.428736 
L 1256.3125 403.428736 
" style="fill:none;stroke:#ff0000;stroke-linecap:square;stroke-width:1.5;"/>
    </g>
    <g id="line2d_50"/>
    <g id="text_41">
     <!-- True -->
     <g transform="translate(1264.3125 406.928736)scale(0.1 -0.1)">
      <use xlink:href="#DejaVuSans-84"/>
      <use x="60.865234" xlink:href="#DejaVuSans-114"/>
      <use x="101.978516" xlink:href="#DejaVuSans-117"/>
      <use x="165.357422" xlink:href="#DejaVuSans-101"/>
     </g>
    </g>
   </g>
  </g>
  <g id="axes_4">
   <g id="patch_20">
    <path d="M 180 640.8 
L 1296 640.8 
L 1296 520.278261 
L 180 520.278261 
z
" style="fill:#ffffff;"/>
   </g>
   <g id="matplotlib.axis_7">
    <g id="xtick_19">
     <g id="line2d_51">
      <g>
       <use style="stroke:#000000;stroke-width:0.8;" x="230.727273" xlink:href="#m0fc8dcd1f7" y="640.8"/>
      </g>
     </g>
     <g id="text_42">
      <!-- 0 -->
      <g transform="translate(227.546023 655.398438)scale(0.1 -0.1)">
       <use xlink:href="#DejaVuSans-48"/>
      </g>
     </g>
    </g>
    <g id="xtick_20">
     <g id="line2d_52">
      <g>
       <use style="stroke:#000000;stroke-width:0.8;" x="434.656007" xlink:href="#m0fc8dcd1f7" y="640.8"/>
      </g>
     </g>
     <g id="text_43">
      <!-- 2 -->
      <g transform="translate(431.474757 655.398438)scale(0.1 -0.1)">
       <use xlink:href="#DejaVuSans-50"/>
      </g>
     </g>
    </g>
    <g id="xtick_21">
     <g id="line2d_53">
      <g>
       <use style="stroke:#000000;stroke-width:0.8;" x="638.584742" xlink:href="#m0fc8dcd1f7" y="640.8"/>
      </g>
     </g>
     <g id="text_44">
      <!-- 4 -->
      <g transform="translate(635.403492 655.398438)scale(0.1 -0.1)">
       <use xlink:href="#DejaVuSans-52"/>
      </g>
     </g>
    </g>
    <g id="xtick_22">
     <g id="line2d_54">
      <g>
       <use style="stroke:#000000;stroke-width:0.8;" x="842.513476" xlink:href="#m0fc8dcd1f7" y="640.8"/>
      </g>
     </g>
     <g id="text_45">
      <!-- 6 -->
      <g transform="translate(839.332226 655.398438)scale(0.1 -0.1)">
       <use xlink:href="#DejaVuSans-54"/>
      </g>
     </g>
    </g>
    <g id="xtick_23">
     <g id="line2d_55">
      <g>
       <use style="stroke:#000000;stroke-width:0.8;" x="1046.442211" xlink:href="#m0fc8dcd1f7" y="640.8"/>
      </g>
     </g>
     <g id="text_46">
      <!-- 8 -->
      <g transform="translate(1043.260961 655.398438)scale(0.1 -0.1)">
       <use xlink:href="#DejaVuSans-56"/>
      </g>
     </g>
    </g>
    <g id="xtick_24">
     <g id="line2d_56">
      <g>
       <use style="stroke:#000000;stroke-width:0.8;" x="1250.370946" xlink:href="#m0fc8dcd1f7" y="640.8"/>
      </g>
     </g>
     <g id="text_47">
      <!-- 10 -->
      <g transform="translate(1244.008446 655.398438)scale(0.1 -0.1)">
       <use xlink:href="#DejaVuSans-49"/>
       <use x="63.623047" xlink:href="#DejaVuSans-48"/>
      </g>
     </g>
    </g>
    <g id="text_48">
     <!-- Time -->
     <defs>
      <path d="M 9.421875 54.6875 
L 18.40625 54.6875 
L 18.40625 0 
L 9.421875 0 
z
M 9.421875 75.984375 
L 18.40625 75.984375 
L 18.40625 64.59375 
L 9.421875 64.59375 
z
" id="DejaVuSans-105"/>
      <path d="M 52 44.1875 
Q 55.375 50.25 60.0625 53.125 
Q 64.75 56 71.09375 56 
Q 79.640625 56 84.28125 50.015625 
Q 88.921875 44.046875 88.921875 33.015625 
L 88.921875 0 
L 79.890625 0 
L 79.890625 32.71875 
Q 79.890625 40.578125 77.09375 44.375 
Q 74.3125 48.1875 68.609375 48.1875 
Q 61.625 48.1875 57.5625 43.546875 
Q 53.515625 38.921875 53.515625 30.90625 
L 53.515625 0 
L 44.484375 0 
L 44.484375 32.71875 
Q 44.484375 40.625 41.703125 44.40625 
Q 38.921875 48.1875 33.109375 48.1875 
Q 26.21875 48.1875 22.15625 43.53125 
Q 18.109375 38.875 18.109375 30.90625 
L 18.109375 0 
L 9.078125 0 
L 9.078125 54.6875 
L 18.109375 54.6875 
L 18.109375 46.1875 
Q 21.1875 51.21875 25.484375 53.609375 
Q 29.78125 56 35.6875 56 
Q 41.65625 56 45.828125 52.96875 
Q 50 49.953125 52 44.1875 
z
" id="DejaVuSans-109"/>
     </defs>
     <g transform="translate(725.6125 669.076563)scale(0.1 -0.1)">
      <use xlink:href="#DejaVuSans-84"/>
      <use x="61.037109" xlink:href="#DejaVuSans-105"/>
      <use x="88.820312" xlink:href="#DejaVuSans-109"/>
      <use x="186.232422" xlink:href="#DejaVuSans-101"/>
     </g>
    </g>
   </g>
   <g id="matplotlib.axis_8">
    <g id="ytick_15">
     <g id="line2d_57">
      <g>
       <use style="stroke:#000000;stroke-width:0.8;" x="180" xlink:href="#m0930ee8b20" y="635.334306"/>
      </g>
     </g>
     <g id="text_49">
      <!-- −1.0 -->
      <g transform="translate(148.717187 639.133524)scale(0.1 -0.1)">
       <use xlink:href="#DejaVuSans-8722"/>
       <use x="83.789062" xlink:href="#DejaVuSans-49"/>
       <use x="147.412109" xlink:href="#DejaVuSans-46"/>
       <use x="179.199219" xlink:href="#DejaVuSans-48"/>
      </g>
     </g>
    </g>
    <g id="ytick_16">
     <g id="line2d_58">
      <g>
       <use style="stroke:#000000;stroke-width:0.8;" x="180" xlink:href="#m0930ee8b20" y="607.866324"/>
      </g>
     </g>
     <g id="text_50">
      <!-- −0.5 -->
      <g transform="translate(148.717187 611.665543)scale(0.1 -0.1)">
       <use xlink:href="#DejaVuSans-8722"/>
       <use x="83.789062" xlink:href="#DejaVuSans-48"/>
       <use x="147.412109" xlink:href="#DejaVuSans-46"/>
       <use x="179.199219" xlink:href="#DejaVuSans-53"/>
      </g>
     </g>
    </g>
    <g id="ytick_17">
     <g id="line2d_59">
      <g>
       <use style="stroke:#000000;stroke-width:0.8;" x="180" xlink:href="#m0930ee8b20" y="580.398342"/>
      </g>
     </g>
     <g id="text_51">
      <!-- 0.0 -->
      <g transform="translate(157.096875 584.197561)scale(0.1 -0.1)">
       <use xlink:href="#DejaVuSans-48"/>
       <use x="63.623047" xlink:href="#DejaVuSans-46"/>
       <use x="95.410156" xlink:href="#DejaVuSans-48"/>
      </g>
     </g>
    </g>
    <g id="ytick_18">
     <g id="line2d_60">
      <g>
       <use style="stroke:#000000;stroke-width:0.8;" x="180" xlink:href="#m0930ee8b20" y="552.93036"/>
      </g>
     </g>
     <g id="text_52">
      <!-- 0.5 -->
      <g transform="translate(157.096875 556.729579)scale(0.1 -0.1)">
       <use xlink:href="#DejaVuSans-48"/>
       <use x="63.623047" xlink:href="#DejaVuSans-46"/>
       <use x="95.410156" xlink:href="#DejaVuSans-53"/>
      </g>
     </g>
    </g>
    <g id="ytick_19">
     <g id="line2d_61">
      <g>
       <use style="stroke:#000000;stroke-width:0.8;" x="180" xlink:href="#m0930ee8b20" y="525.462378"/>
      </g>
     </g>
     <g id="text_53">
      <!-- 1.0 -->
      <g transform="translate(157.096875 529.261597)scale(0.1 -0.1)">
       <use xlink:href="#DejaVuSans-49"/>
       <use x="63.623047" xlink:href="#DejaVuSans-46"/>
       <use x="95.410156" xlink:href="#DejaVuSans-48"/>
      </g>
     </g>
    </g>
    <g id="text_54">
     <!-- Control Input -->
     <defs>
      <path d="M 64.40625 67.28125 
L 64.40625 56.890625 
Q 59.421875 61.53125 53.78125 63.8125 
Q 48.140625 66.109375 41.796875 66.109375 
Q 29.296875 66.109375 22.65625 58.46875 
Q 16.015625 50.828125 16.015625 36.375 
Q 16.015625 21.96875 22.65625 14.328125 
Q 29.296875 6.6875 41.796875 6.6875 
Q 48.140625 6.6875 53.78125 8.984375 
Q 59.421875 11.28125 64.40625 15.921875 
L 64.40625 5.609375 
Q 59.234375 2.09375 53.4375 0.328125 
Q 47.65625 -1.421875 41.21875 -1.421875 
Q 24.65625 -1.421875 15.125 8.703125 
Q 5.609375 18.84375 5.609375 36.375 
Q 5.609375 53.953125 15.125 64.078125 
Q 24.65625 74.21875 41.21875 74.21875 
Q 47.75 74.21875 53.53125 72.484375 
Q 59.328125 70.75 64.40625 67.28125 
z
" id="DejaVuSans-67"/>
      <path d="M 30.609375 48.390625 
Q 23.390625 48.390625 19.1875 42.75 
Q 14.984375 37.109375 14.984375 27.296875 
Q 14.984375 17.484375 19.15625 11.84375 
Q 23.34375 6.203125 30.609375 6.203125 
Q 37.796875 6.203125 41.984375 11.859375 
Q 46.1875 17.53125 46.1875 27.296875 
Q 46.1875 37.015625 41.984375 42.703125 
Q 37.796875 48.390625 30.609375 48.390625 
z
M 30.609375 56 
Q 42.328125 56 49.015625 48.375 
Q 55.71875 40.765625 55.71875 27.296875 
Q 55.71875 13.875 49.015625 6.21875 
Q 42.328125 -1.421875 30.609375 -1.421875 
Q 18.84375 -1.421875 12.171875 6.21875 
Q 5.515625 13.875 5.515625 27.296875 
Q 5.515625 40.765625 12.171875 48.375 
Q 18.84375 56 30.609375 56 
z
" id="DejaVuSans-111"/>
      <path d="M 54.890625 33.015625 
L 54.890625 0 
L 45.90625 0 
L 45.90625 32.71875 
Q 45.90625 40.484375 42.875 44.328125 
Q 39.84375 48.1875 33.796875 48.1875 
Q 26.515625 48.1875 22.3125 43.546875 
Q 18.109375 38.921875 18.109375 30.90625 
L 18.109375 0 
L 9.078125 0 
L 9.078125 54.6875 
L 18.109375 54.6875 
L 18.109375 46.1875 
Q 21.34375 51.125 25.703125 53.5625 
Q 30.078125 56 35.796875 56 
Q 45.21875 56 50.046875 50.171875 
Q 54.890625 44.34375 54.890625 33.015625 
z
" id="DejaVuSans-110"/>
      <path d="M 9.421875 75.984375 
L 18.40625 75.984375 
L 18.40625 0 
L 9.421875 0 
z
" id="DejaVuSans-108"/>
      <path d="M 9.8125 72.90625 
L 19.671875 72.90625 
L 19.671875 0 
L 9.8125 0 
z
" id="DejaVuSans-73"/>
      <path d="M 18.109375 8.203125 
L 18.109375 -20.796875 
L 9.078125 -20.796875 
L 9.078125 54.6875 
L 18.109375 54.6875 
L 18.109375 46.390625 
Q 20.953125 51.265625 25.265625 53.625 
Q 29.59375 56 35.59375 56 
Q 45.5625 56 51.78125 48.09375 
Q 58.015625 40.1875 58.015625 27.296875 
Q 58.015625 14.40625 51.78125 6.484375 
Q 45.5625 -1.421875 35.59375 -1.421875 
Q 29.59375 -1.421875 25.265625 0.953125 
Q 20.953125 3.328125 18.109375 8.203125 
z
M 48.6875 27.296875 
Q 48.6875 37.203125 44.609375 42.84375 
Q 40.53125 48.484375 33.40625 48.484375 
Q 26.265625 48.484375 22.1875 42.84375 
Q 18.109375 37.203125 18.109375 27.296875 
Q 18.109375 17.390625 22.1875 11.75 
Q 26.265625 6.109375 33.40625 6.109375 
Q 40.53125 6.109375 44.609375 11.75 
Q 48.6875 17.390625 48.6875 27.296875 
z
" id="DejaVuSans-112"/>
     </defs>
     <g transform="translate(142.6375 613.257099)rotate(-90)scale(0.1 -0.1)">
      <use xlink:href="#DejaVuSans-67"/>
      <use x="69.824219" xlink:href="#DejaVuSans-111"/>
      <use x="131.005859" xlink:href="#DejaVuSans-110"/>
      <use x="194.384766" xlink:href="#DejaVuSans-116"/>
      <use x="233.59375" xlink:href="#DejaVuSans-114"/>
      <use x="274.675781" xlink:href="#DejaVuSans-111"/>
      <use x="335.857422" xlink:href="#DejaVuSans-108"/>
      <use x="363.640625" xlink:href="#DejaVuSans-32"/>
      <use x="395.427734" xlink:href="#DejaVuSans-73"/>
      <use x="424.919922" xlink:href="#DejaVuSans-110"/>
      <use x="488.298828" xlink:href="#DejaVuSans-112"/>
      <use x="551.775391" xlink:href="#DejaVuSans-117"/>
      <use x="615.154297" xlink:href="#DejaVuSans-116"/>
     </g>
    </g>
   </g>
   <g id="line2d_62">
    <path clip-path="url(#p252f4791ff)" d="M 230.727273 589.515294 
L 235.825491 556.190865 
L 240.923709 635.321739 
L 246.021928 602.116443 
L 251.120146 619.209953 
L 256.218365 625.188886 
L 261.316583 614.869537 
L 266.414801 597.366883 
L 271.51302 591.740699 
L 276.611238 576.133473 
L 281.709456 589.276596 
L 286.807675 560.047918 
L 291.905893 612.870743 
L 297.004111 538.85385 
L 302.10233 632.325178 
L 307.200548 561.668748 
L 312.298767 589.484223 
L 317.396985 573.949977 
L 322.495203 619.909722 
L 327.593422 613.568513 
L 332.69164 547.354956 
L 337.789858 528.94954 
L 342.888077 600.897787 
L 347.986295 559.267485 
L 353.084513 539.04374 
L 358.182732 537.042147 
L 363.28095 625.990334 
L 368.379169 631.043281 
L 373.477387 616.67471 
L 378.575605 538.851096 
L 383.673824 624.52875 
L 388.772042 589.066399 
L 393.87026 530.089137 
L 398.968479 576.754408 
L 404.066697 559.316434 
L 409.164915 600.667995 
L 414.263134 559.907126 
L 419.361352 543.632374 
L 424.459571 633.324937 
L 429.557789 552.914504 
L 434.656007 526.686232 
L 439.754226 553.131903 
L 444.852444 604.521384 
L 449.950662 548.614665 
L 455.048881 623.992665 
L 460.147099 586.123381 
L 465.245317 535.505166 
L 470.343536 603.074353 
L 475.441754 603.715875 
L 480.539973 621.047816 
L 485.638191 633.206421 
L 490.736409 560.749337 
L 495.834628 612.082317 
L 500.932846 606.158182 
L 506.031064 581.324215 
L 511.129283 629.47126 
L 516.227501 572.254898 
L 521.32572 619.212954 
L 526.423938 570.58617 
L 531.522156 558.450506 
L 536.620375 624.090625 
L 541.718593 589.841176 
L 546.816811 559.039222 
L 551.91503 589.827631 
L 557.013248 629.845823 
L 562.111466 576.454335 
L 567.209685 562.401909 
L 572.307903 578.762446 
L 577.406122 531.549859 
L 582.50434 570.888373 
L 587.602558 536.075796 
L 592.700777 620.229695 
L 597.798995 620.031745 
L 602.897213 546.624669 
L 607.995432 591.640785 
L 613.09365 617.166521 
L 618.191868 533.42715 
L 623.290087 597.1246 
L 628.388305 552.841133 
L 633.486524 555.567508 
L 638.584742 538.283763 
L 643.68296 566.810238 
L 648.781179 552.826813 
L 653.879397 597.000172 
L 658.977615 605.676808 
L 664.075834 536.90156 
L 669.174052 588.299102 
L 674.27227 529.32547 
L 679.370489 562.44071 
L 684.468707 567.027399 
L 689.566926 622.726944 
L 694.665144 531.012091 
L 699.763362 585.901592 
L 704.861581 571.785524 
L 715.058017 609.291695 
L 720.156236 536.078256 
L 725.254454 572.303035 
L 730.352672 635.018937 
L 735.450891 567.527404 
L 740.549109 599.445201 
L 745.647328 577.425416 
L 750.745546 537.99414 
L 755.843764 596.080389 
L 760.941983 535.511797 
L 766.040201 566.844528 
L 771.138419 633.595995 
L 776.236638 533.215245 
L 781.334856 559.42413 
L 786.433074 525.756522 
L 791.531293 616.398922 
L 796.629511 620.266937 
L 801.72773 532.868245 
L 806.825948 558.773551 
L 811.924166 628.08274 
L 817.022385 552.330124 
L 822.120603 552.504476 
L 827.218821 533.919821 
L 832.31704 557.157709 
L 837.415258 621.680416 
L 842.513476 633.150037 
L 847.611695 632.454454 
L 852.709913 632.224217 
L 857.808132 608.282621 
L 862.90635 540.841377 
L 868.004568 576.131898 
L 873.102787 574.594689 
L 878.201005 542.818749 
L 883.299223 621.691144 
L 888.397442 604.659857 
L 893.49566 570.975805 
L 898.593878 528.802952 
L 903.692097 573.692834 
L 908.790315 633.285492 
L 913.888534 547.367251 
L 918.986752 609.736973 
L 924.08497 546.656102 
L 929.183189 592.719309 
L 934.281407 540.455298 
L 939.379625 553.246611 
L 944.477844 574.219119 
L 949.576062 620.341707 
L 954.67428 628.751034 
L 959.772499 622.002066 
L 964.870717 630.439305 
L 969.968936 623.523719 
L 975.067154 610.535186 
L 980.165372 556.996832 
L 985.263591 573.837122 
L 990.361809 633.954756 
L 995.460027 627.426353 
L 1000.558246 529.057791 
L 1005.656464 572.916013 
L 1010.754683 612.998086 
L 1015.852901 607.61079 
L 1020.951119 553.608725 
L 1026.049338 613.862092 
L 1036.245774 528.75634 
L 1041.343993 542.291593 
L 1046.442211 608.98177 
L 1051.540429 581.082875 
L 1056.638648 567.218576 
L 1061.736866 544.252576 
L 1066.835085 618.107333 
L 1071.933303 633.293303 
L 1077.031521 627.640838 
L 1082.12974 581.898631 
L 1087.227958 568.715719 
L 1092.326176 572.833502 
L 1097.424395 600.465086 
L 1102.522613 526.713143 
L 1107.620831 571.636581 
L 1112.71905 593.567462 
L 1117.817268 574.800563 
L 1122.915487 553.442975 
L 1128.013705 561.804398 
L 1133.111923 606.227083 
L 1138.210142 628.04597 
L 1143.30836 594.672442 
L 1148.406578 566.146029 
L 1153.504797 612.242082 
L 1158.603015 552.627602 
L 1163.701233 628.023814 
L 1168.799452 606.732984 
L 1173.89767 546.914371 
L 1178.995889 614.081308 
L 1184.094107 565.075506 
L 1189.192325 577.687768 
L 1194.290544 533.723871 
L 1199.388762 606.405382 
L 1204.48698 628.087034 
L 1209.585199 554.571191 
L 1214.683417 550.493617 
L 1219.781635 535.590828 
L 1224.879854 532.936738 
L 1229.978072 633.801419 
L 1235.076291 609.584492 
L 1240.174509 567.567679 
L 1245.272727 531.064053 
L 1245.272727 531.064053 
" style="fill:none;stroke:#ff0000;stroke-linecap:square;stroke-width:1.5;"/>
   </g>
   <g id="patch_21">
    <path d="M 180 640.8 
L 180 520.278261 
" style="fill:none;stroke:#000000;stroke-linecap:square;stroke-linejoin:miter;stroke-width:0.8;"/>
   </g>
   <g id="patch_22">
    <path d="M 1296 640.8 
L 1296 520.278261 
" style="fill:none;stroke:#000000;stroke-linecap:square;stroke-linejoin:miter;stroke-width:0.8;"/>
   </g>
   <g id="patch_23">
    <path d="M 180 640.8 
L 1296 640.8 
" style="fill:none;stroke:#000000;stroke-linecap:square;stroke-linejoin:miter;stroke-width:0.8;"/>
   </g>
   <g id="patch_24">
    <path d="M 180 520.278261 
L 1296 520.278261 
" style="fill:none;stroke:#000000;stroke-linecap:square;stroke-linejoin:miter;stroke-width:0.8;"/>
   </g>
   <g id="legend_4">
    <g id="patch_25">
     <path d="M 1194.742188 542.956386 
L 1289 542.956386 
Q 1291 542.956386 1291 540.956386 
L 1291 527.278261 
Q 1291 525.278261 1289 525.278261 
L 1194.742188 525.278261 
Q 1192.742188 525.278261 1192.742188 527.278261 
L 1192.742188 540.956386 
Q 1192.742188 542.956386 1194.742188 542.956386 
z
" style="fill:#ffffff;opacity:0.8;stroke:#cccccc;stroke-linejoin:miter;"/>
    </g>
    <g id="line2d_63">
     <path d="M 1196.742188 533.376698 
L 1216.742188 533.376698 
" style="fill:none;stroke:#ff0000;stroke-linecap:square;stroke-width:1.5;"/>
    </g>
    <g id="line2d_64"/>
    <g id="text_55">
     <!-- ControlInput -->
     <g transform="translate(1224.742188 536.876698)scale(0.1 -0.1)">
      <use xlink:href="#DejaVuSans-67"/>
      <use x="69.824219" xlink:href="#DejaVuSans-111"/>
      <use x="131.005859" xlink:href="#DejaVuSans-110"/>
      <use x="194.384766" xlink:href="#DejaVuSans-116"/>
      <use x="233.59375" xlink:href="#DejaVuSans-114"/>
      <use x="274.675781" xlink:href="#DejaVuSans-111"/>
      <use x="335.857422" xlink:href="#DejaVuSans-108"/>
      <use x="363.640625" xlink:href="#DejaVuSans-73"/>
      <use x="393.132812" xlink:href="#DejaVuSans-110"/>
      <use x="456.511719" xlink:href="#DejaVuSans-112"/>
      <use x="519.988281" xlink:href="#DejaVuSans-117"/>
      <use x="583.367188" xlink:href="#DejaVuSans-116"/>
     </g>
    </g>
   </g>
  </g>
 </g>
 <defs>
  <clipPath id="p53681f738c">
   <rect height="120.521739" width="1116" x="180" y="86.4"/>
  </clipPath>
  <clipPath id="pad1d4009a8">
   <rect height="120.521739" width="1116" x="180" y="231.026087"/>
  </clipPath>
  <clipPath id="p50f1c1cbba">
   <rect height="120.521739" width="1116" x="180" y="375.652174"/>
  </clipPath>
  <clipPath id="p252f4791ff">
   <rect height="120.521739" width="1116" x="180" y="520.278261"/>
  </clipPath>
 </defs>
</svg>
