<?xml version="1.0" encoding="utf-8" standalone="no"?>
<!DOCTYPE svg PUBLIC "-//W3C//DTD SVG 1.1//EN"
  "http://www.w3.org/Graphics/SVG/1.1/DTD/svg11.dtd">
<!-- Created with matplotlib (https://matplotlib.org/) -->
<svg height="720pt" version="1.1" viewBox="0 0 1440 720" width="1440pt" xmlns="http://www.w3.org/2000/svg" xmlns:xlink="http://www.w3.org/1999/xlink">
 <defs>
  <style type="text/css">
*{stroke-linecap:butt;stroke-linejoin:round;}
  </style>
 </defs>
 <g id="figure_1">
  <g id="patch_1">
   <path d="M 0 720 
L 1440 720 
L 1440 0 
L 0 0 
z
" style="fill:#ffffff;"/>
  </g>
  <g id="axes_1">
   <g id="patch_2">
    <path d="M 180 206.921739 
L 1296 206.921739 
L 1296 86.4 
L 180 86.4 
z
" style="fill:#ffffff;"/>
   </g>
   <g id="matplotlib.axis_1">
    <g id="xtick_1">
     <g id="line2d_1">
      <defs>
       <path d="M 0 0 
L 0 3.5 
" id="m5936951e1d" style="stroke:#000000;stroke-width:0.8;"/>
      </defs>
      <g>
       <use style="stroke:#000000;stroke-width:0.8;" x="230.727273" xlink:href="#m5936951e1d" y="206.921739"/>
      </g>
     </g>
     <g id="text_1">
      <!-- 0 -->
      <defs>
       <path d="M 31.78125 66.40625 
Q 24.171875 66.40625 20.328125 58.90625 
Q 16.5 51.421875 16.5 36.375 
Q 16.5 21.390625 20.328125 13.890625 
Q 24.171875 6.390625 31.78125 6.390625 
Q 39.453125 6.390625 43.28125 13.890625 
Q 47.125 21.390625 47.125 36.375 
Q 47.125 51.421875 43.28125 58.90625 
Q 39.453125 66.40625 31.78125 66.40625 
z
M 31.78125 74.21875 
Q 44.046875 74.21875 50.515625 64.515625 
Q 56.984375 54.828125 56.984375 36.375 
Q 56.984375 17.96875 50.515625 8.265625 
Q 44.046875 -1.421875 31.78125 -1.421875 
Q 19.53125 -1.421875 13.0625 8.265625 
Q 6.59375 17.96875 6.59375 36.375 
Q 6.59375 54.828125 13.0625 64.515625 
Q 19.53125 74.21875 31.78125 74.21875 
z
" id="DejaVuSans-48"/>
      </defs>
      <g transform="translate(227.546023 221.520177)scale(0.1 -0.1)">
       <use xlink:href="#DejaVuSans-48"/>
      </g>
     </g>
    </g>
    <g id="xtick_2">
     <g id="line2d_2">
      <g>
       <use style="stroke:#000000;stroke-width:0.8;" x="434.656007" xlink:href="#m5936951e1d" y="206.921739"/>
      </g>
     </g>
     <g id="text_2">
      <!-- 2 -->
      <defs>
       <path d="M 19.1875 8.296875 
L 53.609375 8.296875 
L 53.609375 0 
L 7.328125 0 
L 7.328125 8.296875 
Q 12.9375 14.109375 22.625 23.890625 
Q 32.328125 33.6875 34.8125 36.53125 
Q 39.546875 41.84375 41.421875 45.53125 
Q 43.3125 49.21875 43.3125 52.78125 
Q 43.3125 58.59375 39.234375 62.25 
Q 35.15625 65.921875 28.609375 65.921875 
Q 23.96875 65.921875 18.8125 64.3125 
Q 13.671875 62.703125 7.8125 59.421875 
L 7.8125 69.390625 
Q 13.765625 71.78125 18.9375 73 
Q 24.125 74.21875 28.421875 74.21875 
Q 39.75 74.21875 46.484375 68.546875 
Q 53.21875 62.890625 53.21875 53.421875 
Q 53.21875 48.921875 51.53125 44.890625 
Q 49.859375 40.875 45.40625 35.40625 
Q 44.1875 33.984375 37.640625 27.21875 
Q 31.109375 20.453125 19.1875 8.296875 
z
" id="DejaVuSans-50"/>
      </defs>
      <g transform="translate(431.474757 221.520177)scale(0.1 -0.1)">
       <use xlink:href="#DejaVuSans-50"/>
      </g>
     </g>
    </g>
    <g id="xtick_3">
     <g id="line2d_3">
      <g>
       <use style="stroke:#000000;stroke-width:0.8;" x="638.584742" xlink:href="#m5936951e1d" y="206.921739"/>
      </g>
     </g>
     <g id="text_3">
      <!-- 4 -->
      <defs>
       <path d="M 37.796875 64.3125 
L 12.890625 25.390625 
L 37.796875 25.390625 
z
M 35.203125 72.90625 
L 47.609375 72.90625 
L 47.609375 25.390625 
L 58.015625 25.390625 
L 58.015625 17.1875 
L 47.609375 17.1875 
L 47.609375 0 
L 37.796875 0 
L 37.796875 17.1875 
L 4.890625 17.1875 
L 4.890625 26.703125 
z
" id="DejaVuSans-52"/>
      </defs>
      <g transform="translate(635.403492 221.520177)scale(0.1 -0.1)">
       <use xlink:href="#DejaVuSans-52"/>
      </g>
     </g>
    </g>
    <g id="xtick_4">
     <g id="line2d_4">
      <g>
       <use style="stroke:#000000;stroke-width:0.8;" x="842.513476" xlink:href="#m5936951e1d" y="206.921739"/>
      </g>
     </g>
     <g id="text_4">
      <!-- 6 -->
      <defs>
       <path d="M 33.015625 40.375 
Q 26.375 40.375 22.484375 35.828125 
Q 18.609375 31.296875 18.609375 23.390625 
Q 18.609375 15.53125 22.484375 10.953125 
Q 26.375 6.390625 33.015625 6.390625 
Q 39.65625 6.390625 43.53125 10.953125 
Q 47.40625 15.53125 47.40625 23.390625 
Q 47.40625 31.296875 43.53125 35.828125 
Q 39.65625 40.375 33.015625 40.375 
z
M 52.59375 71.296875 
L 52.59375 62.3125 
Q 48.875 64.0625 45.09375 64.984375 
Q 41.3125 65.921875 37.59375 65.921875 
Q 27.828125 65.921875 22.671875 59.328125 
Q 17.53125 52.734375 16.796875 39.40625 
Q 19.671875 43.65625 24.015625 45.921875 
Q 28.375 48.1875 33.59375 48.1875 
Q 44.578125 48.1875 50.953125 41.515625 
Q 57.328125 34.859375 57.328125 23.390625 
Q 57.328125 12.15625 50.6875 5.359375 
Q 44.046875 -1.421875 33.015625 -1.421875 
Q 20.359375 -1.421875 13.671875 8.265625 
Q 6.984375 17.96875 6.984375 36.375 
Q 6.984375 53.65625 15.1875 63.9375 
Q 23.390625 74.21875 37.203125 74.21875 
Q 40.921875 74.21875 44.703125 73.484375 
Q 48.484375 72.75 52.59375 71.296875 
z
" id="DejaVuSans-54"/>
      </defs>
      <g transform="translate(839.332226 221.520177)scale(0.1 -0.1)">
       <use xlink:href="#DejaVuSans-54"/>
      </g>
     </g>
    </g>
    <g id="xtick_5">
     <g id="line2d_5">
      <g>
       <use style="stroke:#000000;stroke-width:0.8;" x="1046.442211" xlink:href="#m5936951e1d" y="206.921739"/>
      </g>
     </g>
     <g id="text_5">
      <!-- 8 -->
      <defs>
       <path d="M 31.78125 34.625 
Q 24.75 34.625 20.71875 30.859375 
Q 16.703125 27.09375 16.703125 20.515625 
Q 16.703125 13.921875 20.71875 10.15625 
Q 24.75 6.390625 31.78125 6.390625 
Q 38.8125 6.390625 42.859375 10.171875 
Q 46.921875 13.96875 46.921875 20.515625 
Q 46.921875 27.09375 42.890625 30.859375 
Q 38.875 34.625 31.78125 34.625 
z
M 21.921875 38.8125 
Q 15.578125 40.375 12.03125 44.71875 
Q 8.5 49.078125 8.5 55.328125 
Q 8.5 64.0625 14.71875 69.140625 
Q 20.953125 74.21875 31.78125 74.21875 
Q 42.671875 74.21875 48.875 69.140625 
Q 55.078125 64.0625 55.078125 55.328125 
Q 55.078125 49.078125 51.53125 44.71875 
Q 48 40.375 41.703125 38.8125 
Q 48.828125 37.15625 52.796875 32.3125 
Q 56.78125 27.484375 56.78125 20.515625 
Q 56.78125 9.90625 50.3125 4.234375 
Q 43.84375 -1.421875 31.78125 -1.421875 
Q 19.734375 -1.421875 13.25 4.234375 
Q 6.78125 9.90625 6.78125 20.515625 
Q 6.78125 27.484375 10.78125 32.3125 
Q 14.796875 37.15625 21.921875 38.8125 
z
M 18.3125 54.390625 
Q 18.3125 48.734375 21.84375 45.5625 
Q 25.390625 42.390625 31.78125 42.390625 
Q 38.140625 42.390625 41.71875 45.5625 
Q 45.3125 48.734375 45.3125 54.390625 
Q 45.3125 60.0625 41.71875 63.234375 
Q 38.140625 66.40625 31.78125 66.40625 
Q 25.390625 66.40625 21.84375 63.234375 
Q 18.3125 60.0625 18.3125 54.390625 
z
" id="DejaVuSans-56"/>
      </defs>
      <g transform="translate(1043.260961 221.520177)scale(0.1 -0.1)">
       <use xlink:href="#DejaVuSans-56"/>
      </g>
     </g>
    </g>
    <g id="xtick_6">
     <g id="line2d_6">
      <g>
       <use style="stroke:#000000;stroke-width:0.8;" x="1250.370946" xlink:href="#m5936951e1d" y="206.921739"/>
      </g>
     </g>
     <g id="text_6">
      <!-- 10 -->
      <defs>
       <path d="M 12.40625 8.296875 
L 28.515625 8.296875 
L 28.515625 63.921875 
L 10.984375 60.40625 
L 10.984375 69.390625 
L 28.421875 72.90625 
L 38.28125 72.90625 
L 38.28125 8.296875 
L 54.390625 8.296875 
L 54.390625 0 
L 12.40625 0 
z
" id="DejaVuSans-49"/>
      </defs>
      <g transform="translate(1244.008446 221.520177)scale(0.1 -0.1)">
       <use xlink:href="#DejaVuSans-49"/>
       <use x="63.623047" xlink:href="#DejaVuSans-48"/>
      </g>
     </g>
    </g>
   </g>
   <g id="matplotlib.axis_2">
    <g id="ytick_1">
     <g id="line2d_7">
      <defs>
       <path d="M 0 0 
L -3.5 0 
" id="mcf7f818c90" style="stroke:#000000;stroke-width:0.8;"/>
      </defs>
      <g>
       <use style="stroke:#000000;stroke-width:0.8;" x="180" xlink:href="#mcf7f818c90" y="199.974051"/>
      </g>
     </g>
     <g id="text_7">
      <!-- −1.0 -->
      <defs>
       <path d="M 10.59375 35.5 
L 73.1875 35.5 
L 73.1875 27.203125 
L 10.59375 27.203125 
z
" id="DejaVuSans-8722"/>
       <path d="M 10.6875 12.40625 
L 21 12.40625 
L 21 0 
L 10.6875 0 
z
" id="DejaVuSans-46"/>
      </defs>
      <g transform="translate(148.717187 203.77327)scale(0.1 -0.1)">
       <use xlink:href="#DejaVuSans-8722"/>
       <use x="83.789062" xlink:href="#DejaVuSans-49"/>
       <use x="147.412109" xlink:href="#DejaVuSans-46"/>
       <use x="179.199219" xlink:href="#DejaVuSans-48"/>
      </g>
     </g>
    </g>
    <g id="ytick_2">
     <g id="line2d_8">
      <g>
       <use style="stroke:#000000;stroke-width:0.8;" x="180" xlink:href="#mcf7f818c90" y="168.354574"/>
      </g>
     </g>
     <g id="text_8">
      <!-- −0.8 -->
      <g transform="translate(148.717187 172.153793)scale(0.1 -0.1)">
       <use xlink:href="#DejaVuSans-8722"/>
       <use x="83.789062" xlink:href="#DejaVuSans-48"/>
       <use x="147.412109" xlink:href="#DejaVuSans-46"/>
       <use x="179.199219" xlink:href="#DejaVuSans-56"/>
      </g>
     </g>
    </g>
    <g id="ytick_3">
     <g id="line2d_9">
      <g>
       <use style="stroke:#000000;stroke-width:0.8;" x="180" xlink:href="#mcf7f818c90" y="136.735097"/>
      </g>
     </g>
     <g id="text_9">
      <!-- −0.6 -->
      <g transform="translate(148.717187 140.534316)scale(0.1 -0.1)">
       <use xlink:href="#DejaVuSans-8722"/>
       <use x="83.789062" xlink:href="#DejaVuSans-48"/>
       <use x="147.412109" xlink:href="#DejaVuSans-46"/>
       <use x="179.199219" xlink:href="#DejaVuSans-54"/>
      </g>
     </g>
    </g>
    <g id="ytick_4">
     <g id="line2d_10">
      <g>
       <use style="stroke:#000000;stroke-width:0.8;" x="180" xlink:href="#mcf7f818c90" y="105.11562"/>
      </g>
     </g>
     <g id="text_10">
      <!-- −0.4 -->
      <g transform="translate(148.717187 108.914839)scale(0.1 -0.1)">
       <use xlink:href="#DejaVuSans-8722"/>
       <use x="83.789062" xlink:href="#DejaVuSans-48"/>
       <use x="147.412109" xlink:href="#DejaVuSans-46"/>
       <use x="179.199219" xlink:href="#DejaVuSans-52"/>
      </g>
     </g>
    </g>
    <g id="text_11">
     <!-- TD State:0 -->
     <defs>
      <path d="M -0.296875 72.90625 
L 61.375 72.90625 
L 61.375 64.59375 
L 35.5 64.59375 
L 35.5 0 
L 25.59375 0 
L 25.59375 64.59375 
L -0.296875 64.59375 
z
" id="DejaVuSans-84"/>
      <path d="M 19.671875 64.796875 
L 19.671875 8.109375 
L 31.59375 8.109375 
Q 46.6875 8.109375 53.6875 14.9375 
Q 60.6875 21.78125 60.6875 36.53125 
Q 60.6875 51.171875 53.6875 57.984375 
Q 46.6875 64.796875 31.59375 64.796875 
z
M 9.8125 72.90625 
L 30.078125 72.90625 
Q 51.265625 72.90625 61.171875 64.09375 
Q 71.09375 55.28125 71.09375 36.53125 
Q 71.09375 17.671875 61.125 8.828125 
Q 51.171875 0 30.078125 0 
L 9.8125 0 
z
" id="DejaVuSans-68"/>
      <path id="DejaVuSans-32"/>
      <path d="M 53.515625 70.515625 
L 53.515625 60.890625 
Q 47.90625 63.578125 42.921875 64.890625 
Q 37.9375 66.21875 33.296875 66.21875 
Q 25.25 66.21875 20.875 63.09375 
Q 16.5 59.96875 16.5 54.203125 
Q 16.5 49.359375 19.40625 46.890625 
Q 22.3125 44.4375 30.421875 42.921875 
L 36.375 41.703125 
Q 47.40625 39.59375 52.65625 34.296875 
Q 57.90625 29 57.90625 20.125 
Q 57.90625 9.515625 50.796875 4.046875 
Q 43.703125 -1.421875 29.984375 -1.421875 
Q 24.8125 -1.421875 18.96875 -0.25 
Q 13.140625 0.921875 6.890625 3.21875 
L 6.890625 13.375 
Q 12.890625 10.015625 18.65625 8.296875 
Q 24.421875 6.59375 29.984375 6.59375 
Q 38.421875 6.59375 43.015625 9.90625 
Q 47.609375 13.234375 47.609375 19.390625 
Q 47.609375 24.75 44.3125 27.78125 
Q 41.015625 30.8125 33.5 32.328125 
L 27.484375 33.5 
Q 16.453125 35.6875 11.515625 40.375 
Q 6.59375 45.0625 6.59375 53.421875 
Q 6.59375 63.09375 13.40625 68.65625 
Q 20.21875 74.21875 32.171875 74.21875 
Q 37.3125 74.21875 42.625 73.28125 
Q 47.953125 72.359375 53.515625 70.515625 
z
" id="DejaVuSans-83"/>
      <path d="M 18.3125 70.21875 
L 18.3125 54.6875 
L 36.8125 54.6875 
L 36.8125 47.703125 
L 18.3125 47.703125 
L 18.3125 18.015625 
Q 18.3125 11.328125 20.140625 9.421875 
Q 21.96875 7.515625 27.59375 7.515625 
L 36.8125 7.515625 
L 36.8125 0 
L 27.59375 0 
Q 17.1875 0 13.234375 3.875 
Q 9.28125 7.765625 9.28125 18.015625 
L 9.28125 47.703125 
L 2.6875 47.703125 
L 2.6875 54.6875 
L 9.28125 54.6875 
L 9.28125 70.21875 
z
" id="DejaVuSans-116"/>
      <path d="M 34.28125 27.484375 
Q 23.390625 27.484375 19.1875 25 
Q 14.984375 22.515625 14.984375 16.5 
Q 14.984375 11.71875 18.140625 8.90625 
Q 21.296875 6.109375 26.703125 6.109375 
Q 34.1875 6.109375 38.703125 11.40625 
Q 43.21875 16.703125 43.21875 25.484375 
L 43.21875 27.484375 
z
M 52.203125 31.203125 
L 52.203125 0 
L 43.21875 0 
L 43.21875 8.296875 
Q 40.140625 3.328125 35.546875 0.953125 
Q 30.953125 -1.421875 24.3125 -1.421875 
Q 15.921875 -1.421875 10.953125 3.296875 
Q 6 8.015625 6 15.921875 
Q 6 25.140625 12.171875 29.828125 
Q 18.359375 34.515625 30.609375 34.515625 
L 43.21875 34.515625 
L 43.21875 35.40625 
Q 43.21875 41.609375 39.140625 45 
Q 35.0625 48.390625 27.6875 48.390625 
Q 23 48.390625 18.546875 47.265625 
Q 14.109375 46.140625 10.015625 43.890625 
L 10.015625 52.203125 
Q 14.9375 54.109375 19.578125 55.046875 
Q 24.21875 56 28.609375 56 
Q 40.484375 56 46.34375 49.84375 
Q 52.203125 43.703125 52.203125 31.203125 
z
" id="DejaVuSans-97"/>
      <path d="M 56.203125 29.59375 
L 56.203125 25.203125 
L 14.890625 25.203125 
Q 15.484375 15.921875 20.484375 11.0625 
Q 25.484375 6.203125 34.421875 6.203125 
Q 39.59375 6.203125 44.453125 7.46875 
Q 49.3125 8.734375 54.109375 11.28125 
L 54.109375 2.78125 
Q 49.265625 0.734375 44.1875 -0.34375 
Q 39.109375 -1.421875 33.890625 -1.421875 
Q 20.796875 -1.421875 13.15625 6.1875 
Q 5.515625 13.8125 5.515625 26.8125 
Q 5.515625 40.234375 12.765625 48.109375 
Q 20.015625 56 32.328125 56 
Q 43.359375 56 49.78125 48.890625 
Q 56.203125 41.796875 56.203125 29.59375 
z
M 47.21875 32.234375 
Q 47.125 39.59375 43.09375 43.984375 
Q 39.0625 48.390625 32.421875 48.390625 
Q 24.90625 48.390625 20.390625 44.140625 
Q 15.875 39.890625 15.1875 32.171875 
z
" id="DejaVuSans-101"/>
      <path d="M 11.71875 12.40625 
L 22.015625 12.40625 
L 22.015625 0 
L 11.71875 0 
z
M 11.71875 51.703125 
L 22.015625 51.703125 
L 22.015625 39.3125 
L 11.71875 39.3125 
z
" id="DejaVuSans-58"/>
     </defs>
     <g transform="translate(142.6375 173.25462)rotate(-90)scale(0.1 -0.1)">
      <use xlink:href="#DejaVuSans-84"/>
      <use x="61.083984" xlink:href="#DejaVuSans-68"/>
      <use x="138.085938" xlink:href="#DejaVuSans-32"/>
      <use x="169.873047" xlink:href="#DejaVuSans-83"/>
      <use x="233.349609" xlink:href="#DejaVuSans-116"/>
      <use x="272.558594" xlink:href="#DejaVuSans-97"/>
      <use x="333.837891" xlink:href="#DejaVuSans-116"/>
      <use x="373.046875" xlink:href="#DejaVuSans-101"/>
      <use x="434.570312" xlink:href="#DejaVuSans-58"/>
      <use x="468.261719" xlink:href="#DejaVuSans-48"/>
     </g>
    </g>
   </g>
   <g id="line2d_11">
    <path clip-path="url(#p953b12deca)" d="M 230.727273 102.656626 
L 235.825491 111.731791 
L 240.923709 126.691878 
L 246.021928 142.344437 
L 251.120146 159.827216 
L 256.218365 176.158428 
L 261.316583 189.499621 
L 266.414801 198.309252 
L 271.51302 201.328728 
L 276.611238 197.973344 
L 281.709456 188.802165 
L 286.807675 175.491744 
L 291.905893 159.764796 
L 297.004111 144.943294 
L 302.10233 130.82169 
L 307.200548 121.922392 
L 312.298767 115.91416 
L 317.396985 115.402618 
L 322.495203 119.291772 
L 327.593422 129.286824 
L 332.69164 140.302774 
L 342.888077 168.335066 
L 347.986295 182.880825 
L 353.084513 193.875288 
L 358.182732 200.142328 
L 363.28095 201.068744 
L 368.379169 196.383639 
L 373.477387 185.952443 
L 378.575605 171.567379 
L 383.673824 156.630529 
L 388.772042 140.825994 
L 393.87026 127.79021 
L 398.968479 119.882228 
L 404.066697 116.608266 
L 409.164915 117.14489 
L 414.263134 122.112896 
L 419.361352 130.776937 
L 429.557789 158.299496 
L 434.656007 173.957362 
L 439.754226 188.40002 
L 444.852444 198.146015 
L 449.950662 201.242261 
L 455.048881 197.7475 
L 460.147099 188.459454 
L 465.245317 174.742924 
L 470.343536 158.014541 
L 475.441754 142.402616 
L 480.539973 129.388451 
L 485.638191 120.885631 
L 490.736409 117.486035 
L 495.834628 118.170701 
L 500.932846 123.818237 
L 506.031064 132.64014 
L 511.129283 145.628151 
L 516.227501 161.848411 
L 521.32572 176.924551 
L 526.423938 190.545867 
L 531.522156 198.968121 
L 536.620375 201.238394 
L 541.718593 196.97798 
L 546.816811 186.633111 
L 551.91503 172.457423 
L 557.013248 155.932405 
L 562.111466 138.597895 
L 567.209685 124.190973 
L 572.307903 113.839606 
L 577.406122 109.031313 
L 582.50434 109.041142 
L 587.602558 114.243423 
L 592.700777 123.512911 
L 597.798995 135.61465 
L 602.897213 149.848249 
L 607.995432 166.864554 
L 613.09365 182.019849 
L 618.191868 193.392367 
L 623.290087 200.467732 
L 628.388305 200.442359 
L 633.486524 193.598811 
L 638.584742 180.660823 
L 643.68296 163.305773 
L 648.781179 144.595043 
L 653.879397 126.443045 
L 658.977615 112.190198 
L 664.075834 102.463685 
L 669.174052 95.84558 
L 674.27227 95.064884 
L 679.370489 98.013304 
L 684.468707 105.836266 
L 689.566926 117.271703 
L 699.763362 152.184952 
L 704.861581 170.665187 
L 709.959799 186.444122 
L 715.058017 197.43947 
L 720.156236 201.443478 
L 725.254454 197.465038 
L 730.352672 186.580747 
L 735.450891 169.766632 
L 740.549109 150.956603 
L 745.647328 131.681047 
L 750.745546 115.204936 
L 755.843764 103.741247 
L 760.941983 96.122228 
L 766.040201 96.035626 
L 771.138419 99.216133 
L 776.236638 107.232244 
L 781.334856 119.841199 
L 786.433074 137.188152 
L 791.531293 157.571064 
L 796.629511 175.338659 
L 801.72773 189.610999 
L 806.825948 199.274877 
L 811.924166 200.943324 
L 817.022385 194.629371 
L 822.120603 181.245999 
L 827.218821 162.747495 
L 832.31704 141.404511 
L 837.415258 120.869313 
L 842.513476 105.073215 
L 847.611695 94.911563 
L 852.709913 91.878261 
L 857.808132 93.836068 
L 862.90635 100.443381 
L 868.004568 110.22895 
L 873.102787 125.205812 
L 883.299223 160.998632 
L 888.397442 179.472442 
L 893.49566 193.639676 
L 898.593878 200.811768 
L 903.692097 200.142097 
L 908.790315 192.11814 
L 913.888534 177.392355 
L 918.986752 159.723965 
L 924.08497 140.266221 
L 929.183189 123.465948 
L 934.281407 109.276605 
L 939.379625 100.972673 
L 944.477844 97.949887 
L 949.576062 99.808382 
L 954.67428 104.798178 
L 959.772499 113.63638 
L 964.870717 125.65997 
L 969.968936 140.281995 
L 980.165372 172.54051 
L 985.263591 187.51721 
L 990.361809 197.74711 
L 995.460027 201.376404 
L 1000.558246 198.686743 
L 1005.656464 189.663553 
L 1010.754683 176.033497 
L 1020.951119 145.787244 
L 1026.049338 131.762707 
L 1031.147556 122.209986 
L 1036.245774 115.789791 
L 1041.343993 112.306153 
L 1046.442211 114.042241 
L 1051.540429 120.767225 
L 1056.638648 130.549316 
L 1061.736866 143.985632 
L 1066.835085 158.522284 
L 1071.933303 174.85522 
L 1077.031521 189.398691 
L 1082.12974 198.959126 
L 1087.227958 201.247355 
L 1092.326176 196.299791 
L 1097.424395 185.105402 
L 1102.522613 169.427733 
L 1112.71905 137.481856 
L 1117.817268 123.662638 
L 1122.915487 113.993032 
L 1128.013705 109.652671 
L 1133.111923 110.441195 
L 1138.210142 114.115004 
L 1143.30836 121.711815 
L 1148.406578 132.598476 
L 1158.603015 163.193144 
L 1163.701233 179.312488 
L 1168.799452 191.375588 
L 1173.89767 199.057262 
L 1178.995889 201.242514 
L 1184.094107 196.924959 
L 1189.192325 186.992435 
L 1194.290544 173.030774 
L 1199.388762 156.423044 
L 1204.48698 141.446825 
L 1209.585199 129.624884 
L 1214.683417 119.806459 
L 1219.781635 113.486295 
L 1224.879854 110.657132 
L 1229.978072 113.051502 
L 1235.076291 121.261975 
L 1240.174509 132.546745 
L 1245.272727 147.07546 
L 1245.272727 147.07546 
" style="fill:none;stroke:#000000;stroke-linecap:square;stroke-width:4;"/>
   </g>
   <g id="line2d_12">
    <path clip-path="url(#p953b12deca)" d="M 230.727273 102.74106 
L 235.825491 113.053728 
L 240.923709 126.408518 
L 246.021928 142.432631 
L 251.120146 159.352835 
L 256.218365 175.285133 
L 261.316583 188.423181 
L 266.414801 197.087592 
L 271.51302 199.96983 
L 276.611238 196.62135 
L 281.709456 187.704185 
L 286.807675 174.514875 
L 291.905893 159.704642 
L 297.004111 144.375284 
L 302.10233 131.779626 
L 307.200548 122.076941 
L 312.298767 116.57427 
L 317.396985 115.398341 
L 322.495203 119.495744 
L 327.593422 128.417409 
L 332.69164 140.243349 
L 337.789858 153.688799 
L 342.888077 168.459655 
L 347.986295 182.076339 
L 353.084513 192.57532 
L 358.182732 198.667409 
L 363.28095 199.682219 
L 368.379169 194.866589 
L 373.477387 184.59935 
L 378.575605 171.189818 
L 383.673824 155.795758 
L 388.772042 140.759652 
L 393.87026 128.829845 
L 398.968479 120.459071 
L 404.066697 116.671476 
L 409.164915 116.979392 
L 414.263134 122.121687 
L 419.361352 131.977192 
L 424.459571 144.135672 
L 429.557789 158.773803 
L 434.656007 174.313039 
L 439.754226 187.914931 
L 444.852444 196.895389 
L 449.950662 199.967181 
L 455.048881 196.500084 
L 460.147099 187.353434 
L 465.245317 173.573101 
L 470.343536 157.894573 
L 475.441754 142.698619 
L 480.539973 130.226019 
L 485.638191 122.085854 
L 490.736409 117.701068 
L 495.834628 118.349859 
L 500.932846 123.8713 
L 506.031064 133.371507 
L 511.129283 146.804849 
L 521.32572 176.998214 
L 526.423938 189.620027 
L 531.522156 197.644466 
L 536.620375 199.891025 
L 541.718593 195.562179 
L 546.816811 185.604822 
L 551.91503 171.59833 
L 562.111466 138.730053 
L 567.209685 124.848912 
L 572.307903 114.480978 
L 577.406122 109.372189 
L 582.50434 109.155082 
L 587.602558 114.512198 
L 592.700777 123.479015 
L 597.798995 135.454142 
L 602.897213 150.644472 
L 607.995432 166.61047 
L 613.09365 181.096316 
L 618.191868 192.825367 
L 623.290087 199.161804 
L 628.388305 199.077823 
L 633.486524 192.246401 
L 638.584742 179.407438 
L 643.68296 162.661161 
L 648.781179 144.192681 
L 653.879397 126.997487 
L 658.977615 113.144618 
L 664.075834 102.510825 
L 669.174052 96.769316 
L 674.27227 95.056839 
L 679.370489 98.116922 
L 684.468707 105.887256 
L 689.566926 118.970905 
L 694.665144 134.668198 
L 704.861581 170.391084 
L 709.959799 185.877682 
L 715.058017 196.495911 
L 720.156236 199.970388 
L 725.254454 196.080006 
L 730.352672 185.092969 
L 735.450891 169.157723 
L 745.647328 131.934395 
L 750.745546 116.383928 
L 755.843764 104.268999 
L 760.941983 97.647638 
L 766.040201 96.325745 
L 771.138419 99.035344 
L 776.236638 107.631055 
L 781.334856 121.014768 
L 786.433074 138.663162 
L 791.531293 157.205389 
L 796.629511 174.566556 
L 801.72773 189.279339 
L 806.825948 198.22705 
L 811.924166 199.572728 
L 817.022385 193.256783 
L 822.120603 180.083108 
L 827.218821 161.76845 
L 832.31704 141.109658 
L 837.415258 121.881105 
L 842.513476 106.563208 
L 847.611695 96.548768 
L 852.709913 92.544085 
L 857.808132 94.300531 
L 862.90635 100.373331 
L 868.004568 111.154948 
L 873.102787 125.911878 
L 878.201005 142.906052 
L 883.299223 161.686087 
L 888.397442 179.326192 
L 893.49566 192.633378 
L 898.593878 199.319721 
L 903.692097 198.714268 
L 908.790315 190.591137 
L 913.888534 176.724721 
L 918.986752 158.949426 
L 924.08497 140.716449 
L 929.183189 123.688811 
L 934.281407 110.549527 
L 939.379625 102.215152 
L 944.477844 98.846957 
L 949.576062 99.713899 
L 954.67428 104.6077 
L 959.772499 113.41394 
L 964.870717 125.45826 
L 969.968936 140.030905 
L 975.067154 156.090378 
L 980.165372 172.591443 
L 985.263591 186.886981 
L 990.361809 196.342069 
L 995.460027 199.947385 
L 1000.558246 197.255535 
L 1005.656464 188.458652 
L 1010.754683 175.477875 
L 1015.852901 160.645729 
L 1020.951119 145.385365 
L 1026.049338 132.447962 
L 1031.147556 122.499401 
L 1036.245774 115.556526 
L 1041.343993 112.318639 
L 1046.442211 114.26401 
L 1051.540429 120.726939 
L 1056.638648 130.983458 
L 1061.736866 143.821818 
L 1066.835085 159.186619 
L 1071.933303 175.183116 
L 1077.031521 189.029855 
L 1082.12974 197.766902 
L 1087.227958 199.819587 
L 1092.326176 194.939122 
L 1097.424395 183.859256 
L 1102.522613 169.219972 
L 1107.620831 153.126412 
L 1112.71905 137.424413 
L 1117.817268 124.16232 
L 1122.915487 115.010418 
L 1128.013705 110.577356 
L 1133.111923 110.320496 
L 1138.210142 113.836178 
L 1143.30836 121.546931 
L 1148.406578 133.405328 
L 1153.504797 147.58068 
L 1158.603015 163.561486 
L 1163.701233 178.326267 
L 1168.799452 190.30601 
L 1173.89767 198.045427 
L 1178.995889 199.847985 
L 1184.094107 195.560012 
L 1189.192325 185.875366 
L 1194.290544 171.876874 
L 1199.388762 156.384678 
L 1204.48698 142.077648 
L 1209.585199 129.545731 
L 1214.683417 119.832969 
L 1219.781635 113.383543 
L 1224.879854 110.548902 
L 1229.978072 113.437952 
L 1235.076291 121.372548 
L 1240.174509 132.966506 
L 1245.272727 146.655823 
L 1245.272727 146.655823 
" style="fill:none;stroke:#ff0000;stroke-linecap:square;stroke-width:1.5;"/>
   </g>
   <g id="patch_3">
    <path d="M 180 206.921739 
L 180 86.4 
" style="fill:none;stroke:#000000;stroke-linecap:square;stroke-linejoin:miter;stroke-width:0.8;"/>
   </g>
   <g id="patch_4">
    <path d="M 1296 206.921739 
L 1296 86.4 
" style="fill:none;stroke:#000000;stroke-linecap:square;stroke-linejoin:miter;stroke-width:0.8;"/>
   </g>
   <g id="patch_5">
    <path d="M 180 206.921739 
L 1296 206.921739 
" style="fill:none;stroke:#000000;stroke-linecap:square;stroke-linejoin:miter;stroke-width:0.8;"/>
   </g>
   <g id="patch_6">
    <path d="M 180 86.4 
L 1296 86.4 
" style="fill:none;stroke:#000000;stroke-linecap:square;stroke-linejoin:miter;stroke-width:0.8;"/>
   </g>
   <g id="legend_1">
    <g id="patch_7">
     <path d="M 1234.3125 123.75625 
L 1289 123.75625 
Q 1291 123.75625 1291 121.75625 
L 1291 93.4 
Q 1291 91.4 1289 91.4 
L 1234.3125 91.4 
Q 1232.3125 91.4 1232.3125 93.4 
L 1232.3125 121.75625 
Q 1232.3125 123.75625 1234.3125 123.75625 
z
" style="fill:#ffffff;opacity:0.8;stroke:#cccccc;stroke-linejoin:miter;"/>
    </g>
    <g id="line2d_13">
     <path d="M 1236.3125 99.498438 
L 1256.3125 99.498438 
" style="fill:none;stroke:#000000;stroke-linecap:square;stroke-width:4;"/>
    </g>
    <g id="line2d_14"/>
    <g id="text_12">
     <!-- Pred -->
     <defs>
      <path d="M 19.671875 64.796875 
L 19.671875 37.40625 
L 32.078125 37.40625 
Q 38.96875 37.40625 42.71875 40.96875 
Q 46.484375 44.53125 46.484375 51.125 
Q 46.484375 57.671875 42.71875 61.234375 
Q 38.96875 64.796875 32.078125 64.796875 
z
M 9.8125 72.90625 
L 32.078125 72.90625 
Q 44.34375 72.90625 50.609375 67.359375 
Q 56.890625 61.8125 56.890625 51.125 
Q 56.890625 40.328125 50.609375 34.8125 
Q 44.34375 29.296875 32.078125 29.296875 
L 19.671875 29.296875 
L 19.671875 0 
L 9.8125 0 
z
" id="DejaVuSans-80"/>
      <path d="M 41.109375 46.296875 
Q 39.59375 47.171875 37.8125 47.578125 
Q 36.03125 48 33.890625 48 
Q 26.265625 48 22.1875 43.046875 
Q 18.109375 38.09375 18.109375 28.8125 
L 18.109375 0 
L 9.078125 0 
L 9.078125 54.6875 
L 18.109375 54.6875 
L 18.109375 46.1875 
Q 20.953125 51.171875 25.484375 53.578125 
Q 30.03125 56 36.53125 56 
Q 37.453125 56 38.578125 55.875 
Q 39.703125 55.765625 41.0625 55.515625 
z
" id="DejaVuSans-114"/>
      <path d="M 45.40625 46.390625 
L 45.40625 75.984375 
L 54.390625 75.984375 
L 54.390625 0 
L 45.40625 0 
L 45.40625 8.203125 
Q 42.578125 3.328125 38.25 0.953125 
Q 33.9375 -1.421875 27.875 -1.421875 
Q 17.96875 -1.421875 11.734375 6.484375 
Q 5.515625 14.40625 5.515625 27.296875 
Q 5.515625 40.1875 11.734375 48.09375 
Q 17.96875 56 27.875 56 
Q 33.9375 56 38.25 53.625 
Q 42.578125 51.265625 45.40625 46.390625 
z
M 14.796875 27.296875 
Q 14.796875 17.390625 18.875 11.75 
Q 22.953125 6.109375 30.078125 6.109375 
Q 37.203125 6.109375 41.296875 11.75 
Q 45.40625 17.390625 45.40625 27.296875 
Q 45.40625 37.203125 41.296875 42.84375 
Q 37.203125 48.484375 30.078125 48.484375 
Q 22.953125 48.484375 18.875 42.84375 
Q 14.796875 37.203125 14.796875 27.296875 
z
" id="DejaVuSans-100"/>
     </defs>
     <g transform="translate(1264.3125 102.998438)scale(0.1 -0.1)">
      <use xlink:href="#DejaVuSans-80"/>
      <use x="60.287109" xlink:href="#DejaVuSans-114"/>
      <use x="101.369141" xlink:href="#DejaVuSans-101"/>
      <use x="162.892578" xlink:href="#DejaVuSans-100"/>
     </g>
    </g>
    <g id="line2d_15">
     <path d="M 1236.3125 114.176563 
L 1256.3125 114.176563 
" style="fill:none;stroke:#ff0000;stroke-linecap:square;stroke-width:1.5;"/>
    </g>
    <g id="line2d_16"/>
    <g id="text_13">
     <!-- True -->
     <defs>
      <path d="M 8.5 21.578125 
L 8.5 54.6875 
L 17.484375 54.6875 
L 17.484375 21.921875 
Q 17.484375 14.15625 20.5 10.265625 
Q 23.53125 6.390625 29.59375 6.390625 
Q 36.859375 6.390625 41.078125 11.03125 
Q 45.3125 15.671875 45.3125 23.6875 
L 45.3125 54.6875 
L 54.296875 54.6875 
L 54.296875 0 
L 45.3125 0 
L 45.3125 8.40625 
Q 42.046875 3.421875 37.71875 1 
Q 33.40625 -1.421875 27.6875 -1.421875 
Q 18.265625 -1.421875 13.375 4.4375 
Q 8.5 10.296875 8.5 21.578125 
z
M 31.109375 56 
z
" id="DejaVuSans-117"/>
     </defs>
     <g transform="translate(1264.3125 117.676563)scale(0.1 -0.1)">
      <use xlink:href="#DejaVuSans-84"/>
      <use x="60.865234" xlink:href="#DejaVuSans-114"/>
      <use x="101.978516" xlink:href="#DejaVuSans-117"/>
      <use x="165.357422" xlink:href="#DejaVuSans-101"/>
     </g>
    </g>
   </g>
  </g>
  <g id="axes_2">
   <g id="patch_8">
    <path d="M 180 351.547826 
L 1296 351.547826 
L 1296 231.026087 
L 180 231.026087 
z
" style="fill:#ffffff;"/>
   </g>
   <g id="matplotlib.axis_3">
    <g id="xtick_7">
     <g id="line2d_17">
      <g>
       <use style="stroke:#000000;stroke-width:0.8;" x="230.727273" xlink:href="#m5936951e1d" y="351.547826"/>
      </g>
     </g>
     <g id="text_14">
      <!-- 0 -->
      <g transform="translate(227.546023 366.146264)scale(0.1 -0.1)">
       <use xlink:href="#DejaVuSans-48"/>
      </g>
     </g>
    </g>
    <g id="xtick_8">
     <g id="line2d_18">
      <g>
       <use style="stroke:#000000;stroke-width:0.8;" x="434.656007" xlink:href="#m5936951e1d" y="351.547826"/>
      </g>
     </g>
     <g id="text_15">
      <!-- 2 -->
      <g transform="translate(431.474757 366.146264)scale(0.1 -0.1)">
       <use xlink:href="#DejaVuSans-50"/>
      </g>
     </g>
    </g>
    <g id="xtick_9">
     <g id="line2d_19">
      <g>
       <use style="stroke:#000000;stroke-width:0.8;" x="638.584742" xlink:href="#m5936951e1d" y="351.547826"/>
      </g>
     </g>
     <g id="text_16">
      <!-- 4 -->
      <g transform="translate(635.403492 366.146264)scale(0.1 -0.1)">
       <use xlink:href="#DejaVuSans-52"/>
      </g>
     </g>
    </g>
    <g id="xtick_10">
     <g id="line2d_20">
      <g>
       <use style="stroke:#000000;stroke-width:0.8;" x="842.513476" xlink:href="#m5936951e1d" y="351.547826"/>
      </g>
     </g>
     <g id="text_17">
      <!-- 6 -->
      <g transform="translate(839.332226 366.146264)scale(0.1 -0.1)">
       <use xlink:href="#DejaVuSans-54"/>
      </g>
     </g>
    </g>
    <g id="xtick_11">
     <g id="line2d_21">
      <g>
       <use style="stroke:#000000;stroke-width:0.8;" x="1046.442211" xlink:href="#m5936951e1d" y="351.547826"/>
      </g>
     </g>
     <g id="text_18">
      <!-- 8 -->
      <g transform="translate(1043.260961 366.146264)scale(0.1 -0.1)">
       <use xlink:href="#DejaVuSans-56"/>
      </g>
     </g>
    </g>
    <g id="xtick_12">
     <g id="line2d_22">
      <g>
       <use style="stroke:#000000;stroke-width:0.8;" x="1250.370946" xlink:href="#m5936951e1d" y="351.547826"/>
      </g>
     </g>
     <g id="text_19">
      <!-- 10 -->
      <g transform="translate(1244.008446 366.146264)scale(0.1 -0.1)">
       <use xlink:href="#DejaVuSans-49"/>
       <use x="63.623047" xlink:href="#DejaVuSans-48"/>
      </g>
     </g>
    </g>
   </g>
   <g id="matplotlib.axis_4">
    <g id="ytick_5">
     <g id="line2d_23">
      <g>
       <use style="stroke:#000000;stroke-width:0.8;" x="180" xlink:href="#mcf7f818c90" y="349.035615"/>
      </g>
     </g>
     <g id="text_20">
      <!-- −1.0 -->
      <g transform="translate(148.717187 352.834834)scale(0.1 -0.1)">
       <use xlink:href="#DejaVuSans-8722"/>
       <use x="83.789062" xlink:href="#DejaVuSans-49"/>
       <use x="147.412109" xlink:href="#DejaVuSans-46"/>
       <use x="179.199219" xlink:href="#DejaVuSans-48"/>
      </g>
     </g>
    </g>
    <g id="ytick_6">
     <g id="line2d_24">
      <g>
       <use style="stroke:#000000;stroke-width:0.8;" x="180" xlink:href="#mcf7f818c90" y="320.064783"/>
      </g>
     </g>
     <g id="text_21">
      <!-- −0.5 -->
      <defs>
       <path d="M 10.796875 72.90625 
L 49.515625 72.90625 
L 49.515625 64.59375 
L 19.828125 64.59375 
L 19.828125 46.734375 
Q 21.96875 47.46875 24.109375 47.828125 
Q 26.265625 48.1875 28.421875 48.1875 
Q 40.625 48.1875 47.75 41.5 
Q 54.890625 34.8125 54.890625 23.390625 
Q 54.890625 11.625 47.5625 5.09375 
Q 40.234375 -1.421875 26.90625 -1.421875 
Q 22.3125 -1.421875 17.546875 -0.640625 
Q 12.796875 0.140625 7.71875 1.703125 
L 7.71875 11.625 
Q 12.109375 9.234375 16.796875 8.0625 
Q 21.484375 6.890625 26.703125 6.890625 
Q 35.15625 6.890625 40.078125 11.328125 
Q 45.015625 15.765625 45.015625 23.390625 
Q 45.015625 31 40.078125 35.4375 
Q 35.15625 39.890625 26.703125 39.890625 
Q 22.75 39.890625 18.8125 39.015625 
Q 14.890625 38.140625 10.796875 36.28125 
z
" id="DejaVuSans-53"/>
      </defs>
      <g transform="translate(148.717187 323.864002)scale(0.1 -0.1)">
       <use xlink:href="#DejaVuSans-8722"/>
       <use x="83.789062" xlink:href="#DejaVuSans-48"/>
       <use x="147.412109" xlink:href="#DejaVuSans-46"/>
       <use x="179.199219" xlink:href="#DejaVuSans-53"/>
      </g>
     </g>
    </g>
    <g id="ytick_7">
     <g id="line2d_25">
      <g>
       <use style="stroke:#000000;stroke-width:0.8;" x="180" xlink:href="#mcf7f818c90" y="291.093951"/>
      </g>
     </g>
     <g id="text_22">
      <!-- 0.0 -->
      <g transform="translate(157.096875 294.89317)scale(0.1 -0.1)">
       <use xlink:href="#DejaVuSans-48"/>
       <use x="63.623047" xlink:href="#DejaVuSans-46"/>
       <use x="95.410156" xlink:href="#DejaVuSans-48"/>
      </g>
     </g>
    </g>
    <g id="ytick_8">
     <g id="line2d_26">
      <g>
       <use style="stroke:#000000;stroke-width:0.8;" x="180" xlink:href="#mcf7f818c90" y="262.123119"/>
      </g>
     </g>
     <g id="text_23">
      <!-- 0.5 -->
      <g transform="translate(157.096875 265.922338)scale(0.1 -0.1)">
       <use xlink:href="#DejaVuSans-48"/>
       <use x="63.623047" xlink:href="#DejaVuSans-46"/>
       <use x="95.410156" xlink:href="#DejaVuSans-53"/>
      </g>
     </g>
    </g>
    <g id="ytick_9">
     <g id="line2d_27">
      <g>
       <use style="stroke:#000000;stroke-width:0.8;" x="180" xlink:href="#mcf7f818c90" y="233.152287"/>
      </g>
     </g>
     <g id="text_24">
      <!-- 1.0 -->
      <g transform="translate(157.096875 236.951505)scale(0.1 -0.1)">
       <use xlink:href="#DejaVuSans-49"/>
       <use x="63.623047" xlink:href="#DejaVuSans-46"/>
       <use x="95.410156" xlink:href="#DejaVuSans-48"/>
      </g>
     </g>
    </g>
    <g id="text_25">
     <!-- TD State:1 -->
     <g transform="translate(142.6375 317.880707)rotate(-90)scale(0.1 -0.1)">
      <use xlink:href="#DejaVuSans-84"/>
      <use x="61.083984" xlink:href="#DejaVuSans-68"/>
      <use x="138.085938" xlink:href="#DejaVuSans-32"/>
      <use x="169.873047" xlink:href="#DejaVuSans-83"/>
      <use x="233.349609" xlink:href="#DejaVuSans-116"/>
      <use x="272.558594" xlink:href="#DejaVuSans-97"/>
      <use x="333.837891" xlink:href="#DejaVuSans-116"/>
      <use x="373.046875" xlink:href="#DejaVuSans-101"/>
      <use x="434.570312" xlink:href="#DejaVuSans-58"/>
      <use x="468.261719" xlink:href="#DejaVuSans-49"/>
     </g>
    </g>
   </g>
   <g id="line2d_28">
    <path clip-path="url(#p2762734b83)" d="M 230.727273 237.549376 
L 235.825491 239.019282 
L 240.923709 241.903622 
L 246.021928 246.033688 
L 251.120146 252.010144 
L 256.218365 259.750461 
L 261.316583 269.13366 
L 266.414801 279.890187 
L 276.611238 303.0187 
L 281.709456 313.765148 
L 286.807675 322.896836 
L 291.905893 330.272087 
L 297.004111 335.505501 
L 302.10233 339.290989 
L 307.200548 341.353289 
L 312.298767 342.51417 
L 317.396985 342.428611 
L 322.495203 341.735388 
L 327.593422 340.083047 
L 332.69164 336.7711 
L 337.789858 332.312517 
L 342.888077 326.367209 
L 347.986295 318.192759 
L 353.084513 308.71688 
L 358.182732 298.470523 
L 363.28095 287.876283 
L 368.379169 276.620364 
L 373.477387 266.042284 
L 378.575605 257.134162 
L 383.673824 250.619988 
L 388.772042 245.43818 
L 393.87026 242.114908 
L 398.968479 240.394484 
L 404.066697 239.930114 
L 409.164915 240.066793 
L 414.263134 241.035896 
L 419.361352 243.000562 
L 424.459571 246.643494 
L 429.557789 251.523191 
L 434.656007 258.753086 
L 439.754226 268.359101 
L 444.852444 279.566324 
L 449.950662 291.345435 
L 455.048881 303.494599 
L 460.147099 314.057169 
L 465.245317 323.317823 
L 470.343536 330.964301 
L 475.441754 336.222433 
L 480.539973 339.643592 
L 485.638191 341.501181 
L 490.736409 342.237571 
L 495.834628 341.936914 
L 500.932846 340.775079 
L 506.031064 338.706394 
L 511.129283 335.055034 
L 516.227501 329.298006 
L 521.32572 321.820173 
L 526.423938 312.042699 
L 531.522156 301.119493 
L 536.620375 289.542665 
L 541.718593 277.420107 
L 546.816811 266.534821 
L 551.91503 257.593998 
L 557.013248 250.354648 
L 562.111466 244.812619 
L 567.209685 241.289341 
L 572.307903 239.228722 
L 577.406122 238.545677 
L 582.50434 238.566082 
L 587.602558 239.457058 
L 592.700777 241.203237 
L 597.798995 244.103687 
L 602.897213 248.488184 
L 607.995432 255.077102 
L 613.09365 263.375386 
L 618.191868 273.265768 
L 633.486524 309.02724 
L 638.584742 319.796257 
L 643.68296 328.837327 
L 648.781179 335.608124 
L 653.879397 340.355329 
L 658.977615 343.197524 
L 664.075834 344.830681 
L 669.174052 345.678656 
L 674.27227 345.830042 
L 679.370489 345.283238 
L 684.468707 344.135441 
L 689.566926 342.119217 
L 694.665144 338.257296 
L 699.763362 332.939226 
L 704.861581 325.26829 
L 709.959799 315.480882 
L 715.058017 303.637381 
L 720.156236 290.527868 
L 725.254454 278.149449 
L 730.352672 266.541407 
L 735.450891 256.234818 
L 740.549109 248.585997 
L 745.647328 243.002627 
L 750.745546 239.487378 
L 755.843764 237.536015 
L 760.941983 236.504348 
L 766.040201 236.615456 
L 771.138419 237.062438 
L 776.236638 238.237209 
L 781.334856 240.56105 
L 786.433074 244.724275 
L 791.531293 251.144381 
L 796.629511 259.314637 
L 801.72773 269.506712 
L 806.825948 282.131282 
L 811.924166 295.431124 
L 817.022385 307.801144 
L 822.120603 319.412461 
L 827.218821 329.092216 
L 832.31704 336.558365 
L 837.415258 341.53957 
L 842.513476 344.352102 
L 847.611695 345.761649 
L 852.709913 346.069565 
L 857.808132 345.844498 
L 862.90635 344.939619 
L 868.004568 343.47232 
L 873.102787 340.526112 
L 878.201005 335.962702 
L 883.299223 329.543258 
L 888.397442 320.297183 
L 893.49566 308.845508 
L 903.692097 283.732053 
L 908.790315 271.498887 
L 913.888534 260.29881 
L 918.986752 251.811431 
L 924.08497 245.28338 
L 929.183189 241.109624 
L 934.281407 238.44599 
L 939.379625 237.16574 
L 944.477844 236.725287 
L 949.576062 237.143056 
L 954.67428 237.897209 
L 959.772499 239.406693 
L 964.870717 241.672739 
L 969.968936 245.389317 
L 975.067154 250.689234 
L 980.165372 257.940077 
L 985.263591 267.568907 
L 995.460027 290.165132 
L 1005.656464 312.996712 
L 1010.754683 322.579689 
L 1015.852901 329.862097 
L 1020.951119 335.233918 
L 1026.049338 339.076828 
L 1031.147556 341.284763 
L 1036.245774 342.597006 
L 1041.343993 343.213415 
L 1046.442211 342.729762 
L 1051.540429 341.398626 
L 1056.638648 339.313563 
L 1061.736866 335.690654 
L 1066.835085 330.559109 
L 1071.933303 322.960103 
L 1077.031521 312.926464 
L 1082.12974 300.99949 
L 1087.227958 288.518791 
L 1092.326176 276.394678 
L 1097.424395 265.391109 
L 1102.522613 256.072151 
L 1107.620831 249.412439 
L 1112.71905 244.503237 
L 1117.817268 241.17097 
L 1122.915487 239.27355 
L 1128.013705 238.503574 
L 1133.111923 238.828795 
L 1138.210142 239.505758 
L 1143.30836 240.985017 
L 1148.406578 243.422936 
L 1153.504797 247.677609 
L 1158.603015 253.530983 
L 1163.701233 261.604018 
L 1168.799452 270.901729 
L 1173.89767 281.636203 
L 1178.995889 293.521245 
L 1184.094107 304.714056 
L 1189.192325 315.266245 
L 1194.290544 324.240068 
L 1199.388762 331.566851 
L 1204.48698 336.481488 
L 1209.585199 339.642977 
L 1214.683417 341.798625 
L 1219.781635 343.015284 
L 1224.879854 343.509406 
L 1229.978072 342.936866 
L 1235.076291 341.335211 
L 1240.174509 338.815356 
L 1245.272727 334.747558 
L 1245.272727 334.747558 
" style="fill:none;stroke:#000000;stroke-linecap:square;stroke-width:4;"/>
   </g>
   <g id="line2d_29">
    <path clip-path="url(#p2762734b83)" d="M 230.727273 237.618155 
L 235.825491 239.35653 
L 240.923709 242.13016 
L 246.021928 246.382823 
L 251.120146 252.318085 
L 256.218365 260.002503 
L 261.316583 269.353434 
L 266.414801 280.072597 
L 276.611238 302.963282 
L 281.709456 313.474428 
L 286.807675 322.624937 
L 291.905893 329.726176 
L 297.004111 335.208591 
L 302.10233 338.755358 
L 307.200548 341.026857 
L 312.298767 342.160387 
L 317.396985 342.389095 
L 322.495203 341.571778 
L 327.593422 339.584079 
L 332.69164 336.454505 
L 337.789858 332.057417 
L 342.888077 325.807542 
L 347.986295 317.872653 
L 353.084513 308.6118 
L 358.182732 298.527953 
L 368.379169 276.485304 
L 373.477387 266.169648 
L 378.575605 257.759374 
L 383.673824 250.917798 
L 388.772042 245.884429 
L 393.87026 242.703029 
L 398.968479 240.816721 
L 404.066697 240.046629 
L 409.164915 240.107389 
L 414.263134 241.170702 
L 419.361352 243.482681 
L 424.459571 246.904684 
L 429.557789 252.083747 
L 434.656007 259.449215 
L 439.754226 268.898818 
L 444.852444 279.715058 
L 449.950662 291.634125 
L 455.048881 303.173688 
L 460.147099 313.778961 
L 465.245317 323.150784 
L 470.343536 330.455129 
L 475.441754 335.724549 
L 480.539973 339.143996 
L 485.638191 341.024934 
L 490.736409 341.936842 
L 495.834628 341.806156 
L 500.932846 340.633873 
L 506.031064 338.346715 
L 511.129283 334.434592 
L 516.227501 328.866308 
L 521.32572 321.175345 
L 526.423938 311.717744 
L 531.522156 301.004031 
L 541.718593 277.501309 
L 546.816811 266.958189 
L 551.91503 257.973252 
L 557.013248 250.631837 
L 562.111466 245.298092 
L 567.209685 241.773144 
L 572.307903 239.623599 
L 577.406122 238.69802 
L 582.50434 238.660529 
L 587.602558 239.629516 
L 592.700777 241.467104 
L 597.798995 244.39221 
L 602.897213 249.043956 
L 607.995432 255.492618 
L 613.09365 263.637075 
L 618.191868 273.867692 
L 623.290087 285.228126 
L 628.388305 297.254744 
L 633.486524 308.987416 
L 638.584742 319.67121 
L 643.68296 328.479682 
L 648.781179 335.26549 
L 653.879397 339.9205 
L 658.977615 342.814563 
L 664.075834 344.604867 
L 669.174052 345.430961 
L 674.27227 345.659224 
L 679.370489 345.245542 
L 684.468707 344.074041 
L 689.566926 341.679696 
L 694.665144 338.005856 
L 699.763362 332.4628 
L 704.861581 324.840874 
L 709.959799 315.010258 
L 715.058017 303.180862 
L 725.254454 278.313292 
L 730.352672 266.552911 
L 735.450891 256.724919 
L 740.549109 248.991343 
L 745.647328 243.471806 
L 750.745546 239.990179 
L 755.843764 237.855197 
L 760.941983 236.877208 
L 766.040201 236.697029 
L 771.138419 237.071679 
L 776.236638 238.401484 
L 781.334856 240.933931 
L 786.433074 245.279101 
L 791.531293 251.461667 
L 796.629511 259.592185 
L 801.72773 270.14528 
L 806.825948 282.504072 
L 817.022385 307.803978 
L 822.120603 319.229967 
L 827.218821 328.863668 
L 832.31704 336.200349 
L 837.415258 341.069036 
L 842.513476 343.963652 
L 847.611695 345.460819 
L 852.709913 345.979453 
L 857.808132 345.757439 
L 862.90635 344.923505 
L 868.004568 343.176408 
L 873.102787 340.172435 
L 878.201005 335.661499 
L 883.299223 328.898756 
L 888.397442 319.723665 
L 893.49566 308.544573 
L 898.593878 296.360089 
L 908.790315 271.42998 
L 913.888534 260.848165 
L 918.986752 252.154552 
L 924.08497 245.871741 
L 929.183189 241.513521 
L 934.281407 238.903911 
L 939.379625 237.538164 
L 944.477844 237.044957 
L 949.576062 237.168772 
L 954.67428 237.908684 
L 959.772499 239.423304 
L 964.870717 241.911533 
L 969.968936 245.671626 
L 975.067154 251.030308 
L 980.165372 258.50192 
L 985.263591 268.011285 
L 990.361809 278.745663 
L 995.460027 290.029801 
L 1000.558246 301.792738 
L 1005.656464 312.802325 
L 1010.754683 322.074035 
L 1015.852901 329.337145 
L 1020.951119 334.890664 
L 1026.049338 338.585094 
L 1031.147556 340.935394 
L 1036.245774 342.3586 
L 1041.343993 342.966328 
L 1046.442211 342.605334 
L 1051.540429 341.314819 
L 1056.638648 338.955761 
L 1061.736866 335.380516 
L 1066.835085 329.937349 
L 1071.933303 322.244117 
L 1077.031521 312.276902 
L 1082.12974 300.741976 
L 1092.326176 276.587715 
L 1097.424395 265.608215 
L 1102.522613 256.755905 
L 1107.620831 249.925331 
L 1112.71905 244.931172 
L 1117.817268 241.618883 
L 1122.915487 239.724376 
L 1128.013705 238.90883 
L 1133.111923 238.863515 
L 1138.210142 239.502115 
L 1143.30836 241.047211 
L 1148.406578 243.849986 
L 1153.504797 248.007274 
L 1158.603015 254.10245 
L 1163.701233 261.828832 
L 1168.799452 271.14272 
L 1173.89767 282.071203 
L 1184.094107 304.689884 
L 1189.192325 315.012132 
L 1194.290544 324.067633 
L 1199.388762 331.044598 
L 1204.48698 335.911995 
L 1209.585199 339.311068 
L 1214.683417 341.501929 
L 1219.781635 342.770249 
L 1224.879854 343.284102 
L 1229.978072 342.760132 
L 1235.076291 341.177924 
L 1240.174509 338.451697 
L 1245.272727 334.482992 
L 1245.272727 334.482992 
" style="fill:none;stroke:#ff0000;stroke-linecap:square;stroke-width:1.5;"/>
   </g>
   <g id="patch_9">
    <path d="M 180 351.547826 
L 180 231.026087 
" style="fill:none;stroke:#000000;stroke-linecap:square;stroke-linejoin:miter;stroke-width:0.8;"/>
   </g>
   <g id="patch_10">
    <path d="M 1296 351.547826 
L 1296 231.026087 
" style="fill:none;stroke:#000000;stroke-linecap:square;stroke-linejoin:miter;stroke-width:0.8;"/>
   </g>
   <g id="patch_11">
    <path d="M 180 351.547826 
L 1296 351.547826 
" style="fill:none;stroke:#000000;stroke-linecap:square;stroke-linejoin:miter;stroke-width:0.8;"/>
   </g>
   <g id="patch_12">
    <path d="M 180 231.026087 
L 1296 231.026087 
" style="fill:none;stroke:#000000;stroke-linecap:square;stroke-linejoin:miter;stroke-width:0.8;"/>
   </g>
   <g id="legend_2">
    <g id="patch_13">
     <path d="M 1234.3125 268.382337 
L 1289 268.382337 
Q 1291 268.382337 1291 266.382337 
L 1291 238.026087 
Q 1291 236.026087 1289 236.026087 
L 1234.3125 236.026087 
Q 1232.3125 236.026087 1232.3125 238.026087 
L 1232.3125 266.382337 
Q 1232.3125 268.382337 1234.3125 268.382337 
z
" style="fill:#ffffff;opacity:0.8;stroke:#cccccc;stroke-linejoin:miter;"/>
    </g>
    <g id="line2d_30">
     <path d="M 1236.3125 244.124524 
L 1256.3125 244.124524 
" style="fill:none;stroke:#000000;stroke-linecap:square;stroke-width:4;"/>
    </g>
    <g id="line2d_31"/>
    <g id="text_26">
     <!-- Pred -->
     <g transform="translate(1264.3125 247.624524)scale(0.1 -0.1)">
      <use xlink:href="#DejaVuSans-80"/>
      <use x="60.287109" xlink:href="#DejaVuSans-114"/>
      <use x="101.369141" xlink:href="#DejaVuSans-101"/>
      <use x="162.892578" xlink:href="#DejaVuSans-100"/>
     </g>
    </g>
    <g id="line2d_32">
     <path d="M 1236.3125 258.802649 
L 1256.3125 258.802649 
" style="fill:none;stroke:#ff0000;stroke-linecap:square;stroke-width:1.5;"/>
    </g>
    <g id="line2d_33"/>
    <g id="text_27">
     <!-- True -->
     <g transform="translate(1264.3125 262.302649)scale(0.1 -0.1)">
      <use xlink:href="#DejaVuSans-84"/>
      <use x="60.865234" xlink:href="#DejaVuSans-114"/>
      <use x="101.978516" xlink:href="#DejaVuSans-117"/>
      <use x="165.357422" xlink:href="#DejaVuSans-101"/>
     </g>
    </g>
   </g>
  </g>
  <g id="axes_3">
   <g id="patch_14">
    <path d="M 180 496.173913 
L 1296 496.173913 
L 1296 375.652174 
L 180 375.652174 
z
" style="fill:#ffffff;"/>
   </g>
   <g id="matplotlib.axis_5">
    <g id="xtick_13">
     <g id="line2d_34">
      <g>
       <use style="stroke:#000000;stroke-width:0.8;" x="230.727273" xlink:href="#m5936951e1d" y="496.173913"/>
      </g>
     </g>
     <g id="text_28">
      <!-- 0 -->
      <g transform="translate(227.546023 510.772351)scale(0.1 -0.1)">
       <use xlink:href="#DejaVuSans-48"/>
      </g>
     </g>
    </g>
    <g id="xtick_14">
     <g id="line2d_35">
      <g>
       <use style="stroke:#000000;stroke-width:0.8;" x="434.656007" xlink:href="#m5936951e1d" y="496.173913"/>
      </g>
     </g>
     <g id="text_29">
      <!-- 2 -->
      <g transform="translate(431.474757 510.772351)scale(0.1 -0.1)">
       <use xlink:href="#DejaVuSans-50"/>
      </g>
     </g>
    </g>
    <g id="xtick_15">
     <g id="line2d_36">
      <g>
       <use style="stroke:#000000;stroke-width:0.8;" x="638.584742" xlink:href="#m5936951e1d" y="496.173913"/>
      </g>
     </g>
     <g id="text_30">
      <!-- 4 -->
      <g transform="translate(635.403492 510.772351)scale(0.1 -0.1)">
       <use xlink:href="#DejaVuSans-52"/>
      </g>
     </g>
    </g>
    <g id="xtick_16">
     <g id="line2d_37">
      <g>
       <use style="stroke:#000000;stroke-width:0.8;" x="842.513476" xlink:href="#m5936951e1d" y="496.173913"/>
      </g>
     </g>
     <g id="text_31">
      <!-- 6 -->
      <g transform="translate(839.332226 510.772351)scale(0.1 -0.1)">
       <use xlink:href="#DejaVuSans-54"/>
      </g>
     </g>
    </g>
    <g id="xtick_17">
     <g id="line2d_38">
      <g>
       <use style="stroke:#000000;stroke-width:0.8;" x="1046.442211" xlink:href="#m5936951e1d" y="496.173913"/>
      </g>
     </g>
     <g id="text_32">
      <!-- 8 -->
      <g transform="translate(1043.260961 510.772351)scale(0.1 -0.1)">
       <use xlink:href="#DejaVuSans-56"/>
      </g>
     </g>
    </g>
    <g id="xtick_18">
     <g id="line2d_39">
      <g>
       <use style="stroke:#000000;stroke-width:0.8;" x="1250.370946" xlink:href="#m5936951e1d" y="496.173913"/>
      </g>
     </g>
     <g id="text_33">
      <!-- 10 -->
      <g transform="translate(1244.008446 510.772351)scale(0.1 -0.1)">
       <use xlink:href="#DejaVuSans-49"/>
       <use x="63.623047" xlink:href="#DejaVuSans-48"/>
      </g>
     </g>
    </g>
   </g>
   <g id="matplotlib.axis_6">
    <g id="ytick_10">
     <g id="line2d_40">
      <g>
       <use style="stroke:#000000;stroke-width:0.8;" x="180" xlink:href="#mcf7f818c90" y="485.74702"/>
      </g>
     </g>
     <g id="text_34">
      <!-- −4 -->
      <g transform="translate(158.257812 489.546238)scale(0.1 -0.1)">
       <use xlink:href="#DejaVuSans-8722"/>
       <use x="83.789062" xlink:href="#DejaVuSans-52"/>
      </g>
     </g>
    </g>
    <g id="ytick_11">
     <g id="line2d_41">
      <g>
       <use style="stroke:#000000;stroke-width:0.8;" x="180" xlink:href="#mcf7f818c90" y="460.914084"/>
      </g>
     </g>
     <g id="text_35">
      <!-- −2 -->
      <g transform="translate(158.257812 464.713303)scale(0.1 -0.1)">
       <use xlink:href="#DejaVuSans-8722"/>
       <use x="83.789062" xlink:href="#DejaVuSans-50"/>
      </g>
     </g>
    </g>
    <g id="ytick_12">
     <g id="line2d_42">
      <g>
       <use style="stroke:#000000;stroke-width:0.8;" x="180" xlink:href="#mcf7f818c90" y="436.081149"/>
      </g>
     </g>
     <g id="text_36">
      <!-- 0 -->
      <g transform="translate(166.6375 439.880368)scale(0.1 -0.1)">
       <use xlink:href="#DejaVuSans-48"/>
      </g>
     </g>
    </g>
    <g id="ytick_13">
     <g id="line2d_43">
      <g>
       <use style="stroke:#000000;stroke-width:0.8;" x="180" xlink:href="#mcf7f818c90" y="411.248213"/>
      </g>
     </g>
     <g id="text_37">
      <!-- 2 -->
      <g transform="translate(166.6375 415.047432)scale(0.1 -0.1)">
       <use xlink:href="#DejaVuSans-50"/>
      </g>
     </g>
    </g>
    <g id="ytick_14">
     <g id="line2d_44">
      <g>
       <use style="stroke:#000000;stroke-width:0.8;" x="180" xlink:href="#mcf7f818c90" y="386.415278"/>
      </g>
     </g>
     <g id="text_38">
      <!-- 4 -->
      <g transform="translate(166.6375 390.214497)scale(0.1 -0.1)">
       <use xlink:href="#DejaVuSans-52"/>
      </g>
     </g>
    </g>
    <g id="text_39">
     <!-- TD State:2 -->
     <g transform="translate(152.178125 462.506793)rotate(-90)scale(0.1 -0.1)">
      <use xlink:href="#DejaVuSans-84"/>
      <use x="61.083984" xlink:href="#DejaVuSans-68"/>
      <use x="138.085938" xlink:href="#DejaVuSans-32"/>
      <use x="169.873047" xlink:href="#DejaVuSans-83"/>
      <use x="233.349609" xlink:href="#DejaVuSans-116"/>
      <use x="272.558594" xlink:href="#DejaVuSans-97"/>
      <use x="333.837891" xlink:href="#DejaVuSans-116"/>
      <use x="373.046875" xlink:href="#DejaVuSans-101"/>
      <use x="434.570312" xlink:href="#DejaVuSans-58"/>
      <use x="468.261719" xlink:href="#DejaVuSans-50"/>
     </g>
    </g>
   </g>
   <g id="line2d_45">
    <path clip-path="url(#ped098a58ec)" d="M 230.727273 427.487378 
L 235.825491 418.233515 
L 240.923709 411.941806 
L 246.021928 404.974265 
L 251.120146 399.249624 
L 256.218365 394.663047 
L 261.316583 390.93824 
L 266.414801 388.093118 
L 271.51302 386.743288 
L 276.611238 386.66725 
L 281.709456 388.834916 
L 286.807675 391.671535 
L 291.905893 397.728952 
L 297.004111 402.410598 
L 302.10233 411.103295 
L 307.200548 417.978772 
L 312.298767 426.143158 
L 317.396985 433.995826 
L 322.495203 443.400263 
L 327.593422 452.560081 
L 332.69164 459.009707 
L 337.789858 464.409793 
L 342.888077 471.548661 
L 347.986295 476.301942 
L 353.084513 479.118831 
L 358.182732 480.408304 
L 363.28095 483.117129 
L 368.379169 484.279396 
L 373.477387 483.21013 
L 378.575605 477.884266 
L 383.673824 474.12449 
L 388.772042 468.095423 
L 393.87026 459.277001 
L 398.968479 451.530635 
L 404.066697 442.88049 
L 409.164915 435.526284 
L 414.263134 426.804621 
L 419.361352 417.684615 
L 424.459571 411.973544 
L 434.656007 396.138608 
L 439.754226 390.230855 
L 444.852444 387.548844 
L 449.950662 384.68723 
L 455.048881 386.240876 
L 465.245317 390.395972 
L 470.343536 396.202598 
L 475.441754 403.188193 
L 480.539973 411.588559 
L 485.638191 420.939681 
L 490.736409 428.14145 
L 495.834628 437.241748 
L 500.932846 446.09567 
L 506.031064 453.964612 
L 511.129283 463.045757 
L 516.227501 469.59862 
L 521.32572 476.85785 
L 526.423938 481.266021 
L 531.522156 483.77091 
L 536.620375 486.807149 
L 541.718593 486.834744 
L 546.816811 483.973551 
L 557.013248 476.948445 
L 562.111466 470.448372 
L 572.307903 454.80675 
L 577.406122 445.03009 
L 582.50434 436.454167 
L 587.602558 426.696497 
L 592.700777 419.919124 
L 597.798995 413.450489 
L 602.897213 404.963402 
L 607.995432 398.720433 
L 613.09365 394.359547 
L 618.191868 388.455731 
L 623.290087 386.303856 
L 628.388305 384.451916 
L 633.486524 384.580111 
L 638.584742 385.971731 
L 643.68296 390.006379 
L 648.781179 394.958508 
L 653.879397 402.468851 
L 658.977615 411.009861 
L 664.075834 417.684925 
L 669.174052 426.369703 
L 674.27227 433.198815 
L 684.468707 449.27386 
L 689.566926 459.061721 
L 694.665144 465.360317 
L 699.763362 472.92893 
L 704.861581 479.152112 
L 709.959799 484.806608 
L 715.058017 489.550461 
L 720.156236 489.958031 
L 725.254454 489.619134 
L 730.352672 489.453191 
L 735.450891 485.158695 
L 740.549109 480.390306 
L 745.647328 473.662283 
L 750.745546 464.730259 
L 755.843764 457.210722 
L 760.941983 447.307855 
L 766.040201 438.292469 
L 771.138419 431.525453 
L 776.236638 421.42435 
L 781.334856 412.40269 
L 786.433074 402.659761 
L 791.531293 396.657899 
L 796.629511 391.769997 
L 801.72773 385.210976 
L 806.825948 381.178052 
L 811.924166 381.433851 
L 817.022385 381.140866 
L 822.120603 382.826064 
L 827.218821 385.68219 
L 832.31704 390.83732 
L 837.415258 399.32872 
L 842.513476 408.981019 
L 847.611695 419.066736 
L 852.709913 429.411348 
L 857.808132 438.996446 
L 862.90635 446.268037 
L 868.004568 454.609135 
L 873.102787 462.613025 
L 878.201005 469.069649 
L 883.299223 477.480171 
L 888.397442 484.256607 
L 893.49566 488.448318 
L 898.593878 489.451355 
L 908.790315 490.688696 
L 913.888534 486.480424 
L 918.986752 482.707618 
L 924.08497 475.438233 
L 929.183189 468.731812 
L 939.379625 450.437407 
L 944.477844 441.789223 
L 949.576062 434.613114 
L 959.772499 420.794556 
L 969.968936 408.057618 
L 975.067154 401.930492 
L 980.165372 394.837477 
L 985.263591 389.483207 
L 990.361809 387.657749 
L 995.460027 387.30822 
L 1000.558246 385.412347 
L 1005.656464 386.83801 
L 1010.754683 391.355062 
L 1015.852901 397.154087 
L 1020.951119 402.27216 
L 1026.049338 410.292996 
L 1031.147556 417.470216 
L 1036.245774 423.570599 
L 1041.343993 430.347277 
L 1046.442211 439.502463 
L 1051.540429 447.635742 
L 1056.638648 455.114146 
L 1061.736866 461.426966 
L 1066.835085 469.672073 
L 1071.933303 477.579686 
L 1077.031521 484.086243 
L 1082.12974 487.476579 
L 1087.227958 488.60133 
L 1092.326176 487.941898 
L 1097.424395 486.336047 
L 1112.71905 468.765678 
L 1117.817268 461.309164 
L 1128.013705 443.882848 
L 1133.111923 436.522923 
L 1138.210142 429.911525 
L 1143.30836 422.272553 
L 1148.406578 413.897516 
L 1153.504797 407.534851 
L 1158.603015 399.818637 
L 1163.701233 395.60119 
L 1168.799452 391.889411 
L 1173.89767 387.621297 
L 1178.995889 387.334811 
L 1184.094107 387.185358 
L 1189.192325 389.232217 
L 1194.290544 391.420644 
L 1199.388762 397.483869 
L 1204.48698 405.385604 
L 1209.585199 411.573378 
L 1219.781635 424.568229 
L 1224.879854 431.094568 
L 1229.978072 441.135913 
L 1235.076291 450.25849 
L 1240.174509 457.732297 
L 1245.272727 463.519936 
L 1245.272727 463.519936 
" style="fill:none;stroke:#000000;stroke-linecap:square;stroke-width:4;"/>
   </g>
   <g id="line2d_46">
    <path clip-path="url(#ped098a58ec)" d="M 230.727273 427.49098 
L 235.825491 418.247577 
L 240.923709 411.960717 
L 246.021928 404.984973 
L 251.120146 399.258558 
L 256.218365 394.669678 
L 261.316583 390.941281 
L 266.414801 388.092317 
L 271.51302 386.740934 
L 276.611238 386.663035 
L 281.709456 388.83351 
L 286.807675 391.668616 
L 291.905893 397.735803 
L 297.004111 402.412108 
L 302.10233 411.120838 
L 307.200548 417.992769 
L 312.298767 426.165487 
L 317.396985 433.990092 
L 322.495203 443.408873 
L 327.593422 452.483938 
L 332.69164 459.001122 
L 337.789858 464.401391 
L 342.888077 471.548327 
L 347.986295 476.299502 
L 353.084513 479.115255 
L 358.182732 480.404518 
L 363.28095 483.121097 
L 368.379169 484.283842 
L 373.477387 483.212769 
L 378.575605 477.878508 
L 383.673824 474.124278 
L 388.772042 468.090201 
L 393.87026 459.263862 
L 398.968479 451.51851 
L 404.066697 442.884862 
L 409.164915 435.531845 
L 414.263134 426.8065 
L 419.361352 417.696877 
L 424.459571 411.99221 
L 434.656007 396.135123 
L 439.754226 390.226516 
L 444.852444 387.548504 
L 449.950662 384.678722 
L 455.048881 386.241762 
L 465.245317 390.389484 
L 470.343536 396.207372 
L 475.441754 403.19748 
L 480.539973 411.605145 
L 485.638191 420.963598 
L 490.736409 428.161828 
L 500.932846 446.104759 
L 506.031064 453.938936 
L 511.129283 463.045182 
L 516.227501 469.595467 
L 521.32572 476.860719 
L 526.423938 481.266032 
L 531.522156 483.770295 
L 536.620375 486.812463 
L 541.718593 486.836875 
L 546.816811 483.971836 
L 557.013248 476.949729 
L 562.111466 470.44303 
L 572.307903 454.79609 
L 577.406122 445.033162 
L 582.50434 436.458127 
L 587.602558 426.696951 
L 592.700777 419.941428 
L 597.798995 413.468624 
L 602.897213 404.967851 
L 607.995432 398.725913 
L 613.09365 394.365059 
L 618.191868 388.448019 
L 623.290087 386.30186 
L 628.388305 384.443703 
L 633.486524 384.57223 
L 638.584742 385.962748 
L 643.68296 390.003138 
L 648.781179 394.956834 
L 653.879397 402.476918 
L 658.977615 411.02435 
L 664.075834 417.695954 
L 669.174052 426.392049 
L 674.27227 433.2189 
L 684.468707 449.280234 
L 689.566926 459.059913 
L 694.665144 465.353102 
L 699.763362 472.928537 
L 704.861581 479.152343 
L 709.959799 484.809838 
L 715.058017 489.556336 
L 720.156236 489.95752 
L 725.254454 489.620946 
L 730.352672 489.459707 
L 735.450891 485.158011 
L 740.549109 480.390453 
L 745.647328 473.658291 
L 750.745546 464.719952 
L 755.843764 457.202512 
L 760.941983 447.295371 
L 766.040201 438.296453 
L 771.138419 431.5322 
L 776.236638 421.423793 
L 781.334856 412.413384 
L 786.433074 402.660431 
L 791.531293 396.664873 
L 796.629511 391.774237 
L 801.72773 385.201158 
L 806.825948 381.168501 
L 811.924166 381.432175 
L 817.022385 381.130435 
L 822.120603 382.816675 
L 827.218821 385.672498 
L 832.31704 390.833501 
L 837.415258 399.337554 
L 842.513476 408.997299 
L 852.709913 429.409465 
L 857.808132 438.999556 
L 862.90635 446.268248 
L 868.004568 454.60203 
L 873.102787 462.60852 
L 878.201005 469.064584 
L 883.299223 477.484129 
L 888.397442 484.261104 
L 893.49566 488.45098 
L 898.593878 489.450324 
L 908.790315 490.695652 
L 913.888534 486.478639 
L 918.986752 482.70943 
L 924.08497 475.432331 
L 929.183189 468.727317 
L 939.379625 450.423271 
L 944.477844 441.778473 
L 949.576062 434.619667 
L 959.772499 420.798986 
L 969.968936 408.072699 
L 975.067154 401.94017 
L 980.165372 394.836574 
L 985.263591 389.480723 
L 990.361809 387.660786 
L 995.460027 387.310239 
L 1000.558246 385.402054 
L 1005.656464 386.833496 
L 1010.754683 391.357889 
L 1015.852901 397.15998 
L 1020.951119 402.275239 
L 1026.049338 410.307949 
L 1031.147556 417.484986 
L 1036.245774 423.584468 
L 1041.343993 430.366991 
L 1046.442211 439.506203 
L 1051.540429 447.642713 
L 1056.638648 455.105924 
L 1061.736866 461.418966 
L 1066.835085 469.672755 
L 1071.933303 477.58406 
L 1077.031521 484.09201 
L 1082.12974 487.479295 
L 1087.227958 488.602837 
L 1092.326176 487.943052 
L 1097.424395 486.338561 
L 1112.71905 468.761104 
L 1117.817268 461.300455 
L 1128.013705 443.872678 
L 1133.111923 436.528919 
L 1138.210142 429.917739 
L 1143.30836 422.275694 
L 1148.406578 413.909891 
L 1153.504797 407.548313 
L 1158.603015 399.820445 
L 1163.701233 395.608723 
L 1168.799452 391.892132 
L 1173.89767 387.61452 
L 1178.995889 387.335331 
L 1184.094107 387.180224 
L 1189.192325 389.229756 
L 1194.290544 391.414606 
L 1199.388762 397.489832 
L 1204.48698 405.399029 
L 1209.585199 411.58249 
L 1219.781635 424.583502 
L 1224.879854 431.113709 
L 1229.978072 441.144422 
L 1235.076291 450.271591 
L 1240.174509 457.725076 
L 1245.272727 463.5116 
L 1245.272727 463.5116 
" style="fill:none;stroke:#ff0000;stroke-linecap:square;stroke-width:1.5;"/>
   </g>
   <g id="patch_15">
    <path d="M 180 496.173913 
L 180 375.652174 
" style="fill:none;stroke:#000000;stroke-linecap:square;stroke-linejoin:miter;stroke-width:0.8;"/>
   </g>
   <g id="patch_16">
    <path d="M 1296 496.173913 
L 1296 375.652174 
" style="fill:none;stroke:#000000;stroke-linecap:square;stroke-linejoin:miter;stroke-width:0.8;"/>
   </g>
   <g id="patch_17">
    <path d="M 180 496.173913 
L 1296 496.173913 
" style="fill:none;stroke:#000000;stroke-linecap:square;stroke-linejoin:miter;stroke-width:0.8;"/>
   </g>
   <g id="patch_18">
    <path d="M 180 375.652174 
L 1296 375.652174 
" style="fill:none;stroke:#000000;stroke-linecap:square;stroke-linejoin:miter;stroke-width:0.8;"/>
   </g>
   <g id="legend_3">
    <g id="patch_19">
     <path d="M 1234.3125 413.008424 
L 1289 413.008424 
Q 1291 413.008424 1291 411.008424 
L 1291 382.652174 
Q 1291 380.652174 1289 380.652174 
L 1234.3125 380.652174 
Q 1232.3125 380.652174 1232.3125 382.652174 
L 1232.3125 411.008424 
Q 1232.3125 413.008424 1234.3125 413.008424 
z
" style="fill:#ffffff;opacity:0.8;stroke:#cccccc;stroke-linejoin:miter;"/>
    </g>
    <g id="line2d_47">
     <path d="M 1236.3125 388.750611 
L 1256.3125 388.750611 
" style="fill:none;stroke:#000000;stroke-linecap:square;stroke-width:4;"/>
    </g>
    <g id="line2d_48"/>
    <g id="text_40">
     <!-- Pred -->
     <g transform="translate(1264.3125 392.250611)scale(0.1 -0.1)">
      <use xlink:href="#DejaVuSans-80"/>
      <use x="60.287109" xlink:href="#DejaVuSans-114"/>
      <use x="101.369141" xlink:href="#DejaVuSans-101"/>
      <use x="162.892578" xlink:href="#DejaVuSans-100"/>
     </g>
    </g>
    <g id="line2d_49">
     <path d="M 1236.3125 403.428736 
L 1256.3125 403.428736 
" style="fill:none;stroke:#ff0000;stroke-linecap:square;stroke-width:1.5;"/>
    </g>
    <g id="line2d_50"/>
    <g id="text_41">
     <!-- True -->
     <g transform="translate(1264.3125 406.928736)scale(0.1 -0.1)">
      <use xlink:href="#DejaVuSans-84"/>
      <use x="60.865234" xlink:href="#DejaVuSans-114"/>
      <use x="101.978516" xlink:href="#DejaVuSans-117"/>
      <use x="165.357422" xlink:href="#DejaVuSans-101"/>
     </g>
    </g>
   </g>
  </g>
  <g id="axes_4">
   <g id="patch_20">
    <path d="M 180 640.8 
L 1296 640.8 
L 1296 520.278261 
L 180 520.278261 
z
" style="fill:#ffffff;"/>
   </g>
   <g id="matplotlib.axis_7">
    <g id="xtick_19">
     <g id="line2d_51">
      <g>
       <use style="stroke:#000000;stroke-width:0.8;" x="230.727273" xlink:href="#m5936951e1d" y="640.8"/>
      </g>
     </g>
     <g id="text_42">
      <!-- 0 -->
      <g transform="translate(227.546023 655.398438)scale(0.1 -0.1)">
       <use xlink:href="#DejaVuSans-48"/>
      </g>
     </g>
    </g>
    <g id="xtick_20">
     <g id="line2d_52">
      <g>
       <use style="stroke:#000000;stroke-width:0.8;" x="434.656007" xlink:href="#m5936951e1d" y="640.8"/>
      </g>
     </g>
     <g id="text_43">
      <!-- 2 -->
      <g transform="translate(431.474757 655.398438)scale(0.1 -0.1)">
       <use xlink:href="#DejaVuSans-50"/>
      </g>
     </g>
    </g>
    <g id="xtick_21">
     <g id="line2d_53">
      <g>
       <use style="stroke:#000000;stroke-width:0.8;" x="638.584742" xlink:href="#m5936951e1d" y="640.8"/>
      </g>
     </g>
     <g id="text_44">
      <!-- 4 -->
      <g transform="translate(635.403492 655.398438)scale(0.1 -0.1)">
       <use xlink:href="#DejaVuSans-52"/>
      </g>
     </g>
    </g>
    <g id="xtick_22">
     <g id="line2d_54">
      <g>
       <use style="stroke:#000000;stroke-width:0.8;" x="842.513476" xlink:href="#m5936951e1d" y="640.8"/>
      </g>
     </g>
     <g id="text_45">
      <!-- 6 -->
      <g transform="translate(839.332226 655.398438)scale(0.1 -0.1)">
       <use xlink:href="#DejaVuSans-54"/>
      </g>
     </g>
    </g>
    <g id="xtick_23">
     <g id="line2d_55">
      <g>
       <use style="stroke:#000000;stroke-width:0.8;" x="1046.442211" xlink:href="#m5936951e1d" y="640.8"/>
      </g>
     </g>
     <g id="text_46">
      <!-- 8 -->
      <g transform="translate(1043.260961 655.398438)scale(0.1 -0.1)">
       <use xlink:href="#DejaVuSans-56"/>
      </g>
     </g>
    </g>
    <g id="xtick_24">
     <g id="line2d_56">
      <g>
       <use style="stroke:#000000;stroke-width:0.8;" x="1250.370946" xlink:href="#m5936951e1d" y="640.8"/>
      </g>
     </g>
     <g id="text_47">
      <!-- 10 -->
      <g transform="translate(1244.008446 655.398438)scale(0.1 -0.1)">
       <use xlink:href="#DejaVuSans-49"/>
       <use x="63.623047" xlink:href="#DejaVuSans-48"/>
      </g>
     </g>
    </g>
    <g id="text_48">
     <!-- Time -->
     <defs>
      <path d="M 9.421875 54.6875 
L 18.40625 54.6875 
L 18.40625 0 
L 9.421875 0 
z
M 9.421875 75.984375 
L 18.40625 75.984375 
L 18.40625 64.59375 
L 9.421875 64.59375 
z
" id="DejaVuSans-105"/>
      <path d="M 52 44.1875 
Q 55.375 50.25 60.0625 53.125 
Q 64.75 56 71.09375 56 
Q 79.640625 56 84.28125 50.015625 
Q 88.921875 44.046875 88.921875 33.015625 
L 88.921875 0 
L 79.890625 0 
L 79.890625 32.71875 
Q 79.890625 40.578125 77.09375 44.375 
Q 74.3125 48.1875 68.609375 48.1875 
Q 61.625 48.1875 57.5625 43.546875 
Q 53.515625 38.921875 53.515625 30.90625 
L 53.515625 0 
L 44.484375 0 
L 44.484375 32.71875 
Q 44.484375 40.625 41.703125 44.40625 
Q 38.921875 48.1875 33.109375 48.1875 
Q 26.21875 48.1875 22.15625 43.53125 
Q 18.109375 38.875 18.109375 30.90625 
L 18.109375 0 
L 9.078125 0 
L 9.078125 54.6875 
L 18.109375 54.6875 
L 18.109375 46.1875 
Q 21.1875 51.21875 25.484375 53.609375 
Q 29.78125 56 35.6875 56 
Q 41.65625 56 45.828125 52.96875 
Q 50 49.953125 52 44.1875 
z
" id="DejaVuSans-109"/>
     </defs>
     <g transform="translate(725.6125 669.076563)scale(0.1 -0.1)">
      <use xlink:href="#DejaVuSans-84"/>
      <use x="61.037109" xlink:href="#DejaVuSans-105"/>
      <use x="88.820312" xlink:href="#DejaVuSans-109"/>
      <use x="186.232422" xlink:href="#DejaVuSans-101"/>
     </g>
    </g>
   </g>
   <g id="matplotlib.axis_8">
    <g id="ytick_15">
     <g id="line2d_57">
      <g>
       <use style="stroke:#000000;stroke-width:0.8;" x="180" xlink:href="#mcf7f818c90" y="635.334306"/>
      </g>
     </g>
     <g id="text_49">
      <!-- −1.0 -->
      <g transform="translate(148.717187 639.133524)scale(0.1 -0.1)">
       <use xlink:href="#DejaVuSans-8722"/>
       <use x="83.789062" xlink:href="#DejaVuSans-49"/>
       <use x="147.412109" xlink:href="#DejaVuSans-46"/>
       <use x="179.199219" xlink:href="#DejaVuSans-48"/>
      </g>
     </g>
    </g>
    <g id="ytick_16">
     <g id="line2d_58">
      <g>
       <use style="stroke:#000000;stroke-width:0.8;" x="180" xlink:href="#mcf7f818c90" y="607.866324"/>
      </g>
     </g>
     <g id="text_50">
      <!-- −0.5 -->
      <g transform="translate(148.717187 611.665543)scale(0.1 -0.1)">
       <use xlink:href="#DejaVuSans-8722"/>
       <use x="83.789062" xlink:href="#DejaVuSans-48"/>
       <use x="147.412109" xlink:href="#DejaVuSans-46"/>
       <use x="179.199219" xlink:href="#DejaVuSans-53"/>
      </g>
     </g>
    </g>
    <g id="ytick_17">
     <g id="line2d_59">
      <g>
       <use style="stroke:#000000;stroke-width:0.8;" x="180" xlink:href="#mcf7f818c90" y="580.398342"/>
      </g>
     </g>
     <g id="text_51">
      <!-- 0.0 -->
      <g transform="translate(157.096875 584.197561)scale(0.1 -0.1)">
       <use xlink:href="#DejaVuSans-48"/>
       <use x="63.623047" xlink:href="#DejaVuSans-46"/>
       <use x="95.410156" xlink:href="#DejaVuSans-48"/>
      </g>
     </g>
    </g>
    <g id="ytick_18">
     <g id="line2d_60">
      <g>
       <use style="stroke:#000000;stroke-width:0.8;" x="180" xlink:href="#mcf7f818c90" y="552.93036"/>
      </g>
     </g>
     <g id="text_52">
      <!-- 0.5 -->
      <g transform="translate(157.096875 556.729579)scale(0.1 -0.1)">
       <use xlink:href="#DejaVuSans-48"/>
       <use x="63.623047" xlink:href="#DejaVuSans-46"/>
       <use x="95.410156" xlink:href="#DejaVuSans-53"/>
      </g>
     </g>
    </g>
    <g id="ytick_19">
     <g id="line2d_61">
      <g>
       <use style="stroke:#000000;stroke-width:0.8;" x="180" xlink:href="#mcf7f818c90" y="525.462378"/>
      </g>
     </g>
     <g id="text_53">
      <!-- 1.0 -->
      <g transform="translate(157.096875 529.261597)scale(0.1 -0.1)">
       <use xlink:href="#DejaVuSans-49"/>
       <use x="63.623047" xlink:href="#DejaVuSans-46"/>
       <use x="95.410156" xlink:href="#DejaVuSans-48"/>
      </g>
     </g>
    </g>
    <g id="text_54">
     <!-- Control Input -->
     <defs>
      <path d="M 64.40625 67.28125 
L 64.40625 56.890625 
Q 59.421875 61.53125 53.78125 63.8125 
Q 48.140625 66.109375 41.796875 66.109375 
Q 29.296875 66.109375 22.65625 58.46875 
Q 16.015625 50.828125 16.015625 36.375 
Q 16.015625 21.96875 22.65625 14.328125 
Q 29.296875 6.6875 41.796875 6.6875 
Q 48.140625 6.6875 53.78125 8.984375 
Q 59.421875 11.28125 64.40625 15.921875 
L 64.40625 5.609375 
Q 59.234375 2.09375 53.4375 0.328125 
Q 47.65625 -1.421875 41.21875 -1.421875 
Q 24.65625 -1.421875 15.125 8.703125 
Q 5.609375 18.84375 5.609375 36.375 
Q 5.609375 53.953125 15.125 64.078125 
Q 24.65625 74.21875 41.21875 74.21875 
Q 47.75 74.21875 53.53125 72.484375 
Q 59.328125 70.75 64.40625 67.28125 
z
" id="DejaVuSans-67"/>
      <path d="M 30.609375 48.390625 
Q 23.390625 48.390625 19.1875 42.75 
Q 14.984375 37.109375 14.984375 27.296875 
Q 14.984375 17.484375 19.15625 11.84375 
Q 23.34375 6.203125 30.609375 6.203125 
Q 37.796875 6.203125 41.984375 11.859375 
Q 46.1875 17.53125 46.1875 27.296875 
Q 46.1875 37.015625 41.984375 42.703125 
Q 37.796875 48.390625 30.609375 48.390625 
z
M 30.609375 56 
Q 42.328125 56 49.015625 48.375 
Q 55.71875 40.765625 55.71875 27.296875 
Q 55.71875 13.875 49.015625 6.21875 
Q 42.328125 -1.421875 30.609375 -1.421875 
Q 18.84375 -1.421875 12.171875 6.21875 
Q 5.515625 13.875 5.515625 27.296875 
Q 5.515625 40.765625 12.171875 48.375 
Q 18.84375 56 30.609375 56 
z
" id="DejaVuSans-111"/>
      <path d="M 54.890625 33.015625 
L 54.890625 0 
L 45.90625 0 
L 45.90625 32.71875 
Q 45.90625 40.484375 42.875 44.328125 
Q 39.84375 48.1875 33.796875 48.1875 
Q 26.515625 48.1875 22.3125 43.546875 
Q 18.109375 38.921875 18.109375 30.90625 
L 18.109375 0 
L 9.078125 0 
L 9.078125 54.6875 
L 18.109375 54.6875 
L 18.109375 46.1875 
Q 21.34375 51.125 25.703125 53.5625 
Q 30.078125 56 35.796875 56 
Q 45.21875 56 50.046875 50.171875 
Q 54.890625 44.34375 54.890625 33.015625 
z
" id="DejaVuSans-110"/>
      <path d="M 9.421875 75.984375 
L 18.40625 75.984375 
L 18.40625 0 
L 9.421875 0 
z
" id="DejaVuSans-108"/>
      <path d="M 9.8125 72.90625 
L 19.671875 72.90625 
L 19.671875 0 
L 9.8125 0 
z
" id="DejaVuSans-73"/>
      <path d="M 18.109375 8.203125 
L 18.109375 -20.796875 
L 9.078125 -20.796875 
L 9.078125 54.6875 
L 18.109375 54.6875 
L 18.109375 46.390625 
Q 20.953125 51.265625 25.265625 53.625 
Q 29.59375 56 35.59375 56 
Q 45.5625 56 51.78125 48.09375 
Q 58.015625 40.1875 58.015625 27.296875 
Q 58.015625 14.40625 51.78125 6.484375 
Q 45.5625 -1.421875 35.59375 -1.421875 
Q 29.59375 -1.421875 25.265625 0.953125 
Q 20.953125 3.328125 18.109375 8.203125 
z
M 48.6875 27.296875 
Q 48.6875 37.203125 44.609375 42.84375 
Q 40.53125 48.484375 33.40625 48.484375 
Q 26.265625 48.484375 22.1875 42.84375 
Q 18.109375 37.203125 18.109375 27.296875 
Q 18.109375 17.390625 22.1875 11.75 
Q 26.265625 6.109375 33.40625 6.109375 
Q 40.53125 6.109375 44.609375 11.75 
Q 48.6875 17.390625 48.6875 27.296875 
z
" id="DejaVuSans-112"/>
     </defs>
     <g transform="translate(142.6375 613.257099)rotate(-90)scale(0.1 -0.1)">
      <use xlink:href="#DejaVuSans-67"/>
      <use x="69.824219" xlink:href="#DejaVuSans-111"/>
      <use x="131.005859" xlink:href="#DejaVuSans-110"/>
      <use x="194.384766" xlink:href="#DejaVuSans-116"/>
      <use x="233.59375" xlink:href="#DejaVuSans-114"/>
      <use x="274.675781" xlink:href="#DejaVuSans-111"/>
      <use x="335.857422" xlink:href="#DejaVuSans-108"/>
      <use x="363.640625" xlink:href="#DejaVuSans-32"/>
      <use x="395.427734" xlink:href="#DejaVuSans-73"/>
      <use x="424.919922" xlink:href="#DejaVuSans-110"/>
      <use x="488.298828" xlink:href="#DejaVuSans-112"/>
      <use x="551.775391" xlink:href="#DejaVuSans-117"/>
      <use x="615.154297" xlink:href="#DejaVuSans-116"/>
     </g>
    </g>
   </g>
   <g id="line2d_62">
    <path clip-path="url(#p83397a1f34)" d="M 230.727273 589.515294 
L 235.825491 556.190865 
L 240.923709 635.321739 
L 246.021928 602.116443 
L 251.120146 619.209953 
L 256.218365 625.188886 
L 261.316583 614.869537 
L 266.414801 597.366883 
L 271.51302 591.740699 
L 276.611238 576.133473 
L 281.709456 589.276596 
L 286.807675 560.047918 
L 291.905893 612.870743 
L 297.004111 538.85385 
L 302.10233 632.325178 
L 307.200548 561.668748 
L 312.298767 589.484223 
L 317.396985 573.949977 
L 322.495203 619.909722 
L 327.593422 613.568513 
L 332.69164 547.354956 
L 337.789858 528.94954 
L 342.888077 600.897787 
L 347.986295 559.267485 
L 353.084513 539.04374 
L 358.182732 537.042147 
L 363.28095 625.990334 
L 368.379169 631.043281 
L 373.477387 616.67471 
L 378.575605 538.851096 
L 383.673824 624.52875 
L 388.772042 589.066399 
L 393.87026 530.089137 
L 398.968479 576.754408 
L 404.066697 559.316434 
L 409.164915 600.667995 
L 414.263134 559.907126 
L 419.361352 543.632374 
L 424.459571 633.324937 
L 429.557789 552.914504 
L 434.656007 526.686232 
L 439.754226 553.131903 
L 444.852444 604.521384 
L 449.950662 548.614665 
L 455.048881 623.992665 
L 460.147099 586.123381 
L 465.245317 535.505166 
L 470.343536 603.074353 
L 475.441754 603.715875 
L 480.539973 621.047816 
L 485.638191 633.206421 
L 490.736409 560.749337 
L 495.834628 612.082317 
L 500.932846 606.158182 
L 506.031064 581.324215 
L 511.129283 629.47126 
L 516.227501 572.254898 
L 521.32572 619.212954 
L 526.423938 570.58617 
L 531.522156 558.450506 
L 536.620375 624.090625 
L 541.718593 589.841176 
L 546.816811 559.039222 
L 551.91503 589.827631 
L 557.013248 629.845823 
L 562.111466 576.454335 
L 567.209685 562.401909 
L 572.307903 578.762446 
L 577.406122 531.549859 
L 582.50434 570.888373 
L 587.602558 536.075796 
L 592.700777 620.229695 
L 597.798995 620.031745 
L 602.897213 546.624669 
L 607.995432 591.640785 
L 613.09365 617.166521 
L 618.191868 533.42715 
L 623.290087 597.1246 
L 628.388305 552.841133 
L 633.486524 555.567508 
L 638.584742 538.283763 
L 643.68296 566.810238 
L 648.781179 552.826813 
L 653.879397 597.000172 
L 658.977615 605.676808 
L 664.075834 536.90156 
L 669.174052 588.299102 
L 674.27227 529.32547 
L 679.370489 562.44071 
L 684.468707 567.027399 
L 689.566926 622.726944 
L 694.665144 531.012091 
L 699.763362 585.901592 
L 704.861581 571.785524 
L 715.058017 609.291695 
L 720.156236 536.078256 
L 725.254454 572.303035 
L 730.352672 635.018937 
L 735.450891 567.527404 
L 740.549109 599.445201 
L 745.647328 577.425416 
L 750.745546 537.99414 
L 755.843764 596.080389 
L 760.941983 535.511797 
L 766.040201 566.844528 
L 771.138419 633.595995 
L 776.236638 533.215245 
L 781.334856 559.42413 
L 786.433074 525.756522 
L 791.531293 616.398922 
L 796.629511 620.266937 
L 801.72773 532.868245 
L 806.825948 558.773551 
L 811.924166 628.08274 
L 817.022385 552.330124 
L 822.120603 552.504476 
L 827.218821 533.919821 
L 832.31704 557.157709 
L 837.415258 621.680416 
L 842.513476 633.150037 
L 847.611695 632.454454 
L 852.709913 632.224217 
L 857.808132 608.282621 
L 862.90635 540.841377 
L 868.004568 576.131898 
L 873.102787 574.594689 
L 878.201005 542.818749 
L 883.299223 621.691144 
L 888.397442 604.659857 
L 893.49566 570.975805 
L 898.593878 528.802952 
L 903.692097 573.692834 
L 908.790315 633.285492 
L 913.888534 547.367251 
L 918.986752 609.736973 
L 924.08497 546.656102 
L 929.183189 592.719309 
L 934.281407 540.455298 
L 939.379625 553.246611 
L 944.477844 574.219119 
L 949.576062 620.341707 
L 954.67428 628.751034 
L 959.772499 622.002066 
L 964.870717 630.439305 
L 969.968936 623.523719 
L 975.067154 610.535186 
L 980.165372 556.996832 
L 985.263591 573.837122 
L 990.361809 633.954756 
L 995.460027 627.426353 
L 1000.558246 529.057791 
L 1005.656464 572.916013 
L 1010.754683 612.998086 
L 1015.852901 607.61079 
L 1020.951119 553.608725 
L 1026.049338 613.862092 
L 1036.245774 528.75634 
L 1041.343993 542.291593 
L 1046.442211 608.98177 
L 1051.540429 581.082875 
L 1056.638648 567.218576 
L 1061.736866 544.252576 
L 1066.835085 618.107333 
L 1071.933303 633.293303 
L 1077.031521 627.640838 
L 1082.12974 581.898631 
L 1087.227958 568.715719 
L 1092.326176 572.833502 
L 1097.424395 600.465086 
L 1102.522613 526.713143 
L 1107.620831 571.636581 
L 1112.71905 593.567462 
L 1117.817268 574.800563 
L 1122.915487 553.442975 
L 1128.013705 561.804398 
L 1133.111923 606.227083 
L 1138.210142 628.04597 
L 1143.30836 594.672442 
L 1148.406578 566.146029 
L 1153.504797 612.242082 
L 1158.603015 552.627602 
L 1163.701233 628.023814 
L 1168.799452 606.732984 
L 1173.89767 546.914371 
L 1178.995889 614.081308 
L 1184.094107 565.075506 
L 1189.192325 577.687768 
L 1194.290544 533.723871 
L 1199.388762 606.405382 
L 1204.48698 628.087034 
L 1209.585199 554.571191 
L 1214.683417 550.493617 
L 1219.781635 535.590828 
L 1224.879854 532.936738 
L 1229.978072 633.801419 
L 1235.076291 609.584492 
L 1240.174509 567.567679 
L 1245.272727 531.064053 
L 1245.272727 531.064053 
" style="fill:none;stroke:#ff0000;stroke-linecap:square;stroke-width:1.5;"/>
   </g>
   <g id="patch_21">
    <path d="M 180 640.8 
L 180 520.278261 
" style="fill:none;stroke:#000000;stroke-linecap:square;stroke-linejoin:miter;stroke-width:0.8;"/>
   </g>
   <g id="patch_22">
    <path d="M 1296 640.8 
L 1296 520.278261 
" style="fill:none;stroke:#000000;stroke-linecap:square;stroke-linejoin:miter;stroke-width:0.8;"/>
   </g>
   <g id="patch_23">
    <path d="M 180 640.8 
L 1296 640.8 
" style="fill:none;stroke:#000000;stroke-linecap:square;stroke-linejoin:miter;stroke-width:0.8;"/>
   </g>
   <g id="patch_24">
    <path d="M 180 520.278261 
L 1296 520.278261 
" style="fill:none;stroke:#000000;stroke-linecap:square;stroke-linejoin:miter;stroke-width:0.8;"/>
   </g>
   <g id="legend_4">
    <g id="patch_25">
     <path d="M 1194.742188 542.956386 
L 1289 542.956386 
Q 1291 542.956386 1291 540.956386 
L 1291 527.278261 
Q 1291 525.278261 1289 525.278261 
L 1194.742188 525.278261 
Q 1192.742188 525.278261 1192.742188 527.278261 
L 1192.742188 540.956386 
Q 1192.742188 542.956386 1194.742188 542.956386 
z
" style="fill:#ffffff;opacity:0.8;stroke:#cccccc;stroke-linejoin:miter;"/>
    </g>
    <g id="line2d_63">
     <path d="M 1196.742188 533.376698 
L 1216.742188 533.376698 
" style="fill:none;stroke:#ff0000;stroke-linecap:square;stroke-width:1.5;"/>
    </g>
    <g id="line2d_64"/>
    <g id="text_55">
     <!-- ControlInput -->
     <g transform="translate(1224.742188 536.876698)scale(0.1 -0.1)">
      <use xlink:href="#DejaVuSans-67"/>
      <use x="69.824219" xlink:href="#DejaVuSans-111"/>
      <use x="131.005859" xlink:href="#DejaVuSans-110"/>
      <use x="194.384766" xlink:href="#DejaVuSans-116"/>
      <use x="233.59375" xlink:href="#DejaVuSans-114"/>
      <use x="274.675781" xlink:href="#DejaVuSans-111"/>
      <use x="335.857422" xlink:href="#DejaVuSans-108"/>
      <use x="363.640625" xlink:href="#DejaVuSans-73"/>
      <use x="393.132812" xlink:href="#DejaVuSans-110"/>
      <use x="456.511719" xlink:href="#DejaVuSans-112"/>
      <use x="519.988281" xlink:href="#DejaVuSans-117"/>
      <use x="583.367188" xlink:href="#DejaVuSans-116"/>
     </g>
    </g>
   </g>
  </g>
 </g>
 <defs>
  <clipPath id="p953b12deca">
   <rect height="120.521739" width="1116" x="180" y="86.4"/>
  </clipPath>
  <clipPath id="p2762734b83">
   <rect height="120.521739" width="1116" x="180" y="231.026087"/>
  </clipPath>
  <clipPath id="ped098a58ec">
   <rect height="120.521739" width="1116" x="180" y="375.652174"/>
  </clipPath>
  <clipPath id="p83397a1f34">
   <rect height="120.521739" width="1116" x="180" y="520.278261"/>
  </clipPath>
 </defs>
</svg>
