<?xml version="1.0" encoding="utf-8" standalone="no"?>
<!DOCTYPE svg PUBLIC "-//W3C//DTD SVG 1.1//EN"
  "http://www.w3.org/Graphics/SVG/1.1/DTD/svg11.dtd">
<!-- Created with matplotlib (https://matplotlib.org/) -->
<svg height="720pt" version="1.1" viewBox="0 0 1440 720" width="1440pt" xmlns="http://www.w3.org/2000/svg" xmlns:xlink="http://www.w3.org/1999/xlink">
 <defs>
  <style type="text/css">
*{stroke-linecap:butt;stroke-linejoin:round;}
  </style>
 </defs>
 <g id="figure_1">
  <g id="patch_1">
   <path d="M 0 720 
L 1440 720 
L 1440 0 
L 0 0 
z
" style="fill:#ffffff;"/>
  </g>
  <g id="axes_1">
   <g id="patch_2">
    <path d="M 180 206.921739 
L 1296 206.921739 
L 1296 86.4 
L 180 86.4 
z
" style="fill:#ffffff;"/>
   </g>
   <g id="matplotlib.axis_1">
    <g id="xtick_1">
     <g id="line2d_1">
      <defs>
       <path d="M 0 0 
L 0 3.5 
" id="m20922e2b32" style="stroke:#000000;stroke-width:0.8;"/>
      </defs>
      <g>
       <use style="stroke:#000000;stroke-width:0.8;" x="230.727273" xlink:href="#m20922e2b32" y="206.921739"/>
      </g>
     </g>
     <g id="text_1">
      <!-- 0 -->
      <defs>
       <path d="M 31.78125 66.40625 
Q 24.171875 66.40625 20.328125 58.90625 
Q 16.5 51.421875 16.5 36.375 
Q 16.5 21.390625 20.328125 13.890625 
Q 24.171875 6.390625 31.78125 6.390625 
Q 39.453125 6.390625 43.28125 13.890625 
Q 47.125 21.390625 47.125 36.375 
Q 47.125 51.421875 43.28125 58.90625 
Q 39.453125 66.40625 31.78125 66.40625 
z
M 31.78125 74.21875 
Q 44.046875 74.21875 50.515625 64.515625 
Q 56.984375 54.828125 56.984375 36.375 
Q 56.984375 17.96875 50.515625 8.265625 
Q 44.046875 -1.421875 31.78125 -1.421875 
Q 19.53125 -1.421875 13.0625 8.265625 
Q 6.59375 17.96875 6.59375 36.375 
Q 6.59375 54.828125 13.0625 64.515625 
Q 19.53125 74.21875 31.78125 74.21875 
z
" id="DejaVuSans-48"/>
      </defs>
      <g transform="translate(227.546023 221.520177)scale(0.1 -0.1)">
       <use xlink:href="#DejaVuSans-48"/>
      </g>
     </g>
    </g>
    <g id="xtick_2">
     <g id="line2d_2">
      <g>
       <use style="stroke:#000000;stroke-width:0.8;" x="434.656007" xlink:href="#m20922e2b32" y="206.921739"/>
      </g>
     </g>
     <g id="text_2">
      <!-- 2 -->
      <defs>
       <path d="M 19.1875 8.296875 
L 53.609375 8.296875 
L 53.609375 0 
L 7.328125 0 
L 7.328125 8.296875 
Q 12.9375 14.109375 22.625 23.890625 
Q 32.328125 33.6875 34.8125 36.53125 
Q 39.546875 41.84375 41.421875 45.53125 
Q 43.3125 49.21875 43.3125 52.78125 
Q 43.3125 58.59375 39.234375 62.25 
Q 35.15625 65.921875 28.609375 65.921875 
Q 23.96875 65.921875 18.8125 64.3125 
Q 13.671875 62.703125 7.8125 59.421875 
L 7.8125 69.390625 
Q 13.765625 71.78125 18.9375 73 
Q 24.125 74.21875 28.421875 74.21875 
Q 39.75 74.21875 46.484375 68.546875 
Q 53.21875 62.890625 53.21875 53.421875 
Q 53.21875 48.921875 51.53125 44.890625 
Q 49.859375 40.875 45.40625 35.40625 
Q 44.1875 33.984375 37.640625 27.21875 
Q 31.109375 20.453125 19.1875 8.296875 
z
" id="DejaVuSans-50"/>
      </defs>
      <g transform="translate(431.474757 221.520177)scale(0.1 -0.1)">
       <use xlink:href="#DejaVuSans-50"/>
      </g>
     </g>
    </g>
    <g id="xtick_3">
     <g id="line2d_3">
      <g>
       <use style="stroke:#000000;stroke-width:0.8;" x="638.584742" xlink:href="#m20922e2b32" y="206.921739"/>
      </g>
     </g>
     <g id="text_3">
      <!-- 4 -->
      <defs>
       <path d="M 37.796875 64.3125 
L 12.890625 25.390625 
L 37.796875 25.390625 
z
M 35.203125 72.90625 
L 47.609375 72.90625 
L 47.609375 25.390625 
L 58.015625 25.390625 
L 58.015625 17.1875 
L 47.609375 17.1875 
L 47.609375 0 
L 37.796875 0 
L 37.796875 17.1875 
L 4.890625 17.1875 
L 4.890625 26.703125 
z
" id="DejaVuSans-52"/>
      </defs>
      <g transform="translate(635.403492 221.520177)scale(0.1 -0.1)">
       <use xlink:href="#DejaVuSans-52"/>
      </g>
     </g>
    </g>
    <g id="xtick_4">
     <g id="line2d_4">
      <g>
       <use style="stroke:#000000;stroke-width:0.8;" x="842.513476" xlink:href="#m20922e2b32" y="206.921739"/>
      </g>
     </g>
     <g id="text_4">
      <!-- 6 -->
      <defs>
       <path d="M 33.015625 40.375 
Q 26.375 40.375 22.484375 35.828125 
Q 18.609375 31.296875 18.609375 23.390625 
Q 18.609375 15.53125 22.484375 10.953125 
Q 26.375 6.390625 33.015625 6.390625 
Q 39.65625 6.390625 43.53125 10.953125 
Q 47.40625 15.53125 47.40625 23.390625 
Q 47.40625 31.296875 43.53125 35.828125 
Q 39.65625 40.375 33.015625 40.375 
z
M 52.59375 71.296875 
L 52.59375 62.3125 
Q 48.875 64.0625 45.09375 64.984375 
Q 41.3125 65.921875 37.59375 65.921875 
Q 27.828125 65.921875 22.671875 59.328125 
Q 17.53125 52.734375 16.796875 39.40625 
Q 19.671875 43.65625 24.015625 45.921875 
Q 28.375 48.1875 33.59375 48.1875 
Q 44.578125 48.1875 50.953125 41.515625 
Q 57.328125 34.859375 57.328125 23.390625 
Q 57.328125 12.15625 50.6875 5.359375 
Q 44.046875 -1.421875 33.015625 -1.421875 
Q 20.359375 -1.421875 13.671875 8.265625 
Q 6.984375 17.96875 6.984375 36.375 
Q 6.984375 53.65625 15.1875 63.9375 
Q 23.390625 74.21875 37.203125 74.21875 
Q 40.921875 74.21875 44.703125 73.484375 
Q 48.484375 72.75 52.59375 71.296875 
z
" id="DejaVuSans-54"/>
      </defs>
      <g transform="translate(839.332226 221.520177)scale(0.1 -0.1)">
       <use xlink:href="#DejaVuSans-54"/>
      </g>
     </g>
    </g>
    <g id="xtick_5">
     <g id="line2d_5">
      <g>
       <use style="stroke:#000000;stroke-width:0.8;" x="1046.442211" xlink:href="#m20922e2b32" y="206.921739"/>
      </g>
     </g>
     <g id="text_5">
      <!-- 8 -->
      <defs>
       <path d="M 31.78125 34.625 
Q 24.75 34.625 20.71875 30.859375 
Q 16.703125 27.09375 16.703125 20.515625 
Q 16.703125 13.921875 20.71875 10.15625 
Q 24.75 6.390625 31.78125 6.390625 
Q 38.8125 6.390625 42.859375 10.171875 
Q 46.921875 13.96875 46.921875 20.515625 
Q 46.921875 27.09375 42.890625 30.859375 
Q 38.875 34.625 31.78125 34.625 
z
M 21.921875 38.8125 
Q 15.578125 40.375 12.03125 44.71875 
Q 8.5 49.078125 8.5 55.328125 
Q 8.5 64.0625 14.71875 69.140625 
Q 20.953125 74.21875 31.78125 74.21875 
Q 42.671875 74.21875 48.875 69.140625 
Q 55.078125 64.0625 55.078125 55.328125 
Q 55.078125 49.078125 51.53125 44.71875 
Q 48 40.375 41.703125 38.8125 
Q 48.828125 37.15625 52.796875 32.3125 
Q 56.78125 27.484375 56.78125 20.515625 
Q 56.78125 9.90625 50.3125 4.234375 
Q 43.84375 -1.421875 31.78125 -1.421875 
Q 19.734375 -1.421875 13.25 4.234375 
Q 6.78125 9.90625 6.78125 20.515625 
Q 6.78125 27.484375 10.78125 32.3125 
Q 14.796875 37.15625 21.921875 38.8125 
z
M 18.3125 54.390625 
Q 18.3125 48.734375 21.84375 45.5625 
Q 25.390625 42.390625 31.78125 42.390625 
Q 38.140625 42.390625 41.71875 45.5625 
Q 45.3125 48.734375 45.3125 54.390625 
Q 45.3125 60.0625 41.71875 63.234375 
Q 38.140625 66.40625 31.78125 66.40625 
Q 25.390625 66.40625 21.84375 63.234375 
Q 18.3125 60.0625 18.3125 54.390625 
z
" id="DejaVuSans-56"/>
      </defs>
      <g transform="translate(1043.260961 221.520177)scale(0.1 -0.1)">
       <use xlink:href="#DejaVuSans-56"/>
      </g>
     </g>
    </g>
    <g id="xtick_6">
     <g id="line2d_6">
      <g>
       <use style="stroke:#000000;stroke-width:0.8;" x="1250.370946" xlink:href="#m20922e2b32" y="206.921739"/>
      </g>
     </g>
     <g id="text_6">
      <!-- 10 -->
      <defs>
       <path d="M 12.40625 8.296875 
L 28.515625 8.296875 
L 28.515625 63.921875 
L 10.984375 60.40625 
L 10.984375 69.390625 
L 28.421875 72.90625 
L 38.28125 72.90625 
L 38.28125 8.296875 
L 54.390625 8.296875 
L 54.390625 0 
L 12.40625 0 
z
" id="DejaVuSans-49"/>
      </defs>
      <g transform="translate(1244.008446 221.520177)scale(0.1 -0.1)">
       <use xlink:href="#DejaVuSans-49"/>
       <use x="63.623047" xlink:href="#DejaVuSans-48"/>
      </g>
     </g>
    </g>
   </g>
   <g id="matplotlib.axis_2">
    <g id="ytick_1">
     <g id="line2d_7">
      <defs>
       <path d="M 0 0 
L -3.5 0 
" id="m968a61ef5d" style="stroke:#000000;stroke-width:0.8;"/>
      </defs>
      <g>
       <use style="stroke:#000000;stroke-width:0.8;" x="180" xlink:href="#m968a61ef5d" y="201.307344"/>
      </g>
     </g>
     <g id="text_7">
      <!-- −1.0 -->
      <defs>
       <path d="M 10.59375 35.5 
L 73.1875 35.5 
L 73.1875 27.203125 
L 10.59375 27.203125 
z
" id="DejaVuSans-8722"/>
       <path d="M 10.6875 12.40625 
L 21 12.40625 
L 21 0 
L 10.6875 0 
z
" id="DejaVuSans-46"/>
      </defs>
      <g transform="translate(148.717187 205.106563)scale(0.1 -0.1)">
       <use xlink:href="#DejaVuSans-8722"/>
       <use x="83.789062" xlink:href="#DejaVuSans-49"/>
       <use x="147.412109" xlink:href="#DejaVuSans-46"/>
       <use x="179.199219" xlink:href="#DejaVuSans-48"/>
      </g>
     </g>
    </g>
    <g id="ytick_2">
     <g id="line2d_8">
      <g>
       <use style="stroke:#000000;stroke-width:0.8;" x="180" xlink:href="#m968a61ef5d" y="170.283786"/>
      </g>
     </g>
     <g id="text_8">
      <!-- −0.8 -->
      <g transform="translate(148.717187 174.083005)scale(0.1 -0.1)">
       <use xlink:href="#DejaVuSans-8722"/>
       <use x="83.789062" xlink:href="#DejaVuSans-48"/>
       <use x="147.412109" xlink:href="#DejaVuSans-46"/>
       <use x="179.199219" xlink:href="#DejaVuSans-56"/>
      </g>
     </g>
    </g>
    <g id="ytick_3">
     <g id="line2d_9">
      <g>
       <use style="stroke:#000000;stroke-width:0.8;" x="180" xlink:href="#m968a61ef5d" y="139.260228"/>
      </g>
     </g>
     <g id="text_9">
      <!-- −0.6 -->
      <g transform="translate(148.717187 143.059447)scale(0.1 -0.1)">
       <use xlink:href="#DejaVuSans-8722"/>
       <use x="83.789062" xlink:href="#DejaVuSans-48"/>
       <use x="147.412109" xlink:href="#DejaVuSans-46"/>
       <use x="179.199219" xlink:href="#DejaVuSans-54"/>
      </g>
     </g>
    </g>
    <g id="ytick_4">
     <g id="line2d_10">
      <g>
       <use style="stroke:#000000;stroke-width:0.8;" x="180" xlink:href="#m968a61ef5d" y="108.23667"/>
      </g>
     </g>
     <g id="text_10">
      <!-- −0.4 -->
      <g transform="translate(148.717187 112.035889)scale(0.1 -0.1)">
       <use xlink:href="#DejaVuSans-8722"/>
       <use x="83.789062" xlink:href="#DejaVuSans-48"/>
       <use x="147.412109" xlink:href="#DejaVuSans-46"/>
       <use x="179.199219" xlink:href="#DejaVuSans-52"/>
      </g>
     </g>
    </g>
    <g id="text_11">
     <!-- TD State:0 -->
     <defs>
      <path d="M -0.296875 72.90625 
L 61.375 72.90625 
L 61.375 64.59375 
L 35.5 64.59375 
L 35.5 0 
L 25.59375 0 
L 25.59375 64.59375 
L -0.296875 64.59375 
z
" id="DejaVuSans-84"/>
      <path d="M 19.671875 64.796875 
L 19.671875 8.109375 
L 31.59375 8.109375 
Q 46.6875 8.109375 53.6875 14.9375 
Q 60.6875 21.78125 60.6875 36.53125 
Q 60.6875 51.171875 53.6875 57.984375 
Q 46.6875 64.796875 31.59375 64.796875 
z
M 9.8125 72.90625 
L 30.078125 72.90625 
Q 51.265625 72.90625 61.171875 64.09375 
Q 71.09375 55.28125 71.09375 36.53125 
Q 71.09375 17.671875 61.125 8.828125 
Q 51.171875 0 30.078125 0 
L 9.8125 0 
z
" id="DejaVuSans-68"/>
      <path id="DejaVuSans-32"/>
      <path d="M 53.515625 70.515625 
L 53.515625 60.890625 
Q 47.90625 63.578125 42.921875 64.890625 
Q 37.9375 66.21875 33.296875 66.21875 
Q 25.25 66.21875 20.875 63.09375 
Q 16.5 59.96875 16.5 54.203125 
Q 16.5 49.359375 19.40625 46.890625 
Q 22.3125 44.4375 30.421875 42.921875 
L 36.375 41.703125 
Q 47.40625 39.59375 52.65625 34.296875 
Q 57.90625 29 57.90625 20.125 
Q 57.90625 9.515625 50.796875 4.046875 
Q 43.703125 -1.421875 29.984375 -1.421875 
Q 24.8125 -1.421875 18.96875 -0.25 
Q 13.140625 0.921875 6.890625 3.21875 
L 6.890625 13.375 
Q 12.890625 10.015625 18.65625 8.296875 
Q 24.421875 6.59375 29.984375 6.59375 
Q 38.421875 6.59375 43.015625 9.90625 
Q 47.609375 13.234375 47.609375 19.390625 
Q 47.609375 24.75 44.3125 27.78125 
Q 41.015625 30.8125 33.5 32.328125 
L 27.484375 33.5 
Q 16.453125 35.6875 11.515625 40.375 
Q 6.59375 45.0625 6.59375 53.421875 
Q 6.59375 63.09375 13.40625 68.65625 
Q 20.21875 74.21875 32.171875 74.21875 
Q 37.3125 74.21875 42.625 73.28125 
Q 47.953125 72.359375 53.515625 70.515625 
z
" id="DejaVuSans-83"/>
      <path d="M 18.3125 70.21875 
L 18.3125 54.6875 
L 36.8125 54.6875 
L 36.8125 47.703125 
L 18.3125 47.703125 
L 18.3125 18.015625 
Q 18.3125 11.328125 20.140625 9.421875 
Q 21.96875 7.515625 27.59375 7.515625 
L 36.8125 7.515625 
L 36.8125 0 
L 27.59375 0 
Q 17.1875 0 13.234375 3.875 
Q 9.28125 7.765625 9.28125 18.015625 
L 9.28125 47.703125 
L 2.6875 47.703125 
L 2.6875 54.6875 
L 9.28125 54.6875 
L 9.28125 70.21875 
z
" id="DejaVuSans-116"/>
      <path d="M 34.28125 27.484375 
Q 23.390625 27.484375 19.1875 25 
Q 14.984375 22.515625 14.984375 16.5 
Q 14.984375 11.71875 18.140625 8.90625 
Q 21.296875 6.109375 26.703125 6.109375 
Q 34.1875 6.109375 38.703125 11.40625 
Q 43.21875 16.703125 43.21875 25.484375 
L 43.21875 27.484375 
z
M 52.203125 31.203125 
L 52.203125 0 
L 43.21875 0 
L 43.21875 8.296875 
Q 40.140625 3.328125 35.546875 0.953125 
Q 30.953125 -1.421875 24.3125 -1.421875 
Q 15.921875 -1.421875 10.953125 3.296875 
Q 6 8.015625 6 15.921875 
Q 6 25.140625 12.171875 29.828125 
Q 18.359375 34.515625 30.609375 34.515625 
L 43.21875 34.515625 
L 43.21875 35.40625 
Q 43.21875 41.609375 39.140625 45 
Q 35.0625 48.390625 27.6875 48.390625 
Q 23 48.390625 18.546875 47.265625 
Q 14.109375 46.140625 10.015625 43.890625 
L 10.015625 52.203125 
Q 14.9375 54.109375 19.578125 55.046875 
Q 24.21875 56 28.609375 56 
Q 40.484375 56 46.34375 49.84375 
Q 52.203125 43.703125 52.203125 31.203125 
z
" id="DejaVuSans-97"/>
      <path d="M 56.203125 29.59375 
L 56.203125 25.203125 
L 14.890625 25.203125 
Q 15.484375 15.921875 20.484375 11.0625 
Q 25.484375 6.203125 34.421875 6.203125 
Q 39.59375 6.203125 44.453125 7.46875 
Q 49.3125 8.734375 54.109375 11.28125 
L 54.109375 2.78125 
Q 49.265625 0.734375 44.1875 -0.34375 
Q 39.109375 -1.421875 33.890625 -1.421875 
Q 20.796875 -1.421875 13.15625 6.1875 
Q 5.515625 13.8125 5.515625 26.8125 
Q 5.515625 40.234375 12.765625 48.109375 
Q 20.015625 56 32.328125 56 
Q 43.359375 56 49.78125 48.890625 
Q 56.203125 41.796875 56.203125 29.59375 
z
M 47.21875 32.234375 
Q 47.125 39.59375 43.09375 43.984375 
Q 39.0625 48.390625 32.421875 48.390625 
Q 24.90625 48.390625 20.390625 44.140625 
Q 15.875 39.890625 15.1875 32.171875 
z
" id="DejaVuSans-101"/>
      <path d="M 11.71875 12.40625 
L 22.015625 12.40625 
L 22.015625 0 
L 11.71875 0 
z
M 11.71875 51.703125 
L 22.015625 51.703125 
L 22.015625 39.3125 
L 11.71875 39.3125 
z
" id="DejaVuSans-58"/>
     </defs>
     <g transform="translate(142.6375 173.25462)rotate(-90)scale(0.1 -0.1)">
      <use xlink:href="#DejaVuSans-84"/>
      <use x="61.083984" xlink:href="#DejaVuSans-68"/>
      <use x="138.085938" xlink:href="#DejaVuSans-32"/>
      <use x="169.873047" xlink:href="#DejaVuSans-83"/>
      <use x="233.349609" xlink:href="#DejaVuSans-116"/>
      <use x="272.558594" xlink:href="#DejaVuSans-97"/>
      <use x="333.837891" xlink:href="#DejaVuSans-116"/>
      <use x="373.046875" xlink:href="#DejaVuSans-101"/>
      <use x="434.570312" xlink:href="#DejaVuSans-58"/>
      <use x="468.261719" xlink:href="#DejaVuSans-48"/>
     </g>
    </g>
   </g>
   <g id="line2d_11">
    <path clip-path="url(#p4ef3f170fd)" d="M 230.727273 113.886549 
L 235.825491 120.943273 
L 240.923709 129.983204 
L 246.021928 142.317123 
L 256.218365 170.208389 
L 261.316583 182.779795 
L 266.414801 192.213529 
L 271.51302 196.893973 
L 276.611238 195.986772 
L 281.709456 188.973073 
L 286.807675 175.71444 
L 291.905893 158.287541 
L 297.004111 140.44218 
L 302.10233 128.331711 
L 307.200548 127.146009 
L 312.298767 127.503746 
L 317.396985 130.02113 
L 322.495203 139.738468 
L 327.593422 145.717966 
L 332.69164 153.254419 
L 337.789858 162.903311 
L 342.888077 173.349444 
L 347.986295 184.210989 
L 353.084513 193.082795 
L 358.182732 198.292493 
L 363.28095 198.811919 
L 368.379169 194.15336 
L 373.477387 183.907664 
L 378.575605 168.939115 
L 383.673824 151.803411 
L 388.772042 133.709108 
L 393.87026 116.894882 
L 398.968479 110.906541 
L 404.066697 114.121516 
L 409.164915 117.725811 
L 414.263134 131.09799 
L 419.361352 137.469036 
L 424.459571 145.878231 
L 429.557789 157.282954 
L 434.656007 170.110957 
L 439.754226 182.50675 
L 444.852444 191.92717 
L 449.950662 197.339146 
L 455.048881 195.737654 
L 460.147099 188.878267 
L 465.245317 175.216825 
L 470.343536 157.079308 
L 475.441754 138.252243 
L 480.539973 127.360825 
L 485.638191 130.728882 
L 490.736409 128.737044 
L 495.834628 135.366925 
L 500.932846 144.670488 
L 506.031064 149.425425 
L 511.129283 157.24722 
L 516.227501 168.064394 
L 521.32572 179.36991 
L 526.423938 189.938837 
L 531.522156 197.07616 
L 536.620375 199.130397 
L 541.718593 195.247944 
L 546.816811 185.152502 
L 551.91503 170.25447 
L 557.013248 152.306971 
L 562.111466 132.868947 
L 567.209685 114.65003 
L 572.307903 102.722881 
L 577.406122 107.368912 
L 582.50434 111.25627 
L 587.602558 124.741238 
L 592.700777 130.632791 
L 597.798995 138.750385 
L 602.897213 150.120335 
L 613.09365 175.87527 
L 618.191868 187.678826 
L 623.290087 195.015331 
L 628.388305 197.659761 
L 633.486524 194.901469 
L 638.584742 182.31944 
L 643.68296 164.433277 
L 648.781179 143.770369 
L 653.879397 122.454679 
L 658.977615 109.350968 
L 664.075834 101.12046 
L 669.174052 105.094483 
L 674.27227 109.970447 
L 679.370489 117.359985 
L 684.468707 127.369054 
L 689.566926 134.118139 
L 694.665144 145.417858 
L 699.763362 158.389928 
L 704.861581 172.561874 
L 709.959799 185.549643 
L 715.058017 195.188661 
L 720.156236 199.264701 
L 725.254454 196.114659 
L 730.352672 186.003517 
L 735.450891 169.604679 
L 740.549109 149.399231 
L 745.647328 127.728953 
L 750.745546 107.304608 
L 755.843764 91.878261 
L 760.941983 95.658216 
L 766.040201 98.9462 
L 771.138419 103.583554 
L 776.236638 117.644014 
L 781.334856 125.72444 
L 786.433074 138.52453 
L 791.531293 154.658181 
L 796.629511 169.867314 
L 801.72773 188.847987 
L 806.825948 199.112784 
L 811.924166 201.443478 
L 817.022385 196.346819 
L 822.120603 183.818859 
L 827.218821 165.255427 
L 832.31704 142.607236 
L 837.415258 118.877862 
L 842.513476 100.912515 
L 847.611695 99.146264 
L 852.709913 105.717674 
L 857.808132 114.077164 
L 862.90635 123.172162 
L 868.004568 129.356287 
L 873.102787 138.717821 
L 878.201005 151.22864 
L 883.299223 164.979053 
L 888.397442 179.361321 
L 893.49566 191.431432 
L 898.593878 198.360431 
L 903.692097 198.402767 
L 908.790315 191.320483 
L 913.888534 177.347072 
L 918.986752 158.688399 
L 924.08497 137.409919 
L 929.183189 116.821869 
L 934.281407 98.457377 
L 939.379625 97.049741 
L 944.477844 98.785268 
L 949.576062 102.358886 
L 954.67428 115.088371 
L 959.772499 121.816774 
L 964.870717 130.221254 
L 969.968936 141.004016 
L 975.067154 153.909868 
L 980.165372 168.009974 
L 985.263591 181.226353 
L 990.361809 191.097615 
L 995.460027 196.365717 
L 1000.558246 196.861049 
L 1005.656464 190.844549 
L 1010.754683 176.723862 
L 1015.852901 159.498761 
L 1020.951119 141.536524 
L 1026.049338 126.644696 
L 1031.147556 127.494444 
L 1036.245774 123.611538 
L 1041.343993 124.577885 
L 1046.442211 132.699325 
L 1051.540429 141.301618 
L 1056.638648 146.813521 
L 1061.736866 155.378498 
L 1066.835085 165.67352 
L 1071.933303 177.465759 
L 1077.031521 188.718269 
L 1082.12974 196.794664 
L 1087.227958 199.178068 
L 1092.326176 194.852356 
L 1097.424395 184.059433 
L 1102.522613 167.973379 
L 1112.71905 130.667157 
L 1117.817268 113.205138 
L 1122.915487 105.848339 
L 1128.013705 108.122265 
L 1133.111923 111.036268 
L 1138.210142 123.488283 
L 1143.30836 129.560757 
L 1148.406578 137.285758 
L 1153.504797 147.73412 
L 1163.701233 173.325979 
L 1168.799452 184.883626 
L 1173.89767 193.697489 
L 1178.995889 196.930429 
L 1184.094107 195.272353 
L 1189.192325 187.476289 
L 1194.290544 173.174571 
L 1204.48698 136.504058 
L 1209.585199 125.348471 
L 1214.683417 125.028578 
L 1219.781635 122.413156 
L 1224.879854 123.109314 
L 1229.978072 133.428 
L 1235.076291 140.579044 
L 1240.174509 147.366213 
L 1245.272727 157.022872 
L 1245.272727 157.022872 
" style="fill:none;stroke:#000000;stroke-linecap:square;stroke-width:4;"/>
   </g>
   <g id="line2d_12">
    <path clip-path="url(#p4ef3f170fd)" d="M 230.727273 105.906863 
L 235.825491 116.025172 
L 240.923709 129.12827 
L 246.021928 144.850383 
L 251.120146 161.451699 
L 256.218365 177.083728 
L 261.316583 189.974169 
L 266.414801 198.475285 
L 271.51302 201.303202 
L 276.611238 198.01783 
L 281.709456 189.268723 
L 286.807675 176.327987 
L 291.905893 161.796875 
L 297.004111 146.756424 
L 302.10233 134.398151 
L 307.200548 124.878329 
L 312.298767 119.479364 
L 317.396985 118.325597 
L 322.495203 122.345778 
L 327.593422 131.0993 
L 332.69164 142.702361 
L 337.789858 155.894411 
L 342.888077 170.386886 
L 347.986295 183.746943 
L 353.084513 194.048053 
L 358.182732 200.025328 
L 363.28095 201.021012 
L 368.379169 196.29614 
L 373.477387 186.222404 
L 378.575605 173.065596 
L 383.673824 157.961661 
L 388.772042 143.208934 
L 393.87026 131.503963 
L 398.968479 123.29095 
L 404.066697 119.574738 
L 409.164915 119.876851 
L 414.263134 124.922231 
L 419.361352 134.591993 
L 424.459571 146.521328 
L 429.557789 160.88358 
L 434.656007 176.129954 
L 439.754226 189.475497 
L 444.852444 198.286704 
L 449.950662 201.300603 
L 455.048881 197.89885 
L 460.147099 188.924583 
L 465.245317 175.403961 
L 470.343536 160.02092 
L 475.441754 145.111358 
L 480.539973 132.873824 
L 485.638191 124.887073 
L 490.736409 120.584926 
L 495.834628 121.221489 
L 500.932846 126.63887 
L 506.031064 135.96003 
L 511.129283 149.1402 
L 521.32572 178.764523 
L 526.423938 191.148458 
L 531.522156 199.021664 
L 536.620375 201.225883 
L 541.718593 196.978621 
L 546.816811 187.208925 
L 551.91503 173.466408 
L 562.111466 141.217586 
L 567.209685 127.598057 
L 572.307903 117.425524 
L 577.406122 112.413017 
L 582.50434 112.200002 
L 587.602558 117.456155 
L 592.700777 126.253978 
L 597.798995 138.003415 
L 602.897213 152.907459 
L 607.995432 168.572552 
L 613.09365 182.78539 
L 618.191868 194.293388 
L 623.290087 200.510405 
L 628.388305 200.428006 
L 633.486524 193.725334 
L 638.584742 181.128341 
L 643.68296 164.697674 
L 648.781179 146.577262 
L 653.879397 129.706139 
L 658.977615 116.114349 
L 664.075834 105.680966 
L 669.174052 100.047666 
L 674.27227 98.367463 
L 679.370489 101.369874 
L 684.468707 108.993763 
L 689.566926 121.83083 
L 694.665144 137.232284 
L 704.861581 172.281914 
L 709.959799 187.476643 
L 715.058017 197.894755 
L 720.156236 201.30375 
L 725.254454 197.486688 
L 730.352672 186.706719 
L 735.450891 171.071798 
L 745.647328 134.550003 
L 750.745546 119.292609 
L 755.843764 107.406005 
L 760.941983 100.909434 
L 766.040201 99.612454 
L 771.138419 102.270986 
L 776.236638 110.704698 
L 781.334856 123.836174 
L 786.433074 141.151955 
L 791.531293 159.344725 
L 796.629511 176.378694 
L 801.72773 190.814191 
L 806.825948 199.593268 
L 811.924166 200.913584 
L 817.022385 194.716674 
L 822.120603 181.791277 
L 827.218821 163.821788 
L 832.31704 143.552343 
L 837.415258 124.686183 
L 842.513476 109.656976 
L 847.611695 99.831274 
L 852.709913 95.902066 
L 857.808132 97.625409 
L 862.90635 103.583758 
L 868.004568 114.162178 
L 873.102787 128.64099 
L 878.201005 145.314881 
L 883.299223 163.740977 
L 888.397442 181.048627 
L 893.49566 194.105018 
L 898.593878 200.665346 
L 903.692097 200.071303 
L 908.790315 192.101266 
L 913.888534 178.496184 
L 918.986752 161.055893 
L 924.08497 143.166545 
L 929.183189 126.45982 
L 934.281407 113.568167 
L 939.379625 105.390866 
L 944.477844 102.08615 
L 949.576062 102.936753 
L 954.67428 107.738323 
L 959.772499 116.378595 
L 964.870717 128.195921 
L 969.968936 142.493921 
L 975.067154 158.250728 
L 980.165372 174.440805 
L 985.263591 188.466921 
L 990.361809 197.743812 
L 995.460027 201.281181 
L 1000.558246 198.640063 
L 1005.656464 190.008971 
L 1010.754683 177.272837 
L 1015.852901 162.720226 
L 1020.951119 147.747468 
L 1026.049338 135.053891 
L 1031.147556 125.292826 
L 1036.245774 118.480801 
L 1041.343993 115.303937 
L 1046.442211 117.212644 
L 1051.540429 123.553769 
L 1056.638648 133.616988 
L 1061.736866 146.213389 
L 1066.835085 161.288616 
L 1071.933303 176.983633 
L 1077.031521 190.569408 
L 1082.12974 199.141792 
L 1087.227958 201.155791 
L 1092.326176 196.367306 
L 1097.424395 185.496258 
L 1102.522613 171.132874 
L 1107.620831 155.342623 
L 1112.71905 139.936553 
L 1117.817268 126.924405 
L 1122.915487 117.944985 
L 1128.013705 113.595472 
L 1133.111923 113.343453 
L 1138.210142 116.792875 
L 1143.30836 124.358307 
L 1148.406578 135.993214 
L 1153.504797 149.901409 
L 1158.603015 165.581032 
L 1163.701233 180.067546 
L 1168.799452 191.821512 
L 1173.89767 199.415068 
L 1178.995889 201.183654 
L 1184.094107 196.976494 
L 1189.192325 187.47437 
L 1194.290544 173.739702 
L 1199.388762 158.539482 
L 1204.48698 144.502091 
L 1209.585199 132.206357 
L 1214.683417 122.676647 
L 1219.781635 116.348771 
L 1224.879854 113.567553 
L 1229.978072 116.402154 
L 1235.076291 124.187211 
L 1240.174509 135.562662 
L 1245.272727 148.993982 
L 1245.272727 148.993982 
" style="fill:none;stroke:#ff0000;stroke-linecap:square;stroke-width:1.5;"/>
   </g>
   <g id="patch_3">
    <path d="M 180 206.921739 
L 180 86.4 
" style="fill:none;stroke:#000000;stroke-linecap:square;stroke-linejoin:miter;stroke-width:0.8;"/>
   </g>
   <g id="patch_4">
    <path d="M 1296 206.921739 
L 1296 86.4 
" style="fill:none;stroke:#000000;stroke-linecap:square;stroke-linejoin:miter;stroke-width:0.8;"/>
   </g>
   <g id="patch_5">
    <path d="M 180 206.921739 
L 1296 206.921739 
" style="fill:none;stroke:#000000;stroke-linecap:square;stroke-linejoin:miter;stroke-width:0.8;"/>
   </g>
   <g id="patch_6">
    <path d="M 180 86.4 
L 1296 86.4 
" style="fill:none;stroke:#000000;stroke-linecap:square;stroke-linejoin:miter;stroke-width:0.8;"/>
   </g>
   <g id="legend_1">
    <g id="patch_7">
     <path d="M 1234.3125 123.75625 
L 1289 123.75625 
Q 1291 123.75625 1291 121.75625 
L 1291 93.4 
Q 1291 91.4 1289 91.4 
L 1234.3125 91.4 
Q 1232.3125 91.4 1232.3125 93.4 
L 1232.3125 121.75625 
Q 1232.3125 123.75625 1234.3125 123.75625 
z
" style="fill:#ffffff;opacity:0.8;stroke:#cccccc;stroke-linejoin:miter;"/>
    </g>
    <g id="line2d_13">
     <path d="M 1236.3125 99.498438 
L 1256.3125 99.498438 
" style="fill:none;stroke:#000000;stroke-linecap:square;stroke-width:4;"/>
    </g>
    <g id="line2d_14"/>
    <g id="text_12">
     <!-- Pred -->
     <defs>
      <path d="M 19.671875 64.796875 
L 19.671875 37.40625 
L 32.078125 37.40625 
Q 38.96875 37.40625 42.71875 40.96875 
Q 46.484375 44.53125 46.484375 51.125 
Q 46.484375 57.671875 42.71875 61.234375 
Q 38.96875 64.796875 32.078125 64.796875 
z
M 9.8125 72.90625 
L 32.078125 72.90625 
Q 44.34375 72.90625 50.609375 67.359375 
Q 56.890625 61.8125 56.890625 51.125 
Q 56.890625 40.328125 50.609375 34.8125 
Q 44.34375 29.296875 32.078125 29.296875 
L 19.671875 29.296875 
L 19.671875 0 
L 9.8125 0 
z
" id="DejaVuSans-80"/>
      <path d="M 41.109375 46.296875 
Q 39.59375 47.171875 37.8125 47.578125 
Q 36.03125 48 33.890625 48 
Q 26.265625 48 22.1875 43.046875 
Q 18.109375 38.09375 18.109375 28.8125 
L 18.109375 0 
L 9.078125 0 
L 9.078125 54.6875 
L 18.109375 54.6875 
L 18.109375 46.1875 
Q 20.953125 51.171875 25.484375 53.578125 
Q 30.03125 56 36.53125 56 
Q 37.453125 56 38.578125 55.875 
Q 39.703125 55.765625 41.0625 55.515625 
z
" id="DejaVuSans-114"/>
      <path d="M 45.40625 46.390625 
L 45.40625 75.984375 
L 54.390625 75.984375 
L 54.390625 0 
L 45.40625 0 
L 45.40625 8.203125 
Q 42.578125 3.328125 38.25 0.953125 
Q 33.9375 -1.421875 27.875 -1.421875 
Q 17.96875 -1.421875 11.734375 6.484375 
Q 5.515625 14.40625 5.515625 27.296875 
Q 5.515625 40.1875 11.734375 48.09375 
Q 17.96875 56 27.875 56 
Q 33.9375 56 38.25 53.625 
Q 42.578125 51.265625 45.40625 46.390625 
z
M 14.796875 27.296875 
Q 14.796875 17.390625 18.875 11.75 
Q 22.953125 6.109375 30.078125 6.109375 
Q 37.203125 6.109375 41.296875 11.75 
Q 45.40625 17.390625 45.40625 27.296875 
Q 45.40625 37.203125 41.296875 42.84375 
Q 37.203125 48.484375 30.078125 48.484375 
Q 22.953125 48.484375 18.875 42.84375 
Q 14.796875 37.203125 14.796875 27.296875 
z
" id="DejaVuSans-100"/>
     </defs>
     <g transform="translate(1264.3125 102.998438)scale(0.1 -0.1)">
      <use xlink:href="#DejaVuSans-80"/>
      <use x="60.287109" xlink:href="#DejaVuSans-114"/>
      <use x="101.369141" xlink:href="#DejaVuSans-101"/>
      <use x="162.892578" xlink:href="#DejaVuSans-100"/>
     </g>
    </g>
    <g id="line2d_15">
     <path d="M 1236.3125 114.176563 
L 1256.3125 114.176563 
" style="fill:none;stroke:#ff0000;stroke-linecap:square;stroke-width:1.5;"/>
    </g>
    <g id="line2d_16"/>
    <g id="text_13">
     <!-- True -->
     <defs>
      <path d="M 8.5 21.578125 
L 8.5 54.6875 
L 17.484375 54.6875 
L 17.484375 21.921875 
Q 17.484375 14.15625 20.5 10.265625 
Q 23.53125 6.390625 29.59375 6.390625 
Q 36.859375 6.390625 41.078125 11.03125 
Q 45.3125 15.671875 45.3125 23.6875 
L 45.3125 54.6875 
L 54.296875 54.6875 
L 54.296875 0 
L 45.3125 0 
L 45.3125 8.40625 
Q 42.046875 3.421875 37.71875 1 
Q 33.40625 -1.421875 27.6875 -1.421875 
Q 18.265625 -1.421875 13.375 4.4375 
Q 8.5 10.296875 8.5 21.578125 
z
M 31.109375 56 
z
" id="DejaVuSans-117"/>
     </defs>
     <g transform="translate(1264.3125 117.676563)scale(0.1 -0.1)">
      <use xlink:href="#DejaVuSans-84"/>
      <use x="60.865234" xlink:href="#DejaVuSans-114"/>
      <use x="101.978516" xlink:href="#DejaVuSans-117"/>
      <use x="165.357422" xlink:href="#DejaVuSans-101"/>
     </g>
    </g>
   </g>
  </g>
  <g id="axes_2">
   <g id="patch_8">
    <path d="M 180 351.547826 
L 1296 351.547826 
L 1296 231.026087 
L 180 231.026087 
z
" style="fill:#ffffff;"/>
   </g>
   <g id="matplotlib.axis_3">
    <g id="xtick_7">
     <g id="line2d_17">
      <g>
       <use style="stroke:#000000;stroke-width:0.8;" x="230.727273" xlink:href="#m20922e2b32" y="351.547826"/>
      </g>
     </g>
     <g id="text_14">
      <!-- 0 -->
      <g transform="translate(227.546023 366.146264)scale(0.1 -0.1)">
       <use xlink:href="#DejaVuSans-48"/>
      </g>
     </g>
    </g>
    <g id="xtick_8">
     <g id="line2d_18">
      <g>
       <use style="stroke:#000000;stroke-width:0.8;" x="434.656007" xlink:href="#m20922e2b32" y="351.547826"/>
      </g>
     </g>
     <g id="text_15">
      <!-- 2 -->
      <g transform="translate(431.474757 366.146264)scale(0.1 -0.1)">
       <use xlink:href="#DejaVuSans-50"/>
      </g>
     </g>
    </g>
    <g id="xtick_9">
     <g id="line2d_19">
      <g>
       <use style="stroke:#000000;stroke-width:0.8;" x="638.584742" xlink:href="#m20922e2b32" y="351.547826"/>
      </g>
     </g>
     <g id="text_16">
      <!-- 4 -->
      <g transform="translate(635.403492 366.146264)scale(0.1 -0.1)">
       <use xlink:href="#DejaVuSans-52"/>
      </g>
     </g>
    </g>
    <g id="xtick_10">
     <g id="line2d_20">
      <g>
       <use style="stroke:#000000;stroke-width:0.8;" x="842.513476" xlink:href="#m20922e2b32" y="351.547826"/>
      </g>
     </g>
     <g id="text_17">
      <!-- 6 -->
      <g transform="translate(839.332226 366.146264)scale(0.1 -0.1)">
       <use xlink:href="#DejaVuSans-54"/>
      </g>
     </g>
    </g>
    <g id="xtick_11">
     <g id="line2d_21">
      <g>
       <use style="stroke:#000000;stroke-width:0.8;" x="1046.442211" xlink:href="#m20922e2b32" y="351.547826"/>
      </g>
     </g>
     <g id="text_18">
      <!-- 8 -->
      <g transform="translate(1043.260961 366.146264)scale(0.1 -0.1)">
       <use xlink:href="#DejaVuSans-56"/>
      </g>
     </g>
    </g>
    <g id="xtick_12">
     <g id="line2d_22">
      <g>
       <use style="stroke:#000000;stroke-width:0.8;" x="1250.370946" xlink:href="#m20922e2b32" y="351.547826"/>
      </g>
     </g>
     <g id="text_19">
      <!-- 10 -->
      <g transform="translate(1244.008446 366.146264)scale(0.1 -0.1)">
       <use xlink:href="#DejaVuSans-49"/>
       <use x="63.623047" xlink:href="#DejaVuSans-48"/>
      </g>
     </g>
    </g>
   </g>
   <g id="matplotlib.axis_4">
    <g id="ytick_5">
     <g id="line2d_23">
      <g>
       <use style="stroke:#000000;stroke-width:0.8;" x="180" xlink:href="#m968a61ef5d" y="348.715048"/>
      </g>
     </g>
     <g id="text_20">
      <!-- −1.0 -->
      <g transform="translate(148.717187 352.514267)scale(0.1 -0.1)">
       <use xlink:href="#DejaVuSans-8722"/>
       <use x="83.789062" xlink:href="#DejaVuSans-49"/>
       <use x="147.412109" xlink:href="#DejaVuSans-46"/>
       <use x="179.199219" xlink:href="#DejaVuSans-48"/>
      </g>
     </g>
    </g>
    <g id="ytick_6">
     <g id="line2d_24">
      <g>
       <use style="stroke:#000000;stroke-width:0.8;" x="180" xlink:href="#m968a61ef5d" y="320.169157"/>
      </g>
     </g>
     <g id="text_21">
      <!-- −0.5 -->
      <defs>
       <path d="M 10.796875 72.90625 
L 49.515625 72.90625 
L 49.515625 64.59375 
L 19.828125 64.59375 
L 19.828125 46.734375 
Q 21.96875 47.46875 24.109375 47.828125 
Q 26.265625 48.1875 28.421875 48.1875 
Q 40.625 48.1875 47.75 41.5 
Q 54.890625 34.8125 54.890625 23.390625 
Q 54.890625 11.625 47.5625 5.09375 
Q 40.234375 -1.421875 26.90625 -1.421875 
Q 22.3125 -1.421875 17.546875 -0.640625 
Q 12.796875 0.140625 7.71875 1.703125 
L 7.71875 11.625 
Q 12.109375 9.234375 16.796875 8.0625 
Q 21.484375 6.890625 26.703125 6.890625 
Q 35.15625 6.890625 40.078125 11.328125 
Q 45.015625 15.765625 45.015625 23.390625 
Q 45.015625 31 40.078125 35.4375 
Q 35.15625 39.890625 26.703125 39.890625 
Q 22.75 39.890625 18.8125 39.015625 
Q 14.890625 38.140625 10.796875 36.28125 
z
" id="DejaVuSans-53"/>
      </defs>
      <g transform="translate(148.717187 323.968376)scale(0.1 -0.1)">
       <use xlink:href="#DejaVuSans-8722"/>
       <use x="83.789062" xlink:href="#DejaVuSans-48"/>
       <use x="147.412109" xlink:href="#DejaVuSans-46"/>
       <use x="179.199219" xlink:href="#DejaVuSans-53"/>
      </g>
     </g>
    </g>
    <g id="ytick_7">
     <g id="line2d_25">
      <g>
       <use style="stroke:#000000;stroke-width:0.8;" x="180" xlink:href="#m968a61ef5d" y="291.623267"/>
      </g>
     </g>
     <g id="text_22">
      <!-- 0.0 -->
      <g transform="translate(157.096875 295.422486)scale(0.1 -0.1)">
       <use xlink:href="#DejaVuSans-48"/>
       <use x="63.623047" xlink:href="#DejaVuSans-46"/>
       <use x="95.410156" xlink:href="#DejaVuSans-48"/>
      </g>
     </g>
    </g>
    <g id="ytick_8">
     <g id="line2d_26">
      <g>
       <use style="stroke:#000000;stroke-width:0.8;" x="180" xlink:href="#m968a61ef5d" y="263.077376"/>
      </g>
     </g>
     <g id="text_23">
      <!-- 0.5 -->
      <g transform="translate(157.096875 266.876595)scale(0.1 -0.1)">
       <use xlink:href="#DejaVuSans-48"/>
       <use x="63.623047" xlink:href="#DejaVuSans-46"/>
       <use x="95.410156" xlink:href="#DejaVuSans-53"/>
      </g>
     </g>
    </g>
    <g id="ytick_9">
     <g id="line2d_27">
      <g>
       <use style="stroke:#000000;stroke-width:0.8;" x="180" xlink:href="#m968a61ef5d" y="234.531486"/>
      </g>
     </g>
     <g id="text_24">
      <!-- 1.0 -->
      <g transform="translate(157.096875 238.330705)scale(0.1 -0.1)">
       <use xlink:href="#DejaVuSans-49"/>
       <use x="63.623047" xlink:href="#DejaVuSans-46"/>
       <use x="95.410156" xlink:href="#DejaVuSans-48"/>
      </g>
     </g>
    </g>
    <g id="text_25">
     <!-- TD State:1 -->
     <g transform="translate(142.6375 317.880707)rotate(-90)scale(0.1 -0.1)">
      <use xlink:href="#DejaVuSans-84"/>
      <use x="61.083984" xlink:href="#DejaVuSans-68"/>
      <use x="138.085938" xlink:href="#DejaVuSans-32"/>
      <use x="169.873047" xlink:href="#DejaVuSans-83"/>
      <use x="233.349609" xlink:href="#DejaVuSans-116"/>
      <use x="272.558594" xlink:href="#DejaVuSans-97"/>
      <use x="333.837891" xlink:href="#DejaVuSans-116"/>
      <use x="373.046875" xlink:href="#DejaVuSans-101"/>
      <use x="434.570312" xlink:href="#DejaVuSans-58"/>
      <use x="468.261719" xlink:href="#DejaVuSans-49"/>
     </g>
    </g>
   </g>
   <g id="line2d_28">
    <path clip-path="url(#p10dbed1df0)" d="M 230.727273 240.684663 
L 235.825491 242.784353 
L 240.923709 246.024274 
L 246.021928 250.613193 
L 251.120146 256.338224 
L 256.218365 263.333612 
L 261.316583 271.787242 
L 266.414801 281.676156 
L 271.51302 292.592011 
L 276.611238 303.943307 
L 281.709456 314.799804 
L 286.807675 324.528937 
L 291.905893 332.284567 
L 297.004111 337.949637 
L 302.10233 340.049242 
L 307.200548 339.866147 
L 312.298767 340.184434 
L 317.396985 338.926205 
L 322.495203 336.377743 
L 327.593422 334.231206 
L 332.69164 331.361105 
L 337.789858 327.235305 
L 342.888077 321.761408 
L 347.986295 314.390592 
L 353.084513 305.552121 
L 358.182732 295.726438 
L 363.28095 285.449825 
L 368.379169 274.706227 
L 373.477387 264.331712 
L 378.575605 255.219716 
L 383.673824 248.255599 
L 388.772042 242.95584 
L 393.87026 239.462468 
L 398.968479 241.579659 
L 404.066697 240.423556 
L 409.164915 239.77693 
L 414.263134 243.543861 
L 419.361352 245.771402 
L 424.459571 249.727539 
L 429.557789 255.117278 
L 434.656007 262.410102 
L 439.754226 271.337185 
L 444.852444 281.424629 
L 455.048881 304.309195 
L 460.147099 315.16299 
L 465.245317 324.860938 
L 470.343536 332.821683 
L 475.441754 338.549663 
L 480.539973 340.06659 
L 485.638191 339.810247 
L 490.736409 339.320156 
L 495.834628 337.770817 
L 500.932846 335.047832 
L 506.031064 332.918772 
L 511.129283 329.706996 
L 516.227501 324.634013 
L 521.32572 317.8877 
L 526.423938 309.089867 
L 531.522156 298.864727 
L 536.620375 287.803567 
L 541.718593 276.167863 
L 546.816811 265.199018 
L 551.91503 255.85648 
L 557.013248 248.340158 
L 562.111466 242.646486 
L 567.209685 238.955166 
L 572.307903 239.774038 
L 577.406122 239.550717 
L 582.50434 238.824204 
L 587.602558 242.013983 
L 592.700777 245.537239 
L 597.798995 247.610892 
L 602.897213 252.526096 
L 607.995432 258.901287 
L 613.09365 266.407091 
L 618.191868 275.875695 
L 623.290087 286.649002 
L 633.486524 309.920964 
L 638.584742 320.777922 
L 643.68296 330.14101 
L 648.781179 337.372224 
L 653.879397 342.434271 
L 658.977615 343.139811 
L 664.075834 344.729534 
L 669.174052 345.293573 
L 674.27227 343.46551 
L 679.370489 341.310788 
L 684.468707 339.485212 
L 689.566926 337.469204 
L 694.665144 333.880213 
L 699.763362 328.911938 
L 704.861581 321.960286 
L 709.959799 313.039579 
L 715.058017 302.181983 
L 725.254454 277.494538 
L 730.352672 265.815215 
L 735.450891 255.327429 
L 740.549109 247.174245 
L 745.647328 241.288524 
L 750.745546 237.60645 
L 755.843764 238.174451 
L 760.941983 238.167148 
L 766.040201 237.476059 
L 771.138419 237.438522 
L 776.236638 241.78063 
L 781.334856 244.874844 
L 786.433074 250.105278 
L 791.531293 255.929933 
L 796.629511 263.273794 
L 801.72773 272.064598 
L 806.825948 283.307967 
L 817.022385 308.183179 
L 822.120603 319.890095 
L 827.218821 329.987364 
L 832.31704 337.93998 
L 837.415258 343.36235 
L 842.513476 345.079723 
L 847.611695 346.069565 
L 852.709913 345.671381 
L 857.808132 342.8371 
L 862.90635 340.690739 
L 868.004568 338.828112 
L 873.102787 336.046274 
L 878.201005 331.776066 
L 883.299223 325.885728 
L 888.397442 317.663304 
L 893.49566 307.261504 
L 898.593878 295.343723 
L 908.790315 270.892973 
L 913.888534 259.587537 
L 918.986752 250.534211 
L 924.08497 243.63917 
L 929.183189 239.176054 
L 934.281407 236.504348 
L 939.379625 238.853384 
L 944.477844 237.879505 
L 949.576062 237.466075 
L 954.67428 241.246287 
L 959.772499 243.742599 
L 964.870717 245.942937 
L 969.968936 249.486094 
L 975.067154 254.811146 
L 980.165372 261.908985 
L 985.263591 270.719726 
L 990.361809 280.597854 
L 995.460027 291.188921 
L 1005.656464 314.083865 
L 1010.754683 323.980779 
L 1015.852901 331.838619 
L 1020.951119 337.64779 
L 1026.049338 340.912995 
L 1031.147556 339.886942 
L 1036.245774 340.549603 
L 1041.343993 340.215914 
L 1046.442211 338.366096 
L 1051.540429 335.770483 
L 1056.638648 333.767239 
L 1061.736866 330.473436 
L 1066.835085 325.806763 
L 1071.933303 319.106843 
L 1077.031521 310.208317 
L 1082.12974 299.342492 
L 1092.326176 275.460665 
L 1097.424395 264.308034 
L 1102.522613 254.632836 
L 1107.620831 247.369978 
L 1112.71905 242.1742 
L 1117.817268 238.751037 
L 1122.915487 240.170129 
L 1133.111923 238.865951 
L 1138.210142 242.203193 
L 1143.30836 244.543881 
L 1148.406578 246.720746 
L 1153.504797 251.370108 
L 1158.603015 257.497481 
L 1163.701233 264.722185 
L 1168.799452 273.215861 
L 1173.89767 283.448976 
L 1189.192325 316.396415 
L 1194.290544 325.904859 
L 1199.388762 333.534989 
L 1204.48698 338.91799 
L 1209.585199 339.989275 
L 1219.781635 340.996541 
L 1224.879854 340.456583 
L 1229.978072 338.403946 
L 1240.174509 333.496954 
L 1245.272727 329.75426 
L 1245.272727 329.75426 
" style="fill:none;stroke:#000000;stroke-linecap:square;stroke-width:4;"/>
   </g>
   <g id="line2d_29">
    <path clip-path="url(#p10dbed1df0)" d="M 230.727273 238.931849 
L 235.825491 240.644726 
L 240.923709 243.377672 
L 246.021928 247.567958 
L 251.120146 253.416162 
L 256.218365 260.987866 
L 261.316583 270.201638 
L 266.414801 280.763573 
L 276.611238 303.3185 
L 281.709456 313.675469 
L 286.807675 322.691759 
L 291.905893 329.688838 
L 297.004111 335.090837 
L 302.10233 338.58558 
L 307.200548 340.823761 
L 312.298767 341.940665 
L 317.396985 342.166018 
L 322.495203 341.36069 
L 327.593422 339.402146 
L 332.69164 336.318477 
L 337.789858 331.985884 
L 342.888077 325.827682 
L 347.986295 318.009181 
L 353.084513 308.884165 
L 358.182732 298.948228 
L 368.379169 277.228899 
L 373.477387 267.064551 
L 378.575605 258.777638 
L 383.673824 252.036414 
L 388.772042 247.076874 
L 393.87026 243.942138 
L 398.968479 242.083499 
L 404.066697 241.324703 
L 409.164915 241.384571 
L 414.263134 242.432288 
L 419.361352 244.710355 
L 424.459571 248.082164 
L 429.557789 253.185262 
L 434.656007 260.442693 
L 439.754226 269.75369 
L 444.852444 280.411279 
L 449.950662 292.155518 
L 455.048881 303.52582 
L 460.147099 313.975535 
L 465.245317 323.209893 
L 470.343536 330.407098 
L 475.441754 335.599228 
L 480.539973 338.968518 
L 485.638191 340.821867 
L 490.736409 341.720399 
L 495.834628 341.59163 
L 500.932846 340.436542 
L 506.031064 338.182931 
L 511.129283 334.328191 
L 516.227501 328.841582 
L 521.32572 321.26343 
L 526.423938 311.944552 
L 531.522156 301.387986 
L 541.718593 278.230001 
L 546.816811 267.841526 
L 551.91503 258.988379 
L 557.013248 251.754647 
L 562.111466 246.499137 
L 567.209685 243.025893 
L 572.307903 240.907878 
L 577.406122 239.995875 
L 582.50434 239.958933 
L 587.602558 240.913708 
L 592.700777 242.724342 
L 597.798995 245.606543 
L 602.897213 250.190058 
L 607.995432 256.544131 
L 613.09365 264.569126 
L 618.191868 274.649681 
L 623.290087 285.843481 
L 628.388305 297.693694 
L 633.486524 309.254272 
L 638.584742 319.781357 
L 643.68296 328.460627 
L 648.781179 335.146902 
L 653.879397 339.733632 
L 658.977615 342.585246 
L 664.075834 344.349289 
L 669.174052 345.163266 
L 674.27227 345.388182 
L 679.370489 344.980567 
L 684.468707 343.82625 
L 689.566926 341.467024 
L 694.665144 337.847072 
L 699.763362 332.385321 
L 704.861581 324.875193 
L 709.959799 315.188772 
L 715.058017 303.532888 
L 725.254454 279.030073 
L 730.352672 267.442192 
L 735.450891 257.758356 
L 740.549109 250.138216 
L 745.647328 244.69964 
L 750.745546 241.269081 
L 755.843764 239.165414 
L 760.941983 238.201771 
L 766.040201 238.024234 
L 771.138419 238.393389 
L 776.236638 239.703689 
L 781.334856 242.198989 
L 786.433074 246.480425 
L 791.531293 252.572306 
L 796.629511 260.583566 
L 801.72773 270.981869 
L 806.825948 283.159383 
L 817.022385 308.088193 
L 822.120603 319.346586 
L 827.218821 328.838981 
L 832.31704 336.068048 
L 837.415258 340.865322 
L 842.513476 343.71748 
L 847.611695 345.192686 
L 852.709913 345.703713 
L 857.808132 345.484955 
L 862.90635 344.663253 
L 868.004568 342.941783 
L 873.102787 339.981872 
L 878.201005 335.537102 
L 883.299223 328.873555 
L 888.397442 319.833042 
L 893.49566 308.817924 
L 898.593878 296.812162 
L 908.790315 272.247726 
L 913.888534 261.821123 
L 918.986752 253.255028 
L 924.08497 247.064372 
L 929.183189 242.770078 
L 934.281407 240.198745 
L 939.379625 238.853031 
L 944.477844 238.367059 
L 949.576062 238.489058 
L 954.67428 239.218117 
L 959.772499 240.71052 
L 964.870717 243.162252 
L 969.968936 246.867193 
L 975.067154 252.147274 
L 980.165372 259.509293 
L 985.263591 268.879175 
L 990.361809 279.456102 
L 995.460027 290.574726 
L 1000.558246 302.165125 
L 1005.656464 313.013225 
L 1010.754683 322.148938 
L 1015.852901 329.305513 
L 1020.951119 334.777574 
L 1026.049338 338.417814 
L 1031.147556 340.73364 
L 1036.245774 342.13597 
L 1041.343993 342.734784 
L 1046.442211 342.379085 
L 1051.540429 341.107499 
L 1056.638648 338.783044 
L 1061.736866 335.26024 
L 1066.835085 329.896913 
L 1071.933303 322.316525 
L 1077.031521 312.495508 
L 1082.12974 301.129775 
L 1092.326176 277.329807 
L 1097.424395 266.511354 
L 1102.522613 257.788888 
L 1107.620831 251.058504 
L 1112.71905 246.137599 
L 1117.817268 242.873895 
L 1122.915487 241.007176 
L 1128.013705 240.203593 
L 1133.111923 240.158943 
L 1138.210142 240.788176 
L 1143.30836 242.310608 
L 1148.406578 245.072272 
L 1153.504797 249.168582 
L 1158.603015 255.174354 
L 1163.701233 262.787406 
L 1168.799452 271.964679 
L 1173.89767 282.732864 
L 1184.094107 305.019776 
L 1189.192325 315.190618 
L 1194.290544 324.113294 
L 1199.388762 330.987921 
L 1204.48698 335.783924 
L 1209.585199 339.13314 
L 1214.683417 341.291865 
L 1219.781635 342.541582 
L 1224.879854 343.047897 
L 1229.978072 342.531613 
L 1235.076291 340.972612 
L 1240.174509 338.286373 
L 1245.272727 334.375881 
L 1245.272727 334.375881 
" style="fill:none;stroke:#ff0000;stroke-linecap:square;stroke-width:1.5;"/>
   </g>
   <g id="patch_9">
    <path d="M 180 351.547826 
L 180 231.026087 
" style="fill:none;stroke:#000000;stroke-linecap:square;stroke-linejoin:miter;stroke-width:0.8;"/>
   </g>
   <g id="patch_10">
    <path d="M 1296 351.547826 
L 1296 231.026087 
" style="fill:none;stroke:#000000;stroke-linecap:square;stroke-linejoin:miter;stroke-width:0.8;"/>
   </g>
   <g id="patch_11">
    <path d="M 180 351.547826 
L 1296 351.547826 
" style="fill:none;stroke:#000000;stroke-linecap:square;stroke-linejoin:miter;stroke-width:0.8;"/>
   </g>
   <g id="patch_12">
    <path d="M 180 231.026087 
L 1296 231.026087 
" style="fill:none;stroke:#000000;stroke-linecap:square;stroke-linejoin:miter;stroke-width:0.8;"/>
   </g>
   <g id="legend_2">
    <g id="patch_13">
     <path d="M 1234.3125 268.382337 
L 1289 268.382337 
Q 1291 268.382337 1291 266.382337 
L 1291 238.026087 
Q 1291 236.026087 1289 236.026087 
L 1234.3125 236.026087 
Q 1232.3125 236.026087 1232.3125 238.026087 
L 1232.3125 266.382337 
Q 1232.3125 268.382337 1234.3125 268.382337 
z
" style="fill:#ffffff;opacity:0.8;stroke:#cccccc;stroke-linejoin:miter;"/>
    </g>
    <g id="line2d_30">
     <path d="M 1236.3125 244.124524 
L 1256.3125 244.124524 
" style="fill:none;stroke:#000000;stroke-linecap:square;stroke-width:4;"/>
    </g>
    <g id="line2d_31"/>
    <g id="text_26">
     <!-- Pred -->
     <g transform="translate(1264.3125 247.624524)scale(0.1 -0.1)">
      <use xlink:href="#DejaVuSans-80"/>
      <use x="60.287109" xlink:href="#DejaVuSans-114"/>
      <use x="101.369141" xlink:href="#DejaVuSans-101"/>
      <use x="162.892578" xlink:href="#DejaVuSans-100"/>
     </g>
    </g>
    <g id="line2d_32">
     <path d="M 1236.3125 258.802649 
L 1256.3125 258.802649 
" style="fill:none;stroke:#ff0000;stroke-linecap:square;stroke-width:1.5;"/>
    </g>
    <g id="line2d_33"/>
    <g id="text_27">
     <!-- True -->
     <g transform="translate(1264.3125 262.302649)scale(0.1 -0.1)">
      <use xlink:href="#DejaVuSans-84"/>
      <use x="60.865234" xlink:href="#DejaVuSans-114"/>
      <use x="101.978516" xlink:href="#DejaVuSans-117"/>
      <use x="165.357422" xlink:href="#DejaVuSans-101"/>
     </g>
    </g>
   </g>
  </g>
  <g id="axes_3">
   <g id="patch_14">
    <path d="M 180 496.173913 
L 1296 496.173913 
L 1296 375.652174 
L 180 375.652174 
z
" style="fill:#ffffff;"/>
   </g>
   <g id="matplotlib.axis_5">
    <g id="xtick_13">
     <g id="line2d_34">
      <g>
       <use style="stroke:#000000;stroke-width:0.8;" x="230.727273" xlink:href="#m20922e2b32" y="496.173913"/>
      </g>
     </g>
     <g id="text_28">
      <!-- 0 -->
      <g transform="translate(227.546023 510.772351)scale(0.1 -0.1)">
       <use xlink:href="#DejaVuSans-48"/>
      </g>
     </g>
    </g>
    <g id="xtick_14">
     <g id="line2d_35">
      <g>
       <use style="stroke:#000000;stroke-width:0.8;" x="434.656007" xlink:href="#m20922e2b32" y="496.173913"/>
      </g>
     </g>
     <g id="text_29">
      <!-- 2 -->
      <g transform="translate(431.474757 510.772351)scale(0.1 -0.1)">
       <use xlink:href="#DejaVuSans-50"/>
      </g>
     </g>
    </g>
    <g id="xtick_15">
     <g id="line2d_36">
      <g>
       <use style="stroke:#000000;stroke-width:0.8;" x="638.584742" xlink:href="#m20922e2b32" y="496.173913"/>
      </g>
     </g>
     <g id="text_30">
      <!-- 4 -->
      <g transform="translate(635.403492 510.772351)scale(0.1 -0.1)">
       <use xlink:href="#DejaVuSans-52"/>
      </g>
     </g>
    </g>
    <g id="xtick_16">
     <g id="line2d_37">
      <g>
       <use style="stroke:#000000;stroke-width:0.8;" x="842.513476" xlink:href="#m20922e2b32" y="496.173913"/>
      </g>
     </g>
     <g id="text_31">
      <!-- 6 -->
      <g transform="translate(839.332226 510.772351)scale(0.1 -0.1)">
       <use xlink:href="#DejaVuSans-54"/>
      </g>
     </g>
    </g>
    <g id="xtick_17">
     <g id="line2d_38">
      <g>
       <use style="stroke:#000000;stroke-width:0.8;" x="1046.442211" xlink:href="#m20922e2b32" y="496.173913"/>
      </g>
     </g>
     <g id="text_32">
      <!-- 8 -->
      <g transform="translate(1043.260961 510.772351)scale(0.1 -0.1)">
       <use xlink:href="#DejaVuSans-56"/>
      </g>
     </g>
    </g>
    <g id="xtick_18">
     <g id="line2d_39">
      <g>
       <use style="stroke:#000000;stroke-width:0.8;" x="1250.370946" xlink:href="#m20922e2b32" y="496.173913"/>
      </g>
     </g>
     <g id="text_33">
      <!-- 10 -->
      <g transform="translate(1244.008446 510.772351)scale(0.1 -0.1)">
       <use xlink:href="#DejaVuSans-49"/>
       <use x="63.623047" xlink:href="#DejaVuSans-48"/>
      </g>
     </g>
    </g>
   </g>
   <g id="matplotlib.axis_6">
    <g id="ytick_10">
     <g id="line2d_40">
      <g>
       <use style="stroke:#000000;stroke-width:0.8;" x="180" xlink:href="#m968a61ef5d" y="485.74702"/>
      </g>
     </g>
     <g id="text_34">
      <!-- −4 -->
      <g transform="translate(158.257812 489.546238)scale(0.1 -0.1)">
       <use xlink:href="#DejaVuSans-8722"/>
       <use x="83.789062" xlink:href="#DejaVuSans-52"/>
      </g>
     </g>
    </g>
    <g id="ytick_11">
     <g id="line2d_41">
      <g>
       <use style="stroke:#000000;stroke-width:0.8;" x="180" xlink:href="#m968a61ef5d" y="460.914084"/>
      </g>
     </g>
     <g id="text_35">
      <!-- −2 -->
      <g transform="translate(158.257812 464.713303)scale(0.1 -0.1)">
       <use xlink:href="#DejaVuSans-8722"/>
       <use x="83.789062" xlink:href="#DejaVuSans-50"/>
      </g>
     </g>
    </g>
    <g id="ytick_12">
     <g id="line2d_42">
      <g>
       <use style="stroke:#000000;stroke-width:0.8;" x="180" xlink:href="#m968a61ef5d" y="436.081149"/>
      </g>
     </g>
     <g id="text_36">
      <!-- 0 -->
      <g transform="translate(166.6375 439.880368)scale(0.1 -0.1)">
       <use xlink:href="#DejaVuSans-48"/>
      </g>
     </g>
    </g>
    <g id="ytick_13">
     <g id="line2d_43">
      <g>
       <use style="stroke:#000000;stroke-width:0.8;" x="180" xlink:href="#m968a61ef5d" y="411.248213"/>
      </g>
     </g>
     <g id="text_37">
      <!-- 2 -->
      <g transform="translate(166.6375 415.047432)scale(0.1 -0.1)">
       <use xlink:href="#DejaVuSans-50"/>
      </g>
     </g>
    </g>
    <g id="ytick_14">
     <g id="line2d_44">
      <g>
       <use style="stroke:#000000;stroke-width:0.8;" x="180" xlink:href="#m968a61ef5d" y="386.415278"/>
      </g>
     </g>
     <g id="text_38">
      <!-- 4 -->
      <g transform="translate(166.6375 390.214497)scale(0.1 -0.1)">
       <use xlink:href="#DejaVuSans-52"/>
      </g>
     </g>
    </g>
    <g id="text_39">
     <!-- TD State:2 -->
     <g transform="translate(152.178125 462.506793)rotate(-90)scale(0.1 -0.1)">
      <use xlink:href="#DejaVuSans-84"/>
      <use x="61.083984" xlink:href="#DejaVuSans-68"/>
      <use x="138.085938" xlink:href="#DejaVuSans-32"/>
      <use x="169.873047" xlink:href="#DejaVuSans-83"/>
      <use x="233.349609" xlink:href="#DejaVuSans-116"/>
      <use x="272.558594" xlink:href="#DejaVuSans-97"/>
      <use x="333.837891" xlink:href="#DejaVuSans-116"/>
      <use x="373.046875" xlink:href="#DejaVuSans-101"/>
      <use x="434.570312" xlink:href="#DejaVuSans-58"/>
      <use x="468.261719" xlink:href="#DejaVuSans-50"/>
     </g>
    </g>
   </g>
   <g id="line2d_45">
    <path clip-path="url(#p2a47964d55)" d="M 230.727273 426.73109 
L 235.825491 418.298597 
L 240.923709 411.836779 
L 246.021928 404.866366 
L 251.120146 399.145412 
L 256.218365 394.5659 
L 261.316583 390.851525 
L 266.414801 388.020924 
L 271.51302 386.690954 
L 276.611238 386.637494 
L 281.709456 388.832027 
L 286.807675 391.668383 
L 291.905893 397.731704 
L 297.004111 402.401509 
L 302.10233 411.11743 
L 307.200548 418.115591 
L 312.298767 426.244238 
L 317.396985 434.058444 
L 322.495203 443.411519 
L 327.593422 452.474663 
L 332.69164 459.009223 
L 337.789858 464.411568 
L 342.888077 471.53213 
L 347.986295 476.291105 
L 353.084513 479.10803 
L 358.182732 480.393181 
L 363.28095 483.078167 
L 368.379169 484.235701 
L 373.477387 483.166518 
L 378.575605 477.855165 
L 383.673824 474.074829 
L 388.772042 468.052713 
L 393.87026 459.246345 
L 398.968479 451.672706 
L 404.066697 442.992887 
L 409.164915 435.629086 
L 414.263134 426.386435 
L 419.361352 417.658795 
L 424.459571 411.89504 
L 434.656007 396.03578 
L 439.754226 390.138835 
L 444.852444 387.475903 
L 449.950662 384.630219 
L 455.048881 386.214113 
L 465.245317 390.388716 
L 470.343536 396.203168 
L 475.441754 403.188378 
L 480.539973 411.618851 
L 485.638191 421.009311 
L 490.736409 428.258514 
L 500.932846 446.106525 
L 506.031064 453.938329 
L 511.129283 463.026534 
L 516.227501 469.590106 
L 521.32572 476.835993 
L 526.423938 481.250767 
L 531.522156 483.75346 
L 536.620375 486.770608 
L 541.718593 486.801479 
L 546.816811 483.943293 
L 557.013248 476.89832 
L 562.111466 470.409152 
L 572.307903 454.921128 
L 577.406122 445.129537 
L 582.50434 436.536169 
L 587.602558 426.351205 
L 592.700777 420.344677 
L 597.798995 413.445502 
L 602.897213 404.855161 
L 607.995432 398.618307 
L 613.09365 394.2671 
L 618.191868 388.369007 
L 623.290087 386.239281 
L 628.388305 384.406241 
L 633.486524 384.580782 
L 638.584742 385.965328 
L 643.68296 390.000973 
L 648.781179 394.949231 
L 653.879397 402.465887 
L 658.977615 411.042409 
L 664.075834 417.758462 
L 669.174052 426.430223 
L 674.27227 433.366066 
L 684.468707 449.290189 
L 689.566926 459.050068 
L 694.665144 465.367638 
L 699.763362 472.921712 
L 704.861581 479.144445 
L 709.959799 484.79029 
L 715.058017 489.524917 
L 720.156236 489.943038 
L 725.254454 489.59102 
L 730.352672 489.407481 
L 735.450891 485.125087 
L 740.549109 480.347935 
L 745.647328 473.623973 
L 750.745546 464.700086 
L 755.843764 457.337325 
L 760.941983 447.395463 
L 766.040201 438.370418 
L 771.138419 431.523333 
L 776.236638 421.679934 
L 781.334856 412.292135 
L 786.433074 402.544104 
L 791.531293 396.570188 
L 796.629511 391.684689 
L 801.72773 385.203431 
L 806.825948 381.190136 
L 811.924166 381.450336 
L 817.022385 381.140728 
L 822.120603 382.821069 
L 827.218821 385.670699 
L 832.31704 390.82702 
L 837.415258 399.327788 
L 842.513476 408.970999 
L 847.611695 419.071051 
L 852.709913 429.431211 
L 857.808132 439.053888 
L 862.90635 445.900848 
L 868.004568 454.608107 
L 873.102787 462.611814 
L 878.201005 469.073469 
L 883.299223 477.463758 
L 888.397442 484.23997 
L 893.49566 488.433921 
L 898.593878 489.440399 
L 908.790315 490.645053 
L 913.888534 486.452309 
L 918.986752 482.663521 
L 924.08497 475.406788 
L 929.183189 468.68956 
L 939.379625 450.552285 
L 944.477844 441.875521 
L 949.576062 434.709791 
L 954.67428 426.800414 
L 959.772499 421.002446 
L 969.968936 407.952653 
L 975.067154 401.826301 
L 980.165372 394.734022 
L 985.263591 389.390349 
L 990.361809 387.585035 
L 995.460027 387.255812 
L 1000.558246 385.375739 
L 1005.656464 386.84 
L 1010.754683 391.35967 
L 1015.852901 397.156106 
L 1020.951119 402.265293 
L 1026.049338 410.319088 
L 1031.147556 417.599614 
L 1036.245774 423.730717 
L 1041.343993 430.482914 
L 1046.442211 439.524726 
L 1051.540429 447.645106 
L 1056.638648 455.110213 
L 1061.736866 461.427113 
L 1066.835085 469.654164 
L 1071.933303 477.555705 
L 1077.031521 484.059616 
L 1082.12974 487.455134 
L 1087.227958 488.57758 
L 1092.326176 487.912527 
L 1097.424395 486.29691 
L 1112.71905 468.722295 
L 1117.817268 461.269299 
L 1128.013705 443.982019 
L 1133.111923 436.628743 
L 1138.210142 428.663828 
L 1143.30836 422.411493 
L 1148.406578 413.791378 
L 1153.504797 407.431519 
L 1158.603015 399.713088 
L 1163.701233 395.507799 
L 1168.799452 391.806068 
L 1173.89767 387.549079 
L 1178.995889 387.288284 
L 1184.094107 387.159229 
L 1194.290544 391.412976 
L 1199.388762 397.485003 
L 1204.48698 405.389839 
L 1209.585199 411.673183 
L 1214.683417 418.299914 
L 1224.879854 431.238888 
L 1229.978072 441.135518 
L 1235.076291 450.265153 
L 1240.174509 457.728801 
L 1245.272727 463.523047 
L 1245.272727 463.523047 
" style="fill:none;stroke:#000000;stroke-linecap:square;stroke-width:4;"/>
   </g>
   <g id="line2d_46">
    <path clip-path="url(#p2a47964d55)" d="M 230.727273 427.49098 
L 235.825491 418.247577 
L 240.923709 411.960717 
L 246.021928 404.984973 
L 251.120146 399.258558 
L 256.218365 394.669678 
L 261.316583 390.941281 
L 266.414801 388.092317 
L 271.51302 386.740934 
L 276.611238 386.663035 
L 281.709456 388.83351 
L 286.807675 391.668616 
L 291.905893 397.735803 
L 297.004111 402.412108 
L 302.10233 411.120838 
L 307.200548 417.992769 
L 312.298767 426.165487 
L 317.396985 433.990092 
L 322.495203 443.408873 
L 327.593422 452.483938 
L 332.69164 459.001122 
L 337.789858 464.401391 
L 342.888077 471.548327 
L 347.986295 476.299502 
L 353.084513 479.115255 
L 358.182732 480.404518 
L 363.28095 483.121097 
L 368.379169 484.283842 
L 373.477387 483.212769 
L 378.575605 477.878508 
L 383.673824 474.124278 
L 388.772042 468.090201 
L 393.87026 459.263862 
L 398.968479 451.51851 
L 404.066697 442.884862 
L 409.164915 435.531845 
L 414.263134 426.8065 
L 419.361352 417.696877 
L 424.459571 411.99221 
L 434.656007 396.135123 
L 439.754226 390.226516 
L 444.852444 387.548504 
L 449.950662 384.678722 
L 455.048881 386.241762 
L 465.245317 390.389484 
L 470.343536 396.207372 
L 475.441754 403.19748 
L 480.539973 411.605145 
L 485.638191 420.963598 
L 490.736409 428.161828 
L 500.932846 446.104759 
L 506.031064 453.938936 
L 511.129283 463.045182 
L 516.227501 469.595467 
L 521.32572 476.860719 
L 526.423938 481.266032 
L 531.522156 483.770295 
L 536.620375 486.812463 
L 541.718593 486.836875 
L 546.816811 483.971836 
L 557.013248 476.949729 
L 562.111466 470.44303 
L 572.307903 454.79609 
L 577.406122 445.033162 
L 582.50434 436.458127 
L 587.602558 426.696951 
L 592.700777 419.941428 
L 597.798995 413.468624 
L 602.897213 404.967851 
L 607.995432 398.725913 
L 613.09365 394.365059 
L 618.191868 388.448019 
L 623.290087 386.30186 
L 628.388305 384.443703 
L 633.486524 384.57223 
L 638.584742 385.962748 
L 643.68296 390.003138 
L 648.781179 394.956834 
L 653.879397 402.476918 
L 658.977615 411.02435 
L 664.075834 417.695954 
L 669.174052 426.392049 
L 674.27227 433.2189 
L 684.468707 449.280234 
L 689.566926 459.059913 
L 694.665144 465.353102 
L 699.763362 472.928537 
L 704.861581 479.152343 
L 709.959799 484.809838 
L 715.058017 489.556336 
L 720.156236 489.95752 
L 725.254454 489.620946 
L 730.352672 489.459707 
L 735.450891 485.158011 
L 740.549109 480.390453 
L 745.647328 473.658291 
L 750.745546 464.719952 
L 755.843764 457.202512 
L 760.941983 447.295371 
L 766.040201 438.296453 
L 771.138419 431.5322 
L 776.236638 421.423793 
L 781.334856 412.413384 
L 786.433074 402.660431 
L 791.531293 396.664873 
L 796.629511 391.774237 
L 801.72773 385.201158 
L 806.825948 381.168501 
L 811.924166 381.432175 
L 817.022385 381.130435 
L 822.120603 382.816675 
L 827.218821 385.672498 
L 832.31704 390.833501 
L 837.415258 399.337554 
L 842.513476 408.997299 
L 852.709913 429.409465 
L 857.808132 438.999556 
L 862.90635 446.268248 
L 868.004568 454.60203 
L 873.102787 462.60852 
L 878.201005 469.064584 
L 883.299223 477.484129 
L 888.397442 484.261104 
L 893.49566 488.45098 
L 898.593878 489.450324 
L 908.790315 490.695652 
L 913.888534 486.478639 
L 918.986752 482.70943 
L 924.08497 475.432331 
L 929.183189 468.727317 
L 939.379625 450.423271 
L 944.477844 441.778473 
L 949.576062 434.619667 
L 959.772499 420.798986 
L 969.968936 408.072699 
L 975.067154 401.94017 
L 980.165372 394.836574 
L 985.263591 389.480723 
L 990.361809 387.660786 
L 995.460027 387.310239 
L 1000.558246 385.402054 
L 1005.656464 386.833496 
L 1010.754683 391.357889 
L 1015.852901 397.15998 
L 1020.951119 402.275239 
L 1026.049338 410.307949 
L 1031.147556 417.484986 
L 1036.245774 423.584468 
L 1041.343993 430.366991 
L 1046.442211 439.506203 
L 1051.540429 447.642713 
L 1056.638648 455.105924 
L 1061.736866 461.418966 
L 1066.835085 469.672755 
L 1071.933303 477.58406 
L 1077.031521 484.09201 
L 1082.12974 487.479295 
L 1087.227958 488.602837 
L 1092.326176 487.943052 
L 1097.424395 486.338561 
L 1112.71905 468.761104 
L 1117.817268 461.300455 
L 1128.013705 443.872678 
L 1133.111923 436.528919 
L 1138.210142 429.917739 
L 1143.30836 422.275694 
L 1148.406578 413.909891 
L 1153.504797 407.548313 
L 1158.603015 399.820445 
L 1163.701233 395.608723 
L 1168.799452 391.892132 
L 1173.89767 387.61452 
L 1178.995889 387.335331 
L 1184.094107 387.180224 
L 1189.192325 389.229756 
L 1194.290544 391.414606 
L 1199.388762 397.489832 
L 1204.48698 405.399029 
L 1209.585199 411.58249 
L 1219.781635 424.583502 
L 1224.879854 431.113709 
L 1229.978072 441.144422 
L 1235.076291 450.271591 
L 1240.174509 457.725076 
L 1245.272727 463.5116 
L 1245.272727 463.5116 
" style="fill:none;stroke:#ff0000;stroke-linecap:square;stroke-width:1.5;"/>
   </g>
   <g id="patch_15">
    <path d="M 180 496.173913 
L 180 375.652174 
" style="fill:none;stroke:#000000;stroke-linecap:square;stroke-linejoin:miter;stroke-width:0.8;"/>
   </g>
   <g id="patch_16">
    <path d="M 1296 496.173913 
L 1296 375.652174 
" style="fill:none;stroke:#000000;stroke-linecap:square;stroke-linejoin:miter;stroke-width:0.8;"/>
   </g>
   <g id="patch_17">
    <path d="M 180 496.173913 
L 1296 496.173913 
" style="fill:none;stroke:#000000;stroke-linecap:square;stroke-linejoin:miter;stroke-width:0.8;"/>
   </g>
   <g id="patch_18">
    <path d="M 180 375.652174 
L 1296 375.652174 
" style="fill:none;stroke:#000000;stroke-linecap:square;stroke-linejoin:miter;stroke-width:0.8;"/>
   </g>
   <g id="legend_3">
    <g id="patch_19">
     <path d="M 1234.3125 413.008424 
L 1289 413.008424 
Q 1291 413.008424 1291 411.008424 
L 1291 382.652174 
Q 1291 380.652174 1289 380.652174 
L 1234.3125 380.652174 
Q 1232.3125 380.652174 1232.3125 382.652174 
L 1232.3125 411.008424 
Q 1232.3125 413.008424 1234.3125 413.008424 
z
" style="fill:#ffffff;opacity:0.8;stroke:#cccccc;stroke-linejoin:miter;"/>
    </g>
    <g id="line2d_47">
     <path d="M 1236.3125 388.750611 
L 1256.3125 388.750611 
" style="fill:none;stroke:#000000;stroke-linecap:square;stroke-width:4;"/>
    </g>
    <g id="line2d_48"/>
    <g id="text_40">
     <!-- Pred -->
     <g transform="translate(1264.3125 392.250611)scale(0.1 -0.1)">
      <use xlink:href="#DejaVuSans-80"/>
      <use x="60.287109" xlink:href="#DejaVuSans-114"/>
      <use x="101.369141" xlink:href="#DejaVuSans-101"/>
      <use x="162.892578" xlink:href="#DejaVuSans-100"/>
     </g>
    </g>
    <g id="line2d_49">
     <path d="M 1236.3125 403.428736 
L 1256.3125 403.428736 
" style="fill:none;stroke:#ff0000;stroke-linecap:square;stroke-width:1.5;"/>
    </g>
    <g id="line2d_50"/>
    <g id="text_41">
     <!-- True -->
     <g transform="translate(1264.3125 406.928736)scale(0.1 -0.1)">
      <use xlink:href="#DejaVuSans-84"/>
      <use x="60.865234" xlink:href="#DejaVuSans-114"/>
      <use x="101.978516" xlink:href="#DejaVuSans-117"/>
      <use x="165.357422" xlink:href="#DejaVuSans-101"/>
     </g>
    </g>
   </g>
  </g>
  <g id="axes_4">
   <g id="patch_20">
    <path d="M 180 640.8 
L 1296 640.8 
L 1296 520.278261 
L 180 520.278261 
z
" style="fill:#ffffff;"/>
   </g>
   <g id="matplotlib.axis_7">
    <g id="xtick_19">
     <g id="line2d_51">
      <g>
       <use style="stroke:#000000;stroke-width:0.8;" x="230.727273" xlink:href="#m20922e2b32" y="640.8"/>
      </g>
     </g>
     <g id="text_42">
      <!-- 0 -->
      <g transform="translate(227.546023 655.398438)scale(0.1 -0.1)">
       <use xlink:href="#DejaVuSans-48"/>
      </g>
     </g>
    </g>
    <g id="xtick_20">
     <g id="line2d_52">
      <g>
       <use style="stroke:#000000;stroke-width:0.8;" x="434.656007" xlink:href="#m20922e2b32" y="640.8"/>
      </g>
     </g>
     <g id="text_43">
      <!-- 2 -->
      <g transform="translate(431.474757 655.398438)scale(0.1 -0.1)">
       <use xlink:href="#DejaVuSans-50"/>
      </g>
     </g>
    </g>
    <g id="xtick_21">
     <g id="line2d_53">
      <g>
       <use style="stroke:#000000;stroke-width:0.8;" x="638.584742" xlink:href="#m20922e2b32" y="640.8"/>
      </g>
     </g>
     <g id="text_44">
      <!-- 4 -->
      <g transform="translate(635.403492 655.398438)scale(0.1 -0.1)">
       <use xlink:href="#DejaVuSans-52"/>
      </g>
     </g>
    </g>
    <g id="xtick_22">
     <g id="line2d_54">
      <g>
       <use style="stroke:#000000;stroke-width:0.8;" x="842.513476" xlink:href="#m20922e2b32" y="640.8"/>
      </g>
     </g>
     <g id="text_45">
      <!-- 6 -->
      <g transform="translate(839.332226 655.398438)scale(0.1 -0.1)">
       <use xlink:href="#DejaVuSans-54"/>
      </g>
     </g>
    </g>
    <g id="xtick_23">
     <g id="line2d_55">
      <g>
       <use style="stroke:#000000;stroke-width:0.8;" x="1046.442211" xlink:href="#m20922e2b32" y="640.8"/>
      </g>
     </g>
     <g id="text_46">
      <!-- 8 -->
      <g transform="translate(1043.260961 655.398438)scale(0.1 -0.1)">
       <use xlink:href="#DejaVuSans-56"/>
      </g>
     </g>
    </g>
    <g id="xtick_24">
     <g id="line2d_56">
      <g>
       <use style="stroke:#000000;stroke-width:0.8;" x="1250.370946" xlink:href="#m20922e2b32" y="640.8"/>
      </g>
     </g>
     <g id="text_47">
      <!-- 10 -->
      <g transform="translate(1244.008446 655.398438)scale(0.1 -0.1)">
       <use xlink:href="#DejaVuSans-49"/>
       <use x="63.623047" xlink:href="#DejaVuSans-48"/>
      </g>
     </g>
    </g>
    <g id="text_48">
     <!-- Time -->
     <defs>
      <path d="M 9.421875 54.6875 
L 18.40625 54.6875 
L 18.40625 0 
L 9.421875 0 
z
M 9.421875 75.984375 
L 18.40625 75.984375 
L 18.40625 64.59375 
L 9.421875 64.59375 
z
" id="DejaVuSans-105"/>
      <path d="M 52 44.1875 
Q 55.375 50.25 60.0625 53.125 
Q 64.75 56 71.09375 56 
Q 79.640625 56 84.28125 50.015625 
Q 88.921875 44.046875 88.921875 33.015625 
L 88.921875 0 
L 79.890625 0 
L 79.890625 32.71875 
Q 79.890625 40.578125 77.09375 44.375 
Q 74.3125 48.1875 68.609375 48.1875 
Q 61.625 48.1875 57.5625 43.546875 
Q 53.515625 38.921875 53.515625 30.90625 
L 53.515625 0 
L 44.484375 0 
L 44.484375 32.71875 
Q 44.484375 40.625 41.703125 44.40625 
Q 38.921875 48.1875 33.109375 48.1875 
Q 26.21875 48.1875 22.15625 43.53125 
Q 18.109375 38.875 18.109375 30.90625 
L 18.109375 0 
L 9.078125 0 
L 9.078125 54.6875 
L 18.109375 54.6875 
L 18.109375 46.1875 
Q 21.1875 51.21875 25.484375 53.609375 
Q 29.78125 56 35.6875 56 
Q 41.65625 56 45.828125 52.96875 
Q 50 49.953125 52 44.1875 
z
" id="DejaVuSans-109"/>
     </defs>
     <g transform="translate(725.6125 669.076563)scale(0.1 -0.1)">
      <use xlink:href="#DejaVuSans-84"/>
      <use x="61.037109" xlink:href="#DejaVuSans-105"/>
      <use x="88.820312" xlink:href="#DejaVuSans-109"/>
      <use x="186.232422" xlink:href="#DejaVuSans-101"/>
     </g>
    </g>
   </g>
   <g id="matplotlib.axis_8">
    <g id="ytick_15">
     <g id="line2d_57">
      <g>
       <use style="stroke:#000000;stroke-width:0.8;" x="180" xlink:href="#m968a61ef5d" y="635.334306"/>
      </g>
     </g>
     <g id="text_49">
      <!-- −1.0 -->
      <g transform="translate(148.717187 639.133524)scale(0.1 -0.1)">
       <use xlink:href="#DejaVuSans-8722"/>
       <use x="83.789062" xlink:href="#DejaVuSans-49"/>
       <use x="147.412109" xlink:href="#DejaVuSans-46"/>
       <use x="179.199219" xlink:href="#DejaVuSans-48"/>
      </g>
     </g>
    </g>
    <g id="ytick_16">
     <g id="line2d_58">
      <g>
       <use style="stroke:#000000;stroke-width:0.8;" x="180" xlink:href="#m968a61ef5d" y="607.866324"/>
      </g>
     </g>
     <g id="text_50">
      <!-- −0.5 -->
      <g transform="translate(148.717187 611.665543)scale(0.1 -0.1)">
       <use xlink:href="#DejaVuSans-8722"/>
       <use x="83.789062" xlink:href="#DejaVuSans-48"/>
       <use x="147.412109" xlink:href="#DejaVuSans-46"/>
       <use x="179.199219" xlink:href="#DejaVuSans-53"/>
      </g>
     </g>
    </g>
    <g id="ytick_17">
     <g id="line2d_59">
      <g>
       <use style="stroke:#000000;stroke-width:0.8;" x="180" xlink:href="#m968a61ef5d" y="580.398342"/>
      </g>
     </g>
     <g id="text_51">
      <!-- 0.0 -->
      <g transform="translate(157.096875 584.197561)scale(0.1 -0.1)">
       <use xlink:href="#DejaVuSans-48"/>
       <use x="63.623047" xlink:href="#DejaVuSans-46"/>
       <use x="95.410156" xlink:href="#DejaVuSans-48"/>
      </g>
     </g>
    </g>
    <g id="ytick_18">
     <g id="line2d_60">
      <g>
       <use style="stroke:#000000;stroke-width:0.8;" x="180" xlink:href="#m968a61ef5d" y="552.93036"/>
      </g>
     </g>
     <g id="text_52">
      <!-- 0.5 -->
      <g transform="translate(157.096875 556.729579)scale(0.1 -0.1)">
       <use xlink:href="#DejaVuSans-48"/>
       <use x="63.623047" xlink:href="#DejaVuSans-46"/>
       <use x="95.410156" xlink:href="#DejaVuSans-53"/>
      </g>
     </g>
    </g>
    <g id="ytick_19">
     <g id="line2d_61">
      <g>
       <use style="stroke:#000000;stroke-width:0.8;" x="180" xlink:href="#m968a61ef5d" y="525.462378"/>
      </g>
     </g>
     <g id="text_53">
      <!-- 1.0 -->
      <g transform="translate(157.096875 529.261597)scale(0.1 -0.1)">
       <use xlink:href="#DejaVuSans-49"/>
       <use x="63.623047" xlink:href="#DejaVuSans-46"/>
       <use x="95.410156" xlink:href="#DejaVuSans-48"/>
      </g>
     </g>
    </g>
    <g id="text_54">
     <!-- Control Input -->
     <defs>
      <path d="M 64.40625 67.28125 
L 64.40625 56.890625 
Q 59.421875 61.53125 53.78125 63.8125 
Q 48.140625 66.109375 41.796875 66.109375 
Q 29.296875 66.109375 22.65625 58.46875 
Q 16.015625 50.828125 16.015625 36.375 
Q 16.015625 21.96875 22.65625 14.328125 
Q 29.296875 6.6875 41.796875 6.6875 
Q 48.140625 6.6875 53.78125 8.984375 
Q 59.421875 11.28125 64.40625 15.921875 
L 64.40625 5.609375 
Q 59.234375 2.09375 53.4375 0.328125 
Q 47.65625 -1.421875 41.21875 -1.421875 
Q 24.65625 -1.421875 15.125 8.703125 
Q 5.609375 18.84375 5.609375 36.375 
Q 5.609375 53.953125 15.125 64.078125 
Q 24.65625 74.21875 41.21875 74.21875 
Q 47.75 74.21875 53.53125 72.484375 
Q 59.328125 70.75 64.40625 67.28125 
z
" id="DejaVuSans-67"/>
      <path d="M 30.609375 48.390625 
Q 23.390625 48.390625 19.1875 42.75 
Q 14.984375 37.109375 14.984375 27.296875 
Q 14.984375 17.484375 19.15625 11.84375 
Q 23.34375 6.203125 30.609375 6.203125 
Q 37.796875 6.203125 41.984375 11.859375 
Q 46.1875 17.53125 46.1875 27.296875 
Q 46.1875 37.015625 41.984375 42.703125 
Q 37.796875 48.390625 30.609375 48.390625 
z
M 30.609375 56 
Q 42.328125 56 49.015625 48.375 
Q 55.71875 40.765625 55.71875 27.296875 
Q 55.71875 13.875 49.015625 6.21875 
Q 42.328125 -1.421875 30.609375 -1.421875 
Q 18.84375 -1.421875 12.171875 6.21875 
Q 5.515625 13.875 5.515625 27.296875 
Q 5.515625 40.765625 12.171875 48.375 
Q 18.84375 56 30.609375 56 
z
" id="DejaVuSans-111"/>
      <path d="M 54.890625 33.015625 
L 54.890625 0 
L 45.90625 0 
L 45.90625 32.71875 
Q 45.90625 40.484375 42.875 44.328125 
Q 39.84375 48.1875 33.796875 48.1875 
Q 26.515625 48.1875 22.3125 43.546875 
Q 18.109375 38.921875 18.109375 30.90625 
L 18.109375 0 
L 9.078125 0 
L 9.078125 54.6875 
L 18.109375 54.6875 
L 18.109375 46.1875 
Q 21.34375 51.125 25.703125 53.5625 
Q 30.078125 56 35.796875 56 
Q 45.21875 56 50.046875 50.171875 
Q 54.890625 44.34375 54.890625 33.015625 
z
" id="DejaVuSans-110"/>
      <path d="M 9.421875 75.984375 
L 18.40625 75.984375 
L 18.40625 0 
L 9.421875 0 
z
" id="DejaVuSans-108"/>
      <path d="M 9.8125 72.90625 
L 19.671875 72.90625 
L 19.671875 0 
L 9.8125 0 
z
" id="DejaVuSans-73"/>
      <path d="M 18.109375 8.203125 
L 18.109375 -20.796875 
L 9.078125 -20.796875 
L 9.078125 54.6875 
L 18.109375 54.6875 
L 18.109375 46.390625 
Q 20.953125 51.265625 25.265625 53.625 
Q 29.59375 56 35.59375 56 
Q 45.5625 56 51.78125 48.09375 
Q 58.015625 40.1875 58.015625 27.296875 
Q 58.015625 14.40625 51.78125 6.484375 
Q 45.5625 -1.421875 35.59375 -1.421875 
Q 29.59375 -1.421875 25.265625 0.953125 
Q 20.953125 3.328125 18.109375 8.203125 
z
M 48.6875 27.296875 
Q 48.6875 37.203125 44.609375 42.84375 
Q 40.53125 48.484375 33.40625 48.484375 
Q 26.265625 48.484375 22.1875 42.84375 
Q 18.109375 37.203125 18.109375 27.296875 
Q 18.109375 17.390625 22.1875 11.75 
Q 26.265625 6.109375 33.40625 6.109375 
Q 40.53125 6.109375 44.609375 11.75 
Q 48.6875 17.390625 48.6875 27.296875 
z
" id="DejaVuSans-112"/>
     </defs>
     <g transform="translate(142.6375 613.257099)rotate(-90)scale(0.1 -0.1)">
      <use xlink:href="#DejaVuSans-67"/>
      <use x="69.824219" xlink:href="#DejaVuSans-111"/>
      <use x="131.005859" xlink:href="#DejaVuSans-110"/>
      <use x="194.384766" xlink:href="#DejaVuSans-116"/>
      <use x="233.59375" xlink:href="#DejaVuSans-114"/>
      <use x="274.675781" xlink:href="#DejaVuSans-111"/>
      <use x="335.857422" xlink:href="#DejaVuSans-108"/>
      <use x="363.640625" xlink:href="#DejaVuSans-32"/>
      <use x="395.427734" xlink:href="#DejaVuSans-73"/>
      <use x="424.919922" xlink:href="#DejaVuSans-110"/>
      <use x="488.298828" xlink:href="#DejaVuSans-112"/>
      <use x="551.775391" xlink:href="#DejaVuSans-117"/>
      <use x="615.154297" xlink:href="#DejaVuSans-116"/>
     </g>
    </g>
   </g>
   <g id="line2d_62">
    <path clip-path="url(#p7545c67ec6)" d="M 230.727273 589.515294 
L 235.825491 556.190865 
L 240.923709 635.321739 
L 246.021928 602.116443 
L 251.120146 619.209953 
L 256.218365 625.188886 
L 261.316583 614.869537 
L 266.414801 597.366883 
L 271.51302 591.740699 
L 276.611238 576.133473 
L 281.709456 589.276596 
L 286.807675 560.047918 
L 291.905893 612.870743 
L 297.004111 538.85385 
L 302.10233 632.325178 
L 307.200548 561.668748 
L 312.298767 589.484223 
L 317.396985 573.949977 
L 322.495203 619.909722 
L 327.593422 613.568513 
L 332.69164 547.354956 
L 337.789858 528.94954 
L 342.888077 600.897787 
L 347.986295 559.267485 
L 353.084513 539.04374 
L 358.182732 537.042147 
L 363.28095 625.990334 
L 368.379169 631.043281 
L 373.477387 616.67471 
L 378.575605 538.851096 
L 383.673824 624.52875 
L 388.772042 589.066399 
L 393.87026 530.089137 
L 398.968479 576.754408 
L 404.066697 559.316434 
L 409.164915 600.667995 
L 414.263134 559.907126 
L 419.361352 543.632374 
L 424.459571 633.324937 
L 429.557789 552.914504 
L 434.656007 526.686232 
L 439.754226 553.131903 
L 444.852444 604.521384 
L 449.950662 548.614665 
L 455.048881 623.992665 
L 460.147099 586.123381 
L 465.245317 535.505166 
L 470.343536 603.074353 
L 475.441754 603.715875 
L 480.539973 621.047816 
L 485.638191 633.206421 
L 490.736409 560.749337 
L 495.834628 612.082317 
L 500.932846 606.158182 
L 506.031064 581.324215 
L 511.129283 629.47126 
L 516.227501 572.254898 
L 521.32572 619.212954 
L 526.423938 570.58617 
L 531.522156 558.450506 
L 536.620375 624.090625 
L 541.718593 589.841176 
L 546.816811 559.039222 
L 551.91503 589.827631 
L 557.013248 629.845823 
L 562.111466 576.454335 
L 567.209685 562.401909 
L 572.307903 578.762446 
L 577.406122 531.549859 
L 582.50434 570.888373 
L 587.602558 536.075796 
L 592.700777 620.229695 
L 597.798995 620.031745 
L 602.897213 546.624669 
L 607.995432 591.640785 
L 613.09365 617.166521 
L 618.191868 533.42715 
L 623.290087 597.1246 
L 628.388305 552.841133 
L 633.486524 555.567508 
L 638.584742 538.283763 
L 643.68296 566.810238 
L 648.781179 552.826813 
L 653.879397 597.000172 
L 658.977615 605.676808 
L 664.075834 536.90156 
L 669.174052 588.299102 
L 674.27227 529.32547 
L 679.370489 562.44071 
L 684.468707 567.027399 
L 689.566926 622.726944 
L 694.665144 531.012091 
L 699.763362 585.901592 
L 704.861581 571.785524 
L 715.058017 609.291695 
L 720.156236 536.078256 
L 725.254454 572.303035 
L 730.352672 635.018937 
L 735.450891 567.527404 
L 740.549109 599.445201 
L 745.647328 577.425416 
L 750.745546 537.99414 
L 755.843764 596.080389 
L 760.941983 535.511797 
L 766.040201 566.844528 
L 771.138419 633.595995 
L 776.236638 533.215245 
L 781.334856 559.42413 
L 786.433074 525.756522 
L 791.531293 616.398922 
L 796.629511 620.266937 
L 801.72773 532.868245 
L 806.825948 558.773551 
L 811.924166 628.08274 
L 817.022385 552.330124 
L 822.120603 552.504476 
L 827.218821 533.919821 
L 832.31704 557.157709 
L 837.415258 621.680416 
L 842.513476 633.150037 
L 847.611695 632.454454 
L 852.709913 632.224217 
L 857.808132 608.282621 
L 862.90635 540.841377 
L 868.004568 576.131898 
L 873.102787 574.594689 
L 878.201005 542.818749 
L 883.299223 621.691144 
L 888.397442 604.659857 
L 893.49566 570.975805 
L 898.593878 528.802952 
L 903.692097 573.692834 
L 908.790315 633.285492 
L 913.888534 547.367251 
L 918.986752 609.736973 
L 924.08497 546.656102 
L 929.183189 592.719309 
L 934.281407 540.455298 
L 939.379625 553.246611 
L 944.477844 574.219119 
L 949.576062 620.341707 
L 954.67428 628.751034 
L 959.772499 622.002066 
L 964.870717 630.439305 
L 969.968936 623.523719 
L 975.067154 610.535186 
L 980.165372 556.996832 
L 985.263591 573.837122 
L 990.361809 633.954756 
L 995.460027 627.426353 
L 1000.558246 529.057791 
L 1005.656464 572.916013 
L 1010.754683 612.998086 
L 1015.852901 607.61079 
L 1020.951119 553.608725 
L 1026.049338 613.862092 
L 1036.245774 528.75634 
L 1041.343993 542.291593 
L 1046.442211 608.98177 
L 1051.540429 581.082875 
L 1056.638648 567.218576 
L 1061.736866 544.252576 
L 1066.835085 618.107333 
L 1071.933303 633.293303 
L 1077.031521 627.640838 
L 1082.12974 581.898631 
L 1087.227958 568.715719 
L 1092.326176 572.833502 
L 1097.424395 600.465086 
L 1102.522613 526.713143 
L 1107.620831 571.636581 
L 1112.71905 593.567462 
L 1117.817268 574.800563 
L 1122.915487 553.442975 
L 1128.013705 561.804398 
L 1133.111923 606.227083 
L 1138.210142 628.04597 
L 1143.30836 594.672442 
L 1148.406578 566.146029 
L 1153.504797 612.242082 
L 1158.603015 552.627602 
L 1163.701233 628.023814 
L 1168.799452 606.732984 
L 1173.89767 546.914371 
L 1178.995889 614.081308 
L 1184.094107 565.075506 
L 1189.192325 577.687768 
L 1194.290544 533.723871 
L 1199.388762 606.405382 
L 1204.48698 628.087034 
L 1209.585199 554.571191 
L 1214.683417 550.493617 
L 1219.781635 535.590828 
L 1224.879854 532.936738 
L 1229.978072 633.801419 
L 1235.076291 609.584492 
L 1240.174509 567.567679 
L 1245.272727 531.064053 
L 1245.272727 531.064053 
" style="fill:none;stroke:#ff0000;stroke-linecap:square;stroke-width:1.5;"/>
   </g>
   <g id="patch_21">
    <path d="M 180 640.8 
L 180 520.278261 
" style="fill:none;stroke:#000000;stroke-linecap:square;stroke-linejoin:miter;stroke-width:0.8;"/>
   </g>
   <g id="patch_22">
    <path d="M 1296 640.8 
L 1296 520.278261 
" style="fill:none;stroke:#000000;stroke-linecap:square;stroke-linejoin:miter;stroke-width:0.8;"/>
   </g>
   <g id="patch_23">
    <path d="M 180 640.8 
L 1296 640.8 
" style="fill:none;stroke:#000000;stroke-linecap:square;stroke-linejoin:miter;stroke-width:0.8;"/>
   </g>
   <g id="patch_24">
    <path d="M 180 520.278261 
L 1296 520.278261 
" style="fill:none;stroke:#000000;stroke-linecap:square;stroke-linejoin:miter;stroke-width:0.8;"/>
   </g>
   <g id="legend_4">
    <g id="patch_25">
     <path d="M 1194.742188 542.956386 
L 1289 542.956386 
Q 1291 542.956386 1291 540.956386 
L 1291 527.278261 
Q 1291 525.278261 1289 525.278261 
L 1194.742188 525.278261 
Q 1192.742188 525.278261 1192.742188 527.278261 
L 1192.742188 540.956386 
Q 1192.742188 542.956386 1194.742188 542.956386 
z
" style="fill:#ffffff;opacity:0.8;stroke:#cccccc;stroke-linejoin:miter;"/>
    </g>
    <g id="line2d_63">
     <path d="M 1196.742188 533.376698 
L 1216.742188 533.376698 
" style="fill:none;stroke:#ff0000;stroke-linecap:square;stroke-width:1.5;"/>
    </g>
    <g id="line2d_64"/>
    <g id="text_55">
     <!-- ControlInput -->
     <g transform="translate(1224.742188 536.876698)scale(0.1 -0.1)">
      <use xlink:href="#DejaVuSans-67"/>
      <use x="69.824219" xlink:href="#DejaVuSans-111"/>
      <use x="131.005859" xlink:href="#DejaVuSans-110"/>
      <use x="194.384766" xlink:href="#DejaVuSans-116"/>
      <use x="233.59375" xlink:href="#DejaVuSans-114"/>
      <use x="274.675781" xlink:href="#DejaVuSans-111"/>
      <use x="335.857422" xlink:href="#DejaVuSans-108"/>
      <use x="363.640625" xlink:href="#DejaVuSans-73"/>
      <use x="393.132812" xlink:href="#DejaVuSans-110"/>
      <use x="456.511719" xlink:href="#DejaVuSans-112"/>
      <use x="519.988281" xlink:href="#DejaVuSans-117"/>
      <use x="583.367188" xlink:href="#DejaVuSans-116"/>
     </g>
    </g>
   </g>
  </g>
 </g>
 <defs>
  <clipPath id="p4ef3f170fd">
   <rect height="120.521739" width="1116" x="180" y="86.4"/>
  </clipPath>
  <clipPath id="p10dbed1df0">
   <rect height="120.521739" width="1116" x="180" y="231.026087"/>
  </clipPath>
  <clipPath id="p2a47964d55">
   <rect height="120.521739" width="1116" x="180" y="375.652174"/>
  </clipPath>
  <clipPath id="p7545c67ec6">
   <rect height="120.521739" width="1116" x="180" y="520.278261"/>
  </clipPath>
 </defs>
</svg>
