<?xml version="1.0" encoding="utf-8" standalone="no"?>
<!DOCTYPE svg PUBLIC "-//W3C//DTD SVG 1.1//EN"
  "http://www.w3.org/Graphics/SVG/1.1/DTD/svg11.dtd">
<!-- Created with matplotlib (https://matplotlib.org/) -->
<svg height="720pt" version="1.1" viewBox="0 0 1440 720" width="1440pt" xmlns="http://www.w3.org/2000/svg" xmlns:xlink="http://www.w3.org/1999/xlink">
 <defs>
  <style type="text/css">
*{stroke-linecap:butt;stroke-linejoin:round;}
  </style>
 </defs>
 <g id="figure_1">
  <g id="patch_1">
   <path d="M 0 720 
L 1440 720 
L 1440 0 
L 0 0 
z
" style="fill:#ffffff;"/>
  </g>
  <g id="axes_1">
   <g id="patch_2">
    <path d="M 180 206.921739 
L 1296 206.921739 
L 1296 86.4 
L 180 86.4 
z
" style="fill:#ffffff;"/>
   </g>
   <g id="matplotlib.axis_1">
    <g id="xtick_1">
     <g id="line2d_1">
      <defs>
       <path d="M 0 0 
L 0 3.5 
" id="m9fc17d69cd" style="stroke:#000000;stroke-width:0.8;"/>
      </defs>
      <g>
       <use style="stroke:#000000;stroke-width:0.8;" x="230.727273" xlink:href="#m9fc17d69cd" y="206.921739"/>
      </g>
     </g>
     <g id="text_1">
      <!-- 0 -->
      <defs>
       <path d="M 31.78125 66.40625 
Q 24.171875 66.40625 20.328125 58.90625 
Q 16.5 51.421875 16.5 36.375 
Q 16.5 21.390625 20.328125 13.890625 
Q 24.171875 6.390625 31.78125 6.390625 
Q 39.453125 6.390625 43.28125 13.890625 
Q 47.125 21.390625 47.125 36.375 
Q 47.125 51.421875 43.28125 58.90625 
Q 39.453125 66.40625 31.78125 66.40625 
z
M 31.78125 74.21875 
Q 44.046875 74.21875 50.515625 64.515625 
Q 56.984375 54.828125 56.984375 36.375 
Q 56.984375 17.96875 50.515625 8.265625 
Q 44.046875 -1.421875 31.78125 -1.421875 
Q 19.53125 -1.421875 13.0625 8.265625 
Q 6.59375 17.96875 6.59375 36.375 
Q 6.59375 54.828125 13.0625 64.515625 
Q 19.53125 74.21875 31.78125 74.21875 
z
" id="DejaVuSans-48"/>
      </defs>
      <g transform="translate(227.546023 221.520177)scale(0.1 -0.1)">
       <use xlink:href="#DejaVuSans-48"/>
      </g>
     </g>
    </g>
    <g id="xtick_2">
     <g id="line2d_2">
      <g>
       <use style="stroke:#000000;stroke-width:0.8;" x="434.656007" xlink:href="#m9fc17d69cd" y="206.921739"/>
      </g>
     </g>
     <g id="text_2">
      <!-- 2 -->
      <defs>
       <path d="M 19.1875 8.296875 
L 53.609375 8.296875 
L 53.609375 0 
L 7.328125 0 
L 7.328125 8.296875 
Q 12.9375 14.109375 22.625 23.890625 
Q 32.328125 33.6875 34.8125 36.53125 
Q 39.546875 41.84375 41.421875 45.53125 
Q 43.3125 49.21875 43.3125 52.78125 
Q 43.3125 58.59375 39.234375 62.25 
Q 35.15625 65.921875 28.609375 65.921875 
Q 23.96875 65.921875 18.8125 64.3125 
Q 13.671875 62.703125 7.8125 59.421875 
L 7.8125 69.390625 
Q 13.765625 71.78125 18.9375 73 
Q 24.125 74.21875 28.421875 74.21875 
Q 39.75 74.21875 46.484375 68.546875 
Q 53.21875 62.890625 53.21875 53.421875 
Q 53.21875 48.921875 51.53125 44.890625 
Q 49.859375 40.875 45.40625 35.40625 
Q 44.1875 33.984375 37.640625 27.21875 
Q 31.109375 20.453125 19.1875 8.296875 
z
" id="DejaVuSans-50"/>
      </defs>
      <g transform="translate(431.474757 221.520177)scale(0.1 -0.1)">
       <use xlink:href="#DejaVuSans-50"/>
      </g>
     </g>
    </g>
    <g id="xtick_3">
     <g id="line2d_3">
      <g>
       <use style="stroke:#000000;stroke-width:0.8;" x="638.584742" xlink:href="#m9fc17d69cd" y="206.921739"/>
      </g>
     </g>
     <g id="text_3">
      <!-- 4 -->
      <defs>
       <path d="M 37.796875 64.3125 
L 12.890625 25.390625 
L 37.796875 25.390625 
z
M 35.203125 72.90625 
L 47.609375 72.90625 
L 47.609375 25.390625 
L 58.015625 25.390625 
L 58.015625 17.1875 
L 47.609375 17.1875 
L 47.609375 0 
L 37.796875 0 
L 37.796875 17.1875 
L 4.890625 17.1875 
L 4.890625 26.703125 
z
" id="DejaVuSans-52"/>
      </defs>
      <g transform="translate(635.403492 221.520177)scale(0.1 -0.1)">
       <use xlink:href="#DejaVuSans-52"/>
      </g>
     </g>
    </g>
    <g id="xtick_4">
     <g id="line2d_4">
      <g>
       <use style="stroke:#000000;stroke-width:0.8;" x="842.513476" xlink:href="#m9fc17d69cd" y="206.921739"/>
      </g>
     </g>
     <g id="text_4">
      <!-- 6 -->
      <defs>
       <path d="M 33.015625 40.375 
Q 26.375 40.375 22.484375 35.828125 
Q 18.609375 31.296875 18.609375 23.390625 
Q 18.609375 15.53125 22.484375 10.953125 
Q 26.375 6.390625 33.015625 6.390625 
Q 39.65625 6.390625 43.53125 10.953125 
Q 47.40625 15.53125 47.40625 23.390625 
Q 47.40625 31.296875 43.53125 35.828125 
Q 39.65625 40.375 33.015625 40.375 
z
M 52.59375 71.296875 
L 52.59375 62.3125 
Q 48.875 64.0625 45.09375 64.984375 
Q 41.3125 65.921875 37.59375 65.921875 
Q 27.828125 65.921875 22.671875 59.328125 
Q 17.53125 52.734375 16.796875 39.40625 
Q 19.671875 43.65625 24.015625 45.921875 
Q 28.375 48.1875 33.59375 48.1875 
Q 44.578125 48.1875 50.953125 41.515625 
Q 57.328125 34.859375 57.328125 23.390625 
Q 57.328125 12.15625 50.6875 5.359375 
Q 44.046875 -1.421875 33.015625 -1.421875 
Q 20.359375 -1.421875 13.671875 8.265625 
Q 6.984375 17.96875 6.984375 36.375 
Q 6.984375 53.65625 15.1875 63.9375 
Q 23.390625 74.21875 37.203125 74.21875 
Q 40.921875 74.21875 44.703125 73.484375 
Q 48.484375 72.75 52.59375 71.296875 
z
" id="DejaVuSans-54"/>
      </defs>
      <g transform="translate(839.332226 221.520177)scale(0.1 -0.1)">
       <use xlink:href="#DejaVuSans-54"/>
      </g>
     </g>
    </g>
    <g id="xtick_5">
     <g id="line2d_5">
      <g>
       <use style="stroke:#000000;stroke-width:0.8;" x="1046.442211" xlink:href="#m9fc17d69cd" y="206.921739"/>
      </g>
     </g>
     <g id="text_5">
      <!-- 8 -->
      <defs>
       <path d="M 31.78125 34.625 
Q 24.75 34.625 20.71875 30.859375 
Q 16.703125 27.09375 16.703125 20.515625 
Q 16.703125 13.921875 20.71875 10.15625 
Q 24.75 6.390625 31.78125 6.390625 
Q 38.8125 6.390625 42.859375 10.171875 
Q 46.921875 13.96875 46.921875 20.515625 
Q 46.921875 27.09375 42.890625 30.859375 
Q 38.875 34.625 31.78125 34.625 
z
M 21.921875 38.8125 
Q 15.578125 40.375 12.03125 44.71875 
Q 8.5 49.078125 8.5 55.328125 
Q 8.5 64.0625 14.71875 69.140625 
Q 20.953125 74.21875 31.78125 74.21875 
Q 42.671875 74.21875 48.875 69.140625 
Q 55.078125 64.0625 55.078125 55.328125 
Q 55.078125 49.078125 51.53125 44.71875 
Q 48 40.375 41.703125 38.8125 
Q 48.828125 37.15625 52.796875 32.3125 
Q 56.78125 27.484375 56.78125 20.515625 
Q 56.78125 9.90625 50.3125 4.234375 
Q 43.84375 -1.421875 31.78125 -1.421875 
Q 19.734375 -1.421875 13.25 4.234375 
Q 6.78125 9.90625 6.78125 20.515625 
Q 6.78125 27.484375 10.78125 32.3125 
Q 14.796875 37.15625 21.921875 38.8125 
z
M 18.3125 54.390625 
Q 18.3125 48.734375 21.84375 45.5625 
Q 25.390625 42.390625 31.78125 42.390625 
Q 38.140625 42.390625 41.71875 45.5625 
Q 45.3125 48.734375 45.3125 54.390625 
Q 45.3125 60.0625 41.71875 63.234375 
Q 38.140625 66.40625 31.78125 66.40625 
Q 25.390625 66.40625 21.84375 63.234375 
Q 18.3125 60.0625 18.3125 54.390625 
z
" id="DejaVuSans-56"/>
      </defs>
      <g transform="translate(1043.260961 221.520177)scale(0.1 -0.1)">
       <use xlink:href="#DejaVuSans-56"/>
      </g>
     </g>
    </g>
    <g id="xtick_6">
     <g id="line2d_6">
      <g>
       <use style="stroke:#000000;stroke-width:0.8;" x="1250.370946" xlink:href="#m9fc17d69cd" y="206.921739"/>
      </g>
     </g>
     <g id="text_6">
      <!-- 10 -->
      <defs>
       <path d="M 12.40625 8.296875 
L 28.515625 8.296875 
L 28.515625 63.921875 
L 10.984375 60.40625 
L 10.984375 69.390625 
L 28.421875 72.90625 
L 38.28125 72.90625 
L 38.28125 8.296875 
L 54.390625 8.296875 
L 54.390625 0 
L 12.40625 0 
z
" id="DejaVuSans-49"/>
      </defs>
      <g transform="translate(1244.008446 221.520177)scale(0.1 -0.1)">
       <use xlink:href="#DejaVuSans-49"/>
       <use x="63.623047" xlink:href="#DejaVuSans-48"/>
      </g>
     </g>
    </g>
   </g>
   <g id="matplotlib.axis_2">
    <g id="ytick_1">
     <g id="line2d_7">
      <defs>
       <path d="M 0 0 
L -3.5 0 
" id="mf338002fab" style="stroke:#000000;stroke-width:0.8;"/>
      </defs>
      <g>
       <use style="stroke:#000000;stroke-width:0.8;" x="180" xlink:href="#mf338002fab" y="198.578732"/>
      </g>
     </g>
     <g id="text_7">
      <!-- −1.0 -->
      <defs>
       <path d="M 10.59375 35.5 
L 73.1875 35.5 
L 73.1875 27.203125 
L 10.59375 27.203125 
z
" id="DejaVuSans-8722"/>
       <path d="M 10.6875 12.40625 
L 21 12.40625 
L 21 0 
L 10.6875 0 
z
" id="DejaVuSans-46"/>
      </defs>
      <g transform="translate(148.717187 202.377951)scale(0.1 -0.1)">
       <use xlink:href="#DejaVuSans-8722"/>
       <use x="83.789062" xlink:href="#DejaVuSans-49"/>
       <use x="147.412109" xlink:href="#DejaVuSans-46"/>
       <use x="179.199219" xlink:href="#DejaVuSans-48"/>
      </g>
     </g>
    </g>
    <g id="ytick_2">
     <g id="line2d_8">
      <g>
       <use style="stroke:#000000;stroke-width:0.8;" x="180" xlink:href="#mf338002fab" y="168.125939"/>
      </g>
     </g>
     <g id="text_8">
      <!-- −0.8 -->
      <g transform="translate(148.717187 171.925157)scale(0.1 -0.1)">
       <use xlink:href="#DejaVuSans-8722"/>
       <use x="83.789062" xlink:href="#DejaVuSans-48"/>
       <use x="147.412109" xlink:href="#DejaVuSans-46"/>
       <use x="179.199219" xlink:href="#DejaVuSans-56"/>
      </g>
     </g>
    </g>
    <g id="ytick_3">
     <g id="line2d_9">
      <g>
       <use style="stroke:#000000;stroke-width:0.8;" x="180" xlink:href="#mf338002fab" y="137.673145"/>
      </g>
     </g>
     <g id="text_9">
      <!-- −0.6 -->
      <g transform="translate(148.717187 141.472364)scale(0.1 -0.1)">
       <use xlink:href="#DejaVuSans-8722"/>
       <use x="83.789062" xlink:href="#DejaVuSans-48"/>
       <use x="147.412109" xlink:href="#DejaVuSans-46"/>
       <use x="179.199219" xlink:href="#DejaVuSans-54"/>
      </g>
     </g>
    </g>
    <g id="ytick_4">
     <g id="line2d_10">
      <g>
       <use style="stroke:#000000;stroke-width:0.8;" x="180" xlink:href="#mf338002fab" y="107.220352"/>
      </g>
     </g>
     <g id="text_10">
      <!-- −0.4 -->
      <g transform="translate(148.717187 111.019571)scale(0.1 -0.1)">
       <use xlink:href="#DejaVuSans-8722"/>
       <use x="83.789062" xlink:href="#DejaVuSans-48"/>
       <use x="147.412109" xlink:href="#DejaVuSans-46"/>
       <use x="179.199219" xlink:href="#DejaVuSans-52"/>
      </g>
     </g>
    </g>
    <g id="text_11">
     <!-- TD State:0 -->
     <defs>
      <path d="M -0.296875 72.90625 
L 61.375 72.90625 
L 61.375 64.59375 
L 35.5 64.59375 
L 35.5 0 
L 25.59375 0 
L 25.59375 64.59375 
L -0.296875 64.59375 
z
" id="DejaVuSans-84"/>
      <path d="M 19.671875 64.796875 
L 19.671875 8.109375 
L 31.59375 8.109375 
Q 46.6875 8.109375 53.6875 14.9375 
Q 60.6875 21.78125 60.6875 36.53125 
Q 60.6875 51.171875 53.6875 57.984375 
Q 46.6875 64.796875 31.59375 64.796875 
z
M 9.8125 72.90625 
L 30.078125 72.90625 
Q 51.265625 72.90625 61.171875 64.09375 
Q 71.09375 55.28125 71.09375 36.53125 
Q 71.09375 17.671875 61.125 8.828125 
Q 51.171875 0 30.078125 0 
L 9.8125 0 
z
" id="DejaVuSans-68"/>
      <path id="DejaVuSans-32"/>
      <path d="M 53.515625 70.515625 
L 53.515625 60.890625 
Q 47.90625 63.578125 42.921875 64.890625 
Q 37.9375 66.21875 33.296875 66.21875 
Q 25.25 66.21875 20.875 63.09375 
Q 16.5 59.96875 16.5 54.203125 
Q 16.5 49.359375 19.40625 46.890625 
Q 22.3125 44.4375 30.421875 42.921875 
L 36.375 41.703125 
Q 47.40625 39.59375 52.65625 34.296875 
Q 57.90625 29 57.90625 20.125 
Q 57.90625 9.515625 50.796875 4.046875 
Q 43.703125 -1.421875 29.984375 -1.421875 
Q 24.8125 -1.421875 18.96875 -0.25 
Q 13.140625 0.921875 6.890625 3.21875 
L 6.890625 13.375 
Q 12.890625 10.015625 18.65625 8.296875 
Q 24.421875 6.59375 29.984375 6.59375 
Q 38.421875 6.59375 43.015625 9.90625 
Q 47.609375 13.234375 47.609375 19.390625 
Q 47.609375 24.75 44.3125 27.78125 
Q 41.015625 30.8125 33.5 32.328125 
L 27.484375 33.5 
Q 16.453125 35.6875 11.515625 40.375 
Q 6.59375 45.0625 6.59375 53.421875 
Q 6.59375 63.09375 13.40625 68.65625 
Q 20.21875 74.21875 32.171875 74.21875 
Q 37.3125 74.21875 42.625 73.28125 
Q 47.953125 72.359375 53.515625 70.515625 
z
" id="DejaVuSans-83"/>
      <path d="M 18.3125 70.21875 
L 18.3125 54.6875 
L 36.8125 54.6875 
L 36.8125 47.703125 
L 18.3125 47.703125 
L 18.3125 18.015625 
Q 18.3125 11.328125 20.140625 9.421875 
Q 21.96875 7.515625 27.59375 7.515625 
L 36.8125 7.515625 
L 36.8125 0 
L 27.59375 0 
Q 17.1875 0 13.234375 3.875 
Q 9.28125 7.765625 9.28125 18.015625 
L 9.28125 47.703125 
L 2.6875 47.703125 
L 2.6875 54.6875 
L 9.28125 54.6875 
L 9.28125 70.21875 
z
" id="DejaVuSans-116"/>
      <path d="M 34.28125 27.484375 
Q 23.390625 27.484375 19.1875 25 
Q 14.984375 22.515625 14.984375 16.5 
Q 14.984375 11.71875 18.140625 8.90625 
Q 21.296875 6.109375 26.703125 6.109375 
Q 34.1875 6.109375 38.703125 11.40625 
Q 43.21875 16.703125 43.21875 25.484375 
L 43.21875 27.484375 
z
M 52.203125 31.203125 
L 52.203125 0 
L 43.21875 0 
L 43.21875 8.296875 
Q 40.140625 3.328125 35.546875 0.953125 
Q 30.953125 -1.421875 24.3125 -1.421875 
Q 15.921875 -1.421875 10.953125 3.296875 
Q 6 8.015625 6 15.921875 
Q 6 25.140625 12.171875 29.828125 
Q 18.359375 34.515625 30.609375 34.515625 
L 43.21875 34.515625 
L 43.21875 35.40625 
Q 43.21875 41.609375 39.140625 45 
Q 35.0625 48.390625 27.6875 48.390625 
Q 23 48.390625 18.546875 47.265625 
Q 14.109375 46.140625 10.015625 43.890625 
L 10.015625 52.203125 
Q 14.9375 54.109375 19.578125 55.046875 
Q 24.21875 56 28.609375 56 
Q 40.484375 56 46.34375 49.84375 
Q 52.203125 43.703125 52.203125 31.203125 
z
" id="DejaVuSans-97"/>
      <path d="M 56.203125 29.59375 
L 56.203125 25.203125 
L 14.890625 25.203125 
Q 15.484375 15.921875 20.484375 11.0625 
Q 25.484375 6.203125 34.421875 6.203125 
Q 39.59375 6.203125 44.453125 7.46875 
Q 49.3125 8.734375 54.109375 11.28125 
L 54.109375 2.78125 
Q 49.265625 0.734375 44.1875 -0.34375 
Q 39.109375 -1.421875 33.890625 -1.421875 
Q 20.796875 -1.421875 13.15625 6.1875 
Q 5.515625 13.8125 5.515625 26.8125 
Q 5.515625 40.234375 12.765625 48.109375 
Q 20.015625 56 32.328125 56 
Q 43.359375 56 49.78125 48.890625 
Q 56.203125 41.796875 56.203125 29.59375 
z
M 47.21875 32.234375 
Q 47.125 39.59375 43.09375 43.984375 
Q 39.0625 48.390625 32.421875 48.390625 
Q 24.90625 48.390625 20.390625 44.140625 
Q 15.875 39.890625 15.1875 32.171875 
z
" id="DejaVuSans-101"/>
      <path d="M 11.71875 12.40625 
L 22.015625 12.40625 
L 22.015625 0 
L 11.71875 0 
z
M 11.71875 51.703125 
L 22.015625 51.703125 
L 22.015625 39.3125 
L 11.71875 39.3125 
z
" id="DejaVuSans-58"/>
     </defs>
     <g transform="translate(142.6375 173.25462)rotate(-90)scale(0.1 -0.1)">
      <use xlink:href="#DejaVuSans-84"/>
      <use x="61.083984" xlink:href="#DejaVuSans-68"/>
      <use x="138.085938" xlink:href="#DejaVuSans-32"/>
      <use x="169.873047" xlink:href="#DejaVuSans-83"/>
      <use x="233.349609" xlink:href="#DejaVuSans-116"/>
      <use x="272.558594" xlink:href="#DejaVuSans-97"/>
      <use x="333.837891" xlink:href="#DejaVuSans-116"/>
      <use x="373.046875" xlink:href="#DejaVuSans-101"/>
      <use x="434.570312" xlink:href="#DejaVuSans-58"/>
      <use x="468.261719" xlink:href="#DejaVuSans-48"/>
     </g>
    </g>
   </g>
   <g id="line2d_11">
    <path clip-path="url(#pa53784f971)" d="M 230.727273 105.552775 
L 235.825491 116.135962 
L 246.021928 143.610816 
L 256.218365 174.11517 
L 261.316583 187.396918 
L 266.414801 197.255481 
L 271.51302 201.056095 
L 276.611238 194.332517 
L 281.709456 182.519248 
L 286.807675 172.139793 
L 291.905893 159.091815 
L 297.004111 144.858138 
L 302.10233 131.797918 
L 307.200548 121.839956 
L 312.298767 115.33367 
L 317.396985 113.471302 
L 322.495203 118.017879 
L 327.593422 127.109633 
L 332.69164 139.515485 
L 337.789858 153.654579 
L 342.888077 169.960117 
L 347.986295 181.681257 
L 353.084513 191.102479 
L 358.182732 196.746288 
L 363.28095 197.731663 
L 368.379169 193.523315 
L 373.477387 183.758983 
L 378.575605 168.734022 
L 383.673824 153.347298 
L 388.772042 140.722115 
L 393.87026 130.295638 
L 398.968479 122.817077 
L 404.066697 119.06515 
L 409.164915 119.793743 
L 414.263134 125.234667 
L 419.361352 135.119531 
L 424.459571 145.755446 
L 429.557789 158.519808 
L 434.656007 173.027538 
L 439.754226 186.870783 
L 444.852444 197.10043 
L 449.950662 201.037813 
L 455.048881 194.084473 
L 460.147099 182.154257 
L 465.245317 171.230043 
L 470.343536 157.357845 
L 475.441754 142.967211 
L 480.539973 130.262963 
L 485.638191 121.290901 
L 490.736409 116.419275 
L 495.834628 116.406973 
L 500.932846 122.427125 
L 506.031064 132.131745 
L 511.129283 146.306775 
L 516.227501 162.634288 
L 521.32572 176.652505 
L 526.423938 187.910336 
L 531.522156 195.513227 
L 536.620375 197.988044 
L 541.718593 194.472911 
L 546.816811 184.833132 
L 551.91503 169.690913 
L 557.013248 152.188269 
L 562.111466 138.558724 
L 567.209685 126.337377 
L 572.307903 116.864993 
L 577.406122 111.653501 
L 582.50434 111.811597 
L 587.602558 117.393057 
L 592.700777 127.047782 
L 597.798995 138.033223 
L 602.897213 151.042906 
L 607.995432 165.765236 
L 613.09365 179.811332 
L 618.191868 192.273009 
L 623.290087 200.346341 
L 628.388305 198.602207 
L 633.486524 188.462659 
L 638.584742 175.456531 
L 643.68296 161.453935 
L 653.879397 127.676015 
L 658.977615 113.241761 
L 664.075834 102.108373 
L 669.174052 95.6797 
L 674.27227 94.735881 
L 679.370489 97.991853 
L 684.468707 105.534591 
L 689.566926 118.651231 
L 694.665144 134.821373 
L 699.763362 153.602844 
L 704.861581 171.532174 
L 709.959799 183.589973 
L 715.058017 193.719879 
L 720.156236 198.07993 
L 725.254454 195.23789 
L 730.352672 185.572787 
L 735.450891 167.56003 
L 740.549109 147.612517 
L 745.647328 132.002213 
L 750.745546 118.1169 
L 755.843764 106.922024 
L 760.941983 100.438847 
L 766.040201 98.901765 
L 771.138419 101.89321 
L 776.236638 110.445695 
L 781.334856 124.535814 
L 786.433074 139.768503 
L 791.531293 156.824877 
L 796.629511 173.416159 
L 801.72773 188.654356 
L 806.825948 199.824237 
L 811.924166 199.561475 
L 817.022385 190.226551 
L 827.218821 160.425057 
L 837.415258 122.743325 
L 842.513476 106.712815 
L 847.611695 95.44526 
L 852.709913 91.878261 
L 857.808132 94.17118 
L 862.90635 100.198012 
L 868.004568 110.929917 
L 873.102787 125.842756 
L 878.201005 143.401308 
L 883.299223 163.714167 
L 888.397442 178.221793 
L 893.49566 189.837017 
L 898.593878 197.059198 
L 903.692097 197.383859 
L 908.790315 190.679694 
L 913.888534 176.360556 
L 918.986752 155.582991 
L 924.08497 139.671533 
L 929.183189 124.863422 
L 934.281407 112.781911 
L 939.379625 104.94775 
L 944.477844 101.394971 
L 949.576062 102.503646 
L 954.67428 107.559324 
L 959.772499 116.64716 
L 969.968936 141.717502 
L 975.067154 156.040105 
L 980.165372 171.401127 
L 985.263591 185.86284 
L 990.361809 196.418987 
L 995.460027 201.443478 
L 1000.558246 195.502014 
L 1005.656464 183.21579 
L 1010.754683 172.76918 
L 1015.852901 159.957467 
L 1020.951119 145.778716 
L 1026.049338 132.584755 
L 1031.147556 122.268712 
L 1036.245774 114.812995 
L 1041.343993 110.695993 
L 1046.442211 112.806621 
L 1051.540429 119.368554 
L 1056.638648 130.000997 
L 1061.736866 143.352867 
L 1066.835085 159.870734 
L 1071.933303 175.234558 
L 1077.031521 186.749207 
L 1082.12974 195.331947 
L 1087.227958 198.044068 
L 1092.326176 194.062451 
L 1097.424395 183.75238 
L 1102.522613 166.830848 
L 1107.620831 150.807167 
L 1112.71905 137.591773 
L 1117.817268 125.806182 
L 1122.915487 117.406991 
L 1128.013705 112.977379 
L 1133.111923 113.082059 
L 1138.210142 116.878794 
L 1143.30836 124.902986 
L 1148.406578 136.106915 
L 1153.504797 148.533201 
L 1163.701233 177.06878 
L 1168.799452 189.278844 
L 1173.89767 198.544641 
L 1178.995889 200.344503 
L 1184.094107 192.723335 
L 1189.192325 181.161973 
L 1194.290544 169.88564 
L 1204.48698 142.228222 
L 1209.585199 129.86085 
L 1214.683417 119.594086 
L 1219.781635 112.451206 
L 1224.879854 108.853492 
L 1229.978072 112.104004 
L 1235.076291 120.15976 
L 1240.174509 132.212135 
L 1245.272727 146.475388 
L 1245.272727 146.475388 
" style="fill:none;stroke:#000000;stroke-linecap:square;stroke-width:4;"/>
   </g>
   <g id="line2d_12">
    <path clip-path="url(#pa53784f971)" d="M 230.727273 104.933408 
L 235.825491 114.865562 
L 240.923709 127.727592 
L 246.021928 143.160453 
L 251.120146 159.456342 
L 256.218365 174.800777 
L 261.316583 187.454062 
L 266.414801 195.798776 
L 271.51302 198.574666 
L 276.611238 195.349738 
L 281.709456 186.761595 
L 286.807675 174.058939 
L 291.905893 159.795168 
L 297.004111 145.031427 
L 302.10233 132.90052 
L 307.200548 123.555841 
L 312.298767 118.256205 
L 317.396985 117.123665 
L 322.495203 121.069884 
L 327.593422 129.66236 
L 332.69164 141.051951 
L 337.789858 154.001296 
L 342.888077 168.227142 
L 347.986295 181.341403 
L 353.084513 191.452996 
L 358.182732 197.320302 
L 363.28095 198.297668 
L 368.379169 193.659724 
L 373.477387 183.771321 
L 378.575605 170.856569 
L 383.673824 156.030513 
L 388.772042 141.549204 
L 393.87026 130.059578 
L 398.968479 121.997666 
L 404.066697 118.349824 
L 409.164915 118.646379 
L 414.263134 123.598936 
L 419.361352 133.090795 
L 424.459571 144.800657 
L 429.557789 158.898675 
L 434.656007 173.86455 
L 439.754226 186.964565 
L 444.852444 195.613665 
L 449.950662 198.572115 
L 455.048881 195.232947 
L 460.147099 186.423786 
L 465.245317 173.151914 
L 470.343536 158.051887 
L 475.441754 143.416628 
L 480.539973 131.404237 
L 485.638191 123.564424 
L 490.736409 119.341427 
L 495.834628 119.966279 
L 500.932846 125.283992 
L 506.031064 134.433663 
L 511.129283 147.371348 
L 521.32572 176.450649 
L 526.423938 188.606747 
L 531.522156 196.335103 
L 536.620375 198.49877 
L 541.718593 194.329648 
L 546.816811 184.739693 
L 551.91503 171.250008 
L 562.111466 139.594492 
L 567.209685 126.225532 
L 572.307903 116.240151 
L 577.406122 111.319863 
L 582.50434 111.110767 
L 587.602558 116.270219 
L 592.700777 124.906181 
L 597.798995 136.439455 
L 602.897213 151.069298 
L 607.995432 166.446188 
L 613.09365 180.397541 
L 618.191868 191.693817 
L 623.290087 197.796455 
L 628.388305 197.715572 
L 633.486524 191.136214 
L 638.584742 178.770978 
L 643.68296 162.642599 
L 648.781179 144.855562 
L 653.879397 128.29483 
L 658.977615 114.953098 
L 664.075834 104.711667 
L 669.174052 99.182007 
L 674.27227 97.532716 
L 679.370489 100.479889 
L 684.468707 107.963516 
L 689.566926 120.564409 
L 694.665144 135.68251 
L 704.861581 170.087306 
L 709.959799 185.002485 
L 715.058017 195.228927 
L 720.156236 198.575204 
L 725.254454 194.828368 
L 730.352672 184.246726 
L 735.450891 168.899453 
L 745.647328 133.049577 
L 750.745546 118.072886 
L 755.843764 106.404969 
L 760.941983 100.02792 
L 766.040201 98.754802 
L 771.138419 101.364423 
L 776.236638 109.642973 
L 781.334856 122.532859 
L 786.433074 139.530069 
L 791.531293 157.388132 
L 796.629511 174.108714 
L 801.72773 188.27863 
L 806.825948 196.896192 
L 811.924166 198.192217 
L 817.022385 192.109315 
L 822.120603 179.421717 
L 827.218821 161.782827 
L 832.31704 141.886295 
L 837.415258 123.36723 
L 842.513476 108.614527 
L 847.611695 98.969596 
L 852.709913 95.112676 
L 857.808132 96.804314 
L 862.90635 102.653042 
L 868.004568 113.036843 
L 873.102787 127.249277 
L 878.201005 143.616406 
L 883.299223 161.703503 
L 888.397442 178.69273 
L 893.49566 191.508913 
L 898.593878 197.948545 
L 903.692097 197.365432 
L 908.790315 189.542025 
L 913.888534 176.187247 
L 918.986752 159.067819 
L 924.08497 141.507595 
L 929.183189 125.108236 
L 934.281407 112.453761 
L 939.379625 104.426904 
L 944.477844 101.182987 
L 949.576062 102.017942 
L 954.67428 106.731173 
L 959.772499 115.212483 
L 964.870717 126.812397 
L 969.968936 140.847346 
L 975.067154 156.314262 
L 980.165372 172.206477 
L 985.263591 185.974544 
L 990.361809 195.080761 
L 995.460027 198.55305 
L 1000.558246 195.960523 
L 1005.656464 187.488224 
L 1010.754683 174.986407 
L 1015.852901 160.701531 
L 1020.951119 146.004239 
L 1026.049338 133.544196 
L 1031.147556 123.962712 
L 1036.245774 117.276013 
L 1041.343993 114.157597 
L 1046.442211 116.031188 
L 1051.540429 122.25565 
L 1056.638648 132.133728 
L 1061.736866 144.498383 
L 1066.835085 159.29626 
L 1071.933303 174.702524 
L 1077.031521 188.03835 
L 1082.12974 196.453021 
L 1087.227958 198.429967 
L 1092.326176 193.72958 
L 1097.424395 183.058535 
L 1102.522613 168.959405 
L 1107.620831 153.459659 
L 1112.71905 138.337027 
L 1117.817268 125.564273 
L 1122.915487 116.750055 
L 1128.013705 112.480563 
L 1133.111923 112.233181 
L 1138.210142 115.619142 
L 1143.30836 123.045387 
L 1148.406578 134.466237 
L 1153.504797 148.118552 
L 1158.603015 163.509704 
L 1163.701233 177.729699 
L 1168.799452 189.267419 
L 1173.89767 196.72127 
L 1178.995889 198.457318 
L 1184.094107 194.32756 
L 1189.192325 185.000255 
L 1194.290544 171.518274 
L 1199.388762 156.597703 
L 1204.48698 142.818569 
L 1209.585199 130.74905 
L 1214.683417 121.394665 
L 1219.781635 115.183208 
L 1224.879854 112.453158 
L 1229.978072 115.235609 
L 1235.076291 122.877438 
L 1240.174509 134.043606 
L 1245.272727 147.22782 
L 1245.272727 147.22782 
" style="fill:none;stroke:#ff0000;stroke-linecap:square;stroke-width:1.5;"/>
   </g>
   <g id="patch_3">
    <path d="M 180 206.921739 
L 180 86.4 
" style="fill:none;stroke:#000000;stroke-linecap:square;stroke-linejoin:miter;stroke-width:0.8;"/>
   </g>
   <g id="patch_4">
    <path d="M 1296 206.921739 
L 1296 86.4 
" style="fill:none;stroke:#000000;stroke-linecap:square;stroke-linejoin:miter;stroke-width:0.8;"/>
   </g>
   <g id="patch_5">
    <path d="M 180 206.921739 
L 1296 206.921739 
" style="fill:none;stroke:#000000;stroke-linecap:square;stroke-linejoin:miter;stroke-width:0.8;"/>
   </g>
   <g id="patch_6">
    <path d="M 180 86.4 
L 1296 86.4 
" style="fill:none;stroke:#000000;stroke-linecap:square;stroke-linejoin:miter;stroke-width:0.8;"/>
   </g>
   <g id="legend_1">
    <g id="patch_7">
     <path d="M 1234.3125 123.75625 
L 1289 123.75625 
Q 1291 123.75625 1291 121.75625 
L 1291 93.4 
Q 1291 91.4 1289 91.4 
L 1234.3125 91.4 
Q 1232.3125 91.4 1232.3125 93.4 
L 1232.3125 121.75625 
Q 1232.3125 123.75625 1234.3125 123.75625 
z
" style="fill:#ffffff;opacity:0.8;stroke:#cccccc;stroke-linejoin:miter;"/>
    </g>
    <g id="line2d_13">
     <path d="M 1236.3125 99.498438 
L 1256.3125 99.498438 
" style="fill:none;stroke:#000000;stroke-linecap:square;stroke-width:4;"/>
    </g>
    <g id="line2d_14"/>
    <g id="text_12">
     <!-- Pred -->
     <defs>
      <path d="M 19.671875 64.796875 
L 19.671875 37.40625 
L 32.078125 37.40625 
Q 38.96875 37.40625 42.71875 40.96875 
Q 46.484375 44.53125 46.484375 51.125 
Q 46.484375 57.671875 42.71875 61.234375 
Q 38.96875 64.796875 32.078125 64.796875 
z
M 9.8125 72.90625 
L 32.078125 72.90625 
Q 44.34375 72.90625 50.609375 67.359375 
Q 56.890625 61.8125 56.890625 51.125 
Q 56.890625 40.328125 50.609375 34.8125 
Q 44.34375 29.296875 32.078125 29.296875 
L 19.671875 29.296875 
L 19.671875 0 
L 9.8125 0 
z
" id="DejaVuSans-80"/>
      <path d="M 41.109375 46.296875 
Q 39.59375 47.171875 37.8125 47.578125 
Q 36.03125 48 33.890625 48 
Q 26.265625 48 22.1875 43.046875 
Q 18.109375 38.09375 18.109375 28.8125 
L 18.109375 0 
L 9.078125 0 
L 9.078125 54.6875 
L 18.109375 54.6875 
L 18.109375 46.1875 
Q 20.953125 51.171875 25.484375 53.578125 
Q 30.03125 56 36.53125 56 
Q 37.453125 56 38.578125 55.875 
Q 39.703125 55.765625 41.0625 55.515625 
z
" id="DejaVuSans-114"/>
      <path d="M 45.40625 46.390625 
L 45.40625 75.984375 
L 54.390625 75.984375 
L 54.390625 0 
L 45.40625 0 
L 45.40625 8.203125 
Q 42.578125 3.328125 38.25 0.953125 
Q 33.9375 -1.421875 27.875 -1.421875 
Q 17.96875 -1.421875 11.734375 6.484375 
Q 5.515625 14.40625 5.515625 27.296875 
Q 5.515625 40.1875 11.734375 48.09375 
Q 17.96875 56 27.875 56 
Q 33.9375 56 38.25 53.625 
Q 42.578125 51.265625 45.40625 46.390625 
z
M 14.796875 27.296875 
Q 14.796875 17.390625 18.875 11.75 
Q 22.953125 6.109375 30.078125 6.109375 
Q 37.203125 6.109375 41.296875 11.75 
Q 45.40625 17.390625 45.40625 27.296875 
Q 45.40625 37.203125 41.296875 42.84375 
Q 37.203125 48.484375 30.078125 48.484375 
Q 22.953125 48.484375 18.875 42.84375 
Q 14.796875 37.203125 14.796875 27.296875 
z
" id="DejaVuSans-100"/>
     </defs>
     <g transform="translate(1264.3125 102.998438)scale(0.1 -0.1)">
      <use xlink:href="#DejaVuSans-80"/>
      <use x="60.287109" xlink:href="#DejaVuSans-114"/>
      <use x="101.369141" xlink:href="#DejaVuSans-101"/>
      <use x="162.892578" xlink:href="#DejaVuSans-100"/>
     </g>
    </g>
    <g id="line2d_15">
     <path d="M 1236.3125 114.176563 
L 1256.3125 114.176563 
" style="fill:none;stroke:#ff0000;stroke-linecap:square;stroke-width:1.5;"/>
    </g>
    <g id="line2d_16"/>
    <g id="text_13">
     <!-- True -->
     <defs>
      <path d="M 8.5 21.578125 
L 8.5 54.6875 
L 17.484375 54.6875 
L 17.484375 21.921875 
Q 17.484375 14.15625 20.5 10.265625 
Q 23.53125 6.390625 29.59375 6.390625 
Q 36.859375 6.390625 41.078125 11.03125 
Q 45.3125 15.671875 45.3125 23.6875 
L 45.3125 54.6875 
L 54.296875 54.6875 
L 54.296875 0 
L 45.3125 0 
L 45.3125 8.40625 
Q 42.046875 3.421875 37.71875 1 
Q 33.40625 -1.421875 27.6875 -1.421875 
Q 18.265625 -1.421875 13.375 4.4375 
Q 8.5 10.296875 8.5 21.578125 
z
M 31.109375 56 
z
" id="DejaVuSans-117"/>
     </defs>
     <g transform="translate(1264.3125 117.676563)scale(0.1 -0.1)">
      <use xlink:href="#DejaVuSans-84"/>
      <use x="60.865234" xlink:href="#DejaVuSans-114"/>
      <use x="101.978516" xlink:href="#DejaVuSans-117"/>
      <use x="165.357422" xlink:href="#DejaVuSans-101"/>
     </g>
    </g>
   </g>
  </g>
  <g id="axes_2">
   <g id="patch_8">
    <path d="M 180 351.547826 
L 1296 351.547826 
L 1296 231.026087 
L 180 231.026087 
z
" style="fill:#ffffff;"/>
   </g>
   <g id="matplotlib.axis_3">
    <g id="xtick_7">
     <g id="line2d_17">
      <g>
       <use style="stroke:#000000;stroke-width:0.8;" x="230.727273" xlink:href="#m9fc17d69cd" y="351.547826"/>
      </g>
     </g>
     <g id="text_14">
      <!-- 0 -->
      <g transform="translate(227.546023 366.146264)scale(0.1 -0.1)">
       <use xlink:href="#DejaVuSans-48"/>
      </g>
     </g>
    </g>
    <g id="xtick_8">
     <g id="line2d_18">
      <g>
       <use style="stroke:#000000;stroke-width:0.8;" x="434.656007" xlink:href="#m9fc17d69cd" y="351.547826"/>
      </g>
     </g>
     <g id="text_15">
      <!-- 2 -->
      <g transform="translate(431.474757 366.146264)scale(0.1 -0.1)">
       <use xlink:href="#DejaVuSans-50"/>
      </g>
     </g>
    </g>
    <g id="xtick_9">
     <g id="line2d_19">
      <g>
       <use style="stroke:#000000;stroke-width:0.8;" x="638.584742" xlink:href="#m9fc17d69cd" y="351.547826"/>
      </g>
     </g>
     <g id="text_16">
      <!-- 4 -->
      <g transform="translate(635.403492 366.146264)scale(0.1 -0.1)">
       <use xlink:href="#DejaVuSans-52"/>
      </g>
     </g>
    </g>
    <g id="xtick_10">
     <g id="line2d_20">
      <g>
       <use style="stroke:#000000;stroke-width:0.8;" x="842.513476" xlink:href="#m9fc17d69cd" y="351.547826"/>
      </g>
     </g>
     <g id="text_17">
      <!-- 6 -->
      <g transform="translate(839.332226 366.146264)scale(0.1 -0.1)">
       <use xlink:href="#DejaVuSans-54"/>
      </g>
     </g>
    </g>
    <g id="xtick_11">
     <g id="line2d_21">
      <g>
       <use style="stroke:#000000;stroke-width:0.8;" x="1046.442211" xlink:href="#m9fc17d69cd" y="351.547826"/>
      </g>
     </g>
     <g id="text_18">
      <!-- 8 -->
      <g transform="translate(1043.260961 366.146264)scale(0.1 -0.1)">
       <use xlink:href="#DejaVuSans-56"/>
      </g>
     </g>
    </g>
    <g id="xtick_12">
     <g id="line2d_22">
      <g>
       <use style="stroke:#000000;stroke-width:0.8;" x="1250.370946" xlink:href="#m9fc17d69cd" y="351.547826"/>
      </g>
     </g>
     <g id="text_19">
      <!-- 10 -->
      <g transform="translate(1244.008446 366.146264)scale(0.1 -0.1)">
       <use xlink:href="#DejaVuSans-49"/>
       <use x="63.623047" xlink:href="#DejaVuSans-48"/>
      </g>
     </g>
    </g>
   </g>
   <g id="matplotlib.axis_4">
    <g id="ytick_5">
     <g id="line2d_23">
      <g>
       <use style="stroke:#000000;stroke-width:0.8;" x="180" xlink:href="#mf338002fab" y="349.133636"/>
      </g>
     </g>
     <g id="text_20">
      <!-- −1.0 -->
      <g transform="translate(148.717187 352.932855)scale(0.1 -0.1)">
       <use xlink:href="#DejaVuSans-8722"/>
       <use x="83.789062" xlink:href="#DejaVuSans-49"/>
       <use x="147.412109" xlink:href="#DejaVuSans-46"/>
       <use x="179.199219" xlink:href="#DejaVuSans-48"/>
      </g>
     </g>
    </g>
    <g id="ytick_6">
     <g id="line2d_24">
      <g>
       <use style="stroke:#000000;stroke-width:0.8;" x="180" xlink:href="#mf338002fab" y="320.087835"/>
      </g>
     </g>
     <g id="text_21">
      <!-- −0.5 -->
      <defs>
       <path d="M 10.796875 72.90625 
L 49.515625 72.90625 
L 49.515625 64.59375 
L 19.828125 64.59375 
L 19.828125 46.734375 
Q 21.96875 47.46875 24.109375 47.828125 
Q 26.265625 48.1875 28.421875 48.1875 
Q 40.625 48.1875 47.75 41.5 
Q 54.890625 34.8125 54.890625 23.390625 
Q 54.890625 11.625 47.5625 5.09375 
Q 40.234375 -1.421875 26.90625 -1.421875 
Q 22.3125 -1.421875 17.546875 -0.640625 
Q 12.796875 0.140625 7.71875 1.703125 
L 7.71875 11.625 
Q 12.109375 9.234375 16.796875 8.0625 
Q 21.484375 6.890625 26.703125 6.890625 
Q 35.15625 6.890625 40.078125 11.328125 
Q 45.015625 15.765625 45.015625 23.390625 
Q 45.015625 31 40.078125 35.4375 
Q 35.15625 39.890625 26.703125 39.890625 
Q 22.75 39.890625 18.8125 39.015625 
Q 14.890625 38.140625 10.796875 36.28125 
z
" id="DejaVuSans-53"/>
      </defs>
      <g transform="translate(148.717187 323.887054)scale(0.1 -0.1)">
       <use xlink:href="#DejaVuSans-8722"/>
       <use x="83.789062" xlink:href="#DejaVuSans-48"/>
       <use x="147.412109" xlink:href="#DejaVuSans-46"/>
       <use x="179.199219" xlink:href="#DejaVuSans-53"/>
      </g>
     </g>
    </g>
    <g id="ytick_7">
     <g id="line2d_25">
      <g>
       <use style="stroke:#000000;stroke-width:0.8;" x="180" xlink:href="#mf338002fab" y="291.042034"/>
      </g>
     </g>
     <g id="text_22">
      <!-- 0.0 -->
      <g transform="translate(157.096875 294.841253)scale(0.1 -0.1)">
       <use xlink:href="#DejaVuSans-48"/>
       <use x="63.623047" xlink:href="#DejaVuSans-46"/>
       <use x="95.410156" xlink:href="#DejaVuSans-48"/>
      </g>
     </g>
    </g>
    <g id="ytick_8">
     <g id="line2d_26">
      <g>
       <use style="stroke:#000000;stroke-width:0.8;" x="180" xlink:href="#mf338002fab" y="261.996234"/>
      </g>
     </g>
     <g id="text_23">
      <!-- 0.5 -->
      <g transform="translate(157.096875 265.795452)scale(0.1 -0.1)">
       <use xlink:href="#DejaVuSans-48"/>
       <use x="63.623047" xlink:href="#DejaVuSans-46"/>
       <use x="95.410156" xlink:href="#DejaVuSans-53"/>
      </g>
     </g>
    </g>
    <g id="ytick_9">
     <g id="line2d_27">
      <g>
       <use style="stroke:#000000;stroke-width:0.8;" x="180" xlink:href="#mf338002fab" y="232.950433"/>
      </g>
     </g>
     <g id="text_24">
      <!-- 1.0 -->
      <g transform="translate(157.096875 236.749651)scale(0.1 -0.1)">
       <use xlink:href="#DejaVuSans-49"/>
       <use x="63.623047" xlink:href="#DejaVuSans-46"/>
       <use x="95.410156" xlink:href="#DejaVuSans-48"/>
      </g>
     </g>
    </g>
    <g id="text_25">
     <!-- TD State:1 -->
     <g transform="translate(142.6375 317.880707)rotate(-90)scale(0.1 -0.1)">
      <use xlink:href="#DejaVuSans-84"/>
      <use x="61.083984" xlink:href="#DejaVuSans-68"/>
      <use x="138.085938" xlink:href="#DejaVuSans-32"/>
      <use x="169.873047" xlink:href="#DejaVuSans-83"/>
      <use x="233.349609" xlink:href="#DejaVuSans-116"/>
      <use x="272.558594" xlink:href="#DejaVuSans-97"/>
      <use x="333.837891" xlink:href="#DejaVuSans-116"/>
      <use x="373.046875" xlink:href="#DejaVuSans-101"/>
      <use x="434.570312" xlink:href="#DejaVuSans-58"/>
      <use x="468.261719" xlink:href="#DejaVuSans-49"/>
     </g>
    </g>
   </g>
   <g id="line2d_28">
    <path clip-path="url(#pa34ba133d8)" d="M 230.727273 237.84533 
L 235.825491 239.224113 
L 240.923709 241.558049 
L 246.021928 246.236616 
L 251.120146 252.409668 
L 256.218365 260.213537 
L 261.316583 269.698274 
L 266.414801 280.707011 
L 271.51302 292.577038 
L 276.611238 304.040304 
L 286.807675 322.228856 
L 291.905893 329.440103 
L 297.004111 334.99087 
L 302.10233 338.30666 
L 307.200548 340.277492 
L 312.298767 340.875724 
L 317.396985 340.638333 
L 322.495203 340.137298 
L 327.593422 338.215048 
L 332.69164 335.136481 
L 337.789858 330.816476 
L 342.888077 324.969251 
L 347.986295 317.124659 
L 353.084513 308.185753 
L 358.182732 298.284552 
L 363.28095 287.266473 
L 368.379169 275.790703 
L 373.477387 264.794704 
L 378.575605 255.982898 
L 383.673824 251.040134 
L 388.772042 245.696051 
L 393.87026 242.271349 
L 398.968479 240.392979 
L 404.066697 239.504817 
L 409.164915 239.58809 
L 414.263134 240.426482 
L 419.361352 242.477955 
L 424.459571 246.405769 
L 429.557789 251.9288 
L 434.656007 259.519278 
L 439.754226 269.155971 
L 444.852444 280.335107 
L 449.950662 292.505921 
L 455.048881 304.285761 
L 465.245317 322.743795 
L 470.343536 330.190979 
L 475.441754 335.485822 
L 480.539973 338.681665 
L 485.638191 340.083563 
L 490.736409 340.552996 
L 495.834628 340.101219 
L 500.932846 339.160953 
L 506.031064 336.901062 
L 511.129283 333.305669 
L 516.227501 327.942001 
L 521.32572 320.200001 
L 526.423938 311.10841 
L 531.522156 300.682691 
L 536.620375 288.910875 
L 541.718593 276.839255 
L 546.816811 265.636569 
L 551.91503 256.294774 
L 557.013248 250.950238 
L 562.111466 245.224382 
L 567.209685 241.501263 
L 572.307903 239.364061 
L 577.406122 238.357119 
L 582.50434 238.426676 
L 587.602558 239.264816 
L 592.700777 240.715964 
L 597.798995 243.739784 
L 602.897213 248.836501 
L 607.995432 255.563182 
L 613.09365 263.874794 
L 618.191868 274.204348 
L 633.486524 310.01365 
L 643.68296 328.17607 
L 648.781179 335.191434 
L 653.879397 339.850912 
L 658.977615 342.437656 
L 664.075834 343.849756 
L 674.27227 344.879103 
L 679.370489 344.558949 
L 684.468707 343.238325 
L 689.566926 340.898498 
L 694.665144 337.20256 
L 699.763362 331.956014 
L 704.861581 324.385166 
L 709.959799 314.089945 
L 715.058017 302.703828 
L 720.156236 290.366916 
L 730.352672 265.152806 
L 735.450891 255.360133 
L 745.647328 243.549131 
L 750.745546 239.833674 
L 755.843764 237.779497 
L 760.941983 236.994411 
L 766.040201 236.896627 
L 771.138419 237.373524 
L 776.236638 238.505429 
L 781.334856 240.387573 
L 786.433074 245.233586 
L 791.531293 251.667698 
L 796.629511 259.852209 
L 801.72773 270.39172 
L 817.022385 308.58517 
L 827.218821 328.566148 
L 832.31704 336.254895 
L 837.415258 341.185384 
L 842.513476 343.737591 
L 852.709913 345.25631 
L 857.808132 345.190743 
L 862.90635 344.167443 
L 868.004568 342.382648 
L 873.102787 339.39785 
L 878.201005 334.970245 
L 883.299223 328.702047 
L 888.397442 319.081335 
L 893.49566 307.869175 
L 898.593878 296.018263 
L 908.790315 270.403479 
L 913.888534 259.28697 
L 918.986752 250.986171 
L 924.08497 246.026265 
L 929.183189 241.433505 
L 934.281407 238.737821 
L 939.379625 237.515103 
L 944.477844 237.08075 
L 949.576062 237.356017 
L 954.67428 238.054941 
L 959.772499 239.251717 
L 964.870717 241.154109 
L 969.968936 245.364754 
L 975.067154 251.013522 
L 980.165372 258.630203 
L 985.263591 268.280415 
L 990.361809 279.368273 
L 1000.558246 302.716172 
L 1005.656464 313.935806 
L 1010.754683 321.672648 
L 1015.852901 329.047196 
L 1020.951119 334.66457 
L 1026.049338 338.173064 
L 1031.147556 340.210079 
L 1036.245774 341.258085 
L 1041.343993 341.362011 
L 1046.442211 341.196177 
L 1051.540429 339.912658 
L 1056.638648 337.644887 
L 1061.736866 334.143985 
L 1066.835085 329.099745 
L 1071.933303 321.456412 
L 1077.031521 311.551226 
L 1082.12974 300.367266 
L 1092.326176 275.873687 
L 1097.424395 264.152334 
L 1102.522613 255.181258 
L 1112.71905 244.795318 
L 1117.817268 241.32568 
L 1122.915487 239.424982 
L 1128.013705 238.553364 
L 1133.111923 238.600053 
L 1138.210142 239.175823 
L 1143.30836 240.378186 
L 1148.406578 243.115621 
L 1153.504797 247.731142 
L 1158.603015 254.098879 
L 1163.701233 262.043651 
L 1168.799452 271.523856 
L 1173.89767 282.71741 
L 1178.995889 294.527628 
L 1184.094107 305.809518 
L 1189.192325 314.588067 
L 1194.290544 323.682168 
L 1199.388762 330.785301 
L 1204.48698 335.617382 
L 1209.585199 338.875197 
L 1214.683417 340.740026 
L 1219.781635 341.581862 
L 1224.879854 341.622801 
L 1229.978072 341.47353 
L 1235.076291 339.90478 
L 1240.174509 337.24723 
L 1245.272727 333.327364 
L 1245.272727 333.327364 
" style="fill:none;stroke:#000000;stroke-linecap:square;stroke-width:4;"/>
   </g>
   <g id="line2d_29">
    <path clip-path="url(#pa34ba133d8)" d="M 230.727273 237.427857 
L 235.825491 239.170731 
L 240.923709 241.951538 
L 246.021928 246.215206 
L 251.120146 252.165827 
L 256.218365 259.87013 
L 261.316583 269.245259 
L 266.414801 279.99216 
L 276.611238 302.94208 
L 281.709456 313.480426 
L 286.807675 322.654614 
L 291.905893 329.774229 
L 297.004111 335.270831 
L 302.10233 338.826776 
L 307.200548 341.104153 
L 312.298767 342.240617 
L 317.396985 342.469916 
L 322.495203 341.650485 
L 327.593422 339.657641 
L 332.69164 336.51997 
L 337.789858 332.111503 
L 342.888077 325.845455 
L 347.986295 317.890032 
L 353.084513 308.605215 
L 358.182732 298.495274 
L 368.379169 276.395584 
L 373.477387 266.053234 
L 378.575605 257.621196 
L 383.673824 250.761916 
L 388.772042 245.715522 
L 393.87026 242.525889 
L 398.968479 240.6347 
L 404.066697 239.862616 
L 409.164915 239.923533 
L 414.263134 240.989598 
L 419.361352 243.307559 
L 424.459571 246.738417 
L 429.557789 251.930883 
L 434.656007 259.315411 
L 439.754226 268.789466 
L 444.852444 279.633696 
L 449.950662 291.583607 
L 455.048881 303.153031 
L 460.147099 313.785747 
L 465.245317 323.181822 
L 470.343536 330.505068 
L 475.441754 335.788125 
L 480.539973 339.21642 
L 485.638191 341.102225 
L 490.736409 342.016493 
L 495.834628 341.885469 
L 500.932846 340.710153 
L 506.031064 338.417076 
L 511.129283 334.49483 
L 516.227501 328.912136 
L 521.32572 321.201271 
L 526.423938 311.719196 
L 531.522156 300.977759 
L 541.718593 277.414219 
L 546.816811 266.843816 
L 551.91503 257.835627 
L 557.013248 250.475215 
L 562.111466 245.127668 
L 567.209685 241.593598 
L 572.307903 239.438491 
L 577.406122 238.510517 
L 582.50434 238.472928 
L 587.602558 239.444423 
L 592.700777 241.286767 
L 597.798995 244.219442 
L 602.897213 248.883225 
L 607.995432 255.348575 
L 613.09365 263.514108 
L 618.191868 273.771199 
L 623.290087 285.16103 
L 628.388305 297.21877 
L 633.486524 308.981802 
L 638.584742 319.693244 
L 643.68296 328.524509 
L 648.781179 335.327878 
L 653.879397 339.994933 
L 658.977615 342.896485 
L 664.075834 344.691422 
L 669.174052 345.519654 
L 674.27227 345.748508 
L 679.370489 345.333755 
L 684.468707 344.159223 
L 689.566926 341.758682 
L 694.665144 338.075335 
L 699.763362 332.517935 
L 704.861581 324.876285 
L 709.959799 315.020231 
L 715.058017 303.160223 
L 725.254454 278.228302 
L 730.352672 266.437488 
L 735.450891 256.584064 
L 740.549109 248.830476 
L 745.647328 243.296656 
L 750.745546 239.80602 
L 755.843764 237.665513 
L 760.941983 236.684993 
L 766.040201 236.504348 
L 771.138419 236.879967 
L 776.236638 238.213214 
L 781.334856 240.752213 
L 786.433074 245.108628 
L 791.531293 251.307193 
L 796.629511 259.45875 
L 801.72773 270.039154 
L 806.825948 282.429927 
L 817.022385 307.795303 
L 822.120603 319.250859 
L 827.218821 328.90949 
L 832.31704 336.265155 
L 837.415258 341.146442 
L 842.513476 344.048548 
L 847.611695 345.549589 
L 852.709913 346.069565 
L 857.808132 345.846976 
L 862.90635 345.010885 
L 868.004568 343.259267 
L 873.102787 340.24752 
L 878.201005 335.724912 
L 883.299223 328.944668 
L 888.397442 319.745834 
L 893.49566 308.537813 
L 898.593878 296.3218 
L 908.790315 271.327179 
L 913.888534 260.71798 
L 918.986752 252.001871 
L 924.08497 245.702801 
L 929.183189 241.333304 
L 934.281407 238.71694 
L 939.379625 237.347659 
L 944.477844 236.853176 
L 949.576062 236.977312 
L 954.67428 237.719138 
L 959.772499 239.237678 
L 964.870717 241.732346 
L 969.968936 245.502169 
L 975.067154 250.874718 
L 980.165372 258.365664 
L 985.263591 267.899636 
L 990.361809 278.661792 
L 995.460027 289.97513 
L 1000.558246 301.768507 
L 1005.656464 312.806584 
L 1010.754683 322.102287 
L 1015.852901 329.384191 
L 1020.951119 334.952082 
L 1026.049338 338.656072 
L 1031.147556 341.012453 
L 1036.245774 342.439342 
L 1041.343993 343.048643 
L 1046.442211 342.686715 
L 1051.540429 341.39286 
L 1056.638648 339.027698 
L 1061.736866 335.443201 
L 1066.835085 329.985949 
L 1071.933303 322.272809 
L 1077.031521 312.279801 
L 1082.12974 300.715026 
L 1092.326176 276.49826 
L 1097.424395 265.490348 
L 1102.522613 256.61513 
L 1107.620831 249.766881 
L 1112.71905 244.759798 
L 1117.817268 241.438938 
L 1122.915487 239.539529 
L 1128.013705 238.721873 
L 1133.111923 238.67644 
L 1138.210142 239.316693 
L 1143.30836 240.865787 
L 1148.406578 243.675814 
L 1153.504797 247.843861 
L 1158.603015 253.954809 
L 1163.701233 261.701185 
L 1168.799452 271.039175 
L 1173.89767 281.995938 
L 1184.094107 304.67315 
L 1189.192325 315.022109 
L 1194.290544 324.101043 
L 1199.388762 331.096063 
L 1204.48698 335.976056 
L 1209.585199 339.383925 
L 1214.683417 341.580455 
L 1219.781635 342.852057 
L 1224.879854 343.367239 
L 1229.978072 342.841914 
L 1235.076291 341.255611 
L 1240.174509 338.522329 
L 1245.272727 334.543355 
L 1245.272727 334.543355 
" style="fill:none;stroke:#ff0000;stroke-linecap:square;stroke-width:1.5;"/>
   </g>
   <g id="patch_9">
    <path d="M 180 351.547826 
L 180 231.026087 
" style="fill:none;stroke:#000000;stroke-linecap:square;stroke-linejoin:miter;stroke-width:0.8;"/>
   </g>
   <g id="patch_10">
    <path d="M 1296 351.547826 
L 1296 231.026087 
" style="fill:none;stroke:#000000;stroke-linecap:square;stroke-linejoin:miter;stroke-width:0.8;"/>
   </g>
   <g id="patch_11">
    <path d="M 180 351.547826 
L 1296 351.547826 
" style="fill:none;stroke:#000000;stroke-linecap:square;stroke-linejoin:miter;stroke-width:0.8;"/>
   </g>
   <g id="patch_12">
    <path d="M 180 231.026087 
L 1296 231.026087 
" style="fill:none;stroke:#000000;stroke-linecap:square;stroke-linejoin:miter;stroke-width:0.8;"/>
   </g>
   <g id="legend_2">
    <g id="patch_13">
     <path d="M 1234.3125 268.382337 
L 1289 268.382337 
Q 1291 268.382337 1291 266.382337 
L 1291 238.026087 
Q 1291 236.026087 1289 236.026087 
L 1234.3125 236.026087 
Q 1232.3125 236.026087 1232.3125 238.026087 
L 1232.3125 266.382337 
Q 1232.3125 268.382337 1234.3125 268.382337 
z
" style="fill:#ffffff;opacity:0.8;stroke:#cccccc;stroke-linejoin:miter;"/>
    </g>
    <g id="line2d_30">
     <path d="M 1236.3125 244.124524 
L 1256.3125 244.124524 
" style="fill:none;stroke:#000000;stroke-linecap:square;stroke-width:4;"/>
    </g>
    <g id="line2d_31"/>
    <g id="text_26">
     <!-- Pred -->
     <g transform="translate(1264.3125 247.624524)scale(0.1 -0.1)">
      <use xlink:href="#DejaVuSans-80"/>
      <use x="60.287109" xlink:href="#DejaVuSans-114"/>
      <use x="101.369141" xlink:href="#DejaVuSans-101"/>
      <use x="162.892578" xlink:href="#DejaVuSans-100"/>
     </g>
    </g>
    <g id="line2d_32">
     <path d="M 1236.3125 258.802649 
L 1256.3125 258.802649 
" style="fill:none;stroke:#ff0000;stroke-linecap:square;stroke-width:1.5;"/>
    </g>
    <g id="line2d_33"/>
    <g id="text_27">
     <!-- True -->
     <g transform="translate(1264.3125 262.302649)scale(0.1 -0.1)">
      <use xlink:href="#DejaVuSans-84"/>
      <use x="60.865234" xlink:href="#DejaVuSans-114"/>
      <use x="101.978516" xlink:href="#DejaVuSans-117"/>
      <use x="165.357422" xlink:href="#DejaVuSans-101"/>
     </g>
    </g>
   </g>
  </g>
  <g id="axes_3">
   <g id="patch_14">
    <path d="M 180 496.173913 
L 1296 496.173913 
L 1296 375.652174 
L 180 375.652174 
z
" style="fill:#ffffff;"/>
   </g>
   <g id="matplotlib.axis_5">
    <g id="xtick_13">
     <g id="line2d_34">
      <g>
       <use style="stroke:#000000;stroke-width:0.8;" x="230.727273" xlink:href="#m9fc17d69cd" y="496.173913"/>
      </g>
     </g>
     <g id="text_28">
      <!-- 0 -->
      <g transform="translate(227.546023 510.772351)scale(0.1 -0.1)">
       <use xlink:href="#DejaVuSans-48"/>
      </g>
     </g>
    </g>
    <g id="xtick_14">
     <g id="line2d_35">
      <g>
       <use style="stroke:#000000;stroke-width:0.8;" x="434.656007" xlink:href="#m9fc17d69cd" y="496.173913"/>
      </g>
     </g>
     <g id="text_29">
      <!-- 2 -->
      <g transform="translate(431.474757 510.772351)scale(0.1 -0.1)">
       <use xlink:href="#DejaVuSans-50"/>
      </g>
     </g>
    </g>
    <g id="xtick_15">
     <g id="line2d_36">
      <g>
       <use style="stroke:#000000;stroke-width:0.8;" x="638.584742" xlink:href="#m9fc17d69cd" y="496.173913"/>
      </g>
     </g>
     <g id="text_30">
      <!-- 4 -->
      <g transform="translate(635.403492 510.772351)scale(0.1 -0.1)">
       <use xlink:href="#DejaVuSans-52"/>
      </g>
     </g>
    </g>
    <g id="xtick_16">
     <g id="line2d_37">
      <g>
       <use style="stroke:#000000;stroke-width:0.8;" x="842.513476" xlink:href="#m9fc17d69cd" y="496.173913"/>
      </g>
     </g>
     <g id="text_31">
      <!-- 6 -->
      <g transform="translate(839.332226 510.772351)scale(0.1 -0.1)">
       <use xlink:href="#DejaVuSans-54"/>
      </g>
     </g>
    </g>
    <g id="xtick_17">
     <g id="line2d_38">
      <g>
       <use style="stroke:#000000;stroke-width:0.8;" x="1046.442211" xlink:href="#m9fc17d69cd" y="496.173913"/>
      </g>
     </g>
     <g id="text_32">
      <!-- 8 -->
      <g transform="translate(1043.260961 510.772351)scale(0.1 -0.1)">
       <use xlink:href="#DejaVuSans-56"/>
      </g>
     </g>
    </g>
    <g id="xtick_18">
     <g id="line2d_39">
      <g>
       <use style="stroke:#000000;stroke-width:0.8;" x="1250.370946" xlink:href="#m9fc17d69cd" y="496.173913"/>
      </g>
     </g>
     <g id="text_33">
      <!-- 10 -->
      <g transform="translate(1244.008446 510.772351)scale(0.1 -0.1)">
       <use xlink:href="#DejaVuSans-49"/>
       <use x="63.623047" xlink:href="#DejaVuSans-48"/>
      </g>
     </g>
    </g>
   </g>
   <g id="matplotlib.axis_6">
    <g id="ytick_10">
     <g id="line2d_40">
      <g>
       <use style="stroke:#000000;stroke-width:0.8;" x="180" xlink:href="#mf338002fab" y="485.74702"/>
      </g>
     </g>
     <g id="text_34">
      <!-- −4 -->
      <g transform="translate(158.257812 489.546238)scale(0.1 -0.1)">
       <use xlink:href="#DejaVuSans-8722"/>
       <use x="83.789062" xlink:href="#DejaVuSans-52"/>
      </g>
     </g>
    </g>
    <g id="ytick_11">
     <g id="line2d_41">
      <g>
       <use style="stroke:#000000;stroke-width:0.8;" x="180" xlink:href="#mf338002fab" y="460.914084"/>
      </g>
     </g>
     <g id="text_35">
      <!-- −2 -->
      <g transform="translate(158.257812 464.713303)scale(0.1 -0.1)">
       <use xlink:href="#DejaVuSans-8722"/>
       <use x="83.789062" xlink:href="#DejaVuSans-50"/>
      </g>
     </g>
    </g>
    <g id="ytick_12">
     <g id="line2d_42">
      <g>
       <use style="stroke:#000000;stroke-width:0.8;" x="180" xlink:href="#mf338002fab" y="436.081149"/>
      </g>
     </g>
     <g id="text_36">
      <!-- 0 -->
      <g transform="translate(166.6375 439.880368)scale(0.1 -0.1)">
       <use xlink:href="#DejaVuSans-48"/>
      </g>
     </g>
    </g>
    <g id="ytick_13">
     <g id="line2d_43">
      <g>
       <use style="stroke:#000000;stroke-width:0.8;" x="180" xlink:href="#mf338002fab" y="411.248213"/>
      </g>
     </g>
     <g id="text_37">
      <!-- 2 -->
      <g transform="translate(166.6375 415.047432)scale(0.1 -0.1)">
       <use xlink:href="#DejaVuSans-50"/>
      </g>
     </g>
    </g>
    <g id="ytick_14">
     <g id="line2d_44">
      <g>
       <use style="stroke:#000000;stroke-width:0.8;" x="180" xlink:href="#mf338002fab" y="386.415278"/>
      </g>
     </g>
     <g id="text_38">
      <!-- 4 -->
      <g transform="translate(166.6375 390.214497)scale(0.1 -0.1)">
       <use xlink:href="#DejaVuSans-52"/>
      </g>
     </g>
    </g>
    <g id="text_39">
     <!-- TD State:2 -->
     <g transform="translate(152.178125 462.506793)rotate(-90)scale(0.1 -0.1)">
      <use xlink:href="#DejaVuSans-84"/>
      <use x="61.083984" xlink:href="#DejaVuSans-68"/>
      <use x="138.085938" xlink:href="#DejaVuSans-32"/>
      <use x="169.873047" xlink:href="#DejaVuSans-83"/>
      <use x="233.349609" xlink:href="#DejaVuSans-116"/>
      <use x="272.558594" xlink:href="#DejaVuSans-97"/>
      <use x="333.837891" xlink:href="#DejaVuSans-116"/>
      <use x="373.046875" xlink:href="#DejaVuSans-101"/>
      <use x="434.570312" xlink:href="#DejaVuSans-58"/>
      <use x="468.261719" xlink:href="#DejaVuSans-50"/>
     </g>
    </g>
   </g>
   <g id="line2d_45">
    <path clip-path="url(#p0e724522c0)" d="M 230.727273 428.264067 
L 235.825491 419.20145 
L 246.021928 405.592233 
L 251.120146 399.702994 
L 256.218365 394.994395 
L 261.316583 391.218788 
L 266.414801 388.340724 
L 271.51302 386.868629 
L 276.611238 386.722633 
L 281.709456 388.613732 
L 286.807675 391.459365 
L 291.905893 397.063236 
L 297.004111 402.075895 
L 302.10233 410.131057 
L 307.200548 417.372891 
L 317.396985 433.23711 
L 327.593422 451.502526 
L 332.69164 458.440464 
L 337.789858 463.989658 
L 342.888077 470.75654 
L 347.986295 475.854089 
L 353.084513 478.918487 
L 358.182732 480.368454 
L 363.28095 482.706086 
L 368.379169 484.011876 
L 373.477387 483.204838 
L 378.575605 478.51142 
L 383.673824 474.409811 
L 388.772042 468.688756 
L 393.87026 460.289861 
L 398.968479 452.307991 
L 404.066697 443.799134 
L 409.164915 436.200418 
L 414.263134 427.710891 
L 419.361352 418.675986 
L 424.459571 412.397194 
L 429.557789 404.939992 
L 434.656007 397.057646 
L 439.754226 390.883606 
L 444.852444 387.760016 
L 449.950662 385.07104 
L 455.048881 386.011153 
L 465.245317 390.324589 
L 470.343536 395.586678 
L 475.441754 402.457361 
L 480.539973 410.675446 
L 485.638191 419.90367 
L 490.736409 427.508116 
L 500.932846 445.164279 
L 506.031064 453.163447 
L 511.129283 462.001843 
L 521.32572 476.001848 
L 526.423938 480.822088 
L 536.620375 486.364804 
L 541.718593 486.784924 
L 546.816811 484.295543 
L 557.013248 477.199952 
L 562.111466 471.121583 
L 567.209685 463.45913 
L 572.307903 455.586096 
L 577.406122 446.134403 
L 582.50434 437.326723 
L 587.602558 427.765855 
L 592.700777 420.481984 
L 597.798995 413.981077 
L 602.897213 405.879628 
L 607.995432 399.300067 
L 613.09365 394.693842 
L 618.191868 389.163683 
L 623.290087 386.485799 
L 628.388305 384.732669 
L 633.486524 384.673428 
L 638.584742 385.957018 
L 643.68296 389.658257 
L 648.781179 394.558711 
L 653.879397 401.703955 
L 658.977615 410.123693 
L 664.075834 417.164076 
L 669.174052 425.521772 
L 674.27227 432.697096 
L 679.370489 440.481868 
L 684.468707 448.535143 
L 689.566926 457.984893 
L 694.665144 464.857732 
L 699.763362 472.144421 
L 704.861581 478.526139 
L 709.959799 484.181312 
L 715.058017 488.968795 
L 720.156236 490.003451 
L 730.352672 489.304504 
L 735.450891 485.606161 
L 740.549109 480.841929 
L 745.647328 474.354261 
L 750.745546 465.731749 
L 755.843764 457.912256 
L 760.941983 448.39902 
L 766.040201 439.217423 
L 771.138419 432.046302 
L 776.236638 422.527271 
L 781.334856 413.330477 
L 786.433074 403.7424 
L 791.531293 397.13975 
L 796.629511 392.138921 
L 801.72773 385.975718 
L 806.825948 381.634514 
L 811.924166 381.305621 
L 817.022385 381.279704 
L 822.120603 382.744649 
L 827.218821 385.535367 
L 832.31704 390.405195 
L 837.415258 398.402433 
L 842.513476 407.913864 
L 847.611695 417.961382 
L 852.709913 428.264952 
L 857.808132 437.996194 
L 862.90635 445.677524 
L 873.102787 461.8327 
L 878.201005 468.514763 
L 883.299223 476.511937 
L 888.397442 483.485942 
L 893.49566 488.019815 
L 898.593878 489.454417 
L 908.790315 490.462604 
L 913.888534 486.967444 
L 918.986752 482.99797 
L 929.183189 469.375522 
L 934.281407 460.588191 
L 939.379625 451.406062 
L 944.477844 442.649164 
L 949.576062 435.211927 
L 959.772499 421.354579 
L 964.870717 414.833681 
L 975.067154 402.447919 
L 980.165372 395.590232 
L 985.263591 390.025942 
L 990.361809 387.707641 
L 995.460027 387.241608 
L 1000.558246 385.766372 
L 1005.656464 386.762192 
L 1010.754683 390.838855 
L 1015.852901 396.527978 
L 1020.951119 401.855816 
L 1026.049338 409.4351 
L 1031.147556 416.808724 
L 1036.245774 423.127772 
L 1041.343993 429.80357 
L 1046.442211 438.533135 
L 1051.540429 446.848042 
L 1056.638648 454.405559 
L 1061.736866 460.883418 
L 1071.933303 476.624081 
L 1077.031521 483.282162 
L 1082.12974 487.104229 
L 1087.227958 488.492187 
L 1092.326176 488.003542 
L 1097.424395 486.423334 
L 1102.522613 481.218151 
L 1107.620831 475.417823 
L 1112.71905 469.346704 
L 1117.817268 462.070237 
L 1122.915487 453.538868 
L 1128.013705 444.788863 
L 1133.111923 437.181498 
L 1138.210142 430.432588 
L 1143.30836 422.974593 
L 1148.406578 414.752879 
L 1153.504797 408.073144 
L 1158.603015 400.644508 
L 1163.701233 395.892089 
L 1168.799452 392.193376 
L 1173.89767 388.1411 
L 1178.995889 387.300288 
L 1184.094107 387.279603 
L 1189.192325 389.0505 
L 1194.290544 391.340997 
L 1199.388762 396.834284 
L 1204.48698 404.501418 
L 1224.879854 430.60043 
L 1235.076291 449.300516 
L 1240.174509 457.022164 
L 1245.272727 463.060703 
L 1245.272727 463.060703 
" style="fill:none;stroke:#000000;stroke-linecap:square;stroke-width:4;"/>
   </g>
   <g id="line2d_46">
    <path clip-path="url(#p0e724522c0)" d="M 230.727273 427.49098 
L 235.825491 418.247577 
L 240.923709 411.960717 
L 246.021928 404.984973 
L 251.120146 399.258558 
L 256.218365 394.669678 
L 261.316583 390.941281 
L 266.414801 388.092317 
L 271.51302 386.740934 
L 276.611238 386.663035 
L 281.709456 388.83351 
L 286.807675 391.668616 
L 291.905893 397.735803 
L 297.004111 402.412108 
L 302.10233 411.120838 
L 307.200548 417.992769 
L 312.298767 426.165487 
L 317.396985 433.990092 
L 322.495203 443.408873 
L 327.593422 452.483938 
L 332.69164 459.001122 
L 337.789858 464.401391 
L 342.888077 471.548327 
L 347.986295 476.299502 
L 353.084513 479.115255 
L 358.182732 480.404518 
L 363.28095 483.121097 
L 368.379169 484.283842 
L 373.477387 483.212769 
L 378.575605 477.878508 
L 383.673824 474.124278 
L 388.772042 468.090201 
L 393.87026 459.263862 
L 398.968479 451.51851 
L 404.066697 442.884862 
L 409.164915 435.531845 
L 414.263134 426.8065 
L 419.361352 417.696877 
L 424.459571 411.99221 
L 434.656007 396.135123 
L 439.754226 390.226516 
L 444.852444 387.548504 
L 449.950662 384.678722 
L 455.048881 386.241762 
L 465.245317 390.389484 
L 470.343536 396.207372 
L 475.441754 403.19748 
L 480.539973 411.605145 
L 485.638191 420.963598 
L 490.736409 428.161828 
L 500.932846 446.104759 
L 506.031064 453.938936 
L 511.129283 463.045182 
L 516.227501 469.595467 
L 521.32572 476.860719 
L 526.423938 481.266032 
L 531.522156 483.770295 
L 536.620375 486.812463 
L 541.718593 486.836875 
L 546.816811 483.971836 
L 557.013248 476.949729 
L 562.111466 470.44303 
L 572.307903 454.79609 
L 577.406122 445.033162 
L 582.50434 436.458127 
L 587.602558 426.696951 
L 592.700777 419.941428 
L 597.798995 413.468624 
L 602.897213 404.967851 
L 607.995432 398.725913 
L 613.09365 394.365059 
L 618.191868 388.448019 
L 623.290087 386.30186 
L 628.388305 384.443703 
L 633.486524 384.57223 
L 638.584742 385.962748 
L 643.68296 390.003138 
L 648.781179 394.956834 
L 653.879397 402.476918 
L 658.977615 411.02435 
L 664.075834 417.695954 
L 669.174052 426.392049 
L 674.27227 433.2189 
L 684.468707 449.280234 
L 689.566926 459.059913 
L 694.665144 465.353102 
L 699.763362 472.928537 
L 704.861581 479.152343 
L 709.959799 484.809838 
L 715.058017 489.556336 
L 720.156236 489.95752 
L 725.254454 489.620946 
L 730.352672 489.459707 
L 735.450891 485.158011 
L 740.549109 480.390453 
L 745.647328 473.658291 
L 750.745546 464.719952 
L 755.843764 457.202512 
L 760.941983 447.295371 
L 766.040201 438.296453 
L 771.138419 431.5322 
L 776.236638 421.423793 
L 781.334856 412.413384 
L 786.433074 402.660431 
L 791.531293 396.664873 
L 796.629511 391.774237 
L 801.72773 385.201158 
L 806.825948 381.168501 
L 811.924166 381.432175 
L 817.022385 381.130435 
L 822.120603 382.816675 
L 827.218821 385.672498 
L 832.31704 390.833501 
L 837.415258 399.337554 
L 842.513476 408.997299 
L 852.709913 429.409465 
L 857.808132 438.999556 
L 862.90635 446.268248 
L 868.004568 454.60203 
L 873.102787 462.60852 
L 878.201005 469.064584 
L 883.299223 477.484129 
L 888.397442 484.261104 
L 893.49566 488.45098 
L 898.593878 489.450324 
L 908.790315 490.695652 
L 913.888534 486.478639 
L 918.986752 482.70943 
L 924.08497 475.432331 
L 929.183189 468.727317 
L 939.379625 450.423271 
L 944.477844 441.778473 
L 949.576062 434.619667 
L 959.772499 420.798986 
L 969.968936 408.072699 
L 975.067154 401.94017 
L 980.165372 394.836574 
L 985.263591 389.480723 
L 990.361809 387.660786 
L 995.460027 387.310239 
L 1000.558246 385.402054 
L 1005.656464 386.833496 
L 1010.754683 391.357889 
L 1015.852901 397.15998 
L 1020.951119 402.275239 
L 1026.049338 410.307949 
L 1031.147556 417.484986 
L 1036.245774 423.584468 
L 1041.343993 430.366991 
L 1046.442211 439.506203 
L 1051.540429 447.642713 
L 1056.638648 455.105924 
L 1061.736866 461.418966 
L 1066.835085 469.672755 
L 1071.933303 477.58406 
L 1077.031521 484.09201 
L 1082.12974 487.479295 
L 1087.227958 488.602837 
L 1092.326176 487.943052 
L 1097.424395 486.338561 
L 1112.71905 468.761104 
L 1117.817268 461.300455 
L 1128.013705 443.872678 
L 1133.111923 436.528919 
L 1138.210142 429.917739 
L 1143.30836 422.275694 
L 1148.406578 413.909891 
L 1153.504797 407.548313 
L 1158.603015 399.820445 
L 1163.701233 395.608723 
L 1168.799452 391.892132 
L 1173.89767 387.61452 
L 1178.995889 387.335331 
L 1184.094107 387.180224 
L 1189.192325 389.229756 
L 1194.290544 391.414606 
L 1199.388762 397.489832 
L 1204.48698 405.399029 
L 1209.585199 411.58249 
L 1219.781635 424.583502 
L 1224.879854 431.113709 
L 1229.978072 441.144422 
L 1235.076291 450.271591 
L 1240.174509 457.725076 
L 1245.272727 463.5116 
L 1245.272727 463.5116 
" style="fill:none;stroke:#ff0000;stroke-linecap:square;stroke-width:1.5;"/>
   </g>
   <g id="patch_15">
    <path d="M 180 496.173913 
L 180 375.652174 
" style="fill:none;stroke:#000000;stroke-linecap:square;stroke-linejoin:miter;stroke-width:0.8;"/>
   </g>
   <g id="patch_16">
    <path d="M 1296 496.173913 
L 1296 375.652174 
" style="fill:none;stroke:#000000;stroke-linecap:square;stroke-linejoin:miter;stroke-width:0.8;"/>
   </g>
   <g id="patch_17">
    <path d="M 180 496.173913 
L 1296 496.173913 
" style="fill:none;stroke:#000000;stroke-linecap:square;stroke-linejoin:miter;stroke-width:0.8;"/>
   </g>
   <g id="patch_18">
    <path d="M 180 375.652174 
L 1296 375.652174 
" style="fill:none;stroke:#000000;stroke-linecap:square;stroke-linejoin:miter;stroke-width:0.8;"/>
   </g>
   <g id="legend_3">
    <g id="patch_19">
     <path d="M 1234.3125 413.008424 
L 1289 413.008424 
Q 1291 413.008424 1291 411.008424 
L 1291 382.652174 
Q 1291 380.652174 1289 380.652174 
L 1234.3125 380.652174 
Q 1232.3125 380.652174 1232.3125 382.652174 
L 1232.3125 411.008424 
Q 1232.3125 413.008424 1234.3125 413.008424 
z
" style="fill:#ffffff;opacity:0.8;stroke:#cccccc;stroke-linejoin:miter;"/>
    </g>
    <g id="line2d_47">
     <path d="M 1236.3125 388.750611 
L 1256.3125 388.750611 
" style="fill:none;stroke:#000000;stroke-linecap:square;stroke-width:4;"/>
    </g>
    <g id="line2d_48"/>
    <g id="text_40">
     <!-- Pred -->
     <g transform="translate(1264.3125 392.250611)scale(0.1 -0.1)">
      <use xlink:href="#DejaVuSans-80"/>
      <use x="60.287109" xlink:href="#DejaVuSans-114"/>
      <use x="101.369141" xlink:href="#DejaVuSans-101"/>
      <use x="162.892578" xlink:href="#DejaVuSans-100"/>
     </g>
    </g>
    <g id="line2d_49">
     <path d="M 1236.3125 403.428736 
L 1256.3125 403.428736 
" style="fill:none;stroke:#ff0000;stroke-linecap:square;stroke-width:1.5;"/>
    </g>
    <g id="line2d_50"/>
    <g id="text_41">
     <!-- True -->
     <g transform="translate(1264.3125 406.928736)scale(0.1 -0.1)">
      <use xlink:href="#DejaVuSans-84"/>
      <use x="60.865234" xlink:href="#DejaVuSans-114"/>
      <use x="101.978516" xlink:href="#DejaVuSans-117"/>
      <use x="165.357422" xlink:href="#DejaVuSans-101"/>
     </g>
    </g>
   </g>
  </g>
  <g id="axes_4">
   <g id="patch_20">
    <path d="M 180 640.8 
L 1296 640.8 
L 1296 520.278261 
L 180 520.278261 
z
" style="fill:#ffffff;"/>
   </g>
   <g id="matplotlib.axis_7">
    <g id="xtick_19">
     <g id="line2d_51">
      <g>
       <use style="stroke:#000000;stroke-width:0.8;" x="230.727273" xlink:href="#m9fc17d69cd" y="640.8"/>
      </g>
     </g>
     <g id="text_42">
      <!-- 0 -->
      <g transform="translate(227.546023 655.398438)scale(0.1 -0.1)">
       <use xlink:href="#DejaVuSans-48"/>
      </g>
     </g>
    </g>
    <g id="xtick_20">
     <g id="line2d_52">
      <g>
       <use style="stroke:#000000;stroke-width:0.8;" x="434.656007" xlink:href="#m9fc17d69cd" y="640.8"/>
      </g>
     </g>
     <g id="text_43">
      <!-- 2 -->
      <g transform="translate(431.474757 655.398438)scale(0.1 -0.1)">
       <use xlink:href="#DejaVuSans-50"/>
      </g>
     </g>
    </g>
    <g id="xtick_21">
     <g id="line2d_53">
      <g>
       <use style="stroke:#000000;stroke-width:0.8;" x="638.584742" xlink:href="#m9fc17d69cd" y="640.8"/>
      </g>
     </g>
     <g id="text_44">
      <!-- 4 -->
      <g transform="translate(635.403492 655.398438)scale(0.1 -0.1)">
       <use xlink:href="#DejaVuSans-52"/>
      </g>
     </g>
    </g>
    <g id="xtick_22">
     <g id="line2d_54">
      <g>
       <use style="stroke:#000000;stroke-width:0.8;" x="842.513476" xlink:href="#m9fc17d69cd" y="640.8"/>
      </g>
     </g>
     <g id="text_45">
      <!-- 6 -->
      <g transform="translate(839.332226 655.398438)scale(0.1 -0.1)">
       <use xlink:href="#DejaVuSans-54"/>
      </g>
     </g>
    </g>
    <g id="xtick_23">
     <g id="line2d_55">
      <g>
       <use style="stroke:#000000;stroke-width:0.8;" x="1046.442211" xlink:href="#m9fc17d69cd" y="640.8"/>
      </g>
     </g>
     <g id="text_46">
      <!-- 8 -->
      <g transform="translate(1043.260961 655.398438)scale(0.1 -0.1)">
       <use xlink:href="#DejaVuSans-56"/>
      </g>
     </g>
    </g>
    <g id="xtick_24">
     <g id="line2d_56">
      <g>
       <use style="stroke:#000000;stroke-width:0.8;" x="1250.370946" xlink:href="#m9fc17d69cd" y="640.8"/>
      </g>
     </g>
     <g id="text_47">
      <!-- 10 -->
      <g transform="translate(1244.008446 655.398438)scale(0.1 -0.1)">
       <use xlink:href="#DejaVuSans-49"/>
       <use x="63.623047" xlink:href="#DejaVuSans-48"/>
      </g>
     </g>
    </g>
    <g id="text_48">
     <!-- Time -->
     <defs>
      <path d="M 9.421875 54.6875 
L 18.40625 54.6875 
L 18.40625 0 
L 9.421875 0 
z
M 9.421875 75.984375 
L 18.40625 75.984375 
L 18.40625 64.59375 
L 9.421875 64.59375 
z
" id="DejaVuSans-105"/>
      <path d="M 52 44.1875 
Q 55.375 50.25 60.0625 53.125 
Q 64.75 56 71.09375 56 
Q 79.640625 56 84.28125 50.015625 
Q 88.921875 44.046875 88.921875 33.015625 
L 88.921875 0 
L 79.890625 0 
L 79.890625 32.71875 
Q 79.890625 40.578125 77.09375 44.375 
Q 74.3125 48.1875 68.609375 48.1875 
Q 61.625 48.1875 57.5625 43.546875 
Q 53.515625 38.921875 53.515625 30.90625 
L 53.515625 0 
L 44.484375 0 
L 44.484375 32.71875 
Q 44.484375 40.625 41.703125 44.40625 
Q 38.921875 48.1875 33.109375 48.1875 
Q 26.21875 48.1875 22.15625 43.53125 
Q 18.109375 38.875 18.109375 30.90625 
L 18.109375 0 
L 9.078125 0 
L 9.078125 54.6875 
L 18.109375 54.6875 
L 18.109375 46.1875 
Q 21.1875 51.21875 25.484375 53.609375 
Q 29.78125 56 35.6875 56 
Q 41.65625 56 45.828125 52.96875 
Q 50 49.953125 52 44.1875 
z
" id="DejaVuSans-109"/>
     </defs>
     <g transform="translate(725.6125 669.076563)scale(0.1 -0.1)">
      <use xlink:href="#DejaVuSans-84"/>
      <use x="61.037109" xlink:href="#DejaVuSans-105"/>
      <use x="88.820312" xlink:href="#DejaVuSans-109"/>
      <use x="186.232422" xlink:href="#DejaVuSans-101"/>
     </g>
    </g>
   </g>
   <g id="matplotlib.axis_8">
    <g id="ytick_15">
     <g id="line2d_57">
      <g>
       <use style="stroke:#000000;stroke-width:0.8;" x="180" xlink:href="#mf338002fab" y="635.334306"/>
      </g>
     </g>
     <g id="text_49">
      <!-- −1.0 -->
      <g transform="translate(148.717187 639.133524)scale(0.1 -0.1)">
       <use xlink:href="#DejaVuSans-8722"/>
       <use x="83.789062" xlink:href="#DejaVuSans-49"/>
       <use x="147.412109" xlink:href="#DejaVuSans-46"/>
       <use x="179.199219" xlink:href="#DejaVuSans-48"/>
      </g>
     </g>
    </g>
    <g id="ytick_16">
     <g id="line2d_58">
      <g>
       <use style="stroke:#000000;stroke-width:0.8;" x="180" xlink:href="#mf338002fab" y="607.866324"/>
      </g>
     </g>
     <g id="text_50">
      <!-- −0.5 -->
      <g transform="translate(148.717187 611.665543)scale(0.1 -0.1)">
       <use xlink:href="#DejaVuSans-8722"/>
       <use x="83.789062" xlink:href="#DejaVuSans-48"/>
       <use x="147.412109" xlink:href="#DejaVuSans-46"/>
       <use x="179.199219" xlink:href="#DejaVuSans-53"/>
      </g>
     </g>
    </g>
    <g id="ytick_17">
     <g id="line2d_59">
      <g>
       <use style="stroke:#000000;stroke-width:0.8;" x="180" xlink:href="#mf338002fab" y="580.398342"/>
      </g>
     </g>
     <g id="text_51">
      <!-- 0.0 -->
      <g transform="translate(157.096875 584.197561)scale(0.1 -0.1)">
       <use xlink:href="#DejaVuSans-48"/>
       <use x="63.623047" xlink:href="#DejaVuSans-46"/>
       <use x="95.410156" xlink:href="#DejaVuSans-48"/>
      </g>
     </g>
    </g>
    <g id="ytick_18">
     <g id="line2d_60">
      <g>
       <use style="stroke:#000000;stroke-width:0.8;" x="180" xlink:href="#mf338002fab" y="552.93036"/>
      </g>
     </g>
     <g id="text_52">
      <!-- 0.5 -->
      <g transform="translate(157.096875 556.729579)scale(0.1 -0.1)">
       <use xlink:href="#DejaVuSans-48"/>
       <use x="63.623047" xlink:href="#DejaVuSans-46"/>
       <use x="95.410156" xlink:href="#DejaVuSans-53"/>
      </g>
     </g>
    </g>
    <g id="ytick_19">
     <g id="line2d_61">
      <g>
       <use style="stroke:#000000;stroke-width:0.8;" x="180" xlink:href="#mf338002fab" y="525.462378"/>
      </g>
     </g>
     <g id="text_53">
      <!-- 1.0 -->
      <g transform="translate(157.096875 529.261597)scale(0.1 -0.1)">
       <use xlink:href="#DejaVuSans-49"/>
       <use x="63.623047" xlink:href="#DejaVuSans-46"/>
       <use x="95.410156" xlink:href="#DejaVuSans-48"/>
      </g>
     </g>
    </g>
    <g id="text_54">
     <!-- Control Input -->
     <defs>
      <path d="M 64.40625 67.28125 
L 64.40625 56.890625 
Q 59.421875 61.53125 53.78125 63.8125 
Q 48.140625 66.109375 41.796875 66.109375 
Q 29.296875 66.109375 22.65625 58.46875 
Q 16.015625 50.828125 16.015625 36.375 
Q 16.015625 21.96875 22.65625 14.328125 
Q 29.296875 6.6875 41.796875 6.6875 
Q 48.140625 6.6875 53.78125 8.984375 
Q 59.421875 11.28125 64.40625 15.921875 
L 64.40625 5.609375 
Q 59.234375 2.09375 53.4375 0.328125 
Q 47.65625 -1.421875 41.21875 -1.421875 
Q 24.65625 -1.421875 15.125 8.703125 
Q 5.609375 18.84375 5.609375 36.375 
Q 5.609375 53.953125 15.125 64.078125 
Q 24.65625 74.21875 41.21875 74.21875 
Q 47.75 74.21875 53.53125 72.484375 
Q 59.328125 70.75 64.40625 67.28125 
z
" id="DejaVuSans-67"/>
      <path d="M 30.609375 48.390625 
Q 23.390625 48.390625 19.1875 42.75 
Q 14.984375 37.109375 14.984375 27.296875 
Q 14.984375 17.484375 19.15625 11.84375 
Q 23.34375 6.203125 30.609375 6.203125 
Q 37.796875 6.203125 41.984375 11.859375 
Q 46.1875 17.53125 46.1875 27.296875 
Q 46.1875 37.015625 41.984375 42.703125 
Q 37.796875 48.390625 30.609375 48.390625 
z
M 30.609375 56 
Q 42.328125 56 49.015625 48.375 
Q 55.71875 40.765625 55.71875 27.296875 
Q 55.71875 13.875 49.015625 6.21875 
Q 42.328125 -1.421875 30.609375 -1.421875 
Q 18.84375 -1.421875 12.171875 6.21875 
Q 5.515625 13.875 5.515625 27.296875 
Q 5.515625 40.765625 12.171875 48.375 
Q 18.84375 56 30.609375 56 
z
" id="DejaVuSans-111"/>
      <path d="M 54.890625 33.015625 
L 54.890625 0 
L 45.90625 0 
L 45.90625 32.71875 
Q 45.90625 40.484375 42.875 44.328125 
Q 39.84375 48.1875 33.796875 48.1875 
Q 26.515625 48.1875 22.3125 43.546875 
Q 18.109375 38.921875 18.109375 30.90625 
L 18.109375 0 
L 9.078125 0 
L 9.078125 54.6875 
L 18.109375 54.6875 
L 18.109375 46.1875 
Q 21.34375 51.125 25.703125 53.5625 
Q 30.078125 56 35.796875 56 
Q 45.21875 56 50.046875 50.171875 
Q 54.890625 44.34375 54.890625 33.015625 
z
" id="DejaVuSans-110"/>
      <path d="M 9.421875 75.984375 
L 18.40625 75.984375 
L 18.40625 0 
L 9.421875 0 
z
" id="DejaVuSans-108"/>
      <path d="M 9.8125 72.90625 
L 19.671875 72.90625 
L 19.671875 0 
L 9.8125 0 
z
" id="DejaVuSans-73"/>
      <path d="M 18.109375 8.203125 
L 18.109375 -20.796875 
L 9.078125 -20.796875 
L 9.078125 54.6875 
L 18.109375 54.6875 
L 18.109375 46.390625 
Q 20.953125 51.265625 25.265625 53.625 
Q 29.59375 56 35.59375 56 
Q 45.5625 56 51.78125 48.09375 
Q 58.015625 40.1875 58.015625 27.296875 
Q 58.015625 14.40625 51.78125 6.484375 
Q 45.5625 -1.421875 35.59375 -1.421875 
Q 29.59375 -1.421875 25.265625 0.953125 
Q 20.953125 3.328125 18.109375 8.203125 
z
M 48.6875 27.296875 
Q 48.6875 37.203125 44.609375 42.84375 
Q 40.53125 48.484375 33.40625 48.484375 
Q 26.265625 48.484375 22.1875 42.84375 
Q 18.109375 37.203125 18.109375 27.296875 
Q 18.109375 17.390625 22.1875 11.75 
Q 26.265625 6.109375 33.40625 6.109375 
Q 40.53125 6.109375 44.609375 11.75 
Q 48.6875 17.390625 48.6875 27.296875 
z
" id="DejaVuSans-112"/>
     </defs>
     <g transform="translate(142.6375 613.257099)rotate(-90)scale(0.1 -0.1)">
      <use xlink:href="#DejaVuSans-67"/>
      <use x="69.824219" xlink:href="#DejaVuSans-111"/>
      <use x="131.005859" xlink:href="#DejaVuSans-110"/>
      <use x="194.384766" xlink:href="#DejaVuSans-116"/>
      <use x="233.59375" xlink:href="#DejaVuSans-114"/>
      <use x="274.675781" xlink:href="#DejaVuSans-111"/>
      <use x="335.857422" xlink:href="#DejaVuSans-108"/>
      <use x="363.640625" xlink:href="#DejaVuSans-32"/>
      <use x="395.427734" xlink:href="#DejaVuSans-73"/>
      <use x="424.919922" xlink:href="#DejaVuSans-110"/>
      <use x="488.298828" xlink:href="#DejaVuSans-112"/>
      <use x="551.775391" xlink:href="#DejaVuSans-117"/>
      <use x="615.154297" xlink:href="#DejaVuSans-116"/>
     </g>
    </g>
   </g>
   <g id="line2d_62">
    <path clip-path="url(#pb2baa8ed1a)" d="M 230.727273 589.515294 
L 235.825491 556.190865 
L 240.923709 635.321739 
L 246.021928 602.116443 
L 251.120146 619.209953 
L 256.218365 625.188886 
L 261.316583 614.869537 
L 266.414801 597.366883 
L 271.51302 591.740699 
L 276.611238 576.133473 
L 281.709456 589.276596 
L 286.807675 560.047918 
L 291.905893 612.870743 
L 297.004111 538.85385 
L 302.10233 632.325178 
L 307.200548 561.668748 
L 312.298767 589.484223 
L 317.396985 573.949977 
L 322.495203 619.909722 
L 327.593422 613.568513 
L 332.69164 547.354956 
L 337.789858 528.94954 
L 342.888077 600.897787 
L 347.986295 559.267485 
L 353.084513 539.04374 
L 358.182732 537.042147 
L 363.28095 625.990334 
L 368.379169 631.043281 
L 373.477387 616.67471 
L 378.575605 538.851096 
L 383.673824 624.52875 
L 388.772042 589.066399 
L 393.87026 530.089137 
L 398.968479 576.754408 
L 404.066697 559.316434 
L 409.164915 600.667995 
L 414.263134 559.907126 
L 419.361352 543.632374 
L 424.459571 633.324937 
L 429.557789 552.914504 
L 434.656007 526.686232 
L 439.754226 553.131903 
L 444.852444 604.521384 
L 449.950662 548.614665 
L 455.048881 623.992665 
L 460.147099 586.123381 
L 465.245317 535.505166 
L 470.343536 603.074353 
L 475.441754 603.715875 
L 480.539973 621.047816 
L 485.638191 633.206421 
L 490.736409 560.749337 
L 495.834628 612.082317 
L 500.932846 606.158182 
L 506.031064 581.324215 
L 511.129283 629.47126 
L 516.227501 572.254898 
L 521.32572 619.212954 
L 526.423938 570.58617 
L 531.522156 558.450506 
L 536.620375 624.090625 
L 541.718593 589.841176 
L 546.816811 559.039222 
L 551.91503 589.827631 
L 557.013248 629.845823 
L 562.111466 576.454335 
L 567.209685 562.401909 
L 572.307903 578.762446 
L 577.406122 531.549859 
L 582.50434 570.888373 
L 587.602558 536.075796 
L 592.700777 620.229695 
L 597.798995 620.031745 
L 602.897213 546.624669 
L 607.995432 591.640785 
L 613.09365 617.166521 
L 618.191868 533.42715 
L 623.290087 597.1246 
L 628.388305 552.841133 
L 633.486524 555.567508 
L 638.584742 538.283763 
L 643.68296 566.810238 
L 648.781179 552.826813 
L 653.879397 597.000172 
L 658.977615 605.676808 
L 664.075834 536.90156 
L 669.174052 588.299102 
L 674.27227 529.32547 
L 679.370489 562.44071 
L 684.468707 567.027399 
L 689.566926 622.726944 
L 694.665144 531.012091 
L 699.763362 585.901592 
L 704.861581 571.785524 
L 715.058017 609.291695 
L 720.156236 536.078256 
L 725.254454 572.303035 
L 730.352672 635.018937 
L 735.450891 567.527404 
L 740.549109 599.445201 
L 745.647328 577.425416 
L 750.745546 537.99414 
L 755.843764 596.080389 
L 760.941983 535.511797 
L 766.040201 566.844528 
L 771.138419 633.595995 
L 776.236638 533.215245 
L 781.334856 559.42413 
L 786.433074 525.756522 
L 791.531293 616.398922 
L 796.629511 620.266937 
L 801.72773 532.868245 
L 806.825948 558.773551 
L 811.924166 628.08274 
L 817.022385 552.330124 
L 822.120603 552.504476 
L 827.218821 533.919821 
L 832.31704 557.157709 
L 837.415258 621.680416 
L 842.513476 633.150037 
L 847.611695 632.454454 
L 852.709913 632.224217 
L 857.808132 608.282621 
L 862.90635 540.841377 
L 868.004568 576.131898 
L 873.102787 574.594689 
L 878.201005 542.818749 
L 883.299223 621.691144 
L 888.397442 604.659857 
L 893.49566 570.975805 
L 898.593878 528.802952 
L 903.692097 573.692834 
L 908.790315 633.285492 
L 913.888534 547.367251 
L 918.986752 609.736973 
L 924.08497 546.656102 
L 929.183189 592.719309 
L 934.281407 540.455298 
L 939.379625 553.246611 
L 944.477844 574.219119 
L 949.576062 620.341707 
L 954.67428 628.751034 
L 959.772499 622.002066 
L 964.870717 630.439305 
L 969.968936 623.523719 
L 975.067154 610.535186 
L 980.165372 556.996832 
L 985.263591 573.837122 
L 990.361809 633.954756 
L 995.460027 627.426353 
L 1000.558246 529.057791 
L 1005.656464 572.916013 
L 1010.754683 612.998086 
L 1015.852901 607.61079 
L 1020.951119 553.608725 
L 1026.049338 613.862092 
L 1036.245774 528.75634 
L 1041.343993 542.291593 
L 1046.442211 608.98177 
L 1051.540429 581.082875 
L 1056.638648 567.218576 
L 1061.736866 544.252576 
L 1066.835085 618.107333 
L 1071.933303 633.293303 
L 1077.031521 627.640838 
L 1082.12974 581.898631 
L 1087.227958 568.715719 
L 1092.326176 572.833502 
L 1097.424395 600.465086 
L 1102.522613 526.713143 
L 1107.620831 571.636581 
L 1112.71905 593.567462 
L 1117.817268 574.800563 
L 1122.915487 553.442975 
L 1128.013705 561.804398 
L 1133.111923 606.227083 
L 1138.210142 628.04597 
L 1143.30836 594.672442 
L 1148.406578 566.146029 
L 1153.504797 612.242082 
L 1158.603015 552.627602 
L 1163.701233 628.023814 
L 1168.799452 606.732984 
L 1173.89767 546.914371 
L 1178.995889 614.081308 
L 1184.094107 565.075506 
L 1189.192325 577.687768 
L 1194.290544 533.723871 
L 1199.388762 606.405382 
L 1204.48698 628.087034 
L 1209.585199 554.571191 
L 1214.683417 550.493617 
L 1219.781635 535.590828 
L 1224.879854 532.936738 
L 1229.978072 633.801419 
L 1235.076291 609.584492 
L 1240.174509 567.567679 
L 1245.272727 531.064053 
L 1245.272727 531.064053 
" style="fill:none;stroke:#ff0000;stroke-linecap:square;stroke-width:1.5;"/>
   </g>
   <g id="patch_21">
    <path d="M 180 640.8 
L 180 520.278261 
" style="fill:none;stroke:#000000;stroke-linecap:square;stroke-linejoin:miter;stroke-width:0.8;"/>
   </g>
   <g id="patch_22">
    <path d="M 1296 640.8 
L 1296 520.278261 
" style="fill:none;stroke:#000000;stroke-linecap:square;stroke-linejoin:miter;stroke-width:0.8;"/>
   </g>
   <g id="patch_23">
    <path d="M 180 640.8 
L 1296 640.8 
" style="fill:none;stroke:#000000;stroke-linecap:square;stroke-linejoin:miter;stroke-width:0.8;"/>
   </g>
   <g id="patch_24">
    <path d="M 180 520.278261 
L 1296 520.278261 
" style="fill:none;stroke:#000000;stroke-linecap:square;stroke-linejoin:miter;stroke-width:0.8;"/>
   </g>
   <g id="legend_4">
    <g id="patch_25">
     <path d="M 1194.742188 542.956386 
L 1289 542.956386 
Q 1291 542.956386 1291 540.956386 
L 1291 527.278261 
Q 1291 525.278261 1289 525.278261 
L 1194.742188 525.278261 
Q 1192.742188 525.278261 1192.742188 527.278261 
L 1192.742188 540.956386 
Q 1192.742188 542.956386 1194.742188 542.956386 
z
" style="fill:#ffffff;opacity:0.8;stroke:#cccccc;stroke-linejoin:miter;"/>
    </g>
    <g id="line2d_63">
     <path d="M 1196.742188 533.376698 
L 1216.742188 533.376698 
" style="fill:none;stroke:#ff0000;stroke-linecap:square;stroke-width:1.5;"/>
    </g>
    <g id="line2d_64"/>
    <g id="text_55">
     <!-- ControlInput -->
     <g transform="translate(1224.742188 536.876698)scale(0.1 -0.1)">
      <use xlink:href="#DejaVuSans-67"/>
      <use x="69.824219" xlink:href="#DejaVuSans-111"/>
      <use x="131.005859" xlink:href="#DejaVuSans-110"/>
      <use x="194.384766" xlink:href="#DejaVuSans-116"/>
      <use x="233.59375" xlink:href="#DejaVuSans-114"/>
      <use x="274.675781" xlink:href="#DejaVuSans-111"/>
      <use x="335.857422" xlink:href="#DejaVuSans-108"/>
      <use x="363.640625" xlink:href="#DejaVuSans-73"/>
      <use x="393.132812" xlink:href="#DejaVuSans-110"/>
      <use x="456.511719" xlink:href="#DejaVuSans-112"/>
      <use x="519.988281" xlink:href="#DejaVuSans-117"/>
      <use x="583.367188" xlink:href="#DejaVuSans-116"/>
     </g>
    </g>
   </g>
  </g>
 </g>
 <defs>
  <clipPath id="pa53784f971">
   <rect height="120.521739" width="1116" x="180" y="86.4"/>
  </clipPath>
  <clipPath id="pa34ba133d8">
   <rect height="120.521739" width="1116" x="180" y="231.026087"/>
  </clipPath>
  <clipPath id="p0e724522c0">
   <rect height="120.521739" width="1116" x="180" y="375.652174"/>
  </clipPath>
  <clipPath id="pb2baa8ed1a">
   <rect height="120.521739" width="1116" x="180" y="520.278261"/>
  </clipPath>
 </defs>
</svg>
