<?xml version="1.0" encoding="utf-8" standalone="no"?>
<!DOCTYPE svg PUBLIC "-//W3C//DTD SVG 1.1//EN"
  "http://www.w3.org/Graphics/SVG/1.1/DTD/svg11.dtd">
<!-- Created with matplotlib (https://matplotlib.org/) -->
<svg height="720pt" version="1.1" viewBox="0 0 1440 720" width="1440pt" xmlns="http://www.w3.org/2000/svg" xmlns:xlink="http://www.w3.org/1999/xlink">
 <defs>
  <style type="text/css">
*{stroke-linecap:butt;stroke-linejoin:round;}
  </style>
 </defs>
 <g id="figure_1">
  <g id="patch_1">
   <path d="M 0 720 
L 1440 720 
L 1440 0 
L 0 0 
z
" style="fill:#ffffff;"/>
  </g>
  <g id="axes_1">
   <g id="patch_2">
    <path d="M 180 206.921739 
L 1296 206.921739 
L 1296 86.4 
L 180 86.4 
z
" style="fill:#ffffff;"/>
   </g>
   <g id="matplotlib.axis_1">
    <g id="xtick_1">
     <g id="line2d_1">
      <defs>
       <path d="M 0 0 
L 0 3.5 
" id="m4c54341f41" style="stroke:#000000;stroke-width:0.8;"/>
      </defs>
      <g>
       <use style="stroke:#000000;stroke-width:0.8;" x="230.727273" xlink:href="#m4c54341f41" y="206.921739"/>
      </g>
     </g>
     <g id="text_1">
      <!-- 0 -->
      <defs>
       <path d="M 31.78125 66.40625 
Q 24.171875 66.40625 20.328125 58.90625 
Q 16.5 51.421875 16.5 36.375 
Q 16.5 21.390625 20.328125 13.890625 
Q 24.171875 6.390625 31.78125 6.390625 
Q 39.453125 6.390625 43.28125 13.890625 
Q 47.125 21.390625 47.125 36.375 
Q 47.125 51.421875 43.28125 58.90625 
Q 39.453125 66.40625 31.78125 66.40625 
z
M 31.78125 74.21875 
Q 44.046875 74.21875 50.515625 64.515625 
Q 56.984375 54.828125 56.984375 36.375 
Q 56.984375 17.96875 50.515625 8.265625 
Q 44.046875 -1.421875 31.78125 -1.421875 
Q 19.53125 -1.421875 13.0625 8.265625 
Q 6.59375 17.96875 6.59375 36.375 
Q 6.59375 54.828125 13.0625 64.515625 
Q 19.53125 74.21875 31.78125 74.21875 
z
" id="DejaVuSans-48"/>
      </defs>
      <g transform="translate(227.546023 221.520177)scale(0.1 -0.1)">
       <use xlink:href="#DejaVuSans-48"/>
      </g>
     </g>
    </g>
    <g id="xtick_2">
     <g id="line2d_2">
      <g>
       <use style="stroke:#000000;stroke-width:0.8;" x="434.656007" xlink:href="#m4c54341f41" y="206.921739"/>
      </g>
     </g>
     <g id="text_2">
      <!-- 2 -->
      <defs>
       <path d="M 19.1875 8.296875 
L 53.609375 8.296875 
L 53.609375 0 
L 7.328125 0 
L 7.328125 8.296875 
Q 12.9375 14.109375 22.625 23.890625 
Q 32.328125 33.6875 34.8125 36.53125 
Q 39.546875 41.84375 41.421875 45.53125 
Q 43.3125 49.21875 43.3125 52.78125 
Q 43.3125 58.59375 39.234375 62.25 
Q 35.15625 65.921875 28.609375 65.921875 
Q 23.96875 65.921875 18.8125 64.3125 
Q 13.671875 62.703125 7.8125 59.421875 
L 7.8125 69.390625 
Q 13.765625 71.78125 18.9375 73 
Q 24.125 74.21875 28.421875 74.21875 
Q 39.75 74.21875 46.484375 68.546875 
Q 53.21875 62.890625 53.21875 53.421875 
Q 53.21875 48.921875 51.53125 44.890625 
Q 49.859375 40.875 45.40625 35.40625 
Q 44.1875 33.984375 37.640625 27.21875 
Q 31.109375 20.453125 19.1875 8.296875 
z
" id="DejaVuSans-50"/>
      </defs>
      <g transform="translate(431.474757 221.520177)scale(0.1 -0.1)">
       <use xlink:href="#DejaVuSans-50"/>
      </g>
     </g>
    </g>
    <g id="xtick_3">
     <g id="line2d_3">
      <g>
       <use style="stroke:#000000;stroke-width:0.8;" x="638.584742" xlink:href="#m4c54341f41" y="206.921739"/>
      </g>
     </g>
     <g id="text_3">
      <!-- 4 -->
      <defs>
       <path d="M 37.796875 64.3125 
L 12.890625 25.390625 
L 37.796875 25.390625 
z
M 35.203125 72.90625 
L 47.609375 72.90625 
L 47.609375 25.390625 
L 58.015625 25.390625 
L 58.015625 17.1875 
L 47.609375 17.1875 
L 47.609375 0 
L 37.796875 0 
L 37.796875 17.1875 
L 4.890625 17.1875 
L 4.890625 26.703125 
z
" id="DejaVuSans-52"/>
      </defs>
      <g transform="translate(635.403492 221.520177)scale(0.1 -0.1)">
       <use xlink:href="#DejaVuSans-52"/>
      </g>
     </g>
    </g>
    <g id="xtick_4">
     <g id="line2d_4">
      <g>
       <use style="stroke:#000000;stroke-width:0.8;" x="842.513476" xlink:href="#m4c54341f41" y="206.921739"/>
      </g>
     </g>
     <g id="text_4">
      <!-- 6 -->
      <defs>
       <path d="M 33.015625 40.375 
Q 26.375 40.375 22.484375 35.828125 
Q 18.609375 31.296875 18.609375 23.390625 
Q 18.609375 15.53125 22.484375 10.953125 
Q 26.375 6.390625 33.015625 6.390625 
Q 39.65625 6.390625 43.53125 10.953125 
Q 47.40625 15.53125 47.40625 23.390625 
Q 47.40625 31.296875 43.53125 35.828125 
Q 39.65625 40.375 33.015625 40.375 
z
M 52.59375 71.296875 
L 52.59375 62.3125 
Q 48.875 64.0625 45.09375 64.984375 
Q 41.3125 65.921875 37.59375 65.921875 
Q 27.828125 65.921875 22.671875 59.328125 
Q 17.53125 52.734375 16.796875 39.40625 
Q 19.671875 43.65625 24.015625 45.921875 
Q 28.375 48.1875 33.59375 48.1875 
Q 44.578125 48.1875 50.953125 41.515625 
Q 57.328125 34.859375 57.328125 23.390625 
Q 57.328125 12.15625 50.6875 5.359375 
Q 44.046875 -1.421875 33.015625 -1.421875 
Q 20.359375 -1.421875 13.671875 8.265625 
Q 6.984375 17.96875 6.984375 36.375 
Q 6.984375 53.65625 15.1875 63.9375 
Q 23.390625 74.21875 37.203125 74.21875 
Q 40.921875 74.21875 44.703125 73.484375 
Q 48.484375 72.75 52.59375 71.296875 
z
" id="DejaVuSans-54"/>
      </defs>
      <g transform="translate(839.332226 221.520177)scale(0.1 -0.1)">
       <use xlink:href="#DejaVuSans-54"/>
      </g>
     </g>
    </g>
    <g id="xtick_5">
     <g id="line2d_5">
      <g>
       <use style="stroke:#000000;stroke-width:0.8;" x="1046.442211" xlink:href="#m4c54341f41" y="206.921739"/>
      </g>
     </g>
     <g id="text_5">
      <!-- 8 -->
      <defs>
       <path d="M 31.78125 34.625 
Q 24.75 34.625 20.71875 30.859375 
Q 16.703125 27.09375 16.703125 20.515625 
Q 16.703125 13.921875 20.71875 10.15625 
Q 24.75 6.390625 31.78125 6.390625 
Q 38.8125 6.390625 42.859375 10.171875 
Q 46.921875 13.96875 46.921875 20.515625 
Q 46.921875 27.09375 42.890625 30.859375 
Q 38.875 34.625 31.78125 34.625 
z
M 21.921875 38.8125 
Q 15.578125 40.375 12.03125 44.71875 
Q 8.5 49.078125 8.5 55.328125 
Q 8.5 64.0625 14.71875 69.140625 
Q 20.953125 74.21875 31.78125 74.21875 
Q 42.671875 74.21875 48.875 69.140625 
Q 55.078125 64.0625 55.078125 55.328125 
Q 55.078125 49.078125 51.53125 44.71875 
Q 48 40.375 41.703125 38.8125 
Q 48.828125 37.15625 52.796875 32.3125 
Q 56.78125 27.484375 56.78125 20.515625 
Q 56.78125 9.90625 50.3125 4.234375 
Q 43.84375 -1.421875 31.78125 -1.421875 
Q 19.734375 -1.421875 13.25 4.234375 
Q 6.78125 9.90625 6.78125 20.515625 
Q 6.78125 27.484375 10.78125 32.3125 
Q 14.796875 37.15625 21.921875 38.8125 
z
M 18.3125 54.390625 
Q 18.3125 48.734375 21.84375 45.5625 
Q 25.390625 42.390625 31.78125 42.390625 
Q 38.140625 42.390625 41.71875 45.5625 
Q 45.3125 48.734375 45.3125 54.390625 
Q 45.3125 60.0625 41.71875 63.234375 
Q 38.140625 66.40625 31.78125 66.40625 
Q 25.390625 66.40625 21.84375 63.234375 
Q 18.3125 60.0625 18.3125 54.390625 
z
" id="DejaVuSans-56"/>
      </defs>
      <g transform="translate(1043.260961 221.520177)scale(0.1 -0.1)">
       <use xlink:href="#DejaVuSans-56"/>
      </g>
     </g>
    </g>
    <g id="xtick_6">
     <g id="line2d_6">
      <g>
       <use style="stroke:#000000;stroke-width:0.8;" x="1250.370946" xlink:href="#m4c54341f41" y="206.921739"/>
      </g>
     </g>
     <g id="text_6">
      <!-- 10 -->
      <defs>
       <path d="M 12.40625 8.296875 
L 28.515625 8.296875 
L 28.515625 63.921875 
L 10.984375 60.40625 
L 10.984375 69.390625 
L 28.421875 72.90625 
L 38.28125 72.90625 
L 38.28125 8.296875 
L 54.390625 8.296875 
L 54.390625 0 
L 12.40625 0 
z
" id="DejaVuSans-49"/>
      </defs>
      <g transform="translate(1244.008446 221.520177)scale(0.1 -0.1)">
       <use xlink:href="#DejaVuSans-49"/>
       <use x="63.623047" xlink:href="#DejaVuSans-48"/>
      </g>
     </g>
    </g>
   </g>
   <g id="matplotlib.axis_2">
    <g id="ytick_1">
     <g id="line2d_7">
      <defs>
       <path d="M 0 0 
L -3.5 0 
" id="me4a713195b" style="stroke:#000000;stroke-width:0.8;"/>
      </defs>
      <g>
       <use style="stroke:#000000;stroke-width:0.8;" x="180" xlink:href="#me4a713195b" y="194.634286"/>
      </g>
     </g>
     <g id="text_7">
      <!-- −1.0 -->
      <defs>
       <path d="M 10.59375 35.5 
L 73.1875 35.5 
L 73.1875 27.203125 
L 10.59375 27.203125 
z
" id="DejaVuSans-8722"/>
       <path d="M 10.6875 12.40625 
L 21 12.40625 
L 21 0 
L 10.6875 0 
z
" id="DejaVuSans-46"/>
      </defs>
      <g transform="translate(148.717187 198.433505)scale(0.1 -0.1)">
       <use xlink:href="#DejaVuSans-8722"/>
       <use x="83.789062" xlink:href="#DejaVuSans-49"/>
       <use x="147.412109" xlink:href="#DejaVuSans-46"/>
       <use x="179.199219" xlink:href="#DejaVuSans-48"/>
      </g>
     </g>
    </g>
    <g id="ytick_2">
     <g id="line2d_8">
      <g>
       <use style="stroke:#000000;stroke-width:0.8;" x="180" xlink:href="#me4a713195b" y="167.268895"/>
      </g>
     </g>
     <g id="text_8">
      <!-- −0.8 -->
      <g transform="translate(148.717187 171.068114)scale(0.1 -0.1)">
       <use xlink:href="#DejaVuSans-8722"/>
       <use x="83.789062" xlink:href="#DejaVuSans-48"/>
       <use x="147.412109" xlink:href="#DejaVuSans-46"/>
       <use x="179.199219" xlink:href="#DejaVuSans-56"/>
      </g>
     </g>
    </g>
    <g id="ytick_3">
     <g id="line2d_9">
      <g>
       <use style="stroke:#000000;stroke-width:0.8;" x="180" xlink:href="#me4a713195b" y="139.903505"/>
      </g>
     </g>
     <g id="text_9">
      <!-- −0.6 -->
      <g transform="translate(148.717187 143.702723)scale(0.1 -0.1)">
       <use xlink:href="#DejaVuSans-8722"/>
       <use x="83.789062" xlink:href="#DejaVuSans-48"/>
       <use x="147.412109" xlink:href="#DejaVuSans-46"/>
       <use x="179.199219" xlink:href="#DejaVuSans-54"/>
      </g>
     </g>
    </g>
    <g id="ytick_4">
     <g id="line2d_10">
      <g>
       <use style="stroke:#000000;stroke-width:0.8;" x="180" xlink:href="#me4a713195b" y="112.538114"/>
      </g>
     </g>
     <g id="text_10">
      <!-- −0.4 -->
      <g transform="translate(148.717187 116.337333)scale(0.1 -0.1)">
       <use xlink:href="#DejaVuSans-8722"/>
       <use x="83.789062" xlink:href="#DejaVuSans-48"/>
       <use x="147.412109" xlink:href="#DejaVuSans-46"/>
       <use x="179.199219" xlink:href="#DejaVuSans-52"/>
      </g>
     </g>
    </g>
    <g id="text_11">
     <!-- TD State:0 -->
     <defs>
      <path d="M -0.296875 72.90625 
L 61.375 72.90625 
L 61.375 64.59375 
L 35.5 64.59375 
L 35.5 0 
L 25.59375 0 
L 25.59375 64.59375 
L -0.296875 64.59375 
z
" id="DejaVuSans-84"/>
      <path d="M 19.671875 64.796875 
L 19.671875 8.109375 
L 31.59375 8.109375 
Q 46.6875 8.109375 53.6875 14.9375 
Q 60.6875 21.78125 60.6875 36.53125 
Q 60.6875 51.171875 53.6875 57.984375 
Q 46.6875 64.796875 31.59375 64.796875 
z
M 9.8125 72.90625 
L 30.078125 72.90625 
Q 51.265625 72.90625 61.171875 64.09375 
Q 71.09375 55.28125 71.09375 36.53125 
Q 71.09375 17.671875 61.125 8.828125 
Q 51.171875 0 30.078125 0 
L 9.8125 0 
z
" id="DejaVuSans-68"/>
      <path id="DejaVuSans-32"/>
      <path d="M 53.515625 70.515625 
L 53.515625 60.890625 
Q 47.90625 63.578125 42.921875 64.890625 
Q 37.9375 66.21875 33.296875 66.21875 
Q 25.25 66.21875 20.875 63.09375 
Q 16.5 59.96875 16.5 54.203125 
Q 16.5 49.359375 19.40625 46.890625 
Q 22.3125 44.4375 30.421875 42.921875 
L 36.375 41.703125 
Q 47.40625 39.59375 52.65625 34.296875 
Q 57.90625 29 57.90625 20.125 
Q 57.90625 9.515625 50.796875 4.046875 
Q 43.703125 -1.421875 29.984375 -1.421875 
Q 24.8125 -1.421875 18.96875 -0.25 
Q 13.140625 0.921875 6.890625 3.21875 
L 6.890625 13.375 
Q 12.890625 10.015625 18.65625 8.296875 
Q 24.421875 6.59375 29.984375 6.59375 
Q 38.421875 6.59375 43.015625 9.90625 
Q 47.609375 13.234375 47.609375 19.390625 
Q 47.609375 24.75 44.3125 27.78125 
Q 41.015625 30.8125 33.5 32.328125 
L 27.484375 33.5 
Q 16.453125 35.6875 11.515625 40.375 
Q 6.59375 45.0625 6.59375 53.421875 
Q 6.59375 63.09375 13.40625 68.65625 
Q 20.21875 74.21875 32.171875 74.21875 
Q 37.3125 74.21875 42.625 73.28125 
Q 47.953125 72.359375 53.515625 70.515625 
z
" id="DejaVuSans-83"/>
      <path d="M 18.3125 70.21875 
L 18.3125 54.6875 
L 36.8125 54.6875 
L 36.8125 47.703125 
L 18.3125 47.703125 
L 18.3125 18.015625 
Q 18.3125 11.328125 20.140625 9.421875 
Q 21.96875 7.515625 27.59375 7.515625 
L 36.8125 7.515625 
L 36.8125 0 
L 27.59375 0 
Q 17.1875 0 13.234375 3.875 
Q 9.28125 7.765625 9.28125 18.015625 
L 9.28125 47.703125 
L 2.6875 47.703125 
L 2.6875 54.6875 
L 9.28125 54.6875 
L 9.28125 70.21875 
z
" id="DejaVuSans-116"/>
      <path d="M 34.28125 27.484375 
Q 23.390625 27.484375 19.1875 25 
Q 14.984375 22.515625 14.984375 16.5 
Q 14.984375 11.71875 18.140625 8.90625 
Q 21.296875 6.109375 26.703125 6.109375 
Q 34.1875 6.109375 38.703125 11.40625 
Q 43.21875 16.703125 43.21875 25.484375 
L 43.21875 27.484375 
z
M 52.203125 31.203125 
L 52.203125 0 
L 43.21875 0 
L 43.21875 8.296875 
Q 40.140625 3.328125 35.546875 0.953125 
Q 30.953125 -1.421875 24.3125 -1.421875 
Q 15.921875 -1.421875 10.953125 3.296875 
Q 6 8.015625 6 15.921875 
Q 6 25.140625 12.171875 29.828125 
Q 18.359375 34.515625 30.609375 34.515625 
L 43.21875 34.515625 
L 43.21875 35.40625 
Q 43.21875 41.609375 39.140625 45 
Q 35.0625 48.390625 27.6875 48.390625 
Q 23 48.390625 18.546875 47.265625 
Q 14.109375 46.140625 10.015625 43.890625 
L 10.015625 52.203125 
Q 14.9375 54.109375 19.578125 55.046875 
Q 24.21875 56 28.609375 56 
Q 40.484375 56 46.34375 49.84375 
Q 52.203125 43.703125 52.203125 31.203125 
z
" id="DejaVuSans-97"/>
      <path d="M 56.203125 29.59375 
L 56.203125 25.203125 
L 14.890625 25.203125 
Q 15.484375 15.921875 20.484375 11.0625 
Q 25.484375 6.203125 34.421875 6.203125 
Q 39.59375 6.203125 44.453125 7.46875 
Q 49.3125 8.734375 54.109375 11.28125 
L 54.109375 2.78125 
Q 49.265625 0.734375 44.1875 -0.34375 
Q 39.109375 -1.421875 33.890625 -1.421875 
Q 20.796875 -1.421875 13.15625 6.1875 
Q 5.515625 13.8125 5.515625 26.8125 
Q 5.515625 40.234375 12.765625 48.109375 
Q 20.015625 56 32.328125 56 
Q 43.359375 56 49.78125 48.890625 
Q 56.203125 41.796875 56.203125 29.59375 
z
M 47.21875 32.234375 
Q 47.125 39.59375 43.09375 43.984375 
Q 39.0625 48.390625 32.421875 48.390625 
Q 24.90625 48.390625 20.390625 44.140625 
Q 15.875 39.890625 15.1875 32.171875 
z
" id="DejaVuSans-101"/>
      <path d="M 11.71875 12.40625 
L 22.015625 12.40625 
L 22.015625 0 
L 11.71875 0 
z
M 11.71875 51.703125 
L 22.015625 51.703125 
L 22.015625 39.3125 
L 11.71875 39.3125 
z
" id="DejaVuSans-58"/>
     </defs>
     <g transform="translate(142.6375 173.25462)rotate(-90)scale(0.1 -0.1)">
      <use xlink:href="#DejaVuSans-84"/>
      <use x="61.083984" xlink:href="#DejaVuSans-68"/>
      <use x="138.085938" xlink:href="#DejaVuSans-32"/>
      <use x="169.873047" xlink:href="#DejaVuSans-83"/>
      <use x="233.349609" xlink:href="#DejaVuSans-116"/>
      <use x="272.558594" xlink:href="#DejaVuSans-97"/>
      <use x="333.837891" xlink:href="#DejaVuSans-116"/>
      <use x="373.046875" xlink:href="#DejaVuSans-101"/>
      <use x="434.570312" xlink:href="#DejaVuSans-58"/>
      <use x="468.261719" xlink:href="#DejaVuSans-48"/>
     </g>
    </g>
   </g>
   <g id="line2d_11">
    <path clip-path="url(#pd1deb79c75)" d="M 230.727273 108.639269 
L 235.825491 124.018145 
L 240.923709 132.475426 
L 246.021928 148.779913 
L 251.120146 165.650442 
L 256.218365 177.024492 
L 261.316583 186.789522 
L 266.414801 193.459777 
L 271.51302 195.825172 
L 276.611238 193.000882 
L 281.709456 185.091852 
L 286.807675 172.823582 
L 291.905893 157.953978 
L 297.004111 142.275101 
L 302.10233 127.554221 
L 307.200548 115.582326 
L 312.298767 113.535812 
L 317.396985 121.483523 
L 322.495203 122.170275 
L 327.593422 135.781854 
L 332.69164 149.710344 
L 337.789858 162.991758 
L 342.888077 182.101304 
L 347.986295 190.771521 
L 353.084513 197.732243 
L 358.182732 201.443478 
L 363.28095 199.082765 
L 368.379169 193.732188 
L 373.477387 184.261979 
L 378.575605 172.749449 
L 383.673824 156.457815 
L 388.772042 141.914513 
L 393.87026 129.77541 
L 398.968479 119.238732 
L 404.066697 115.728294 
L 409.164915 116.270326 
L 414.263134 127.046066 
L 419.361352 140.868404 
L 424.459571 148.246868 
L 429.557789 167.126722 
L 439.754226 186.032364 
L 444.852444 193.204232 
L 449.950662 195.572351 
L 455.048881 193.005922 
L 460.147099 184.845393 
L 465.245317 172.231932 
L 470.343536 156.764919 
L 475.441754 140.586614 
L 480.539973 125.901932 
L 485.638191 114.459311 
L 490.736409 117.731355 
L 495.834628 124.669861 
L 500.932846 128.095225 
L 506.031064 142.181688 
L 511.129283 160.315099 
L 516.227501 177.169937 
L 526.423938 194.062323 
L 531.522156 199.317236 
L 536.620375 198.563943 
L 541.718593 194.772196 
L 546.816811 186.137782 
L 551.91503 172.483644 
L 557.013248 156.071259 
L 562.111466 140.692277 
L 567.209685 126.299624 
L 572.307903 114.437218 
L 577.406122 108.682828 
L 582.50434 107.875489 
L 587.602558 119.549833 
L 592.700777 130.003862 
L 597.798995 140.955293 
L 602.897213 160.095667 
L 607.995432 171.348004 
L 613.09365 181.728548 
L 618.191868 189.723797 
L 623.290087 195.004824 
L 628.388305 194.969315 
L 633.486524 189.396973 
L 638.584742 178.257101 
L 643.68296 162.771151 
L 653.879397 126.601868 
L 658.977615 110.485011 
L 664.075834 97.725868 
L 669.174052 95.379027 
L 674.27227 103.071348 
L 679.370489 103.422117 
L 684.468707 114.66881 
L 689.566926 130.486849 
L 694.665144 142.876603 
L 699.763362 167.987472 
L 704.861581 179.796374 
L 709.959799 189.098611 
L 715.058017 195.483863 
L 720.156236 199.342175 
L 725.254454 195.166499 
L 730.352672 184.283314 
L 735.450891 170.941973 
L 745.647328 135.064837 
L 750.745546 119.375011 
L 755.843764 105.344691 
L 760.941983 97.551625 
L 766.040201 97.128492 
L 771.138419 102.898434 
L 776.236638 116.820693 
L 781.334856 131.070963 
L 786.433074 149.940851 
L 796.629511 175.338256 
L 801.72773 185.736106 
L 806.825948 193.190645 
L 811.924166 195.325499 
L 817.022385 190.468005 
L 822.120603 179.436585 
L 827.218821 163.134757 
L 832.31704 143.532454 
L 837.415258 123.333669 
L 842.513476 105.477178 
L 847.611695 91.878261 
L 852.709913 94.872585 
L 857.808132 98.229186 
L 862.90635 108.813333 
L 868.004568 122.125583 
L 873.102787 136.060854 
L 878.201005 152.848801 
L 883.299223 172.8885 
L 888.397442 183.752243 
L 893.49566 193.333529 
L 898.593878 199.156963 
L 903.692097 197.4804 
L 908.790315 189.135262 
L 913.888534 178.193635 
L 918.986752 160.746298 
L 924.08497 143.979018 
L 929.183189 126.153807 
L 934.281407 112.656892 
L 939.379625 102.32617 
L 944.477844 96.482241 
L 949.576062 101.130431 
L 954.67428 110.708733 
L 964.870717 131.684308 
L 969.968936 145.377869 
L 975.067154 162.71496 
L 980.165372 174.705975 
L 985.263591 184.976648 
L 990.361809 192.800566 
L 995.460027 195.913806 
L 1000.558246 193.468487 
L 1005.656464 185.976156 
L 1010.754683 173.856365 
L 1015.852901 158.972374 
L 1020.951119 143.275784 
L 1026.049338 128.46056 
L 1031.147556 116.209747 
L 1036.245774 109.889152 
L 1041.343993 115.983717 
L 1046.442211 115.969763 
L 1051.540429 126.798188 
L 1056.638648 141.001975 
L 1061.736866 152.819718 
L 1066.835085 175.681766 
L 1077.031521 191.384441 
L 1082.12974 197.72717 
L 1087.227958 198.957479 
L 1092.326176 194.330232 
L 1097.424395 183.803084 
L 1102.522613 171.313098 
L 1112.71905 138.858198 
L 1117.817268 125.143591 
L 1122.915487 114.779521 
L 1128.013705 108.186083 
L 1133.111923 109.383094 
L 1138.210142 117.797497 
L 1143.30836 129.293304 
L 1148.406578 141.465845 
L 1153.504797 152.773166 
L 1158.603015 169.21708 
L 1163.701233 179.883508 
L 1168.799452 188.610976 
L 1173.89767 194.108907 
L 1178.995889 195.819267 
L 1184.094107 192.049818 
L 1189.192325 183.402224 
L 1194.290544 170.482931 
L 1204.48698 139.252893 
L 1209.585199 125.151649 
L 1214.683417 113.41047 
L 1219.781635 109.137507 
L 1224.879854 117.230133 
L 1229.978072 117.211661 
L 1235.076291 128.096318 
L 1240.174509 143.424524 
L 1245.272727 154.987815 
L 1245.272727 154.987815 
" style="fill:none;stroke:#000000;stroke-linecap:square;stroke-width:4;"/>
   </g>
   <g id="line2d_12">
    <path clip-path="url(#pd1deb79c75)" d="M 230.727273 110.483027 
L 235.825491 119.408228 
L 240.923709 130.966264 
L 246.021928 144.834492 
L 251.120146 159.47825 
L 256.218365 173.267017 
L 261.316583 184.637471 
L 266.414801 192.136171 
L 271.51302 194.630633 
L 276.611238 191.732658 
L 281.709456 184.015209 
L 286.807675 172.600389 
L 291.905893 159.782725 
L 297.004111 146.51578 
L 302.10233 135.614743 
L 307.200548 127.217458 
L 312.298767 122.455116 
L 317.396985 121.437397 
L 322.495203 124.983535 
L 327.593422 132.704879 
L 332.69164 142.939756 
L 337.789858 154.576254 
L 342.888077 167.359838 
L 347.986295 179.144533 
L 353.084513 188.23098 
L 358.182732 193.50344 
L 363.28095 194.381717 
L 368.379169 190.213983 
L 373.477387 181.328098 
L 378.575605 169.722686 
L 388.772042 143.386596 
L 393.87026 133.061826 
L 398.968479 125.817256 
L 404.066697 122.539244 
L 409.164915 122.805733 
L 414.263134 127.256184 
L 419.361352 135.785728 
L 424.459571 146.308406 
L 429.557789 158.977122 
L 434.656007 172.425708 
L 439.754226 184.197601 
L 444.852444 191.969827 
L 449.950662 194.62834 
L 455.048881 191.627707 
L 460.147099 183.711648 
L 465.245317 171.785321 
L 470.343536 158.216183 
L 475.441754 145.064694 
L 480.539973 134.270158 
L 485.638191 127.225171 
L 490.736409 123.430315 
L 495.834628 123.991818 
L 500.932846 128.770403 
L 506.031064 136.992452 
L 511.129283 148.618472 
L 521.32572 174.749619 
L 526.423938 185.673293 
L 531.522156 192.618124 
L 536.620375 194.562431 
L 541.718593 190.815988 
L 546.816811 182.198294 
L 551.91503 170.076236 
L 562.111466 141.630059 
L 567.209685 129.616487 
L 572.307903 120.643456 
L 577.406122 116.222004 
L 582.50434 116.034106 
L 587.602558 120.670476 
L 592.700777 128.430896 
L 597.798995 138.79489 
L 602.897213 151.941512 
L 607.995432 165.759443 
L 613.09365 178.296363 
L 618.191868 188.447386 
L 623.290087 193.931319 
L 628.388305 193.858636 
L 633.486524 187.946315 
L 638.584742 176.834706 
L 643.68296 162.341474 
L 648.781179 146.357745 
L 653.879397 131.475993 
L 658.977615 119.486889 
L 664.075834 110.283767 
L 669.174052 105.314722 
L 674.27227 103.832641 
L 679.370489 106.481021 
L 684.468707 113.205933 
L 689.566926 124.529308 
L 694.665144 138.114687 
L 704.861581 169.031413 
L 709.959799 182.434443 
L 715.058017 191.624095 
L 720.156236 194.631116 
L 725.254454 191.264146 
L 730.352672 181.755305 
L 735.450891 167.963988 
L 745.647328 135.748689 
L 750.745546 122.290383 
L 755.843764 111.805397 
L 760.941983 106.074874 
L 766.040201 104.930829 
L 771.138419 107.275878 
L 776.236638 114.715122 
L 781.334856 126.29819 
L 786.433074 141.572167 
L 791.531293 157.619722 
L 796.629511 172.645117 
L 801.72773 185.378441 
L 806.825948 193.122327 
L 811.924166 194.286957 
L 817.022385 188.82076 
L 822.120603 177.419471 
L 827.218821 161.568869 
L 832.31704 143.689512 
L 837.415258 127.047969 
L 842.513476 113.790943 
L 847.611695 105.123846 
L 852.709913 101.657954 
L 857.808132 103.178088 
L 862.90635 108.433853 
L 868.004568 117.76491 
L 873.102787 130.536442 
L 878.201005 145.244219 
L 883.299223 161.497587 
L 888.397442 176.764392 
L 893.49566 188.281228 
L 898.593878 194.06799 
L 903.692097 193.543994 
L 908.790315 186.51375 
L 913.888534 174.512922 
L 918.986752 159.129117 
L 924.08497 143.349205 
L 929.183189 128.612466 
L 934.281407 117.240943 
L 939.379625 110.027875 
L 944.477844 107.112837 
L 949.576062 107.863141 
L 954.67428 112.098529 
L 959.772499 119.719977 
L 964.870717 130.143854 
L 969.968936 142.755894 
L 975.067154 156.654725 
L 980.165372 170.935736 
L 985.263591 183.307951 
L 990.361809 191.490951 
L 995.460027 194.611208 
L 1000.558246 192.28152 
L 1005.656464 184.668169 
L 1010.754683 173.433827 
L 1015.852901 160.597198 
L 1020.951119 147.389965 
L 1026.049338 136.193161 
L 1031.147556 127.58308 
L 1036.245774 121.574299 
L 1041.343993 118.772038 
L 1046.442211 120.455679 
L 1051.540429 126.049084 
L 1056.638648 134.925691 
L 1061.736866 146.036778 
L 1066.835085 159.334398 
L 1071.933303 173.178725 
L 1077.031521 185.162523 
L 1082.12974 192.724087 
L 1087.227958 194.500603 
L 1092.326176 190.276757 
L 1097.424395 180.687577 
L 1102.522613 168.017863 
L 1107.620831 154.089531 
L 1112.71905 140.50008 
L 1117.817268 129.022269 
L 1122.915487 121.101665 
L 1128.013705 117.265028 
L 1133.111923 117.042726 
L 1138.210142 120.085407 
L 1143.30836 126.758755 
L 1148.406578 137.021723 
L 1153.504797 149.289922 
L 1158.603015 163.12067 
L 1163.701233 175.898996 
L 1168.799452 186.266984 
L 1173.89767 192.96514 
L 1178.995889 194.525181 
L 1184.094107 190.814112 
L 1189.192325 182.432439 
L 1194.290544 170.317305 
L 1199.388762 156.90943 
L 1204.48698 144.527269 
L 1209.585199 133.681396 
L 1214.683417 125.27539 
L 1219.781635 119.69367 
L 1224.879854 117.240401 
L 1229.978072 119.740758 
L 1235.076291 126.607834 
L 1240.174509 136.64194 
L 1245.272727 148.489495 
L 1245.272727 148.489495 
" style="fill:none;stroke:#ff0000;stroke-linecap:square;stroke-width:1.5;"/>
   </g>
   <g id="patch_3">
    <path d="M 180 206.921739 
L 180 86.4 
" style="fill:none;stroke:#000000;stroke-linecap:square;stroke-linejoin:miter;stroke-width:0.8;"/>
   </g>
   <g id="patch_4">
    <path d="M 1296 206.921739 
L 1296 86.4 
" style="fill:none;stroke:#000000;stroke-linecap:square;stroke-linejoin:miter;stroke-width:0.8;"/>
   </g>
   <g id="patch_5">
    <path d="M 180 206.921739 
L 1296 206.921739 
" style="fill:none;stroke:#000000;stroke-linecap:square;stroke-linejoin:miter;stroke-width:0.8;"/>
   </g>
   <g id="patch_6">
    <path d="M 180 86.4 
L 1296 86.4 
" style="fill:none;stroke:#000000;stroke-linecap:square;stroke-linejoin:miter;stroke-width:0.8;"/>
   </g>
   <g id="legend_1">
    <g id="patch_7">
     <path d="M 1234.3125 123.75625 
L 1289 123.75625 
Q 1291 123.75625 1291 121.75625 
L 1291 93.4 
Q 1291 91.4 1289 91.4 
L 1234.3125 91.4 
Q 1232.3125 91.4 1232.3125 93.4 
L 1232.3125 121.75625 
Q 1232.3125 123.75625 1234.3125 123.75625 
z
" style="fill:#ffffff;opacity:0.8;stroke:#cccccc;stroke-linejoin:miter;"/>
    </g>
    <g id="line2d_13">
     <path d="M 1236.3125 99.498438 
L 1256.3125 99.498438 
" style="fill:none;stroke:#000000;stroke-linecap:square;stroke-width:4;"/>
    </g>
    <g id="line2d_14"/>
    <g id="text_12">
     <!-- Pred -->
     <defs>
      <path d="M 19.671875 64.796875 
L 19.671875 37.40625 
L 32.078125 37.40625 
Q 38.96875 37.40625 42.71875 40.96875 
Q 46.484375 44.53125 46.484375 51.125 
Q 46.484375 57.671875 42.71875 61.234375 
Q 38.96875 64.796875 32.078125 64.796875 
z
M 9.8125 72.90625 
L 32.078125 72.90625 
Q 44.34375 72.90625 50.609375 67.359375 
Q 56.890625 61.8125 56.890625 51.125 
Q 56.890625 40.328125 50.609375 34.8125 
Q 44.34375 29.296875 32.078125 29.296875 
L 19.671875 29.296875 
L 19.671875 0 
L 9.8125 0 
z
" id="DejaVuSans-80"/>
      <path d="M 41.109375 46.296875 
Q 39.59375 47.171875 37.8125 47.578125 
Q 36.03125 48 33.890625 48 
Q 26.265625 48 22.1875 43.046875 
Q 18.109375 38.09375 18.109375 28.8125 
L 18.109375 0 
L 9.078125 0 
L 9.078125 54.6875 
L 18.109375 54.6875 
L 18.109375 46.1875 
Q 20.953125 51.171875 25.484375 53.578125 
Q 30.03125 56 36.53125 56 
Q 37.453125 56 38.578125 55.875 
Q 39.703125 55.765625 41.0625 55.515625 
z
" id="DejaVuSans-114"/>
      <path d="M 45.40625 46.390625 
L 45.40625 75.984375 
L 54.390625 75.984375 
L 54.390625 0 
L 45.40625 0 
L 45.40625 8.203125 
Q 42.578125 3.328125 38.25 0.953125 
Q 33.9375 -1.421875 27.875 -1.421875 
Q 17.96875 -1.421875 11.734375 6.484375 
Q 5.515625 14.40625 5.515625 27.296875 
Q 5.515625 40.1875 11.734375 48.09375 
Q 17.96875 56 27.875 56 
Q 33.9375 56 38.25 53.625 
Q 42.578125 51.265625 45.40625 46.390625 
z
M 14.796875 27.296875 
Q 14.796875 17.390625 18.875 11.75 
Q 22.953125 6.109375 30.078125 6.109375 
Q 37.203125 6.109375 41.296875 11.75 
Q 45.40625 17.390625 45.40625 27.296875 
Q 45.40625 37.203125 41.296875 42.84375 
Q 37.203125 48.484375 30.078125 48.484375 
Q 22.953125 48.484375 18.875 42.84375 
Q 14.796875 37.203125 14.796875 27.296875 
z
" id="DejaVuSans-100"/>
     </defs>
     <g transform="translate(1264.3125 102.998438)scale(0.1 -0.1)">
      <use xlink:href="#DejaVuSans-80"/>
      <use x="60.287109" xlink:href="#DejaVuSans-114"/>
      <use x="101.369141" xlink:href="#DejaVuSans-101"/>
      <use x="162.892578" xlink:href="#DejaVuSans-100"/>
     </g>
    </g>
    <g id="line2d_15">
     <path d="M 1236.3125 114.176563 
L 1256.3125 114.176563 
" style="fill:none;stroke:#ff0000;stroke-linecap:square;stroke-width:1.5;"/>
    </g>
    <g id="line2d_16"/>
    <g id="text_13">
     <!-- True -->
     <defs>
      <path d="M 8.5 21.578125 
L 8.5 54.6875 
L 17.484375 54.6875 
L 17.484375 21.921875 
Q 17.484375 14.15625 20.5 10.265625 
Q 23.53125 6.390625 29.59375 6.390625 
Q 36.859375 6.390625 41.078125 11.03125 
Q 45.3125 15.671875 45.3125 23.6875 
L 45.3125 54.6875 
L 54.296875 54.6875 
L 54.296875 0 
L 45.3125 0 
L 45.3125 8.40625 
Q 42.046875 3.421875 37.71875 1 
Q 33.40625 -1.421875 27.6875 -1.421875 
Q 18.265625 -1.421875 13.375 4.4375 
Q 8.5 10.296875 8.5 21.578125 
z
M 31.109375 56 
z
" id="DejaVuSans-117"/>
     </defs>
     <g transform="translate(1264.3125 117.676563)scale(0.1 -0.1)">
      <use xlink:href="#DejaVuSans-84"/>
      <use x="60.865234" xlink:href="#DejaVuSans-114"/>
      <use x="101.978516" xlink:href="#DejaVuSans-117"/>
      <use x="165.357422" xlink:href="#DejaVuSans-101"/>
     </g>
    </g>
   </g>
  </g>
  <g id="axes_2">
   <g id="patch_8">
    <path d="M 180 351.547826 
L 1296 351.547826 
L 1296 231.026087 
L 180 231.026087 
z
" style="fill:#ffffff;"/>
   </g>
   <g id="matplotlib.axis_3">
    <g id="xtick_7">
     <g id="line2d_17">
      <g>
       <use style="stroke:#000000;stroke-width:0.8;" x="230.727273" xlink:href="#m4c54341f41" y="351.547826"/>
      </g>
     </g>
     <g id="text_14">
      <!-- 0 -->
      <g transform="translate(227.546023 366.146264)scale(0.1 -0.1)">
       <use xlink:href="#DejaVuSans-48"/>
      </g>
     </g>
    </g>
    <g id="xtick_8">
     <g id="line2d_18">
      <g>
       <use style="stroke:#000000;stroke-width:0.8;" x="434.656007" xlink:href="#m4c54341f41" y="351.547826"/>
      </g>
     </g>
     <g id="text_15">
      <!-- 2 -->
      <g transform="translate(431.474757 366.146264)scale(0.1 -0.1)">
       <use xlink:href="#DejaVuSans-50"/>
      </g>
     </g>
    </g>
    <g id="xtick_9">
     <g id="line2d_19">
      <g>
       <use style="stroke:#000000;stroke-width:0.8;" x="638.584742" xlink:href="#m4c54341f41" y="351.547826"/>
      </g>
     </g>
     <g id="text_16">
      <!-- 4 -->
      <g transform="translate(635.403492 366.146264)scale(0.1 -0.1)">
       <use xlink:href="#DejaVuSans-52"/>
      </g>
     </g>
    </g>
    <g id="xtick_10">
     <g id="line2d_20">
      <g>
       <use style="stroke:#000000;stroke-width:0.8;" x="842.513476" xlink:href="#m4c54341f41" y="351.547826"/>
      </g>
     </g>
     <g id="text_17">
      <!-- 6 -->
      <g transform="translate(839.332226 366.146264)scale(0.1 -0.1)">
       <use xlink:href="#DejaVuSans-54"/>
      </g>
     </g>
    </g>
    <g id="xtick_11">
     <g id="line2d_21">
      <g>
       <use style="stroke:#000000;stroke-width:0.8;" x="1046.442211" xlink:href="#m4c54341f41" y="351.547826"/>
      </g>
     </g>
     <g id="text_18">
      <!-- 8 -->
      <g transform="translate(1043.260961 366.146264)scale(0.1 -0.1)">
       <use xlink:href="#DejaVuSans-56"/>
      </g>
     </g>
    </g>
    <g id="xtick_12">
     <g id="line2d_22">
      <g>
       <use style="stroke:#000000;stroke-width:0.8;" x="1250.370946" xlink:href="#m4c54341f41" y="351.547826"/>
      </g>
     </g>
     <g id="text_19">
      <!-- 10 -->
      <g transform="translate(1244.008446 366.146264)scale(0.1 -0.1)">
       <use xlink:href="#DejaVuSans-49"/>
       <use x="63.623047" xlink:href="#DejaVuSans-48"/>
      </g>
     </g>
    </g>
   </g>
   <g id="matplotlib.axis_4">
    <g id="ytick_5">
     <g id="line2d_23">
      <g>
       <use style="stroke:#000000;stroke-width:0.8;" x="180" xlink:href="#me4a713195b" y="345.446205"/>
      </g>
     </g>
     <g id="text_20">
      <!-- −1.0 -->
      <g transform="translate(148.717187 349.245423)scale(0.1 -0.1)">
       <use xlink:href="#DejaVuSans-8722"/>
       <use x="83.789062" xlink:href="#DejaVuSans-49"/>
       <use x="147.412109" xlink:href="#DejaVuSans-46"/>
       <use x="179.199219" xlink:href="#DejaVuSans-48"/>
      </g>
     </g>
    </g>
    <g id="ytick_6">
     <g id="line2d_24">
      <g>
       <use style="stroke:#000000;stroke-width:0.8;" x="180" xlink:href="#me4a713195b" y="318.097778"/>
      </g>
     </g>
     <g id="text_21">
      <!-- −0.5 -->
      <defs>
       <path d="M 10.796875 72.90625 
L 49.515625 72.90625 
L 49.515625 64.59375 
L 19.828125 64.59375 
L 19.828125 46.734375 
Q 21.96875 47.46875 24.109375 47.828125 
Q 26.265625 48.1875 28.421875 48.1875 
Q 40.625 48.1875 47.75 41.5 
Q 54.890625 34.8125 54.890625 23.390625 
Q 54.890625 11.625 47.5625 5.09375 
Q 40.234375 -1.421875 26.90625 -1.421875 
Q 22.3125 -1.421875 17.546875 -0.640625 
Q 12.796875 0.140625 7.71875 1.703125 
L 7.71875 11.625 
Q 12.109375 9.234375 16.796875 8.0625 
Q 21.484375 6.890625 26.703125 6.890625 
Q 35.15625 6.890625 40.078125 11.328125 
Q 45.015625 15.765625 45.015625 23.390625 
Q 45.015625 31 40.078125 35.4375 
Q 35.15625 39.890625 26.703125 39.890625 
Q 22.75 39.890625 18.8125 39.015625 
Q 14.890625 38.140625 10.796875 36.28125 
z
" id="DejaVuSans-53"/>
      </defs>
      <g transform="translate(148.717187 321.896997)scale(0.1 -0.1)">
       <use xlink:href="#DejaVuSans-8722"/>
       <use x="83.789062" xlink:href="#DejaVuSans-48"/>
       <use x="147.412109" xlink:href="#DejaVuSans-46"/>
       <use x="179.199219" xlink:href="#DejaVuSans-53"/>
      </g>
     </g>
    </g>
    <g id="ytick_7">
     <g id="line2d_25">
      <g>
       <use style="stroke:#000000;stroke-width:0.8;" x="180" xlink:href="#me4a713195b" y="290.749352"/>
      </g>
     </g>
     <g id="text_22">
      <!-- 0.0 -->
      <g transform="translate(157.096875 294.548571)scale(0.1 -0.1)">
       <use xlink:href="#DejaVuSans-48"/>
       <use x="63.623047" xlink:href="#DejaVuSans-46"/>
       <use x="95.410156" xlink:href="#DejaVuSans-48"/>
      </g>
     </g>
    </g>
    <g id="ytick_8">
     <g id="line2d_26">
      <g>
       <use style="stroke:#000000;stroke-width:0.8;" x="180" xlink:href="#me4a713195b" y="263.400925"/>
      </g>
     </g>
     <g id="text_23">
      <!-- 0.5 -->
      <g transform="translate(157.096875 267.200144)scale(0.1 -0.1)">
       <use xlink:href="#DejaVuSans-48"/>
       <use x="63.623047" xlink:href="#DejaVuSans-46"/>
       <use x="95.410156" xlink:href="#DejaVuSans-53"/>
      </g>
     </g>
    </g>
    <g id="ytick_9">
     <g id="line2d_27">
      <g>
       <use style="stroke:#000000;stroke-width:0.8;" x="180" xlink:href="#me4a713195b" y="236.052499"/>
      </g>
     </g>
     <g id="text_24">
      <!-- 1.0 -->
      <g transform="translate(157.096875 239.851718)scale(0.1 -0.1)">
       <use xlink:href="#DejaVuSans-49"/>
       <use x="63.623047" xlink:href="#DejaVuSans-46"/>
       <use x="95.410156" xlink:href="#DejaVuSans-48"/>
      </g>
     </g>
    </g>
    <g id="text_25">
     <!-- TD State:1 -->
     <g transform="translate(142.6375 317.880707)rotate(-90)scale(0.1 -0.1)">
      <use xlink:href="#DejaVuSans-84"/>
      <use x="61.083984" xlink:href="#DejaVuSans-68"/>
      <use x="138.085938" xlink:href="#DejaVuSans-32"/>
      <use x="169.873047" xlink:href="#DejaVuSans-83"/>
      <use x="233.349609" xlink:href="#DejaVuSans-116"/>
      <use x="272.558594" xlink:href="#DejaVuSans-97"/>
      <use x="333.837891" xlink:href="#DejaVuSans-116"/>
      <use x="373.046875" xlink:href="#DejaVuSans-101"/>
      <use x="434.570312" xlink:href="#DejaVuSans-58"/>
      <use x="468.261719" xlink:href="#DejaVuSans-49"/>
     </g>
    </g>
   </g>
   <g id="line2d_28">
    <path clip-path="url(#p37fd86b88a)" d="M 230.727273 238.798639 
L 235.825491 242.967035 
L 240.923709 246.391153 
L 246.021928 252.354993 
L 251.120146 255.734721 
L 256.218365 262.576271 
L 261.316583 270.935919 
L 266.414801 280.633141 
L 271.51302 291.234915 
L 276.611238 302.10331 
L 281.709456 312.429774 
L 286.807675 321.554081 
L 291.905893 328.850766 
L 297.004111 334.341749 
L 302.10233 337.843114 
L 312.298767 341.949938 
L 317.396985 342.918015 
L 322.495203 339.066548 
L 327.593422 337.769838 
L 332.69164 334.55756 
L 337.789858 331.092125 
L 342.888077 320.375514 
L 347.986295 313.377472 
L 353.084513 305.068409 
L 358.182732 295.853253 
L 363.28095 286.263995 
L 368.379169 276.036305 
L 373.477387 266.098203 
L 378.575605 257.28715 
L 383.673824 250.728131 
L 388.772042 245.561028 
L 393.87026 242.163197 
L 398.968479 240.506448 
L 404.066697 239.742593 
L 409.164915 240.205898 
L 414.263134 242.805519 
L 419.361352 247.191748 
L 424.459571 250.863327 
L 429.557789 255.935245 
L 434.656007 262.259123 
L 439.754226 270.465728 
L 444.852444 280.223737 
L 460.147099 312.664625 
L 465.245317 321.945232 
L 470.343536 329.430014 
L 475.441754 334.820077 
L 480.539973 338.20117 
L 485.638191 339.918897 
L 490.736409 342.494298 
L 495.834628 341.234376 
L 500.932846 337.912709 
L 506.031064 335.611115 
L 511.129283 332.074582 
L 516.227501 323.572472 
L 521.32572 316.688452 
L 526.423938 308.338959 
L 531.522156 298.72035 
L 536.620375 288.361899 
L 541.718593 277.268016 
L 546.816811 266.799574 
L 551.91503 257.922182 
L 557.013248 250.733829 
L 562.111466 245.153854 
L 567.209685 241.600104 
L 572.307903 239.660606 
L 577.406122 238.758975 
L 582.50434 240.056008 
L 587.602558 242.460767 
L 592.700777 243.869755 
L 597.798995 248.283271 
L 602.897213 253.408125 
L 607.995432 258.722095 
L 613.09365 265.961347 
L 618.191868 274.907062 
L 623.290087 285.242181 
L 633.486524 307.61205 
L 638.584742 318.10677 
L 643.68296 327.044975 
L 648.781179 333.968835 
L 653.879397 338.653743 
L 658.977615 341.347192 
L 669.174052 344.266157 
L 674.27227 346.057952 
L 679.370489 339.620186 
L 684.468707 339.15721 
L 689.566926 340.036822 
L 694.665144 337.68029 
L 699.763362 327.192293 
L 704.861581 320.243711 
L 709.959799 311.908443 
L 715.058017 301.722381 
L 725.254454 278.407011 
L 730.352672 267.36148 
L 735.450891 257.216469 
L 740.549109 249.414856 
L 745.647328 243.684677 
L 750.745546 240.090031 
L 755.843764 238.370511 
L 760.941983 237.552706 
L 766.040201 239.49862 
L 771.138419 236.504348 
L 776.236638 241.799269 
L 781.334856 245.976428 
L 786.433074 249.263436 
L 791.531293 254.72778 
L 796.629511 261.914176 
L 801.72773 271.058724 
L 806.825948 282.039654 
L 817.022385 306.035057 
L 822.120603 317.317206 
L 827.218821 327.061938 
L 832.31704 334.63349 
L 837.415258 339.619642 
L 842.513476 342.306929 
L 847.611695 343.326992 
L 852.709913 345.260005 
L 857.808132 342.403916 
L 862.90635 338.647268 
L 868.004568 339.053289 
L 873.102787 339.003085 
L 878.201005 334.368811 
L 883.299223 323.965902 
L 888.397442 316.205874 
L 893.49566 306.406565 
L 898.593878 295.181058 
L 908.790315 272.19038 
L 913.888534 261.277331 
L 918.986752 252.67992 
L 924.08497 245.943774 
L 929.183189 241.702976 
L 934.281407 239.077248 
L 939.379625 238.017759 
L 944.477844 237.8305 
L 949.576062 236.954501 
L 954.67428 237.519648 
L 964.870717 245.621202 
L 969.968936 250.740448 
L 975.067154 255.322894 
L 980.165372 261.225338 
L 985.263591 269.540452 
L 990.361809 279.311948 
L 995.460027 289.884209 
L 1005.656464 311.551713 
L 1010.754683 320.960926 
L 1015.852901 328.439898 
L 1020.951119 334.031108 
L 1026.049338 337.680923 
L 1031.147556 339.852008 
L 1036.245774 341.507665 
L 1041.343993 343.988989 
L 1046.442211 339.670549 
L 1051.540429 337.537807 
L 1056.638648 335.591698 
L 1061.736866 334.485774 
L 1066.835085 324.152548 
L 1071.933303 317.808551 
L 1077.031521 309.389942 
L 1082.12974 299.089432 
L 1092.326176 276.525887 
L 1097.424395 265.944485 
L 1102.522613 256.608369 
L 1107.620831 249.730184 
L 1112.71905 244.760333 
L 1117.817268 241.450866 
L 1122.915487 239.633227 
L 1128.013705 238.975367 
L 1138.210142 238.765815 
L 1143.30836 243.129392 
L 1148.406578 248.233762 
L 1153.504797 253.138595 
L 1158.603015 257.518874 
L 1163.701233 264.385634 
L 1168.799452 272.727936 
L 1173.89767 282.477607 
L 1184.094107 303.82566 
L 1189.192325 313.960121 
L 1194.290544 322.931947 
L 1199.388762 330.084121 
L 1204.48698 335.086114 
L 1209.585199 338.385254 
L 1214.683417 340.330261 
L 1219.781635 342.095408 
L 1224.879854 346.069565 
L 1229.978072 342.465279 
L 1235.076291 338.715471 
L 1240.174509 335.982724 
L 1245.272727 334.329106 
L 1245.272727 334.329106 
" style="fill:none;stroke:#000000;stroke-linecap:square;stroke-width:4;"/>
   </g>
   <g id="line2d_29">
    <path clip-path="url(#p37fd86b88a)" d="M 230.727273 240.268273 
L 235.825491 241.909297 
L 240.923709 244.527599 
L 246.021928 248.542108 
L 251.120146 254.144986 
L 256.218365 261.399067 
L 261.316583 270.226333 
L 266.414801 280.345209 
L 276.611238 301.953985 
L 281.709456 311.876491 
L 286.807675 320.51456 
L 291.905893 327.21812 
L 297.004111 332.393512 
L 302.10233 335.741655 
L 307.200548 337.885947 
L 312.298767 338.955998 
L 317.396985 339.171898 
L 322.495203 338.400352 
L 327.593422 336.523967 
L 332.69164 333.569654 
L 337.789858 329.418808 
L 342.888077 323.518935 
L 347.986295 316.02841 
L 353.084513 307.286177 
L 358.182732 297.76704 
L 368.379169 276.958809 
L 373.477387 267.220844 
L 378.575605 259.281556 
L 383.673824 252.823118 
L 388.772042 248.071624 
L 393.87026 245.068386 
L 398.968479 243.287714 
L 404.066697 242.560749 
L 409.164915 242.618106 
L 414.263134 243.621872 
L 419.361352 245.804377 
L 424.459571 249.034743 
L 429.557789 253.923772 
L 434.656007 260.876764 
L 439.754226 269.797176 
L 444.852444 280.007692 
L 449.950662 291.259276 
L 455.048881 302.152607 
L 460.147099 312.16397 
L 465.245317 321.010959 
L 470.343536 327.90625 
L 475.441754 332.880576 
L 480.539973 336.108529 
L 485.638191 337.884132 
L 490.736409 338.744972 
L 495.834628 338.621605 
L 500.932846 337.514971 
L 506.031064 335.355897 
L 511.129283 331.662859 
L 516.227501 326.406405 
L 521.32572 319.146147 
L 526.423938 310.218184 
L 531.522156 300.104453 
L 541.718593 277.917917 
L 546.816811 267.965225 
L 551.91503 259.483456 
L 557.013248 252.55317 
L 562.111466 247.518123 
L 567.209685 244.190576 
L 572.307903 242.161409 
L 577.406122 241.287664 
L 582.50434 241.252272 
L 587.602558 242.166995 
L 592.700777 243.901675 
L 597.798995 246.662971 
L 602.897213 251.054213 
L 607.995432 257.141742 
L 613.09365 264.830098 
L 618.191868 274.487787 
L 623.290087 285.212021 
L 628.388305 296.565132 
L 633.486524 307.640758 
L 638.584742 317.726245 
L 643.68296 326.041431 
L 648.781179 332.447225 
L 653.879397 336.841547 
L 658.977615 339.57354 
L 664.075834 341.263584 
L 669.174052 342.043415 
L 674.27227 342.258896 
L 679.370489 341.86838 
L 684.468707 340.762485 
L 689.566926 338.502226 
L 694.665144 335.034127 
L 699.763362 329.801489 
L 704.861581 322.606402 
L 709.959799 313.326313 
L 715.058017 302.159379 
L 725.254454 278.684427 
L 730.352672 267.582643 
L 735.450891 258.305032 
L 740.549109 251.004546 
L 745.647328 245.794112 
L 750.745546 242.50746 
L 755.843764 240.49204 
L 760.941983 239.56882 
L 766.040201 239.398731 
L 771.138419 239.7524 
L 776.236638 241.007734 
L 781.334856 243.39836 
L 786.433074 247.500195 
L 791.531293 253.336529 
L 796.629511 261.011727 
L 801.72773 270.973835 
L 806.825948 282.640517 
L 817.022385 306.523595 
L 822.120603 317.309713 
L 827.218821 326.403914 
L 832.31704 333.32973 
L 837.415258 337.925765 
L 842.513476 340.658278 
L 847.611695 342.071601 
L 852.709913 342.561191 
L 857.808132 342.35161 
L 862.90635 341.564378 
L 868.004568 339.915121 
L 873.102787 337.079374 
L 878.201005 332.821057 
L 883.299223 326.437037 
L 888.397442 317.775763 
L 893.49566 307.222715 
L 898.593878 295.720579 
L 908.790315 272.18659 
L 913.888534 262.197371 
L 918.986752 253.990612 
L 924.08497 248.059647 
L 929.183189 243.945493 
L 934.281407 241.482024 
L 939.379625 240.192761 
L 944.477844 239.727175 
L 949.576062 239.844056 
L 954.67428 240.542532 
L 959.772499 241.972331 
L 964.870717 244.321216 
L 969.968936 247.870739 
L 975.067154 252.929327 
L 980.165372 259.982519 
L 985.263591 268.959346 
L 990.361809 279.092584 
L 995.460027 289.744795 
L 1000.558246 300.848992 
L 1005.656464 311.242028 
L 1010.754683 319.994509 
L 1015.852901 326.850875 
L 1020.951119 332.09339 
L 1026.049338 335.580927 
L 1031.147556 337.799606 
L 1036.245774 339.143111 
L 1041.343993 339.716805 
L 1046.442211 339.376028 
L 1051.540429 338.157783 
L 1056.638648 335.930836 
L 1061.736866 332.555809 
L 1066.835085 327.417467 
L 1071.933303 320.155066 
L 1077.031521 310.746029 
L 1082.12974 299.857074 
L 1092.326176 277.055485 
L 1097.424395 266.690852 
L 1102.522613 258.334282 
L 1107.620831 251.88623 
L 1112.71905 247.171751 
L 1117.817268 244.044955 
L 1122.915487 242.256542 
L 1128.013705 241.486668 
L 1133.111923 241.443891 
L 1138.210142 242.046729 
L 1143.30836 243.505297 
L 1148.406578 246.151112 
L 1153.504797 250.075587 
L 1158.603015 255.829424 
L 1163.701233 263.123119 
L 1168.799452 271.915417 
L 1173.89767 282.23189 
L 1184.094107 303.583894 
L 1189.192325 313.328082 
L 1194.290544 321.876463 
L 1199.388762 328.462708 
L 1204.48698 333.057525 
L 1209.585199 336.266245 
L 1214.683417 338.334415 
L 1219.781635 339.531707 
L 1224.879854 340.016784 
L 1229.978072 339.522157 
L 1235.076291 338.028554 
L 1240.174509 335.455 
L 1245.272727 331.708548 
L 1245.272727 331.708548 
" style="fill:none;stroke:#ff0000;stroke-linecap:square;stroke-width:1.5;"/>
   </g>
   <g id="patch_9">
    <path d="M 180 351.547826 
L 180 231.026087 
" style="fill:none;stroke:#000000;stroke-linecap:square;stroke-linejoin:miter;stroke-width:0.8;"/>
   </g>
   <g id="patch_10">
    <path d="M 1296 351.547826 
L 1296 231.026087 
" style="fill:none;stroke:#000000;stroke-linecap:square;stroke-linejoin:miter;stroke-width:0.8;"/>
   </g>
   <g id="patch_11">
    <path d="M 180 351.547826 
L 1296 351.547826 
" style="fill:none;stroke:#000000;stroke-linecap:square;stroke-linejoin:miter;stroke-width:0.8;"/>
   </g>
   <g id="patch_12">
    <path d="M 180 231.026087 
L 1296 231.026087 
" style="fill:none;stroke:#000000;stroke-linecap:square;stroke-linejoin:miter;stroke-width:0.8;"/>
   </g>
   <g id="legend_2">
    <g id="patch_13">
     <path d="M 1234.3125 268.382337 
L 1289 268.382337 
Q 1291 268.382337 1291 266.382337 
L 1291 238.026087 
Q 1291 236.026087 1289 236.026087 
L 1234.3125 236.026087 
Q 1232.3125 236.026087 1232.3125 238.026087 
L 1232.3125 266.382337 
Q 1232.3125 268.382337 1234.3125 268.382337 
z
" style="fill:#ffffff;opacity:0.8;stroke:#cccccc;stroke-linejoin:miter;"/>
    </g>
    <g id="line2d_30">
     <path d="M 1236.3125 244.124524 
L 1256.3125 244.124524 
" style="fill:none;stroke:#000000;stroke-linecap:square;stroke-width:4;"/>
    </g>
    <g id="line2d_31"/>
    <g id="text_26">
     <!-- Pred -->
     <g transform="translate(1264.3125 247.624524)scale(0.1 -0.1)">
      <use xlink:href="#DejaVuSans-80"/>
      <use x="60.287109" xlink:href="#DejaVuSans-114"/>
      <use x="101.369141" xlink:href="#DejaVuSans-101"/>
      <use x="162.892578" xlink:href="#DejaVuSans-100"/>
     </g>
    </g>
    <g id="line2d_32">
     <path d="M 1236.3125 258.802649 
L 1256.3125 258.802649 
" style="fill:none;stroke:#ff0000;stroke-linecap:square;stroke-width:1.5;"/>
    </g>
    <g id="line2d_33"/>
    <g id="text_27">
     <!-- True -->
     <g transform="translate(1264.3125 262.302649)scale(0.1 -0.1)">
      <use xlink:href="#DejaVuSans-84"/>
      <use x="60.865234" xlink:href="#DejaVuSans-114"/>
      <use x="101.978516" xlink:href="#DejaVuSans-117"/>
      <use x="165.357422" xlink:href="#DejaVuSans-101"/>
     </g>
    </g>
   </g>
  </g>
  <g id="axes_3">
   <g id="patch_14">
    <path d="M 180 496.173913 
L 1296 496.173913 
L 1296 375.652174 
L 180 375.652174 
z
" style="fill:#ffffff;"/>
   </g>
   <g id="matplotlib.axis_5">
    <g id="xtick_13">
     <g id="line2d_34">
      <g>
       <use style="stroke:#000000;stroke-width:0.8;" x="230.727273" xlink:href="#m4c54341f41" y="496.173913"/>
      </g>
     </g>
     <g id="text_28">
      <!-- 0 -->
      <g transform="translate(227.546023 510.772351)scale(0.1 -0.1)">
       <use xlink:href="#DejaVuSans-48"/>
      </g>
     </g>
    </g>
    <g id="xtick_14">
     <g id="line2d_35">
      <g>
       <use style="stroke:#000000;stroke-width:0.8;" x="434.656007" xlink:href="#m4c54341f41" y="496.173913"/>
      </g>
     </g>
     <g id="text_29">
      <!-- 2 -->
      <g transform="translate(431.474757 510.772351)scale(0.1 -0.1)">
       <use xlink:href="#DejaVuSans-50"/>
      </g>
     </g>
    </g>
    <g id="xtick_15">
     <g id="line2d_36">
      <g>
       <use style="stroke:#000000;stroke-width:0.8;" x="638.584742" xlink:href="#m4c54341f41" y="496.173913"/>
      </g>
     </g>
     <g id="text_30">
      <!-- 4 -->
      <g transform="translate(635.403492 510.772351)scale(0.1 -0.1)">
       <use xlink:href="#DejaVuSans-52"/>
      </g>
     </g>
    </g>
    <g id="xtick_16">
     <g id="line2d_37">
      <g>
       <use style="stroke:#000000;stroke-width:0.8;" x="842.513476" xlink:href="#m4c54341f41" y="496.173913"/>
      </g>
     </g>
     <g id="text_31">
      <!-- 6 -->
      <g transform="translate(839.332226 510.772351)scale(0.1 -0.1)">
       <use xlink:href="#DejaVuSans-54"/>
      </g>
     </g>
    </g>
    <g id="xtick_17">
     <g id="line2d_38">
      <g>
       <use style="stroke:#000000;stroke-width:0.8;" x="1046.442211" xlink:href="#m4c54341f41" y="496.173913"/>
      </g>
     </g>
     <g id="text_32">
      <!-- 8 -->
      <g transform="translate(1043.260961 510.772351)scale(0.1 -0.1)">
       <use xlink:href="#DejaVuSans-56"/>
      </g>
     </g>
    </g>
    <g id="xtick_18">
     <g id="line2d_39">
      <g>
       <use style="stroke:#000000;stroke-width:0.8;" x="1250.370946" xlink:href="#m4c54341f41" y="496.173913"/>
      </g>
     </g>
     <g id="text_33">
      <!-- 10 -->
      <g transform="translate(1244.008446 510.772351)scale(0.1 -0.1)">
       <use xlink:href="#DejaVuSans-49"/>
       <use x="63.623047" xlink:href="#DejaVuSans-48"/>
      </g>
     </g>
    </g>
   </g>
   <g id="matplotlib.axis_6">
    <g id="ytick_10">
     <g id="line2d_40">
      <g>
       <use style="stroke:#000000;stroke-width:0.8;" x="180" xlink:href="#me4a713195b" y="485.74733"/>
      </g>
     </g>
     <g id="text_34">
      <!-- −4 -->
      <g transform="translate(158.257812 489.546548)scale(0.1 -0.1)">
       <use xlink:href="#DejaVuSans-8722"/>
       <use x="83.789062" xlink:href="#DejaVuSans-52"/>
      </g>
     </g>
    </g>
    <g id="ytick_11">
     <g id="line2d_41">
      <g>
       <use style="stroke:#000000;stroke-width:0.8;" x="180" xlink:href="#me4a713195b" y="460.91595"/>
      </g>
     </g>
     <g id="text_35">
      <!-- −2 -->
      <g transform="translate(158.257812 464.715169)scale(0.1 -0.1)">
       <use xlink:href="#DejaVuSans-8722"/>
       <use x="83.789062" xlink:href="#DejaVuSans-50"/>
      </g>
     </g>
    </g>
    <g id="ytick_12">
     <g id="line2d_42">
      <g>
       <use style="stroke:#000000;stroke-width:0.8;" x="180" xlink:href="#me4a713195b" y="436.08457"/>
      </g>
     </g>
     <g id="text_36">
      <!-- 0 -->
      <g transform="translate(166.6375 439.883789)scale(0.1 -0.1)">
       <use xlink:href="#DejaVuSans-48"/>
      </g>
     </g>
    </g>
    <g id="ytick_13">
     <g id="line2d_43">
      <g>
       <use style="stroke:#000000;stroke-width:0.8;" x="180" xlink:href="#me4a713195b" y="411.253191"/>
      </g>
     </g>
     <g id="text_37">
      <!-- 2 -->
      <g transform="translate(166.6375 415.05241)scale(0.1 -0.1)">
       <use xlink:href="#DejaVuSans-50"/>
      </g>
     </g>
    </g>
    <g id="ytick_14">
     <g id="line2d_44">
      <g>
       <use style="stroke:#000000;stroke-width:0.8;" x="180" xlink:href="#me4a713195b" y="386.421811"/>
      </g>
     </g>
     <g id="text_38">
      <!-- 4 -->
      <g transform="translate(166.6375 390.22103)scale(0.1 -0.1)">
       <use xlink:href="#DejaVuSans-52"/>
      </g>
     </g>
    </g>
    <g id="text_39">
     <!-- TD State:2 -->
     <g transform="translate(152.178125 462.506793)rotate(-90)scale(0.1 -0.1)">
      <use xlink:href="#DejaVuSans-84"/>
      <use x="61.083984" xlink:href="#DejaVuSans-68"/>
      <use x="138.085938" xlink:href="#DejaVuSans-32"/>
      <use x="169.873047" xlink:href="#DejaVuSans-83"/>
      <use x="233.349609" xlink:href="#DejaVuSans-116"/>
      <use x="272.558594" xlink:href="#DejaVuSans-97"/>
      <use x="333.837891" xlink:href="#DejaVuSans-116"/>
      <use x="373.046875" xlink:href="#DejaVuSans-101"/>
      <use x="434.570312" xlink:href="#DejaVuSans-58"/>
      <use x="468.261719" xlink:href="#DejaVuSans-50"/>
     </g>
    </g>
   </g>
   <g id="line2d_45">
    <path clip-path="url(#pef0aee394e)" d="M 230.727273 427.400287 
L 235.825491 418.308687 
L 240.923709 412.019202 
L 246.021928 405.061233 
L 251.120146 399.253423 
L 256.218365 394.662973 
L 261.316583 390.935156 
L 266.414801 388.086873 
L 271.51302 386.7306 
L 276.611238 386.649309 
L 281.709456 388.8062 
L 286.807675 391.640099 
L 291.905893 397.680004 
L 297.004111 402.36775 
L 302.10233 411.03637 
L 307.200548 417.916767 
L 312.298767 426.19155 
L 317.396985 433.884493 
L 327.593422 452.454078 
L 332.69164 459.26055 
L 337.789858 464.633579 
L 342.888077 471.521336 
L 347.986295 476.289853 
L 353.084513 479.117844 
L 358.182732 480.414429 
L 363.28095 483.090174 
L 368.379169 484.257514 
L 373.477387 483.205098 
L 378.575605 477.92915 
L 383.673824 474.146366 
L 388.772042 468.147476 
L 393.87026 459.372573 
L 398.968479 451.62237 
L 404.066697 442.574163 
L 409.164915 435.249631 
L 414.263134 426.72374 
L 419.361352 417.738382 
L 424.459571 412.02548 
L 434.656007 396.153159 
L 439.754226 390.239072 
L 444.852444 387.542431 
L 449.950662 384.68396 
L 455.048881 386.215585 
L 465.245317 390.369756 
L 470.343536 396.15675 
L 475.441754 403.134022 
L 480.539973 411.523022 
L 485.638191 420.863103 
L 490.736409 428.268594 
L 495.834628 436.866688 
L 500.932846 445.896475 
L 506.031064 454.071458 
L 511.129283 463.17162 
L 516.227501 469.605785 
L 521.32572 476.81665 
L 526.423938 481.24484 
L 531.522156 483.759223 
L 536.620375 486.77221 
L 541.718593 486.824119 
L 546.816811 483.990415 
L 557.013248 476.962886 
L 562.111466 470.501651 
L 572.307903 454.89224 
L 577.406122 444.995242 
L 582.50434 436.029428 
L 587.602558 426.520474 
L 597.798995 413.510344 
L 602.897213 404.989172 
L 607.995432 398.725608 
L 613.09365 394.357354 
L 618.191868 388.464764 
L 623.290087 386.295668 
L 628.388305 384.444225 
L 633.486524 384.564341 
L 638.584742 385.951589 
L 643.68296 389.97375 
L 648.781179 394.921396 
L 653.879397 402.416826 
L 658.977615 410.948579 
L 664.075834 417.629183 
L 669.174052 426.423981 
L 674.27227 433.965531 
L 679.370489 441.02219 
L 684.468707 449.338472 
L 689.566926 459.22142 
L 694.665144 465.619385 
L 699.763362 472.914256 
L 704.861581 479.12287 
L 709.959799 484.767183 
L 715.058017 489.504115 
L 720.156236 489.952267 
L 725.254454 489.609602 
L 730.352672 489.427862 
L 735.450891 485.178268 
L 740.549109 480.41212 
L 745.647328 473.710415 
L 750.745546 464.814082 
L 755.843764 457.285506 
L 760.941983 447.430708 
L 766.040201 438.15065 
L 771.138419 431.418048 
L 776.236638 421.394828 
L 781.334856 412.492003 
L 786.433074 402.683594 
L 791.531293 396.666505 
L 796.629511 391.774847 
L 801.72773 385.227653 
L 806.825948 381.184688 
L 811.924166 381.419142 
L 817.022385 381.130435 
L 822.120603 382.807456 
L 827.218821 385.659583 
L 832.31704 390.803868 
L 837.415258 399.276204 
L 842.513476 408.917976 
L 847.611695 418.994958 
L 852.709913 429.511955 
L 857.808132 438.810475 
L 862.90635 446.32998 
L 868.004568 454.796276 
L 873.102787 462.84568 
L 878.201005 469.249418 
L 883.299223 477.429663 
L 888.397442 484.208168 
L 893.49566 488.415485 
L 898.593878 489.444741 
L 908.790315 490.657471 
L 913.888534 486.502376 
L 918.986752 482.718103 
L 924.08497 475.494022 
L 929.183189 468.784269 
L 939.379625 450.542695 
L 944.477844 441.906582 
L 949.576062 434.363808 
L 954.67428 427.785122 
L 959.772499 420.834126 
L 969.968936 408.133242 
L 975.067154 401.95679 
L 980.165372 394.849823 
L 985.263591 389.489878 
L 990.361809 387.647261 
L 995.460027 387.290172 
L 1000.558246 385.404278 
L 1005.656464 386.814641 
L 1010.754683 391.315651 
L 1015.852901 397.106712 
L 1020.951119 402.227097 
L 1026.049338 410.229868 
L 1031.147556 417.407111 
L 1036.245774 423.562018 
L 1041.343993 430.57245 
L 1046.442211 439.232797 
L 1051.540429 447.57923 
L 1056.638648 455.329762 
L 1061.736866 461.681789 
L 1071.933303 477.530213 
L 1077.031521 484.035143 
L 1082.12974 487.447931 
L 1087.227958 488.586522 
L 1092.326176 487.936956 
L 1097.424395 486.332092 
L 1107.620831 474.846555 
L 1112.71905 468.815276 
L 1117.817268 461.382958 
L 1128.013705 444.001805 
L 1133.111923 436.204124 
L 1138.210142 429.89455 
L 1143.30836 422.298882 
L 1148.406578 413.963232 
L 1153.504797 407.602065 
L 1158.603015 399.830326 
L 1163.701233 395.597525 
L 1168.799452 391.884754 
L 1173.89767 387.62213 
L 1178.995889 387.316401 
L 1184.094107 387.167504 
L 1189.192325 389.204127 
L 1194.290544 391.393209 
L 1199.388762 397.435956 
L 1204.48698 405.325152 
L 1209.585199 411.518623 
L 1219.781635 424.589367 
L 1224.879854 431.982437 
L 1229.978072 441.443423 
L 1235.076291 450.189509 
L 1240.174509 457.969684 
L 1245.272727 463.783243 
L 1245.272727 463.783243 
" style="fill:none;stroke:#000000;stroke-linecap:square;stroke-width:4;"/>
   </g>
   <g id="line2d_46">
    <path clip-path="url(#pef0aee394e)" d="M 230.727273 427.494939 
L 235.825491 418.252116 
L 240.923709 411.96565 
L 246.021928 404.990343 
L 251.120146 399.264287 
L 256.218365 394.675695 
L 261.316583 390.947531 
L 266.414801 388.098745 
L 271.51302 386.747446 
L 276.611238 386.669553 
L 281.709456 388.839892 
L 286.807675 391.67482 
L 291.905893 397.741627 
L 297.004111 402.417639 
L 302.10233 411.125824 
L 307.200548 417.997324 
L 312.298767 426.16953 
L 317.396985 433.993645 
L 322.495203 443.411835 
L 327.593422 452.486332 
L 332.69164 459.003108 
L 337.789858 464.403038 
L 342.888077 471.549527 
L 347.986295 476.300404 
L 353.084513 479.115981 
L 358.182732 480.405163 
L 363.28095 483.121571 
L 368.379169 484.284244 
L 373.477387 483.213238 
L 378.575605 477.879311 
L 383.673824 474.125316 
L 388.772042 468.091617 
L 393.87026 459.265832 
L 398.968479 451.520964 
L 404.066697 442.887858 
L 409.164915 435.535302 
L 414.263134 426.810503 
L 419.361352 417.70145 
L 424.459571 411.99714 
L 434.656007 396.141047 
L 439.754226 390.23281 
L 444.852444 387.554966 
L 449.950662 384.685365 
L 455.048881 386.248306 
L 465.245317 390.395769 
L 470.343536 396.213292 
L 475.441754 403.202962 
L 480.539973 411.6101 
L 485.638191 420.967967 
L 490.736409 428.165746 
L 500.932846 446.107553 
L 506.031064 453.941239 
L 511.129283 463.046914 
L 516.227501 469.596789 
L 521.32572 476.861585 
L 526.423938 481.266623 
L 531.522156 483.770729 
L 536.620375 486.812706 
L 541.718593 486.837117 
L 546.816811 483.972258 
L 557.013248 476.95059 
L 562.111466 470.444299 
L 572.307903 454.79834 
L 577.406122 445.036023 
L 582.50434 436.461525 
L 587.602558 426.70096 
L 592.700777 419.945861 
L 597.798995 413.473463 
L 602.897213 404.973222 
L 607.995432 398.731675 
L 613.09365 394.371094 
L 618.191868 388.454425 
L 623.290087 386.3084 
L 628.388305 384.450359 
L 633.486524 384.578878 
L 638.584742 385.96931 
L 643.68296 390.009447 
L 648.781179 394.962832 
L 653.879397 402.482445 
L 658.977615 411.029342 
L 664.075834 417.700528 
L 669.174052 426.396077 
L 674.27227 433.222501 
L 684.468707 449.282829 
L 689.566926 459.061895 
L 694.665144 465.35469 
L 699.763362 472.929651 
L 704.861581 479.153066 
L 709.959799 484.810207 
L 715.058017 489.556407 
L 720.156236 489.957566 
L 725.254454 489.621014 
L 730.352672 489.459784 
L 735.450891 485.158358 
L 740.549109 480.391099 
L 745.647328 473.659358 
L 750.745546 464.721579 
L 755.843764 457.204611 
L 760.941983 447.298091 
L 766.040201 438.299735 
L 771.138419 431.535907 
L 776.236638 421.428133 
L 781.334856 412.418289 
L 786.433074 402.665946 
L 791.531293 396.670764 
L 796.629511 391.780434 
L 801.72773 385.207767 
L 806.825948 381.175363 
L 811.924166 381.43902 
L 817.022385 381.137299 
L 822.120603 382.823433 
L 827.218821 385.679077 
L 832.31704 390.839758 
L 837.415258 399.343278 
L 842.513476 409.002418 
L 852.709913 429.413304 
L 857.808132 439.002795 
L 862.90635 446.271031 
L 868.004568 454.604291 
L 873.102787 462.61028 
L 878.201005 469.065939 
L 883.299223 477.484957 
L 888.397442 484.261507 
L 893.49566 488.45112 
L 898.593878 489.450402 
L 908.790315 490.695652 
L 913.888534 486.478903 
L 918.986752 482.709931 
L 924.08497 475.433287 
L 929.183189 468.728694 
L 939.379625 450.425794 
L 944.477844 441.781538 
L 949.576062 434.62318 
L 959.772499 420.803365 
L 969.968936 408.077875 
L 975.067154 401.945731 
L 980.165372 394.842579 
L 985.263591 389.487064 
L 990.361809 387.667242 
L 995.460027 387.316716 
L 1000.558246 385.40865 
L 1005.656464 386.840003 
L 1010.754683 391.364113 
L 1015.852901 397.165841 
L 1020.951119 402.280779 
L 1026.049338 410.312985 
L 1031.147556 417.489573 
L 1036.245774 423.588672 
L 1041.343993 430.370771 
L 1046.442211 439.50941 
L 1051.540429 447.64541 
L 1056.638648 455.108154 
L 1061.736866 461.4208 
L 1066.835085 469.674072 
L 1071.933303 477.584882 
L 1077.031521 484.092424 
L 1082.12974 487.479496 
L 1087.227958 488.602968 
L 1092.326176 487.943225 
L 1097.424395 486.338834 
L 1112.71905 468.762478 
L 1117.817268 461.302297 
L 1128.013705 443.875611 
L 1133.111923 436.532313 
L 1138.210142 429.921547 
L 1143.30836 422.279981 
L 1148.406578 413.914702 
L 1153.504797 407.553522 
L 1158.603015 399.826139 
L 1163.701233 395.614681 
L 1168.799452 391.898322 
L 1173.89767 387.620978 
L 1178.995889 387.341806 
L 1184.094107 387.186709 
L 1189.192325 389.236113 
L 1194.290544 391.420826 
L 1199.388762 397.495671 
L 1204.48698 405.404373 
L 1209.585199 411.587446 
L 1219.781635 424.587644 
L 1224.879854 431.117442 
L 1229.978072 441.147526 
L 1235.076291 450.274123 
L 1240.174509 457.727142 
L 1245.272727 463.513303 
L 1245.272727 463.513303 
" style="fill:none;stroke:#ff0000;stroke-linecap:square;stroke-width:1.5;"/>
   </g>
   <g id="patch_15">
    <path d="M 180 496.173913 
L 180 375.652174 
" style="fill:none;stroke:#000000;stroke-linecap:square;stroke-linejoin:miter;stroke-width:0.8;"/>
   </g>
   <g id="patch_16">
    <path d="M 1296 496.173913 
L 1296 375.652174 
" style="fill:none;stroke:#000000;stroke-linecap:square;stroke-linejoin:miter;stroke-width:0.8;"/>
   </g>
   <g id="patch_17">
    <path d="M 180 496.173913 
L 1296 496.173913 
" style="fill:none;stroke:#000000;stroke-linecap:square;stroke-linejoin:miter;stroke-width:0.8;"/>
   </g>
   <g id="patch_18">
    <path d="M 180 375.652174 
L 1296 375.652174 
" style="fill:none;stroke:#000000;stroke-linecap:square;stroke-linejoin:miter;stroke-width:0.8;"/>
   </g>
   <g id="legend_3">
    <g id="patch_19">
     <path d="M 1234.3125 413.008424 
L 1289 413.008424 
Q 1291 413.008424 1291 411.008424 
L 1291 382.652174 
Q 1291 380.652174 1289 380.652174 
L 1234.3125 380.652174 
Q 1232.3125 380.652174 1232.3125 382.652174 
L 1232.3125 411.008424 
Q 1232.3125 413.008424 1234.3125 413.008424 
z
" style="fill:#ffffff;opacity:0.8;stroke:#cccccc;stroke-linejoin:miter;"/>
    </g>
    <g id="line2d_47">
     <path d="M 1236.3125 388.750611 
L 1256.3125 388.750611 
" style="fill:none;stroke:#000000;stroke-linecap:square;stroke-width:4;"/>
    </g>
    <g id="line2d_48"/>
    <g id="text_40">
     <!-- Pred -->
     <g transform="translate(1264.3125 392.250611)scale(0.1 -0.1)">
      <use xlink:href="#DejaVuSans-80"/>
      <use x="60.287109" xlink:href="#DejaVuSans-114"/>
      <use x="101.369141" xlink:href="#DejaVuSans-101"/>
      <use x="162.892578" xlink:href="#DejaVuSans-100"/>
     </g>
    </g>
    <g id="line2d_49">
     <path d="M 1236.3125 403.428736 
L 1256.3125 403.428736 
" style="fill:none;stroke:#ff0000;stroke-linecap:square;stroke-width:1.5;"/>
    </g>
    <g id="line2d_50"/>
    <g id="text_41">
     <!-- True -->
     <g transform="translate(1264.3125 406.928736)scale(0.1 -0.1)">
      <use xlink:href="#DejaVuSans-84"/>
      <use x="60.865234" xlink:href="#DejaVuSans-114"/>
      <use x="101.978516" xlink:href="#DejaVuSans-117"/>
      <use x="165.357422" xlink:href="#DejaVuSans-101"/>
     </g>
    </g>
   </g>
  </g>
  <g id="axes_4">
   <g id="patch_20">
    <path d="M 180 640.8 
L 1296 640.8 
L 1296 520.278261 
L 180 520.278261 
z
" style="fill:#ffffff;"/>
   </g>
   <g id="matplotlib.axis_7">
    <g id="xtick_19">
     <g id="line2d_51">
      <g>
       <use style="stroke:#000000;stroke-width:0.8;" x="230.727273" xlink:href="#m4c54341f41" y="640.8"/>
      </g>
     </g>
     <g id="text_42">
      <!-- 0 -->
      <g transform="translate(227.546023 655.398438)scale(0.1 -0.1)">
       <use xlink:href="#DejaVuSans-48"/>
      </g>
     </g>
    </g>
    <g id="xtick_20">
     <g id="line2d_52">
      <g>
       <use style="stroke:#000000;stroke-width:0.8;" x="434.656007" xlink:href="#m4c54341f41" y="640.8"/>
      </g>
     </g>
     <g id="text_43">
      <!-- 2 -->
      <g transform="translate(431.474757 655.398438)scale(0.1 -0.1)">
       <use xlink:href="#DejaVuSans-50"/>
      </g>
     </g>
    </g>
    <g id="xtick_21">
     <g id="line2d_53">
      <g>
       <use style="stroke:#000000;stroke-width:0.8;" x="638.584742" xlink:href="#m4c54341f41" y="640.8"/>
      </g>
     </g>
     <g id="text_44">
      <!-- 4 -->
      <g transform="translate(635.403492 655.398438)scale(0.1 -0.1)">
       <use xlink:href="#DejaVuSans-52"/>
      </g>
     </g>
    </g>
    <g id="xtick_22">
     <g id="line2d_54">
      <g>
       <use style="stroke:#000000;stroke-width:0.8;" x="842.513476" xlink:href="#m4c54341f41" y="640.8"/>
      </g>
     </g>
     <g id="text_45">
      <!-- 6 -->
      <g transform="translate(839.332226 655.398438)scale(0.1 -0.1)">
       <use xlink:href="#DejaVuSans-54"/>
      </g>
     </g>
    </g>
    <g id="xtick_23">
     <g id="line2d_55">
      <g>
       <use style="stroke:#000000;stroke-width:0.8;" x="1046.442211" xlink:href="#m4c54341f41" y="640.8"/>
      </g>
     </g>
     <g id="text_46">
      <!-- 8 -->
      <g transform="translate(1043.260961 655.398438)scale(0.1 -0.1)">
       <use xlink:href="#DejaVuSans-56"/>
      </g>
     </g>
    </g>
    <g id="xtick_24">
     <g id="line2d_56">
      <g>
       <use style="stroke:#000000;stroke-width:0.8;" x="1250.370946" xlink:href="#m4c54341f41" y="640.8"/>
      </g>
     </g>
     <g id="text_47">
      <!-- 10 -->
      <g transform="translate(1244.008446 655.398438)scale(0.1 -0.1)">
       <use xlink:href="#DejaVuSans-49"/>
       <use x="63.623047" xlink:href="#DejaVuSans-48"/>
      </g>
     </g>
    </g>
    <g id="text_48">
     <!-- Time -->
     <defs>
      <path d="M 9.421875 54.6875 
L 18.40625 54.6875 
L 18.40625 0 
L 9.421875 0 
z
M 9.421875 75.984375 
L 18.40625 75.984375 
L 18.40625 64.59375 
L 9.421875 64.59375 
z
" id="DejaVuSans-105"/>
      <path d="M 52 44.1875 
Q 55.375 50.25 60.0625 53.125 
Q 64.75 56 71.09375 56 
Q 79.640625 56 84.28125 50.015625 
Q 88.921875 44.046875 88.921875 33.015625 
L 88.921875 0 
L 79.890625 0 
L 79.890625 32.71875 
Q 79.890625 40.578125 77.09375 44.375 
Q 74.3125 48.1875 68.609375 48.1875 
Q 61.625 48.1875 57.5625 43.546875 
Q 53.515625 38.921875 53.515625 30.90625 
L 53.515625 0 
L 44.484375 0 
L 44.484375 32.71875 
Q 44.484375 40.625 41.703125 44.40625 
Q 38.921875 48.1875 33.109375 48.1875 
Q 26.21875 48.1875 22.15625 43.53125 
Q 18.109375 38.875 18.109375 30.90625 
L 18.109375 0 
L 9.078125 0 
L 9.078125 54.6875 
L 18.109375 54.6875 
L 18.109375 46.1875 
Q 21.1875 51.21875 25.484375 53.609375 
Q 29.78125 56 35.6875 56 
Q 41.65625 56 45.828125 52.96875 
Q 50 49.953125 52 44.1875 
z
" id="DejaVuSans-109"/>
     </defs>
     <g transform="translate(725.6125 669.076563)scale(0.1 -0.1)">
      <use xlink:href="#DejaVuSans-84"/>
      <use x="61.037109" xlink:href="#DejaVuSans-105"/>
      <use x="88.820312" xlink:href="#DejaVuSans-109"/>
      <use x="186.232422" xlink:href="#DejaVuSans-101"/>
     </g>
    </g>
   </g>
   <g id="matplotlib.axis_8">
    <g id="ytick_15">
     <g id="line2d_57">
      <g>
       <use style="stroke:#000000;stroke-width:0.8;" x="180" xlink:href="#me4a713195b" y="635.334306"/>
      </g>
     </g>
     <g id="text_49">
      <!-- −1.0 -->
      <g transform="translate(148.717187 639.133524)scale(0.1 -0.1)">
       <use xlink:href="#DejaVuSans-8722"/>
       <use x="83.789062" xlink:href="#DejaVuSans-49"/>
       <use x="147.412109" xlink:href="#DejaVuSans-46"/>
       <use x="179.199219" xlink:href="#DejaVuSans-48"/>
      </g>
     </g>
    </g>
    <g id="ytick_16">
     <g id="line2d_58">
      <g>
       <use style="stroke:#000000;stroke-width:0.8;" x="180" xlink:href="#me4a713195b" y="607.866324"/>
      </g>
     </g>
     <g id="text_50">
      <!-- −0.5 -->
      <g transform="translate(148.717187 611.665543)scale(0.1 -0.1)">
       <use xlink:href="#DejaVuSans-8722"/>
       <use x="83.789062" xlink:href="#DejaVuSans-48"/>
       <use x="147.412109" xlink:href="#DejaVuSans-46"/>
       <use x="179.199219" xlink:href="#DejaVuSans-53"/>
      </g>
     </g>
    </g>
    <g id="ytick_17">
     <g id="line2d_59">
      <g>
       <use style="stroke:#000000;stroke-width:0.8;" x="180" xlink:href="#me4a713195b" y="580.398342"/>
      </g>
     </g>
     <g id="text_51">
      <!-- 0.0 -->
      <g transform="translate(157.096875 584.197561)scale(0.1 -0.1)">
       <use xlink:href="#DejaVuSans-48"/>
       <use x="63.623047" xlink:href="#DejaVuSans-46"/>
       <use x="95.410156" xlink:href="#DejaVuSans-48"/>
      </g>
     </g>
    </g>
    <g id="ytick_18">
     <g id="line2d_60">
      <g>
       <use style="stroke:#000000;stroke-width:0.8;" x="180" xlink:href="#me4a713195b" y="552.93036"/>
      </g>
     </g>
     <g id="text_52">
      <!-- 0.5 -->
      <g transform="translate(157.096875 556.729579)scale(0.1 -0.1)">
       <use xlink:href="#DejaVuSans-48"/>
       <use x="63.623047" xlink:href="#DejaVuSans-46"/>
       <use x="95.410156" xlink:href="#DejaVuSans-53"/>
      </g>
     </g>
    </g>
    <g id="ytick_19">
     <g id="line2d_61">
      <g>
       <use style="stroke:#000000;stroke-width:0.8;" x="180" xlink:href="#me4a713195b" y="525.462378"/>
      </g>
     </g>
     <g id="text_53">
      <!-- 1.0 -->
      <g transform="translate(157.096875 529.261597)scale(0.1 -0.1)">
       <use xlink:href="#DejaVuSans-49"/>
       <use x="63.623047" xlink:href="#DejaVuSans-46"/>
       <use x="95.410156" xlink:href="#DejaVuSans-48"/>
      </g>
     </g>
    </g>
    <g id="text_54">
     <!-- Control Input -->
     <defs>
      <path d="M 64.40625 67.28125 
L 64.40625 56.890625 
Q 59.421875 61.53125 53.78125 63.8125 
Q 48.140625 66.109375 41.796875 66.109375 
Q 29.296875 66.109375 22.65625 58.46875 
Q 16.015625 50.828125 16.015625 36.375 
Q 16.015625 21.96875 22.65625 14.328125 
Q 29.296875 6.6875 41.796875 6.6875 
Q 48.140625 6.6875 53.78125 8.984375 
Q 59.421875 11.28125 64.40625 15.921875 
L 64.40625 5.609375 
Q 59.234375 2.09375 53.4375 0.328125 
Q 47.65625 -1.421875 41.21875 -1.421875 
Q 24.65625 -1.421875 15.125 8.703125 
Q 5.609375 18.84375 5.609375 36.375 
Q 5.609375 53.953125 15.125 64.078125 
Q 24.65625 74.21875 41.21875 74.21875 
Q 47.75 74.21875 53.53125 72.484375 
Q 59.328125 70.75 64.40625 67.28125 
z
" id="DejaVuSans-67"/>
      <path d="M 30.609375 48.390625 
Q 23.390625 48.390625 19.1875 42.75 
Q 14.984375 37.109375 14.984375 27.296875 
Q 14.984375 17.484375 19.15625 11.84375 
Q 23.34375 6.203125 30.609375 6.203125 
Q 37.796875 6.203125 41.984375 11.859375 
Q 46.1875 17.53125 46.1875 27.296875 
Q 46.1875 37.015625 41.984375 42.703125 
Q 37.796875 48.390625 30.609375 48.390625 
z
M 30.609375 56 
Q 42.328125 56 49.015625 48.375 
Q 55.71875 40.765625 55.71875 27.296875 
Q 55.71875 13.875 49.015625 6.21875 
Q 42.328125 -1.421875 30.609375 -1.421875 
Q 18.84375 -1.421875 12.171875 6.21875 
Q 5.515625 13.875 5.515625 27.296875 
Q 5.515625 40.765625 12.171875 48.375 
Q 18.84375 56 30.609375 56 
z
" id="DejaVuSans-111"/>
      <path d="M 54.890625 33.015625 
L 54.890625 0 
L 45.90625 0 
L 45.90625 32.71875 
Q 45.90625 40.484375 42.875 44.328125 
Q 39.84375 48.1875 33.796875 48.1875 
Q 26.515625 48.1875 22.3125 43.546875 
Q 18.109375 38.921875 18.109375 30.90625 
L 18.109375 0 
L 9.078125 0 
L 9.078125 54.6875 
L 18.109375 54.6875 
L 18.109375 46.1875 
Q 21.34375 51.125 25.703125 53.5625 
Q 30.078125 56 35.796875 56 
Q 45.21875 56 50.046875 50.171875 
Q 54.890625 44.34375 54.890625 33.015625 
z
" id="DejaVuSans-110"/>
      <path d="M 9.421875 75.984375 
L 18.40625 75.984375 
L 18.40625 0 
L 9.421875 0 
z
" id="DejaVuSans-108"/>
      <path d="M 9.8125 72.90625 
L 19.671875 72.90625 
L 19.671875 0 
L 9.8125 0 
z
" id="DejaVuSans-73"/>
      <path d="M 18.109375 8.203125 
L 18.109375 -20.796875 
L 9.078125 -20.796875 
L 9.078125 54.6875 
L 18.109375 54.6875 
L 18.109375 46.390625 
Q 20.953125 51.265625 25.265625 53.625 
Q 29.59375 56 35.59375 56 
Q 45.5625 56 51.78125 48.09375 
Q 58.015625 40.1875 58.015625 27.296875 
Q 58.015625 14.40625 51.78125 6.484375 
Q 45.5625 -1.421875 35.59375 -1.421875 
Q 29.59375 -1.421875 25.265625 0.953125 
Q 20.953125 3.328125 18.109375 8.203125 
z
M 48.6875 27.296875 
Q 48.6875 37.203125 44.609375 42.84375 
Q 40.53125 48.484375 33.40625 48.484375 
Q 26.265625 48.484375 22.1875 42.84375 
Q 18.109375 37.203125 18.109375 27.296875 
Q 18.109375 17.390625 22.1875 11.75 
Q 26.265625 6.109375 33.40625 6.109375 
Q 40.53125 6.109375 44.609375 11.75 
Q 48.6875 17.390625 48.6875 27.296875 
z
" id="DejaVuSans-112"/>
     </defs>
     <g transform="translate(142.6375 613.257099)rotate(-90)scale(0.1 -0.1)">
      <use xlink:href="#DejaVuSans-67"/>
      <use x="69.824219" xlink:href="#DejaVuSans-111"/>
      <use x="131.005859" xlink:href="#DejaVuSans-110"/>
      <use x="194.384766" xlink:href="#DejaVuSans-116"/>
      <use x="233.59375" xlink:href="#DejaVuSans-114"/>
      <use x="274.675781" xlink:href="#DejaVuSans-111"/>
      <use x="335.857422" xlink:href="#DejaVuSans-108"/>
      <use x="363.640625" xlink:href="#DejaVuSans-32"/>
      <use x="395.427734" xlink:href="#DejaVuSans-73"/>
      <use x="424.919922" xlink:href="#DejaVuSans-110"/>
      <use x="488.298828" xlink:href="#DejaVuSans-112"/>
      <use x="551.775391" xlink:href="#DejaVuSans-117"/>
      <use x="615.154297" xlink:href="#DejaVuSans-116"/>
     </g>
    </g>
   </g>
   <g id="line2d_62">
    <path clip-path="url(#p177eb02205)" d="M 230.727273 589.515294 
L 235.825491 556.190865 
L 240.923709 635.321739 
L 246.021928 602.116443 
L 251.120146 619.209953 
L 256.218365 625.188886 
L 261.316583 614.869537 
L 266.414801 597.366883 
L 271.51302 591.740699 
L 276.611238 576.133473 
L 281.709456 589.276596 
L 286.807675 560.047918 
L 291.905893 612.870743 
L 297.004111 538.85385 
L 302.10233 632.325178 
L 307.200548 561.668748 
L 312.298767 589.484223 
L 317.396985 573.949977 
L 322.495203 619.909722 
L 327.593422 613.568513 
L 332.69164 547.354956 
L 337.789858 528.94954 
L 342.888077 600.897787 
L 347.986295 559.267485 
L 353.084513 539.04374 
L 358.182732 537.042147 
L 363.28095 625.990334 
L 368.379169 631.043281 
L 373.477387 616.67471 
L 378.575605 538.851096 
L 383.673824 624.52875 
L 388.772042 589.066399 
L 393.87026 530.089137 
L 398.968479 576.754408 
L 404.066697 559.316434 
L 409.164915 600.667995 
L 414.263134 559.907126 
L 419.361352 543.632374 
L 424.459571 633.324937 
L 429.557789 552.914504 
L 434.656007 526.686232 
L 439.754226 553.131903 
L 444.852444 604.521384 
L 449.950662 548.614665 
L 455.048881 623.992665 
L 460.147099 586.123381 
L 465.245317 535.505166 
L 470.343536 603.074353 
L 475.441754 603.715875 
L 480.539973 621.047816 
L 485.638191 633.206421 
L 490.736409 560.749337 
L 495.834628 612.082317 
L 500.932846 606.158182 
L 506.031064 581.324215 
L 511.129283 629.47126 
L 516.227501 572.254898 
L 521.32572 619.212954 
L 526.423938 570.58617 
L 531.522156 558.450506 
L 536.620375 624.090625 
L 541.718593 589.841176 
L 546.816811 559.039222 
L 551.91503 589.827631 
L 557.013248 629.845823 
L 562.111466 576.454335 
L 567.209685 562.401909 
L 572.307903 578.762446 
L 577.406122 531.549859 
L 582.50434 570.888373 
L 587.602558 536.075796 
L 592.700777 620.229695 
L 597.798995 620.031745 
L 602.897213 546.624669 
L 607.995432 591.640785 
L 613.09365 617.166521 
L 618.191868 533.42715 
L 623.290087 597.1246 
L 628.388305 552.841133 
L 633.486524 555.567508 
L 638.584742 538.283763 
L 643.68296 566.810238 
L 648.781179 552.826813 
L 653.879397 597.000172 
L 658.977615 605.676808 
L 664.075834 536.90156 
L 669.174052 588.299102 
L 674.27227 529.32547 
L 679.370489 562.44071 
L 684.468707 567.027399 
L 689.566926 622.726944 
L 694.665144 531.012091 
L 699.763362 585.901592 
L 704.861581 571.785524 
L 715.058017 609.291695 
L 720.156236 536.078256 
L 725.254454 572.303035 
L 730.352672 635.018937 
L 735.450891 567.527404 
L 740.549109 599.445201 
L 745.647328 577.425416 
L 750.745546 537.99414 
L 755.843764 596.080389 
L 760.941983 535.511797 
L 766.040201 566.844528 
L 771.138419 633.595995 
L 776.236638 533.215245 
L 781.334856 559.42413 
L 786.433074 525.756522 
L 791.531293 616.398922 
L 796.629511 620.266937 
L 801.72773 532.868245 
L 806.825948 558.773551 
L 811.924166 628.08274 
L 817.022385 552.330124 
L 822.120603 552.504476 
L 827.218821 533.919821 
L 832.31704 557.157709 
L 837.415258 621.680416 
L 842.513476 633.150037 
L 847.611695 632.454454 
L 852.709913 632.224217 
L 857.808132 608.282621 
L 862.90635 540.841377 
L 868.004568 576.131898 
L 873.102787 574.594689 
L 878.201005 542.818749 
L 883.299223 621.691144 
L 888.397442 604.659857 
L 893.49566 570.975805 
L 898.593878 528.802952 
L 903.692097 573.692834 
L 908.790315 633.285492 
L 913.888534 547.367251 
L 918.986752 609.736973 
L 924.08497 546.656102 
L 929.183189 592.719309 
L 934.281407 540.455298 
L 939.379625 553.246611 
L 944.477844 574.219119 
L 949.576062 620.341707 
L 954.67428 628.751034 
L 959.772499 622.002066 
L 964.870717 630.439305 
L 969.968936 623.523719 
L 975.067154 610.535186 
L 980.165372 556.996832 
L 985.263591 573.837122 
L 990.361809 633.954756 
L 995.460027 627.426353 
L 1000.558246 529.057791 
L 1005.656464 572.916013 
L 1010.754683 612.998086 
L 1015.852901 607.61079 
L 1020.951119 553.608725 
L 1026.049338 613.862092 
L 1036.245774 528.75634 
L 1041.343993 542.291593 
L 1046.442211 608.98177 
L 1051.540429 581.082875 
L 1056.638648 567.218576 
L 1061.736866 544.252576 
L 1066.835085 618.107333 
L 1071.933303 633.293303 
L 1077.031521 627.640838 
L 1082.12974 581.898631 
L 1087.227958 568.715719 
L 1092.326176 572.833502 
L 1097.424395 600.465086 
L 1102.522613 526.713143 
L 1107.620831 571.636581 
L 1112.71905 593.567462 
L 1117.817268 574.800563 
L 1122.915487 553.442975 
L 1128.013705 561.804398 
L 1133.111923 606.227083 
L 1138.210142 628.04597 
L 1143.30836 594.672442 
L 1148.406578 566.146029 
L 1153.504797 612.242082 
L 1158.603015 552.627602 
L 1163.701233 628.023814 
L 1168.799452 606.732984 
L 1173.89767 546.914371 
L 1178.995889 614.081308 
L 1184.094107 565.075506 
L 1189.192325 577.687768 
L 1194.290544 533.723871 
L 1199.388762 606.405382 
L 1204.48698 628.087034 
L 1209.585199 554.571191 
L 1214.683417 550.493617 
L 1219.781635 535.590828 
L 1224.879854 532.936738 
L 1229.978072 633.801419 
L 1235.076291 609.584492 
L 1240.174509 567.567679 
L 1245.272727 531.064053 
L 1245.272727 531.064053 
" style="fill:none;stroke:#ff0000;stroke-linecap:square;stroke-width:1.5;"/>
   </g>
   <g id="patch_21">
    <path d="M 180 640.8 
L 180 520.278261 
" style="fill:none;stroke:#000000;stroke-linecap:square;stroke-linejoin:miter;stroke-width:0.8;"/>
   </g>
   <g id="patch_22">
    <path d="M 1296 640.8 
L 1296 520.278261 
" style="fill:none;stroke:#000000;stroke-linecap:square;stroke-linejoin:miter;stroke-width:0.8;"/>
   </g>
   <g id="patch_23">
    <path d="M 180 640.8 
L 1296 640.8 
" style="fill:none;stroke:#000000;stroke-linecap:square;stroke-linejoin:miter;stroke-width:0.8;"/>
   </g>
   <g id="patch_24">
    <path d="M 180 520.278261 
L 1296 520.278261 
" style="fill:none;stroke:#000000;stroke-linecap:square;stroke-linejoin:miter;stroke-width:0.8;"/>
   </g>
   <g id="legend_4">
    <g id="patch_25">
     <path d="M 1194.742188 542.956386 
L 1289 542.956386 
Q 1291 542.956386 1291 540.956386 
L 1291 527.278261 
Q 1291 525.278261 1289 525.278261 
L 1194.742188 525.278261 
Q 1192.742188 525.278261 1192.742188 527.278261 
L 1192.742188 540.956386 
Q 1192.742188 542.956386 1194.742188 542.956386 
z
" style="fill:#ffffff;opacity:0.8;stroke:#cccccc;stroke-linejoin:miter;"/>
    </g>
    <g id="line2d_63">
     <path d="M 1196.742188 533.376698 
L 1216.742188 533.376698 
" style="fill:none;stroke:#ff0000;stroke-linecap:square;stroke-width:1.5;"/>
    </g>
    <g id="line2d_64"/>
    <g id="text_55">
     <!-- ControlInput -->
     <g transform="translate(1224.742188 536.876698)scale(0.1 -0.1)">
      <use xlink:href="#DejaVuSans-67"/>
      <use x="69.824219" xlink:href="#DejaVuSans-111"/>
      <use x="131.005859" xlink:href="#DejaVuSans-110"/>
      <use x="194.384766" xlink:href="#DejaVuSans-116"/>
      <use x="233.59375" xlink:href="#DejaVuSans-114"/>
      <use x="274.675781" xlink:href="#DejaVuSans-111"/>
      <use x="335.857422" xlink:href="#DejaVuSans-108"/>
      <use x="363.640625" xlink:href="#DejaVuSans-73"/>
      <use x="393.132812" xlink:href="#DejaVuSans-110"/>
      <use x="456.511719" xlink:href="#DejaVuSans-112"/>
      <use x="519.988281" xlink:href="#DejaVuSans-117"/>
      <use x="583.367188" xlink:href="#DejaVuSans-116"/>
     </g>
    </g>
   </g>
  </g>
 </g>
 <defs>
  <clipPath id="pd1deb79c75">
   <rect height="120.521739" width="1116" x="180" y="86.4"/>
  </clipPath>
  <clipPath id="p37fd86b88a">
   <rect height="120.521739" width="1116" x="180" y="231.026087"/>
  </clipPath>
  <clipPath id="pef0aee394e">
   <rect height="120.521739" width="1116" x="180" y="375.652174"/>
  </clipPath>
  <clipPath id="p177eb02205">
   <rect height="120.521739" width="1116" x="180" y="520.278261"/>
  </clipPath>
 </defs>
</svg>
