<?xml version="1.0" encoding="utf-8" standalone="no"?>
<!DOCTYPE svg PUBLIC "-//W3C//DTD SVG 1.1//EN"
  "http://www.w3.org/Graphics/SVG/1.1/DTD/svg11.dtd">
<!-- Created with matplotlib (http://matplotlib.org/) -->
<svg height="345.6pt" version="1.1" viewBox="0 0 460.8 345.6" width="460.8pt" xmlns="http://www.w3.org/2000/svg" xmlns:xlink="http://www.w3.org/1999/xlink">
 <defs>
  <style type="text/css">
*{stroke-linecap:butt;stroke-linejoin:round;}
  </style>
 </defs>
 <g id="figure_1">
  <g id="patch_1">
   <path d="M 0 345.6 
L 460.8 345.6 
L 460.8 0 
L 0 0 
z
" style="fill:#ffffff;"/>
  </g>
  <g id="axes_1">
   <g id="patch_2">
    <path d="M 57.6 119.740235 
L 414.72 119.740235 
L 414.72 41.472 
L 57.6 41.472 
z
" style="fill:#ffffff;"/>
   </g>
   <g id="matplotlib.axis_1">
    <g id="xtick_1">
     <g id="line2d_1">
      <defs>
       <path d="M 0 0 
L 0 3.5 
" id="mad656d19f4" style="stroke:#000000;stroke-width:0.8;"/>
      </defs>
      <g>
       <use style="stroke:#000000;stroke-width:0.8;" x="73.832727" xlink:href="#mad656d19f4" y="119.740235"/>
      </g>
     </g>
     <g id="text_1">
      <!-- 20.0 -->
      <defs>
       <path d="M 19.1875 8.296875 
L 53.609375 8.296875 
L 53.609375 0 
L 7.328125 0 
L 7.328125 8.296875 
Q 12.9375 14.109375 22.625 23.890625 
Q 32.328125 33.6875 34.8125 36.53125 
Q 39.546875 41.84375 41.421875 45.53125 
Q 43.3125 49.21875 43.3125 52.78125 
Q 43.3125 58.59375 39.234375 62.25 
Q 35.15625 65.921875 28.609375 65.921875 
Q 23.96875 65.921875 18.8125 64.3125 
Q 13.671875 62.703125 7.8125 59.421875 
L 7.8125 69.390625 
Q 13.765625 71.78125 18.9375 73 
Q 24.125 74.21875 28.421875 74.21875 
Q 39.75 74.21875 46.484375 68.546875 
Q 53.21875 62.890625 53.21875 53.421875 
Q 53.21875 48.921875 51.53125 44.890625 
Q 49.859375 40.875 45.40625 35.40625 
Q 44.1875 33.984375 37.640625 27.21875 
Q 31.109375 20.453125 19.1875 8.296875 
z
" id="DejaVuSans-32"/>
       <path d="M 31.78125 66.40625 
Q 24.171875 66.40625 20.328125 58.90625 
Q 16.5 51.421875 16.5 36.375 
Q 16.5 21.390625 20.328125 13.890625 
Q 24.171875 6.390625 31.78125 6.390625 
Q 39.453125 6.390625 43.28125 13.890625 
Q 47.125 21.390625 47.125 36.375 
Q 47.125 51.421875 43.28125 58.90625 
Q 39.453125 66.40625 31.78125 66.40625 
z
M 31.78125 74.21875 
Q 44.046875 74.21875 50.515625 64.515625 
Q 56.984375 54.828125 56.984375 36.375 
Q 56.984375 17.96875 50.515625 8.265625 
Q 44.046875 -1.421875 31.78125 -1.421875 
Q 19.53125 -1.421875 13.0625 8.265625 
Q 6.59375 17.96875 6.59375 36.375 
Q 6.59375 54.828125 13.0625 64.515625 
Q 19.53125 74.21875 31.78125 74.21875 
z
" id="DejaVuSans-30"/>
       <path d="M 10.6875 12.40625 
L 21 12.40625 
L 21 0 
L 10.6875 0 
z
" id="DejaVuSans-2e"/>
      </defs>
      <g transform="translate(62.699915 134.338673)scale(0.1 -0.1)">
       <use xlink:href="#DejaVuSans-32"/>
       <use x="63.623047" xlink:href="#DejaVuSans-30"/>
       <use x="127.246094" xlink:href="#DejaVuSans-2e"/>
       <use x="159.033203" xlink:href="#DejaVuSans-30"/>
      </g>
     </g>
    </g>
    <g id="xtick_2">
     <g id="line2d_2">
      <g>
       <use style="stroke:#000000;stroke-width:0.8;" x="138.828632" xlink:href="#mad656d19f4" y="119.740235"/>
      </g>
     </g>
     <g id="text_2">
      <!-- 20.2 -->
      <g transform="translate(127.69582 134.338673)scale(0.1 -0.1)">
       <use xlink:href="#DejaVuSans-32"/>
       <use x="63.623047" xlink:href="#DejaVuSans-30"/>
       <use x="127.246094" xlink:href="#DejaVuSans-2e"/>
       <use x="159.033203" xlink:href="#DejaVuSans-32"/>
      </g>
     </g>
    </g>
    <g id="xtick_3">
     <g id="line2d_3">
      <g>
       <use style="stroke:#000000;stroke-width:0.8;" x="203.824537" xlink:href="#mad656d19f4" y="119.740235"/>
      </g>
     </g>
     <g id="text_3">
      <!-- 20.4 -->
      <defs>
       <path d="M 37.796875 64.3125 
L 12.890625 25.390625 
L 37.796875 25.390625 
z
M 35.203125 72.90625 
L 47.609375 72.90625 
L 47.609375 25.390625 
L 58.015625 25.390625 
L 58.015625 17.1875 
L 47.609375 17.1875 
L 47.609375 0 
L 37.796875 0 
L 37.796875 17.1875 
L 4.890625 17.1875 
L 4.890625 26.703125 
z
" id="DejaVuSans-34"/>
      </defs>
      <g transform="translate(192.691725 134.338673)scale(0.1 -0.1)">
       <use xlink:href="#DejaVuSans-32"/>
       <use x="63.623047" xlink:href="#DejaVuSans-30"/>
       <use x="127.246094" xlink:href="#DejaVuSans-2e"/>
       <use x="159.033203" xlink:href="#DejaVuSans-34"/>
      </g>
     </g>
    </g>
    <g id="xtick_4">
     <g id="line2d_4">
      <g>
       <use style="stroke:#000000;stroke-width:0.8;" x="268.820442" xlink:href="#mad656d19f4" y="119.740235"/>
      </g>
     </g>
     <g id="text_4">
      <!-- 20.6 -->
      <defs>
       <path d="M 33.015625 40.375 
Q 26.375 40.375 22.484375 35.828125 
Q 18.609375 31.296875 18.609375 23.390625 
Q 18.609375 15.53125 22.484375 10.953125 
Q 26.375 6.390625 33.015625 6.390625 
Q 39.65625 6.390625 43.53125 10.953125 
Q 47.40625 15.53125 47.40625 23.390625 
Q 47.40625 31.296875 43.53125 35.828125 
Q 39.65625 40.375 33.015625 40.375 
z
M 52.59375 71.296875 
L 52.59375 62.3125 
Q 48.875 64.0625 45.09375 64.984375 
Q 41.3125 65.921875 37.59375 65.921875 
Q 27.828125 65.921875 22.671875 59.328125 
Q 17.53125 52.734375 16.796875 39.40625 
Q 19.671875 43.65625 24.015625 45.921875 
Q 28.375 48.1875 33.59375 48.1875 
Q 44.578125 48.1875 50.953125 41.515625 
Q 57.328125 34.859375 57.328125 23.390625 
Q 57.328125 12.15625 50.6875 5.359375 
Q 44.046875 -1.421875 33.015625 -1.421875 
Q 20.359375 -1.421875 13.671875 8.265625 
Q 6.984375 17.96875 6.984375 36.375 
Q 6.984375 53.65625 15.1875 63.9375 
Q 23.390625 74.21875 37.203125 74.21875 
Q 40.921875 74.21875 44.703125 73.484375 
Q 48.484375 72.75 52.59375 71.296875 
z
" id="DejaVuSans-36"/>
      </defs>
      <g transform="translate(257.68763 134.338673)scale(0.1 -0.1)">
       <use xlink:href="#DejaVuSans-32"/>
       <use x="63.623047" xlink:href="#DejaVuSans-30"/>
       <use x="127.246094" xlink:href="#DejaVuSans-2e"/>
       <use x="159.033203" xlink:href="#DejaVuSans-36"/>
      </g>
     </g>
    </g>
    <g id="xtick_5">
     <g id="line2d_5">
      <g>
       <use style="stroke:#000000;stroke-width:0.8;" x="333.816347" xlink:href="#mad656d19f4" y="119.740235"/>
      </g>
     </g>
     <g id="text_5">
      <!-- 20.8 -->
      <defs>
       <path d="M 31.78125 34.625 
Q 24.75 34.625 20.71875 30.859375 
Q 16.703125 27.09375 16.703125 20.515625 
Q 16.703125 13.921875 20.71875 10.15625 
Q 24.75 6.390625 31.78125 6.390625 
Q 38.8125 6.390625 42.859375 10.171875 
Q 46.921875 13.96875 46.921875 20.515625 
Q 46.921875 27.09375 42.890625 30.859375 
Q 38.875 34.625 31.78125 34.625 
z
M 21.921875 38.8125 
Q 15.578125 40.375 12.03125 44.71875 
Q 8.5 49.078125 8.5 55.328125 
Q 8.5 64.0625 14.71875 69.140625 
Q 20.953125 74.21875 31.78125 74.21875 
Q 42.671875 74.21875 48.875 69.140625 
Q 55.078125 64.0625 55.078125 55.328125 
Q 55.078125 49.078125 51.53125 44.71875 
Q 48 40.375 41.703125 38.8125 
Q 48.828125 37.15625 52.796875 32.3125 
Q 56.78125 27.484375 56.78125 20.515625 
Q 56.78125 9.90625 50.3125 4.234375 
Q 43.84375 -1.421875 31.78125 -1.421875 
Q 19.734375 -1.421875 13.25 4.234375 
Q 6.78125 9.90625 6.78125 20.515625 
Q 6.78125 27.484375 10.78125 32.3125 
Q 14.796875 37.15625 21.921875 38.8125 
z
M 18.3125 54.390625 
Q 18.3125 48.734375 21.84375 45.5625 
Q 25.390625 42.390625 31.78125 42.390625 
Q 38.140625 42.390625 41.71875 45.5625 
Q 45.3125 48.734375 45.3125 54.390625 
Q 45.3125 60.0625 41.71875 63.234375 
Q 38.140625 66.40625 31.78125 66.40625 
Q 25.390625 66.40625 21.84375 63.234375 
Q 18.3125 60.0625 18.3125 54.390625 
z
" id="DejaVuSans-38"/>
      </defs>
      <g transform="translate(322.683535 134.338673)scale(0.1 -0.1)">
       <use xlink:href="#DejaVuSans-32"/>
       <use x="63.623047" xlink:href="#DejaVuSans-30"/>
       <use x="127.246094" xlink:href="#DejaVuSans-2e"/>
       <use x="159.033203" xlink:href="#DejaVuSans-38"/>
      </g>
     </g>
    </g>
    <g id="xtick_6">
     <g id="line2d_6">
      <g>
       <use style="stroke:#000000;stroke-width:0.8;" x="398.812252" xlink:href="#mad656d19f4" y="119.740235"/>
      </g>
     </g>
     <g id="text_6">
      <!-- 21.0 -->
      <defs>
       <path d="M 12.40625 8.296875 
L 28.515625 8.296875 
L 28.515625 63.921875 
L 10.984375 60.40625 
L 10.984375 69.390625 
L 28.421875 72.90625 
L 38.28125 72.90625 
L 38.28125 8.296875 
L 54.390625 8.296875 
L 54.390625 0 
L 12.40625 0 
z
" id="DejaVuSans-31"/>
      </defs>
      <g transform="translate(387.67944 134.338673)scale(0.1 -0.1)">
       <use xlink:href="#DejaVuSans-32"/>
       <use x="63.623047" xlink:href="#DejaVuSans-31"/>
       <use x="127.246094" xlink:href="#DejaVuSans-2e"/>
       <use x="159.033203" xlink:href="#DejaVuSans-30"/>
      </g>
     </g>
    </g>
   </g>
   <g id="matplotlib.axis_2">
    <g id="ytick_1">
     <g id="line2d_7">
      <defs>
       <path d="M 0 0 
L -3.5 0 
" id="mc3ffba90e2" style="stroke:#000000;stroke-width:0.8;"/>
      </defs>
      <g>
       <use style="stroke:#000000;stroke-width:0.8;" x="57.6" xlink:href="#mc3ffba90e2" y="111.43163"/>
      </g>
     </g>
     <g id="text_7">
      <!-- −0.005 -->
      <defs>
       <path d="M 10.59375 35.5 
L 73.1875 35.5 
L 73.1875 27.203125 
L 10.59375 27.203125 
z
" id="DejaVuSans-2212"/>
       <path d="M 10.796875 72.90625 
L 49.515625 72.90625 
L 49.515625 64.59375 
L 19.828125 64.59375 
L 19.828125 46.734375 
Q 21.96875 47.46875 24.109375 47.828125 
Q 26.265625 48.1875 28.421875 48.1875 
Q 40.625 48.1875 47.75 41.5 
Q 54.890625 34.8125 54.890625 23.390625 
Q 54.890625 11.625 47.5625 5.09375 
Q 40.234375 -1.421875 26.90625 -1.421875 
Q 22.3125 -1.421875 17.546875 -0.640625 
Q 12.796875 0.140625 7.71875 1.703125 
L 7.71875 11.625 
Q 12.109375 9.234375 16.796875 8.0625 
Q 21.484375 6.890625 26.703125 6.890625 
Q 35.15625 6.890625 40.078125 11.328125 
Q 45.015625 15.765625 45.015625 23.390625 
Q 45.015625 31 40.078125 35.4375 
Q 35.15625 39.890625 26.703125 39.890625 
Q 22.75 39.890625 18.8125 39.015625 
Q 14.890625 38.140625 10.796875 36.28125 
z
" id="DejaVuSans-35"/>
      </defs>
      <g transform="translate(13.592188 115.230849)scale(0.1 -0.1)">
       <use xlink:href="#DejaVuSans-2212"/>
       <use x="83.789062" xlink:href="#DejaVuSans-30"/>
       <use x="147.412109" xlink:href="#DejaVuSans-2e"/>
       <use x="179.199219" xlink:href="#DejaVuSans-30"/>
       <use x="242.822266" xlink:href="#DejaVuSans-30"/>
       <use x="306.445312" xlink:href="#DejaVuSans-35"/>
      </g>
     </g>
    </g>
    <g id="ytick_2">
     <g id="line2d_8">
      <g>
       <use style="stroke:#000000;stroke-width:0.8;" x="57.6" xlink:href="#mc3ffba90e2" y="76.455144"/>
      </g>
     </g>
     <g id="text_8">
      <!-- 0.000 -->
      <g transform="translate(21.971875 80.254363)scale(0.1 -0.1)">
       <use xlink:href="#DejaVuSans-30"/>
       <use x="63.623047" xlink:href="#DejaVuSans-2e"/>
       <use x="95.410156" xlink:href="#DejaVuSans-30"/>
       <use x="159.033203" xlink:href="#DejaVuSans-30"/>
       <use x="222.65625" xlink:href="#DejaVuSans-30"/>
      </g>
     </g>
    </g>
    <g id="ytick_3">
     <g id="line2d_9">
      <g>
       <use style="stroke:#000000;stroke-width:0.8;" x="57.6" xlink:href="#mc3ffba90e2" y="41.478658"/>
      </g>
     </g>
     <g id="text_9">
      <!-- 0.005 -->
      <g transform="translate(21.971875 45.277877)scale(0.1 -0.1)">
       <use xlink:href="#DejaVuSans-30"/>
       <use x="63.623047" xlink:href="#DejaVuSans-2e"/>
       <use x="95.410156" xlink:href="#DejaVuSans-30"/>
       <use x="159.033203" xlink:href="#DejaVuSans-30"/>
       <use x="222.65625" xlink:href="#DejaVuSans-35"/>
      </g>
     </g>
    </g>
    <g id="text_10">
     <!-- TD State 0 -->
     <defs>
      <path d="M -0.296875 72.90625 
L 61.375 72.90625 
L 61.375 64.59375 
L 35.5 64.59375 
L 35.5 0 
L 25.59375 0 
L 25.59375 64.59375 
L -0.296875 64.59375 
z
" id="DejaVuSans-54"/>
      <path d="M 19.671875 64.796875 
L 19.671875 8.109375 
L 31.59375 8.109375 
Q 46.6875 8.109375 53.6875 14.9375 
Q 60.6875 21.78125 60.6875 36.53125 
Q 60.6875 51.171875 53.6875 57.984375 
Q 46.6875 64.796875 31.59375 64.796875 
z
M 9.8125 72.90625 
L 30.078125 72.90625 
Q 51.265625 72.90625 61.171875 64.09375 
Q 71.09375 55.28125 71.09375 36.53125 
Q 71.09375 17.671875 61.125 8.828125 
Q 51.171875 0 30.078125 0 
L 9.8125 0 
z
" id="DejaVuSans-44"/>
      <path id="DejaVuSans-20"/>
      <path d="M 53.515625 70.515625 
L 53.515625 60.890625 
Q 47.90625 63.578125 42.921875 64.890625 
Q 37.9375 66.21875 33.296875 66.21875 
Q 25.25 66.21875 20.875 63.09375 
Q 16.5 59.96875 16.5 54.203125 
Q 16.5 49.359375 19.40625 46.890625 
Q 22.3125 44.4375 30.421875 42.921875 
L 36.375 41.703125 
Q 47.40625 39.59375 52.65625 34.296875 
Q 57.90625 29 57.90625 20.125 
Q 57.90625 9.515625 50.796875 4.046875 
Q 43.703125 -1.421875 29.984375 -1.421875 
Q 24.8125 -1.421875 18.96875 -0.25 
Q 13.140625 0.921875 6.890625 3.21875 
L 6.890625 13.375 
Q 12.890625 10.015625 18.65625 8.296875 
Q 24.421875 6.59375 29.984375 6.59375 
Q 38.421875 6.59375 43.015625 9.90625 
Q 47.609375 13.234375 47.609375 19.390625 
Q 47.609375 24.75 44.3125 27.78125 
Q 41.015625 30.8125 33.5 32.328125 
L 27.484375 33.5 
Q 16.453125 35.6875 11.515625 40.375 
Q 6.59375 45.0625 6.59375 53.421875 
Q 6.59375 63.09375 13.40625 68.65625 
Q 20.21875 74.21875 32.171875 74.21875 
Q 37.3125 74.21875 42.625 73.28125 
Q 47.953125 72.359375 53.515625 70.515625 
z
" id="DejaVuSans-53"/>
      <path d="M 18.3125 70.21875 
L 18.3125 54.6875 
L 36.8125 54.6875 
L 36.8125 47.703125 
L 18.3125 47.703125 
L 18.3125 18.015625 
Q 18.3125 11.328125 20.140625 9.421875 
Q 21.96875 7.515625 27.59375 7.515625 
L 36.8125 7.515625 
L 36.8125 0 
L 27.59375 0 
Q 17.1875 0 13.234375 3.875 
Q 9.28125 7.765625 9.28125 18.015625 
L 9.28125 47.703125 
L 2.6875 47.703125 
L 2.6875 54.6875 
L 9.28125 54.6875 
L 9.28125 70.21875 
z
" id="DejaVuSans-74"/>
      <path d="M 34.28125 27.484375 
Q 23.390625 27.484375 19.1875 25 
Q 14.984375 22.515625 14.984375 16.5 
Q 14.984375 11.71875 18.140625 8.90625 
Q 21.296875 6.109375 26.703125 6.109375 
Q 34.1875 6.109375 38.703125 11.40625 
Q 43.21875 16.703125 43.21875 25.484375 
L 43.21875 27.484375 
z
M 52.203125 31.203125 
L 52.203125 0 
L 43.21875 0 
L 43.21875 8.296875 
Q 40.140625 3.328125 35.546875 0.953125 
Q 30.953125 -1.421875 24.3125 -1.421875 
Q 15.921875 -1.421875 10.953125 3.296875 
Q 6 8.015625 6 15.921875 
Q 6 25.140625 12.171875 29.828125 
Q 18.359375 34.515625 30.609375 34.515625 
L 43.21875 34.515625 
L 43.21875 35.40625 
Q 43.21875 41.609375 39.140625 45 
Q 35.0625 48.390625 27.6875 48.390625 
Q 23 48.390625 18.546875 47.265625 
Q 14.109375 46.140625 10.015625 43.890625 
L 10.015625 52.203125 
Q 14.9375 54.109375 19.578125 55.046875 
Q 24.21875 56 28.609375 56 
Q 40.484375 56 46.34375 49.84375 
Q 52.203125 43.703125 52.203125 31.203125 
z
" id="DejaVuSans-61"/>
      <path d="M 56.203125 29.59375 
L 56.203125 25.203125 
L 14.890625 25.203125 
Q 15.484375 15.921875 20.484375 11.0625 
Q 25.484375 6.203125 34.421875 6.203125 
Q 39.59375 6.203125 44.453125 7.46875 
Q 49.3125 8.734375 54.109375 11.28125 
L 54.109375 2.78125 
Q 49.265625 0.734375 44.1875 -0.34375 
Q 39.109375 -1.421875 33.890625 -1.421875 
Q 20.796875 -1.421875 13.15625 6.1875 
Q 5.515625 13.8125 5.515625 26.8125 
Q 5.515625 40.234375 12.765625 48.109375 
Q 20.015625 56 32.328125 56 
Q 43.359375 56 49.78125 48.890625 
Q 56.203125 41.796875 56.203125 29.59375 
z
M 47.21875 32.234375 
Q 47.125 39.59375 43.09375 43.984375 
Q 39.0625 48.390625 32.421875 48.390625 
Q 24.90625 48.390625 20.390625 44.140625 
Q 15.875 39.890625 15.1875 32.171875 
z
" id="DejaVuSans-65"/>
     </defs>
     <g transform="translate(7.5125 107.104555)rotate(-90)scale(0.1 -0.1)">
      <use xlink:href="#DejaVuSans-54"/>
      <use x="61.083984" xlink:href="#DejaVuSans-44"/>
      <use x="138.085938" xlink:href="#DejaVuSans-20"/>
      <use x="169.873047" xlink:href="#DejaVuSans-53"/>
      <use x="233.349609" xlink:href="#DejaVuSans-74"/>
      <use x="272.558594" xlink:href="#DejaVuSans-61"/>
      <use x="333.837891" xlink:href="#DejaVuSans-74"/>
      <use x="373.046875" xlink:href="#DejaVuSans-65"/>
      <use x="434.570312" xlink:href="#DejaVuSans-20"/>
      <use x="466.357422" xlink:href="#DejaVuSans-30"/>
     </g>
    </g>
   </g>
   <g id="line2d_10">
    <path clip-path="url(#p9f5a6bae0b)" d="M 73.832727 79.606853 
L 74.157707 55.509094 
L 75.132645 54.990822 
L 76.432563 54.350801 
L 77.082523 54.043924 
L 78.057461 53.394312 
L 78.70742 53.166656 
L 79.682359 52.694249 
L 81.307256 51.957495 
L 84.232072 50.461887 
L 84.882031 50.281764 
L 87.156888 49.646746 
L 87.806847 49.292753 
L 89.106765 48.948768 
L 90.081704 48.489286 
L 90.406683 73.432983 
L 110.230434 75.244491 
L 111.530352 75.27214 
L 114.130188 75.442654 
L 121.929697 75.756501 
L 122.254676 76.226635 
L 122.904636 78.277284 
L 123.879574 79.389224 
L 124.204554 80.32775 
L 124.529533 80.28801 
L 124.854513 80.82935 
L 125.179492 81.861007 
L 125.504472 82.338991 
L 125.829451 83.01603 
L 126.154431 83.254866 
L 126.80439 84.215185 
L 127.129369 84.829551 
L 127.454349 85.100811 
L 127.779328 85.801154 
L 128.104308 86.160762 
L 128.429287 85.441513 
L 129.079247 84.812821 
L 129.404226 84.708973 
L 130.054185 82.943207 
L 130.379165 82.651471 
L 132.979001 82.075347 
L 133.953939 82.047854 
L 134.603898 81.898422 
L 136.553776 81.959838 
L 137.853694 81.813566 
L 139.153612 81.751922 
L 139.803571 81.768275 
L 140.778509 81.698442 
L 141.103489 81.52628 
L 142.078428 81.451586 
L 142.403407 81.383343 
L 143.053366 81.521895 
L 143.703325 81.400086 
L 144.028305 81.435319 
L 144.678264 81.379858 
L 147.2781 81.171199 
L 148.253038 81.041286 
L 148.578018 81.060068 
L 149.227977 80.905601 
L 150.527895 80.848276 
L 150.852875 80.810444 
L 151.177854 80.92508 
L 151.827813 80.859586 
L 152.477772 80.856778 
L 153.452711 80.874661 
L 154.10267 80.803552 
L 154.752629 80.790196 
L 155.077609 80.697835 
L 156.377527 80.720265 
L 158.002424 80.618549 
L 158.977363 80.590202 
L 159.627322 80.410203 
L 161.252219 80.495704 
L 161.902179 80.425812 
L 164.502015 80.312069 
L 166.126912 80.03546 
L 168.07679 79.934578 
L 169.376708 80.020782 
L 170.026667 79.959588 
L 171.651564 80.122942 
L 172.301523 80.121652 
L 172.951482 80.115137 
L 173.926421 80.209121 
L 176.526257 79.993368 
L 177.501196 79.908179 
L 179.126093 79.85135 
L 180.101032 79.647291 
L 180.750991 79.796221 
L 183.350827 79.845259 
L 186.275643 79.569171 
L 186.925602 79.534844 
L 188.5505 79.374383 
L 189.200459 79.345795 
L 191.475315 79.334518 
L 194.075152 79.192911 
L 194.400131 79.254437 
L 194.725111 79.134765 
L 195.37507 79.173431 
L 199.599803 79.196142 
L 201.87466 79.296901 
L 202.849599 79.3413 
L 203.824537 79.451838 
L 204.474496 79.33801 
L 206.099394 79.519495 
L 206.749353 79.477819 
L 207.724292 79.50786 
L 209.674169 79.459324 
L 211.949025 79.54919 
L 213.248943 79.383243 
L 213.898903 79.365425 
L 214.548862 79.252431 
L 216.823718 79.307709 
L 217.798657 79.240476 
L 218.448616 79.172161 
L 219.098575 79.231023 
L 221.048452 79.133365 
L 221.373432 79.183151 
L 222.34837 79.041824 
L 223.973268 79.110296 
L 232.747715 79.184292 
L 237.297428 79.224684 
L 237.947387 79.286777 
L 238.597346 79.236606 
L 239.247305 79.148121 
L 239.897265 79.283832 
L 241.197183 79.183764 
L 242.497101 79.239095 
L 243.14706 79.191432 
L 245.096937 79.152421 
L 245.746896 79.136492 
L 246.721835 79.15833 
L 249.321671 79.195934 
L 250.621589 79.374976 
L 251.271548 79.262385 
L 255.496282 79.112582 
L 256.146241 79.105983 
L 256.7962 79.094614 
L 257.121179 79.174617 
L 257.446159 79.010892 
L 258.096118 79.138987 
L 260.045995 79.241961 
L 261.020934 79.347196 
L 261.995872 79.228378 
L 262.645831 79.208983 
L 263.29579 79.253447 
L 263.945749 79.282569 
L 264.595708 79.30582 
L 265.895627 79.368962 
L 267.520524 79.383302 
L 269.795381 79.250587 
L 270.12036 79.161581 
L 270.770319 79.115657 
L 271.095299 79.122785 
L 271.420278 79.00293 
L 273.695135 79.069193 
L 275.645012 78.871656 
L 276.619951 79.001647 
L 277.919869 78.855075 
L 278.569828 78.814865 
L 279.219787 78.911983 
L 281.169664 78.769405 
L 281.494644 78.665355 
L 282.144603 78.703103 
L 282.469582 78.012076 
L 282.794562 78.643954 
L 284.419459 78.715683 
L 285.069419 78.875701 
L 287.344275 78.742231 
L 289.294152 78.791705 
L 289.619132 78.651824 
L 291.893989 78.570877 
L 292.218968 78.538413 
L 292.868927 78.673675 
L 295.468763 78.928661 
L 295.793743 78.879083 
L 297.093661 79.055753 
L 303.268272 78.957287 
L 304.24321 78.791242 
L 305.218149 78.840045 
L 305.868108 78.835426 
L 307.493006 78.770721 
L 312.367699 78.994305 
L 313.342637 78.825465 
L 313.992596 78.865929 
L 314.967535 78.81237 
L 315.617494 78.853173 
L 316.592432 78.923957 
L 318.54231 79.116752 
L 318.867289 79.085989 
L 319.842228 79.290022 
L 320.492187 79.337013 
L 321.142146 79.306263 
L 324.391941 79.218873 
L 325.36688 79.355294 
L 326.991777 79.275298 
L 327.316757 79.387074 
L 328.616675 79.248717 
L 329.591613 79.28666 
L 329.916593 79.361985 
L 331.216511 79.286054 
L 332.19145 79.310478 
L 334.466306 79.294185 
L 337.716102 79.20869 
L 338.366061 79.270294 
L 339.01602 79.181894 
L 340.640917 79.096569 
L 341.290876 78.948121 
L 343.890713 78.862027 
L 344.865651 78.944192 
L 345.51561 78.853955 
L 345.84059 78.923918 
L 346.165569 78.860873 
L 346.815528 78.91883 
L 347.140508 78.90382 
L 347.790467 79.023973 
L 352.66516 79.119977 
L 353.315119 79.109774 
L 354.290057 79.254789 
L 354.615037 79.347333 
L 356.239934 79.231831 
L 356.889894 79.282933 
L 360.464668 79.271057 
L 361.439607 79.282327 
L 361.764586 79.217413 
L 362.414545 79.29339 
L 363.064505 79.226645 
L 364.039443 79.359887 
L 365.339361 79.288907 
L 365.98932 79.157985 
L 366.639279 79.151554 
L 367.289238 79.156173 
L 368.264177 79.255805 
L 368.914136 79.198559 
L 369.889075 79.22271 
L 370.539034 79.217263 
L 371.513972 79.253688 
L 372.81389 79.266679 
L 373.463849 79.33517 
L 377.363604 79.074184 
L 377.688583 78.927755 
L 378.013563 78.974343 
L 378.663522 78.90266 
L 379.313481 78.932055 
L 379.96344 79.000096 
L 380.938378 78.999249 
L 381.588337 78.968981 
L 382.238296 78.875675 
L 382.888256 78.876314 
L 384.513153 79.074405 
L 385.488092 79.086406 
L 386.46303 79.032013 
L 386.78801 78.921051 
L 389.387846 79.161457 
L 390.037805 79.027433 
L 390.687764 78.950505 
L 391.337723 79.059994 
L 393.61258 78.999373 
L 394.262539 79.052046 
L 395.562457 79.009041 
L 396.212416 79.06245 
L 396.862375 79.067538 
L 398.487273 79.195412 
L 398.487273 79.195412 
" style="fill:none;stroke:#000000;stroke-linecap:square;stroke-width:4;"/>
   </g>
   <g id="line2d_11">
    <path clip-path="url(#p9f5a6bae0b)" d="M 73.832727 77.661286 
L 74.157707 71.578733 
L 74.807666 83.390131 
L 75.132645 72.504315 
L 75.457625 84.599284 
L 75.782604 69.744268 
L 76.107584 77.707553 
L 76.432563 82.489917 
L 76.757543 73.321577 
L 77.082523 59.516452 
L 77.407502 60.346268 
L 77.732482 65.199739 
L 78.057461 93.450004 
L 78.382441 72.773444 
L 78.70742 69.872267 
L 79.0324 77.128625 
L 79.357379 71.96454 
L 79.682359 78.143415 
L 80.007338 81.560867 
L 80.332318 73.564624 
L 80.657297 70.602179 
L 80.982277 62.364797 
L 81.307256 69.448168 
L 81.632236 83.292888 
L 81.957215 61.848528 
L 82.282195 53.977596 
L 82.607174 74.041758 
L 82.932154 73.742184 
L 83.257133 71.337686 
L 83.582113 66.644623 
L 83.907093 74.450549 
L 84.232072 89.588145 
L 84.557052 75.964169 
L 85.207011 83.889735 
L 85.53199 66.875164 
L 85.85697 82.548158 
L 86.181949 76.563226 
L 86.506929 82.147014 
L 86.831908 85.009272 
L 87.156888 55.540219 
L 87.806847 82.532128 
L 88.131826 74.015647 
L 88.456806 73.664905 
L 88.781785 83.412101 
L 89.106765 65.384635 
L 89.431744 70.114177 
L 89.756724 63.787749 
L 90.081704 73.594707 
L 90.406683 70.971397 
L 90.731663 70.025428 
L 91.056642 66.436061 
L 91.381622 58.025274 
L 91.706601 82.060903 
L 92.031581 62.921619 
L 92.35656 72.767255 
L 92.68154 74.403067 
L 93.006519 59.767356 
L 93.331499 78.039628 
L 93.656478 83.363333 
L 93.981458 64.379543 
L 94.631417 83.90906 
L 94.956396 62.07217 
L 95.281376 72.684408 
L 95.606355 74.092089 
L 95.931335 58.930873 
L 96.256314 82.442923 
L 96.581294 61.894306 
L 96.906274 80.846844 
L 97.231253 65.011742 
L 97.556233 65.087229 
L 97.881212 70.894875 
L 98.206192 87.309401 
L 98.531171 59.664336 
L 98.856151 80.114912 
L 99.18113 61.080542 
L 99.50611 73.036865 
L 99.831089 67.396644 
L 100.156069 78.010621 
L 100.481048 80.709531 
L 100.806028 62.355358 
L 101.131007 70.271991 
L 101.455987 70.810204 
L 101.780966 55.4205 
L 102.430925 68.027643 
L 102.755905 54.496597 
L 103.080885 77.009192 
L 103.405864 75.270841 
L 103.730844 97.182266 
L 104.055823 64.902779 
L 104.380803 73.42345 
L 104.705782 56.487871 
L 105.355741 81.89814 
L 105.680721 67.042726 
L 106.0057 76.694756 
L 106.33068 61.033016 
L 106.655659 77.707708 
L 106.980639 74.648549 
L 107.305618 54.047761 
L 108.280557 92.6109 
L 108.930516 53.456707 
L 109.255495 77.666104 
L 109.580475 66.976655 
L 109.905455 62.791995 
L 110.230434 92.956387 
L 110.555414 91.260784 
L 110.880393 73.61531 
L 111.205373 68.480299 
L 111.530352 61.388828 
L 111.855332 80.354097 
L 112.180311 77.279517 
L 112.505291 87.549691 
L 112.83027 55.779025 
L 113.480229 78.482644 
L 113.805209 65.237052 
L 114.455168 88.09429 
L 114.780147 73.295522 
L 115.105127 83.140575 
L 115.430106 65.376808 
L 115.755086 62.304974 
L 116.080066 71.09025 
L 116.405045 58.561656 
L 116.730025 81.959912 
L 117.055004 79.354124 
L 117.379984 70.840433 
L 117.704963 65.525267 
L 118.029943 67.94262 
L 118.354922 59.471917 
L 118.679902 79.472136 
L 119.004881 84.751437 
L 119.65484 64.712531 
L 119.97982 84.182302 
L 120.304799 75.253511 
L 120.629779 58.044257 
L 120.954758 100.59406 
L 121.279738 84.175349 
L 121.929697 68.51686 
L 122.254676 91.477332 
L 122.579656 93.881668 
L 122.904636 66.980231 
L 123.229615 75.332144 
L 123.554595 74.221208 
L 123.879574 79.770982 
L 124.204554 62.857265 
L 124.529533 64.347486 
L 124.854513 88.94762 
L 125.179492 73.195869 
L 125.504472 77.733368 
L 125.829451 58.657774 
L 126.154431 83.83445 
L 126.47941 85.686182 
L 127.129369 60.562381 
L 127.454349 80.41791 
L 127.779328 78.091459 
L 128.104308 88.716584 
L 128.429287 64.75824 
L 128.754267 84.006878 
L 129.079247 67.48757 
L 129.404226 91.698793 
L 129.729206 107.157511 
L 130.054185 77.392719 
L 130.379165 78.169628 
L 130.704144 112.595946 
L 131.029124 86.05109 
L 131.354103 93.284191 
L 131.679083 71.842777 
L 132.004062 76.346822 
L 132.329042 77.597608 
L 132.654021 83.640592 
L 132.979001 63.013626 
L 133.30398 75.240338 
L 133.62896 68.123435 
L 133.953939 89.552369 
L 134.278919 80.139276 
L 134.603898 66.37345 
L 134.928878 64.412546 
L 135.253857 59.650219 
L 135.578837 66.571313 
L 136.228796 89.278507 
L 136.553776 78.114608 
L 136.878755 83.827256 
L 137.203735 67.673632 
L 137.528714 85.658946 
L 137.853694 81.503513 
L 138.178673 80.050058 
L 138.503653 67.702911 
L 138.828632 72.006091 
L 139.153612 59.752789 
L 139.478591 82.400465 
L 139.803571 81.46004 
L 140.12855 83.092797 
L 140.45353 63.650743 
L 140.778509 116.182588 
L 141.103489 63.988389 
L 141.428468 77.539838 
L 141.753448 86.117051 
L 142.078428 90.669313 
L 142.403407 54.17736 
L 142.728387 62.827397 
L 143.053366 88.391302 
L 143.703325 73.700893 
L 144.028305 83.47319 
L 144.353284 68.639496 
L 144.678264 77.723447 
L 145.003243 74.618607 
L 145.328223 77.398926 
L 145.653202 85.882539 
L 145.978182 88.343954 
L 146.628141 74.874954 
L 146.95312 65.009998 
L 147.2781 78.990588 
L 147.603079 80.108319 
L 147.928059 77.547384 
L 148.253038 70.201487 
L 148.578018 91.236185 
L 148.902998 86.884592 
L 149.227977 73.380791 
L 149.552957 85.11211 
L 150.202916 72.16012 
L 150.527895 85.264635 
L 150.852875 45.029647 
L 151.177854 90.66025 
L 151.502834 72.641299 
L 151.827813 82.459041 
L 152.152793 69.787302 
L 152.477772 70.197175 
L 152.802752 72.449319 
L 153.127731 76.029095 
L 153.452711 87.506829 
L 153.77769 77.243264 
L 154.10267 74.131896 
L 154.427649 73.261268 
L 154.752629 91.890342 
L 155.077609 64.404458 
L 155.402588 77.006936 
L 156.052547 71.005029 
L 156.702506 91.774955 
L 157.027486 67.574724 
L 157.352465 80.084058 
L 158.002424 69.743986 
L 158.327404 83.103261 
L 158.652383 70.227568 
L 158.977363 96.888774 
L 159.302342 92.433225 
L 159.627322 67.162868 
L 159.952301 73.10529 
L 160.277281 63.579362 
L 160.60226 72.905606 
L 160.92724 71.344595 
L 161.252219 87.214352 
L 161.577199 78.49574 
L 161.902179 74.147413 
L 162.227158 62.555497 
L 162.552138 72.359087 
L 163.202097 84.09084 
L 163.527076 76.612043 
L 163.852056 82.234741 
L 164.177035 79.566223 
L 164.502015 82.549642 
L 164.826994 106.579025 
L 165.151974 74.345886 
L 165.476953 69.564836 
L 165.801933 85.679597 
L 166.126912 86.417076 
L 166.451892 84.342635 
L 166.776871 67.718208 
L 167.101851 91.8585 
L 167.42683 82.958658 
L 168.07679 75.803739 
L 168.401769 74.712218 
L 168.726749 58.905147 
L 169.051728 74.66174 
L 169.376708 73.269564 
L 169.701687 92.98451 
L 170.026667 80.965198 
L 170.351646 55.604554 
L 170.676626 77.714238 
L 171.001605 79.36736 
L 171.326585 60.730021 
L 171.651564 66.549451 
L 171.976544 89.644971 
L 172.301523 82.578218 
L 172.626503 60.143791 
L 172.951482 66.87753 
L 173.276462 61.980336 
L 173.601441 74.585945 
L 173.926421 77.415246 
L 174.2514 70.111972 
L 174.57638 91.137508 
L 174.90136 71.46251 
L 175.226339 76.140841 
L 175.551319 83.356749 
L 175.876298 93.618404 
L 176.201278 84.330214 
L 176.526257 87.443039 
L 177.176216 67.443753 
L 177.501196 76.079631 
L 177.826175 63.328098 
L 178.151155 84.74102 
L 178.476134 79.909411 
L 178.801114 80.643041 
L 179.126093 99.520138 
L 179.451073 94.330876 
L 179.776052 81.657717 
L 180.101032 62.380697 
L 180.426011 59.15858 
L 180.750991 78.20512 
L 181.40095 70.455659 
L 181.72593 67.412523 
L 182.050909 84.386453 
L 182.375889 68.125022 
L 182.700868 64.928085 
L 183.025848 81.205201 
L 183.350827 84.924944 
L 183.675807 76.393683 
L 184.000786 92.566524 
L 184.325766 65.025687 
L 184.650745 86.83439 
L 184.975725 82.574875 
L 185.300704 84.726497 
L 185.625684 78.359837 
L 185.950663 82.361587 
L 186.275643 72.55139 
L 186.600622 95.309098 
L 186.925602 76.878629 
L 187.250581 77.929361 
L 187.575561 84.792831 
L 187.900541 84.137183 
L 188.22552 90.274292 
L 188.5505 94.156824 
L 188.875479 70.869496 
L 189.200459 79.504402 
L 189.525438 80.061818 
L 189.850418 78.326714 
L 190.175397 70.736977 
L 190.500377 83.864235 
L 190.825356 81.771521 
L 191.150336 75.112964 
L 191.475315 84.513627 
L 192.125274 71.79557 
L 192.450254 100.18049 
L 192.775233 77.931201 
L 193.100213 74.22851 
L 193.425192 65.096665 
L 193.750172 78.206471 
L 194.075152 63.196614 
L 194.400131 99.9251 
L 194.725111 62.504475 
L 195.05009 79.153896 
L 195.37507 77.477471 
L 195.700049 79.350485 
L 196.025029 69.281737 
L 196.350008 77.934369 
L 196.674988 74.607308 
L 196.999967 69.584906 
L 197.324947 70.192847 
L 197.649926 94.652003 
L 197.974906 56.657295 
L 198.299885 80.357905 
L 198.624865 73.194614 
L 198.949844 93.821376 
L 199.274824 72.521806 
L 199.599803 77.089336 
L 199.924783 60.896317 
L 200.249762 62.042457 
L 200.574742 71.531561 
L 200.899722 85.183131 
L 201.224701 78.873636 
L 201.549681 66.310774 
L 201.87466 74.359504 
L 202.524619 69.937972 
L 202.849599 71.370186 
L 203.174578 69.881423 
L 203.499558 70.004681 
L 203.824537 90.891623 
L 204.149517 73.8566 
L 204.474496 72.331084 
L 204.799476 80.770021 
L 205.124455 75.56222 
L 205.449435 74.608917 
L 205.774414 55.103044 
L 206.099394 91.019044 
L 206.424373 74.413473 
L 206.749353 67.532437 
L 207.074333 64.904134 
L 207.399312 81.609828 
L 207.724292 86.294941 
L 208.049271 89.079739 
L 208.374251 83.356721 
L 208.69923 88.08935 
L 209.02421 56.9022 
L 209.349189 68.837516 
L 209.674169 72.372609 
L 209.999148 82.417585 
L 210.649107 53.904815 
L 210.974087 77.327708 
L 211.299066 86.528965 
L 211.624046 82.193489 
L 211.949025 92.286818 
L 212.274005 78.608198 
L 212.598984 72.636485 
L 212.923964 95.223687 
L 213.248943 74.992602 
L 213.573923 98.238062 
L 213.898903 87.676895 
L 214.223882 88.070495 
L 214.548862 77.932756 
L 214.873841 76.480464 
L 215.198821 61.907699 
L 215.5238 90.716963 
L 215.84878 62.666652 
L 216.498739 82.850892 
L 216.823718 78.05977 
L 217.148698 89.771324 
L 217.473677 69.395968 
L 217.798657 86.72154 
L 218.123636 78.167176 
L 218.448616 63.932964 
L 218.773595 78.613051 
L 219.098575 80.013717 
L 219.423554 71.757477 
L 219.748534 75.639447 
L 220.398493 79.09147 
L 220.723473 86.692025 
L 221.048452 61.42992 
L 221.373432 89.046369 
L 221.698411 89.934076 
L 222.023391 73.824713 
L 222.34837 71.035086 
L 222.67335 71.466988 
L 222.998329 65.901528 
L 223.323309 80.587702 
L 223.648288 79.538773 
L 223.973268 79.003218 
L 224.298247 68.290507 
L 224.623227 93.087669 
L 224.948206 69.873711 
L 225.273186 87.90733 
L 225.923145 50.92652 
L 226.248124 89.639256 
L 226.573104 72.201412 
L 226.898084 87.132984 
L 227.223063 69.083142 
L 227.548043 87.240084 
L 227.873022 58.140852 
L 228.522981 93.378235 
L 229.17294 58.438079 
L 229.49792 74.492609 
L 229.822899 76.151267 
L 230.147879 70.749688 
L 230.472858 95.099044 
L 230.797838 71.621731 
L 231.122817 88.92048 
L 231.447797 76.39731 
L 231.772776 88.212662 
L 232.422735 73.687097 
L 232.747715 75.231403 
L 233.072695 71.711443 
L 233.397674 72.716093 
L 233.722654 86.249376 
L 234.047633 86.875763 
L 234.372613 76.016091 
L 234.697592 89.085735 
L 235.022572 79.759838 
L 235.347551 80.022453 
L 235.672531 80.876919 
L 235.99751 61.649514 
L 236.32249 81.284214 
L 236.647469 87.082838 
L 236.972449 60.016615 
L 237.297428 73.260339 
L 237.622408 75.102954 
L 237.947387 86.100343 
L 238.272367 67.79467 
L 238.597346 82.165093 
L 238.922326 91.463482 
L 239.247305 61.151938 
L 239.897265 85.190883 
L 240.222244 71.418604 
L 240.547224 92.439729 
L 240.872203 74.182268 
L 241.522162 60.755488 
L 241.847142 82.451458 
L 242.172121 80.240067 
L 242.497101 93.44139 
L 242.82208 74.267611 
L 243.14706 74.904466 
L 243.797019 83.720341 
L 244.121998 80.092013 
L 244.446978 73.698641 
L 244.771957 81.606664 
L 245.096937 74.332562 
L 245.746896 67.744296 
L 246.071876 83.778696 
L 246.396855 81.33659 
L 246.721835 68.020796 
L 247.371794 91.788497 
L 247.696773 71.597214 
L 248.021753 67.73017 
L 248.346732 76.795149 
L 248.671712 68.498159 
L 248.996691 71.019843 
L 249.321671 68.808276 
L 249.64665 62.420065 
L 249.97163 83.717518 
L 250.296609 54.258955 
L 250.621589 98.348156 
L 250.946568 76.536504 
L 251.271548 77.33164 
L 251.596527 80.310942 
L 251.921507 94.719768 
L 252.246486 71.404004 
L 252.571466 71.675826 
L 252.896446 79.385269 
L 253.221425 80.705409 
L 253.546405 77.70369 
L 253.871384 85.802659 
L 254.196364 73.724276 
L 254.521343 78.056931 
L 254.846323 75.577437 
L 255.171302 78.581577 
L 255.496282 71.409877 
L 255.821261 87.361515 
L 256.146241 89.608087 
L 256.47122 66.934383 
L 256.7962 64.386173 
L 257.121179 100.037927 
L 257.446159 58.68055 
L 257.771138 76.696786 
L 258.096118 76.322037 
L 258.421097 75.497795 
L 258.746077 72.023793 
L 259.071057 71.019252 
L 259.396036 86.403311 
L 259.721016 65.28239 
L 260.045995 70.702673 
L 260.370975 81.621207 
L 260.695954 60.351424 
L 261.020934 90.250847 
L 261.345913 84.290466 
L 261.670893 85.345524 
L 261.995872 71.83274 
L 262.320852 84.6938 
L 262.645831 82.517941 
L 262.970811 65.909532 
L 263.29579 66.022195 
L 263.62077 79.837394 
L 263.945749 78.615644 
L 264.270729 65.949414 
L 264.595708 66.895848 
L 264.920688 79.539846 
L 265.245667 73.985325 
L 265.570647 73.068562 
L 265.895627 82.713496 
L 266.220606 82.637447 
L 266.545586 64.434707 
L 266.870565 73.876405 
L 267.195545 73.265835 
L 267.520524 76.300153 
L 267.845504 82.405823 
L 268.170483 77.101969 
L 268.495463 74.316799 
L 268.820442 95.29909 
L 269.145422 74.456839 
L 269.470401 81.182971 
L 269.795381 98.37392 
L 270.12036 76.225548 
L 270.44534 87.0913 
L 270.770319 72.652503 
L 271.095299 99.509378 
L 271.745258 60.545595 
L 272.070238 85.039515 
L 272.395217 89.73285 
L 272.720197 69.395049 
L 273.045176 67.55837 
L 273.370156 93.497606 
L 273.695135 84.380289 
L 274.020115 85.163467 
L 274.345094 63.074812 
L 274.670074 75.90341 
L 274.995053 98.786695 
L 275.320033 85.042081 
L 275.645012 64.34172 
L 275.969992 76.753191 
L 276.294971 62.397914 
L 276.619951 88.18247 
L 276.94493 84.264292 
L 277.26991 76.210302 
L 277.594889 86.567524 
L 277.919869 84.650493 
L 278.244848 74.351693 
L 278.569828 56.65504 
L 279.219787 79.882442 
L 279.544767 81.600572 
L 279.869746 77.12971 
L 280.194726 82.68763 
L 280.519705 81.75015 
L 280.844685 92.719126 
L 281.169664 96.911422 
L 281.494644 70.409078 
L 281.819623 86.997428 
L 282.144603 81.289547 
L 282.469582 89.241624 
L 282.794562 72.182525 
L 283.119541 90.564645 
L 283.444521 82.08016 
L 283.7695 77.425805 
L 284.09448 61.707694 
L 284.419459 56.640918 
L 284.744439 73.942286 
L 285.069419 78.873913 
L 285.394398 86.741709 
L 285.719378 64.250095 
L 286.044357 97.930256 
L 286.369337 82.256231 
L 286.694316 76.40306 
L 287.019296 83.261325 
L 287.344275 76.088115 
L 287.669255 76.649999 
L 287.994234 70.698156 
L 288.319214 80.925317 
L 288.644193 58.189926 
L 289.294152 99.190053 
L 289.619132 81.691913 
L 289.944111 76.466549 
L 290.269091 90.508025 
L 290.59407 86.366541 
L 290.91905 65.195304 
L 291.244029 81.982228 
L 291.569009 91.793105 
L 291.893989 86.157299 
L 292.218968 56.456158 
L 292.543948 72.122586 
L 292.868927 74.164889 
L 293.193907 63.981504 
L 293.518886 83.927461 
L 293.843866 60.261051 
L 294.168845 70.35721 
L 294.493825 69.978364 
L 294.818804 71.326788 
L 295.468763 87.389918 
L 295.793743 58.049478 
L 296.118722 74.355786 
L 296.443702 77.37673 
L 296.768681 72.197172 
L 297.093661 74.490271 
L 297.41864 72.406604 
L 297.74362 98.414341 
L 298.0686 83.808781 
L 298.393579 81.036304 
L 298.718559 70.150197 
L 299.043538 81.626334 
L 299.368518 78.419206 
L 299.693497 63.004385 
L 300.018477 78.254203 
L 300.343456 78.188973 
L 300.668436 83.035012 
L 300.993415 69.662704 
L 301.318395 81.469275 
L 301.643374 81.426941 
L 301.968354 76.340276 
L 302.618313 87.055192 
L 302.943292 77.411905 
L 303.268272 93.282832 
L 303.593251 98.82452 
L 303.918231 77.458283 
L 304.24321 68.125135 
L 304.56819 80.583638 
L 304.89317 67.407351 
L 305.218149 63.89855 
L 305.543129 84.881324 
L 305.868108 80.661353 
L 306.193088 80.585794 
L 306.518067 72.981045 
L 306.843047 89.657198 
L 307.168026 69.718319 
L 307.493006 75.801626 
L 307.817985 72.218366 
L 308.142965 61.949946 
L 308.792924 83.911931 
L 309.117903 57.499624 
L 309.442883 79.741845 
L 309.767862 82.424248 
L 310.092842 66.517074 
L 310.417821 82.283167 
L 310.742801 68.520601 
L 311.067781 74.192592 
L 311.39276 82.688605 
L 311.71774 74.491818 
L 312.367699 94.717625 
L 312.692678 79.244179 
L 313.017658 93.809451 
L 313.342637 71.263084 
L 313.667617 70.323658 
L 313.992596 84.923593 
L 314.642555 71.461411 
L 314.967535 85.654159 
L 315.292514 73.916408 
L 315.617494 81.85839 
L 315.942473 61.859744 
L 316.267453 76.113235 
L 316.592432 65.308444 
L 316.917412 60.544262 
L 317.892351 81.680578 
L 318.21733 74.115435 
L 318.54231 83.641412 
L 318.867289 57.172759 
L 319.192269 64.998675 
L 319.517248 60.011289 
L 319.842228 75.199832 
L 320.167207 72.030637 
L 320.492187 81.858573 
L 320.817166 69.851501 
L 321.142146 84.904549 
L 321.467125 75.781099 
L 321.792105 78.413741 
L 322.117084 74.432815 
L 322.442064 103.221371 
L 322.767043 71.59867 
L 323.092023 71.433662 
L 323.417002 72.001699 
L 323.741982 78.293593 
L 324.391941 66.91801 
L 324.716921 68.733899 
L 325.0419 76.932977 
L 325.36688 79.660716 
L 325.691859 69.202698 
L 326.016839 86.622063 
L 326.341818 85.015199 
L 326.666798 75.623416 
L 326.991777 59.553256 
L 327.316757 88.056546 
L 327.641736 81.312336 
L 327.966716 78.978782 
L 328.291695 80.403764 
L 328.616675 73.883956 
L 328.941654 73.187776 
L 329.266634 73.188248 
L 329.591613 59.955143 
L 329.916593 85.214821 
L 330.241572 84.767019 
L 330.891532 73.019926 
L 331.216511 74.273731 
L 331.541491 74.885584 
L 331.86647 84.089397 
L 332.19145 76.585872 
L 332.516429 81.28477 
L 332.841409 83.878717 
L 333.166388 65.049984 
L 333.491368 71.583737 
L 333.816347 86.252588 
L 334.141327 67.659143 
L 334.791286 80.688953 
L 335.116265 66.709119 
L 335.766224 82.150855 
L 336.091204 91.152243 
L 336.416183 67.856075 
L 336.741163 86.344688 
L 337.066143 66.159626 
L 337.391122 79.01874 
L 337.716102 65.531041 
L 338.041081 78.790113 
L 338.366061 77.166628 
L 338.69104 96.488898 
L 339.01602 79.25775 
L 339.340999 75.273185 
L 339.665979 75.411532 
L 339.990958 87.441754 
L 340.315938 87.668481 
L 340.640917 99.452255 
L 340.965897 92.280078 
L 341.290876 75.990398 
L 341.615856 96.402545 
L 341.940835 69.485214 
L 342.265815 70.993408 
L 342.590794 82.425427 
L 342.915774 71.624824 
L 343.240753 75.897753 
L 343.565733 81.650842 
L 343.890713 72.904401 
L 344.215692 55.951637 
L 344.540672 84.743934 
L 344.865651 89.178004 
L 345.190631 90.342441 
L 345.51561 64.931578 
L 345.84059 98.123659 
L 346.165569 67.305169 
L 346.490549 76.839957 
L 346.815528 73.27152 
L 347.140508 56.753767 
L 347.465487 68.820092 
L 347.790467 71.97699 
L 348.115446 64.401148 
L 348.440426 76.549605 
L 348.765405 81.359061 
L 349.090385 75.611754 
L 349.415364 87.082276 
L 350.065324 67.358411 
L 350.390303 89.048713 
L 350.715283 65.136373 
L 351.040262 75.263621 
L 351.365242 80.20389 
L 352.015201 63.619791 
L 352.34018 81.122903 
L 352.66516 91.212375 
L 352.990139 64.219516 
L 353.315119 68.915975 
L 353.640098 57.615221 
L 353.965078 73.835007 
L 354.290057 65.362216 
L 354.615037 77.280817 
L 354.940016 81.7332 
L 355.264996 84.2244 
L 355.589975 82.146091 
L 355.914955 75.955749 
L 356.239934 63.733944 
L 356.564914 79.792755 
L 356.889894 80.957289 
L 357.214873 72.22987 
L 357.539853 79.46322 
L 357.864832 77.834951 
L 358.189812 83.816782 
L 358.514791 65.044751 
L 358.839771 84.700988 
L 359.16475 73.77774 
L 359.48973 68.684344 
L 359.814709 80.530121 
L 360.139689 72.850406 
L 360.464668 77.329591 
L 360.789648 84.958443 
L 361.114627 81.247902 
L 361.439607 94.543142 
L 361.764586 57.899174 
L 362.089566 76.636653 
L 362.414545 87.175337 
L 362.739525 86.768234 
L 363.064505 61.245179 
L 363.389484 81.183004 
L 363.714464 69.142123 
L 364.039443 69.959897 
L 364.364423 61.570404 
L 365.014382 94.82704 
L 365.339361 96.869444 
L 365.98932 70.471371 
L 366.3143 83.381616 
L 366.639279 78.647328 
L 366.964259 71.736795 
L 367.289238 59.246636 
L 367.614218 71.520556 
L 367.939197 70.24183 
L 368.264177 88.694695 
L 368.914136 67.449649 
L 369.239115 87.01364 
L 369.564095 67.625353 
L 369.889075 87.170701 
L 370.214054 75.164532 
L 370.539034 71.316002 
L 370.864013 84.617545 
L 371.188993 78.455755 
L 371.513972 80.155549 
L 371.838952 82.842749 
L 372.163931 60.294661 
L 372.488911 79.164294 
L 372.81389 56.309163 
L 373.463849 80.78614 
L 373.788829 67.855843 
L 374.113808 83.93044 
L 374.438788 82.881888 
L 374.763767 67.828592 
L 375.088747 94.079231 
L 375.413726 73.942334 
L 375.738706 100.331297 
L 376.063686 95.87783 
L 376.388665 82.54955 
L 376.713645 78.77333 
L 377.038624 66.532044 
L 377.363604 108.226569 
L 377.688583 72.380104 
L 378.013563 93.581007 
L 378.338542 80.905538 
L 378.663522 81.280251 
L 379.313481 63.842042 
L 379.63846 71.468946 
L 379.96344 83.196895 
L 380.288419 66.171492 
L 380.613399 81.480867 
L 380.938378 75.117199 
L 381.263358 78.976917 
L 381.588337 96.378641 
L 381.913317 78.947168 
L 382.238296 90.007559 
L 382.563276 60.977822 
L 382.888256 71.311116 
L 383.538215 72.23572 
L 383.863194 80.466225 
L 384.188174 59.646284 
L 384.513153 79.858645 
L 384.838133 79.480747 
L 385.163112 61.584434 
L 385.813071 86.387687 
L 386.138051 85.239189 
L 386.46303 101.098496 
L 386.78801 66.04843 
L 387.112989 69.023528 
L 387.437969 61.044443 
L 387.762948 76.971802 
L 388.087928 66.852701 
L 388.412907 69.092553 
L 388.737887 75.573489 
L 389.062867 67.230229 
L 389.387846 101.553827 
L 389.712826 80.492354 
L 390.037805 87.211076 
L 390.362785 81.215679 
L 390.687764 63.948507 
L 391.012744 78.005778 
L 391.662703 84.012038 
L 391.987682 88.947722 
L 392.312662 74.191616 
L 392.962621 98.433545 
L 393.2876 64.641923 
L 393.61258 58.258184 
L 393.937559 74.034607 
L 394.262539 78.054226 
L 394.587518 93.061107 
L 395.237477 71.891243 
L 395.562457 73.274299 
L 395.887437 81.081096 
L 396.212416 84.771037 
L 396.537396 63.947749 
L 397.187355 75.392701 
L 397.837314 66.968357 
L 398.162293 70.193265 
L 398.487273 69.801065 
L 398.487273 69.801065 
" style="fill:none;stroke:#ff0000;stroke-linecap:square;stroke-width:1.5;"/>
   </g>
   <g id="patch_3">
    <path d="M 57.6 119.740235 
L 57.6 41.472 
" style="fill:none;stroke:#000000;stroke-linecap:square;stroke-linejoin:miter;stroke-width:0.8;"/>
   </g>
   <g id="patch_4">
    <path d="M 414.72 119.740235 
L 414.72 41.472 
" style="fill:none;stroke:#000000;stroke-linecap:square;stroke-linejoin:miter;stroke-width:0.8;"/>
   </g>
   <g id="patch_5">
    <path d="M 57.6 119.740235 
L 414.72 119.740235 
" style="fill:none;stroke:#000000;stroke-linecap:square;stroke-linejoin:miter;stroke-width:0.8;"/>
   </g>
   <g id="patch_6">
    <path d="M 57.6 41.472 
L 414.72 41.472 
" style="fill:none;stroke:#000000;stroke-linecap:square;stroke-linejoin:miter;stroke-width:0.8;"/>
   </g>
  </g>
  <g id="axes_2">
   <g id="patch_7">
    <path d="M 57.6 213.662118 
L 414.72 213.662118 
L 414.72 135.393882 
L 57.6 135.393882 
z
" style="fill:#ffffff;"/>
   </g>
   <g id="matplotlib.axis_3">
    <g id="xtick_7">
     <g id="line2d_12">
      <g>
       <use style="stroke:#000000;stroke-width:0.8;" x="73.832727" xlink:href="#mad656d19f4" y="213.662118"/>
      </g>
     </g>
     <g id="text_11">
      <!-- 20.0 -->
      <g transform="translate(62.699915 228.260555)scale(0.1 -0.1)">
       <use xlink:href="#DejaVuSans-32"/>
       <use x="63.623047" xlink:href="#DejaVuSans-30"/>
       <use x="127.246094" xlink:href="#DejaVuSans-2e"/>
       <use x="159.033203" xlink:href="#DejaVuSans-30"/>
      </g>
     </g>
    </g>
    <g id="xtick_8">
     <g id="line2d_13">
      <g>
       <use style="stroke:#000000;stroke-width:0.8;" x="138.828632" xlink:href="#mad656d19f4" y="213.662118"/>
      </g>
     </g>
     <g id="text_12">
      <!-- 20.2 -->
      <g transform="translate(127.69582 228.260555)scale(0.1 -0.1)">
       <use xlink:href="#DejaVuSans-32"/>
       <use x="63.623047" xlink:href="#DejaVuSans-30"/>
       <use x="127.246094" xlink:href="#DejaVuSans-2e"/>
       <use x="159.033203" xlink:href="#DejaVuSans-32"/>
      </g>
     </g>
    </g>
    <g id="xtick_9">
     <g id="line2d_14">
      <g>
       <use style="stroke:#000000;stroke-width:0.8;" x="203.824537" xlink:href="#mad656d19f4" y="213.662118"/>
      </g>
     </g>
     <g id="text_13">
      <!-- 20.4 -->
      <g transform="translate(192.691725 228.260555)scale(0.1 -0.1)">
       <use xlink:href="#DejaVuSans-32"/>
       <use x="63.623047" xlink:href="#DejaVuSans-30"/>
       <use x="127.246094" xlink:href="#DejaVuSans-2e"/>
       <use x="159.033203" xlink:href="#DejaVuSans-34"/>
      </g>
     </g>
    </g>
    <g id="xtick_10">
     <g id="line2d_15">
      <g>
       <use style="stroke:#000000;stroke-width:0.8;" x="268.820442" xlink:href="#mad656d19f4" y="213.662118"/>
      </g>
     </g>
     <g id="text_14">
      <!-- 20.6 -->
      <g transform="translate(257.68763 228.260555)scale(0.1 -0.1)">
       <use xlink:href="#DejaVuSans-32"/>
       <use x="63.623047" xlink:href="#DejaVuSans-30"/>
       <use x="127.246094" xlink:href="#DejaVuSans-2e"/>
       <use x="159.033203" xlink:href="#DejaVuSans-36"/>
      </g>
     </g>
    </g>
    <g id="xtick_11">
     <g id="line2d_16">
      <g>
       <use style="stroke:#000000;stroke-width:0.8;" x="333.816347" xlink:href="#mad656d19f4" y="213.662118"/>
      </g>
     </g>
     <g id="text_15">
      <!-- 20.8 -->
      <g transform="translate(322.683535 228.260555)scale(0.1 -0.1)">
       <use xlink:href="#DejaVuSans-32"/>
       <use x="63.623047" xlink:href="#DejaVuSans-30"/>
       <use x="127.246094" xlink:href="#DejaVuSans-2e"/>
       <use x="159.033203" xlink:href="#DejaVuSans-38"/>
      </g>
     </g>
    </g>
    <g id="xtick_12">
     <g id="line2d_17">
      <g>
       <use style="stroke:#000000;stroke-width:0.8;" x="398.812252" xlink:href="#mad656d19f4" y="213.662118"/>
      </g>
     </g>
     <g id="text_16">
      <!-- 21.0 -->
      <g transform="translate(387.67944 228.260555)scale(0.1 -0.1)">
       <use xlink:href="#DejaVuSans-32"/>
       <use x="63.623047" xlink:href="#DejaVuSans-31"/>
       <use x="127.246094" xlink:href="#DejaVuSans-2e"/>
       <use x="159.033203" xlink:href="#DejaVuSans-30"/>
      </g>
     </g>
    </g>
   </g>
   <g id="matplotlib.axis_4">
    <g id="ytick_4">
     <g id="line2d_18">
      <g>
       <use style="stroke:#000000;stroke-width:0.8;" x="57.6" xlink:href="#mc3ffba90e2" y="186.756242"/>
      </g>
     </g>
     <g id="text_17">
      <!-- 0.00 -->
      <g transform="translate(28.334375 190.555461)scale(0.1 -0.1)">
       <use xlink:href="#DejaVuSans-30"/>
       <use x="63.623047" xlink:href="#DejaVuSans-2e"/>
       <use x="95.410156" xlink:href="#DejaVuSans-30"/>
       <use x="159.033203" xlink:href="#DejaVuSans-30"/>
      </g>
     </g>
    </g>
    <g id="ytick_5">
     <g id="line2d_19">
      <g>
       <use style="stroke:#000000;stroke-width:0.8;" x="57.6" xlink:href="#mc3ffba90e2" y="143.290243"/>
      </g>
     </g>
     <g id="text_18">
      <!-- 0.02 -->
      <g transform="translate(28.334375 147.089462)scale(0.1 -0.1)">
       <use xlink:href="#DejaVuSans-30"/>
       <use x="63.623047" xlink:href="#DejaVuSans-2e"/>
       <use x="95.410156" xlink:href="#DejaVuSans-30"/>
       <use x="159.033203" xlink:href="#DejaVuSans-32"/>
      </g>
     </g>
    </g>
    <g id="text_19">
     <!-- TD State 1 -->
     <g transform="translate(22.254687 201.026437)rotate(-90)scale(0.1 -0.1)">
      <use xlink:href="#DejaVuSans-54"/>
      <use x="61.083984" xlink:href="#DejaVuSans-44"/>
      <use x="138.085938" xlink:href="#DejaVuSans-20"/>
      <use x="169.873047" xlink:href="#DejaVuSans-53"/>
      <use x="233.349609" xlink:href="#DejaVuSans-74"/>
      <use x="272.558594" xlink:href="#DejaVuSans-61"/>
      <use x="333.837891" xlink:href="#DejaVuSans-74"/>
      <use x="373.046875" xlink:href="#DejaVuSans-65"/>
      <use x="434.570312" xlink:href="#DejaVuSans-20"/>
      <use x="466.357422" xlink:href="#DejaVuSans-31"/>
     </g>
    </g>
   </g>
   <g id="line2d_20">
    <path clip-path="url(#pf4796f8f23)" d="M 73.832727 188.794689 
L 74.157707 153.589139 
L 75.132645 154.914839 
L 76.432563 156.514125 
L 77.082523 157.304829 
L 78.382441 158.85489 
L 80.007338 160.689159 
L 80.657297 161.306023 
L 84.557052 165.564739 
L 85.207011 166.12901 
L 85.85697 166.694836 
L 86.831908 167.448751 
L 87.156888 167.654459 
L 87.806847 168.302153 
L 89.106765 169.230169 
L 90.081704 170.132277 
L 90.406683 209.243262 
L 92.68154 208.067844 
L 93.656478 207.535091 
L 93.981458 207.282596 
L 94.306437 207.180033 
L 95.931335 206.171226 
L 96.256314 206.094547 
L 96.581294 205.88284 
L 96.906274 205.804558 
L 97.556233 205.436377 
L 98.206192 205.135199 
L 98.531171 204.883942 
L 98.856151 204.823359 
L 99.50611 204.554315 
L 100.481048 204.106605 
L 101.131007 203.843066 
L 102.105946 203.610147 
L 103.080885 203.489887 
L 103.730844 203.210682 
L 104.055823 202.903748 
L 108.280557 201.673401 
L 108.930516 201.34721 
L 109.255495 201.396451 
L 109.905455 201.132131 
L 110.230434 201.058857 
L 111.205373 200.528056 
L 114.455168 199.59923 
L 115.430106 199.124054 
L 118.354922 198.458989 
L 118.679902 198.568462 
L 120.954758 197.915133 
L 121.604717 197.481057 
L 121.929697 197.428674 
L 122.254676 197.253259 
L 122.904636 196.242423 
L 123.879574 195.80576 
L 124.204554 195.385378 
L 124.529533 195.452475 
L 124.854513 195.261365 
L 125.179492 194.766863 
L 127.779328 193.114697 
L 128.104308 192.85394 
L 128.429287 192.408464 
L 129.079247 192.019075 
L 129.404226 191.954759 
L 130.054185 190.861103 
L 130.379165 190.680413 
L 133.30398 190.325165 
L 142.078428 189.937253 
L 142.728387 189.952061 
L 143.378346 189.922097 
L 152.152793 189.550608 
L 153.77769 189.541034 
L 158.977363 189.403739 
L 159.627322 189.292255 
L 161.902179 189.301926 
L 164.826994 189.183519 
L 165.476953 189.101521 
L 167.101851 189.036133 
L 168.401769 188.996271 
L 175.876298 189.125437 
L 176.851237 188.99766 
L 177.826175 188.979634 
L 178.801114 188.980318 
L 180.426011 188.879322 
L 182.050909 188.96583 
L 184.325766 188.867465 
L 185.300704 188.835574 
L 186.275643 188.771351 
L 187.250581 188.741246 
L 196.025029 188.52273 
L 201.87466 188.60272 
L 203.174578 188.675238 
L 208.049271 188.719248 
L 209.349189 188.702473 
L 213.898903 188.645156 
L 214.873841 188.588641 
L 217.148698 188.605635 
L 218.448616 188.525458 
L 219.423554 188.543149 
L 221.048452 188.501429 
L 221.698411 188.484743 
L 222.67335 188.465393 
L 224.623227 188.497409 
L 225.598165 188.465931 
L 232.747715 188.532972 
L 249.321671 188.540181 
L 250.946568 188.592284 
L 256.7962 188.477428 
L 257.121179 188.526981 
L 257.446159 188.425572 
L 258.096118 188.50491 
L 260.695954 188.60034 
L 261.345913 188.591576 
L 264.270729 188.579019 
L 265.895627 188.64735 
L 275.969992 188.387734 
L 277.919869 188.329066 
L 278.569828 188.304162 
L 279.219787 188.364316 
L 284.419459 188.242732 
L 285.069419 188.341841 
L 287.994234 188.24625 
L 289.294152 188.289815 
L 289.944111 188.204028 
L 292.868927 188.216715 
L 297.74362 188.459718 
L 298.393579 188.415338 
L 299.693497 188.443857 
L 300.668436 188.484625 
L 308.142965 188.294507 
L 308.792924 188.341493 
L 310.742801 188.364575 
L 312.042719 188.42322 
L 316.917412 188.398397 
L 317.892351 188.485346 
L 319.517248 188.552492 
L 320.492187 188.627559 
L 321.467125 188.598263 
L 322.442064 188.613193 
L 323.092023 188.560114 
L 336.091204 188.590762 
L 337.066143 188.552589 
L 339.340999 188.526041 
L 340.640917 188.478638 
L 341.940835 188.325058 
L 344.540672 188.428389 
L 345.51561 188.328373 
L 346.490549 188.368781 
L 352.015201 188.466737 
L 352.990139 188.455099 
L 355.589975 188.599016 
L 356.564914 188.595713 
L 364.364423 188.641452 
L 365.014382 188.650395 
L 366.3143 188.541088 
L 367.289238 188.515553 
L 368.264177 188.577266 
L 369.564095 188.540752 
L 371.838952 188.561952 
L 372.81389 188.583998 
L 374.113808 188.647294 
L 380.613399 188.424459 
L 384.188174 188.42235 
L 384.838133 188.44508 
L 388.412907 188.472854 
L 389.387846 188.518832 
L 390.362785 188.402959 
L 392.312662 188.417735 
L 394.262539 188.451063 
L 395.562457 188.424426 
L 397.187355 188.487143 
L 398.487273 188.539862 
L 398.487273 188.539862 
" style="fill:none;stroke:#000000;stroke-linecap:square;stroke-width:4;"/>
   </g>
   <g id="line2d_21">
    <path clip-path="url(#pf4796f8f23)" d="M 73.832727 188.086014 
L 74.157707 139.822857 
L 74.482686 145.485174 
L 74.807666 138.951529 
L 75.132645 146.499985 
L 75.457625 144.825549 
L 75.782604 147.393352 
L 76.107584 147.414276 
L 76.432563 148.793259 
L 76.757543 142.871699 
L 77.082523 154.56028 
L 77.407502 156.757737 
L 78.057461 146.366555 
L 78.382441 149.132487 
L 78.70742 148.373663 
L 79.357379 155.944958 
L 79.682359 150.819368 
L 80.007338 156.268844 
L 80.332318 153.459374 
L 80.657297 153.454648 
L 80.982277 156.703955 
L 81.307256 154.475309 
L 81.632236 157.729338 
L 81.957215 153.472295 
L 82.282195 154.716733 
L 82.607174 152.039181 
L 82.932154 150.361249 
L 83.257133 159.39186 
L 83.582113 152.926568 
L 83.907093 154.566337 
L 84.232072 154.330174 
L 84.557052 155.018629 
L 84.882031 159.678608 
L 85.207011 159.677166 
L 85.53199 158.046664 
L 85.85697 153.694723 
L 86.506929 163.91897 
L 86.831908 160.279519 
L 87.156888 162.17169 
L 87.481867 165.247079 
L 87.806847 161.317463 
L 88.131826 158.975515 
L 88.456806 165.113153 
L 88.781785 162.611766 
L 89.106765 160.978009 
L 89.756724 164.947524 
L 90.081704 168.795338 
L 90.406683 203.392431 
L 90.731663 210.104471 
L 91.056642 208.018946 
L 91.381622 201.042636 
L 92.031581 207.286012 
L 92.35656 207.670851 
L 92.68154 202.199433 
L 93.006519 207.573871 
L 93.331499 207.653944 
L 93.981458 202.979567 
L 94.306437 207.822033 
L 94.631417 204.261192 
L 94.956396 205.048362 
L 95.281376 207.492451 
L 95.606355 207.286986 
L 95.931335 203.938708 
L 96.256314 201.852148 
L 96.581294 202.317157 
L 96.906274 203.515083 
L 97.231253 206.639632 
L 97.556233 205.980712 
L 98.206192 202.440923 
L 98.531171 202.082146 
L 98.856151 201.108415 
L 99.18113 203.085744 
L 99.50611 199.593106 
L 99.831089 202.619197 
L 100.156069 204.007308 
L 100.481048 200.873231 
L 100.806028 201.721384 
L 101.131007 199.077039 
L 101.455987 201.469754 
L 102.105946 198.578139 
L 102.430925 199.621839 
L 102.755905 199.917827 
L 103.080885 197.9415 
L 103.405864 200.551798 
L 103.730844 201.475677 
L 104.055823 201.813003 
L 104.380803 200.226257 
L 104.705782 195.375378 
L 105.030762 199.368672 
L 105.355741 201.493102 
L 105.680721 193.147111 
L 106.0057 197.700689 
L 106.33068 199.223467 
L 106.655659 207.582815 
L 106.980639 197.717447 
L 107.305618 197.376412 
L 107.630598 201.642498 
L 107.955577 197.385313 
L 108.280557 196.960573 
L 108.605536 197.512433 
L 108.930516 196.099339 
L 109.255495 199.80481 
L 109.580475 201.918491 
L 109.905455 201.34325 
L 110.230434 195.859603 
L 110.555414 197.657692 
L 110.880393 196.594782 
L 111.205373 199.440412 
L 111.530352 195.65954 
L 111.855332 199.96097 
L 112.180311 198.312776 
L 112.505291 191.188813 
L 112.83027 202.964917 
L 113.15525 202.592801 
L 113.480229 195.385852 
L 113.805209 192.23492 
L 114.130188 198.967294 
L 114.455168 196.993275 
L 114.780147 199.843724 
L 115.105127 196.286006 
L 115.430106 200.977578 
L 115.755086 200.056788 
L 116.080066 201.922758 
L 116.405045 194.905966 
L 116.730025 191.665651 
L 117.055004 196.54414 
L 117.379984 196.631357 
L 117.704963 198.316713 
L 118.029943 197.146635 
L 118.354922 187.211976 
L 118.679902 193.460446 
L 119.004881 195.493342 
L 119.329861 198.430265 
L 119.65484 197.930218 
L 119.97982 193.276125 
L 120.304799 196.416276 
L 120.629779 197.554599 
L 120.954758 194.70305 
L 121.279738 198.111682 
L 121.604717 198.525826 
L 121.929697 195.281711 
L 122.254676 199.664607 
L 122.579656 194.104938 
L 122.904636 193.711995 
L 123.229615 191.776755 
L 123.554595 193.443984 
L 123.879574 198.938895 
L 124.204554 189.637102 
L 124.529533 197.32183 
L 124.854513 197.914543 
L 125.179492 194.209696 
L 125.504472 195.825613 
L 125.829451 194.561681 
L 126.154431 191.094864 
L 126.47941 191.546856 
L 126.80439 195.718934 
L 127.129369 194.53059 
L 127.454349 195.471398 
L 128.104308 192.908287 
L 128.429287 196.41597 
L 128.754267 187.692673 
L 129.079247 191.414645 
L 129.404226 192.980169 
L 129.729206 190.072702 
L 130.054185 190.668697 
L 130.379165 192.305727 
L 131.029124 187.957928 
L 131.679083 193.509419 
L 132.004062 191.673113 
L 132.329042 197.103347 
L 132.654021 189.491586 
L 132.979001 195.912694 
L 133.30398 190.606817 
L 133.62896 194.602729 
L 133.953939 192.270827 
L 134.278919 193.659173 
L 134.603898 189.30116 
L 134.928878 191.941475 
L 135.253857 189.332512 
L 135.578837 188.828408 
L 135.903817 190.415062 
L 136.228796 185.874755 
L 136.553776 195.717222 
L 136.878755 186.194374 
L 137.203735 190.659651 
L 137.528714 191.575363 
L 137.853694 189.737282 
L 138.178673 190.077258 
L 138.503653 186.933858 
L 138.828632 193.574622 
L 139.153612 190.26716 
L 139.478591 188.238422 
L 139.803571 184.969211 
L 140.12855 194.931641 
L 140.45353 192.583444 
L 140.778509 186.539889 
L 141.103489 195.272359 
L 141.428468 189.958471 
L 141.753448 188.443212 
L 142.078428 187.762963 
L 142.403407 187.592259 
L 142.728387 188.895205 
L 143.053366 193.711735 
L 143.703325 182.971772 
L 144.028305 194.265389 
L 144.353284 188.860318 
L 144.678264 188.859497 
L 145.003243 190.290905 
L 145.328223 186.676965 
L 145.978182 191.43308 
L 146.628141 186.689536 
L 146.95312 195.740191 
L 147.2781 198.205282 
L 147.603079 191.145329 
L 147.928059 186.919624 
L 148.253038 188.145392 
L 148.578018 191.865098 
L 149.227977 186.778529 
L 149.552957 188.981142 
L 149.877936 188.001079 
L 150.202916 190.549103 
L 150.527895 186.652666 
L 150.852875 190.440875 
L 151.502834 187.888281 
L 151.827813 187.741095 
L 152.152793 186.702236 
L 152.477772 187.626811 
L 152.802752 193.702136 
L 153.127731 183.636027 
L 153.452711 189.126373 
L 153.77769 187.550993 
L 154.10267 185.288944 
L 154.427649 194.330014 
L 154.752629 190.82656 
L 155.077609 190.749862 
L 155.402588 188.634167 
L 155.727568 187.569785 
L 156.052547 190.571217 
L 156.377527 188.681994 
L 156.702506 189.770016 
L 157.027486 187.228072 
L 157.352465 189.7276 
L 157.677445 185.642285 
L 158.002424 190.075185 
L 158.327404 188.275263 
L 158.652383 191.020397 
L 158.977363 191.652078 
L 159.302342 185.283594 
L 159.627322 189.418402 
L 159.952301 190.85275 
L 160.277281 192.882361 
L 160.92724 183.31448 
L 161.252219 189.948628 
L 161.577199 185.84701 
L 161.902179 188.947896 
L 162.227158 190.482773 
L 162.552138 190.274196 
L 162.877117 191.53978 
L 163.202097 192.216893 
L 163.852056 185.453996 
L 164.177035 185.597824 
L 164.502015 195.043775 
L 165.151974 184.828575 
L 165.476953 190.351836 
L 165.801933 192.389324 
L 166.126912 185.348774 
L 166.451892 187.370704 
L 166.776871 187.385785 
L 167.42683 183.695574 
L 167.75181 184.260665 
L 168.07679 187.588892 
L 168.401769 185.795307 
L 168.726749 185.959945 
L 169.051728 189.102698 
L 169.376708 185.398459 
L 169.701687 188.59099 
L 170.026667 181.334901 
L 170.676626 186.352338 
L 171.001605 192.421507 
L 171.326585 182.706726 
L 171.651564 185.576659 
L 171.976544 185.807604 
L 172.626503 192.255838 
L 172.951482 183.970958 
L 173.276462 190.249607 
L 173.601441 189.181432 
L 173.926421 188.870662 
L 174.2514 189.689002 
L 174.57638 184.831856 
L 174.90136 186.18359 
L 175.226339 182.707733 
L 175.551319 191.62854 
L 175.876298 193.666872 
L 176.201278 186.067649 
L 176.526257 188.520472 
L 176.851237 192.708223 
L 177.501196 187.467546 
L 177.826175 188.254002 
L 178.151155 187.21243 
L 178.476134 185.610374 
L 178.801114 192.777252 
L 179.126093 187.219908 
L 179.451073 187.971056 
L 179.776052 185.493328 
L 180.101032 181.090663 
L 180.426011 190.476299 
L 180.750991 182.858924 
L 181.075971 185.937741 
L 181.40095 187.549034 
L 181.72593 187.833049 
L 182.375889 188.882813 
L 182.700868 192.596849 
L 183.025848 188.517712 
L 183.350827 186.676143 
L 183.675807 189.811113 
L 184.000786 186.036732 
L 184.325766 189.92453 
L 184.650745 187.44374 
L 184.975725 187.686464 
L 185.300704 191.770083 
L 185.625684 187.72802 
L 186.275643 184.432235 
L 186.600622 184.031954 
L 186.925602 188.783425 
L 187.250581 188.816454 
L 187.575561 188.115781 
L 187.900541 186.033339 
L 188.22552 185.59751 
L 188.5505 184.622879 
L 188.875479 184.924085 
L 189.200459 182.679494 
L 189.525438 186.1688 
L 189.850418 184.297958 
L 190.175397 186.115376 
L 190.500377 183.970279 
L 190.825356 188.377032 
L 191.150336 187.416727 
L 191.475315 184.908793 
L 191.800295 190.12622 
L 192.125274 190.996813 
L 192.450254 184.106867 
L 192.775233 194.288495 
L 193.100213 189.116221 
L 193.425192 181.411955 
L 193.750172 189.682921 
L 194.075152 186.165233 
L 194.400131 189.556424 
L 194.725111 185.030159 
L 195.05009 190.189953 
L 195.37507 186.798348 
L 195.700049 184.850739 
L 196.025029 189.305905 
L 196.350008 185.461001 
L 196.674988 192.720817 
L 196.999967 189.129687 
L 197.324947 182.208678 
L 197.649926 189.776962 
L 197.974906 188.656411 
L 198.299885 188.768501 
L 198.624865 181.135369 
L 198.949844 187.057244 
L 199.274824 181.308251 
L 199.599803 181.564703 
L 199.924783 188.957114 
L 200.249762 189.111793 
L 200.574742 190.330808 
L 200.899722 189.661977 
L 201.224701 187.097315 
L 201.549681 187.822553 
L 201.87466 190.103428 
L 202.19964 188.083791 
L 202.524619 184.268406 
L 202.849599 178.523517 
L 203.174578 189.030178 
L 203.499558 187.584521 
L 203.824537 192.528492 
L 204.149517 191.115858 
L 204.474496 181.988175 
L 204.799476 185.296489 
L 205.124455 184.820562 
L 205.449435 179.622927 
L 205.774414 189.478053 
L 206.099394 184.691962 
L 206.749353 188.26634 
L 207.074333 189.509938 
L 207.399312 188.502878 
L 207.724292 183.469293 
L 208.049271 185.971962 
L 208.374251 182.745867 
L 209.349189 191.959437 
L 209.674169 185.697411 
L 209.999148 187.769801 
L 210.324128 182.822026 
L 210.649107 188.99616 
L 210.974087 184.476087 
L 211.299066 186.231127 
L 211.624046 186.439907 
L 211.949025 184.263907 
L 212.274005 188.56461 
L 212.598984 191.256602 
L 213.248943 181.422756 
L 213.573923 180.525866 
L 213.898903 190.281694 
L 214.548862 182.158922 
L 214.873841 182.825042 
L 215.198821 187.59066 
L 215.5238 184.708116 
L 215.84878 189.093668 
L 216.173759 189.31031 
L 216.498739 188.642446 
L 216.823718 186.607554 
L 217.473677 190.60219 
L 217.798657 191.208664 
L 218.123636 184.913306 
L 218.448616 186.739822 
L 218.773595 184.554475 
L 219.098575 189.162407 
L 219.423554 195.879733 
L 219.748534 184.82467 
L 220.073514 187.479346 
L 220.398493 187.744205 
L 220.723473 182.705702 
L 221.048452 189.337854 
L 221.373432 190.300981 
L 221.698411 187.394711 
L 222.023391 188.928527 
L 222.34837 185.175432 
L 222.67335 185.455983 
L 222.998329 182.38831 
L 223.323309 191.885242 
L 223.973268 183.86982 
L 224.298247 190.938749 
L 224.623227 185.164095 
L 224.948206 181.804645 
L 225.273186 186.275317 
L 225.598165 188.084458 
L 225.923145 181.918915 
L 226.248124 179.493297 
L 226.573104 186.76692 
L 226.898084 185.6777 
L 227.223063 188.734578 
L 227.548043 182.001416 
L 227.873022 186.478848 
L 228.198002 183.1284 
L 228.522981 190.845954 
L 228.847961 189.360858 
L 229.17294 189.283214 
L 229.49792 184.560026 
L 229.822899 182.701893 
L 230.147879 185.182226 
L 230.472858 185.02553 
L 230.797838 187.907564 
L 231.122817 183.444203 
L 231.447797 188.321424 
L 231.772776 183.834464 
L 232.097756 186.668531 
L 232.422735 188.082875 
L 232.747715 188.024809 
L 233.072695 186.770215 
L 233.397674 178.925229 
L 233.722654 182.452675 
L 234.047633 191.314659 
L 234.372613 186.685067 
L 234.697592 187.29054 
L 235.022572 189.670607 
L 235.347551 184.2966 
L 235.672531 183.754382 
L 235.99751 178.302995 
L 236.32249 186.485852 
L 236.647469 185.023831 
L 236.972449 186.038271 
L 237.297428 178.152644 
L 237.622408 188.472492 
L 237.947387 192.718569 
L 238.272367 188.273975 
L 238.597346 189.881439 
L 238.922326 183.306265 
L 239.247305 180.266904 
L 239.572285 184.516827 
L 239.897265 186.370864 
L 240.222244 186.194838 
L 240.547224 192.244829 
L 240.872203 186.134921 
L 241.197183 186.731309 
L 241.522162 191.670911 
L 241.847142 185.275152 
L 242.172121 184.260169 
L 242.497101 184.199262 
L 242.82208 186.547287 
L 243.14706 186.097697 
L 243.472039 184.664319 
L 243.797019 187.972689 
L 244.121998 185.309036 
L 244.446978 190.73088 
L 244.771957 181.586314 
L 245.096937 194.047126 
L 245.421916 187.543679 
L 245.746896 187.327061 
L 246.071876 182.804419 
L 246.396855 184.086751 
L 246.721835 193.78081 
L 247.046814 187.343657 
L 247.371794 186.668513 
L 247.696773 182.152072 
L 248.021753 186.557066 
L 248.346732 186.040704 
L 248.996691 189.256736 
L 249.321671 184.958353 
L 249.64665 186.33669 
L 249.97163 186.484367 
L 250.296609 186.122762 
L 250.621589 186.644948 
L 250.946568 189.579744 
L 251.271548 188.988436 
L 251.596527 188.652085 
L 251.921507 181.436565 
L 252.246486 188.915418 
L 252.571466 189.763038 
L 252.896446 179.073709 
L 253.221425 186.096855 
L 253.546405 185.348846 
L 253.871384 190.957741 
L 254.196364 184.026928 
L 254.521343 189.668256 
L 254.846323 190.496535 
L 255.496282 183.540775 
L 255.821261 186.874868 
L 256.146241 185.662393 
L 256.47122 187.117177 
L 256.7962 182.303963 
L 257.121179 196.662485 
L 257.446159 180.98914 
L 258.096118 186.67875 
L 258.421097 184.927853 
L 258.746077 189.230611 
L 259.071057 186.933658 
L 259.396036 180.926883 
L 259.721016 183.722324 
L 260.045995 180.735191 
L 260.695954 189.397505 
L 261.020934 188.067309 
L 261.345913 184.198108 
L 261.670893 185.643634 
L 261.995872 185.881929 
L 262.320852 188.218031 
L 262.645831 187.107105 
L 262.970811 182.346908 
L 263.29579 186.013011 
L 263.945749 189.119277 
L 264.270729 186.5442 
L 264.595708 186.653292 
L 264.920688 192.478028 
L 265.245667 183.615251 
L 265.570647 182.762217 
L 265.895627 185.313137 
L 266.220606 186.779475 
L 266.545586 189.652446 
L 266.870565 189.030768 
L 267.195545 184.474967 
L 267.520524 187.380277 
L 267.845504 184.876961 
L 268.170483 185.135488 
L 268.820442 188.736352 
L 269.145422 189.062899 
L 269.470401 188.086659 
L 270.12036 182.631317 
L 270.44534 190.958211 
L 270.770319 188.302233 
L 271.095299 189.883479 
L 271.420278 182.05199 
L 271.745258 182.285652 
L 272.070238 186.256912 
L 272.395217 186.90523 
L 272.720197 186.977862 
L 273.045176 183.834254 
L 273.370156 182.342863 
L 274.020115 189.595658 
L 274.345094 190.471637 
L 274.670074 186.666534 
L 274.995053 186.462703 
L 275.320033 189.003579 
L 275.645012 182.639857 
L 275.969992 185.081215 
L 276.294971 189.775006 
L 276.619951 188.512145 
L 276.94493 188.520866 
L 277.26991 186.965284 
L 277.594889 185.989312 
L 277.919869 187.764976 
L 278.244848 187.965096 
L 278.569828 185.451957 
L 278.894808 190.657168 
L 279.219787 187.189723 
L 279.544767 185.22331 
L 279.869746 191.846448 
L 280.194726 181.44819 
L 280.519705 186.200146 
L 280.844685 185.504158 
L 281.169664 189.156482 
L 281.494644 188.764448 
L 281.819623 189.319124 
L 282.144603 186.788007 
L 282.469582 178.524202 
L 282.794562 184.209845 
L 283.119541 182.405911 
L 283.444521 179.741099 
L 283.7695 181.608067 
L 284.09448 184.289295 
L 284.419459 180.66342 
L 284.744439 182.653616 
L 285.069419 190.242104 
L 285.394398 186.546747 
L 285.719378 187.065013 
L 286.044357 181.829606 
L 286.369337 187.985054 
L 286.694316 186.913027 
L 287.019296 183.886528 
L 287.344275 185.80046 
L 287.669255 191.238486 
L 287.994234 183.153331 
L 288.319214 187.422546 
L 288.644193 187.560686 
L 288.969173 188.936903 
L 289.294152 193.37674 
L 289.619132 182.803664 
L 289.944111 189.15667 
L 290.269091 182.724775 
L 290.59407 185.714081 
L 290.91905 184.297522 
L 291.244029 188.173976 
L 291.569009 179.980274 
L 291.893989 185.142171 
L 292.218968 184.773247 
L 292.543948 184.007972 
L 292.868927 182.47088 
L 293.193907 182.411517 
L 293.518886 191.870701 
L 293.843866 185.221178 
L 294.168845 185.929118 
L 294.493825 188.97249 
L 294.818804 180.332709 
L 295.143784 183.110719 
L 295.468763 187.052923 
L 295.793743 188.478262 
L 296.118722 181.629304 
L 296.443702 182.770771 
L 296.768681 182.315282 
L 297.093661 188.458665 
L 297.41864 187.661463 
L 297.74362 186.517012 
L 298.0686 177.806601 
L 298.393579 185.314589 
L 298.718559 182.673254 
L 299.043538 184.69895 
L 299.368518 182.975072 
L 299.693497 183.394597 
L 300.018477 188.141124 
L 300.343456 185.063137 
L 300.668436 185.395383 
L 300.993415 189.872489 
L 301.318395 187.318889 
L 301.643374 188.06994 
L 302.293333 185.053371 
L 302.618313 189.912184 
L 302.943292 186.592942 
L 303.268272 188.373689 
L 303.593251 184.973557 
L 303.918231 185.371759 
L 304.24321 184.135978 
L 304.56819 184.063517 
L 304.89317 193.544403 
L 305.543129 186.738545 
L 305.868108 189.512672 
L 306.193088 184.220215 
L 306.518067 192.621007 
L 306.843047 185.372263 
L 307.168026 184.540073 
L 307.493006 184.493385 
L 307.817985 187.844358 
L 308.142965 183.390607 
L 308.467944 189.99745 
L 308.792924 183.942918 
L 309.117903 183.584802 
L 309.442883 189.050338 
L 309.767862 186.28943 
L 310.417821 188.652644 
L 310.742801 183.811701 
L 311.067781 187.453821 
L 311.71774 180.484936 
L 312.042719 182.140211 
L 312.367699 188.937721 
L 312.692678 191.538346 
L 313.017658 179.975867 
L 313.342637 180.756795 
L 313.667617 194.221698 
L 313.992596 188.67286 
L 314.317576 188.509866 
L 314.642555 188.558748 
L 314.967535 184.317229 
L 315.292514 177.79857 
L 315.617494 183.353788 
L 315.942473 186.064611 
L 316.267453 186.097317 
L 316.592432 187.672857 
L 316.917412 181.858017 
L 317.242391 184.071716 
L 317.567371 188.669787 
L 317.892351 184.856854 
L 318.21733 185.074568 
L 318.54231 186.65661 
L 318.867289 184.906831 
L 319.192269 189.324352 
L 319.517248 186.364703 
L 319.842228 182.215883 
L 320.492187 192.593199 
L 320.817166 186.787117 
L 321.142146 183.439025 
L 321.467125 183.596663 
L 321.792105 187.090186 
L 322.117084 186.1773 
L 322.442064 186.965643 
L 322.767043 184.919091 
L 323.092023 189.723822 
L 323.417002 188.423804 
L 323.741982 192.244082 
L 324.066962 186.156543 
L 324.391941 183.169088 
L 324.716921 183.889643 
L 325.0419 182.91251 
L 325.36688 188.3651 
L 325.691859 186.323562 
L 326.016839 187.29815 
L 326.341818 184.746729 
L 326.666798 190.231228 
L 326.991777 180.564122 
L 327.316757 188.656437 
L 327.641736 188.949087 
L 327.966716 188.00261 
L 328.291695 187.650304 
L 328.616675 188.863381 
L 328.941654 183.512877 
L 329.266634 188.189388 
L 329.591613 186.222175 
L 329.916593 187.757986 
L 330.241572 184.788752 
L 330.566552 187.030943 
L 330.891532 187.915093 
L 331.216511 182.898602 
L 331.541491 185.034513 
L 331.86647 185.588176 
L 332.19145 189.497788 
L 332.516429 186.946677 
L 332.841409 186.801622 
L 333.166388 192.000937 
L 333.491368 184.760998 
L 333.816347 186.533292 
L 334.141327 185.468125 
L 334.466306 189.821266 
L 334.791286 186.285062 
L 335.116265 187.974503 
L 335.441245 188.152994 
L 335.766224 187.248659 
L 336.091204 188.797907 
L 336.416183 183.656377 
L 336.741163 186.480081 
L 337.066143 191.071981 
L 337.391122 189.132117 
L 337.716102 181.92458 
L 338.041081 187.658963 
L 338.366061 184.980509 
L 338.69104 188.174147 
L 339.01602 186.195501 
L 339.340999 186.500271 
L 339.665979 190.065472 
L 339.990958 183.495847 
L 340.315938 185.21901 
L 340.640917 186.159234 
L 340.965897 183.914649 
L 341.290876 190.874085 
L 341.615856 184.993494 
L 342.265815 188.320792 
L 342.590794 186.041864 
L 342.915774 189.345669 
L 343.240753 186.931194 
L 343.565733 185.716542 
L 343.890713 181.859908 
L 344.215692 183.763602 
L 344.540672 192.472367 
L 344.865651 184.987095 
L 345.51561 183.553602 
L 345.84059 181.60613 
L 346.490549 186.543108 
L 346.815528 191.470924 
L 347.140508 184.870502 
L 347.465487 188.514711 
L 347.790467 188.284386 
L 348.115446 185.300823 
L 348.440426 190.102527 
L 348.765405 185.959967 
L 349.090385 186.35151 
L 349.415364 189.375123 
L 349.740344 185.027455 
L 350.065324 185.4194 
L 350.715283 186.935021 
L 351.040262 182.396483 
L 351.365242 190.004301 
L 351.690221 185.132069 
L 352.015201 187.204297 
L 352.34018 185.172707 
L 353.315119 188.669815 
L 353.640098 185.334849 
L 353.965078 183.267085 
L 354.290057 179.564233 
L 354.615037 191.061572 
L 354.940016 178.492066 
L 355.264996 190.034923 
L 355.589975 191.37602 
L 355.914955 188.075749 
L 356.239934 187.047495 
L 356.564914 184.812834 
L 356.889894 185.329905 
L 357.214873 190.443517 
L 357.539853 190.914015 
L 357.864832 182.966946 
L 358.189812 184.131663 
L 358.514791 183.937951 
L 358.839771 187.153464 
L 359.16475 189.105345 
L 359.48973 190.171467 
L 359.814709 188.502276 
L 360.464668 180.236408 
L 360.789648 184.210707 
L 361.114627 183.892897 
L 361.439607 184.461036 
L 361.764586 187.908626 
L 362.089566 186.299293 
L 362.414545 186.689517 
L 362.739525 182.729362 
L 363.064505 184.482989 
L 363.389484 185.017424 
L 363.714464 181.71258 
L 364.039443 191.453811 
L 365.014382 187.530261 
L 365.339361 187.442856 
L 365.664341 186.967174 
L 365.98932 184.590085 
L 366.3143 189.300731 
L 366.964259 186.490999 
L 367.289238 187.824269 
L 367.939197 188.357389 
L 368.264177 187.330823 
L 368.589156 186.726099 
L 368.914136 186.612051 
L 369.239115 186.07303 
L 369.564095 188.826961 
L 370.214054 182.542702 
L 370.539034 183.677047 
L 370.864013 182.847314 
L 371.188993 184.22625 
L 371.513972 187.807582 
L 371.838952 188.90027 
L 372.163931 185.453524 
L 372.488911 185.141474 
L 372.81389 192.109716 
L 373.13887 188.537616 
L 373.788829 184.518475 
L 374.113808 185.824772 
L 374.438788 191.599492 
L 374.763767 189.961908 
L 375.088747 183.86982 
L 375.413726 188.508027 
L 375.738706 185.622734 
L 376.063686 185.872922 
L 376.388665 181.834014 
L 376.713645 188.484717 
L 377.038624 189.763108 
L 377.363604 188.010535 
L 377.688583 182.059892 
L 378.013563 188.152856 
L 378.338542 181.685588 
L 378.663522 186.128293 
L 378.988501 182.920428 
L 379.313481 186.483076 
L 379.63846 188.466422 
L 379.96344 186.745516 
L 380.288419 187.822507 
L 380.613399 184.782549 
L 381.263358 189.797498 
L 381.588337 186.912024 
L 381.913317 185.854207 
L 382.238296 186.112876 
L 382.563276 188.664904 
L 382.888256 181.727715 
L 383.213235 181.629916 
L 383.538215 182.014455 
L 383.863194 187.723671 
L 384.188174 187.520262 
L 384.513153 189.553025 
L 384.838133 186.549129 
L 385.163112 188.220674 
L 385.813071 184.589366 
L 386.138051 186.916291 
L 386.46303 187.300874 
L 386.78801 187.224114 
L 387.112989 189.614354 
L 387.437969 185.344077 
L 387.762948 188.0556 
L 388.412907 185.263332 
L 388.737887 186.557568 
L 389.062867 188.783303 
L 389.387846 186.327233 
L 389.712826 188.292458 
L 390.362785 187.259045 
L 390.687764 179.481775 
L 391.337723 187.174891 
L 391.662703 182.766687 
L 391.987682 183.141551 
L 392.312662 183.042437 
L 392.637641 179.497844 
L 393.2876 188.092793 
L 394.262539 191.203733 
L 394.587518 183.720663 
L 394.912498 186.584887 
L 395.237477 178.604908 
L 395.562457 179.921612 
L 395.887437 183.852251 
L 396.537396 189.283667 
L 396.862375 184.148557 
L 397.187355 184.529708 
L 397.512334 187.211517 
L 398.162293 189.049758 
L 398.487273 188.560135 
L 398.487273 188.560135 
" style="fill:none;stroke:#ff0000;stroke-linecap:square;stroke-width:1.5;"/>
   </g>
   <g id="patch_8">
    <path d="M 57.6 213.662118 
L 57.6 135.393882 
" style="fill:none;stroke:#000000;stroke-linecap:square;stroke-linejoin:miter;stroke-width:0.8;"/>
   </g>
   <g id="patch_9">
    <path d="M 414.72 213.662118 
L 414.72 135.393882 
" style="fill:none;stroke:#000000;stroke-linecap:square;stroke-linejoin:miter;stroke-width:0.8;"/>
   </g>
   <g id="patch_10">
    <path d="M 57.6 213.662118 
L 414.72 213.662118 
" style="fill:none;stroke:#000000;stroke-linecap:square;stroke-linejoin:miter;stroke-width:0.8;"/>
   </g>
   <g id="patch_11">
    <path d="M 57.6 135.393882 
L 414.72 135.393882 
" style="fill:none;stroke:#000000;stroke-linecap:square;stroke-linejoin:miter;stroke-width:0.8;"/>
   </g>
   <g id="legend_1">
    <g id="patch_12">
     <path d="M 353.0325 172.750132 
L 407.72 172.750132 
Q 409.72 172.750132 409.72 170.750132 
L 409.72 142.393882 
Q 409.72 140.393882 407.72 140.393882 
L 353.0325 140.393882 
Q 351.0325 140.393882 351.0325 142.393882 
L 351.0325 170.750132 
Q 351.0325 172.750132 353.0325 172.750132 
z
" style="fill:#ffffff;opacity:0.8;stroke:#cccccc;stroke-linejoin:miter;"/>
    </g>
    <g id="line2d_22">
     <path d="M 355.0325 148.49232 
L 375.0325 148.49232 
" style="fill:none;stroke:#000000;stroke-linecap:square;stroke-width:4;"/>
    </g>
    <g id="line2d_23"/>
    <g id="text_20">
     <!-- Pred -->
     <defs>
      <path d="M 19.671875 64.796875 
L 19.671875 37.40625 
L 32.078125 37.40625 
Q 38.96875 37.40625 42.71875 40.96875 
Q 46.484375 44.53125 46.484375 51.125 
Q 46.484375 57.671875 42.71875 61.234375 
Q 38.96875 64.796875 32.078125 64.796875 
z
M 9.8125 72.90625 
L 32.078125 72.90625 
Q 44.34375 72.90625 50.609375 67.359375 
Q 56.890625 61.8125 56.890625 51.125 
Q 56.890625 40.328125 50.609375 34.8125 
Q 44.34375 29.296875 32.078125 29.296875 
L 19.671875 29.296875 
L 19.671875 0 
L 9.8125 0 
z
" id="DejaVuSans-50"/>
      <path d="M 41.109375 46.296875 
Q 39.59375 47.171875 37.8125 47.578125 
Q 36.03125 48 33.890625 48 
Q 26.265625 48 22.1875 43.046875 
Q 18.109375 38.09375 18.109375 28.8125 
L 18.109375 0 
L 9.078125 0 
L 9.078125 54.6875 
L 18.109375 54.6875 
L 18.109375 46.1875 
Q 20.953125 51.171875 25.484375 53.578125 
Q 30.03125 56 36.53125 56 
Q 37.453125 56 38.578125 55.875 
Q 39.703125 55.765625 41.0625 55.515625 
z
" id="DejaVuSans-72"/>
      <path d="M 45.40625 46.390625 
L 45.40625 75.984375 
L 54.390625 75.984375 
L 54.390625 0 
L 45.40625 0 
L 45.40625 8.203125 
Q 42.578125 3.328125 38.25 0.953125 
Q 33.9375 -1.421875 27.875 -1.421875 
Q 17.96875 -1.421875 11.734375 6.484375 
Q 5.515625 14.40625 5.515625 27.296875 
Q 5.515625 40.1875 11.734375 48.09375 
Q 17.96875 56 27.875 56 
Q 33.9375 56 38.25 53.625 
Q 42.578125 51.265625 45.40625 46.390625 
z
M 14.796875 27.296875 
Q 14.796875 17.390625 18.875 11.75 
Q 22.953125 6.109375 30.078125 6.109375 
Q 37.203125 6.109375 41.296875 11.75 
Q 45.40625 17.390625 45.40625 27.296875 
Q 45.40625 37.203125 41.296875 42.84375 
Q 37.203125 48.484375 30.078125 48.484375 
Q 22.953125 48.484375 18.875 42.84375 
Q 14.796875 37.203125 14.796875 27.296875 
z
" id="DejaVuSans-64"/>
     </defs>
     <g transform="translate(383.0325 151.99232)scale(0.1 -0.1)">
      <use xlink:href="#DejaVuSans-50"/>
      <use x="60.287109" xlink:href="#DejaVuSans-72"/>
      <use x="101.369141" xlink:href="#DejaVuSans-65"/>
      <use x="162.892578" xlink:href="#DejaVuSans-64"/>
     </g>
    </g>
    <g id="line2d_24">
     <path d="M 355.0325 163.170445 
L 375.0325 163.170445 
" style="fill:none;stroke:#ff0000;stroke-linecap:square;stroke-width:1.5;"/>
    </g>
    <g id="line2d_25"/>
    <g id="text_21">
     <!-- True -->
     <defs>
      <path d="M 8.5 21.578125 
L 8.5 54.6875 
L 17.484375 54.6875 
L 17.484375 21.921875 
Q 17.484375 14.15625 20.5 10.265625 
Q 23.53125 6.390625 29.59375 6.390625 
Q 36.859375 6.390625 41.078125 11.03125 
Q 45.3125 15.671875 45.3125 23.6875 
L 45.3125 54.6875 
L 54.296875 54.6875 
L 54.296875 0 
L 45.3125 0 
L 45.3125 8.40625 
Q 42.046875 3.421875 37.71875 1 
Q 33.40625 -1.421875 27.6875 -1.421875 
Q 18.265625 -1.421875 13.375 4.4375 
Q 8.5 10.296875 8.5 21.578125 
z
M 31.109375 56 
z
" id="DejaVuSans-75"/>
     </defs>
     <g transform="translate(383.0325 166.670445)scale(0.1 -0.1)">
      <use xlink:href="#DejaVuSans-54"/>
      <use x="60.865234" xlink:href="#DejaVuSans-72"/>
      <use x="101.978516" xlink:href="#DejaVuSans-75"/>
      <use x="165.357422" xlink:href="#DejaVuSans-65"/>
     </g>
    </g>
   </g>
  </g>
  <g id="axes_3">
   <g id="patch_13">
    <path d="M 57.6 307.584 
L 414.72 307.584 
L 414.72 229.315765 
L 57.6 229.315765 
z
" style="fill:#ffffff;"/>
   </g>
   <g id="matplotlib.axis_5">
    <g id="xtick_13">
     <g id="line2d_26">
      <g>
       <use style="stroke:#000000;stroke-width:0.8;" x="73.832727" xlink:href="#mad656d19f4" y="307.584"/>
      </g>
     </g>
     <g id="text_22">
      <!-- 20.0 -->
      <g transform="translate(62.699915 322.182437)scale(0.1 -0.1)">
       <use xlink:href="#DejaVuSans-32"/>
       <use x="63.623047" xlink:href="#DejaVuSans-30"/>
       <use x="127.246094" xlink:href="#DejaVuSans-2e"/>
       <use x="159.033203" xlink:href="#DejaVuSans-30"/>
      </g>
     </g>
    </g>
    <g id="xtick_14">
     <g id="line2d_27">
      <g>
       <use style="stroke:#000000;stroke-width:0.8;" x="138.828632" xlink:href="#mad656d19f4" y="307.584"/>
      </g>
     </g>
     <g id="text_23">
      <!-- 20.2 -->
      <g transform="translate(127.69582 322.182437)scale(0.1 -0.1)">
       <use xlink:href="#DejaVuSans-32"/>
       <use x="63.623047" xlink:href="#DejaVuSans-30"/>
       <use x="127.246094" xlink:href="#DejaVuSans-2e"/>
       <use x="159.033203" xlink:href="#DejaVuSans-32"/>
      </g>
     </g>
    </g>
    <g id="xtick_15">
     <g id="line2d_28">
      <g>
       <use style="stroke:#000000;stroke-width:0.8;" x="203.824537" xlink:href="#mad656d19f4" y="307.584"/>
      </g>
     </g>
     <g id="text_24">
      <!-- 20.4 -->
      <g transform="translate(192.691725 322.182437)scale(0.1 -0.1)">
       <use xlink:href="#DejaVuSans-32"/>
       <use x="63.623047" xlink:href="#DejaVuSans-30"/>
       <use x="127.246094" xlink:href="#DejaVuSans-2e"/>
       <use x="159.033203" xlink:href="#DejaVuSans-34"/>
      </g>
     </g>
    </g>
    <g id="xtick_16">
     <g id="line2d_29">
      <g>
       <use style="stroke:#000000;stroke-width:0.8;" x="268.820442" xlink:href="#mad656d19f4" y="307.584"/>
      </g>
     </g>
     <g id="text_25">
      <!-- 20.6 -->
      <g transform="translate(257.68763 322.182437)scale(0.1 -0.1)">
       <use xlink:href="#DejaVuSans-32"/>
       <use x="63.623047" xlink:href="#DejaVuSans-30"/>
       <use x="127.246094" xlink:href="#DejaVuSans-2e"/>
       <use x="159.033203" xlink:href="#DejaVuSans-36"/>
      </g>
     </g>
    </g>
    <g id="xtick_17">
     <g id="line2d_30">
      <g>
       <use style="stroke:#000000;stroke-width:0.8;" x="333.816347" xlink:href="#mad656d19f4" y="307.584"/>
      </g>
     </g>
     <g id="text_26">
      <!-- 20.8 -->
      <g transform="translate(322.683535 322.182437)scale(0.1 -0.1)">
       <use xlink:href="#DejaVuSans-32"/>
       <use x="63.623047" xlink:href="#DejaVuSans-30"/>
       <use x="127.246094" xlink:href="#DejaVuSans-2e"/>
       <use x="159.033203" xlink:href="#DejaVuSans-38"/>
      </g>
     </g>
    </g>
    <g id="xtick_18">
     <g id="line2d_31">
      <g>
       <use style="stroke:#000000;stroke-width:0.8;" x="398.812252" xlink:href="#mad656d19f4" y="307.584"/>
      </g>
     </g>
     <g id="text_27">
      <!-- 21.0 -->
      <g transform="translate(387.67944 322.182437)scale(0.1 -0.1)">
       <use xlink:href="#DejaVuSans-32"/>
       <use x="63.623047" xlink:href="#DejaVuSans-31"/>
       <use x="127.246094" xlink:href="#DejaVuSans-2e"/>
       <use x="159.033203" xlink:href="#DejaVuSans-30"/>
      </g>
     </g>
    </g>
    <g id="text_28">
     <!-- Time -->
     <defs>
      <path d="M 9.421875 54.6875 
L 18.40625 54.6875 
L 18.40625 0 
L 9.421875 0 
z
M 9.421875 75.984375 
L 18.40625 75.984375 
L 18.40625 64.59375 
L 9.421875 64.59375 
z
" id="DejaVuSans-69"/>
      <path d="M 52 44.1875 
Q 55.375 50.25 60.0625 53.125 
Q 64.75 56 71.09375 56 
Q 79.640625 56 84.28125 50.015625 
Q 88.921875 44.046875 88.921875 33.015625 
L 88.921875 0 
L 79.890625 0 
L 79.890625 32.71875 
Q 79.890625 40.578125 77.09375 44.375 
Q 74.3125 48.1875 68.609375 48.1875 
Q 61.625 48.1875 57.5625 43.546875 
Q 53.515625 38.921875 53.515625 30.90625 
L 53.515625 0 
L 44.484375 0 
L 44.484375 32.71875 
Q 44.484375 40.625 41.703125 44.40625 
Q 38.921875 48.1875 33.109375 48.1875 
Q 26.21875 48.1875 22.15625 43.53125 
Q 18.109375 38.875 18.109375 30.90625 
L 18.109375 0 
L 9.078125 0 
L 9.078125 54.6875 
L 18.109375 54.6875 
L 18.109375 46.1875 
Q 21.1875 51.21875 25.484375 53.609375 
Q 29.78125 56 35.6875 56 
Q 41.65625 56 45.828125 52.96875 
Q 50 49.953125 52 44.1875 
z
" id="DejaVuSans-6d"/>
     </defs>
     <g transform="translate(223.7725 335.860562)scale(0.1 -0.1)">
      <use xlink:href="#DejaVuSans-54"/>
      <use x="61.037109" xlink:href="#DejaVuSans-69"/>
      <use x="88.820312" xlink:href="#DejaVuSans-6d"/>
      <use x="186.232422" xlink:href="#DejaVuSans-65"/>
     </g>
    </g>
   </g>
   <g id="matplotlib.axis_6">
    <g id="ytick_6">
     <g id="line2d_32">
      <g>
       <use style="stroke:#000000;stroke-width:0.8;" x="57.6" xlink:href="#mc3ffba90e2" y="304.026353"/>
      </g>
     </g>
     <g id="text_29">
      <!-- 0 -->
      <g transform="translate(44.2375 307.825572)scale(0.1 -0.1)">
       <use xlink:href="#DejaVuSans-30"/>
      </g>
     </g>
    </g>
    <g id="ytick_7">
     <g id="line2d_33">
      <g>
       <use style="stroke:#000000;stroke-width:0.8;" x="57.6" xlink:href="#mc3ffba90e2" y="268.449882"/>
      </g>
     </g>
     <g id="text_30">
      <!-- 5 -->
      <g transform="translate(44.2375 272.249101)scale(0.1 -0.1)">
       <use xlink:href="#DejaVuSans-35"/>
      </g>
     </g>
    </g>
    <g id="ytick_8">
     <g id="line2d_34">
      <g>
       <use style="stroke:#000000;stroke-width:0.8;" x="57.6" xlink:href="#mc3ffba90e2" y="232.873412"/>
      </g>
     </g>
     <g id="text_31">
      <!-- 10 -->
      <g transform="translate(37.875 236.672631)scale(0.1 -0.1)">
       <use xlink:href="#DejaVuSans-31"/>
       <use x="63.623047" xlink:href="#DejaVuSans-30"/>
      </g>
     </g>
    </g>
    <g id="text_32">
     <!-- Control Input -->
     <defs>
      <path d="M 64.40625 67.28125 
L 64.40625 56.890625 
Q 59.421875 61.53125 53.78125 63.8125 
Q 48.140625 66.109375 41.796875 66.109375 
Q 29.296875 66.109375 22.65625 58.46875 
Q 16.015625 50.828125 16.015625 36.375 
Q 16.015625 21.96875 22.65625 14.328125 
Q 29.296875 6.6875 41.796875 6.6875 
Q 48.140625 6.6875 53.78125 8.984375 
Q 59.421875 11.28125 64.40625 15.921875 
L 64.40625 5.609375 
Q 59.234375 2.09375 53.4375 0.328125 
Q 47.65625 -1.421875 41.21875 -1.421875 
Q 24.65625 -1.421875 15.125 8.703125 
Q 5.609375 18.84375 5.609375 36.375 
Q 5.609375 53.953125 15.125 64.078125 
Q 24.65625 74.21875 41.21875 74.21875 
Q 47.75 74.21875 53.53125 72.484375 
Q 59.328125 70.75 64.40625 67.28125 
z
" id="DejaVuSans-43"/>
      <path d="M 30.609375 48.390625 
Q 23.390625 48.390625 19.1875 42.75 
Q 14.984375 37.109375 14.984375 27.296875 
Q 14.984375 17.484375 19.15625 11.84375 
Q 23.34375 6.203125 30.609375 6.203125 
Q 37.796875 6.203125 41.984375 11.859375 
Q 46.1875 17.53125 46.1875 27.296875 
Q 46.1875 37.015625 41.984375 42.703125 
Q 37.796875 48.390625 30.609375 48.390625 
z
M 30.609375 56 
Q 42.328125 56 49.015625 48.375 
Q 55.71875 40.765625 55.71875 27.296875 
Q 55.71875 13.875 49.015625 6.21875 
Q 42.328125 -1.421875 30.609375 -1.421875 
Q 18.84375 -1.421875 12.171875 6.21875 
Q 5.515625 13.875 5.515625 27.296875 
Q 5.515625 40.765625 12.171875 48.375 
Q 18.84375 56 30.609375 56 
z
" id="DejaVuSans-6f"/>
      <path d="M 54.890625 33.015625 
L 54.890625 0 
L 45.90625 0 
L 45.90625 32.71875 
Q 45.90625 40.484375 42.875 44.328125 
Q 39.84375 48.1875 33.796875 48.1875 
Q 26.515625 48.1875 22.3125 43.546875 
Q 18.109375 38.921875 18.109375 30.90625 
L 18.109375 0 
L 9.078125 0 
L 9.078125 54.6875 
L 18.109375 54.6875 
L 18.109375 46.1875 
Q 21.34375 51.125 25.703125 53.5625 
Q 30.078125 56 35.796875 56 
Q 45.21875 56 50.046875 50.171875 
Q 54.890625 44.34375 54.890625 33.015625 
z
" id="DejaVuSans-6e"/>
      <path d="M 9.421875 75.984375 
L 18.40625 75.984375 
L 18.40625 0 
L 9.421875 0 
z
" id="DejaVuSans-6c"/>
      <path d="M 9.8125 72.90625 
L 19.671875 72.90625 
L 19.671875 0 
L 9.8125 0 
z
" id="DejaVuSans-49"/>
      <path d="M 18.109375 8.203125 
L 18.109375 -20.796875 
L 9.078125 -20.796875 
L 9.078125 54.6875 
L 18.109375 54.6875 
L 18.109375 46.390625 
Q 20.953125 51.265625 25.265625 53.625 
Q 29.59375 56 35.59375 56 
Q 45.5625 56 51.78125 48.09375 
Q 58.015625 40.1875 58.015625 27.296875 
Q 58.015625 14.40625 51.78125 6.484375 
Q 45.5625 -1.421875 35.59375 -1.421875 
Q 29.59375 -1.421875 25.265625 0.953125 
Q 20.953125 3.328125 18.109375 8.203125 
z
M 48.6875 27.296875 
Q 48.6875 37.203125 44.609375 42.84375 
Q 40.53125 48.484375 33.40625 48.484375 
Q 26.265625 48.484375 22.1875 42.84375 
Q 18.109375 37.203125 18.109375 27.296875 
Q 18.109375 17.390625 22.1875 11.75 
Q 26.265625 6.109375 33.40625 6.109375 
Q 40.53125 6.109375 44.609375 11.75 
Q 48.6875 17.390625 48.6875 27.296875 
z
" id="DejaVuSans-70"/>
     </defs>
     <g transform="translate(31.795312 301.167851)rotate(-90)scale(0.1 -0.1)">
      <use xlink:href="#DejaVuSans-43"/>
      <use x="69.824219" xlink:href="#DejaVuSans-6f"/>
      <use x="131.005859" xlink:href="#DejaVuSans-6e"/>
      <use x="194.384766" xlink:href="#DejaVuSans-74"/>
      <use x="233.59375" xlink:href="#DejaVuSans-72"/>
      <use x="274.675781" xlink:href="#DejaVuSans-6f"/>
      <use x="335.857422" xlink:href="#DejaVuSans-6c"/>
      <use x="363.640625" xlink:href="#DejaVuSans-20"/>
      <use x="395.427734" xlink:href="#DejaVuSans-49"/>
      <use x="424.919922" xlink:href="#DejaVuSans-6e"/>
      <use x="488.298828" xlink:href="#DejaVuSans-70"/>
      <use x="551.775391" xlink:href="#DejaVuSans-75"/>
      <use x="615.154297" xlink:href="#DejaVuSans-74"/>
     </g>
    </g>
   </g>
   <g id="line2d_35">
    <path clip-path="url(#pf5d5ca88a0)" d="M 73.832727 304.026353 
L 74.157707 232.873412 
L 90.081704 232.873412 
L 90.406683 304.026353 
L 398.487273 304.026353 
L 398.487273 304.026353 
" style="fill:none;stroke:#000000;stroke-linecap:square;stroke-width:1.5;"/>
   </g>
   <g id="patch_14">
    <path d="M 57.6 307.584 
L 57.6 229.315765 
" style="fill:none;stroke:#000000;stroke-linecap:square;stroke-linejoin:miter;stroke-width:0.8;"/>
   </g>
   <g id="patch_15">
    <path d="M 414.72 307.584 
L 414.72 229.315765 
" style="fill:none;stroke:#000000;stroke-linecap:square;stroke-linejoin:miter;stroke-width:0.8;"/>
   </g>
   <g id="patch_16">
    <path d="M 57.6 307.584 
L 414.72 307.584 
" style="fill:none;stroke:#000000;stroke-linecap:square;stroke-linejoin:miter;stroke-width:0.8;"/>
   </g>
   <g id="patch_17">
    <path d="M 57.6 229.315765 
L 414.72 229.315765 
" style="fill:none;stroke:#000000;stroke-linecap:square;stroke-linejoin:miter;stroke-width:0.8;"/>
   </g>
   <g id="legend_2">
    <g id="patch_18">
     <path d="M 349.82625 251.99389 
L 407.72 251.99389 
Q 409.72 251.99389 409.72 249.99389 
L 409.72 236.315765 
Q 409.72 234.315765 407.72 234.315765 
L 349.82625 234.315765 
Q 347.82625 234.315765 347.82625 236.315765 
L 347.82625 249.99389 
Q 347.82625 251.99389 349.82625 251.99389 
z
" style="fill:#ffffff;opacity:0.8;stroke:#cccccc;stroke-linejoin:miter;"/>
    </g>
    <g id="line2d_36">
     <path d="M 351.82625 242.414202 
L 371.82625 242.414202 
" style="fill:none;stroke:#000000;stroke-linecap:square;stroke-width:1.5;"/>
    </g>
    <g id="line2d_37"/>
    <g id="text_33">
     <!-- Input -->
     <g transform="translate(379.82625 245.914202)scale(0.1 -0.1)">
      <use xlink:href="#DejaVuSans-49"/>
      <use x="29.492188" xlink:href="#DejaVuSans-6e"/>
      <use x="92.871094" xlink:href="#DejaVuSans-70"/>
      <use x="156.347656" xlink:href="#DejaVuSans-75"/>
      <use x="219.726562" xlink:href="#DejaVuSans-74"/>
     </g>
    </g>
   </g>
  </g>
 </g>
 <defs>
  <clipPath id="p9f5a6bae0b">
   <rect height="78.268235" width="357.12" x="57.6" y="41.472"/>
  </clipPath>
  <clipPath id="pf4796f8f23">
   <rect height="78.268235" width="357.12" x="57.6" y="135.393882"/>
  </clipPath>
  <clipPath id="pf5d5ca88a0">
   <rect height="78.268235" width="357.12" x="57.6" y="229.315765"/>
  </clipPath>
 </defs>
</svg>
