<?xml version="1.0" encoding="utf-8" standalone="no"?>
<!DOCTYPE svg PUBLIC "-//W3C//DTD SVG 1.1//EN"
  "http://www.w3.org/Graphics/SVG/1.1/DTD/svg11.dtd">
<!-- Created with matplotlib (http://matplotlib.org/) -->
<svg height="345.6pt" version="1.1" viewBox="0 0 460.8 345.6" width="460.8pt" xmlns="http://www.w3.org/2000/svg" xmlns:xlink="http://www.w3.org/1999/xlink">
 <defs>
  <style type="text/css">
*{stroke-linecap:butt;stroke-linejoin:round;}
  </style>
 </defs>
 <g id="figure_1">
  <g id="patch_1">
   <path d="M 0 345.6 
L 460.8 345.6 
L 460.8 0 
L 0 0 
z
" style="fill:#ffffff;"/>
  </g>
  <g id="axes_1">
   <g id="patch_2">
    <path d="M 57.6 307.584 
L 414.72 307.584 
L 414.72 41.472 
L 57.6 41.472 
z
" style="fill:#ffffff;"/>
   </g>
   <g id="matplotlib.axis_1">
    <g id="xtick_1">
     <g id="line2d_1">
      <defs>
       <path d="M 0 0 
L 0 3.5 
" id="mff516e1ed1" style="stroke:#000000;stroke-width:0.8;"/>
      </defs>
      <g>
       <use style="stroke:#000000;stroke-width:0.8;" x="73.832727" xlink:href="#mff516e1ed1" y="307.584"/>
      </g>
     </g>
     <g id="text_1">
      <!-- −20000 -->
      <defs>
       <path d="M 10.59375 35.5 
L 73.1875 35.5 
L 73.1875 27.203125 
L 10.59375 27.203125 
z
" id="DejaVuSans-2212"/>
       <path d="M 19.1875 8.296875 
L 53.609375 8.296875 
L 53.609375 0 
L 7.328125 0 
L 7.328125 8.296875 
Q 12.9375 14.109375 22.625 23.890625 
Q 32.328125 33.6875 34.8125 36.53125 
Q 39.546875 41.84375 41.421875 45.53125 
Q 43.3125 49.21875 43.3125 52.78125 
Q 43.3125 58.59375 39.234375 62.25 
Q 35.15625 65.921875 28.609375 65.921875 
Q 23.96875 65.921875 18.8125 64.3125 
Q 13.671875 62.703125 7.8125 59.421875 
L 7.8125 69.390625 
Q 13.765625 71.78125 18.9375 73 
Q 24.125 74.21875 28.421875 74.21875 
Q 39.75 74.21875 46.484375 68.546875 
Q 53.21875 62.890625 53.21875 53.421875 
Q 53.21875 48.921875 51.53125 44.890625 
Q 49.859375 40.875 45.40625 35.40625 
Q 44.1875 33.984375 37.640625 27.21875 
Q 31.109375 20.453125 19.1875 8.296875 
z
" id="DejaVuSans-32"/>
       <path d="M 31.78125 66.40625 
Q 24.171875 66.40625 20.328125 58.90625 
Q 16.5 51.421875 16.5 36.375 
Q 16.5 21.390625 20.328125 13.890625 
Q 24.171875 6.390625 31.78125 6.390625 
Q 39.453125 6.390625 43.28125 13.890625 
Q 47.125 21.390625 47.125 36.375 
Q 47.125 51.421875 43.28125 58.90625 
Q 39.453125 66.40625 31.78125 66.40625 
z
M 31.78125 74.21875 
Q 44.046875 74.21875 50.515625 64.515625 
Q 56.984375 54.828125 56.984375 36.375 
Q 56.984375 17.96875 50.515625 8.265625 
Q 44.046875 -1.421875 31.78125 -1.421875 
Q 19.53125 -1.421875 13.0625 8.265625 
Q 6.59375 17.96875 6.59375 36.375 
Q 6.59375 54.828125 13.0625 64.515625 
Q 19.53125 74.21875 31.78125 74.21875 
z
" id="DejaVuSans-30"/>
      </defs>
      <g transform="translate(53.736634 322.182437)scale(0.1 -0.1)">
       <use xlink:href="#DejaVuSans-2212"/>
       <use x="83.789062" xlink:href="#DejaVuSans-32"/>
       <use x="147.412109" xlink:href="#DejaVuSans-30"/>
       <use x="211.035156" xlink:href="#DejaVuSans-30"/>
       <use x="274.658203" xlink:href="#DejaVuSans-30"/>
       <use x="338.28125" xlink:href="#DejaVuSans-30"/>
      </g>
     </g>
    </g>
    <g id="xtick_2">
     <g id="line2d_2">
      <g>
       <use style="stroke:#000000;stroke-width:0.8;" x="114.41556" xlink:href="#mff516e1ed1" y="307.584"/>
      </g>
     </g>
     <g id="text_2">
      <!-- −15000 -->
      <defs>
       <path d="M 12.40625 8.296875 
L 28.515625 8.296875 
L 28.515625 63.921875 
L 10.984375 60.40625 
L 10.984375 69.390625 
L 28.421875 72.90625 
L 38.28125 72.90625 
L 38.28125 8.296875 
L 54.390625 8.296875 
L 54.390625 0 
L 12.40625 0 
z
" id="DejaVuSans-31"/>
       <path d="M 10.796875 72.90625 
L 49.515625 72.90625 
L 49.515625 64.59375 
L 19.828125 64.59375 
L 19.828125 46.734375 
Q 21.96875 47.46875 24.109375 47.828125 
Q 26.265625 48.1875 28.421875 48.1875 
Q 40.625 48.1875 47.75 41.5 
Q 54.890625 34.8125 54.890625 23.390625 
Q 54.890625 11.625 47.5625 5.09375 
Q 40.234375 -1.421875 26.90625 -1.421875 
Q 22.3125 -1.421875 17.546875 -0.640625 
Q 12.796875 0.140625 7.71875 1.703125 
L 7.71875 11.625 
Q 12.109375 9.234375 16.796875 8.0625 
Q 21.484375 6.890625 26.703125 6.890625 
Q 35.15625 6.890625 40.078125 11.328125 
Q 45.015625 15.765625 45.015625 23.390625 
Q 45.015625 31 40.078125 35.4375 
Q 35.15625 39.890625 26.703125 39.890625 
Q 22.75 39.890625 18.8125 39.015625 
Q 14.890625 38.140625 10.796875 36.28125 
z
" id="DejaVuSans-35"/>
      </defs>
      <g transform="translate(94.319466 322.182437)scale(0.1 -0.1)">
       <use xlink:href="#DejaVuSans-2212"/>
       <use x="83.789062" xlink:href="#DejaVuSans-31"/>
       <use x="147.412109" xlink:href="#DejaVuSans-35"/>
       <use x="211.035156" xlink:href="#DejaVuSans-30"/>
       <use x="274.658203" xlink:href="#DejaVuSans-30"/>
       <use x="338.28125" xlink:href="#DejaVuSans-30"/>
      </g>
     </g>
    </g>
    <g id="xtick_3">
     <g id="line2d_3">
      <g>
       <use style="stroke:#000000;stroke-width:0.8;" x="154.998393" xlink:href="#mff516e1ed1" y="307.584"/>
      </g>
     </g>
     <g id="text_3">
      <!-- −10000 -->
      <g transform="translate(134.902299 322.182437)scale(0.1 -0.1)">
       <use xlink:href="#DejaVuSans-2212"/>
       <use x="83.789062" xlink:href="#DejaVuSans-31"/>
       <use x="147.412109" xlink:href="#DejaVuSans-30"/>
       <use x="211.035156" xlink:href="#DejaVuSans-30"/>
       <use x="274.658203" xlink:href="#DejaVuSans-30"/>
       <use x="338.28125" xlink:href="#DejaVuSans-30"/>
      </g>
     </g>
    </g>
    <g id="xtick_4">
     <g id="line2d_4">
      <g>
       <use style="stroke:#000000;stroke-width:0.8;" x="195.581226" xlink:href="#mff516e1ed1" y="307.584"/>
      </g>
     </g>
     <g id="text_4">
      <!-- −5000 -->
      <g transform="translate(178.666382 322.182437)scale(0.1 -0.1)">
       <use xlink:href="#DejaVuSans-2212"/>
       <use x="83.789062" xlink:href="#DejaVuSans-35"/>
       <use x="147.412109" xlink:href="#DejaVuSans-30"/>
       <use x="211.035156" xlink:href="#DejaVuSans-30"/>
       <use x="274.658203" xlink:href="#DejaVuSans-30"/>
      </g>
     </g>
    </g>
    <g id="xtick_5">
     <g id="line2d_5">
      <g>
       <use style="stroke:#000000;stroke-width:0.8;" x="236.164058" xlink:href="#mff516e1ed1" y="307.584"/>
      </g>
     </g>
     <g id="text_5">
      <!-- 0 -->
      <g transform="translate(232.982808 322.182437)scale(0.1 -0.1)">
       <use xlink:href="#DejaVuSans-30"/>
      </g>
     </g>
    </g>
    <g id="xtick_6">
     <g id="line2d_6">
      <g>
       <use style="stroke:#000000;stroke-width:0.8;" x="276.746891" xlink:href="#mff516e1ed1" y="307.584"/>
      </g>
     </g>
     <g id="text_6">
      <!-- 5000 -->
      <g transform="translate(264.021891 322.182437)scale(0.1 -0.1)">
       <use xlink:href="#DejaVuSans-35"/>
       <use x="63.623047" xlink:href="#DejaVuSans-30"/>
       <use x="127.246094" xlink:href="#DejaVuSans-30"/>
       <use x="190.869141" xlink:href="#DejaVuSans-30"/>
      </g>
     </g>
    </g>
    <g id="xtick_7">
     <g id="line2d_7">
      <g>
       <use style="stroke:#000000;stroke-width:0.8;" x="317.329724" xlink:href="#mff516e1ed1" y="307.584"/>
      </g>
     </g>
     <g id="text_7">
      <!-- 10000 -->
      <g transform="translate(301.423474 322.182437)scale(0.1 -0.1)">
       <use xlink:href="#DejaVuSans-31"/>
       <use x="63.623047" xlink:href="#DejaVuSans-30"/>
       <use x="127.246094" xlink:href="#DejaVuSans-30"/>
       <use x="190.869141" xlink:href="#DejaVuSans-30"/>
       <use x="254.492188" xlink:href="#DejaVuSans-30"/>
      </g>
     </g>
    </g>
    <g id="xtick_8">
     <g id="line2d_8">
      <g>
       <use style="stroke:#000000;stroke-width:0.8;" x="357.912557" xlink:href="#mff516e1ed1" y="307.584"/>
      </g>
     </g>
     <g id="text_8">
      <!-- 15000 -->
      <g transform="translate(342.006307 322.182437)scale(0.1 -0.1)">
       <use xlink:href="#DejaVuSans-31"/>
       <use x="63.623047" xlink:href="#DejaVuSans-35"/>
       <use x="127.246094" xlink:href="#DejaVuSans-30"/>
       <use x="190.869141" xlink:href="#DejaVuSans-30"/>
       <use x="254.492188" xlink:href="#DejaVuSans-30"/>
      </g>
     </g>
    </g>
    <g id="xtick_9">
     <g id="line2d_9">
      <g>
       <use style="stroke:#000000;stroke-width:0.8;" x="398.495389" xlink:href="#mff516e1ed1" y="307.584"/>
      </g>
     </g>
     <g id="text_9">
      <!-- 20000 -->
      <g transform="translate(382.589139 322.182437)scale(0.1 -0.1)">
       <use xlink:href="#DejaVuSans-32"/>
       <use x="63.623047" xlink:href="#DejaVuSans-30"/>
       <use x="127.246094" xlink:href="#DejaVuSans-30"/>
       <use x="190.869141" xlink:href="#DejaVuSans-30"/>
       <use x="254.492188" xlink:href="#DejaVuSans-30"/>
      </g>
     </g>
    </g>
   </g>
   <g id="matplotlib.axis_2">
    <g id="ytick_1">
     <g id="line2d_10">
      <defs>
       <path d="M 0 0 
L -3.5 0 
" id="m538e612a42" style="stroke:#000000;stroke-width:0.8;"/>
      </defs>
      <g>
       <use style="stroke:#000000;stroke-width:0.8;" x="57.6" xlink:href="#m538e612a42" y="300.486537"/>
      </g>
     </g>
     <g id="text_10">
      <!-- −0.75 -->
      <defs>
       <path d="M 10.6875 12.40625 
L 21 12.40625 
L 21 0 
L 10.6875 0 
z
" id="DejaVuSans-2e"/>
       <path d="M 8.203125 72.90625 
L 55.078125 72.90625 
L 55.078125 68.703125 
L 28.609375 0 
L 18.3125 0 
L 43.21875 64.59375 
L 8.203125 64.59375 
z
" id="DejaVuSans-37"/>
      </defs>
      <g transform="translate(19.954687 304.285756)scale(0.1 -0.1)">
       <use xlink:href="#DejaVuSans-2212"/>
       <use x="83.789062" xlink:href="#DejaVuSans-30"/>
       <use x="147.412109" xlink:href="#DejaVuSans-2e"/>
       <use x="179.199219" xlink:href="#DejaVuSans-37"/>
       <use x="242.822266" xlink:href="#DejaVuSans-35"/>
      </g>
     </g>
    </g>
    <g id="ytick_2">
     <g id="line2d_11">
      <g>
       <use style="stroke:#000000;stroke-width:0.8;" x="57.6" xlink:href="#m538e612a42" y="264.825151"/>
      </g>
     </g>
     <g id="text_11">
      <!-- −0.50 -->
      <g transform="translate(19.954687 268.62437)scale(0.1 -0.1)">
       <use xlink:href="#DejaVuSans-2212"/>
       <use x="83.789062" xlink:href="#DejaVuSans-30"/>
       <use x="147.412109" xlink:href="#DejaVuSans-2e"/>
       <use x="179.199219" xlink:href="#DejaVuSans-35"/>
       <use x="242.822266" xlink:href="#DejaVuSans-30"/>
      </g>
     </g>
    </g>
    <g id="ytick_3">
     <g id="line2d_12">
      <g>
       <use style="stroke:#000000;stroke-width:0.8;" x="57.6" xlink:href="#m538e612a42" y="229.163764"/>
      </g>
     </g>
     <g id="text_12">
      <!-- −0.25 -->
      <g transform="translate(19.954687 232.962983)scale(0.1 -0.1)">
       <use xlink:href="#DejaVuSans-2212"/>
       <use x="83.789062" xlink:href="#DejaVuSans-30"/>
       <use x="147.412109" xlink:href="#DejaVuSans-2e"/>
       <use x="179.199219" xlink:href="#DejaVuSans-32"/>
       <use x="242.822266" xlink:href="#DejaVuSans-35"/>
      </g>
     </g>
    </g>
    <g id="ytick_4">
     <g id="line2d_13">
      <g>
       <use style="stroke:#000000;stroke-width:0.8;" x="57.6" xlink:href="#m538e612a42" y="193.502378"/>
      </g>
     </g>
     <g id="text_13">
      <!-- 0.00 -->
      <g transform="translate(28.334375 197.301596)scale(0.1 -0.1)">
       <use xlink:href="#DejaVuSans-30"/>
       <use x="63.623047" xlink:href="#DejaVuSans-2e"/>
       <use x="95.410156" xlink:href="#DejaVuSans-30"/>
       <use x="159.033203" xlink:href="#DejaVuSans-30"/>
      </g>
     </g>
    </g>
    <g id="ytick_5">
     <g id="line2d_14">
      <g>
       <use style="stroke:#000000;stroke-width:0.8;" x="57.6" xlink:href="#m538e612a42" y="157.840991"/>
      </g>
     </g>
     <g id="text_14">
      <!-- 0.25 -->
      <g transform="translate(28.334375 161.64021)scale(0.1 -0.1)">
       <use xlink:href="#DejaVuSans-30"/>
       <use x="63.623047" xlink:href="#DejaVuSans-2e"/>
       <use x="95.410156" xlink:href="#DejaVuSans-32"/>
       <use x="159.033203" xlink:href="#DejaVuSans-35"/>
      </g>
     </g>
    </g>
    <g id="ytick_6">
     <g id="line2d_15">
      <g>
       <use style="stroke:#000000;stroke-width:0.8;" x="57.6" xlink:href="#m538e612a42" y="122.179605"/>
      </g>
     </g>
     <g id="text_15">
      <!-- 0.50 -->
      <g transform="translate(28.334375 125.978823)scale(0.1 -0.1)">
       <use xlink:href="#DejaVuSans-30"/>
       <use x="63.623047" xlink:href="#DejaVuSans-2e"/>
       <use x="95.410156" xlink:href="#DejaVuSans-35"/>
       <use x="159.033203" xlink:href="#DejaVuSans-30"/>
      </g>
     </g>
    </g>
    <g id="ytick_7">
     <g id="line2d_16">
      <g>
       <use style="stroke:#000000;stroke-width:0.8;" x="57.6" xlink:href="#m538e612a42" y="86.518218"/>
      </g>
     </g>
     <g id="text_16">
      <!-- 0.75 -->
      <g transform="translate(28.334375 90.317437)scale(0.1 -0.1)">
       <use xlink:href="#DejaVuSans-30"/>
       <use x="63.623047" xlink:href="#DejaVuSans-2e"/>
       <use x="95.410156" xlink:href="#DejaVuSans-37"/>
       <use x="159.033203" xlink:href="#DejaVuSans-35"/>
      </g>
     </g>
    </g>
    <g id="ytick_8">
     <g id="line2d_17">
      <g>
       <use style="stroke:#000000;stroke-width:0.8;" x="57.6" xlink:href="#m538e612a42" y="50.856831"/>
      </g>
     </g>
     <g id="text_17">
      <!-- 1.00 -->
      <g transform="translate(28.334375 54.65605)scale(0.1 -0.1)">
       <use xlink:href="#DejaVuSans-31"/>
       <use x="63.623047" xlink:href="#DejaVuSans-2e"/>
       <use x="95.410156" xlink:href="#DejaVuSans-30"/>
       <use x="159.033203" xlink:href="#DejaVuSans-30"/>
      </g>
     </g>
    </g>
   </g>
   <g id="line2d_18">
    <path clip-path="url(#p29f2a77f39)" d="M 73.832727 123.56585 
L 73.865194 123.583928 
L 73.889543 123.655721 
L 73.995059 124.533607 
L 74.197973 128.582986 
L 74.555102 141.172507 
L 75.439807 183.062394 
L 76.316397 219.401449 
L 76.925139 236.293693 
L 77.387783 243.773951 
L 77.720563 246.189391 
L 77.891011 246.457262 
L 77.907244 246.448483 
L 78.020876 246.220106 
L 78.207557 245.211501 
L 78.48352 242.28402 
L 78.856882 235.627166 
L 79.335759 222.691204 
L 79.952618 199.391021 
L 80.991539 149.781415 
L 81.624631 124.719718 
L 81.908711 120.146861 
L 81.95741 120.068033 
L 82.00611 120.169181 
L 82.119742 121.20697 
L 82.322656 125.585017 
L 82.679785 138.929169 
L 83.605073 184.926735 
L 84.465429 221.785978 
L 85.066055 238.901056 
L 85.520583 246.401352 
L 85.845246 248.784939 
L 86.007577 249.039707 
L 86.02381 249.030784 
L 86.137442 248.793253 
L 86.324123 247.738689 
L 86.600086 244.673094 
L 86.973449 237.697504 
L 87.452326 224.137397 
L 88.069185 199.708313 
L 89.108106 147.694241 
L 89.741198 121.428392 
L 90.025278 116.648068 
L 90.073977 116.574776 
L 90.122676 116.684097 
L 90.236308 117.778296 
L 90.439222 122.372471 
L 90.796351 136.347208 
L 91.72164 184.495767 
L 92.581996 223.077943 
L 93.182622 240.99685 
L 93.63715 248.852796 
L 93.961812 251.35239 
L 94.124144 251.621617 
L 94.140377 251.612541 
L 94.245892 251.394045 
L 94.424457 250.395131 
L 94.692303 247.41931 
L 95.057549 240.534464 
L 95.52831 226.987212 
L 96.128936 202.681864 
L 97.054224 154.689413 
L 97.817181 119.36445 
L 98.117494 113.291549 
L 98.190543 113.082313 
L 98.239243 113.200253 
L 98.352875 114.35155 
L 98.555789 119.162466 
L 98.921034 134.160998 
L 99.903139 187.535667 
L 100.731029 225.600268 
L 101.323538 243.665167 
L 101.769949 251.499402 
L 102.086495 253.949942 
L 102.24071 254.203209 
L 102.26506 254.186801 
L 102.378692 253.906915 
L 102.565373 252.72101 
L 102.841336 249.321316 
L 103.214698 241.631378 
L 103.693576 226.729082 
L 104.310435 199.938388 
L 105.373705 141.749097 
L 105.990564 114.363873 
L 106.266527 109.625221 
L 106.30711 109.589865 
L 106.347693 109.679183 
L 106.453208 110.67746 
L 106.648006 115.18128 
L 106.988902 129.166046 
L 107.768092 172.981224 
L 108.725847 222.006065 
L 109.342706 243.302901 
L 109.813467 252.985291 
L 110.154363 256.300585 
L 110.34916 256.786506 
L 110.357277 256.784482 
L 110.454676 256.621238 
L 110.617007 255.779537 
L 110.86862 253.071979 
L 111.217633 246.517499 
L 111.664044 233.505052 
L 112.24032 209.536413 
L 113.051977 165.21291 
L 114.042198 113.16659 
L 114.350627 106.305874 
L 114.407443 106.094235 
L 114.472376 106.233951 
L 114.586008 107.50169 
L 114.797039 113.02673 
L 115.162284 129.469384 
L 116.217438 191.599775 
L 117.012861 230.245391 
L 117.597254 248.906933 
L 118.035549 256.821541 
L 118.343978 259.175036 
L 118.473843 259.36564 
L 118.50631 259.339113 
L 118.619941 259.012687 
L 118.814739 257.608848 
L 119.098819 253.658488 
L 119.480298 244.846188 
L 119.967292 227.951108 
L 120.600384 197.452775 
L 122.426611 103.244112 
L 122.52401 102.599717 
L 122.572709 102.673136 
L 122.670108 103.561 
L 122.856789 107.911003 
L 123.181452 121.722157 
L 123.87136 163.075935 
L 124.926514 222.803671 
L 125.551489 246.625413 
L 126.030367 257.567573 
L 126.379379 261.37166 
L 126.582293 261.948643 
L 126.59041 261.946672 
L 126.679692 261.797808 
L 126.833907 260.991883 
L 127.077404 258.307836 
L 127.4183 251.669709 
L 127.856594 238.304204 
L 128.416637 213.797382 
L 129.187711 169.148736 
L 130.299681 105.814345 
L 130.591877 99.260001 
L 130.640577 99.10482 
L 130.697393 99.222494 
L 130.802908 100.370246 
L 130.997705 105.468716 
L 131.346718 121.636683 
L 132.150258 172.49283 
L 133.09178 226.196493 
L 133.708639 249.841385 
L 134.1794 260.499317 
L 134.520295 264.066497 
L 134.69886 264.52961 
L 134.715093 264.523717 
L 134.812492 264.320402 
L 134.98294 263.272352 
L 135.24267 259.986591 
L 135.591682 252.390031 
L 136.04621 237.165186 
L 136.630603 209.356758 
L 137.474726 156.990113 
L 138.391898 103.47781 
L 138.700327 95.826706 
L 138.757143 95.609118 
L 138.813959 95.736198 
L 138.919474 96.934738 
L 139.114272 102.233245 
L 139.463284 118.995643 
L 140.266824 171.706692 
L 141.208346 227.368016 
L 141.825205 251.877667 
L 142.295966 262.927868 
L 142.636862 266.628506 
L 142.815426 267.110479 
L 142.83166 267.104556 
L 142.929058 266.894956 
L 143.099506 265.810733 
L 143.359236 262.408424 
L 143.708249 254.539405 
L 144.162776 238.765423 
L 144.747169 209.950563 
L 145.591292 155.686762 
L 146.508464 100.247829 
L 146.816894 92.332253 
L 146.87371 92.113007 
L 146.930526 92.249721 
L 147.036041 93.499303 
L 147.230839 98.998411 
L 147.579851 116.354772 
L 148.391508 171.483395 
L 149.324913 228.53925 
L 149.941772 253.913743 
L 150.412533 265.356292 
L 150.753428 269.190444 
L 150.931993 269.691307 
L 150.948226 269.685358 
L 151.037508 269.499273 
L 151.19984 268.496501 
L 151.451453 265.252778 
L 151.792349 257.609613 
L 152.23876 242.078655 
L 152.80692 213.841444 
L 153.602343 161.878844 
L 154.633147 96.68125 
L 154.93346 88.836824 
L 154.990276 88.6161 
L 155.047092 88.762771 
L 155.152608 90.064009 
L 155.347405 95.7648 
L 155.696418 113.715215 
L 156.508074 170.717199 
L 157.441479 229.711115 
L 158.058338 255.950138 
L 158.529099 267.784816 
L 158.869995 271.752337 
L 159.048559 272.272018 
L 159.064793 272.266035 
L 159.154075 272.074572 
L 159.316406 271.039499 
L 159.56802 267.688404 
L 159.908916 259.789548 
L 160.355327 243.736227 
L 160.923486 214.546121 
L 161.71891 160.827957 
L 162.749714 93.439608 
L 163.050027 85.340574 
L 163.106843 85.118606 
L 163.163659 85.275415 
L 163.269174 86.628701 
L 163.472088 92.860103 
L 163.821101 111.594014 
L 164.657107 172.349581 
L 165.574279 231.748362 
L 166.191138 258.532955 
L 166.661899 270.499722 
L 166.994678 274.362713 
L 167.165126 274.8527 
L 167.189476 274.840241 
L 167.286875 274.58429 
L 167.457322 273.343506 
L 167.717053 269.518687 
L 168.074181 260.482416 
L 168.536826 242.443427 
L 169.129335 209.682612 
L 169.997808 147.458961 
L 170.858164 90.555629 
L 171.166593 81.843235 
L 171.215293 81.619093 
L 171.280225 81.787868 
L 171.393857 83.360599 
L 171.596771 89.98353 
L 171.9539 110.049914 
L 172.854839 177.790307 
L 173.731428 235.144645 
L 174.332054 261.415506 
L 174.794699 273.223603 
L 175.119361 276.973854 
L 175.281693 277.43328 
L 175.306042 277.420665 
L 175.403441 277.157546 
L 175.573889 275.87905 
L 175.833619 271.935336 
L 176.190748 262.615537 
L 176.653392 244.007757 
L 177.245902 210.211098 
L 178.114374 146.018492 
L 178.966614 87.69891 
L 179.275043 78.423713 
L 179.331859 78.119532 
L 179.396792 78.300157 
L 179.510424 79.932142 
L 179.713338 86.775041 
L 180.070467 107.4626 
L 180.971406 177.290022 
L 181.847995 236.412014 
L 182.448621 263.494942 
L 182.911265 275.670068 
L 183.235928 279.538588 
L 183.398259 280.013638 
L 183.422609 280.000859 
L 183.520008 279.730546 
L 183.690456 278.414294 
L 183.950186 274.351605 
L 184.307315 264.748221 
L 184.769959 245.571596 
L 185.362468 210.738993 
L 186.230941 144.577292 
L 187.08318 84.478334 
L 187.39161 74.924506 
L 187.448426 74.61931 
L 187.513358 74.812495 
L 187.62699 76.504715 
L 187.838021 83.94069 
L 188.203267 106.033465 
L 189.193488 185.096903 
L 190.021377 240.853712 
L 190.613887 267.269384 
L 191.060298 278.69481 
L 191.376844 282.240609 
L 191.514826 282.593715 
L 191.547292 282.57144 
L 191.652807 282.221899 
L 191.831372 280.665706 
L 192.099218 276.065814 
L 192.464464 265.457711 
L 192.935225 244.617346 
L 193.535851 207.271597 
L 194.477372 132.376218 
L 195.21598 80.471995 
L 195.516293 71.341694 
L 195.564992 71.118803 
L 195.629925 71.325598 
L 195.743557 73.079191 
L 195.954588 80.747909 
L 196.319833 103.482138 
L 197.310054 184.837255 
L 198.137944 242.212531 
L 198.730453 269.397437 
L 199.176865 281.157505 
L 199.493411 284.8088 
L 199.631392 285.173364 
L 199.663859 285.150733 
L 199.761257 284.835081 
L 199.939822 283.292059 
L 200.207668 278.645752 
L 200.572914 267.846747 
L 201.043675 246.545779 
L 201.644301 208.276583 
L 202.569589 132.69082 
L 203.332547 77.230882 
L 203.63286 67.837386 
L 203.681559 67.618446 
L 203.738375 67.782897 
L 203.84389 69.283872 
L 204.038688 76.021291 
L 204.379584 96.707639 
L 205.142541 160.529647 
L 206.116529 235.218318 
L 206.741505 267.520964 
L 207.220382 282.181843 
L 207.561278 287.060504 
L 207.747959 287.75236 
L 207.764192 287.746179 
L 207.853474 287.522446 
L 208.015805 286.293585 
L 208.259302 282.466808 
L 208.600198 273.143366 
L 209.046609 254.094138 
L 209.614769 219.345235 
L 210.410193 155.229956 
L 211.449113 73.990223 
L 211.749426 64.331506 
L 211.798125 64.118611 
L 211.854941 64.297383 
L 211.960457 65.853698 
L 212.155254 72.795945 
L 212.49615 94.045843 
L 213.259107 159.610971 
L 214.233095 236.345892 
L 214.858071 269.53675 
L 215.336949 284.602866 
L 215.677844 289.618088 
L 215.864525 290.330557 
L 215.880758 290.324352 
L 215.961924 290.129746 
L 216.116139 289.009331 
L 216.359636 285.242595 
L 216.692415 276.169076 
L 217.13071 257.446024 
L 217.690753 222.982588 
L 218.461827 160.016485 
L 219.573796 70.334446 
L 219.874109 60.755094 
L 219.914692 60.618692 
L 219.971508 60.813728 
L 220.077023 62.42804 
L 220.271821 69.577482 
L 220.620833 92.014293 
L 221.40814 161.649737 
L 222.357779 238.011093 
L 222.982754 271.893308 
L 223.453515 287.023293 
L 223.794411 292.174928 
L 223.981092 292.907939 
L 223.997325 292.901704 
L 224.078491 292.70259 
L 224.232705 291.553598 
L 224.476202 287.688463 
L 224.808982 278.375703 
L 225.247276 259.15651 
L 225.807319 223.777579 
L 226.578393 159.136964 
L 227.690363 67.081147 
L 227.990676 57.248859 
L 228.031259 57.11426 
L 228.088075 57.323318 
L 228.19359 58.998907 
L 228.396504 66.767267 
L 228.745516 90.0256 
L 229.557173 163.839595 
L 230.490578 240.25536 
L 231.107437 274.269397 
L 231.578198 289.630724 
L 231.919094 294.797335 
L 232.097658 295.485871 
L 232.113892 295.479546 
L 232.195057 295.275621 
L 232.349272 294.097495 
L 232.592769 290.133098 
L 232.925548 280.579921 
L 233.363843 260.863212 
L 233.923886 224.567524 
L 234.69496 158.250681 
L 235.806929 63.785857 
L 236.099126 53.796794 
L 236.147825 53.568 
L 236.204641 53.848521 
L 236.32639 56.263335 
L 236.553653 66.343386 
L 236.943249 94.788595 
L 239.053556 265.712013 
L 239.573016 286.166395 
L 239.954495 293.859046 
L 240.197992 295.468525 
L 240.246691 295.480509 
L 240.287274 295.41153 
L 240.409023 294.773931 
L 240.611937 292.277225 
L 240.904133 285.546316 
L 241.293728 270.889933 
L 241.796955 242.710682 
L 242.454397 192.012708 
L 244.077711 59.976442 
L 244.264392 57.049784 
L 244.280625 57.076756 
L 244.353674 57.745684 
L 244.507889 61.872493 
L 244.791969 76.996806 
L 245.303312 118.516441 
L 246.764294 240.822749 
L 247.373037 272.977232 
L 247.843798 287.584542 
L 248.176577 292.304481 
L 248.347025 292.904661 
L 248.371374 292.889673 
L 248.460657 292.619217 
L 248.622988 291.260272 
L 248.874602 286.94775 
L 249.223614 276.561434 
L 249.678142 255.542315 
L 250.254418 217.553855 
L 251.090424 145.591167 
L 251.99948 71.73267 
L 252.307909 60.960056 
L 252.380958 60.547478 
L 252.429658 60.762065 
L 252.54329 62.710726 
L 252.75432 71.037997 
L 253.127682 95.868738 
L 254.174719 187.234085 
L 254.986376 246.009107 
L 255.570769 273.996255 
L 256.01718 286.243885 
L 256.333726 289.984042 
L 256.463591 290.321362 
L 256.504174 290.283683 
L 256.609689 289.866785 
L 256.79637 288.001514 
L 257.072334 282.613498 
L 257.445696 270.38181 
L 257.924573 246.629899 
L 258.541432 203.911367 
L 260.416359 64.542109 
L 260.497525 64.04388 
L 260.546224 64.256697 
L 260.659856 66.162777 
L 260.870887 74.282132 
L 261.244249 98.455982 
L 262.291286 187.388841 
L 263.102943 244.598773 
L 263.687335 271.842419 
L 264.133747 283.766212 
L 264.450293 287.408803 
L 264.580158 287.738048 
L 264.620741 287.701663 
L 264.726256 287.296638 
L 264.912937 285.482444 
L 265.1889 280.240046 
L 265.562262 268.337058 
L 266.04114 245.221331 
L 266.657999 203.645054 
L 268.532926 68.019442 
L 268.614091 67.540804 
L 268.662791 67.751307 
L 268.776423 69.614754 
L 268.987453 77.526127 
L 269.360815 101.043068 
L 270.415969 188.187698 
L 271.219509 243.188362 
L 271.803902 269.68854 
L 272.250313 281.288522 
L 272.566859 284.833564 
L 272.696724 285.154741 
L 272.737307 285.119652 
L 272.842823 284.726506 
L 273.029504 282.963398 
L 273.305467 277.866641 
L 273.678829 266.292367 
L 274.157706 243.812842 
L 274.774565 203.37884 
L 276.649492 71.496217 
L 276.730658 71.037694 
L 276.779357 71.245973 
L 276.892989 73.066775 
L 277.10402 80.770135 
L 277.477382 103.630161 
L 278.532536 188.324203 
L 279.336076 241.777949 
L 279.920469 267.534659 
L 280.36688 278.810827 
L 280.683426 282.258319 
L 280.813291 282.571427 
L 280.853874 282.537633 
L 280.959389 282.156366 
L 281.14607 280.444342 
L 281.422033 275.493234 
L 281.795395 264.247647 
L 282.274273 242.404341 
L 282.891132 203.112624 
L 284.766059 74.974372 
L 284.847224 74.534064 
L 284.895924 74.740853 
L 285.009556 76.518972 
L 285.220587 84.014231 
L 285.593949 106.217186 
L 286.649102 188.460522 
L 287.452642 240.367388 
L 288.037035 265.38067 
L 288.483446 276.333056 
L 288.799992 279.68302 
L 288.937974 279.98644 
L 288.97044 279.955574 
L 289.075956 279.586192 
L 289.262637 277.92527 
L 289.5386 273.119835 
L 289.911962 262.202953 
L 290.390839 240.995891 
L 291.007698 202.846492 
L 292.874509 78.550538 
L 292.955674 78.029836 
L 293.004374 78.17777 
L 293.109889 79.619874 
L 293.312803 86.200586 
L 293.669932 106.069682 
L 294.505939 169.172456 
L 295.431227 231.602935 
L 296.048086 259.697408 
L 296.518847 272.446064 
L 296.859743 276.787807 
L 297.046424 277.404705 
L 297.062657 277.399308 
L 297.151939 277.20072 
L 297.314271 276.107569 
L 297.557768 272.700473 
L 297.898663 264.39405 
L 298.345075 247.41411 
L 298.913234 216.442564 
L 299.716774 158.820293 
L 300.706995 90.506029 
L 301.007308 81.841876 
L 301.072241 81.525713 
L 301.129057 81.730479 
L 301.250805 83.606577 
L 301.478069 91.572814 
L 301.867665 114.109598 
L 304.002322 251.666093 
L 304.513665 267.536828 
L 304.895144 273.583948 
L 305.138641 274.811826 
L 305.203573 274.791448 
L 305.227923 274.746027 
L 305.357788 274.155796 
L 305.568819 271.948124 
L 305.869132 266.153766 
L 306.27496 253.444815 
L 306.79442 229.34088 
L 307.476212 186.13844 
L 308.953427 88.847544 
L 309.188808 85.019306 
L 309.22939 85.122467 
L 309.334906 86.388731 
L 309.529703 92.112883 
L 309.886832 110.403801 
L 310.674139 165.948159 
L 311.640011 227.957798 
L 312.264986 255.063441 
L 312.743864 267.431453 
L 313.084759 271.604006 
L 313.279557 272.237917 
L 313.287674 272.23663 
L 313.368839 272.101821 
L 313.514938 271.300616 
L 313.750318 268.501821 
L 314.074981 261.60695 
L 314.505159 247.153557 
L 315.048969 220.68183 
L 315.787576 172.710306 
L 316.980711 95.2673 
L 317.264791 88.627089 
L 317.305374 88.518465 
L 317.354073 88.664979 
L 317.467705 90.16207 
L 317.678736 96.665298 
L 318.052098 116.064341 
L 319.042319 184.147969 
L 319.878326 232.817994 
L 320.470835 255.815989 
L 320.925363 266.060215 
L 321.250025 269.309263 
L 321.40424 269.653492 
L 321.42859 269.6371 
L 321.534105 269.343076 
L 321.71267 268.02045 
L 321.980516 264.097447 
L 322.345762 255.034096 
L 322.816523 237.209467 
L 323.425265 204.774958 
L 324.415486 137.581496 
L 325.089161 98.83052 
L 325.373241 92.162717 
L 325.421941 92.016718 
L 325.47064 92.160005 
L 325.584272 93.617939 
L 325.795303 99.918806 
L 326.168665 118.667738 
L 327.158886 184.449083 
L 327.994892 231.472256 
L 328.587402 253.694251 
L 329.041929 263.594774 
L 329.366592 266.736513 
L 329.520807 267.070465 
L 329.545156 267.05485 
L 329.650672 266.771754 
L 329.829236 265.495595 
L 330.097083 261.70798 
L 330.462328 252.955006 
L 330.933089 235.738232 
L 331.541832 204.407175 
L 332.532053 139.499428 
L 333.205728 102.077574 
L 333.489808 95.649765 
L 333.538507 95.513723 
L 333.587207 95.654796 
L 333.700839 97.073539 
L 333.911869 103.172052 
L 334.285231 121.271261 
L 335.283569 185.258012 
L 336.119575 230.486174 
L 336.712085 251.796968 
L 337.166612 261.244076 
L 337.483159 264.163827 
L 337.637373 264.487471 
L 337.661723 264.472629 
L 337.767238 264.200441 
L 337.945803 262.970714 
L 338.21365 259.318466 
L 338.578895 250.875831 
L 339.049656 234.266823 
L 339.658398 204.039119 
L 340.648619 141.417001 
L 341.322295 105.324995 
L 341.606374 99.136701 
L 341.655074 99.010234 
L 341.703773 99.149699 
L 341.817405 100.528925 
L 342.028436 106.424619 
L 342.401798 123.873852 
L 343.400136 185.540264 
L 344.236142 229.127213 
L 344.828651 249.667079 
L 345.283179 258.774573 
L 345.599725 261.591167 
L 345.75394 261.90456 
L 345.77829 261.890499 
L 345.883805 261.629258 
L 346.062369 260.446023 
L 346.330216 256.929212 
L 346.695462 248.797011 
L 347.166222 232.795907 
L 347.774965 203.671712 
L 348.765186 143.335403 
L 349.438861 108.572241 
L 349.722941 102.623535 
L 349.77164 102.506416 
L 349.82034 102.644776 
L 349.933972 103.984379 
L 350.145002 109.677059 
L 350.518364 126.476219 
L 351.516702 185.822277 
L 352.352708 227.768096 
L 352.945218 247.537095 
L 353.399746 256.305023 
L 353.716292 259.01849 
L 353.870506 259.321647 
L 353.894856 259.308369 
L 354.000371 259.058085 
L 354.178936 257.921359 
L 354.446783 254.54001 
L 354.812028 246.718258 
L 355.282789 231.32512 
L 355.883415 203.731178 
L 356.857403 146.706205 
L 357.547311 112.086521 
L 357.839507 106.110194 
L 357.888207 106.002856 
L 357.936906 106.139623 
L 358.050538 107.43976 
L 358.261569 112.929629 
L 358.634931 129.079123 
L 359.633269 186.105015 
L 360.469275 226.409472 
L 361.061784 245.407402 
L 361.516312 253.835608 
L 361.840975 256.477276 
L 361.987073 256.738719 
L 362.019539 256.718488 
L 362.133171 256.423326 
L 362.319852 255.18125 
L 362.595815 251.626419 
L 362.969178 243.587868 
L 363.448055 228.009333 
L 364.064914 200.033773 
L 365.915491 109.883183 
L 366.004773 109.4992 
L 366.053473 109.634616 
L 366.175221 111.031634 
L 366.402485 116.975675 
L 366.79208 133.702984 
L 368.951087 237.287858 
L 369.462431 248.948445 
L 369.835793 253.270904 
L 370.07929 254.152216 
L 370.176689 254.074602 
L 370.322787 253.497102 
L 370.550051 251.5006 
L 370.866597 246.504399 
L 371.288658 235.899801 
L 371.824352 216.278227 
L 372.546726 180.713966 
L 373.81291 117.600985 
L 374.080757 113.053957 
L 374.12134 112.994904 
L 374.170039 113.129941 
L 374.291788 114.482328 
L 374.519052 120.195073 
L 374.908647 136.219545 
L 377.067654 235.41054 
L 377.578997 246.579852 
L 377.952359 250.72252 
L 378.195856 251.569178 
L 378.293255 251.496028 
L 378.439353 250.944848 
L 378.666617 249.035985 
L 378.983163 244.256054 
L 379.405225 234.10723 
L 379.940918 215.325542 
L 380.663293 181.280665 
L 381.929477 120.878361 
L 382.197324 116.54339 
L 382.237906 116.491039 
L 382.278489 116.585031 
L 382.392121 117.684896 
L 382.603152 122.449339 
L 382.976514 136.520596 
L 383.934269 184.558239 
L 384.786508 221.198803 
L 385.387134 238.485621 
L 385.849779 246.24517 
L 386.174441 248.698366 
L 386.344889 248.988163 
L 386.361122 248.979836 
L 386.474754 248.746557 
L 386.661435 247.698823 
L 386.937399 244.641313 
L 387.310761 237.669265 
L 387.789638 224.097689 
L 388.406497 199.656403 
L 390.273307 120.23322 
L 390.354473 119.984886 
L 390.395056 120.08186 
L 390.508688 121.145827 
L 390.719719 125.712647 
L 391.093081 139.139411 
L 392.050835 184.950417 
L 392.903075 219.891405 
L 393.503701 236.379576 
L 393.966345 243.783514 
L 394.291008 246.126721 
L 394.461456 246.405273 
L 394.477689 246.397548 
L 394.591321 246.176621 
L 394.778002 245.180091 
L 395.053965 242.268402 
L 395.427327 235.625291 
L 395.906205 222.690284 
L 396.523064 199.391614 
L 398.389874 123.710056 
L 398.47104 123.483041 
L 398.487273 123.500138 
" style="fill:none;stroke:#000000;stroke-linecap:square;stroke-width:4;"/>
   </g>
   <g id="patch_3">
    <path d="M 57.6 307.584 
L 57.6 41.472 
" style="fill:none;stroke:#000000;stroke-linecap:square;stroke-linejoin:miter;stroke-width:0.8;"/>
   </g>
   <g id="patch_4">
    <path d="M 414.72 307.584 
L 414.72 41.472 
" style="fill:none;stroke:#000000;stroke-linecap:square;stroke-linejoin:miter;stroke-width:0.8;"/>
   </g>
   <g id="patch_5">
    <path d="M 57.6 307.584 
L 414.72 307.584 
" style="fill:none;stroke:#000000;stroke-linecap:square;stroke-linejoin:miter;stroke-width:0.8;"/>
   </g>
   <g id="patch_6">
    <path d="M 57.6 41.472 
L 414.72 41.472 
" style="fill:none;stroke:#000000;stroke-linecap:square;stroke-linejoin:miter;stroke-width:0.8;"/>
   </g>
  </g>
 </g>
 <defs>
  <clipPath id="p29f2a77f39">
   <rect height="266.112" width="357.12" x="57.6" y="41.472"/>
  </clipPath>
 </defs>
</svg>
