<?xml version="1.0" encoding="utf-8" standalone="no"?>
<!DOCTYPE svg PUBLIC "-//W3C//DTD SVG 1.1//EN"
  "http://www.w3.org/Graphics/SVG/1.1/DTD/svg11.dtd">
<!-- Created with matplotlib (http://matplotlib.org/) -->
<svg height="345.6pt" version="1.1" viewBox="0 0 460.8 345.6" width="460.8pt" xmlns="http://www.w3.org/2000/svg" xmlns:xlink="http://www.w3.org/1999/xlink">
 <defs>
  <style type="text/css">
*{stroke-linecap:butt;stroke-linejoin:round;}
  </style>
 </defs>
 <g id="figure_1">
  <g id="patch_1">
   <path d="M 0 345.6 
L 460.8 345.6 
L 460.8 0 
L 0 0 
z
" style="fill:#ffffff;"/>
  </g>
  <g id="axes_1">
   <g id="patch_2">
    <path d="M 57.6 307.584 
L 414.72 307.584 
L 414.72 41.472 
L 57.6 41.472 
z
" style="fill:#ffffff;"/>
   </g>
   <g id="matplotlib.axis_1">
    <g id="xtick_1">
     <g id="line2d_1">
      <defs>
       <path d="M 0 0 
L 0 3.5 
" id="m0fe1eded59" style="stroke:#000000;stroke-width:0.8;"/>
      </defs>
      <g>
       <use style="stroke:#000000;stroke-width:0.8;" x="73.832727" xlink:href="#m0fe1eded59" y="307.584"/>
      </g>
     </g>
     <g id="text_1">
      <!-- −20000 -->
      <defs>
       <path d="M 10.59375 35.5 
L 73.1875 35.5 
L 73.1875 27.203125 
L 10.59375 27.203125 
z
" id="DejaVuSans-2212"/>
       <path d="M 19.1875 8.296875 
L 53.609375 8.296875 
L 53.609375 0 
L 7.328125 0 
L 7.328125 8.296875 
Q 12.9375 14.109375 22.625 23.890625 
Q 32.328125 33.6875 34.8125 36.53125 
Q 39.546875 41.84375 41.421875 45.53125 
Q 43.3125 49.21875 43.3125 52.78125 
Q 43.3125 58.59375 39.234375 62.25 
Q 35.15625 65.921875 28.609375 65.921875 
Q 23.96875 65.921875 18.8125 64.3125 
Q 13.671875 62.703125 7.8125 59.421875 
L 7.8125 69.390625 
Q 13.765625 71.78125 18.9375 73 
Q 24.125 74.21875 28.421875 74.21875 
Q 39.75 74.21875 46.484375 68.546875 
Q 53.21875 62.890625 53.21875 53.421875 
Q 53.21875 48.921875 51.53125 44.890625 
Q 49.859375 40.875 45.40625 35.40625 
Q 44.1875 33.984375 37.640625 27.21875 
Q 31.109375 20.453125 19.1875 8.296875 
z
" id="DejaVuSans-32"/>
       <path d="M 31.78125 66.40625 
Q 24.171875 66.40625 20.328125 58.90625 
Q 16.5 51.421875 16.5 36.375 
Q 16.5 21.390625 20.328125 13.890625 
Q 24.171875 6.390625 31.78125 6.390625 
Q 39.453125 6.390625 43.28125 13.890625 
Q 47.125 21.390625 47.125 36.375 
Q 47.125 51.421875 43.28125 58.90625 
Q 39.453125 66.40625 31.78125 66.40625 
z
M 31.78125 74.21875 
Q 44.046875 74.21875 50.515625 64.515625 
Q 56.984375 54.828125 56.984375 36.375 
Q 56.984375 17.96875 50.515625 8.265625 
Q 44.046875 -1.421875 31.78125 -1.421875 
Q 19.53125 -1.421875 13.0625 8.265625 
Q 6.59375 17.96875 6.59375 36.375 
Q 6.59375 54.828125 13.0625 64.515625 
Q 19.53125 74.21875 31.78125 74.21875 
z
" id="DejaVuSans-30"/>
      </defs>
      <g transform="translate(53.736634 322.182437)scale(0.1 -0.1)">
       <use xlink:href="#DejaVuSans-2212"/>
       <use x="83.789062" xlink:href="#DejaVuSans-32"/>
       <use x="147.412109" xlink:href="#DejaVuSans-30"/>
       <use x="211.035156" xlink:href="#DejaVuSans-30"/>
       <use x="274.658203" xlink:href="#DejaVuSans-30"/>
       <use x="338.28125" xlink:href="#DejaVuSans-30"/>
      </g>
     </g>
    </g>
    <g id="xtick_2">
     <g id="line2d_2">
      <g>
       <use style="stroke:#000000;stroke-width:0.8;" x="114.41556" xlink:href="#m0fe1eded59" y="307.584"/>
      </g>
     </g>
     <g id="text_2">
      <!-- −15000 -->
      <defs>
       <path d="M 12.40625 8.296875 
L 28.515625 8.296875 
L 28.515625 63.921875 
L 10.984375 60.40625 
L 10.984375 69.390625 
L 28.421875 72.90625 
L 38.28125 72.90625 
L 38.28125 8.296875 
L 54.390625 8.296875 
L 54.390625 0 
L 12.40625 0 
z
" id="DejaVuSans-31"/>
       <path d="M 10.796875 72.90625 
L 49.515625 72.90625 
L 49.515625 64.59375 
L 19.828125 64.59375 
L 19.828125 46.734375 
Q 21.96875 47.46875 24.109375 47.828125 
Q 26.265625 48.1875 28.421875 48.1875 
Q 40.625 48.1875 47.75 41.5 
Q 54.890625 34.8125 54.890625 23.390625 
Q 54.890625 11.625 47.5625 5.09375 
Q 40.234375 -1.421875 26.90625 -1.421875 
Q 22.3125 -1.421875 17.546875 -0.640625 
Q 12.796875 0.140625 7.71875 1.703125 
L 7.71875 11.625 
Q 12.109375 9.234375 16.796875 8.0625 
Q 21.484375 6.890625 26.703125 6.890625 
Q 35.15625 6.890625 40.078125 11.328125 
Q 45.015625 15.765625 45.015625 23.390625 
Q 45.015625 31 40.078125 35.4375 
Q 35.15625 39.890625 26.703125 39.890625 
Q 22.75 39.890625 18.8125 39.015625 
Q 14.890625 38.140625 10.796875 36.28125 
z
" id="DejaVuSans-35"/>
      </defs>
      <g transform="translate(94.319466 322.182437)scale(0.1 -0.1)">
       <use xlink:href="#DejaVuSans-2212"/>
       <use x="83.789062" xlink:href="#DejaVuSans-31"/>
       <use x="147.412109" xlink:href="#DejaVuSans-35"/>
       <use x="211.035156" xlink:href="#DejaVuSans-30"/>
       <use x="274.658203" xlink:href="#DejaVuSans-30"/>
       <use x="338.28125" xlink:href="#DejaVuSans-30"/>
      </g>
     </g>
    </g>
    <g id="xtick_3">
     <g id="line2d_3">
      <g>
       <use style="stroke:#000000;stroke-width:0.8;" x="154.998393" xlink:href="#m0fe1eded59" y="307.584"/>
      </g>
     </g>
     <g id="text_3">
      <!-- −10000 -->
      <g transform="translate(134.902299 322.182437)scale(0.1 -0.1)">
       <use xlink:href="#DejaVuSans-2212"/>
       <use x="83.789062" xlink:href="#DejaVuSans-31"/>
       <use x="147.412109" xlink:href="#DejaVuSans-30"/>
       <use x="211.035156" xlink:href="#DejaVuSans-30"/>
       <use x="274.658203" xlink:href="#DejaVuSans-30"/>
       <use x="338.28125" xlink:href="#DejaVuSans-30"/>
      </g>
     </g>
    </g>
    <g id="xtick_4">
     <g id="line2d_4">
      <g>
       <use style="stroke:#000000;stroke-width:0.8;" x="195.581226" xlink:href="#m0fe1eded59" y="307.584"/>
      </g>
     </g>
     <g id="text_4">
      <!-- −5000 -->
      <g transform="translate(178.666382 322.182437)scale(0.1 -0.1)">
       <use xlink:href="#DejaVuSans-2212"/>
       <use x="83.789062" xlink:href="#DejaVuSans-35"/>
       <use x="147.412109" xlink:href="#DejaVuSans-30"/>
       <use x="211.035156" xlink:href="#DejaVuSans-30"/>
       <use x="274.658203" xlink:href="#DejaVuSans-30"/>
      </g>
     </g>
    </g>
    <g id="xtick_5">
     <g id="line2d_5">
      <g>
       <use style="stroke:#000000;stroke-width:0.8;" x="236.164058" xlink:href="#m0fe1eded59" y="307.584"/>
      </g>
     </g>
     <g id="text_5">
      <!-- 0 -->
      <g transform="translate(232.982808 322.182437)scale(0.1 -0.1)">
       <use xlink:href="#DejaVuSans-30"/>
      </g>
     </g>
    </g>
    <g id="xtick_6">
     <g id="line2d_6">
      <g>
       <use style="stroke:#000000;stroke-width:0.8;" x="276.746891" xlink:href="#m0fe1eded59" y="307.584"/>
      </g>
     </g>
     <g id="text_6">
      <!-- 5000 -->
      <g transform="translate(264.021891 322.182437)scale(0.1 -0.1)">
       <use xlink:href="#DejaVuSans-35"/>
       <use x="63.623047" xlink:href="#DejaVuSans-30"/>
       <use x="127.246094" xlink:href="#DejaVuSans-30"/>
       <use x="190.869141" xlink:href="#DejaVuSans-30"/>
      </g>
     </g>
    </g>
    <g id="xtick_7">
     <g id="line2d_7">
      <g>
       <use style="stroke:#000000;stroke-width:0.8;" x="317.329724" xlink:href="#m0fe1eded59" y="307.584"/>
      </g>
     </g>
     <g id="text_7">
      <!-- 10000 -->
      <g transform="translate(301.423474 322.182437)scale(0.1 -0.1)">
       <use xlink:href="#DejaVuSans-31"/>
       <use x="63.623047" xlink:href="#DejaVuSans-30"/>
       <use x="127.246094" xlink:href="#DejaVuSans-30"/>
       <use x="190.869141" xlink:href="#DejaVuSans-30"/>
       <use x="254.492188" xlink:href="#DejaVuSans-30"/>
      </g>
     </g>
    </g>
    <g id="xtick_8">
     <g id="line2d_8">
      <g>
       <use style="stroke:#000000;stroke-width:0.8;" x="357.912557" xlink:href="#m0fe1eded59" y="307.584"/>
      </g>
     </g>
     <g id="text_8">
      <!-- 15000 -->
      <g transform="translate(342.006307 322.182437)scale(0.1 -0.1)">
       <use xlink:href="#DejaVuSans-31"/>
       <use x="63.623047" xlink:href="#DejaVuSans-35"/>
       <use x="127.246094" xlink:href="#DejaVuSans-30"/>
       <use x="190.869141" xlink:href="#DejaVuSans-30"/>
       <use x="254.492188" xlink:href="#DejaVuSans-30"/>
      </g>
     </g>
    </g>
    <g id="xtick_9">
     <g id="line2d_9">
      <g>
       <use style="stroke:#000000;stroke-width:0.8;" x="398.495389" xlink:href="#m0fe1eded59" y="307.584"/>
      </g>
     </g>
     <g id="text_9">
      <!-- 20000 -->
      <g transform="translate(382.589139 322.182437)scale(0.1 -0.1)">
       <use xlink:href="#DejaVuSans-32"/>
       <use x="63.623047" xlink:href="#DejaVuSans-30"/>
       <use x="127.246094" xlink:href="#DejaVuSans-30"/>
       <use x="190.869141" xlink:href="#DejaVuSans-30"/>
       <use x="254.492188" xlink:href="#DejaVuSans-30"/>
      </g>
     </g>
    </g>
   </g>
   <g id="matplotlib.axis_2">
    <g id="ytick_1">
     <g id="line2d_10">
      <defs>
       <path d="M 0 0 
L -3.5 0 
" id="m8d220547f5" style="stroke:#000000;stroke-width:0.8;"/>
      </defs>
      <g>
       <use style="stroke:#000000;stroke-width:0.8;" x="57.6" xlink:href="#m8d220547f5" y="284.271897"/>
      </g>
     </g>
     <g id="text_10">
      <!-- −0.2 -->
      <defs>
       <path d="M 10.6875 12.40625 
L 21 12.40625 
L 21 0 
L 10.6875 0 
z
" id="DejaVuSans-2e"/>
      </defs>
      <g transform="translate(26.317187 288.071116)scale(0.1 -0.1)">
       <use xlink:href="#DejaVuSans-2212"/>
       <use x="83.789062" xlink:href="#DejaVuSans-30"/>
       <use x="147.412109" xlink:href="#DejaVuSans-2e"/>
       <use x="179.199219" xlink:href="#DejaVuSans-32"/>
      </g>
     </g>
    </g>
    <g id="ytick_2">
     <g id="line2d_11">
      <g>
       <use style="stroke:#000000;stroke-width:0.8;" x="57.6" xlink:href="#m8d220547f5" y="245.819133"/>
      </g>
     </g>
     <g id="text_11">
      <!-- 0.0 -->
      <g transform="translate(34.696875 249.618351)scale(0.1 -0.1)">
       <use xlink:href="#DejaVuSans-30"/>
       <use x="63.623047" xlink:href="#DejaVuSans-2e"/>
       <use x="95.410156" xlink:href="#DejaVuSans-30"/>
      </g>
     </g>
    </g>
    <g id="ytick_3">
     <g id="line2d_12">
      <g>
       <use style="stroke:#000000;stroke-width:0.8;" x="57.6" xlink:href="#m8d220547f5" y="207.366368"/>
      </g>
     </g>
     <g id="text_12">
      <!-- 0.2 -->
      <g transform="translate(34.696875 211.165587)scale(0.1 -0.1)">
       <use xlink:href="#DejaVuSans-30"/>
       <use x="63.623047" xlink:href="#DejaVuSans-2e"/>
       <use x="95.410156" xlink:href="#DejaVuSans-32"/>
      </g>
     </g>
    </g>
    <g id="ytick_4">
     <g id="line2d_13">
      <g>
       <use style="stroke:#000000;stroke-width:0.8;" x="57.6" xlink:href="#m8d220547f5" y="168.913604"/>
      </g>
     </g>
     <g id="text_13">
      <!-- 0.4 -->
      <defs>
       <path d="M 37.796875 64.3125 
L 12.890625 25.390625 
L 37.796875 25.390625 
z
M 35.203125 72.90625 
L 47.609375 72.90625 
L 47.609375 25.390625 
L 58.015625 25.390625 
L 58.015625 17.1875 
L 47.609375 17.1875 
L 47.609375 0 
L 37.796875 0 
L 37.796875 17.1875 
L 4.890625 17.1875 
L 4.890625 26.703125 
z
" id="DejaVuSans-34"/>
      </defs>
      <g transform="translate(34.696875 172.712823)scale(0.1 -0.1)">
       <use xlink:href="#DejaVuSans-30"/>
       <use x="63.623047" xlink:href="#DejaVuSans-2e"/>
       <use x="95.410156" xlink:href="#DejaVuSans-34"/>
      </g>
     </g>
    </g>
    <g id="ytick_5">
     <g id="line2d_14">
      <g>
       <use style="stroke:#000000;stroke-width:0.8;" x="57.6" xlink:href="#m8d220547f5" y="130.46084"/>
      </g>
     </g>
     <g id="text_14">
      <!-- 0.6 -->
      <defs>
       <path d="M 33.015625 40.375 
Q 26.375 40.375 22.484375 35.828125 
Q 18.609375 31.296875 18.609375 23.390625 
Q 18.609375 15.53125 22.484375 10.953125 
Q 26.375 6.390625 33.015625 6.390625 
Q 39.65625 6.390625 43.53125 10.953125 
Q 47.40625 15.53125 47.40625 23.390625 
Q 47.40625 31.296875 43.53125 35.828125 
Q 39.65625 40.375 33.015625 40.375 
z
M 52.59375 71.296875 
L 52.59375 62.3125 
Q 48.875 64.0625 45.09375 64.984375 
Q 41.3125 65.921875 37.59375 65.921875 
Q 27.828125 65.921875 22.671875 59.328125 
Q 17.53125 52.734375 16.796875 39.40625 
Q 19.671875 43.65625 24.015625 45.921875 
Q 28.375 48.1875 33.59375 48.1875 
Q 44.578125 48.1875 50.953125 41.515625 
Q 57.328125 34.859375 57.328125 23.390625 
Q 57.328125 12.15625 50.6875 5.359375 
Q 44.046875 -1.421875 33.015625 -1.421875 
Q 20.359375 -1.421875 13.671875 8.265625 
Q 6.984375 17.96875 6.984375 36.375 
Q 6.984375 53.65625 15.1875 63.9375 
Q 23.390625 74.21875 37.203125 74.21875 
Q 40.921875 74.21875 44.703125 73.484375 
Q 48.484375 72.75 52.59375 71.296875 
z
" id="DejaVuSans-36"/>
      </defs>
      <g transform="translate(34.696875 134.260059)scale(0.1 -0.1)">
       <use xlink:href="#DejaVuSans-30"/>
       <use x="63.623047" xlink:href="#DejaVuSans-2e"/>
       <use x="95.410156" xlink:href="#DejaVuSans-36"/>
      </g>
     </g>
    </g>
    <g id="ytick_6">
     <g id="line2d_15">
      <g>
       <use style="stroke:#000000;stroke-width:0.8;" x="57.6" xlink:href="#m8d220547f5" y="92.008076"/>
      </g>
     </g>
     <g id="text_15">
      <!-- 0.8 -->
      <defs>
       <path d="M 31.78125 34.625 
Q 24.75 34.625 20.71875 30.859375 
Q 16.703125 27.09375 16.703125 20.515625 
Q 16.703125 13.921875 20.71875 10.15625 
Q 24.75 6.390625 31.78125 6.390625 
Q 38.8125 6.390625 42.859375 10.171875 
Q 46.921875 13.96875 46.921875 20.515625 
Q 46.921875 27.09375 42.890625 30.859375 
Q 38.875 34.625 31.78125 34.625 
z
M 21.921875 38.8125 
Q 15.578125 40.375 12.03125 44.71875 
Q 8.5 49.078125 8.5 55.328125 
Q 8.5 64.0625 14.71875 69.140625 
Q 20.953125 74.21875 31.78125 74.21875 
Q 42.671875 74.21875 48.875 69.140625 
Q 55.078125 64.0625 55.078125 55.328125 
Q 55.078125 49.078125 51.53125 44.71875 
Q 48 40.375 41.703125 38.8125 
Q 48.828125 37.15625 52.796875 32.3125 
Q 56.78125 27.484375 56.78125 20.515625 
Q 56.78125 9.90625 50.3125 4.234375 
Q 43.84375 -1.421875 31.78125 -1.421875 
Q 19.734375 -1.421875 13.25 4.234375 
Q 6.78125 9.90625 6.78125 20.515625 
Q 6.78125 27.484375 10.78125 32.3125 
Q 14.796875 37.15625 21.921875 38.8125 
z
M 18.3125 54.390625 
Q 18.3125 48.734375 21.84375 45.5625 
Q 25.390625 42.390625 31.78125 42.390625 
Q 38.140625 42.390625 41.71875 45.5625 
Q 45.3125 48.734375 45.3125 54.390625 
Q 45.3125 60.0625 41.71875 63.234375 
Q 38.140625 66.40625 31.78125 66.40625 
Q 25.390625 66.40625 21.84375 63.234375 
Q 18.3125 60.0625 18.3125 54.390625 
z
" id="DejaVuSans-38"/>
      </defs>
      <g transform="translate(34.696875 95.807294)scale(0.1 -0.1)">
       <use xlink:href="#DejaVuSans-30"/>
       <use x="63.623047" xlink:href="#DejaVuSans-2e"/>
       <use x="95.410156" xlink:href="#DejaVuSans-38"/>
      </g>
     </g>
    </g>
    <g id="ytick_7">
     <g id="line2d_16">
      <g>
       <use style="stroke:#000000;stroke-width:0.8;" x="57.6" xlink:href="#m8d220547f5" y="53.555312"/>
      </g>
     </g>
     <g id="text_16">
      <!-- 1.0 -->
      <g transform="translate(34.696875 57.35453)scale(0.1 -0.1)">
       <use xlink:href="#DejaVuSans-31"/>
       <use x="63.623047" xlink:href="#DejaVuSans-2e"/>
       <use x="95.410156" xlink:href="#DejaVuSans-30"/>
      </g>
     </g>
    </g>
   </g>
   <g id="line2d_17">
    <path clip-path="url(#p33ad6afd9c)" d="M 73.832727 149.626641 
L 73.865194 150.002203 
L 73.962592 155.015727 
L 74.230439 184.536439 
L 74.684967 225.118351 
L 75.131378 247.131161 
L 75.577789 259.163333 
L 76.016084 265.509677 
L 76.446262 268.795496 
L 76.860207 270.427089 
L 77.266035 271.218307 
L 77.663747 271.546798 
L 78.037109 271.582751 
L 78.378005 271.394458 
L 78.710784 270.939371 
L 79.043563 270.073829 
L 79.384459 268.502922 
L 79.733471 265.731871 
L 80.0906 260.932213 
L 80.455846 252.715704 
L 80.829208 238.749916 
L 81.20257 215.731698 
L 81.584048 177.177681 
L 81.949294 144.817699 
L 81.98176 145.21199 
L 82.079159 150.4755 
L 82.347006 181.465608 
L 82.801533 224.066892 
L 83.247944 247.174972 
L 83.694356 259.805624 
L 84.13265 266.467352 
L 84.562828 269.916106 
L 84.976773 271.628206 
L 85.382601 272.458035 
L 85.772197 272.798522 
L 86.137442 272.842999 
L 86.478338 272.656752 
L 86.803001 272.211297 
L 87.13578 271.342396 
L 87.476676 269.759928 
L 87.825688 266.962091 
L 88.182817 262.10767 
L 88.548062 253.786303 
L 88.921424 239.627608 
L 89.294787 216.273045 
L 89.676265 177.108241 
L 90.06586 140.00962 
L 90.098327 140.422605 
L 90.195725 145.935806 
L 90.463572 178.394644 
L 90.9181 223.015329 
L 91.364511 247.2187 
L 91.810922 260.447844 
L 92.249217 267.424966 
L 92.679395 271.036663 
L 93.09334 272.829276 
L 93.499168 273.697731 
L 93.888763 274.053693 
L 94.245892 274.101496 
L 94.578671 273.919785 
L 94.903334 273.469834 
L 95.236113 272.586871 
L 95.577009 270.975041 
L 95.926021 268.12106 
L 96.28315 263.163534 
L 96.648396 254.657833 
L 97.021758 240.175411 
L 97.39512 216.274159 
L 97.776599 176.175102 
L 98.182427 135.20212 
L 98.190543 135.229731 
L 98.247359 136.869382 
L 98.393458 150.005348 
L 99.164531 230.928611 
L 99.610943 252.191048 
L 100.049237 263.592909 
L 100.479415 269.628296 
L 100.901477 272.759529 
L 101.315422 274.334056 
L 101.713133 275.066994 
L 102.086495 275.342336 
L 102.427391 275.340215 
L 102.752054 275.109228 
L 103.076717 274.577755 
L 103.409496 273.557292 
L 103.750392 271.711189 
L 104.099404 268.46157 
L 104.456533 262.840957 
L 104.821778 253.228825 
L 105.19514 236.903002 
L 105.568502 210.009381 
L 105.949981 165.034008 
L 106.298993 130.395208 
L 106.33146 130.845516 
L 106.428859 136.857475 
L 106.696705 172.252421 
L 107.151233 220.911989 
L 107.597644 247.305991 
L 108.044055 261.732154 
L 108.48235 269.340086 
L 108.912528 273.277685 
L 109.326473 275.231336 
L 109.732301 276.177053 
L 110.11378 276.559709 
L 110.462792 276.618531 
L 110.779338 276.447809 
L 111.095884 276.007842 
L 111.420547 275.143789 
L 111.753326 273.5754 
L 112.094222 270.817037 
L 112.451351 265.91581 
L 112.816596 257.474913 
L 113.181842 243.458368 
L 113.555204 219.873917 
L 113.936683 180.227262 
L 114.41556 125.588592 
L 114.448026 126.05753 
L 114.545425 132.318646 
L 114.813272 169.181074 
L 115.2678 219.860184 
L 115.714211 247.349558 
L 116.160622 262.374263 
L 116.598916 270.29762 
L 117.029094 274.39818 
L 117.443039 276.432357 
L 117.840751 277.403615 
L 118.22223 277.810103 
L 118.563126 277.878466 
L 118.879672 277.712677 
L 119.196218 277.271466 
L 119.52088 276.398731 
L 119.85366 274.810294 
L 120.194555 272.012296 
L 120.551684 267.034545 
L 120.91693 258.453654 
L 121.282175 244.194161 
L 121.655537 220.187472 
L 122.037016 179.814005 
L 122.532127 120.782629 
L 122.572709 121.537949 
L 122.686341 130.368139 
L 123.806428 246.235113 
L 124.252839 262.390141 
L 124.691133 270.921504 
L 125.121311 275.344936 
L 125.535256 277.544982 
L 125.941085 278.614835 
L 126.322563 279.054912 
L 126.663459 279.138057 
L 126.971888 278.985241 
L 127.280318 278.567675 
L 127.604981 277.713951 
L 127.93776 276.150842 
L 128.278656 273.388079 
L 128.627668 268.603513 
L 128.984797 260.427497 
L 129.350042 246.573907 
L 129.723405 223.209869 
L 130.096767 184.925835 
L 130.648693 115.977123 
L 130.713626 117.932473 
L 130.859724 133.343494 
L 131.630798 228.273903 
L 132.077209 253.218647 
L 132.515503 266.594404 
L 132.945681 273.673633 
L 133.367743 277.345194 
L 133.781688 279.190062 
L 134.1794 280.04741 
L 134.544645 280.365002 
L 134.869308 280.373364 
L 135.169621 280.152524 
L 135.47805 279.629938 
L 135.802713 278.601218 
L 136.135492 276.74546 
L 136.484504 273.394395 
L 136.841633 267.564368 
L 137.206879 257.549064 
L 137.572124 240.949346 
L 137.945486 213.057617 
L 138.326965 166.223056 
L 138.76526 111.172223 
L 138.781493 111.305446 
L 138.854542 114.902536 
L 139.041223 139.412573 
L 139.609383 215.95846 
L 140.055794 247.068847 
L 140.502205 264.078138 
L 140.9405 273.051713 
L 141.370678 277.697965 
L 141.784622 280.004086 
L 142.182334 281.106112 
L 142.555696 281.563724 
L 142.888475 281.653568 
L 143.188788 281.502539 
L 143.497218 281.070491 
L 143.813764 280.209365 
L 144.146543 278.596467 
L 144.487439 275.738829 
L 144.836451 270.780699 
L 145.19358 262.295668 
L 145.558826 247.901991 
L 145.932188 223.6055 
L 146.30555 183.766982 
L 146.881826 106.367583 
L 146.962992 109.58884 
L 147.13344 131.501676 
L 147.758415 217.919859 
L 148.204827 248.772361 
L 148.651238 265.616882 
L 149.089532 274.486182 
L 149.511594 279.004909 
L 149.925539 281.299699 
L 150.32325 282.390113 
L 150.696613 282.834439 
L 151.021275 282.908304 
L 151.313472 282.746518 
L 151.613785 282.306821 
L 151.930331 281.415471 
L 152.26311 279.746305 
L 152.604006 276.789457 
L 152.953018 271.659526 
L 153.310147 262.88072 
L 153.675392 247.988897 
L 154.048754 222.851693 
L 154.422117 181.634754 
L 154.998393 101.563395 
L 155.079558 104.894794 
L 155.250006 127.560876 
L 155.874982 216.945663 
L 156.321393 248.858603 
L 156.767804 266.281967 
L 157.206099 275.455864 
L 157.62816 280.129568 
L 158.042105 282.502798 
L 158.439817 283.630192 
L 158.805062 284.083891 
L 159.121609 284.167993 
L 159.413805 284.013579 
L 159.714118 283.57666 
L 160.030664 282.683081 
L 160.363443 281.004283 
L 160.704339 278.025276 
L 161.053351 272.850247 
L 161.41048 263.985339 
L 161.775726 248.935683 
L 162.149088 223.51668 
L 162.52245 181.818293 
L 163.114959 96.759368 
L 163.196125 100.200931 
L 163.366573 123.620347 
L 163.991549 215.971423 
L 164.43796 248.944827 
L 164.884371 266.947048 
L 165.322665 276.425549 
L 165.744727 281.254234 
L 166.158672 283.705909 
L 166.556384 284.870284 
L 166.921629 285.33862 
L 167.238175 285.425199 
L 167.522255 285.273276 
L 167.822568 284.830945 
L 168.139114 283.922255 
L 168.471893 282.212332 
L 168.812789 279.175703 
L 169.161801 273.897315 
L 169.51893 264.850846 
L 169.884176 249.486977 
L 170.257538 223.529408 
L 170.6309 180.937536 
L 171.231526 91.955579 
L 171.320808 96.214527 
L 171.507489 124.213987 
L 172.083765 212.495442 
L 172.530177 247.653047 
L 172.976588 266.867938 
L 173.414882 276.999506 
L 173.836944 282.170765 
L 174.250889 284.803478 
L 174.6486 286.060367 
L 175.013846 286.574843 
L 175.330392 286.685251 
L 175.614472 286.54832 
L 175.906668 286.135606 
L 176.223214 285.25511 
L 176.555994 283.585967 
L 176.896889 280.610625 
L 177.245902 275.42474 
L 177.603031 266.518203 
L 177.968276 251.367509 
L 178.341638 225.738207 
L 178.715 183.644893 
L 179.348092 87.15228 
L 179.453608 93.174283 
L 179.664639 128.4532 
L 180.175982 208.779413 
L 180.622393 246.227713 
L 181.068805 266.715694 
L 181.507099 277.533851 
L 181.937277 283.141232 
L 182.351222 285.928171 
L 182.748934 287.263033 
L 183.114179 287.815261 
L 183.430725 287.943575 
L 183.706689 287.822846 
L 183.998885 287.424051 
L 184.307315 286.588303 
L 184.631977 285.012864 
L 184.972873 282.138605 
L 185.321885 277.111355 
L 185.679014 268.453931 
L 186.04426 253.696312 
L 186.417622 228.691935 
L 186.790984 187.575623 
L 187.188696 116.468784 
L 187.464659 82.349373 
L 187.497125 82.984915 
L 187.594524 91.487086 
L 187.862371 141.534262 
L 188.316898 210.390785 
L 188.76331 247.73942 
L 189.209721 268.151575 
L 189.648015 278.914122 
L 190.070077 284.407058 
L 190.484022 287.203059 
L 190.881733 288.53738 
L 191.246979 289.0831 
L 191.555409 289.200436 
L 191.831372 289.069119 
L 192.115452 288.665502 
L 192.423881 287.804785 
L 192.748544 286.182468 
L 193.08944 283.223072 
L 193.438452 278.047307 
L 193.795581 269.134337 
L 194.160826 253.941287 
L 194.534188 228.199288 
L 194.907551 185.87016 
L 195.305262 112.665832 
L 195.581226 77.546883 
L 195.613692 78.200873 
L 195.711091 86.952614 
L 195.978937 138.461749 
L 196.433465 209.338251 
L 196.879876 247.78251 
L 197.326287 268.793357 
L 197.764582 279.871435 
L 198.186643 285.525219 
L 198.600588 288.402867 
L 198.9983 289.775904 
L 199.363546 290.337249 
L 199.671975 290.457757 
L 199.939822 290.329883 
L 200.223902 289.923491 
L 200.532331 289.052016 
L 200.856994 287.406076 
L 201.19789 284.400787 
L 201.546902 279.141331 
L 201.904031 270.079428 
L 202.269276 254.626103 
L 202.642638 228.434684 
L 203.016 185.356116 
L 203.405596 112.328718 
L 203.697792 72.745184 
L 203.730258 73.4176 
L 203.827657 82.419022 
L 204.095504 135.388787 
L 204.550032 208.285482 
L 204.996443 247.825483 
L 205.442854 269.435089 
L 205.881148 280.828737 
L 206.30321 286.64339 
L 206.717155 289.602694 
L 207.114867 291.014453 
L 207.480112 291.591421 
L 207.788542 291.715097 
L 208.056388 291.58343 
L 208.340468 291.165446 
L 208.648898 290.269392 
L 208.97356 288.577203 
L 209.314456 285.487875 
L 209.663468 280.081712 
L 210.020597 270.76723 
L 210.385843 254.883348 
L 210.759205 227.962325 
L 211.132567 183.683846 
L 211.522162 108.621885 
L 211.814359 67.944583 
L 211.846825 68.635407 
L 211.944224 77.886566 
L 212.21207 132.315307 
L 212.666598 207.232439 
L 213.113009 247.868316 
L 213.55942 270.076759 
L 213.997715 281.786012 
L 214.419776 287.76157 
L 214.833721 290.802548 
L 215.231433 292.253034 
L 215.596679 292.845624 
L 215.896992 292.972971 
L 216.156722 292.852039 
L 216.432685 292.457819 
L 216.741115 291.581188 
L 217.065777 289.914682 
L 217.406673 286.862812 
L 217.755685 281.510805 
L 218.112814 272.274258 
L 218.47806 256.503024 
L 218.851422 229.746459 
L 219.224784 185.705769 
L 219.606263 112.352679 
L 219.930925 63.145355 
L 219.963391 63.854582 
L 220.06079 73.355497 
L 220.328637 129.241278 
L 220.783165 206.179095 
L 221.229576 247.91099 
L 221.675987 270.718347 
L 222.114282 282.743238 
L 222.536343 288.879727 
L 222.950288 292.002408 
L 223.348 293.491636 
L 223.713245 294.09985 
L 224.013558 294.230374 
L 224.273288 294.106021 
L 224.549252 293.701115 
L 224.857681 292.801003 
L 225.182344 291.090108 
L 225.52324 287.957497 
L 225.872252 282.464088 
L 226.229381 272.98368 
L 226.594626 256.796213 
L 226.967988 229.333616 
L 227.34135 184.130917 
L 227.722829 108.841981 
L 228.047492 58.347831 
L 228.079958 59.075613 
L 228.177357 68.826562 
L 228.445203 126.168006 
L 228.899731 205.125984 
L 229.346142 247.953619 
L 229.792554 271.359753 
L 230.230848 283.700224 
L 230.65291 289.997597 
L 231.066854 293.201958 
L 231.464566 294.729947 
L 231.829812 295.353818 
L 232.130125 295.487552 
L 232.389855 295.359813 
L 232.665818 294.944269 
L 232.966131 294.052931 
L 233.290794 292.322498 
L 233.63169 289.150734 
L 233.980702 283.584775 
L 234.337831 273.973959 
L 234.703076 257.55686 
L 235.076438 229.695493 
L 235.4498 183.824853 
L 235.831279 107.303114 
L 236.155942 53.6173 
L 236.164058 53.568 
L 236.188408 53.992408 
L 236.27769 61.937255 
L 236.504954 109.302587 
L 236.991948 200.226757 
L 237.438359 245.36235 
L 237.88477 270.047954 
L 238.323065 283.0706 
L 238.745126 289.715214 
L 239.159071 293.089901 
L 239.556783 294.691301 
L 239.913912 295.332961 
L 240.214225 295.483927 
L 240.473955 295.370949 
L 240.749918 294.980964 
L 241.058348 294.111832 
L 241.383011 292.464326 
L 241.723906 289.454698 
L 242.072919 284.180665 
L 242.430048 275.075226 
L 242.795293 259.515018 
L 243.168655 233.091968 
L 243.542017 189.563066 
L 243.923496 116.714821 
L 244.280625 58.37798 
L 244.313091 59.107087 
L 244.41049 68.835489 
L 244.678337 125.944234 
L 245.132864 204.488551 
L 245.579275 247.088127 
L 246.025687 270.361988 
L 246.463981 282.621567 
L 246.886043 288.863975 
L 247.299988 292.024807 
L 247.689583 293.495774 
L 248.046712 294.095365 
L 248.347025 294.22597 
L 248.606755 294.101786 
L 248.890835 293.687161 
L 249.199264 292.797569 
L 249.523927 291.122887 
L 249.864823 288.073581 
L 250.213835 282.741392 
L 250.570964 273.55077 
L 250.936209 257.865247 
L 251.309571 231.256051 
L 251.682934 187.453702 
L 252.064412 114.393585 
L 252.389075 63.234439 
L 252.397191 63.187912 
L 252.421541 63.590986 
L 252.510823 71.137472 
L 252.738087 116.125395 
L 253.225081 202.489791 
L 253.671492 245.363058 
L 254.117903 268.811184 
L 254.556198 281.180758 
L 254.97826 287.491835 
L 255.392204 290.69676 
L 255.789916 292.21719 
L 256.147045 292.826054 
L 256.447358 292.968991 
L 256.715205 292.854501 
L 256.999285 292.459513 
L 257.307714 291.606894 
L 257.632377 289.998441 
L 257.973273 287.067087 
L 258.322285 281.937943 
L 258.679414 273.092696 
L 259.044659 257.990384 
L 259.418021 232.36223 
L 259.791384 190.164301 
L 260.172862 119.685216 
L 260.505641 68.043103 
L 260.513758 67.997771 
L 260.538108 68.390186 
L 260.62739 75.7375 
L 260.854654 119.536766 
L 261.341648 203.621317 
L 261.788059 245.363421 
L 262.23447 268.192807 
L 262.672765 280.235844 
L 263.094826 286.380152 
L 263.508771 289.500193 
L 263.906483 290.980136 
L 264.271728 291.580226 
L 264.580158 291.711044 
L 264.848004 291.585812 
L 265.132084 291.183608 
L 265.440514 290.326464 
L 265.765176 288.716687 
L 266.106072 285.789273 
L 266.455085 280.674314 
L 266.812214 271.86324 
L 267.177459 256.832153 
L 267.550821 231.34177 
L 267.924183 189.391699 
L 268.305662 119.53461 
L 268.622208 72.851734 
L 268.630324 72.807633 
L 268.654674 73.189384 
L 268.743956 80.337524 
L 268.97122 122.948112 
L 269.458214 204.752825 
L 269.904625 245.363777 
L 270.351037 267.574429 
L 270.789331 279.290932 
L 271.211393 285.268473 
L 271.625338 288.30363 
L 272.023049 289.743086 
L 272.388295 290.326565 
L 272.696724 290.453585 
L 272.972688 290.324417 
L 273.264884 289.908279 
L 273.58143 289.017381 
L 273.914209 287.332021 
L 274.255105 284.334895 
L 274.604117 279.112387 
L 274.961246 270.135292 
L 275.326492 254.84655 
L 275.699854 228.952802 
L 276.073216 186.380631 
L 276.470928 112.782888 
L 276.746891 77.617467 
L 276.779357 78.271459 
L 276.876756 86.999374 
L 277.144603 138.224329 
L 277.599131 208.692769 
L 278.045542 246.912142 
L 278.491953 267.792571 
L 278.930247 278.790873 
L 279.352309 284.390397 
L 279.766254 287.224936 
L 280.155849 288.54323 
L 280.512978 289.079878 
L 280.821407 289.195598 
L 281.097371 289.063201 
L 281.389567 288.649859 
L 281.706113 287.770255 
L 282.038892 286.109805 
L 282.379788 283.160148 
L 282.728801 278.024033 
L 283.08593 269.200259 
L 283.451175 254.17895 
L 283.824537 228.746359 
L 284.197899 186.942525 
L 284.603727 113.356047 
L 284.863458 82.427309 
L 284.871574 82.468046 
L 284.92839 84.879875 
L 285.074488 104.202272 
L 285.837446 222.142527 
L 286.283857 253.683615 
L 286.722151 270.593526 
L 287.152329 279.534913 
L 287.574391 284.159677 
L 287.980219 286.436721 
L 288.369814 287.49671 
L 288.718827 287.887015 
L 289.01914 287.922911 
L 289.303219 287.718597 
L 289.603532 287.199177 
L 289.928195 286.137874 
L 290.260974 284.214458 
L 290.60187 280.836434 
L 290.950882 275.0025 
L 291.308011 265.044938 
L 291.673257 248.179747 
L 292.046619 219.738248 
L 292.419981 173.129881 
L 292.980024 87.237332 
L 293.053073 90.222795 
L 293.207288 111.232362 
L 293.913429 219.030168 
L 294.35984 251.354446 
L 294.798135 268.71735 
L 295.228313 277.922365 
L 295.650375 282.700766 
L 296.056203 285.066389 
L 296.445798 286.180256 
L 296.802927 286.612452 
L 297.111357 286.672144 
L 297.395436 286.493939 
L 297.695749 286.017908 
L 298.012295 285.065949 
L 298.345075 283.29801 
L 298.68597 280.183235 
L 299.034983 274.791072 
L 299.392112 265.569877 
L 299.757357 249.928242 
L 300.130719 223.519005 
L 300.504081 180.20191 
L 301.096591 92.047088 
L 301.177756 95.588618 
L 301.348204 119.6515 
L 301.97318 214.331939 
L 302.419591 248.149168 
L 302.866002 266.60431 
L 303.304297 276.309994 
L 303.726358 281.240581 
L 304.140303 283.72818 
L 304.529898 284.877538 
L 304.895144 285.341701 
L 305.203573 285.419501 
L 305.49577 285.258113 
L 305.796083 284.814269 
L 306.112629 283.919207 
L 306.445408 282.25166 
L 306.786304 279.309193 
L 307.135316 274.209324 
L 307.492445 265.479596 
L 307.857691 250.660331 
L 308.231053 225.624626 
L 308.604415 184.541425 
L 309.213157 96.856855 
L 309.302439 100.970079 
L 309.489121 127.958877 
L 310.065397 212.897012 
L 310.511808 246.736164 
L 310.958219 265.223151 
L 311.396514 274.960168 
L 311.818575 279.916807 
L 312.23252 282.425046 
L 312.630232 283.606669 
L 312.995477 284.076091 
L 313.312023 284.163303 
L 313.60422 284.013184 
L 313.904533 283.591721 
L 314.229195 282.70913 
L 314.561975 281.094767 
L 314.90287 278.246588 
L 315.251883 273.31046 
L 315.609012 264.861254 
L 315.974257 250.518389 
L 316.347619 226.287664 
L 316.720981 186.525515 
L 317.329724 101.666672 
L 317.419006 105.646652 
L 317.605687 131.761707 
L 318.181963 213.94812 
L 318.628374 246.692188 
L 319.074786 264.580799 
L 319.51308 274.002487 
L 319.935142 278.798401 
L 320.349087 281.22506 
L 320.746798 282.367984 
L 321.112044 282.821803 
L 321.436706 282.904769 
L 321.737019 282.74571 
L 322.045449 282.30556 
L 322.370112 281.412197 
L 322.702891 279.786468 
L 323.043787 276.925899 
L 323.392799 271.977748 
L 323.749928 263.520683 
L 324.115173 249.181291 
L 324.488535 224.978409 
L 324.861898 185.289593 
L 325.44629 106.476283 
L 325.527456 109.684442 
L 325.697904 131.484196 
L 326.32288 217.251423 
L 326.769291 247.88848 
L 327.215702 264.607768 
L 327.653996 273.400059 
L 328.076058 277.866024 
L 328.490003 280.118481 
L 328.887715 281.172623 
L 329.25296 281.582614 
L 329.577623 281.643182 
L 329.877936 281.47071 
L 330.186365 281.020252 
L 330.511028 280.117554 
L 330.843807 278.482713 
L 331.184703 275.613516 
L 331.541832 270.511628 
L 331.898961 261.959526 
L 332.264206 247.481093 
L 332.637568 223.072407 
L 333.01093 183.081926 
L 333.562857 111.285938 
L 333.627789 113.303971 
L 333.773888 129.207001 
L 334.536845 226.254781 
L 334.983256 252.213404 
L 335.421551 266.129747 
L 335.851729 273.487275 
L 336.27379 277.291636 
L 336.679618 279.163372 
L 337.069214 280.033277 
L 337.426343 280.355924 
L 337.751005 280.371064 
L 338.059435 280.152538 
L 338.375981 279.631706 
L 338.70876 278.605143 
L 339.049656 276.747176 
L 339.398668 273.474091 
L 339.755797 267.797048 
L 340.121043 258.059031 
L 340.486288 241.930007 
L 340.85965 214.836926 
L 341.241129 169.346304 
L 341.679423 116.095313 
L 341.695657 116.223414 
L 341.768706 119.675816 
L 341.955387 143.169931 
L 342.531663 217.10154 
L 342.978074 246.56033 
L 343.424485 262.653796 
L 343.86278 271.129486 
L 344.284841 275.443216 
L 344.698786 277.625142 
L 345.096498 278.651976 
L 345.46986 279.063799 
L 345.802639 279.130153 
L 346.119185 278.960389 
L 346.435731 278.517742 
L 346.760394 277.653199 
L 347.10129 276.043088 
L 347.450302 273.18987 
L 347.807431 268.21827 
L 348.172677 259.659023 
L 348.537922 245.442027 
L 348.911284 221.508618 
L 349.292763 181.255736 
L 349.79599 120.904639 
L 349.836573 121.656009 
L 349.950205 130.442643 
L 351.062174 244.976174 
L 351.508586 261.179074 
L 351.94688 269.729157 
L 352.368942 274.092419 
L 352.782886 276.308003 
L 353.180598 277.358409 
L 353.55396 277.789867 
L 353.894856 277.876299 
L 354.211402 277.73016 
L 354.536065 277.312858 
L 354.868844 276.478457 
L 355.20974 274.950061 
L 355.558752 272.239989 
L 355.915881 267.515366 
L 356.281127 259.37775 
L 356.646372 245.856353 
L 357.019734 223.087683 
L 357.401213 184.786171 
L 357.912557 125.714131 
L 357.961256 126.745241 
L 358.083004 136.696673 
L 359.073226 239.705599 
L 359.519637 257.701815 
L 359.957931 267.256318 
L 360.388109 272.240196 
L 360.802054 274.734246 
L 361.207883 275.956984 
L 361.589361 276.478531 
L 361.938374 276.62158 
L 362.263036 276.524963 
L 362.587699 276.182372 
L 362.920478 275.471755 
L 363.261374 274.153321 
L 363.60227 271.870876 
L 363.951282 267.917199 
L 364.308411 261.15112 
L 364.673656 249.666651 
L 365.047019 230.265812 
L 365.420381 198.429961 
L 366.029123 130.523479 
L 366.118405 133.704619 
L 366.305086 154.577836 
L 366.881363 220.254997 
L 367.327774 246.428513 
L 367.774185 260.726834 
L 368.212479 268.256526 
L 368.634541 272.088069 
L 369.048486 274.02527 
L 369.446198 274.936026 
L 369.81956 275.300444 
L 370.168572 275.355522 
L 370.501351 275.178933 
L 370.83413 274.726123 
L 371.16691 273.8618 
L 371.507806 272.29696 
L 371.856818 269.54013 
L 372.213947 264.757038 
L 372.579192 256.549764 
L 372.944438 242.95215 
L 373.3178 220.105748 
L 373.699278 181.737293 
L 374.14569 135.332801 
L 374.170039 135.576065 
L 374.259322 140.135641 
L 374.486585 167.294567 
L 374.973579 219.463349 
L 375.419991 245.368866 
L 375.866402 259.535723 
L 376.304696 267.007145 
L 376.726758 270.816631 
L 377.140703 272.748248 
L 377.538414 273.661373 
L 377.919893 274.037717 
L 378.277022 274.099738 
L 378.617918 273.928921 
L 378.950697 273.495203 
L 379.283476 272.667769 
L 379.624372 271.170144 
L 379.973384 268.53227 
L 380.330513 263.955941 
L 380.695759 256.103754 
L 381.061004 243.094677 
L 381.434366 221.237284 
L 381.815845 184.529897 
L 382.262256 140.142148 
L 382.286606 140.374763 
L 382.375888 144.735249 
L 382.603152 170.705681 
L 383.090146 220.595041 
L 383.536557 245.369312 
L 383.982968 258.917384 
L 384.421263 266.062243 
L 384.843324 269.704946 
L 385.257269 271.551674 
L 385.654981 272.424321 
L 386.03646 272.783635 
L 386.401705 272.841132 
L 386.750717 272.665201 
L 387.091613 272.221194 
L 387.432509 271.369184 
L 387.773405 269.861882 
L 388.122417 267.215039 
L 388.479546 262.633775 
L 388.844792 254.787421 
L 389.218154 241.438578 
L 389.591516 219.415238 
L 389.972994 182.468404 
L 390.378823 144.951283 
L 390.386939 144.976312 
L 390.443755 146.462796 
L 390.589853 158.377608 
L 391.352811 231.052822 
L 391.799222 250.498472 
L 392.237516 260.922255 
L 392.667695 266.431907 
L 393.089756 269.279098 
L 393.503701 270.697121 
L 393.901413 271.343168 
L 394.282891 271.575865 
L 394.648137 271.547698 
L 394.997149 271.289994 
L 395.338045 270.738822 
L 395.678941 269.723367 
L 396.027953 267.903409 
L 396.376965 264.798292 
L 396.734094 259.472289 
L 397.09934 250.41537 
L 397.472702 235.092714 
L 397.846064 209.920146 
L 398.268125 164.258308 
L 398.487273 149.785184 
L 398.487273 149.785184 
" style="fill:none;stroke:#000000;stroke-linecap:square;stroke-width:4;"/>
   </g>
   <g id="patch_3">
    <path d="M 57.6 307.584 
L 57.6 41.472 
" style="fill:none;stroke:#000000;stroke-linecap:square;stroke-linejoin:miter;stroke-width:0.8;"/>
   </g>
   <g id="patch_4">
    <path d="M 414.72 307.584 
L 414.72 41.472 
" style="fill:none;stroke:#000000;stroke-linecap:square;stroke-linejoin:miter;stroke-width:0.8;"/>
   </g>
   <g id="patch_5">
    <path d="M 57.6 307.584 
L 414.72 307.584 
" style="fill:none;stroke:#000000;stroke-linecap:square;stroke-linejoin:miter;stroke-width:0.8;"/>
   </g>
   <g id="patch_6">
    <path d="M 57.6 41.472 
L 414.72 41.472 
" style="fill:none;stroke:#000000;stroke-linecap:square;stroke-linejoin:miter;stroke-width:0.8;"/>
   </g>
  </g>
 </g>
 <defs>
  <clipPath id="p33ad6afd9c">
   <rect height="266.112" width="357.12" x="57.6" y="41.472"/>
  </clipPath>
 </defs>
</svg>
