<?xml version="1.0" encoding="utf-8" standalone="no"?>
<!DOCTYPE svg PUBLIC "-//W3C//DTD SVG 1.1//EN"
  "http://www.w3.org/Graphics/SVG/1.1/DTD/svg11.dtd">
<!-- Created with matplotlib (http://matplotlib.org/) -->
<svg height="345.6pt" version="1.1" viewBox="0 0 460.8 345.6" width="460.8pt" xmlns="http://www.w3.org/2000/svg" xmlns:xlink="http://www.w3.org/1999/xlink">
 <defs>
  <style type="text/css">
*{stroke-linecap:butt;stroke-linejoin:round;}
  </style>
 </defs>
 <g id="figure_1">
  <g id="patch_1">
   <path d="M 0 345.6 
L 460.8 345.6 
L 460.8 0 
L 0 0 
z
" style="fill:#ffffff;"/>
  </g>
  <g id="axes_1">
   <g id="patch_2">
    <path d="M 57.6 307.584 
L 414.72 307.584 
L 414.72 41.472 
L 57.6 41.472 
z
" style="fill:#ffffff;"/>
   </g>
   <g id="matplotlib.axis_1">
    <g id="xtick_1">
     <g id="line2d_1">
      <path clip-path="url(#p9620495c73)" d="M 57.591072 307.584 
L 57.591072 41.472 
" style="fill:none;stroke:#b0b0b0;stroke-linecap:square;stroke-width:0.8;"/>
     </g>
     <g id="line2d_2">
      <defs>
       <path d="M 0 0 
L 0 3.5 
" id="mfa83eb5a7d" style="stroke:#000000;stroke-width:0.8;"/>
      </defs>
      <g>
       <use style="stroke:#000000;stroke-width:0.8;" x="57.591072" xlink:href="#mfa83eb5a7d" y="307.584"/>
      </g>
     </g>
     <g id="text_1">
      <!-- 0 -->
      <defs>
       <path d="M 31.78125 66.40625 
Q 24.171875 66.40625 20.328125 58.90625 
Q 16.5 51.421875 16.5 36.375 
Q 16.5 21.390625 20.328125 13.890625 
Q 24.171875 6.390625 31.78125 6.390625 
Q 39.453125 6.390625 43.28125 13.890625 
Q 47.125 21.390625 47.125 36.375 
Q 47.125 51.421875 43.28125 58.90625 
Q 39.453125 66.40625 31.78125 66.40625 
z
M 31.78125 74.21875 
Q 44.046875 74.21875 50.515625 64.515625 
Q 56.984375 54.828125 56.984375 36.375 
Q 56.984375 17.96875 50.515625 8.265625 
Q 44.046875 -1.421875 31.78125 -1.421875 
Q 19.53125 -1.421875 13.0625 8.265625 
Q 6.59375 17.96875 6.59375 36.375 
Q 6.59375 54.828125 13.0625 64.515625 
Q 19.53125 74.21875 31.78125 74.21875 
z
" id="DejaVuSans-30"/>
      </defs>
      <g transform="translate(54.409822 322.182437)scale(0.1 -0.1)">
       <use xlink:href="#DejaVuSans-30"/>
      </g>
     </g>
    </g>
    <g id="xtick_2">
     <g id="line2d_3">
      <path clip-path="url(#p9620495c73)" d="M 102.232188 307.584 
L 102.232188 41.472 
" style="fill:none;stroke:#b0b0b0;stroke-linecap:square;stroke-width:0.8;"/>
     </g>
     <g id="line2d_4">
      <g>
       <use style="stroke:#000000;stroke-width:0.8;" x="102.232188" xlink:href="#mfa83eb5a7d" y="307.584"/>
      </g>
     </g>
     <g id="text_2">
      <!-- 5000 -->
      <defs>
       <path d="M 10.796875 72.90625 
L 49.515625 72.90625 
L 49.515625 64.59375 
L 19.828125 64.59375 
L 19.828125 46.734375 
Q 21.96875 47.46875 24.109375 47.828125 
Q 26.265625 48.1875 28.421875 48.1875 
Q 40.625 48.1875 47.75 41.5 
Q 54.890625 34.8125 54.890625 23.390625 
Q 54.890625 11.625 47.5625 5.09375 
Q 40.234375 -1.421875 26.90625 -1.421875 
Q 22.3125 -1.421875 17.546875 -0.640625 
Q 12.796875 0.140625 7.71875 1.703125 
L 7.71875 11.625 
Q 12.109375 9.234375 16.796875 8.0625 
Q 21.484375 6.890625 26.703125 6.890625 
Q 35.15625 6.890625 40.078125 11.328125 
Q 45.015625 15.765625 45.015625 23.390625 
Q 45.015625 31 40.078125 35.4375 
Q 35.15625 39.890625 26.703125 39.890625 
Q 22.75 39.890625 18.8125 39.015625 
Q 14.890625 38.140625 10.796875 36.28125 
z
" id="DejaVuSans-35"/>
      </defs>
      <g transform="translate(89.507188 322.182437)scale(0.1 -0.1)">
       <use xlink:href="#DejaVuSans-35"/>
       <use x="63.623047" xlink:href="#DejaVuSans-30"/>
       <use x="127.246094" xlink:href="#DejaVuSans-30"/>
       <use x="190.869141" xlink:href="#DejaVuSans-30"/>
      </g>
     </g>
    </g>
    <g id="xtick_3">
     <g id="line2d_5">
      <path clip-path="url(#p9620495c73)" d="M 146.873304 307.584 
L 146.873304 41.472 
" style="fill:none;stroke:#b0b0b0;stroke-linecap:square;stroke-width:0.8;"/>
     </g>
     <g id="line2d_6">
      <g>
       <use style="stroke:#000000;stroke-width:0.8;" x="146.873304" xlink:href="#mfa83eb5a7d" y="307.584"/>
      </g>
     </g>
     <g id="text_3">
      <!-- 10000 -->
      <defs>
       <path d="M 12.40625 8.296875 
L 28.515625 8.296875 
L 28.515625 63.921875 
L 10.984375 60.40625 
L 10.984375 69.390625 
L 28.421875 72.90625 
L 38.28125 72.90625 
L 38.28125 8.296875 
L 54.390625 8.296875 
L 54.390625 0 
L 12.40625 0 
z
" id="DejaVuSans-31"/>
      </defs>
      <g transform="translate(130.967054 322.182437)scale(0.1 -0.1)">
       <use xlink:href="#DejaVuSans-31"/>
       <use x="63.623047" xlink:href="#DejaVuSans-30"/>
       <use x="127.246094" xlink:href="#DejaVuSans-30"/>
       <use x="190.869141" xlink:href="#DejaVuSans-30"/>
       <use x="254.492188" xlink:href="#DejaVuSans-30"/>
      </g>
     </g>
    </g>
    <g id="xtick_4">
     <g id="line2d_7">
      <path clip-path="url(#p9620495c73)" d="M 191.51442 307.584 
L 191.51442 41.472 
" style="fill:none;stroke:#b0b0b0;stroke-linecap:square;stroke-width:0.8;"/>
     </g>
     <g id="line2d_8">
      <g>
       <use style="stroke:#000000;stroke-width:0.8;" x="191.51442" xlink:href="#mfa83eb5a7d" y="307.584"/>
      </g>
     </g>
     <g id="text_4">
      <!-- 15000 -->
      <g transform="translate(175.60817 322.182437)scale(0.1 -0.1)">
       <use xlink:href="#DejaVuSans-31"/>
       <use x="63.623047" xlink:href="#DejaVuSans-35"/>
       <use x="127.246094" xlink:href="#DejaVuSans-30"/>
       <use x="190.869141" xlink:href="#DejaVuSans-30"/>
       <use x="254.492188" xlink:href="#DejaVuSans-30"/>
      </g>
     </g>
    </g>
    <g id="xtick_5">
     <g id="line2d_9">
      <path clip-path="url(#p9620495c73)" d="M 236.155536 307.584 
L 236.155536 41.472 
" style="fill:none;stroke:#b0b0b0;stroke-linecap:square;stroke-width:0.8;"/>
     </g>
     <g id="line2d_10">
      <g>
       <use style="stroke:#000000;stroke-width:0.8;" x="236.155536" xlink:href="#mfa83eb5a7d" y="307.584"/>
      </g>
     </g>
     <g id="text_5">
      <!-- 20000 -->
      <defs>
       <path d="M 19.1875 8.296875 
L 53.609375 8.296875 
L 53.609375 0 
L 7.328125 0 
L 7.328125 8.296875 
Q 12.9375 14.109375 22.625 23.890625 
Q 32.328125 33.6875 34.8125 36.53125 
Q 39.546875 41.84375 41.421875 45.53125 
Q 43.3125 49.21875 43.3125 52.78125 
Q 43.3125 58.59375 39.234375 62.25 
Q 35.15625 65.921875 28.609375 65.921875 
Q 23.96875 65.921875 18.8125 64.3125 
Q 13.671875 62.703125 7.8125 59.421875 
L 7.8125 69.390625 
Q 13.765625 71.78125 18.9375 73 
Q 24.125 74.21875 28.421875 74.21875 
Q 39.75 74.21875 46.484375 68.546875 
Q 53.21875 62.890625 53.21875 53.421875 
Q 53.21875 48.921875 51.53125 44.890625 
Q 49.859375 40.875 45.40625 35.40625 
Q 44.1875 33.984375 37.640625 27.21875 
Q 31.109375 20.453125 19.1875 8.296875 
z
" id="DejaVuSans-32"/>
      </defs>
      <g transform="translate(220.249286 322.182437)scale(0.1 -0.1)">
       <use xlink:href="#DejaVuSans-32"/>
       <use x="63.623047" xlink:href="#DejaVuSans-30"/>
       <use x="127.246094" xlink:href="#DejaVuSans-30"/>
       <use x="190.869141" xlink:href="#DejaVuSans-30"/>
       <use x="254.492188" xlink:href="#DejaVuSans-30"/>
      </g>
     </g>
    </g>
    <g id="xtick_6">
     <g id="line2d_11">
      <path clip-path="url(#p9620495c73)" d="M 280.796652 307.584 
L 280.796652 41.472 
" style="fill:none;stroke:#b0b0b0;stroke-linecap:square;stroke-width:0.8;"/>
     </g>
     <g id="line2d_12">
      <g>
       <use style="stroke:#000000;stroke-width:0.8;" x="280.796652" xlink:href="#mfa83eb5a7d" y="307.584"/>
      </g>
     </g>
     <g id="text_6">
      <!-- 25000 -->
      <g transform="translate(264.890402 322.182437)scale(0.1 -0.1)">
       <use xlink:href="#DejaVuSans-32"/>
       <use x="63.623047" xlink:href="#DejaVuSans-35"/>
       <use x="127.246094" xlink:href="#DejaVuSans-30"/>
       <use x="190.869141" xlink:href="#DejaVuSans-30"/>
       <use x="254.492188" xlink:href="#DejaVuSans-30"/>
      </g>
     </g>
    </g>
    <g id="xtick_7">
     <g id="line2d_13">
      <path clip-path="url(#p9620495c73)" d="M 325.437768 307.584 
L 325.437768 41.472 
" style="fill:none;stroke:#b0b0b0;stroke-linecap:square;stroke-width:0.8;"/>
     </g>
     <g id="line2d_14">
      <g>
       <use style="stroke:#000000;stroke-width:0.8;" x="325.437768" xlink:href="#mfa83eb5a7d" y="307.584"/>
      </g>
     </g>
     <g id="text_7">
      <!-- 30000 -->
      <defs>
       <path d="M 40.578125 39.3125 
Q 47.65625 37.796875 51.625 33 
Q 55.609375 28.21875 55.609375 21.1875 
Q 55.609375 10.40625 48.1875 4.484375 
Q 40.765625 -1.421875 27.09375 -1.421875 
Q 22.515625 -1.421875 17.65625 -0.515625 
Q 12.796875 0.390625 7.625 2.203125 
L 7.625 11.71875 
Q 11.71875 9.328125 16.59375 8.109375 
Q 21.484375 6.890625 26.8125 6.890625 
Q 36.078125 6.890625 40.9375 10.546875 
Q 45.796875 14.203125 45.796875 21.1875 
Q 45.796875 27.640625 41.28125 31.265625 
Q 36.765625 34.90625 28.71875 34.90625 
L 20.21875 34.90625 
L 20.21875 43.015625 
L 29.109375 43.015625 
Q 36.375 43.015625 40.234375 45.921875 
Q 44.09375 48.828125 44.09375 54.296875 
Q 44.09375 59.90625 40.109375 62.90625 
Q 36.140625 65.921875 28.71875 65.921875 
Q 24.65625 65.921875 20.015625 65.03125 
Q 15.375 64.15625 9.8125 62.3125 
L 9.8125 71.09375 
Q 15.4375 72.65625 20.34375 73.4375 
Q 25.25 74.21875 29.59375 74.21875 
Q 40.828125 74.21875 47.359375 69.109375 
Q 53.90625 64.015625 53.90625 55.328125 
Q 53.90625 49.265625 50.4375 45.09375 
Q 46.96875 40.921875 40.578125 39.3125 
z
" id="DejaVuSans-33"/>
      </defs>
      <g transform="translate(309.531518 322.182437)scale(0.1 -0.1)">
       <use xlink:href="#DejaVuSans-33"/>
       <use x="63.623047" xlink:href="#DejaVuSans-30"/>
       <use x="127.246094" xlink:href="#DejaVuSans-30"/>
       <use x="190.869141" xlink:href="#DejaVuSans-30"/>
       <use x="254.492188" xlink:href="#DejaVuSans-30"/>
      </g>
     </g>
    </g>
    <g id="xtick_8">
     <g id="line2d_15">
      <path clip-path="url(#p9620495c73)" d="M 370.078884 307.584 
L 370.078884 41.472 
" style="fill:none;stroke:#b0b0b0;stroke-linecap:square;stroke-width:0.8;"/>
     </g>
     <g id="line2d_16">
      <g>
       <use style="stroke:#000000;stroke-width:0.8;" x="370.078884" xlink:href="#mfa83eb5a7d" y="307.584"/>
      </g>
     </g>
     <g id="text_8">
      <!-- 35000 -->
      <g transform="translate(354.172634 322.182437)scale(0.1 -0.1)">
       <use xlink:href="#DejaVuSans-33"/>
       <use x="63.623047" xlink:href="#DejaVuSans-35"/>
       <use x="127.246094" xlink:href="#DejaVuSans-30"/>
       <use x="190.869141" xlink:href="#DejaVuSans-30"/>
       <use x="254.492188" xlink:href="#DejaVuSans-30"/>
      </g>
     </g>
    </g>
    <g id="xtick_9">
     <g id="line2d_17">
      <path clip-path="url(#p9620495c73)" d="M 414.72 307.584 
L 414.72 41.472 
" style="fill:none;stroke:#b0b0b0;stroke-linecap:square;stroke-width:0.8;"/>
     </g>
     <g id="line2d_18">
      <g>
       <use style="stroke:#000000;stroke-width:0.8;" x="414.72" xlink:href="#mfa83eb5a7d" y="307.584"/>
      </g>
     </g>
     <g id="text_9">
      <!-- 40000 -->
      <defs>
       <path d="M 37.796875 64.3125 
L 12.890625 25.390625 
L 37.796875 25.390625 
z
M 35.203125 72.90625 
L 47.609375 72.90625 
L 47.609375 25.390625 
L 58.015625 25.390625 
L 58.015625 17.1875 
L 47.609375 17.1875 
L 47.609375 0 
L 37.796875 0 
L 37.796875 17.1875 
L 4.890625 17.1875 
L 4.890625 26.703125 
z
" id="DejaVuSans-34"/>
      </defs>
      <g transform="translate(398.81375 322.182437)scale(0.1 -0.1)">
       <use xlink:href="#DejaVuSans-34"/>
       <use x="63.623047" xlink:href="#DejaVuSans-30"/>
       <use x="127.246094" xlink:href="#DejaVuSans-30"/>
       <use x="190.869141" xlink:href="#DejaVuSans-30"/>
       <use x="254.492188" xlink:href="#DejaVuSans-30"/>
      </g>
     </g>
    </g>
    <g id="text_10">
     <!-- Lag -->
     <defs>
      <path d="M 9.8125 72.90625 
L 19.671875 72.90625 
L 19.671875 8.296875 
L 55.171875 8.296875 
L 55.171875 0 
L 9.8125 0 
z
" id="DejaVuSans-4c"/>
      <path d="M 34.28125 27.484375 
Q 23.390625 27.484375 19.1875 25 
Q 14.984375 22.515625 14.984375 16.5 
Q 14.984375 11.71875 18.140625 8.90625 
Q 21.296875 6.109375 26.703125 6.109375 
Q 34.1875 6.109375 38.703125 11.40625 
Q 43.21875 16.703125 43.21875 25.484375 
L 43.21875 27.484375 
z
M 52.203125 31.203125 
L 52.203125 0 
L 43.21875 0 
L 43.21875 8.296875 
Q 40.140625 3.328125 35.546875 0.953125 
Q 30.953125 -1.421875 24.3125 -1.421875 
Q 15.921875 -1.421875 10.953125 3.296875 
Q 6 8.015625 6 15.921875 
Q 6 25.140625 12.171875 29.828125 
Q 18.359375 34.515625 30.609375 34.515625 
L 43.21875 34.515625 
L 43.21875 35.40625 
Q 43.21875 41.609375 39.140625 45 
Q 35.0625 48.390625 27.6875 48.390625 
Q 23 48.390625 18.546875 47.265625 
Q 14.109375 46.140625 10.015625 43.890625 
L 10.015625 52.203125 
Q 14.9375 54.109375 19.578125 55.046875 
Q 24.21875 56 28.609375 56 
Q 40.484375 56 46.34375 49.84375 
Q 52.203125 43.703125 52.203125 31.203125 
z
" id="DejaVuSans-61"/>
      <path d="M 45.40625 27.984375 
Q 45.40625 37.75 41.375 43.109375 
Q 37.359375 48.484375 30.078125 48.484375 
Q 22.859375 48.484375 18.828125 43.109375 
Q 14.796875 37.75 14.796875 27.984375 
Q 14.796875 18.265625 18.828125 12.890625 
Q 22.859375 7.515625 30.078125 7.515625 
Q 37.359375 7.515625 41.375 12.890625 
Q 45.40625 18.265625 45.40625 27.984375 
z
M 54.390625 6.78125 
Q 54.390625 -7.171875 48.1875 -13.984375 
Q 42 -20.796875 29.203125 -20.796875 
Q 24.46875 -20.796875 20.265625 -20.09375 
Q 16.0625 -19.390625 12.109375 -17.921875 
L 12.109375 -9.1875 
Q 16.0625 -11.328125 19.921875 -12.34375 
Q 23.78125 -13.375 27.78125 -13.375 
Q 36.625 -13.375 41.015625 -8.765625 
Q 45.40625 -4.15625 45.40625 5.171875 
L 45.40625 9.625 
Q 42.625 4.78125 38.28125 2.390625 
Q 33.9375 0 27.875 0 
Q 17.828125 0 11.671875 7.65625 
Q 5.515625 15.328125 5.515625 27.984375 
Q 5.515625 40.671875 11.671875 48.328125 
Q 17.828125 56 27.875 56 
Q 33.9375 56 38.28125 53.609375 
Q 42.625 51.21875 45.40625 46.390625 
L 45.40625 54.6875 
L 54.390625 54.6875 
z
" id="DejaVuSans-67"/>
     </defs>
     <g transform="translate(227.135781 335.860562)scale(0.1 -0.1)">
      <use xlink:href="#DejaVuSans-4c"/>
      <use x="55.712891" xlink:href="#DejaVuSans-61"/>
      <use x="116.992188" xlink:href="#DejaVuSans-67"/>
     </g>
    </g>
   </g>
   <g id="matplotlib.axis_2">
    <g id="ytick_1">
     <g id="line2d_19">
      <path clip-path="url(#p9620495c73)" d="M 57.6 307.584 
L 414.72 307.584 
" style="fill:none;stroke:#b0b0b0;stroke-linecap:square;stroke-width:0.8;"/>
     </g>
     <g id="line2d_20">
      <defs>
       <path d="M 0 0 
L -3.5 0 
" id="mabc4091bc5" style="stroke:#000000;stroke-width:0.8;"/>
      </defs>
      <g>
       <use style="stroke:#000000;stroke-width:0.8;" x="57.6" xlink:href="#mabc4091bc5" y="307.584"/>
      </g>
     </g>
     <g id="text_11">
      <!-- −1.00 -->
      <defs>
       <path d="M 10.59375 35.5 
L 73.1875 35.5 
L 73.1875 27.203125 
L 10.59375 27.203125 
z
" id="DejaVuSans-2212"/>
       <path d="M 10.6875 12.40625 
L 21 12.40625 
L 21 0 
L 10.6875 0 
z
" id="DejaVuSans-2e"/>
      </defs>
      <g transform="translate(19.954687 311.383219)scale(0.1 -0.1)">
       <use xlink:href="#DejaVuSans-2212"/>
       <use x="83.789062" xlink:href="#DejaVuSans-31"/>
       <use x="147.412109" xlink:href="#DejaVuSans-2e"/>
       <use x="179.199219" xlink:href="#DejaVuSans-30"/>
       <use x="242.822266" xlink:href="#DejaVuSans-30"/>
      </g>
     </g>
    </g>
    <g id="ytick_2">
     <g id="line2d_21">
      <path clip-path="url(#p9620495c73)" d="M 57.6 274.32 
L 414.72 274.32 
" style="fill:none;stroke:#b0b0b0;stroke-linecap:square;stroke-width:0.8;"/>
     </g>
     <g id="line2d_22">
      <g>
       <use style="stroke:#000000;stroke-width:0.8;" x="57.6" xlink:href="#mabc4091bc5" y="274.32"/>
      </g>
     </g>
     <g id="text_12">
      <!-- −0.75 -->
      <defs>
       <path d="M 8.203125 72.90625 
L 55.078125 72.90625 
L 55.078125 68.703125 
L 28.609375 0 
L 18.3125 0 
L 43.21875 64.59375 
L 8.203125 64.59375 
z
" id="DejaVuSans-37"/>
      </defs>
      <g transform="translate(19.954687 278.119219)scale(0.1 -0.1)">
       <use xlink:href="#DejaVuSans-2212"/>
       <use x="83.789062" xlink:href="#DejaVuSans-30"/>
       <use x="147.412109" xlink:href="#DejaVuSans-2e"/>
       <use x="179.199219" xlink:href="#DejaVuSans-37"/>
       <use x="242.822266" xlink:href="#DejaVuSans-35"/>
      </g>
     </g>
    </g>
    <g id="ytick_3">
     <g id="line2d_23">
      <path clip-path="url(#p9620495c73)" d="M 57.6 241.056 
L 414.72 241.056 
" style="fill:none;stroke:#b0b0b0;stroke-linecap:square;stroke-width:0.8;"/>
     </g>
     <g id="line2d_24">
      <g>
       <use style="stroke:#000000;stroke-width:0.8;" x="57.6" xlink:href="#mabc4091bc5" y="241.056"/>
      </g>
     </g>
     <g id="text_13">
      <!-- −0.50 -->
      <g transform="translate(19.954687 244.855219)scale(0.1 -0.1)">
       <use xlink:href="#DejaVuSans-2212"/>
       <use x="83.789062" xlink:href="#DejaVuSans-30"/>
       <use x="147.412109" xlink:href="#DejaVuSans-2e"/>
       <use x="179.199219" xlink:href="#DejaVuSans-35"/>
       <use x="242.822266" xlink:href="#DejaVuSans-30"/>
      </g>
     </g>
    </g>
    <g id="ytick_4">
     <g id="line2d_25">
      <path clip-path="url(#p9620495c73)" d="M 57.6 207.792 
L 414.72 207.792 
" style="fill:none;stroke:#b0b0b0;stroke-linecap:square;stroke-width:0.8;"/>
     </g>
     <g id="line2d_26">
      <g>
       <use style="stroke:#000000;stroke-width:0.8;" x="57.6" xlink:href="#mabc4091bc5" y="207.792"/>
      </g>
     </g>
     <g id="text_14">
      <!-- −0.25 -->
      <g transform="translate(19.954687 211.591219)scale(0.1 -0.1)">
       <use xlink:href="#DejaVuSans-2212"/>
       <use x="83.789062" xlink:href="#DejaVuSans-30"/>
       <use x="147.412109" xlink:href="#DejaVuSans-2e"/>
       <use x="179.199219" xlink:href="#DejaVuSans-32"/>
       <use x="242.822266" xlink:href="#DejaVuSans-35"/>
      </g>
     </g>
    </g>
    <g id="ytick_5">
     <g id="line2d_27">
      <path clip-path="url(#p9620495c73)" d="M 57.6 174.528 
L 414.72 174.528 
" style="fill:none;stroke:#b0b0b0;stroke-linecap:square;stroke-width:0.8;"/>
     </g>
     <g id="line2d_28">
      <g>
       <use style="stroke:#000000;stroke-width:0.8;" x="57.6" xlink:href="#mabc4091bc5" y="174.528"/>
      </g>
     </g>
     <g id="text_15">
      <!-- 0.00 -->
      <g transform="translate(28.334375 178.327219)scale(0.1 -0.1)">
       <use xlink:href="#DejaVuSans-30"/>
       <use x="63.623047" xlink:href="#DejaVuSans-2e"/>
       <use x="95.410156" xlink:href="#DejaVuSans-30"/>
       <use x="159.033203" xlink:href="#DejaVuSans-30"/>
      </g>
     </g>
    </g>
    <g id="ytick_6">
     <g id="line2d_29">
      <path clip-path="url(#p9620495c73)" d="M 57.6 141.264 
L 414.72 141.264 
" style="fill:none;stroke:#b0b0b0;stroke-linecap:square;stroke-width:0.8;"/>
     </g>
     <g id="line2d_30">
      <g>
       <use style="stroke:#000000;stroke-width:0.8;" x="57.6" xlink:href="#mabc4091bc5" y="141.264"/>
      </g>
     </g>
     <g id="text_16">
      <!-- 0.25 -->
      <g transform="translate(28.334375 145.063219)scale(0.1 -0.1)">
       <use xlink:href="#DejaVuSans-30"/>
       <use x="63.623047" xlink:href="#DejaVuSans-2e"/>
       <use x="95.410156" xlink:href="#DejaVuSans-32"/>
       <use x="159.033203" xlink:href="#DejaVuSans-35"/>
      </g>
     </g>
    </g>
    <g id="ytick_7">
     <g id="line2d_31">
      <path clip-path="url(#p9620495c73)" d="M 57.6 108 
L 414.72 108 
" style="fill:none;stroke:#b0b0b0;stroke-linecap:square;stroke-width:0.8;"/>
     </g>
     <g id="line2d_32">
      <g>
       <use style="stroke:#000000;stroke-width:0.8;" x="57.6" xlink:href="#mabc4091bc5" y="108"/>
      </g>
     </g>
     <g id="text_17">
      <!-- 0.50 -->
      <g transform="translate(28.334375 111.799219)scale(0.1 -0.1)">
       <use xlink:href="#DejaVuSans-30"/>
       <use x="63.623047" xlink:href="#DejaVuSans-2e"/>
       <use x="95.410156" xlink:href="#DejaVuSans-35"/>
       <use x="159.033203" xlink:href="#DejaVuSans-30"/>
      </g>
     </g>
    </g>
    <g id="ytick_8">
     <g id="line2d_33">
      <path clip-path="url(#p9620495c73)" d="M 57.6 74.736 
L 414.72 74.736 
" style="fill:none;stroke:#b0b0b0;stroke-linecap:square;stroke-width:0.8;"/>
     </g>
     <g id="line2d_34">
      <g>
       <use style="stroke:#000000;stroke-width:0.8;" x="57.6" xlink:href="#mabc4091bc5" y="74.736"/>
      </g>
     </g>
     <g id="text_18">
      <!-- 0.75 -->
      <g transform="translate(28.334375 78.535219)scale(0.1 -0.1)">
       <use xlink:href="#DejaVuSans-30"/>
       <use x="63.623047" xlink:href="#DejaVuSans-2e"/>
       <use x="95.410156" xlink:href="#DejaVuSans-37"/>
       <use x="159.033203" xlink:href="#DejaVuSans-35"/>
      </g>
     </g>
    </g>
    <g id="ytick_9">
     <g id="line2d_35">
      <path clip-path="url(#p9620495c73)" d="M 57.6 41.472 
L 414.72 41.472 
" style="fill:none;stroke:#b0b0b0;stroke-linecap:square;stroke-width:0.8;"/>
     </g>
     <g id="line2d_36">
      <g>
       <use style="stroke:#000000;stroke-width:0.8;" x="57.6" xlink:href="#mabc4091bc5" y="41.472"/>
      </g>
     </g>
     <g id="text_19">
      <!-- 1.00 -->
      <g transform="translate(28.334375 45.271219)scale(0.1 -0.1)">
       <use xlink:href="#DejaVuSans-31"/>
       <use x="63.623047" xlink:href="#DejaVuSans-2e"/>
       <use x="95.410156" xlink:href="#DejaVuSans-30"/>
       <use x="159.033203" xlink:href="#DejaVuSans-30"/>
      </g>
     </g>
    </g>
    <g id="text_20">
     <!-- Autocorrelation -->
     <defs>
      <path d="M 34.1875 63.1875 
L 20.796875 26.90625 
L 47.609375 26.90625 
z
M 28.609375 72.90625 
L 39.796875 72.90625 
L 67.578125 0 
L 57.328125 0 
L 50.6875 18.703125 
L 17.828125 18.703125 
L 11.1875 0 
L 0.78125 0 
z
" id="DejaVuSans-41"/>
      <path d="M 8.5 21.578125 
L 8.5 54.6875 
L 17.484375 54.6875 
L 17.484375 21.921875 
Q 17.484375 14.15625 20.5 10.265625 
Q 23.53125 6.390625 29.59375 6.390625 
Q 36.859375 6.390625 41.078125 11.03125 
Q 45.3125 15.671875 45.3125 23.6875 
L 45.3125 54.6875 
L 54.296875 54.6875 
L 54.296875 0 
L 45.3125 0 
L 45.3125 8.40625 
Q 42.046875 3.421875 37.71875 1 
Q 33.40625 -1.421875 27.6875 -1.421875 
Q 18.265625 -1.421875 13.375 4.4375 
Q 8.5 10.296875 8.5 21.578125 
z
M 31.109375 56 
z
" id="DejaVuSans-75"/>
      <path d="M 18.3125 70.21875 
L 18.3125 54.6875 
L 36.8125 54.6875 
L 36.8125 47.703125 
L 18.3125 47.703125 
L 18.3125 18.015625 
Q 18.3125 11.328125 20.140625 9.421875 
Q 21.96875 7.515625 27.59375 7.515625 
L 36.8125 7.515625 
L 36.8125 0 
L 27.59375 0 
Q 17.1875 0 13.234375 3.875 
Q 9.28125 7.765625 9.28125 18.015625 
L 9.28125 47.703125 
L 2.6875 47.703125 
L 2.6875 54.6875 
L 9.28125 54.6875 
L 9.28125 70.21875 
z
" id="DejaVuSans-74"/>
      <path d="M 30.609375 48.390625 
Q 23.390625 48.390625 19.1875 42.75 
Q 14.984375 37.109375 14.984375 27.296875 
Q 14.984375 17.484375 19.15625 11.84375 
Q 23.34375 6.203125 30.609375 6.203125 
Q 37.796875 6.203125 41.984375 11.859375 
Q 46.1875 17.53125 46.1875 27.296875 
Q 46.1875 37.015625 41.984375 42.703125 
Q 37.796875 48.390625 30.609375 48.390625 
z
M 30.609375 56 
Q 42.328125 56 49.015625 48.375 
Q 55.71875 40.765625 55.71875 27.296875 
Q 55.71875 13.875 49.015625 6.21875 
Q 42.328125 -1.421875 30.609375 -1.421875 
Q 18.84375 -1.421875 12.171875 6.21875 
Q 5.515625 13.875 5.515625 27.296875 
Q 5.515625 40.765625 12.171875 48.375 
Q 18.84375 56 30.609375 56 
z
" id="DejaVuSans-6f"/>
      <path d="M 48.78125 52.59375 
L 48.78125 44.1875 
Q 44.96875 46.296875 41.140625 47.34375 
Q 37.3125 48.390625 33.40625 48.390625 
Q 24.65625 48.390625 19.8125 42.84375 
Q 14.984375 37.3125 14.984375 27.296875 
Q 14.984375 17.28125 19.8125 11.734375 
Q 24.65625 6.203125 33.40625 6.203125 
Q 37.3125 6.203125 41.140625 7.25 
Q 44.96875 8.296875 48.78125 10.40625 
L 48.78125 2.09375 
Q 45.015625 0.34375 40.984375 -0.53125 
Q 36.96875 -1.421875 32.421875 -1.421875 
Q 20.0625 -1.421875 12.78125 6.34375 
Q 5.515625 14.109375 5.515625 27.296875 
Q 5.515625 40.671875 12.859375 48.328125 
Q 20.21875 56 33.015625 56 
Q 37.15625 56 41.109375 55.140625 
Q 45.0625 54.296875 48.78125 52.59375 
z
" id="DejaVuSans-63"/>
      <path d="M 41.109375 46.296875 
Q 39.59375 47.171875 37.8125 47.578125 
Q 36.03125 48 33.890625 48 
Q 26.265625 48 22.1875 43.046875 
Q 18.109375 38.09375 18.109375 28.8125 
L 18.109375 0 
L 9.078125 0 
L 9.078125 54.6875 
L 18.109375 54.6875 
L 18.109375 46.1875 
Q 20.953125 51.171875 25.484375 53.578125 
Q 30.03125 56 36.53125 56 
Q 37.453125 56 38.578125 55.875 
Q 39.703125 55.765625 41.0625 55.515625 
z
" id="DejaVuSans-72"/>
      <path d="M 56.203125 29.59375 
L 56.203125 25.203125 
L 14.890625 25.203125 
Q 15.484375 15.921875 20.484375 11.0625 
Q 25.484375 6.203125 34.421875 6.203125 
Q 39.59375 6.203125 44.453125 7.46875 
Q 49.3125 8.734375 54.109375 11.28125 
L 54.109375 2.78125 
Q 49.265625 0.734375 44.1875 -0.34375 
Q 39.109375 -1.421875 33.890625 -1.421875 
Q 20.796875 -1.421875 13.15625 6.1875 
Q 5.515625 13.8125 5.515625 26.8125 
Q 5.515625 40.234375 12.765625 48.109375 
Q 20.015625 56 32.328125 56 
Q 43.359375 56 49.78125 48.890625 
Q 56.203125 41.796875 56.203125 29.59375 
z
M 47.21875 32.234375 
Q 47.125 39.59375 43.09375 43.984375 
Q 39.0625 48.390625 32.421875 48.390625 
Q 24.90625 48.390625 20.390625 44.140625 
Q 15.875 39.890625 15.1875 32.171875 
z
" id="DejaVuSans-65"/>
      <path d="M 9.421875 75.984375 
L 18.40625 75.984375 
L 18.40625 0 
L 9.421875 0 
z
" id="DejaVuSans-6c"/>
      <path d="M 9.421875 54.6875 
L 18.40625 54.6875 
L 18.40625 0 
L 9.421875 0 
z
M 9.421875 75.984375 
L 18.40625 75.984375 
L 18.40625 64.59375 
L 9.421875 64.59375 
z
" id="DejaVuSans-69"/>
      <path d="M 54.890625 33.015625 
L 54.890625 0 
L 45.90625 0 
L 45.90625 32.71875 
Q 45.90625 40.484375 42.875 44.328125 
Q 39.84375 48.1875 33.796875 48.1875 
Q 26.515625 48.1875 22.3125 43.546875 
Q 18.109375 38.921875 18.109375 30.90625 
L 18.109375 0 
L 9.078125 0 
L 9.078125 54.6875 
L 18.109375 54.6875 
L 18.109375 46.1875 
Q 21.34375 51.125 25.703125 53.5625 
Q 30.078125 56 35.796875 56 
Q 45.21875 56 50.046875 50.171875 
Q 54.890625 44.34375 54.890625 33.015625 
z
" id="DejaVuSans-6e"/>
     </defs>
     <g transform="translate(13.875 213.160812)rotate(-90)scale(0.1 -0.1)">
      <use xlink:href="#DejaVuSans-41"/>
      <use x="68.408203" xlink:href="#DejaVuSans-75"/>
      <use x="131.787109" xlink:href="#DejaVuSans-74"/>
      <use x="170.996094" xlink:href="#DejaVuSans-6f"/>
      <use x="232.177734" xlink:href="#DejaVuSans-63"/>
      <use x="287.158203" xlink:href="#DejaVuSans-6f"/>
      <use x="348.339844" xlink:href="#DejaVuSans-72"/>
      <use x="389.4375" xlink:href="#DejaVuSans-72"/>
      <use x="430.519531" xlink:href="#DejaVuSans-65"/>
      <use x="492.042969" xlink:href="#DejaVuSans-6c"/>
      <use x="519.826172" xlink:href="#DejaVuSans-61"/>
      <use x="581.105469" xlink:href="#DejaVuSans-74"/>
      <use x="620.314453" xlink:href="#DejaVuSans-69"/>
      <use x="648.097656" xlink:href="#DejaVuSans-6f"/>
      <use x="709.279297" xlink:href="#DejaVuSans-6e"/>
     </g>
    </g>
   </g>
   <g id="line2d_37">
    <path clip-path="url(#p9620495c73)" d="M 57.6 172.814352 
L 414.72 172.814352 
" style="fill:none;stroke:#808080;stroke-dasharray:5.55,2.4;stroke-dashoffset:0;stroke-width:1.5;"/>
   </g>
   <g id="line2d_38">
    <path clip-path="url(#p9620495c73)" d="M 57.6 173.224075 
L 414.72 173.224075 
" style="fill:none;stroke:#808080;stroke-linecap:square;stroke-width:1.5;"/>
   </g>
   <g id="line2d_39">
    <path clip-path="url(#p9620495c73)" d="M 57.6 174.528 
L 414.72 174.528 
" style="fill:none;stroke:#000000;stroke-linecap:square;stroke-width:1.5;"/>
   </g>
   <g id="line2d_40">
    <path clip-path="url(#p9620495c73)" d="M 57.6 175.831925 
L 414.72 175.831925 
" style="fill:none;stroke:#808080;stroke-linecap:square;stroke-width:1.5;"/>
   </g>
   <g id="line2d_41">
    <path clip-path="url(#p9620495c73)" d="M 57.6 176.241648 
L 414.72 176.241648 
" style="fill:none;stroke:#808080;stroke-dasharray:5.55,2.4;stroke-dashoffset:0;stroke-width:1.5;"/>
   </g>
   <g id="line2d_42">
    <path clip-path="url(#p9620495c73)" d="M 57.6 63.856751 
L 57.680354 197.645595 
L 57.75178 188.415817 
L 57.787493 189.509656 
L 57.805349 188.713971 
L 57.90356 168.678183 
L 58.037483 169.240367 
L 58.091052 181.043135 
L 58.15355 172.106305 
L 58.171406 171.456825 
L 58.224976 174.329562 
L 58.25176 175.119473 
L 58.332114 174.406104 
L 58.394612 174.91849 
L 58.448181 174.587278 
L 58.501751 174.338849 
L 58.564248 174.518608 
L 58.716028 174.568228 
L 58.823167 174.503327 
L 60.903443 174.590626 
L 60.939155 174.588283 
L 60.974868 174.524772 
L 61.010581 174.49173 
L 61.064151 174.56884 
L 61.099863 174.574139 
L 61.144505 174.505866 
L 61.287356 174.523316 
L 61.662342 174.519766 
L 65.572903 174.427341 
L 65.608616 174.3494 
L 65.653257 174.53799 
L 65.715755 174.913214 
L 65.760396 174.544495 
L 65.787181 174.337826 
L 65.831822 174.805941 
L 65.858606 175.107759 
L 65.894319 173.969484 
L 65.93896 171.850906 
L 65.974673 174.470123 
L 66.019314 180.514897 
L 66.063956 171.532061 
L 66.072884 168.357469 
L 66.117525 179.252861 
L 66.171094 172.822641 
L 66.206807 169.770809 
L 66.251448 177.16622 
L 66.421085 194.619293 
L 66.430013 194.565273 
L 66.465726 171.603518 
L 66.519295 51.568702 
L 66.563936 168.751869 
L 66.608577 201.357402 
L 66.680003 189.260166 
L 66.706788 189.429986 
L 66.724644 188.84265 
L 66.831783 166.455387 
L 66.974634 173.419627 
L 67.010347 180.812272 
L 67.072845 172.475069 
L 67.099629 171.235933 
L 67.153199 174.521496 
L 67.179983 175.214217 
L 67.251409 174.208931 
L 67.331763 174.963737 
L 67.394261 174.479269 
L 67.429974 174.337175 
L 67.5014 174.505734 
L 67.671036 174.577235 
L 67.679964 174.566735 
L 67.831744 174.537088 
L 68.296011 174.528701 
L 69.349542 174.530765 
L 70.760201 174.519866 
L 74.277921 174.552041 
L 74.38506 174.496483 
L 74.518983 174.385667 
L 74.536839 174.360558 
L 74.572552 174.472186 
L 74.643978 174.891248 
L 74.688619 174.538265 
L 74.715404 174.335857 
L 74.760045 174.765596 
L 74.78683 175.054514 
L 74.822543 174.023215 
L 74.867184 172.093943 
L 74.902897 174.553952 
L 74.947538 180.089162 
L 74.992179 171.579859 
L 75.001107 168.618933 
L 75.045748 178.950148 
L 75.099317 172.781926 
L 75.13503 170.17429 
L 75.170743 175.202157 
L 75.349308 192.359231 
L 75.367164 190.424496 
L 75.411805 137.953771 
L 75.447518 59.930429 
L 75.501088 186.901943 
L 75.527872 201.705876 
L 75.608226 188.342745 
L 75.670724 183.728216 
L 75.751078 166.04772 
L 75.813575 174.894966 
L 75.93857 180.338815 
L 75.893929 170.618372 
L 75.947499 180.332756 
L 76.027853 171.469749 
L 76.126063 174.773737 
L 76.170704 174.157431 
L 76.224274 174.917195 
L 76.251058 175.099575 
L 76.304628 174.585236 
L 76.358197 174.262718 
L 76.420695 174.49413 
L 76.581403 174.591995 
L 76.876034 174.529919 
L 78.259908 174.529401 
L 80.840165 174.526849 
L 80.893734 174.565025 
L 80.947304 174.495927 
L 80.983017 174.504057 
L 81.018729 174.565615 
L 81.054442 174.583396 
L 81.11694 174.512888 
L 81.51871 174.530961 
L 83.072221 174.531273 
L 83.482919 174.399074 
L 83.500776 174.477043 
L 83.572201 174.863969 
L 83.616842 174.532955 
L 83.652555 174.340846 
L 83.688268 174.733475 
L 83.715053 175.005407 
L 83.750766 174.068644 
L 83.795407 172.307591 
L 83.83112 174.605009 
L 83.875761 179.657698 
L 83.911474 174.340497 
L 83.92933 168.896539 
L 83.973971 178.698938 
L 84.027541 172.636145 
L 84.054325 170.340412 
L 84.098966 175.402393 
L 84.268603 189.705565 
L 84.277531 190.261025 
L 84.295387 188.17174 
L 84.348957 119.535912 
L 84.375741 68.566663 
L 84.420383 178.331752 
L 84.456095 201.91739 
L 84.536449 187.162182 
L 84.607875 178.971833 
L 84.679301 165.938206 
L 84.73287 174.102318 
L 84.822153 170.470295 
L 84.875722 180.572049 
L 84.956076 171.317698 
L 85.054286 174.823819 
L 85.098927 174.215359 
L 85.152497 174.943063 
L 85.179281 175.089253 
L 85.223923 174.654329 
L 85.277492 174.246319 
L 85.339989 174.476128 
L 85.491769 174.594443 
L 85.563195 174.511337 
L 85.616764 174.481614 
L 85.670334 174.535675 
L 85.857826 174.528358 
L 89.161269 174.519859 
L 92.357573 174.459929 
L 92.393286 174.394077 
L 92.437927 174.536622 
L 92.500425 174.834371 
L 92.545066 174.530476 
L 92.580779 174.349353 
L 92.616491 174.703624 
L 92.643276 174.954956 
L 92.678989 174.111042 
L 92.72363 172.516484 
L 92.759343 174.644639 
L 92.803984 179.229046 
L 92.839697 174.21867 
L 92.857553 169.1777 
L 92.902195 178.47835 
L 92.955764 172.458418 
L 92.982549 170.488661 
L 93.02719 175.626763 
L 93.098615 186.428966 
L 93.178969 186.039796 
L 93.205754 188.186547 
L 93.232539 182.382197 
L 93.303965 76.745556 
L 93.339677 166.891142 
L 93.384319 201.358687 
L 93.455744 186.809511 
L 93.598596 165.907043 
L 93.670022 176.715649 
L 93.696806 179.657289 
L 93.741448 172.16135 
L 93.750376 170.291547 
L 93.803945 180.865064 
L 93.812873 180.089178 
L 93.884299 171.11239 
L 93.955725 175.212038 
L 93.964653 175.240846 
L 93.973581 175.122013 
L 94.027151 174.165447 
L 94.08072 174.951868 
L 94.107505 175.120932 
L 94.152146 174.640655 
L 94.205715 174.22516 
L 94.268213 174.490675 
L 94.419992 174.595426 
L 94.491418 174.508611 
L 94.544988 174.48172 
L 94.598557 174.536153 
L 94.78605 174.528971 
L 98.634114 174.506984 
L 98.857319 174.54279 
L 98.910889 174.571175 
L 98.973386 174.521841 
L 101.285796 174.467788 
L 101.330437 174.413608 
L 101.36615 174.539174 
L 101.428648 174.802766 
L 101.473289 174.527406 
L 101.509002 174.36351 
L 101.544715 174.683825 
L 101.571499 174.910936 
L 101.607212 174.145142 
L 101.651853 172.701842 
L 101.687566 174.680405 
L 101.732207 178.837749 
L 101.76792 174.112303 
L 101.785777 169.439438 
L 101.830418 178.252676 
L 101.883987 172.332969 
L 101.910772 170.692591 
L 101.955413 175.913161 
L 102.01791 185.579576 
L 102.098264 183.897347 
L 102.133977 186.348106 
L 102.160762 180.675133 
L 102.232188 84.689453 
L 102.267901 171.207301 
L 102.303614 200.602168 
L 102.383968 185.742239 
L 102.517891 166.0512 
L 102.580389 174.339252 
L 102.62503 179.654881 
L 102.669671 171.83539 
L 102.678599 170.144794 
L 102.72324 181.101826 
L 102.732168 181.133531 
L 102.812522 170.893863 
L 102.910733 175.007685 
L 102.955374 174.089665 
L 103.017871 175.088746 
L 103.035728 175.171882 
L 103.071441 174.778828 
L 103.12501 174.203105 
L 103.196436 174.505752 
L 103.348216 174.601359 
L 103.42857 174.49147 
L 103.482139 174.490371 
L 103.52678 174.535142 
L 103.723201 174.529192 
L 107.803399 174.566223 
L 107.946251 174.528038 
L 108.589083 174.528733 
L 110.303302 174.590896 
L 110.347943 174.773012 
L 110.401512 174.522301 
L 110.437225 174.381416 
L 110.472938 174.672617 
L 110.499722 174.872136 
L 110.535435 174.172861 
L 110.580077 172.871809 
L 110.615789 174.717305 
L 110.660431 178.475581 
L 110.696143 174.012223 
L 110.714 169.683656 
L 110.758641 178.033293 
L 110.81221 172.249096 
L 110.838995 170.965346 
L 110.874708 174.51095 
L 110.946134 184.85167 
L 111.026488 182.80028 
L 111.062201 184.636199 
L 111.080057 182.434831 
L 111.133626 128.09595 
L 111.160411 92.226321 
L 111.205052 187.205997 
L 111.231837 199.603435 
L 111.312191 184.613616 
L 111.446114 166.339399 
L 111.499683 173.692726 
L 111.553253 179.482139 
L 111.597894 171.504192 
L 111.606822 170.017405 
L 111.642535 180.260116 
L 111.660392 181.355776 
L 111.696104 175.472869 
L 111.740746 170.71458 
L 111.803243 175.175607 
L 111.8211 175.487126 
L 111.874669 174.129411 
L 111.883597 174.066287 
L 111.91931 174.565322 
L 111.963951 175.182435 
L 112.01752 174.504954 
L 112.062162 174.192668 
L 112.124659 174.502728 
L 112.276439 174.598376 
L 112.356793 174.491755 
L 112.410362 174.48684 
L 112.455003 174.53503 
L 112.633568 174.529397 
L 114.722772 174.504197 
L 114.919193 174.545226 
L 116.115575 174.521314 
L 119.124386 174.511735 
L 119.186884 174.440017 
L 119.222597 174.545385 
L 119.276166 174.74561 
L 119.329735 174.516984 
L 119.35652 174.394294 
L 119.401161 174.665111 
L 119.427946 174.840041 
L 119.463659 174.199167 
L 119.5083 173.02747 
L 119.544013 174.755156 
L 119.588654 178.141764 
L 119.624367 173.910407 
L 119.642223 169.90227 
L 119.686864 177.816492 
L 119.740434 172.263074 
L 119.75829 171.272345 
L 119.802931 174.902432 
L 119.874357 184.081643 
L 119.945783 181.360165 
L 119.990424 183.106408 
L 120.00828 180.982585 
L 120.06185 131.198059 
L 120.088634 99.528675 
L 120.133275 188.83023 
L 120.16006 198.290547 
L 120.231486 184.68649 
L 120.365409 166.665873 
L 120.418978 173.126127 
L 120.472548 179.260704 
L 120.517189 173.298699 
L 120.535045 169.986356 
L 120.588615 181.46618 
L 120.668969 170.636687 
L 120.767179 175.139081 
L 120.81182 174.085589 
L 120.874318 175.069013 
L 120.892174 175.168563 
L 120.936815 174.633613 
L 120.981457 174.193574 
L 121.052882 174.50301 
L 121.204662 174.60078 
L 122.16891 174.52875 
L 128.061538 174.499081 
L 128.115107 174.453493 
L 128.15082 174.549477 
L 128.204389 174.716889 
L 128.24903 174.56204 
L 128.284743 174.410535 
L 128.329384 174.666646 
L 128.356169 174.812045 
L 128.382954 174.453387 
L 128.436523 173.173762 
L 128.472236 174.808247 
L 128.516877 177.826706 
L 128.55259 173.791343 
L 128.570446 170.097083 
L 128.615087 177.625155 
L 128.668657 172.310691 
L 128.686513 171.51963 
L 128.731154 175.266006 
L 128.80258 183.352971 
L 128.865078 180.356488 
L 128.874006 180.350754 
L 128.918647 181.731954 
L 128.936503 179.744338 
L 128.990073 134.352201 
L 129.016857 106.52112 
L 129.05257 180.475389 
L 129.079355 197.091371 
L 129.159709 183.508385 
L 129.284704 167.130511 
L 129.338273 172.683067 
L 129.400771 178.958672 
L 129.445412 172.888686 
L 129.463269 170.037596 
L 129.50791 181.478369 
L 129.516838 181.521834 
L 129.597192 170.614976 
L 129.695402 175.142414 
L 129.740044 174.133987 
L 129.802541 175.060009 
L 129.820398 175.135143 
L 129.85611 174.74107 
L 129.90968 174.204761 
L 129.981106 174.501818 
L 130.132885 174.601542 
L 130.141814 174.596709 
L 130.338234 174.544312 
L 131.150703 174.530398 
L 136.016584 174.529276 
L 137.096899 174.622457 
L 137.132612 174.687932 
L 137.177253 174.537435 
L 137.212966 174.426222 
L 137.257607 174.685425 
L 137.284392 174.795799 
L 137.311177 174.432779 
L 137.364746 173.300163 
L 137.400459 174.87926 
L 137.4451 177.541534 
L 137.480813 173.668151 
L 137.498669 170.266943 
L 137.543311 177.436118 
L 137.59688 172.421072 
L 137.614736 171.779916 
L 137.650449 174.282291 
L 137.730803 182.609422 
L 137.793301 179.445986 
L 137.802229 179.325648 
L 137.829014 180.051426 
L 137.84687 180.503146 
L 137.864727 178.787261 
L 137.918296 137.506097 
L 137.945081 113.126024 
L 137.980794 182.62938 
L 138.007578 195.947507 
L 138.087932 182.33019 
L 138.203999 167.659727 
L 138.257568 172.426395 
L 138.320066 178.54337 
L 138.364707 174.301497 
L 138.391492 169.973275 
L 138.436133 181.573559 
L 138.445061 181.600154 
L 138.525415 170.593277 
L 138.623626 175.168937 
L 138.668267 174.21597 
L 138.730764 175.017991 
L 138.748621 175.069184 
L 138.784334 174.696923 
L 138.837903 174.237188 
L 138.909329 174.487598 
L 139.061109 174.598642 
L 139.087893 174.559453 
L 139.168247 174.478725 
L 139.221817 174.529194 
L 139.418237 174.528209 
L 140.918179 174.54851 
L 141.480657 174.534979 
L 141.650293 174.530123 
L 141.837786 174.519597 
L 142.060992 174.522218 
L 146.025123 174.623636 
L 146.051907 174.66972 
L 146.096548 174.551729 
L 146.132261 174.430756 
L 146.176902 174.639027 
L 146.203687 174.800427 
L 146.2394 174.414115 
L 146.284041 173.396904 
L 146.328682 174.959639 
L 146.373323 177.279335 
L 146.409036 173.530743 
L 146.426893 170.411468 
L 146.471534 177.294993 
L 146.525103 172.544383 
L 146.54296 172.061918 
L 146.578672 174.614948 
L 146.650098 181.918398 
L 146.712596 178.906661 
L 146.775093 179.470868 
L 146.810806 171.972958 
L 146.873304 119.334114 
L 146.900089 172.748688 
L 146.935801 194.70413 
L 147.016155 181.116843 
L 147.123294 168.149134 
L 147.176863 172.43308 
L 147.248289 178.097277 
L 147.29293 173.725675 
L 147.319715 169.908525 
L 147.355428 180.640616 
L 147.373284 181.692505 
L 147.408997 175.564825 
L 147.453638 170.547557 
L 147.516136 175.10349 
L 147.533992 175.518616 
L 147.59649 174.302565 
L 147.614346 174.367008 
L 147.676844 174.990865 
L 147.730413 174.470285 
L 147.766126 174.277564 
L 147.837552 174.462144 
L 147.980404 174.598654 
L 148.016116 174.54353 
L 148.087542 174.480646 
L 148.141112 174.52473 
L 148.346461 174.527355 
L 149.917828 174.555512 
L 150.114249 174.513056 
L 150.346383 174.558603 
L 154.944418 174.599459 
L 154.980131 174.659032 
L 155.024772 174.527018 
L 155.060485 174.424908 
L 155.105126 174.660599 
L 155.13191 174.807221 
L 155.167623 174.408416 
L 155.212264 173.4665 
L 155.247977 174.451899 
L 155.301547 177.0394 
L 155.337259 173.410437 
L 155.355116 170.559132 
L 155.399757 177.16234 
L 155.444398 173.291369 
L 155.471183 172.340491 
L 155.506896 174.840702 
L 155.578321 181.270696 
L 155.640819 178.009438 
L 155.703317 178.666189 
L 155.747958 167.025396 
L 155.801527 125.217578 
L 155.828312 175.501582 
L 155.855096 193.88854 
L 155.93545 181.123932 
L 156.051517 168.663976 
L 156.096158 172.649431 
L 156.176512 177.477524 
L 156.212225 174.690948 
L 156.247938 169.882729 
L 156.283651 180.749502 
L 156.301508 181.784177 
L 156.33722 175.59408 
L 156.381862 170.498078 
L 156.444359 175.081676 
L 156.462216 175.535742 
L 156.533641 174.3707 
L 156.596139 174.92074 
L 156.658636 174.469271 
L 156.694349 174.312507 
L 156.765775 174.445791 
L 156.899698 174.608893 
L 156.953268 174.513079 
L 157.006837 174.477408 
L 157.069335 174.529936 
L 157.319325 174.523783 
L 158.935333 174.565691 
L 159.346032 174.523438 
L 159.50674 174.532015 
L 159.75673 174.526564 
L 160.167428 174.522808 
L 163.863713 174.57365 
L 163.908354 174.645722 
L 163.952995 174.510526 
L 163.988708 174.426402 
L 164.024421 174.600274 
L 164.060134 174.801927 
L 164.095846 174.407975 
L 164.140488 173.546137 
L 164.1762 174.520128 
L 164.220842 176.823366 
L 164.265483 173.335607 
L 164.283339 170.750134 
L 164.32798 177.016321 
L 164.372621 173.368194 
L 164.390478 172.594911 
L 164.435119 175.018536 
L 164.506545 180.610051 
L 164.560114 177.708512 
L 164.63154 178.106761 
L 164.685109 161.630001 
L 164.72975 130.750996 
L 164.756535 177.908666 
L 164.78332 193.013708 
L 164.863674 179.911853 
L 164.970812 169.172334 
L 165.015453 173.027863 
L 165.095807 176.860303 
L 165.13152 175.288887 
L 165.176161 169.781627 
L 165.202946 178.781975 
L 165.229731 181.863372 
L 165.2833 172.314352 
L 165.310085 170.45748 
L 165.363654 174.478712 
L 165.390439 175.556689 
L 165.461865 174.455677 
L 165.470793 174.46917 
L 165.524362 174.81834 
L 165.577931 174.540511 
L 165.631501 174.364456 
L 165.702927 174.427744 
L 165.818993 174.623636 
L 165.890419 174.48204 
L 165.98863 174.531581 
L 166.247548 174.523543 
L 170.283105 174.544764 
L 170.434885 174.529772 
L 171.247353 174.529125 
L 172.890146 174.459948 
L 172.908003 174.420589 
L 172.952644 174.609273 
L 172.988357 174.798688 
L 173.02407 174.411522 
L 173.068711 173.62152 
L 173.104424 174.580295 
L 173.149065 176.628259 
L 173.184778 174.465783 
L 173.211562 170.9785 
L 173.256203 176.869299 
L 173.300845 173.423176 
L 173.318701 172.8026 
L 173.363342 175.19277 
L 173.434768 179.88925 
L 173.488337 176.849465 
L 173.568691 177.798431 
L 173.613332 162.765945 
L 173.657973 135.888271 
L 173.684758 180.096404 
L 173.711543 192.141612 
L 173.791897 178.674572 
L 173.881179 169.706453 
L 173.934748 173.52836 
L 173.988318 176.230734 
L 174.050815 175.523742 
L 174.104385 169.702849 
L 174.122241 176.031252 
L 174.157954 181.945044 
L 174.211523 172.338005 
L 174.238308 170.406004 
L 174.300806 175.016719 
L 174.318662 175.59351 
L 174.399016 174.518422 
L 174.461514 174.717079 
L 174.506155 174.527366 
L 174.622222 174.39882 
L 174.640078 174.413959 
L 174.738288 174.643007 
L 174.800786 174.496902 
L 174.845427 174.463918 
L 174.898996 174.52681 
L 175.077561 174.530458 
L 181.148753 174.531088 
L 181.818369 174.444431 
L 181.836226 174.411907 
L 181.871939 174.55021 
L 181.91658 174.800728 
L 181.952293 174.413276 
L 181.996934 173.682506 
L 182.032647 174.616688 
L 182.077288 176.462402 
L 182.113001 174.370613 
L 182.139785 171.215272 
L 182.184427 176.652096 
L 182.229068 173.474787 
L 182.246924 173.031655 
L 182.282637 174.62355 
L 182.354063 179.150849 
L 182.407632 176.722319 
L 182.496914 177.653795 
L 182.541556 163.805916 
L 182.586197 140.488649 
L 182.612981 182.027583 
L 182.630838 191.724148 
L 182.711192 178.393728 
L 182.800474 170.227247 
L 182.854043 174.078305 
L 182.889756 176.200333 
L 182.97011 175.498524 
L 183.032608 169.494638 
L 183.050464 175.928164 
L 183.086177 182.030149 
L 183.139746 172.417014 
L 183.166531 170.344231 
L 183.229029 174.997917 
L 183.255813 175.699876 
L 183.327239 174.542598 
L 183.389737 174.60218 
L 183.461163 174.494563 
L 183.550445 174.370417 
L 183.595086 174.482153 
L 183.657583 174.660117 
L 183.711153 174.526354 
L 183.755794 174.452504 
L 183.818291 174.526464 
L 183.978999 174.528191 
L 184.818252 174.529109 
L 187.9967 174.539469 
L 188.639532 174.529774 
L 190.487674 174.540203 
L 190.701952 174.602795 
L 190.719808 174.542402 
L 190.764449 174.406798 
L 190.80909 174.622099 
L 190.844803 174.801173 
L 190.880516 174.416977 
L 190.925157 173.73273 
L 190.96087 174.640864 
L 191.005511 176.324515 
L 191.041224 174.302029 
L 191.068009 171.419017 
L 191.11265 176.432651 
L 191.157291 173.558138 
L 191.175147 173.290042 
L 191.21086 174.849291 
L 191.282286 178.410602 
L 191.335855 176.069463 
L 191.371568 174.829051 
L 191.416209 177.442494 
L 191.425138 177.549087 
L 191.434066 176.985399 
L 191.496563 148.740793 
L 191.51442 144.551342 
L 191.532276 173.318899 
L 191.559061 191.745517 
L 191.639415 176.843809 
L 191.710841 170.792139 
L 191.76441 173.738298 
L 191.809051 176.356983 
L 191.889405 175.219702 
L 191.898333 175.209325 
L 191.942975 170.60702 
L 191.960831 169.299171 
L 191.978687 175.857466 
L 192.0144 182.142411 
L 192.06797 172.463883 
L 192.094754 170.260364 
L 192.157252 175.01967 
L 192.184037 175.83792 
L 192.255462 174.5344 
L 192.282247 174.430249 
L 192.362601 174.566297 
L 192.425099 174.461794 
L 192.478668 174.346609 
L 192.523309 174.494223 
L 192.576878 174.673469 
L 192.639376 174.509572 
L 192.684017 174.449056 
L 192.746515 174.533504 
L 192.916151 174.528689 
L 195.03214 174.529482 
L 195.157135 174.562922 
L 195.326771 174.506123 
L 195.58569 174.521942 
L 198.032023 174.528776 
L 199.665888 174.474627 
L 199.692672 174.42194 
L 199.728385 174.5542 
L 199.773026 174.773102 
L 199.808739 174.414644 
L 199.85338 173.815797 
L 199.889093 174.671614 
L 199.933734 176.169422 
L 199.969447 174.216312 
L 199.996232 171.590556 
L 200.040873 176.311737 
L 200.085514 173.657726 
L 200.094442 173.481613 
L 200.130155 174.476466 
L 200.201581 177.737285 
L 200.25515 176.022595 
L 200.290863 174.594843 
L 200.335504 176.872467 
L 200.353361 177.448656 
L 200.371217 175.447698 
L 200.433715 148.190118 
L 200.4605 175.872854 
L 200.487284 191.724627 
L 200.567638 175.202632 
L 200.621208 171.107615 
L 200.683705 174.332062 
L 200.728346 176.492399 
L 200.790844 174.389278 
L 200.826557 174.991629 
L 200.844413 174.002201 
L 200.889054 168.952186 
L 200.915839 178.694089 
L 200.942624 182.314239 
L 200.996193 172.555053 
L 201.022978 170.147419 
L 201.085475 175.074247 
L 201.11226 176.025991 
L 201.183686 174.464042 
L 201.21047 174.284795 
L 201.281896 174.599417 
L 201.299752 174.626979 
L 201.344394 174.505269 
L 201.397963 174.330686 
L 201.451532 174.513814 
L 201.505102 174.673973 
L 201.558671 174.526839 
L 201.603312 174.447287 
L 201.66581 174.526645 
L 201.808661 174.52106 
L 202.540776 174.528702 
L 208.665537 174.613069 
L 208.70125 174.733631 
L 208.736962 174.410537 
L 208.781604 173.917425 
L 208.817316 174.713307 
L 208.861958 175.971943 
L 208.89767 174.112608 
L 208.924455 171.770905 
L 208.960168 176.309428 
L 209.004809 174.064139 
L 209.022666 173.606373 
L 209.076235 175.480182 
L 209.129804 177.158049 
L 209.183374 175.501124 
L 209.219086 174.48266 
L 209.263728 176.872771 
L 209.272656 177.279058 
L 209.29944 175.200378 
L 209.361938 151.303413 
L 209.388723 178.248576 
L 209.415507 191.444887 
L 209.486933 174.510647 
L 209.540503 171.07521 
L 209.594072 174.357845 
L 209.638713 176.705696 
L 209.701211 174.068971 
L 209.75478 174.806925 
L 209.790493 171.308989 
L 209.817277 168.655865 
L 209.844062 178.707081 
L 209.870847 182.526153 
L 209.924416 172.607891 
L 209.951201 170.021982 
L 210.013698 175.164258 
L 210.040483 176.218848 
L 210.111909 174.368633 
L 210.138693 174.144791 
L 210.201191 174.595457 
L 210.227976 174.679263 
L 210.281545 174.458091 
L 210.326186 174.325965 
L 210.379755 174.530807 
L 210.424397 174.670721 
L 210.486894 174.519462 
L 210.531535 174.447468 
L 210.594033 174.528418 
L 210.727956 174.516895 
L 211.817199 174.528411 
L 217.59376 174.606259 
L 217.620545 174.696782 
L 217.656257 174.509859 
L 217.700899 174.018694 
L 217.74554 174.756123 
L 217.790181 175.764056 
L 217.825894 174.018731 
L 217.852678 171.997529 
L 217.888391 176.310983 
L 217.933032 174.054748 
L 217.950889 173.692357 
L 217.99553 174.966053 
L 218.058027 176.656966 
L 218.102669 175.482645 
L 218.138381 174.454208 
L 218.183023 176.306956 
L 218.200879 177.131006 
L 218.227664 174.907833 
L 218.290161 154.276798 
L 218.316946 180.12727 
L 218.334802 191.377237 
L 218.415156 173.353314 
L 218.459797 170.897768 
L 218.504439 174.276132 
L 218.558008 176.976488 
L 218.611577 174.164172 
L 218.745501 168.300331 
L 218.683003 174.755099 
L 218.754429 171.862169 
L 218.79907 182.771866 
L 218.861568 171.247966 
L 218.879424 169.889139 
L 218.932993 174.416215 
L 218.968706 176.429688 
L 219.040132 174.234392 
L 219.066917 173.990961 
L 219.120486 174.557333 
L 219.156199 174.733676 
L 219.209768 174.448634 
L 219.245481 174.32569 
L 219.29905 174.502079 
L 219.35262 174.662032 
L 219.406189 174.541937 
L 219.459758 174.447862 
L 219.522256 174.530323 
L 219.647251 174.512812 
L 226.343419 174.539757 
L 226.396988 174.58809 
L 226.441629 174.509947 
L 226.477342 174.465435 
L 226.521983 174.591137 
L 226.548768 174.663206 
L 226.584481 174.498699 
L 226.629122 174.107237 
L 226.664835 174.531097 
L 226.709476 175.567878 
L 226.754117 173.951515 
L 226.780902 172.26763 
L 226.816614 176.329927 
L 226.861256 173.969693 
L 226.879112 173.663456 
L 226.923753 174.841925 
L 226.986251 176.322235 
L 227.030892 175.245461 
L 227.066605 174.445726 
L 227.111246 176.29383 
L 227.129102 176.911348 
L 227.155887 174.603127 
L 227.218384 156.91115 
L 227.236241 170.666933 
L 227.263026 191.1204 
L 227.34338 172.589114 
L 227.379092 170.795999 
L 227.414805 173.454963 
L 227.468375 177.408425 
L 227.521944 174.464627 
L 227.602298 174.858498 
L 227.673724 168.031083 
L 227.727293 183.03963 
L 227.789791 171.247783 
L 227.807647 169.780544 
L 227.861217 174.454913 
L 227.896929 176.602422 
L 227.968355 174.127574 
L 227.99514 173.847294 
L 228.048709 174.561234 
L 228.084422 174.793626 
L 228.137991 174.454963 
L 228.173704 174.313858 
L 228.227274 174.51204 
L 228.280843 174.663783 
L 228.334412 174.530227 
L 228.387982 174.446757 
L 228.441551 174.522355 
L 228.504049 174.555394 
L 228.566546 174.512814 
L 229.04867 174.529488 
L 235.191288 174.512903 
L 235.298426 174.575639 
L 235.351996 174.540483 
L 235.369852 174.505075 
L 235.405565 174.474234 
L 235.441278 174.558389 
L 235.476991 174.644506 
L 235.512704 174.487299 
L 235.557345 174.158989 
L 235.593058 174.556366 
L 235.637699 175.429734 
L 235.673412 174.48441 
L 235.709125 172.530796 
L 235.744838 176.298022 
L 235.798407 173.56113 
L 235.807335 173.546473 
L 235.816263 173.685894 
L 235.914474 176.198606 
L 235.968043 174.776322 
L 235.994828 174.371698 
L 236.030541 175.732648 
L 236.057325 176.737611 
L 236.08411 174.445167 
L 236.146608 159.034455 
L 236.164464 172.16963 
L 236.191249 190.346026 
L 236.271603 172.289621 
L 236.307316 170.832113 
L 236.3341 173.086825 
L 236.38767 177.694571 
L 236.441239 174.242415 
L 236.530521 175.044727 
L 236.601947 167.76066 
L 236.655516 183.273122 
L 236.718014 171.323265 
L 236.73587 169.710506 
L 236.78944 174.438479 
L 236.825153 176.749724 
L 236.896578 174.035233 
L 236.923363 173.694449 
L 236.976932 174.555031 
L 237.012645 174.869162 
L 237.075143 174.396339 
L 237.101928 174.291002 
L 237.155497 174.51755 
L 237.200138 174.673216 
L 237.262636 174.515096 
L 237.307277 174.441864 
L 237.369774 174.53063 
L 237.432272 174.554925 
L 237.485841 174.514479 
L 237.762616 174.528909 
L 239.325055 174.533503 
L 240.360729 174.519944 
L 243.949875 174.525582 
L 244.369501 174.563969 
L 244.405214 174.618956 
L 244.440927 174.4703 
L 244.485568 174.201796 
L 244.521281 174.577352 
L 244.565922 175.339492 
L 244.601635 174.453178 
L 244.637348 172.711027 
L 244.673061 176.220458 
L 244.72663 173.496183 
L 244.744487 173.694442 
L 244.842697 176.11381 
L 244.887338 174.898024 
L 244.914123 174.284932 
L 244.958764 175.759987 
L 244.985549 176.600341 
L 245.012333 174.295585 
L 245.074831 160.683731 
L 245.092687 173.145773 
L 245.119472 189.297743 
L 245.199826 172.319121 
L 245.226611 170.96073 
L 245.262324 173.678787 
L 245.306965 177.827997 
L 245.369462 173.710667 
L 245.387319 173.199138 
L 245.440888 174.781539 
L 245.458744 175.050975 
L 245.485529 173.01005 
L 245.53017 167.553834 
L 245.556955 178.660926 
L 245.58374 183.420951 
L 245.637309 173.092412 
L 245.673022 169.675999 
L 245.726591 175.405944 
L 245.753376 176.824537 
L 245.815873 174.321544 
L 245.851586 173.59192 
L 245.914084 174.684758 
L 245.940869 174.918538 
L 246.003366 174.418999 
L 246.039079 174.281263 
L 246.092648 174.560275 
L 246.128361 174.680094 
L 246.190859 174.510263 
L 246.2355 174.434206 
L 246.297997 174.537419 
L 246.351567 174.563939 
L 246.405136 174.515353 
L 246.610485 174.523395 
L 248.155068 174.529833 
L 249.797861 174.52431 
L 253.378078 174.412392 
L 253.413791 174.25967 
L 253.449504 174.597011 
L 253.494145 175.216349 
L 253.529858 174.402625 
L 253.565571 172.895149 
L 253.601284 176.178728 
L 253.654853 173.583841 
L 253.690566 174.287424 
L 253.761992 176.015512 
L 253.815561 174.783028 
L 253.842346 174.281767 
L 253.886987 175.769201 
L 253.904844 176.385698 
L 253.940557 174.041227 
L 254.003054 162.261584 
L 254.020911 174.081378 
L 254.047695 188.242898 
L 254.128049 172.480429 
L 254.154834 171.161858 
L 254.190547 174.27965 
L 254.22626 177.86602 
L 254.288757 173.802194 
L 254.306614 173.314085 
L 254.369111 174.872724 
L 254.378039 175.001525 
L 254.404824 173.83316 
L 254.458393 167.43306 
L 254.47625 175.109199 
L 254.511963 183.489206 
L 254.57446 171.614205 
L 254.601245 169.700803 
L 254.654814 175.347891 
L 254.681599 176.838389 
L 254.744097 174.354379 
L 254.779809 173.525449 
L 254.842307 174.647273 
L 254.87802 174.956878 
L 254.931589 174.461464 
L 254.967302 174.269726 
L 255.020872 174.539353 
L 255.065513 174.687389 
L 255.119082 174.513671 
L 255.163723 174.424477 
L 255.226221 174.542903 
L 255.270862 174.576583 
L 255.333359 174.510518 
L 255.502996 174.529795 
L 255.922622 174.527664 
L 261.949173 174.52709 
L 262.199163 174.521255 
L 262.261661 174.590444 
L 262.297373 174.470625 
L 262.342015 174.29776 
L 262.377727 174.60147 
L 262.422369 175.125722 
L 262.458081 174.395919 
L 262.493794 173.087905 
L 262.529507 176.010077 
L 262.583077 173.672107 
L 262.690215 175.913331 
L 262.752713 174.401593 
L 262.770569 174.275736 
L 262.797354 175.014007 
L 262.833067 176.248983 
L 262.86878 173.841221 
L 262.931277 163.777727 
L 262.949134 174.828709 
L 262.975918 187.172665 
L 263.029488 172.537066 
L 263.056272 172.616649 
L 263.083057 171.486011 
L 263.109842 173.555402 
L 263.154483 177.742826 
L 263.21698 173.575215 
L 263.225909 173.42157 
L 263.27055 174.214552 
L 263.306263 174.953966 
L 263.333047 173.73411 
L 263.386617 167.361737 
L 263.404473 174.981832 
L 263.440186 183.445673 
L 263.502684 171.790658 
L 263.529468 169.78239 
L 263.583038 175.303308 
L 263.609822 176.806531 
L 263.67232 174.378665 
L 263.708033 173.503198 
L 263.77053 174.609101 
L 263.806243 174.975463 
L 263.868741 174.412984 
L 263.895525 174.274147 
L 263.958023 174.573278 
L 263.993736 174.685206 
L 264.047305 174.52151 
L 264.091946 174.422425 
L 264.154444 174.542966 
L 264.199085 174.581442 
L 264.261583 174.508651 
L 264.395506 174.540806 
L 265.056194 174.529335 
L 269.225675 174.527982 
L 270.779185 174.526083 
L 271.20774 174.532008 
L 271.26131 174.322682 
L 271.297022 174.513424 
L 271.350592 175.062723 
L 271.386305 174.353219 
L 271.422018 173.215592 
L 271.45773 175.887612 
L 271.5113 173.751847 
L 271.618438 175.822157 
L 271.672008 174.491163 
L 271.689864 174.276453 
L 271.725577 175.132201 
L 271.76129 176.069789 
L 271.797003 173.667138 
L 271.8595 165.023164 
L 271.877357 175.462505 
L 271.895213 186.472854 
L 271.957711 172.155649 
L 271.984496 172.710309 
L 272.01128 172.037731 
L 272.038065 174.222807 
L 272.073778 177.46285 
L 272.136275 173.800741 
L 272.154132 173.501994 
L 272.207701 174.55682 
L 272.234486 174.998852 
L 272.261271 173.659024 
L 272.31484 167.420998 
L 272.332696 174.911251 
L 272.368409 183.314664 
L 272.430907 171.929941 
L 272.457691 169.902639 
L 272.511261 175.312077 
L 272.538045 176.782839 
L 272.600543 174.360695 
L 272.636256 173.493698 
L 272.698753 174.600938 
L 272.734466 174.983877 
L 272.796964 174.430166 
L 272.832677 174.278725 
L 272.886246 174.56262 
L 272.921959 174.67998 
L 272.984457 174.491613 
L 273.02017 174.425195 
L 273.082667 174.543478 
L 273.127308 174.582473 
L 273.180878 174.517691 
L 273.305873 174.542429 
L 274.546896 174.529186 
L 280.162748 174.42246 
L 280.189533 174.34196 
L 280.225246 174.524854 
L 280.278815 175.010423 
L 280.314528 174.330494 
L 280.350241 173.283417 
L 280.377025 175.867223 
L 280.385954 175.880238 
L 280.430595 173.766571 
L 280.510949 175.208888 
L 280.546662 175.660633 
L 280.591303 174.636478 
L 280.618087 174.337314 
L 280.662729 175.471502 
L 280.680585 175.851726 
L 280.716298 174.451363 
L 280.787724 166.206196 
L 280.80558 176.168761 
L 280.823437 186.017002 
L 280.877006 171.794931 
L 280.903791 172.706868 
L 280.930575 172.631436 
L 280.975216 175.869158 
L 281.002001 177.146725 
L 281.05557 174.015757 
L 281.082355 173.598444 
L 281.135924 174.716089 
L 281.153781 175.040664 
L 281.189494 173.525344 
L 281.234135 167.524115 
L 281.26092 174.886619 
L 281.296632 183.10863 
L 281.35913 172.032673 
L 281.385915 170.040282 
L 281.439484 175.355448 
L 281.466269 176.766223 
L 281.528766 174.325613 
L 281.564479 173.494185 
L 281.626977 174.599978 
L 281.66269 174.981023 
L 281.725187 174.444564 
L 281.7609 174.288665 
L 281.814469 174.554058 
L 281.850182 174.670576 
L 281.91268 174.496262 
L 281.948393 174.431051 
L 282.01089 174.542565 
L 282.055531 174.581513 
L 282.118029 174.508864 
L 282.243024 174.544082 
L 284.144736 174.558264 
L 284.537577 174.547384 
L 284.62686 174.484762 
L 284.680429 174.537246 
L 284.867922 174.529417 
L 285.448256 174.525493 
L 289.090971 174.434559 
L 289.117756 174.356798 
L 289.153469 174.528737 
L 289.19811 174.972701 
L 289.242751 174.320759 
L 289.278464 173.36545 
L 289.305249 175.820152 
L 289.314177 175.80876 
L 289.358818 173.800476 
L 289.439172 175.203891 
L 289.465957 175.514046 
L 289.510598 174.755317 
L 289.537382 174.380069 
L 289.590952 175.392677 
L 289.608808 175.669479 
L 289.644521 174.29052 
L 289.715947 167.341955 
L 289.724875 168.538701 
L 289.75166 185.364354 
L 289.840942 173.046314 
L 289.876655 173.827474 
L 289.921296 176.923646 
L 289.983794 173.878435 
L 290.00165 173.721171 
L 290.046291 174.411618 
L 290.082004 175.082515 
L 290.108789 174.226448 
L 290.162358 167.691591 
L 290.189143 174.857655 
L 290.224856 182.830976 
L 290.287353 172.175868 
L 290.314138 170.210139 
L 290.367707 175.339025 
L 290.394492 176.721601 
L 290.456989 174.323595 
L 290.492702 173.500042 
L 290.5552 174.583117 
L 290.590913 174.98069 
L 290.65341 174.467049 
L 290.689123 174.293895 
L 290.742693 174.537889 
L 290.787334 174.662516 
L 290.840903 174.505106 
L 290.885544 174.437331 
L 290.939113 174.539101 
L 290.983755 174.581355 
L 291.046252 174.509972 
L 291.171247 174.545251 
L 295.242517 174.532684 
L 295.599646 174.540797 
L 296.742459 174.529712 
L 298.028123 174.425209 
L 298.054907 174.386116 
L 298.081692 174.524114 
L 298.126333 174.92187 
L 298.170974 174.333036 
L 298.206687 173.4511 
L 298.233472 175.758086 
L 298.251328 175.352351 
L 298.287041 173.860079 
L 298.358467 175.019941 
L 298.39418 175.373487 
L 298.438821 174.673657 
L 298.465606 174.421942 
L 298.510247 175.102627 
L 298.537031 175.476253 
L 298.572744 174.169589 
L 298.64417 168.410261 
L 298.653098 169.569861 
L 298.679883 184.607288 
L 298.760237 172.858766 
L 298.840591 176.749622 
L 298.89416 174.126445 
L 298.912017 173.886802 
L 298.974514 174.519831 
L 299.010227 175.005399 
L 299.037012 174.079094 
L 299.090581 167.95229 
L 299.117366 174.893411 
L 299.153079 182.498751 
L 299.215576 172.286039 
L 299.242361 170.392386 
L 299.29593 175.327041 
L 299.322715 176.665121 
L 299.385213 174.322756 
L 299.420926 173.511738 
L 299.483423 174.573769 
L 299.519136 174.979572 
L 299.581634 174.482653 
L 299.617346 174.299158 
L 299.679844 174.57443 
L 299.715557 174.657759 
L 299.769126 174.511131 
L 299.813767 174.441343 
L 299.867337 174.537532 
L 299.920906 174.5756 
L 299.974475 174.510794 
L 300.09947 174.545767 
L 305.393907 174.529672 
L 306.956346 174.446409 
L 306.983131 174.419909 
L 307.009915 174.53508 
L 307.054556 174.855347 
L 307.090269 174.548426 
L 307.13491 173.581486 
L 307.152767 175.321558 
L 307.161695 175.70446 
L 307.215264 173.901503 
L 307.233121 174.123187 
L 307.313475 175.270332 
L 307.367044 174.594544 
L 307.384901 174.441124 
L 307.429542 174.893132 
L 307.465255 175.315571 
L 307.492039 174.608127 
L 307.572393 169.383587 
L 307.581322 170.472934 
L 307.608106 183.773027 
L 307.68846 173.107438 
L 307.759886 176.60848 
L 307.813455 174.004069 
L 307.822384 173.856659 
L 307.893809 174.492733 
L 307.93845 174.839345 
L 307.956307 174.432376 
L 308.018804 168.367564 
L 308.045589 175.031445 
L 308.081302 182.106282 
L 308.1438 172.343686 
L 308.170584 170.604144 
L 308.224154 175.343618 
L 308.250938 176.601295 
L 308.313436 174.305828 
L 308.349149 173.529776 
L 308.411646 174.5745 
L 308.447359 174.973876 
L 308.509857 174.492774 
L 308.54557 174.308283 
L 308.608067 174.567079 
L 308.64378 174.650339 
L 308.697349 174.514509 
L 308.741991 174.447535 
L 308.79556 174.537721 
L 308.849129 174.573299 
L 308.902699 174.511291 
L 309.027694 174.545902 
L 312.96504 174.52907 
L 313.634657 174.531628 
L 314.277489 174.529226 
L 315.947067 174.592763 
L 315.98278 174.794602 
L 316.018492 174.534361 
L 316.063134 173.714849 
L 316.08099 175.310075 
L 316.089918 175.634511 
L 316.143488 173.90479 
L 316.152416 173.994244 
L 316.241698 175.19548 
L 316.286339 174.614197 
L 316.313124 174.408034 
L 316.357765 174.902971 
L 316.38455 175.186075 
L 316.420263 174.487458 
L 316.491688 170.239915 
L 316.509545 171.254147 
L 316.536329 182.843022 
L 316.589899 170.943233 
L 316.616683 173.380947 
L 316.688109 176.574817 
L 316.73275 173.828617 
L 316.741679 173.634016 
L 316.795248 174.73724 
L 316.804176 174.661297 
L 316.866674 174.685897 
L 316.911315 172.221634 
L 316.947028 168.866775 
L 316.973812 175.103664 
L 317.009525 181.606162 
L 317.072023 172.462232 
L 317.098807 170.886427 
L 317.152377 175.32837 
L 317.179161 176.473166 
L 317.241659 174.297711 
L 317.277372 173.58141 
L 317.339869 174.574119 
L 317.375582 174.951411 
L 317.43808 174.501918 
L 317.473793 174.325014 
L 317.53629 174.558945 
L 317.572003 174.637652 
L 317.625573 174.51718 
L 317.670214 174.456906 
L 317.723783 174.537836 
L 317.777352 174.56832 
L 317.830922 174.511865 
L 317.973773 174.54286 
L 318.402328 174.528543 
L 324.866362 174.526774 
L 324.911003 174.742905 
L 324.946716 174.534531 
L 324.991357 173.840849 
L 325.009213 175.283685 
L 325.018141 175.546648 
L 325.071711 173.898934 
L 325.160993 175.116953 
L 325.214562 174.496091 
L 325.232419 174.382998 
L 325.27706 174.819714 
L 325.312773 175.07273 
L 325.348486 174.393114 
L 325.419911 170.930014 
L 325.437768 171.859228 
L 325.464553 181.877684 
L 325.509194 171.247651 
L 325.544907 173.708044 
L 325.607404 176.498598 
L 325.652045 173.803573 
L 325.660974 173.478259 
L 325.714543 175.077519 
L 325.741328 174.479206 
L 325.794897 174.554926 
L 325.866323 169.803234 
L 325.875251 169.373284 
L 325.893107 172.417256 
L 325.937748 181.088671 
L 326.000246 172.544889 
L 326.027031 171.161366 
L 326.0806 175.335864 
L 326.107385 176.353943 
L 326.169882 174.269358 
L 326.205595 173.626304 
L 326.268093 174.594302 
L 326.303806 174.937729 
L 326.366303 174.495702 
L 326.402016 174.333141 
L 326.464514 174.560096 
L 326.500227 174.631219 
L 326.553796 174.515564 
L 326.598437 174.462671 
L 326.652006 174.540382 
L 326.705576 174.564538 
L 326.759145 174.5108 
L 326.937709 174.528015 
L 327.250197 174.530842 
L 333.714231 174.525552 
L 333.776728 174.476561 
L 333.803513 174.566479 
L 333.848154 174.723478 
L 333.883867 174.401168 
L 333.91958 173.906687 
L 333.937436 175.188742 
L 333.946365 175.40964 
L 333.991006 173.94347 
L 333.999934 173.947499 
L 334.089216 175.062713 
L 334.133857 174.515773 
L 334.151714 174.367272 
L 334.205283 174.866706 
L 334.232068 174.962733 
L 334.267781 174.59069 
L 334.357063 171.413069 
L 334.365991 172.177807 
L 334.392776 180.956034 
L 334.437417 171.6662 
L 334.47313 173.822236 
L 334.535627 176.435834 
L 334.57134 174.07479 
L 334.589197 173.356514 
L 334.633838 175.189767 
L 334.678479 174.108046 
L 334.687407 174.092666 
L 334.696335 174.20433 
L 334.72312 174.599641 
L 334.749905 173.822449 
L 334.803474 169.976817 
L 334.830259 175.33868 
L 334.865972 180.492123 
L 334.928469 172.598529 
L 334.955254 171.471771 
L 334.999895 174.711608 
L 335.035608 176.231974 
L 335.098105 174.204403 
L 335.133818 173.66993 
L 335.187388 174.486748 
L 335.232029 174.929354 
L 335.294526 174.472359 
L 335.330239 174.335453 
L 335.383809 174.534198 
L 335.42845 174.629436 
L 335.482019 174.509349 
L 335.52666 174.466026 
L 335.58023 174.545379 
L 335.633799 174.561579 
L 335.687368 174.508429 
L 335.901646 174.519156 
L 338.14263 174.511118 
L 338.303338 174.536643 
L 338.651538 174.528172 
L 342.731736 174.549798 
L 342.776377 174.692679 
L 342.81209 174.426653 
L 342.847803 173.962615 
L 342.86566 175.131488 
L 342.874588 175.336019 
L 342.928157 174.030218 
L 343.017439 175.043551 
L 343.062081 174.450858 
L 343.079937 174.3555 
L 343.124578 174.799664 
L 343.151363 174.8738 
L 343.187076 174.655186 
L 343.285286 171.887777 
L 343.294214 172.664115 
L 343.320999 180.043458 
L 343.36564 172.044598 
L 343.401353 174.020481 
L 343.463851 176.315122 
L 343.499563 173.915792 
L 343.51742 173.37337 
L 343.562061 175.206822 
L 343.606702 174.037672 
L 343.651343 174.652385 
L 343.678128 173.80485 
L 343.731697 170.577601 
L 343.758482 175.406899 
L 343.794195 179.840299 
L 343.856692 172.692032 
L 343.874549 171.778972 
L 343.928118 174.827583 
L 343.963831 176.073284 
L 344.026329 174.15056 
L 344.053113 173.738682 
L 344.115611 174.549712 
L 344.160252 174.903528 
L 344.213821 174.512814 
L 344.249534 174.344537 
L 344.312032 174.552432 
L 344.347745 174.628724 
L 344.410242 174.500518 
L 344.445955 174.465559 
L 344.508453 174.551065 
L 344.562022 174.557357 
L 344.615591 174.506419 
L 344.865582 174.526207 
L 345.311993 174.529868 
L 351.543893 174.534611 
L 351.713529 174.64675 
L 351.731385 174.558971 
L 351.776026 174.057473 
L 351.793883 175.024189 
L 351.802811 175.183005 
L 351.847452 174.141779 
L 351.85638 174.165091 
L 351.945663 174.98942 
L 351.981376 174.53484 
L 351.999232 174.35101 
L 352.06173 174.822973 
L 352.070658 174.821562 
L 352.115299 174.600356 
L 352.213509 172.380871 
L 352.222438 173.061413 
L 352.249222 179.135195 
L 352.293863 172.539133 
L 352.329576 174.190184 
L 352.392074 176.152531 
L 352.418858 174.456587 
L 352.436715 173.445771 
L 352.490284 175.197481 
L 352.534925 173.986258 
L 352.570638 174.665685 
L 352.606351 173.761037 
L 352.65992 171.199174 
L 352.677777 173.548121 
L 352.722418 179.197733 
L 352.784916 172.780018 
L 352.802772 172.071213 
L 352.856341 174.925154 
L 352.883126 175.948054 
L 352.945624 174.350753 
L 352.981337 173.791053 
L 353.043834 174.59374 
L 353.079547 174.881131 
L 353.142045 174.489926 
L 353.177757 174.354881 
L 353.240255 174.564354 
L 353.275968 174.622908 
L 353.329537 174.514207 
L 353.374178 174.47074 
L 353.427748 174.543279 
L 353.481317 174.560271 
L 353.534886 174.510876 
L 353.758092 174.52054 
L 354.740197 174.529607 
L 360.668537 174.460474 
L 360.70425 174.138443 
L 360.722106 174.926447 
L 360.731034 175.039206 
L 360.775675 174.235794 
L 360.873886 174.948876 
L 360.909599 174.484035 
L 360.927455 174.354629 
L 360.981025 174.741074 
L 360.998881 174.72934 
L 361.043522 174.609377 
L 361.141733 172.738111 
L 361.150661 173.235869 
L 361.177445 178.423367 
L 361.222087 172.84026 
L 361.257799 174.290208 
L 361.320297 175.855841 
L 361.347082 174.387187 
L 361.364938 173.605234 
L 361.409579 175.049106 
L 361.463149 174.024872 
L 361.498861 174.648104 
L 361.534574 173.840444 
L 361.588144 171.781407 
L 361.606 173.839717 
L 361.650641 178.495911 
L 361.704211 173.638474 
L 361.730995 172.442054 
L 361.784565 174.937642 
L 361.811349 175.76301 
L 361.873847 174.329234 
L 361.90956 173.886389 
L 361.972057 174.608358 
L 362.00777 174.835985 
L 362.070268 174.484647 
L 362.105981 174.378683 
L 362.15955 174.536084 
L 362.204191 174.609678 
L 362.25776 174.513138 
L 362.302402 174.479805 
L 362.355971 174.543473 
L 362.472038 174.50931 
L 362.989875 174.530488 
L 366.034399 174.527648 
L 369.59676 174.470504 
L 369.632473 174.17048 
L 369.650329 174.940096 
L 369.659257 175.04083 
L 369.69497 174.305788 
L 369.703899 174.269798 
L 369.739611 174.57694 
L 369.802109 174.882496 
L 369.828894 174.629994 
L 369.855678 174.375293 
L 369.909248 174.709896 
L 369.936032 174.652169 
L 369.989602 174.353468 
L 370.069956 173.071195 
L 370.078884 173.668919 
L 370.105669 177.621409 
L 370.15031 173.197566 
L 370.186023 174.437872 
L 370.221736 175.004909 
L 370.239592 175.563831 
L 370.293161 173.727909 
L 370.337802 175.026012 
L 370.444941 174.419112 
L 370.516367 172.279349 
L 370.534223 174.056733 
L 370.578864 177.842443 
L 370.632434 173.748795 
L 370.659218 172.784652 
L 370.712788 174.895979 
L 370.739572 175.570884 
L 370.80207 174.350083 
L 370.837783 173.986131 
L 370.891352 174.498756 
L 370.935993 174.788781 
L 370.998491 174.492699 
L 371.034204 174.403419 
L 371.096701 174.558694 
L 371.132414 174.596346 
L 371.185984 174.516503 
L 371.239553 174.493943 
L 371.293122 174.548705 
L 371.489543 174.538326 
L 372.078806 174.530332 
L 378.417844 174.530531 
L 378.498198 174.573986 
L 378.516055 174.525439 
L 378.560696 174.22592 
L 378.569624 174.596203 
L 378.587481 174.958482 
L 378.632122 174.329537 
L 378.676763 174.593179 
L 378.730332 174.808581 
L 378.757117 174.579623 
L 378.783902 174.408606 
L 378.828543 174.660972 
L 378.864256 174.593347 
L 378.908897 174.475977 
L 378.998179 173.353999 
L 379.007107 173.796792 
L 379.033892 176.96395 
L 379.078533 173.496128 
L 379.114246 174.57622 
L 379.158887 175.059251 
L 379.167815 175.191763 
L 379.203528 174.31152 
L 379.221385 173.97185 
L 379.266026 174.907366 
L 379.319595 174.1037 
L 379.355308 174.572773 
L 379.399949 173.751464 
L 379.44459 172.81825 
L 379.462447 174.297465 
L 379.498159 177.160072 
L 379.560657 173.864395 
L 379.587442 173.156991 
L 379.641011 174.856992 
L 379.667796 175.36019 
L 379.730293 174.36798 
L 379.766006 174.097246 
L 379.819575 174.515707 
L 379.864217 174.737476 
L 379.926714 174.498084 
L 379.962427 174.430193 
L 380.024925 174.554231 
L 380.069566 174.577189 
L 380.123135 174.509243 
L 380.239202 174.551436 
L 387.453206 174.469163 
L 387.488919 174.278016 
L 387.497847 174.64393 
L 387.515704 174.976194 
L 387.560345 174.325207 
L 387.604986 174.608748 
L 387.640699 174.677222 
L 387.658555 174.732523 
L 387.694268 174.487507 
L 387.712125 174.421574 
L 387.756766 174.643314 
L 387.801407 174.506085 
L 387.854976 174.377666 
L 387.926402 173.655487 
L 387.93533 174.186406 
L 387.953187 176.199041 
L 387.997828 173.873697 
L 388.042469 174.624982 
L 388.060326 174.548664 
L 388.08711 174.847455 
L 388.096038 174.941902 
L 388.131751 174.269113 
L 388.23889 174.111326 
L 388.194249 174.87755 
L 388.247818 174.175039 
L 388.283531 174.575366 
L 388.328172 173.916094 
L 388.372813 173.347291 
L 388.39067 174.473714 
L 388.426383 176.445604 
L 388.48888 173.999737 
L 388.515665 173.537492 
L 388.569234 174.806021 
L 388.596019 175.140708 
L 388.658516 174.393863 
L 388.694229 174.211738 
L 388.747799 174.529763 
L 388.79244 174.684724 
L 388.854937 174.504438 
L 388.89065 174.457532 
L 388.953148 174.54925 
L 389.006717 174.557099 
L 389.060287 174.509945 
L 389.354918 174.536436 
L 396.372501 174.50595 
L 396.408214 174.371209 
L 396.426071 174.639875 
L 396.443927 174.854543 
L 396.488568 174.394699 
L 396.533209 174.58092 
L 396.595707 174.615944 
L 396.613563 174.493132 
L 396.63142 174.435899 
L 396.676061 174.611531 
L 396.720702 174.505454 
L 396.756415 174.530528 
L 396.7832 174.431883 
L 396.854625 173.949364 
L 396.863554 174.321299 
L 396.88141 175.603263 
L 396.926051 174.166237 
L 396.970692 174.630111 
L 397.068903 174.34265 
L 397.086759 174.474086 
L 397.113544 174.745229 
L 397.167113 174.240541 
L 397.193898 174.451183 
L 397.211754 174.538349 
L 397.256395 174.12728 
L 397.292108 173.87975 
L 397.309965 174.166667 
L 397.354606 175.672002 
L 397.417103 174.162907 
L 397.43496 173.954286 
L 397.488529 174.607384 
L 397.524242 174.890725 
L 397.58674 174.428003 
L 397.613524 174.341855 
L 397.676022 174.5452 
L 397.720663 174.621512 
L 397.774232 174.526591 
L 397.827802 174.494395 
L 397.881371 174.544504 
L 398.095648 174.539756 
L 399.917006 174.530638 
L 405.354294 174.656644 
L 405.37215 174.790092 
L 405.407863 174.410251 
L 405.452504 174.586305 
L 405.559643 174.485229 
L 405.586428 174.563435 
L 405.604284 174.600924 
L 405.657853 174.458961 
L 405.67571 174.482638 
L 405.693566 174.493047 
L 405.738207 174.389983 
L 405.782849 174.349088 
L 405.800705 174.992678 
L 405.889987 174.568023 
L 405.916772 174.386657 
L 405.997126 174.492307 
L 406.032839 174.656731 
L 406.07748 174.382331 
L 406.184619 174.385157 
L 406.122121 174.476021 
L 406.193547 174.394839 
L 406.22926 174.415805 
L 406.264973 174.922655 
L 406.336398 174.376742 
L 406.354255 174.333236 
L 406.398896 174.538815 
L 406.434609 174.664536 
L 406.497106 174.503078 
L 406.532819 174.465016 
L 406.595317 174.544468 
L 406.720312 174.51822 
L 409.255927 174.535971 
L 411.416557 174.531029 
L 414.72 174.528 
L 414.72 174.528 
" style="fill:none;stroke:#1f77b4;stroke-linecap:square;stroke-width:1.5;"/>
   </g>
   <g id="patch_3">
    <path d="M 57.6 307.584 
L 57.6 41.472 
" style="fill:none;stroke:#000000;stroke-linecap:square;stroke-linejoin:miter;stroke-width:0.8;"/>
   </g>
   <g id="patch_4">
    <path d="M 414.72 307.584 
L 414.72 41.472 
" style="fill:none;stroke:#000000;stroke-linecap:square;stroke-linejoin:miter;stroke-width:0.8;"/>
   </g>
   <g id="patch_5">
    <path d="M 57.6 307.584 
L 414.72 307.584 
" style="fill:none;stroke:#000000;stroke-linecap:square;stroke-linejoin:miter;stroke-width:0.8;"/>
   </g>
   <g id="patch_6">
    <path d="M 57.6 41.472 
L 414.72 41.472 
" style="fill:none;stroke:#000000;stroke-linecap:square;stroke-linejoin:miter;stroke-width:0.8;"/>
   </g>
  </g>
 </g>
 <defs>
  <clipPath id="p9620495c73">
   <rect height="266.112" width="357.12" x="57.6" y="41.472"/>
  </clipPath>
 </defs>
</svg>
