<?xml version="1.0" encoding="utf-8" standalone="no"?>
<!DOCTYPE svg PUBLIC "-//W3C//DTD SVG 1.1//EN"
  "http://www.w3.org/Graphics/SVG/1.1/DTD/svg11.dtd">
<!-- Created with matplotlib (http://matplotlib.org/) -->
<svg height="345.6pt" version="1.1" viewBox="0 0 460.8 345.6" width="460.8pt" xmlns="http://www.w3.org/2000/svg" xmlns:xlink="http://www.w3.org/1999/xlink">
 <defs>
  <style type="text/css">
*{stroke-linecap:butt;stroke-linejoin:round;}
  </style>
 </defs>
 <g id="figure_1">
  <g id="patch_1">
   <path d="M 0 345.6 
L 460.8 345.6 
L 460.8 0 
L 0 0 
z
" style="fill:#ffffff;"/>
  </g>
  <g id="axes_1">
   <g id="patch_2">
    <path d="M 57.6 307.584 
L 414.72 307.584 
L 414.72 41.472 
L 57.6 41.472 
z
" style="fill:#ffffff;"/>
   </g>
   <g id="matplotlib.axis_1">
    <g id="xtick_1">
     <g id="line2d_1">
      <path clip-path="url(#pe515728e52)" d="M 57.591072 307.584 
L 57.591072 41.472 
" style="fill:none;stroke:#b0b0b0;stroke-linecap:square;stroke-width:0.8;"/>
     </g>
     <g id="line2d_2">
      <defs>
       <path d="M 0 0 
L 0 3.5 
" id="m22b93e4b44" style="stroke:#000000;stroke-width:0.8;"/>
      </defs>
      <g>
       <use style="stroke:#000000;stroke-width:0.8;" x="57.591072" xlink:href="#m22b93e4b44" y="307.584"/>
      </g>
     </g>
     <g id="text_1">
      <!-- 0 -->
      <defs>
       <path d="M 31.78125 66.40625 
Q 24.171875 66.40625 20.328125 58.90625 
Q 16.5 51.421875 16.5 36.375 
Q 16.5 21.390625 20.328125 13.890625 
Q 24.171875 6.390625 31.78125 6.390625 
Q 39.453125 6.390625 43.28125 13.890625 
Q 47.125 21.390625 47.125 36.375 
Q 47.125 51.421875 43.28125 58.90625 
Q 39.453125 66.40625 31.78125 66.40625 
z
M 31.78125 74.21875 
Q 44.046875 74.21875 50.515625 64.515625 
Q 56.984375 54.828125 56.984375 36.375 
Q 56.984375 17.96875 50.515625 8.265625 
Q 44.046875 -1.421875 31.78125 -1.421875 
Q 19.53125 -1.421875 13.0625 8.265625 
Q 6.59375 17.96875 6.59375 36.375 
Q 6.59375 54.828125 13.0625 64.515625 
Q 19.53125 74.21875 31.78125 74.21875 
z
" id="DejaVuSans-30"/>
      </defs>
      <g transform="translate(54.409822 322.182437)scale(0.1 -0.1)">
       <use xlink:href="#DejaVuSans-30"/>
      </g>
     </g>
    </g>
    <g id="xtick_2">
     <g id="line2d_3">
      <path clip-path="url(#pe515728e52)" d="M 102.232188 307.584 
L 102.232188 41.472 
" style="fill:none;stroke:#b0b0b0;stroke-linecap:square;stroke-width:0.8;"/>
     </g>
     <g id="line2d_4">
      <g>
       <use style="stroke:#000000;stroke-width:0.8;" x="102.232188" xlink:href="#m22b93e4b44" y="307.584"/>
      </g>
     </g>
     <g id="text_2">
      <!-- 5000 -->
      <defs>
       <path d="M 10.796875 72.90625 
L 49.515625 72.90625 
L 49.515625 64.59375 
L 19.828125 64.59375 
L 19.828125 46.734375 
Q 21.96875 47.46875 24.109375 47.828125 
Q 26.265625 48.1875 28.421875 48.1875 
Q 40.625 48.1875 47.75 41.5 
Q 54.890625 34.8125 54.890625 23.390625 
Q 54.890625 11.625 47.5625 5.09375 
Q 40.234375 -1.421875 26.90625 -1.421875 
Q 22.3125 -1.421875 17.546875 -0.640625 
Q 12.796875 0.140625 7.71875 1.703125 
L 7.71875 11.625 
Q 12.109375 9.234375 16.796875 8.0625 
Q 21.484375 6.890625 26.703125 6.890625 
Q 35.15625 6.890625 40.078125 11.328125 
Q 45.015625 15.765625 45.015625 23.390625 
Q 45.015625 31 40.078125 35.4375 
Q 35.15625 39.890625 26.703125 39.890625 
Q 22.75 39.890625 18.8125 39.015625 
Q 14.890625 38.140625 10.796875 36.28125 
z
" id="DejaVuSans-35"/>
      </defs>
      <g transform="translate(89.507188 322.182437)scale(0.1 -0.1)">
       <use xlink:href="#DejaVuSans-35"/>
       <use x="63.623047" xlink:href="#DejaVuSans-30"/>
       <use x="127.246094" xlink:href="#DejaVuSans-30"/>
       <use x="190.869141" xlink:href="#DejaVuSans-30"/>
      </g>
     </g>
    </g>
    <g id="xtick_3">
     <g id="line2d_5">
      <path clip-path="url(#pe515728e52)" d="M 146.873304 307.584 
L 146.873304 41.472 
" style="fill:none;stroke:#b0b0b0;stroke-linecap:square;stroke-width:0.8;"/>
     </g>
     <g id="line2d_6">
      <g>
       <use style="stroke:#000000;stroke-width:0.8;" x="146.873304" xlink:href="#m22b93e4b44" y="307.584"/>
      </g>
     </g>
     <g id="text_3">
      <!-- 10000 -->
      <defs>
       <path d="M 12.40625 8.296875 
L 28.515625 8.296875 
L 28.515625 63.921875 
L 10.984375 60.40625 
L 10.984375 69.390625 
L 28.421875 72.90625 
L 38.28125 72.90625 
L 38.28125 8.296875 
L 54.390625 8.296875 
L 54.390625 0 
L 12.40625 0 
z
" id="DejaVuSans-31"/>
      </defs>
      <g transform="translate(130.967054 322.182437)scale(0.1 -0.1)">
       <use xlink:href="#DejaVuSans-31"/>
       <use x="63.623047" xlink:href="#DejaVuSans-30"/>
       <use x="127.246094" xlink:href="#DejaVuSans-30"/>
       <use x="190.869141" xlink:href="#DejaVuSans-30"/>
       <use x="254.492188" xlink:href="#DejaVuSans-30"/>
      </g>
     </g>
    </g>
    <g id="xtick_4">
     <g id="line2d_7">
      <path clip-path="url(#pe515728e52)" d="M 191.51442 307.584 
L 191.51442 41.472 
" style="fill:none;stroke:#b0b0b0;stroke-linecap:square;stroke-width:0.8;"/>
     </g>
     <g id="line2d_8">
      <g>
       <use style="stroke:#000000;stroke-width:0.8;" x="191.51442" xlink:href="#m22b93e4b44" y="307.584"/>
      </g>
     </g>
     <g id="text_4">
      <!-- 15000 -->
      <g transform="translate(175.60817 322.182437)scale(0.1 -0.1)">
       <use xlink:href="#DejaVuSans-31"/>
       <use x="63.623047" xlink:href="#DejaVuSans-35"/>
       <use x="127.246094" xlink:href="#DejaVuSans-30"/>
       <use x="190.869141" xlink:href="#DejaVuSans-30"/>
       <use x="254.492188" xlink:href="#DejaVuSans-30"/>
      </g>
     </g>
    </g>
    <g id="xtick_5">
     <g id="line2d_9">
      <path clip-path="url(#pe515728e52)" d="M 236.155536 307.584 
L 236.155536 41.472 
" style="fill:none;stroke:#b0b0b0;stroke-linecap:square;stroke-width:0.8;"/>
     </g>
     <g id="line2d_10">
      <g>
       <use style="stroke:#000000;stroke-width:0.8;" x="236.155536" xlink:href="#m22b93e4b44" y="307.584"/>
      </g>
     </g>
     <g id="text_5">
      <!-- 20000 -->
      <defs>
       <path d="M 19.1875 8.296875 
L 53.609375 8.296875 
L 53.609375 0 
L 7.328125 0 
L 7.328125 8.296875 
Q 12.9375 14.109375 22.625 23.890625 
Q 32.328125 33.6875 34.8125 36.53125 
Q 39.546875 41.84375 41.421875 45.53125 
Q 43.3125 49.21875 43.3125 52.78125 
Q 43.3125 58.59375 39.234375 62.25 
Q 35.15625 65.921875 28.609375 65.921875 
Q 23.96875 65.921875 18.8125 64.3125 
Q 13.671875 62.703125 7.8125 59.421875 
L 7.8125 69.390625 
Q 13.765625 71.78125 18.9375 73 
Q 24.125 74.21875 28.421875 74.21875 
Q 39.75 74.21875 46.484375 68.546875 
Q 53.21875 62.890625 53.21875 53.421875 
Q 53.21875 48.921875 51.53125 44.890625 
Q 49.859375 40.875 45.40625 35.40625 
Q 44.1875 33.984375 37.640625 27.21875 
Q 31.109375 20.453125 19.1875 8.296875 
z
" id="DejaVuSans-32"/>
      </defs>
      <g transform="translate(220.249286 322.182437)scale(0.1 -0.1)">
       <use xlink:href="#DejaVuSans-32"/>
       <use x="63.623047" xlink:href="#DejaVuSans-30"/>
       <use x="127.246094" xlink:href="#DejaVuSans-30"/>
       <use x="190.869141" xlink:href="#DejaVuSans-30"/>
       <use x="254.492188" xlink:href="#DejaVuSans-30"/>
      </g>
     </g>
    </g>
    <g id="xtick_6">
     <g id="line2d_11">
      <path clip-path="url(#pe515728e52)" d="M 280.796652 307.584 
L 280.796652 41.472 
" style="fill:none;stroke:#b0b0b0;stroke-linecap:square;stroke-width:0.8;"/>
     </g>
     <g id="line2d_12">
      <g>
       <use style="stroke:#000000;stroke-width:0.8;" x="280.796652" xlink:href="#m22b93e4b44" y="307.584"/>
      </g>
     </g>
     <g id="text_6">
      <!-- 25000 -->
      <g transform="translate(264.890402 322.182437)scale(0.1 -0.1)">
       <use xlink:href="#DejaVuSans-32"/>
       <use x="63.623047" xlink:href="#DejaVuSans-35"/>
       <use x="127.246094" xlink:href="#DejaVuSans-30"/>
       <use x="190.869141" xlink:href="#DejaVuSans-30"/>
       <use x="254.492188" xlink:href="#DejaVuSans-30"/>
      </g>
     </g>
    </g>
    <g id="xtick_7">
     <g id="line2d_13">
      <path clip-path="url(#pe515728e52)" d="M 325.437768 307.584 
L 325.437768 41.472 
" style="fill:none;stroke:#b0b0b0;stroke-linecap:square;stroke-width:0.8;"/>
     </g>
     <g id="line2d_14">
      <g>
       <use style="stroke:#000000;stroke-width:0.8;" x="325.437768" xlink:href="#m22b93e4b44" y="307.584"/>
      </g>
     </g>
     <g id="text_7">
      <!-- 30000 -->
      <defs>
       <path d="M 40.578125 39.3125 
Q 47.65625 37.796875 51.625 33 
Q 55.609375 28.21875 55.609375 21.1875 
Q 55.609375 10.40625 48.1875 4.484375 
Q 40.765625 -1.421875 27.09375 -1.421875 
Q 22.515625 -1.421875 17.65625 -0.515625 
Q 12.796875 0.390625 7.625 2.203125 
L 7.625 11.71875 
Q 11.71875 9.328125 16.59375 8.109375 
Q 21.484375 6.890625 26.8125 6.890625 
Q 36.078125 6.890625 40.9375 10.546875 
Q 45.796875 14.203125 45.796875 21.1875 
Q 45.796875 27.640625 41.28125 31.265625 
Q 36.765625 34.90625 28.71875 34.90625 
L 20.21875 34.90625 
L 20.21875 43.015625 
L 29.109375 43.015625 
Q 36.375 43.015625 40.234375 45.921875 
Q 44.09375 48.828125 44.09375 54.296875 
Q 44.09375 59.90625 40.109375 62.90625 
Q 36.140625 65.921875 28.71875 65.921875 
Q 24.65625 65.921875 20.015625 65.03125 
Q 15.375 64.15625 9.8125 62.3125 
L 9.8125 71.09375 
Q 15.4375 72.65625 20.34375 73.4375 
Q 25.25 74.21875 29.59375 74.21875 
Q 40.828125 74.21875 47.359375 69.109375 
Q 53.90625 64.015625 53.90625 55.328125 
Q 53.90625 49.265625 50.4375 45.09375 
Q 46.96875 40.921875 40.578125 39.3125 
z
" id="DejaVuSans-33"/>
      </defs>
      <g transform="translate(309.531518 322.182437)scale(0.1 -0.1)">
       <use xlink:href="#DejaVuSans-33"/>
       <use x="63.623047" xlink:href="#DejaVuSans-30"/>
       <use x="127.246094" xlink:href="#DejaVuSans-30"/>
       <use x="190.869141" xlink:href="#DejaVuSans-30"/>
       <use x="254.492188" xlink:href="#DejaVuSans-30"/>
      </g>
     </g>
    </g>
    <g id="xtick_8">
     <g id="line2d_15">
      <path clip-path="url(#pe515728e52)" d="M 370.078884 307.584 
L 370.078884 41.472 
" style="fill:none;stroke:#b0b0b0;stroke-linecap:square;stroke-width:0.8;"/>
     </g>
     <g id="line2d_16">
      <g>
       <use style="stroke:#000000;stroke-width:0.8;" x="370.078884" xlink:href="#m22b93e4b44" y="307.584"/>
      </g>
     </g>
     <g id="text_8">
      <!-- 35000 -->
      <g transform="translate(354.172634 322.182437)scale(0.1 -0.1)">
       <use xlink:href="#DejaVuSans-33"/>
       <use x="63.623047" xlink:href="#DejaVuSans-35"/>
       <use x="127.246094" xlink:href="#DejaVuSans-30"/>
       <use x="190.869141" xlink:href="#DejaVuSans-30"/>
       <use x="254.492188" xlink:href="#DejaVuSans-30"/>
      </g>
     </g>
    </g>
    <g id="xtick_9">
     <g id="line2d_17">
      <path clip-path="url(#pe515728e52)" d="M 414.72 307.584 
L 414.72 41.472 
" style="fill:none;stroke:#b0b0b0;stroke-linecap:square;stroke-width:0.8;"/>
     </g>
     <g id="line2d_18">
      <g>
       <use style="stroke:#000000;stroke-width:0.8;" x="414.72" xlink:href="#m22b93e4b44" y="307.584"/>
      </g>
     </g>
     <g id="text_9">
      <!-- 40000 -->
      <defs>
       <path d="M 37.796875 64.3125 
L 12.890625 25.390625 
L 37.796875 25.390625 
z
M 35.203125 72.90625 
L 47.609375 72.90625 
L 47.609375 25.390625 
L 58.015625 25.390625 
L 58.015625 17.1875 
L 47.609375 17.1875 
L 47.609375 0 
L 37.796875 0 
L 37.796875 17.1875 
L 4.890625 17.1875 
L 4.890625 26.703125 
z
" id="DejaVuSans-34"/>
      </defs>
      <g transform="translate(398.81375 322.182437)scale(0.1 -0.1)">
       <use xlink:href="#DejaVuSans-34"/>
       <use x="63.623047" xlink:href="#DejaVuSans-30"/>
       <use x="127.246094" xlink:href="#DejaVuSans-30"/>
       <use x="190.869141" xlink:href="#DejaVuSans-30"/>
       <use x="254.492188" xlink:href="#DejaVuSans-30"/>
      </g>
     </g>
    </g>
    <g id="text_10">
     <!-- Lag -->
     <defs>
      <path d="M 9.8125 72.90625 
L 19.671875 72.90625 
L 19.671875 8.296875 
L 55.171875 8.296875 
L 55.171875 0 
L 9.8125 0 
z
" id="DejaVuSans-4c"/>
      <path d="M 34.28125 27.484375 
Q 23.390625 27.484375 19.1875 25 
Q 14.984375 22.515625 14.984375 16.5 
Q 14.984375 11.71875 18.140625 8.90625 
Q 21.296875 6.109375 26.703125 6.109375 
Q 34.1875 6.109375 38.703125 11.40625 
Q 43.21875 16.703125 43.21875 25.484375 
L 43.21875 27.484375 
z
M 52.203125 31.203125 
L 52.203125 0 
L 43.21875 0 
L 43.21875 8.296875 
Q 40.140625 3.328125 35.546875 0.953125 
Q 30.953125 -1.421875 24.3125 -1.421875 
Q 15.921875 -1.421875 10.953125 3.296875 
Q 6 8.015625 6 15.921875 
Q 6 25.140625 12.171875 29.828125 
Q 18.359375 34.515625 30.609375 34.515625 
L 43.21875 34.515625 
L 43.21875 35.40625 
Q 43.21875 41.609375 39.140625 45 
Q 35.0625 48.390625 27.6875 48.390625 
Q 23 48.390625 18.546875 47.265625 
Q 14.109375 46.140625 10.015625 43.890625 
L 10.015625 52.203125 
Q 14.9375 54.109375 19.578125 55.046875 
Q 24.21875 56 28.609375 56 
Q 40.484375 56 46.34375 49.84375 
Q 52.203125 43.703125 52.203125 31.203125 
z
" id="DejaVuSans-61"/>
      <path d="M 45.40625 27.984375 
Q 45.40625 37.75 41.375 43.109375 
Q 37.359375 48.484375 30.078125 48.484375 
Q 22.859375 48.484375 18.828125 43.109375 
Q 14.796875 37.75 14.796875 27.984375 
Q 14.796875 18.265625 18.828125 12.890625 
Q 22.859375 7.515625 30.078125 7.515625 
Q 37.359375 7.515625 41.375 12.890625 
Q 45.40625 18.265625 45.40625 27.984375 
z
M 54.390625 6.78125 
Q 54.390625 -7.171875 48.1875 -13.984375 
Q 42 -20.796875 29.203125 -20.796875 
Q 24.46875 -20.796875 20.265625 -20.09375 
Q 16.0625 -19.390625 12.109375 -17.921875 
L 12.109375 -9.1875 
Q 16.0625 -11.328125 19.921875 -12.34375 
Q 23.78125 -13.375 27.78125 -13.375 
Q 36.625 -13.375 41.015625 -8.765625 
Q 45.40625 -4.15625 45.40625 5.171875 
L 45.40625 9.625 
Q 42.625 4.78125 38.28125 2.390625 
Q 33.9375 0 27.875 0 
Q 17.828125 0 11.671875 7.65625 
Q 5.515625 15.328125 5.515625 27.984375 
Q 5.515625 40.671875 11.671875 48.328125 
Q 17.828125 56 27.875 56 
Q 33.9375 56 38.28125 53.609375 
Q 42.625 51.21875 45.40625 46.390625 
L 45.40625 54.6875 
L 54.390625 54.6875 
z
" id="DejaVuSans-67"/>
     </defs>
     <g transform="translate(227.135781 335.860562)scale(0.1 -0.1)">
      <use xlink:href="#DejaVuSans-4c"/>
      <use x="55.712891" xlink:href="#DejaVuSans-61"/>
      <use x="116.992188" xlink:href="#DejaVuSans-67"/>
     </g>
    </g>
   </g>
   <g id="matplotlib.axis_2">
    <g id="ytick_1">
     <g id="line2d_19">
      <path clip-path="url(#pe515728e52)" d="M 57.6 307.584 
L 414.72 307.584 
" style="fill:none;stroke:#b0b0b0;stroke-linecap:square;stroke-width:0.8;"/>
     </g>
     <g id="line2d_20">
      <defs>
       <path d="M 0 0 
L -3.5 0 
" id="m6fa17158f4" style="stroke:#000000;stroke-width:0.8;"/>
      </defs>
      <g>
       <use style="stroke:#000000;stroke-width:0.8;" x="57.6" xlink:href="#m6fa17158f4" y="307.584"/>
      </g>
     </g>
     <g id="text_11">
      <!-- −1.00 -->
      <defs>
       <path d="M 10.59375 35.5 
L 73.1875 35.5 
L 73.1875 27.203125 
L 10.59375 27.203125 
z
" id="DejaVuSans-2212"/>
       <path d="M 10.6875 12.40625 
L 21 12.40625 
L 21 0 
L 10.6875 0 
z
" id="DejaVuSans-2e"/>
      </defs>
      <g transform="translate(19.954687 311.383219)scale(0.1 -0.1)">
       <use xlink:href="#DejaVuSans-2212"/>
       <use x="83.789062" xlink:href="#DejaVuSans-31"/>
       <use x="147.412109" xlink:href="#DejaVuSans-2e"/>
       <use x="179.199219" xlink:href="#DejaVuSans-30"/>
       <use x="242.822266" xlink:href="#DejaVuSans-30"/>
      </g>
     </g>
    </g>
    <g id="ytick_2">
     <g id="line2d_21">
      <path clip-path="url(#pe515728e52)" d="M 57.6 274.32 
L 414.72 274.32 
" style="fill:none;stroke:#b0b0b0;stroke-linecap:square;stroke-width:0.8;"/>
     </g>
     <g id="line2d_22">
      <g>
       <use style="stroke:#000000;stroke-width:0.8;" x="57.6" xlink:href="#m6fa17158f4" y="274.32"/>
      </g>
     </g>
     <g id="text_12">
      <!-- −0.75 -->
      <defs>
       <path d="M 8.203125 72.90625 
L 55.078125 72.90625 
L 55.078125 68.703125 
L 28.609375 0 
L 18.3125 0 
L 43.21875 64.59375 
L 8.203125 64.59375 
z
" id="DejaVuSans-37"/>
      </defs>
      <g transform="translate(19.954687 278.119219)scale(0.1 -0.1)">
       <use xlink:href="#DejaVuSans-2212"/>
       <use x="83.789062" xlink:href="#DejaVuSans-30"/>
       <use x="147.412109" xlink:href="#DejaVuSans-2e"/>
       <use x="179.199219" xlink:href="#DejaVuSans-37"/>
       <use x="242.822266" xlink:href="#DejaVuSans-35"/>
      </g>
     </g>
    </g>
    <g id="ytick_3">
     <g id="line2d_23">
      <path clip-path="url(#pe515728e52)" d="M 57.6 241.056 
L 414.72 241.056 
" style="fill:none;stroke:#b0b0b0;stroke-linecap:square;stroke-width:0.8;"/>
     </g>
     <g id="line2d_24">
      <g>
       <use style="stroke:#000000;stroke-width:0.8;" x="57.6" xlink:href="#m6fa17158f4" y="241.056"/>
      </g>
     </g>
     <g id="text_13">
      <!-- −0.50 -->
      <g transform="translate(19.954687 244.855219)scale(0.1 -0.1)">
       <use xlink:href="#DejaVuSans-2212"/>
       <use x="83.789062" xlink:href="#DejaVuSans-30"/>
       <use x="147.412109" xlink:href="#DejaVuSans-2e"/>
       <use x="179.199219" xlink:href="#DejaVuSans-35"/>
       <use x="242.822266" xlink:href="#DejaVuSans-30"/>
      </g>
     </g>
    </g>
    <g id="ytick_4">
     <g id="line2d_25">
      <path clip-path="url(#pe515728e52)" d="M 57.6 207.792 
L 414.72 207.792 
" style="fill:none;stroke:#b0b0b0;stroke-linecap:square;stroke-width:0.8;"/>
     </g>
     <g id="line2d_26">
      <g>
       <use style="stroke:#000000;stroke-width:0.8;" x="57.6" xlink:href="#m6fa17158f4" y="207.792"/>
      </g>
     </g>
     <g id="text_14">
      <!-- −0.25 -->
      <g transform="translate(19.954687 211.591219)scale(0.1 -0.1)">
       <use xlink:href="#DejaVuSans-2212"/>
       <use x="83.789062" xlink:href="#DejaVuSans-30"/>
       <use x="147.412109" xlink:href="#DejaVuSans-2e"/>
       <use x="179.199219" xlink:href="#DejaVuSans-32"/>
       <use x="242.822266" xlink:href="#DejaVuSans-35"/>
      </g>
     </g>
    </g>
    <g id="ytick_5">
     <g id="line2d_27">
      <path clip-path="url(#pe515728e52)" d="M 57.6 174.528 
L 414.72 174.528 
" style="fill:none;stroke:#b0b0b0;stroke-linecap:square;stroke-width:0.8;"/>
     </g>
     <g id="line2d_28">
      <g>
       <use style="stroke:#000000;stroke-width:0.8;" x="57.6" xlink:href="#m6fa17158f4" y="174.528"/>
      </g>
     </g>
     <g id="text_15">
      <!-- 0.00 -->
      <g transform="translate(28.334375 178.327219)scale(0.1 -0.1)">
       <use xlink:href="#DejaVuSans-30"/>
       <use x="63.623047" xlink:href="#DejaVuSans-2e"/>
       <use x="95.410156" xlink:href="#DejaVuSans-30"/>
       <use x="159.033203" xlink:href="#DejaVuSans-30"/>
      </g>
     </g>
    </g>
    <g id="ytick_6">
     <g id="line2d_29">
      <path clip-path="url(#pe515728e52)" d="M 57.6 141.264 
L 414.72 141.264 
" style="fill:none;stroke:#b0b0b0;stroke-linecap:square;stroke-width:0.8;"/>
     </g>
     <g id="line2d_30">
      <g>
       <use style="stroke:#000000;stroke-width:0.8;" x="57.6" xlink:href="#m6fa17158f4" y="141.264"/>
      </g>
     </g>
     <g id="text_16">
      <!-- 0.25 -->
      <g transform="translate(28.334375 145.063219)scale(0.1 -0.1)">
       <use xlink:href="#DejaVuSans-30"/>
       <use x="63.623047" xlink:href="#DejaVuSans-2e"/>
       <use x="95.410156" xlink:href="#DejaVuSans-32"/>
       <use x="159.033203" xlink:href="#DejaVuSans-35"/>
      </g>
     </g>
    </g>
    <g id="ytick_7">
     <g id="line2d_31">
      <path clip-path="url(#pe515728e52)" d="M 57.6 108 
L 414.72 108 
" style="fill:none;stroke:#b0b0b0;stroke-linecap:square;stroke-width:0.8;"/>
     </g>
     <g id="line2d_32">
      <g>
       <use style="stroke:#000000;stroke-width:0.8;" x="57.6" xlink:href="#m6fa17158f4" y="108"/>
      </g>
     </g>
     <g id="text_17">
      <!-- 0.50 -->
      <g transform="translate(28.334375 111.799219)scale(0.1 -0.1)">
       <use xlink:href="#DejaVuSans-30"/>
       <use x="63.623047" xlink:href="#DejaVuSans-2e"/>
       <use x="95.410156" xlink:href="#DejaVuSans-35"/>
       <use x="159.033203" xlink:href="#DejaVuSans-30"/>
      </g>
     </g>
    </g>
    <g id="ytick_8">
     <g id="line2d_33">
      <path clip-path="url(#pe515728e52)" d="M 57.6 74.736 
L 414.72 74.736 
" style="fill:none;stroke:#b0b0b0;stroke-linecap:square;stroke-width:0.8;"/>
     </g>
     <g id="line2d_34">
      <g>
       <use style="stroke:#000000;stroke-width:0.8;" x="57.6" xlink:href="#m6fa17158f4" y="74.736"/>
      </g>
     </g>
     <g id="text_18">
      <!-- 0.75 -->
      <g transform="translate(28.334375 78.535219)scale(0.1 -0.1)">
       <use xlink:href="#DejaVuSans-30"/>
       <use x="63.623047" xlink:href="#DejaVuSans-2e"/>
       <use x="95.410156" xlink:href="#DejaVuSans-37"/>
       <use x="159.033203" xlink:href="#DejaVuSans-35"/>
      </g>
     </g>
    </g>
    <g id="ytick_9">
     <g id="line2d_35">
      <path clip-path="url(#pe515728e52)" d="M 57.6 41.472 
L 414.72 41.472 
" style="fill:none;stroke:#b0b0b0;stroke-linecap:square;stroke-width:0.8;"/>
     </g>
     <g id="line2d_36">
      <g>
       <use style="stroke:#000000;stroke-width:0.8;" x="57.6" xlink:href="#m6fa17158f4" y="41.472"/>
      </g>
     </g>
     <g id="text_19">
      <!-- 1.00 -->
      <g transform="translate(28.334375 45.271219)scale(0.1 -0.1)">
       <use xlink:href="#DejaVuSans-31"/>
       <use x="63.623047" xlink:href="#DejaVuSans-2e"/>
       <use x="95.410156" xlink:href="#DejaVuSans-30"/>
       <use x="159.033203" xlink:href="#DejaVuSans-30"/>
      </g>
     </g>
    </g>
    <g id="text_20">
     <!-- Autocorrelation -->
     <defs>
      <path d="M 34.1875 63.1875 
L 20.796875 26.90625 
L 47.609375 26.90625 
z
M 28.609375 72.90625 
L 39.796875 72.90625 
L 67.578125 0 
L 57.328125 0 
L 50.6875 18.703125 
L 17.828125 18.703125 
L 11.1875 0 
L 0.78125 0 
z
" id="DejaVuSans-41"/>
      <path d="M 8.5 21.578125 
L 8.5 54.6875 
L 17.484375 54.6875 
L 17.484375 21.921875 
Q 17.484375 14.15625 20.5 10.265625 
Q 23.53125 6.390625 29.59375 6.390625 
Q 36.859375 6.390625 41.078125 11.03125 
Q 45.3125 15.671875 45.3125 23.6875 
L 45.3125 54.6875 
L 54.296875 54.6875 
L 54.296875 0 
L 45.3125 0 
L 45.3125 8.40625 
Q 42.046875 3.421875 37.71875 1 
Q 33.40625 -1.421875 27.6875 -1.421875 
Q 18.265625 -1.421875 13.375 4.4375 
Q 8.5 10.296875 8.5 21.578125 
z
M 31.109375 56 
z
" id="DejaVuSans-75"/>
      <path d="M 18.3125 70.21875 
L 18.3125 54.6875 
L 36.8125 54.6875 
L 36.8125 47.703125 
L 18.3125 47.703125 
L 18.3125 18.015625 
Q 18.3125 11.328125 20.140625 9.421875 
Q 21.96875 7.515625 27.59375 7.515625 
L 36.8125 7.515625 
L 36.8125 0 
L 27.59375 0 
Q 17.1875 0 13.234375 3.875 
Q 9.28125 7.765625 9.28125 18.015625 
L 9.28125 47.703125 
L 2.6875 47.703125 
L 2.6875 54.6875 
L 9.28125 54.6875 
L 9.28125 70.21875 
z
" id="DejaVuSans-74"/>
      <path d="M 30.609375 48.390625 
Q 23.390625 48.390625 19.1875 42.75 
Q 14.984375 37.109375 14.984375 27.296875 
Q 14.984375 17.484375 19.15625 11.84375 
Q 23.34375 6.203125 30.609375 6.203125 
Q 37.796875 6.203125 41.984375 11.859375 
Q 46.1875 17.53125 46.1875 27.296875 
Q 46.1875 37.015625 41.984375 42.703125 
Q 37.796875 48.390625 30.609375 48.390625 
z
M 30.609375 56 
Q 42.328125 56 49.015625 48.375 
Q 55.71875 40.765625 55.71875 27.296875 
Q 55.71875 13.875 49.015625 6.21875 
Q 42.328125 -1.421875 30.609375 -1.421875 
Q 18.84375 -1.421875 12.171875 6.21875 
Q 5.515625 13.875 5.515625 27.296875 
Q 5.515625 40.765625 12.171875 48.375 
Q 18.84375 56 30.609375 56 
z
" id="DejaVuSans-6f"/>
      <path d="M 48.78125 52.59375 
L 48.78125 44.1875 
Q 44.96875 46.296875 41.140625 47.34375 
Q 37.3125 48.390625 33.40625 48.390625 
Q 24.65625 48.390625 19.8125 42.84375 
Q 14.984375 37.3125 14.984375 27.296875 
Q 14.984375 17.28125 19.8125 11.734375 
Q 24.65625 6.203125 33.40625 6.203125 
Q 37.3125 6.203125 41.140625 7.25 
Q 44.96875 8.296875 48.78125 10.40625 
L 48.78125 2.09375 
Q 45.015625 0.34375 40.984375 -0.53125 
Q 36.96875 -1.421875 32.421875 -1.421875 
Q 20.0625 -1.421875 12.78125 6.34375 
Q 5.515625 14.109375 5.515625 27.296875 
Q 5.515625 40.671875 12.859375 48.328125 
Q 20.21875 56 33.015625 56 
Q 37.15625 56 41.109375 55.140625 
Q 45.0625 54.296875 48.78125 52.59375 
z
" id="DejaVuSans-63"/>
      <path d="M 41.109375 46.296875 
Q 39.59375 47.171875 37.8125 47.578125 
Q 36.03125 48 33.890625 48 
Q 26.265625 48 22.1875 43.046875 
Q 18.109375 38.09375 18.109375 28.8125 
L 18.109375 0 
L 9.078125 0 
L 9.078125 54.6875 
L 18.109375 54.6875 
L 18.109375 46.1875 
Q 20.953125 51.171875 25.484375 53.578125 
Q 30.03125 56 36.53125 56 
Q 37.453125 56 38.578125 55.875 
Q 39.703125 55.765625 41.0625 55.515625 
z
" id="DejaVuSans-72"/>
      <path d="M 56.203125 29.59375 
L 56.203125 25.203125 
L 14.890625 25.203125 
Q 15.484375 15.921875 20.484375 11.0625 
Q 25.484375 6.203125 34.421875 6.203125 
Q 39.59375 6.203125 44.453125 7.46875 
Q 49.3125 8.734375 54.109375 11.28125 
L 54.109375 2.78125 
Q 49.265625 0.734375 44.1875 -0.34375 
Q 39.109375 -1.421875 33.890625 -1.421875 
Q 20.796875 -1.421875 13.15625 6.1875 
Q 5.515625 13.8125 5.515625 26.8125 
Q 5.515625 40.234375 12.765625 48.109375 
Q 20.015625 56 32.328125 56 
Q 43.359375 56 49.78125 48.890625 
Q 56.203125 41.796875 56.203125 29.59375 
z
M 47.21875 32.234375 
Q 47.125 39.59375 43.09375 43.984375 
Q 39.0625 48.390625 32.421875 48.390625 
Q 24.90625 48.390625 20.390625 44.140625 
Q 15.875 39.890625 15.1875 32.171875 
z
" id="DejaVuSans-65"/>
      <path d="M 9.421875 75.984375 
L 18.40625 75.984375 
L 18.40625 0 
L 9.421875 0 
z
" id="DejaVuSans-6c"/>
      <path d="M 9.421875 54.6875 
L 18.40625 54.6875 
L 18.40625 0 
L 9.421875 0 
z
M 9.421875 75.984375 
L 18.40625 75.984375 
L 18.40625 64.59375 
L 9.421875 64.59375 
z
" id="DejaVuSans-69"/>
      <path d="M 54.890625 33.015625 
L 54.890625 0 
L 45.90625 0 
L 45.90625 32.71875 
Q 45.90625 40.484375 42.875 44.328125 
Q 39.84375 48.1875 33.796875 48.1875 
Q 26.515625 48.1875 22.3125 43.546875 
Q 18.109375 38.921875 18.109375 30.90625 
L 18.109375 0 
L 9.078125 0 
L 9.078125 54.6875 
L 18.109375 54.6875 
L 18.109375 46.1875 
Q 21.34375 51.125 25.703125 53.5625 
Q 30.078125 56 35.796875 56 
Q 45.21875 56 50.046875 50.171875 
Q 54.890625 44.34375 54.890625 33.015625 
z
" id="DejaVuSans-6e"/>
     </defs>
     <g transform="translate(13.875 213.160812)rotate(-90)scale(0.1 -0.1)">
      <use xlink:href="#DejaVuSans-41"/>
      <use x="68.408203" xlink:href="#DejaVuSans-75"/>
      <use x="131.787109" xlink:href="#DejaVuSans-74"/>
      <use x="170.996094" xlink:href="#DejaVuSans-6f"/>
      <use x="232.177734" xlink:href="#DejaVuSans-63"/>
      <use x="287.158203" xlink:href="#DejaVuSans-6f"/>
      <use x="348.339844" xlink:href="#DejaVuSans-72"/>
      <use x="389.4375" xlink:href="#DejaVuSans-72"/>
      <use x="430.519531" xlink:href="#DejaVuSans-65"/>
      <use x="492.042969" xlink:href="#DejaVuSans-6c"/>
      <use x="519.826172" xlink:href="#DejaVuSans-61"/>
      <use x="581.105469" xlink:href="#DejaVuSans-74"/>
      <use x="620.314453" xlink:href="#DejaVuSans-69"/>
      <use x="648.097656" xlink:href="#DejaVuSans-6f"/>
      <use x="709.279297" xlink:href="#DejaVuSans-6e"/>
     </g>
    </g>
   </g>
   <g id="line2d_37">
    <path clip-path="url(#pe515728e52)" d="M 57.6 172.814352 
L 414.72 172.814352 
" style="fill:none;stroke:#808080;stroke-dasharray:5.55,2.4;stroke-dashoffset:0;stroke-width:1.5;"/>
   </g>
   <g id="line2d_38">
    <path clip-path="url(#pe515728e52)" d="M 57.6 173.224075 
L 414.72 173.224075 
" style="fill:none;stroke:#808080;stroke-linecap:square;stroke-width:1.5;"/>
   </g>
   <g id="line2d_39">
    <path clip-path="url(#pe515728e52)" d="M 57.6 174.528 
L 414.72 174.528 
" style="fill:none;stroke:#000000;stroke-linecap:square;stroke-width:1.5;"/>
   </g>
   <g id="line2d_40">
    <path clip-path="url(#pe515728e52)" d="M 57.6 175.831925 
L 414.72 175.831925 
" style="fill:none;stroke:#808080;stroke-linecap:square;stroke-width:1.5;"/>
   </g>
   <g id="line2d_41">
    <path clip-path="url(#pe515728e52)" d="M 57.6 176.241648 
L 414.72 176.241648 
" style="fill:none;stroke:#808080;stroke-dasharray:5.55,2.4;stroke-dashoffset:0;stroke-width:1.5;"/>
   </g>
   <g id="line2d_42">
    <path clip-path="url(#pe515728e52)" d="M 57.6 53.296223 
L 57.716067 221.263307 
L 57.787493 192.554538 
L 57.867847 169.7491 
L 57.921416 175.882709 
L 57.966057 180.274443 
L 58.010698 175.472686 
L 58.037483 169.583964 
L 58.126765 174.160965 
L 58.216047 175.800281 
L 58.269617 174.935005 
L 58.349971 174.058565 
L 58.40354 174.241639 
L 58.528535 174.741334 
L 58.582105 174.636298 
L 58.680315 174.474122 
L 58.733884 174.522198 
L 58.903521 174.530311 
L 59.224937 174.531129 
L 65.53719 174.661689 
L 65.581832 174.717791 
L 65.626473 174.621402 
L 65.760396 174.089102 
L 65.805037 174.302569 
L 65.894319 175.641402 
L 65.947889 174.859043 
L 66.072884 169.809611 
L 66.081812 172.09031 
L 66.14431 181.659588 
L 66.197879 175.751507 
L 66.251448 170.49749 
L 66.287161 176.115575 
L 66.385372 216.481015 
L 66.430013 195.996853 
L 66.519295 50.681125 
L 66.572864 157.645629 
L 66.64429 225.183142 
L 66.697859 200.628727 
L 66.787142 166.368104 
L 66.849639 173.836289 
L 66.903209 179.013786 
L 66.94785 173.147327 
L 66.965706 169.465318 
L 67.04606 174.17392 
L 67.135342 176.1074 
L 67.188912 175.192009 
L 67.269266 174.004675 
L 67.331763 174.234526 
L 67.456758 174.748306 
L 67.510328 174.625921 
L 67.59961 174.460984 
L 67.653179 174.509843 
L 67.822816 174.537876 
L 68.072806 174.534575 
L 69.313829 174.530565 
L 74.349347 174.492621 
L 74.429701 174.567329 
L 74.510055 174.697118 
L 74.554696 174.59924 
L 74.688619 174.137387 
L 74.73326 174.335224 
L 74.822543 175.527677 
L 74.876112 174.737627 
L 75.001107 170.248144 
L 75.010035 172.462052 
L 75.072533 181.398159 
L 75.126102 175.435696 
L 75.170743 170.661697 
L 75.215384 176.433921 
L 75.313595 213.056743 
L 75.358236 191.465692 
L 75.447518 60.127161 
L 75.492159 148.257584 
L 75.563585 223.968269 
L 75.626083 195.642341 
L 75.706437 165.124132 
L 75.768934 172.764324 
L 75.822504 179.574043 
L 75.876073 173.149324 
L 75.893929 169.391266 
L 75.974283 174.392889 
L 76.054637 176.193925 
L 76.108207 175.322247 
L 76.197489 173.930981 
L 76.251058 174.184869 
L 76.376053 174.779358 
L 76.429623 174.658567 
L 76.518905 174.446154 
L 76.581403 174.508971 
L 76.742111 174.543462 
L 76.965316 174.539226 
L 77.911708 174.530882 
L 83.393637 174.647122 
L 83.438278 174.677452 
L 83.482919 174.579986 
L 83.625771 174.186682 
L 83.661484 174.368357 
L 83.750766 175.435113 
L 83.795407 174.838856 
L 83.92933 170.681156 
L 83.938258 172.778301 
L 83.991828 180.894771 
L 84.054325 174.822991 
L 84.098966 170.556906 
L 84.143608 176.601438 
L 84.241818 209.758775 
L 84.286459 187.419773 
L 84.375741 69.798849 
L 84.420383 156.931386 
L 84.48288 222.084957 
L 84.545378 196.434605 
L 84.63466 164.126269 
L 84.688229 171.713587 
L 84.750727 180.113372 
L 84.804296 173.090517 
L 84.822153 169.296511 
L 84.902507 174.536818 
L 84.982861 176.223523 
L 85.03643 175.269256 
L 85.116784 173.885115 
L 85.179281 174.195319 
L 85.304277 174.794247 
L 85.348918 174.685422 
L 85.447128 174.43815 
L 85.500698 174.502239 
L 85.661406 174.547332 
L 85.884611 174.540804 
L 86.813146 174.53107 
L 92.304004 174.604657 
L 92.357573 174.665386 
L 92.402214 174.589606 
L 92.553994 174.228129 
L 92.580779 174.325803 
L 92.678989 175.349696 
L 92.72363 174.756719 
L 92.857553 171.064826 
L 92.866482 173.044337 
L 92.920051 180.431315 
L 92.982549 174.270216 
L 93.02719 170.557142 
L 93.071831 176.858679 
L 93.161113 206.696593 
L 93.205754 191.738299 
L 93.303965 79.132446 
L 93.339677 147.228904 
L 93.411103 220.184013 
L 93.473601 191.644983 
L 93.553955 163.494804 
L 93.607524 170.684547 
L 93.67895 180.562846 
L 93.723591 174.907697 
L 93.750376 169.182668 
L 93.83073 174.6083 
L 93.911084 176.245066 
L 93.955725 175.525244 
L 94.045007 173.848207 
L 94.107505 174.208251 
L 94.2325 174.79887 
L 94.277141 174.682388 
L 94.375351 174.436248 
L 94.428921 174.505056 
L 94.580701 174.552389 
L 94.812834 174.541286 
L 95.6878 174.53111 
L 101.375078 174.456593 
L 101.482217 174.263796 
L 101.509002 174.354719 
L 101.598284 175.277565 
L 101.651853 174.686189 
L 101.785777 171.397316 
L 101.794705 173.261745 
L 101.848274 179.97963 
L 101.901844 175.011381 
L 101.955413 170.688849 
L 101.991126 174.951118 
L 102.089336 204.095787 
L 102.133977 188.270972 
L 102.232188 87.985367 
L 102.267901 154.82006 
L 102.330398 217.964496 
L 102.392896 192.609348 
L 102.47325 163.275535 
L 102.535747 171.606089 
L 102.598245 180.848513 
L 102.651814 174.700541 
L 102.678599 169.04218 
L 102.758953 174.666192 
L 102.839307 176.270889 
L 102.883948 175.551073 
L 102.97323 173.811008 
L 103.035728 174.212656 
L 103.151795 174.807574 
L 103.205364 174.683237 
L 103.294646 174.432759 
L 103.357144 174.505435 
L 103.508924 174.553018 
L 103.732129 174.543013 
L 104.776731 174.530907 
L 110.169378 174.610775 
L 110.214019 174.635796 
L 110.25866 174.563037 
L 110.41044 174.294871 
L 110.437225 174.380407 
L 110.526507 175.207102 
L 110.580077 174.624473 
L 110.714 171.687314 
L 110.722928 173.439819 
L 110.776497 179.55436 
L 110.830067 174.601278 
L 110.874708 170.851248 
L 110.919349 175.419386 
L 111.017559 201.57171 
L 111.062201 185.100811 
L 111.160411 96.393717 
L 111.196124 161.464079 
L 111.258621 215.620471 
L 111.321119 188.35675 
L 111.401473 163.280937 
L 111.455042 170.731153 
L 111.526468 181.077736 
L 111.580038 174.40627 
L 111.606822 168.901054 
L 111.687176 174.731981 
L 111.76753 176.29212 
L 111.812171 175.572117 
L 111.901454 173.772589 
L 111.963951 174.21521 
L 112.080018 174.81191 
L 112.124659 174.718204 
L 112.22287 174.430644 
L 112.285367 174.506641 
L 112.437147 174.552958 
L 112.660353 174.543363 
L 113.651385 174.531077 
L 119.240453 174.447626 
L 119.338663 174.323849 
L 119.365448 174.404599 
L 119.45473 175.137086 
L 119.499371 174.713659 
L 119.642223 171.945703 
L 119.651151 173.593754 
L 119.704721 179.169143 
L 119.75829 174.275928 
L 119.802931 171.103952 
L 119.847572 175.917013 
L 119.945783 199.074889 
L 119.981496 188.078059 
L 120.088634 104.434956 
L 120.115419 151.711237 
L 120.177916 213.286724 
L 120.240414 189.311278 
L 120.320768 163.570593 
L 120.383266 171.762114 
L 120.454691 181.122486 
L 120.499332 175.904791 
L 120.535045 168.776418 
L 120.615399 174.816819 
L 120.695753 176.309325 
L 120.740395 175.559364 
L 120.829677 173.741717 
L 120.892174 174.220337 
L 121.008241 174.816305 
L 121.052882 174.709691 
L 121.151093 174.4305 
L 121.21359 174.510578 
L 121.36537 174.55219 
L 121.588576 174.54317 
L 122.579608 174.531232 
L 128.186533 174.430042 
L 128.266887 174.351663 
L 128.293671 174.427949 
L 128.382954 175.06761 
L 128.427595 174.655481 
L 128.570446 172.18274 
L 128.579374 173.730511 
L 128.632944 178.807246 
L 128.686513 174.019576 
L 128.731154 171.420438 
L 128.766867 174.712804 
L 128.865078 196.838281 
L 128.909719 185.205629 
L 129.007929 111.559284 
L 129.043642 157.812851 
L 129.10614 210.891379 
L 129.168637 185.438231 
L 129.248991 164.086349 
L 129.302561 171.096901 
L 129.382915 181.015171 
L 129.427556 175.476574 
L 129.463269 168.677759 
L 129.534694 174.573663 
L 129.623977 176.327718 
L 129.668618 175.514868 
L 129.7579 173.718614 
L 129.820398 174.230614 
L 129.927536 174.826538 
L 129.972177 174.73182 
L 130.079316 174.432583 
L 130.132885 174.502242 
L 130.293593 174.550837 
L 130.516799 174.542776 
L 131.489975 174.531214 
L 137.132612 174.42 
L 137.19511 174.377484 
L 137.221895 174.450993 
L 137.311177 174.998143 
L 137.355818 174.600222 
L 137.498669 172.403033 
L 137.507598 173.853926 
L 137.552239 178.485571 
L 137.614736 173.820799 
L 137.650449 171.702534 
L 137.69509 175.235422 
L 137.793301 194.599141 
L 137.837942 182.529766 
L 137.936152 118.341029 
L 137.971865 163.245404 
L 138.025435 208.618141 
L 138.087932 186.054534 
L 138.168286 164.659708 
L 138.221856 170.657793 
L 138.30221 180.893618 
L 138.355779 175.000505 
L 138.391492 168.579482 
L 138.462918 174.675254 
L 138.543272 176.349814 
L 138.587913 175.726922 
L 138.686123 173.696556 
L 138.748621 174.244385 
L 138.855759 174.835916 
L 138.900401 174.716065 
L 138.998611 174.433252 
L 139.061109 174.508565 
L 139.221817 174.549476 
L 139.445022 174.54228 
L 140.436055 174.531184 
L 146.060836 174.432151 
L 146.123333 174.40068 
L 146.150118 174.472407 
L 146.230472 174.938025 
L 146.275113 174.655479 
L 146.426893 172.608813 
L 146.435821 173.971751 
L 146.480462 178.206156 
L 146.54296 173.674327 
L 146.578672 172.026678 
L 146.623314 175.716827 
L 146.712596 192.327684 
L 146.757237 184.278633 
L 146.864376 124.902279 
L 146.900089 168.020524 
L 146.953658 206.354297 
L 147.016155 182.356491 
L 147.087581 165.375936 
L 147.150079 171.860315 
L 147.230433 180.665763 
L 147.275074 176.099021 
L 147.319715 168.493461 
L 147.391141 174.785553 
L 147.471495 176.366114 
L 147.516136 175.683658 
L 147.605418 173.67185 
L 147.667916 174.155601 
L 147.775054 174.846872 
L 147.819695 174.736607 
L 147.926834 174.43715 
L 147.980404 174.500048 
L 148.141112 174.553558 
L 148.373245 174.541951 
L 149.444632 174.530984 
L 155.024772 174.413446 
L 155.069413 174.459492 
L 155.078341 174.491899 
L 155.158695 174.879293 
L 155.203336 174.597297 
L 155.355116 172.795809 
L 155.408685 177.939419 
L 155.471183 173.567814 
L 155.497967 172.344896 
L 155.542609 174.913596 
L 155.640819 190.217815 
L 155.68546 181.822699 
L 155.792599 131.226064 
L 155.819383 159.472881 
L 155.872953 204.317741 
L 155.93545 182.563736 
L 156.006876 166.183623 
L 156.069374 171.784361 
L 156.149728 180.29102 
L 156.203297 175.439815 
L 156.247938 168.433836 
L 156.310436 174.456066 
L 156.39079 176.380902 
L 156.435431 175.867342 
L 156.533641 173.643839 
L 156.596139 174.170952 
L 156.694349 174.861772 
L 156.747919 174.719606 
L 156.846129 174.437662 
L 156.899698 174.49429 
L 157.069335 174.552069 
L 157.301469 174.541633 
L 158.435353 174.531301 
L 163.944067 174.432534 
L 163.988708 174.454257 
L 164.006564 174.508394 
L 164.086918 174.823651 
L 164.122631 174.627953 
L 164.283339 172.967169 
L 164.336908 177.677935 
L 164.390478 174.140897 
L 164.426191 172.603359 
L 164.470832 175.361735 
L 164.569042 188.0901 
L 164.613683 179.662413 
L 164.711894 137.064498 
L 164.747607 164.061215 
L 164.801176 202.209728 
L 164.863674 179.041272 
L 164.926171 166.921392 
L 164.988669 171.991111 
L 165.077951 179.897984 
L 165.122592 176.210388 
L 165.176161 168.411752 
L 165.238659 174.599728 
L 165.319013 176.397909 
L 165.363654 175.795975 
L 165.461865 173.624098 
L 165.524362 174.1933 
L 165.622573 174.876037 
L 165.667214 174.740605 
L 165.765424 174.438798 
L 165.827922 174.503283 
L 165.997558 174.550369 
L 166.229692 174.541175 
L 167.488571 174.530869 
L 172.952644 174.59862 
L 173.006213 174.780802 
L 173.050854 174.570785 
L 173.211562 173.121686 
L 173.265132 177.442221 
L 173.318701 174.042166 
L 173.354414 172.883503 
L 173.399055 175.716532 
L 173.488337 186.108456 
L 173.532978 180.560612 
L 173.640117 142.471673 
L 173.67583 168.12358 
L 173.720471 200.123331 
L 173.791897 175.904581 
L 173.845466 167.602602 
L 173.907964 172.440283 
L 173.997246 179.3176 
L 174.041887 176.683618 
L 174.104385 168.429141 
L 174.157954 174.175534 
L 174.238308 176.418451 
L 174.282949 175.933091 
L 174.390088 173.602954 
L 174.452585 174.223609 
L 174.541868 174.896197 
L 174.595437 174.719473 
L 174.684719 174.437384 
L 174.747217 174.500748 
L 174.916853 174.553577 
L 175.157915 174.54083 
L 176.48822 174.532089 
L 178.764917 174.530172 
L 181.559451 174.552419 
L 181.702303 174.509436 
L 181.863011 174.533195 
L 181.871939 174.566671 
L 181.934436 174.741604 
L 181.970149 174.58712 
L 182.139785 173.261384 
L 182.193355 177.221522 
L 182.246924 173.975435 
L 182.273709 173.083831 
L 182.31835 175.08762 
L 182.41656 184.265902 
L 182.461202 178.79825 
L 182.56834 147.59913 
L 182.595125 161.158734 
L 182.648694 198.098694 
L 182.711192 175.746111 
L 182.764761 168.109136 
L 182.827259 173.057298 
L 182.925469 178.717489 
L 182.961182 176.899375 
L 183.032608 168.506365 
L 183.086177 174.372774 
L 183.157603 176.425181 
L 183.211172 175.831486 
L 183.318311 173.591983 
L 183.380809 174.265375 
L 183.461163 174.911859 
L 183.514732 174.73917 
L 183.612942 174.43733 
L 183.666512 174.499332 
L 183.845076 174.550881 
L 184.095066 174.53954 
L 185.407515 174.530947 
L 190.800162 174.567558 
L 190.853731 174.714883 
L 190.898372 174.548254 
L 191.068009 173.392857 
L 191.121578 177.024852 
L 191.175147 173.941959 
L 191.201932 173.26469 
L 191.246573 175.265011 
L 191.335855 182.544932 
L 191.380497 179.158448 
L 191.487635 152.183029 
L 191.523348 165.104868 
L 191.567989 195.791271 
L 191.639415 172.993563 
L 191.675128 168.462414 
L 191.746554 173.801402 
L 191.844764 177.957354 
L 191.880477 176.809522 
L 191.960831 168.651497 
L 192.0144 174.598658 
L 192.076898 176.432475 
L 192.139395 175.713535 
L 192.237606 173.578762 
L 192.300104 174.186239 
L 192.389386 174.926209 
L 192.442955 174.706993 
L 192.532237 174.434303 
L 192.585807 174.497996 
L 192.764371 174.552201 
L 193.032218 174.538216 
L 194.353595 174.531037 
L 197.907028 174.530665 
L 199.746242 174.621332 
L 199.781955 174.685909 
L 199.826596 174.526074 
L 199.996232 173.520501 
L 200.040873 176.829848 
L 200.103371 173.90948 
L 200.130155 173.404998 
L 200.174796 175.31142 
L 200.264079 181.082624 
L 200.30872 177.836609 
L 200.415858 156.311172 
L 200.451571 168.424407 
L 200.496212 193.901751 
L 200.55871 172.875972 
L 200.594423 168.407728 
L 200.65692 173.661575 
L 200.728346 177.197768 
L 200.790844 176.847036 
L 200.871198 169.903627 
L 200.889054 168.859454 
L 200.924767 173.180411 
L 201.005121 176.407902 
L 201.05869 175.791298 
L 201.165829 173.583678 
L 201.228327 174.243508 
L 201.308681 174.933684 
L 201.36225 174.720835 
L 201.451532 174.432762 
L 201.505102 174.498318 
L 201.674738 174.555983 
L 202.01401 174.534015 
L 205.513874 174.530847 
L 208.763747 174.469768 
L 208.79946 174.349367 
L 208.861958 174.528323 
L 208.89767 174.177345 
L 208.924455 173.635856 
L 208.942312 175.284894 
L 208.969096 176.643994 
L 209.031594 173.876928 
L 209.04945 173.478637 
L 209.094091 174.752529 
L 209.192302 179.812659 
L 209.236943 176.806068 
L 209.335153 159.920231 
L 209.379794 171.102068 
L 209.424436 191.855061 
L 209.486933 170.635257 
L 209.513718 168.217413 
L 209.567287 173.459231 
L 209.629785 177.352667 
L 209.701211 176.200509 
L 209.736923 175.393555 
L 209.817277 169.111805 
L 209.861919 174.294037 
L 209.924416 176.384414 
L 209.986914 175.656986 
L 210.094052 173.594629 
L 210.15655 174.307578 
L 210.227976 174.941313 
L 210.290473 174.680231 
L 210.370827 174.428624 
L 210.424397 174.498469 
L 210.594033 174.553871 
L 211.022588 174.533333 
L 217.69197 174.481093 
L 217.727683 174.386618 
L 217.790181 174.54139 
L 217.825894 174.21023 
L 217.852678 173.741144 
L 217.870535 175.246414 
L 217.897319 176.446779 
L 217.959817 173.788113 
L 217.977673 173.477392 
L 218.022315 174.718221 
L 218.120525 178.82206 
L 218.156238 177.038006 
L 218.263377 162.835404 
L 218.299089 166.118947 
L 218.343731 190.039797 
L 218.406228 170.81966 
L 218.433013 167.903694 
L 218.49551 175.101112 
L 218.540152 177.641528 
L 218.602649 175.612215 
L 218.709788 171.883702 
L 218.745501 169.390797 
L 218.790142 174.479462 
L 218.843711 176.334404 
L 218.906209 175.67798 
L 219.022276 173.625259 
L 219.084773 174.37671 
L 219.156199 174.94483 
L 219.209768 174.688819 
L 219.290122 174.423471 
L 219.343692 174.49985 
L 219.495471 174.553256 
L 220.147232 174.532657 
L 226.539839 174.594738 
L 226.575552 174.615177 
L 226.611265 174.532221 
L 226.780902 173.848062 
L 226.825543 176.230304 
L 226.88804 173.631926 
L 226.905897 173.41388 
L 226.94161 174.322911 
L 227.03982 178.136836 
L 227.084461 176.429186 
L 227.1916 165.097987 
L 227.227313 168.119134 
L 227.271954 188.634689 
L 227.334451 169.440941 
L 227.352308 167.792138 
L 227.405877 174.414531 
L 227.459446 177.74765 
L 227.513016 175.365932 
L 227.673724 169.647828 
L 227.69158 171.806701 
L 227.763006 176.292816 
L 227.825504 175.672184 
L 227.941571 173.659098 
L 228.012996 174.442865 
L 228.075494 174.958535 
L 228.129063 174.701961 
L 228.209417 174.414129 
L 228.262987 174.501512 
L 228.405838 174.550743 
L 228.923675 174.533734 
L 235.664484 174.457589 
L 235.709125 173.941995 
L 235.718053 174.56323 
L 235.753766 175.960413 
L 235.807335 173.696264 
L 235.825192 173.326209 
L 235.878761 174.801113 
L 235.968043 177.706999 
L 236.012684 176.025569 
L 236.110895 166.600118 
L 236.155536 169.243664 
L 236.200177 187.396571 
L 236.262675 168.819477 
L 236.271603 167.990952 
L 236.316244 172.892453 
L 236.378741 177.509748 
L 236.432311 175.14767 
L 236.601947 169.893044 
L 236.512665 175.345109 
L 236.610875 170.929074 
L 236.691229 176.259858 
L 236.753727 175.517557 
L 236.869794 173.711792 
L 236.932291 174.36112 
L 236.994789 174.964325 
L 237.057286 174.657258 
L 237.128712 174.402041 
L 237.182282 174.503727 
L 237.271564 174.572554 
L 237.316205 174.550383 
L 237.664406 174.533838 
L 240.95892 174.530622 
L 244.592707 174.467615 
L 244.637348 173.993596 
L 244.646276 174.567115 
L 244.681989 175.772002 
L 244.735558 173.571342 
L 244.753415 173.344781 
L 244.789128 174.286762 
L 244.896266 177.379388 
L 244.931979 176.335999 
L 245.039118 167.530586 
L 245.083759 169.835613 
L 245.1284 186.389288 
L 245.190898 168.724776 
L 245.199826 168.221316 
L 245.235539 172.249798 
L 245.298036 177.100588 
L 245.360534 174.909654 
L 245.53017 170.133205 
L 245.440888 175.456467 
L 245.539098 171.150804 
L 245.619452 176.241071 
L 245.68195 175.373462 
L 245.798017 173.771896 
L 245.851586 174.278786 
L 245.923012 174.966196 
L 245.976581 174.687011 
L 246.048007 174.386651 
L 246.101577 174.500415 
L 246.173002 174.587675 
L 246.2355 174.547785 
L 246.494418 174.539684 
L 250.092492 174.530788 
L 253.52093 174.469763 
L 253.565571 174.034525 
L 253.574499 174.60391 
L 253.610212 175.741642 
L 253.663782 173.607277 
L 253.67271 173.468182 
L 253.717351 174.458331 
L 253.82449 177.066837 
L 253.860203 176.018232 
L 253.967341 168.3495 
L 254.011982 170.403439 
L 254.056623 185.360889 
L 254.119121 168.884246 
L 254.128049 168.663869 
L 254.145906 170.290128 
L 254.217331 176.652471 
L 254.279829 175.210791 
L 254.458393 170.364274 
L 254.369111 175.436717 
L 254.467322 171.366878 
L 254.538747 176.25659 
L 254.610173 175.240893 
L 254.72624 173.833826 
L 254.779809 174.336392 
L 254.851235 174.959674 
L 254.904805 174.657661 
L 254.967302 174.371719 
L 255.0298 174.515039 
L 255.092297 174.599966 
L 255.154795 174.546283 
L 255.351216 174.53768 
L 257.502918 174.534588 
L 257.940401 174.528969 
L 260.449231 174.530992 
L 262.449153 174.47575 
L 262.493794 174.082947 
L 262.502723 174.618692 
L 262.529507 175.647857 
L 262.592005 173.664358 
L 262.600933 173.581912 
L 262.627718 174.051532 
L 262.752713 176.762164 
L 262.788426 175.748975 
L 262.895564 169.169609 
L 262.940206 170.940079 
L 262.984847 184.225892 
L 263.047344 169.160717 
L 263.056272 169.20174 
L 263.136626 176.233228 
L 263.225909 174.746416 
L 263.243765 174.607089 
L 263.288406 175.371113 
L 263.297334 175.377659 
L 263.341976 173.034384 
L 263.386617 170.590069 
L 263.42233 174.412772 
L 263.466971 176.285522 
L 263.538396 175.127239 
L 263.645535 173.888276 
L 263.699104 174.272179 
L 263.77053 174.945241 
L 263.833028 174.630759 
L 263.895525 174.363367 
L 263.958023 174.527192 
L 264.011592 174.610422 
L 264.07409 174.54817 
L 264.234798 174.539118 
L 269.806009 174.530941 
L 271.386305 174.422154 
L 271.422018 174.126823 
L 271.430946 174.634086 
L 271.45773 175.576757 
L 271.520228 173.730661 
L 271.529156 173.698137 
L 271.547013 173.983881 
L 271.672008 176.46441 
L 271.707721 175.88087 
L 271.823788 169.946078 
L 271.868429 171.465943 
L 271.904142 183.201967 
L 271.966639 170.073928 
L 271.975567 169.530702 
L 272.01128 173.163063 
L 272.055921 175.978409 
L 272.136275 175.163715 
L 272.216629 175.310539 
L 272.296983 171.217751 
L 272.31484 170.829475 
L 272.332696 172.774799 
L 272.395194 176.279629 
L 272.457691 175.194586 
L 272.573758 173.927381 
L 272.618399 174.219773 
L 272.698753 174.931225 
L 272.761251 174.60406 
L 272.823749 174.363024 
L 272.877318 174.509358 
L 272.939815 174.614531 
L 273.002313 174.542431 
L 273.154093 174.541645 
L 277.082511 174.531207 
L 279.948471 174.524784 
L 280.323456 174.36412 
L 280.350241 174.167123 
L 280.359169 174.634987 
L 280.385954 175.490069 
L 280.448451 173.810771 
L 280.457379 173.810409 
L 280.600231 176.179492 
L 280.644872 175.279474 
L 280.752011 170.681158 
L 280.796652 171.945748 
L 280.832365 182.202669 
L 280.894862 170.244774 
L 280.903791 169.98429 
L 280.921647 171.464116 
L 280.975216 175.925141 
L 281.05557 175.237883 
L 281.162709 174.816649 
L 281.243063 171.10294 
L 281.269848 173.874752 
L 281.323417 176.265446 
L 281.385915 175.1076 
L 281.501982 173.960975 
L 281.537694 174.179814 
L 281.626977 174.918597 
L 281.680546 174.642506 
L 281.743044 174.361164 
L 281.805541 174.520694 
L 281.868039 174.616844 
L 281.921608 174.548671 
L 282.06446 174.543233 
L 283.448334 174.531829 
L 289.242751 174.437466 
L 289.278464 174.200339 
L 289.287392 174.62964 
L 289.314177 175.398855 
L 289.376674 173.89035 
L 289.403459 174.231036 
L 289.528454 175.911931 
L 289.555239 175.639253 
L 289.680234 171.344993 
L 289.724875 172.379234 
L 289.760588 181.217394 
L 289.823086 170.437768 
L 289.832014 170.445254 
L 289.894511 175.964864 
L 290.00165 175.358339 
L 290.073076 175.006601 
L 290.162358 171.357236 
L 290.198071 174.021915 
L 290.25164 176.229627 
L 290.314138 175.019053 
L 290.421277 173.99615 
L 290.465918 174.233767 
L 290.5552 174.899419 
L 290.608769 174.617772 
L 290.671267 174.361829 
L 290.724836 174.499138 
L 290.787334 174.621572 
L 290.849831 174.543467 
L 290.983755 174.54414 
L 291.626587 174.532274 
L 298.170974 174.4458 
L 298.206687 174.235067 
L 298.215615 174.631157 
L 298.2424 175.32944 
L 298.304898 173.963474 
L 298.340611 174.501566 
L 298.456677 175.655951 
L 298.483462 175.403827 
L 298.608457 171.949608 
L 298.653098 172.781727 
L 298.688811 180.276775 
L 298.751309 170.721247 
L 298.79595 175.221371 
L 298.813806 176.114365 
L 298.867376 174.371732 
L 298.903089 175.122603 
L 298.929873 175.588126 
L 298.992371 174.924346 
L 299.090581 171.592645 
L 299.126294 174.152721 
L 299.170935 176.1854 
L 299.242361 174.936357 
L 299.3495 174.033895 
L 299.385213 174.203892 
L 299.474495 174.881505 
L 299.536992 174.595686 
L 299.59949 174.365124 
L 299.653059 174.508177 
L 299.715557 174.622072 
L 299.769126 174.551966 
L 299.90305 174.543663 
L 300.286963 174.533658 
L 304.32252 174.531139 
L 305.706395 174.531009 
L 307.099197 174.453206 
L 307.13491 174.280195 
L 307.143839 174.638693 
L 307.170623 175.253726 
L 307.233121 174.014639 
L 307.384901 175.413748 
L 307.43847 174.590688 
L 307.53668 172.479028 
L 307.581322 173.143615 
L 307.617034 179.384877 
L 307.679532 171.090909 
L 307.74203 176.292084 
L 307.867025 175.796604 
L 307.983092 172.770225 
L 308.018804 171.869334 
L 308.045589 173.537932 
L 308.099158 176.148712 
L 308.170584 174.853212 
L 308.268795 174.063674 
L 308.313436 174.259095 
L 308.402718 174.863317 
L 308.456287 174.629088 
L 308.518785 174.367938 
L 308.581283 174.518531 
L 308.64378 174.621624 
L 308.697349 174.546966 
L 308.831273 174.545228 
L 309.206258 174.533525 
L 315.420302 174.530958 
L 316.027421 174.46516 
L 316.063134 174.330442 
L 316.072062 174.64191 
L 316.098846 175.153522 
L 316.161344 174.048672 
L 316.313124 175.213001 
L 316.357765 174.771345 
L 316.464904 172.907203 
L 316.509545 173.445636 
L 316.545258 178.60152 
L 316.598827 171.435749 
L 316.607755 171.488449 
L 316.661325 176.476883 
L 316.777391 175.948356 
L 316.78632 176.018876 
L 316.813104 175.451501 
L 316.947028 172.158737 
L 316.973812 173.693692 
L 317.027382 176.06993 
L 317.089879 174.951469 
L 317.18809 174.099122 
L 317.232731 174.246325 
L 317.330941 174.836814 
L 317.384511 174.600965 
L 317.447008 174.374244 
L 317.500578 174.499246 
L 317.563075 174.621212 
L 317.625573 174.541066 
L 317.750568 174.542852 
L 318.027343 174.534402 
L 322.143254 174.53041 
L 324.937787 174.526037 
L 324.991357 174.372053 
L 325.000285 174.627104 
L 325.02707 175.020581 
L 325.080639 174.087681 
L 325.098495 174.179367 
L 325.250275 175.111119 
L 325.259203 175.081173 
L 325.348486 173.52845 
L 325.393127 173.217658 
L 325.437768 173.639859 
L 325.473481 178.03542 
L 325.52705 171.688714 
L 325.535978 171.918629 
L 325.589548 176.498743 
L 325.67883 174.999662 
L 325.714543 176.053108 
L 325.768112 174.29786 
L 325.875251 172.410293 
L 325.902036 173.808653 
L 325.955605 175.953261 
L 326.018102 174.882182 
L 326.116313 174.135169 
L 326.160954 174.294064 
L 326.250236 174.81224 
L 326.312734 174.576148 
L 326.375231 174.384226 
L 326.428801 174.512235 
L 326.491298 174.616757 
L 326.544868 174.547888 
L 326.678791 174.544503 
L 326.973422 174.533654 
L 330.830415 174.531167 
L 333.883867 174.489421 
L 333.91958 174.388013 
L 333.928508 174.588631 
L 333.955293 174.879438 
L 334.008862 174.126353 
L 334.053503 174.706692 
L 334.178498 175.107288 
L 334.187427 175.070977 
L 334.32135 173.405905 
L 334.365991 173.689115 
L 334.401704 177.683998 
L 334.455273 171.905563 
L 334.47313 173.027227 
L 334.508843 176.379932 
L 334.589197 174.043127 
L 334.633838 175.94748 
L 334.696335 174.182197 
L 334.803474 172.652085 
L 334.821331 173.300378 
L 334.883828 175.816239 
L 334.946326 174.818131 
L 335.044536 174.174686 
L 335.080249 174.28348 
L 335.178459 174.78813 
L 335.232029 174.599556 
L 335.294526 174.393644 
L 335.357024 174.526556 
L 335.419521 174.610781 
L 335.473091 174.539424 
L 335.598086 174.542838 
L 335.865933 174.534723 
L 338.633682 174.530905 
L 342.829947 174.438378 
L 342.847803 174.393758 
L 342.856731 174.59885 
L 342.883516 174.885014 
L 342.937085 174.162363 
L 342.946014 174.203168 
L 343.106722 175.022742 
L 343.11565 174.98998 
L 343.249573 173.532755 
L 343.294214 173.822244 
L 343.329927 177.357492 
L 343.383497 172.127832 
L 343.401353 173.251081 
L 343.437066 176.223716 
L 343.51742 174.163562 
L 343.562061 175.788734 
L 343.624559 174.166958 
L 343.731697 172.862059 
L 343.749554 173.460716 
L 343.812051 175.688154 
L 343.874549 174.772762 
L 343.963831 174.204598 
L 344.008472 174.316369 
L 344.106683 174.765848 
L 344.160252 174.578434 
L 344.22275 174.403764 
L 344.276319 174.512434 
L 344.338816 174.607195 
L 344.401314 174.53298 
L 344.526309 174.54411 
L 344.847725 174.532549 
L 351.776026 174.411033 
L 351.811739 174.842621 
L 351.865309 174.226821 
L 351.883165 174.358544 
L 352.026017 174.925464 
L 352.052801 174.835912 
L 352.177796 173.680771 
L 352.222438 173.928617 
L 352.25815 176.982991 
L 352.31172 172.455432 
L 352.329576 173.526656 
L 352.365289 176.05123 
L 352.445643 174.299961 
L 352.490284 175.604564 
L 352.552782 174.14009 
L 352.65992 173.060556 
L 352.677777 173.633523 
L 352.740275 175.585987 
L 352.802772 174.728625 
L 352.892054 174.226861 
L 352.936695 174.346907 
L 353.025978 174.748827 
L 353.088475 174.56144 
L 353.150973 174.414178 
L 353.204542 174.521465 
L 353.26704 174.600365 
L 353.320609 174.540181 
L 353.454532 174.543983 
L 353.856302 174.532136 
L 360.713178 174.576101 
L 360.739962 174.789067 
L 360.793532 174.289146 
L 360.820317 174.52691 
L 360.95424 174.857469 
L 360.981025 174.76815 
L 361.10602 173.82297 
L 361.150661 174.028194 
L 361.177445 176.595934 
L 361.239943 172.761314 
L 361.257799 173.733649 
L 361.293512 175.820789 
L 361.373866 174.388782 
L 361.418507 175.418582 
L 361.472077 174.277567 
L 361.588144 173.281363 
L 361.606 173.797833 
L 361.668498 175.459453 
L 361.730995 174.682973 
L 361.820278 174.262906 
L 361.864919 174.378944 
L 361.954201 174.721471 
L 362.00777 174.585392 
L 362.079196 174.428768 
L 362.132765 174.525752 
L 362.195263 174.591169 
L 362.248832 174.53732 
L 362.391684 174.544334 
L 363.400573 174.531449 
L 369.641401 174.572529 
L 369.668186 174.771851 
L 369.721755 174.326699 
L 369.757468 174.630959 
L 369.882463 174.771536 
L 369.918176 174.647898 
L 370.043171 173.971773 
L 370.078884 174.13917 
L 370.105669 176.219181 
L 370.168166 173.101525 
L 370.186023 173.963931 
L 370.221736 175.619606 
L 370.30209 174.480055 
L 370.337802 175.25203 
L 370.4003 174.271294 
L 370.516367 173.481566 
L 370.534223 173.945655 
L 370.596721 175.323077 
L 370.659218 174.64191 
L 370.739572 174.301742 
L 370.793142 174.410201 
L 370.882424 174.690274 
L 370.935993 174.572511 
L 371.007419 174.444567 
L 371.060989 174.527791 
L 371.132414 174.577271 
L 371.185984 174.527525 
L 371.346692 174.542325 
L 372.194873 174.531529 
L 378.569624 174.566217 
L 378.596409 174.736074 
L 378.649978 174.377375 
L 378.685691 174.626735 
L 378.712476 174.72457 
L 378.757117 174.612143 
L 378.801758 174.69739 
L 378.819614 174.703698 
L 378.846399 174.601775 
L 378.989251 174.106068 
L 379.007107 174.24618 
L 379.033892 175.814302 
L 379.096389 173.468878 
L 379.123174 174.675982 
L 379.149959 175.376125 
L 379.203528 174.092484 
L 379.230313 174.561415 
L 379.266026 175.086515 
L 379.328523 174.303617 
L 379.435662 173.704486 
L 379.364236 174.321893 
L 379.462447 174.099913 
L 379.516016 175.170263 
L 379.587442 174.597772 
L 379.658867 174.346816 
L 379.712437 174.417857 
L 379.810647 174.654587 
L 379.864217 174.558021 
L 379.935642 174.462636 
L 379.989212 174.530649 
L 380.069566 174.561282 
L 380.114207 174.526513 
L 380.328484 174.531215 
L 381.257019 174.531277 
L 387.506776 174.645338 
L 387.524632 174.713285 
L 387.578201 174.402343 
L 387.640699 174.695813 
L 387.765694 174.600248 
L 387.926402 174.22801 
L 387.93533 174.343899 
L 387.962115 175.428538 
L 388.015684 173.797539 
L 388.051397 174.731661 
L 388.069254 175.147299 
L 388.122823 174.219062 
L 388.158536 174.621043 
L 388.185321 174.913226 
L 388.247818 174.379542 
L 388.363885 173.925739 
L 388.292459 174.397229 
L 388.39067 174.255661 
L 388.444239 175.00518 
L 388.506737 174.617665 
L 388.587091 174.392503 
L 388.64066 174.45799 
L 388.73887 174.617759 
L 388.79244 174.543107 
L 388.863866 174.4816 
L 388.917435 174.533716 
L 389.060287 174.519468 
L 389.69419 174.531324 
L 396.426071 174.574743 
L 396.452855 174.688835 
L 396.506425 174.437488 
L 396.542138 174.619176 
L 396.559994 174.65826 
L 396.613563 174.522745 
L 396.640348 174.559725 
L 396.667133 174.593861 
L 396.711774 174.496093 
L 396.854625 174.348497 
L 396.890338 175.038336 
L 396.943908 174.143585 
L 396.997477 174.898304 
L 397.051046 174.32553 
L 397.193898 174.440272 
L 397.211754 174.464755 
L 397.247467 174.333644 
L 397.28318 174.167915 
L 397.327821 174.522952 
L 397.372462 174.816098 
L 397.43496 174.562619 
L 397.506386 174.442151 
L 397.559955 174.482589 
L 397.68495 174.567441 
L 397.729591 174.522368 
L 397.863515 174.543216 
L 398.176002 174.530328 
L 399.961647 174.531074 
L 405.37215 174.63064 
L 405.390007 174.61398 
L 405.407863 174.530311 
L 405.434648 174.470646 
L 405.479289 174.613527 
L 405.52393 174.502474 
L 405.577499 174.550834 
L 405.67571 174.490322 
L 405.800705 174.640119 
L 405.818561 174.726825 
L 405.872131 174.459727 
L 405.916772 174.672978 
L 406.104265 174.472865 
L 406.139977 174.49629 
L 406.22926 174.434685 
L 406.256044 174.555054 
L 406.291757 174.618921 
L 406.354255 174.533973 
L 406.497106 174.52177 
L 406.800666 174.534695 
L 412.514729 174.530617 
L 414.72 174.528 
L 414.72 174.528 
" style="fill:none;stroke:#1f77b4;stroke-linecap:square;stroke-width:1.5;"/>
   </g>
   <g id="patch_3">
    <path d="M 57.6 307.584 
L 57.6 41.472 
" style="fill:none;stroke:#000000;stroke-linecap:square;stroke-linejoin:miter;stroke-width:0.8;"/>
   </g>
   <g id="patch_4">
    <path d="M 414.72 307.584 
L 414.72 41.472 
" style="fill:none;stroke:#000000;stroke-linecap:square;stroke-linejoin:miter;stroke-width:0.8;"/>
   </g>
   <g id="patch_5">
    <path d="M 57.6 307.584 
L 414.72 307.584 
" style="fill:none;stroke:#000000;stroke-linecap:square;stroke-linejoin:miter;stroke-width:0.8;"/>
   </g>
   <g id="patch_6">
    <path d="M 57.6 41.472 
L 414.72 41.472 
" style="fill:none;stroke:#000000;stroke-linecap:square;stroke-linejoin:miter;stroke-width:0.8;"/>
   </g>
  </g>
 </g>
 <defs>
  <clipPath id="pe515728e52">
   <rect height="266.112" width="357.12" x="57.6" y="41.472"/>
  </clipPath>
 </defs>
</svg>
