<?xml version="1.0" encoding="utf-8" standalone="no"?>
<!DOCTYPE svg PUBLIC "-//W3C//DTD SVG 1.1//EN"
  "http://www.w3.org/Graphics/SVG/1.1/DTD/svg11.dtd">
<!-- Created with matplotlib (http://matplotlib.org/) -->
<svg height="345.6pt" version="1.1" viewBox="0 0 460.8 345.6" width="460.8pt" xmlns="http://www.w3.org/2000/svg" xmlns:xlink="http://www.w3.org/1999/xlink">
 <defs>
  <style type="text/css">
*{stroke-linecap:butt;stroke-linejoin:round;}
  </style>
 </defs>
 <g id="figure_1">
  <g id="patch_1">
   <path d="M 0 345.6 
L 460.8 345.6 
L 460.8 0 
L 0 0 
z
" style="fill:#ffffff;"/>
  </g>
  <g id="axes_1">
   <g id="patch_2">
    <path d="M 57.6 119.740235 
L 414.72 119.740235 
L 414.72 41.472 
L 57.6 41.472 
z
" style="fill:#ffffff;"/>
   </g>
   <g id="matplotlib.axis_1">
    <g id="xtick_1">
     <g id="line2d_1">
      <defs>
       <path d="M 0 0 
L 0 3.5 
" id="ma90a69b5be" style="stroke:#000000;stroke-width:0.8;"/>
      </defs>
      <g>
       <use style="stroke:#000000;stroke-width:0.8;" x="73.832727" xlink:href="#ma90a69b5be" y="119.740235"/>
      </g>
     </g>
     <g id="text_1">
      <!-- 0 -->
      <defs>
       <path d="M 31.78125 66.40625 
Q 24.171875 66.40625 20.328125 58.90625 
Q 16.5 51.421875 16.5 36.375 
Q 16.5 21.390625 20.328125 13.890625 
Q 24.171875 6.390625 31.78125 6.390625 
Q 39.453125 6.390625 43.28125 13.890625 
Q 47.125 21.390625 47.125 36.375 
Q 47.125 51.421875 43.28125 58.90625 
Q 39.453125 66.40625 31.78125 66.40625 
z
M 31.78125 74.21875 
Q 44.046875 74.21875 50.515625 64.515625 
Q 56.984375 54.828125 56.984375 36.375 
Q 56.984375 17.96875 50.515625 8.265625 
Q 44.046875 -1.421875 31.78125 -1.421875 
Q 19.53125 -1.421875 13.0625 8.265625 
Q 6.59375 17.96875 6.59375 36.375 
Q 6.59375 54.828125 13.0625 64.515625 
Q 19.53125 74.21875 31.78125 74.21875 
z
" id="DejaVuSans-30"/>
      </defs>
      <g transform="translate(70.651477 134.338673)scale(0.1 -0.1)">
       <use xlink:href="#DejaVuSans-30"/>
      </g>
     </g>
    </g>
    <g id="xtick_2">
     <g id="line2d_2">
      <g>
       <use style="stroke:#000000;stroke-width:0.8;" x="138.763636" xlink:href="#ma90a69b5be" y="119.740235"/>
      </g>
     </g>
     <g id="text_2">
      <!-- 10 -->
      <defs>
       <path d="M 12.40625 8.296875 
L 28.515625 8.296875 
L 28.515625 63.921875 
L 10.984375 60.40625 
L 10.984375 69.390625 
L 28.421875 72.90625 
L 38.28125 72.90625 
L 38.28125 8.296875 
L 54.390625 8.296875 
L 54.390625 0 
L 12.40625 0 
z
" id="DejaVuSans-31"/>
      </defs>
      <g transform="translate(132.401136 134.338673)scale(0.1 -0.1)">
       <use xlink:href="#DejaVuSans-31"/>
       <use x="63.623047" xlink:href="#DejaVuSans-30"/>
      </g>
     </g>
    </g>
    <g id="xtick_3">
     <g id="line2d_3">
      <g>
       <use style="stroke:#000000;stroke-width:0.8;" x="203.694545" xlink:href="#ma90a69b5be" y="119.740235"/>
      </g>
     </g>
     <g id="text_3">
      <!-- 20 -->
      <defs>
       <path d="M 19.1875 8.296875 
L 53.609375 8.296875 
L 53.609375 0 
L 7.328125 0 
L 7.328125 8.296875 
Q 12.9375 14.109375 22.625 23.890625 
Q 32.328125 33.6875 34.8125 36.53125 
Q 39.546875 41.84375 41.421875 45.53125 
Q 43.3125 49.21875 43.3125 52.78125 
Q 43.3125 58.59375 39.234375 62.25 
Q 35.15625 65.921875 28.609375 65.921875 
Q 23.96875 65.921875 18.8125 64.3125 
Q 13.671875 62.703125 7.8125 59.421875 
L 7.8125 69.390625 
Q 13.765625 71.78125 18.9375 73 
Q 24.125 74.21875 28.421875 74.21875 
Q 39.75 74.21875 46.484375 68.546875 
Q 53.21875 62.890625 53.21875 53.421875 
Q 53.21875 48.921875 51.53125 44.890625 
Q 49.859375 40.875 45.40625 35.40625 
Q 44.1875 33.984375 37.640625 27.21875 
Q 31.109375 20.453125 19.1875 8.296875 
z
" id="DejaVuSans-32"/>
      </defs>
      <g transform="translate(197.332045 134.338673)scale(0.1 -0.1)">
       <use xlink:href="#DejaVuSans-32"/>
       <use x="63.623047" xlink:href="#DejaVuSans-30"/>
      </g>
     </g>
    </g>
    <g id="xtick_4">
     <g id="line2d_4">
      <g>
       <use style="stroke:#000000;stroke-width:0.8;" x="268.625455" xlink:href="#ma90a69b5be" y="119.740235"/>
      </g>
     </g>
     <g id="text_4">
      <!-- 30 -->
      <defs>
       <path d="M 40.578125 39.3125 
Q 47.65625 37.796875 51.625 33 
Q 55.609375 28.21875 55.609375 21.1875 
Q 55.609375 10.40625 48.1875 4.484375 
Q 40.765625 -1.421875 27.09375 -1.421875 
Q 22.515625 -1.421875 17.65625 -0.515625 
Q 12.796875 0.390625 7.625 2.203125 
L 7.625 11.71875 
Q 11.71875 9.328125 16.59375 8.109375 
Q 21.484375 6.890625 26.8125 6.890625 
Q 36.078125 6.890625 40.9375 10.546875 
Q 45.796875 14.203125 45.796875 21.1875 
Q 45.796875 27.640625 41.28125 31.265625 
Q 36.765625 34.90625 28.71875 34.90625 
L 20.21875 34.90625 
L 20.21875 43.015625 
L 29.109375 43.015625 
Q 36.375 43.015625 40.234375 45.921875 
Q 44.09375 48.828125 44.09375 54.296875 
Q 44.09375 59.90625 40.109375 62.90625 
Q 36.140625 65.921875 28.71875 65.921875 
Q 24.65625 65.921875 20.015625 65.03125 
Q 15.375 64.15625 9.8125 62.3125 
L 9.8125 71.09375 
Q 15.4375 72.65625 20.34375 73.4375 
Q 25.25 74.21875 29.59375 74.21875 
Q 40.828125 74.21875 47.359375 69.109375 
Q 53.90625 64.015625 53.90625 55.328125 
Q 53.90625 49.265625 50.4375 45.09375 
Q 46.96875 40.921875 40.578125 39.3125 
z
" id="DejaVuSans-33"/>
      </defs>
      <g transform="translate(262.262955 134.338673)scale(0.1 -0.1)">
       <use xlink:href="#DejaVuSans-33"/>
       <use x="63.623047" xlink:href="#DejaVuSans-30"/>
      </g>
     </g>
    </g>
    <g id="xtick_5">
     <g id="line2d_5">
      <g>
       <use style="stroke:#000000;stroke-width:0.8;" x="333.556364" xlink:href="#ma90a69b5be" y="119.740235"/>
      </g>
     </g>
     <g id="text_5">
      <!-- 40 -->
      <defs>
       <path d="M 37.796875 64.3125 
L 12.890625 25.390625 
L 37.796875 25.390625 
z
M 35.203125 72.90625 
L 47.609375 72.90625 
L 47.609375 25.390625 
L 58.015625 25.390625 
L 58.015625 17.1875 
L 47.609375 17.1875 
L 47.609375 0 
L 37.796875 0 
L 37.796875 17.1875 
L 4.890625 17.1875 
L 4.890625 26.703125 
z
" id="DejaVuSans-34"/>
      </defs>
      <g transform="translate(327.193864 134.338673)scale(0.1 -0.1)">
       <use xlink:href="#DejaVuSans-34"/>
       <use x="63.623047" xlink:href="#DejaVuSans-30"/>
      </g>
     </g>
    </g>
    <g id="xtick_6">
     <g id="line2d_6">
      <g>
       <use style="stroke:#000000;stroke-width:0.8;" x="398.487273" xlink:href="#ma90a69b5be" y="119.740235"/>
      </g>
     </g>
     <g id="text_6">
      <!-- 50 -->
      <defs>
       <path d="M 10.796875 72.90625 
L 49.515625 72.90625 
L 49.515625 64.59375 
L 19.828125 64.59375 
L 19.828125 46.734375 
Q 21.96875 47.46875 24.109375 47.828125 
Q 26.265625 48.1875 28.421875 48.1875 
Q 40.625 48.1875 47.75 41.5 
Q 54.890625 34.8125 54.890625 23.390625 
Q 54.890625 11.625 47.5625 5.09375 
Q 40.234375 -1.421875 26.90625 -1.421875 
Q 22.3125 -1.421875 17.546875 -0.640625 
Q 12.796875 0.140625 7.71875 1.703125 
L 7.71875 11.625 
Q 12.109375 9.234375 16.796875 8.0625 
Q 21.484375 6.890625 26.703125 6.890625 
Q 35.15625 6.890625 40.078125 11.328125 
Q 45.015625 15.765625 45.015625 23.390625 
Q 45.015625 31 40.078125 35.4375 
Q 35.15625 39.890625 26.703125 39.890625 
Q 22.75 39.890625 18.8125 39.015625 
Q 14.890625 38.140625 10.796875 36.28125 
z
" id="DejaVuSans-35"/>
      </defs>
      <g transform="translate(392.124773 134.338673)scale(0.1 -0.1)">
       <use xlink:href="#DejaVuSans-35"/>
       <use x="63.623047" xlink:href="#DejaVuSans-30"/>
      </g>
     </g>
    </g>
   </g>
   <g id="matplotlib.axis_2">
    <g id="ytick_1">
     <g id="line2d_7">
      <defs>
       <path d="M 0 0 
L -3.5 0 
" id="m9cbf62fa85" style="stroke:#000000;stroke-width:0.8;"/>
      </defs>
      <g>
       <use style="stroke:#000000;stroke-width:0.8;" x="57.6" xlink:href="#m9cbf62fa85" y="107.774954"/>
      </g>
     </g>
     <g id="text_7">
      <!-- −0.0005 -->
      <defs>
       <path d="M 10.59375 35.5 
L 73.1875 35.5 
L 73.1875 27.203125 
L 10.59375 27.203125 
z
" id="DejaVuSans-2212"/>
       <path d="M 10.6875 12.40625 
L 21 12.40625 
L 21 0 
L 10.6875 0 
z
" id="DejaVuSans-2e"/>
      </defs>
      <g transform="translate(7.229687 111.574173)scale(0.1 -0.1)">
       <use xlink:href="#DejaVuSans-2212"/>
       <use x="83.789062" xlink:href="#DejaVuSans-30"/>
       <use x="147.412109" xlink:href="#DejaVuSans-2e"/>
       <use x="179.199219" xlink:href="#DejaVuSans-30"/>
       <use x="242.822266" xlink:href="#DejaVuSans-30"/>
       <use x="306.445312" xlink:href="#DejaVuSans-30"/>
       <use x="370.068359" xlink:href="#DejaVuSans-35"/>
      </g>
     </g>
    </g>
    <g id="ytick_2">
     <g id="line2d_8">
      <g>
       <use style="stroke:#000000;stroke-width:0.8;" x="57.6" xlink:href="#m9cbf62fa85" y="82.663931"/>
      </g>
     </g>
     <g id="text_8">
      <!-- 0.0000 -->
      <g transform="translate(15.609375 86.463149)scale(0.1 -0.1)">
       <use xlink:href="#DejaVuSans-30"/>
       <use x="63.623047" xlink:href="#DejaVuSans-2e"/>
       <use x="95.410156" xlink:href="#DejaVuSans-30"/>
       <use x="159.033203" xlink:href="#DejaVuSans-30"/>
       <use x="222.65625" xlink:href="#DejaVuSans-30"/>
       <use x="286.279297" xlink:href="#DejaVuSans-30"/>
      </g>
     </g>
    </g>
    <g id="ytick_3">
     <g id="line2d_9">
      <g>
       <use style="stroke:#000000;stroke-width:0.8;" x="57.6" xlink:href="#m9cbf62fa85" y="57.552907"/>
      </g>
     </g>
     <g id="text_9">
      <!-- 0.0005 -->
      <g transform="translate(15.609375 61.352125)scale(0.1 -0.1)">
       <use xlink:href="#DejaVuSans-30"/>
       <use x="63.623047" xlink:href="#DejaVuSans-2e"/>
       <use x="95.410156" xlink:href="#DejaVuSans-30"/>
       <use x="159.033203" xlink:href="#DejaVuSans-30"/>
       <use x="222.65625" xlink:href="#DejaVuSans-30"/>
       <use x="286.279297" xlink:href="#DejaVuSans-35"/>
      </g>
     </g>
    </g>
    <g id="text_10">
     <!-- TD State 0 -->
     <defs>
      <path d="M -0.296875 72.90625 
L 61.375 72.90625 
L 61.375 64.59375 
L 35.5 64.59375 
L 35.5 0 
L 25.59375 0 
L 25.59375 64.59375 
L -0.296875 64.59375 
z
" id="DejaVuSans-54"/>
      <path d="M 19.671875 64.796875 
L 19.671875 8.109375 
L 31.59375 8.109375 
Q 46.6875 8.109375 53.6875 14.9375 
Q 60.6875 21.78125 60.6875 36.53125 
Q 60.6875 51.171875 53.6875 57.984375 
Q 46.6875 64.796875 31.59375 64.796875 
z
M 9.8125 72.90625 
L 30.078125 72.90625 
Q 51.265625 72.90625 61.171875 64.09375 
Q 71.09375 55.28125 71.09375 36.53125 
Q 71.09375 17.671875 61.125 8.828125 
Q 51.171875 0 30.078125 0 
L 9.8125 0 
z
" id="DejaVuSans-44"/>
      <path id="DejaVuSans-20"/>
      <path d="M 53.515625 70.515625 
L 53.515625 60.890625 
Q 47.90625 63.578125 42.921875 64.890625 
Q 37.9375 66.21875 33.296875 66.21875 
Q 25.25 66.21875 20.875 63.09375 
Q 16.5 59.96875 16.5 54.203125 
Q 16.5 49.359375 19.40625 46.890625 
Q 22.3125 44.4375 30.421875 42.921875 
L 36.375 41.703125 
Q 47.40625 39.59375 52.65625 34.296875 
Q 57.90625 29 57.90625 20.125 
Q 57.90625 9.515625 50.796875 4.046875 
Q 43.703125 -1.421875 29.984375 -1.421875 
Q 24.8125 -1.421875 18.96875 -0.25 
Q 13.140625 0.921875 6.890625 3.21875 
L 6.890625 13.375 
Q 12.890625 10.015625 18.65625 8.296875 
Q 24.421875 6.59375 29.984375 6.59375 
Q 38.421875 6.59375 43.015625 9.90625 
Q 47.609375 13.234375 47.609375 19.390625 
Q 47.609375 24.75 44.3125 27.78125 
Q 41.015625 30.8125 33.5 32.328125 
L 27.484375 33.5 
Q 16.453125 35.6875 11.515625 40.375 
Q 6.59375 45.0625 6.59375 53.421875 
Q 6.59375 63.09375 13.40625 68.65625 
Q 20.21875 74.21875 32.171875 74.21875 
Q 37.3125 74.21875 42.625 73.28125 
Q 47.953125 72.359375 53.515625 70.515625 
z
" id="DejaVuSans-53"/>
      <path d="M 18.3125 70.21875 
L 18.3125 54.6875 
L 36.8125 54.6875 
L 36.8125 47.703125 
L 18.3125 47.703125 
L 18.3125 18.015625 
Q 18.3125 11.328125 20.140625 9.421875 
Q 21.96875 7.515625 27.59375 7.515625 
L 36.8125 7.515625 
L 36.8125 0 
L 27.59375 0 
Q 17.1875 0 13.234375 3.875 
Q 9.28125 7.765625 9.28125 18.015625 
L 9.28125 47.703125 
L 2.6875 47.703125 
L 2.6875 54.6875 
L 9.28125 54.6875 
L 9.28125 70.21875 
z
" id="DejaVuSans-74"/>
      <path d="M 34.28125 27.484375 
Q 23.390625 27.484375 19.1875 25 
Q 14.984375 22.515625 14.984375 16.5 
Q 14.984375 11.71875 18.140625 8.90625 
Q 21.296875 6.109375 26.703125 6.109375 
Q 34.1875 6.109375 38.703125 11.40625 
Q 43.21875 16.703125 43.21875 25.484375 
L 43.21875 27.484375 
z
M 52.203125 31.203125 
L 52.203125 0 
L 43.21875 0 
L 43.21875 8.296875 
Q 40.140625 3.328125 35.546875 0.953125 
Q 30.953125 -1.421875 24.3125 -1.421875 
Q 15.921875 -1.421875 10.953125 3.296875 
Q 6 8.015625 6 15.921875 
Q 6 25.140625 12.171875 29.828125 
Q 18.359375 34.515625 30.609375 34.515625 
L 43.21875 34.515625 
L 43.21875 35.40625 
Q 43.21875 41.609375 39.140625 45 
Q 35.0625 48.390625 27.6875 48.390625 
Q 23 48.390625 18.546875 47.265625 
Q 14.109375 46.140625 10.015625 43.890625 
L 10.015625 52.203125 
Q 14.9375 54.109375 19.578125 55.046875 
Q 24.21875 56 28.609375 56 
Q 40.484375 56 46.34375 49.84375 
Q 52.203125 43.703125 52.203125 31.203125 
z
" id="DejaVuSans-61"/>
      <path d="M 56.203125 29.59375 
L 56.203125 25.203125 
L 14.890625 25.203125 
Q 15.484375 15.921875 20.484375 11.0625 
Q 25.484375 6.203125 34.421875 6.203125 
Q 39.59375 6.203125 44.453125 7.46875 
Q 49.3125 8.734375 54.109375 11.28125 
L 54.109375 2.78125 
Q 49.265625 0.734375 44.1875 -0.34375 
Q 39.109375 -1.421875 33.890625 -1.421875 
Q 20.796875 -1.421875 13.15625 6.1875 
Q 5.515625 13.8125 5.515625 26.8125 
Q 5.515625 40.234375 12.765625 48.109375 
Q 20.015625 56 32.328125 56 
Q 43.359375 56 49.78125 48.890625 
Q 56.203125 41.796875 56.203125 29.59375 
z
M 47.21875 32.234375 
Q 47.125 39.59375 43.09375 43.984375 
Q 39.0625 48.390625 32.421875 48.390625 
Q 24.90625 48.390625 20.390625 44.140625 
Q 15.875 39.890625 15.1875 32.171875 
z
" id="DejaVuSans-65"/>
     </defs>
     <g transform="translate(1.15 107.104555)rotate(-90)scale(0.1 -0.1)">
      <use xlink:href="#DejaVuSans-54"/>
      <use x="61.083984" xlink:href="#DejaVuSans-44"/>
      <use x="138.085938" xlink:href="#DejaVuSans-20"/>
      <use x="169.873047" xlink:href="#DejaVuSans-53"/>
      <use x="233.349609" xlink:href="#DejaVuSans-74"/>
      <use x="272.558594" xlink:href="#DejaVuSans-61"/>
      <use x="333.837891" xlink:href="#DejaVuSans-74"/>
      <use x="373.046875" xlink:href="#DejaVuSans-65"/>
      <use x="434.570312" xlink:href="#DejaVuSans-20"/>
      <use x="466.357422" xlink:href="#DejaVuSans-30"/>
     </g>
    </g>
   </g>
   <g id="line2d_10">
    <path clip-path="url(#p39b9c38890)" d="M 73.832727 82.663931 
L 138.770129 82.663931 
L 138.776623 83.718006 
L 138.83506 75.169276 
L 139.094784 46.897086 
L 139.127249 49.189962 
L 139.536314 69.69099 
L 139.938886 79.892811 
L 140.328471 84.766527 
L 140.698577 86.95115 
L 141.036218 87.804034 
L 141.3349 88.045267 
L 141.633583 88.008751 
L 142.062127 87.699596 
L 143.126993 86.556445 
L 144.399639 85.346077 
L 145.26322 84.726539 
L 145.587875 46.897086 
L 145.607354 48.287279 
L 146.016419 69.231044 
L 146.418991 79.662964 
L 146.808576 84.655283 
L 147.178682 86.900856 
L 147.516323 87.784628 
L 147.815005 88.041638 
L 148.113687 88.014303 
L 148.535738 87.717561 
L 149.529181 86.655117 
L 150.840785 85.388417 
L 151.756311 84.726539 
L 152.080966 46.897086 
L 152.100445 48.287279 
L 152.50951 69.231044 
L 152.912081 79.662964 
L 153.301667 84.655283 
L 153.671773 86.900856 
L 154.009414 87.784628 
L 154.308096 88.041638 
L 154.606778 88.014303 
L 155.028829 87.717561 
L 156.022272 86.655117 
L 157.333876 85.388417 
L 158.249402 84.726539 
L 158.574057 46.897086 
L 158.593536 48.287279 
L 159.002601 69.231044 
L 159.405172 79.662964 
L 159.794758 84.655283 
L 160.164864 86.900856 
L 160.502505 87.784628 
L 160.801187 88.041638 
L 161.099869 88.014303 
L 161.52192 87.717561 
L 162.515363 86.655117 
L 163.826967 85.388417 
L 164.742493 84.726539 
L 165.067148 46.897086 
L 165.086627 48.287279 
L 165.495692 69.231044 
L 165.898263 79.662964 
L 166.287849 84.655283 
L 166.657955 86.900856 
L 166.995596 87.784628 
L 167.294278 88.041638 
L 167.59296 88.014303 
L 168.015011 87.717561 
L 169.008454 86.655117 
L 170.320058 85.388417 
L 171.235584 84.726539 
L 171.560239 46.897086 
L 171.579718 48.287279 
L 171.988783 69.231044 
L 172.391354 79.662964 
L 172.78094 84.655283 
L 173.151046 86.900856 
L 173.488687 87.784628 
L 173.787369 88.041638 
L 174.086051 88.014303 
L 174.508102 87.717561 
L 175.501545 86.655117 
L 176.813149 85.388417 
L 177.728675 84.726539 
L 178.053329 46.897086 
L 178.072809 48.287279 
L 178.481873 69.231044 
L 178.884445 79.662964 
L 179.274031 84.655283 
L 179.644137 86.900856 
L 179.981777 87.784628 
L 180.28046 88.041638 
L 180.579142 88.014303 
L 181.001193 87.717561 
L 181.994636 86.655117 
L 183.30624 85.388417 
L 184.221766 84.726539 
L 184.54642 46.897086 
L 184.5659 48.287279 
L 184.974964 69.231044 
L 185.377536 79.662964 
L 185.767121 84.655283 
L 186.137228 86.900856 
L 186.474868 87.784628 
L 186.773551 88.041638 
L 187.072233 88.014303 
L 187.494284 87.717561 
L 188.487727 86.655117 
L 189.799331 85.388417 
L 190.714857 84.726539 
L 191.039511 46.897086 
L 191.058991 48.287279 
L 191.468055 69.231044 
L 191.870627 79.662964 
L 192.260212 84.655283 
L 192.630319 86.900856 
L 192.967959 87.784628 
L 193.266641 88.041638 
L 193.565324 88.014303 
L 193.987375 87.717561 
L 194.980817 86.655117 
L 196.292422 85.388417 
L 197.207948 84.726539 
L 197.532602 46.897086 
L 197.552081 48.287279 
L 197.961146 69.231044 
L 198.363718 79.662964 
L 198.753303 84.655283 
L 199.123409 86.900856 
L 199.46105 87.784628 
L 199.759732 88.041638 
L 200.058415 88.014303 
L 200.480465 87.717561 
L 201.473908 86.655117 
L 202.785513 85.388417 
L 203.701039 84.726539 
L 204.025693 46.897086 
L 204.045172 48.287279 
L 204.454237 69.231044 
L 204.856809 79.662964 
L 205.246394 84.655283 
L 205.6165 86.900856 
L 205.954141 87.784628 
L 206.252823 88.041638 
L 206.551505 88.014303 
L 206.973556 87.717561 
L 207.966999 86.655117 
L 209.278604 85.388417 
L 210.194129 84.726539 
L 210.518784 46.897086 
L 210.538263 48.287279 
L 210.947328 69.231044 
L 211.3499 79.662964 
L 211.739485 84.655283 
L 212.109591 86.900856 
L 212.447232 87.784628 
L 212.745914 88.041638 
L 213.044596 88.014303 
L 213.466647 87.717561 
L 214.46009 86.655117 
L 215.771695 85.388417 
L 216.68722 84.726539 
L 217.011875 46.897086 
L 217.031354 48.287279 
L 217.440419 69.231044 
L 217.842991 79.662964 
L 218.232576 84.655283 
L 218.602682 86.900856 
L 218.940323 87.784628 
L 219.239005 88.041638 
L 219.537687 88.014303 
L 219.959738 87.717561 
L 220.953181 86.655117 
L 222.264785 85.388417 
L 223.180311 84.726539 
L 223.504966 46.897086 
L 223.524445 48.287279 
L 223.93351 69.231044 
L 224.336081 79.662964 
L 224.725667 84.655283 
L 225.095773 86.900856 
L 225.433414 87.784628 
L 225.732096 88.041638 
L 226.030778 88.014303 
L 226.452829 87.717561 
L 227.446272 86.655117 
L 228.757876 85.388417 
L 229.673402 84.726539 
L 229.998057 46.897086 
L 230.017536 48.287279 
L 230.426601 69.231044 
L 230.829172 79.662964 
L 231.218758 84.655283 
L 231.588864 86.900856 
L 231.926505 87.784628 
L 232.225187 88.041638 
L 232.523869 88.014303 
L 232.94592 87.717561 
L 233.939363 86.655117 
L 235.250967 85.388417 
L 236.166493 84.726539 
L 236.491148 46.897086 
L 236.510627 48.287279 
L 236.919692 69.231044 
L 237.322263 79.662964 
L 237.711849 84.655283 
L 238.081955 86.900856 
L 238.419596 87.784628 
L 238.718278 88.041638 
L 239.01696 88.014303 
L 239.439011 87.717561 
L 240.432454 86.655117 
L 241.744058 85.388417 
L 242.659584 84.726539 
L 242.984239 46.897086 
L 243.003718 48.287279 
L 243.412783 69.231044 
L 243.815354 79.662964 
L 244.20494 84.655283 
L 244.575046 86.900856 
L 244.912687 87.784628 
L 245.211369 88.041638 
L 245.510051 88.014303 
L 245.932102 87.717561 
L 246.925545 86.655117 
L 248.237149 85.388417 
L 249.152675 84.726539 
L 249.477329 46.897086 
L 249.496809 48.287279 
L 249.905873 69.231044 
L 250.308445 79.662964 
L 250.698031 84.655283 
L 251.068137 86.900856 
L 251.405777 87.784628 
L 251.70446 88.041638 
L 252.003142 88.014303 
L 252.425193 87.717561 
L 253.418636 86.655117 
L 254.73024 85.388417 
L 255.645766 84.726539 
L 255.97042 46.897086 
L 255.9899 48.287279 
L 256.398964 69.231044 
L 256.801536 79.662964 
L 257.191121 84.655283 
L 257.561228 86.900856 
L 257.898868 87.784628 
L 258.197551 88.041638 
L 258.496233 88.014303 
L 258.918284 87.717561 
L 259.911727 86.655117 
L 261.223331 85.388417 
L 262.138857 84.726539 
L 262.463511 46.897086 
L 262.482991 48.287279 
L 262.892055 69.231044 
L 263.294627 79.662964 
L 263.684212 84.655283 
L 264.054319 86.900856 
L 264.391959 87.784628 
L 264.690641 88.041638 
L 264.989324 88.014303 
L 265.411375 87.717561 
L 266.404817 86.655117 
L 267.716422 85.388417 
L 268.885178 84.572688 
L 270.17081 83.949944 
L 271.6837 83.471181 
L 273.586176 83.113287 
L 275.125039 82.943692 
L 275.449693 69.029992 
L 275.469172 69.545563 
L 275.878237 77.324854 
L 276.280809 81.218678 
L 276.676887 83.120228 
L 277.05998 83.989066 
L 277.436579 84.346393 
L 277.85863 84.443352 
L 278.475473 84.329656 
L 281.618129 83.359685 
L 281.942784 116.182582 
L 281.962263 114.954223 
L 282.371328 96.386192 
L 282.7739 87.038952 
L 283.169978 82.426257 
L 283.553071 80.274828 
L 283.910191 79.375767 
L 284.241338 79.068009 
L 284.585472 79.044106 
L 285.065961 79.261604 
L 286.390551 80.21664 
L 287.747607 81.028828 
L 288.11122 81.200279 
L 288.435875 101.229666 
L 288.455354 100.496904 
L 288.864419 89.466931 
L 289.266991 83.987756 
L 289.656576 81.37872 
L 290.026682 80.216885 
L 290.377309 79.760759 
L 290.727936 79.64731 
L 291.175959 79.756169 
L 292.052527 80.25346 
L 293.779689 81.197491 
L 294.604311 81.523032 
L 294.928966 112.44886 
L 294.948445 111.307507 
L 295.35751 94.098962 
L 295.760081 85.505879 
L 296.149667 81.374371 
L 296.526266 79.477451 
L 296.8704 78.72808 
L 297.188561 78.501374 
L 297.526202 78.533821 
L 298.032663 78.83973 
L 301.090909 81.046055 
L 301.097402 81.049262 
L 301.422057 57.007451 
L 301.441536 57.917036 
L 301.857094 71.846984 
L 302.266159 78.827825 
L 302.66873 82.270034 
L 303.058316 83.886418 
L 303.428422 84.585777 
L 303.798528 84.847323 
L 304.227072 84.868005 
L 304.908847 84.642263 
L 307.590493 83.591078 
L 307.915148 103.987049 
L 307.934627 103.219357 
L 308.343692 91.602627 
L 308.752756 85.669688 
L 309.148835 82.790273 
L 309.53842 81.418203 
L 309.908527 80.834524 
L 310.285126 80.62534 
L 310.746135 80.635246 
L 311.557772 80.917383 
L 313.84334 81.755281 
L 314.083584 81.819412 
L 314.408239 100.738857 
L 314.427718 100.041909 
L 314.836783 89.537442 
L 315.239354 84.297844 
L 315.62894 81.783805 
L 316.005539 80.6342 
L 316.362659 80.174648 
L 316.726272 80.047596 
L 317.200268 80.139528 
L 318.148259 80.608678 
L 319.8949 81.424453 
L 320.576675 81.65683 
L 320.901329 113.908362 
L 320.920809 112.716454 
L 321.329873 94.74106 
L 321.732445 85.75784 
L 322.122031 81.432381 
L 322.49863 79.440599 
L 322.842764 78.648477 
L 323.160925 78.403403 
L 323.492073 78.426761 
L 323.979055 78.717415 
L 327.069766 81.003989 
L 327.39442 77.012539 
L 327.407407 77.122024 
L 327.829457 79.713422 
L 328.258001 81.084597 
L 328.706025 81.820909 
L 329.205993 82.225238 
L 329.861795 82.455837 
L 330.9851 82.580396 
L 333.562857 82.635287 
L 333.887511 90.458905 
L 333.906991 90.167858 
L 334.316055 85.773144 
L 334.72512 83.543785 
L 335.127692 82.463286 
L 335.530263 81.962337 
L 335.978287 81.752049 
L 336.59513 81.730874 
L 338.004131 81.976005 
L 340.055948 82.289612 
L 340.380602 108.014298 
L 340.400081 107.059776 
L 340.809146 92.653732 
L 341.211718 85.437386 
L 341.607796 81.90825 
L 341.984396 80.309064 
L 342.341516 79.64862 
L 342.679156 79.445236 
L 343.062249 79.479529 
L 343.679092 79.79498 
L 346.204905 81.255868 
L 346.549039 81.396168 
L 346.873693 64.281285 
L 346.893172 64.929851 
L 347.30873 74.865364 
L 347.717795 79.849097 
L 348.120367 82.310689 
L 348.509952 83.470308 
L 348.893044 83.986364 
L 349.302109 84.179244 
L 349.834543 84.166981 
L 350.918889 83.863047 
L 353.042129 83.308409 
L 353.366784 96.117656 
L 353.386263 95.634972 
L 353.801821 88.248243 
L 354.210886 84.554938 
L 354.613457 82.74133 
L 355.009536 81.887209 
L 355.405615 81.518615 
L 355.860131 81.397855 
L 356.548399 81.47383 
L 359.53522 82.14172 
L 359.859875 95.414135 
L 359.879354 94.924584 
L 360.288419 87.544278 
L 360.690991 83.860221 
L 361.087069 82.070174 
L 361.470161 81.260565 
L 361.846761 80.935808 
L 362.275305 80.8591 
L 362.924614 80.998762 
L 366.028311 81.966641 
L 366.352966 105.530738 
L 366.372445 104.659542 
L 366.78151 91.519946 
L 367.184081 84.951902 
L 367.58016 81.752334 
L 367.956759 80.313663 
L 368.307386 79.736154 
L 368.65152 79.561303 
L 369.060585 79.619311 
L 369.748852 79.983494 
L 371.930531 81.218008 
L 372.521402 81.456171 
L 372.846057 89.269845 
L 372.865536 88.989665 
L 373.274601 84.788274 
L 373.677172 82.726628 
L 374.066758 81.767509 
L 374.456343 81.348021 
L 374.884887 81.207795 
L 375.495238 81.267325 
L 377.49511 81.826434 
L 379.014493 82.135351 
L 379.339148 46.039709 
L 379.358627 47.388441 
L 379.767692 67.770283 
L 380.170263 78.021403 
L 380.566342 83.071908 
L 380.949434 85.420085 
L 381.306554 86.394607 
L 381.631209 86.718654 
L 381.955863 86.743625 
L 382.403887 86.525526 
L 383.429795 85.696777 
L 384.832303 84.67836 
L 385.507584 84.304592 
L 385.52057 84.372036 
L 385.832239 85.54303 
L 385.851718 85.482307 
L 386.306234 84.447706 
L 386.799709 83.85012 
L 387.403567 83.469394 
L 388.286627 83.195995 
L 389.877434 82.96829 
L 392.000675 82.820524 
L 392.325329 56.564123 
L 392.344809 57.540373 
L 392.753873 72.279951 
L 393.156445 79.672233 
L 393.552524 83.295388 
L 393.929123 84.944302 
L 394.286243 85.631956 
L 394.623884 85.850774 
L 395.006976 85.826981 
L 395.610833 85.528315 
L 398.260015 84.021727 
L 398.487273 83.930763 
L 398.487273 83.930763 
" style="fill:none;stroke:#000000;stroke-linecap:square;stroke-width:4;"/>
   </g>
   <g id="line2d_11">
    <path clip-path="url(#p39b9c38890)" d="M 73.832727 82.663931 
L 80.332311 82.663931 
L 80.656966 45.029647 
L 80.676445 46.430958 
L 81.08551 67.59371 
L 81.488081 78.21615 
L 81.88416 83.430375 
L 82.260759 85.810414 
L 82.611386 86.798531 
L 82.929548 87.12362 
L 83.241216 87.14352 
L 83.66976 86.917425 
L 84.598272 86.099679 
L 86.020259 84.940685 
L 86.825402 84.446779 
L 87.150057 46.643934 
L 87.169536 48.035642 
L 87.578601 69.009194 
L 87.981172 79.466981 
L 88.370758 84.481457 
L 88.740864 86.745755 
L 89.084998 87.654936 
L 89.390173 87.918275 
L 89.688855 87.892918 
L 90.117399 87.598083 
L 91.136815 86.531478 
L 92.441926 85.306987 
L 93.318493 84.68866 
L 93.643148 46.862803 
L 93.662627 48.253201 
L 94.071692 69.201003 
L 94.474263 79.636427 
L 94.863849 84.631747 
L 95.233955 86.879856 
L 95.571596 87.765701 
L 95.870278 88.024375 
L 96.16896 87.998557 
L 96.591011 87.703735 
L 97.577961 86.652003 
L 98.889565 85.386939 
L 99.811584 84.721412 
L 100.136239 46.892438 
L 100.155718 48.282659 
L 100.564783 69.226975 
L 100.967354 79.659371 
L 101.35694 84.652097 
L 101.727046 86.898014 
L 102.064687 87.782066 
L 102.363369 88.039302 
L 102.662051 88.012172 
L 103.084102 87.71569 
L 104.077545 86.653739 
L 105.389149 85.387497 
L 106.304675 84.725846 
L 106.629329 46.896451 
L 106.648809 48.286648 
L 107.057873 69.230492 
L 107.460445 79.662477 
L 107.850031 84.654852 
L 108.220137 86.900473 
L 108.557777 87.784282 
L 108.85646 88.041323 
L 109.155142 88.014016 
L 109.577193 87.717309 
L 110.570636 86.654931 
L 111.88224 85.388293 
L 112.797766 84.726447 
L 113.12242 46.896994 
L 113.1419 48.287188 
L 113.550964 69.230968 
L 113.953536 79.662898 
L 114.343121 84.655225 
L 114.713228 86.900805 
L 115.050868 87.784582 
L 115.349551 88.041597 
L 115.648233 88.014265 
L 116.070284 87.717528 
L 117.063727 86.655092 
L 118.375331 85.388401 
L 119.290857 84.726528 
L 119.615511 46.897068 
L 119.634991 48.287261 
L 120.044055 69.231032 
L 120.446627 79.662955 
L 120.836212 84.655276 
L 121.206319 86.900851 
L 121.543959 87.784622 
L 121.842641 88.041634 
L 122.141324 88.014299 
L 122.563375 87.717558 
L 123.556817 86.655114 
L 124.868422 85.388415 
L 125.783948 84.726539 
L 126.108602 46.897078 
L 126.128081 48.287271 
L 126.537146 69.231041 
L 126.939718 79.662963 
L 127.329303 84.655283 
L 127.699409 86.900857 
L 128.03705 87.784628 
L 128.335732 88.041639 
L 128.634415 88.014304 
L 129.056465 87.717562 
L 130.049908 86.655117 
L 131.361513 85.388417 
L 132.277039 84.726541 
L 132.601693 46.897079 
L 132.621172 48.287273 
L 133.030237 69.231042 
L 133.432809 79.662964 
L 133.822394 84.655284 
L 134.1925 86.900857 
L 134.530141 87.784629 
L 134.828823 88.041639 
L 135.127505 88.014304 
L 135.549556 87.717563 
L 136.542999 86.655118 
L 137.854604 85.388418 
L 138.770129 84.726541 
L 139.094784 46.897079 
L 139.114263 48.287273 
L 139.523328 69.231042 
L 139.9259 79.662964 
L 140.315485 84.655284 
L 140.685591 86.900858 
L 141.023232 87.784629 
L 141.321914 88.041639 
L 141.620596 88.014304 
L 142.042647 87.717563 
L 143.03609 86.655118 
L 144.347695 85.388418 
L 145.26322 84.726541 
L 145.587875 46.897079 
L 145.607354 48.287273 
L 146.016419 69.231042 
L 146.418991 79.662964 
L 146.808576 84.655284 
L 147.178682 86.900858 
L 147.516323 87.784629 
L 147.815005 88.041639 
L 148.113687 88.014304 
L 148.535738 87.717563 
L 149.529181 86.655118 
L 150.840785 85.388418 
L 151.756311 84.726541 
L 152.080966 46.897079 
L 152.100445 48.287273 
L 152.50951 69.231042 
L 152.912081 79.662964 
L 153.301667 84.655284 
L 153.671773 86.900858 
L 154.009414 87.784629 
L 154.308096 88.041639 
L 154.606778 88.014304 
L 155.028829 87.717563 
L 156.022272 86.655118 
L 157.333876 85.388418 
L 158.249402 84.726541 
L 158.574057 46.897079 
L 158.593536 48.287273 
L 159.002601 69.231042 
L 159.405172 79.662964 
L 159.794758 84.655284 
L 160.164864 86.900858 
L 160.502505 87.784629 
L 160.801187 88.041639 
L 161.099869 88.014304 
L 161.52192 87.717563 
L 162.515363 86.655118 
L 163.826967 85.388418 
L 164.742493 84.726541 
L 165.067148 46.897079 
L 165.086627 48.287273 
L 165.495692 69.231042 
L 165.898263 79.662964 
L 166.287849 84.655284 
L 166.657955 86.900858 
L 166.995596 87.784629 
L 167.294278 88.041639 
L 167.59296 88.014304 
L 168.015011 87.717563 
L 169.008454 86.655118 
L 170.320058 85.388418 
L 171.235584 84.726541 
L 171.560239 46.897079 
L 171.579718 48.287273 
L 171.988783 69.231042 
L 172.391354 79.662964 
L 172.78094 84.655284 
L 173.151046 86.900858 
L 173.488687 87.784629 
L 173.787369 88.041639 
L 174.086051 88.014304 
L 174.508102 87.717563 
L 175.501545 86.655118 
L 176.813149 85.388418 
L 177.728675 84.726541 
L 178.053329 46.897079 
L 178.072809 48.287273 
L 178.481873 69.231042 
L 178.884445 79.662964 
L 179.274031 84.655284 
L 179.644137 86.900858 
L 179.981777 87.784629 
L 180.28046 88.041639 
L 180.579142 88.014304 
L 181.001193 87.717563 
L 181.994636 86.655118 
L 183.30624 85.388418 
L 184.221766 84.726541 
L 184.54642 46.897079 
L 184.5659 48.287273 
L 184.974964 69.231042 
L 185.377536 79.662964 
L 185.767121 84.655284 
L 186.137228 86.900858 
L 186.474868 87.784629 
L 186.773551 88.041639 
L 187.072233 88.014304 
L 187.494284 87.717563 
L 188.487727 86.655118 
L 189.799331 85.388418 
L 190.714857 84.726541 
L 191.039511 46.897079 
L 191.058991 48.287273 
L 191.468055 69.231042 
L 191.870627 79.662964 
L 192.260212 84.655284 
L 192.630319 86.900858 
L 192.967959 87.784629 
L 193.266641 88.041639 
L 193.565324 88.014304 
L 193.987375 87.717563 
L 194.980817 86.655118 
L 196.292422 85.388418 
L 197.207948 84.726541 
L 197.532602 46.897079 
L 197.552081 48.287273 
L 197.961146 69.231042 
L 198.363718 79.662964 
L 198.753303 84.655284 
L 199.123409 86.900858 
L 199.46105 87.784629 
L 199.759732 88.041639 
L 200.058415 88.014304 
L 200.480465 87.717563 
L 201.473908 86.655118 
L 202.785513 85.388418 
L 203.701039 84.726541 
L 204.025693 46.897079 
L 204.045172 48.287273 
L 204.454237 69.231042 
L 204.856809 79.662964 
L 205.246394 84.655284 
L 205.6165 86.900858 
L 205.954141 87.784629 
L 206.252823 88.041639 
L 206.551505 88.014304 
L 206.973556 87.717563 
L 207.966999 86.655118 
L 209.278604 85.388418 
L 210.194129 84.726541 
L 210.518784 46.897079 
L 210.538263 48.287273 
L 210.947328 69.231042 
L 211.3499 79.662964 
L 211.739485 84.655284 
L 212.109591 86.900858 
L 212.447232 87.784629 
L 212.745914 88.041639 
L 213.044596 88.014304 
L 213.466647 87.717563 
L 214.46009 86.655118 
L 215.771695 85.388418 
L 216.68722 84.726541 
L 217.011875 46.897079 
L 217.031354 48.287273 
L 217.440419 69.231042 
L 217.842991 79.662964 
L 218.232576 84.655284 
L 218.602682 86.900858 
L 218.940323 87.784629 
L 219.239005 88.041639 
L 219.537687 88.014304 
L 219.959738 87.717563 
L 220.953181 86.655118 
L 222.264785 85.388418 
L 223.180311 84.726541 
L 223.504966 46.897079 
L 223.524445 48.287273 
L 223.93351 69.231042 
L 224.336081 79.662964 
L 224.725667 84.655284 
L 225.095773 86.900858 
L 225.433414 87.784629 
L 225.732096 88.041639 
L 226.030778 88.014304 
L 226.452829 87.717563 
L 227.446272 86.655118 
L 228.757876 85.388418 
L 229.673402 84.726541 
L 229.998057 46.897079 
L 230.017536 48.287273 
L 230.426601 69.231042 
L 230.829172 79.662964 
L 231.218758 84.655284 
L 231.588864 86.900858 
L 231.926505 87.784629 
L 232.225187 88.041639 
L 232.523869 88.014304 
L 232.94592 87.717563 
L 233.939363 86.655118 
L 235.250967 85.388418 
L 236.166493 84.726541 
L 236.491148 46.897079 
L 236.510627 48.287273 
L 236.919692 69.231042 
L 237.322263 79.662964 
L 237.711849 84.655284 
L 238.081955 86.900858 
L 238.419596 87.784629 
L 238.718278 88.041639 
L 239.01696 88.014304 
L 239.439011 87.717563 
L 240.432454 86.655118 
L 241.744058 85.388418 
L 242.659584 84.726541 
L 242.984239 46.897079 
L 243.003718 48.287273 
L 243.412783 69.231042 
L 243.815354 79.662964 
L 244.20494 84.655284 
L 244.575046 86.900858 
L 244.912687 87.784629 
L 245.211369 88.041639 
L 245.510051 88.014304 
L 245.932102 87.717563 
L 246.925545 86.655118 
L 248.237149 85.388418 
L 249.152675 84.726541 
L 249.477329 46.897079 
L 249.496809 48.287273 
L 249.905873 69.231042 
L 250.308445 79.662964 
L 250.698031 84.655284 
L 251.068137 86.900858 
L 251.405777 87.784629 
L 251.70446 88.041639 
L 252.003142 88.014304 
L 252.425193 87.717563 
L 253.418636 86.655118 
L 254.73024 85.388418 
L 255.645766 84.726541 
L 255.97042 46.897079 
L 255.9899 48.287273 
L 256.398964 69.231042 
L 256.801536 79.662964 
L 257.191121 84.655284 
L 257.561228 86.900858 
L 257.898868 87.784629 
L 258.197551 88.041639 
L 258.496233 88.014304 
L 258.918284 87.717563 
L 259.911727 86.655118 
L 261.223331 85.388418 
L 262.138857 84.726541 
L 262.463511 46.897079 
L 262.482991 48.287273 
L 262.892055 69.231042 
L 263.294627 79.662964 
L 263.684212 84.655284 
L 264.054319 86.900858 
L 264.391959 87.784629 
L 264.690641 88.041639 
L 264.989324 88.014304 
L 265.411375 87.717563 
L 266.404817 86.655118 
L 267.716422 85.388418 
L 268.885178 84.572689 
L 270.17081 83.949944 
L 271.6837 83.471181 
L 273.579683 83.114186 
L 275.125039 82.943692 
L 275.449693 69.029989 
L 275.469172 69.54556 
L 275.878237 77.324853 
L 276.280809 81.218678 
L 276.676887 83.120229 
L 277.05998 83.989067 
L 277.436579 84.346393 
L 277.85863 84.443353 
L 278.475473 84.329656 
L 281.618129 83.359684 
L 281.942784 116.182588 
L 281.962263 114.95423 
L 282.371328 96.386194 
L 282.7739 87.038953 
L 283.169978 82.426256 
L 283.553071 80.274828 
L 283.910191 79.375766 
L 284.241338 79.068009 
L 284.585472 79.044105 
L 285.065961 79.261603 
L 286.390551 80.216639 
L 287.747607 81.028827 
L 288.11122 81.200278 
L 288.435875 101.229669 
L 288.455354 100.496908 
L 288.864419 89.466931 
L 289.266991 83.987756 
L 289.656576 81.37872 
L 290.026682 80.216884 
L 290.377309 79.760758 
L 290.727936 79.647309 
L 291.175959 79.756169 
L 292.052527 80.253459 
L 293.779689 81.19749 
L 294.604311 81.523031 
L 294.928966 112.448863 
L 294.948445 111.307513 
L 295.35751 94.098964 
L 295.760081 85.50588 
L 296.149667 81.37437 
L 296.526266 79.47745 
L 296.8704 78.728079 
L 297.188561 78.501373 
L 297.526202 78.53382 
L 298.032663 78.839729 
L 301.090909 81.046055 
L 301.097402 81.049263 
L 301.422057 57.007445 
L 301.441536 57.917031 
L 301.857094 71.846982 
L 302.266159 78.827825 
L 302.66873 82.270034 
L 303.058316 83.886418 
L 303.428422 84.585777 
L 303.798528 84.847323 
L 304.227072 84.868006 
L 304.908847 84.642263 
L 307.590493 83.591077 
L 307.915148 103.987052 
L 307.934627 103.219361 
L 308.343692 91.602629 
L 308.752756 85.669689 
L 309.148835 82.790273 
L 309.53842 81.418202 
L 309.908527 80.834524 
L 310.285126 80.625339 
L 310.746135 80.635246 
L 311.557772 80.917383 
L 313.84334 81.755281 
L 314.083584 81.819411 
L 314.408239 100.73886 
L 314.427718 100.041912 
L 314.836783 89.537443 
L 315.239354 84.297844 
L 315.62894 81.783804 
L 316.005539 80.634199 
L 316.362659 80.174647 
L 316.726272 80.047596 
L 317.200268 80.139528 
L 318.148259 80.608678 
L 319.8949 81.424453 
L 320.576675 81.656828 
L 320.901329 113.908369 
L 320.920809 112.71646 
L 321.329873 94.741062 
L 321.732445 85.757841 
L 322.122031 81.43238 
L 322.49863 79.440599 
L 322.842764 78.648476 
L 323.160925 78.403402 
L 323.492073 78.42676 
L 323.979055 78.717414 
L 327.069766 81.003989 
L 327.39442 77.012537 
L 327.407407 77.122023 
L 327.829457 79.713421 
L 328.258001 81.084596 
L 328.706025 81.820909 
L 329.205993 82.225237 
L 329.861795 82.455837 
L 330.9851 82.580396 
L 333.562857 82.635287 
L 333.887511 90.458906 
L 333.906991 90.16786 
L 334.316055 85.773145 
L 334.72512 83.543785 
L 335.127692 82.463286 
L 335.530263 81.962337 
L 335.978287 81.752049 
L 336.59513 81.730874 
L 338.004131 81.976005 
L 340.055948 82.289611 
L 340.380602 108.014304 
L 340.400081 107.05978 
L 340.809146 92.653733 
L 341.211718 85.437387 
L 341.607796 81.90825 
L 341.984396 80.309064 
L 342.341516 79.64862 
L 342.679156 79.445235 
L 343.062249 79.479528 
L 343.679092 79.794979 
L 346.204905 81.255868 
L 346.549039 81.396168 
L 346.873693 64.281281 
L 346.893172 64.929847 
L 347.30873 74.865363 
L 347.717795 79.849096 
L 348.120367 82.310689 
L 348.509952 83.470309 
L 348.893044 83.986364 
L 349.302109 84.179244 
L 349.834543 84.166981 
L 350.918889 83.863048 
L 353.042129 83.308408 
L 353.366784 96.117658 
L 353.386263 95.634974 
L 353.801821 88.248244 
L 354.210886 84.554938 
L 354.613457 82.74133 
L 355.009536 81.887208 
L 355.405615 81.518615 
L 355.860131 81.397855 
L 356.548399 81.47383 
L 359.53522 82.141719 
L 359.859875 95.414137 
L 359.879354 94.924587 
L 360.288419 87.544279 
L 360.690991 83.860222 
L 361.087069 82.070174 
L 361.470161 81.260565 
L 361.846761 80.935807 
L 362.275305 80.8591 
L 362.924614 80.998761 
L 366.028311 81.96664 
L 366.352966 105.530741 
L 366.372445 104.659547 
L 366.78151 91.519948 
L 367.184081 84.951903 
L 367.58016 81.752333 
L 367.956759 80.313663 
L 368.307386 79.736153 
L 368.65152 79.561302 
L 369.060585 79.61931 
L 369.748852 79.983493 
L 371.930531 81.218008 
L 372.521402 81.456171 
L 372.846057 89.269846 
L 372.865536 88.989666 
L 373.274601 84.788275 
L 373.677172 82.726628 
L 374.066758 81.767509 
L 374.456343 81.348021 
L 374.884887 81.207795 
L 375.495238 81.267325 
L 377.49511 81.826434 
L 379.014493 82.135353 
L 379.339148 46.039701 
L 379.358627 47.388437 
L 379.767692 67.770281 
L 380.170263 78.021402 
L 380.566342 83.071908 
L 380.949434 85.420086 
L 381.306554 86.394608 
L 381.631209 86.718655 
L 381.955863 86.743626 
L 382.403887 86.525527 
L 383.429795 85.696778 
L 384.832303 84.678361 
L 385.507584 84.304593 
L 385.52057 84.372037 
L 385.832239 85.543031 
L 385.851718 85.482307 
L 386.306234 84.447706 
L 386.799709 83.85012 
L 387.403567 83.469394 
L 388.286627 83.195995 
L 389.877434 82.96829 
L 392.000675 82.820525 
L 392.325329 56.564119 
L 392.344809 57.540371 
L 392.753873 72.279948 
L 393.156445 79.672232 
L 393.552524 83.295388 
L 393.929123 84.944302 
L 394.286243 85.631957 
L 394.623884 85.850775 
L 395.006976 85.826982 
L 395.610833 85.528315 
L 398.260015 84.021728 
L 398.487273 83.930764 
L 398.487273 83.930764 
" style="fill:none;stroke:#ff0000;stroke-linecap:square;stroke-width:1.5;"/>
   </g>
   <g id="patch_3">
    <path d="M 57.6 119.740235 
L 57.6 41.472 
" style="fill:none;stroke:#000000;stroke-linecap:square;stroke-linejoin:miter;stroke-width:0.8;"/>
   </g>
   <g id="patch_4">
    <path d="M 414.72 119.740235 
L 414.72 41.472 
" style="fill:none;stroke:#000000;stroke-linecap:square;stroke-linejoin:miter;stroke-width:0.8;"/>
   </g>
   <g id="patch_5">
    <path d="M 57.6 119.740235 
L 414.72 119.740235 
" style="fill:none;stroke:#000000;stroke-linecap:square;stroke-linejoin:miter;stroke-width:0.8;"/>
   </g>
   <g id="patch_6">
    <path d="M 57.6 41.472 
L 414.72 41.472 
" style="fill:none;stroke:#000000;stroke-linecap:square;stroke-linejoin:miter;stroke-width:0.8;"/>
   </g>
  </g>
  <g id="axes_2">
   <g id="patch_7">
    <path d="M 57.6 213.662118 
L 414.72 213.662118 
L 414.72 135.393882 
L 57.6 135.393882 
z
" style="fill:#ffffff;"/>
   </g>
   <g id="matplotlib.axis_3">
    <g id="xtick_7">
     <g id="line2d_12">
      <g>
       <use style="stroke:#000000;stroke-width:0.8;" x="73.832727" xlink:href="#ma90a69b5be" y="213.662118"/>
      </g>
     </g>
     <g id="text_11">
      <!-- 0 -->
      <g transform="translate(70.651477 228.260555)scale(0.1 -0.1)">
       <use xlink:href="#DejaVuSans-30"/>
      </g>
     </g>
    </g>
    <g id="xtick_8">
     <g id="line2d_13">
      <g>
       <use style="stroke:#000000;stroke-width:0.8;" x="138.763636" xlink:href="#ma90a69b5be" y="213.662118"/>
      </g>
     </g>
     <g id="text_12">
      <!-- 10 -->
      <g transform="translate(132.401136 228.260555)scale(0.1 -0.1)">
       <use xlink:href="#DejaVuSans-31"/>
       <use x="63.623047" xlink:href="#DejaVuSans-30"/>
      </g>
     </g>
    </g>
    <g id="xtick_9">
     <g id="line2d_14">
      <g>
       <use style="stroke:#000000;stroke-width:0.8;" x="203.694545" xlink:href="#ma90a69b5be" y="213.662118"/>
      </g>
     </g>
     <g id="text_13">
      <!-- 20 -->
      <g transform="translate(197.332045 228.260555)scale(0.1 -0.1)">
       <use xlink:href="#DejaVuSans-32"/>
       <use x="63.623047" xlink:href="#DejaVuSans-30"/>
      </g>
     </g>
    </g>
    <g id="xtick_10">
     <g id="line2d_15">
      <g>
       <use style="stroke:#000000;stroke-width:0.8;" x="268.625455" xlink:href="#ma90a69b5be" y="213.662118"/>
      </g>
     </g>
     <g id="text_14">
      <!-- 30 -->
      <g transform="translate(262.262955 228.260555)scale(0.1 -0.1)">
       <use xlink:href="#DejaVuSans-33"/>
       <use x="63.623047" xlink:href="#DejaVuSans-30"/>
      </g>
     </g>
    </g>
    <g id="xtick_11">
     <g id="line2d_16">
      <g>
       <use style="stroke:#000000;stroke-width:0.8;" x="333.556364" xlink:href="#ma90a69b5be" y="213.662118"/>
      </g>
     </g>
     <g id="text_15">
      <!-- 40 -->
      <g transform="translate(327.193864 228.260555)scale(0.1 -0.1)">
       <use xlink:href="#DejaVuSans-34"/>
       <use x="63.623047" xlink:href="#DejaVuSans-30"/>
      </g>
     </g>
    </g>
    <g id="xtick_12">
     <g id="line2d_17">
      <g>
       <use style="stroke:#000000;stroke-width:0.8;" x="398.487273" xlink:href="#ma90a69b5be" y="213.662118"/>
      </g>
     </g>
     <g id="text_16">
      <!-- 50 -->
      <g transform="translate(392.124773 228.260555)scale(0.1 -0.1)">
       <use xlink:href="#DejaVuSans-35"/>
       <use x="63.623047" xlink:href="#DejaVuSans-30"/>
      </g>
     </g>
    </g>
   </g>
   <g id="matplotlib.axis_4">
    <g id="ytick_4">
     <g id="line2d_18">
      <g>
       <use style="stroke:#000000;stroke-width:0.8;" x="57.6" xlink:href="#m9cbf62fa85" y="177.021801"/>
      </g>
     </g>
     <g id="text_17">
      <!-- 0.00 -->
      <g transform="translate(28.334375 180.82102)scale(0.1 -0.1)">
       <use xlink:href="#DejaVuSans-30"/>
       <use x="63.623047" xlink:href="#DejaVuSans-2e"/>
       <use x="95.410156" xlink:href="#DejaVuSans-30"/>
       <use x="159.033203" xlink:href="#DejaVuSans-30"/>
      </g>
     </g>
    </g>
    <g id="ytick_5">
     <g id="line2d_19">
      <g>
       <use style="stroke:#000000;stroke-width:0.8;" x="57.6" xlink:href="#m9cbf62fa85" y="139.105988"/>
      </g>
     </g>
     <g id="text_18">
      <!-- 0.02 -->
      <g transform="translate(28.334375 142.905207)scale(0.1 -0.1)">
       <use xlink:href="#DejaVuSans-30"/>
       <use x="63.623047" xlink:href="#DejaVuSans-2e"/>
       <use x="95.410156" xlink:href="#DejaVuSans-30"/>
       <use x="159.033203" xlink:href="#DejaVuSans-32"/>
      </g>
     </g>
    </g>
    <g id="text_19">
     <!-- TD State 1 -->
     <g transform="translate(22.254687 201.026437)rotate(-90)scale(0.1 -0.1)">
      <use xlink:href="#DejaVuSans-54"/>
      <use x="61.083984" xlink:href="#DejaVuSans-44"/>
      <use x="138.085938" xlink:href="#DejaVuSans-20"/>
      <use x="169.873047" xlink:href="#DejaVuSans-53"/>
      <use x="233.349609" xlink:href="#DejaVuSans-74"/>
      <use x="272.558594" xlink:href="#DejaVuSans-61"/>
      <use x="333.837891" xlink:href="#DejaVuSans-74"/>
      <use x="373.046875" xlink:href="#DejaVuSans-65"/>
      <use x="434.570312" xlink:href="#DejaVuSans-20"/>
      <use x="466.357422" xlink:href="#DejaVuSans-31"/>
     </g>
    </g>
   </g>
   <g id="line2d_20">
    <path clip-path="url(#p68cf2f9d0c)" d="M 73.832727 177.021801 
L 138.770129 177.021801 
L 138.776623 139.406821 
L 138.880512 146.082929 
L 139.088291 156.510233 
L 139.094784 194.698749 
L 139.205167 191.793068 
L 139.620724 184.427667 
L 140.036282 180.599898 
L 140.45184 178.62605 
L 140.873891 177.611102 
L 141.308928 177.102742 
L 141.815389 176.848649 
L 142.549108 176.751491 
L 144.269777 176.81646 
L 145.256727 176.867044 
L 145.26322 138.951531 
L 145.36711 145.697462 
L 145.581382 156.510233 
L 145.587875 194.698749 
L 145.698257 191.793068 
L 146.113815 184.427667 
L 146.529373 180.599898 
L 146.944931 178.62605 
L 147.366982 177.611102 
L 147.802019 177.102742 
L 148.30848 176.848649 
L 149.042199 176.751491 
L 150.762868 176.81646 
L 151.749818 176.867044 
L 151.756311 138.951531 
L 151.860201 145.697462 
L 152.074473 156.510233 
L 152.080966 194.698749 
L 152.191348 191.793068 
L 152.606906 184.427667 
L 153.022464 180.599898 
L 153.438022 178.62605 
L 153.860073 177.611102 
L 154.29511 177.102742 
L 154.801571 176.848649 
L 155.53529 176.751491 
L 157.255959 176.81646 
L 158.242909 176.867044 
L 158.249402 138.951531 
L 158.353292 145.697462 
L 158.567564 156.510233 
L 158.574057 194.698749 
L 158.684439 191.793068 
L 159.099997 184.427667 
L 159.515555 180.599898 
L 159.931113 178.62605 
L 160.353164 177.611102 
L 160.788201 177.102742 
L 161.294662 176.848649 
L 162.028381 176.751491 
L 163.74905 176.81646 
L 164.736 176.867044 
L 164.742493 138.951531 
L 164.846383 145.697462 
L 165.060655 156.510233 
L 165.067148 194.698749 
L 165.17753 191.793068 
L 165.593088 184.427667 
L 166.008646 180.599898 
L 166.424204 178.62605 
L 166.846255 177.611102 
L 167.281292 177.102742 
L 167.787753 176.848649 
L 168.521472 176.751491 
L 170.242141 176.81646 
L 171.229091 176.867044 
L 171.235584 138.951531 
L 171.339473 145.697462 
L 171.553745 156.510233 
L 171.560239 194.698749 
L 171.670621 191.793068 
L 172.086179 184.427667 
L 172.501737 180.599898 
L 172.917295 178.62605 
L 173.339345 177.611102 
L 173.774383 177.102742 
L 174.280844 176.848649 
L 175.014563 176.751491 
L 176.735232 176.81646 
L 177.722182 176.867044 
L 177.728675 138.951531 
L 177.832564 145.697462 
L 178.046836 156.510233 
L 178.053329 194.698749 
L 178.163712 191.793068 
L 178.57927 184.427667 
L 178.994828 180.599898 
L 179.410385 178.62605 
L 179.832436 177.611102 
L 180.267473 177.102742 
L 180.773935 176.848649 
L 181.507654 176.751491 
L 183.228323 176.81646 
L 184.215273 176.867044 
L 184.221766 138.951531 
L 184.325655 145.697462 
L 184.539927 156.510233 
L 184.54642 194.698749 
L 184.656803 191.793068 
L 185.072361 184.427667 
L 185.487919 180.599898 
L 185.903476 178.62605 
L 186.325527 177.611102 
L 186.760564 177.102742 
L 187.267025 176.848649 
L 188.000745 176.751491 
L 189.721414 176.81646 
L 190.708364 176.867044 
L 190.714857 138.951531 
L 190.818746 145.697462 
L 191.033018 156.510233 
L 191.039511 194.698749 
L 191.149894 191.793068 
L 191.565452 184.427667 
L 191.981009 180.599898 
L 192.396567 178.62605 
L 192.818618 177.611102 
L 193.253655 177.102742 
L 193.760116 176.848649 
L 194.493836 176.751491 
L 196.214505 176.81646 
L 197.201455 176.867044 
L 197.207948 138.951531 
L 197.311837 145.697462 
L 197.526109 156.510233 
L 197.532602 194.698749 
L 197.642985 191.793068 
L 198.058543 184.427667 
L 198.4741 180.599898 
L 198.889658 178.62605 
L 199.311709 177.611102 
L 199.746746 177.102742 
L 200.253207 176.848649 
L 200.986927 176.751491 
L 202.707596 176.81646 
L 203.694545 176.867044 
L 203.701039 138.951531 
L 203.804928 145.697462 
L 204.0192 156.510233 
L 204.025693 194.698749 
L 204.136076 191.793068 
L 204.551633 184.427667 
L 204.967191 180.599898 
L 205.382749 178.62605 
L 205.8048 177.611102 
L 206.239837 177.102742 
L 206.746298 176.848649 
L 207.480017 176.751491 
L 209.200687 176.81646 
L 210.187636 176.867044 
L 210.194129 138.951531 
L 210.298019 145.697462 
L 210.512291 156.510233 
L 210.518784 194.698749 
L 210.629167 191.793068 
L 211.044724 184.427667 
L 211.460282 180.599898 
L 211.87584 178.62605 
L 212.297891 177.611102 
L 212.732928 177.102742 
L 213.239389 176.848649 
L 213.973108 176.751491 
L 215.693777 176.81646 
L 216.680727 176.867044 
L 216.68722 138.951531 
L 216.79111 145.697462 
L 217.005382 156.510233 
L 217.011875 194.698749 
L 217.122257 191.793068 
L 217.537815 184.427667 
L 217.953373 180.599898 
L 218.368931 178.62605 
L 218.790982 177.611102 
L 219.226019 177.102742 
L 219.73248 176.848649 
L 220.466199 176.751491 
L 222.186868 176.81646 
L 223.173818 176.867044 
L 223.180311 138.951531 
L 223.284201 145.697462 
L 223.498473 156.510233 
L 223.504966 194.698749 
L 223.615348 191.793068 
L 224.030906 184.427667 
L 224.446464 180.599898 
L 224.862022 178.62605 
L 225.284073 177.611102 
L 225.71911 177.102742 
L 226.225571 176.848649 
L 226.95929 176.751491 
L 228.679959 176.81646 
L 229.666909 176.867044 
L 229.673402 138.951531 
L 229.777292 145.697462 
L 229.991564 156.510233 
L 229.998057 194.698749 
L 230.108439 191.793068 
L 230.523997 184.427667 
L 230.939555 180.599898 
L 231.355113 178.62605 
L 231.777164 177.611102 
L 232.212201 177.102742 
L 232.718662 176.848649 
L 233.452381 176.751491 
L 235.17305 176.81646 
L 236.16 176.867044 
L 236.166493 138.951531 
L 236.270383 145.697462 
L 236.484655 156.510233 
L 236.491148 194.698749 
L 236.60153 191.793068 
L 237.017088 184.427667 
L 237.432646 180.599898 
L 237.848204 178.62605 
L 238.270255 177.611102 
L 238.705292 177.102742 
L 239.211753 176.848649 
L 239.945472 176.751491 
L 241.666141 176.81646 
L 242.653091 176.867044 
L 242.659584 138.951531 
L 242.763473 145.697462 
L 242.977745 156.510233 
L 242.984239 194.698749 
L 243.094621 191.793068 
L 243.510179 184.427667 
L 243.925737 180.599898 
L 244.341295 178.62605 
L 244.763345 177.611102 
L 245.198383 177.102742 
L 245.704844 176.848649 
L 246.438563 176.751491 
L 248.159232 176.81646 
L 249.146182 176.867044 
L 249.152675 138.951531 
L 249.256564 145.697462 
L 249.470836 156.510233 
L 249.477329 194.698749 
L 249.587712 191.793068 
L 250.00327 184.427667 
L 250.418828 180.599898 
L 250.834385 178.62605 
L 251.256436 177.611102 
L 251.691473 177.102742 
L 252.197935 176.848649 
L 252.931654 176.751491 
L 254.652323 176.81646 
L 255.639273 176.867044 
L 255.645766 138.951531 
L 255.749655 145.697462 
L 255.963927 156.510233 
L 255.97042 194.698749 
L 256.080803 191.793068 
L 256.496361 184.427667 
L 256.911919 180.599898 
L 257.327476 178.62605 
L 257.749527 177.611102 
L 258.184564 177.102742 
L 258.691025 176.848649 
L 259.424745 176.751491 
L 261.145414 176.81646 
L 262.132364 176.867044 
L 262.138857 138.951531 
L 262.242746 145.697462 
L 262.457018 156.510233 
L 262.463511 194.698749 
L 262.573894 191.793068 
L 262.989452 184.427667 
L 263.405009 180.599898 
L 263.820567 178.62605 
L 264.242618 177.611102 
L 264.677655 177.102742 
L 265.184116 176.848649 
L 265.917836 176.751491 
L 267.638505 176.81646 
L 272.482351 176.974206 
L 275.118545 177.000664 
L 275.125039 163.009736 
L 275.228928 165.497918 
L 275.4432 169.485709 
L 275.449693 183.577244 
L 275.560076 182.503991 
L 275.982127 179.752442 
L 276.404177 178.335742 
L 276.839215 177.596299 
L 277.319703 177.206174 
L 277.936547 177.005426 
L 278.988428 176.932507 
L 281.611636 176.969633 
L 281.618129 210.10447 
L 281.722019 204.214878 
L 281.936291 194.776837 
L 281.942784 161.404116 
L 282.053167 163.948947 
L 282.468724 170.405018 
L 282.884282 173.767349 
L 283.29984 175.507537 
L 283.721891 176.408147 
L 284.169914 176.873825 
L 284.708841 177.111277 
L 285.52697 177.203264 
L 287.760593 177.143002 
L 288.104727 177.131441 
L 288.11122 197.171092 
L 288.21511 193.604805 
L 288.429382 187.888233 
L 288.435875 167.70419 
L 288.546257 169.239135 
L 288.961815 173.129156 
L 289.377373 175.149716 
L 289.799424 176.202045 
L 290.240954 176.747262 
L 290.753908 177.030473 
L 291.487628 177.159013 
L 293.071942 177.152374 
L 294.597818 177.107429 
L 294.604311 208.155647 
L 294.708201 202.632805 
L 294.922473 193.780944 
L 294.928966 162.509322 
L 295.039348 164.889932 
L 295.454906 170.925547 
L 295.870464 174.063797 
L 296.286022 175.683477 
L 296.708073 176.517588 
L 297.162589 176.948893 
L 297.720995 177.163483 
L 298.597562 177.232842 
L 301.090909 177.14291 
L 301.097402 152.767117 
L 301.201292 157.097279 
L 301.415564 164.035394 
L 301.422057 188.585883 
L 301.532439 186.711328 
L 301.947997 181.953347 
L 302.370048 179.444925 
L 302.792099 178.157278 
L 303.227136 177.488765 
L 303.714118 177.136679 
L 304.356934 176.96004 
L 305.519197 176.910341 
L 307.584 176.952446 
L 307.590493 197.58931 
L 307.694383 193.922292 
L 307.908655 188.046338 
L 307.915148 167.26145 
L 308.02553 168.847481 
L 308.441088 172.872193 
L 308.863139 174.992759 
L 309.28519 176.080173 
L 309.72672 176.649421 
L 310.239674 176.951634 
L 310.960407 177.097489 
L 312.440832 177.118422 
L 314.077091 177.08502 
L 314.083584 196.065508 
L 314.187473 192.688959 
L 314.401745 187.276988 
L 314.408239 168.159889 
L 314.518621 169.614903 
L 314.934179 173.303517 
L 315.35623 175.242068 
L 315.778281 176.231752 
L 316.226304 176.750786 
L 316.752244 177.020104 
L 317.524922 177.141312 
L 319.304029 177.129585 
L 320.570182 177.09735 
L 320.576675 209.494009 
L 320.680564 203.731738 
L 320.894836 194.496285 
L 320.901329 161.86657 
L 321.011712 164.350981 
L 321.42727 170.650158 
L 321.842828 173.925972 
L 322.258385 175.617115 
L 322.680436 176.488453 
L 323.12846 176.935189 
L 323.673879 177.159976 
L 324.517981 177.237755 
L 327.063273 177.146292 
L 327.069766 172.966546 
L 327.173655 173.705861 
L 327.387927 174.889259 
L 327.39442 179.098575 
L 327.504803 178.774089 
L 327.93984 177.920311 
L 328.413836 177.457757 
L 329.004707 177.200946 
L 329.933219 177.068805 
L 332.322676 177.025924 
L 333.556364 177.024084 
L 333.562857 184.90336 
L 333.666746 183.502378 
L 333.881018 181.257145 
L 333.887511 173.321245 
L 333.997894 173.925949 
L 334.419945 175.47654 
L 334.854982 176.292376 
L 335.328977 176.725531 
L 335.919849 176.95562 
L 336.874333 177.058975 
L 339.796224 177.052022 
L 340.049455 177.049858 
L 340.055948 202.931275 
L 340.159837 198.328841 
L 340.374109 190.952679 
L 340.380602 164.885198 
L 340.490985 166.870926 
L 340.906543 171.906625 
L 341.3221 174.52661 
L 341.744151 175.895064 
L 342.172695 176.593434 
L 342.646691 176.957746 
L 343.263535 177.138 
L 344.341388 177.183067 
L 346.542545 177.116847 
L 346.549039 159.752958 
L 346.652928 162.83725 
L 346.8672 167.779034 
L 346.873693 185.267334 
L 346.984076 183.931756 
L 347.406127 180.504127 
L 347.828177 178.73461 
L 348.256721 177.816311 
L 348.711238 177.335219 
L 349.263151 177.077844 
L 350.100759 176.959251 
L 352.198028 176.960877 
L 353.035636 176.973603 
L 353.042129 189.940051 
L 353.146019 187.636148 
L 353.360291 183.944474 
L 353.366784 170.885036 
L 353.477167 171.881697 
L 353.899217 174.438867 
L 354.321268 175.758129 
L 354.756305 176.449151 
L 355.243287 176.819465 
L 355.886103 177.013719 
L 357.015901 177.085016 
L 359.528727 177.060887 
L 359.53522 190.382826 
L 359.63911 188.01307 
L 359.853382 184.21486 
L 359.859875 170.797057 
L 359.970257 171.818451 
L 360.392308 174.436485 
L 360.814359 175.783692 
L 361.249396 176.486172 
L 361.729885 176.856088 
L 362.359715 177.047673 
L 363.46354 177.113005 
L 366.021818 177.074104 
L 366.028311 200.747916 
L 366.132201 196.537236 
L 366.346473 189.788617 
L 366.352966 165.944511 
L 366.463348 167.760078 
L 366.878906 172.363492 
L 367.294464 174.757555 
L 367.716515 176.00709 
L 368.151552 176.65052 
L 368.638534 176.983857 
L 369.294336 177.145242 
L 370.515037 177.172448 
L 372.514909 177.112377 
L 372.521402 184.869229 
L 372.625292 183.487323 
L 372.839564 181.27165 
L 372.846057 173.458728 
L 372.956439 174.051447 
L 373.37849 175.568716 
L 373.813527 176.363438 
L 374.287523 176.781808 
L 374.884887 177.00112 
L 375.865344 177.091327 
L 379.008 177.061516 
L 379.014493 140.645321 
L 379.118383 147.118693 
L 379.332655 157.492434 
L 379.339148 194.170134 
L 379.44953 191.373799 
L 379.865088 184.280186 
L 380.280646 180.586495 
L 380.696204 178.675407 
L 381.118255 177.686896 
L 381.559785 177.181241 
L 382.079232 176.923921 
L 382.838924 176.81954 
L 384.650496 176.865218 
L 385.501091 176.898881 
L 385.507584 178.303055 
L 385.611473 178.057155 
L 385.825745 177.664486 
L 385.832239 176.250676 
L 385.942621 176.362064 
L 386.468561 176.698511 
L 387.208774 176.88803 
L 388.637254 176.979565 
L 391.994182 177.00993 
L 392.000675 150.572184 
L 392.104564 155.273053 
L 392.318836 162.806781 
L 392.325329 189.434533 
L 392.435712 187.405637 
L 392.85127 182.259986 
L 393.266828 179.582149 
L 393.688879 178.182894 
L 394.117423 177.468269 
L 394.591418 177.094923 
L 395.201769 176.910461 
L 396.253649 176.861203 
L 398.487273 176.92703 
L 398.487273 176.92703 
" style="fill:none;stroke:#000000;stroke-linecap:square;stroke-width:4;"/>
   </g>
   <g id="line2d_21">
    <path clip-path="url(#p68cf2f9d0c)" d="M 73.832727 177.021801 
L 80.325818 177.021801 
L 80.332311 139.105988 
L 80.436201 145.847212 
L 80.650473 156.650669 
L 80.656966 194.838913 
L 80.767348 191.928647 
L 81.182906 184.5472 
L 81.598464 180.705199 
L 82.014022 178.71877 
L 82.436073 177.692557 
L 82.877603 177.168836 
L 83.390557 176.905664 
L 84.130769 176.799358 
L 85.838452 176.845406 
L 86.818909 176.888181 
L 86.825402 138.972624 
L 86.929292 145.717891 
L 87.143564 156.529358 
L 87.150057 194.717838 
L 87.260439 191.811519 
L 87.675997 184.4439 
L 88.091555 180.614181 
L 88.507113 178.638618 
L 88.929164 177.622138 
L 89.364201 177.112394 
L 89.870662 176.856907 
L 90.604381 176.758079 
L 92.318557 176.819985 
L 93.312 176.869906 
L 93.318493 138.954386 
L 93.422383 145.700227 
L 93.636655 156.512822 
L 93.643148 194.701335 
L 93.75353 191.795567 
L 94.169088 184.429865 
L 94.584646 180.601831 
L 95.000204 178.627752 
L 95.422255 177.612596 
L 95.857292 177.104049 
L 96.363753 176.849767 
L 97.097472 176.752383 
L 98.818141 176.816985 
L 99.805091 176.867432 
L 99.811584 138.951916 
L 99.915473 145.697835 
L 100.129745 156.510583 
L 100.136239 194.6991 
L 100.246621 191.793407 
L 100.662179 184.427964 
L 101.077737 180.600159 
L 101.493295 178.62628 
L 101.915345 177.611304 
L 102.350383 177.102919 
L 102.856844 176.8488 
L 103.590563 176.751612 
L 105.311232 176.81653 
L 106.298182 176.867097 
L 106.304675 138.951582 
L 106.408564 145.697511 
L 106.622836 156.51028 
L 106.629329 194.698797 
L 106.739712 191.793115 
L 107.15527 184.427707 
L 107.570828 180.599933 
L 107.986385 178.626081 
L 108.408436 177.611129 
L 108.843473 177.102766 
L 109.349935 176.848669 
L 110.083654 176.751507 
L 111.804323 176.816469 
L 112.791273 176.867051 
L 112.797766 138.951537 
L 112.901655 145.697468 
L 113.115927 156.510239 
L 113.12242 194.698757 
L 113.232803 191.793075 
L 113.648361 184.427672 
L 114.063919 180.599902 
L 114.479476 178.626054 
L 114.901527 177.611105 
L 115.336564 177.102745 
L 115.843025 176.848652 
L 116.576745 176.751493 
L 118.297414 176.816461 
L 119.284364 176.867045 
L 119.290857 138.95153 
L 119.394746 145.697462 
L 119.609018 156.510233 
L 119.615511 194.698751 
L 119.725894 191.79307 
L 120.141452 184.427667 
L 120.557009 180.599898 
L 120.972567 178.62605 
L 121.394618 177.611102 
L 121.829655 177.102742 
L 122.336116 176.848649 
L 123.069836 176.751491 
L 124.790505 176.81646 
L 125.777455 176.867044 
L 125.783948 138.95153 
L 125.887837 145.697461 
L 126.102109 156.510232 
L 126.108602 194.69875 
L 126.218985 191.793069 
L 126.634543 184.427667 
L 127.0501 180.599897 
L 127.465658 178.62605 
L 127.887709 177.611102 
L 128.322746 177.102742 
L 128.829207 176.848649 
L 129.562927 176.751491 
L 131.283596 176.816459 
L 132.270545 176.867044 
L 132.277039 138.951529 
L 132.380928 145.697461 
L 132.5952 156.510232 
L 132.601693 194.69875 
L 132.712076 191.793069 
L 133.127633 184.427666 
L 133.543191 180.599897 
L 133.958749 178.62605 
L 134.3808 177.611102 
L 134.815837 177.102742 
L 135.322298 176.848649 
L 136.056017 176.751491 
L 137.776687 176.816459 
L 138.763636 176.867044 
L 138.770129 138.951529 
L 138.874019 145.697461 
L 139.088291 156.510232 
L 139.094784 194.69875 
L 139.205167 191.793069 
L 139.620724 184.427666 
L 140.036282 180.599897 
L 140.45184 178.62605 
L 140.873891 177.611102 
L 141.308928 177.102742 
L 141.815389 176.848649 
L 142.549108 176.751491 
L 144.269777 176.816459 
L 145.256727 176.867044 
L 145.26322 138.951529 
L 145.36711 145.697461 
L 145.581382 156.510232 
L 145.587875 194.69875 
L 145.698257 191.793069 
L 146.113815 184.427666 
L 146.529373 180.599897 
L 146.944931 178.62605 
L 147.366982 177.611102 
L 147.802019 177.102742 
L 148.30848 176.848649 
L 149.042199 176.751491 
L 150.762868 176.816459 
L 151.749818 176.867044 
L 151.756311 138.951529 
L 151.860201 145.697461 
L 152.074473 156.510232 
L 152.080966 194.69875 
L 152.191348 191.793069 
L 152.606906 184.427666 
L 153.022464 180.599897 
L 153.438022 178.62605 
L 153.860073 177.611102 
L 154.29511 177.102742 
L 154.801571 176.848649 
L 155.53529 176.751491 
L 157.255959 176.816459 
L 158.242909 176.867044 
L 158.249402 138.951529 
L 158.353292 145.697461 
L 158.567564 156.510232 
L 158.574057 194.69875 
L 158.684439 191.793069 
L 159.099997 184.427666 
L 159.515555 180.599897 
L 159.931113 178.62605 
L 160.353164 177.611102 
L 160.788201 177.102742 
L 161.294662 176.848649 
L 162.028381 176.751491 
L 163.74905 176.816459 
L 164.736 176.867044 
L 164.742493 138.951529 
L 164.846383 145.697461 
L 165.060655 156.510232 
L 165.067148 194.69875 
L 165.17753 191.793069 
L 165.593088 184.427666 
L 166.008646 180.599897 
L 166.424204 178.62605 
L 166.846255 177.611102 
L 167.281292 177.102742 
L 167.787753 176.848649 
L 168.521472 176.751491 
L 170.242141 176.816459 
L 171.229091 176.867044 
L 171.235584 138.951529 
L 171.339473 145.697461 
L 171.553745 156.510232 
L 171.560239 194.69875 
L 171.670621 191.793069 
L 172.086179 184.427666 
L 172.501737 180.599897 
L 172.917295 178.62605 
L 173.339345 177.611102 
L 173.774383 177.102742 
L 174.280844 176.848649 
L 175.014563 176.751491 
L 176.735232 176.816459 
L 177.722182 176.867044 
L 177.728675 138.951529 
L 177.832564 145.697461 
L 178.046836 156.510232 
L 178.053329 194.69875 
L 178.163712 191.793069 
L 178.57927 184.427666 
L 178.994828 180.599897 
L 179.410385 178.62605 
L 179.832436 177.611102 
L 180.267473 177.102742 
L 180.773935 176.848649 
L 181.507654 176.751491 
L 183.228323 176.816459 
L 184.215273 176.867044 
L 184.221766 138.951529 
L 184.325655 145.697461 
L 184.539927 156.510232 
L 184.54642 194.69875 
L 184.656803 191.793069 
L 185.072361 184.427666 
L 185.487919 180.599897 
L 185.903476 178.62605 
L 186.325527 177.611102 
L 186.760564 177.102742 
L 187.267025 176.848649 
L 188.000745 176.751491 
L 189.721414 176.816459 
L 190.708364 176.867044 
L 190.714857 138.951529 
L 190.818746 145.697461 
L 191.033018 156.510232 
L 191.039511 194.69875 
L 191.149894 191.793069 
L 191.565452 184.427666 
L 191.981009 180.599897 
L 192.396567 178.62605 
L 192.818618 177.611102 
L 193.253655 177.102742 
L 193.760116 176.848649 
L 194.493836 176.751491 
L 196.214505 176.816459 
L 197.201455 176.867044 
L 197.207948 138.951529 
L 197.311837 145.697461 
L 197.526109 156.510232 
L 197.532602 194.69875 
L 197.642985 191.793069 
L 198.058543 184.427666 
L 198.4741 180.599897 
L 198.889658 178.62605 
L 199.311709 177.611102 
L 199.746746 177.102742 
L 200.253207 176.848649 
L 200.986927 176.751491 
L 202.707596 176.816459 
L 203.694545 176.867044 
L 203.701039 138.951529 
L 203.804928 145.697461 
L 204.0192 156.510232 
L 204.025693 194.69875 
L 204.136076 191.793069 
L 204.551633 184.427666 
L 204.967191 180.599897 
L 205.382749 178.62605 
L 205.8048 177.611102 
L 206.239837 177.102742 
L 206.746298 176.848649 
L 207.480017 176.751491 
L 209.200687 176.816459 
L 210.187636 176.867044 
L 210.194129 138.951529 
L 210.298019 145.697461 
L 210.512291 156.510232 
L 210.518784 194.69875 
L 210.629167 191.793069 
L 211.044724 184.427666 
L 211.460282 180.599897 
L 211.87584 178.62605 
L 212.297891 177.611102 
L 212.732928 177.102742 
L 213.239389 176.848649 
L 213.973108 176.751491 
L 215.693777 176.816459 
L 216.680727 176.867044 
L 216.68722 138.951529 
L 216.79111 145.697461 
L 217.005382 156.510232 
L 217.011875 194.69875 
L 217.122257 191.793069 
L 217.537815 184.427666 
L 217.953373 180.599897 
L 218.368931 178.62605 
L 218.790982 177.611102 
L 219.226019 177.102742 
L 219.73248 176.848649 
L 220.466199 176.751491 
L 222.186868 176.816459 
L 223.173818 176.867044 
L 223.180311 138.951529 
L 223.284201 145.697461 
L 223.498473 156.510232 
L 223.504966 194.69875 
L 223.615348 191.793069 
L 224.030906 184.427666 
L 224.446464 180.599897 
L 224.862022 178.62605 
L 225.284073 177.611102 
L 225.71911 177.102742 
L 226.225571 176.848649 
L 226.95929 176.751491 
L 228.679959 176.816459 
L 229.666909 176.867044 
L 229.673402 138.951529 
L 229.777292 145.697461 
L 229.991564 156.510232 
L 229.998057 194.69875 
L 230.108439 191.793069 
L 230.523997 184.427666 
L 230.939555 180.599897 
L 231.355113 178.62605 
L 231.777164 177.611102 
L 232.212201 177.102742 
L 232.718662 176.848649 
L 233.452381 176.751491 
L 235.17305 176.816459 
L 236.16 176.867044 
L 236.166493 138.951529 
L 236.270383 145.697461 
L 236.484655 156.510232 
L 236.491148 194.69875 
L 236.60153 191.793069 
L 237.017088 184.427666 
L 237.432646 180.599897 
L 237.848204 178.62605 
L 238.270255 177.611102 
L 238.705292 177.102742 
L 239.211753 176.848649 
L 239.945472 176.751491 
L 241.666141 176.816459 
L 242.653091 176.867044 
L 242.659584 138.951529 
L 242.763473 145.697461 
L 242.977745 156.510232 
L 242.984239 194.69875 
L 243.094621 191.793069 
L 243.510179 184.427666 
L 243.925737 180.599897 
L 244.341295 178.62605 
L 244.763345 177.611102 
L 245.198383 177.102742 
L 245.704844 176.848649 
L 246.438563 176.751491 
L 248.159232 176.816459 
L 249.146182 176.867044 
L 249.152675 138.951529 
L 249.256564 145.697461 
L 249.470836 156.510232 
L 249.477329 194.69875 
L 249.587712 191.793069 
L 250.00327 184.427666 
L 250.418828 180.599897 
L 250.834385 178.62605 
L 251.256436 177.611102 
L 251.691473 177.102742 
L 252.197935 176.848649 
L 252.931654 176.751491 
L 254.652323 176.816459 
L 255.639273 176.867044 
L 255.645766 138.951529 
L 255.749655 145.697461 
L 255.963927 156.510232 
L 255.97042 194.69875 
L 256.080803 191.793069 
L 256.496361 184.427666 
L 256.911919 180.599897 
L 257.327476 178.62605 
L 257.749527 177.611102 
L 258.184564 177.102742 
L 258.691025 176.848649 
L 259.424745 176.751491 
L 261.145414 176.816459 
L 262.132364 176.867044 
L 262.138857 138.951529 
L 262.242746 145.697461 
L 262.457018 156.510232 
L 262.463511 194.69875 
L 262.573894 191.793069 
L 262.989452 184.427666 
L 263.405009 180.599897 
L 263.820567 178.62605 
L 264.242618 177.611102 
L 264.677655 177.102742 
L 265.184116 176.848649 
L 265.917836 176.751491 
L 267.638505 176.816459 
L 272.482351 176.974205 
L 275.118545 177.000664 
L 275.125039 163.009735 
L 275.228928 165.497918 
L 275.4432 169.485708 
L 275.449693 183.577245 
L 275.560076 182.503992 
L 275.982127 179.752442 
L 276.404177 178.335742 
L 276.839215 177.596299 
L 277.319703 177.206174 
L 277.936547 177.005426 
L 278.988428 176.932507 
L 281.611636 176.969633 
L 281.618129 210.104471 
L 281.722019 204.214877 
L 281.936291 194.776838 
L 281.942784 161.404115 
L 282.053167 163.948947 
L 282.468724 170.405017 
L 282.884282 173.767349 
L 283.29984 175.507538 
L 283.721891 176.408147 
L 284.169914 176.873825 
L 284.708841 177.111277 
L 285.52697 177.203265 
L 287.760593 177.143002 
L 288.104727 177.131441 
L 288.11122 197.171095 
L 288.21511 193.604808 
L 288.429382 187.888234 
L 288.435875 167.704189 
L 288.546257 169.239134 
L 288.961815 173.129156 
L 289.377373 175.149716 
L 289.799424 176.202046 
L 290.240954 176.747263 
L 290.753908 177.030473 
L 291.487628 177.159013 
L 293.071942 177.152375 
L 294.597818 177.107429 
L 294.604311 208.155649 
L 294.708201 202.632808 
L 294.922473 193.780946 
L 294.928966 162.509322 
L 295.039348 164.889932 
L 295.454906 170.925547 
L 295.870464 174.063798 
L 296.286022 175.683478 
L 296.708073 176.517588 
L 297.162589 176.948893 
L 297.720995 177.163484 
L 298.597562 177.232842 
L 301.090909 177.14291 
L 301.097402 152.767115 
L 301.201292 157.097279 
L 301.415564 164.035394 
L 301.422057 188.585884 
L 301.532439 186.711329 
L 301.947997 181.953347 
L 302.370048 179.444925 
L 302.792099 178.157278 
L 303.227136 177.488764 
L 303.714118 177.136679 
L 304.356934 176.96004 
L 305.519197 176.910341 
L 307.584 176.952446 
L 307.590493 197.589311 
L 307.694383 193.922292 
L 307.908655 188.046339 
L 307.915148 167.261449 
L 308.02553 168.84748 
L 308.441088 172.872193 
L 308.863139 174.992759 
L 309.28519 176.080173 
L 309.72672 176.649421 
L 310.239674 176.951634 
L 310.960407 177.09749 
L 312.440832 177.118422 
L 314.077091 177.08502 
L 314.083584 196.06551 
L 314.187473 192.68896 
L 314.401745 187.276989 
L 314.408239 168.159888 
L 314.518621 169.614903 
L 314.934179 173.303517 
L 315.35623 175.242068 
L 315.778281 176.231752 
L 316.226304 176.750786 
L 316.752244 177.020104 
L 317.524922 177.141312 
L 319.304029 177.129585 
L 320.570182 177.09735 
L 320.576675 209.49401 
L 320.680564 203.73174 
L 320.894836 194.496284 
L 320.901329 161.866569 
L 321.011712 164.350981 
L 321.42727 170.650158 
L 321.842828 173.925972 
L 322.258385 175.617115 
L 322.680436 176.488453 
L 323.12846 176.935189 
L 323.673879 177.159976 
L 324.517981 177.237755 
L 327.063273 177.146292 
L 327.069766 172.966546 
L 327.173655 173.705861 
L 327.387927 174.889258 
L 327.39442 179.098575 
L 327.504803 178.774089 
L 327.93984 177.920311 
L 328.413836 177.457757 
L 329.004707 177.200946 
L 329.933219 177.068805 
L 332.322676 177.025924 
L 333.556364 177.024084 
L 333.562857 184.903361 
L 333.666746 183.502379 
L 333.881018 181.257146 
L 333.887511 173.321245 
L 333.997894 173.925949 
L 334.419945 175.47654 
L 334.854982 176.292376 
L 335.328977 176.725531 
L 335.919849 176.95562 
L 336.874333 177.058975 
L 339.796224 177.052022 
L 340.049455 177.049858 
L 340.055948 202.931277 
L 340.159837 198.328844 
L 340.374109 190.952682 
L 340.380602 164.885197 
L 340.490985 166.870926 
L 340.906543 171.906625 
L 341.3221 174.52661 
L 341.744151 175.895064 
L 342.172695 176.593434 
L 342.646691 176.957746 
L 343.263535 177.138 
L 344.341388 177.183067 
L 346.542545 177.116848 
L 346.549039 159.752957 
L 346.652928 162.837249 
L 346.8672 167.779034 
L 346.873693 185.267335 
L 346.984076 183.931756 
L 347.406127 180.504127 
L 347.828177 178.73461 
L 348.256721 177.816311 
L 348.711238 177.335219 
L 349.263151 177.077844 
L 350.100759 176.959251 
L 352.198028 176.960877 
L 353.035636 176.973603 
L 353.042129 189.940052 
L 353.146019 187.636148 
L 353.360291 183.944474 
L 353.366784 170.885036 
L 353.477167 171.881697 
L 353.899217 174.438867 
L 354.321268 175.758129 
L 354.756305 176.449151 
L 355.243287 176.819465 
L 355.886103 177.013719 
L 357.015901 177.085016 
L 359.528727 177.060887 
L 359.53522 190.382827 
L 359.63911 188.013071 
L 359.853382 184.214861 
L 359.859875 170.797057 
L 359.970257 171.818451 
L 360.392308 174.436485 
L 360.814359 175.783692 
L 361.249396 176.486172 
L 361.729885 176.856089 
L 362.359715 177.047673 
L 363.46354 177.113005 
L 366.021818 177.074104 
L 366.028311 200.747918 
L 366.132201 196.537237 
L 366.346473 189.788618 
L 366.352966 165.944511 
L 366.463348 167.760077 
L 366.878906 172.363493 
L 367.294464 174.757556 
L 367.716515 176.00709 
L 368.151552 176.65052 
L 368.638534 176.983857 
L 369.294336 177.145243 
L 370.515037 177.172448 
L 372.514909 177.112377 
L 372.521402 184.86923 
L 372.625292 183.487324 
L 372.839564 181.271651 
L 372.846057 173.458728 
L 372.956439 174.051447 
L 373.37849 175.568716 
L 373.813527 176.363438 
L 374.287523 176.781808 
L 374.884887 177.00112 
L 375.865344 177.091327 
L 379.008 177.061516 
L 379.014493 140.645321 
L 379.118383 147.118691 
L 379.332655 157.492433 
L 379.339148 194.170136 
L 379.44953 191.3738 
L 379.865088 184.280186 
L 380.280646 180.586495 
L 380.696204 178.675407 
L 381.118255 177.686896 
L 381.559785 177.181241 
L 382.079232 176.92392 
L 382.838924 176.81954 
L 384.650496 176.865218 
L 385.501091 176.898881 
L 385.507584 178.303055 
L 385.611473 178.057155 
L 385.825745 177.664486 
L 385.832239 176.250676 
L 385.942621 176.362064 
L 386.468561 176.69851 
L 387.208774 176.88803 
L 388.637254 176.979565 
L 391.994182 177.00993 
L 392.000675 150.572182 
L 392.104564 155.273052 
L 392.318836 162.806781 
L 392.325329 189.434534 
L 392.435712 187.405638 
L 392.85127 182.259986 
L 393.266828 179.582149 
L 393.688879 178.182894 
L 394.117423 177.468268 
L 394.591418 177.094923 
L 395.201769 176.91046 
L 396.253649 176.861202 
L 398.487273 176.92703 
L 398.487273 176.92703 
" style="fill:none;stroke:#ff0000;stroke-linecap:square;stroke-width:1.5;"/>
   </g>
   <g id="patch_8">
    <path d="M 57.6 213.662118 
L 57.6 135.393882 
" style="fill:none;stroke:#000000;stroke-linecap:square;stroke-linejoin:miter;stroke-width:0.8;"/>
   </g>
   <g id="patch_9">
    <path d="M 414.72 213.662118 
L 414.72 135.393882 
" style="fill:none;stroke:#000000;stroke-linecap:square;stroke-linejoin:miter;stroke-width:0.8;"/>
   </g>
   <g id="patch_10">
    <path d="M 57.6 213.662118 
L 414.72 213.662118 
" style="fill:none;stroke:#000000;stroke-linecap:square;stroke-linejoin:miter;stroke-width:0.8;"/>
   </g>
   <g id="patch_11">
    <path d="M 57.6 135.393882 
L 414.72 135.393882 
" style="fill:none;stroke:#000000;stroke-linecap:square;stroke-linejoin:miter;stroke-width:0.8;"/>
   </g>
   <g id="legend_1">
    <g id="patch_12">
     <path d="M 353.0325 172.750132 
L 407.72 172.750132 
Q 409.72 172.750132 409.72 170.750132 
L 409.72 142.393882 
Q 409.72 140.393882 407.72 140.393882 
L 353.0325 140.393882 
Q 351.0325 140.393882 351.0325 142.393882 
L 351.0325 170.750132 
Q 351.0325 172.750132 353.0325 172.750132 
z
" style="fill:#ffffff;opacity:0.8;stroke:#cccccc;stroke-linejoin:miter;"/>
    </g>
    <g id="line2d_22">
     <path d="M 355.0325 148.49232 
L 375.0325 148.49232 
" style="fill:none;stroke:#000000;stroke-linecap:square;stroke-width:4;"/>
    </g>
    <g id="line2d_23"/>
    <g id="text_20">
     <!-- Pred -->
     <defs>
      <path d="M 19.671875 64.796875 
L 19.671875 37.40625 
L 32.078125 37.40625 
Q 38.96875 37.40625 42.71875 40.96875 
Q 46.484375 44.53125 46.484375 51.125 
Q 46.484375 57.671875 42.71875 61.234375 
Q 38.96875 64.796875 32.078125 64.796875 
z
M 9.8125 72.90625 
L 32.078125 72.90625 
Q 44.34375 72.90625 50.609375 67.359375 
Q 56.890625 61.8125 56.890625 51.125 
Q 56.890625 40.328125 50.609375 34.8125 
Q 44.34375 29.296875 32.078125 29.296875 
L 19.671875 29.296875 
L 19.671875 0 
L 9.8125 0 
z
" id="DejaVuSans-50"/>
      <path d="M 41.109375 46.296875 
Q 39.59375 47.171875 37.8125 47.578125 
Q 36.03125 48 33.890625 48 
Q 26.265625 48 22.1875 43.046875 
Q 18.109375 38.09375 18.109375 28.8125 
L 18.109375 0 
L 9.078125 0 
L 9.078125 54.6875 
L 18.109375 54.6875 
L 18.109375 46.1875 
Q 20.953125 51.171875 25.484375 53.578125 
Q 30.03125 56 36.53125 56 
Q 37.453125 56 38.578125 55.875 
Q 39.703125 55.765625 41.0625 55.515625 
z
" id="DejaVuSans-72"/>
      <path d="M 45.40625 46.390625 
L 45.40625 75.984375 
L 54.390625 75.984375 
L 54.390625 0 
L 45.40625 0 
L 45.40625 8.203125 
Q 42.578125 3.328125 38.25 0.953125 
Q 33.9375 -1.421875 27.875 -1.421875 
Q 17.96875 -1.421875 11.734375 6.484375 
Q 5.515625 14.40625 5.515625 27.296875 
Q 5.515625 40.1875 11.734375 48.09375 
Q 17.96875 56 27.875 56 
Q 33.9375 56 38.25 53.625 
Q 42.578125 51.265625 45.40625 46.390625 
z
M 14.796875 27.296875 
Q 14.796875 17.390625 18.875 11.75 
Q 22.953125 6.109375 30.078125 6.109375 
Q 37.203125 6.109375 41.296875 11.75 
Q 45.40625 17.390625 45.40625 27.296875 
Q 45.40625 37.203125 41.296875 42.84375 
Q 37.203125 48.484375 30.078125 48.484375 
Q 22.953125 48.484375 18.875 42.84375 
Q 14.796875 37.203125 14.796875 27.296875 
z
" id="DejaVuSans-64"/>
     </defs>
     <g transform="translate(383.0325 151.99232)scale(0.1 -0.1)">
      <use xlink:href="#DejaVuSans-50"/>
      <use x="60.287109" xlink:href="#DejaVuSans-72"/>
      <use x="101.369141" xlink:href="#DejaVuSans-65"/>
      <use x="162.892578" xlink:href="#DejaVuSans-64"/>
     </g>
    </g>
    <g id="line2d_24">
     <path d="M 355.0325 163.170445 
L 375.0325 163.170445 
" style="fill:none;stroke:#ff0000;stroke-linecap:square;stroke-width:1.5;"/>
    </g>
    <g id="line2d_25"/>
    <g id="text_21">
     <!-- True -->
     <defs>
      <path d="M 8.5 21.578125 
L 8.5 54.6875 
L 17.484375 54.6875 
L 17.484375 21.921875 
Q 17.484375 14.15625 20.5 10.265625 
Q 23.53125 6.390625 29.59375 6.390625 
Q 36.859375 6.390625 41.078125 11.03125 
Q 45.3125 15.671875 45.3125 23.6875 
L 45.3125 54.6875 
L 54.296875 54.6875 
L 54.296875 0 
L 45.3125 0 
L 45.3125 8.40625 
Q 42.046875 3.421875 37.71875 1 
Q 33.40625 -1.421875 27.6875 -1.421875 
Q 18.265625 -1.421875 13.375 4.4375 
Q 8.5 10.296875 8.5 21.578125 
z
M 31.109375 56 
z
" id="DejaVuSans-75"/>
     </defs>
     <g transform="translate(383.0325 166.670445)scale(0.1 -0.1)">
      <use xlink:href="#DejaVuSans-54"/>
      <use x="60.865234" xlink:href="#DejaVuSans-72"/>
      <use x="101.978516" xlink:href="#DejaVuSans-75"/>
      <use x="165.357422" xlink:href="#DejaVuSans-65"/>
     </g>
    </g>
   </g>
  </g>
  <g id="axes_3">
   <g id="patch_13">
    <path d="M 57.6 307.584 
L 414.72 307.584 
L 414.72 229.315765 
L 57.6 229.315765 
z
" style="fill:#ffffff;"/>
   </g>
   <g id="matplotlib.axis_5">
    <g id="xtick_13">
     <g id="line2d_26">
      <g>
       <use style="stroke:#000000;stroke-width:0.8;" x="73.832727" xlink:href="#ma90a69b5be" y="307.584"/>
      </g>
     </g>
     <g id="text_22">
      <!-- 0 -->
      <g transform="translate(70.651477 322.182437)scale(0.1 -0.1)">
       <use xlink:href="#DejaVuSans-30"/>
      </g>
     </g>
    </g>
    <g id="xtick_14">
     <g id="line2d_27">
      <g>
       <use style="stroke:#000000;stroke-width:0.8;" x="138.763636" xlink:href="#ma90a69b5be" y="307.584"/>
      </g>
     </g>
     <g id="text_23">
      <!-- 10 -->
      <g transform="translate(132.401136 322.182437)scale(0.1 -0.1)">
       <use xlink:href="#DejaVuSans-31"/>
       <use x="63.623047" xlink:href="#DejaVuSans-30"/>
      </g>
     </g>
    </g>
    <g id="xtick_15">
     <g id="line2d_28">
      <g>
       <use style="stroke:#000000;stroke-width:0.8;" x="203.694545" xlink:href="#ma90a69b5be" y="307.584"/>
      </g>
     </g>
     <g id="text_24">
      <!-- 20 -->
      <g transform="translate(197.332045 322.182437)scale(0.1 -0.1)">
       <use xlink:href="#DejaVuSans-32"/>
       <use x="63.623047" xlink:href="#DejaVuSans-30"/>
      </g>
     </g>
    </g>
    <g id="xtick_16">
     <g id="line2d_29">
      <g>
       <use style="stroke:#000000;stroke-width:0.8;" x="268.625455" xlink:href="#ma90a69b5be" y="307.584"/>
      </g>
     </g>
     <g id="text_25">
      <!-- 30 -->
      <g transform="translate(262.262955 322.182437)scale(0.1 -0.1)">
       <use xlink:href="#DejaVuSans-33"/>
       <use x="63.623047" xlink:href="#DejaVuSans-30"/>
      </g>
     </g>
    </g>
    <g id="xtick_17">
     <g id="line2d_30">
      <g>
       <use style="stroke:#000000;stroke-width:0.8;" x="333.556364" xlink:href="#ma90a69b5be" y="307.584"/>
      </g>
     </g>
     <g id="text_26">
      <!-- 40 -->
      <g transform="translate(327.193864 322.182437)scale(0.1 -0.1)">
       <use xlink:href="#DejaVuSans-34"/>
       <use x="63.623047" xlink:href="#DejaVuSans-30"/>
      </g>
     </g>
    </g>
    <g id="xtick_18">
     <g id="line2d_31">
      <g>
       <use style="stroke:#000000;stroke-width:0.8;" x="398.487273" xlink:href="#ma90a69b5be" y="307.584"/>
      </g>
     </g>
     <g id="text_27">
      <!-- 50 -->
      <g transform="translate(392.124773 322.182437)scale(0.1 -0.1)">
       <use xlink:href="#DejaVuSans-35"/>
       <use x="63.623047" xlink:href="#DejaVuSans-30"/>
      </g>
     </g>
    </g>
    <g id="text_28">
     <!-- Time -->
     <defs>
      <path d="M 9.421875 54.6875 
L 18.40625 54.6875 
L 18.40625 0 
L 9.421875 0 
z
M 9.421875 75.984375 
L 18.40625 75.984375 
L 18.40625 64.59375 
L 9.421875 64.59375 
z
" id="DejaVuSans-69"/>
      <path d="M 52 44.1875 
Q 55.375 50.25 60.0625 53.125 
Q 64.75 56 71.09375 56 
Q 79.640625 56 84.28125 50.015625 
Q 88.921875 44.046875 88.921875 33.015625 
L 88.921875 0 
L 79.890625 0 
L 79.890625 32.71875 
Q 79.890625 40.578125 77.09375 44.375 
Q 74.3125 48.1875 68.609375 48.1875 
Q 61.625 48.1875 57.5625 43.546875 
Q 53.515625 38.921875 53.515625 30.90625 
L 53.515625 0 
L 44.484375 0 
L 44.484375 32.71875 
Q 44.484375 40.625 41.703125 44.40625 
Q 38.921875 48.1875 33.109375 48.1875 
Q 26.21875 48.1875 22.15625 43.53125 
Q 18.109375 38.875 18.109375 30.90625 
L 18.109375 0 
L 9.078125 0 
L 9.078125 54.6875 
L 18.109375 54.6875 
L 18.109375 46.1875 
Q 21.1875 51.21875 25.484375 53.609375 
Q 29.78125 56 35.6875 56 
Q 41.65625 56 45.828125 52.96875 
Q 50 49.953125 52 44.1875 
z
" id="DejaVuSans-6d"/>
     </defs>
     <g transform="translate(223.7725 335.860562)scale(0.1 -0.1)">
      <use xlink:href="#DejaVuSans-54"/>
      <use x="61.037109" xlink:href="#DejaVuSans-69"/>
      <use x="88.820312" xlink:href="#DejaVuSans-6d"/>
      <use x="186.232422" xlink:href="#DejaVuSans-65"/>
     </g>
    </g>
   </g>
   <g id="matplotlib.axis_6">
    <g id="ytick_6">
     <g id="line2d_32">
      <g>
       <use style="stroke:#000000;stroke-width:0.8;" x="57.6" xlink:href="#m9cbf62fa85" y="270.843865"/>
      </g>
     </g>
     <g id="text_29">
      <!-- 0 -->
      <g transform="translate(44.2375 274.643084)scale(0.1 -0.1)">
       <use xlink:href="#DejaVuSans-30"/>
      </g>
     </g>
    </g>
    <g id="ytick_7">
     <g id="line2d_33">
      <g>
       <use style="stroke:#000000;stroke-width:0.8;" x="57.6" xlink:href="#m9cbf62fa85" y="232.873412"/>
      </g>
     </g>
     <g id="text_30">
      <!-- 10 -->
      <g transform="translate(37.875 236.672631)scale(0.1 -0.1)">
       <use xlink:href="#DejaVuSans-31"/>
       <use x="63.623047" xlink:href="#DejaVuSans-30"/>
      </g>
     </g>
    </g>
    <g id="text_31">
     <!-- Control Input -->
     <defs>
      <path d="M 64.40625 67.28125 
L 64.40625 56.890625 
Q 59.421875 61.53125 53.78125 63.8125 
Q 48.140625 66.109375 41.796875 66.109375 
Q 29.296875 66.109375 22.65625 58.46875 
Q 16.015625 50.828125 16.015625 36.375 
Q 16.015625 21.96875 22.65625 14.328125 
Q 29.296875 6.6875 41.796875 6.6875 
Q 48.140625 6.6875 53.78125 8.984375 
Q 59.421875 11.28125 64.40625 15.921875 
L 64.40625 5.609375 
Q 59.234375 2.09375 53.4375 0.328125 
Q 47.65625 -1.421875 41.21875 -1.421875 
Q 24.65625 -1.421875 15.125 8.703125 
Q 5.609375 18.84375 5.609375 36.375 
Q 5.609375 53.953125 15.125 64.078125 
Q 24.65625 74.21875 41.21875 74.21875 
Q 47.75 74.21875 53.53125 72.484375 
Q 59.328125 70.75 64.40625 67.28125 
z
" id="DejaVuSans-43"/>
      <path d="M 30.609375 48.390625 
Q 23.390625 48.390625 19.1875 42.75 
Q 14.984375 37.109375 14.984375 27.296875 
Q 14.984375 17.484375 19.15625 11.84375 
Q 23.34375 6.203125 30.609375 6.203125 
Q 37.796875 6.203125 41.984375 11.859375 
Q 46.1875 17.53125 46.1875 27.296875 
Q 46.1875 37.015625 41.984375 42.703125 
Q 37.796875 48.390625 30.609375 48.390625 
z
M 30.609375 56 
Q 42.328125 56 49.015625 48.375 
Q 55.71875 40.765625 55.71875 27.296875 
Q 55.71875 13.875 49.015625 6.21875 
Q 42.328125 -1.421875 30.609375 -1.421875 
Q 18.84375 -1.421875 12.171875 6.21875 
Q 5.515625 13.875 5.515625 27.296875 
Q 5.515625 40.765625 12.171875 48.375 
Q 18.84375 56 30.609375 56 
z
" id="DejaVuSans-6f"/>
      <path d="M 54.890625 33.015625 
L 54.890625 0 
L 45.90625 0 
L 45.90625 32.71875 
Q 45.90625 40.484375 42.875 44.328125 
Q 39.84375 48.1875 33.796875 48.1875 
Q 26.515625 48.1875 22.3125 43.546875 
Q 18.109375 38.921875 18.109375 30.90625 
L 18.109375 0 
L 9.078125 0 
L 9.078125 54.6875 
L 18.109375 54.6875 
L 18.109375 46.1875 
Q 21.34375 51.125 25.703125 53.5625 
Q 30.078125 56 35.796875 56 
Q 45.21875 56 50.046875 50.171875 
Q 54.890625 44.34375 54.890625 33.015625 
z
" id="DejaVuSans-6e"/>
      <path d="M 9.421875 75.984375 
L 18.40625 75.984375 
L 18.40625 0 
L 9.421875 0 
z
" id="DejaVuSans-6c"/>
      <path d="M 9.8125 72.90625 
L 19.671875 72.90625 
L 19.671875 0 
L 9.8125 0 
z
" id="DejaVuSans-49"/>
      <path d="M 18.109375 8.203125 
L 18.109375 -20.796875 
L 9.078125 -20.796875 
L 9.078125 54.6875 
L 18.109375 54.6875 
L 18.109375 46.390625 
Q 20.953125 51.265625 25.265625 53.625 
Q 29.59375 56 35.59375 56 
Q 45.5625 56 51.78125 48.09375 
Q 58.015625 40.1875 58.015625 27.296875 
Q 58.015625 14.40625 51.78125 6.484375 
Q 45.5625 -1.421875 35.59375 -1.421875 
Q 29.59375 -1.421875 25.265625 0.953125 
Q 20.953125 3.328125 18.109375 8.203125 
z
M 48.6875 27.296875 
Q 48.6875 37.203125 44.609375 42.84375 
Q 40.53125 48.484375 33.40625 48.484375 
Q 26.265625 48.484375 22.1875 42.84375 
Q 18.109375 37.203125 18.109375 27.296875 
Q 18.109375 17.390625 22.1875 11.75 
Q 26.265625 6.109375 33.40625 6.109375 
Q 40.53125 6.109375 44.609375 11.75 
Q 48.6875 17.390625 48.6875 27.296875 
z
" id="DejaVuSans-70"/>
     </defs>
     <g transform="translate(31.795312 301.167851)rotate(-90)scale(0.1 -0.1)">
      <use xlink:href="#DejaVuSans-43"/>
      <use x="69.824219" xlink:href="#DejaVuSans-6f"/>
      <use x="131.005859" xlink:href="#DejaVuSans-6e"/>
      <use x="194.384766" xlink:href="#DejaVuSans-74"/>
      <use x="233.59375" xlink:href="#DejaVuSans-72"/>
      <use x="274.675781" xlink:href="#DejaVuSans-6f"/>
      <use x="335.857422" xlink:href="#DejaVuSans-6c"/>
      <use x="363.640625" xlink:href="#DejaVuSans-20"/>
      <use x="395.427734" xlink:href="#DejaVuSans-49"/>
      <use x="424.919922" xlink:href="#DejaVuSans-6e"/>
      <use x="488.298828" xlink:href="#DejaVuSans-70"/>
      <use x="551.775391" xlink:href="#DejaVuSans-75"/>
      <use x="615.154297" xlink:href="#DejaVuSans-74"/>
     </g>
    </g>
   </g>
   <g id="line2d_34">
    <path clip-path="url(#p92cf3c4fc3)" d="M 73.832727 270.843865 
L 80.325818 270.843865 
L 80.442694 232.873412 
L 80.650473 232.873412 
L 80.767348 270.843865 
L 86.818909 270.843865 
L 86.935785 232.873412 
L 87.143564 232.873412 
L 87.260439 270.843865 
L 93.312 270.843865 
L 93.428876 232.873412 
L 93.636655 232.873412 
L 93.75353 270.843865 
L 99.805091 270.843865 
L 99.921967 232.873412 
L 100.129745 232.873412 
L 100.246621 270.843865 
L 106.298182 270.843865 
L 106.415057 232.873412 
L 106.622836 232.873412 
L 106.739712 270.843865 
L 112.791273 270.843865 
L 112.908148 232.873412 
L 113.115927 232.873412 
L 113.232803 270.843865 
L 119.284364 270.843865 
L 119.401239 232.873412 
L 119.609018 232.873412 
L 119.725894 270.843865 
L 125.777455 270.843865 
L 125.89433 232.873412 
L 126.102109 232.873412 
L 126.218985 270.843865 
L 132.270545 270.843865 
L 132.387421 232.873412 
L 132.5952 232.873412 
L 132.712076 270.843865 
L 138.763636 270.843865 
L 138.880512 232.873412 
L 139.088291 232.873412 
L 139.205167 270.843865 
L 145.256727 270.843865 
L 145.373603 232.873412 
L 145.581382 232.873412 
L 145.698257 270.843865 
L 151.749818 270.843865 
L 151.866694 232.873412 
L 152.074473 232.873412 
L 152.191348 270.843865 
L 158.242909 270.843865 
L 158.359785 232.873412 
L 158.567564 232.873412 
L 158.684439 270.843865 
L 164.736 270.843865 
L 164.852876 232.873412 
L 165.060655 232.873412 
L 165.17753 270.843865 
L 171.229091 270.843865 
L 171.345967 232.873412 
L 171.553745 232.873412 
L 171.670621 270.843865 
L 177.722182 270.843865 
L 177.839057 232.873412 
L 178.046836 232.873412 
L 178.163712 270.843865 
L 184.215273 270.843865 
L 184.332148 232.873412 
L 184.539927 232.873412 
L 184.656803 270.843865 
L 190.708364 270.843865 
L 190.825239 232.873412 
L 191.033018 232.873412 
L 191.149894 270.843865 
L 197.201455 270.843865 
L 197.31833 232.873412 
L 197.526109 232.873412 
L 197.642985 270.843865 
L 203.694545 270.843865 
L 203.811421 232.873412 
L 204.0192 232.873412 
L 204.136076 270.843865 
L 210.187636 270.843865 
L 210.304512 232.873412 
L 210.512291 232.873412 
L 210.629167 270.843865 
L 216.680727 270.843865 
L 216.797603 232.873412 
L 217.005382 232.873412 
L 217.122257 270.843865 
L 223.173818 270.843865 
L 223.290694 232.873412 
L 223.498473 232.873412 
L 223.615348 270.843865 
L 229.666909 270.843865 
L 229.783785 232.873412 
L 229.991564 232.873412 
L 230.108439 270.843865 
L 236.16 270.843865 
L 236.276876 232.873412 
L 236.484655 232.873412 
L 236.60153 270.843865 
L 242.653091 270.843865 
L 242.769967 232.873412 
L 242.977745 232.873412 
L 243.094621 270.843865 
L 249.146182 270.843865 
L 249.263057 232.873412 
L 249.470836 232.873412 
L 249.587712 270.843865 
L 255.639273 270.843865 
L 255.756148 232.873412 
L 255.963927 232.873412 
L 256.080803 270.843865 
L 262.132364 270.843865 
L 262.249239 232.873412 
L 262.457018 232.873412 
L 262.573894 270.843865 
L 275.118545 270.843865 
L 275.235421 256.832732 
L 275.4432 256.832732 
L 275.560076 270.843865 
L 281.611636 270.843865 
L 281.728512 304.026353 
L 281.936291 304.026353 
L 282.053167 270.843865 
L 288.104727 270.843865 
L 288.221603 290.912608 
L 288.429382 290.912608 
L 288.546257 270.843865 
L 294.597818 270.843865 
L 294.714694 301.936994 
L 294.922473 301.936994 
L 295.039348 270.843865 
L 301.090909 270.843865 
L 301.207785 246.433176 
L 301.415564 246.433176 
L 301.532439 270.843865 
L 307.584 270.843865 
L 307.700876 291.510338 
L 307.908655 291.510338 
L 308.02553 270.843865 
L 314.077091 270.843865 
L 314.193967 289.851829 
L 314.401745 289.851829 
L 314.518621 270.843865 
L 320.570182 270.843865 
L 320.687057 303.287358 
L 320.894836 303.287358 
L 321.011712 270.843865 
L 327.063273 270.843865 
L 327.180148 266.658335 
L 327.387927 266.658335 
L 327.504803 270.843865 
L 333.556364 270.843865 
L 333.673239 278.734503 
L 333.881018 278.734503 
L 333.997894 270.843865 
L 340.049455 270.843865 
L 340.16633 296.762636 
L 340.374109 296.762636 
L 340.490985 270.843865 
L 346.542545 270.843865 
L 346.659421 253.455135 
L 346.8672 253.455135 
L 346.984076 270.843865 
L 353.035636 270.843865 
L 353.152512 283.828909 
L 353.360291 283.828909 
L 353.477167 270.843865 
L 359.528727 270.843865 
L 359.645603 284.185078 
L 359.853382 284.185078 
L 359.970257 270.843865 
L 366.021818 270.843865 
L 366.138694 294.551896 
L 366.346473 294.551896 
L 366.463348 270.843865 
L 372.514909 270.843865 
L 372.631785 278.612071 
L 372.839564 278.612071 
L 372.956439 270.843865 
L 379.008 270.843865 
L 379.124876 234.375268 
L 379.332655 234.375268 
L 379.44953 270.843865 
L 385.501091 270.843865 
L 385.617967 272.249827 
L 385.825745 272.249827 
L 385.942621 270.843865 
L 391.994182 270.843865 
L 392.111057 244.367994 
L 392.318836 244.367994 
L 392.435712 270.843865 
L 398.487273 270.843865 
L 398.487273 270.843865 
" style="fill:none;stroke:#000000;stroke-linecap:square;stroke-width:1.5;"/>
   </g>
   <g id="patch_14">
    <path d="M 57.6 307.584 
L 57.6 229.315765 
" style="fill:none;stroke:#000000;stroke-linecap:square;stroke-linejoin:miter;stroke-width:0.8;"/>
   </g>
   <g id="patch_15">
    <path d="M 414.72 307.584 
L 414.72 229.315765 
" style="fill:none;stroke:#000000;stroke-linecap:square;stroke-linejoin:miter;stroke-width:0.8;"/>
   </g>
   <g id="patch_16">
    <path d="M 57.6 307.584 
L 414.72 307.584 
" style="fill:none;stroke:#000000;stroke-linecap:square;stroke-linejoin:miter;stroke-width:0.8;"/>
   </g>
   <g id="patch_17">
    <path d="M 57.6 229.315765 
L 414.72 229.315765 
" style="fill:none;stroke:#000000;stroke-linecap:square;stroke-linejoin:miter;stroke-width:0.8;"/>
   </g>
   <g id="legend_2">
    <g id="patch_18">
     <path d="M 349.82625 251.99389 
L 407.72 251.99389 
Q 409.72 251.99389 409.72 249.99389 
L 409.72 236.315765 
Q 409.72 234.315765 407.72 234.315765 
L 349.82625 234.315765 
Q 347.82625 234.315765 347.82625 236.315765 
L 347.82625 249.99389 
Q 347.82625 251.99389 349.82625 251.99389 
z
" style="fill:#ffffff;opacity:0.8;stroke:#cccccc;stroke-linejoin:miter;"/>
    </g>
    <g id="line2d_35">
     <path d="M 351.82625 242.414202 
L 371.82625 242.414202 
" style="fill:none;stroke:#000000;stroke-linecap:square;stroke-width:1.5;"/>
    </g>
    <g id="line2d_36"/>
    <g id="text_32">
     <!-- Input -->
     <g transform="translate(379.82625 245.914202)scale(0.1 -0.1)">
      <use xlink:href="#DejaVuSans-49"/>
      <use x="29.492188" xlink:href="#DejaVuSans-6e"/>
      <use x="92.871094" xlink:href="#DejaVuSans-70"/>
      <use x="156.347656" xlink:href="#DejaVuSans-75"/>
      <use x="219.726562" xlink:href="#DejaVuSans-74"/>
     </g>
    </g>
   </g>
  </g>
 </g>
 <defs>
  <clipPath id="p39b9c38890">
   <rect height="78.268235" width="357.12" x="57.6" y="41.472"/>
  </clipPath>
  <clipPath id="p68cf2f9d0c">
   <rect height="78.268235" width="357.12" x="57.6" y="135.393882"/>
  </clipPath>
  <clipPath id="p92cf3c4fc3">
   <rect height="78.268235" width="357.12" x="57.6" y="229.315765"/>
  </clipPath>
 </defs>
</svg>
