<?xml version="1.0" encoding="utf-8" standalone="no"?>
<!DOCTYPE svg PUBLIC "-//W3C//DTD SVG 1.1//EN"
  "http://www.w3.org/Graphics/SVG/1.1/DTD/svg11.dtd">
<!-- Created with matplotlib (http://matplotlib.org/) -->
<svg height="345.6pt" version="1.1" viewBox="0 0 460.8 345.6" width="460.8pt" xmlns="http://www.w3.org/2000/svg" xmlns:xlink="http://www.w3.org/1999/xlink">
 <defs>
  <style type="text/css">
*{stroke-linecap:butt;stroke-linejoin:round;}
  </style>
 </defs>
 <g id="figure_1">
  <g id="patch_1">
   <path d="M 0 345.6 
L 460.8 345.6 
L 460.8 0 
L 0 0 
z
" style="fill:#ffffff;"/>
  </g>
  <g id="axes_1">
   <g id="patch_2">
    <path d="M 57.6 119.740235 
L 414.72 119.740235 
L 414.72 41.472 
L 57.6 41.472 
z
" style="fill:#ffffff;"/>
   </g>
   <g id="matplotlib.axis_1">
    <g id="xtick_1">
     <g id="line2d_1">
      <defs>
       <path d="M 0 0 
L 0 3.5 
" id="mcb1d337200" style="stroke:#000000;stroke-width:0.8;"/>
      </defs>
      <g>
       <use style="stroke:#000000;stroke-width:0.8;" x="73.832727" xlink:href="#mcb1d337200" y="119.740235"/>
      </g>
     </g>
     <g id="text_1">
      <!-- 0 -->
      <defs>
       <path d="M 31.78125 66.40625 
Q 24.171875 66.40625 20.328125 58.90625 
Q 16.5 51.421875 16.5 36.375 
Q 16.5 21.390625 20.328125 13.890625 
Q 24.171875 6.390625 31.78125 6.390625 
Q 39.453125 6.390625 43.28125 13.890625 
Q 47.125 21.390625 47.125 36.375 
Q 47.125 51.421875 43.28125 58.90625 
Q 39.453125 66.40625 31.78125 66.40625 
z
M 31.78125 74.21875 
Q 44.046875 74.21875 50.515625 64.515625 
Q 56.984375 54.828125 56.984375 36.375 
Q 56.984375 17.96875 50.515625 8.265625 
Q 44.046875 -1.421875 31.78125 -1.421875 
Q 19.53125 -1.421875 13.0625 8.265625 
Q 6.59375 17.96875 6.59375 36.375 
Q 6.59375 54.828125 13.0625 64.515625 
Q 19.53125 74.21875 31.78125 74.21875 
z
" id="DejaVuSans-30"/>
      </defs>
      <g transform="translate(70.651477 134.338673)scale(0.1 -0.1)">
       <use xlink:href="#DejaVuSans-30"/>
      </g>
     </g>
    </g>
    <g id="xtick_2">
     <g id="line2d_2">
      <g>
       <use style="stroke:#000000;stroke-width:0.8;" x="138.763636" xlink:href="#mcb1d337200" y="119.740235"/>
      </g>
     </g>
     <g id="text_2">
      <!-- 10 -->
      <defs>
       <path d="M 12.40625 8.296875 
L 28.515625 8.296875 
L 28.515625 63.921875 
L 10.984375 60.40625 
L 10.984375 69.390625 
L 28.421875 72.90625 
L 38.28125 72.90625 
L 38.28125 8.296875 
L 54.390625 8.296875 
L 54.390625 0 
L 12.40625 0 
z
" id="DejaVuSans-31"/>
      </defs>
      <g transform="translate(132.401136 134.338673)scale(0.1 -0.1)">
       <use xlink:href="#DejaVuSans-31"/>
       <use x="63.623047" xlink:href="#DejaVuSans-30"/>
      </g>
     </g>
    </g>
    <g id="xtick_3">
     <g id="line2d_3">
      <g>
       <use style="stroke:#000000;stroke-width:0.8;" x="203.694545" xlink:href="#mcb1d337200" y="119.740235"/>
      </g>
     </g>
     <g id="text_3">
      <!-- 20 -->
      <defs>
       <path d="M 19.1875 8.296875 
L 53.609375 8.296875 
L 53.609375 0 
L 7.328125 0 
L 7.328125 8.296875 
Q 12.9375 14.109375 22.625 23.890625 
Q 32.328125 33.6875 34.8125 36.53125 
Q 39.546875 41.84375 41.421875 45.53125 
Q 43.3125 49.21875 43.3125 52.78125 
Q 43.3125 58.59375 39.234375 62.25 
Q 35.15625 65.921875 28.609375 65.921875 
Q 23.96875 65.921875 18.8125 64.3125 
Q 13.671875 62.703125 7.8125 59.421875 
L 7.8125 69.390625 
Q 13.765625 71.78125 18.9375 73 
Q 24.125 74.21875 28.421875 74.21875 
Q 39.75 74.21875 46.484375 68.546875 
Q 53.21875 62.890625 53.21875 53.421875 
Q 53.21875 48.921875 51.53125 44.890625 
Q 49.859375 40.875 45.40625 35.40625 
Q 44.1875 33.984375 37.640625 27.21875 
Q 31.109375 20.453125 19.1875 8.296875 
z
" id="DejaVuSans-32"/>
      </defs>
      <g transform="translate(197.332045 134.338673)scale(0.1 -0.1)">
       <use xlink:href="#DejaVuSans-32"/>
       <use x="63.623047" xlink:href="#DejaVuSans-30"/>
      </g>
     </g>
    </g>
    <g id="xtick_4">
     <g id="line2d_4">
      <g>
       <use style="stroke:#000000;stroke-width:0.8;" x="268.625455" xlink:href="#mcb1d337200" y="119.740235"/>
      </g>
     </g>
     <g id="text_4">
      <!-- 30 -->
      <defs>
       <path d="M 40.578125 39.3125 
Q 47.65625 37.796875 51.625 33 
Q 55.609375 28.21875 55.609375 21.1875 
Q 55.609375 10.40625 48.1875 4.484375 
Q 40.765625 -1.421875 27.09375 -1.421875 
Q 22.515625 -1.421875 17.65625 -0.515625 
Q 12.796875 0.390625 7.625 2.203125 
L 7.625 11.71875 
Q 11.71875 9.328125 16.59375 8.109375 
Q 21.484375 6.890625 26.8125 6.890625 
Q 36.078125 6.890625 40.9375 10.546875 
Q 45.796875 14.203125 45.796875 21.1875 
Q 45.796875 27.640625 41.28125 31.265625 
Q 36.765625 34.90625 28.71875 34.90625 
L 20.21875 34.90625 
L 20.21875 43.015625 
L 29.109375 43.015625 
Q 36.375 43.015625 40.234375 45.921875 
Q 44.09375 48.828125 44.09375 54.296875 
Q 44.09375 59.90625 40.109375 62.90625 
Q 36.140625 65.921875 28.71875 65.921875 
Q 24.65625 65.921875 20.015625 65.03125 
Q 15.375 64.15625 9.8125 62.3125 
L 9.8125 71.09375 
Q 15.4375 72.65625 20.34375 73.4375 
Q 25.25 74.21875 29.59375 74.21875 
Q 40.828125 74.21875 47.359375 69.109375 
Q 53.90625 64.015625 53.90625 55.328125 
Q 53.90625 49.265625 50.4375 45.09375 
Q 46.96875 40.921875 40.578125 39.3125 
z
" id="DejaVuSans-33"/>
      </defs>
      <g transform="translate(262.262955 134.338673)scale(0.1 -0.1)">
       <use xlink:href="#DejaVuSans-33"/>
       <use x="63.623047" xlink:href="#DejaVuSans-30"/>
      </g>
     </g>
    </g>
    <g id="xtick_5">
     <g id="line2d_5">
      <g>
       <use style="stroke:#000000;stroke-width:0.8;" x="333.556364" xlink:href="#mcb1d337200" y="119.740235"/>
      </g>
     </g>
     <g id="text_5">
      <!-- 40 -->
      <defs>
       <path d="M 37.796875 64.3125 
L 12.890625 25.390625 
L 37.796875 25.390625 
z
M 35.203125 72.90625 
L 47.609375 72.90625 
L 47.609375 25.390625 
L 58.015625 25.390625 
L 58.015625 17.1875 
L 47.609375 17.1875 
L 47.609375 0 
L 37.796875 0 
L 37.796875 17.1875 
L 4.890625 17.1875 
L 4.890625 26.703125 
z
" id="DejaVuSans-34"/>
      </defs>
      <g transform="translate(327.193864 134.338673)scale(0.1 -0.1)">
       <use xlink:href="#DejaVuSans-34"/>
       <use x="63.623047" xlink:href="#DejaVuSans-30"/>
      </g>
     </g>
    </g>
    <g id="xtick_6">
     <g id="line2d_6">
      <g>
       <use style="stroke:#000000;stroke-width:0.8;" x="398.487273" xlink:href="#mcb1d337200" y="119.740235"/>
      </g>
     </g>
     <g id="text_6">
      <!-- 50 -->
      <defs>
       <path d="M 10.796875 72.90625 
L 49.515625 72.90625 
L 49.515625 64.59375 
L 19.828125 64.59375 
L 19.828125 46.734375 
Q 21.96875 47.46875 24.109375 47.828125 
Q 26.265625 48.1875 28.421875 48.1875 
Q 40.625 48.1875 47.75 41.5 
Q 54.890625 34.8125 54.890625 23.390625 
Q 54.890625 11.625 47.5625 5.09375 
Q 40.234375 -1.421875 26.90625 -1.421875 
Q 22.3125 -1.421875 17.546875 -0.640625 
Q 12.796875 0.140625 7.71875 1.703125 
L 7.71875 11.625 
Q 12.109375 9.234375 16.796875 8.0625 
Q 21.484375 6.890625 26.703125 6.890625 
Q 35.15625 6.890625 40.078125 11.328125 
Q 45.015625 15.765625 45.015625 23.390625 
Q 45.015625 31 40.078125 35.4375 
Q 35.15625 39.890625 26.703125 39.890625 
Q 22.75 39.890625 18.8125 39.015625 
Q 14.890625 38.140625 10.796875 36.28125 
z
" id="DejaVuSans-35"/>
      </defs>
      <g transform="translate(392.124773 134.338673)scale(0.1 -0.1)">
       <use xlink:href="#DejaVuSans-35"/>
       <use x="63.623047" xlink:href="#DejaVuSans-30"/>
      </g>
     </g>
    </g>
   </g>
   <g id="matplotlib.axis_2">
    <g id="ytick_1">
     <g id="line2d_7">
      <defs>
       <path d="M 0 0 
L -3.5 0 
" id="m3cf692730a" style="stroke:#000000;stroke-width:0.8;"/>
      </defs>
      <g>
       <use style="stroke:#000000;stroke-width:0.8;" x="57.6" xlink:href="#m3cf692730a" y="109.45482"/>
      </g>
     </g>
     <g id="text_7">
      <!-- −0.05 -->
      <defs>
       <path d="M 10.59375 35.5 
L 73.1875 35.5 
L 73.1875 27.203125 
L 10.59375 27.203125 
z
" id="DejaVuSans-2212"/>
       <path d="M 10.6875 12.40625 
L 21 12.40625 
L 21 0 
L 10.6875 0 
z
" id="DejaVuSans-2e"/>
      </defs>
      <g transform="translate(19.954687 113.254039)scale(0.1 -0.1)">
       <use xlink:href="#DejaVuSans-2212"/>
       <use x="83.789062" xlink:href="#DejaVuSans-30"/>
       <use x="147.412109" xlink:href="#DejaVuSans-2e"/>
       <use x="179.199219" xlink:href="#DejaVuSans-30"/>
       <use x="242.822266" xlink:href="#DejaVuSans-35"/>
      </g>
     </g>
    </g>
    <g id="ytick_2">
     <g id="line2d_8">
      <g>
       <use style="stroke:#000000;stroke-width:0.8;" x="57.6" xlink:href="#m3cf692730a" y="84.713205"/>
      </g>
     </g>
     <g id="text_8">
      <!-- 0.00 -->
      <g transform="translate(28.334375 88.512424)scale(0.1 -0.1)">
       <use xlink:href="#DejaVuSans-30"/>
       <use x="63.623047" xlink:href="#DejaVuSans-2e"/>
       <use x="95.410156" xlink:href="#DejaVuSans-30"/>
       <use x="159.033203" xlink:href="#DejaVuSans-30"/>
      </g>
     </g>
    </g>
    <g id="ytick_3">
     <g id="line2d_9">
      <g>
       <use style="stroke:#000000;stroke-width:0.8;" x="57.6" xlink:href="#m3cf692730a" y="59.971589"/>
      </g>
     </g>
     <g id="text_9">
      <!-- 0.05 -->
      <g transform="translate(28.334375 63.770808)scale(0.1 -0.1)">
       <use xlink:href="#DejaVuSans-30"/>
       <use x="63.623047" xlink:href="#DejaVuSans-2e"/>
       <use x="95.410156" xlink:href="#DejaVuSans-30"/>
       <use x="159.033203" xlink:href="#DejaVuSans-35"/>
      </g>
     </g>
    </g>
    <g id="text_10">
     <!-- State 0 -->
     <defs>
      <path d="M 53.515625 70.515625 
L 53.515625 60.890625 
Q 47.90625 63.578125 42.921875 64.890625 
Q 37.9375 66.21875 33.296875 66.21875 
Q 25.25 66.21875 20.875 63.09375 
Q 16.5 59.96875 16.5 54.203125 
Q 16.5 49.359375 19.40625 46.890625 
Q 22.3125 44.4375 30.421875 42.921875 
L 36.375 41.703125 
Q 47.40625 39.59375 52.65625 34.296875 
Q 57.90625 29 57.90625 20.125 
Q 57.90625 9.515625 50.796875 4.046875 
Q 43.703125 -1.421875 29.984375 -1.421875 
Q 24.8125 -1.421875 18.96875 -0.25 
Q 13.140625 0.921875 6.890625 3.21875 
L 6.890625 13.375 
Q 12.890625 10.015625 18.65625 8.296875 
Q 24.421875 6.59375 29.984375 6.59375 
Q 38.421875 6.59375 43.015625 9.90625 
Q 47.609375 13.234375 47.609375 19.390625 
Q 47.609375 24.75 44.3125 27.78125 
Q 41.015625 30.8125 33.5 32.328125 
L 27.484375 33.5 
Q 16.453125 35.6875 11.515625 40.375 
Q 6.59375 45.0625 6.59375 53.421875 
Q 6.59375 63.09375 13.40625 68.65625 
Q 20.21875 74.21875 32.171875 74.21875 
Q 37.3125 74.21875 42.625 73.28125 
Q 47.953125 72.359375 53.515625 70.515625 
z
" id="DejaVuSans-53"/>
      <path d="M 18.3125 70.21875 
L 18.3125 54.6875 
L 36.8125 54.6875 
L 36.8125 47.703125 
L 18.3125 47.703125 
L 18.3125 18.015625 
Q 18.3125 11.328125 20.140625 9.421875 
Q 21.96875 7.515625 27.59375 7.515625 
L 36.8125 7.515625 
L 36.8125 0 
L 27.59375 0 
Q 17.1875 0 13.234375 3.875 
Q 9.28125 7.765625 9.28125 18.015625 
L 9.28125 47.703125 
L 2.6875 47.703125 
L 2.6875 54.6875 
L 9.28125 54.6875 
L 9.28125 70.21875 
z
" id="DejaVuSans-74"/>
      <path d="M 34.28125 27.484375 
Q 23.390625 27.484375 19.1875 25 
Q 14.984375 22.515625 14.984375 16.5 
Q 14.984375 11.71875 18.140625 8.90625 
Q 21.296875 6.109375 26.703125 6.109375 
Q 34.1875 6.109375 38.703125 11.40625 
Q 43.21875 16.703125 43.21875 25.484375 
L 43.21875 27.484375 
z
M 52.203125 31.203125 
L 52.203125 0 
L 43.21875 0 
L 43.21875 8.296875 
Q 40.140625 3.328125 35.546875 0.953125 
Q 30.953125 -1.421875 24.3125 -1.421875 
Q 15.921875 -1.421875 10.953125 3.296875 
Q 6 8.015625 6 15.921875 
Q 6 25.140625 12.171875 29.828125 
Q 18.359375 34.515625 30.609375 34.515625 
L 43.21875 34.515625 
L 43.21875 35.40625 
Q 43.21875 41.609375 39.140625 45 
Q 35.0625 48.390625 27.6875 48.390625 
Q 23 48.390625 18.546875 47.265625 
Q 14.109375 46.140625 10.015625 43.890625 
L 10.015625 52.203125 
Q 14.9375 54.109375 19.578125 55.046875 
Q 24.21875 56 28.609375 56 
Q 40.484375 56 46.34375 49.84375 
Q 52.203125 43.703125 52.203125 31.203125 
z
" id="DejaVuSans-61"/>
      <path d="M 56.203125 29.59375 
L 56.203125 25.203125 
L 14.890625 25.203125 
Q 15.484375 15.921875 20.484375 11.0625 
Q 25.484375 6.203125 34.421875 6.203125 
Q 39.59375 6.203125 44.453125 7.46875 
Q 49.3125 8.734375 54.109375 11.28125 
L 54.109375 2.78125 
Q 49.265625 0.734375 44.1875 -0.34375 
Q 39.109375 -1.421875 33.890625 -1.421875 
Q 20.796875 -1.421875 13.15625 6.1875 
Q 5.515625 13.8125 5.515625 26.8125 
Q 5.515625 40.234375 12.765625 48.109375 
Q 20.015625 56 32.328125 56 
Q 43.359375 56 49.78125 48.890625 
Q 56.203125 41.796875 56.203125 29.59375 
z
M 47.21875 32.234375 
Q 47.125 39.59375 43.09375 43.984375 
Q 39.0625 48.390625 32.421875 48.390625 
Q 24.90625 48.390625 20.390625 44.140625 
Q 15.875 39.890625 15.1875 32.171875 
z
" id="DejaVuSans-65"/>
      <path id="DejaVuSans-20"/>
     </defs>
     <g transform="translate(13.875 98.611586)rotate(-90)scale(0.1 -0.1)">
      <use xlink:href="#DejaVuSans-53"/>
      <use x="63.476562" xlink:href="#DejaVuSans-74"/>
      <use x="102.685547" xlink:href="#DejaVuSans-61"/>
      <use x="163.964844" xlink:href="#DejaVuSans-74"/>
      <use x="203.173828" xlink:href="#DejaVuSans-65"/>
      <use x="264.697266" xlink:href="#DejaVuSans-20"/>
      <use x="296.484375" xlink:href="#DejaVuSans-30"/>
     </g>
    </g>
   </g>
   <g id="line2d_10">
    <path clip-path="url(#p1ae7b906f0)" d="M 73.832727 84.713205 
L 138.757143 84.713205 
L 138.874019 73.597246 
L 139.036346 68.059805 
L 139.529821 49.915625 
L 139.841489 45.92006 
L 140.081734 45.04547 
L 140.198609 45.082396 
L 140.205103 45.091493 
L 140.373923 45.544596 
L 140.679098 47.143943 
L 141.308928 51.909936 
L 142.789353 63.083752 
L 143.730851 68.445761 
L 144.639884 72.398811 
L 145.276207 74.5565 
L 145.295686 74.500464 
L 145.373603 73.463996 
L 145.542423 67.438894 
L 145.99694 50.449693 
L 146.315101 46.060966 
L 146.561839 45.057513 
L 146.672221 45.059285 
L 146.6917 45.082396 
L 146.854028 45.496417 
L 147.146217 46.979534 
L 147.737088 51.381661 
L 149.321402 63.3343 
L 150.2629 68.638035 
L 151.171933 72.545243 
L 151.769297 74.5565 
L 151.79527 74.462924 
L 151.886173 73.016191 
L 152.074473 65.439429 
L 152.438086 51.632501 
L 152.76274 46.43835 
L 153.022464 45.10321 
L 153.13934 45.038552 
L 153.171805 45.066283 
L 153.321146 45.406161 
L 153.593856 46.702354 
L 154.126289 50.544401 
L 155.918383 63.989951 
L 156.853388 69.109174 
L 157.76242 72.903832 
L 158.262388 74.5565 
L 158.294854 74.41614 
L 158.39225 72.67859 
L 158.593536 64.057292 
L 158.957149 51.021428 
L 159.275311 46.268061 
L 159.528541 45.082205 
L 159.638924 45.042628 
L 159.664896 45.066283 
L 159.814237 45.406161 
L 160.086947 46.702354 
L 160.61938 50.544401 
L 162.411473 63.989951 
L 163.346479 69.109174 
L 164.255511 72.903832 
L 164.755479 74.5565 
L 164.787945 74.41614 
L 164.885341 72.67859 
L 165.086627 64.057292 
L 165.45024 51.021428 
L 165.768401 46.268061 
L 166.021632 45.082205 
L 166.132015 45.042628 
L 166.157987 45.066283 
L 166.307328 45.406161 
L 166.580038 46.702354 
L 167.112471 50.544401 
L 168.904564 63.989951 
L 169.839569 69.109174 
L 170.748602 72.903832 
L 171.24857 74.5565 
L 171.281036 74.41614 
L 171.378432 72.67859 
L 171.579718 64.057292 
L 171.943331 51.021428 
L 172.261492 46.268061 
L 172.514723 45.082205 
L 172.625105 45.042628 
L 172.651078 45.066283 
L 172.800419 45.406161 
L 173.073129 46.702354 
L 173.605562 50.544401 
L 175.397655 63.989951 
L 176.33266 69.109174 
L 177.241693 72.903832 
L 177.741661 74.5565 
L 177.774127 74.41614 
L 177.871523 72.67859 
L 178.072809 64.057292 
L 178.436422 51.021428 
L 178.754583 46.268061 
L 179.007814 45.082205 
L 179.118196 45.042628 
L 179.144169 45.066283 
L 179.29351 45.406161 
L 179.56622 46.702354 
L 180.098653 50.544401 
L 181.890746 63.989951 
L 182.825751 69.109174 
L 183.734784 72.903832 
L 184.234752 74.5565 
L 184.267217 74.41614 
L 184.364614 72.67859 
L 184.5659 64.057292 
L 184.929513 51.021428 
L 185.247674 46.268061 
L 185.500905 45.082205 
L 185.611287 45.042628 
L 185.63726 45.066283 
L 185.786601 45.406161 
L 186.059311 46.702354 
L 186.591744 50.544401 
L 188.383837 63.989951 
L 189.318842 69.109174 
L 190.227875 72.903832 
L 190.727843 74.5565 
L 190.760308 74.41614 
L 190.857705 72.67859 
L 191.058991 64.057292 
L 191.422604 51.021428 
L 191.740765 46.268061 
L 191.993996 45.082205 
L 192.104378 45.042628 
L 192.130351 45.066283 
L 192.279692 45.406161 
L 192.552401 46.702354 
L 193.084835 50.544401 
L 194.876928 63.989951 
L 195.811933 69.109174 
L 196.720966 72.903832 
L 197.220934 74.5565 
L 197.253399 74.41614 
L 197.350796 72.67859 
L 197.552081 64.057292 
L 197.915695 51.021428 
L 198.233856 46.268061 
L 198.487087 45.082205 
L 198.597469 45.042628 
L 198.623441 45.066283 
L 198.772783 45.406161 
L 199.045492 46.702354 
L 199.577926 50.544401 
L 201.370019 63.989951 
L 202.305024 69.109174 
L 203.214057 72.903832 
L 203.714025 74.5565 
L 203.74649 74.41614 
L 203.843887 72.67859 
L 204.045172 64.057292 
L 204.408785 51.021428 
L 204.726947 46.268061 
L 204.980177 45.082205 
L 205.09056 45.042628 
L 205.116532 45.066283 
L 205.265873 45.406161 
L 205.538583 46.702354 
L 206.071017 50.544401 
L 207.86311 63.989951 
L 208.798115 69.109174 
L 209.707148 72.903832 
L 210.207116 74.5565 
L 210.239581 74.41614 
L 210.336977 72.67859 
L 210.538263 64.057292 
L 210.901876 51.021428 
L 211.220038 46.268061 
L 211.473268 45.082205 
L 211.583651 45.042628 
L 211.609623 45.066283 
L 211.758964 45.406161 
L 212.031674 46.702354 
L 212.564108 50.544401 
L 214.356201 63.989951 
L 215.291206 69.109174 
L 216.200239 72.903832 
L 216.700207 74.5565 
L 216.732672 74.41614 
L 216.830068 72.67859 
L 217.031354 64.057292 
L 217.394967 51.021428 
L 217.713129 46.268061 
L 217.966359 45.082205 
L 218.076742 45.042628 
L 218.102714 45.066283 
L 218.252055 45.406161 
L 218.524765 46.702354 
L 219.057199 50.544401 
L 220.849292 63.989951 
L 221.784297 69.109174 
L 222.693329 72.903832 
L 223.193297 74.5565 
L 223.225763 74.41614 
L 223.323159 72.67859 
L 223.524445 64.057292 
L 223.888058 51.021428 
L 224.20622 46.268061 
L 224.45945 45.082205 
L 224.569833 45.042628 
L 224.595805 45.066283 
L 224.745146 45.406161 
L 225.017856 46.702354 
L 225.550289 50.544401 
L 227.342383 63.989951 
L 228.277388 69.109174 
L 229.18642 72.903832 
L 229.686388 74.5565 
L 229.718854 74.41614 
L 229.81625 72.67859 
L 230.017536 64.057292 
L 230.381149 51.021428 
L 230.699311 46.268061 
L 230.952541 45.082205 
L 231.062924 45.042628 
L 231.088896 45.066283 
L 231.238237 45.406161 
L 231.510947 46.702354 
L 232.04338 50.544401 
L 233.835473 63.989951 
L 234.770479 69.109174 
L 235.679511 72.903832 
L 236.179479 74.5565 
L 236.211945 74.41614 
L 236.309341 72.67859 
L 236.510627 64.057292 
L 236.87424 51.021428 
L 237.192401 46.268061 
L 237.445632 45.082205 
L 237.556015 45.042628 
L 237.581987 45.066283 
L 237.731328 45.406161 
L 238.004038 46.702354 
L 238.536471 50.544401 
L 240.328564 63.989951 
L 241.263569 69.109174 
L 242.172602 72.903832 
L 242.67257 74.5565 
L 242.705036 74.41614 
L 242.802432 72.67859 
L 243.003718 64.057292 
L 243.367331 51.021428 
L 243.685492 46.268061 
L 243.938723 45.082205 
L 244.049105 45.042628 
L 244.075078 45.066283 
L 244.224419 45.406161 
L 244.497129 46.702354 
L 245.029562 50.544401 
L 246.821655 63.989951 
L 247.75666 69.109174 
L 248.665693 72.903832 
L 249.165661 74.5565 
L 249.198127 74.41614 
L 249.295523 72.67859 
L 249.496809 64.057292 
L 249.860422 51.021428 
L 250.178583 46.268061 
L 250.431814 45.082205 
L 250.542196 45.042628 
L 250.568169 45.066283 
L 250.71751 45.406161 
L 250.99022 46.702354 
L 251.522653 50.544401 
L 253.314746 63.989951 
L 254.249751 69.109174 
L 255.158784 72.903832 
L 255.658752 74.5565 
L 255.691217 74.41614 
L 255.788614 72.67859 
L 255.9899 64.057292 
L 256.353513 51.021428 
L 256.671674 46.268061 
L 256.924905 45.082205 
L 257.035287 45.042628 
L 257.06126 45.066283 
L 257.210601 45.406161 
L 257.483311 46.702354 
L 258.015744 50.544401 
L 259.807837 63.989951 
L 260.742842 69.109174 
L 261.651875 72.903832 
L 262.151843 74.5565 
L 262.184308 74.41614 
L 262.281705 72.67859 
L 262.482991 64.057292 
L 262.846604 51.021428 
L 263.164765 46.268061 
L 263.417996 45.082205 
L 263.528378 45.042628 
L 263.554351 45.066283 
L 263.703692 45.406161 
L 263.976401 46.702354 
L 264.508835 50.544401 
L 266.300928 63.989951 
L 267.235933 69.109174 
L 268.144966 72.903832 
L 269.053999 75.783508 
L 269.976017 77.98983 
L 270.917516 79.681761 
L 271.891479 80.985487 
L 272.923881 82.000679 
L 274.047185 82.79389 
L 275.144518 83.322506 
L 275.222435 82.962209 
L 275.384762 80.871832 
L 275.897716 73.65181 
L 276.222371 72.030399 
L 276.482095 71.634257 
L 276.676887 71.666582 
L 276.936611 71.991105 
L 277.39762 73.000503 
L 279.741626 78.620863 
L 280.71559 80.187494 
L 281.670074 81.640164 
L 281.799936 84.625952 
L 282.644038 109.328685 
L 282.936227 111.173869 
L 283.144006 111.467494 
L 283.280361 111.34875 
L 283.507619 110.768258 
L 283.923177 108.966135 
L 286.51392 96.485638 
L 287.442432 93.576351 
L 288.1307 91.918626 
L 288.150179 91.952326 
L 288.234589 92.587274 
L 288.409903 96.040194 
L 288.812474 103.927692 
L 289.130636 106.350979 
L 289.377373 106.897356 
L 289.533207 106.854313 
L 289.740986 106.477814 
L 290.111092 105.246079 
L 291.052591 101.062994 
L 292.195375 96.449627 
L 293.143366 93.51737 
L 294.071878 91.336893 
L 294.610804 90.333825 
L 294.636777 90.4007 
L 294.721187 91.433725 
L 294.8965 96.916105 
L 295.318551 110.253377 
L 295.643206 114.319157 
L 295.902929 115.374196 
L 296.045777 115.416328 
L 296.058764 115.40558 
L 296.221091 115.103359 
L 296.51328 113.976111 
L 297.091165 110.6644 
L 298.720931 101.155128 
L 299.662429 97.074553 
L 300.577955 94.051011 
L 301.175319 92.009774 
L 301.337647 88.223095 
L 301.928518 72.740406 
L 302.272652 69.510924 
L 302.564841 68.505408 
L 302.77262 68.381163 
L 302.960919 68.546515 
L 303.266095 69.173641 
L 303.876445 71.049356 
L 305.447773 75.923478 
L 306.415244 78.156429 
L 307.369728 79.819175 
L 307.642438 80.401134 
L 307.778793 82.495422 
L 308.583936 98.034117 
L 308.895604 99.536099 
L 309.135849 99.858889 
L 309.317655 99.793014 
L 309.577379 99.396541 
L 310.044881 98.192319 
L 312.284998 91.93296 
L 313.245975 90.099277 
L 314.09657 88.876359 
L 314.103063 88.882772 
L 314.167994 89.201262 
L 314.310842 91.327743 
L 314.934179 102.219643 
L 315.232861 103.708381 
L 315.453626 103.970714 
L 315.615953 103.863793 
L 315.869184 103.357278 
L 316.336687 101.817862 
L 318.544337 93.959452 
L 319.492329 91.639205 
L 320.44032 89.89047 
L 320.583168 89.676451 
L 320.615633 89.792836 
L 320.71303 91.278497 
L 320.914316 98.717352 
L 321.277929 110.373043 
L 321.609076 114.898634 
L 321.875293 116.100152 
L 322.018141 116.170173 
L 322.03762 116.15596 
L 322.193455 115.874069 
L 322.472657 114.807509 
L 323.018077 111.661698 
L 324.758225 101.289131 
L 325.699724 97.171585 
L 326.615249 94.123455 
L 327.277545 91.880209 
L 328.017757 87.509743 
L 328.459287 86.407272 
L 328.933283 85.783682 
L 329.498182 85.404592 
L 330.303325 85.151679 
L 331.764271 84.961362 
L 333.608308 84.906939 
L 333.725184 85.453696 
L 333.991401 88.109768 
L 334.355014 90.525899 
L 334.686161 91.444072 
L 334.965364 91.67307 
L 335.231581 91.615803 
L 335.614673 91.26914 
L 336.445789 90.133826 
L 337.802845 88.384892 
L 338.887191 87.354945 
L 340.036468 86.569869 
L 340.068934 86.571614 
L 340.088413 86.640175 
L 340.179316 87.685141 
L 340.367616 93.003533 
L 340.750708 103.391861 
L 341.088349 107.284561 
L 341.361059 108.377121 
L 341.542865 108.469142 
L 341.711686 108.244515 
L 341.997382 107.410985 
L 342.562281 104.929906 
L 344.250484 97.32107 
L 345.198476 94.171649 
L 346.126988 91.829258 
L 346.626956 90.47727 
L 346.795776 87.602375 
L 347.367168 76.766181 
L 347.711302 74.343092 
L 348.009984 73.545334 
L 348.243735 73.42834 
L 348.470993 73.583229 
L 348.834607 74.156351 
L 349.659229 75.995629 
L 350.931875 78.663046 
L 351.931811 80.244911 
L 352.93824 81.431095 
L 353.100567 81.738318 
L 353.243415 83.216472 
L 353.990121 92.62733 
L 354.314775 93.763213 
L 354.580992 94.037872 
L 354.814743 93.981077 
L 355.139398 93.626227 
L 355.762735 92.54179 
L 357.398993 89.65558 
L 358.424902 88.333646 
L 359.476783 87.335363 
L 359.5547 87.294009 
L 359.587165 87.369619 
L 359.697548 88.191105 
L 359.944285 92.198163 
L 360.301405 96.197038 
L 360.619567 97.660166 
L 360.872797 97.995212 
L 361.06759 97.93749 
L 361.333807 97.574988 
L 361.820788 96.460519 
L 363.970001 91.165304 
L 364.943965 89.508605 
L 365.937408 88.248125 
L 366.041297 88.155452 
L 366.06727 88.236948 
L 366.164666 89.328147 
L 366.365952 94.775048 
L 366.729565 103.3106 
L 367.060713 106.632544 
L 367.326929 107.521459 
L 367.49575 107.564416 
L 367.671063 107.316093 
L 367.976239 106.41375 
L 368.599575 103.710296 
L 370.118959 97.106396 
L 371.073443 93.996076 
L 372.001955 91.697969 
L 372.566854 90.640118 
L 372.599319 90.677594 
L 372.709702 91.121036 
L 373.508352 95.365603 
L 373.73561 95.458101 
L 373.969361 95.296247 
L 374.345961 94.71486 
L 375.254993 92.768509 
L 376.462708 90.393762 
L 377.469137 88.899056 
L 378.488553 87.775329 
L 379.046959 87.151915 
L 379.150848 85.182741 
L 379.358627 76.002096 
L 379.728733 62.14321 
L 380.066374 56.539527 
L 380.35207 54.79737 
L 380.546863 54.583169 
L 380.689711 54.767767 
L 380.936448 55.556942 
L 381.397457 57.93625 
L 383.598615 70.207869 
L 384.527127 73.78248 
L 385.442653 76.460142 
L 385.812759 77.693345 
L 386.345193 79.509951 
L 386.923078 80.704254 
L 387.611345 81.623349 
L 388.474927 82.402197 
L 389.55278 83.070759 
L 390.870877 83.621736 
L 392.020154 83.906379 
L 392.098071 83.182388 
L 392.266892 78.923761 
L 392.76686 65.352953 
L 393.091514 62.091371 
L 393.357731 61.205158 
L 393.526551 61.173543 
L 393.708358 61.453346 
L 394.020026 62.42826 
L 394.669335 65.359871 
L 396.123788 71.869356 
L 397.078272 75.091604 
L 398.006784 77.473304 
L 398.487273 78.467083 
L 398.487273 78.467083 
" style="fill:none;stroke:#000000;stroke-linecap:square;stroke-width:4;"/>
   </g>
   <g id="line2d_11">
    <path clip-path="url(#p1ae7b906f0)" d="M 73.832727 84.713205 
L 80.358284 84.61542 
L 80.449187 83.13134 
L 80.637487 75.384758 
L 81.040058 59.199564 
L 81.377699 53.48154 
L 81.656902 51.800681 
L 81.825722 51.624349 
L 81.838708 51.630444 
L 81.975063 51.833403 
L 82.221801 52.704291 
L 82.68281 55.320794 
L 84.877475 68.76231 
L 85.805987 72.692952 
L 86.721513 75.637464 
L 86.838388 75.928203 
L 86.870854 75.774198 
L 86.96825 73.99652 
L 87.169536 65.296012 
L 87.533149 52.128929 
L 87.857804 47.216315 
L 88.111034 46.000033 
L 88.22791 45.947192 
L 88.253882 45.96946 
L 88.403223 46.297448 
L 88.675933 47.559071 
L 89.208367 51.309502 
L 91.006953 64.490856 
L 91.941958 69.486704 
L 92.850991 73.189637 
L 93.331479 74.742233 
L 93.363945 74.600026 
L 93.461341 72.857042 
L 93.662627 64.225019 
L 94.02624 51.171387 
L 94.344401 46.404024 
L 94.597632 45.207969 
L 94.708015 45.164189 
L 94.74048 45.194341 
L 94.896314 45.564967 
L 95.175517 46.9247 
L 95.72743 50.945721 
L 97.435113 63.757823 
L 98.370118 68.930352 
L 99.279151 72.767559 
L 99.82457 74.581649 
L 99.850543 74.487872 
L 99.941446 73.04045 
L 100.129745 65.462322 
L 100.493359 51.652969 
L 100.818013 46.45687 
L 101.077737 45.120307 
L 101.194612 45.055044 
L 101.227078 45.082612 
L 101.376419 45.421755 
L 101.649129 46.716693 
L 102.181562 50.556571 
L 103.973655 63.99696 
L 104.90866 69.114429 
L 105.817693 72.907804 
L 106.317661 74.559906 
L 106.350127 74.419512 
L 106.447523 72.681861 
L 106.648809 64.060367 
L 107.012422 51.024177 
L 107.330583 46.270553 
L 107.583814 45.084511 
L 107.694196 45.044857 
L 107.720169 45.068494 
L 107.86951 45.408272 
L 108.14222 46.704296 
L 108.674653 50.546048 
L 110.466746 63.9909 
L 111.401751 69.109885 
L 112.310784 72.90437 
L 112.810752 74.556961 
L 112.843217 74.416597 
L 112.940614 72.679033 
L 113.1419 64.057708 
L 113.505513 51.0218 
L 113.823674 46.268398 
L 114.076905 45.082517 
L 114.187287 45.04293 
L 114.21326 45.066583 
L 114.362601 45.406447 
L 114.635311 46.702617 
L 115.167744 50.544624 
L 116.959837 63.99008 
L 117.894842 69.10927 
L 118.803875 72.903905 
L 119.303843 74.556563 
L 119.336308 74.416202 
L 119.433705 72.67865 
L 119.634991 64.057348 
L 119.998604 51.021478 
L 120.316765 46.268106 
L 120.569996 45.082247 
L 120.680378 45.042669 
L 120.706351 45.066324 
L 120.855692 45.406199 
L 121.128401 46.70239 
L 121.660835 50.544431 
L 123.452928 63.989969 
L 124.387933 69.109187 
L 125.296966 72.903842 
L 125.796934 74.556509 
L 125.829399 74.416149 
L 125.926796 72.678598 
L 126.128081 64.0573 
L 126.491695 51.021434 
L 126.809856 46.268067 
L 127.063087 45.082211 
L 127.173469 45.042634 
L 127.199441 45.066289 
L 127.348783 45.406166 
L 127.621492 46.702359 
L 128.153926 50.544405 
L 129.946019 63.989954 
L 130.881024 69.109176 
L 131.790057 72.903834 
L 132.290025 74.556502 
L 132.32249 74.416142 
L 132.419887 72.678591 
L 132.621172 64.057293 
L 132.984785 51.021428 
L 133.302947 46.268062 
L 133.556177 45.082206 
L 133.66656 45.042629 
L 133.692532 45.066284 
L 133.841873 45.406161 
L 134.114583 46.702355 
L 134.647017 50.544401 
L 136.43911 63.989952 
L 137.374115 69.109174 
L 138.283148 72.903833 
L 138.783116 74.556501 
L 138.815581 74.416141 
L 138.912977 72.67859 
L 139.114263 64.057292 
L 139.477876 51.021428 
L 139.796038 46.268061 
L 140.049268 45.082205 
L 140.159651 45.042629 
L 140.185623 45.066283 
L 140.334964 45.406161 
L 140.607674 46.702354 
L 141.140108 50.544401 
L 142.932201 63.989951 
L 143.867206 69.109174 
L 144.776239 72.903833 
L 145.276207 74.5565 
L 145.308672 74.416141 
L 145.406068 72.67859 
L 145.607354 64.057292 
L 145.970967 51.021428 
L 146.289129 46.268061 
L 146.542359 45.082205 
L 146.652742 45.042628 
L 146.678714 45.066283 
L 146.828055 45.406161 
L 147.100765 46.702354 
L 147.633199 50.544401 
L 149.425292 63.989951 
L 150.360297 69.109174 
L 151.269329 72.903832 
L 151.769297 74.5565 
L 151.801763 74.416141 
L 151.899159 72.67859 
L 152.100445 64.057292 
L 152.464058 51.021428 
L 152.78222 46.268061 
L 153.03545 45.082205 
L 153.145833 45.042628 
L 153.171805 45.066283 
L 153.321146 45.406161 
L 153.593856 46.702354 
L 154.126289 50.544401 
L 155.918383 63.989951 
L 156.853388 69.109174 
L 157.76242 72.903832 
L 158.262388 74.5565 
L 158.294854 74.416141 
L 158.39225 72.67859 
L 158.593536 64.057292 
L 158.957149 51.021428 
L 159.275311 46.268061 
L 159.528541 45.082205 
L 159.638924 45.042628 
L 159.664896 45.066283 
L 159.814237 45.406161 
L 160.086947 46.702354 
L 160.61938 50.544401 
L 162.411473 63.989951 
L 163.346479 69.109174 
L 164.255511 72.903832 
L 164.755479 74.5565 
L 164.787945 74.416141 
L 164.885341 72.67859 
L 165.086627 64.057292 
L 165.45024 51.021428 
L 165.768401 46.268061 
L 166.021632 45.082205 
L 166.132015 45.042628 
L 166.157987 45.066283 
L 166.307328 45.406161 
L 166.580038 46.702354 
L 167.112471 50.544401 
L 168.904564 63.989951 
L 169.839569 69.109174 
L 170.748602 72.903832 
L 171.24857 74.5565 
L 171.281036 74.416141 
L 171.378432 72.67859 
L 171.579718 64.057292 
L 171.943331 51.021428 
L 172.261492 46.268061 
L 172.514723 45.082205 
L 172.625105 45.042628 
L 172.651078 45.066283 
L 172.800419 45.406161 
L 173.073129 46.702354 
L 173.605562 50.544401 
L 175.397655 63.989951 
L 176.33266 69.109174 
L 177.241693 72.903832 
L 177.741661 74.5565 
L 177.774127 74.416141 
L 177.871523 72.67859 
L 178.072809 64.057292 
L 178.436422 51.021428 
L 178.754583 46.268061 
L 179.007814 45.082205 
L 179.118196 45.042628 
L 179.144169 45.066283 
L 179.29351 45.406161 
L 179.56622 46.702354 
L 180.098653 50.544401 
L 181.890746 63.989951 
L 182.825751 69.109174 
L 183.734784 72.903832 
L 184.234752 74.5565 
L 184.267217 74.416141 
L 184.364614 72.67859 
L 184.5659 64.057292 
L 184.929513 51.021428 
L 185.247674 46.268061 
L 185.500905 45.082205 
L 185.611287 45.042628 
L 185.63726 45.066283 
L 185.786601 45.406161 
L 186.059311 46.702354 
L 186.591744 50.544401 
L 188.383837 63.989951 
L 189.318842 69.109174 
L 190.227875 72.903832 
L 190.727843 74.5565 
L 190.760308 74.416141 
L 190.857705 72.67859 
L 191.058991 64.057292 
L 191.422604 51.021428 
L 191.740765 46.268061 
L 191.993996 45.082205 
L 192.104378 45.042628 
L 192.130351 45.066283 
L 192.279692 45.406161 
L 192.552401 46.702354 
L 193.084835 50.544401 
L 194.876928 63.989951 
L 195.811933 69.109174 
L 196.720966 72.903832 
L 197.220934 74.5565 
L 197.253399 74.416141 
L 197.350796 72.67859 
L 197.552081 64.057292 
L 197.915695 51.021428 
L 198.233856 46.268061 
L 198.487087 45.082205 
L 198.597469 45.042628 
L 198.623441 45.066283 
L 198.772783 45.406161 
L 199.045492 46.702354 
L 199.577926 50.544401 
L 201.370019 63.989951 
L 202.305024 69.109174 
L 203.214057 72.903832 
L 203.714025 74.5565 
L 203.74649 74.416141 
L 203.843887 72.67859 
L 204.045172 64.057292 
L 204.408785 51.021428 
L 204.726947 46.268061 
L 204.980177 45.082205 
L 205.09056 45.042628 
L 205.116532 45.066283 
L 205.265873 45.406161 
L 205.538583 46.702354 
L 206.071017 50.544401 
L 207.86311 63.989951 
L 208.798115 69.109174 
L 209.707148 72.903832 
L 210.207116 74.5565 
L 210.239581 74.416141 
L 210.336977 72.67859 
L 210.538263 64.057292 
L 210.901876 51.021428 
L 211.220038 46.268061 
L 211.473268 45.082205 
L 211.583651 45.042628 
L 211.609623 45.066283 
L 211.758964 45.406161 
L 212.031674 46.702354 
L 212.564108 50.544401 
L 214.356201 63.989951 
L 215.291206 69.109174 
L 216.200239 72.903832 
L 216.700207 74.5565 
L 216.732672 74.416141 
L 216.830068 72.67859 
L 217.031354 64.057292 
L 217.394967 51.021428 
L 217.713129 46.268061 
L 217.966359 45.082205 
L 218.076742 45.042628 
L 218.102714 45.066283 
L 218.252055 45.406161 
L 218.524765 46.702354 
L 219.057199 50.544401 
L 220.849292 63.989951 
L 221.784297 69.109174 
L 222.693329 72.903832 
L 223.193297 74.5565 
L 223.225763 74.416141 
L 223.323159 72.67859 
L 223.524445 64.057292 
L 223.888058 51.021428 
L 224.20622 46.268061 
L 224.45945 45.082205 
L 224.569833 45.042628 
L 224.595805 45.066283 
L 224.745146 45.406161 
L 225.017856 46.702354 
L 225.550289 50.544401 
L 227.342383 63.989951 
L 228.277388 69.109174 
L 229.18642 72.903832 
L 229.686388 74.5565 
L 229.718854 74.416141 
L 229.81625 72.67859 
L 230.017536 64.057292 
L 230.381149 51.021428 
L 230.699311 46.268061 
L 230.952541 45.082205 
L 231.062924 45.042628 
L 231.088896 45.066283 
L 231.238237 45.406161 
L 231.510947 46.702354 
L 232.04338 50.544401 
L 233.835473 63.989951 
L 234.770479 69.109174 
L 235.679511 72.903832 
L 236.179479 74.5565 
L 236.211945 74.416141 
L 236.309341 72.67859 
L 236.510627 64.057292 
L 236.87424 51.021428 
L 237.192401 46.268061 
L 237.445632 45.082205 
L 237.556015 45.042628 
L 237.581987 45.066283 
L 237.731328 45.406161 
L 238.004038 46.702354 
L 238.536471 50.544401 
L 240.328564 63.989951 
L 241.263569 69.109174 
L 242.172602 72.903832 
L 242.67257 74.5565 
L 242.705036 74.416141 
L 242.802432 72.67859 
L 243.003718 64.057292 
L 243.367331 51.021428 
L 243.685492 46.268061 
L 243.938723 45.082205 
L 244.049105 45.042628 
L 244.075078 45.066283 
L 244.224419 45.406161 
L 244.497129 46.702354 
L 245.029562 50.544401 
L 246.821655 63.989951 
L 247.75666 69.109174 
L 248.665693 72.903832 
L 249.165661 74.5565 
L 249.198127 74.416141 
L 249.295523 72.67859 
L 249.496809 64.057292 
L 249.860422 51.021428 
L 250.178583 46.268061 
L 250.431814 45.082205 
L 250.542196 45.042628 
L 250.568169 45.066283 
L 250.71751 45.406161 
L 250.99022 46.702354 
L 251.522653 50.544401 
L 253.314746 63.989951 
L 254.249751 69.109174 
L 255.158784 72.903832 
L 255.658752 74.5565 
L 255.691217 74.416141 
L 255.788614 72.67859 
L 255.9899 64.057292 
L 256.353513 51.021428 
L 256.671674 46.268061 
L 256.924905 45.082205 
L 257.035287 45.042628 
L 257.06126 45.066283 
L 257.210601 45.406161 
L 257.483311 46.702354 
L 258.015744 50.544401 
L 259.807837 63.989951 
L 260.742842 69.109174 
L 261.651875 72.903832 
L 262.151843 74.5565 
L 262.184308 74.416141 
L 262.281705 72.67859 
L 262.482991 64.057292 
L 262.846604 51.021428 
L 263.164765 46.268061 
L 263.417996 45.082205 
L 263.528378 45.042628 
L 263.554351 45.066283 
L 263.703692 45.406161 
L 263.976401 46.702354 
L 264.508835 50.544401 
L 266.300928 63.989951 
L 267.235933 69.109174 
L 268.144966 72.903832 
L 269.053999 75.783508 
L 269.976017 77.98983 
L 270.917516 79.681761 
L 271.891479 80.985487 
L 272.923881 82.000679 
L 274.047185 82.79389 
L 275.144518 83.322506 
L 275.222435 82.962209 
L 275.384762 80.871832 
L 275.897716 73.65181 
L 276.222371 72.030399 
L 276.482095 71.634257 
L 276.676887 71.666582 
L 276.936611 71.991105 
L 277.39762 73.000503 
L 279.741626 78.620863 
L 280.71559 80.187494 
L 281.670074 81.640164 
L 281.799936 84.625952 
L 282.644038 109.328685 
L 282.936227 111.173869 
L 283.144006 111.467494 
L 283.280361 111.34875 
L 283.507619 110.768258 
L 283.923177 108.966135 
L 286.51392 96.485638 
L 287.442432 93.576351 
L 288.1307 91.918626 
L 288.150179 91.952326 
L 288.234589 92.587274 
L 288.409903 96.040194 
L 288.812474 103.927692 
L 289.130636 106.350979 
L 289.377373 106.897356 
L 289.533207 106.854313 
L 289.740986 106.477814 
L 290.111092 105.246079 
L 291.052591 101.062994 
L 292.195375 96.449627 
L 293.143366 93.51737 
L 294.071878 91.336893 
L 294.610804 90.333825 
L 294.636777 90.4007 
L 294.721187 91.433725 
L 294.8965 96.916105 
L 295.318551 110.253377 
L 295.643206 114.319157 
L 295.902929 115.374196 
L 296.045777 115.416328 
L 296.058764 115.40558 
L 296.221091 115.103359 
L 296.51328 113.976111 
L 297.091165 110.6644 
L 298.720931 101.155128 
L 299.662429 97.074553 
L 300.577955 94.051011 
L 301.175319 92.009774 
L 301.337647 88.223095 
L 301.928518 72.740406 
L 302.272652 69.510924 
L 302.564841 68.505408 
L 302.77262 68.381163 
L 302.960919 68.546515 
L 303.266095 69.173641 
L 303.876445 71.049356 
L 305.447773 75.923478 
L 306.415244 78.156429 
L 307.369728 79.819175 
L 307.642438 80.401134 
L 307.778793 82.495422 
L 308.583936 98.034117 
L 308.895604 99.536099 
L 309.135849 99.858889 
L 309.317655 99.793014 
L 309.577379 99.396541 
L 310.044881 98.192319 
L 312.284998 91.93296 
L 313.245975 90.099277 
L 314.09657 88.876359 
L 314.103063 88.882772 
L 314.167994 89.201262 
L 314.310842 91.327743 
L 314.934179 102.219643 
L 315.232861 103.708381 
L 315.453626 103.970714 
L 315.615953 103.863793 
L 315.869184 103.357278 
L 316.336687 101.817862 
L 318.544337 93.959452 
L 319.492329 91.639205 
L 320.44032 89.89047 
L 320.583168 89.676451 
L 320.615633 89.792836 
L 320.71303 91.278497 
L 320.914316 98.717352 
L 321.277929 110.373043 
L 321.609076 114.898634 
L 321.875293 116.100152 
L 322.018141 116.170173 
L 322.03762 116.15596 
L 322.193455 115.874069 
L 322.472657 114.807509 
L 323.018077 111.661698 
L 324.758225 101.289131 
L 325.699724 97.171585 
L 326.615249 94.123455 
L 327.277545 91.880209 
L 328.017757 87.509743 
L 328.459287 86.407272 
L 328.933283 85.783682 
L 329.498182 85.404592 
L 330.303325 85.151679 
L 331.764271 84.961362 
L 333.608308 84.906939 
L 333.725184 85.453696 
L 333.991401 88.109768 
L 334.355014 90.525899 
L 334.686161 91.444072 
L 334.965364 91.67307 
L 335.231581 91.615803 
L 335.614673 91.26914 
L 336.445789 90.133826 
L 337.802845 88.384892 
L 338.887191 87.354945 
L 340.036468 86.569869 
L 340.068934 86.571614 
L 340.088413 86.640175 
L 340.179316 87.685141 
L 340.367616 93.003533 
L 340.750708 103.391861 
L 341.088349 107.284561 
L 341.361059 108.377121 
L 341.542865 108.469142 
L 341.711686 108.244515 
L 341.997382 107.410985 
L 342.562281 104.929906 
L 344.250484 97.32107 
L 345.198476 94.171649 
L 346.126988 91.829258 
L 346.626956 90.47727 
L 346.795776 87.602374 
L 347.367168 76.766181 
L 347.711302 74.343092 
L 348.009984 73.545334 
L 348.243735 73.42834 
L 348.470993 73.583229 
L 348.834607 74.156351 
L 349.659229 75.995629 
L 350.931875 78.663046 
L 351.931811 80.244911 
L 352.93824 81.431095 
L 353.100567 81.738318 
L 353.243415 83.216472 
L 353.990121 92.62733 
L 354.314775 93.763213 
L 354.580992 94.037872 
L 354.814743 93.981077 
L 355.139398 93.626227 
L 355.762735 92.54179 
L 357.398993 89.65558 
L 358.424902 88.333646 
L 359.476783 87.335363 
L 359.5547 87.294009 
L 359.587165 87.369619 
L 359.697548 88.191105 
L 359.944285 92.198163 
L 360.301405 96.197038 
L 360.619567 97.660166 
L 360.872797 97.995212 
L 361.06759 97.93749 
L 361.333807 97.574988 
L 361.820788 96.460519 
L 363.970001 91.165304 
L 364.943965 89.508605 
L 365.937408 88.248125 
L 366.041297 88.155452 
L 366.06727 88.236948 
L 366.164666 89.328147 
L 366.365952 94.775048 
L 366.729565 103.3106 
L 367.060713 106.632544 
L 367.326929 107.521459 
L 367.49575 107.564416 
L 367.671063 107.316093 
L 367.976239 106.41375 
L 368.599575 103.710296 
L 370.118959 97.106396 
L 371.073443 93.996076 
L 372.001955 91.697968 
L 372.566854 90.640118 
L 372.599319 90.677594 
L 372.709702 91.121036 
L 373.508352 95.365603 
L 373.73561 95.458101 
L 373.969361 95.296247 
L 374.345961 94.71486 
L 375.254993 92.768509 
L 376.462708 90.393762 
L 377.469137 88.899056 
L 378.488553 87.775329 
L 379.046959 87.151915 
L 379.150848 85.182741 
L 379.358627 76.002096 
L 379.728733 62.143209 
L 380.066374 56.539527 
L 380.35207 54.79737 
L 380.546863 54.583169 
L 380.689711 54.767767 
L 380.936448 55.556942 
L 381.397457 57.93625 
L 383.598615 70.207869 
L 384.527127 73.78248 
L 385.442653 76.460142 
L 385.812759 77.693345 
L 386.345193 79.509951 
L 386.923078 80.704254 
L 387.611345 81.623349 
L 388.474927 82.402197 
L 389.55278 83.070759 
L 390.870877 83.621736 
L 392.020154 83.906379 
L 392.098071 83.182388 
L 392.266892 78.923761 
L 392.76686 65.352953 
L 393.091514 62.09137 
L 393.357731 61.205158 
L 393.526551 61.173543 
L 393.708358 61.453346 
L 394.020026 62.42826 
L 394.669335 65.359871 
L 396.123788 71.869356 
L 397.078272 75.091604 
L 398.006784 77.473304 
L 398.487273 78.467083 
L 398.487273 78.467083 
" style="fill:none;stroke:#ff0000;stroke-linecap:square;stroke-width:1.5;"/>
   </g>
   <g id="patch_3">
    <path d="M 57.6 119.740235 
L 57.6 41.472 
" style="fill:none;stroke:#000000;stroke-linecap:square;stroke-linejoin:miter;stroke-width:0.8;"/>
   </g>
   <g id="patch_4">
    <path d="M 414.72 119.740235 
L 414.72 41.472 
" style="fill:none;stroke:#000000;stroke-linecap:square;stroke-linejoin:miter;stroke-width:0.8;"/>
   </g>
   <g id="patch_5">
    <path d="M 57.6 119.740235 
L 414.72 119.740235 
" style="fill:none;stroke:#000000;stroke-linecap:square;stroke-linejoin:miter;stroke-width:0.8;"/>
   </g>
   <g id="patch_6">
    <path d="M 57.6 41.472 
L 414.72 41.472 
" style="fill:none;stroke:#000000;stroke-linecap:square;stroke-linejoin:miter;stroke-width:0.8;"/>
   </g>
  </g>
  <g id="axes_2">
   <g id="patch_7">
    <path d="M 57.6 213.662118 
L 414.72 213.662118 
L 414.72 135.393882 
L 57.6 135.393882 
z
" style="fill:#ffffff;"/>
   </g>
   <g id="matplotlib.axis_3">
    <g id="xtick_7">
     <g id="line2d_12">
      <g>
       <use style="stroke:#000000;stroke-width:0.8;" x="73.832727" xlink:href="#mcb1d337200" y="213.662118"/>
      </g>
     </g>
     <g id="text_11">
      <!-- 0 -->
      <g transform="translate(70.651477 228.260555)scale(0.1 -0.1)">
       <use xlink:href="#DejaVuSans-30"/>
      </g>
     </g>
    </g>
    <g id="xtick_8">
     <g id="line2d_13">
      <g>
       <use style="stroke:#000000;stroke-width:0.8;" x="138.763636" xlink:href="#mcb1d337200" y="213.662118"/>
      </g>
     </g>
     <g id="text_12">
      <!-- 10 -->
      <g transform="translate(132.401136 228.260555)scale(0.1 -0.1)">
       <use xlink:href="#DejaVuSans-31"/>
       <use x="63.623047" xlink:href="#DejaVuSans-30"/>
      </g>
     </g>
    </g>
    <g id="xtick_9">
     <g id="line2d_14">
      <g>
       <use style="stroke:#000000;stroke-width:0.8;" x="203.694545" xlink:href="#mcb1d337200" y="213.662118"/>
      </g>
     </g>
     <g id="text_13">
      <!-- 20 -->
      <g transform="translate(197.332045 228.260555)scale(0.1 -0.1)">
       <use xlink:href="#DejaVuSans-32"/>
       <use x="63.623047" xlink:href="#DejaVuSans-30"/>
      </g>
     </g>
    </g>
    <g id="xtick_10">
     <g id="line2d_15">
      <g>
       <use style="stroke:#000000;stroke-width:0.8;" x="268.625455" xlink:href="#mcb1d337200" y="213.662118"/>
      </g>
     </g>
     <g id="text_14">
      <!-- 30 -->
      <g transform="translate(262.262955 228.260555)scale(0.1 -0.1)">
       <use xlink:href="#DejaVuSans-33"/>
       <use x="63.623047" xlink:href="#DejaVuSans-30"/>
      </g>
     </g>
    </g>
    <g id="xtick_11">
     <g id="line2d_16">
      <g>
       <use style="stroke:#000000;stroke-width:0.8;" x="333.556364" xlink:href="#mcb1d337200" y="213.662118"/>
      </g>
     </g>
     <g id="text_15">
      <!-- 40 -->
      <g transform="translate(327.193864 228.260555)scale(0.1 -0.1)">
       <use xlink:href="#DejaVuSans-34"/>
       <use x="63.623047" xlink:href="#DejaVuSans-30"/>
      </g>
     </g>
    </g>
    <g id="xtick_12">
     <g id="line2d_17">
      <g>
       <use style="stroke:#000000;stroke-width:0.8;" x="398.487273" xlink:href="#mcb1d337200" y="213.662118"/>
      </g>
     </g>
     <g id="text_16">
      <!-- 50 -->
      <g transform="translate(392.124773 228.260555)scale(0.1 -0.1)">
       <use xlink:href="#DejaVuSans-35"/>
       <use x="63.623047" xlink:href="#DejaVuSans-30"/>
      </g>
     </g>
    </g>
   </g>
   <g id="matplotlib.axis_4">
    <g id="ytick_4">
     <g id="line2d_18">
      <g>
       <use style="stroke:#000000;stroke-width:0.8;" x="57.6" xlink:href="#m3cf692730a" y="201.696837"/>
      </g>
     </g>
     <g id="text_17">
      <!-- −0.5 -->
      <g transform="translate(26.317187 205.496055)scale(0.1 -0.1)">
       <use xlink:href="#DejaVuSans-2212"/>
       <use x="83.789062" xlink:href="#DejaVuSans-30"/>
       <use x="147.412109" xlink:href="#DejaVuSans-2e"/>
       <use x="179.199219" xlink:href="#DejaVuSans-35"/>
      </g>
     </g>
    </g>
    <g id="ytick_5">
     <g id="line2d_19">
      <g>
       <use style="stroke:#000000;stroke-width:0.8;" x="57.6" xlink:href="#m3cf692730a" y="176.585813"/>
      </g>
     </g>
     <g id="text_18">
      <!-- 0.0 -->
      <g transform="translate(34.696875 180.385032)scale(0.1 -0.1)">
       <use xlink:href="#DejaVuSans-30"/>
       <use x="63.623047" xlink:href="#DejaVuSans-2e"/>
       <use x="95.410156" xlink:href="#DejaVuSans-30"/>
      </g>
     </g>
    </g>
    <g id="ytick_6">
     <g id="line2d_20">
      <g>
       <use style="stroke:#000000;stroke-width:0.8;" x="57.6" xlink:href="#m3cf692730a" y="151.474789"/>
      </g>
     </g>
     <g id="text_19">
      <!-- 0.5 -->
      <g transform="translate(34.696875 155.274008)scale(0.1 -0.1)">
       <use xlink:href="#DejaVuSans-30"/>
       <use x="63.623047" xlink:href="#DejaVuSans-2e"/>
       <use x="95.410156" xlink:href="#DejaVuSans-35"/>
      </g>
     </g>
    </g>
    <g id="text_20">
     <!-- State 1 -->
     <g transform="translate(20.2375 192.533469)rotate(-90)scale(0.1 -0.1)">
      <use xlink:href="#DejaVuSans-53"/>
      <use x="63.476562" xlink:href="#DejaVuSans-74"/>
      <use x="102.685547" xlink:href="#DejaVuSans-61"/>
      <use x="163.964844" xlink:href="#DejaVuSans-74"/>
      <use x="203.173828" xlink:href="#DejaVuSans-65"/>
      <use x="264.697266" xlink:href="#DejaVuSans-20"/>
      <use x="296.484375" xlink:href="#DejaVuSans-31"/>
     </g>
    </g>
   </g>
   <g id="line2d_21">
    <path clip-path="url(#p98da58e401)" d="M 73.832727 176.585813 
L 138.757143 176.585813 
L 138.763636 178.652523 
L 138.83506 168.197779 
L 139.088291 140.818962 
L 139.127249 143.556089 
L 139.536314 163.83911 
L 139.938886 173.92764 
L 140.328471 178.742972 
L 140.698577 180.897601 
L 141.036218 181.735294 
L 141.3349 181.968772 
L 141.633583 181.927749 
L 142.06862 181.609358 
L 143.191924 180.401643 
L 144.445091 179.226223 
L 145.256727 178.648423 
L 145.581382 140.818962 
L 145.600861 142.209155 
L 146.009926 163.152925 
L 146.412497 173.584846 
L 146.802083 178.577166 
L 147.172189 180.82274 
L 147.50983 181.706511 
L 147.808512 181.963522 
L 148.107194 181.936187 
L 148.529245 181.639445 
L 149.522688 180.577 
L 150.834292 179.3103 
L 151.749818 178.648423 
L 152.074473 140.818962 
L 152.093952 142.209155 
L 152.503017 163.152925 
L 152.905588 173.584846 
L 153.295174 178.577166 
L 153.66528 180.82274 
L 154.002921 181.706511 
L 154.301603 181.963522 
L 154.600285 181.936187 
L 155.022336 181.639445 
L 156.015779 180.577 
L 157.327383 179.3103 
L 158.242909 178.648423 
L 158.567564 140.818962 
L 158.587043 142.209155 
L 158.996108 163.152925 
L 159.398679 173.584846 
L 159.788265 178.577166 
L 160.158371 180.82274 
L 160.496012 181.706511 
L 160.794694 181.963522 
L 161.093376 181.936187 
L 161.515427 181.639445 
L 162.50887 180.577 
L 163.820474 179.3103 
L 164.736 178.648423 
L 165.060655 140.818962 
L 165.080134 142.209155 
L 165.489199 163.152925 
L 165.89177 173.584846 
L 166.281356 178.577166 
L 166.651462 180.82274 
L 166.989103 181.706511 
L 167.287785 181.963522 
L 167.586467 181.936187 
L 168.008518 181.639445 
L 169.001961 180.577 
L 170.313565 179.3103 
L 171.229091 178.648423 
L 171.553745 140.818962 
L 171.573225 142.209155 
L 171.982289 163.152925 
L 172.384861 173.584846 
L 172.774447 178.577166 
L 173.144553 180.82274 
L 173.482193 181.706511 
L 173.780876 181.963522 
L 174.079558 181.936187 
L 174.501609 181.639445 
L 175.495052 180.577 
L 176.806656 179.3103 
L 177.722182 178.648423 
L 178.046836 140.818962 
L 178.066316 142.209155 
L 178.47538 163.152925 
L 178.877952 173.584846 
L 179.267537 178.577166 
L 179.637644 180.82274 
L 179.975284 181.706511 
L 180.273967 181.963522 
L 180.572649 181.936187 
L 180.9947 181.639445 
L 181.988143 180.577 
L 183.299747 179.3103 
L 184.215273 178.648423 
L 184.539927 140.818962 
L 184.559407 142.209155 
L 184.968471 163.152925 
L 185.371043 173.584846 
L 185.760628 178.577166 
L 186.130735 180.82274 
L 186.468375 181.706511 
L 186.767057 181.963522 
L 187.06574 181.936187 
L 187.487791 181.639445 
L 188.481233 180.577 
L 189.792838 179.3103 
L 190.708364 178.648423 
L 191.033018 140.818962 
L 191.052497 142.209155 
L 191.461562 163.152925 
L 191.864134 173.584846 
L 192.253719 178.577166 
L 192.623825 180.82274 
L 192.961466 181.706511 
L 193.260148 181.963522 
L 193.558831 181.936187 
L 193.980881 181.639445 
L 194.974324 180.577 
L 196.285929 179.3103 
L 197.201455 178.648423 
L 197.526109 140.818962 
L 197.545588 142.209155 
L 197.954653 163.152925 
L 198.357225 173.584846 
L 198.74681 178.577166 
L 199.116916 180.82274 
L 199.454557 181.706511 
L 199.753239 181.963522 
L 200.051921 181.936187 
L 200.473972 181.639445 
L 201.467415 180.577 
L 202.77902 179.3103 
L 203.694545 178.648423 
L 204.0192 140.818962 
L 204.038679 142.209155 
L 204.447744 163.152925 
L 204.850316 173.584846 
L 205.239901 178.577166 
L 205.610007 180.82274 
L 205.947648 181.706511 
L 206.24633 181.963522 
L 206.545012 181.936187 
L 206.967063 181.639445 
L 207.960506 180.577 
L 209.272111 179.3103 
L 210.187636 178.648423 
L 210.512291 140.818962 
L 210.53177 142.209155 
L 210.940835 163.152925 
L 211.343407 173.584846 
L 211.732992 178.577166 
L 212.103098 180.82274 
L 212.440739 181.706511 
L 212.739421 181.963522 
L 213.038103 181.936187 
L 213.460154 181.639445 
L 214.453597 180.577 
L 215.765201 179.3103 
L 216.680727 178.648423 
L 217.005382 140.818962 
L 217.024861 142.209155 
L 217.433926 163.152925 
L 217.836497 173.584846 
L 218.226083 178.577166 
L 218.596189 180.82274 
L 218.93383 181.706511 
L 219.232512 181.963522 
L 219.531194 181.936187 
L 219.953245 181.639445 
L 220.946688 180.577 
L 222.258292 179.3103 
L 223.173818 178.648423 
L 223.498473 140.818962 
L 223.517952 142.209155 
L 223.927017 163.152925 
L 224.329588 173.584846 
L 224.719174 178.577166 
L 225.08928 180.82274 
L 225.426921 181.706511 
L 225.725603 181.963522 
L 226.024285 181.936187 
L 226.446336 181.639445 
L 227.439779 180.577 
L 228.751383 179.3103 
L 229.666909 178.648423 
L 229.991564 140.818962 
L 230.011043 142.209155 
L 230.420108 163.152925 
L 230.822679 173.584846 
L 231.212265 178.577166 
L 231.582371 180.82274 
L 231.920012 181.706511 
L 232.218694 181.963522 
L 232.517376 181.936187 
L 232.939427 181.639445 
L 233.93287 180.577 
L 235.244474 179.3103 
L 236.16 178.648423 
L 236.484655 140.818962 
L 236.504134 142.209155 
L 236.913199 163.152925 
L 237.31577 173.584846 
L 237.705356 178.577166 
L 238.075462 180.82274 
L 238.413103 181.706511 
L 238.711785 181.963522 
L 239.010467 181.936187 
L 239.432518 181.639445 
L 240.425961 180.577 
L 241.737565 179.3103 
L 242.653091 178.648423 
L 242.977745 140.818962 
L 242.997225 142.209155 
L 243.406289 163.152925 
L 243.808861 173.584846 
L 244.198447 178.577166 
L 244.568553 180.82274 
L 244.906193 181.706511 
L 245.204876 181.963522 
L 245.503558 181.936187 
L 245.925609 181.639445 
L 246.919052 180.577 
L 248.230656 179.3103 
L 249.146182 178.648423 
L 249.470836 140.818962 
L 249.490316 142.209155 
L 249.89938 163.152925 
L 250.301952 173.584846 
L 250.691537 178.577166 
L 251.061644 180.82274 
L 251.399284 181.706511 
L 251.697967 181.963522 
L 251.996649 181.936187 
L 252.4187 181.639445 
L 253.412143 180.577 
L 254.723747 179.3103 
L 255.639273 178.648423 
L 255.963927 140.818962 
L 255.983407 142.209155 
L 256.392471 163.152925 
L 256.795043 173.584846 
L 257.184628 178.577166 
L 257.554735 180.82274 
L 257.892375 181.706511 
L 258.191057 181.963522 
L 258.48974 181.936187 
L 258.911791 181.639445 
L 259.905233 180.577 
L 261.216838 179.3103 
L 262.132364 178.648423 
L 262.457018 140.818962 
L 262.476497 142.209155 
L 262.885562 163.152925 
L 263.288134 173.584846 
L 263.677719 178.577166 
L 264.047825 180.82274 
L 264.385466 181.706511 
L 264.684148 181.963522 
L 264.982831 181.936187 
L 265.404881 181.639445 
L 266.398324 180.577 
L 267.709929 179.3103 
L 268.878685 178.494571 
L 270.164317 177.871827 
L 271.677207 177.393063 
L 273.57319 177.036069 
L 275.118545 176.865575 
L 275.4432 162.951872 
L 275.462679 163.467443 
L 275.871744 171.246736 
L 276.274316 175.140561 
L 276.670394 177.042111 
L 277.053487 177.910949 
L 277.430086 178.268276 
L 277.852137 178.365235 
L 278.46898 178.251539 
L 281.611636 177.281566 
L 281.936291 210.104471 
L 281.95577 208.876112 
L 282.364835 190.308076 
L 282.767407 180.960835 
L 283.163485 176.348139 
L 283.546577 174.19671 
L 283.903697 173.297649 
L 284.234845 172.989891 
L 284.578979 172.965988 
L 285.059468 173.183485 
L 286.384058 174.138521 
L 287.741114 174.95071 
L 288.104727 175.12216 
L 288.429382 195.151551 
L 288.448861 194.41879 
L 288.857926 183.388813 
L 289.260497 177.909638 
L 289.650083 175.300602 
L 290.020189 174.138766 
L 290.370816 173.68264 
L 290.721443 173.569191 
L 291.169466 173.678051 
L 292.046033 174.175341 
L 293.773196 175.119373 
L 294.597818 175.444913 
L 294.922473 206.370746 
L 294.941952 205.229395 
L 295.351017 188.020847 
L 295.753588 179.427762 
L 296.143174 175.296253 
L 296.519773 173.399332 
L 296.863907 172.649961 
L 297.182068 172.423255 
L 297.519709 172.455702 
L 298.02617 172.761612 
L 301.084416 174.967937 
L 301.090909 174.971145 
L 301.415564 150.929328 
L 301.435043 151.838913 
L 301.850601 165.768864 
L 302.259665 172.749707 
L 302.662237 176.191917 
L 303.051823 177.808301 
L 303.421929 178.50766 
L 303.792035 178.769206 
L 304.220579 178.789888 
L 304.902353 178.564146 
L 307.584 177.51296 
L 307.908655 197.908935 
L 307.928134 197.141243 
L 308.337199 185.524511 
L 308.746263 179.591571 
L 309.142342 176.712156 
L 309.531927 175.340085 
L 309.902033 174.756406 
L 310.278633 174.547222 
L 310.739642 174.557128 
L 311.551279 174.839265 
L 313.836847 175.677164 
L 314.077091 175.741294 
L 314.401745 194.660743 
L 314.421225 193.963794 
L 314.830289 183.459326 
L 315.232861 178.219727 
L 315.622447 175.705687 
L 315.999046 174.556082 
L 316.356166 174.096529 
L 316.719779 173.969478 
L 317.193775 174.06141 
L 318.141766 174.53056 
L 319.888407 175.346335 
L 320.570182 175.57871 
L 320.894836 207.830251 
L 320.914316 206.638342 
L 321.32338 188.662945 
L 321.725952 179.679723 
L 322.115537 175.354263 
L 322.492137 173.362481 
L 322.836271 172.570358 
L 323.154432 172.325284 
L 323.48558 172.348642 
L 323.972561 172.639296 
L 327.063273 174.925871 
L 327.387927 170.93442 
L 327.400913 171.043906 
L 327.822964 173.635304 
L 328.251508 175.006479 
L 328.699532 175.742791 
L 329.1995 176.14712 
L 329.855302 176.377719 
L 330.978607 176.502278 
L 333.556364 176.557169 
L 333.881018 184.380788 
L 333.900497 184.089742 
L 334.309562 179.695027 
L 334.718627 177.465668 
L 335.121199 176.385168 
L 335.52377 175.884219 
L 335.971793 175.673931 
L 336.588637 175.652756 
L 337.997638 175.897887 
L 340.049455 176.211493 
L 340.374109 201.936186 
L 340.393588 200.981662 
L 340.802653 186.575615 
L 341.205225 179.359269 
L 341.601303 175.830132 
L 341.977903 174.230946 
L 342.335023 173.570502 
L 342.672663 173.367117 
L 343.055756 173.401411 
L 343.672599 173.716862 
L 346.198412 175.17775 
L 346.542545 175.318051 
L 346.8672 158.203163 
L 346.886679 158.85173 
L 347.302237 168.787245 
L 347.711302 173.770979 
L 348.113873 176.232571 
L 348.503459 177.392191 
L 348.886551 177.908247 
L 349.295616 178.101127 
L 349.828049 178.088863 
L 350.912396 177.78493 
L 353.035636 177.230291 
L 353.360291 190.039541 
L 353.37977 189.556856 
L 353.795328 182.170126 
L 354.204393 178.47682 
L 354.606964 176.663212 
L 355.003043 175.809091 
L 355.399121 175.440497 
L 355.853638 175.319737 
L 356.541905 175.395712 
L 359.528727 176.063602 
L 359.853382 189.33602 
L 359.872861 188.846469 
L 360.281926 181.466161 
L 360.684497 177.782104 
L 361.080576 175.992056 
L 361.463668 175.182447 
L 361.840268 174.857689 
L 362.268812 174.780982 
L 362.918121 174.920644 
L 366.021818 175.888523 
L 366.346473 199.452623 
L 366.365952 198.581429 
L 366.775017 185.44183 
L 367.177588 178.873785 
L 367.573667 175.674216 
L 367.950266 174.235545 
L 368.300893 173.658035 
L 368.645027 173.483185 
L 369.054092 173.541192 
L 369.742359 173.905376 
L 371.924038 175.13989 
L 372.514909 175.378053 
L 372.839564 183.191728 
L 372.859043 182.911548 
L 373.268108 178.710157 
L 373.670679 176.648511 
L 374.060265 175.689391 
L 374.44985 175.269903 
L 374.878394 175.129677 
L 375.488745 175.189207 
L 377.488617 175.748316 
L 379.008 176.057235 
L 379.332655 139.961583 
L 379.352134 141.310319 
L 379.761199 161.692163 
L 380.16377 171.943284 
L 380.559849 176.99379 
L 380.942941 179.341968 
L 381.300061 180.31649 
L 381.624716 180.640537 
L 381.94937 180.665508 
L 382.397393 180.44741 
L 383.423302 179.61866 
L 384.825809 178.600243 
L 385.501091 178.226475 
L 385.514077 178.293919 
L 385.825745 179.464913 
L 385.845225 179.40419 
L 386.299741 178.369588 
L 386.793216 177.772003 
L 387.397073 177.391276 
L 388.280134 177.117878 
L 389.870941 176.890172 
L 391.994182 176.742408 
L 392.318836 150.486002 
L 392.338316 151.462253 
L 392.74738 166.201831 
L 393.149952 173.594115 
L 393.546031 177.217271 
L 393.92263 178.866185 
L 394.27975 179.553839 
L 394.617391 179.772657 
L 395.000483 179.748865 
L 395.60434 179.450198 
L 398.253521 177.94361 
L 398.487273 177.850135 
L 398.487273 177.850135 
" style="fill:none;stroke:#000000;stroke-linecap:square;stroke-width:4;"/>
   </g>
   <g id="line2d_22">
    <path clip-path="url(#p98da58e401)" d="M 73.832727 176.585813 
L 80.325818 176.585813 
L 80.650473 138.951529 
L 80.669952 140.352841 
L 81.079017 161.515592 
L 81.481588 172.138032 
L 81.877667 177.352257 
L 82.254266 179.732296 
L 82.604893 180.720414 
L 82.923055 181.045502 
L 83.234723 181.065402 
L 83.663267 180.839308 
L 84.591779 180.021561 
L 86.013766 178.862567 
L 86.818909 178.368661 
L 87.143564 140.565816 
L 87.163043 141.957524 
L 87.572108 162.931076 
L 87.974679 173.388863 
L 88.364265 178.40334 
L 88.734371 180.667637 
L 89.078505 181.576818 
L 89.38368 181.840157 
L 89.682362 181.814801 
L 90.110906 181.519965 
L 91.130321 180.45336 
L 92.435433 179.228869 
L 93.312 178.610542 
L 93.636655 140.784685 
L 93.656134 142.175084 
L 94.065199 163.122886 
L 94.46777 173.558309 
L 94.857356 178.55363 
L 95.227462 180.801739 
L 95.565103 181.687584 
L 95.863785 181.946257 
L 96.162467 181.92044 
L 96.584518 181.625617 
L 97.571468 180.573885 
L 98.883072 179.308822 
L 99.805091 178.643294 
L 100.129745 140.81432 
L 100.149225 142.204542 
L 100.558289 163.148857 
L 100.960861 173.581253 
L 101.350447 178.573979 
L 101.720553 180.819896 
L 102.058193 181.703948 
L 102.356876 181.961184 
L 102.655558 181.934054 
L 103.077609 181.637573 
L 104.071052 180.575621 
L 105.382656 179.309379 
L 106.298182 178.647729 
L 106.622836 140.818333 
L 106.642316 142.208531 
L 107.05138 163.152374 
L 107.453952 173.58436 
L 107.843537 178.576735 
L 108.213644 180.822355 
L 108.551284 181.706164 
L 108.849967 181.963205 
L 109.148649 181.935898 
L 109.5707 181.639192 
L 110.564143 180.576813 
L 111.875747 179.310175 
L 112.791273 178.648329 
L 113.115927 140.818877 
L 113.135407 142.209071 
L 113.544471 163.15285 
L 113.947043 173.58478 
L 114.336628 178.577108 
L 114.706735 180.822688 
L 115.044375 181.706464 
L 115.343057 181.963479 
L 115.64174 181.936148 
L 116.063791 181.639411 
L 117.057233 180.576975 
L 118.368838 179.310283 
L 119.284364 178.64841 
L 119.609018 140.81895 
L 119.628497 142.209144 
L 120.037562 163.152915 
L 120.440134 173.584837 
L 120.829719 178.577158 
L 121.199825 180.822733 
L 121.537466 181.706505 
L 121.836148 181.963516 
L 122.134831 181.936181 
L 122.556881 181.63944 
L 123.550324 180.576997 
L 124.861929 179.310298 
L 125.777455 178.648421 
L 126.102109 140.81896 
L 126.121588 142.209154 
L 126.530653 163.152923 
L 126.933225 173.584845 
L 127.32281 178.577165 
L 127.692916 180.822739 
L 128.030557 181.70651 
L 128.329239 181.963521 
L 128.627921 181.936186 
L 129.049972 181.639444 
L 130.043415 180.576999 
L 131.35502 179.3103 
L 132.270545 178.648423 
L 132.5952 140.818961 
L 132.614679 142.209155 
L 133.023744 163.152925 
L 133.426316 173.584846 
L 133.815901 178.577166 
L 134.186007 180.82274 
L 134.523648 181.706511 
L 134.82233 181.963522 
L 135.121012 181.936187 
L 135.543063 181.639445 
L 136.536506 180.577 
L 137.848111 179.3103 
L 138.763636 178.648423 
L 139.088291 140.818962 
L 139.10777 142.209155 
L 139.516835 163.152925 
L 139.919407 173.584846 
L 140.308992 178.577166 
L 140.679098 180.82274 
L 141.016739 181.706511 
L 141.315421 181.963522 
L 141.614103 181.936187 
L 142.036154 181.639445 
L 143.029597 180.577 
L 144.341201 179.3103 
L 145.256727 178.648423 
L 145.581382 140.818962 
L 145.600861 142.209155 
L 146.009926 163.152925 
L 146.412497 173.584846 
L 146.802083 178.577166 
L 147.172189 180.82274 
L 147.50983 181.706511 
L 147.808512 181.963522 
L 148.107194 181.936187 
L 148.529245 181.639445 
L 149.522688 180.577 
L 150.834292 179.3103 
L 151.749818 178.648423 
L 152.074473 140.818962 
L 152.093952 142.209155 
L 152.503017 163.152925 
L 152.905588 173.584846 
L 153.295174 178.577166 
L 153.66528 180.82274 
L 154.002921 181.706511 
L 154.301603 181.963522 
L 154.600285 181.936187 
L 155.022336 181.639445 
L 156.015779 180.577 
L 157.327383 179.3103 
L 158.242909 178.648423 
L 158.567564 140.818962 
L 158.587043 142.209155 
L 158.996108 163.152925 
L 159.398679 173.584846 
L 159.788265 178.577166 
L 160.158371 180.82274 
L 160.496012 181.706511 
L 160.794694 181.963522 
L 161.093376 181.936187 
L 161.515427 181.639445 
L 162.50887 180.577 
L 163.820474 179.3103 
L 164.736 178.648423 
L 165.060655 140.818962 
L 165.080134 142.209155 
L 165.489199 163.152925 
L 165.89177 173.584846 
L 166.281356 178.577166 
L 166.651462 180.82274 
L 166.989103 181.706511 
L 167.287785 181.963522 
L 167.586467 181.936187 
L 168.008518 181.639445 
L 169.001961 180.577 
L 170.313565 179.3103 
L 171.229091 178.648423 
L 171.553745 140.818962 
L 171.573225 142.209155 
L 171.982289 163.152925 
L 172.384861 173.584846 
L 172.774447 178.577166 
L 173.144553 180.82274 
L 173.482193 181.706511 
L 173.780876 181.963522 
L 174.079558 181.936187 
L 174.501609 181.639445 
L 175.495052 180.577 
L 176.806656 179.3103 
L 177.722182 178.648423 
L 178.046836 140.818962 
L 178.066316 142.209155 
L 178.47538 163.152925 
L 178.877952 173.584846 
L 179.267537 178.577166 
L 179.637644 180.82274 
L 179.975284 181.706511 
L 180.273967 181.963522 
L 180.572649 181.936187 
L 180.9947 181.639445 
L 181.988143 180.577 
L 183.299747 179.3103 
L 184.215273 178.648423 
L 184.539927 140.818962 
L 184.559407 142.209155 
L 184.968471 163.152925 
L 185.371043 173.584846 
L 185.760628 178.577166 
L 186.130735 180.82274 
L 186.468375 181.706511 
L 186.767057 181.963522 
L 187.06574 181.936187 
L 187.487791 181.639445 
L 188.481233 180.577 
L 189.792838 179.3103 
L 190.708364 178.648423 
L 191.033018 140.818962 
L 191.052497 142.209155 
L 191.461562 163.152925 
L 191.864134 173.584846 
L 192.253719 178.577166 
L 192.623825 180.82274 
L 192.961466 181.706511 
L 193.260148 181.963522 
L 193.558831 181.936187 
L 193.980881 181.639445 
L 194.974324 180.577 
L 196.285929 179.3103 
L 197.201455 178.648423 
L 197.526109 140.818962 
L 197.545588 142.209155 
L 197.954653 163.152925 
L 198.357225 173.584846 
L 198.74681 178.577166 
L 199.116916 180.82274 
L 199.454557 181.706511 
L 199.753239 181.963522 
L 200.051921 181.936187 
L 200.473972 181.639445 
L 201.467415 180.577 
L 202.77902 179.3103 
L 203.694545 178.648423 
L 204.0192 140.818962 
L 204.038679 142.209155 
L 204.447744 163.152925 
L 204.850316 173.584846 
L 205.239901 178.577166 
L 205.610007 180.82274 
L 205.947648 181.706511 
L 206.24633 181.963522 
L 206.545012 181.936187 
L 206.967063 181.639445 
L 207.960506 180.577 
L 209.272111 179.3103 
L 210.187636 178.648423 
L 210.512291 140.818962 
L 210.53177 142.209155 
L 210.940835 163.152925 
L 211.343407 173.584846 
L 211.732992 178.577166 
L 212.103098 180.82274 
L 212.440739 181.706511 
L 212.739421 181.963522 
L 213.038103 181.936187 
L 213.460154 181.639445 
L 214.453597 180.577 
L 215.765201 179.3103 
L 216.680727 178.648423 
L 217.005382 140.818962 
L 217.024861 142.209155 
L 217.433926 163.152925 
L 217.836497 173.584846 
L 218.226083 178.577166 
L 218.596189 180.82274 
L 218.93383 181.706511 
L 219.232512 181.963522 
L 219.531194 181.936187 
L 219.953245 181.639445 
L 220.946688 180.577 
L 222.258292 179.3103 
L 223.173818 178.648423 
L 223.498473 140.818962 
L 223.517952 142.209155 
L 223.927017 163.152925 
L 224.329588 173.584846 
L 224.719174 178.577166 
L 225.08928 180.82274 
L 225.426921 181.706511 
L 225.725603 181.963522 
L 226.024285 181.936187 
L 226.446336 181.639445 
L 227.439779 180.577 
L 228.751383 179.3103 
L 229.666909 178.648423 
L 229.991564 140.818962 
L 230.011043 142.209155 
L 230.420108 163.152925 
L 230.822679 173.584846 
L 231.212265 178.577166 
L 231.582371 180.82274 
L 231.920012 181.706511 
L 232.218694 181.963522 
L 232.517376 181.936187 
L 232.939427 181.639445 
L 233.93287 180.577 
L 235.244474 179.3103 
L 236.16 178.648423 
L 236.484655 140.818962 
L 236.504134 142.209155 
L 236.913199 163.152925 
L 237.31577 173.584846 
L 237.705356 178.577166 
L 238.075462 180.82274 
L 238.413103 181.706511 
L 238.711785 181.963522 
L 239.010467 181.936187 
L 239.432518 181.639445 
L 240.425961 180.577 
L 241.737565 179.3103 
L 242.653091 178.648423 
L 242.977745 140.818962 
L 242.997225 142.209155 
L 243.406289 163.152925 
L 243.808861 173.584846 
L 244.198447 178.577166 
L 244.568553 180.82274 
L 244.906193 181.706511 
L 245.204876 181.963522 
L 245.503558 181.936187 
L 245.925609 181.639445 
L 246.919052 180.577 
L 248.230656 179.3103 
L 249.146182 178.648423 
L 249.470836 140.818962 
L 249.490316 142.209155 
L 249.89938 163.152925 
L 250.301952 173.584846 
L 250.691537 178.577166 
L 251.061644 180.82274 
L 251.399284 181.706511 
L 251.697967 181.963522 
L 251.996649 181.936187 
L 252.4187 181.639445 
L 253.412143 180.577 
L 254.723747 179.3103 
L 255.639273 178.648423 
L 255.963927 140.818962 
L 255.983407 142.209155 
L 256.392471 163.152925 
L 256.795043 173.584846 
L 257.184628 178.577166 
L 257.554735 180.82274 
L 257.892375 181.706511 
L 258.191057 181.963522 
L 258.48974 181.936187 
L 258.911791 181.639445 
L 259.905233 180.577 
L 261.216838 179.3103 
L 262.132364 178.648423 
L 262.457018 140.818962 
L 262.476497 142.209155 
L 262.885562 163.152925 
L 263.288134 173.584846 
L 263.677719 178.577166 
L 264.047825 180.82274 
L 264.385466 181.706511 
L 264.684148 181.963522 
L 264.982831 181.936187 
L 265.404881 181.639445 
L 266.398324 180.577 
L 267.709929 179.3103 
L 268.878685 178.494571 
L 270.164317 177.871827 
L 271.677207 177.393063 
L 273.57319 177.036069 
L 275.118545 176.865575 
L 275.4432 162.951872 
L 275.462679 163.467443 
L 275.871744 171.246736 
L 276.274316 175.140561 
L 276.670394 177.042111 
L 277.053487 177.910949 
L 277.430086 178.268276 
L 277.852137 178.365235 
L 278.46898 178.251539 
L 281.611636 177.281566 
L 281.936291 210.104471 
L 281.95577 208.876112 
L 282.364835 190.308076 
L 282.767407 180.960835 
L 283.163485 176.348139 
L 283.546577 174.19671 
L 283.903697 173.297649 
L 284.234845 172.989891 
L 284.578979 172.965988 
L 285.059468 173.183485 
L 286.384058 174.138521 
L 287.741114 174.95071 
L 288.104727 175.12216 
L 288.429382 195.151551 
L 288.448861 194.41879 
L 288.857926 183.388813 
L 289.260497 177.909638 
L 289.650083 175.300602 
L 290.020189 174.138766 
L 290.370816 173.68264 
L 290.721443 173.569192 
L 291.169466 173.678051 
L 292.046033 174.175341 
L 293.773196 175.119373 
L 294.597818 175.444913 
L 294.922473 206.370746 
L 294.941952 205.229395 
L 295.351017 188.020847 
L 295.753588 179.427762 
L 296.143174 175.296253 
L 296.519773 173.399332 
L 296.863907 172.649961 
L 297.182068 172.423255 
L 297.519709 172.455702 
L 298.02617 172.761612 
L 301.084416 174.967937 
L 301.090909 174.971145 
L 301.415564 150.929328 
L 301.435043 151.838913 
L 301.850601 165.768864 
L 302.259665 172.749707 
L 302.662237 176.191917 
L 303.051823 177.808301 
L 303.421929 178.50766 
L 303.792035 178.769206 
L 304.220579 178.789888 
L 304.902353 178.564146 
L 307.584 177.51296 
L 307.908655 197.908935 
L 307.928134 197.141243 
L 308.337199 185.524511 
L 308.746263 179.591571 
L 309.142342 176.712156 
L 309.531927 175.340085 
L 309.902033 174.756406 
L 310.278633 174.547222 
L 310.739642 174.557128 
L 311.551279 174.839265 
L 313.836847 175.677164 
L 314.077091 175.741294 
L 314.401745 194.660743 
L 314.421225 193.963794 
L 314.830289 183.459326 
L 315.232861 178.219727 
L 315.622447 175.705687 
L 315.999046 174.556082 
L 316.356166 174.096529 
L 316.719779 173.969478 
L 317.193775 174.06141 
L 318.141766 174.53056 
L 319.888407 175.346335 
L 320.570182 175.57871 
L 320.894836 207.830251 
L 320.914316 206.638342 
L 321.32338 188.662945 
L 321.725952 179.679723 
L 322.115537 175.354263 
L 322.492137 173.362481 
L 322.836271 172.570358 
L 323.154432 172.325284 
L 323.48558 172.348642 
L 323.972561 172.639296 
L 327.063273 174.925871 
L 327.387927 170.93442 
L 327.400913 171.043906 
L 327.822964 173.635304 
L 328.251508 175.006479 
L 328.699532 175.742791 
L 329.1995 176.14712 
L 329.855302 176.377719 
L 330.978607 176.502278 
L 333.556364 176.557169 
L 333.881018 184.380788 
L 333.900497 184.089742 
L 334.309562 179.695027 
L 334.718627 177.465668 
L 335.121199 176.385168 
L 335.52377 175.884219 
L 335.971793 175.673931 
L 336.588637 175.652756 
L 337.997638 175.897887 
L 340.049455 176.211493 
L 340.374109 201.936186 
L 340.393588 200.981662 
L 340.802653 186.575615 
L 341.205225 179.359269 
L 341.601303 175.830132 
L 341.977903 174.230946 
L 342.335023 173.570502 
L 342.672663 173.367117 
L 343.055756 173.401411 
L 343.672599 173.716862 
L 346.198412 175.17775 
L 346.542545 175.318051 
L 346.8672 158.203163 
L 346.886679 158.85173 
L 347.302237 168.787245 
L 347.711302 173.770979 
L 348.113873 176.232571 
L 348.503459 177.392191 
L 348.886551 177.908247 
L 349.295616 178.101127 
L 349.828049 178.088863 
L 350.912396 177.78493 
L 353.035636 177.230291 
L 353.360291 190.039541 
L 353.37977 189.556856 
L 353.795328 182.170126 
L 354.204393 178.47682 
L 354.606964 176.663212 
L 355.003043 175.809091 
L 355.399121 175.440497 
L 355.853638 175.319737 
L 356.541905 175.395712 
L 359.528727 176.063602 
L 359.853382 189.33602 
L 359.872861 188.846469 
L 360.281926 181.466161 
L 360.684497 177.782104 
L 361.080576 175.992056 
L 361.463668 175.182447 
L 361.840268 174.857689 
L 362.268812 174.780982 
L 362.918121 174.920644 
L 366.021818 175.888523 
L 366.346473 199.452624 
L 366.365952 198.581429 
L 366.775017 185.44183 
L 367.177588 178.873785 
L 367.573667 175.674216 
L 367.950266 174.235545 
L 368.300893 173.658035 
L 368.645027 173.483185 
L 369.054092 173.541192 
L 369.742359 173.905376 
L 371.924038 175.13989 
L 372.514909 175.378053 
L 372.839564 183.191728 
L 372.859043 182.911548 
L 373.268108 178.710157 
L 373.670679 176.648511 
L 374.060265 175.689391 
L 374.44985 175.269903 
L 374.878394 175.129677 
L 375.488745 175.189207 
L 377.488617 175.748316 
L 379.008 176.057235 
L 379.332655 139.961583 
L 379.352134 141.310319 
L 379.761199 161.692163 
L 380.16377 171.943284 
L 380.559849 176.99379 
L 380.942941 179.341968 
L 381.300061 180.31649 
L 381.624716 180.640537 
L 381.94937 180.665508 
L 382.397393 180.44741 
L 383.423302 179.61866 
L 384.825809 178.600243 
L 385.501091 178.226475 
L 385.514077 178.293919 
L 385.825745 179.464913 
L 385.845225 179.40419 
L 386.299741 178.369588 
L 386.793216 177.772003 
L 387.397073 177.391276 
L 388.280134 177.117878 
L 389.870941 176.890172 
L 391.994182 176.742408 
L 392.318836 150.486002 
L 392.338316 151.462253 
L 392.74738 166.201831 
L 393.149952 173.594115 
L 393.546031 177.217271 
L 393.92263 178.866185 
L 394.27975 179.553839 
L 394.617391 179.772657 
L 395.000483 179.748865 
L 395.60434 179.450198 
L 398.253521 177.94361 
L 398.487273 177.850135 
L 398.487273 177.850135 
" style="fill:none;stroke:#ff0000;stroke-linecap:square;stroke-width:1.5;"/>
   </g>
   <g id="patch_8">
    <path d="M 57.6 213.662118 
L 57.6 135.393882 
" style="fill:none;stroke:#000000;stroke-linecap:square;stroke-linejoin:miter;stroke-width:0.8;"/>
   </g>
   <g id="patch_9">
    <path d="M 414.72 213.662118 
L 414.72 135.393882 
" style="fill:none;stroke:#000000;stroke-linecap:square;stroke-linejoin:miter;stroke-width:0.8;"/>
   </g>
   <g id="patch_10">
    <path d="M 57.6 213.662118 
L 414.72 213.662118 
" style="fill:none;stroke:#000000;stroke-linecap:square;stroke-linejoin:miter;stroke-width:0.8;"/>
   </g>
   <g id="patch_11">
    <path d="M 57.6 135.393882 
L 414.72 135.393882 
" style="fill:none;stroke:#000000;stroke-linecap:square;stroke-linejoin:miter;stroke-width:0.8;"/>
   </g>
   <g id="legend_1">
    <g id="patch_12">
     <path d="M 353.0325 172.750132 
L 407.72 172.750132 
Q 409.72 172.750132 409.72 170.750132 
L 409.72 142.393882 
Q 409.72 140.393882 407.72 140.393882 
L 353.0325 140.393882 
Q 351.0325 140.393882 351.0325 142.393882 
L 351.0325 170.750132 
Q 351.0325 172.750132 353.0325 172.750132 
z
" style="fill:#ffffff;opacity:0.8;stroke:#cccccc;stroke-linejoin:miter;"/>
    </g>
    <g id="line2d_23">
     <path d="M 355.0325 148.49232 
L 375.0325 148.49232 
" style="fill:none;stroke:#000000;stroke-linecap:square;stroke-width:4;"/>
    </g>
    <g id="line2d_24"/>
    <g id="text_21">
     <!-- Pred -->
     <defs>
      <path d="M 19.671875 64.796875 
L 19.671875 37.40625 
L 32.078125 37.40625 
Q 38.96875 37.40625 42.71875 40.96875 
Q 46.484375 44.53125 46.484375 51.125 
Q 46.484375 57.671875 42.71875 61.234375 
Q 38.96875 64.796875 32.078125 64.796875 
z
M 9.8125 72.90625 
L 32.078125 72.90625 
Q 44.34375 72.90625 50.609375 67.359375 
Q 56.890625 61.8125 56.890625 51.125 
Q 56.890625 40.328125 50.609375 34.8125 
Q 44.34375 29.296875 32.078125 29.296875 
L 19.671875 29.296875 
L 19.671875 0 
L 9.8125 0 
z
" id="DejaVuSans-50"/>
      <path d="M 41.109375 46.296875 
Q 39.59375 47.171875 37.8125 47.578125 
Q 36.03125 48 33.890625 48 
Q 26.265625 48 22.1875 43.046875 
Q 18.109375 38.09375 18.109375 28.8125 
L 18.109375 0 
L 9.078125 0 
L 9.078125 54.6875 
L 18.109375 54.6875 
L 18.109375 46.1875 
Q 20.953125 51.171875 25.484375 53.578125 
Q 30.03125 56 36.53125 56 
Q 37.453125 56 38.578125 55.875 
Q 39.703125 55.765625 41.0625 55.515625 
z
" id="DejaVuSans-72"/>
      <path d="M 45.40625 46.390625 
L 45.40625 75.984375 
L 54.390625 75.984375 
L 54.390625 0 
L 45.40625 0 
L 45.40625 8.203125 
Q 42.578125 3.328125 38.25 0.953125 
Q 33.9375 -1.421875 27.875 -1.421875 
Q 17.96875 -1.421875 11.734375 6.484375 
Q 5.515625 14.40625 5.515625 27.296875 
Q 5.515625 40.1875 11.734375 48.09375 
Q 17.96875 56 27.875 56 
Q 33.9375 56 38.25 53.625 
Q 42.578125 51.265625 45.40625 46.390625 
z
M 14.796875 27.296875 
Q 14.796875 17.390625 18.875 11.75 
Q 22.953125 6.109375 30.078125 6.109375 
Q 37.203125 6.109375 41.296875 11.75 
Q 45.40625 17.390625 45.40625 27.296875 
Q 45.40625 37.203125 41.296875 42.84375 
Q 37.203125 48.484375 30.078125 48.484375 
Q 22.953125 48.484375 18.875 42.84375 
Q 14.796875 37.203125 14.796875 27.296875 
z
" id="DejaVuSans-64"/>
     </defs>
     <g transform="translate(383.0325 151.99232)scale(0.1 -0.1)">
      <use xlink:href="#DejaVuSans-50"/>
      <use x="60.287109" xlink:href="#DejaVuSans-72"/>
      <use x="101.369141" xlink:href="#DejaVuSans-65"/>
      <use x="162.892578" xlink:href="#DejaVuSans-64"/>
     </g>
    </g>
    <g id="line2d_25">
     <path d="M 355.0325 163.170445 
L 375.0325 163.170445 
" style="fill:none;stroke:#ff0000;stroke-linecap:square;stroke-width:1.5;"/>
    </g>
    <g id="line2d_26"/>
    <g id="text_22">
     <!-- True -->
     <defs>
      <path d="M -0.296875 72.90625 
L 61.375 72.90625 
L 61.375 64.59375 
L 35.5 64.59375 
L 35.5 0 
L 25.59375 0 
L 25.59375 64.59375 
L -0.296875 64.59375 
z
" id="DejaVuSans-54"/>
      <path d="M 8.5 21.578125 
L 8.5 54.6875 
L 17.484375 54.6875 
L 17.484375 21.921875 
Q 17.484375 14.15625 20.5 10.265625 
Q 23.53125 6.390625 29.59375 6.390625 
Q 36.859375 6.390625 41.078125 11.03125 
Q 45.3125 15.671875 45.3125 23.6875 
L 45.3125 54.6875 
L 54.296875 54.6875 
L 54.296875 0 
L 45.3125 0 
L 45.3125 8.40625 
Q 42.046875 3.421875 37.71875 1 
Q 33.40625 -1.421875 27.6875 -1.421875 
Q 18.265625 -1.421875 13.375 4.4375 
Q 8.5 10.296875 8.5 21.578125 
z
M 31.109375 56 
z
" id="DejaVuSans-75"/>
     </defs>
     <g transform="translate(383.0325 166.670445)scale(0.1 -0.1)">
      <use xlink:href="#DejaVuSans-54"/>
      <use x="60.865234" xlink:href="#DejaVuSans-72"/>
      <use x="101.978516" xlink:href="#DejaVuSans-75"/>
      <use x="165.357422" xlink:href="#DejaVuSans-65"/>
     </g>
    </g>
   </g>
  </g>
  <g id="axes_3">
   <g id="patch_13">
    <path d="M 57.6 307.584 
L 414.72 307.584 
L 414.72 229.315765 
L 57.6 229.315765 
z
" style="fill:#ffffff;"/>
   </g>
   <g id="matplotlib.axis_5">
    <g id="xtick_13">
     <g id="line2d_27">
      <g>
       <use style="stroke:#000000;stroke-width:0.8;" x="73.832727" xlink:href="#mcb1d337200" y="307.584"/>
      </g>
     </g>
     <g id="text_23">
      <!-- 0 -->
      <g transform="translate(70.651477 322.182437)scale(0.1 -0.1)">
       <use xlink:href="#DejaVuSans-30"/>
      </g>
     </g>
    </g>
    <g id="xtick_14">
     <g id="line2d_28">
      <g>
       <use style="stroke:#000000;stroke-width:0.8;" x="138.763636" xlink:href="#mcb1d337200" y="307.584"/>
      </g>
     </g>
     <g id="text_24">
      <!-- 10 -->
      <g transform="translate(132.401136 322.182437)scale(0.1 -0.1)">
       <use xlink:href="#DejaVuSans-31"/>
       <use x="63.623047" xlink:href="#DejaVuSans-30"/>
      </g>
     </g>
    </g>
    <g id="xtick_15">
     <g id="line2d_29">
      <g>
       <use style="stroke:#000000;stroke-width:0.8;" x="203.694545" xlink:href="#mcb1d337200" y="307.584"/>
      </g>
     </g>
     <g id="text_25">
      <!-- 20 -->
      <g transform="translate(197.332045 322.182437)scale(0.1 -0.1)">
       <use xlink:href="#DejaVuSans-32"/>
       <use x="63.623047" xlink:href="#DejaVuSans-30"/>
      </g>
     </g>
    </g>
    <g id="xtick_16">
     <g id="line2d_30">
      <g>
       <use style="stroke:#000000;stroke-width:0.8;" x="268.625455" xlink:href="#mcb1d337200" y="307.584"/>
      </g>
     </g>
     <g id="text_26">
      <!-- 30 -->
      <g transform="translate(262.262955 322.182437)scale(0.1 -0.1)">
       <use xlink:href="#DejaVuSans-33"/>
       <use x="63.623047" xlink:href="#DejaVuSans-30"/>
      </g>
     </g>
    </g>
    <g id="xtick_17">
     <g id="line2d_31">
      <g>
       <use style="stroke:#000000;stroke-width:0.8;" x="333.556364" xlink:href="#mcb1d337200" y="307.584"/>
      </g>
     </g>
     <g id="text_27">
      <!-- 40 -->
      <g transform="translate(327.193864 322.182437)scale(0.1 -0.1)">
       <use xlink:href="#DejaVuSans-34"/>
       <use x="63.623047" xlink:href="#DejaVuSans-30"/>
      </g>
     </g>
    </g>
    <g id="xtick_18">
     <g id="line2d_32">
      <g>
       <use style="stroke:#000000;stroke-width:0.8;" x="398.487273" xlink:href="#mcb1d337200" y="307.584"/>
      </g>
     </g>
     <g id="text_28">
      <!-- 50 -->
      <g transform="translate(392.124773 322.182437)scale(0.1 -0.1)">
       <use xlink:href="#DejaVuSans-35"/>
       <use x="63.623047" xlink:href="#DejaVuSans-30"/>
      </g>
     </g>
    </g>
    <g id="text_29">
     <!-- Time -->
     <defs>
      <path d="M 9.421875 54.6875 
L 18.40625 54.6875 
L 18.40625 0 
L 9.421875 0 
z
M 9.421875 75.984375 
L 18.40625 75.984375 
L 18.40625 64.59375 
L 9.421875 64.59375 
z
" id="DejaVuSans-69"/>
      <path d="M 52 44.1875 
Q 55.375 50.25 60.0625 53.125 
Q 64.75 56 71.09375 56 
Q 79.640625 56 84.28125 50.015625 
Q 88.921875 44.046875 88.921875 33.015625 
L 88.921875 0 
L 79.890625 0 
L 79.890625 32.71875 
Q 79.890625 40.578125 77.09375 44.375 
Q 74.3125 48.1875 68.609375 48.1875 
Q 61.625 48.1875 57.5625 43.546875 
Q 53.515625 38.921875 53.515625 30.90625 
L 53.515625 0 
L 44.484375 0 
L 44.484375 32.71875 
Q 44.484375 40.625 41.703125 44.40625 
Q 38.921875 48.1875 33.109375 48.1875 
Q 26.21875 48.1875 22.15625 43.53125 
Q 18.109375 38.875 18.109375 30.90625 
L 18.109375 0 
L 9.078125 0 
L 9.078125 54.6875 
L 18.109375 54.6875 
L 18.109375 46.1875 
Q 21.1875 51.21875 25.484375 53.609375 
Q 29.78125 56 35.6875 56 
Q 41.65625 56 45.828125 52.96875 
Q 50 49.953125 52 44.1875 
z
" id="DejaVuSans-6d"/>
     </defs>
     <g transform="translate(223.7725 335.860562)scale(0.1 -0.1)">
      <use xlink:href="#DejaVuSans-54"/>
      <use x="61.037109" xlink:href="#DejaVuSans-69"/>
      <use x="88.820312" xlink:href="#DejaVuSans-6d"/>
      <use x="186.232422" xlink:href="#DejaVuSans-65"/>
     </g>
    </g>
   </g>
   <g id="matplotlib.axis_6">
    <g id="ytick_7">
     <g id="line2d_33">
      <g>
       <use style="stroke:#000000;stroke-width:0.8;" x="57.6" xlink:href="#m3cf692730a" y="270.843865"/>
      </g>
     </g>
     <g id="text_30">
      <!-- 0 -->
      <g transform="translate(44.2375 274.643084)scale(0.1 -0.1)">
       <use xlink:href="#DejaVuSans-30"/>
      </g>
     </g>
    </g>
    <g id="ytick_8">
     <g id="line2d_34">
      <g>
       <use style="stroke:#000000;stroke-width:0.8;" x="57.6" xlink:href="#m3cf692730a" y="232.873412"/>
      </g>
     </g>
     <g id="text_31">
      <!-- 10 -->
      <g transform="translate(37.875 236.672631)scale(0.1 -0.1)">
       <use xlink:href="#DejaVuSans-31"/>
       <use x="63.623047" xlink:href="#DejaVuSans-30"/>
      </g>
     </g>
    </g>
    <g id="text_32">
     <!-- Control Input -->
     <defs>
      <path d="M 64.40625 67.28125 
L 64.40625 56.890625 
Q 59.421875 61.53125 53.78125 63.8125 
Q 48.140625 66.109375 41.796875 66.109375 
Q 29.296875 66.109375 22.65625 58.46875 
Q 16.015625 50.828125 16.015625 36.375 
Q 16.015625 21.96875 22.65625 14.328125 
Q 29.296875 6.6875 41.796875 6.6875 
Q 48.140625 6.6875 53.78125 8.984375 
Q 59.421875 11.28125 64.40625 15.921875 
L 64.40625 5.609375 
Q 59.234375 2.09375 53.4375 0.328125 
Q 47.65625 -1.421875 41.21875 -1.421875 
Q 24.65625 -1.421875 15.125 8.703125 
Q 5.609375 18.84375 5.609375 36.375 
Q 5.609375 53.953125 15.125 64.078125 
Q 24.65625 74.21875 41.21875 74.21875 
Q 47.75 74.21875 53.53125 72.484375 
Q 59.328125 70.75 64.40625 67.28125 
z
" id="DejaVuSans-43"/>
      <path d="M 30.609375 48.390625 
Q 23.390625 48.390625 19.1875 42.75 
Q 14.984375 37.109375 14.984375 27.296875 
Q 14.984375 17.484375 19.15625 11.84375 
Q 23.34375 6.203125 30.609375 6.203125 
Q 37.796875 6.203125 41.984375 11.859375 
Q 46.1875 17.53125 46.1875 27.296875 
Q 46.1875 37.015625 41.984375 42.703125 
Q 37.796875 48.390625 30.609375 48.390625 
z
M 30.609375 56 
Q 42.328125 56 49.015625 48.375 
Q 55.71875 40.765625 55.71875 27.296875 
Q 55.71875 13.875 49.015625 6.21875 
Q 42.328125 -1.421875 30.609375 -1.421875 
Q 18.84375 -1.421875 12.171875 6.21875 
Q 5.515625 13.875 5.515625 27.296875 
Q 5.515625 40.765625 12.171875 48.375 
Q 18.84375 56 30.609375 56 
z
" id="DejaVuSans-6f"/>
      <path d="M 54.890625 33.015625 
L 54.890625 0 
L 45.90625 0 
L 45.90625 32.71875 
Q 45.90625 40.484375 42.875 44.328125 
Q 39.84375 48.1875 33.796875 48.1875 
Q 26.515625 48.1875 22.3125 43.546875 
Q 18.109375 38.921875 18.109375 30.90625 
L 18.109375 0 
L 9.078125 0 
L 9.078125 54.6875 
L 18.109375 54.6875 
L 18.109375 46.1875 
Q 21.34375 51.125 25.703125 53.5625 
Q 30.078125 56 35.796875 56 
Q 45.21875 56 50.046875 50.171875 
Q 54.890625 44.34375 54.890625 33.015625 
z
" id="DejaVuSans-6e"/>
      <path d="M 9.421875 75.984375 
L 18.40625 75.984375 
L 18.40625 0 
L 9.421875 0 
z
" id="DejaVuSans-6c"/>
      <path d="M 9.8125 72.90625 
L 19.671875 72.90625 
L 19.671875 0 
L 9.8125 0 
z
" id="DejaVuSans-49"/>
      <path d="M 18.109375 8.203125 
L 18.109375 -20.796875 
L 9.078125 -20.796875 
L 9.078125 54.6875 
L 18.109375 54.6875 
L 18.109375 46.390625 
Q 20.953125 51.265625 25.265625 53.625 
Q 29.59375 56 35.59375 56 
Q 45.5625 56 51.78125 48.09375 
Q 58.015625 40.1875 58.015625 27.296875 
Q 58.015625 14.40625 51.78125 6.484375 
Q 45.5625 -1.421875 35.59375 -1.421875 
Q 29.59375 -1.421875 25.265625 0.953125 
Q 20.953125 3.328125 18.109375 8.203125 
z
M 48.6875 27.296875 
Q 48.6875 37.203125 44.609375 42.84375 
Q 40.53125 48.484375 33.40625 48.484375 
Q 26.265625 48.484375 22.1875 42.84375 
Q 18.109375 37.203125 18.109375 27.296875 
Q 18.109375 17.390625 22.1875 11.75 
Q 26.265625 6.109375 33.40625 6.109375 
Q 40.53125 6.109375 44.609375 11.75 
Q 48.6875 17.390625 48.6875 27.296875 
z
" id="DejaVuSans-70"/>
     </defs>
     <g transform="translate(31.795312 301.167851)rotate(-90)scale(0.1 -0.1)">
      <use xlink:href="#DejaVuSans-43"/>
      <use x="69.824219" xlink:href="#DejaVuSans-6f"/>
      <use x="131.005859" xlink:href="#DejaVuSans-6e"/>
      <use x="194.384766" xlink:href="#DejaVuSans-74"/>
      <use x="233.59375" xlink:href="#DejaVuSans-72"/>
      <use x="274.675781" xlink:href="#DejaVuSans-6f"/>
      <use x="335.857422" xlink:href="#DejaVuSans-6c"/>
      <use x="363.640625" xlink:href="#DejaVuSans-20"/>
      <use x="395.427734" xlink:href="#DejaVuSans-49"/>
      <use x="424.919922" xlink:href="#DejaVuSans-6e"/>
      <use x="488.298828" xlink:href="#DejaVuSans-70"/>
      <use x="551.775391" xlink:href="#DejaVuSans-75"/>
      <use x="615.154297" xlink:href="#DejaVuSans-74"/>
     </g>
    </g>
   </g>
   <g id="line2d_35">
    <path clip-path="url(#p70b4698551)" d="M 73.832727 270.843865 
L 80.325818 270.843865 
L 80.442694 232.873412 
L 80.650473 232.873412 
L 80.767348 270.843865 
L 86.818909 270.843865 
L 86.935785 232.873412 
L 87.143564 232.873412 
L 87.260439 270.843865 
L 93.312 270.843865 
L 93.428876 232.873412 
L 93.636655 232.873412 
L 93.75353 270.843865 
L 99.805091 270.843865 
L 99.921967 232.873412 
L 100.129745 232.873412 
L 100.246621 270.843865 
L 106.298182 270.843865 
L 106.415057 232.873412 
L 106.622836 232.873412 
L 106.739712 270.843865 
L 112.791273 270.843865 
L 112.908148 232.873412 
L 113.115927 232.873412 
L 113.232803 270.843865 
L 119.284364 270.843865 
L 119.401239 232.873412 
L 119.609018 232.873412 
L 119.725894 270.843865 
L 125.777455 270.843865 
L 125.89433 232.873412 
L 126.102109 232.873412 
L 126.218985 270.843865 
L 132.270545 270.843865 
L 132.387421 232.873412 
L 132.5952 232.873412 
L 132.712076 270.843865 
L 138.763636 270.843865 
L 138.880512 232.873412 
L 139.088291 232.873412 
L 139.205167 270.843865 
L 145.256727 270.843865 
L 145.373603 232.873412 
L 145.581382 232.873412 
L 145.698257 270.843865 
L 151.749818 270.843865 
L 151.866694 232.873412 
L 152.074473 232.873412 
L 152.191348 270.843865 
L 158.242909 270.843865 
L 158.359785 232.873412 
L 158.567564 232.873412 
L 158.684439 270.843865 
L 164.736 270.843865 
L 164.852876 232.873412 
L 165.060655 232.873412 
L 165.17753 270.843865 
L 171.229091 270.843865 
L 171.345967 232.873412 
L 171.553745 232.873412 
L 171.670621 270.843865 
L 177.722182 270.843865 
L 177.839057 232.873412 
L 178.046836 232.873412 
L 178.163712 270.843865 
L 184.215273 270.843865 
L 184.332148 232.873412 
L 184.539927 232.873412 
L 184.656803 270.843865 
L 190.708364 270.843865 
L 190.825239 232.873412 
L 191.033018 232.873412 
L 191.149894 270.843865 
L 197.201455 270.843865 
L 197.31833 232.873412 
L 197.526109 232.873412 
L 197.642985 270.843865 
L 203.694545 270.843865 
L 203.811421 232.873412 
L 204.0192 232.873412 
L 204.136076 270.843865 
L 210.187636 270.843865 
L 210.304512 232.873412 
L 210.512291 232.873412 
L 210.629167 270.843865 
L 216.680727 270.843865 
L 216.797603 232.873412 
L 217.005382 232.873412 
L 217.122257 270.843865 
L 223.173818 270.843865 
L 223.290694 232.873412 
L 223.498473 232.873412 
L 223.615348 270.843865 
L 229.666909 270.843865 
L 229.783785 232.873412 
L 229.991564 232.873412 
L 230.108439 270.843865 
L 236.16 270.843865 
L 236.276876 232.873412 
L 236.484655 232.873412 
L 236.60153 270.843865 
L 242.653091 270.843865 
L 242.769967 232.873412 
L 242.977745 232.873412 
L 243.094621 270.843865 
L 249.146182 270.843865 
L 249.263057 232.873412 
L 249.470836 232.873412 
L 249.587712 270.843865 
L 255.639273 270.843865 
L 255.756148 232.873412 
L 255.963927 232.873412 
L 256.080803 270.843865 
L 262.132364 270.843865 
L 262.249239 232.873412 
L 262.457018 232.873412 
L 262.573894 270.843865 
L 275.118545 270.843865 
L 275.235421 256.832732 
L 275.4432 256.832732 
L 275.560076 270.843865 
L 281.611636 270.843865 
L 281.728512 304.026353 
L 281.936291 304.026353 
L 282.053167 270.843865 
L 288.104727 270.843865 
L 288.221603 290.912608 
L 288.429382 290.912608 
L 288.546257 270.843865 
L 294.597818 270.843865 
L 294.714694 301.936994 
L 294.922473 301.936994 
L 295.039348 270.843865 
L 301.090909 270.843865 
L 301.207785 246.433176 
L 301.415564 246.433176 
L 301.532439 270.843865 
L 307.584 270.843865 
L 307.700876 291.510338 
L 307.908655 291.510338 
L 308.02553 270.843865 
L 314.077091 270.843865 
L 314.193967 289.851829 
L 314.401745 289.851829 
L 314.518621 270.843865 
L 320.570182 270.843865 
L 320.687057 303.287358 
L 320.894836 303.287358 
L 321.011712 270.843865 
L 327.063273 270.843865 
L 327.180148 266.658335 
L 327.387927 266.658335 
L 327.504803 270.843865 
L 333.556364 270.843865 
L 333.673239 278.734503 
L 333.881018 278.734503 
L 333.997894 270.843865 
L 340.049455 270.843865 
L 340.16633 296.762636 
L 340.374109 296.762636 
L 340.490985 270.843865 
L 346.542545 270.843865 
L 346.659421 253.455135 
L 346.8672 253.455135 
L 346.984076 270.843865 
L 353.035636 270.843865 
L 353.152512 283.828909 
L 353.360291 283.828909 
L 353.477167 270.843865 
L 359.528727 270.843865 
L 359.645603 284.185078 
L 359.853382 284.185078 
L 359.970257 270.843865 
L 366.021818 270.843865 
L 366.138694 294.551896 
L 366.346473 294.551896 
L 366.463348 270.843865 
L 372.514909 270.843865 
L 372.631785 278.612071 
L 372.839564 278.612071 
L 372.956439 270.843865 
L 379.008 270.843865 
L 379.124876 234.375268 
L 379.332655 234.375268 
L 379.44953 270.843865 
L 385.501091 270.843865 
L 385.617967 272.249827 
L 385.825745 272.249827 
L 385.942621 270.843865 
L 391.994182 270.843865 
L 392.111057 244.367994 
L 392.318836 244.367994 
L 392.435712 270.843865 
L 398.487273 270.843865 
L 398.487273 270.843865 
" style="fill:none;stroke:#000000;stroke-linecap:square;stroke-width:1.5;"/>
   </g>
   <g id="patch_14">
    <path d="M 57.6 307.584 
L 57.6 229.315765 
" style="fill:none;stroke:#000000;stroke-linecap:square;stroke-linejoin:miter;stroke-width:0.8;"/>
   </g>
   <g id="patch_15">
    <path d="M 414.72 307.584 
L 414.72 229.315765 
" style="fill:none;stroke:#000000;stroke-linecap:square;stroke-linejoin:miter;stroke-width:0.8;"/>
   </g>
   <g id="patch_16">
    <path d="M 57.6 307.584 
L 414.72 307.584 
" style="fill:none;stroke:#000000;stroke-linecap:square;stroke-linejoin:miter;stroke-width:0.8;"/>
   </g>
   <g id="patch_17">
    <path d="M 57.6 229.315765 
L 414.72 229.315765 
" style="fill:none;stroke:#000000;stroke-linecap:square;stroke-linejoin:miter;stroke-width:0.8;"/>
   </g>
   <g id="legend_2">
    <g id="patch_18">
     <path d="M 349.82625 251.99389 
L 407.72 251.99389 
Q 409.72 251.99389 409.72 249.99389 
L 409.72 236.315765 
Q 409.72 234.315765 407.72 234.315765 
L 349.82625 234.315765 
Q 347.82625 234.315765 347.82625 236.315765 
L 347.82625 249.99389 
Q 347.82625 251.99389 349.82625 251.99389 
z
" style="fill:#ffffff;opacity:0.8;stroke:#cccccc;stroke-linejoin:miter;"/>
    </g>
    <g id="line2d_36">
     <path d="M 351.82625 242.414202 
L 371.82625 242.414202 
" style="fill:none;stroke:#000000;stroke-linecap:square;stroke-width:1.5;"/>
    </g>
    <g id="line2d_37"/>
    <g id="text_33">
     <!-- Input -->
     <g transform="translate(379.82625 245.914202)scale(0.1 -0.1)">
      <use xlink:href="#DejaVuSans-49"/>
      <use x="29.492188" xlink:href="#DejaVuSans-6e"/>
      <use x="92.871094" xlink:href="#DejaVuSans-70"/>
      <use x="156.347656" xlink:href="#DejaVuSans-75"/>
      <use x="219.726562" xlink:href="#DejaVuSans-74"/>
     </g>
    </g>
   </g>
  </g>
 </g>
 <defs>
  <clipPath id="p1ae7b906f0">
   <rect height="78.268235" width="357.12" x="57.6" y="41.472"/>
  </clipPath>
  <clipPath id="p98da58e401">
   <rect height="78.268235" width="357.12" x="57.6" y="135.393882"/>
  </clipPath>
  <clipPath id="p70b4698551">
   <rect height="78.268235" width="357.12" x="57.6" y="229.315765"/>
  </clipPath>
 </defs>
</svg>
