<?xml version="1.0" encoding="utf-8" standalone="no"?>
<!DOCTYPE svg PUBLIC "-//W3C//DTD SVG 1.1//EN"
  "http://www.w3.org/Graphics/SVG/1.1/DTD/svg11.dtd">
<!-- Created with matplotlib (http://matplotlib.org/) -->
<svg height="345.6pt" version="1.1" viewBox="0 0 460.8 345.6" width="460.8pt" xmlns="http://www.w3.org/2000/svg" xmlns:xlink="http://www.w3.org/1999/xlink">
 <defs>
  <style type="text/css">
*{stroke-linecap:butt;stroke-linejoin:round;}
  </style>
 </defs>
 <g id="figure_1">
  <g id="patch_1">
   <path d="M 0 345.6 
L 460.8 345.6 
L 460.8 0 
L 0 0 
z
" style="fill:#ffffff;"/>
  </g>
  <g id="axes_1">
   <g id="patch_2">
    <path d="M 57.6 307.584 
L 414.72 307.584 
L 414.72 41.472 
L 57.6 41.472 
z
" style="fill:#ffffff;"/>
   </g>
   <g id="matplotlib.axis_1">
    <g id="xtick_1">
     <g id="line2d_1">
      <defs>
       <path d="M 0 0 
L 0 3.5 
" id="m918036ddc1" style="stroke:#000000;stroke-width:0.8;"/>
      </defs>
      <g>
       <use style="stroke:#000000;stroke-width:0.8;" x="73.832727" xlink:href="#m918036ddc1" y="307.584"/>
      </g>
     </g>
     <g id="text_1">
      <!-- 0 -->
      <defs>
       <path d="M 31.78125 66.40625 
Q 24.171875 66.40625 20.328125 58.90625 
Q 16.5 51.421875 16.5 36.375 
Q 16.5 21.390625 20.328125 13.890625 
Q 24.171875 6.390625 31.78125 6.390625 
Q 39.453125 6.390625 43.28125 13.890625 
Q 47.125 21.390625 47.125 36.375 
Q 47.125 51.421875 43.28125 58.90625 
Q 39.453125 66.40625 31.78125 66.40625 
z
M 31.78125 74.21875 
Q 44.046875 74.21875 50.515625 64.515625 
Q 56.984375 54.828125 56.984375 36.375 
Q 56.984375 17.96875 50.515625 8.265625 
Q 44.046875 -1.421875 31.78125 -1.421875 
Q 19.53125 -1.421875 13.0625 8.265625 
Q 6.59375 17.96875 6.59375 36.375 
Q 6.59375 54.828125 13.0625 64.515625 
Q 19.53125 74.21875 31.78125 74.21875 
z
" id="DejaVuSans-30"/>
      </defs>
      <g transform="translate(70.651477 322.182437)scale(0.1 -0.1)">
       <use xlink:href="#DejaVuSans-30"/>
      </g>
     </g>
    </g>
    <g id="xtick_2">
     <g id="line2d_2">
      <g>
       <use style="stroke:#000000;stroke-width:0.8;" x="138.763636" xlink:href="#m918036ddc1" y="307.584"/>
      </g>
     </g>
     <g id="text_2">
      <!-- 10 -->
      <defs>
       <path d="M 12.40625 8.296875 
L 28.515625 8.296875 
L 28.515625 63.921875 
L 10.984375 60.40625 
L 10.984375 69.390625 
L 28.421875 72.90625 
L 38.28125 72.90625 
L 38.28125 8.296875 
L 54.390625 8.296875 
L 54.390625 0 
L 12.40625 0 
z
" id="DejaVuSans-31"/>
      </defs>
      <g transform="translate(132.401136 322.182437)scale(0.1 -0.1)">
       <use xlink:href="#DejaVuSans-31"/>
       <use x="63.623047" xlink:href="#DejaVuSans-30"/>
      </g>
     </g>
    </g>
    <g id="xtick_3">
     <g id="line2d_3">
      <g>
       <use style="stroke:#000000;stroke-width:0.8;" x="203.694545" xlink:href="#m918036ddc1" y="307.584"/>
      </g>
     </g>
     <g id="text_3">
      <!-- 20 -->
      <defs>
       <path d="M 19.1875 8.296875 
L 53.609375 8.296875 
L 53.609375 0 
L 7.328125 0 
L 7.328125 8.296875 
Q 12.9375 14.109375 22.625 23.890625 
Q 32.328125 33.6875 34.8125 36.53125 
Q 39.546875 41.84375 41.421875 45.53125 
Q 43.3125 49.21875 43.3125 52.78125 
Q 43.3125 58.59375 39.234375 62.25 
Q 35.15625 65.921875 28.609375 65.921875 
Q 23.96875 65.921875 18.8125 64.3125 
Q 13.671875 62.703125 7.8125 59.421875 
L 7.8125 69.390625 
Q 13.765625 71.78125 18.9375 73 
Q 24.125 74.21875 28.421875 74.21875 
Q 39.75 74.21875 46.484375 68.546875 
Q 53.21875 62.890625 53.21875 53.421875 
Q 53.21875 48.921875 51.53125 44.890625 
Q 49.859375 40.875 45.40625 35.40625 
Q 44.1875 33.984375 37.640625 27.21875 
Q 31.109375 20.453125 19.1875 8.296875 
z
" id="DejaVuSans-32"/>
      </defs>
      <g transform="translate(197.332045 322.182437)scale(0.1 -0.1)">
       <use xlink:href="#DejaVuSans-32"/>
       <use x="63.623047" xlink:href="#DejaVuSans-30"/>
      </g>
     </g>
    </g>
    <g id="xtick_4">
     <g id="line2d_4">
      <g>
       <use style="stroke:#000000;stroke-width:0.8;" x="268.625455" xlink:href="#m918036ddc1" y="307.584"/>
      </g>
     </g>
     <g id="text_4">
      <!-- 30 -->
      <defs>
       <path d="M 40.578125 39.3125 
Q 47.65625 37.796875 51.625 33 
Q 55.609375 28.21875 55.609375 21.1875 
Q 55.609375 10.40625 48.1875 4.484375 
Q 40.765625 -1.421875 27.09375 -1.421875 
Q 22.515625 -1.421875 17.65625 -0.515625 
Q 12.796875 0.390625 7.625 2.203125 
L 7.625 11.71875 
Q 11.71875 9.328125 16.59375 8.109375 
Q 21.484375 6.890625 26.8125 6.890625 
Q 36.078125 6.890625 40.9375 10.546875 
Q 45.796875 14.203125 45.796875 21.1875 
Q 45.796875 27.640625 41.28125 31.265625 
Q 36.765625 34.90625 28.71875 34.90625 
L 20.21875 34.90625 
L 20.21875 43.015625 
L 29.109375 43.015625 
Q 36.375 43.015625 40.234375 45.921875 
Q 44.09375 48.828125 44.09375 54.296875 
Q 44.09375 59.90625 40.109375 62.90625 
Q 36.140625 65.921875 28.71875 65.921875 
Q 24.65625 65.921875 20.015625 65.03125 
Q 15.375 64.15625 9.8125 62.3125 
L 9.8125 71.09375 
Q 15.4375 72.65625 20.34375 73.4375 
Q 25.25 74.21875 29.59375 74.21875 
Q 40.828125 74.21875 47.359375 69.109375 
Q 53.90625 64.015625 53.90625 55.328125 
Q 53.90625 49.265625 50.4375 45.09375 
Q 46.96875 40.921875 40.578125 39.3125 
z
" id="DejaVuSans-33"/>
      </defs>
      <g transform="translate(262.262955 322.182437)scale(0.1 -0.1)">
       <use xlink:href="#DejaVuSans-33"/>
       <use x="63.623047" xlink:href="#DejaVuSans-30"/>
      </g>
     </g>
    </g>
    <g id="xtick_5">
     <g id="line2d_5">
      <g>
       <use style="stroke:#000000;stroke-width:0.8;" x="333.556364" xlink:href="#m918036ddc1" y="307.584"/>
      </g>
     </g>
     <g id="text_5">
      <!-- 40 -->
      <defs>
       <path d="M 37.796875 64.3125 
L 12.890625 25.390625 
L 37.796875 25.390625 
z
M 35.203125 72.90625 
L 47.609375 72.90625 
L 47.609375 25.390625 
L 58.015625 25.390625 
L 58.015625 17.1875 
L 47.609375 17.1875 
L 47.609375 0 
L 37.796875 0 
L 37.796875 17.1875 
L 4.890625 17.1875 
L 4.890625 26.703125 
z
" id="DejaVuSans-34"/>
      </defs>
      <g transform="translate(327.193864 322.182437)scale(0.1 -0.1)">
       <use xlink:href="#DejaVuSans-34"/>
       <use x="63.623047" xlink:href="#DejaVuSans-30"/>
      </g>
     </g>
    </g>
    <g id="xtick_6">
     <g id="line2d_6">
      <g>
       <use style="stroke:#000000;stroke-width:0.8;" x="398.487273" xlink:href="#m918036ddc1" y="307.584"/>
      </g>
     </g>
     <g id="text_6">
      <!-- 50 -->
      <defs>
       <path d="M 10.796875 72.90625 
L 49.515625 72.90625 
L 49.515625 64.59375 
L 19.828125 64.59375 
L 19.828125 46.734375 
Q 21.96875 47.46875 24.109375 47.828125 
Q 26.265625 48.1875 28.421875 48.1875 
Q 40.625 48.1875 47.75 41.5 
Q 54.890625 34.8125 54.890625 23.390625 
Q 54.890625 11.625 47.5625 5.09375 
Q 40.234375 -1.421875 26.90625 -1.421875 
Q 22.3125 -1.421875 17.546875 -0.640625 
Q 12.796875 0.140625 7.71875 1.703125 
L 7.71875 11.625 
Q 12.109375 9.234375 16.796875 8.0625 
Q 21.484375 6.890625 26.703125 6.890625 
Q 35.15625 6.890625 40.078125 11.328125 
Q 45.015625 15.765625 45.015625 23.390625 
Q 45.015625 31 40.078125 35.4375 
Q 35.15625 39.890625 26.703125 39.890625 
Q 22.75 39.890625 18.8125 39.015625 
Q 14.890625 38.140625 10.796875 36.28125 
z
" id="DejaVuSans-35"/>
      </defs>
      <g transform="translate(392.124773 322.182437)scale(0.1 -0.1)">
       <use xlink:href="#DejaVuSans-35"/>
       <use x="63.623047" xlink:href="#DejaVuSans-30"/>
      </g>
     </g>
    </g>
    <g id="text_7">
     <!-- Time -->
     <defs>
      <path d="M -0.296875 72.90625 
L 61.375 72.90625 
L 61.375 64.59375 
L 35.5 64.59375 
L 35.5 0 
L 25.59375 0 
L 25.59375 64.59375 
L -0.296875 64.59375 
z
" id="DejaVuSans-54"/>
      <path d="M 9.421875 54.6875 
L 18.40625 54.6875 
L 18.40625 0 
L 9.421875 0 
z
M 9.421875 75.984375 
L 18.40625 75.984375 
L 18.40625 64.59375 
L 9.421875 64.59375 
z
" id="DejaVuSans-69"/>
      <path d="M 52 44.1875 
Q 55.375 50.25 60.0625 53.125 
Q 64.75 56 71.09375 56 
Q 79.640625 56 84.28125 50.015625 
Q 88.921875 44.046875 88.921875 33.015625 
L 88.921875 0 
L 79.890625 0 
L 79.890625 32.71875 
Q 79.890625 40.578125 77.09375 44.375 
Q 74.3125 48.1875 68.609375 48.1875 
Q 61.625 48.1875 57.5625 43.546875 
Q 53.515625 38.921875 53.515625 30.90625 
L 53.515625 0 
L 44.484375 0 
L 44.484375 32.71875 
Q 44.484375 40.625 41.703125 44.40625 
Q 38.921875 48.1875 33.109375 48.1875 
Q 26.21875 48.1875 22.15625 43.53125 
Q 18.109375 38.875 18.109375 30.90625 
L 18.109375 0 
L 9.078125 0 
L 9.078125 54.6875 
L 18.109375 54.6875 
L 18.109375 46.1875 
Q 21.1875 51.21875 25.484375 53.609375 
Q 29.78125 56 35.6875 56 
Q 41.65625 56 45.828125 52.96875 
Q 50 49.953125 52 44.1875 
z
" id="DejaVuSans-6d"/>
      <path d="M 56.203125 29.59375 
L 56.203125 25.203125 
L 14.890625 25.203125 
Q 15.484375 15.921875 20.484375 11.0625 
Q 25.484375 6.203125 34.421875 6.203125 
Q 39.59375 6.203125 44.453125 7.46875 
Q 49.3125 8.734375 54.109375 11.28125 
L 54.109375 2.78125 
Q 49.265625 0.734375 44.1875 -0.34375 
Q 39.109375 -1.421875 33.890625 -1.421875 
Q 20.796875 -1.421875 13.15625 6.1875 
Q 5.515625 13.8125 5.515625 26.8125 
Q 5.515625 40.234375 12.765625 48.109375 
Q 20.015625 56 32.328125 56 
Q 43.359375 56 49.78125 48.890625 
Q 56.203125 41.796875 56.203125 29.59375 
z
M 47.21875 32.234375 
Q 47.125 39.59375 43.09375 43.984375 
Q 39.0625 48.390625 32.421875 48.390625 
Q 24.90625 48.390625 20.390625 44.140625 
Q 15.875 39.890625 15.1875 32.171875 
z
" id="DejaVuSans-65"/>
     </defs>
     <g transform="translate(223.7725 335.860562)scale(0.1 -0.1)">
      <use xlink:href="#DejaVuSans-54"/>
      <use x="61.037109" xlink:href="#DejaVuSans-69"/>
      <use x="88.820312" xlink:href="#DejaVuSans-6d"/>
      <use x="186.232422" xlink:href="#DejaVuSans-65"/>
     </g>
    </g>
   </g>
   <g id="matplotlib.axis_2">
    <g id="ytick_1">
     <g id="line2d_7">
      <defs>
       <path d="M 0 0 
L -3.5 0 
" id="m63ebb58f36" style="stroke:#000000;stroke-width:0.8;"/>
      </defs>
      <g>
       <use style="stroke:#000000;stroke-width:0.8;" x="57.6" xlink:href="#m63ebb58f36" y="295.488"/>
      </g>
     </g>
     <g id="text_8">
      <!-- 0.0 -->
      <defs>
       <path d="M 10.6875 12.40625 
L 21 12.40625 
L 21 0 
L 10.6875 0 
z
" id="DejaVuSans-2e"/>
      </defs>
      <g transform="translate(34.696875 299.287219)scale(0.1 -0.1)">
       <use xlink:href="#DejaVuSans-30"/>
       <use x="63.623047" xlink:href="#DejaVuSans-2e"/>
       <use x="95.410156" xlink:href="#DejaVuSans-30"/>
      </g>
     </g>
    </g>
    <g id="ytick_2">
     <g id="line2d_8">
      <g>
       <use style="stroke:#000000;stroke-width:0.8;" x="57.6" xlink:href="#m63ebb58f36" y="265.246063"/>
      </g>
     </g>
     <g id="text_9">
      <!-- 2.5 -->
      <g transform="translate(34.696875 269.045282)scale(0.1 -0.1)">
       <use xlink:href="#DejaVuSans-32"/>
       <use x="63.623047" xlink:href="#DejaVuSans-2e"/>
       <use x="95.410156" xlink:href="#DejaVuSans-35"/>
      </g>
     </g>
    </g>
    <g id="ytick_3">
     <g id="line2d_9">
      <g>
       <use style="stroke:#000000;stroke-width:0.8;" x="57.6" xlink:href="#m63ebb58f36" y="235.004126"/>
      </g>
     </g>
     <g id="text_10">
      <!-- 5.0 -->
      <g transform="translate(34.696875 238.803345)scale(0.1 -0.1)">
       <use xlink:href="#DejaVuSans-35"/>
       <use x="63.623047" xlink:href="#DejaVuSans-2e"/>
       <use x="95.410156" xlink:href="#DejaVuSans-30"/>
      </g>
     </g>
    </g>
    <g id="ytick_4">
     <g id="line2d_10">
      <g>
       <use style="stroke:#000000;stroke-width:0.8;" x="57.6" xlink:href="#m63ebb58f36" y="204.762189"/>
      </g>
     </g>
     <g id="text_11">
      <!-- 7.5 -->
      <defs>
       <path d="M 8.203125 72.90625 
L 55.078125 72.90625 
L 55.078125 68.703125 
L 28.609375 0 
L 18.3125 0 
L 43.21875 64.59375 
L 8.203125 64.59375 
z
" id="DejaVuSans-37"/>
      </defs>
      <g transform="translate(34.696875 208.561408)scale(0.1 -0.1)">
       <use xlink:href="#DejaVuSans-37"/>
       <use x="63.623047" xlink:href="#DejaVuSans-2e"/>
       <use x="95.410156" xlink:href="#DejaVuSans-35"/>
      </g>
     </g>
    </g>
    <g id="ytick_5">
     <g id="line2d_11">
      <g>
       <use style="stroke:#000000;stroke-width:0.8;" x="57.6" xlink:href="#m63ebb58f36" y="174.520252"/>
      </g>
     </g>
     <g id="text_12">
      <!-- 10.0 -->
      <g transform="translate(28.334375 178.319471)scale(0.1 -0.1)">
       <use xlink:href="#DejaVuSans-31"/>
       <use x="63.623047" xlink:href="#DejaVuSans-30"/>
       <use x="127.246094" xlink:href="#DejaVuSans-2e"/>
       <use x="159.033203" xlink:href="#DejaVuSans-30"/>
      </g>
     </g>
    </g>
    <g id="ytick_6">
     <g id="line2d_12">
      <g>
       <use style="stroke:#000000;stroke-width:0.8;" x="57.6" xlink:href="#m63ebb58f36" y="144.278315"/>
      </g>
     </g>
     <g id="text_13">
      <!-- 12.5 -->
      <g transform="translate(28.334375 148.077533)scale(0.1 -0.1)">
       <use xlink:href="#DejaVuSans-31"/>
       <use x="63.623047" xlink:href="#DejaVuSans-32"/>
       <use x="127.246094" xlink:href="#DejaVuSans-2e"/>
       <use x="159.033203" xlink:href="#DejaVuSans-35"/>
      </g>
     </g>
    </g>
    <g id="ytick_7">
     <g id="line2d_13">
      <g>
       <use style="stroke:#000000;stroke-width:0.8;" x="57.6" xlink:href="#m63ebb58f36" y="114.036378"/>
      </g>
     </g>
     <g id="text_14">
      <!-- 15.0 -->
      <g transform="translate(28.334375 117.835596)scale(0.1 -0.1)">
       <use xlink:href="#DejaVuSans-31"/>
       <use x="63.623047" xlink:href="#DejaVuSans-35"/>
       <use x="127.246094" xlink:href="#DejaVuSans-2e"/>
       <use x="159.033203" xlink:href="#DejaVuSans-30"/>
      </g>
     </g>
    </g>
    <g id="ytick_8">
     <g id="line2d_14">
      <g>
       <use style="stroke:#000000;stroke-width:0.8;" x="57.6" xlink:href="#m63ebb58f36" y="83.794441"/>
      </g>
     </g>
     <g id="text_15">
      <!-- 17.5 -->
      <g transform="translate(28.334375 87.593659)scale(0.1 -0.1)">
       <use xlink:href="#DejaVuSans-31"/>
       <use x="63.623047" xlink:href="#DejaVuSans-37"/>
       <use x="127.246094" xlink:href="#DejaVuSans-2e"/>
       <use x="159.033203" xlink:href="#DejaVuSans-35"/>
      </g>
     </g>
    </g>
    <g id="ytick_9">
     <g id="line2d_15">
      <g>
       <use style="stroke:#000000;stroke-width:0.8;" x="57.6" xlink:href="#m63ebb58f36" y="53.552504"/>
      </g>
     </g>
     <g id="text_16">
      <!-- 20.0 -->
      <g transform="translate(28.334375 57.351722)scale(0.1 -0.1)">
       <use xlink:href="#DejaVuSans-32"/>
       <use x="63.623047" xlink:href="#DejaVuSans-30"/>
       <use x="127.246094" xlink:href="#DejaVuSans-2e"/>
       <use x="159.033203" xlink:href="#DejaVuSans-30"/>
      </g>
     </g>
    </g>
    <g id="text_17">
     <!-- ControlInput -->
     <defs>
      <path d="M 64.40625 67.28125 
L 64.40625 56.890625 
Q 59.421875 61.53125 53.78125 63.8125 
Q 48.140625 66.109375 41.796875 66.109375 
Q 29.296875 66.109375 22.65625 58.46875 
Q 16.015625 50.828125 16.015625 36.375 
Q 16.015625 21.96875 22.65625 14.328125 
Q 29.296875 6.6875 41.796875 6.6875 
Q 48.140625 6.6875 53.78125 8.984375 
Q 59.421875 11.28125 64.40625 15.921875 
L 64.40625 5.609375 
Q 59.234375 2.09375 53.4375 0.328125 
Q 47.65625 -1.421875 41.21875 -1.421875 
Q 24.65625 -1.421875 15.125 8.703125 
Q 5.609375 18.84375 5.609375 36.375 
Q 5.609375 53.953125 15.125 64.078125 
Q 24.65625 74.21875 41.21875 74.21875 
Q 47.75 74.21875 53.53125 72.484375 
Q 59.328125 70.75 64.40625 67.28125 
z
" id="DejaVuSans-43"/>
      <path d="M 30.609375 48.390625 
Q 23.390625 48.390625 19.1875 42.75 
Q 14.984375 37.109375 14.984375 27.296875 
Q 14.984375 17.484375 19.15625 11.84375 
Q 23.34375 6.203125 30.609375 6.203125 
Q 37.796875 6.203125 41.984375 11.859375 
Q 46.1875 17.53125 46.1875 27.296875 
Q 46.1875 37.015625 41.984375 42.703125 
Q 37.796875 48.390625 30.609375 48.390625 
z
M 30.609375 56 
Q 42.328125 56 49.015625 48.375 
Q 55.71875 40.765625 55.71875 27.296875 
Q 55.71875 13.875 49.015625 6.21875 
Q 42.328125 -1.421875 30.609375 -1.421875 
Q 18.84375 -1.421875 12.171875 6.21875 
Q 5.515625 13.875 5.515625 27.296875 
Q 5.515625 40.765625 12.171875 48.375 
Q 18.84375 56 30.609375 56 
z
" id="DejaVuSans-6f"/>
      <path d="M 54.890625 33.015625 
L 54.890625 0 
L 45.90625 0 
L 45.90625 32.71875 
Q 45.90625 40.484375 42.875 44.328125 
Q 39.84375 48.1875 33.796875 48.1875 
Q 26.515625 48.1875 22.3125 43.546875 
Q 18.109375 38.921875 18.109375 30.90625 
L 18.109375 0 
L 9.078125 0 
L 9.078125 54.6875 
L 18.109375 54.6875 
L 18.109375 46.1875 
Q 21.34375 51.125 25.703125 53.5625 
Q 30.078125 56 35.796875 56 
Q 45.21875 56 50.046875 50.171875 
Q 54.890625 44.34375 54.890625 33.015625 
z
" id="DejaVuSans-6e"/>
      <path d="M 18.3125 70.21875 
L 18.3125 54.6875 
L 36.8125 54.6875 
L 36.8125 47.703125 
L 18.3125 47.703125 
L 18.3125 18.015625 
Q 18.3125 11.328125 20.140625 9.421875 
Q 21.96875 7.515625 27.59375 7.515625 
L 36.8125 7.515625 
L 36.8125 0 
L 27.59375 0 
Q 17.1875 0 13.234375 3.875 
Q 9.28125 7.765625 9.28125 18.015625 
L 9.28125 47.703125 
L 2.6875 47.703125 
L 2.6875 54.6875 
L 9.28125 54.6875 
L 9.28125 70.21875 
z
" id="DejaVuSans-74"/>
      <path d="M 41.109375 46.296875 
Q 39.59375 47.171875 37.8125 47.578125 
Q 36.03125 48 33.890625 48 
Q 26.265625 48 22.1875 43.046875 
Q 18.109375 38.09375 18.109375 28.8125 
L 18.109375 0 
L 9.078125 0 
L 9.078125 54.6875 
L 18.109375 54.6875 
L 18.109375 46.1875 
Q 20.953125 51.171875 25.484375 53.578125 
Q 30.03125 56 36.53125 56 
Q 37.453125 56 38.578125 55.875 
Q 39.703125 55.765625 41.0625 55.515625 
z
" id="DejaVuSans-72"/>
      <path d="M 9.421875 75.984375 
L 18.40625 75.984375 
L 18.40625 0 
L 9.421875 0 
z
" id="DejaVuSans-6c"/>
      <path d="M 9.8125 72.90625 
L 19.671875 72.90625 
L 19.671875 0 
L 9.8125 0 
z
" id="DejaVuSans-49"/>
      <path d="M 18.109375 8.203125 
L 18.109375 -20.796875 
L 9.078125 -20.796875 
L 9.078125 54.6875 
L 18.109375 54.6875 
L 18.109375 46.390625 
Q 20.953125 51.265625 25.265625 53.625 
Q 29.59375 56 35.59375 56 
Q 45.5625 56 51.78125 48.09375 
Q 58.015625 40.1875 58.015625 27.296875 
Q 58.015625 14.40625 51.78125 6.484375 
Q 45.5625 -1.421875 35.59375 -1.421875 
Q 29.59375 -1.421875 25.265625 0.953125 
Q 20.953125 3.328125 18.109375 8.203125 
z
M 48.6875 27.296875 
Q 48.6875 37.203125 44.609375 42.84375 
Q 40.53125 48.484375 33.40625 48.484375 
Q 26.265625 48.484375 22.1875 42.84375 
Q 18.109375 37.203125 18.109375 27.296875 
Q 18.109375 17.390625 22.1875 11.75 
Q 26.265625 6.109375 33.40625 6.109375 
Q 40.53125 6.109375 44.609375 11.75 
Q 48.6875 17.390625 48.6875 27.296875 
z
" id="DejaVuSans-70"/>
      <path d="M 8.5 21.578125 
L 8.5 54.6875 
L 17.484375 54.6875 
L 17.484375 21.921875 
Q 17.484375 14.15625 20.5 10.265625 
Q 23.53125 6.390625 29.59375 6.390625 
Q 36.859375 6.390625 41.078125 11.03125 
Q 45.3125 15.671875 45.3125 23.6875 
L 45.3125 54.6875 
L 54.296875 54.6875 
L 54.296875 0 
L 45.3125 0 
L 45.3125 8.40625 
Q 42.046875 3.421875 37.71875 1 
Q 33.40625 -1.421875 27.6875 -1.421875 
Q 18.265625 -1.421875 13.375 4.4375 
Q 8.5 10.296875 8.5 21.578125 
z
M 31.109375 56 
z
" id="DejaVuSans-75"/>
     </defs>
     <g transform="translate(22.254687 205.656906)rotate(-90)scale(0.1 -0.1)">
      <use xlink:href="#DejaVuSans-43"/>
      <use x="69.824219" xlink:href="#DejaVuSans-6f"/>
      <use x="131.005859" xlink:href="#DejaVuSans-6e"/>
      <use x="194.384766" xlink:href="#DejaVuSans-74"/>
      <use x="233.59375" xlink:href="#DejaVuSans-72"/>
      <use x="274.675781" xlink:href="#DejaVuSans-6f"/>
      <use x="335.857422" xlink:href="#DejaVuSans-6c"/>
      <use x="363.640625" xlink:href="#DejaVuSans-49"/>
      <use x="393.132812" xlink:href="#DejaVuSans-6e"/>
      <use x="456.511719" xlink:href="#DejaVuSans-70"/>
      <use x="519.988281" xlink:href="#DejaVuSans-75"/>
      <use x="583.367188" xlink:href="#DejaVuSans-74"/>
     </g>
    </g>
   </g>
   <g id="line2d_16">
    <path clip-path="url(#pdb19e4f715)" d="M 73.832727 295.488 
L 73.949603 69.869272 
L 74.157382 69.869272 
L 74.274257 264.490148 
L 74.482036 264.490148 
L 74.598912 53.784637 
L 74.806691 53.784637 
L 74.923567 238.369696 
L 75.131345 238.369696 
L 75.248221 199.541045 
L 75.456 199.541045 
L 75.572876 201.638622 
L 75.780655 201.638622 
L 75.89753 133.45266 
L 76.105309 133.45266 
L 76.222185 69.14789 
L 76.429964 69.14789 
L 76.546839 90.735348 
L 76.754618 90.735348 
L 76.871494 219.696016 
L 77.079273 219.696016 
L 77.196148 168.581181 
L 77.403927 168.581181 
L 77.520803 188.201004 
L 77.728582 188.201004 
L 77.845457 239.945123 
L 78.053236 239.945123 
L 78.170112 166.194306 
L 78.377891 166.194306 
L 78.494767 74.368144 
L 78.702545 74.368144 
L 78.819421 184.873928 
L 79.0272 184.873928 
L 79.144076 191.286728 
L 79.351855 191.286728 
L 79.46873 68.279652 
L 79.676509 68.279652 
L 79.793385 107.168014 
L 80.001164 107.168014 
L 80.118039 122.269318 
L 80.325818 122.269318 
L 80.442694 101.272465 
L 80.650473 101.272465 
L 80.767348 273.03619 
L 80.975127 273.03619 
L 81.092003 170.128506 
L 81.299782 170.128506 
L 81.416657 86.208896 
L 81.624436 86.208896 
L 81.741312 94.887931 
L 82.273745 94.777499 
L 82.390621 229.427519 
L 82.5984 229.427519 
L 82.715276 281.154967 
L 82.923055 281.154967 
L 83.03993 133.263466 
L 83.247709 133.263466 
L 83.364585 152.004399 
L 83.572364 152.004399 
L 83.689239 132.991032 
L 83.897018 132.991032 
L 84.013894 195.861895 
L 84.221673 195.861895 
L 84.338548 247.693425 
L 84.546327 247.693425 
L 84.663203 225.416309 
L 84.870982 225.416309 
L 84.987857 261.104094 
L 85.195636 261.104094 
L 85.312512 105.976424 
L 85.520291 105.976424 
L 85.637167 195.680211 
L 85.844945 195.680211 
L 85.961821 287.220747 
L 86.1696 287.220747 
L 86.286476 144.512995 
L 86.494255 144.512995 
L 86.61113 135.656767 
L 86.818909 135.656767 
L 86.935785 223.271393 
L 87.143564 223.271393 
L 87.260439 187.552227 
L 87.468218 187.552227 
L 87.585094 241.748187 
L 87.792873 241.748187 
L 87.909748 277.738603 
L 88.117527 277.738603 
L 88.234403 181.962544 
L 88.442182 181.962544 
L 88.559057 272.220516 
L 88.766836 272.220516 
L 88.883712 76.93069 
L 89.091491 76.93069 
L 89.208367 266.579014 
L 89.416145 266.579014 
L 89.533021 168.520402 
L 89.7408 168.520402 
L 89.857676 275.256627 
L 90.065455 275.256627 
L 90.18233 73.666698 
L 90.390109 73.666698 
L 90.506985 75.218219 
L 90.714764 75.218219 
L 90.831639 223.166195 
L 91.039418 223.166195 
L 91.156294 154.103528 
L 91.364073 154.103528 
L 91.480948 158.573793 
L 91.688727 158.573793 
L 91.805603 146.954528 
L 92.013382 146.954528 
L 92.130257 64.068071 
L 92.338036 64.068071 
L 92.454912 232.347921 
L 92.662691 232.347921 
L 92.779567 239.597169 
L 92.987345 239.597169 
L 93.104221 166.427875 
L 93.312 166.427875 
L 93.428876 65.664245 
L 93.636655 65.664245 
L 93.75353 176.199382 
L 93.961309 176.199382 
L 94.078185 164.697547 
L 94.285964 164.697547 
L 94.402839 110.289981 
L 94.610618 110.289981 
L 94.727494 284.517259 
L 94.935273 284.517259 
L 95.052148 261.625227 
L 95.259927 261.625227 
L 95.376803 103.777445 
L 95.584582 103.777445 
L 95.701457 288.277994 
L 95.909236 288.277994 
L 96.026112 81.8286 
L 96.233891 81.8286 
L 96.350767 164.652141 
L 96.558545 164.652141 
L 96.675421 187.105692 
L 96.8832 187.105692 
L 97.000076 79.648665 
L 97.207855 79.648665 
L 97.32473 204.136945 
L 97.532509 204.136945 
L 97.649385 165.223954 
L 97.857164 165.223954 
L 97.974039 137.673746 
L 98.181818 137.673746 
L 98.298694 208.086136 
L 98.506473 208.086136 
L 98.623348 157.34076 
L 98.831127 157.34076 
L 98.948003 141.172714 
L 99.155782 141.172714 
L 99.272657 264.927946 
L 99.480436 264.927946 
L 99.597312 128.50301 
L 99.805091 128.50301 
L 99.921967 138.774427 
L 100.129745 138.774427 
L 100.246621 209.857571 
L 100.4544 209.857571 
L 100.571276 110.834832 
L 100.779055 110.834832 
L 100.89593 209.23032 
L 101.103709 209.23032 
L 101.220585 113.361776 
L 101.428364 113.361776 
L 101.545239 82.260127 
L 101.753018 82.260127 
L 101.869894 292.664808 
L 102.077673 292.664808 
L 102.194548 174.977735 
L 102.402327 174.977735 
L 102.519203 277.635093 
L 102.726982 277.635093 
L 102.843857 105.096504 
L 103.051636 105.096504 
L 103.168512 279.987839 
L 103.376291 279.987839 
L 103.493167 209.525811 
L 103.700945 209.525811 
L 103.817821 67.62421 
L 104.0256 67.62421 
L 104.142476 203.600103 
L 104.350255 203.600103 
L 104.46713 110.910553 
L 104.674909 110.910553 
L 104.791785 108.811781 
L 104.999564 108.811781 
L 105.116439 222.578199 
L 105.324218 222.578199 
L 105.441094 108.534971 
L 105.648873 108.534971 
L 105.765748 258.488847 
L 105.973527 258.488847 
L 106.090403 155.495913 
L 106.298182 155.495913 
L 106.415057 293.308646 
L 106.622836 293.308646 
L 106.739712 123.945445 
L 106.947491 123.945445 
L 107.064367 181.623283 
L 107.272145 181.623283 
L 107.389021 110.505917 
L 107.5968 110.505917 
L 107.713676 182.409119 
L 107.921455 182.409119 
L 108.03833 230.407097 
L 108.246109 230.407097 
L 108.362985 94.272041 
L 108.570764 94.272041 
L 108.687639 162.102927 
L 108.895418 162.102927 
L 109.012294 278.532798 
L 109.220073 278.532798 
L 109.336948 181.179517 
L 109.544727 181.179517 
L 109.661603 115.786822 
L 109.869382 115.786822 
L 109.986257 249.047011 
L 110.194036 249.047011 
L 110.310912 183.154566 
L 110.518691 183.154566 
L 110.635567 239.75506 
L 110.843345 239.75506 
L 110.960221 172.52488 
L 111.168 172.52488 
L 111.284876 245.027922 
L 111.492655 245.027922 
L 111.60953 283.559553 
L 111.817309 283.559553 
L 111.934185 169.956894 
L 112.141964 169.956894 
L 112.258839 253.807751 
L 112.466618 253.807751 
L 112.583494 199.605748 
L 112.791273 199.605748 
L 112.908148 269.512522 
L 113.115927 269.512522 
L 113.232803 172.146797 
L 113.440582 172.146797 
L 113.557457 270.777862 
L 113.765236 270.777862 
L 113.882112 225.636908 
L 114.089891 225.636908 
L 114.206767 239.417401 
L 114.414545 239.417401 
L 114.531421 61.374779 
L 114.7392 61.374779 
L 114.856076 228.152794 
L 115.063855 228.152794 
L 115.18073 238.966419 
L 115.388509 238.966419 
L 115.505385 273.337247 
L 115.713164 273.337247 
L 115.830039 157.568639 
L 116.037818 157.568639 
L 116.154694 194.376735 
L 116.362473 194.376735 
L 116.479348 206.493663 
L 116.687127 206.493663 
L 116.804003 98.795658 
L 117.011782 98.795658 
L 117.128657 225.38477 
L 117.336436 225.38477 
L 117.453312 121.925507 
L 117.661091 121.925507 
L 117.777967 147.194099 
L 117.985745 147.194099 
L 118.102621 192.203359 
L 118.3104 192.203359 
L 118.427276 113.58324 
L 118.635055 113.58324 
L 118.75193 191.984938 
L 118.959709 191.984938 
L 119.076585 191.84709 
L 119.284364 191.84709 
L 119.401239 207.930469 
L 119.609018 207.930469 
L 119.725894 258.389979 
L 119.933673 258.389979 
L 120.050548 68.748394 
L 120.258327 68.748394 
L 120.375203 73.775922 
L 120.582982 73.775922 
L 120.699857 106.304491 
L 120.907636 106.304491 
L 121.024512 146.376151 
L 121.232291 146.376151 
L 121.349167 286.778458 
L 121.556945 286.778458 
L 121.673821 137.183853 
L 121.8816 137.183853 
L 121.998476 264.092125 
L 122.206255 264.092125 
L 122.32313 224.271994 
L 122.530909 224.271994 
L 122.647785 208.194103 
L 122.855564 208.194103 
L 122.972439 229.041589 
L 123.180218 229.041589 
L 123.297094 277.592275 
L 123.504873 277.592275 
L 123.621748 258.680621 
L 123.829527 258.680621 
L 123.946403 256.386742 
L 124.154182 256.386742 
L 124.271057 68.380319 
L 124.478836 68.380319 
L 124.595712 205.697535 
L 124.803491 205.697535 
L 124.920367 283.38685 
L 125.128145 283.38685 
L 125.245021 116.22455 
L 125.4528 116.22455 
L 125.569676 223.226647 
L 125.777455 223.226647 
L 125.89433 246.046515 
L 126.102109 246.046515 
L 126.218985 57.96622 
L 126.426764 57.96622 
L 126.543639 79.43447 
L 126.751418 79.43447 
L 126.868294 111.774572 
L 127.076073 111.774572 
L 127.192948 137.958824 
L 127.400727 137.958824 
L 127.517603 285.887152 
L 127.725382 285.887152 
L 127.842257 98.582418 
L 128.050036 98.582418 
L 128.166912 110.99449 
L 128.374691 110.99449 
L 128.491567 185.33901 
L 128.699345 185.33901 
L 128.816221 166.820303 
L 129.024 166.820303 
L 129.140876 269.035724 
L 129.348655 269.035724 
L 129.46553 260.157495 
L 129.673309 260.157495 
L 129.790185 172.393944 
L 129.997964 172.393944 
L 130.114839 243.314542 
L 130.322618 243.314542 
L 130.439494 73.767738 
L 130.647273 73.767738 
L 130.764148 183.676902 
L 130.971927 183.676902 
L 131.088803 263.487851 
L 131.296582 263.487851 
L 131.413457 110.590827 
L 131.621236 110.590827 
L 131.738112 244.020167 
L 131.945891 244.020167 
L 132.062767 277.522249 
L 132.270545 277.522249 
L 132.387421 272.402697 
L 132.5952 272.402697 
L 132.712076 256.244729 
L 132.919855 256.244729 
L 133.03673 209.246783 
L 133.244509 209.246783 
L 133.361385 272.429658 
L 133.569164 272.429658 
L 133.686039 260.827593 
L 133.893818 260.827593 
L 134.010694 70.242924 
L 134.218473 70.242924 
L 134.335348 155.991811 
L 134.543127 155.991811 
L 134.660003 92.348018 
L 134.867782 92.348018 
L 134.984657 144.691513 
L 135.192436 144.691513 
L 135.309312 216.975698 
L 135.517091 216.975698 
L 135.633967 119.356142 
L 135.841745 119.356142 
L 135.958621 169.019454 
L 136.1664 169.019454 
L 136.283276 117.227152 
L 136.491055 117.227152 
L 136.60793 255.470389 
L 136.815709 255.470389 
L 136.932585 129.264211 
L 137.140364 129.264211 
L 137.257239 192.227308 
L 137.465018 192.227308 
L 137.581894 119.224104 
L 137.789673 119.224104 
L 137.906548 112.503621 
L 138.114327 112.503621 
L 138.231203 199.291717 
L 138.438982 199.291717 
L 138.555857 71.649252 
L 138.763636 71.649252 
L 138.880512 246.251629 
L 139.088291 246.251629 
L 139.205167 269.342055 
L 139.412945 269.342055 
L 139.529821 276.633944 
L 139.7376 276.633944 
L 139.854476 217.0952 
L 140.062255 217.0952 
L 140.17913 286.063106 
L 140.386909 286.063106 
L 140.503785 182.884788 
L 140.711564 182.884788 
L 140.828439 151.3422 
L 141.036218 151.3422 
L 141.153094 195.037737 
L 141.360873 195.037737 
L 141.477748 101.420198 
L 141.685527 101.420198 
L 141.802403 281.209905 
L 142.010182 281.209905 
L 142.127057 60.989406 
L 142.334836 60.989406 
L 142.451712 287.717859 
L 142.659491 287.717859 
L 142.776367 236.541612 
L 142.984145 236.541612 
L 143.101021 79.9511 
L 143.3088 79.9511 
L 143.425676 233.138577 
L 143.633455 233.138577 
L 143.75033 110.936657 
L 143.958109 110.936657 
L 144.074985 205.035119 
L 144.282764 205.035119 
L 144.399639 78.057262 
L 144.607418 78.057262 
L 144.724294 132.421651 
L 144.932073 132.421651 
L 145.048948 253.468156 
L 145.256727 253.468156 
L 145.373603 190.578991 
L 145.581382 190.578991 
L 145.698257 239.600214 
L 145.906036 239.600214 
L 146.022912 261.739604 
L 146.230691 261.739604 
L 146.347567 153.226347 
L 146.555345 153.226347 
L 146.672221 78.506509 
L 146.88 78.506509 
L 146.996876 233.91979 
L 147.204655 233.91979 
L 147.32153 69.134568 
L 147.529309 69.134568 
L 147.646185 58.752741 
L 147.853964 58.752741 
L 147.970839 64.371177 
L 148.178618 64.371177 
L 148.295494 55.265367 
L 148.503273 55.265367 
L 148.620148 290.48754 
L 148.827927 290.48754 
L 148.944803 69.905124 
L 149.152582 69.905124 
L 149.269457 99.572105 
L 149.477236 99.572105 
L 149.594112 195.227058 
L 149.801891 195.227058 
L 149.918767 101.273615 
L 150.126545 101.273615 
L 150.243421 250.445687 
L 150.4512 250.445687 
L 150.568076 185.578832 
L 150.775855 185.578832 
L 150.89273 218.173161 
L 151.100509 218.173161 
L 151.217385 259.438629 
L 151.425164 259.438629 
L 151.542039 168.489861 
L 151.749818 168.489861 
L 151.866694 268.044303 
L 152.074473 268.044303 
L 152.191348 267.659549 
L 152.399127 267.659549 
L 152.516003 216.60764 
L 152.723782 216.60764 
L 152.840657 56.693411 
L 153.048436 56.693411 
L 153.165312 108.92649 
L 153.373091 108.92649 
L 153.489967 73.0872 
L 153.697745 73.0872 
L 153.814621 60.038076 
L 154.0224 60.038076 
L 154.139276 100.887175 
L 154.347055 100.887175 
L 154.46393 185.743022 
L 154.671709 185.743022 
L 154.788585 290.070387 
L 154.996364 290.070387 
L 155.113239 185.401797 
L 155.321018 185.401797 
L 155.437894 81.69019 
L 155.645673 81.69019 
L 155.762548 120.022231 
L 155.970327 120.022231 
L 156.087203 88.00968 
L 156.294982 88.00968 
L 156.411857 202.188916 
L 156.619636 202.188916 
L 156.736512 285.186153 
L 156.944291 285.186153 
L 157.061167 295.390561 
L 157.268945 295.390561 
L 157.385821 287.43011 
L 157.5936 287.43011 
L 157.710476 169.556103 
L 157.918255 169.556103 
L 158.03513 147.014475 
L 158.242909 147.014475 
L 158.359785 180.402422 
L 158.567564 180.402422 
L 158.684439 89.823395 
L 158.892218 89.823395 
L 159.009094 276.812719 
L 159.216873 276.812719 
L 159.333748 259.355513 
L 159.541527 259.355513 
L 159.658403 82.082695 
L 159.866182 82.082695 
L 159.983057 68.908054 
L 160.190836 68.908054 
L 160.307712 184.48596 
L 160.515491 184.48596 
L 160.632367 269.128684 
L 160.840145 269.128684 
L 160.957021 240.379284 
L 161.1648 240.379284 
L 161.281676 82.863266 
L 161.489455 82.863266 
L 161.60633 177.047216 
L 161.814109 177.047216 
L 161.930985 160.161938 
L 162.138764 160.161938 
L 162.255639 61.867402 
L 162.463418 61.867402 
L 162.580294 110.713896 
L 162.788073 110.713896 
L 162.904948 100.357379 
L 163.112727 100.357379 
L 163.229603 155.401212 
L 163.437382 155.401212 
L 163.554257 235.055605 
L 163.762036 235.055605 
L 163.878912 140.34756 
L 164.086691 140.34756 
L 164.203567 192.218797 
L 164.411345 192.218797 
L 164.528221 214.860472 
L 164.736 214.860472 
L 164.852876 253.679753 
L 165.060655 253.679753 
L 165.17753 245.991627 
L 165.385309 245.991627 
L 165.502185 91.493459 
L 165.709964 91.493459 
L 165.826839 230.510855 
L 166.034618 230.510855 
L 166.151494 82.031745 
L 166.359273 82.031745 
L 166.476148 278.269437 
L 166.683927 278.269437 
L 166.800803 198.132021 
L 167.008582 198.132021 
L 167.125457 137.047875 
L 167.333236 137.047875 
L 167.450112 170.465373 
L 167.657891 170.465373 
L 167.774767 229.405544 
L 167.982545 229.405544 
L 168.099421 181.959295 
L 168.3072 181.959295 
L 168.424076 184.459791 
L 168.631855 184.459791 
L 168.74873 204.464969 
L 168.956509 204.464969 
L 169.073385 217.779965 
L 169.281164 217.779965 
L 169.398039 214.669933 
L 169.605818 214.669933 
L 169.722694 70.097195 
L 169.930473 70.097195 
L 170.047348 184.688378 
L 170.255127 184.688378 
L 170.372003 76.230233 
L 170.579782 76.230233 
L 170.696657 81.937167 
L 170.904436 81.937167 
L 171.021312 233.595426 
L 171.229091 233.595426 
L 171.345967 191.438745 
L 171.553745 191.438745 
L 171.670621 95.366154 
L 171.8784 95.366154 
L 171.995276 114.453565 
L 172.203055 114.453565 
L 172.31993 158.005266 
L 172.527709 158.005266 
L 172.644585 180.71322 
L 172.852364 180.71322 
L 172.969239 295.415509 
L 173.177018 295.415509 
L 173.293894 161.948873 
L 173.501673 161.948873 
L 173.618548 115.648976 
L 173.826327 115.648976 
L 173.943203 92.296372 
L 174.150982 92.296372 
L 174.267857 288.677667 
L 174.475636 288.677667 
L 174.592512 157.978733 
L 174.800291 157.978733 
L 174.917167 123.855782 
L 175.124945 123.855782 
L 175.241821 156.123458 
L 175.4496 156.123458 
L 175.566476 147.799575 
L 175.774255 147.799575 
L 175.89113 201.400329 
L 176.098909 201.400329 
L 176.215785 223.309971 
L 176.423564 223.309971 
L 176.540439 293.065907 
L 176.748218 293.065907 
L 176.865094 265.521854 
L 177.072873 265.521854 
L 177.189748 251.777706 
L 177.397527 251.777706 
L 177.514403 154.990828 
L 177.722182 154.990828 
L 177.839057 191.523223 
L 178.046836 191.523223 
L 178.163712 180.772984 
L 178.371491 180.772984 
L 178.488367 92.35505 
L 178.696145 92.35505 
L 178.813021 273.589198 
L 179.0208 273.589198 
L 179.137676 136.217526 
L 179.345455 136.217526 
L 179.46233 245.144636 
L 179.670109 245.144636 
L 179.786985 68.778308 
L 179.994764 68.778308 
L 180.111639 221.487787 
L 180.319418 221.487787 
L 180.436294 262.22495 
L 180.644073 262.22495 
L 180.760948 82.407191 
L 180.968727 82.407191 
L 181.085603 172.015151 
L 181.293382 172.015151 
L 181.410257 119.70729 
L 181.618036 119.70729 
L 181.734912 82.333482 
L 181.942691 82.333482 
L 182.059567 85.169873 
L 182.267345 85.169873 
L 182.384221 219.872079 
L 182.592 219.872079 
L 182.708876 175.14913 
L 182.916655 175.14913 
L 183.03353 97.86417 
L 183.241309 97.86417 
L 183.358185 209.232454 
L 183.565964 209.232454 
L 183.682839 259.413247 
L 183.890618 259.413247 
L 184.007494 58.408751 
L 184.215273 58.408751 
L 184.332148 88.792422 
L 184.539927 88.792422 
L 184.656803 94.499325 
L 184.864582 94.499325 
L 184.981457 229.791779 
L 185.189236 229.791779 
L 185.306112 169.535342 
L 185.513891 169.535342 
L 185.630767 192.178339 
L 185.838545 192.178339 
L 185.955421 229.906957 
L 186.1632 229.906957 
L 186.280076 140.540933 
L 186.487855 140.540933 
L 186.60473 195.844496 
L 186.812509 195.844496 
L 186.929385 163.254197 
L 187.137164 163.254197 
L 187.254039 57.491981 
L 187.461818 57.491981 
L 187.578694 224.407442 
L 187.786473 224.407442 
L 187.903348 178.360955 
L 188.111127 178.360955 
L 188.228003 290.524569 
L 188.435782 290.524569 
L 188.552657 231.327666 
L 188.760436 231.327666 
L 188.877312 237.516481 
L 189.085091 237.516481 
L 189.201967 80.282651 
L 189.409745 80.282651 
L 189.526621 188.301505 
L 189.7344 188.301505 
L 189.851276 85.034727 
L 190.059055 85.034727 
L 190.17593 106.445727 
L 190.383709 106.445727 
L 190.500585 285.140951 
L 190.708364 285.140951 
L 190.825239 193.60648 
L 191.033018 193.60648 
L 191.149894 216.624864 
L 191.357673 216.624864 
L 191.474548 83.883862 
L 191.682327 83.883862 
L 191.799203 92.855659 
L 192.006982 92.855659 
L 192.123857 293.720008 
L 192.331636 293.720008 
L 192.448512 137.352734 
L 192.656291 137.352734 
L 192.773167 120.715412 
L 192.980945 120.715412 
L 193.097821 99.778488 
L 193.3056 99.778488 
L 193.422476 245.081995 
L 193.630255 245.081995 
L 193.74713 107.601268 
L 193.954909 107.601268 
L 194.071785 114.724176 
L 194.279564 114.724176 
L 194.396439 181.003103 
L 194.604218 181.003103 
L 194.721094 151.2901 
L 194.928873 151.2901 
L 195.045748 140.893142 
L 195.253527 140.893142 
L 195.370403 247.197609 
L 195.578182 247.197609 
L 195.695057 109.427208 
L 195.902836 109.427208 
L 196.019712 172.761887 
L 196.227491 172.761887 
L 196.344367 130.426067 
L 196.552145 130.426067 
L 196.669021 259.084327 
L 196.8768 259.084327 
L 196.993676 87.827493 
L 197.201455 87.827493 
L 197.31833 84.363969 
L 197.526109 84.363969 
L 197.642985 66.500659 
L 197.850764 66.500659 
L 197.967639 153.632528 
L 198.175418 153.632528 
L 198.292294 257.170973 
L 198.500073 257.170973 
L 198.616948 258.444127 
L 198.824727 258.444127 
L 198.941603 66.184781 
L 199.149382 66.184781 
L 199.266257 207.41574 
L 199.474036 207.41574 
L 199.590912 144.738781 
L 199.798691 144.738781 
L 199.915567 247.200296 
L 200.123345 247.200296 
L 200.240221 267.689597 
L 200.448 267.689597 
L 200.564876 282.739857 
L 200.772655 282.739857 
L 200.88953 243.861165 
L 201.097309 243.861165 
L 201.214185 224.536257 
L 201.421964 224.536257 
L 201.538839 211.715343 
L 201.746618 211.715343 
L 201.863494 118.299251 
L 202.071273 118.299251 
L 202.188148 96.14091 
L 202.395927 96.14091 
L 202.512803 105.898895 
L 202.720582 105.898895 
L 202.837457 150.010909 
L 203.045236 150.010909 
L 203.162112 92.28743 
L 203.369891 92.28743 
L 203.486767 262.651588 
L 203.694545 262.651588 
L 203.811421 61.205128 
L 204.0192 61.205128 
L 204.136076 257.358035 
L 204.343855 257.358035 
L 204.46073 202.710732 
L 204.668509 202.710732 
L 204.785385 243.082945 
L 204.993164 243.082945 
L 205.110039 132.28288 
L 205.317818 132.28288 
L 205.434694 56.985945 
L 205.642473 56.985945 
L 205.759348 61.158684 
L 205.967127 61.158684 
L 206.084003 165.98706 
L 206.291782 165.98706 
L 206.408657 257.004391 
L 206.616436 257.004391 
L 206.733312 69.745116 
L 206.941091 69.745116 
L 207.057967 79.242684 
L 207.265745 79.242684 
L 207.382621 92.493995 
L 207.5904 92.493995 
L 207.707276 176.652281 
L 207.915055 176.652281 
L 208.03193 144.748265 
L 208.239709 144.748265 
L 208.356585 82.661549 
L 208.564364 82.661549 
L 208.681239 100.456605 
L 208.889018 100.456605 
L 209.005894 102.449159 
L 209.213673 102.449159 
L 209.330548 161.075363 
L 209.538327 161.075363 
L 209.655203 59.197004 
L 209.862982 59.197004 
L 209.979857 136.577102 
L 210.187636 136.577102 
L 210.304512 155.475108 
L 210.512291 155.475108 
L 210.629167 190.943784 
L 210.836945 190.943784 
L 210.953821 142.386597 
L 211.1616 142.386597 
L 211.278476 251.636513 
L 211.486255 251.636513 
L 211.60313 144.455239 
L 211.810909 144.455239 
L 211.927785 128.319656 
L 212.135564 128.319656 
L 212.252439 256.293922 
L 212.460218 256.293922 
L 212.577094 199.696485 
L 212.784873 199.696485 
L 212.901748 198.441044 
L 213.109527 198.441044 
L 213.226403 193.890975 
L 213.434182 193.890975 
L 213.551057 277.511076 
L 213.758836 277.511076 
L 213.875712 179.792173 
L 214.083491 179.792173 
L 214.200367 58.568211 
L 214.408145 58.568211 
L 214.525021 264.079199 
L 214.7328 264.079199 
L 214.849676 267.909995 
L 215.057455 267.909995 
L 215.17433 182.057371 
L 215.382109 182.057371 
L 215.498985 56.110163 
L 215.706764 56.110163 
L 215.823639 154.83529 
L 216.031418 154.83529 
L 216.148294 216.76784 
L 216.356073 216.76784 
L 216.472948 282.678516 
L 216.680727 282.678516 
L 216.797603 165.309898 
L 217.005382 165.309898 
L 217.122257 212.539807 
L 217.330036 212.539807 
L 217.446912 150.93521 
L 217.654691 150.93521 
L 217.771567 258.759844 
L 217.979345 258.759844 
L 218.096221 149.317252 
L 218.304 149.317252 
L 218.420876 190.022114 
L 218.628655 190.022114 
L 218.74553 277.545955 
L 218.953309 277.545955 
L 219.070185 53.806365 
L 219.277964 53.806365 
L 219.394839 188.113191 
L 219.602618 188.113191 
L 219.719494 235.981165 
L 219.927273 235.981165 
L 220.044148 204.528731 
L 220.251927 204.528731 
L 220.368803 88.993824 
L 220.576582 88.993824 
L 220.693457 108.270355 
L 220.901236 108.270355 
L 221.018112 196.320915 
L 221.225891 196.320915 
L 221.342767 113.978827 
L 221.550545 113.978827 
L 221.667421 127.160907 
L 221.8752 127.160907 
L 221.992076 249.584688 
L 222.199855 249.584688 
L 222.31673 258.280135 
L 222.524509 258.280135 
L 222.641385 292.242769 
L 222.849164 292.242769 
L 222.966039 189.941479 
L 223.173818 189.941479 
L 223.290694 228.56436 
L 223.498473 228.56436 
L 223.615348 186.734018 
L 223.823127 186.734018 
L 223.940003 81.68025 
L 224.147782 81.68025 
L 224.264657 242.037585 
L 224.472436 242.037585 
L 224.589312 87.917274 
L 224.797091 87.917274 
L 224.913967 91.897375 
L 225.121745 91.897375 
L 225.238621 215.351863 
L 225.4464 215.351863 
L 225.563276 252.328796 
L 225.771055 252.328796 
L 225.88793 71.349224 
L 226.095709 71.349224 
L 226.212585 122.240844 
L 226.420364 122.240844 
L 226.537239 89.40905 
L 226.745018 89.40905 
L 226.861894 260.847482 
L 227.069673 260.847482 
L 227.186548 96.368027 
L 227.394327 96.368027 
L 227.511203 222.821897 
L 227.718982 222.821897 
L 227.835857 170.706935 
L 228.043636 170.706935 
L 228.160512 114.476646 
L 228.368291 114.476646 
L 228.485167 138.886899 
L 228.692945 138.886899 
L 228.809821 129.952801 
L 229.0176 129.952801 
L 229.134476 112.462414 
L 229.342255 112.462414 
L 229.45913 174.855677 
L 229.666909 174.855677 
L 229.783785 256.538679 
L 229.991564 256.538679 
L 230.108439 278.179233 
L 230.316218 278.179233 
L 230.433094 143.820923 
L 230.640873 143.820923 
L 230.757748 92.923759 
L 230.965527 92.923759 
L 231.082403 264.875955 
L 231.290182 264.875955 
L 231.407057 244.501048 
L 231.614836 244.501048 
L 231.731712 80.395211 
L 231.939491 80.395211 
L 232.056367 208.411958 
L 232.264145 208.411958 
L 232.381021 249.592897 
L 232.5888 249.592897 
L 232.705676 93.712651 
L 232.913455 93.712651 
L 233.03033 169.008654 
L 233.238109 169.008654 
L 233.354985 124.384356 
L 233.562764 124.384356 
L 233.679639 206.87635 
L 233.887418 206.87635 
L 234.004294 99.417092 
L 234.212073 99.417092 
L 234.328948 174.038517 
L 234.536727 174.038517 
L 234.653603 231.230777 
L 234.861382 231.230777 
L 234.978257 261.142286 
L 235.186036 261.142286 
L 235.302912 255.940849 
L 235.510691 255.940849 
L 235.627567 97.878494 
L 235.835345 97.878494 
L 235.952221 54.975808 
L 236.16 54.975808 
L 236.276876 235.385172 
L 236.484655 235.385172 
L 236.60153 113.446912 
L 236.809309 113.446912 
L 236.926185 69.062303 
L 237.133964 69.062303 
L 237.250839 204.309734 
L 237.458618 204.309734 
L 237.575494 265.862639 
L 237.783273 265.862639 
L 237.900148 72.167434 
L 238.107927 72.167434 
L 238.224803 218.62527 
L 238.432582 218.62527 
L 238.549457 180.883871 
L 238.757236 180.883871 
L 238.874112 228.549356 
L 239.081891 228.549356 
L 239.198767 123.282205 
L 239.406545 123.282205 
L 239.523421 231.946844 
L 239.7312 231.946844 
L 239.848076 154.596317 
L 240.055855 154.596317 
L 240.17273 206.374105 
L 240.380509 206.374105 
L 240.497385 226.864658 
L 240.705164 226.864658 
L 240.822039 200.231984 
L 241.029818 200.231984 
L 241.146694 257.76019 
L 241.354473 257.76019 
L 241.471348 141.727695 
L 241.679127 141.727695 
L 241.796003 75.153631 
L 242.003782 75.153631 
L 242.120657 164.957412 
L 242.328436 164.957412 
L 242.445312 275.626979 
L 242.653091 275.626979 
L 242.769967 89.102539 
L 242.977745 89.102539 
L 243.094621 67.932153 
L 243.3024 67.932153 
L 243.419276 294.005498 
L 243.627055 294.005498 
L 243.74393 157.447207 
L 243.951709 157.447207 
L 244.068585 175.949416 
L 244.276364 175.949416 
L 244.393239 80.922383 
L 244.601018 80.922383 
L 244.717894 167.175942 
L 244.925673 167.175942 
L 245.042548 75.873109 
L 245.250327 75.873109 
L 245.367203 276.539219 
L 245.574982 276.539219 
L 245.691857 255.403188 
L 245.899636 255.403188 
L 246.016512 104.82623 
L 246.224291 104.82623 
L 246.341167 95.507593 
L 246.548945 95.507593 
L 246.665821 62.447915 
L 246.8736 62.447915 
L 246.990476 115.735446 
L 247.198255 115.735446 
L 247.31513 233.968088 
L 247.522909 233.968088 
L 247.639785 253.083184 
L 247.847564 253.083184 
L 247.964439 221.201901 
L 248.172218 221.201901 
L 248.289094 193.028491 
L 248.496873 193.028491 
L 248.613748 242.581295 
L 248.821527 242.581295 
L 248.938403 178.743182 
L 249.146182 178.743182 
L 249.263057 138.389337 
L 249.470836 138.389337 
L 249.587712 239.618649 
L 249.795491 239.618649 
L 249.912367 95.616765 
L 250.120145 95.616765 
L 250.237021 252.670383 
L 250.4448 252.670383 
L 250.561676 161.007795 
L 250.769455 161.007795 
L 250.88633 273.976777 
L 251.094109 273.976777 
L 251.210985 76.807818 
L 251.418764 76.807818 
L 251.535639 252.944625 
L 251.743418 252.944625 
L 251.860294 257.729111 
L 252.068073 257.729111 
L 252.184948 193.414509 
L 252.392727 193.414509 
L 252.509603 182.53835 
L 252.717382 182.53835 
L 252.834257 167.670707 
L 253.042036 167.670707 
L 253.158912 286.537874 
L 253.366691 286.537874 
L 253.483567 111.587749 
L 253.691345 111.587749 
L 253.808221 112.357551 
L 254.016 112.357551 
L 254.132876 251.142597 
L 254.340655 251.142597 
L 254.45753 91.405607 
L 254.665309 91.405607 
L 254.782185 134.561607 
L 254.989964 134.561607 
L 255.106839 261.418601 
L 255.314618 261.418601 
L 255.431494 113.245233 
L 255.639273 113.245233 
L 255.756148 114.152552 
L 255.963927 114.152552 
L 256.080803 237.535588 
L 256.288582 237.535588 
L 256.405457 161.965635 
L 256.613236 161.965635 
L 256.730112 110.30343 
L 256.937891 110.30343 
L 257.054767 209.327339 
L 257.262545 209.327339 
L 257.379421 66.146426 
L 257.5872 66.146426 
L 257.704076 100.02621 
L 257.911855 100.02621 
L 258.02873 216.031581 
L 258.236509 216.031581 
L 258.353385 68.039426 
L 258.561164 68.039426 
L 258.678039 53.568 
L 258.885818 53.568 
L 259.002694 188.481606 
L 259.210473 188.481606 
L 259.327348 171.146916 
L 259.535127 171.146916 
L 259.652003 290.49715 
L 259.859782 290.49715 
L 259.976657 257.717677 
L 260.184436 257.717677 
L 260.301312 99.961014 
L 260.509091 99.961014 
L 260.625967 218.658479 
L 260.833745 218.658479 
L 260.950621 98.502918 
L 261.1584 98.502918 
L 261.275276 142.017807 
L 261.483055 142.017807 
L 261.59993 167.456858 
L 261.807709 167.456858 
L 261.924585 192.292331 
L 262.132364 192.292331 
L 262.249239 107.783321 
L 262.457018 107.783321 
L 262.573894 213.781978 
L 262.781673 213.781978 
L 262.898548 220.028727 
L 263.106327 220.028727 
L 263.223203 189.093099 
L 263.430982 189.093099 
L 263.547857 170.687135 
L 263.755636 170.687135 
L 263.872512 164.824782 
L 264.080291 164.824782 
L 264.197167 113.875809 
L 264.404945 113.875809 
L 264.521821 235.686881 
L 264.7296 235.686881 
L 264.846476 155.046139 
L 265.054255 155.046139 
L 265.17113 285.100298 
L 265.378909 285.100298 
L 265.495785 143.739577 
L 265.703564 143.739577 
L 265.820439 282.403134 
L 266.028218 282.403134 
L 266.145094 138.614178 
L 266.352873 138.614178 
L 266.469748 203.954852 
L 266.677527 203.954852 
L 266.794403 113.275495 
L 267.002182 113.275495 
L 267.119057 93.428861 
L 267.326836 93.428861 
L 267.443712 211.445316 
L 267.651491 211.445316 
L 267.768367 79.64318 
L 267.976145 79.64318 
L 268.093021 274.952594 
L 268.3008 274.952594 
L 268.417676 123.527163 
L 268.625455 123.527163 
L 268.74233 100.819243 
L 268.950109 100.819243 
L 269.066985 288.251157 
L 269.274764 288.251157 
L 269.391639 77.144928 
L 269.599418 77.144928 
L 269.716294 145.882337 
L 269.924073 145.882337 
L 270.040948 145.578784 
L 270.248727 145.578784 
L 270.365603 123.60424 
L 270.573382 123.60424 
L 270.690257 105.596111 
L 270.898036 105.596111 
L 271.014912 247.784609 
L 271.222691 247.784609 
L 271.339567 150.547024 
L 271.547345 150.547024 
L 271.664221 116.487856 
L 271.872 116.487856 
L 271.988876 287.42173 
L 272.196655 287.42173 
L 272.31353 282.262849 
L 272.521309 282.262849 
L 272.638185 169.898173 
L 272.845964 169.898173 
L 272.962839 219.410029 
L 273.170618 219.410029 
L 273.287494 144.148879 
L 273.495273 144.148879 
L 273.612148 286.815293 
L 273.819927 286.815293 
L 273.936803 97.84688 
L 274.144582 97.84688 
L 274.261457 107.353698 
L 274.469236 107.353698 
L 274.586112 75.444993 
L 274.793891 75.444993 
L 274.910767 68.192182 
L 275.118545 68.192182 
L 275.235421 55.727612 
L 275.4432 55.727612 
L 275.560076 279.064622 
L 275.767855 279.064622 
L 275.88473 157.17984 
L 276.092509 157.17984 
L 276.209385 101.489776 
L 276.417164 101.489776 
L 276.534039 280.408688 
L 276.741818 280.408688 
L 276.858694 77.788085 
L 277.066473 77.788085 
L 277.183348 103.775321 
L 277.391127 103.775321 
L 277.508003 228.584839 
L 277.715782 228.584839 
L 277.832657 257.064732 
L 278.040436 257.064732 
L 278.157312 270.580326 
L 278.365091 270.580326 
L 278.481967 66.428385 
L 278.689745 66.428385 
L 278.806621 259.074662 
L 279.0144 259.074662 
L 279.131276 134.397479 
L 279.339055 134.397479 
L 279.45593 87.224017 
L 279.663709 87.224017 
L 279.780585 264.002822 
L 279.988364 264.002822 
L 280.105239 108.421191 
L 280.313018 108.421191 
L 280.429894 122.686665 
L 280.637673 122.686665 
L 280.754548 208.274058 
L 280.962327 208.274058 
L 281.079203 219.402243 
L 281.286982 219.402243 
L 281.403857 281.140485 
L 281.611636 281.140485 
L 281.728512 265.145131 
L 281.936291 265.145131 
L 282.053167 189.048327 
L 282.260945 189.048327 
L 282.377821 68.366134 
L 282.5856 68.366134 
L 282.702476 256.34025 
L 282.910255 256.34025 
L 283.02713 113.22354 
L 283.234909 113.22354 
L 283.351785 58.354934 
L 283.559564 58.354934 
L 283.676439 118.131416 
L 283.884218 118.131416 
L 284.001094 200.541468 
L 284.208873 200.541468 
L 284.325748 231.002959 
L 284.533527 231.002959 
L 284.650403 244.357821 
L 284.858182 244.357821 
L 284.975057 153.479074 
L 285.182836 153.479074 
L 285.299712 131.646987 
L 285.507491 131.646987 
L 285.624367 135.910134 
L 285.832145 135.910134 
L 285.949021 190.884536 
L 286.1568 190.884536 
L 286.273676 131.206304 
L 286.481455 131.206304 
L 286.59833 93.028612 
L 286.806109 93.028612 
L 286.922985 120.672248 
L 287.130764 120.672248 
L 287.247639 177.331803 
L 287.455418 177.331803 
L 287.572294 283.951543 
L 287.780073 283.951543 
L 287.896948 161.916444 
L 288.104727 161.916444 
L 288.221603 127.854642 
L 288.429382 127.854642 
L 288.546257 195.57279 
L 288.754036 195.57279 
L 288.870912 54.66027 
L 289.078691 54.66027 
L 289.195567 249.579484 
L 289.403345 249.579484 
L 289.520221 250.587159 
L 289.728 250.587159 
L 289.844876 185.636859 
L 290.052655 185.636859 
L 290.16953 57.78195 
L 290.377309 57.78195 
L 290.494185 193.206301 
L 290.701964 193.206301 
L 290.818839 117.911068 
L 291.026618 117.911068 
L 291.143494 292.030187 
L 291.351273 292.030187 
L 291.468148 243.249086 
L 291.675927 243.249086 
L 291.792803 114.3574 
L 292.000582 114.3574 
L 292.117457 137.394529 
L 292.325236 137.394529 
L 292.442112 172.546217 
L 292.649891 172.546217 
L 292.766767 102.11707 
L 292.974545 102.11707 
L 293.091421 220.539064 
L 293.2992 220.539064 
L 293.416076 180.277225 
L 293.623855 180.277225 
L 293.74073 100.007422 
L 293.948509 100.007422 
L 294.065385 259.954376 
L 294.273164 259.954376 
L 294.390039 251.247855 
L 294.597818 251.247855 
L 294.714694 221.237541 
L 294.922473 221.237541 
L 295.039348 114.895499 
L 295.247127 114.895499 
L 295.364003 64.019842 
L 295.571782 64.019842 
L 295.688657 247.878916 
L 295.896436 247.878916 
L 296.013312 111.516941 
L 296.221091 111.516941 
L 296.337967 194.867268 
L 296.545745 194.867268 
L 296.662621 229.309218 
L 296.8704 229.309218 
L 296.987276 180.89815 
L 297.195055 180.89815 
L 297.31193 222.541168 
L 297.519709 222.541168 
L 297.636585 276.070063 
L 297.844364 276.070063 
L 297.961239 278.001648 
L 298.169018 278.001648 
L 298.285894 186.061793 
L 298.493673 186.061793 
L 298.610548 147.482069 
L 298.818327 147.482069 
L 298.935203 77.166125 
L 299.142982 77.166125 
L 299.259857 204.973577 
L 299.467636 204.973577 
L 299.584512 87.010932 
L 299.792291 87.010932 
L 299.909167 66.409832 
L 300.116945 66.409832 
L 300.233821 79.09253 
L 300.4416 79.09253 
L 300.558476 93.632868 
L 300.766255 93.632868 
L 300.88313 69.152687 
L 301.090909 69.152687 
L 301.207785 199.658687 
L 301.415564 199.658687 
L 301.532439 123.652287 
L 301.740218 123.652287 
L 301.857094 205.900244 
L 302.064873 205.900244 
L 302.181748 122.609314 
L 302.389527 122.609314 
L 302.506403 174.660651 
L 302.714182 174.660651 
L 302.831057 63.460121 
L 303.038836 63.460121 
L 303.155712 80.250577 
L 303.363491 80.250577 
L 303.480367 200.814731 
L 303.688145 200.814731 
L 303.805021 209.249931 
L 304.0128 209.249931 
L 304.129676 128.26144 
L 304.337455 128.26144 
L 304.45433 55.380403 
L 304.662109 55.380403 
L 304.778985 59.308404 
L 304.986764 59.308404 
L 305.103639 130.702214 
L 305.311418 130.702214 
L 305.428294 123.442044 
L 305.636073 123.442044 
L 305.752948 242.893416 
L 305.960727 242.893416 
L 306.077603 294.606531 
L 306.285382 294.606531 
L 306.402257 152.169616 
L 306.610036 152.169616 
L 306.726912 276.915474 
L 306.934691 276.915474 
L 307.051567 230.769298 
L 307.259345 230.769298 
L 307.376221 114.190161 
L 307.584 114.190161 
L 307.700876 223.785914 
L 307.908655 223.785914 
L 308.02553 85.041654 
L 308.233309 85.041654 
L 308.350185 209.677456 
L 308.557964 209.677456 
L 308.674839 129.444378 
L 308.882618 129.444378 
L 308.999494 235.235699 
L 309.207273 235.235699 
L 309.324148 234.747178 
L 309.531927 234.747178 
L 309.648803 121.620028 
L 309.856582 121.620028 
L 309.973457 287.910773 
L 310.181236 287.910773 
L 310.298112 221.862812 
L 310.505891 221.862812 
L 310.622767 131.425062 
L 310.830545 131.425062 
L 310.947421 100.949541 
L 311.1552 100.949541 
L 311.272076 219.040912 
L 311.479855 219.040912 
L 311.59673 231.8493 
L 311.804509 231.8493 
L 311.921385 66.918362 
L 312.129164 66.918362 
L 312.246039 105.348925 
L 312.453818 105.348925 
L 312.570694 186.823894 
L 312.778473 186.823894 
L 312.895348 152.11183 
L 313.103127 152.11183 
L 313.220003 119.878732 
L 313.427782 119.878732 
L 313.544657 213.837134 
L 313.752436 213.837134 
L 313.869312 91.294808 
L 314.077091 91.294808 
L 314.193967 133.704535 
L 314.401745 133.704535 
L 314.518621 127.11636 
L 314.7264 127.11636 
L 314.843276 203.58064 
L 315.051055 203.58064 
L 315.16793 198.809689 
L 315.375709 198.809689 
L 315.492585 105.914932 
L 315.700364 105.914932 
L 315.817239 251.913278 
L 316.025018 251.913278 
L 316.141894 185.854628 
L 316.349673 185.854628 
L 316.466548 78.275304 
L 316.674327 78.275304 
L 316.791203 276.466263 
L 316.998982 276.466263 
L 317.115857 295.042354 
L 317.323636 295.042354 
L 317.440512 209.657888 
L 317.648291 209.657888 
L 317.765167 158.632084 
L 317.972945 158.632084 
L 318.089821 112.969592 
L 318.2976 112.969592 
L 318.414476 271.767338 
L 318.622255 271.767338 
L 318.73913 133.675271 
L 318.946909 133.675271 
L 319.063785 128.347186 
L 319.271564 128.347186 
L 319.388439 210.844688 
L 319.596218 210.844688 
L 319.713094 280.848732 
L 319.920873 280.848732 
L 320.037748 78.336087 
L 320.245527 78.336087 
L 320.362403 89.951641 
L 320.570182 89.951641 
L 320.687057 262.641081 
L 320.894836 262.641081 
L 321.011712 231.635173 
L 321.219491 231.635173 
L 321.336367 199.302139 
L 321.544145 199.302139 
L 321.661021 194.561469 
L 321.8688 194.561469 
L 321.985676 271.581859 
L 322.193455 271.581859 
L 322.31033 116.356287 
L 322.518109 116.356287 
L 322.634985 60.207585 
L 322.842764 60.207585 
L 322.959639 123.657837 
L 323.167418 123.657837 
L 323.284294 174.256404 
L 323.492073 174.256404 
L 323.608948 87.785226 
L 323.816727 87.785226 
L 323.933603 269.836252 
L 324.141382 269.836252 
L 324.258257 251.308597 
L 324.466036 251.308597 
L 324.582912 277.271838 
L 324.790691 277.271838 
L 324.907567 92.787016 
L 325.115345 92.787016 
L 325.232221 178.773214 
L 325.44 178.773214 
L 325.556876 113.489522 
L 325.764655 113.489522 
L 325.88153 86.417221 
L 326.089309 86.417221 
L 326.206185 123.371293 
L 326.413964 123.371293 
L 326.530839 82.501899 
L 326.738618 82.501899 
L 326.855494 68.543317 
L 327.063273 68.543317 
L 327.180148 183.192196 
L 327.387927 183.192196 
L 327.504803 206.866542 
L 327.712582 206.866542 
L 327.829457 254.881124 
L 328.037236 254.881124 
L 328.154112 264.738151 
L 328.361891 264.738151 
L 328.478767 124.926772 
L 328.686545 124.926772 
L 328.803421 137.501065 
L 329.0112 137.501065 
L 329.128076 121.626802 
L 329.335855 121.626802 
L 329.45273 152.467218 
L 329.660509 152.467218 
L 329.777385 255.844082 
L 329.985164 255.844082 
L 330.102039 82.328787 
L 330.309818 82.328787 
L 330.426694 120.836139 
L 330.634473 120.836139 
L 330.751348 100.172931 
L 330.959127 100.172931 
L 331.076003 86.489256 
L 331.283782 86.489256 
L 331.400657 147.136287 
L 331.608436 147.136287 
L 331.725312 147.27887 
L 331.933091 147.27887 
L 332.049967 235.377982 
L 332.257745 235.377982 
L 332.374621 78.259703 
L 332.5824 78.259703 
L 332.699276 106.976729 
L 332.907055 106.976729 
L 333.02393 112.352177 
L 333.231709 112.352177 
L 333.348585 217.814327 
L 333.556364 217.814327 
L 333.673239 81.08272 
L 333.881018 81.08272 
L 333.997894 172.487169 
L 334.205673 172.487169 
L 334.322548 54.128428 
L 334.530327 54.128428 
L 334.647203 243.507371 
L 334.854982 243.507371 
L 334.971857 101.339352 
L 335.179636 101.339352 
L 335.296512 117.299217 
L 335.504291 117.299217 
L 335.621167 291.7895 
L 335.828945 291.7895 
L 335.945821 58.975508 
L 336.1536 58.975508 
L 336.270476 198.633328 
L 336.478255 198.633328 
L 336.59513 109.792657 
L 336.802909 109.792657 
L 336.919785 228.609454 
L 337.127564 228.609454 
L 337.244439 254.762616 
L 337.452218 254.762616 
L 337.569094 189.028604 
L 337.776873 189.028604 
L 337.893748 272.836304 
L 338.101527 272.836304 
L 338.218403 104.820473 
L 338.426182 104.820473 
L 338.543057 261.280071 
L 338.750836 261.280071 
L 338.867712 252.296316 
L 339.075491 252.296316 
L 339.192367 206.633558 
L 339.400145 206.633558 
L 339.517021 105.40988 
L 339.7248 105.40988 
L 339.841676 97.555458 
L 340.049455 97.555458 
L 340.16633 281.100183 
L 340.374109 281.100183 
L 340.490985 290.472486 
L 340.698764 290.472486 
L 340.815639 291.954927 
L 341.023418 291.954927 
L 341.140294 224.66762 
L 341.348073 224.66762 
L 341.464948 57.849544 
L 341.672727 57.849544 
L 341.789603 258.202646 
L 341.997382 258.202646 
L 342.114257 120.611155 
L 342.322036 120.611155 
L 342.438912 115.109705 
L 342.646691 115.109705 
L 342.763567 201.593778 
L 342.971345 201.593778 
L 343.088221 164.955693 
L 343.296 164.955693 
L 343.412876 145.126846 
L 343.620655 145.126846 
L 343.73753 76.660608 
L 343.945309 76.660608 
L 344.062185 138.36663 
L 344.269964 138.36663 
L 344.386839 97.951774 
L 344.594618 97.951774 
L 344.711494 125.300952 
L 344.919273 125.300952 
L 345.036148 62.82396 
L 345.243927 62.82396 
L 345.360803 123.827664 
L 345.568582 123.827664 
L 345.685457 269.616677 
L 345.893236 269.616677 
L 346.010112 144.039344 
L 346.217891 144.039344 
L 346.334767 187.027039 
L 346.542545 187.027039 
L 346.659421 76.635225 
L 346.8672 76.635225 
L 346.984076 83.131169 
L 347.191855 83.131169 
L 347.30873 158.654588 
L 347.516509 158.654588 
L 347.633385 229.356371 
L 347.841164 229.356371 
L 347.958039 82.583047 
L 348.165818 82.583047 
L 348.282694 284.682046 
L 348.490473 284.682046 
L 348.607348 126.78176 
L 348.815127 126.78176 
L 348.932003 139.321327 
L 349.139782 139.321327 
L 349.256657 224.385159 
L 349.464436 224.385159 
L 349.581312 273.147896 
L 349.789091 273.147896 
L 349.905967 173.782169 
L 350.113745 173.782169 
L 350.230621 182.199812 
L 350.4384 182.199812 
L 350.555276 181.050219 
L 350.763055 181.050219 
L 350.87993 223.331648 
L 351.087709 223.331648 
L 351.204585 247.229541 
L 351.412364 247.229541 
L 351.529239 87.433182 
L 351.737018 87.433182 
L 351.853894 288.047834 
L 352.061673 288.047834 
L 352.178548 54.06783 
L 352.386327 54.06783 
L 352.503203 142.877079 
L 352.710982 142.877079 
L 352.827857 253.759036 
L 353.035636 253.759036 
L 353.152512 234.74093 
L 353.360291 234.74093 
L 353.477167 145.861381 
L 353.684945 145.861381 
L 353.801821 293.964973 
L 354.0096 293.964973 
L 354.126476 108.273719 
L 354.334255 108.273719 
L 354.45113 277.467657 
L 354.658909 277.467657 
L 354.775785 183.091311 
L 354.983564 183.091311 
L 355.100439 199.987149 
L 355.308218 199.987149 
L 355.425094 141.934134 
L 355.632873 141.934134 
L 355.749748 132.550968 
L 355.957527 132.550968 
L 356.074403 106.910307 
L 356.282182 106.910307 
L 356.399057 171.015369 
L 356.606836 171.015369 
L 356.723712 238.452511 
L 356.931491 238.452511 
L 357.048367 149.656252 
L 357.256145 149.656252 
L 357.373021 211.063386 
L 357.5808 211.063386 
L 357.697676 290.357303 
L 357.905455 290.357303 
L 358.02233 63.20139 
L 358.230109 63.20139 
L 358.346985 251.039473 
L 358.554764 251.039473 
L 358.671639 242.604891 
L 358.879418 242.604891 
L 358.996294 278.821046 
L 359.204073 278.821046 
L 359.320948 241.398142 
L 359.528727 241.398142 
L 359.645603 113.828117 
L 359.853382 113.828117 
L 359.970257 186.213581 
L 360.178036 186.213581 
L 360.294912 139.351634 
L 360.502691 139.351634 
L 360.619567 224.671262 
L 360.827345 224.671262 
L 360.944221 111.477186 
L 361.152 111.477186 
L 361.268876 144.037016 
L 361.476655 144.037016 
L 361.59353 295.182955 
L 361.801309 295.182955 
L 361.918185 199.926477 
L 362.125964 199.926477 
L 362.242839 112.309479 
L 362.450618 112.309479 
L 362.567494 170.274114 
L 362.775273 170.274114 
L 362.892148 107.33147 
L 363.099927 107.33147 
L 363.216803 269.665153 
L 363.424582 269.665153 
L 363.541457 241.905844 
L 363.749236 241.905844 
L 363.866112 292.996264 
L 364.073891 292.996264 
L 364.190767 229.916917 
L 364.398545 229.916917 
L 364.515421 233.57857 
L 364.7232 233.57857 
L 364.840076 219.472468 
L 365.047855 219.472468 
L 365.16473 146.679756 
L 365.372509 146.679756 
L 365.489385 63.056491 
L 365.697164 63.056491 
L 365.814039 279.798397 
L 366.021818 279.798397 
L 366.138694 200.598157 
L 366.346473 200.598157 
L 366.463348 228.414808 
L 366.671127 228.414808 
L 366.788003 160.763206 
L 366.995782 160.763206 
L 367.112657 94.033269 
L 367.320436 94.033269 
L 367.437312 204.678417 
L 367.645091 204.678417 
L 367.761967 206.852815 
L 367.969745 206.852815 
L 368.086621 133.949403 
L 368.2944 133.949403 
L 368.411276 160.77831 
L 368.619055 160.77831 
L 368.73593 264.404603 
L 368.943709 264.404603 
L 369.060585 109.006605 
L 369.268364 109.006605 
L 369.385239 133.509907 
L 369.593018 133.509907 
L 369.709894 66.749576 
L 369.917673 66.749576 
L 370.034548 211.160207 
L 370.242327 211.160207 
L 370.359203 146.241619 
L 370.566982 146.241619 
L 370.683857 249.139543 
L 370.891636 249.139543 
L 371.008512 59.363247 
L 371.216291 59.363247 
L 371.333167 232.49154 
L 371.540945 232.49154 
L 371.657821 72.03618 
L 371.8656 72.03618 
L 371.982476 182.583692 
L 372.190255 182.583692 
L 372.30713 218.03468 
L 372.514909 218.03468 
L 372.631785 240.763918 
L 372.839564 240.763918 
L 372.956439 229.057284 
L 373.164218 229.057284 
L 373.281094 116.66202 
L 373.488873 116.66202 
L 373.605748 201.025036 
L 373.813527 201.025036 
L 373.930403 229.380543 
L 374.138182 229.380543 
L 374.255057 112.219787 
L 374.462836 112.219787 
L 374.579712 54.387396 
L 374.787491 54.387396 
L 374.904367 118.252983 
L 375.112145 118.252983 
L 375.229021 134.583867 
L 375.4368 134.583867 
L 375.553676 223.300795 
L 375.761455 223.300795 
L 375.87833 111.955493 
L 376.086109 111.955493 
L 376.202985 70.148739 
L 376.410764 70.148739 
L 376.527639 294.25237 
L 376.735418 294.25237 
L 376.852294 62.470174 
L 377.060073 62.470174 
L 377.176948 239.843698 
L 377.384727 239.843698 
L 377.501603 215.317058 
L 377.709382 215.317058 
L 377.826257 294.467035 
L 378.034036 294.467035 
L 378.150912 110.896119 
L 378.358691 110.896119 
L 378.475567 95.860077 
L 378.683345 95.860077 
L 378.800221 188.312348 
L 379.008 188.312348 
L 379.124876 275.153455 
L 379.332655 275.153455 
L 379.44953 287.657245 
L 379.657309 287.657245 
L 379.774185 228.810438 
L 379.981964 228.810438 
L 380.098839 292.088531 
L 380.306618 292.088531 
L 380.423494 189.714391 
L 380.631273 189.714391 
L 380.748148 280.832632 
L 380.955927 280.832632 
L 381.072803 222.768737 
L 381.280582 222.768737 
L 381.397457 293.756942 
L 381.605236 293.756942 
L 381.722112 187.959615 
L 381.929891 187.959615 
L 382.046767 224.309735 
L 382.254545 224.309735 
L 382.371421 249.852694 
L 382.5792 249.852694 
L 382.696076 149.611024 
L 382.903855 149.611024 
L 383.02073 89.210037 
L 383.228509 89.210037 
L 383.345385 53.634199 
L 383.553164 53.634199 
L 383.670039 248.297824 
L 383.877818 248.297824 
L 383.994694 58.433237 
L 384.202473 58.433237 
L 384.319348 232.715272 
L 384.527127 232.715272 
L 384.644003 90.547739 
L 384.851782 90.547739 
L 384.968657 219.801789 
L 385.176436 219.801789 
L 385.293312 68.608419 
L 385.501091 68.608419 
L 385.617967 270.798116 
L 385.825745 270.798116 
L 385.942621 104.883778 
L 386.1504 104.883778 
L 386.267276 256.676391 
L 386.475055 256.676391 
L 386.59193 156.932153 
L 386.799709 156.932153 
L 386.916585 208.436142 
L 387.124364 208.436142 
L 387.241239 134.954736 
L 387.449018 134.954736 
L 387.565894 195.57471 
L 387.773673 195.57471 
L 387.890548 125.04906 
L 388.098327 125.04906 
L 388.215203 88.059482 
L 388.422982 88.059482 
L 388.539857 258.090563 
L 388.747636 258.090563 
L 388.864512 243.909812 
L 389.072291 243.909812 
L 389.189167 282.542625 
L 389.396945 282.542625 
L 389.513821 98.103018 
L 389.7216 98.103018 
L 389.838476 280.317629 
L 390.046255 280.317629 
L 390.16313 184.649184 
L 390.370909 184.649184 
L 390.487785 132.030669 
L 390.695564 132.030669 
L 390.812439 175.185616 
L 391.020218 175.185616 
L 391.137094 147.92393 
L 391.344873 147.92393 
L 391.461748 134.424349 
L 391.669527 134.424349 
L 391.786403 237.573613 
L 391.994182 237.573613 
L 392.111057 276.201726 
L 392.318836 276.201726 
L 392.435712 81.983216 
L 392.643491 81.983216 
L 392.760367 177.911202 
L 392.968145 177.911202 
L 393.085021 149.191764 
L 393.2928 149.191764 
L 393.409676 138.233213 
L 393.617455 138.233213 
L 393.73433 161.910951 
L 393.942109 161.910951 
L 394.058985 140.706229 
L 394.266764 140.706229 
L 394.383639 140.003762 
L 394.591418 140.003762 
L 394.708294 232.048793 
L 394.916073 232.048793 
L 395.032948 97.404176 
L 395.240727 97.404176 
L 395.357603 227.300706 
L 395.565382 227.300706 
L 395.682257 66.776859 
L 395.890036 66.776859 
L 396.006912 97.776211 
L 396.214691 97.776211 
L 396.331567 95.154809 
L 396.539345 95.154809 
L 396.656221 250.362435 
L 396.864 250.362435 
L 396.980876 111.298948 
L 397.188655 111.298948 
L 397.30553 114.331378 
L 397.513309 114.331378 
L 397.630185 104.289609 
L 397.837964 104.289609 
L 397.954839 190.829614 
L 398.162618 190.829614 
L 398.279494 180.927239 
L 398.487273 180.927239 
L 398.487273 180.927239 
" style="fill:none;stroke:#000000;stroke-linecap:square;stroke-width:1.5;"/>
   </g>
   <g id="patch_3">
    <path d="M 57.6 307.584 
L 57.6 41.472 
" style="fill:none;stroke:#000000;stroke-linecap:square;stroke-linejoin:miter;stroke-width:0.8;"/>
   </g>
   <g id="patch_4">
    <path d="M 414.72 307.584 
L 414.72 41.472 
" style="fill:none;stroke:#000000;stroke-linecap:square;stroke-linejoin:miter;stroke-width:0.8;"/>
   </g>
   <g id="patch_5">
    <path d="M 57.6 307.584 
L 414.72 307.584 
" style="fill:none;stroke:#000000;stroke-linecap:square;stroke-linejoin:miter;stroke-width:0.8;"/>
   </g>
   <g id="patch_6">
    <path d="M 57.6 41.472 
L 414.72 41.472 
" style="fill:none;stroke:#000000;stroke-linecap:square;stroke-linejoin:miter;stroke-width:0.8;"/>
   </g>
   <g id="legend_1">
    <g id="patch_7">
     <path d="M 305.92 64.150125 
L 407.72 64.150125 
Q 409.72 64.150125 409.72 62.150125 
L 409.72 48.472 
Q 409.72 46.472 407.72 46.472 
L 305.92 46.472 
Q 303.92 46.472 303.92 48.472 
L 303.92 62.150125 
Q 303.92 64.150125 305.92 64.150125 
z
" style="fill:#ffffff;opacity:0.8;stroke:#cccccc;stroke-linejoin:miter;"/>
    </g>
    <g id="line2d_17">
     <path d="M 307.92 54.570438 
L 327.92 54.570438 
" style="fill:none;stroke:#000000;stroke-linecap:square;stroke-width:1.5;"/>
    </g>
    <g id="line2d_18"/>
    <g id="text_18">
     <!-- ControlValues -->
     <defs>
      <path d="M 28.609375 0 
L 0.78125 72.90625 
L 11.078125 72.90625 
L 34.1875 11.53125 
L 57.328125 72.90625 
L 67.578125 72.90625 
L 39.796875 0 
z
" id="DejaVuSans-56"/>
      <path d="M 34.28125 27.484375 
Q 23.390625 27.484375 19.1875 25 
Q 14.984375 22.515625 14.984375 16.5 
Q 14.984375 11.71875 18.140625 8.90625 
Q 21.296875 6.109375 26.703125 6.109375 
Q 34.1875 6.109375 38.703125 11.40625 
Q 43.21875 16.703125 43.21875 25.484375 
L 43.21875 27.484375 
z
M 52.203125 31.203125 
L 52.203125 0 
L 43.21875 0 
L 43.21875 8.296875 
Q 40.140625 3.328125 35.546875 0.953125 
Q 30.953125 -1.421875 24.3125 -1.421875 
Q 15.921875 -1.421875 10.953125 3.296875 
Q 6 8.015625 6 15.921875 
Q 6 25.140625 12.171875 29.828125 
Q 18.359375 34.515625 30.609375 34.515625 
L 43.21875 34.515625 
L 43.21875 35.40625 
Q 43.21875 41.609375 39.140625 45 
Q 35.0625 48.390625 27.6875 48.390625 
Q 23 48.390625 18.546875 47.265625 
Q 14.109375 46.140625 10.015625 43.890625 
L 10.015625 52.203125 
Q 14.9375 54.109375 19.578125 55.046875 
Q 24.21875 56 28.609375 56 
Q 40.484375 56 46.34375 49.84375 
Q 52.203125 43.703125 52.203125 31.203125 
z
" id="DejaVuSans-61"/>
      <path d="M 44.28125 53.078125 
L 44.28125 44.578125 
Q 40.484375 46.53125 36.375 47.5 
Q 32.28125 48.484375 27.875 48.484375 
Q 21.1875 48.484375 17.84375 46.4375 
Q 14.5 44.390625 14.5 40.28125 
Q 14.5 37.15625 16.890625 35.375 
Q 19.28125 33.59375 26.515625 31.984375 
L 29.59375 31.296875 
Q 39.15625 29.25 43.1875 25.515625 
Q 47.21875 21.78125 47.21875 15.09375 
Q 47.21875 7.46875 41.1875 3.015625 
Q 35.15625 -1.421875 24.609375 -1.421875 
Q 20.21875 -1.421875 15.453125 -0.5625 
Q 10.6875 0.296875 5.421875 2 
L 5.421875 11.28125 
Q 10.40625 8.6875 15.234375 7.390625 
Q 20.0625 6.109375 24.8125 6.109375 
Q 31.15625 6.109375 34.5625 8.28125 
Q 37.984375 10.453125 37.984375 14.40625 
Q 37.984375 18.0625 35.515625 20.015625 
Q 33.0625 21.96875 24.703125 23.78125 
L 21.578125 24.515625 
Q 13.234375 26.265625 9.515625 29.90625 
Q 5.8125 33.546875 5.8125 39.890625 
Q 5.8125 47.609375 11.28125 51.796875 
Q 16.75 56 26.8125 56 
Q 31.78125 56 36.171875 55.265625 
Q 40.578125 54.546875 44.28125 53.078125 
z
" id="DejaVuSans-73"/>
     </defs>
     <g transform="translate(335.92 58.070438)scale(0.1 -0.1)">
      <use xlink:href="#DejaVuSans-43"/>
      <use x="69.824219" xlink:href="#DejaVuSans-6f"/>
      <use x="131.005859" xlink:href="#DejaVuSans-6e"/>
      <use x="194.384766" xlink:href="#DejaVuSans-74"/>
      <use x="233.59375" xlink:href="#DejaVuSans-72"/>
      <use x="274.675781" xlink:href="#DejaVuSans-6f"/>
      <use x="335.857422" xlink:href="#DejaVuSans-6c"/>
      <use x="363.640625" xlink:href="#DejaVuSans-56"/>
      <use x="431.939453" xlink:href="#DejaVuSans-61"/>
      <use x="493.21875" xlink:href="#DejaVuSans-6c"/>
      <use x="521.001953" xlink:href="#DejaVuSans-75"/>
      <use x="584.380859" xlink:href="#DejaVuSans-65"/>
      <use x="645.904297" xlink:href="#DejaVuSans-73"/>
     </g>
    </g>
   </g>
  </g>
 </g>
 <defs>
  <clipPath id="pdb19e4f715">
   <rect height="266.112" width="357.12" x="57.6" y="41.472"/>
  </clipPath>
 </defs>
</svg>
