<?xml version="1.0" encoding="utf-8" standalone="no"?>
<!DOCTYPE svg PUBLIC "-//W3C//DTD SVG 1.1//EN"
  "http://www.w3.org/Graphics/SVG/1.1/DTD/svg11.dtd">
<!-- Created with matplotlib (http://matplotlib.org/) -->
<svg height="720pt" version="1.1" viewBox="0 0 1440 720" width="1440pt" xmlns="http://www.w3.org/2000/svg" xmlns:xlink="http://www.w3.org/1999/xlink">
 <defs>
  <style type="text/css">
*{stroke-linecap:butt;stroke-linejoin:round;}
  </style>
 </defs>
 <g id="figure_1">
  <g id="patch_1">
   <path d="M 0 720 
L 1440 720 
L 1440 0 
L 0 0 
z
" style="fill:#ffffff;"/>
  </g>
  <g id="axes_1">
   <g id="patch_2">
    <path d="M 180 206.921739 
L 1296 206.921739 
L 1296 86.4 
L 180 86.4 
z
" style="fill:#ffffff;"/>
   </g>
   <g id="matplotlib.axis_1">
    <g id="xtick_1">
     <g id="line2d_1">
      <defs>
       <path d="M 0 0 
L 0 3.5 
" id="mdfd4b0859e" style="stroke:#000000;stroke-width:0.8;"/>
      </defs>
      <g>
       <use style="stroke:#000000;stroke-width:0.8;" x="230.727273" xlink:href="#mdfd4b0859e" y="206.921739"/>
      </g>
     </g>
     <g id="text_1">
      <!-- 0 -->
      <defs>
       <path d="M 31.78125 66.40625 
Q 24.171875 66.40625 20.328125 58.90625 
Q 16.5 51.421875 16.5 36.375 
Q 16.5 21.390625 20.328125 13.890625 
Q 24.171875 6.390625 31.78125 6.390625 
Q 39.453125 6.390625 43.28125 13.890625 
Q 47.125 21.390625 47.125 36.375 
Q 47.125 51.421875 43.28125 58.90625 
Q 39.453125 66.40625 31.78125 66.40625 
z
M 31.78125 74.21875 
Q 44.046875 74.21875 50.515625 64.515625 
Q 56.984375 54.828125 56.984375 36.375 
Q 56.984375 17.96875 50.515625 8.265625 
Q 44.046875 -1.421875 31.78125 -1.421875 
Q 19.53125 -1.421875 13.0625 8.265625 
Q 6.59375 17.96875 6.59375 36.375 
Q 6.59375 54.828125 13.0625 64.515625 
Q 19.53125 74.21875 31.78125 74.21875 
z
" id="DejaVuSans-30"/>
      </defs>
      <g transform="translate(227.546023 221.520177)scale(0.1 -0.1)">
       <use xlink:href="#DejaVuSans-30"/>
      </g>
     </g>
    </g>
    <g id="xtick_2">
     <g id="line2d_2">
      <g>
       <use style="stroke:#000000;stroke-width:0.8;" x="358.182732" xlink:href="#mdfd4b0859e" y="206.921739"/>
      </g>
     </g>
     <g id="text_2">
      <!-- 25 -->
      <defs>
       <path d="M 19.1875 8.296875 
L 53.609375 8.296875 
L 53.609375 0 
L 7.328125 0 
L 7.328125 8.296875 
Q 12.9375 14.109375 22.625 23.890625 
Q 32.328125 33.6875 34.8125 36.53125 
Q 39.546875 41.84375 41.421875 45.53125 
Q 43.3125 49.21875 43.3125 52.78125 
Q 43.3125 58.59375 39.234375 62.25 
Q 35.15625 65.921875 28.609375 65.921875 
Q 23.96875 65.921875 18.8125 64.3125 
Q 13.671875 62.703125 7.8125 59.421875 
L 7.8125 69.390625 
Q 13.765625 71.78125 18.9375 73 
Q 24.125 74.21875 28.421875 74.21875 
Q 39.75 74.21875 46.484375 68.546875 
Q 53.21875 62.890625 53.21875 53.421875 
Q 53.21875 48.921875 51.53125 44.890625 
Q 49.859375 40.875 45.40625 35.40625 
Q 44.1875 33.984375 37.640625 27.21875 
Q 31.109375 20.453125 19.1875 8.296875 
z
" id="DejaVuSans-32"/>
       <path d="M 10.796875 72.90625 
L 49.515625 72.90625 
L 49.515625 64.59375 
L 19.828125 64.59375 
L 19.828125 46.734375 
Q 21.96875 47.46875 24.109375 47.828125 
Q 26.265625 48.1875 28.421875 48.1875 
Q 40.625 48.1875 47.75 41.5 
Q 54.890625 34.8125 54.890625 23.390625 
Q 54.890625 11.625 47.5625 5.09375 
Q 40.234375 -1.421875 26.90625 -1.421875 
Q 22.3125 -1.421875 17.546875 -0.640625 
Q 12.796875 0.140625 7.71875 1.703125 
L 7.71875 11.625 
Q 12.109375 9.234375 16.796875 8.0625 
Q 21.484375 6.890625 26.703125 6.890625 
Q 35.15625 6.890625 40.078125 11.328125 
Q 45.015625 15.765625 45.015625 23.390625 
Q 45.015625 31 40.078125 35.4375 
Q 35.15625 39.890625 26.703125 39.890625 
Q 22.75 39.890625 18.8125 39.015625 
Q 14.890625 38.140625 10.796875 36.28125 
z
" id="DejaVuSans-35"/>
      </defs>
      <g transform="translate(351.820232 221.520177)scale(0.1 -0.1)">
       <use xlink:href="#DejaVuSans-32"/>
       <use x="63.623047" xlink:href="#DejaVuSans-35"/>
      </g>
     </g>
    </g>
    <g id="xtick_3">
     <g id="line2d_3">
      <g>
       <use style="stroke:#000000;stroke-width:0.8;" x="485.638191" xlink:href="#mdfd4b0859e" y="206.921739"/>
      </g>
     </g>
     <g id="text_3">
      <!-- 50 -->
      <g transform="translate(479.275691 221.520177)scale(0.1 -0.1)">
       <use xlink:href="#DejaVuSans-35"/>
       <use x="63.623047" xlink:href="#DejaVuSans-30"/>
      </g>
     </g>
    </g>
    <g id="xtick_4">
     <g id="line2d_4">
      <g>
       <use style="stroke:#000000;stroke-width:0.8;" x="613.09365" xlink:href="#mdfd4b0859e" y="206.921739"/>
      </g>
     </g>
     <g id="text_4">
      <!-- 75 -->
      <defs>
       <path d="M 8.203125 72.90625 
L 55.078125 72.90625 
L 55.078125 68.703125 
L 28.609375 0 
L 18.3125 0 
L 43.21875 64.59375 
L 8.203125 64.59375 
z
" id="DejaVuSans-37"/>
      </defs>
      <g transform="translate(606.73115 221.520177)scale(0.1 -0.1)">
       <use xlink:href="#DejaVuSans-37"/>
       <use x="63.623047" xlink:href="#DejaVuSans-35"/>
      </g>
     </g>
    </g>
    <g id="xtick_5">
     <g id="line2d_5">
      <g>
       <use style="stroke:#000000;stroke-width:0.8;" x="740.549109" xlink:href="#mdfd4b0859e" y="206.921739"/>
      </g>
     </g>
     <g id="text_5">
      <!-- 100 -->
      <defs>
       <path d="M 12.40625 8.296875 
L 28.515625 8.296875 
L 28.515625 63.921875 
L 10.984375 60.40625 
L 10.984375 69.390625 
L 28.421875 72.90625 
L 38.28125 72.90625 
L 38.28125 8.296875 
L 54.390625 8.296875 
L 54.390625 0 
L 12.40625 0 
z
" id="DejaVuSans-31"/>
      </defs>
      <g transform="translate(731.005359 221.520177)scale(0.1 -0.1)">
       <use xlink:href="#DejaVuSans-31"/>
       <use x="63.623047" xlink:href="#DejaVuSans-30"/>
       <use x="127.246094" xlink:href="#DejaVuSans-30"/>
      </g>
     </g>
    </g>
    <g id="xtick_6">
     <g id="line2d_6">
      <g>
       <use style="stroke:#000000;stroke-width:0.8;" x="868.004568" xlink:href="#mdfd4b0859e" y="206.921739"/>
      </g>
     </g>
     <g id="text_6">
      <!-- 125 -->
      <g transform="translate(858.460818 221.520177)scale(0.1 -0.1)">
       <use xlink:href="#DejaVuSans-31"/>
       <use x="63.623047" xlink:href="#DejaVuSans-32"/>
       <use x="127.246094" xlink:href="#DejaVuSans-35"/>
      </g>
     </g>
    </g>
    <g id="xtick_7">
     <g id="line2d_7">
      <g>
       <use style="stroke:#000000;stroke-width:0.8;" x="995.460027" xlink:href="#mdfd4b0859e" y="206.921739"/>
      </g>
     </g>
     <g id="text_7">
      <!-- 150 -->
      <g transform="translate(985.916277 221.520177)scale(0.1 -0.1)">
       <use xlink:href="#DejaVuSans-31"/>
       <use x="63.623047" xlink:href="#DejaVuSans-35"/>
       <use x="127.246094" xlink:href="#DejaVuSans-30"/>
      </g>
     </g>
    </g>
    <g id="xtick_8">
     <g id="line2d_8">
      <g>
       <use style="stroke:#000000;stroke-width:0.8;" x="1122.915487" xlink:href="#mdfd4b0859e" y="206.921739"/>
      </g>
     </g>
     <g id="text_8">
      <!-- 175 -->
      <g transform="translate(1113.371737 221.520177)scale(0.1 -0.1)">
       <use xlink:href="#DejaVuSans-31"/>
       <use x="63.623047" xlink:href="#DejaVuSans-37"/>
       <use x="127.246094" xlink:href="#DejaVuSans-35"/>
      </g>
     </g>
    </g>
    <g id="xtick_9">
     <g id="line2d_9">
      <g>
       <use style="stroke:#000000;stroke-width:0.8;" x="1250.370946" xlink:href="#mdfd4b0859e" y="206.921739"/>
      </g>
     </g>
     <g id="text_9">
      <!-- 200 -->
      <g transform="translate(1240.827196 221.520177)scale(0.1 -0.1)">
       <use xlink:href="#DejaVuSans-32"/>
       <use x="63.623047" xlink:href="#DejaVuSans-30"/>
       <use x="127.246094" xlink:href="#DejaVuSans-30"/>
      </g>
     </g>
    </g>
   </g>
   <g id="matplotlib.axis_2">
    <g id="ytick_1">
     <g id="line2d_10">
      <defs>
       <path d="M 0 0 
L -3.5 0 
" id="m462c4035cb" style="stroke:#000000;stroke-width:0.8;"/>
      </defs>
      <g>
       <use style="stroke:#000000;stroke-width:0.8;" x="180" xlink:href="#m462c4035cb" y="194.254801"/>
      </g>
     </g>
     <g id="text_10">
      <!-- −10 -->
      <defs>
       <path d="M 10.59375 35.5 
L 73.1875 35.5 
L 73.1875 27.203125 
L 10.59375 27.203125 
z
" id="DejaVuSans-2212"/>
      </defs>
      <g transform="translate(151.895312 198.05402)scale(0.1 -0.1)">
       <use xlink:href="#DejaVuSans-2212"/>
       <use x="83.789062" xlink:href="#DejaVuSans-31"/>
       <use x="147.412109" xlink:href="#DejaVuSans-30"/>
      </g>
     </g>
    </g>
    <g id="ytick_2">
     <g id="line2d_11">
      <g>
       <use style="stroke:#000000;stroke-width:0.8;" x="180" xlink:href="#m462c4035cb" y="167.376576"/>
      </g>
     </g>
     <g id="text_11">
      <!-- −5 -->
      <g transform="translate(158.257812 171.175795)scale(0.1 -0.1)">
       <use xlink:href="#DejaVuSans-2212"/>
       <use x="83.789062" xlink:href="#DejaVuSans-35"/>
      </g>
     </g>
    </g>
    <g id="ytick_3">
     <g id="line2d_12">
      <g>
       <use style="stroke:#000000;stroke-width:0.8;" x="180" xlink:href="#m462c4035cb" y="140.498351"/>
      </g>
     </g>
     <g id="text_12">
      <!-- 0 -->
      <g transform="translate(166.6375 144.297569)scale(0.1 -0.1)">
       <use xlink:href="#DejaVuSans-30"/>
      </g>
     </g>
    </g>
    <g id="ytick_4">
     <g id="line2d_13">
      <g>
       <use style="stroke:#000000;stroke-width:0.8;" x="180" xlink:href="#m462c4035cb" y="113.620126"/>
      </g>
     </g>
     <g id="text_13">
      <!-- 5 -->
      <g transform="translate(166.6375 117.419344)scale(0.1 -0.1)">
       <use xlink:href="#DejaVuSans-35"/>
      </g>
     </g>
    </g>
    <g id="ytick_5">
     <g id="line2d_14">
      <g>
       <use style="stroke:#000000;stroke-width:0.8;" x="180" xlink:href="#m462c4035cb" y="86.741901"/>
      </g>
     </g>
     <g id="text_14">
      <!-- 10 -->
      <g transform="translate(160.275 90.541119)scale(0.1 -0.1)">
       <use xlink:href="#DejaVuSans-31"/>
       <use x="63.623047" xlink:href="#DejaVuSans-30"/>
      </g>
     </g>
    </g>
    <g id="text_15">
     <!-- TD State:0 -->
     <defs>
      <path d="M -0.296875 72.90625 
L 61.375 72.90625 
L 61.375 64.59375 
L 35.5 64.59375 
L 35.5 0 
L 25.59375 0 
L 25.59375 64.59375 
L -0.296875 64.59375 
z
" id="DejaVuSans-54"/>
      <path d="M 19.671875 64.796875 
L 19.671875 8.109375 
L 31.59375 8.109375 
Q 46.6875 8.109375 53.6875 14.9375 
Q 60.6875 21.78125 60.6875 36.53125 
Q 60.6875 51.171875 53.6875 57.984375 
Q 46.6875 64.796875 31.59375 64.796875 
z
M 9.8125 72.90625 
L 30.078125 72.90625 
Q 51.265625 72.90625 61.171875 64.09375 
Q 71.09375 55.28125 71.09375 36.53125 
Q 71.09375 17.671875 61.125 8.828125 
Q 51.171875 0 30.078125 0 
L 9.8125 0 
z
" id="DejaVuSans-44"/>
      <path id="DejaVuSans-20"/>
      <path d="M 53.515625 70.515625 
L 53.515625 60.890625 
Q 47.90625 63.578125 42.921875 64.890625 
Q 37.9375 66.21875 33.296875 66.21875 
Q 25.25 66.21875 20.875 63.09375 
Q 16.5 59.96875 16.5 54.203125 
Q 16.5 49.359375 19.40625 46.890625 
Q 22.3125 44.4375 30.421875 42.921875 
L 36.375 41.703125 
Q 47.40625 39.59375 52.65625 34.296875 
Q 57.90625 29 57.90625 20.125 
Q 57.90625 9.515625 50.796875 4.046875 
Q 43.703125 -1.421875 29.984375 -1.421875 
Q 24.8125 -1.421875 18.96875 -0.25 
Q 13.140625 0.921875 6.890625 3.21875 
L 6.890625 13.375 
Q 12.890625 10.015625 18.65625 8.296875 
Q 24.421875 6.59375 29.984375 6.59375 
Q 38.421875 6.59375 43.015625 9.90625 
Q 47.609375 13.234375 47.609375 19.390625 
Q 47.609375 24.75 44.3125 27.78125 
Q 41.015625 30.8125 33.5 32.328125 
L 27.484375 33.5 
Q 16.453125 35.6875 11.515625 40.375 
Q 6.59375 45.0625 6.59375 53.421875 
Q 6.59375 63.09375 13.40625 68.65625 
Q 20.21875 74.21875 32.171875 74.21875 
Q 37.3125 74.21875 42.625 73.28125 
Q 47.953125 72.359375 53.515625 70.515625 
z
" id="DejaVuSans-53"/>
      <path d="M 18.3125 70.21875 
L 18.3125 54.6875 
L 36.8125 54.6875 
L 36.8125 47.703125 
L 18.3125 47.703125 
L 18.3125 18.015625 
Q 18.3125 11.328125 20.140625 9.421875 
Q 21.96875 7.515625 27.59375 7.515625 
L 36.8125 7.515625 
L 36.8125 0 
L 27.59375 0 
Q 17.1875 0 13.234375 3.875 
Q 9.28125 7.765625 9.28125 18.015625 
L 9.28125 47.703125 
L 2.6875 47.703125 
L 2.6875 54.6875 
L 9.28125 54.6875 
L 9.28125 70.21875 
z
" id="DejaVuSans-74"/>
      <path d="M 34.28125 27.484375 
Q 23.390625 27.484375 19.1875 25 
Q 14.984375 22.515625 14.984375 16.5 
Q 14.984375 11.71875 18.140625 8.90625 
Q 21.296875 6.109375 26.703125 6.109375 
Q 34.1875 6.109375 38.703125 11.40625 
Q 43.21875 16.703125 43.21875 25.484375 
L 43.21875 27.484375 
z
M 52.203125 31.203125 
L 52.203125 0 
L 43.21875 0 
L 43.21875 8.296875 
Q 40.140625 3.328125 35.546875 0.953125 
Q 30.953125 -1.421875 24.3125 -1.421875 
Q 15.921875 -1.421875 10.953125 3.296875 
Q 6 8.015625 6 15.921875 
Q 6 25.140625 12.171875 29.828125 
Q 18.359375 34.515625 30.609375 34.515625 
L 43.21875 34.515625 
L 43.21875 35.40625 
Q 43.21875 41.609375 39.140625 45 
Q 35.0625 48.390625 27.6875 48.390625 
Q 23 48.390625 18.546875 47.265625 
Q 14.109375 46.140625 10.015625 43.890625 
L 10.015625 52.203125 
Q 14.9375 54.109375 19.578125 55.046875 
Q 24.21875 56 28.609375 56 
Q 40.484375 56 46.34375 49.84375 
Q 52.203125 43.703125 52.203125 31.203125 
z
" id="DejaVuSans-61"/>
      <path d="M 56.203125 29.59375 
L 56.203125 25.203125 
L 14.890625 25.203125 
Q 15.484375 15.921875 20.484375 11.0625 
Q 25.484375 6.203125 34.421875 6.203125 
Q 39.59375 6.203125 44.453125 7.46875 
Q 49.3125 8.734375 54.109375 11.28125 
L 54.109375 2.78125 
Q 49.265625 0.734375 44.1875 -0.34375 
Q 39.109375 -1.421875 33.890625 -1.421875 
Q 20.796875 -1.421875 13.15625 6.1875 
Q 5.515625 13.8125 5.515625 26.8125 
Q 5.515625 40.234375 12.765625 48.109375 
Q 20.015625 56 32.328125 56 
Q 43.359375 56 49.78125 48.890625 
Q 56.203125 41.796875 56.203125 29.59375 
z
M 47.21875 32.234375 
Q 47.125 39.59375 43.09375 43.984375 
Q 39.0625 48.390625 32.421875 48.390625 
Q 24.90625 48.390625 20.390625 44.140625 
Q 15.875 39.890625 15.1875 32.171875 
z
" id="DejaVuSans-65"/>
      <path d="M 11.71875 12.40625 
L 22.015625 12.40625 
L 22.015625 0 
L 11.71875 0 
z
M 11.71875 51.703125 
L 22.015625 51.703125 
L 22.015625 39.3125 
L 11.71875 39.3125 
z
" id="DejaVuSans-3a"/>
     </defs>
     <g transform="translate(145.815625 173.25462)rotate(-90)scale(0.1 -0.1)">
      <use xlink:href="#DejaVuSans-54"/>
      <use x="61.083984" xlink:href="#DejaVuSans-44"/>
      <use x="138.085938" xlink:href="#DejaVuSans-20"/>
      <use x="169.873047" xlink:href="#DejaVuSans-53"/>
      <use x="233.349609" xlink:href="#DejaVuSans-74"/>
      <use x="272.558594" xlink:href="#DejaVuSans-61"/>
      <use x="333.837891" xlink:href="#DejaVuSans-74"/>
      <use x="373.046875" xlink:href="#DejaVuSans-65"/>
      <use x="434.570312" xlink:href="#DejaVuSans-3a"/>
      <use x="468.261719" xlink:href="#DejaVuSans-30"/>
     </g>
    </g>
   </g>
   <g id="line2d_15">
    <path clip-path="url(#p9407405950)" d="M 230.727273 137.934747 
L 235.825491 102.138949 
L 240.923709 91.878261 
L 246.021928 156.925279 
L 251.120146 150.856055 
L 256.218365 146.602383 
L 261.316583 161.017349 
L 266.414801 153.448064 
L 271.51302 144.80318 
L 276.611238 123.707253 
L 281.709456 144.483318 
L 286.807675 129.734688 
L 291.905893 145.936825 
L 297.004111 143.205486 
L 302.10233 134.718332 
L 307.200548 156.655703 
L 312.298767 134.92239 
L 317.396985 160.927673 
L 322.495203 136.038782 
L 327.593422 132.513234 
L 332.69164 123.893145 
L 337.789858 136.955728 
L 342.888077 140.072466 
L 347.986295 132.090843 
L 353.084513 144.928051 
L 358.182732 138.756229 
L 363.28095 145.671693 
L 368.379169 136.554095 
L 373.477387 144.609825 
L 378.575605 148.385825 
L 383.673824 119.213557 
L 388.772042 137.856056 
L 393.87026 135.755858 
L 398.968479 119.148527 
L 404.066697 135.421401 
L 409.164915 136.187487 
L 414.263134 137.28444 
L 419.361352 142.873105 
L 424.459571 141.507417 
L 429.557789 135.731068 
L 434.656007 134.907769 
L 439.754226 152.10948 
L 444.852444 143.216753 
L 449.950662 96.469688 
L 455.048881 147.008916 
L 460.147099 132.115317 
L 465.245317 132.598574 
L 470.343536 136.553209 
L 475.441754 154.093906 
L 480.539973 145.445423 
L 485.638191 129.608636 
L 490.736409 141.624485 
L 495.834628 133.195131 
L 500.932846 117.177086 
L 506.031064 109.718526 
L 511.129283 157.704865 
L 516.227501 140.183708 
L 521.32572 138.302414 
L 526.423938 128.643576 
L 531.522156 112.254698 
L 536.620375 128.02273 
L 541.718593 145.672572 
L 546.816811 151.394418 
L 551.91503 151.258849 
L 557.013248 149.684799 
L 562.111466 133.074027 
L 567.209685 143.252346 
L 572.307903 171.724442 
L 577.406122 148.193603 
L 582.50434 133.175567 
L 587.602558 135.808057 
L 592.700777 127.031128 
L 597.798995 153.231271 
L 602.897213 102.033813 
L 607.995432 142.326545 
L 613.09365 149.035367 
L 618.191868 134.165647 
L 623.290087 135.688202 
L 628.388305 162.009405 
L 633.486524 145.641589 
L 638.584742 150.797465 
L 643.68296 140.5496 
L 648.781179 139.846281 
L 653.879397 126.998729 
L 658.977615 140.27611 
L 664.075834 149.817865 
L 669.174052 140.644252 
L 674.27227 145.864431 
L 679.370489 131.568839 
L 684.468707 141.633028 
L 689.566926 146.455904 
L 694.665144 135.707955 
L 699.763362 140.261233 
L 704.861581 145.307106 
L 709.959799 201.443478 
L 715.058017 145.486344 
L 720.156236 150.993875 
L 725.254454 142.495878 
L 730.352672 149.248757 
L 735.450891 189.942467 
L 740.549109 119.894362 
L 745.647328 166.058026 
L 750.745546 150.048699 
L 755.843764 169.982275 
L 760.941983 140.62048 
L 766.040201 142.899062 
L 771.138419 145.771357 
L 776.236638 132.40395 
L 781.334856 132.007554 
L 786.433074 137.570719 
L 791.531293 138.407882 
L 796.629511 157.3533 
L 801.72773 142.193192 
L 806.825948 146.775123 
L 811.924166 130.392296 
L 817.022385 140.0406 
L 822.120603 143.606276 
L 827.218821 128.347896 
L 832.31704 157.874562 
L 837.415258 143.659396 
L 842.513476 141.043014 
L 847.611695 133.144009 
L 852.709913 148.30834 
L 857.808132 149.603964 
L 862.90635 133.025106 
L 868.004568 146.208318 
L 873.102787 152.448242 
L 878.201005 139.03473 
L 883.299223 132.758592 
L 888.397442 145.896385 
L 893.49566 150.559493 
L 898.593878 142.262439 
L 903.692097 153.837311 
L 908.790315 157.764225 
L 913.888534 147.110964 
L 918.986752 151.703602 
L 924.08497 131.656002 
L 929.183189 148.396123 
L 934.281407 152.774689 
L 939.379625 135.272674 
L 944.477844 139.099521 
L 949.576062 128.407223 
L 954.67428 156.56994 
L 959.772499 145.549816 
L 964.870717 147.551875 
L 969.968936 135.911022 
L 975.067154 143.955001 
L 980.165372 147.276038 
L 985.263591 138.931525 
L 990.361809 151.823683 
L 995.460027 145.694446 
L 1000.558246 150.445383 
L 1005.656464 136.216849 
L 1010.754683 139.149493 
L 1015.852901 149.922033 
L 1020.951119 139.666322 
L 1026.049338 146.577378 
L 1031.147556 143.078509 
L 1036.245774 154.466002 
L 1041.343993 143.741846 
L 1046.442211 147.154351 
L 1051.540429 145.42111 
L 1056.638648 140.076516 
L 1061.736866 152.871051 
L 1066.835085 143.063667 
L 1071.933303 146.578533 
L 1082.12974 140.761217 
L 1087.227958 140.097459 
L 1092.326176 139.554657 
L 1097.424395 135.543195 
L 1102.522613 136.552409 
L 1107.620831 147.692685 
L 1112.71905 136.516974 
L 1117.817268 145.339703 
L 1122.915487 135.532164 
L 1133.111923 128.44628 
L 1138.210142 141.001031 
L 1143.30836 144.223306 
L 1148.406578 137.320567 
L 1153.504797 143.422782 
L 1158.603015 141.265687 
L 1163.701233 128.539616 
L 1168.799452 125.117278 
L 1173.89767 143.12774 
L 1178.995889 143.605852 
L 1189.192325 137.313154 
L 1194.290544 148.828075 
L 1199.388762 141.739864 
L 1204.48698 121.646268 
L 1209.585199 123.202155 
L 1214.683417 145.948921 
L 1219.781635 151.483677 
L 1224.879854 135.958622 
L 1229.978072 142.262996 
L 1235.076291 142.800403 
L 1240.174509 106.457738 
L 1245.272727 124.237343 
L 1245.272727 124.237343 
" style="fill:none;stroke:#000000;stroke-linecap:square;stroke-width:4;"/>
   </g>
   <g id="line2d_16">
    <path clip-path="url(#p9407405950)" d="M 230.727273 140.498351 
L 256.218365 140.390838 
L 261.316583 139.976913 
L 266.414801 171.687843 
L 271.51302 155.362009 
L 276.611238 139.670501 
L 281.709456 139.724258 
L 286.807675 142.331446 
L 291.905893 137.934168 
L 297.004111 142.831381 
L 302.10233 140.498351 
L 307.200548 127.45166 
L 312.298767 153.545041 
L 317.396985 135.197965 
L 322.495203 145.798737 
L 332.69164 135.122706 
L 337.789858 140.498351 
L 342.888077 119.624721 
L 347.986295 137.181578 
L 353.084513 143.186173 
L 358.182732 140.498351 
L 363.28095 140.498351 
L 368.379169 129.747061 
L 373.477387 140.498351 
L 383.673824 140.498351 
L 388.772042 137.810528 
L 393.87026 137.810528 
L 398.968479 140.498351 
L 409.164915 140.498351 
L 414.263134 137.810528 
L 419.361352 139.401719 
L 424.459571 138.90716 
L 429.557789 140.498351 
L 434.656007 140.498351 
L 439.754226 129.0321 
L 444.852444 141.213312 
L 449.950662 143.186173 
L 455.048881 140.498351 
L 470.343536 140.498351 
L 475.441754 135.122706 
L 480.539973 145.873996 
L 485.638191 138.955541 
L 490.736409 138.262082 
L 495.834628 140.433843 
L 500.932846 141.654114 
L 506.031064 137.810528 
L 511.129283 137.810528 
L 516.227501 143.186173 
L 521.32572 137.810528 
L 526.423938 140.498351 
L 531.522156 140.498351 
L 536.620375 142.035785 
L 541.718593 138.960916 
L 546.816811 136.36448 
L 551.91503 141.944399 
L 557.013248 137.810528 
L 562.111466 140.498351 
L 567.209685 140.498351 
L 572.307903 143.186173 
L 577.406122 137.810528 
L 587.602558 143.186173 
L 592.700777 144.530084 
L 597.798995 140.498351 
L 602.897213 139.154439 
L 607.995432 151.846337 
L 613.09365 139.057678 
L 618.191868 138.654504 
L 623.290087 140.498351 
L 628.388305 137.810528 
L 633.486524 140.498351 
L 648.781179 140.498351 
L 653.879397 145.873996 
L 658.977615 140.498351 
L 664.075834 140.498351 
L 669.174052 137.810528 
L 674.27227 140.498351 
L 679.370489 140.498351 
L 684.468707 143.186173 
L 689.566926 140.498351 
L 694.665144 140.498351 
L 699.763362 135.122706 
L 704.861581 140.498351 
L 709.959799 156.625286 
L 715.058017 137.638508 
L 720.156236 142.283065 
L 725.254454 139.347963 
L 730.352672 141.444464 
L 735.450891 134.579766 
L 740.549109 141.422962 
L 745.647328 141.482094 
L 750.745546 140.498351 
L 755.843764 114.937159 
L 760.941983 138.396474 
L 766.040201 126.355029 
L 771.138419 171.150279 
L 776.236638 140.046797 
L 781.334856 142.062663 
L 786.433074 137.799777 
L 791.531293 143.309813 
L 796.629511 140.498351 
L 801.72773 126.688319 
L 806.825948 140.498351 
L 811.924166 140.498351 
L 817.022385 148.024254 
L 822.120603 137.810528 
L 827.218821 140.498351 
L 832.31704 140.498351 
L 837.415258 119.028025 
L 842.513476 141.627236 
L 847.611695 138.358844 
L 852.709913 141.928272 
L 857.808132 139.127561 
L 862.90635 140.062923 
L 868.004568 142.632482 
L 873.102787 142.406705 
L 878.201005 140.498351 
L 883.299223 129.747061 
L 888.397442 140.498351 
L 893.49566 140.498351 
L 898.593878 143.186173 
L 903.692097 137.810528 
L 908.790315 140.498351 
L 913.888534 140.498351 
L 918.986752 143.186173 
L 924.08497 137.810528 
L 929.183189 140.234944 
L 934.281407 140.944529 
L 939.379625 140.052172 
L 944.477844 145.400939 
L 949.576062 135.230219 
L 954.67428 143.815124 
L 959.772499 140.498351 
L 980.165372 140.498351 
L 985.263591 137.348223 
L 990.361809 143.648479 
L 995.460027 140.498351 
L 1020.951119 140.498351 
L 1026.049338 143.186173 
L 1031.147556 140.310203 
L 1041.343993 140.498351 
L 1046.442211 140.299452 
L 1051.540429 138.342717 
L 1056.638648 142.476588 
L 1061.736866 140.664996 
L 1066.835085 136.902044 
L 1071.933303 139.530735 
L 1077.031521 140.229568 
L 1082.12974 137.810528 
L 1087.227958 144.363439 
L 1092.326176 136.633262 
L 1097.424395 140.498351 
L 1102.522613 127.059238 
L 1107.620831 140.498351 
L 1133.111923 140.498351 
L 1138.210142 139.772639 
L 1143.30836 140.342457 
L 1153.504797 140.53598 
L 1158.603015 140.159685 
L 1163.701233 136.342977 
L 1168.799452 139.589867 
L 1173.89767 138.719012 
L 1178.995889 140.498351 
L 1184.094107 136.762277 
L 1189.192325 144.234424 
L 1194.290544 140.498351 
L 1199.388762 136.525749 
L 1204.48698 140.578985 
L 1209.585199 128.263383 
L 1214.683417 140.175812 
L 1219.781635 136.703145 
L 1224.879854 140.385462 
L 1229.978072 142.820629 
L 1235.076291 142.406705 
L 1240.174509 140.498351 
L 1245.272727 140.498351 
L 1245.272727 140.498351 
" style="fill:none;stroke:#ff0000;stroke-linecap:square;stroke-width:1.5;"/>
   </g>
   <g id="patch_3">
    <path d="M 180 206.921739 
L 180 86.4 
" style="fill:none;stroke:#000000;stroke-linecap:square;stroke-linejoin:miter;stroke-width:0.8;"/>
   </g>
   <g id="patch_4">
    <path d="M 1296 206.921739 
L 1296 86.4 
" style="fill:none;stroke:#000000;stroke-linecap:square;stroke-linejoin:miter;stroke-width:0.8;"/>
   </g>
   <g id="patch_5">
    <path d="M 180 206.921739 
L 1296 206.921739 
" style="fill:none;stroke:#000000;stroke-linecap:square;stroke-linejoin:miter;stroke-width:0.8;"/>
   </g>
   <g id="patch_6">
    <path d="M 180 86.4 
L 1296 86.4 
" style="fill:none;stroke:#000000;stroke-linecap:square;stroke-linejoin:miter;stroke-width:0.8;"/>
   </g>
   <g id="legend_1">
    <g id="patch_7">
     <path d="M 1234.3125 123.75625 
L 1289 123.75625 
Q 1291 123.75625 1291 121.75625 
L 1291 93.4 
Q 1291 91.4 1289 91.4 
L 1234.3125 91.4 
Q 1232.3125 91.4 1232.3125 93.4 
L 1232.3125 121.75625 
Q 1232.3125 123.75625 1234.3125 123.75625 
z
" style="fill:#ffffff;opacity:0.8;stroke:#cccccc;stroke-linejoin:miter;"/>
    </g>
    <g id="line2d_17">
     <path d="M 1236.3125 99.498438 
L 1256.3125 99.498438 
" style="fill:none;stroke:#000000;stroke-linecap:square;stroke-width:4;"/>
    </g>
    <g id="line2d_18"/>
    <g id="text_16">
     <!-- Pred -->
     <defs>
      <path d="M 19.671875 64.796875 
L 19.671875 37.40625 
L 32.078125 37.40625 
Q 38.96875 37.40625 42.71875 40.96875 
Q 46.484375 44.53125 46.484375 51.125 
Q 46.484375 57.671875 42.71875 61.234375 
Q 38.96875 64.796875 32.078125 64.796875 
z
M 9.8125 72.90625 
L 32.078125 72.90625 
Q 44.34375 72.90625 50.609375 67.359375 
Q 56.890625 61.8125 56.890625 51.125 
Q 56.890625 40.328125 50.609375 34.8125 
Q 44.34375 29.296875 32.078125 29.296875 
L 19.671875 29.296875 
L 19.671875 0 
L 9.8125 0 
z
" id="DejaVuSans-50"/>
      <path d="M 41.109375 46.296875 
Q 39.59375 47.171875 37.8125 47.578125 
Q 36.03125 48 33.890625 48 
Q 26.265625 48 22.1875 43.046875 
Q 18.109375 38.09375 18.109375 28.8125 
L 18.109375 0 
L 9.078125 0 
L 9.078125 54.6875 
L 18.109375 54.6875 
L 18.109375 46.1875 
Q 20.953125 51.171875 25.484375 53.578125 
Q 30.03125 56 36.53125 56 
Q 37.453125 56 38.578125 55.875 
Q 39.703125 55.765625 41.0625 55.515625 
z
" id="DejaVuSans-72"/>
      <path d="M 45.40625 46.390625 
L 45.40625 75.984375 
L 54.390625 75.984375 
L 54.390625 0 
L 45.40625 0 
L 45.40625 8.203125 
Q 42.578125 3.328125 38.25 0.953125 
Q 33.9375 -1.421875 27.875 -1.421875 
Q 17.96875 -1.421875 11.734375 6.484375 
Q 5.515625 14.40625 5.515625 27.296875 
Q 5.515625 40.1875 11.734375 48.09375 
Q 17.96875 56 27.875 56 
Q 33.9375 56 38.25 53.625 
Q 42.578125 51.265625 45.40625 46.390625 
z
M 14.796875 27.296875 
Q 14.796875 17.390625 18.875 11.75 
Q 22.953125 6.109375 30.078125 6.109375 
Q 37.203125 6.109375 41.296875 11.75 
Q 45.40625 17.390625 45.40625 27.296875 
Q 45.40625 37.203125 41.296875 42.84375 
Q 37.203125 48.484375 30.078125 48.484375 
Q 22.953125 48.484375 18.875 42.84375 
Q 14.796875 37.203125 14.796875 27.296875 
z
" id="DejaVuSans-64"/>
     </defs>
     <g transform="translate(1264.3125 102.998438)scale(0.1 -0.1)">
      <use xlink:href="#DejaVuSans-50"/>
      <use x="60.287109" xlink:href="#DejaVuSans-72"/>
      <use x="101.369141" xlink:href="#DejaVuSans-65"/>
      <use x="162.892578" xlink:href="#DejaVuSans-64"/>
     </g>
    </g>
    <g id="line2d_19">
     <path d="M 1236.3125 114.176563 
L 1256.3125 114.176563 
" style="fill:none;stroke:#ff0000;stroke-linecap:square;stroke-width:1.5;"/>
    </g>
    <g id="line2d_20"/>
    <g id="text_17">
     <!-- True -->
     <defs>
      <path d="M 8.5 21.578125 
L 8.5 54.6875 
L 17.484375 54.6875 
L 17.484375 21.921875 
Q 17.484375 14.15625 20.5 10.265625 
Q 23.53125 6.390625 29.59375 6.390625 
Q 36.859375 6.390625 41.078125 11.03125 
Q 45.3125 15.671875 45.3125 23.6875 
L 45.3125 54.6875 
L 54.296875 54.6875 
L 54.296875 0 
L 45.3125 0 
L 45.3125 8.40625 
Q 42.046875 3.421875 37.71875 1 
Q 33.40625 -1.421875 27.6875 -1.421875 
Q 18.265625 -1.421875 13.375 4.4375 
Q 8.5 10.296875 8.5 21.578125 
z
M 31.109375 56 
z
" id="DejaVuSans-75"/>
     </defs>
     <g transform="translate(1264.3125 117.676563)scale(0.1 -0.1)">
      <use xlink:href="#DejaVuSans-54"/>
      <use x="60.865234" xlink:href="#DejaVuSans-72"/>
      <use x="101.978516" xlink:href="#DejaVuSans-75"/>
      <use x="165.357422" xlink:href="#DejaVuSans-65"/>
     </g>
    </g>
   </g>
  </g>
  <g id="axes_2">
   <g id="patch_8">
    <path d="M 180 351.547826 
L 1296 351.547826 
L 1296 231.026087 
L 180 231.026087 
z
" style="fill:#ffffff;"/>
   </g>
   <g id="matplotlib.axis_3">
    <g id="xtick_10">
     <g id="line2d_21">
      <g>
       <use style="stroke:#000000;stroke-width:0.8;" x="230.727273" xlink:href="#mdfd4b0859e" y="351.547826"/>
      </g>
     </g>
     <g id="text_18">
      <!-- 0 -->
      <g transform="translate(227.546023 366.146264)scale(0.1 -0.1)">
       <use xlink:href="#DejaVuSans-30"/>
      </g>
     </g>
    </g>
    <g id="xtick_11">
     <g id="line2d_22">
      <g>
       <use style="stroke:#000000;stroke-width:0.8;" x="358.182732" xlink:href="#mdfd4b0859e" y="351.547826"/>
      </g>
     </g>
     <g id="text_19">
      <!-- 25 -->
      <g transform="translate(351.820232 366.146264)scale(0.1 -0.1)">
       <use xlink:href="#DejaVuSans-32"/>
       <use x="63.623047" xlink:href="#DejaVuSans-35"/>
      </g>
     </g>
    </g>
    <g id="xtick_12">
     <g id="line2d_23">
      <g>
       <use style="stroke:#000000;stroke-width:0.8;" x="485.638191" xlink:href="#mdfd4b0859e" y="351.547826"/>
      </g>
     </g>
     <g id="text_20">
      <!-- 50 -->
      <g transform="translate(479.275691 366.146264)scale(0.1 -0.1)">
       <use xlink:href="#DejaVuSans-35"/>
       <use x="63.623047" xlink:href="#DejaVuSans-30"/>
      </g>
     </g>
    </g>
    <g id="xtick_13">
     <g id="line2d_24">
      <g>
       <use style="stroke:#000000;stroke-width:0.8;" x="613.09365" xlink:href="#mdfd4b0859e" y="351.547826"/>
      </g>
     </g>
     <g id="text_21">
      <!-- 75 -->
      <g transform="translate(606.73115 366.146264)scale(0.1 -0.1)">
       <use xlink:href="#DejaVuSans-37"/>
       <use x="63.623047" xlink:href="#DejaVuSans-35"/>
      </g>
     </g>
    </g>
    <g id="xtick_14">
     <g id="line2d_25">
      <g>
       <use style="stroke:#000000;stroke-width:0.8;" x="740.549109" xlink:href="#mdfd4b0859e" y="351.547826"/>
      </g>
     </g>
     <g id="text_22">
      <!-- 100 -->
      <g transform="translate(731.005359 366.146264)scale(0.1 -0.1)">
       <use xlink:href="#DejaVuSans-31"/>
       <use x="63.623047" xlink:href="#DejaVuSans-30"/>
       <use x="127.246094" xlink:href="#DejaVuSans-30"/>
      </g>
     </g>
    </g>
    <g id="xtick_15">
     <g id="line2d_26">
      <g>
       <use style="stroke:#000000;stroke-width:0.8;" x="868.004568" xlink:href="#mdfd4b0859e" y="351.547826"/>
      </g>
     </g>
     <g id="text_23">
      <!-- 125 -->
      <g transform="translate(858.460818 366.146264)scale(0.1 -0.1)">
       <use xlink:href="#DejaVuSans-31"/>
       <use x="63.623047" xlink:href="#DejaVuSans-32"/>
       <use x="127.246094" xlink:href="#DejaVuSans-35"/>
      </g>
     </g>
    </g>
    <g id="xtick_16">
     <g id="line2d_27">
      <g>
       <use style="stroke:#000000;stroke-width:0.8;" x="995.460027" xlink:href="#mdfd4b0859e" y="351.547826"/>
      </g>
     </g>
     <g id="text_24">
      <!-- 150 -->
      <g transform="translate(985.916277 366.146264)scale(0.1 -0.1)">
       <use xlink:href="#DejaVuSans-31"/>
       <use x="63.623047" xlink:href="#DejaVuSans-35"/>
       <use x="127.246094" xlink:href="#DejaVuSans-30"/>
      </g>
     </g>
    </g>
    <g id="xtick_17">
     <g id="line2d_28">
      <g>
       <use style="stroke:#000000;stroke-width:0.8;" x="1122.915487" xlink:href="#mdfd4b0859e" y="351.547826"/>
      </g>
     </g>
     <g id="text_25">
      <!-- 175 -->
      <g transform="translate(1113.371737 366.146264)scale(0.1 -0.1)">
       <use xlink:href="#DejaVuSans-31"/>
       <use x="63.623047" xlink:href="#DejaVuSans-37"/>
       <use x="127.246094" xlink:href="#DejaVuSans-35"/>
      </g>
     </g>
    </g>
    <g id="xtick_18">
     <g id="line2d_29">
      <g>
       <use style="stroke:#000000;stroke-width:0.8;" x="1250.370946" xlink:href="#mdfd4b0859e" y="351.547826"/>
      </g>
     </g>
     <g id="text_26">
      <!-- 200 -->
      <g transform="translate(1240.827196 366.146264)scale(0.1 -0.1)">
       <use xlink:href="#DejaVuSans-32"/>
       <use x="63.623047" xlink:href="#DejaVuSans-30"/>
       <use x="127.246094" xlink:href="#DejaVuSans-30"/>
      </g>
     </g>
    </g>
   </g>
   <g id="matplotlib.axis_4">
    <g id="ytick_6">
     <g id="line2d_30">
      <g>
       <use style="stroke:#000000;stroke-width:0.8;" x="180" xlink:href="#m462c4035cb" y="335.670753"/>
      </g>
     </g>
     <g id="text_27">
      <!-- −30 -->
      <defs>
       <path d="M 40.578125 39.3125 
Q 47.65625 37.796875 51.625 33 
Q 55.609375 28.21875 55.609375 21.1875 
Q 55.609375 10.40625 48.1875 4.484375 
Q 40.765625 -1.421875 27.09375 -1.421875 
Q 22.515625 -1.421875 17.65625 -0.515625 
Q 12.796875 0.390625 7.625 2.203125 
L 7.625 11.71875 
Q 11.71875 9.328125 16.59375 8.109375 
Q 21.484375 6.890625 26.8125 6.890625 
Q 36.078125 6.890625 40.9375 10.546875 
Q 45.796875 14.203125 45.796875 21.1875 
Q 45.796875 27.640625 41.28125 31.265625 
Q 36.765625 34.90625 28.71875 34.90625 
L 20.21875 34.90625 
L 20.21875 43.015625 
L 29.109375 43.015625 
Q 36.375 43.015625 40.234375 45.921875 
Q 44.09375 48.828125 44.09375 54.296875 
Q 44.09375 59.90625 40.109375 62.90625 
Q 36.140625 65.921875 28.71875 65.921875 
Q 24.65625 65.921875 20.015625 65.03125 
Q 15.375 64.15625 9.8125 62.3125 
L 9.8125 71.09375 
Q 15.4375 72.65625 20.34375 73.4375 
Q 25.25 74.21875 29.59375 74.21875 
Q 40.828125 74.21875 47.359375 69.109375 
Q 53.90625 64.015625 53.90625 55.328125 
Q 53.90625 49.265625 50.4375 45.09375 
Q 46.96875 40.921875 40.578125 39.3125 
z
" id="DejaVuSans-33"/>
      </defs>
      <g transform="translate(151.895312 339.469972)scale(0.1 -0.1)">
       <use xlink:href="#DejaVuSans-2212"/>
       <use x="83.789062" xlink:href="#DejaVuSans-33"/>
       <use x="147.412109" xlink:href="#DejaVuSans-30"/>
      </g>
     </g>
    </g>
    <g id="ytick_7">
     <g id="line2d_31">
      <g>
       <use style="stroke:#000000;stroke-width:0.8;" x="180" xlink:href="#m462c4035cb" y="311.145254"/>
      </g>
     </g>
     <g id="text_28">
      <!-- −20 -->
      <g transform="translate(151.895312 314.944472)scale(0.1 -0.1)">
       <use xlink:href="#DejaVuSans-2212"/>
       <use x="83.789062" xlink:href="#DejaVuSans-32"/>
       <use x="147.412109" xlink:href="#DejaVuSans-30"/>
      </g>
     </g>
    </g>
    <g id="ytick_8">
     <g id="line2d_32">
      <g>
       <use style="stroke:#000000;stroke-width:0.8;" x="180" xlink:href="#m462c4035cb" y="286.619754"/>
      </g>
     </g>
     <g id="text_29">
      <!-- −10 -->
      <g transform="translate(151.895312 290.418973)scale(0.1 -0.1)">
       <use xlink:href="#DejaVuSans-2212"/>
       <use x="83.789062" xlink:href="#DejaVuSans-31"/>
       <use x="147.412109" xlink:href="#DejaVuSans-30"/>
      </g>
     </g>
    </g>
    <g id="ytick_9">
     <g id="line2d_33">
      <g>
       <use style="stroke:#000000;stroke-width:0.8;" x="180" xlink:href="#m462c4035cb" y="262.094254"/>
      </g>
     </g>
     <g id="text_30">
      <!-- 0 -->
      <g transform="translate(166.6375 265.893473)scale(0.1 -0.1)">
       <use xlink:href="#DejaVuSans-30"/>
      </g>
     </g>
    </g>
    <g id="ytick_10">
     <g id="line2d_34">
      <g>
       <use style="stroke:#000000;stroke-width:0.8;" x="180" xlink:href="#m462c4035cb" y="237.568755"/>
      </g>
     </g>
     <g id="text_31">
      <!-- 10 -->
      <g transform="translate(160.275 241.367973)scale(0.1 -0.1)">
       <use xlink:href="#DejaVuSans-31"/>
       <use x="63.623047" xlink:href="#DejaVuSans-30"/>
      </g>
     </g>
    </g>
    <g id="text_32">
     <!-- TD State:1 -->
     <g transform="translate(145.815625 317.880707)rotate(-90)scale(0.1 -0.1)">
      <use xlink:href="#DejaVuSans-54"/>
      <use x="61.083984" xlink:href="#DejaVuSans-44"/>
      <use x="138.085938" xlink:href="#DejaVuSans-20"/>
      <use x="169.873047" xlink:href="#DejaVuSans-53"/>
      <use x="233.349609" xlink:href="#DejaVuSans-74"/>
      <use x="272.558594" xlink:href="#DejaVuSans-61"/>
      <use x="333.837891" xlink:href="#DejaVuSans-74"/>
      <use x="373.046875" xlink:href="#DejaVuSans-65"/>
      <use x="434.570312" xlink:href="#DejaVuSans-3a"/>
      <use x="468.261719" xlink:href="#DejaVuSans-31"/>
     </g>
    </g>
   </g>
   <g id="line2d_35">
    <path clip-path="url(#pff2dfeab9d)" d="M 230.727273 257.898141 
L 235.825491 241.128701 
L 240.923709 274.319001 
L 246.021928 256.232871 
L 251.120146 259.997652 
L 256.218365 262.227811 
L 261.316583 264.961187 
L 266.414801 261.020125 
L 271.51302 264.715043 
L 276.611238 252.697757 
L 281.709456 269.381279 
L 286.807675 259.092171 
L 291.905893 266.850872 
L 297.004111 263.543199 
L 302.10233 254.717513 
L 307.200548 270.364297 
L 312.298767 264.286896 
L 317.396985 262.077462 
L 322.495203 266.682844 
L 327.593422 268.087141 
L 332.69164 254.601188 
L 337.789858 263.678959 
L 342.888077 278.453426 
L 347.986295 244.845556 
L 353.084513 263.029855 
L 358.182732 264.24045 
L 363.28095 264.842707 
L 368.379169 269.19164 
L 373.477387 263.12866 
L 378.575605 265.225569 
L 383.673824 273.284686 
L 388.772042 266.498622 
L 393.87026 270.221702 
L 398.968479 282.604214 
L 404.066697 267.806914 
L 409.164915 267.422162 
L 414.263134 269.001225 
L 419.361352 257.923241 
L 424.459571 254.139149 
L 429.557789 267.45804 
L 434.656007 266.433791 
L 439.754226 278.87723 
L 444.852444 262.557319 
L 449.950662 299.912362 
L 455.048881 255.979962 
L 460.147099 281.502211 
L 465.245317 268.935104 
L 470.343536 266.206895 
L 475.441754 274.488771 
L 480.539973 255.87518 
L 485.638191 278.836374 
L 490.736409 263.208438 
L 495.834628 287.563072 
L 500.932846 286.854669 
L 506.031064 240.68842 
L 511.129283 274.937985 
L 516.227501 259.59853 
L 521.32572 275.547682 
L 526.423938 276.459103 
L 531.522156 279.213061 
L 536.620375 260.097128 
L 541.718593 263.991527 
L 546.816811 276.390821 
L 551.91503 252.828051 
L 557.013248 278.131811 
L 562.111466 265.783585 
L 567.209685 257.903207 
L 572.307903 289.818024 
L 577.406122 248.313176 
L 582.50434 254.019169 
L 587.602558 273.755559 
L 592.700777 301.571576 
L 597.798995 263.960273 
L 602.897213 301.852548 
L 607.995432 266.293391 
L 613.09365 259.853144 
L 618.191868 279.022474 
L 623.290087 266.876318 
L 628.388305 279.099501 
L 633.486524 261.390972 
L 638.584742 273.624893 
L 643.68296 261.840489 
L 648.781179 265.211078 
L 653.879397 285.816421 
L 658.977615 263.656826 
L 664.075834 285.321063 
L 669.174052 264.259307 
L 674.27227 268.941883 
L 679.370489 260.856044 
L 684.468707 272.667357 
L 689.566926 262.667629 
L 694.665144 282.667763 
L 699.763362 268.282067 
L 704.861581 259.132952 
L 709.959799 306.6821 
L 715.058017 262.776283 
L 720.156236 275.273585 
L 725.254454 274.027623 
L 730.352672 270.096338 
L 735.450891 297.990046 
L 740.549109 282.143186 
L 745.647328 300.127072 
L 750.745546 275.735601 
L 755.843764 289.710655 
L 760.941983 261.238668 
L 766.040201 286.72803 
L 771.138419 252.897029 
L 776.236638 287.102996 
L 781.334856 261.254464 
L 786.433074 266.235134 
L 791.531293 268.485573 
L 796.629511 293.979776 
L 801.72773 270.958802 
L 806.825948 260.337481 
L 811.924166 256.887554 
L 822.120603 266.564369 
L 827.218821 263.826603 
L 832.31704 281.603881 
L 837.415258 271.782057 
L 842.513476 266.72128 
L 847.611695 295.170001 
L 852.709913 260.908023 
L 857.808132 273.263465 
L 862.90635 260.484659 
L 868.004568 267.163152 
L 873.102787 281.445598 
L 878.201005 281.15925 
L 883.299223 292.008541 
L 888.397442 261.658006 
L 893.49566 270.88335 
L 898.593878 264.941501 
L 903.692097 272.854956 
L 908.790315 275.409242 
L 913.888534 268.095587 
L 918.986752 298.172553 
L 924.08497 289.65668 
L 929.183189 261.080925 
L 934.281407 276.183986 
L 939.379625 261.53583 
L 944.477844 267.001711 
L 949.576062 263.925313 
L 954.67428 276.381993 
L 959.772499 260.426208 
L 964.870717 277.988429 
L 969.968936 261.618271 
L 975.067154 269.468534 
L 980.165372 273.622022 
L 985.263591 265.026921 
L 990.361809 281.073978 
L 995.460027 260.696983 
L 1000.558246 274.180595 
L 1005.656464 262.308574 
L 1010.754683 266.699584 
L 1015.852901 272.55532 
L 1020.951119 265.533203 
L 1026.049338 284.765702 
L 1031.147556 261.858988 
L 1036.245774 275.902029 
L 1041.343993 268.008767 
L 1046.442211 268.948637 
L 1051.540429 267.853533 
L 1056.638648 267.017626 
L 1061.736866 284.414738 
L 1066.835085 268.269789 
L 1071.933303 259.53571 
L 1077.031521 271.102901 
L 1082.12974 263.161807 
L 1087.227958 274.039549 
L 1092.326176 265.92232 
L 1097.424395 287.747422 
L 1102.522613 267.342549 
L 1107.620831 257.818782 
L 1112.71905 266.812829 
L 1117.817268 266.135488 
L 1122.915487 268.448587 
L 1128.013705 266.657442 
L 1133.111923 282.633705 
L 1138.210142 271.284404 
L 1143.30836 260.365013 
L 1148.406578 267.617951 
L 1153.504797 264.801516 
L 1158.603015 273.995984 
L 1163.701233 265.576555 
L 1168.799452 290.901783 
L 1173.89767 261.583402 
L 1178.995889 272.138529 
L 1184.094107 270.653653 
L 1189.192325 266.333028 
L 1194.290544 272.816637 
L 1199.388762 268.955601 
L 1204.48698 285.50888 
L 1209.585199 284.130508 
L 1214.683417 260.344743 
L 1219.781635 266.039869 
L 1224.879854 262.010449 
L 1229.978072 266.207253 
L 1235.076291 264.952519 
L 1240.174509 282.255397 
L 1245.272727 267.927296 
L 1245.272727 267.927296 
" style="fill:none;stroke:#000000;stroke-linecap:square;stroke-width:4;"/>
   </g>
   <g id="line2d_36">
    <path clip-path="url(#pff2dfeab9d)" d="M 230.727273 262.094254 
L 251.120146 262.094254 
L 256.218365 261.971627 
L 261.316583 269.353802 
L 266.414801 266.705048 
L 271.51302 338.270456 
L 276.611238 255.791201 
L 281.709456 255.717624 
L 286.807675 259.519077 
L 291.905893 260.818928 
L 297.004111 346.069565 
L 302.10233 258.415429 
L 307.200548 264.939212 
L 312.298767 253.117921 
L 317.396985 272.566643 
L 322.495203 261.432066 
L 327.593422 262.094254 
L 332.69164 275.583279 
L 337.789858 259.641704 
L 342.888077 338.711915 
L 347.986295 261.505642 
L 353.084513 259.641704 
L 358.182732 263.320529 
L 363.28095 260.867979 
L 368.379169 336.897028 
L 373.477387 262.094254 
L 378.575605 257.189154 
L 383.673824 266.999354 
L 388.772042 260.867979 
L 393.87026 263.320529 
L 398.968479 262.094254 
L 404.066697 263.320529 
L 409.164915 262.094254 
L 414.263134 308.692704 
L 419.361352 300.672865 
L 424.459571 255.398793 
L 429.557789 262.094254 
L 434.656007 262.094254 
L 439.754226 304.253588 
L 444.852444 261.62827 
L 449.950662 301.335054 
L 455.048881 253.510329 
L 465.245317 270.678179 
L 470.343536 262.094254 
L 475.441754 317.276629 
L 480.539973 241.247579 
L 485.638191 282.107062 
L 490.736409 267.220084 
L 495.834628 262.069729 
L 500.932846 331.403316 
L 506.031064 240.021304 
L 511.129283 276.809554 
L 516.227501 259.641704 
L 521.32572 264.546804 
L 526.423938 262.094254 
L 531.522156 262.094254 
L 536.620375 305.210083 
L 541.718593 259.4455 
L 546.816811 301.89914 
L 551.91503 246.814868 
L 557.013248 265.773079 
L 562.111466 313.597804 
L 567.209685 260.867979 
L 572.307903 303.787604 
L 577.406122 260.867979 
L 582.50434 262.094254 
L 587.602558 262.094254 
L 592.700777 305.627016 
L 597.798995 262.094254 
L 602.897213 261.481117 
L 607.995432 298.661774 
L 613.09365 256.674119 
L 618.191868 267.735119 
L 623.290087 259.641704 
L 628.388305 306.240154 
L 633.486524 263.320529 
L 638.584742 260.867979 
L 643.68296 262.094254 
L 648.781179 262.094254 
L 653.879397 301.335054 
L 658.977615 262.094254 
L 664.075834 264.546804 
L 669.174052 259.641704 
L 674.27227 264.546804 
L 679.370489 262.094254 
L 684.468707 295.203679 
L 689.566926 262.094254 
L 694.665144 262.094254 
L 699.763362 286.619754 
L 704.861581 262.094254 
L 709.959799 290.298579 
L 715.058017 263.820849 
L 720.156236 260.612914 
L 725.254454 275.097674 
L 730.352672 262.172736 
L 735.450891 263.835565 
L 740.549109 263.10961 
L 750.745546 262.094254 
L 755.843764 273.711983 
L 760.941983 262.825114 
L 766.040201 320.325148 
L 771.138419 236.504348 
L 776.236638 262.557786 
L 781.334856 261.601292 
L 786.433074 262.305174 
L 791.531293 262.035393 
L 796.629511 262.094254 
L 801.72773 311.235998 
L 806.825948 262.094254 
L 811.924166 262.094254 
L 817.022385 261.603744 
L 822.120603 262.094254 
L 827.218821 262.094254 
L 832.31704 260.867979 
L 837.415258 266.449983 
L 842.513476 262.145758 
L 847.611695 300.488924 
L 852.709913 263.958192 
L 857.808132 261.63808 
L 862.90635 262.923216 
L 868.004568 259.882054 
L 873.102787 263.413726 
L 878.201005 262.094254 
L 883.299223 301.335054 
L 888.397442 260.867979 
L 893.49566 262.094254 
L 898.593878 262.094254 
L 903.692097 260.867979 
L 908.790315 263.320529 
L 913.888534 263.320529 
L 918.986752 262.094254 
L 924.08497 302.561329 
L 929.183189 259.921295 
L 934.281407 263.423536 
L 939.379625 260.764972 
L 944.477844 263.168471 
L 949.576062 261.064183 
L 954.67428 303.463867 
L 959.772499 260.867979 
L 969.968936 263.320529 
L 975.067154 259.641704 
L 980.165372 264.546804 
L 985.263591 259.725091 
L 990.361809 303.704217 
L 995.460027 262.094254 
L 1000.558246 259.641704 
L 1005.656464 264.546804 
L 1010.754683 260.867979 
L 1015.852901 265.773079 
L 1020.951119 259.641704 
L 1026.049338 302.561329 
L 1031.147556 260.720826 
L 1036.245774 262.251217 
L 1041.343993 262.094254 
L 1046.442211 260.642345 
L 1051.540429 263.536354 
L 1056.638648 260.581031 
L 1061.736866 260.863074 
L 1066.835085 306.232796 
L 1071.933303 259.573033 
L 1077.031521 264.914687 
L 1082.12974 252.284054 
L 1087.227958 271.821067 
L 1092.326176 251.141166 
L 1097.424395 262.094254 
L 1102.522613 313.597804 
L 1107.620831 262.094254 
L 1112.71905 262.094254 
L 1117.817268 260.867979 
L 1122.915487 264.546804 
L 1128.013705 260.867979 
L 1133.111923 263.320529 
L 1138.210142 301.641622 
L 1143.30836 260.757614 
L 1148.406578 265.817225 
L 1153.504797 259.553412 
L 1158.603015 262.422896 
L 1163.701233 261.613554 
L 1168.799452 304.557704 
L 1173.89767 258.871604 
L 1178.995889 262.094254 
L 1184.094107 265.007884 
L 1189.192325 259.180625 
L 1194.290544 260.867979 
L 1199.388762 266.192465 
L 1204.48698 262.140853 
L 1209.585199 308.226719 
L 1214.683417 254.8764 
L 1219.781635 263.352412 
L 1224.879854 260.659512 
L 1229.978072 262.192356 
L 1235.076291 253.449016 
L 1240.174509 262.094254 
L 1245.272727 311.145254 
L 1245.272727 311.145254 
" style="fill:none;stroke:#ff0000;stroke-linecap:square;stroke-width:1.5;"/>
   </g>
   <g id="patch_9">
    <path d="M 180 351.547826 
L 180 231.026087 
" style="fill:none;stroke:#000000;stroke-linecap:square;stroke-linejoin:miter;stroke-width:0.8;"/>
   </g>
   <g id="patch_10">
    <path d="M 1296 351.547826 
L 1296 231.026087 
" style="fill:none;stroke:#000000;stroke-linecap:square;stroke-linejoin:miter;stroke-width:0.8;"/>
   </g>
   <g id="patch_11">
    <path d="M 180 351.547826 
L 1296 351.547826 
" style="fill:none;stroke:#000000;stroke-linecap:square;stroke-linejoin:miter;stroke-width:0.8;"/>
   </g>
   <g id="patch_12">
    <path d="M 180 231.026087 
L 1296 231.026087 
" style="fill:none;stroke:#000000;stroke-linecap:square;stroke-linejoin:miter;stroke-width:0.8;"/>
   </g>
   <g id="legend_2">
    <g id="patch_13">
     <path d="M 1234.3125 268.382337 
L 1289 268.382337 
Q 1291 268.382337 1291 266.382337 
L 1291 238.026087 
Q 1291 236.026087 1289 236.026087 
L 1234.3125 236.026087 
Q 1232.3125 236.026087 1232.3125 238.026087 
L 1232.3125 266.382337 
Q 1232.3125 268.382337 1234.3125 268.382337 
z
" style="fill:#ffffff;opacity:0.8;stroke:#cccccc;stroke-linejoin:miter;"/>
    </g>
    <g id="line2d_37">
     <path d="M 1236.3125 244.124524 
L 1256.3125 244.124524 
" style="fill:none;stroke:#000000;stroke-linecap:square;stroke-width:4;"/>
    </g>
    <g id="line2d_38"/>
    <g id="text_33">
     <!-- Pred -->
     <g transform="translate(1264.3125 247.624524)scale(0.1 -0.1)">
      <use xlink:href="#DejaVuSans-50"/>
      <use x="60.287109" xlink:href="#DejaVuSans-72"/>
      <use x="101.369141" xlink:href="#DejaVuSans-65"/>
      <use x="162.892578" xlink:href="#DejaVuSans-64"/>
     </g>
    </g>
    <g id="line2d_39">
     <path d="M 1236.3125 258.802649 
L 1256.3125 258.802649 
" style="fill:none;stroke:#ff0000;stroke-linecap:square;stroke-width:1.5;"/>
    </g>
    <g id="line2d_40"/>
    <g id="text_34">
     <!-- True -->
     <g transform="translate(1264.3125 262.302649)scale(0.1 -0.1)">
      <use xlink:href="#DejaVuSans-54"/>
      <use x="60.865234" xlink:href="#DejaVuSans-72"/>
      <use x="101.978516" xlink:href="#DejaVuSans-75"/>
      <use x="165.357422" xlink:href="#DejaVuSans-65"/>
     </g>
    </g>
   </g>
  </g>
  <g id="axes_3">
   <g id="patch_14">
    <path d="M 180 496.173913 
L 1296 496.173913 
L 1296 375.652174 
L 180 375.652174 
z
" style="fill:#ffffff;"/>
   </g>
   <g id="matplotlib.axis_5">
    <g id="xtick_19">
     <g id="line2d_41">
      <g>
       <use style="stroke:#000000;stroke-width:0.8;" x="230.727273" xlink:href="#mdfd4b0859e" y="496.173913"/>
      </g>
     </g>
     <g id="text_35">
      <!-- 0 -->
      <g transform="translate(227.546023 510.772351)scale(0.1 -0.1)">
       <use xlink:href="#DejaVuSans-30"/>
      </g>
     </g>
    </g>
    <g id="xtick_20">
     <g id="line2d_42">
      <g>
       <use style="stroke:#000000;stroke-width:0.8;" x="358.182732" xlink:href="#mdfd4b0859e" y="496.173913"/>
      </g>
     </g>
     <g id="text_36">
      <!-- 25 -->
      <g transform="translate(351.820232 510.772351)scale(0.1 -0.1)">
       <use xlink:href="#DejaVuSans-32"/>
       <use x="63.623047" xlink:href="#DejaVuSans-35"/>
      </g>
     </g>
    </g>
    <g id="xtick_21">
     <g id="line2d_43">
      <g>
       <use style="stroke:#000000;stroke-width:0.8;" x="485.638191" xlink:href="#mdfd4b0859e" y="496.173913"/>
      </g>
     </g>
     <g id="text_37">
      <!-- 50 -->
      <g transform="translate(479.275691 510.772351)scale(0.1 -0.1)">
       <use xlink:href="#DejaVuSans-35"/>
       <use x="63.623047" xlink:href="#DejaVuSans-30"/>
      </g>
     </g>
    </g>
    <g id="xtick_22">
     <g id="line2d_44">
      <g>
       <use style="stroke:#000000;stroke-width:0.8;" x="613.09365" xlink:href="#mdfd4b0859e" y="496.173913"/>
      </g>
     </g>
     <g id="text_38">
      <!-- 75 -->
      <g transform="translate(606.73115 510.772351)scale(0.1 -0.1)">
       <use xlink:href="#DejaVuSans-37"/>
       <use x="63.623047" xlink:href="#DejaVuSans-35"/>
      </g>
     </g>
    </g>
    <g id="xtick_23">
     <g id="line2d_45">
      <g>
       <use style="stroke:#000000;stroke-width:0.8;" x="740.549109" xlink:href="#mdfd4b0859e" y="496.173913"/>
      </g>
     </g>
     <g id="text_39">
      <!-- 100 -->
      <g transform="translate(731.005359 510.772351)scale(0.1 -0.1)">
       <use xlink:href="#DejaVuSans-31"/>
       <use x="63.623047" xlink:href="#DejaVuSans-30"/>
       <use x="127.246094" xlink:href="#DejaVuSans-30"/>
      </g>
     </g>
    </g>
    <g id="xtick_24">
     <g id="line2d_46">
      <g>
       <use style="stroke:#000000;stroke-width:0.8;" x="868.004568" xlink:href="#mdfd4b0859e" y="496.173913"/>
      </g>
     </g>
     <g id="text_40">
      <!-- 125 -->
      <g transform="translate(858.460818 510.772351)scale(0.1 -0.1)">
       <use xlink:href="#DejaVuSans-31"/>
       <use x="63.623047" xlink:href="#DejaVuSans-32"/>
       <use x="127.246094" xlink:href="#DejaVuSans-35"/>
      </g>
     </g>
    </g>
    <g id="xtick_25">
     <g id="line2d_47">
      <g>
       <use style="stroke:#000000;stroke-width:0.8;" x="995.460027" xlink:href="#mdfd4b0859e" y="496.173913"/>
      </g>
     </g>
     <g id="text_41">
      <!-- 150 -->
      <g transform="translate(985.916277 510.772351)scale(0.1 -0.1)">
       <use xlink:href="#DejaVuSans-31"/>
       <use x="63.623047" xlink:href="#DejaVuSans-35"/>
       <use x="127.246094" xlink:href="#DejaVuSans-30"/>
      </g>
     </g>
    </g>
    <g id="xtick_26">
     <g id="line2d_48">
      <g>
       <use style="stroke:#000000;stroke-width:0.8;" x="1122.915487" xlink:href="#mdfd4b0859e" y="496.173913"/>
      </g>
     </g>
     <g id="text_42">
      <!-- 175 -->
      <g transform="translate(1113.371737 510.772351)scale(0.1 -0.1)">
       <use xlink:href="#DejaVuSans-31"/>
       <use x="63.623047" xlink:href="#DejaVuSans-37"/>
       <use x="127.246094" xlink:href="#DejaVuSans-35"/>
      </g>
     </g>
    </g>
    <g id="xtick_27">
     <g id="line2d_49">
      <g>
       <use style="stroke:#000000;stroke-width:0.8;" x="1250.370946" xlink:href="#mdfd4b0859e" y="496.173913"/>
      </g>
     </g>
     <g id="text_43">
      <!-- 200 -->
      <g transform="translate(1240.827196 510.772351)scale(0.1 -0.1)">
       <use xlink:href="#DejaVuSans-32"/>
       <use x="63.623047" xlink:href="#DejaVuSans-30"/>
       <use x="127.246094" xlink:href="#DejaVuSans-30"/>
      </g>
     </g>
    </g>
   </g>
   <g id="matplotlib.axis_6">
    <g id="ytick_11">
     <g id="line2d_50">
      <g>
       <use style="stroke:#000000;stroke-width:0.8;" x="180" xlink:href="#m462c4035cb" y="490.695652"/>
      </g>
     </g>
     <g id="text_44">
      <!-- 0.00000 -->
      <defs>
       <path d="M 10.6875 12.40625 
L 21 12.40625 
L 21 0 
L 10.6875 0 
z
" id="DejaVuSans-2e"/>
      </defs>
      <g transform="translate(131.646875 494.494871)scale(0.1 -0.1)">
       <use xlink:href="#DejaVuSans-30"/>
       <use x="63.623047" xlink:href="#DejaVuSans-2e"/>
       <use x="95.410156" xlink:href="#DejaVuSans-30"/>
       <use x="159.033203" xlink:href="#DejaVuSans-30"/>
       <use x="222.65625" xlink:href="#DejaVuSans-30"/>
       <use x="286.279297" xlink:href="#DejaVuSans-30"/>
       <use x="349.902344" xlink:href="#DejaVuSans-30"/>
      </g>
     </g>
    </g>
    <g id="ytick_12">
     <g id="line2d_51">
      <g>
       <use style="stroke:#000000;stroke-width:0.8;" x="180" xlink:href="#m462c4035cb" y="468.781245"/>
      </g>
     </g>
     <g id="text_45">
      <!-- 0.00002 -->
      <g transform="translate(131.646875 472.580464)scale(0.1 -0.1)">
       <use xlink:href="#DejaVuSans-30"/>
       <use x="63.623047" xlink:href="#DejaVuSans-2e"/>
       <use x="95.410156" xlink:href="#DejaVuSans-30"/>
       <use x="159.033203" xlink:href="#DejaVuSans-30"/>
       <use x="222.65625" xlink:href="#DejaVuSans-30"/>
       <use x="286.279297" xlink:href="#DejaVuSans-30"/>
       <use x="349.902344" xlink:href="#DejaVuSans-32"/>
      </g>
     </g>
    </g>
    <g id="ytick_13">
     <g id="line2d_52">
      <g>
       <use style="stroke:#000000;stroke-width:0.8;" x="180" xlink:href="#m462c4035cb" y="446.866838"/>
      </g>
     </g>
     <g id="text_46">
      <!-- 0.00004 -->
      <defs>
       <path d="M 37.796875 64.3125 
L 12.890625 25.390625 
L 37.796875 25.390625 
z
M 35.203125 72.90625 
L 47.609375 72.90625 
L 47.609375 25.390625 
L 58.015625 25.390625 
L 58.015625 17.1875 
L 47.609375 17.1875 
L 47.609375 0 
L 37.796875 0 
L 37.796875 17.1875 
L 4.890625 17.1875 
L 4.890625 26.703125 
z
" id="DejaVuSans-34"/>
      </defs>
      <g transform="translate(131.646875 450.666056)scale(0.1 -0.1)">
       <use xlink:href="#DejaVuSans-30"/>
       <use x="63.623047" xlink:href="#DejaVuSans-2e"/>
       <use x="95.410156" xlink:href="#DejaVuSans-30"/>
       <use x="159.033203" xlink:href="#DejaVuSans-30"/>
       <use x="222.65625" xlink:href="#DejaVuSans-30"/>
       <use x="286.279297" xlink:href="#DejaVuSans-30"/>
       <use x="349.902344" xlink:href="#DejaVuSans-34"/>
      </g>
     </g>
    </g>
    <g id="ytick_14">
     <g id="line2d_53">
      <g>
       <use style="stroke:#000000;stroke-width:0.8;" x="180" xlink:href="#m462c4035cb" y="424.95243"/>
      </g>
     </g>
     <g id="text_47">
      <!-- 0.00006 -->
      <defs>
       <path d="M 33.015625 40.375 
Q 26.375 40.375 22.484375 35.828125 
Q 18.609375 31.296875 18.609375 23.390625 
Q 18.609375 15.53125 22.484375 10.953125 
Q 26.375 6.390625 33.015625 6.390625 
Q 39.65625 6.390625 43.53125 10.953125 
Q 47.40625 15.53125 47.40625 23.390625 
Q 47.40625 31.296875 43.53125 35.828125 
Q 39.65625 40.375 33.015625 40.375 
z
M 52.59375 71.296875 
L 52.59375 62.3125 
Q 48.875 64.0625 45.09375 64.984375 
Q 41.3125 65.921875 37.59375 65.921875 
Q 27.828125 65.921875 22.671875 59.328125 
Q 17.53125 52.734375 16.796875 39.40625 
Q 19.671875 43.65625 24.015625 45.921875 
Q 28.375 48.1875 33.59375 48.1875 
Q 44.578125 48.1875 50.953125 41.515625 
Q 57.328125 34.859375 57.328125 23.390625 
Q 57.328125 12.15625 50.6875 5.359375 
Q 44.046875 -1.421875 33.015625 -1.421875 
Q 20.359375 -1.421875 13.671875 8.265625 
Q 6.984375 17.96875 6.984375 36.375 
Q 6.984375 53.65625 15.1875 63.9375 
Q 23.390625 74.21875 37.203125 74.21875 
Q 40.921875 74.21875 44.703125 73.484375 
Q 48.484375 72.75 52.59375 71.296875 
z
" id="DejaVuSans-36"/>
      </defs>
      <g transform="translate(131.646875 428.751649)scale(0.1 -0.1)">
       <use xlink:href="#DejaVuSans-30"/>
       <use x="63.623047" xlink:href="#DejaVuSans-2e"/>
       <use x="95.410156" xlink:href="#DejaVuSans-30"/>
       <use x="159.033203" xlink:href="#DejaVuSans-30"/>
       <use x="222.65625" xlink:href="#DejaVuSans-30"/>
       <use x="286.279297" xlink:href="#DejaVuSans-30"/>
       <use x="349.902344" xlink:href="#DejaVuSans-36"/>
      </g>
     </g>
    </g>
    <g id="ytick_15">
     <g id="line2d_54">
      <g>
       <use style="stroke:#000000;stroke-width:0.8;" x="180" xlink:href="#m462c4035cb" y="403.038023"/>
      </g>
     </g>
     <g id="text_48">
      <!-- 0.00008 -->
      <defs>
       <path d="M 31.78125 34.625 
Q 24.75 34.625 20.71875 30.859375 
Q 16.703125 27.09375 16.703125 20.515625 
Q 16.703125 13.921875 20.71875 10.15625 
Q 24.75 6.390625 31.78125 6.390625 
Q 38.8125 6.390625 42.859375 10.171875 
Q 46.921875 13.96875 46.921875 20.515625 
Q 46.921875 27.09375 42.890625 30.859375 
Q 38.875 34.625 31.78125 34.625 
z
M 21.921875 38.8125 
Q 15.578125 40.375 12.03125 44.71875 
Q 8.5 49.078125 8.5 55.328125 
Q 8.5 64.0625 14.71875 69.140625 
Q 20.953125 74.21875 31.78125 74.21875 
Q 42.671875 74.21875 48.875 69.140625 
Q 55.078125 64.0625 55.078125 55.328125 
Q 55.078125 49.078125 51.53125 44.71875 
Q 48 40.375 41.703125 38.8125 
Q 48.828125 37.15625 52.796875 32.3125 
Q 56.78125 27.484375 56.78125 20.515625 
Q 56.78125 9.90625 50.3125 4.234375 
Q 43.84375 -1.421875 31.78125 -1.421875 
Q 19.734375 -1.421875 13.25 4.234375 
Q 6.78125 9.90625 6.78125 20.515625 
Q 6.78125 27.484375 10.78125 32.3125 
Q 14.796875 37.15625 21.921875 38.8125 
z
M 18.3125 54.390625 
Q 18.3125 48.734375 21.84375 45.5625 
Q 25.390625 42.390625 31.78125 42.390625 
Q 38.140625 42.390625 41.71875 45.5625 
Q 45.3125 48.734375 45.3125 54.390625 
Q 45.3125 60.0625 41.71875 63.234375 
Q 38.140625 66.40625 31.78125 66.40625 
Q 25.390625 66.40625 21.84375 63.234375 
Q 18.3125 60.0625 18.3125 54.390625 
z
" id="DejaVuSans-38"/>
      </defs>
      <g transform="translate(131.646875 406.837242)scale(0.1 -0.1)">
       <use xlink:href="#DejaVuSans-30"/>
       <use x="63.623047" xlink:href="#DejaVuSans-2e"/>
       <use x="95.410156" xlink:href="#DejaVuSans-30"/>
       <use x="159.033203" xlink:href="#DejaVuSans-30"/>
       <use x="222.65625" xlink:href="#DejaVuSans-30"/>
       <use x="286.279297" xlink:href="#DejaVuSans-30"/>
       <use x="349.902344" xlink:href="#DejaVuSans-38"/>
      </g>
     </g>
    </g>
    <g id="ytick_16">
     <g id="line2d_55">
      <g>
       <use style="stroke:#000000;stroke-width:0.8;" x="180" xlink:href="#m462c4035cb" y="381.123616"/>
      </g>
     </g>
     <g id="text_49">
      <!-- 0.00010 -->
      <g transform="translate(131.646875 384.922834)scale(0.1 -0.1)">
       <use xlink:href="#DejaVuSans-30"/>
       <use x="63.623047" xlink:href="#DejaVuSans-2e"/>
       <use x="95.410156" xlink:href="#DejaVuSans-30"/>
       <use x="159.033203" xlink:href="#DejaVuSans-30"/>
       <use x="222.65625" xlink:href="#DejaVuSans-30"/>
       <use x="286.279297" xlink:href="#DejaVuSans-31"/>
       <use x="349.902344" xlink:href="#DejaVuSans-30"/>
      </g>
     </g>
    </g>
    <g id="text_50">
     <!-- TD State:2 -->
     <g transform="translate(125.567187 462.506793)rotate(-90)scale(0.1 -0.1)">
      <use xlink:href="#DejaVuSans-54"/>
      <use x="61.083984" xlink:href="#DejaVuSans-44"/>
      <use x="138.085938" xlink:href="#DejaVuSans-20"/>
      <use x="169.873047" xlink:href="#DejaVuSans-53"/>
      <use x="233.349609" xlink:href="#DejaVuSans-74"/>
      <use x="272.558594" xlink:href="#DejaVuSans-61"/>
      <use x="333.837891" xlink:href="#DejaVuSans-74"/>
      <use x="373.046875" xlink:href="#DejaVuSans-65"/>
      <use x="434.570312" xlink:href="#DejaVuSans-3a"/>
      <use x="468.261719" xlink:href="#DejaVuSans-32"/>
     </g>
    </g>
   </g>
   <g id="line2d_56">
    <path clip-path="url(#pe7fe60bea8)" d="M 230.727273 436.766746 
L 235.825491 423.239981 
L 240.923709 440.729562 
L 246.021928 445.705449 
L 251.120146 437.721841 
L 256.218365 463.328512 
L 261.316583 460.142584 
L 266.414801 461.428273 
L 271.51302 425.401837 
L 276.611238 421.380623 
L 281.709456 460.217911 
L 286.807675 427.13095 
L 291.905893 444.247518 
L 297.004111 440.4839 
L 302.10233 412.732067 
L 307.200548 468.115513 
L 312.298767 446.189431 
L 317.396985 447.11327 
L 322.495203 442.05441 
L 327.593422 457.561333 
L 332.69164 462.956936 
L 337.789858 456.726611 
L 342.888077 457.434322 
L 347.986295 393.136868 
L 353.084513 454.580521 
L 358.182732 435.924683 
L 363.28095 452.709283 
L 368.379169 459.756667 
L 373.477387 413.115843 
L 378.575605 469.203598 
L 383.673824 458.202756 
L 388.772042 451.874799 
L 393.87026 463.968753 
L 398.968479 475.103088 
L 404.066697 475.661813 
L 409.164915 456.026737 
L 414.263134 457.622055 
L 419.361352 415.538262 
L 424.459571 447.720206 
L 429.557789 458.786934 
L 434.656007 442.385445 
L 439.754226 459.725144 
L 444.852444 398.431205 
L 449.950662 463.462218 
L 455.048881 421.289043 
L 460.147099 451.300474 
L 465.245317 453.514872 
L 470.343536 457.52007 
L 475.441754 457.001691 
L 480.539973 401.444435 
L 485.638191 460.860111 
L 490.736409 426.916145 
L 495.834628 458.693217 
L 500.932846 460.944475 
L 506.031064 381.130435 
L 511.129283 460.792068 
L 516.227501 430.748099 
L 521.32572 456.399021 
L 526.423938 451.554069 
L 531.522156 462.111954 
L 536.620375 454.390921 
L 541.718593 422.270535 
L 546.816811 456.305983 
L 551.91503 409.272358 
L 557.013248 456.050347 
L 562.111466 445.222895 
L 567.209685 419.545827 
L 572.307903 467.624847 
L 577.406122 402.668376 
L 582.50434 453.258977 
L 587.602558 459.829114 
L 592.700777 463.575191 
L 597.798995 396.755571 
L 602.897213 465.897463 
L 607.995432 429.925652 
L 613.09365 407.792526 
L 618.191868 453.225394 
L 623.290087 442.28376 
L 628.388305 454.424879 
L 633.486524 408.888167 
L 638.584742 460.009249 
L 643.68296 423.986167 
L 648.781179 449.762149 
L 653.879397 458.55363 
L 658.977615 416.357403 
L 664.075834 465.68645 
L 669.174052 448.301068 
L 674.27227 455.090552 
L 679.370489 449.064403 
L 684.468707 457.63445 
L 689.566926 421.616933 
L 694.665144 463.103586 
L 699.763362 443.100698 
L 704.861581 429.818922 
L 709.959799 457.018449 
L 715.058017 428.794115 
L 720.156236 465.755909 
L 725.254454 444.330678 
L 730.352672 452.914513 
L 735.450891 455.215328 
L 740.549109 480.810341 
L 745.647328 467.488851 
L 750.745546 452.412395 
L 755.843764 472.095041 
L 760.941983 431.637541 
L 766.040201 464.033931 
L 771.138419 412.044096 
L 776.236638 450.108395 
L 781.334856 429.387191 
L 786.433074 458.115779 
L 791.531293 444.993708 
L 796.629511 474.791367 
L 801.72773 459.014144 
L 806.825948 419.334311 
L 811.924166 464.453974 
L 817.022385 443.468736 
L 822.120603 457.653209 
L 827.218821 460.835552 
L 832.31704 466.896543 
L 837.415258 459.805773 
L 842.513476 449.201588 
L 847.611695 466.158933 
L 852.709913 423.464851 
L 857.808132 461.951891 
L 862.90635 436.474429 
L 868.004568 463.110953 
L 873.102787 456.803322 
L 878.201005 464.675946 
L 883.299223 465.692441 
L 888.397442 421.44724 
L 893.49566 461.112322 
L 898.593878 442.699179 
L 903.692097 462.888112 
L 908.790315 461.42564 
L 913.888534 432.555541 
L 918.986752 466.984241 
L 924.08497 463.142651 
L 929.183189 423.4737 
L 934.281407 458.607756 
L 939.379625 441.403494 
L 944.477844 457.579827 
L 949.576062 458.908434 
L 954.67428 459.062252 
L 959.772499 420.784485 
L 964.870717 459.333378 
L 969.968936 438.214843 
L 975.067154 455.904237 
L 980.165372 452.020144 
L 985.263591 446.626096 
L 990.361809 457.791632 
L 995.460027 409.167361 
L 1000.558246 461.021387 
L 1005.656464 436.934338 
L 1010.754683 457.000504 
L 1015.852901 455.253333 
L 1020.951119 446.751334 
L 1026.049338 459.313997 
L 1031.147556 410.083153 
L 1036.245774 464.782354 
L 1041.343993 455.927285 
L 1046.442211 453.28317 
L 1051.540429 460.187185 
L 1056.638648 454.301785 
L 1061.736866 458.814505 
L 1066.835085 455.229352 
L 1071.933303 407.59847 
L 1077.031521 456.691545 
L 1082.12974 447.951773 
L 1087.227958 446.434825 
L 1092.326176 442.275549 
L 1097.424395 458.643638 
L 1102.522613 449.123981 
L 1107.620831 407.018429 
L 1112.71905 454.108602 
L 1117.817268 444.609864 
L 1122.915487 452.901307 
L 1128.013705 456.071502 
L 1133.111923 457.583289 
L 1138.210142 456.918519 
L 1143.30836 412.121476 
L 1148.406578 458.672508 
L 1153.504797 453.76407 
L 1158.603015 449.241869 
L 1163.701233 459.98412 
L 1168.799452 457.927835 
L 1173.89767 423.897809 
L 1178.995889 460.194855 
L 1184.094107 449.29809 
L 1189.192325 449.322374 
L 1194.290544 457.545841 
L 1199.388762 451.930956 
L 1204.48698 462.776112 
L 1209.585199 462.047259 
L 1214.683417 404.952027 
L 1219.781635 458.339526 
L 1224.879854 449.031644 
L 1229.978072 450.785926 
L 1235.076291 463.094901 
L 1240.174509 456.891668 
L 1245.272727 459.237161 
L 1245.272727 459.237161 
" style="fill:none;stroke:#000000;stroke-linecap:square;stroke-width:4;"/>
   </g>
   <g id="line2d_57">
    <path clip-path="url(#pe7fe60bea8)" d="M 230.727273 490.695652 
L 1245.272727 490.695652 
L 1245.272727 490.695652 
" style="fill:none;stroke:#ff0000;stroke-linecap:square;stroke-width:1.5;"/>
   </g>
   <g id="patch_15">
    <path d="M 180 496.173913 
L 180 375.652174 
" style="fill:none;stroke:#000000;stroke-linecap:square;stroke-linejoin:miter;stroke-width:0.8;"/>
   </g>
   <g id="patch_16">
    <path d="M 1296 496.173913 
L 1296 375.652174 
" style="fill:none;stroke:#000000;stroke-linecap:square;stroke-linejoin:miter;stroke-width:0.8;"/>
   </g>
   <g id="patch_17">
    <path d="M 180 496.173913 
L 1296 496.173913 
" style="fill:none;stroke:#000000;stroke-linecap:square;stroke-linejoin:miter;stroke-width:0.8;"/>
   </g>
   <g id="patch_18">
    <path d="M 180 375.652174 
L 1296 375.652174 
" style="fill:none;stroke:#000000;stroke-linecap:square;stroke-linejoin:miter;stroke-width:0.8;"/>
   </g>
   <g id="legend_3">
    <g id="patch_19">
     <path d="M 1234.3125 413.008424 
L 1289 413.008424 
Q 1291 413.008424 1291 411.008424 
L 1291 382.652174 
Q 1291 380.652174 1289 380.652174 
L 1234.3125 380.652174 
Q 1232.3125 380.652174 1232.3125 382.652174 
L 1232.3125 411.008424 
Q 1232.3125 413.008424 1234.3125 413.008424 
z
" style="fill:#ffffff;opacity:0.8;stroke:#cccccc;stroke-linejoin:miter;"/>
    </g>
    <g id="line2d_58">
     <path d="M 1236.3125 388.750611 
L 1256.3125 388.750611 
" style="fill:none;stroke:#000000;stroke-linecap:square;stroke-width:4;"/>
    </g>
    <g id="line2d_59"/>
    <g id="text_51">
     <!-- Pred -->
     <g transform="translate(1264.3125 392.250611)scale(0.1 -0.1)">
      <use xlink:href="#DejaVuSans-50"/>
      <use x="60.287109" xlink:href="#DejaVuSans-72"/>
      <use x="101.369141" xlink:href="#DejaVuSans-65"/>
      <use x="162.892578" xlink:href="#DejaVuSans-64"/>
     </g>
    </g>
    <g id="line2d_60">
     <path d="M 1236.3125 403.428736 
L 1256.3125 403.428736 
" style="fill:none;stroke:#ff0000;stroke-linecap:square;stroke-width:1.5;"/>
    </g>
    <g id="line2d_61"/>
    <g id="text_52">
     <!-- True -->
     <g transform="translate(1264.3125 406.928736)scale(0.1 -0.1)">
      <use xlink:href="#DejaVuSans-54"/>
      <use x="60.865234" xlink:href="#DejaVuSans-72"/>
      <use x="101.978516" xlink:href="#DejaVuSans-75"/>
      <use x="165.357422" xlink:href="#DejaVuSans-65"/>
     </g>
    </g>
   </g>
  </g>
  <g id="axes_4">
   <g id="patch_20">
    <path d="M 180 640.8 
L 1296 640.8 
L 1296 520.278261 
L 180 520.278261 
z
" style="fill:#ffffff;"/>
   </g>
   <g id="matplotlib.axis_7">
    <g id="xtick_28">
     <g id="line2d_62">
      <g>
       <use style="stroke:#000000;stroke-width:0.8;" x="217.277438" xlink:href="#mdfd4b0859e" y="640.8"/>
      </g>
     </g>
     <g id="text_53">
      <!-- 0.0 -->
      <g transform="translate(209.325876 655.398438)scale(0.1 -0.1)">
       <use xlink:href="#DejaVuSans-30"/>
       <use x="63.623047" xlink:href="#DejaVuSans-2e"/>
       <use x="95.410156" xlink:href="#DejaVuSans-30"/>
      </g>
     </g>
    </g>
    <g id="xtick_29">
     <g id="line2d_63">
      <g>
       <use style="stroke:#000000;stroke-width:0.8;" x="370.116464" xlink:href="#mdfd4b0859e" y="640.8"/>
      </g>
     </g>
     <g id="text_54">
      <!-- 0.5 -->
      <g transform="translate(362.164902 655.398438)scale(0.1 -0.1)">
       <use xlink:href="#DejaVuSans-30"/>
       <use x="63.623047" xlink:href="#DejaVuSans-2e"/>
       <use x="95.410156" xlink:href="#DejaVuSans-35"/>
      </g>
     </g>
    </g>
    <g id="xtick_30">
     <g id="line2d_64">
      <g>
       <use style="stroke:#000000;stroke-width:0.8;" x="522.95549" xlink:href="#mdfd4b0859e" y="640.8"/>
      </g>
     </g>
     <g id="text_55">
      <!-- 1.0 -->
      <g transform="translate(515.003928 655.398438)scale(0.1 -0.1)">
       <use xlink:href="#DejaVuSans-31"/>
       <use x="63.623047" xlink:href="#DejaVuSans-2e"/>
       <use x="95.410156" xlink:href="#DejaVuSans-30"/>
      </g>
     </g>
    </g>
    <g id="xtick_31">
     <g id="line2d_65">
      <g>
       <use style="stroke:#000000;stroke-width:0.8;" x="675.794516" xlink:href="#mdfd4b0859e" y="640.8"/>
      </g>
     </g>
     <g id="text_56">
      <!-- 1.5 -->
      <g transform="translate(667.842954 655.398438)scale(0.1 -0.1)">
       <use xlink:href="#DejaVuSans-31"/>
       <use x="63.623047" xlink:href="#DejaVuSans-2e"/>
       <use x="95.410156" xlink:href="#DejaVuSans-35"/>
      </g>
     </g>
    </g>
    <g id="xtick_32">
     <g id="line2d_66">
      <g>
       <use style="stroke:#000000;stroke-width:0.8;" x="828.633542" xlink:href="#mdfd4b0859e" y="640.8"/>
      </g>
     </g>
     <g id="text_57">
      <!-- 2.0 -->
      <g transform="translate(820.68198 655.398438)scale(0.1 -0.1)">
       <use xlink:href="#DejaVuSans-32"/>
       <use x="63.623047" xlink:href="#DejaVuSans-2e"/>
       <use x="95.410156" xlink:href="#DejaVuSans-30"/>
      </g>
     </g>
    </g>
    <g id="xtick_33">
     <g id="line2d_67">
      <g>
       <use style="stroke:#000000;stroke-width:0.8;" x="981.472568" xlink:href="#mdfd4b0859e" y="640.8"/>
      </g>
     </g>
     <g id="text_58">
      <!-- 2.5 -->
      <g transform="translate(973.521006 655.398438)scale(0.1 -0.1)">
       <use xlink:href="#DejaVuSans-32"/>
       <use x="63.623047" xlink:href="#DejaVuSans-2e"/>
       <use x="95.410156" xlink:href="#DejaVuSans-35"/>
      </g>
     </g>
    </g>
    <g id="xtick_34">
     <g id="line2d_68">
      <g>
       <use style="stroke:#000000;stroke-width:0.8;" x="1134.311594" xlink:href="#mdfd4b0859e" y="640.8"/>
      </g>
     </g>
     <g id="text_59">
      <!-- 3.0 -->
      <g transform="translate(1126.360032 655.398438)scale(0.1 -0.1)">
       <use xlink:href="#DejaVuSans-33"/>
       <use x="63.623047" xlink:href="#DejaVuSans-2e"/>
       <use x="95.410156" xlink:href="#DejaVuSans-30"/>
      </g>
     </g>
    </g>
    <g id="xtick_35">
     <g id="line2d_69">
      <g>
       <use style="stroke:#000000;stroke-width:0.8;" x="1287.15062" xlink:href="#mdfd4b0859e" y="640.8"/>
      </g>
     </g>
     <g id="text_60">
      <!-- 3.5 -->
      <g transform="translate(1279.199058 655.398438)scale(0.1 -0.1)">
       <use xlink:href="#DejaVuSans-33"/>
       <use x="63.623047" xlink:href="#DejaVuSans-2e"/>
       <use x="95.410156" xlink:href="#DejaVuSans-35"/>
      </g>
     </g>
    </g>
    <g id="text_61">
     <!-- Time -->
     <defs>
      <path d="M 9.421875 54.6875 
L 18.40625 54.6875 
L 18.40625 0 
L 9.421875 0 
z
M 9.421875 75.984375 
L 18.40625 75.984375 
L 18.40625 64.59375 
L 9.421875 64.59375 
z
" id="DejaVuSans-69"/>
      <path d="M 52 44.1875 
Q 55.375 50.25 60.0625 53.125 
Q 64.75 56 71.09375 56 
Q 79.640625 56 84.28125 50.015625 
Q 88.921875 44.046875 88.921875 33.015625 
L 88.921875 0 
L 79.890625 0 
L 79.890625 32.71875 
Q 79.890625 40.578125 77.09375 44.375 
Q 74.3125 48.1875 68.609375 48.1875 
Q 61.625 48.1875 57.5625 43.546875 
Q 53.515625 38.921875 53.515625 30.90625 
L 53.515625 0 
L 44.484375 0 
L 44.484375 32.71875 
Q 44.484375 40.625 41.703125 44.40625 
Q 38.921875 48.1875 33.109375 48.1875 
Q 26.21875 48.1875 22.15625 43.53125 
Q 18.109375 38.875 18.109375 30.90625 
L 18.109375 0 
L 9.078125 0 
L 9.078125 54.6875 
L 18.109375 54.6875 
L 18.109375 46.1875 
Q 21.1875 51.21875 25.484375 53.609375 
Q 29.78125 56 35.6875 56 
Q 41.65625 56 45.828125 52.96875 
Q 50 49.953125 52 44.1875 
z
" id="DejaVuSans-6d"/>
     </defs>
     <g transform="translate(725.6125 669.076563)scale(0.1 -0.1)">
      <use xlink:href="#DejaVuSans-54"/>
      <use x="61.037109" xlink:href="#DejaVuSans-69"/>
      <use x="88.820312" xlink:href="#DejaVuSans-6d"/>
      <use x="186.232422" xlink:href="#DejaVuSans-65"/>
     </g>
    </g>
   </g>
   <g id="matplotlib.axis_8">
    <g id="ytick_17">
     <g id="line2d_70">
      <g>
       <use style="stroke:#000000;stroke-width:0.8;" x="180" xlink:href="#m462c4035cb" y="624.365217"/>
      </g>
     </g>
     <g id="text_62">
      <!-- −0.04 -->
      <g transform="translate(142.354688 628.164436)scale(0.1 -0.1)">
       <use xlink:href="#DejaVuSans-2212"/>
       <use x="83.789062" xlink:href="#DejaVuSans-30"/>
       <use x="147.412109" xlink:href="#DejaVuSans-2e"/>
       <use x="179.199219" xlink:href="#DejaVuSans-30"/>
       <use x="242.822266" xlink:href="#DejaVuSans-34"/>
      </g>
     </g>
    </g>
    <g id="ytick_18">
     <g id="line2d_71">
      <g>
       <use style="stroke:#000000;stroke-width:0.8;" x="180" xlink:href="#m462c4035cb" y="602.452174"/>
      </g>
     </g>
     <g id="text_63">
      <!-- −0.02 -->
      <g transform="translate(142.354688 606.251393)scale(0.1 -0.1)">
       <use xlink:href="#DejaVuSans-2212"/>
       <use x="83.789062" xlink:href="#DejaVuSans-30"/>
       <use x="147.412109" xlink:href="#DejaVuSans-2e"/>
       <use x="179.199219" xlink:href="#DejaVuSans-30"/>
       <use x="242.822266" xlink:href="#DejaVuSans-32"/>
      </g>
     </g>
    </g>
    <g id="ytick_19">
     <g id="line2d_72">
      <g>
       <use style="stroke:#000000;stroke-width:0.8;" x="180" xlink:href="#m462c4035cb" y="580.53913"/>
      </g>
     </g>
     <g id="text_64">
      <!-- 0.00 -->
      <g transform="translate(150.734375 584.338349)scale(0.1 -0.1)">
       <use xlink:href="#DejaVuSans-30"/>
       <use x="63.623047" xlink:href="#DejaVuSans-2e"/>
       <use x="95.410156" xlink:href="#DejaVuSans-30"/>
       <use x="159.033203" xlink:href="#DejaVuSans-30"/>
      </g>
     </g>
    </g>
    <g id="ytick_20">
     <g id="line2d_73">
      <g>
       <use style="stroke:#000000;stroke-width:0.8;" x="180" xlink:href="#m462c4035cb" y="558.626087"/>
      </g>
     </g>
     <g id="text_65">
      <!-- 0.02 -->
      <g transform="translate(150.734375 562.425306)scale(0.1 -0.1)">
       <use xlink:href="#DejaVuSans-30"/>
       <use x="63.623047" xlink:href="#DejaVuSans-2e"/>
       <use x="95.410156" xlink:href="#DejaVuSans-30"/>
       <use x="159.033203" xlink:href="#DejaVuSans-32"/>
      </g>
     </g>
    </g>
    <g id="ytick_21">
     <g id="line2d_74">
      <g>
       <use style="stroke:#000000;stroke-width:0.8;" x="180" xlink:href="#m462c4035cb" y="536.713043"/>
      </g>
     </g>
     <g id="text_66">
      <!-- 0.04 -->
      <g transform="translate(150.734375 540.512262)scale(0.1 -0.1)">
       <use xlink:href="#DejaVuSans-30"/>
       <use x="63.623047" xlink:href="#DejaVuSans-2e"/>
       <use x="95.410156" xlink:href="#DejaVuSans-30"/>
       <use x="159.033203" xlink:href="#DejaVuSans-34"/>
      </g>
     </g>
    </g>
    <g id="text_67">
     <!-- Control Input -->
     <defs>
      <path d="M 64.40625 67.28125 
L 64.40625 56.890625 
Q 59.421875 61.53125 53.78125 63.8125 
Q 48.140625 66.109375 41.796875 66.109375 
Q 29.296875 66.109375 22.65625 58.46875 
Q 16.015625 50.828125 16.015625 36.375 
Q 16.015625 21.96875 22.65625 14.328125 
Q 29.296875 6.6875 41.796875 6.6875 
Q 48.140625 6.6875 53.78125 8.984375 
Q 59.421875 11.28125 64.40625 15.921875 
L 64.40625 5.609375 
Q 59.234375 2.09375 53.4375 0.328125 
Q 47.65625 -1.421875 41.21875 -1.421875 
Q 24.65625 -1.421875 15.125 8.703125 
Q 5.609375 18.84375 5.609375 36.375 
Q 5.609375 53.953125 15.125 64.078125 
Q 24.65625 74.21875 41.21875 74.21875 
Q 47.75 74.21875 53.53125 72.484375 
Q 59.328125 70.75 64.40625 67.28125 
z
" id="DejaVuSans-43"/>
      <path d="M 30.609375 48.390625 
Q 23.390625 48.390625 19.1875 42.75 
Q 14.984375 37.109375 14.984375 27.296875 
Q 14.984375 17.484375 19.15625 11.84375 
Q 23.34375 6.203125 30.609375 6.203125 
Q 37.796875 6.203125 41.984375 11.859375 
Q 46.1875 17.53125 46.1875 27.296875 
Q 46.1875 37.015625 41.984375 42.703125 
Q 37.796875 48.390625 30.609375 48.390625 
z
M 30.609375 56 
Q 42.328125 56 49.015625 48.375 
Q 55.71875 40.765625 55.71875 27.296875 
Q 55.71875 13.875 49.015625 6.21875 
Q 42.328125 -1.421875 30.609375 -1.421875 
Q 18.84375 -1.421875 12.171875 6.21875 
Q 5.515625 13.875 5.515625 27.296875 
Q 5.515625 40.765625 12.171875 48.375 
Q 18.84375 56 30.609375 56 
z
" id="DejaVuSans-6f"/>
      <path d="M 54.890625 33.015625 
L 54.890625 0 
L 45.90625 0 
L 45.90625 32.71875 
Q 45.90625 40.484375 42.875 44.328125 
Q 39.84375 48.1875 33.796875 48.1875 
Q 26.515625 48.1875 22.3125 43.546875 
Q 18.109375 38.921875 18.109375 30.90625 
L 18.109375 0 
L 9.078125 0 
L 9.078125 54.6875 
L 18.109375 54.6875 
L 18.109375 46.1875 
Q 21.34375 51.125 25.703125 53.5625 
Q 30.078125 56 35.796875 56 
Q 45.21875 56 50.046875 50.171875 
Q 54.890625 44.34375 54.890625 33.015625 
z
" id="DejaVuSans-6e"/>
      <path d="M 9.421875 75.984375 
L 18.40625 75.984375 
L 18.40625 0 
L 9.421875 0 
z
" id="DejaVuSans-6c"/>
      <path d="M 9.8125 72.90625 
L 19.671875 72.90625 
L 19.671875 0 
L 9.8125 0 
z
" id="DejaVuSans-49"/>
      <path d="M 18.109375 8.203125 
L 18.109375 -20.796875 
L 9.078125 -20.796875 
L 9.078125 54.6875 
L 18.109375 54.6875 
L 18.109375 46.390625 
Q 20.953125 51.265625 25.265625 53.625 
Q 29.59375 56 35.59375 56 
Q 45.5625 56 51.78125 48.09375 
Q 58.015625 40.1875 58.015625 27.296875 
Q 58.015625 14.40625 51.78125 6.484375 
Q 45.5625 -1.421875 35.59375 -1.421875 
Q 29.59375 -1.421875 25.265625 0.953125 
Q 20.953125 3.328125 18.109375 8.203125 
z
M 48.6875 27.296875 
Q 48.6875 37.203125 44.609375 42.84375 
Q 40.53125 48.484375 33.40625 48.484375 
Q 26.265625 48.484375 22.1875 42.84375 
Q 18.109375 37.203125 18.109375 27.296875 
Q 18.109375 17.390625 22.1875 11.75 
Q 26.265625 6.109375 33.40625 6.109375 
Q 40.53125 6.109375 44.609375 11.75 
Q 48.6875 17.390625 48.6875 27.296875 
z
" id="DejaVuSans-70"/>
     </defs>
     <g transform="translate(136.275 613.257099)rotate(-90)scale(0.1 -0.1)">
      <use xlink:href="#DejaVuSans-43"/>
      <use x="69.824219" xlink:href="#DejaVuSans-6f"/>
      <use x="131.005859" xlink:href="#DejaVuSans-6e"/>
      <use x="194.384766" xlink:href="#DejaVuSans-74"/>
      <use x="233.59375" xlink:href="#DejaVuSans-72"/>
      <use x="274.675781" xlink:href="#DejaVuSans-6f"/>
      <use x="335.857422" xlink:href="#DejaVuSans-6c"/>
      <use x="363.640625" xlink:href="#DejaVuSans-20"/>
      <use x="395.427734" xlink:href="#DejaVuSans-49"/>
      <use x="424.919922" xlink:href="#DejaVuSans-6e"/>
      <use x="488.298828" xlink:href="#DejaVuSans-70"/>
      <use x="551.775391" xlink:href="#DejaVuSans-75"/>
      <use x="615.154297" xlink:href="#DejaVuSans-74"/>
     </g>
    </g>
   </g>
   <g id="line2d_75">
    <path clip-path="url(#pdd3e26bc60)" d="M 230.727273 580.53913 
L 1245.272727 580.53913 
L 1245.272727 580.53913 
" style="fill:none;stroke:#ff0000;stroke-linecap:square;stroke-width:1.5;"/>
   </g>
   <g id="patch_21">
    <path d="M 180 640.8 
L 180 520.278261 
" style="fill:none;stroke:#000000;stroke-linecap:square;stroke-linejoin:miter;stroke-width:0.8;"/>
   </g>
   <g id="patch_22">
    <path d="M 1296 640.8 
L 1296 520.278261 
" style="fill:none;stroke:#000000;stroke-linecap:square;stroke-linejoin:miter;stroke-width:0.8;"/>
   </g>
   <g id="patch_23">
    <path d="M 180 640.8 
L 1296 640.8 
" style="fill:none;stroke:#000000;stroke-linecap:square;stroke-linejoin:miter;stroke-width:0.8;"/>
   </g>
   <g id="patch_24">
    <path d="M 180 520.278261 
L 1296 520.278261 
" style="fill:none;stroke:#000000;stroke-linecap:square;stroke-linejoin:miter;stroke-width:0.8;"/>
   </g>
   <g id="legend_4">
    <g id="patch_25">
     <path d="M 1194.742188 542.956386 
L 1289 542.956386 
Q 1291 542.956386 1291 540.956386 
L 1291 527.278261 
Q 1291 525.278261 1289 525.278261 
L 1194.742188 525.278261 
Q 1192.742188 525.278261 1192.742188 527.278261 
L 1192.742188 540.956386 
Q 1192.742188 542.956386 1194.742188 542.956386 
z
" style="fill:#ffffff;opacity:0.8;stroke:#cccccc;stroke-linejoin:miter;"/>
    </g>
    <g id="line2d_76">
     <path d="M 1196.742188 533.376698 
L 1216.742188 533.376698 
" style="fill:none;stroke:#ff0000;stroke-linecap:square;stroke-width:1.5;"/>
    </g>
    <g id="line2d_77"/>
    <g id="text_68">
     <!-- ControlInput -->
     <g transform="translate(1224.742188 536.876698)scale(0.1 -0.1)">
      <use xlink:href="#DejaVuSans-43"/>
      <use x="69.824219" xlink:href="#DejaVuSans-6f"/>
      <use x="131.005859" xlink:href="#DejaVuSans-6e"/>
      <use x="194.384766" xlink:href="#DejaVuSans-74"/>
      <use x="233.59375" xlink:href="#DejaVuSans-72"/>
      <use x="274.675781" xlink:href="#DejaVuSans-6f"/>
      <use x="335.857422" xlink:href="#DejaVuSans-6c"/>
      <use x="363.640625" xlink:href="#DejaVuSans-49"/>
      <use x="393.132812" xlink:href="#DejaVuSans-6e"/>
      <use x="456.511719" xlink:href="#DejaVuSans-70"/>
      <use x="519.988281" xlink:href="#DejaVuSans-75"/>
      <use x="583.367188" xlink:href="#DejaVuSans-74"/>
     </g>
    </g>
   </g>
  </g>
 </g>
 <defs>
  <clipPath id="p9407405950">
   <rect height="120.521739" width="1116" x="180" y="86.4"/>
  </clipPath>
  <clipPath id="pff2dfeab9d">
   <rect height="120.521739" width="1116" x="180" y="231.026087"/>
  </clipPath>
  <clipPath id="pe7fe60bea8">
   <rect height="120.521739" width="1116" x="180" y="375.652174"/>
  </clipPath>
  <clipPath id="pdd3e26bc60">
   <rect height="120.521739" width="1116" x="180" y="520.278261"/>
  </clipPath>
 </defs>
</svg>
