<?xml version="1.0" encoding="utf-8" standalone="no"?>
<!DOCTYPE svg PUBLIC "-//W3C//DTD SVG 1.1//EN"
  "http://www.w3.org/Graphics/SVG/1.1/DTD/svg11.dtd">
<!-- Created with matplotlib (http://matplotlib.org/) -->
<svg height="720pt" version="1.1" viewBox="0 0 1440 720" width="1440pt" xmlns="http://www.w3.org/2000/svg" xmlns:xlink="http://www.w3.org/1999/xlink">
 <defs>
  <style type="text/css">
*{stroke-linecap:butt;stroke-linejoin:round;}
  </style>
 </defs>
 <g id="figure_1">
  <g id="patch_1">
   <path d="M 0 720 
L 1440 720 
L 1440 0 
L 0 0 
z
" style="fill:#ffffff;"/>
  </g>
  <g id="axes_1">
   <g id="patch_2">
    <path d="M 180 206.921739 
L 1296 206.921739 
L 1296 86.4 
L 180 86.4 
z
" style="fill:#ffffff;"/>
   </g>
   <g id="matplotlib.axis_1">
    <g id="xtick_1">
     <g id="line2d_1">
      <defs>
       <path d="M 0 0 
L 0 3.5 
" id="m8ee488d0f4" style="stroke:#000000;stroke-width:0.8;"/>
      </defs>
      <g>
       <use style="stroke:#000000;stroke-width:0.8;" x="219.716228" xlink:href="#m8ee488d0f4" y="206.921739"/>
      </g>
     </g>
     <g id="text_1">
      <!-- 0.0 -->
      <defs>
       <path d="M 31.78125 66.40625 
Q 24.171875 66.40625 20.328125 58.90625 
Q 16.5 51.421875 16.5 36.375 
Q 16.5 21.390625 20.328125 13.890625 
Q 24.171875 6.390625 31.78125 6.390625 
Q 39.453125 6.390625 43.28125 13.890625 
Q 47.125 21.390625 47.125 36.375 
Q 47.125 51.421875 43.28125 58.90625 
Q 39.453125 66.40625 31.78125 66.40625 
z
M 31.78125 74.21875 
Q 44.046875 74.21875 50.515625 64.515625 
Q 56.984375 54.828125 56.984375 36.375 
Q 56.984375 17.96875 50.515625 8.265625 
Q 44.046875 -1.421875 31.78125 -1.421875 
Q 19.53125 -1.421875 13.0625 8.265625 
Q 6.59375 17.96875 6.59375 36.375 
Q 6.59375 54.828125 13.0625 64.515625 
Q 19.53125 74.21875 31.78125 74.21875 
z
" id="DejaVuSans-30"/>
       <path d="M 10.6875 12.40625 
L 21 12.40625 
L 21 0 
L 10.6875 0 
z
" id="DejaVuSans-2e"/>
      </defs>
      <g transform="translate(211.764665 221.520177)scale(0.1 -0.1)">
       <use xlink:href="#DejaVuSans-30"/>
       <use x="63.623047" xlink:href="#DejaVuSans-2e"/>
       <use x="95.410156" xlink:href="#DejaVuSans-30"/>
      </g>
     </g>
    </g>
    <g id="xtick_2">
     <g id="line2d_2">
      <g>
       <use style="stroke:#000000;stroke-width:0.8;" x="372.647409" xlink:href="#m8ee488d0f4" y="206.921739"/>
      </g>
     </g>
     <g id="text_2">
      <!-- 0.5 -->
      <defs>
       <path d="M 10.796875 72.90625 
L 49.515625 72.90625 
L 49.515625 64.59375 
L 19.828125 64.59375 
L 19.828125 46.734375 
Q 21.96875 47.46875 24.109375 47.828125 
Q 26.265625 48.1875 28.421875 48.1875 
Q 40.625 48.1875 47.75 41.5 
Q 54.890625 34.8125 54.890625 23.390625 
Q 54.890625 11.625 47.5625 5.09375 
Q 40.234375 -1.421875 26.90625 -1.421875 
Q 22.3125 -1.421875 17.546875 -0.640625 
Q 12.796875 0.140625 7.71875 1.703125 
L 7.71875 11.625 
Q 12.109375 9.234375 16.796875 8.0625 
Q 21.484375 6.890625 26.703125 6.890625 
Q 35.15625 6.890625 40.078125 11.328125 
Q 45.015625 15.765625 45.015625 23.390625 
Q 45.015625 31 40.078125 35.4375 
Q 35.15625 39.890625 26.703125 39.890625 
Q 22.75 39.890625 18.8125 39.015625 
Q 14.890625 38.140625 10.796875 36.28125 
z
" id="DejaVuSans-35"/>
      </defs>
      <g transform="translate(364.695846 221.520177)scale(0.1 -0.1)">
       <use xlink:href="#DejaVuSans-30"/>
       <use x="63.623047" xlink:href="#DejaVuSans-2e"/>
       <use x="95.410156" xlink:href="#DejaVuSans-35"/>
      </g>
     </g>
    </g>
    <g id="xtick_3">
     <g id="line2d_3">
      <g>
       <use style="stroke:#000000;stroke-width:0.8;" x="525.57859" xlink:href="#m8ee488d0f4" y="206.921739"/>
      </g>
     </g>
     <g id="text_3">
      <!-- 1.0 -->
      <defs>
       <path d="M 12.40625 8.296875 
L 28.515625 8.296875 
L 28.515625 63.921875 
L 10.984375 60.40625 
L 10.984375 69.390625 
L 28.421875 72.90625 
L 38.28125 72.90625 
L 38.28125 8.296875 
L 54.390625 8.296875 
L 54.390625 0 
L 12.40625 0 
z
" id="DejaVuSans-31"/>
      </defs>
      <g transform="translate(517.627027 221.520177)scale(0.1 -0.1)">
       <use xlink:href="#DejaVuSans-31"/>
       <use x="63.623047" xlink:href="#DejaVuSans-2e"/>
       <use x="95.410156" xlink:href="#DejaVuSans-30"/>
      </g>
     </g>
    </g>
    <g id="xtick_4">
     <g id="line2d_4">
      <g>
       <use style="stroke:#000000;stroke-width:0.8;" x="678.509771" xlink:href="#m8ee488d0f4" y="206.921739"/>
      </g>
     </g>
     <g id="text_4">
      <!-- 1.5 -->
      <g transform="translate(670.558208 221.520177)scale(0.1 -0.1)">
       <use xlink:href="#DejaVuSans-31"/>
       <use x="63.623047" xlink:href="#DejaVuSans-2e"/>
       <use x="95.410156" xlink:href="#DejaVuSans-35"/>
      </g>
     </g>
    </g>
    <g id="xtick_5">
     <g id="line2d_5">
      <g>
       <use style="stroke:#000000;stroke-width:0.8;" x="831.440952" xlink:href="#m8ee488d0f4" y="206.921739"/>
      </g>
     </g>
     <g id="text_5">
      <!-- 2.0 -->
      <defs>
       <path d="M 19.1875 8.296875 
L 53.609375 8.296875 
L 53.609375 0 
L 7.328125 0 
L 7.328125 8.296875 
Q 12.9375 14.109375 22.625 23.890625 
Q 32.328125 33.6875 34.8125 36.53125 
Q 39.546875 41.84375 41.421875 45.53125 
Q 43.3125 49.21875 43.3125 52.78125 
Q 43.3125 58.59375 39.234375 62.25 
Q 35.15625 65.921875 28.609375 65.921875 
Q 23.96875 65.921875 18.8125 64.3125 
Q 13.671875 62.703125 7.8125 59.421875 
L 7.8125 69.390625 
Q 13.765625 71.78125 18.9375 73 
Q 24.125 74.21875 28.421875 74.21875 
Q 39.75 74.21875 46.484375 68.546875 
Q 53.21875 62.890625 53.21875 53.421875 
Q 53.21875 48.921875 51.53125 44.890625 
Q 49.859375 40.875 45.40625 35.40625 
Q 44.1875 33.984375 37.640625 27.21875 
Q 31.109375 20.453125 19.1875 8.296875 
z
" id="DejaVuSans-32"/>
      </defs>
      <g transform="translate(823.489389 221.520177)scale(0.1 -0.1)">
       <use xlink:href="#DejaVuSans-32"/>
       <use x="63.623047" xlink:href="#DejaVuSans-2e"/>
       <use x="95.410156" xlink:href="#DejaVuSans-30"/>
      </g>
     </g>
    </g>
    <g id="xtick_6">
     <g id="line2d_6">
      <g>
       <use style="stroke:#000000;stroke-width:0.8;" x="984.372133" xlink:href="#m8ee488d0f4" y="206.921739"/>
      </g>
     </g>
     <g id="text_6">
      <!-- 2.5 -->
      <g transform="translate(976.42057 221.520177)scale(0.1 -0.1)">
       <use xlink:href="#DejaVuSans-32"/>
       <use x="63.623047" xlink:href="#DejaVuSans-2e"/>
       <use x="95.410156" xlink:href="#DejaVuSans-35"/>
      </g>
     </g>
    </g>
    <g id="xtick_7">
     <g id="line2d_7">
      <g>
       <use style="stroke:#000000;stroke-width:0.8;" x="1137.303314" xlink:href="#m8ee488d0f4" y="206.921739"/>
      </g>
     </g>
     <g id="text_7">
      <!-- 3.0 -->
      <defs>
       <path d="M 40.578125 39.3125 
Q 47.65625 37.796875 51.625 33 
Q 55.609375 28.21875 55.609375 21.1875 
Q 55.609375 10.40625 48.1875 4.484375 
Q 40.765625 -1.421875 27.09375 -1.421875 
Q 22.515625 -1.421875 17.65625 -0.515625 
Q 12.796875 0.390625 7.625 2.203125 
L 7.625 11.71875 
Q 11.71875 9.328125 16.59375 8.109375 
Q 21.484375 6.890625 26.8125 6.890625 
Q 36.078125 6.890625 40.9375 10.546875 
Q 45.796875 14.203125 45.796875 21.1875 
Q 45.796875 27.640625 41.28125 31.265625 
Q 36.765625 34.90625 28.71875 34.90625 
L 20.21875 34.90625 
L 20.21875 43.015625 
L 29.109375 43.015625 
Q 36.375 43.015625 40.234375 45.921875 
Q 44.09375 48.828125 44.09375 54.296875 
Q 44.09375 59.90625 40.109375 62.90625 
Q 36.140625 65.921875 28.71875 65.921875 
Q 24.65625 65.921875 20.015625 65.03125 
Q 15.375 64.15625 9.8125 62.3125 
L 9.8125 71.09375 
Q 15.4375 72.65625 20.34375 73.4375 
Q 25.25 74.21875 29.59375 74.21875 
Q 40.828125 74.21875 47.359375 69.109375 
Q 53.90625 64.015625 53.90625 55.328125 
Q 53.90625 49.265625 50.4375 45.09375 
Q 46.96875 40.921875 40.578125 39.3125 
z
" id="DejaVuSans-33"/>
      </defs>
      <g transform="translate(1129.351751 221.520177)scale(0.1 -0.1)">
       <use xlink:href="#DejaVuSans-33"/>
       <use x="63.623047" xlink:href="#DejaVuSans-2e"/>
       <use x="95.410156" xlink:href="#DejaVuSans-30"/>
      </g>
     </g>
    </g>
    <g id="xtick_8">
     <g id="line2d_8">
      <g>
       <use style="stroke:#000000;stroke-width:0.8;" x="1290.234494" xlink:href="#m8ee488d0f4" y="206.921739"/>
      </g>
     </g>
     <g id="text_8">
      <!-- 3.5 -->
      <g transform="translate(1282.282932 221.520177)scale(0.1 -0.1)">
       <use xlink:href="#DejaVuSans-33"/>
       <use x="63.623047" xlink:href="#DejaVuSans-2e"/>
       <use x="95.410156" xlink:href="#DejaVuSans-35"/>
      </g>
     </g>
    </g>
   </g>
   <g id="matplotlib.axis_2">
    <g id="ytick_1">
     <g id="line2d_9">
      <defs>
       <path d="M 0 0 
L -3.5 0 
" id="ma4591950df" style="stroke:#000000;stroke-width:0.8;"/>
      </defs>
      <g>
       <use style="stroke:#000000;stroke-width:0.8;" x="180" xlink:href="#ma4591950df" y="183.4881"/>
      </g>
     </g>
     <g id="text_9">
      <!-- −600 -->
      <defs>
       <path d="M 10.59375 35.5 
L 73.1875 35.5 
L 73.1875 27.203125 
L 10.59375 27.203125 
z
" id="DejaVuSans-2212"/>
       <path d="M 33.015625 40.375 
Q 26.375 40.375 22.484375 35.828125 
Q 18.609375 31.296875 18.609375 23.390625 
Q 18.609375 15.53125 22.484375 10.953125 
Q 26.375 6.390625 33.015625 6.390625 
Q 39.65625 6.390625 43.53125 10.953125 
Q 47.40625 15.53125 47.40625 23.390625 
Q 47.40625 31.296875 43.53125 35.828125 
Q 39.65625 40.375 33.015625 40.375 
z
M 52.59375 71.296875 
L 52.59375 62.3125 
Q 48.875 64.0625 45.09375 64.984375 
Q 41.3125 65.921875 37.59375 65.921875 
Q 27.828125 65.921875 22.671875 59.328125 
Q 17.53125 52.734375 16.796875 39.40625 
Q 19.671875 43.65625 24.015625 45.921875 
Q 28.375 48.1875 33.59375 48.1875 
Q 44.578125 48.1875 50.953125 41.515625 
Q 57.328125 34.859375 57.328125 23.390625 
Q 57.328125 12.15625 50.6875 5.359375 
Q 44.046875 -1.421875 33.015625 -1.421875 
Q 20.359375 -1.421875 13.671875 8.265625 
Q 6.984375 17.96875 6.984375 36.375 
Q 6.984375 53.65625 15.1875 63.9375 
Q 23.390625 74.21875 37.203125 74.21875 
Q 40.921875 74.21875 44.703125 73.484375 
Q 48.484375 72.75 52.59375 71.296875 
z
" id="DejaVuSans-36"/>
      </defs>
      <g transform="translate(145.532813 187.287319)scale(0.1 -0.1)">
       <use xlink:href="#DejaVuSans-2212"/>
       <use x="83.789062" xlink:href="#DejaVuSans-36"/>
       <use x="147.412109" xlink:href="#DejaVuSans-30"/>
       <use x="211.035156" xlink:href="#DejaVuSans-30"/>
      </g>
     </g>
    </g>
    <g id="ytick_2">
     <g id="line2d_10">
      <g>
       <use style="stroke:#000000;stroke-width:0.8;" x="180" xlink:href="#ma4591950df" y="153.365671"/>
      </g>
     </g>
     <g id="text_10">
      <!-- −400 -->
      <defs>
       <path d="M 37.796875 64.3125 
L 12.890625 25.390625 
L 37.796875 25.390625 
z
M 35.203125 72.90625 
L 47.609375 72.90625 
L 47.609375 25.390625 
L 58.015625 25.390625 
L 58.015625 17.1875 
L 47.609375 17.1875 
L 47.609375 0 
L 37.796875 0 
L 37.796875 17.1875 
L 4.890625 17.1875 
L 4.890625 26.703125 
z
" id="DejaVuSans-34"/>
      </defs>
      <g transform="translate(145.532813 157.164889)scale(0.1 -0.1)">
       <use xlink:href="#DejaVuSans-2212"/>
       <use x="83.789062" xlink:href="#DejaVuSans-34"/>
       <use x="147.412109" xlink:href="#DejaVuSans-30"/>
       <use x="211.035156" xlink:href="#DejaVuSans-30"/>
      </g>
     </g>
    </g>
    <g id="ytick_3">
     <g id="line2d_11">
      <g>
       <use style="stroke:#000000;stroke-width:0.8;" x="180" xlink:href="#ma4591950df" y="123.243241"/>
      </g>
     </g>
     <g id="text_11">
      <!-- −200 -->
      <g transform="translate(145.532813 127.04246)scale(0.1 -0.1)">
       <use xlink:href="#DejaVuSans-2212"/>
       <use x="83.789062" xlink:href="#DejaVuSans-32"/>
       <use x="147.412109" xlink:href="#DejaVuSans-30"/>
       <use x="211.035156" xlink:href="#DejaVuSans-30"/>
      </g>
     </g>
    </g>
    <g id="ytick_4">
     <g id="line2d_12">
      <g>
       <use style="stroke:#000000;stroke-width:0.8;" x="180" xlink:href="#ma4591950df" y="93.120811"/>
      </g>
     </g>
     <g id="text_12">
      <!-- 0 -->
      <g transform="translate(166.6375 96.92003)scale(0.1 -0.1)">
       <use xlink:href="#DejaVuSans-30"/>
      </g>
     </g>
    </g>
    <g id="text_13">
     <!-- TD State:0 -->
     <defs>
      <path d="M -0.296875 72.90625 
L 61.375 72.90625 
L 61.375 64.59375 
L 35.5 64.59375 
L 35.5 0 
L 25.59375 0 
L 25.59375 64.59375 
L -0.296875 64.59375 
z
" id="DejaVuSans-54"/>
      <path d="M 19.671875 64.796875 
L 19.671875 8.109375 
L 31.59375 8.109375 
Q 46.6875 8.109375 53.6875 14.9375 
Q 60.6875 21.78125 60.6875 36.53125 
Q 60.6875 51.171875 53.6875 57.984375 
Q 46.6875 64.796875 31.59375 64.796875 
z
M 9.8125 72.90625 
L 30.078125 72.90625 
Q 51.265625 72.90625 61.171875 64.09375 
Q 71.09375 55.28125 71.09375 36.53125 
Q 71.09375 17.671875 61.125 8.828125 
Q 51.171875 0 30.078125 0 
L 9.8125 0 
z
" id="DejaVuSans-44"/>
      <path id="DejaVuSans-20"/>
      <path d="M 53.515625 70.515625 
L 53.515625 60.890625 
Q 47.90625 63.578125 42.921875 64.890625 
Q 37.9375 66.21875 33.296875 66.21875 
Q 25.25 66.21875 20.875 63.09375 
Q 16.5 59.96875 16.5 54.203125 
Q 16.5 49.359375 19.40625 46.890625 
Q 22.3125 44.4375 30.421875 42.921875 
L 36.375 41.703125 
Q 47.40625 39.59375 52.65625 34.296875 
Q 57.90625 29 57.90625 20.125 
Q 57.90625 9.515625 50.796875 4.046875 
Q 43.703125 -1.421875 29.984375 -1.421875 
Q 24.8125 -1.421875 18.96875 -0.25 
Q 13.140625 0.921875 6.890625 3.21875 
L 6.890625 13.375 
Q 12.890625 10.015625 18.65625 8.296875 
Q 24.421875 6.59375 29.984375 6.59375 
Q 38.421875 6.59375 43.015625 9.90625 
Q 47.609375 13.234375 47.609375 19.390625 
Q 47.609375 24.75 44.3125 27.78125 
Q 41.015625 30.8125 33.5 32.328125 
L 27.484375 33.5 
Q 16.453125 35.6875 11.515625 40.375 
Q 6.59375 45.0625 6.59375 53.421875 
Q 6.59375 63.09375 13.40625 68.65625 
Q 20.21875 74.21875 32.171875 74.21875 
Q 37.3125 74.21875 42.625 73.28125 
Q 47.953125 72.359375 53.515625 70.515625 
z
" id="DejaVuSans-53"/>
      <path d="M 18.3125 70.21875 
L 18.3125 54.6875 
L 36.8125 54.6875 
L 36.8125 47.703125 
L 18.3125 47.703125 
L 18.3125 18.015625 
Q 18.3125 11.328125 20.140625 9.421875 
Q 21.96875 7.515625 27.59375 7.515625 
L 36.8125 7.515625 
L 36.8125 0 
L 27.59375 0 
Q 17.1875 0 13.234375 3.875 
Q 9.28125 7.765625 9.28125 18.015625 
L 9.28125 47.703125 
L 2.6875 47.703125 
L 2.6875 54.6875 
L 9.28125 54.6875 
L 9.28125 70.21875 
z
" id="DejaVuSans-74"/>
      <path d="M 34.28125 27.484375 
Q 23.390625 27.484375 19.1875 25 
Q 14.984375 22.515625 14.984375 16.5 
Q 14.984375 11.71875 18.140625 8.90625 
Q 21.296875 6.109375 26.703125 6.109375 
Q 34.1875 6.109375 38.703125 11.40625 
Q 43.21875 16.703125 43.21875 25.484375 
L 43.21875 27.484375 
z
M 52.203125 31.203125 
L 52.203125 0 
L 43.21875 0 
L 43.21875 8.296875 
Q 40.140625 3.328125 35.546875 0.953125 
Q 30.953125 -1.421875 24.3125 -1.421875 
Q 15.921875 -1.421875 10.953125 3.296875 
Q 6 8.015625 6 15.921875 
Q 6 25.140625 12.171875 29.828125 
Q 18.359375 34.515625 30.609375 34.515625 
L 43.21875 34.515625 
L 43.21875 35.40625 
Q 43.21875 41.609375 39.140625 45 
Q 35.0625 48.390625 27.6875 48.390625 
Q 23 48.390625 18.546875 47.265625 
Q 14.109375 46.140625 10.015625 43.890625 
L 10.015625 52.203125 
Q 14.9375 54.109375 19.578125 55.046875 
Q 24.21875 56 28.609375 56 
Q 40.484375 56 46.34375 49.84375 
Q 52.203125 43.703125 52.203125 31.203125 
z
" id="DejaVuSans-61"/>
      <path d="M 56.203125 29.59375 
L 56.203125 25.203125 
L 14.890625 25.203125 
Q 15.484375 15.921875 20.484375 11.0625 
Q 25.484375 6.203125 34.421875 6.203125 
Q 39.59375 6.203125 44.453125 7.46875 
Q 49.3125 8.734375 54.109375 11.28125 
L 54.109375 2.78125 
Q 49.265625 0.734375 44.1875 -0.34375 
Q 39.109375 -1.421875 33.890625 -1.421875 
Q 20.796875 -1.421875 13.15625 6.1875 
Q 5.515625 13.8125 5.515625 26.8125 
Q 5.515625 40.234375 12.765625 48.109375 
Q 20.015625 56 32.328125 56 
Q 43.359375 56 49.78125 48.890625 
Q 56.203125 41.796875 56.203125 29.59375 
z
M 47.21875 32.234375 
Q 47.125 39.59375 43.09375 43.984375 
Q 39.0625 48.390625 32.421875 48.390625 
Q 24.90625 48.390625 20.390625 44.140625 
Q 15.875 39.890625 15.1875 32.171875 
z
" id="DejaVuSans-65"/>
      <path d="M 11.71875 12.40625 
L 22.015625 12.40625 
L 22.015625 0 
L 11.71875 0 
z
M 11.71875 51.703125 
L 22.015625 51.703125 
L 22.015625 39.3125 
L 11.71875 39.3125 
z
" id="DejaVuSans-3a"/>
     </defs>
     <g transform="translate(139.453125 173.25462)rotate(-90)scale(0.1 -0.1)">
      <use xlink:href="#DejaVuSans-54"/>
      <use x="61.083984" xlink:href="#DejaVuSans-44"/>
      <use x="138.085938" xlink:href="#DejaVuSans-20"/>
      <use x="169.873047" xlink:href="#DejaVuSans-53"/>
      <use x="233.349609" xlink:href="#DejaVuSans-74"/>
      <use x="272.558594" xlink:href="#DejaVuSans-61"/>
      <use x="333.837891" xlink:href="#DejaVuSans-74"/>
      <use x="373.046875" xlink:href="#DejaVuSans-65"/>
      <use x="434.570312" xlink:href="#DejaVuSans-3a"/>
      <use x="468.261719" xlink:href="#DejaVuSans-30"/>
     </g>
    </g>
   </g>
   <g id="line2d_13">
    <path clip-path="url(#p616c1e3004)" d="M 230.727273 197.801375 
L 241.432455 197.726069 
L 272.936279 197.627569 
L 283.947324 198.516331 
L 289.452846 198.209685 
L 294.958369 198.411505 
L 299.852167 198.170526 
L 305.357689 198.193117 
L 310.863212 201.443478 
L 312.698386 201.344074 
L 317.898046 201.344074 
L 322.791844 200.188277 
L 327.685641 200.534383 
L 333.191164 200.240991 
L 338.696686 200.263583 
L 343.590484 198.34629 
L 354.601529 198.402619 
L 360.107052 197.720798 
L 376.011895 197.720798 
L 393.751912 197.683145 
L 440.854715 197.689169 
L 446.360238 199.41895 
L 451.254036 199.021334 
L 468.994053 199.021334 
L 470.217502 195.388569 
L 475.723025 198.115552 
L 481.228547 198.115552 
L 491.016143 197.86403 
L 496.521665 198.002593 
L 502.027188 198.002593 
L 506.920986 199.747435 
L 512.426508 198.782011 
L 523.437553 198.917562 
L 528.943076 199.372411 
L 534.448598 198.17399 
L 539.954121 198.163447 
L 545.459643 197.495181 
L 546.683093 197.513254 
L 552.188615 197.19245 
L 557.388275 197.19245 
L 562.282073 196.927373 
L 567.175871 196.778267 
L 572.681393 196.778267 
L 578.798641 198.22083 
L 583.692438 198.815296 
L 589.197961 196.495719 
L 594.703483 198.815296 
L 599.597281 196.458066 
L 604.491079 197.95274 
L 609.384877 197.927136 
L 614.890399 198.727038 
L 631.406967 198.719507 
L 636.300765 197.99446 
L 641.806287 197.913129 
L 647.31181 196.679616 
L 652.817332 197.078738 
L 654.040782 197.003432 
L 679.73322 197.107354 
L 684.627018 196.622383 
L 690.13254 196.622383 
L 695.026338 196.800106 
L 699.920136 198.546454 
L 705.425658 199.085645 
L 716.436703 198.807013 
L 721.330501 196.351884 
L 726.224299 197.521689 
L 742.129142 197.334929 
L 747.634664 194.27434 
L 753.751912 196.871044 
L 758.645709 194.02583 
L 765.986406 194.05294 
L 774.550552 187.239548 
L 784.949873 187.237891 
L 786.785047 186.783795 
L 854.380629 187.055048 
L 859.274427 186.819189 
L 864.779949 184.486056 
L 869.673747 180.378411 
L 874.567545 180.257169 
L 885.57859 180.287291 
L 890.472387 178.205229 
L 895.366185 180.633699 
L 900.871708 178.242882 
L 916.776551 178.290776 
L 921.670348 178.004161 
L 927.175871 177.988648 
L 931.763806 175.045687 
L 936.657604 172.259212 
L 941.551402 171.449069 
L 946.4452 171.391083 
L 952.562447 168.794831 
L 957.456245 168.800102 
L 962.961767 164.089707 
L 968.46729 163.948433 
L 973.972812 161.365284 
L 975.196262 161.365284 
L 980.701784 162.607834 
L 990.48938 162.622143 
L 995.68904 159.759006 
L 1000.582838 159.759006 
L 1005.476636 156.726129 
L 1010.982158 156.726129 
L 1016.487681 156.424905 
L 1021.993203 153.730453 
L 1027.498726 153.739189 
L 1033.004248 150.727699 
L 1049.520816 150.736585 
L 1055.026338 148.229344 
L 1056.861512 148.239285 
L 1062.061172 148.122862 
L 1066.95497 145.615019 
L 1083.471538 145.640472 
L 1088.365336 145.202793 
L 1093.259133 139.576526 
L 1098.764656 139.641741 
L 1104.270178 137.058592 
L 1109.775701 139.591888 
L 1121.092608 139.566435 
L 1126.598131 134.701361 
L 1143.114698 134.776667 
L 1148.620221 134.851973 
L 1153.819881 134.740822 
L 1159.325404 134.776667 
L 1164.830926 130.36343 
L 1197.252336 130.468859 
L 1202.757859 125.502423 
L 1207.651657 125.577729 
L 1213.157179 125.409345 
L 1217.745115 125.577729 
L 1228.144435 125.577729 
L 1233.649958 122.463371 
L 1238.543755 124.768641 
L 1244.049278 119.285154 
L 1245.272727 119.488631 
L 1245.272727 119.488631 
" style="fill:none;stroke:#000000;stroke-linecap:square;stroke-width:4;"/>
   </g>
   <g id="line2d_14">
    <path clip-path="url(#p616c1e3004)" d="M 230.727273 93.196117 
L 241.432455 93.120811 
L 252.137638 93.120811 
L 257.643161 95.643565 
L 263.148683 93.196117 
L 268.042481 93.120811 
L 272.936279 95.154075 
L 279.053526 92.706628 
L 283.947324 95.931234 
L 289.452846 92.918991 
L 294.958369 93.361791 
L 299.852167 93.098219 
L 305.357689 92.378293 
L 310.863212 93.220215 
L 312.698386 93.120811 
L 317.898046 96.776168 
L 322.791844 92.778922 
L 327.685641 93.409986 
L 333.191164 93.098219 
L 338.696686 95.038104 
L 343.590484 93.045505 
L 349.096007 95.643565 
L 354.601529 93.798566 
L 360.107052 93.096713 
L 376.011895 93.158464 
L 393.751912 93.120811 
L 435.349193 93.134366 
L 440.854715 96.40265 
L 446.360238 93.518427 
L 451.254036 93.116293 
L 463.48853 93.122317 
L 468.994053 96.753576 
L 470.217502 92.893387 
L 475.723025 93.120811 
L 485.51062 93.259374 
L 491.016143 92.982248 
L 496.521665 93.120811 
L 502.027188 96.387589 
L 506.920986 94.086235 
L 512.426508 92.998815 
L 517.932031 93.107256 
L 523.437553 92.665962 
L 528.943076 94.315165 
L 534.448598 93.131354 
L 539.954121 96.292703 
L 545.459643 93.102738 
L 546.683093 93.441615 
L 552.188615 93.120811 
L 557.388275 93.385888 
L 567.175871 93.120811 
L 572.681393 96.685801 
L 578.798641 92.530411 
L 589.197961 93.309076 
L 594.703483 92.970199 
L 599.597281 94.129912 
L 604.491079 93.146415 
L 609.384877 94.828753 
L 614.890399 93.092195 
L 621.007647 93.17955 
L 625.901444 93.098219 
L 631.406967 96.345417 
L 636.300765 93.202142 
L 641.806287 94.354325 
L 647.31181 92.721689 
L 652.817332 93.196117 
L 654.040782 93.120811 
L 674.839422 93.054542 
L 679.73322 93.605782 
L 684.627018 93.120811 
L 690.13254 92.943089 
L 695.026338 96.386082 
L 699.920136 92.58162 
L 705.425658 93.269917 
L 710.931181 93.250338 
L 716.436703 93.068097 
L 721.330501 96.958409 
L 726.224299 93.17955 
L 732.341546 93.250338 
L 737.235344 93.119305 
L 742.129142 93.673558 
L 747.634664 93.03195 
L 753.751912 93.458182 
L 758.645709 93.093701 
L 764.151232 93.120811 
L 765.986406 94.914451 
L 774.550552 93.120811 
L 779.44435 93.122468 
L 784.949873 93.574907 
L 786.785047 93.105298 
L 812.783347 93.122618 
L 834.805438 93.037673 
L 854.380629 93.35667 
L 859.274427 92.946101 
L 864.779949 94.716547 
L 869.673747 93.242054 
L 874.567545 93.10575 
L 880.684792 93.10575 
L 885.57859 92.699097 
L 890.472387 93.196117 
L 895.366185 93.007852 
L 916.776551 93.403359 
L 921.670348 93.136324 
L 927.175871 93.55593 
L 931.763806 93.399444 
L 936.657604 93.930954 
L 941.551402 93.178797 
L 946.4452 93.20907 
L 952.562447 93.11554 
L 957.456245 95.319297 
L 962.961767 93.262085 
L 973.972812 93.120811 
L 975.196262 91.878261 
L 980.701784 93.120811 
L 985.28972 93.106503 
L 990.48938 93.476105 
L 995.68904 93.120811 
L 1000.582838 93.645845 
L 1005.476636 93.120811 
L 1010.982158 93.422035 
L 1021.993203 93.112076 
L 1027.498726 93.624458 
L 1033.004248 93.120058 
L 1055.026338 93.110871 
L 1056.861512 93.237234 
L 1066.95497 93.095358 
L 1077.354291 93.120811 
L 1083.471538 93.554423 
L 1088.365336 93.731393 
L 1093.259133 93.055596 
L 1098.764656 93.196117 
L 1104.270178 93.095358 
L 1115.892948 93.120811 
L 1121.092608 92.970199 
L 1127.82158 93.120811 
L 1143.114698 93.045505 
L 1148.620221 93.231963 
L 1153.819881 93.084965 
L 1159.325404 92.518363 
L 1164.830926 93.09596 
L 1175.230246 93.116745 
L 1181.347494 93.050776 
L 1186.241291 93.173676 
L 1191.746814 93.05906 
L 1202.757859 93.045505 
L 1207.651657 93.285129 
L 1213.157179 92.956493 
L 1217.745115 93.120811 
L 1222.638912 93.120811 
L 1228.144435 93.72326 
L 1233.649958 93.323384 
L 1238.543755 93.588612 
L 1244.049278 92.917334 
L 1245.272727 93.237084 
L 1245.272727 93.237084 
" style="fill:none;stroke:#ff0000;stroke-linecap:square;stroke-width:1.5;"/>
   </g>
   <g id="patch_3">
    <path d="M 180 206.921739 
L 180 86.4 
" style="fill:none;stroke:#000000;stroke-linecap:square;stroke-linejoin:miter;stroke-width:0.8;"/>
   </g>
   <g id="patch_4">
    <path d="M 1296 206.921739 
L 1296 86.4 
" style="fill:none;stroke:#000000;stroke-linecap:square;stroke-linejoin:miter;stroke-width:0.8;"/>
   </g>
   <g id="patch_5">
    <path d="M 180 206.921739 
L 1296 206.921739 
" style="fill:none;stroke:#000000;stroke-linecap:square;stroke-linejoin:miter;stroke-width:0.8;"/>
   </g>
   <g id="patch_6">
    <path d="M 180 86.4 
L 1296 86.4 
" style="fill:none;stroke:#000000;stroke-linecap:square;stroke-linejoin:miter;stroke-width:0.8;"/>
   </g>
   <g id="legend_1">
    <g id="patch_7">
     <path d="M 1234.3125 123.75625 
L 1289 123.75625 
Q 1291 123.75625 1291 121.75625 
L 1291 93.4 
Q 1291 91.4 1289 91.4 
L 1234.3125 91.4 
Q 1232.3125 91.4 1232.3125 93.4 
L 1232.3125 121.75625 
Q 1232.3125 123.75625 1234.3125 123.75625 
z
" style="fill:#ffffff;opacity:0.8;stroke:#cccccc;stroke-linejoin:miter;"/>
    </g>
    <g id="line2d_15">
     <path d="M 1236.3125 99.498438 
L 1256.3125 99.498438 
" style="fill:none;stroke:#000000;stroke-linecap:square;stroke-width:4;"/>
    </g>
    <g id="line2d_16"/>
    <g id="text_14">
     <!-- Pred -->
     <defs>
      <path d="M 19.671875 64.796875 
L 19.671875 37.40625 
L 32.078125 37.40625 
Q 38.96875 37.40625 42.71875 40.96875 
Q 46.484375 44.53125 46.484375 51.125 
Q 46.484375 57.671875 42.71875 61.234375 
Q 38.96875 64.796875 32.078125 64.796875 
z
M 9.8125 72.90625 
L 32.078125 72.90625 
Q 44.34375 72.90625 50.609375 67.359375 
Q 56.890625 61.8125 56.890625 51.125 
Q 56.890625 40.328125 50.609375 34.8125 
Q 44.34375 29.296875 32.078125 29.296875 
L 19.671875 29.296875 
L 19.671875 0 
L 9.8125 0 
z
" id="DejaVuSans-50"/>
      <path d="M 41.109375 46.296875 
Q 39.59375 47.171875 37.8125 47.578125 
Q 36.03125 48 33.890625 48 
Q 26.265625 48 22.1875 43.046875 
Q 18.109375 38.09375 18.109375 28.8125 
L 18.109375 0 
L 9.078125 0 
L 9.078125 54.6875 
L 18.109375 54.6875 
L 18.109375 46.1875 
Q 20.953125 51.171875 25.484375 53.578125 
Q 30.03125 56 36.53125 56 
Q 37.453125 56 38.578125 55.875 
Q 39.703125 55.765625 41.0625 55.515625 
z
" id="DejaVuSans-72"/>
      <path d="M 45.40625 46.390625 
L 45.40625 75.984375 
L 54.390625 75.984375 
L 54.390625 0 
L 45.40625 0 
L 45.40625 8.203125 
Q 42.578125 3.328125 38.25 0.953125 
Q 33.9375 -1.421875 27.875 -1.421875 
Q 17.96875 -1.421875 11.734375 6.484375 
Q 5.515625 14.40625 5.515625 27.296875 
Q 5.515625 40.1875 11.734375 48.09375 
Q 17.96875 56 27.875 56 
Q 33.9375 56 38.25 53.625 
Q 42.578125 51.265625 45.40625 46.390625 
z
M 14.796875 27.296875 
Q 14.796875 17.390625 18.875 11.75 
Q 22.953125 6.109375 30.078125 6.109375 
Q 37.203125 6.109375 41.296875 11.75 
Q 45.40625 17.390625 45.40625 27.296875 
Q 45.40625 37.203125 41.296875 42.84375 
Q 37.203125 48.484375 30.078125 48.484375 
Q 22.953125 48.484375 18.875 42.84375 
Q 14.796875 37.203125 14.796875 27.296875 
z
" id="DejaVuSans-64"/>
     </defs>
     <g transform="translate(1264.3125 102.998438)scale(0.1 -0.1)">
      <use xlink:href="#DejaVuSans-50"/>
      <use x="60.287109" xlink:href="#DejaVuSans-72"/>
      <use x="101.369141" xlink:href="#DejaVuSans-65"/>
      <use x="162.892578" xlink:href="#DejaVuSans-64"/>
     </g>
    </g>
    <g id="line2d_17">
     <path d="M 1236.3125 114.176563 
L 1256.3125 114.176563 
" style="fill:none;stroke:#ff0000;stroke-linecap:square;stroke-width:1.5;"/>
    </g>
    <g id="line2d_18"/>
    <g id="text_15">
     <!-- True -->
     <defs>
      <path d="M 8.5 21.578125 
L 8.5 54.6875 
L 17.484375 54.6875 
L 17.484375 21.921875 
Q 17.484375 14.15625 20.5 10.265625 
Q 23.53125 6.390625 29.59375 6.390625 
Q 36.859375 6.390625 41.078125 11.03125 
Q 45.3125 15.671875 45.3125 23.6875 
L 45.3125 54.6875 
L 54.296875 54.6875 
L 54.296875 0 
L 45.3125 0 
L 45.3125 8.40625 
Q 42.046875 3.421875 37.71875 1 
Q 33.40625 -1.421875 27.6875 -1.421875 
Q 18.265625 -1.421875 13.375 4.4375 
Q 8.5 10.296875 8.5 21.578125 
z
M 31.109375 56 
z
" id="DejaVuSans-75"/>
     </defs>
     <g transform="translate(1264.3125 117.676563)scale(0.1 -0.1)">
      <use xlink:href="#DejaVuSans-54"/>
      <use x="60.865234" xlink:href="#DejaVuSans-72"/>
      <use x="101.978516" xlink:href="#DejaVuSans-75"/>
      <use x="165.357422" xlink:href="#DejaVuSans-65"/>
     </g>
    </g>
   </g>
  </g>
  <g id="axes_2">
   <g id="patch_8">
    <path d="M 180 351.547826 
L 1296 351.547826 
L 1296 231.026087 
L 180 231.026087 
z
" style="fill:#ffffff;"/>
   </g>
   <g id="matplotlib.axis_3">
    <g id="xtick_9">
     <g id="line2d_19">
      <g>
       <use style="stroke:#000000;stroke-width:0.8;" x="219.716228" xlink:href="#m8ee488d0f4" y="351.547826"/>
      </g>
     </g>
     <g id="text_16">
      <!-- 0.0 -->
      <g transform="translate(211.764665 366.146264)scale(0.1 -0.1)">
       <use xlink:href="#DejaVuSans-30"/>
       <use x="63.623047" xlink:href="#DejaVuSans-2e"/>
       <use x="95.410156" xlink:href="#DejaVuSans-30"/>
      </g>
     </g>
    </g>
    <g id="xtick_10">
     <g id="line2d_20">
      <g>
       <use style="stroke:#000000;stroke-width:0.8;" x="372.647409" xlink:href="#m8ee488d0f4" y="351.547826"/>
      </g>
     </g>
     <g id="text_17">
      <!-- 0.5 -->
      <g transform="translate(364.695846 366.146264)scale(0.1 -0.1)">
       <use xlink:href="#DejaVuSans-30"/>
       <use x="63.623047" xlink:href="#DejaVuSans-2e"/>
       <use x="95.410156" xlink:href="#DejaVuSans-35"/>
      </g>
     </g>
    </g>
    <g id="xtick_11">
     <g id="line2d_21">
      <g>
       <use style="stroke:#000000;stroke-width:0.8;" x="525.57859" xlink:href="#m8ee488d0f4" y="351.547826"/>
      </g>
     </g>
     <g id="text_18">
      <!-- 1.0 -->
      <g transform="translate(517.627027 366.146264)scale(0.1 -0.1)">
       <use xlink:href="#DejaVuSans-31"/>
       <use x="63.623047" xlink:href="#DejaVuSans-2e"/>
       <use x="95.410156" xlink:href="#DejaVuSans-30"/>
      </g>
     </g>
    </g>
    <g id="xtick_12">
     <g id="line2d_22">
      <g>
       <use style="stroke:#000000;stroke-width:0.8;" x="678.509771" xlink:href="#m8ee488d0f4" y="351.547826"/>
      </g>
     </g>
     <g id="text_19">
      <!-- 1.5 -->
      <g transform="translate(670.558208 366.146264)scale(0.1 -0.1)">
       <use xlink:href="#DejaVuSans-31"/>
       <use x="63.623047" xlink:href="#DejaVuSans-2e"/>
       <use x="95.410156" xlink:href="#DejaVuSans-35"/>
      </g>
     </g>
    </g>
    <g id="xtick_13">
     <g id="line2d_23">
      <g>
       <use style="stroke:#000000;stroke-width:0.8;" x="831.440952" xlink:href="#m8ee488d0f4" y="351.547826"/>
      </g>
     </g>
     <g id="text_20">
      <!-- 2.0 -->
      <g transform="translate(823.489389 366.146264)scale(0.1 -0.1)">
       <use xlink:href="#DejaVuSans-32"/>
       <use x="63.623047" xlink:href="#DejaVuSans-2e"/>
       <use x="95.410156" xlink:href="#DejaVuSans-30"/>
      </g>
     </g>
    </g>
    <g id="xtick_14">
     <g id="line2d_24">
      <g>
       <use style="stroke:#000000;stroke-width:0.8;" x="984.372133" xlink:href="#m8ee488d0f4" y="351.547826"/>
      </g>
     </g>
     <g id="text_21">
      <!-- 2.5 -->
      <g transform="translate(976.42057 366.146264)scale(0.1 -0.1)">
       <use xlink:href="#DejaVuSans-32"/>
       <use x="63.623047" xlink:href="#DejaVuSans-2e"/>
       <use x="95.410156" xlink:href="#DejaVuSans-35"/>
      </g>
     </g>
    </g>
    <g id="xtick_15">
     <g id="line2d_25">
      <g>
       <use style="stroke:#000000;stroke-width:0.8;" x="1137.303314" xlink:href="#m8ee488d0f4" y="351.547826"/>
      </g>
     </g>
     <g id="text_22">
      <!-- 3.0 -->
      <g transform="translate(1129.351751 366.146264)scale(0.1 -0.1)">
       <use xlink:href="#DejaVuSans-33"/>
       <use x="63.623047" xlink:href="#DejaVuSans-2e"/>
       <use x="95.410156" xlink:href="#DejaVuSans-30"/>
      </g>
     </g>
    </g>
    <g id="xtick_16">
     <g id="line2d_26">
      <g>
       <use style="stroke:#000000;stroke-width:0.8;" x="1290.234494" xlink:href="#m8ee488d0f4" y="351.547826"/>
      </g>
     </g>
     <g id="text_23">
      <!-- 3.5 -->
      <g transform="translate(1282.282932 366.146264)scale(0.1 -0.1)">
       <use xlink:href="#DejaVuSans-33"/>
       <use x="63.623047" xlink:href="#DejaVuSans-2e"/>
       <use x="95.410156" xlink:href="#DejaVuSans-35"/>
      </g>
     </g>
    </g>
   </g>
   <g id="matplotlib.axis_4">
    <g id="ytick_5">
     <g id="line2d_27">
      <g>
       <use style="stroke:#000000;stroke-width:0.8;" x="180" xlink:href="#ma4591950df" y="350.151697"/>
      </g>
     </g>
     <g id="text_24">
      <!-- −800 -->
      <defs>
       <path d="M 31.78125 34.625 
Q 24.75 34.625 20.71875 30.859375 
Q 16.703125 27.09375 16.703125 20.515625 
Q 16.703125 13.921875 20.71875 10.15625 
Q 24.75 6.390625 31.78125 6.390625 
Q 38.8125 6.390625 42.859375 10.171875 
Q 46.921875 13.96875 46.921875 20.515625 
Q 46.921875 27.09375 42.890625 30.859375 
Q 38.875 34.625 31.78125 34.625 
z
M 21.921875 38.8125 
Q 15.578125 40.375 12.03125 44.71875 
Q 8.5 49.078125 8.5 55.328125 
Q 8.5 64.0625 14.71875 69.140625 
Q 20.953125 74.21875 31.78125 74.21875 
Q 42.671875 74.21875 48.875 69.140625 
Q 55.078125 64.0625 55.078125 55.328125 
Q 55.078125 49.078125 51.53125 44.71875 
Q 48 40.375 41.703125 38.8125 
Q 48.828125 37.15625 52.796875 32.3125 
Q 56.78125 27.484375 56.78125 20.515625 
Q 56.78125 9.90625 50.3125 4.234375 
Q 43.84375 -1.421875 31.78125 -1.421875 
Q 19.734375 -1.421875 13.25 4.234375 
Q 6.78125 9.90625 6.78125 20.515625 
Q 6.78125 27.484375 10.78125 32.3125 
Q 14.796875 37.15625 21.921875 38.8125 
z
M 18.3125 54.390625 
Q 18.3125 48.734375 21.84375 45.5625 
Q 25.390625 42.390625 31.78125 42.390625 
Q 38.140625 42.390625 41.71875 45.5625 
Q 45.3125 48.734375 45.3125 54.390625 
Q 45.3125 60.0625 41.71875 63.234375 
Q 38.140625 66.40625 31.78125 66.40625 
Q 25.390625 66.40625 21.84375 63.234375 
Q 18.3125 60.0625 18.3125 54.390625 
z
" id="DejaVuSans-38"/>
      </defs>
      <g transform="translate(145.532813 353.950916)scale(0.1 -0.1)">
       <use xlink:href="#DejaVuSans-2212"/>
       <use x="83.789062" xlink:href="#DejaVuSans-38"/>
       <use x="147.412109" xlink:href="#DejaVuSans-30"/>
       <use x="211.035156" xlink:href="#DejaVuSans-30"/>
      </g>
     </g>
    </g>
    <g id="ytick_6">
     <g id="line2d_28">
      <g>
       <use style="stroke:#000000;stroke-width:0.8;" x="180" xlink:href="#ma4591950df" y="322.891141"/>
      </g>
     </g>
     <g id="text_25">
      <!-- −600 -->
      <g transform="translate(145.532813 326.69036)scale(0.1 -0.1)">
       <use xlink:href="#DejaVuSans-2212"/>
       <use x="83.789062" xlink:href="#DejaVuSans-36"/>
       <use x="147.412109" xlink:href="#DejaVuSans-30"/>
       <use x="211.035156" xlink:href="#DejaVuSans-30"/>
      </g>
     </g>
    </g>
    <g id="ytick_7">
     <g id="line2d_29">
      <g>
       <use style="stroke:#000000;stroke-width:0.8;" x="180" xlink:href="#ma4591950df" y="295.630585"/>
      </g>
     </g>
     <g id="text_26">
      <!-- −400 -->
      <g transform="translate(145.532813 299.429804)scale(0.1 -0.1)">
       <use xlink:href="#DejaVuSans-2212"/>
       <use x="83.789062" xlink:href="#DejaVuSans-34"/>
       <use x="147.412109" xlink:href="#DejaVuSans-30"/>
       <use x="211.035156" xlink:href="#DejaVuSans-30"/>
      </g>
     </g>
    </g>
    <g id="ytick_8">
     <g id="line2d_30">
      <g>
       <use style="stroke:#000000;stroke-width:0.8;" x="180" xlink:href="#ma4591950df" y="268.370029"/>
      </g>
     </g>
     <g id="text_27">
      <!-- −200 -->
      <g transform="translate(145.532813 272.169248)scale(0.1 -0.1)">
       <use xlink:href="#DejaVuSans-2212"/>
       <use x="83.789062" xlink:href="#DejaVuSans-32"/>
       <use x="147.412109" xlink:href="#DejaVuSans-30"/>
       <use x="211.035156" xlink:href="#DejaVuSans-30"/>
      </g>
     </g>
    </g>
    <g id="ytick_9">
     <g id="line2d_31">
      <g>
       <use style="stroke:#000000;stroke-width:0.8;" x="180" xlink:href="#ma4591950df" y="241.109474"/>
      </g>
     </g>
     <g id="text_28">
      <!-- 0 -->
      <g transform="translate(166.6375 244.908692)scale(0.1 -0.1)">
       <use xlink:href="#DejaVuSans-30"/>
      </g>
     </g>
    </g>
    <g id="text_29">
     <!-- TD State:1 -->
     <g transform="translate(139.453125 317.880707)rotate(-90)scale(0.1 -0.1)">
      <use xlink:href="#DejaVuSans-54"/>
      <use x="61.083984" xlink:href="#DejaVuSans-44"/>
      <use x="138.085938" xlink:href="#DejaVuSans-20"/>
      <use x="169.873047" xlink:href="#DejaVuSans-53"/>
      <use x="233.349609" xlink:href="#DejaVuSans-74"/>
      <use x="272.558594" xlink:href="#DejaVuSans-61"/>
      <use x="333.837891" xlink:href="#DejaVuSans-74"/>
      <use x="373.046875" xlink:href="#DejaVuSans-65"/>
      <use x="434.570312" xlink:href="#DejaVuSans-3a"/>
      <use x="468.261719" xlink:href="#DejaVuSans-31"/>
     </g>
    </g>
   </g>
   <g id="line2d_32">
    <path clip-path="url(#p1f1e406ef3)" d="M 230.727273 346.069565 
L 257.643161 346.064386 
L 263.148683 343.652644 
L 268.042481 343.521521 
L 272.936279 343.521521 
L 279.053526 341.679389 
L 283.947324 342.054631 
L 289.452846 339.935122 
L 294.958369 340.124583 
L 299.852167 339.85116 
L 305.357689 339.881828 
L 310.863212 338.8248 
L 312.698386 338.90699 
L 317.898046 338.891725 
L 322.791844 335.878479 
L 327.685641 336.205333 
L 333.191164 335.877389 
L 338.696686 335.895517 
L 343.590484 335.772844 
L 349.096007 336.150403 
L 354.601529 333.36601 
L 360.107052 332.751284 
L 393.751912 332.778681 
L 419.750212 332.737381 
L 429.84367 332.66296 
L 435.349193 332.280086 
L 440.854715 332.265092 
L 446.360238 329.013998 
L 451.254036 328.715904 
L 468.994053 328.721356 
L 470.217502 325.510881 
L 481.228547 325.567037 
L 485.51062 325.464674 
L 502.027188 325.464674 
L 506.920986 322.402632 
L 523.437553 322.325621 
L 528.943076 322.720218 
L 534.448598 321.415664 
L 539.954121 321.408849 
L 545.459643 319.098789 
L 552.188615 319.115691 
L 562.282073 319.007602 
L 567.175871 318.7474 
L 572.681393 318.747673 
L 578.798641 315.449827 
L 583.692438 315.963144 
L 589.197961 316.136112 
L 594.703483 315.96328 
L 599.597281 316.101764 
L 604.491079 315.222202 
L 609.384877 315.203392 
L 614.890399 313.588204 
L 631.406967 313.592975 
L 636.300765 310.937387 
L 641.806287 310.870872 
L 647.31181 310.277818 
L 654.040782 310.63684 
L 679.73322 310.572369 
L 684.627018 309.819023 
L 695.026338 309.960233 
L 699.920136 305.792775 
L 705.425658 275.241421 
L 721.330501 275.376047 
L 726.224299 271.876896 
L 732.341546 271.921467 
L 737.235344 272.710959 
L 742.129142 272.70732 
L 747.634664 273.090781 
L 753.751912 272.897394 
L 758.645709 274.417811 
L 765.986406 274.171239 
L 774.550552 278.207655 
L 784.949873 278.210395 
L 786.785047 279.18556 
L 854.380629 279.203565 
L 859.274427 279.864157 
L 864.779949 279.955997 
L 869.673747 283.846556 
L 874.567545 283.744465 
L 885.57859 283.754701 
L 890.472387 284.580764 
L 895.366185 284.384911 
L 900.871708 284.611051 
L 905.765506 284.573636 
L 911.271028 284.877155 
L 916.776551 284.883711 
L 921.670348 285.949094 
L 927.175871 285.896877 
L 931.763806 288.314874 
L 941.551402 290.585638 
L 946.4452 290.592712 
L 952.562447 291.546477 
L 957.456245 291.548276 
L 962.961767 296.222044 
L 968.46729 295.334658 
L 973.972812 297.112183 
L 975.196262 297.111624 
L 980.701784 297.554049 
L 985.28972 297.407742 
L 990.48938 297.415688 
L 995.68904 299.495969 
L 1000.582838 299.496323 
L 1005.476636 302.779298 
L 1010.982158 302.711242 
L 1016.487681 302.88571 
L 1021.993203 304.274744 
L 1027.498726 304.274308 
L 1033.004248 306.617407 
L 1049.520816 306.601732 
L 1055.026338 308.783408 
L 1056.861512 308.721813 
L 1062.061172 311.874742 
L 1066.95497 311.890989 
L 1072.460493 310.680975 
L 1077.354291 311.021609 
L 1083.471538 310.95343 
L 1088.365336 311.886164 
L 1093.259133 316.601395 
L 1098.764656 316.365305 
L 1104.270178 316.99332 
L 1109.775701 316.381934 
L 1115.892948 316.581849 
L 1121.092608 316.581863 
L 1126.598131 320.113073 
L 1138.832625 320.04473 
L 1143.114698 320.988463 
L 1148.620221 320.837345 
L 1153.819881 321.211959 
L 1159.325404 321.193831 
L 1164.830926 324.420513 
L 1169.724724 325.29604 
L 1175.230246 325.218116 
L 1181.347494 325.294282 
L 1186.241291 325.138215 
L 1191.746814 325.288912 
L 1197.252336 325.272324 
L 1202.757859 329.774145 
L 1207.651657 328.801816 
L 1213.157179 329.7032 
L 1217.745115 329.074503 
L 1222.638912 329.278767 
L 1228.144435 329.00642 
L 1233.649958 330.865617 
L 1238.543755 330.601435 
L 1244.049278 333.631555 
L 1245.272727 333.496424 
L 1245.272727 333.496424 
" style="fill:none;stroke:#000000;stroke-linecap:square;stroke-width:4;"/>
   </g>
   <g id="line2d_33">
    <path clip-path="url(#p1f1e406ef3)" d="M 230.727273 241.109474 
L 252.137638 241.109474 
L 257.643161 243.528848 
L 263.148683 241.245776 
L 268.042481 241.109474 
L 272.936279 242.949561 
L 279.053526 240.734641 
L 283.947324 243.186046 
L 289.452846 240.920013 
L 294.958369 241.387531 
L 299.852167 241.077988 
L 305.357689 242.329247 
L 310.863212 241.027283 
L 312.698386 241.109474 
L 317.898046 244.096549 
L 322.791844 240.780302 
L 327.685641 241.444506 
L 333.191164 241.091618 
L 338.696686 241.064903 
L 343.590484 240.700565 
L 349.096007 243.937756 
L 354.601529 241.722836 
L 360.107052 241.126239 
L 376.011895 241.075398 
L 404.151232 241.160314 
L 414.24469 241.111245 
L 419.750212 241.193163 
L 424.64401 241.109474 
L 429.84367 241.529422 
L 435.349193 241.124603 
L 440.854715 244.388646 
L 446.360238 241.399253 
L 451.254036 241.106066 
L 463.48853 241.112063 
L 468.994053 244.319949 
L 470.217502 241.057406 
L 481.228547 241.211701 
L 485.51062 241.06463 
L 491.016143 241.154317 
L 496.521665 241.109474 
L 502.027188 244.182011 
L 506.920986 241.035052 
L 517.932031 241.135235 
L 523.437553 240.720465 
L 528.943076 242.444423 
L 534.448598 241.11588 
L 539.954121 243.300268 
L 545.459643 241.096116 
L 557.388275 241.136053 
L 562.282073 241.389576 
L 567.175871 241.109474 
L 572.681393 244.368609 
L 578.798641 240.610469 
L 589.197961 241.279852 
L 594.703483 240.973171 
L 599.597281 241.964501 
L 604.491079 241.12692 
L 609.384877 242.707487 
L 614.890399 241.122286 
L 625.901444 241.109882 
L 631.406967 243.606404 
L 636.300765 241.170946 
L 641.806287 241.498754 
L 647.31181 240.775532 
L 654.040782 241.109474 
L 669.3339 241.075398 
L 674.839422 241.241415 
L 679.73322 241.860229 
L 684.627018 241.109474 
L 690.13254 241.048955 
L 695.026338 245.598606 
L 699.920136 240.146222 
L 705.425658 241.085484 
L 710.931181 241.1306 
L 716.436703 240.976033 
L 721.330501 244.962344 
L 726.224299 241.069401 
L 732.341546 240.323143 
L 737.235344 241.112472 
L 742.129142 240.768444 
L 747.634664 241.297026 
L 753.751912 239.604555 
L 758.645709 241.355636 
L 764.151232 241.109474 
L 765.986406 237.197447 
L 774.550552 241.109474 
L 779.44435 241.106611 
L 784.949873 240.134091 
L 786.785047 241.141096 
L 807.277825 241.120787 
L 848.875106 241.093935 
L 854.380629 240.465579 
L 859.274427 241.000977 
L 864.779949 237.342201 
L 869.673747 241.223832 
L 874.567545 241.068583 
L 880.684792 241.136734 
L 885.57859 240.237136 
L 890.472387 241.313928 
L 895.366185 240.870944 
L 900.871708 241.143549 
L 905.765506 240.80361 
L 911.271028 241.102249 
L 916.776551 240.064713 
L 921.670348 241.163586 
L 927.175871 238.719404 
L 931.763806 240.039497 
L 936.657604 240.008692 
L 941.551402 241.108383 
L 946.4452 240.159988 
L 952.562447 241.106884 
L 957.456245 236.663277 
L 962.961767 242.014388 
L 968.46729 239.337537 
L 973.972812 241.109474 
L 975.196262 240.66649 
L 980.701784 241.109474 
L 985.28972 241.099796 
L 990.48938 239.064387 
L 995.68904 241.109474 
L 1000.582838 237.882505 
L 1005.476636 241.177625 
L 1010.982158 240.973171 
L 1016.487681 239.74222 
L 1021.993203 241.108519 
L 1027.498726 238.831854 
L 1033.004248 241.116289 
L 1044.015293 241.128829 
L 1049.520816 238.926585 
L 1055.026338 241.171082 
L 1056.861512 237.955155 
L 1062.061172 241.109474 
L 1066.95497 242.315889 
L 1072.460493 240.768717 
L 1077.354291 241.177625 
L 1083.471538 240.242997 
L 1088.365336 236.504348 
L 1093.259133 241.333419 
L 1098.764656 240.496111 
L 1104.270178 241.713567 
L 1109.775701 240.914288 
L 1115.892948 241.109474 
L 1121.092608 237.565601 
L 1126.598131 241.109474 
L 1127.82158 241.177625 
L 1133.327103 241.109474 
L 1138.832625 240.155354 
L 1143.114698 241.245776 
L 1148.620221 240.757403 
L 1153.819881 241.120787 
L 1159.325404 237.770055 
L 1164.830926 240.229366 
L 1169.724724 241.188257 
L 1175.230246 241.033008 
L 1181.347494 241.25082 
L 1186.241291 240.970308 
L 1191.746814 241.112745 
L 1197.252336 236.597852 
L 1202.757859 242.063593 
L 1207.651657 240.248721 
L 1213.157179 241.69762 
L 1217.745115 240.905019 
L 1222.638912 241.382079 
L 1228.144435 239.405689 
L 1233.649958 241.424333 
L 1238.543755 238.234439 
L 1244.049278 241.243459 
L 1245.272727 240.910335 
L 1245.272727 240.910335 
" style="fill:none;stroke:#ff0000;stroke-linecap:square;stroke-width:1.5;"/>
   </g>
   <g id="patch_9">
    <path d="M 180 351.547826 
L 180 231.026087 
" style="fill:none;stroke:#000000;stroke-linecap:square;stroke-linejoin:miter;stroke-width:0.8;"/>
   </g>
   <g id="patch_10">
    <path d="M 1296 351.547826 
L 1296 231.026087 
" style="fill:none;stroke:#000000;stroke-linecap:square;stroke-linejoin:miter;stroke-width:0.8;"/>
   </g>
   <g id="patch_11">
    <path d="M 180 351.547826 
L 1296 351.547826 
" style="fill:none;stroke:#000000;stroke-linecap:square;stroke-linejoin:miter;stroke-width:0.8;"/>
   </g>
   <g id="patch_12">
    <path d="M 180 231.026087 
L 1296 231.026087 
" style="fill:none;stroke:#000000;stroke-linecap:square;stroke-linejoin:miter;stroke-width:0.8;"/>
   </g>
   <g id="legend_2">
    <g id="patch_13">
     <path d="M 1234.3125 268.382337 
L 1289 268.382337 
Q 1291 268.382337 1291 266.382337 
L 1291 238.026087 
Q 1291 236.026087 1289 236.026087 
L 1234.3125 236.026087 
Q 1232.3125 236.026087 1232.3125 238.026087 
L 1232.3125 266.382337 
Q 1232.3125 268.382337 1234.3125 268.382337 
z
" style="fill:#ffffff;opacity:0.8;stroke:#cccccc;stroke-linejoin:miter;"/>
    </g>
    <g id="line2d_34">
     <path d="M 1236.3125 244.124524 
L 1256.3125 244.124524 
" style="fill:none;stroke:#000000;stroke-linecap:square;stroke-width:4;"/>
    </g>
    <g id="line2d_35"/>
    <g id="text_30">
     <!-- Pred -->
     <g transform="translate(1264.3125 247.624524)scale(0.1 -0.1)">
      <use xlink:href="#DejaVuSans-50"/>
      <use x="60.287109" xlink:href="#DejaVuSans-72"/>
      <use x="101.369141" xlink:href="#DejaVuSans-65"/>
      <use x="162.892578" xlink:href="#DejaVuSans-64"/>
     </g>
    </g>
    <g id="line2d_36">
     <path d="M 1236.3125 258.802649 
L 1256.3125 258.802649 
" style="fill:none;stroke:#ff0000;stroke-linecap:square;stroke-width:1.5;"/>
    </g>
    <g id="line2d_37"/>
    <g id="text_31">
     <!-- True -->
     <g transform="translate(1264.3125 262.302649)scale(0.1 -0.1)">
      <use xlink:href="#DejaVuSans-54"/>
      <use x="60.865234" xlink:href="#DejaVuSans-72"/>
      <use x="101.978516" xlink:href="#DejaVuSans-75"/>
      <use x="165.357422" xlink:href="#DejaVuSans-65"/>
     </g>
    </g>
   </g>
  </g>
  <g id="axes_3">
   <g id="patch_14">
    <path d="M 180 496.173913 
L 1296 496.173913 
L 1296 375.652174 
L 180 375.652174 
z
" style="fill:#ffffff;"/>
   </g>
   <g id="matplotlib.axis_5">
    <g id="xtick_17">
     <g id="line2d_38">
      <g>
       <use style="stroke:#000000;stroke-width:0.8;" x="219.716228" xlink:href="#m8ee488d0f4" y="496.173913"/>
      </g>
     </g>
     <g id="text_32">
      <!-- 0.0 -->
      <g transform="translate(211.764665 510.772351)scale(0.1 -0.1)">
       <use xlink:href="#DejaVuSans-30"/>
       <use x="63.623047" xlink:href="#DejaVuSans-2e"/>
       <use x="95.410156" xlink:href="#DejaVuSans-30"/>
      </g>
     </g>
    </g>
    <g id="xtick_18">
     <g id="line2d_39">
      <g>
       <use style="stroke:#000000;stroke-width:0.8;" x="372.647409" xlink:href="#m8ee488d0f4" y="496.173913"/>
      </g>
     </g>
     <g id="text_33">
      <!-- 0.5 -->
      <g transform="translate(364.695846 510.772351)scale(0.1 -0.1)">
       <use xlink:href="#DejaVuSans-30"/>
       <use x="63.623047" xlink:href="#DejaVuSans-2e"/>
       <use x="95.410156" xlink:href="#DejaVuSans-35"/>
      </g>
     </g>
    </g>
    <g id="xtick_19">
     <g id="line2d_40">
      <g>
       <use style="stroke:#000000;stroke-width:0.8;" x="525.57859" xlink:href="#m8ee488d0f4" y="496.173913"/>
      </g>
     </g>
     <g id="text_34">
      <!-- 1.0 -->
      <g transform="translate(517.627027 510.772351)scale(0.1 -0.1)">
       <use xlink:href="#DejaVuSans-31"/>
       <use x="63.623047" xlink:href="#DejaVuSans-2e"/>
       <use x="95.410156" xlink:href="#DejaVuSans-30"/>
      </g>
     </g>
    </g>
    <g id="xtick_20">
     <g id="line2d_41">
      <g>
       <use style="stroke:#000000;stroke-width:0.8;" x="678.509771" xlink:href="#m8ee488d0f4" y="496.173913"/>
      </g>
     </g>
     <g id="text_35">
      <!-- 1.5 -->
      <g transform="translate(670.558208 510.772351)scale(0.1 -0.1)">
       <use xlink:href="#DejaVuSans-31"/>
       <use x="63.623047" xlink:href="#DejaVuSans-2e"/>
       <use x="95.410156" xlink:href="#DejaVuSans-35"/>
      </g>
     </g>
    </g>
    <g id="xtick_21">
     <g id="line2d_42">
      <g>
       <use style="stroke:#000000;stroke-width:0.8;" x="831.440952" xlink:href="#m8ee488d0f4" y="496.173913"/>
      </g>
     </g>
     <g id="text_36">
      <!-- 2.0 -->
      <g transform="translate(823.489389 510.772351)scale(0.1 -0.1)">
       <use xlink:href="#DejaVuSans-32"/>
       <use x="63.623047" xlink:href="#DejaVuSans-2e"/>
       <use x="95.410156" xlink:href="#DejaVuSans-30"/>
      </g>
     </g>
    </g>
    <g id="xtick_22">
     <g id="line2d_43">
      <g>
       <use style="stroke:#000000;stroke-width:0.8;" x="984.372133" xlink:href="#m8ee488d0f4" y="496.173913"/>
      </g>
     </g>
     <g id="text_37">
      <!-- 2.5 -->
      <g transform="translate(976.42057 510.772351)scale(0.1 -0.1)">
       <use xlink:href="#DejaVuSans-32"/>
       <use x="63.623047" xlink:href="#DejaVuSans-2e"/>
       <use x="95.410156" xlink:href="#DejaVuSans-35"/>
      </g>
     </g>
    </g>
    <g id="xtick_23">
     <g id="line2d_44">
      <g>
       <use style="stroke:#000000;stroke-width:0.8;" x="1137.303314" xlink:href="#m8ee488d0f4" y="496.173913"/>
      </g>
     </g>
     <g id="text_38">
      <!-- 3.0 -->
      <g transform="translate(1129.351751 510.772351)scale(0.1 -0.1)">
       <use xlink:href="#DejaVuSans-33"/>
       <use x="63.623047" xlink:href="#DejaVuSans-2e"/>
       <use x="95.410156" xlink:href="#DejaVuSans-30"/>
      </g>
     </g>
    </g>
    <g id="xtick_24">
     <g id="line2d_45">
      <g>
       <use style="stroke:#000000;stroke-width:0.8;" x="1290.234494" xlink:href="#m8ee488d0f4" y="496.173913"/>
      </g>
     </g>
     <g id="text_39">
      <!-- 3.5 -->
      <g transform="translate(1282.282932 510.772351)scale(0.1 -0.1)">
       <use xlink:href="#DejaVuSans-33"/>
       <use x="63.623047" xlink:href="#DejaVuSans-2e"/>
       <use x="95.410156" xlink:href="#DejaVuSans-35"/>
      </g>
     </g>
    </g>
   </g>
   <g id="matplotlib.axis_6">
    <g id="ytick_10">
     <g id="line2d_46">
      <g>
       <use style="stroke:#000000;stroke-width:0.8;" x="180" xlink:href="#ma4591950df" y="479.73913"/>
      </g>
     </g>
     <g id="text_40">
      <!-- −0.04 -->
      <g transform="translate(142.354688 483.538349)scale(0.1 -0.1)">
       <use xlink:href="#DejaVuSans-2212"/>
       <use x="83.789062" xlink:href="#DejaVuSans-30"/>
       <use x="147.412109" xlink:href="#DejaVuSans-2e"/>
       <use x="179.199219" xlink:href="#DejaVuSans-30"/>
       <use x="242.822266" xlink:href="#DejaVuSans-34"/>
      </g>
     </g>
    </g>
    <g id="ytick_11">
     <g id="line2d_47">
      <g>
       <use style="stroke:#000000;stroke-width:0.8;" x="180" xlink:href="#ma4591950df" y="457.826087"/>
      </g>
     </g>
     <g id="text_41">
      <!-- −0.02 -->
      <g transform="translate(142.354688 461.625306)scale(0.1 -0.1)">
       <use xlink:href="#DejaVuSans-2212"/>
       <use x="83.789062" xlink:href="#DejaVuSans-30"/>
       <use x="147.412109" xlink:href="#DejaVuSans-2e"/>
       <use x="179.199219" xlink:href="#DejaVuSans-30"/>
       <use x="242.822266" xlink:href="#DejaVuSans-32"/>
      </g>
     </g>
    </g>
    <g id="ytick_12">
     <g id="line2d_48">
      <g>
       <use style="stroke:#000000;stroke-width:0.8;" x="180" xlink:href="#ma4591950df" y="435.913043"/>
      </g>
     </g>
     <g id="text_42">
      <!-- 0.00 -->
      <g transform="translate(150.734375 439.712262)scale(0.1 -0.1)">
       <use xlink:href="#DejaVuSans-30"/>
       <use x="63.623047" xlink:href="#DejaVuSans-2e"/>
       <use x="95.410156" xlink:href="#DejaVuSans-30"/>
       <use x="159.033203" xlink:href="#DejaVuSans-30"/>
      </g>
     </g>
    </g>
    <g id="ytick_13">
     <g id="line2d_49">
      <g>
       <use style="stroke:#000000;stroke-width:0.8;" x="180" xlink:href="#ma4591950df" y="414"/>
      </g>
     </g>
     <g id="text_43">
      <!-- 0.02 -->
      <g transform="translate(150.734375 417.799219)scale(0.1 -0.1)">
       <use xlink:href="#DejaVuSans-30"/>
       <use x="63.623047" xlink:href="#DejaVuSans-2e"/>
       <use x="95.410156" xlink:href="#DejaVuSans-30"/>
       <use x="159.033203" xlink:href="#DejaVuSans-32"/>
      </g>
     </g>
    </g>
    <g id="ytick_14">
     <g id="line2d_50">
      <g>
       <use style="stroke:#000000;stroke-width:0.8;" x="180" xlink:href="#ma4591950df" y="392.086957"/>
      </g>
     </g>
     <g id="text_44">
      <!-- 0.04 -->
      <g transform="translate(150.734375 395.886175)scale(0.1 -0.1)">
       <use xlink:href="#DejaVuSans-30"/>
       <use x="63.623047" xlink:href="#DejaVuSans-2e"/>
       <use x="95.410156" xlink:href="#DejaVuSans-30"/>
       <use x="159.033203" xlink:href="#DejaVuSans-34"/>
      </g>
     </g>
    </g>
    <g id="text_45">
     <!-- TD State:2 -->
     <g transform="translate(136.275 462.506793)rotate(-90)scale(0.1 -0.1)">
      <use xlink:href="#DejaVuSans-54"/>
      <use x="61.083984" xlink:href="#DejaVuSans-44"/>
      <use x="138.085938" xlink:href="#DejaVuSans-20"/>
      <use x="169.873047" xlink:href="#DejaVuSans-53"/>
      <use x="233.349609" xlink:href="#DejaVuSans-74"/>
      <use x="272.558594" xlink:href="#DejaVuSans-61"/>
      <use x="333.837891" xlink:href="#DejaVuSans-74"/>
      <use x="373.046875" xlink:href="#DejaVuSans-65"/>
      <use x="434.570312" xlink:href="#DejaVuSans-3a"/>
      <use x="468.261719" xlink:href="#DejaVuSans-32"/>
     </g>
    </g>
   </g>
   <g id="line2d_51">
    <path clip-path="url(#p5c9f3b9381)" d="M 230.727273 435.913043 
L 1245.272727 435.913043 
L 1245.272727 435.913043 
" style="fill:none;stroke:#000000;stroke-linecap:square;stroke-width:4;"/>
   </g>
   <g id="line2d_52">
    <path clip-path="url(#p5c9f3b9381)" d="M 230.727273 435.913043 
L 1245.272727 435.913043 
L 1245.272727 435.913043 
" style="fill:none;stroke:#ff0000;stroke-linecap:square;stroke-width:1.5;"/>
   </g>
   <g id="patch_15">
    <path d="M 180 496.173913 
L 180 375.652174 
" style="fill:none;stroke:#000000;stroke-linecap:square;stroke-linejoin:miter;stroke-width:0.8;"/>
   </g>
   <g id="patch_16">
    <path d="M 1296 496.173913 
L 1296 375.652174 
" style="fill:none;stroke:#000000;stroke-linecap:square;stroke-linejoin:miter;stroke-width:0.8;"/>
   </g>
   <g id="patch_17">
    <path d="M 180 496.173913 
L 1296 496.173913 
" style="fill:none;stroke:#000000;stroke-linecap:square;stroke-linejoin:miter;stroke-width:0.8;"/>
   </g>
   <g id="patch_18">
    <path d="M 180 375.652174 
L 1296 375.652174 
" style="fill:none;stroke:#000000;stroke-linecap:square;stroke-linejoin:miter;stroke-width:0.8;"/>
   </g>
   <g id="legend_3">
    <g id="patch_19">
     <path d="M 1234.3125 413.008424 
L 1289 413.008424 
Q 1291 413.008424 1291 411.008424 
L 1291 382.652174 
Q 1291 380.652174 1289 380.652174 
L 1234.3125 380.652174 
Q 1232.3125 380.652174 1232.3125 382.652174 
L 1232.3125 411.008424 
Q 1232.3125 413.008424 1234.3125 413.008424 
z
" style="fill:#ffffff;opacity:0.8;stroke:#cccccc;stroke-linejoin:miter;"/>
    </g>
    <g id="line2d_53">
     <path d="M 1236.3125 388.750611 
L 1256.3125 388.750611 
" style="fill:none;stroke:#000000;stroke-linecap:square;stroke-width:4;"/>
    </g>
    <g id="line2d_54"/>
    <g id="text_46">
     <!-- Pred -->
     <g transform="translate(1264.3125 392.250611)scale(0.1 -0.1)">
      <use xlink:href="#DejaVuSans-50"/>
      <use x="60.287109" xlink:href="#DejaVuSans-72"/>
      <use x="101.369141" xlink:href="#DejaVuSans-65"/>
      <use x="162.892578" xlink:href="#DejaVuSans-64"/>
     </g>
    </g>
    <g id="line2d_55">
     <path d="M 1236.3125 403.428736 
L 1256.3125 403.428736 
" style="fill:none;stroke:#ff0000;stroke-linecap:square;stroke-width:1.5;"/>
    </g>
    <g id="line2d_56"/>
    <g id="text_47">
     <!-- True -->
     <g transform="translate(1264.3125 406.928736)scale(0.1 -0.1)">
      <use xlink:href="#DejaVuSans-54"/>
      <use x="60.865234" xlink:href="#DejaVuSans-72"/>
      <use x="101.978516" xlink:href="#DejaVuSans-75"/>
      <use x="165.357422" xlink:href="#DejaVuSans-65"/>
     </g>
    </g>
   </g>
  </g>
  <g id="axes_4">
   <g id="patch_20">
    <path d="M 180 640.8 
L 1296 640.8 
L 1296 520.278261 
L 180 520.278261 
z
" style="fill:#ffffff;"/>
   </g>
   <g id="matplotlib.axis_7">
    <g id="xtick_25">
     <g id="line2d_57">
      <g>
       <use style="stroke:#000000;stroke-width:0.8;" x="219.716228" xlink:href="#m8ee488d0f4" y="640.8"/>
      </g>
     </g>
     <g id="text_48">
      <!-- 0.0 -->
      <g transform="translate(211.764665 655.398438)scale(0.1 -0.1)">
       <use xlink:href="#DejaVuSans-30"/>
       <use x="63.623047" xlink:href="#DejaVuSans-2e"/>
       <use x="95.410156" xlink:href="#DejaVuSans-30"/>
      </g>
     </g>
    </g>
    <g id="xtick_26">
     <g id="line2d_58">
      <g>
       <use style="stroke:#000000;stroke-width:0.8;" x="372.647409" xlink:href="#m8ee488d0f4" y="640.8"/>
      </g>
     </g>
     <g id="text_49">
      <!-- 0.5 -->
      <g transform="translate(364.695846 655.398438)scale(0.1 -0.1)">
       <use xlink:href="#DejaVuSans-30"/>
       <use x="63.623047" xlink:href="#DejaVuSans-2e"/>
       <use x="95.410156" xlink:href="#DejaVuSans-35"/>
      </g>
     </g>
    </g>
    <g id="xtick_27">
     <g id="line2d_59">
      <g>
       <use style="stroke:#000000;stroke-width:0.8;" x="525.57859" xlink:href="#m8ee488d0f4" y="640.8"/>
      </g>
     </g>
     <g id="text_50">
      <!-- 1.0 -->
      <g transform="translate(517.627027 655.398438)scale(0.1 -0.1)">
       <use xlink:href="#DejaVuSans-31"/>
       <use x="63.623047" xlink:href="#DejaVuSans-2e"/>
       <use x="95.410156" xlink:href="#DejaVuSans-30"/>
      </g>
     </g>
    </g>
    <g id="xtick_28">
     <g id="line2d_60">
      <g>
       <use style="stroke:#000000;stroke-width:0.8;" x="678.509771" xlink:href="#m8ee488d0f4" y="640.8"/>
      </g>
     </g>
     <g id="text_51">
      <!-- 1.5 -->
      <g transform="translate(670.558208 655.398438)scale(0.1 -0.1)">
       <use xlink:href="#DejaVuSans-31"/>
       <use x="63.623047" xlink:href="#DejaVuSans-2e"/>
       <use x="95.410156" xlink:href="#DejaVuSans-35"/>
      </g>
     </g>
    </g>
    <g id="xtick_29">
     <g id="line2d_61">
      <g>
       <use style="stroke:#000000;stroke-width:0.8;" x="831.440952" xlink:href="#m8ee488d0f4" y="640.8"/>
      </g>
     </g>
     <g id="text_52">
      <!-- 2.0 -->
      <g transform="translate(823.489389 655.398438)scale(0.1 -0.1)">
       <use xlink:href="#DejaVuSans-32"/>
       <use x="63.623047" xlink:href="#DejaVuSans-2e"/>
       <use x="95.410156" xlink:href="#DejaVuSans-30"/>
      </g>
     </g>
    </g>
    <g id="xtick_30">
     <g id="line2d_62">
      <g>
       <use style="stroke:#000000;stroke-width:0.8;" x="984.372133" xlink:href="#m8ee488d0f4" y="640.8"/>
      </g>
     </g>
     <g id="text_53">
      <!-- 2.5 -->
      <g transform="translate(976.42057 655.398438)scale(0.1 -0.1)">
       <use xlink:href="#DejaVuSans-32"/>
       <use x="63.623047" xlink:href="#DejaVuSans-2e"/>
       <use x="95.410156" xlink:href="#DejaVuSans-35"/>
      </g>
     </g>
    </g>
    <g id="xtick_31">
     <g id="line2d_63">
      <g>
       <use style="stroke:#000000;stroke-width:0.8;" x="1137.303314" xlink:href="#m8ee488d0f4" y="640.8"/>
      </g>
     </g>
     <g id="text_54">
      <!-- 3.0 -->
      <g transform="translate(1129.351751 655.398438)scale(0.1 -0.1)">
       <use xlink:href="#DejaVuSans-33"/>
       <use x="63.623047" xlink:href="#DejaVuSans-2e"/>
       <use x="95.410156" xlink:href="#DejaVuSans-30"/>
      </g>
     </g>
    </g>
    <g id="xtick_32">
     <g id="line2d_64">
      <g>
       <use style="stroke:#000000;stroke-width:0.8;" x="1290.234494" xlink:href="#m8ee488d0f4" y="640.8"/>
      </g>
     </g>
     <g id="text_55">
      <!-- 3.5 -->
      <g transform="translate(1282.282932 655.398438)scale(0.1 -0.1)">
       <use xlink:href="#DejaVuSans-33"/>
       <use x="63.623047" xlink:href="#DejaVuSans-2e"/>
       <use x="95.410156" xlink:href="#DejaVuSans-35"/>
      </g>
     </g>
    </g>
    <g id="text_56">
     <!-- Time -->
     <defs>
      <path d="M 9.421875 54.6875 
L 18.40625 54.6875 
L 18.40625 0 
L 9.421875 0 
z
M 9.421875 75.984375 
L 18.40625 75.984375 
L 18.40625 64.59375 
L 9.421875 64.59375 
z
" id="DejaVuSans-69"/>
      <path d="M 52 44.1875 
Q 55.375 50.25 60.0625 53.125 
Q 64.75 56 71.09375 56 
Q 79.640625 56 84.28125 50.015625 
Q 88.921875 44.046875 88.921875 33.015625 
L 88.921875 0 
L 79.890625 0 
L 79.890625 32.71875 
Q 79.890625 40.578125 77.09375 44.375 
Q 74.3125 48.1875 68.609375 48.1875 
Q 61.625 48.1875 57.5625 43.546875 
Q 53.515625 38.921875 53.515625 30.90625 
L 53.515625 0 
L 44.484375 0 
L 44.484375 32.71875 
Q 44.484375 40.625 41.703125 44.40625 
Q 38.921875 48.1875 33.109375 48.1875 
Q 26.21875 48.1875 22.15625 43.53125 
Q 18.109375 38.875 18.109375 30.90625 
L 18.109375 0 
L 9.078125 0 
L 9.078125 54.6875 
L 18.109375 54.6875 
L 18.109375 46.1875 
Q 21.1875 51.21875 25.484375 53.609375 
Q 29.78125 56 35.6875 56 
Q 41.65625 56 45.828125 52.96875 
Q 50 49.953125 52 44.1875 
z
" id="DejaVuSans-6d"/>
     </defs>
     <g transform="translate(725.6125 669.076563)scale(0.1 -0.1)">
      <use xlink:href="#DejaVuSans-54"/>
      <use x="61.037109" xlink:href="#DejaVuSans-69"/>
      <use x="88.820312" xlink:href="#DejaVuSans-6d"/>
      <use x="186.232422" xlink:href="#DejaVuSans-65"/>
     </g>
    </g>
   </g>
   <g id="matplotlib.axis_8">
    <g id="ytick_15">
     <g id="line2d_65">
      <g>
       <use style="stroke:#000000;stroke-width:0.8;" x="180" xlink:href="#ma4591950df" y="624.365217"/>
      </g>
     </g>
     <g id="text_57">
      <!-- −0.04 -->
      <g transform="translate(142.354688 628.164436)scale(0.1 -0.1)">
       <use xlink:href="#DejaVuSans-2212"/>
       <use x="83.789062" xlink:href="#DejaVuSans-30"/>
       <use x="147.412109" xlink:href="#DejaVuSans-2e"/>
       <use x="179.199219" xlink:href="#DejaVuSans-30"/>
       <use x="242.822266" xlink:href="#DejaVuSans-34"/>
      </g>
     </g>
    </g>
    <g id="ytick_16">
     <g id="line2d_66">
      <g>
       <use style="stroke:#000000;stroke-width:0.8;" x="180" xlink:href="#ma4591950df" y="602.452174"/>
      </g>
     </g>
     <g id="text_58">
      <!-- −0.02 -->
      <g transform="translate(142.354688 606.251393)scale(0.1 -0.1)">
       <use xlink:href="#DejaVuSans-2212"/>
       <use x="83.789062" xlink:href="#DejaVuSans-30"/>
       <use x="147.412109" xlink:href="#DejaVuSans-2e"/>
       <use x="179.199219" xlink:href="#DejaVuSans-30"/>
       <use x="242.822266" xlink:href="#DejaVuSans-32"/>
      </g>
     </g>
    </g>
    <g id="ytick_17">
     <g id="line2d_67">
      <g>
       <use style="stroke:#000000;stroke-width:0.8;" x="180" xlink:href="#ma4591950df" y="580.53913"/>
      </g>
     </g>
     <g id="text_59">
      <!-- 0.00 -->
      <g transform="translate(150.734375 584.338349)scale(0.1 -0.1)">
       <use xlink:href="#DejaVuSans-30"/>
       <use x="63.623047" xlink:href="#DejaVuSans-2e"/>
       <use x="95.410156" xlink:href="#DejaVuSans-30"/>
       <use x="159.033203" xlink:href="#DejaVuSans-30"/>
      </g>
     </g>
    </g>
    <g id="ytick_18">
     <g id="line2d_68">
      <g>
       <use style="stroke:#000000;stroke-width:0.8;" x="180" xlink:href="#ma4591950df" y="558.626087"/>
      </g>
     </g>
     <g id="text_60">
      <!-- 0.02 -->
      <g transform="translate(150.734375 562.425306)scale(0.1 -0.1)">
       <use xlink:href="#DejaVuSans-30"/>
       <use x="63.623047" xlink:href="#DejaVuSans-2e"/>
       <use x="95.410156" xlink:href="#DejaVuSans-30"/>
       <use x="159.033203" xlink:href="#DejaVuSans-32"/>
      </g>
     </g>
    </g>
    <g id="ytick_19">
     <g id="line2d_69">
      <g>
       <use style="stroke:#000000;stroke-width:0.8;" x="180" xlink:href="#ma4591950df" y="536.713043"/>
      </g>
     </g>
     <g id="text_61">
      <!-- 0.04 -->
      <g transform="translate(150.734375 540.512262)scale(0.1 -0.1)">
       <use xlink:href="#DejaVuSans-30"/>
       <use x="63.623047" xlink:href="#DejaVuSans-2e"/>
       <use x="95.410156" xlink:href="#DejaVuSans-30"/>
       <use x="159.033203" xlink:href="#DejaVuSans-34"/>
      </g>
     </g>
    </g>
    <g id="text_62">
     <!-- Control Input -->
     <defs>
      <path d="M 64.40625 67.28125 
L 64.40625 56.890625 
Q 59.421875 61.53125 53.78125 63.8125 
Q 48.140625 66.109375 41.796875 66.109375 
Q 29.296875 66.109375 22.65625 58.46875 
Q 16.015625 50.828125 16.015625 36.375 
Q 16.015625 21.96875 22.65625 14.328125 
Q 29.296875 6.6875 41.796875 6.6875 
Q 48.140625 6.6875 53.78125 8.984375 
Q 59.421875 11.28125 64.40625 15.921875 
L 64.40625 5.609375 
Q 59.234375 2.09375 53.4375 0.328125 
Q 47.65625 -1.421875 41.21875 -1.421875 
Q 24.65625 -1.421875 15.125 8.703125 
Q 5.609375 18.84375 5.609375 36.375 
Q 5.609375 53.953125 15.125 64.078125 
Q 24.65625 74.21875 41.21875 74.21875 
Q 47.75 74.21875 53.53125 72.484375 
Q 59.328125 70.75 64.40625 67.28125 
z
" id="DejaVuSans-43"/>
      <path d="M 30.609375 48.390625 
Q 23.390625 48.390625 19.1875 42.75 
Q 14.984375 37.109375 14.984375 27.296875 
Q 14.984375 17.484375 19.15625 11.84375 
Q 23.34375 6.203125 30.609375 6.203125 
Q 37.796875 6.203125 41.984375 11.859375 
Q 46.1875 17.53125 46.1875 27.296875 
Q 46.1875 37.015625 41.984375 42.703125 
Q 37.796875 48.390625 30.609375 48.390625 
z
M 30.609375 56 
Q 42.328125 56 49.015625 48.375 
Q 55.71875 40.765625 55.71875 27.296875 
Q 55.71875 13.875 49.015625 6.21875 
Q 42.328125 -1.421875 30.609375 -1.421875 
Q 18.84375 -1.421875 12.171875 6.21875 
Q 5.515625 13.875 5.515625 27.296875 
Q 5.515625 40.765625 12.171875 48.375 
Q 18.84375 56 30.609375 56 
z
" id="DejaVuSans-6f"/>
      <path d="M 54.890625 33.015625 
L 54.890625 0 
L 45.90625 0 
L 45.90625 32.71875 
Q 45.90625 40.484375 42.875 44.328125 
Q 39.84375 48.1875 33.796875 48.1875 
Q 26.515625 48.1875 22.3125 43.546875 
Q 18.109375 38.921875 18.109375 30.90625 
L 18.109375 0 
L 9.078125 0 
L 9.078125 54.6875 
L 18.109375 54.6875 
L 18.109375 46.1875 
Q 21.34375 51.125 25.703125 53.5625 
Q 30.078125 56 35.796875 56 
Q 45.21875 56 50.046875 50.171875 
Q 54.890625 44.34375 54.890625 33.015625 
z
" id="DejaVuSans-6e"/>
      <path d="M 9.421875 75.984375 
L 18.40625 75.984375 
L 18.40625 0 
L 9.421875 0 
z
" id="DejaVuSans-6c"/>
      <path d="M 9.8125 72.90625 
L 19.671875 72.90625 
L 19.671875 0 
L 9.8125 0 
z
" id="DejaVuSans-49"/>
      <path d="M 18.109375 8.203125 
L 18.109375 -20.796875 
L 9.078125 -20.796875 
L 9.078125 54.6875 
L 18.109375 54.6875 
L 18.109375 46.390625 
Q 20.953125 51.265625 25.265625 53.625 
Q 29.59375 56 35.59375 56 
Q 45.5625 56 51.78125 48.09375 
Q 58.015625 40.1875 58.015625 27.296875 
Q 58.015625 14.40625 51.78125 6.484375 
Q 45.5625 -1.421875 35.59375 -1.421875 
Q 29.59375 -1.421875 25.265625 0.953125 
Q 20.953125 3.328125 18.109375 8.203125 
z
M 48.6875 27.296875 
Q 48.6875 37.203125 44.609375 42.84375 
Q 40.53125 48.484375 33.40625 48.484375 
Q 26.265625 48.484375 22.1875 42.84375 
Q 18.109375 37.203125 18.109375 27.296875 
Q 18.109375 17.390625 22.1875 11.75 
Q 26.265625 6.109375 33.40625 6.109375 
Q 40.53125 6.109375 44.609375 11.75 
Q 48.6875 17.390625 48.6875 27.296875 
z
" id="DejaVuSans-70"/>
     </defs>
     <g transform="translate(136.275 613.257099)rotate(-90)scale(0.1 -0.1)">
      <use xlink:href="#DejaVuSans-43"/>
      <use x="69.824219" xlink:href="#DejaVuSans-6f"/>
      <use x="131.005859" xlink:href="#DejaVuSans-6e"/>
      <use x="194.384766" xlink:href="#DejaVuSans-74"/>
      <use x="233.59375" xlink:href="#DejaVuSans-72"/>
      <use x="274.675781" xlink:href="#DejaVuSans-6f"/>
      <use x="335.857422" xlink:href="#DejaVuSans-6c"/>
      <use x="363.640625" xlink:href="#DejaVuSans-20"/>
      <use x="395.427734" xlink:href="#DejaVuSans-49"/>
      <use x="424.919922" xlink:href="#DejaVuSans-6e"/>
      <use x="488.298828" xlink:href="#DejaVuSans-70"/>
      <use x="551.775391" xlink:href="#DejaVuSans-75"/>
      <use x="615.154297" xlink:href="#DejaVuSans-74"/>
     </g>
    </g>
   </g>
   <g id="line2d_70">
    <path clip-path="url(#p4aa6038ac9)" d="M 230.727273 580.53913 
L 1245.272727 580.53913 
L 1245.272727 580.53913 
" style="fill:none;stroke:#ff0000;stroke-linecap:square;stroke-width:1.5;"/>
   </g>
   <g id="patch_21">
    <path d="M 180 640.8 
L 180 520.278261 
" style="fill:none;stroke:#000000;stroke-linecap:square;stroke-linejoin:miter;stroke-width:0.8;"/>
   </g>
   <g id="patch_22">
    <path d="M 1296 640.8 
L 1296 520.278261 
" style="fill:none;stroke:#000000;stroke-linecap:square;stroke-linejoin:miter;stroke-width:0.8;"/>
   </g>
   <g id="patch_23">
    <path d="M 180 640.8 
L 1296 640.8 
" style="fill:none;stroke:#000000;stroke-linecap:square;stroke-linejoin:miter;stroke-width:0.8;"/>
   </g>
   <g id="patch_24">
    <path d="M 180 520.278261 
L 1296 520.278261 
" style="fill:none;stroke:#000000;stroke-linecap:square;stroke-linejoin:miter;stroke-width:0.8;"/>
   </g>
   <g id="legend_4">
    <g id="patch_25">
     <path d="M 1194.742188 542.956386 
L 1289 542.956386 
Q 1291 542.956386 1291 540.956386 
L 1291 527.278261 
Q 1291 525.278261 1289 525.278261 
L 1194.742188 525.278261 
Q 1192.742188 525.278261 1192.742188 527.278261 
L 1192.742188 540.956386 
Q 1192.742188 542.956386 1194.742188 542.956386 
z
" style="fill:#ffffff;opacity:0.8;stroke:#cccccc;stroke-linejoin:miter;"/>
    </g>
    <g id="line2d_71">
     <path d="M 1196.742188 533.376698 
L 1216.742188 533.376698 
" style="fill:none;stroke:#ff0000;stroke-linecap:square;stroke-width:1.5;"/>
    </g>
    <g id="line2d_72"/>
    <g id="text_63">
     <!-- ControlInput -->
     <g transform="translate(1224.742188 536.876698)scale(0.1 -0.1)">
      <use xlink:href="#DejaVuSans-43"/>
      <use x="69.824219" xlink:href="#DejaVuSans-6f"/>
      <use x="131.005859" xlink:href="#DejaVuSans-6e"/>
      <use x="194.384766" xlink:href="#DejaVuSans-74"/>
      <use x="233.59375" xlink:href="#DejaVuSans-72"/>
      <use x="274.675781" xlink:href="#DejaVuSans-6f"/>
      <use x="335.857422" xlink:href="#DejaVuSans-6c"/>
      <use x="363.640625" xlink:href="#DejaVuSans-49"/>
      <use x="393.132812" xlink:href="#DejaVuSans-6e"/>
      <use x="456.511719" xlink:href="#DejaVuSans-70"/>
      <use x="519.988281" xlink:href="#DejaVuSans-75"/>
      <use x="583.367188" xlink:href="#DejaVuSans-74"/>
     </g>
    </g>
   </g>
  </g>
 </g>
 <defs>
  <clipPath id="p616c1e3004">
   <rect height="120.521739" width="1116" x="180" y="86.4"/>
  </clipPath>
  <clipPath id="p1f1e406ef3">
   <rect height="120.521739" width="1116" x="180" y="231.026087"/>
  </clipPath>
  <clipPath id="p5c9f3b9381">
   <rect height="120.521739" width="1116" x="180" y="375.652174"/>
  </clipPath>
  <clipPath id="p4aa6038ac9">
   <rect height="120.521739" width="1116" x="180" y="520.278261"/>
  </clipPath>
 </defs>
</svg>
