<?xml version="1.0" encoding="utf-8" standalone="no"?>
<!DOCTYPE svg PUBLIC "-//W3C//DTD SVG 1.1//EN"
  "http://www.w3.org/Graphics/SVG/1.1/DTD/svg11.dtd">
<!-- Created with matplotlib (http://matplotlib.org/) -->
<svg height="720pt" version="1.1" viewBox="0 0 1440 720" width="1440pt" xmlns="http://www.w3.org/2000/svg" xmlns:xlink="http://www.w3.org/1999/xlink">
 <defs>
  <style type="text/css">
*{stroke-linecap:butt;stroke-linejoin:round;}
  </style>
 </defs>
 <g id="figure_1">
  <g id="patch_1">
   <path d="M 0 720 
L 1440 720 
L 1440 0 
L 0 0 
z
" style="fill:#ffffff;"/>
  </g>
  <g id="axes_1">
   <g id="patch_2">
    <path d="M 180 206.921739 
L 1296 206.921739 
L 1296 86.4 
L 180 86.4 
z
" style="fill:#ffffff;"/>
   </g>
   <g id="matplotlib.axis_1">
    <g id="xtick_1">
     <g id="line2d_1">
      <defs>
       <path d="M 0 0 
L 0 3.5 
" id="m04e5e952c9" style="stroke:#000000;stroke-width:0.8;"/>
      </defs>
      <g>
       <use style="stroke:#000000;stroke-width:0.8;" x="219.716228" xlink:href="#m04e5e952c9" y="206.921739"/>
      </g>
     </g>
     <g id="text_1">
      <!-- 0.0 -->
      <defs>
       <path d="M 31.78125 66.40625 
Q 24.171875 66.40625 20.328125 58.90625 
Q 16.5 51.421875 16.5 36.375 
Q 16.5 21.390625 20.328125 13.890625 
Q 24.171875 6.390625 31.78125 6.390625 
Q 39.453125 6.390625 43.28125 13.890625 
Q 47.125 21.390625 47.125 36.375 
Q 47.125 51.421875 43.28125 58.90625 
Q 39.453125 66.40625 31.78125 66.40625 
z
M 31.78125 74.21875 
Q 44.046875 74.21875 50.515625 64.515625 
Q 56.984375 54.828125 56.984375 36.375 
Q 56.984375 17.96875 50.515625 8.265625 
Q 44.046875 -1.421875 31.78125 -1.421875 
Q 19.53125 -1.421875 13.0625 8.265625 
Q 6.59375 17.96875 6.59375 36.375 
Q 6.59375 54.828125 13.0625 64.515625 
Q 19.53125 74.21875 31.78125 74.21875 
z
" id="DejaVuSans-30"/>
       <path d="M 10.6875 12.40625 
L 21 12.40625 
L 21 0 
L 10.6875 0 
z
" id="DejaVuSans-2e"/>
      </defs>
      <g transform="translate(211.764665 221.520177)scale(0.1 -0.1)">
       <use xlink:href="#DejaVuSans-30"/>
       <use x="63.623047" xlink:href="#DejaVuSans-2e"/>
       <use x="95.410156" xlink:href="#DejaVuSans-30"/>
      </g>
     </g>
    </g>
    <g id="xtick_2">
     <g id="line2d_2">
      <g>
       <use style="stroke:#000000;stroke-width:0.8;" x="372.647409" xlink:href="#m04e5e952c9" y="206.921739"/>
      </g>
     </g>
     <g id="text_2">
      <!-- 0.5 -->
      <defs>
       <path d="M 10.796875 72.90625 
L 49.515625 72.90625 
L 49.515625 64.59375 
L 19.828125 64.59375 
L 19.828125 46.734375 
Q 21.96875 47.46875 24.109375 47.828125 
Q 26.265625 48.1875 28.421875 48.1875 
Q 40.625 48.1875 47.75 41.5 
Q 54.890625 34.8125 54.890625 23.390625 
Q 54.890625 11.625 47.5625 5.09375 
Q 40.234375 -1.421875 26.90625 -1.421875 
Q 22.3125 -1.421875 17.546875 -0.640625 
Q 12.796875 0.140625 7.71875 1.703125 
L 7.71875 11.625 
Q 12.109375 9.234375 16.796875 8.0625 
Q 21.484375 6.890625 26.703125 6.890625 
Q 35.15625 6.890625 40.078125 11.328125 
Q 45.015625 15.765625 45.015625 23.390625 
Q 45.015625 31 40.078125 35.4375 
Q 35.15625 39.890625 26.703125 39.890625 
Q 22.75 39.890625 18.8125 39.015625 
Q 14.890625 38.140625 10.796875 36.28125 
z
" id="DejaVuSans-35"/>
      </defs>
      <g transform="translate(364.695846 221.520177)scale(0.1 -0.1)">
       <use xlink:href="#DejaVuSans-30"/>
       <use x="63.623047" xlink:href="#DejaVuSans-2e"/>
       <use x="95.410156" xlink:href="#DejaVuSans-35"/>
      </g>
     </g>
    </g>
    <g id="xtick_3">
     <g id="line2d_3">
      <g>
       <use style="stroke:#000000;stroke-width:0.8;" x="525.57859" xlink:href="#m04e5e952c9" y="206.921739"/>
      </g>
     </g>
     <g id="text_3">
      <!-- 1.0 -->
      <defs>
       <path d="M 12.40625 8.296875 
L 28.515625 8.296875 
L 28.515625 63.921875 
L 10.984375 60.40625 
L 10.984375 69.390625 
L 28.421875 72.90625 
L 38.28125 72.90625 
L 38.28125 8.296875 
L 54.390625 8.296875 
L 54.390625 0 
L 12.40625 0 
z
" id="DejaVuSans-31"/>
      </defs>
      <g transform="translate(517.627027 221.520177)scale(0.1 -0.1)">
       <use xlink:href="#DejaVuSans-31"/>
       <use x="63.623047" xlink:href="#DejaVuSans-2e"/>
       <use x="95.410156" xlink:href="#DejaVuSans-30"/>
      </g>
     </g>
    </g>
    <g id="xtick_4">
     <g id="line2d_4">
      <g>
       <use style="stroke:#000000;stroke-width:0.8;" x="678.509771" xlink:href="#m04e5e952c9" y="206.921739"/>
      </g>
     </g>
     <g id="text_4">
      <!-- 1.5 -->
      <g transform="translate(670.558208 221.520177)scale(0.1 -0.1)">
       <use xlink:href="#DejaVuSans-31"/>
       <use x="63.623047" xlink:href="#DejaVuSans-2e"/>
       <use x="95.410156" xlink:href="#DejaVuSans-35"/>
      </g>
     </g>
    </g>
    <g id="xtick_5">
     <g id="line2d_5">
      <g>
       <use style="stroke:#000000;stroke-width:0.8;" x="831.440952" xlink:href="#m04e5e952c9" y="206.921739"/>
      </g>
     </g>
     <g id="text_5">
      <!-- 2.0 -->
      <defs>
       <path d="M 19.1875 8.296875 
L 53.609375 8.296875 
L 53.609375 0 
L 7.328125 0 
L 7.328125 8.296875 
Q 12.9375 14.109375 22.625 23.890625 
Q 32.328125 33.6875 34.8125 36.53125 
Q 39.546875 41.84375 41.421875 45.53125 
Q 43.3125 49.21875 43.3125 52.78125 
Q 43.3125 58.59375 39.234375 62.25 
Q 35.15625 65.921875 28.609375 65.921875 
Q 23.96875 65.921875 18.8125 64.3125 
Q 13.671875 62.703125 7.8125 59.421875 
L 7.8125 69.390625 
Q 13.765625 71.78125 18.9375 73 
Q 24.125 74.21875 28.421875 74.21875 
Q 39.75 74.21875 46.484375 68.546875 
Q 53.21875 62.890625 53.21875 53.421875 
Q 53.21875 48.921875 51.53125 44.890625 
Q 49.859375 40.875 45.40625 35.40625 
Q 44.1875 33.984375 37.640625 27.21875 
Q 31.109375 20.453125 19.1875 8.296875 
z
" id="DejaVuSans-32"/>
      </defs>
      <g transform="translate(823.489389 221.520177)scale(0.1 -0.1)">
       <use xlink:href="#DejaVuSans-32"/>
       <use x="63.623047" xlink:href="#DejaVuSans-2e"/>
       <use x="95.410156" xlink:href="#DejaVuSans-30"/>
      </g>
     </g>
    </g>
    <g id="xtick_6">
     <g id="line2d_6">
      <g>
       <use style="stroke:#000000;stroke-width:0.8;" x="984.372133" xlink:href="#m04e5e952c9" y="206.921739"/>
      </g>
     </g>
     <g id="text_6">
      <!-- 2.5 -->
      <g transform="translate(976.42057 221.520177)scale(0.1 -0.1)">
       <use xlink:href="#DejaVuSans-32"/>
       <use x="63.623047" xlink:href="#DejaVuSans-2e"/>
       <use x="95.410156" xlink:href="#DejaVuSans-35"/>
      </g>
     </g>
    </g>
    <g id="xtick_7">
     <g id="line2d_7">
      <g>
       <use style="stroke:#000000;stroke-width:0.8;" x="1137.303314" xlink:href="#m04e5e952c9" y="206.921739"/>
      </g>
     </g>
     <g id="text_7">
      <!-- 3.0 -->
      <defs>
       <path d="M 40.578125 39.3125 
Q 47.65625 37.796875 51.625 33 
Q 55.609375 28.21875 55.609375 21.1875 
Q 55.609375 10.40625 48.1875 4.484375 
Q 40.765625 -1.421875 27.09375 -1.421875 
Q 22.515625 -1.421875 17.65625 -0.515625 
Q 12.796875 0.390625 7.625 2.203125 
L 7.625 11.71875 
Q 11.71875 9.328125 16.59375 8.109375 
Q 21.484375 6.890625 26.8125 6.890625 
Q 36.078125 6.890625 40.9375 10.546875 
Q 45.796875 14.203125 45.796875 21.1875 
Q 45.796875 27.640625 41.28125 31.265625 
Q 36.765625 34.90625 28.71875 34.90625 
L 20.21875 34.90625 
L 20.21875 43.015625 
L 29.109375 43.015625 
Q 36.375 43.015625 40.234375 45.921875 
Q 44.09375 48.828125 44.09375 54.296875 
Q 44.09375 59.90625 40.109375 62.90625 
Q 36.140625 65.921875 28.71875 65.921875 
Q 24.65625 65.921875 20.015625 65.03125 
Q 15.375 64.15625 9.8125 62.3125 
L 9.8125 71.09375 
Q 15.4375 72.65625 20.34375 73.4375 
Q 25.25 74.21875 29.59375 74.21875 
Q 40.828125 74.21875 47.359375 69.109375 
Q 53.90625 64.015625 53.90625 55.328125 
Q 53.90625 49.265625 50.4375 45.09375 
Q 46.96875 40.921875 40.578125 39.3125 
z
" id="DejaVuSans-33"/>
      </defs>
      <g transform="translate(1129.351751 221.520177)scale(0.1 -0.1)">
       <use xlink:href="#DejaVuSans-33"/>
       <use x="63.623047" xlink:href="#DejaVuSans-2e"/>
       <use x="95.410156" xlink:href="#DejaVuSans-30"/>
      </g>
     </g>
    </g>
    <g id="xtick_8">
     <g id="line2d_8">
      <g>
       <use style="stroke:#000000;stroke-width:0.8;" x="1290.234494" xlink:href="#m04e5e952c9" y="206.921739"/>
      </g>
     </g>
     <g id="text_8">
      <!-- 3.5 -->
      <g transform="translate(1282.282932 221.520177)scale(0.1 -0.1)">
       <use xlink:href="#DejaVuSans-33"/>
       <use x="63.623047" xlink:href="#DejaVuSans-2e"/>
       <use x="95.410156" xlink:href="#DejaVuSans-35"/>
      </g>
     </g>
    </g>
   </g>
   <g id="matplotlib.axis_2">
    <g id="ytick_1">
     <g id="line2d_9">
      <defs>
       <path d="M 0 0 
L -3.5 0 
" id="mc326318b6c" style="stroke:#000000;stroke-width:0.8;"/>
      </defs>
      <g>
       <use style="stroke:#000000;stroke-width:0.8;" x="180" xlink:href="#mc326318b6c" y="183.642785"/>
      </g>
     </g>
     <g id="text_9">
      <!-- −20 -->
      <defs>
       <path d="M 10.59375 35.5 
L 73.1875 35.5 
L 73.1875 27.203125 
L 10.59375 27.203125 
z
" id="DejaVuSans-2212"/>
      </defs>
      <g transform="translate(151.895312 187.442004)scale(0.1 -0.1)">
       <use xlink:href="#DejaVuSans-2212"/>
       <use x="83.789062" xlink:href="#DejaVuSans-32"/>
       <use x="147.412109" xlink:href="#DejaVuSans-30"/>
      </g>
     </g>
    </g>
    <g id="ytick_2">
     <g id="line2d_10">
      <g>
       <use style="stroke:#000000;stroke-width:0.8;" x="180" xlink:href="#mc326318b6c" y="151.159767"/>
      </g>
     </g>
     <g id="text_10">
      <!-- −10 -->
      <g transform="translate(151.895312 154.958986)scale(0.1 -0.1)">
       <use xlink:href="#DejaVuSans-2212"/>
       <use x="83.789062" xlink:href="#DejaVuSans-31"/>
       <use x="147.412109" xlink:href="#DejaVuSans-30"/>
      </g>
     </g>
    </g>
    <g id="ytick_3">
     <g id="line2d_11">
      <g>
       <use style="stroke:#000000;stroke-width:0.8;" x="180" xlink:href="#mc326318b6c" y="118.67675"/>
      </g>
     </g>
     <g id="text_11">
      <!-- 0 -->
      <g transform="translate(166.6375 122.475969)scale(0.1 -0.1)">
       <use xlink:href="#DejaVuSans-30"/>
      </g>
     </g>
    </g>
    <g id="ytick_4">
     <g id="line2d_12">
      <g>
       <use style="stroke:#000000;stroke-width:0.8;" x="180" xlink:href="#mc326318b6c" y="86.193733"/>
      </g>
     </g>
     <g id="text_12">
      <!-- 10 -->
      <g transform="translate(160.275 89.992952)scale(0.1 -0.1)">
       <use xlink:href="#DejaVuSans-31"/>
       <use x="63.623047" xlink:href="#DejaVuSans-30"/>
      </g>
     </g>
    </g>
    <g id="text_13">
     <!-- TD State:0 -->
     <defs>
      <path d="M -0.296875 72.90625 
L 61.375 72.90625 
L 61.375 64.59375 
L 35.5 64.59375 
L 35.5 0 
L 25.59375 0 
L 25.59375 64.59375 
L -0.296875 64.59375 
z
" id="DejaVuSans-54"/>
      <path d="M 19.671875 64.796875 
L 19.671875 8.109375 
L 31.59375 8.109375 
Q 46.6875 8.109375 53.6875 14.9375 
Q 60.6875 21.78125 60.6875 36.53125 
Q 60.6875 51.171875 53.6875 57.984375 
Q 46.6875 64.796875 31.59375 64.796875 
z
M 9.8125 72.90625 
L 30.078125 72.90625 
Q 51.265625 72.90625 61.171875 64.09375 
Q 71.09375 55.28125 71.09375 36.53125 
Q 71.09375 17.671875 61.125 8.828125 
Q 51.171875 0 30.078125 0 
L 9.8125 0 
z
" id="DejaVuSans-44"/>
      <path id="DejaVuSans-20"/>
      <path d="M 53.515625 70.515625 
L 53.515625 60.890625 
Q 47.90625 63.578125 42.921875 64.890625 
Q 37.9375 66.21875 33.296875 66.21875 
Q 25.25 66.21875 20.875 63.09375 
Q 16.5 59.96875 16.5 54.203125 
Q 16.5 49.359375 19.40625 46.890625 
Q 22.3125 44.4375 30.421875 42.921875 
L 36.375 41.703125 
Q 47.40625 39.59375 52.65625 34.296875 
Q 57.90625 29 57.90625 20.125 
Q 57.90625 9.515625 50.796875 4.046875 
Q 43.703125 -1.421875 29.984375 -1.421875 
Q 24.8125 -1.421875 18.96875 -0.25 
Q 13.140625 0.921875 6.890625 3.21875 
L 6.890625 13.375 
Q 12.890625 10.015625 18.65625 8.296875 
Q 24.421875 6.59375 29.984375 6.59375 
Q 38.421875 6.59375 43.015625 9.90625 
Q 47.609375 13.234375 47.609375 19.390625 
Q 47.609375 24.75 44.3125 27.78125 
Q 41.015625 30.8125 33.5 32.328125 
L 27.484375 33.5 
Q 16.453125 35.6875 11.515625 40.375 
Q 6.59375 45.0625 6.59375 53.421875 
Q 6.59375 63.09375 13.40625 68.65625 
Q 20.21875 74.21875 32.171875 74.21875 
Q 37.3125 74.21875 42.625 73.28125 
Q 47.953125 72.359375 53.515625 70.515625 
z
" id="DejaVuSans-53"/>
      <path d="M 18.3125 70.21875 
L 18.3125 54.6875 
L 36.8125 54.6875 
L 36.8125 47.703125 
L 18.3125 47.703125 
L 18.3125 18.015625 
Q 18.3125 11.328125 20.140625 9.421875 
Q 21.96875 7.515625 27.59375 7.515625 
L 36.8125 7.515625 
L 36.8125 0 
L 27.59375 0 
Q 17.1875 0 13.234375 3.875 
Q 9.28125 7.765625 9.28125 18.015625 
L 9.28125 47.703125 
L 2.6875 47.703125 
L 2.6875 54.6875 
L 9.28125 54.6875 
L 9.28125 70.21875 
z
" id="DejaVuSans-74"/>
      <path d="M 34.28125 27.484375 
Q 23.390625 27.484375 19.1875 25 
Q 14.984375 22.515625 14.984375 16.5 
Q 14.984375 11.71875 18.140625 8.90625 
Q 21.296875 6.109375 26.703125 6.109375 
Q 34.1875 6.109375 38.703125 11.40625 
Q 43.21875 16.703125 43.21875 25.484375 
L 43.21875 27.484375 
z
M 52.203125 31.203125 
L 52.203125 0 
L 43.21875 0 
L 43.21875 8.296875 
Q 40.140625 3.328125 35.546875 0.953125 
Q 30.953125 -1.421875 24.3125 -1.421875 
Q 15.921875 -1.421875 10.953125 3.296875 
Q 6 8.015625 6 15.921875 
Q 6 25.140625 12.171875 29.828125 
Q 18.359375 34.515625 30.609375 34.515625 
L 43.21875 34.515625 
L 43.21875 35.40625 
Q 43.21875 41.609375 39.140625 45 
Q 35.0625 48.390625 27.6875 48.390625 
Q 23 48.390625 18.546875 47.265625 
Q 14.109375 46.140625 10.015625 43.890625 
L 10.015625 52.203125 
Q 14.9375 54.109375 19.578125 55.046875 
Q 24.21875 56 28.609375 56 
Q 40.484375 56 46.34375 49.84375 
Q 52.203125 43.703125 52.203125 31.203125 
z
" id="DejaVuSans-61"/>
      <path d="M 56.203125 29.59375 
L 56.203125 25.203125 
L 14.890625 25.203125 
Q 15.484375 15.921875 20.484375 11.0625 
Q 25.484375 6.203125 34.421875 6.203125 
Q 39.59375 6.203125 44.453125 7.46875 
Q 49.3125 8.734375 54.109375 11.28125 
L 54.109375 2.78125 
Q 49.265625 0.734375 44.1875 -0.34375 
Q 39.109375 -1.421875 33.890625 -1.421875 
Q 20.796875 -1.421875 13.15625 6.1875 
Q 5.515625 13.8125 5.515625 26.8125 
Q 5.515625 40.234375 12.765625 48.109375 
Q 20.015625 56 32.328125 56 
Q 43.359375 56 49.78125 48.890625 
Q 56.203125 41.796875 56.203125 29.59375 
z
M 47.21875 32.234375 
Q 47.125 39.59375 43.09375 43.984375 
Q 39.0625 48.390625 32.421875 48.390625 
Q 24.90625 48.390625 20.390625 44.140625 
Q 15.875 39.890625 15.1875 32.171875 
z
" id="DejaVuSans-65"/>
      <path d="M 11.71875 12.40625 
L 22.015625 12.40625 
L 22.015625 0 
L 11.71875 0 
z
M 11.71875 51.703125 
L 22.015625 51.703125 
L 22.015625 39.3125 
L 11.71875 39.3125 
z
" id="DejaVuSans-3a"/>
     </defs>
     <g transform="translate(145.815625 173.25462)rotate(-90)scale(0.1 -0.1)">
      <use xlink:href="#DejaVuSans-54"/>
      <use x="61.083984" xlink:href="#DejaVuSans-44"/>
      <use x="138.085938" xlink:href="#DejaVuSans-20"/>
      <use x="169.873047" xlink:href="#DejaVuSans-53"/>
      <use x="233.349609" xlink:href="#DejaVuSans-74"/>
      <use x="272.558594" xlink:href="#DejaVuSans-61"/>
      <use x="333.837891" xlink:href="#DejaVuSans-74"/>
      <use x="373.046875" xlink:href="#DejaVuSans-65"/>
      <use x="434.570312" xlink:href="#DejaVuSans-3a"/>
      <use x="468.261719" xlink:href="#DejaVuSans-30"/>
     </g>
    </g>
   </g>
   <g id="line2d_13">
    <path clip-path="url(#p53764e66fc)" d="M 230.727273 118.67675 
L 235.926933 118.614806 
L 241.432455 118.848699 
L 246.632116 118.926624 
L 252.137638 118.760548 
L 257.643161 174.030473 
L 263.148683 120.944902 
L 268.042481 115.866554 
L 272.936279 156.325751 
L 279.053526 114.732029 
L 283.947324 140.680325 
L 289.452846 114.241592 
L 294.958369 126.271693 
L 299.852167 125.853029 
L 305.357689 128.775772 
L 310.863212 142.852803 
L 312.698386 151.841926 
L 317.898046 150.775006 
L 322.791844 112.615364 
L 327.685641 125.664238 
L 333.191164 122.367059 
L 338.696686 126.082208 
L 343.590484 125.799392 
L 349.096007 132.259987 
L 354.601529 122.424154 
L 360.107052 118.98596 
L 365.612574 118.853642 
L 371.118097 119.987339 
L 376.011895 132.346077 
L 381.517417 139.461168 
L 387.02294 142.78245 
L 392.528462 138.561009 
L 393.751912 125.675806 
L 399.257434 121.647965 
L 404.151232 121.691067 
L 409.04503 122.369089 
L 414.24469 122.26496 
L 419.750212 122.340158 
L 424.64401 123.191168 
L 429.84367 122.820509 
L 435.349193 127.99177 
L 440.854715 127.1741 
L 446.360238 117.631971 
L 451.254036 119.38585 
L 457.371283 121.796034 
L 463.48853 125.408466 
L 468.994053 144.635157 
L 470.217502 127.650683 
L 475.723025 119.690669 
L 481.228547 122.354009 
L 485.51062 112.798279 
L 491.016143 118.365135 
L 496.521665 143.522991 
L 502.027188 155.787684 
L 506.920986 117.913915 
L 512.426508 121.729812 
L 517.932031 121.71359 
L 523.437553 120.555351 
L 528.943076 146.560019 
L 534.448598 141.083906 
L 539.954121 151.718162 
L 545.459643 117.172351 
L 546.683093 123.82164 
L 552.188615 120.926374 
L 557.388275 129.082572 
L 562.282073 142.784416 
L 567.175871 152.887571 
L 572.681393 156.264516 
L 578.798641 105.614662 
L 583.692438 117.18033 
L 589.197961 116.493807 
L 594.703483 121.55171 
L 599.597281 145.293097 
L 604.491079 139.852801 
L 609.384877 145.100911 
L 614.890399 114.419702 
L 621.007647 126.056785 
L 625.901444 129.137657 
L 631.406967 149.96411 
L 636.300765 115.064528 
L 641.806287 125.212293 
L 647.31181 115.853685 
L 654.040782 124.365308 
L 659.546304 125.604541 
L 664.440102 130.555361 
L 669.3339 130.799024 
L 674.839422 131.776821 
L 679.73322 131.214504 
L 684.627018 132.213092 
L 690.13254 132.418262 
L 695.026338 132.487215 
L 699.920136 105.925413 
L 705.425658 121.430058 
L 710.931181 121.877068 
L 716.436703 115.362802 
L 721.330501 199.887571 
L 726.224299 115.909163 
L 732.341546 124.640731 
L 737.235344 120.159497 
L 742.129142 133.847631 
L 747.634664 116.490166 
L 753.751912 122.966452 
L 758.645709 125.632664 
L 764.151232 129.078145 
L 765.986406 131.333269 
L 774.550552 116.390117 
L 779.44435 124.833315 
L 784.949873 125.920813 
L 786.785047 126.843626 
L 791.984707 126.233737 
L 796.878505 116.914744 
L 801.772302 117.492784 
L 807.277825 118.269263 
L 812.783347 117.833627 
L 818.28887 117.628457 
L 823.182668 117.939779 
L 834.805438 117.97509 
L 839.087511 118.214446 
L 848.875106 118.539921 
L 854.380629 118.725386 
L 859.274427 119.321524 
L 864.779949 123.656411 
L 869.673747 120.310245 
L 874.567545 119.275312 
L 880.684792 122.814341 
L 885.57859 123.214844 
L 890.472387 124.629893 
L 895.366185 128.249416 
L 900.871708 122.928202 
L 905.765506 135.184177 
L 911.271028 129.788843 
L 916.776551 132.360962 
L 921.670348 125.409464 
L 927.175871 120.476074 
L 936.657604 119.645449 
L 946.4452 118.186586 
L 952.562447 117.436637 
L 957.456245 128.970701 
L 962.961767 120.693352 
L 968.46729 114.747067 
L 973.972812 121.396734 
L 975.196262 115.84533 
L 980.701784 121.135062 
L 985.28972 123.596925 
L 990.48938 125.113106 
L 995.68904 117.582583 
L 1000.582838 124.424254 
L 1010.982158 116.026845 
L 1016.487681 115.741198 
L 1021.993203 117.350978 
L 1027.498726 119.328797 
L 1033.004248 118.152873 
L 1038.509771 117.441494 
L 1044.015293 116.441066 
L 1049.520816 117.924562 
L 1055.026338 115.426979 
L 1056.861512 116.835176 
L 1062.061172 117.690369 
L 1066.95497 117.793007 
L 1072.460493 119.517758 
L 1077.354291 118.219265 
L 1083.471538 115.82259 
L 1088.365336 115.062865 
L 1093.259133 120.505734 
L 1098.764656 117.985437 
L 1104.270178 120.989228 
L 1109.775701 117.118231 
L 1115.892948 118.689465 
L 1121.092608 112.778657 
L 1126.598131 116.134349 
L 1127.82158 115.981942 
L 1133.327103 116.973782 
L 1138.832625 116.247016 
L 1143.114698 116.429906 
L 1148.620221 112.562503 
L 1153.819881 112.489503 
L 1159.325404 113.15727 
L 1164.830926 117.434321 
L 1169.724724 117.960967 
L 1175.230246 118.055633 
L 1181.347494 116.852616 
L 1186.241291 117.126074 
L 1191.746814 115.794581 
L 1197.252336 115.649301 
L 1202.757859 118.212818 
L 1207.651657 117.265994 
L 1213.157179 117.25166 
L 1217.745115 117.354192 
L 1222.638912 117.77802 
L 1228.144435 119.621174 
L 1233.649958 119.180073 
L 1238.543755 115.025112 
L 1244.049278 120.062552 
L 1245.272727 118.422522 
L 1245.272727 118.422522 
" style="fill:none;stroke:#000000;stroke-linecap:square;stroke-width:4;"/>
   </g>
   <g id="line2d_14">
    <path clip-path="url(#p53764e66fc)" d="M 230.727273 120.300901 
L 235.926933 118.67675 
L 252.137638 118.67675 
L 257.643161 173.085804 
L 263.148683 120.300901 
L 268.042481 118.67675 
L 272.936279 162.528824 
L 279.053526 109.74392 
L 283.947324 179.29006 
L 289.452846 114.324026 
L 294.958369 123.874033 
L 299.852167 118.189505 
L 305.357689 102.662623 
L 310.863212 120.820629 
L 312.698386 118.67675 
L 317.898046 197.513033 
L 322.791844 111.303105 
L 327.685641 124.913489 
L 333.191164 118.189505 
L 338.696686 160.027631 
L 343.590484 117.052599 
L 349.096007 173.085804 
L 354.601529 133.294108 
L 360.107052 118.157022 
L 365.612574 119.196478 
L 371.118097 118.67675 
L 376.011895 119.488826 
L 381.517417 118.67675 
L 399.257434 118.67675 
L 404.151232 117.344946 
L 409.04503 118.67675 
L 419.750212 118.449369 
L 424.64401 118.67675 
L 429.84367 119.878622 
L 435.349193 118.969097 
L 440.854715 189.457245 
L 446.360238 127.252267 
L 451.254036 118.579301 
L 457.371283 118.741716 
L 463.48853 118.709233 
L 468.994053 197.025788 
L 470.217502 113.771815 
L 475.723025 118.67675 
L 481.228547 121.112976 
L 485.51062 121.665188 
L 491.016143 115.688313 
L 496.521665 118.67675 
L 502.027188 189.132415 
L 506.920986 139.498364 
L 512.426508 116.045626 
L 517.932031 118.384403 
L 523.437553 108.866879 
L 528.943076 144.435783 
L 534.448598 118.904131 
L 539.954121 187.085985 
L 545.459643 118.286954 
L 546.683093 125.595633 
L 552.188615 118.67675 
L 557.388275 124.393761 
L 562.282073 121.892569 
L 567.175871 118.67675 
L 572.681393 195.564052 
L 578.798641 105.943407 
L 583.692438 114.616373 
L 589.197961 122.737127 
L 594.703483 115.428448 
L 599.597281 140.440372 
L 604.491079 119.228961 
L 609.384877 155.512492 
L 614.890399 118.059573 
L 621.007647 119.943588 
L 625.901444 118.189505 
L 631.406967 188.22289 
L 636.300765 120.430833 
L 641.806287 145.280341 
L 647.31181 110.068751 
L 652.817332 120.300901 
L 654.040782 118.67675 
L 664.440102 118.67675 
L 669.3339 117.864675 
L 674.839422 117.247497 
L 679.73322 129.136282 
L 684.627018 118.67675 
L 690.13254 114.843754 
L 695.026338 189.099932 
L 699.920136 107.04783 
L 705.425658 121.892569 
L 710.931181 121.47029 
L 716.436703 117.539845 
L 721.330501 201.443478 
L 726.224299 119.943588 
L 732.341546 121.47029 
L 737.235344 118.644267 
L 742.129142 130.598018 
L 747.634664 116.760252 
L 753.751912 125.952946 
L 758.645709 118.092056 
L 764.151232 118.67675 
L 765.986406 157.360775 
L 774.550552 118.67675 
L 779.44435 118.712481 
L 784.949873 128.47038 
L 786.785047 118.342175 
L 796.878505 118.943111 
L 801.772302 118.744964 
L 807.277825 117.877668 
L 812.783347 118.71573 
L 818.28887 117.828943 
L 823.182668 117.377429 
L 828.68819 118.35192 
L 834.805438 116.883688 
L 839.087511 118.157022 
L 843.981308 117.867923 
L 848.875106 119.180237 
L 854.380629 123.763591 
L 859.274427 114.90872 
L 864.779949 153.092507 
L 869.673747 121.291633 
L 874.567545 118.35192 
L 880.684792 118.35192 
L 885.57859 109.581505 
L 890.472387 120.300901 
L 895.366185 116.240524 
L 900.871708 117.864675 
L 905.765506 118.595543 
L 911.271028 118.537073 
L 916.776551 124.770564 
L 921.670348 119.011325 
L 927.175871 128.061094 
L 931.763806 124.686108 
L 936.657604 136.149365 
L 941.551402 119.927346 
L 946.4452 120.580255 
L 952.562447 118.56306 
L 957.456245 166.092211 
L 962.961767 121.723657 
L 968.46729 120.300901 
L 973.972812 118.67675 
L 975.196262 91.878261 
L 980.701784 118.67675 
L 985.28972 118.368161 
L 990.48938 126.339494 
L 995.68904 118.67675 
L 1000.582838 130.00033 
L 1005.476636 118.67675 
L 1010.982158 125.173354 
L 1016.487681 122.701396 
L 1021.993203 118.488349 
L 1027.498726 129.539071 
L 1033.004248 118.660509 
L 1038.509771 118.546818 
L 1049.520816 118.663757 
L 1055.026338 118.462362 
L 1056.861512 121.187687 
L 1062.061172 118.67675 
L 1066.95497 118.127787 
L 1072.460493 118.67675 
L 1077.354291 118.67675 
L 1083.471538 128.028611 
L 1088.365336 131.845365 
L 1093.259133 117.270236 
L 1098.764656 120.300901 
L 1104.270178 118.127787 
L 1109.775701 119.225713 
L 1115.892948 118.67675 
L 1121.092608 115.428448 
L 1126.598131 118.67675 
L 1133.327103 118.67675 
L 1138.832625 117.052599 
L 1143.114698 117.052599 
L 1148.620221 121.073997 
L 1153.819881 117.903654 
L 1159.325404 105.683543 
L 1164.830926 118.14078 
L 1169.724724 118.728723 
L 1175.230246 118.589046 
L 1181.347494 117.16629 
L 1186.241291 119.816904 
L 1191.746814 117.344946 
L 1197.252336 117.70226 
L 1202.757859 117.052599 
L 1207.651657 122.220647 
L 1213.157179 115.132853 
L 1217.745115 118.67675 
L 1222.638912 118.67675 
L 1228.144435 131.669957 
L 1233.649958 123.045716 
L 1238.543755 128.765975 
L 1244.049278 114.288295 
L 1245.272727 121.184439 
L 1245.272727 121.184439 
" style="fill:none;stroke:#ff0000;stroke-linecap:square;stroke-width:1.5;"/>
   </g>
   <g id="patch_3">
    <path d="M 180 206.921739 
L 180 86.4 
" style="fill:none;stroke:#000000;stroke-linecap:square;stroke-linejoin:miter;stroke-width:0.8;"/>
   </g>
   <g id="patch_4">
    <path d="M 1296 206.921739 
L 1296 86.4 
" style="fill:none;stroke:#000000;stroke-linecap:square;stroke-linejoin:miter;stroke-width:0.8;"/>
   </g>
   <g id="patch_5">
    <path d="M 180 206.921739 
L 1296 206.921739 
" style="fill:none;stroke:#000000;stroke-linecap:square;stroke-linejoin:miter;stroke-width:0.8;"/>
   </g>
   <g id="patch_6">
    <path d="M 180 86.4 
L 1296 86.4 
" style="fill:none;stroke:#000000;stroke-linecap:square;stroke-linejoin:miter;stroke-width:0.8;"/>
   </g>
   <g id="legend_1">
    <g id="patch_7">
     <path d="M 1234.3125 123.75625 
L 1289 123.75625 
Q 1291 123.75625 1291 121.75625 
L 1291 93.4 
Q 1291 91.4 1289 91.4 
L 1234.3125 91.4 
Q 1232.3125 91.4 1232.3125 93.4 
L 1232.3125 121.75625 
Q 1232.3125 123.75625 1234.3125 123.75625 
z
" style="fill:#ffffff;opacity:0.8;stroke:#cccccc;stroke-linejoin:miter;"/>
    </g>
    <g id="line2d_15">
     <path d="M 1236.3125 99.498438 
L 1256.3125 99.498438 
" style="fill:none;stroke:#000000;stroke-linecap:square;stroke-width:4;"/>
    </g>
    <g id="line2d_16"/>
    <g id="text_14">
     <!-- Pred -->
     <defs>
      <path d="M 19.671875 64.796875 
L 19.671875 37.40625 
L 32.078125 37.40625 
Q 38.96875 37.40625 42.71875 40.96875 
Q 46.484375 44.53125 46.484375 51.125 
Q 46.484375 57.671875 42.71875 61.234375 
Q 38.96875 64.796875 32.078125 64.796875 
z
M 9.8125 72.90625 
L 32.078125 72.90625 
Q 44.34375 72.90625 50.609375 67.359375 
Q 56.890625 61.8125 56.890625 51.125 
Q 56.890625 40.328125 50.609375 34.8125 
Q 44.34375 29.296875 32.078125 29.296875 
L 19.671875 29.296875 
L 19.671875 0 
L 9.8125 0 
z
" id="DejaVuSans-50"/>
      <path d="M 41.109375 46.296875 
Q 39.59375 47.171875 37.8125 47.578125 
Q 36.03125 48 33.890625 48 
Q 26.265625 48 22.1875 43.046875 
Q 18.109375 38.09375 18.109375 28.8125 
L 18.109375 0 
L 9.078125 0 
L 9.078125 54.6875 
L 18.109375 54.6875 
L 18.109375 46.1875 
Q 20.953125 51.171875 25.484375 53.578125 
Q 30.03125 56 36.53125 56 
Q 37.453125 56 38.578125 55.875 
Q 39.703125 55.765625 41.0625 55.515625 
z
" id="DejaVuSans-72"/>
      <path d="M 45.40625 46.390625 
L 45.40625 75.984375 
L 54.390625 75.984375 
L 54.390625 0 
L 45.40625 0 
L 45.40625 8.203125 
Q 42.578125 3.328125 38.25 0.953125 
Q 33.9375 -1.421875 27.875 -1.421875 
Q 17.96875 -1.421875 11.734375 6.484375 
Q 5.515625 14.40625 5.515625 27.296875 
Q 5.515625 40.1875 11.734375 48.09375 
Q 17.96875 56 27.875 56 
Q 33.9375 56 38.25 53.625 
Q 42.578125 51.265625 45.40625 46.390625 
z
M 14.796875 27.296875 
Q 14.796875 17.390625 18.875 11.75 
Q 22.953125 6.109375 30.078125 6.109375 
Q 37.203125 6.109375 41.296875 11.75 
Q 45.40625 17.390625 45.40625 27.296875 
Q 45.40625 37.203125 41.296875 42.84375 
Q 37.203125 48.484375 30.078125 48.484375 
Q 22.953125 48.484375 18.875 42.84375 
Q 14.796875 37.203125 14.796875 27.296875 
z
" id="DejaVuSans-64"/>
     </defs>
     <g transform="translate(1264.3125 102.998438)scale(0.1 -0.1)">
      <use xlink:href="#DejaVuSans-50"/>
      <use x="60.287109" xlink:href="#DejaVuSans-72"/>
      <use x="101.369141" xlink:href="#DejaVuSans-65"/>
      <use x="162.892578" xlink:href="#DejaVuSans-64"/>
     </g>
    </g>
    <g id="line2d_17">
     <path d="M 1236.3125 114.176563 
L 1256.3125 114.176563 
" style="fill:none;stroke:#ff0000;stroke-linecap:square;stroke-width:1.5;"/>
    </g>
    <g id="line2d_18"/>
    <g id="text_15">
     <!-- True -->
     <defs>
      <path d="M 8.5 21.578125 
L 8.5 54.6875 
L 17.484375 54.6875 
L 17.484375 21.921875 
Q 17.484375 14.15625 20.5 10.265625 
Q 23.53125 6.390625 29.59375 6.390625 
Q 36.859375 6.390625 41.078125 11.03125 
Q 45.3125 15.671875 45.3125 23.6875 
L 45.3125 54.6875 
L 54.296875 54.6875 
L 54.296875 0 
L 45.3125 0 
L 45.3125 8.40625 
Q 42.046875 3.421875 37.71875 1 
Q 33.40625 -1.421875 27.6875 -1.421875 
Q 18.265625 -1.421875 13.375 4.4375 
Q 8.5 10.296875 8.5 21.578125 
z
M 31.109375 56 
z
" id="DejaVuSans-75"/>
     </defs>
     <g transform="translate(1264.3125 117.676563)scale(0.1 -0.1)">
      <use xlink:href="#DejaVuSans-54"/>
      <use x="60.865234" xlink:href="#DejaVuSans-72"/>
      <use x="101.978516" xlink:href="#DejaVuSans-75"/>
      <use x="165.357422" xlink:href="#DejaVuSans-65"/>
     </g>
    </g>
   </g>
  </g>
  <g id="axes_2">
   <g id="patch_8">
    <path d="M 180 351.547826 
L 1296 351.547826 
L 1296 231.026087 
L 180 231.026087 
z
" style="fill:#ffffff;"/>
   </g>
   <g id="matplotlib.axis_3">
    <g id="xtick_9">
     <g id="line2d_19">
      <g>
       <use style="stroke:#000000;stroke-width:0.8;" x="219.716228" xlink:href="#m04e5e952c9" y="351.547826"/>
      </g>
     </g>
     <g id="text_16">
      <!-- 0.0 -->
      <g transform="translate(211.764665 366.146264)scale(0.1 -0.1)">
       <use xlink:href="#DejaVuSans-30"/>
       <use x="63.623047" xlink:href="#DejaVuSans-2e"/>
       <use x="95.410156" xlink:href="#DejaVuSans-30"/>
      </g>
     </g>
    </g>
    <g id="xtick_10">
     <g id="line2d_20">
      <g>
       <use style="stroke:#000000;stroke-width:0.8;" x="372.647409" xlink:href="#m04e5e952c9" y="351.547826"/>
      </g>
     </g>
     <g id="text_17">
      <!-- 0.5 -->
      <g transform="translate(364.695846 366.146264)scale(0.1 -0.1)">
       <use xlink:href="#DejaVuSans-30"/>
       <use x="63.623047" xlink:href="#DejaVuSans-2e"/>
       <use x="95.410156" xlink:href="#DejaVuSans-35"/>
      </g>
     </g>
    </g>
    <g id="xtick_11">
     <g id="line2d_21">
      <g>
       <use style="stroke:#000000;stroke-width:0.8;" x="525.57859" xlink:href="#m04e5e952c9" y="351.547826"/>
      </g>
     </g>
     <g id="text_18">
      <!-- 1.0 -->
      <g transform="translate(517.627027 366.146264)scale(0.1 -0.1)">
       <use xlink:href="#DejaVuSans-31"/>
       <use x="63.623047" xlink:href="#DejaVuSans-2e"/>
       <use x="95.410156" xlink:href="#DejaVuSans-30"/>
      </g>
     </g>
    </g>
    <g id="xtick_12">
     <g id="line2d_22">
      <g>
       <use style="stroke:#000000;stroke-width:0.8;" x="678.509771" xlink:href="#m04e5e952c9" y="351.547826"/>
      </g>
     </g>
     <g id="text_19">
      <!-- 1.5 -->
      <g transform="translate(670.558208 366.146264)scale(0.1 -0.1)">
       <use xlink:href="#DejaVuSans-31"/>
       <use x="63.623047" xlink:href="#DejaVuSans-2e"/>
       <use x="95.410156" xlink:href="#DejaVuSans-35"/>
      </g>
     </g>
    </g>
    <g id="xtick_13">
     <g id="line2d_23">
      <g>
       <use style="stroke:#000000;stroke-width:0.8;" x="831.440952" xlink:href="#m04e5e952c9" y="351.547826"/>
      </g>
     </g>
     <g id="text_20">
      <!-- 2.0 -->
      <g transform="translate(823.489389 366.146264)scale(0.1 -0.1)">
       <use xlink:href="#DejaVuSans-32"/>
       <use x="63.623047" xlink:href="#DejaVuSans-2e"/>
       <use x="95.410156" xlink:href="#DejaVuSans-30"/>
      </g>
     </g>
    </g>
    <g id="xtick_14">
     <g id="line2d_24">
      <g>
       <use style="stroke:#000000;stroke-width:0.8;" x="984.372133" xlink:href="#m04e5e952c9" y="351.547826"/>
      </g>
     </g>
     <g id="text_21">
      <!-- 2.5 -->
      <g transform="translate(976.42057 366.146264)scale(0.1 -0.1)">
       <use xlink:href="#DejaVuSans-32"/>
       <use x="63.623047" xlink:href="#DejaVuSans-2e"/>
       <use x="95.410156" xlink:href="#DejaVuSans-35"/>
      </g>
     </g>
    </g>
    <g id="xtick_15">
     <g id="line2d_25">
      <g>
       <use style="stroke:#000000;stroke-width:0.8;" x="1137.303314" xlink:href="#m04e5e952c9" y="351.547826"/>
      </g>
     </g>
     <g id="text_22">
      <!-- 3.0 -->
      <g transform="translate(1129.351751 366.146264)scale(0.1 -0.1)">
       <use xlink:href="#DejaVuSans-33"/>
       <use x="63.623047" xlink:href="#DejaVuSans-2e"/>
       <use x="95.410156" xlink:href="#DejaVuSans-30"/>
      </g>
     </g>
    </g>
    <g id="xtick_16">
     <g id="line2d_26">
      <g>
       <use style="stroke:#000000;stroke-width:0.8;" x="1290.234494" xlink:href="#m04e5e952c9" y="351.547826"/>
      </g>
     </g>
     <g id="text_23">
      <!-- 3.5 -->
      <g transform="translate(1282.282932 366.146264)scale(0.1 -0.1)">
       <use xlink:href="#DejaVuSans-33"/>
       <use x="63.623047" xlink:href="#DejaVuSans-2e"/>
       <use x="95.410156" xlink:href="#DejaVuSans-35"/>
      </g>
     </g>
    </g>
   </g>
   <g id="matplotlib.axis_4">
    <g id="ytick_5">
     <g id="line2d_27">
      <g>
       <use style="stroke:#000000;stroke-width:0.8;" x="180" xlink:href="#mc326318b6c" y="324.828485"/>
      </g>
     </g>
     <g id="text_24">
      <!-- −20 -->
      <g transform="translate(151.895312 328.627704)scale(0.1 -0.1)">
       <use xlink:href="#DejaVuSans-2212"/>
       <use x="83.789062" xlink:href="#DejaVuSans-32"/>
       <use x="147.412109" xlink:href="#DejaVuSans-30"/>
      </g>
     </g>
    </g>
    <g id="ytick_6">
     <g id="line2d_28">
      <g>
       <use style="stroke:#000000;stroke-width:0.8;" x="180" xlink:href="#mc326318b6c" y="291.985687"/>
      </g>
     </g>
     <g id="text_25">
      <!-- 0 -->
      <g transform="translate(166.6375 295.784906)scale(0.1 -0.1)">
       <use xlink:href="#DejaVuSans-30"/>
      </g>
     </g>
    </g>
    <g id="ytick_7">
     <g id="line2d_29">
      <g>
       <use style="stroke:#000000;stroke-width:0.8;" x="180" xlink:href="#mc326318b6c" y="259.142889"/>
      </g>
     </g>
     <g id="text_26">
      <!-- 20 -->
      <g transform="translate(160.275 262.942107)scale(0.1 -0.1)">
       <use xlink:href="#DejaVuSans-32"/>
       <use x="63.623047" xlink:href="#DejaVuSans-30"/>
      </g>
     </g>
    </g>
    <g id="text_27">
     <!-- TD State:1 -->
     <g transform="translate(145.815625 317.880707)rotate(-90)scale(0.1 -0.1)">
      <use xlink:href="#DejaVuSans-54"/>
      <use x="61.083984" xlink:href="#DejaVuSans-44"/>
      <use x="138.085938" xlink:href="#DejaVuSans-20"/>
      <use x="169.873047" xlink:href="#DejaVuSans-53"/>
      <use x="233.349609" xlink:href="#DejaVuSans-74"/>
      <use x="272.558594" xlink:href="#DejaVuSans-61"/>
      <use x="333.837891" xlink:href="#DejaVuSans-74"/>
      <use x="373.046875" xlink:href="#DejaVuSans-65"/>
      <use x="434.570312" xlink:href="#DejaVuSans-3a"/>
      <use x="468.261719" xlink:href="#DejaVuSans-31"/>
     </g>
    </g>
   </g>
   <g id="line2d_30">
    <path clip-path="url(#p740b3d2a93)" d="M 230.727273 291.985687 
L 235.926933 292.009997 
L 241.432455 292.196883 
L 246.632116 291.710467 
L 252.137638 291.985389 
L 257.643161 321.106634 
L 263.148683 293.303226 
L 268.042481 291.658202 
L 272.936279 310.585894 
L 279.053526 291.703503 
L 283.947324 300.242679 
L 289.452846 291.196213 
L 294.958369 293.645748 
L 299.852167 293.613644 
L 305.357689 298.392207 
L 310.863212 301.69112 
L 312.698386 306.378064 
L 317.898046 306.825406 
L 322.791844 290.993906 
L 327.685641 297.583944 
L 333.191164 292.142179 
L 338.696686 297.847912 
L 343.590484 296.572095 
L 349.096007 298.856296 
L 354.601529 291.912939 
L 360.107052 290.972809 
L 365.612574 292.681671 
L 371.118097 294.033145 
L 376.011895 300.517532 
L 381.517417 302.619215 
L 387.02294 303.392406 
L 392.528462 302.5586 
L 393.751912 297.240057 
L 399.257434 296.195013 
L 404.151232 296.099179 
L 409.04503 296.521206 
L 414.24469 296.459328 
L 419.750212 296.546089 
L 424.64401 296.965097 
L 429.84367 296.819006 
L 435.349193 298.79036 
L 440.854715 298.326927 
L 446.360238 291.120814 
L 451.254036 293.366998 
L 457.371283 293.125025 
L 463.48853 294.593447 
L 468.994053 308.048355 
L 470.217502 297.504768 
L 475.723025 291.530097 
L 481.228547 293.863576 
L 485.51062 289.709589 
L 491.016143 297.669589 
L 496.521665 308.325477 
L 502.027188 312.746207 
L 506.920986 287.392317 
L 512.426508 294.124179 
L 517.932031 292.332769 
L 523.437553 292.956798 
L 528.943076 306.678297 
L 534.448598 301.180769 
L 539.954121 307.007505 
L 545.459643 288.777147 
L 546.683093 292.867167 
L 552.188615 291.894762 
L 557.388275 295.857187 
L 562.282073 302.318021 
L 567.175871 307.118323 
L 572.681393 308.186324 
L 578.798641 285.84082 
L 583.692438 293.657558 
L 589.197961 292.203343 
L 594.703483 290.425022 
L 599.597281 310.783917 
L 604.491079 300.130382 
L 609.384877 304.312967 
L 614.890399 289.654381 
L 621.007647 294.632682 
L 625.901444 294.468907 
L 631.406967 304.709252 
L 636.300765 287.703375 
L 641.806287 292.190093 
L 647.31181 289.411904 
L 652.817332 293.919757 
L 654.040782 294.182543 
L 659.546304 296.109567 
L 664.440102 297.496128 
L 669.3339 299.392817 
L 679.73322 302.375454 
L 684.627018 302.377914 
L 690.13254 302.559317 
L 695.026338 302.859893 
L 699.920136 277.505702 
L 705.425658 291.605674 
L 710.931181 291.636383 
L 716.436703 288.039297 
L 721.330501 338.369641 
L 726.224299 288.164751 
L 732.341546 279.283621 
L 737.235344 291.873747 
L 742.129142 289.474135 
L 747.634664 292.832562 
L 753.751912 282.787123 
L 758.645709 287.703133 
L 764.151232 277.748652 
L 765.986406 273.541494 
L 774.550552 299.060067 
L 779.44435 285.989151 
L 784.949873 287.562417 
L 786.785047 286.293857 
L 791.984707 278.466198 
L 796.878505 293.817447 
L 801.772302 287.982511 
L 807.277825 289.053853 
L 812.783347 289.70244 
L 818.28887 283.570905 
L 823.182668 282.850653 
L 828.68819 283.308178 
L 839.087511 282.406468 
L 843.981308 282.289873 
L 848.875106 281.727602 
L 854.380629 281.299309 
L 859.274427 278.650133 
L 864.779949 274.179664 
L 869.673747 292.658951 
L 874.567545 286.079025 
L 880.684792 287.37588 
L 885.57859 281.369781 
L 890.472387 281.914689 
L 895.366185 280.411675 
L 900.871708 283.176566 
L 905.765506 270.832818 
L 911.271028 277.25855 
L 916.776551 271.415456 
L 927.175871 277.423994 
L 931.763806 280.365352 
L 936.657604 287.948177 
L 941.551402 290.260733 
L 946.4452 288.255707 
L 952.562447 289.789906 
L 957.456245 275.747577 
L 962.961767 295.757596 
L 968.46729 280.297139 
L 973.972812 293.4085 
L 975.196262 284.552046 
L 980.701784 281.997567 
L 985.28972 278.076888 
L 990.48938 274.119263 
L 995.68904 283.493622 
L 1000.582838 262.615197 
L 1005.476636 294.863994 
L 1010.982158 287.846963 
L 1016.487681 287.544885 
L 1021.993203 291.047138 
L 1027.498726 275.977704 
L 1033.004248 292.950219 
L 1038.509771 284.388872 
L 1044.015293 284.946315 
L 1049.520816 274.330595 
L 1055.026338 287.548297 
L 1056.861512 272.097865 
L 1062.061172 290.646068 
L 1066.95497 291.160421 
L 1072.460493 278.90356 
L 1077.354291 278.732969 
L 1083.471538 271.851706 
L 1088.365336 278.419506 
L 1093.259133 298.036513 
L 1098.764656 286.032133 
L 1104.270178 296.462145 
L 1109.775701 285.076974 
L 1115.892948 280.711786 
L 1121.092608 276.776732 
L 1126.598131 291.343139 
L 1127.82158 282.034975 
L 1133.327103 287.299467 
L 1138.832625 286.624475 
L 1143.114698 277.243623 
L 1148.620221 269.615259 
L 1153.819881 266.016365 
L 1159.325404 267.571564 
L 1164.830926 292.711991 
L 1169.724724 289.763822 
L 1175.230246 291.273074 
L 1181.347494 288.276758 
L 1186.241291 274.126709 
L 1191.746814 266.563105 
L 1197.252336 265.989154 
L 1202.757859 296.088423 
L 1207.651657 283.958081 
L 1213.157179 291.599532 
L 1217.745115 283.801611 
L 1222.638912 272.161837 
L 1228.144435 272.064758 
L 1233.649958 281.253236 
L 1238.543755 265.044974 
L 1244.049278 291.180956 
L 1245.272727 287.153048 
L 1245.272727 287.153048 
" style="fill:none;stroke:#000000;stroke-linecap:square;stroke-width:4;"/>
   </g>
   <g id="line2d_31">
    <path clip-path="url(#p740b3d2a93)" d="M 230.727273 291.985687 
L 252.137638 291.985687 
L 257.643161 321.133671 
L 263.148683 293.627827 
L 268.042481 291.985687 
L 272.936279 314.154576 
L 279.053526 287.469802 
L 283.947324 317.003689 
L 289.452846 289.703113 
L 294.958369 295.335652 
L 299.852167 291.606353 
L 305.357689 306.681197 
L 310.863212 290.995477 
L 312.698386 291.985687 
L 317.898046 327.973183 
L 322.791844 288.019919 
L 327.685641 296.022067 
L 333.191164 291.770567 
L 338.696686 291.448707 
L 343.590484 287.059267 
L 349.096007 326.06009 
L 354.601529 299.375317 
L 360.107052 292.18767 
L 365.612574 291.783704 
L 371.118097 291.985687 
L 376.011895 291.575152 
L 381.517417 291.985687 
L 399.257434 291.985687 
L 404.151232 292.598205 
L 409.04503 291.985687 
L 414.24469 292.007035 
L 419.750212 292.993961 
L 424.64401 291.985687 
L 429.84367 297.04512 
L 435.349193 292.167965 
L 440.854715 331.492289 
L 446.360238 295.476877 
L 451.254036 291.944634 
L 457.371283 291.916717 
L 463.48853 292.016888 
L 468.994053 330.664651 
L 470.217502 291.35839 
L 475.723025 291.985687 
L 481.228547 293.217292 
L 485.51062 291.445423 
L 491.016143 292.525951 
L 496.521665 291.985687 
L 502.027188 329.002805 
L 506.920986 291.089079 
L 512.426508 292.186028 
L 517.932031 292.296052 
L 523.437553 287.29902 
L 528.943076 308.068805 
L 534.448598 292.062868 
L 539.954121 318.379802 
L 545.459643 291.824757 
L 546.683093 291.954486 
L 552.188615 291.985687 
L 557.388275 292.305904 
L 562.282073 295.360285 
L 567.175871 291.985687 
L 572.681393 331.250895 
L 578.798641 285.973813 
L 583.692438 289.933012 
L 589.197961 294.038362 
L 594.703483 290.343547 
L 599.597281 302.286831 
L 604.491079 292.195881 
L 609.384877 311.238135 
L 614.890399 292.140048 
L 621.007647 291.74265 
L 625.901444 291.990613 
L 631.406967 322.068048 
L 636.300765 292.726292 
L 641.806287 296.675639 
L 647.31181 287.962444 
L 652.817332 291.985687 
L 664.440102 291.985687 
L 669.3339 291.575152 
L 674.839422 293.575278 
L 679.73322 301.030594 
L 684.627018 291.985687 
L 690.13254 291.256577 
L 695.026338 346.069565 
L 699.920136 280.380684 
L 705.425658 291.69667 
L 710.931181 292.240219 
L 716.436703 290.378032 
L 721.330501 338.404056 
L 726.224299 291.502898 
L 732.341546 282.512182 
L 737.235344 292.021814 
L 742.129142 287.877053 
L 747.634664 294.245272 
L 753.751912 273.85482 
L 758.645709 294.951392 
L 764.151232 291.985687 
L 765.986406 244.854629 
L 774.550552 291.985687 
L 779.44435 291.951202 
L 784.949873 280.234534 
L 786.785047 292.366664 
L 796.878505 291.680249 
L 807.277825 292.121985 
L 812.783347 291.946276 
L 818.28887 292.074363 
L 823.182668 292.478329 
L 828.68819 292.314115 
L 834.805438 291.48155 
L 839.087511 292.296052 
L 843.981308 291.250008 
L 848.875106 291.798483 
L 854.380629 284.228218 
L 859.274427 290.678544 
L 864.779949 246.598582 
L 869.673747 293.363442 
L 874.567545 291.493045 
L 880.684792 292.314115 
L 885.57859 281.475992 
L 890.472387 294.448897 
L 895.366185 289.111942 
L 900.871708 292.396222 
L 905.765506 288.300725 
L 911.271028 291.898654 
L 916.776551 279.398685 
L 921.670348 292.637617 
L 927.175871 263.190764 
L 931.763806 279.094889 
L 936.657604 278.723765 
L 941.551402 291.97255 
L 946.4452 280.54654 
L 952.562447 291.954486 
L 957.456245 238.419083 
L 962.961767 302.887854 
L 968.46729 270.637868 
L 973.972812 291.985687 
L 975.196262 286.648732 
L 980.701784 291.985687 
L 985.28972 291.869095 
L 990.48938 267.34702 
L 995.68904 291.985687 
L 1000.582838 253.108025 
L 1005.476636 292.806757 
L 1010.982158 290.343547 
L 1016.487681 275.513382 
L 1021.993203 291.974192 
L 1027.498726 264.545529 
L 1033.004248 292.067794 
L 1038.509771 291.837894 
L 1044.015293 292.218871 
L 1049.520816 265.686816 
L 1055.026338 292.727934 
L 1056.861512 253.983285 
L 1062.061172 291.985687 
L 1066.95497 306.520267 
L 1072.460493 287.880337 
L 1077.354291 292.806757 
L 1083.471538 281.546604 
L 1088.365336 236.504348 
L 1093.259133 294.683723 
L 1098.764656 284.596057 
L 1104.270178 299.263651 
L 1109.775701 289.634143 
L 1115.892948 291.985687 
L 1121.092608 249.290049 
L 1126.598131 291.985687 
L 1127.82158 292.806757 
L 1133.327103 291.985687 
L 1138.832625 280.490708 
L 1143.114698 293.627827 
L 1148.620221 287.74404 
L 1153.819881 292.121985 
L 1159.325404 251.753259 
L 1164.830926 281.38239 
L 1169.724724 292.934844 
L 1175.230246 291.064447 
L 1181.347494 293.688586 
L 1186.241291 290.309062 
L 1191.746814 292.025098 
L 1197.252336 237.630856 
L 1202.757859 303.480666 
L 1207.651657 281.615573 
L 1213.157179 299.071521 
L 1217.745115 289.522477 
L 1222.638912 295.269967 
L 1228.144435 271.458938 
L 1233.649958 295.77903 
L 1238.543755 257.34803 
L 1244.049278 293.599911 
L 1245.272727 289.586521 
L 1245.272727 289.586521 
" style="fill:none;stroke:#ff0000;stroke-linecap:square;stroke-width:1.5;"/>
   </g>
   <g id="patch_9">
    <path d="M 180 351.547826 
L 180 231.026087 
" style="fill:none;stroke:#000000;stroke-linecap:square;stroke-linejoin:miter;stroke-width:0.8;"/>
   </g>
   <g id="patch_10">
    <path d="M 1296 351.547826 
L 1296 231.026087 
" style="fill:none;stroke:#000000;stroke-linecap:square;stroke-linejoin:miter;stroke-width:0.8;"/>
   </g>
   <g id="patch_11">
    <path d="M 180 351.547826 
L 1296 351.547826 
" style="fill:none;stroke:#000000;stroke-linecap:square;stroke-linejoin:miter;stroke-width:0.8;"/>
   </g>
   <g id="patch_12">
    <path d="M 180 231.026087 
L 1296 231.026087 
" style="fill:none;stroke:#000000;stroke-linecap:square;stroke-linejoin:miter;stroke-width:0.8;"/>
   </g>
   <g id="legend_2">
    <g id="patch_13">
     <path d="M 1234.3125 268.382337 
L 1289 268.382337 
Q 1291 268.382337 1291 266.382337 
L 1291 238.026087 
Q 1291 236.026087 1289 236.026087 
L 1234.3125 236.026087 
Q 1232.3125 236.026087 1232.3125 238.026087 
L 1232.3125 266.382337 
Q 1232.3125 268.382337 1234.3125 268.382337 
z
" style="fill:#ffffff;opacity:0.8;stroke:#cccccc;stroke-linejoin:miter;"/>
    </g>
    <g id="line2d_32">
     <path d="M 1236.3125 244.124524 
L 1256.3125 244.124524 
" style="fill:none;stroke:#000000;stroke-linecap:square;stroke-width:4;"/>
    </g>
    <g id="line2d_33"/>
    <g id="text_28">
     <!-- Pred -->
     <g transform="translate(1264.3125 247.624524)scale(0.1 -0.1)">
      <use xlink:href="#DejaVuSans-50"/>
      <use x="60.287109" xlink:href="#DejaVuSans-72"/>
      <use x="101.369141" xlink:href="#DejaVuSans-65"/>
      <use x="162.892578" xlink:href="#DejaVuSans-64"/>
     </g>
    </g>
    <g id="line2d_34">
     <path d="M 1236.3125 258.802649 
L 1256.3125 258.802649 
" style="fill:none;stroke:#ff0000;stroke-linecap:square;stroke-width:1.5;"/>
    </g>
    <g id="line2d_35"/>
    <g id="text_29">
     <!-- True -->
     <g transform="translate(1264.3125 262.302649)scale(0.1 -0.1)">
      <use xlink:href="#DejaVuSans-54"/>
      <use x="60.865234" xlink:href="#DejaVuSans-72"/>
      <use x="101.978516" xlink:href="#DejaVuSans-75"/>
      <use x="165.357422" xlink:href="#DejaVuSans-65"/>
     </g>
    </g>
   </g>
  </g>
  <g id="axes_3">
   <g id="patch_14">
    <path d="M 180 496.173913 
L 1296 496.173913 
L 1296 375.652174 
L 180 375.652174 
z
" style="fill:#ffffff;"/>
   </g>
   <g id="matplotlib.axis_5">
    <g id="xtick_17">
     <g id="line2d_36">
      <g>
       <use style="stroke:#000000;stroke-width:0.8;" x="219.716228" xlink:href="#m04e5e952c9" y="496.173913"/>
      </g>
     </g>
     <g id="text_30">
      <!-- 0.0 -->
      <g transform="translate(211.764665 510.772351)scale(0.1 -0.1)">
       <use xlink:href="#DejaVuSans-30"/>
       <use x="63.623047" xlink:href="#DejaVuSans-2e"/>
       <use x="95.410156" xlink:href="#DejaVuSans-30"/>
      </g>
     </g>
    </g>
    <g id="xtick_18">
     <g id="line2d_37">
      <g>
       <use style="stroke:#000000;stroke-width:0.8;" x="372.647409" xlink:href="#m04e5e952c9" y="496.173913"/>
      </g>
     </g>
     <g id="text_31">
      <!-- 0.5 -->
      <g transform="translate(364.695846 510.772351)scale(0.1 -0.1)">
       <use xlink:href="#DejaVuSans-30"/>
       <use x="63.623047" xlink:href="#DejaVuSans-2e"/>
       <use x="95.410156" xlink:href="#DejaVuSans-35"/>
      </g>
     </g>
    </g>
    <g id="xtick_19">
     <g id="line2d_38">
      <g>
       <use style="stroke:#000000;stroke-width:0.8;" x="525.57859" xlink:href="#m04e5e952c9" y="496.173913"/>
      </g>
     </g>
     <g id="text_32">
      <!-- 1.0 -->
      <g transform="translate(517.627027 510.772351)scale(0.1 -0.1)">
       <use xlink:href="#DejaVuSans-31"/>
       <use x="63.623047" xlink:href="#DejaVuSans-2e"/>
       <use x="95.410156" xlink:href="#DejaVuSans-30"/>
      </g>
     </g>
    </g>
    <g id="xtick_20">
     <g id="line2d_39">
      <g>
       <use style="stroke:#000000;stroke-width:0.8;" x="678.509771" xlink:href="#m04e5e952c9" y="496.173913"/>
      </g>
     </g>
     <g id="text_33">
      <!-- 1.5 -->
      <g transform="translate(670.558208 510.772351)scale(0.1 -0.1)">
       <use xlink:href="#DejaVuSans-31"/>
       <use x="63.623047" xlink:href="#DejaVuSans-2e"/>
       <use x="95.410156" xlink:href="#DejaVuSans-35"/>
      </g>
     </g>
    </g>
    <g id="xtick_21">
     <g id="line2d_40">
      <g>
       <use style="stroke:#000000;stroke-width:0.8;" x="831.440952" xlink:href="#m04e5e952c9" y="496.173913"/>
      </g>
     </g>
     <g id="text_34">
      <!-- 2.0 -->
      <g transform="translate(823.489389 510.772351)scale(0.1 -0.1)">
       <use xlink:href="#DejaVuSans-32"/>
       <use x="63.623047" xlink:href="#DejaVuSans-2e"/>
       <use x="95.410156" xlink:href="#DejaVuSans-30"/>
      </g>
     </g>
    </g>
    <g id="xtick_22">
     <g id="line2d_41">
      <g>
       <use style="stroke:#000000;stroke-width:0.8;" x="984.372133" xlink:href="#m04e5e952c9" y="496.173913"/>
      </g>
     </g>
     <g id="text_35">
      <!-- 2.5 -->
      <g transform="translate(976.42057 510.772351)scale(0.1 -0.1)">
       <use xlink:href="#DejaVuSans-32"/>
       <use x="63.623047" xlink:href="#DejaVuSans-2e"/>
       <use x="95.410156" xlink:href="#DejaVuSans-35"/>
      </g>
     </g>
    </g>
    <g id="xtick_23">
     <g id="line2d_42">
      <g>
       <use style="stroke:#000000;stroke-width:0.8;" x="1137.303314" xlink:href="#m04e5e952c9" y="496.173913"/>
      </g>
     </g>
     <g id="text_36">
      <!-- 3.0 -->
      <g transform="translate(1129.351751 510.772351)scale(0.1 -0.1)">
       <use xlink:href="#DejaVuSans-33"/>
       <use x="63.623047" xlink:href="#DejaVuSans-2e"/>
       <use x="95.410156" xlink:href="#DejaVuSans-30"/>
      </g>
     </g>
    </g>
    <g id="xtick_24">
     <g id="line2d_43">
      <g>
       <use style="stroke:#000000;stroke-width:0.8;" x="1290.234494" xlink:href="#m04e5e952c9" y="496.173913"/>
      </g>
     </g>
     <g id="text_37">
      <!-- 3.5 -->
      <g transform="translate(1282.282932 510.772351)scale(0.1 -0.1)">
       <use xlink:href="#DejaVuSans-33"/>
       <use x="63.623047" xlink:href="#DejaVuSans-2e"/>
       <use x="95.410156" xlink:href="#DejaVuSans-35"/>
      </g>
     </g>
    </g>
   </g>
   <g id="matplotlib.axis_6">
    <g id="ytick_8">
     <g id="line2d_44">
      <g>
       <use style="stroke:#000000;stroke-width:0.8;" x="180" xlink:href="#mc326318b6c" y="474.405946"/>
      </g>
     </g>
     <g id="text_38">
      <!-- −0.0010 -->
      <g transform="translate(129.629687 478.205165)scale(0.1 -0.1)">
       <use xlink:href="#DejaVuSans-2212"/>
       <use x="83.789062" xlink:href="#DejaVuSans-30"/>
       <use x="147.412109" xlink:href="#DejaVuSans-2e"/>
       <use x="179.199219" xlink:href="#DejaVuSans-30"/>
       <use x="242.822266" xlink:href="#DejaVuSans-30"/>
       <use x="306.445312" xlink:href="#DejaVuSans-31"/>
       <use x="370.068359" xlink:href="#DejaVuSans-30"/>
      </g>
     </g>
    </g>
    <g id="ytick_9">
     <g id="line2d_45">
      <g>
       <use style="stroke:#000000;stroke-width:0.8;" x="180" xlink:href="#mc326318b6c" y="446.683325"/>
      </g>
     </g>
     <g id="text_39">
      <!-- −0.0005 -->
      <g transform="translate(129.629687 450.482544)scale(0.1 -0.1)">
       <use xlink:href="#DejaVuSans-2212"/>
       <use x="83.789062" xlink:href="#DejaVuSans-30"/>
       <use x="147.412109" xlink:href="#DejaVuSans-2e"/>
       <use x="179.199219" xlink:href="#DejaVuSans-30"/>
       <use x="242.822266" xlink:href="#DejaVuSans-30"/>
       <use x="306.445312" xlink:href="#DejaVuSans-30"/>
       <use x="370.068359" xlink:href="#DejaVuSans-35"/>
      </g>
     </g>
    </g>
    <g id="ytick_10">
     <g id="line2d_46">
      <g>
       <use style="stroke:#000000;stroke-width:0.8;" x="180" xlink:href="#mc326318b6c" y="418.960704"/>
      </g>
     </g>
     <g id="text_40">
      <!-- 0.0000 -->
      <g transform="translate(138.009375 422.759923)scale(0.1 -0.1)">
       <use xlink:href="#DejaVuSans-30"/>
       <use x="63.623047" xlink:href="#DejaVuSans-2e"/>
       <use x="95.410156" xlink:href="#DejaVuSans-30"/>
       <use x="159.033203" xlink:href="#DejaVuSans-30"/>
       <use x="222.65625" xlink:href="#DejaVuSans-30"/>
       <use x="286.279297" xlink:href="#DejaVuSans-30"/>
      </g>
     </g>
    </g>
    <g id="ytick_11">
     <g id="line2d_47">
      <g>
       <use style="stroke:#000000;stroke-width:0.8;" x="180" xlink:href="#mc326318b6c" y="391.238084"/>
      </g>
     </g>
     <g id="text_41">
      <!-- 0.0005 -->
      <g transform="translate(138.009375 395.037303)scale(0.1 -0.1)">
       <use xlink:href="#DejaVuSans-30"/>
       <use x="63.623047" xlink:href="#DejaVuSans-2e"/>
       <use x="95.410156" xlink:href="#DejaVuSans-30"/>
       <use x="159.033203" xlink:href="#DejaVuSans-30"/>
       <use x="222.65625" xlink:href="#DejaVuSans-30"/>
       <use x="286.279297" xlink:href="#DejaVuSans-35"/>
      </g>
     </g>
    </g>
    <g id="text_42">
     <!-- TD State:2 -->
     <g transform="translate(123.55 462.506793)rotate(-90)scale(0.1 -0.1)">
      <use xlink:href="#DejaVuSans-54"/>
      <use x="61.083984" xlink:href="#DejaVuSans-44"/>
      <use x="138.085938" xlink:href="#DejaVuSans-20"/>
      <use x="169.873047" xlink:href="#DejaVuSans-53"/>
      <use x="233.349609" xlink:href="#DejaVuSans-74"/>
      <use x="272.558594" xlink:href="#DejaVuSans-61"/>
      <use x="333.837891" xlink:href="#DejaVuSans-74"/>
      <use x="373.046875" xlink:href="#DejaVuSans-65"/>
      <use x="434.570312" xlink:href="#DejaVuSans-3a"/>
      <use x="468.261719" xlink:href="#DejaVuSans-32"/>
     </g>
    </g>
   </g>
   <g id="line2d_48">
    <path clip-path="url(#pc98867e2ad)" d="M 230.727273 418.960704 
L 235.926933 463.429311 
L 241.432455 475.68775 
L 246.632116 449.689698 
L 252.137638 405.377897 
L 257.643161 420.743867 
L 263.148683 399.804844 
L 268.042481 490.695652 
L 272.936279 421.636816 
L 279.053526 415.787946 
L 283.947324 400.627418 
L 289.452846 416.986842 
L 294.958369 407.53332 
L 299.852167 409.721763 
L 305.357689 400.284444 
L 310.863212 408.883524 
L 312.698386 405.324524 
L 317.898046 402.511254 
L 322.791844 422.960351 
L 327.685641 405.241511 
L 333.191164 414.63595 
L 338.696686 402.775226 
L 343.590484 402.213836 
L 349.096007 393.098825 
L 354.601529 415.877579 
L 360.107052 419.113231 
L 365.612574 413.962049 
L 371.118097 414.606505 
L 376.011895 402.243375 
L 381.517417 399.855809 
L 392.528462 407.765326 
L 393.751912 403.512557 
L 404.151232 402.927592 
L 409.04503 403.102491 
L 419.750212 403.081068 
L 424.64401 403.29568 
L 429.84367 403.191595 
L 435.349193 404.636337 
L 440.854715 404.439463 
L 446.360238 427.114017 
L 451.254036 429.603423 
L 457.371283 428.398529 
L 463.48853 426.472442 
L 468.994053 415.525049 
L 470.217502 421.296272 
L 475.723025 420.869561 
L 481.228547 426.804764 
L 485.51062 415.233989 
L 491.016143 412.628496 
L 496.521665 413.564993 
L 502.027188 413.072349 
L 506.920986 427.375793 
L 512.426508 422.026784 
L 517.932031 424.995691 
L 523.437553 421.363794 
L 528.943076 411.803709 
L 534.448598 413.065372 
L 539.954121 406.835402 
L 545.459643 424.353423 
L 546.683093 413.732299 
L 552.188615 421.06899 
L 557.388275 410.27064 
L 562.282073 405.381992 
L 567.175871 405.13118 
L 572.681393 405.51548 
L 578.798641 432.143162 
L 583.692438 416.745434 
L 589.197961 419.813515 
L 594.703483 414.991659 
L 599.597281 407.011162 
L 604.491079 406.282102 
L 609.384877 404.006346 
L 614.890399 423.059002 
L 621.007647 411.105172 
L 625.901444 414.369944 
L 631.406967 405.316393 
L 636.300765 424.103099 
L 641.806287 410.959158 
L 647.31181 416.436265 
L 652.817332 409.800865 
L 654.040782 407.567227 
L 659.546304 407.281049 
L 664.440102 407.185505 
L 669.3339 397.184504 
L 674.839422 391.921236 
L 679.73322 395.128748 
L 684.627018 399.829015 
L 690.13254 398.313078 
L 695.026338 398.967045 
L 699.920136 436.115414 
L 705.425658 402.764068 
L 710.931181 409.056327 
L 716.436703 418.483677 
L 721.330501 411.048262 
L 726.224299 417.225017 
L 732.341546 413.583725 
L 737.235344 381.130435 
L 742.129142 392.796409 
L 747.634664 418.731244 
L 753.751912 405.676671 
L 758.645709 421.050937 
L 764.151232 412.49718 
L 765.986406 418.388604 
L 774.550552 412.086623 
L 779.44435 418.475865 
L 784.949873 418.958278 
L 786.785047 418.281507 
L 791.984707 418.049638 
L 796.878505 414.36229 
L 801.772302 415.839913 
L 807.277825 414.456513 
L 812.783347 410.416255 
L 818.28887 413.607414 
L 834.805438 412.797561 
L 843.981308 412.781661 
L 848.875106 413.078782 
L 854.380629 413.234303 
L 864.779949 417.057616 
L 869.673747 411.576101 
L 874.567545 417.705222 
L 880.684792 416.501261 
L 885.57859 418.244307 
L 890.472387 412.567981 
L 895.366185 416.47776 
L 900.871708 409.550985 
L 905.765506 415.683784 
L 911.271028 413.282102 
L 916.776551 416.358551 
L 921.670348 417.992144 
L 927.175871 415.940478 
L 931.763806 415.279305 
L 936.657604 413.029261 
L 941.551402 413.306901 
L 946.4452 415.030261 
L 952.562447 414.652839 
L 957.456245 415.563035 
L 962.961767 406.259492 
L 968.46729 413.432431 
L 973.972812 405.595988 
L 975.196262 412.481681 
L 980.701784 414.111329 
L 985.28972 413.21552 
L 990.48938 413.923129 
L 995.68904 413.627833 
L 1000.582838 415.858855 
L 1005.476636 411.167224 
L 1010.982158 412.577589 
L 1021.993203 414.562184 
L 1027.498726 417.021302 
L 1033.004248 414.227813 
L 1038.509771 416.377031 
L 1044.015293 415.768039 
L 1049.520816 416.597513 
L 1055.026338 416.456088 
L 1056.861512 417.663172 
L 1062.061172 414.655622 
L 1066.95497 413.711921 
L 1072.460493 415.443187 
L 1077.354291 416.132763 
L 1083.471538 417.792481 
L 1088.365336 417.799536 
L 1093.259133 409.325312 
L 1098.764656 411.902213 
L 1104.270178 409.139143 
L 1109.775701 415.071191 
L 1115.892948 415.768102 
L 1121.092608 416.00401 
L 1126.598131 418.497347 
L 1127.82158 416.690354 
L 1133.327103 415.561976 
L 1138.832625 415.550446 
L 1143.114698 416.563992 
L 1148.620221 415.914146 
L 1153.819881 417.33712 
L 1159.325404 417.237164 
L 1164.830926 414.452434 
L 1169.724724 415.460566 
L 1175.230246 414.108978 
L 1186.241291 415.756958 
L 1191.746814 413.806091 
L 1197.252336 416.373197 
L 1202.757859 413.332817 
L 1207.651657 414.6214 
L 1213.157179 412.435711 
L 1217.745115 413.954795 
L 1222.638912 417.872937 
L 1228.144435 416.877704 
L 1238.543755 419.818002 
L 1244.049278 410.834357 
L 1245.272727 416.466919 
L 1245.272727 416.466919 
" style="fill:none;stroke:#000000;stroke-linecap:square;stroke-width:4;"/>
   </g>
   <g id="line2d_49">
    <path clip-path="url(#pc98867e2ad)" d="M 230.727273 418.960704 
L 1245.272727 418.960704 
L 1245.272727 418.960704 
" style="fill:none;stroke:#ff0000;stroke-linecap:square;stroke-width:1.5;"/>
   </g>
   <g id="patch_15">
    <path d="M 180 496.173913 
L 180 375.652174 
" style="fill:none;stroke:#000000;stroke-linecap:square;stroke-linejoin:miter;stroke-width:0.8;"/>
   </g>
   <g id="patch_16">
    <path d="M 1296 496.173913 
L 1296 375.652174 
" style="fill:none;stroke:#000000;stroke-linecap:square;stroke-linejoin:miter;stroke-width:0.8;"/>
   </g>
   <g id="patch_17">
    <path d="M 180 496.173913 
L 1296 496.173913 
" style="fill:none;stroke:#000000;stroke-linecap:square;stroke-linejoin:miter;stroke-width:0.8;"/>
   </g>
   <g id="patch_18">
    <path d="M 180 375.652174 
L 1296 375.652174 
" style="fill:none;stroke:#000000;stroke-linecap:square;stroke-linejoin:miter;stroke-width:0.8;"/>
   </g>
   <g id="legend_3">
    <g id="patch_19">
     <path d="M 1234.3125 413.008424 
L 1289 413.008424 
Q 1291 413.008424 1291 411.008424 
L 1291 382.652174 
Q 1291 380.652174 1289 380.652174 
L 1234.3125 380.652174 
Q 1232.3125 380.652174 1232.3125 382.652174 
L 1232.3125 411.008424 
Q 1232.3125 413.008424 1234.3125 413.008424 
z
" style="fill:#ffffff;opacity:0.8;stroke:#cccccc;stroke-linejoin:miter;"/>
    </g>
    <g id="line2d_50">
     <path d="M 1236.3125 388.750611 
L 1256.3125 388.750611 
" style="fill:none;stroke:#000000;stroke-linecap:square;stroke-width:4;"/>
    </g>
    <g id="line2d_51"/>
    <g id="text_43">
     <!-- Pred -->
     <g transform="translate(1264.3125 392.250611)scale(0.1 -0.1)">
      <use xlink:href="#DejaVuSans-50"/>
      <use x="60.287109" xlink:href="#DejaVuSans-72"/>
      <use x="101.369141" xlink:href="#DejaVuSans-65"/>
      <use x="162.892578" xlink:href="#DejaVuSans-64"/>
     </g>
    </g>
    <g id="line2d_52">
     <path d="M 1236.3125 403.428736 
L 1256.3125 403.428736 
" style="fill:none;stroke:#ff0000;stroke-linecap:square;stroke-width:1.5;"/>
    </g>
    <g id="line2d_53"/>
    <g id="text_44">
     <!-- True -->
     <g transform="translate(1264.3125 406.928736)scale(0.1 -0.1)">
      <use xlink:href="#DejaVuSans-54"/>
      <use x="60.865234" xlink:href="#DejaVuSans-72"/>
      <use x="101.978516" xlink:href="#DejaVuSans-75"/>
      <use x="165.357422" xlink:href="#DejaVuSans-65"/>
     </g>
    </g>
   </g>
  </g>
  <g id="axes_4">
   <g id="patch_20">
    <path d="M 180 640.8 
L 1296 640.8 
L 1296 520.278261 
L 180 520.278261 
z
" style="fill:#ffffff;"/>
   </g>
   <g id="matplotlib.axis_7">
    <g id="xtick_25">
     <g id="line2d_54">
      <g>
       <use style="stroke:#000000;stroke-width:0.8;" x="219.716228" xlink:href="#m04e5e952c9" y="640.8"/>
      </g>
     </g>
     <g id="text_45">
      <!-- 0.0 -->
      <g transform="translate(211.764665 655.398438)scale(0.1 -0.1)">
       <use xlink:href="#DejaVuSans-30"/>
       <use x="63.623047" xlink:href="#DejaVuSans-2e"/>
       <use x="95.410156" xlink:href="#DejaVuSans-30"/>
      </g>
     </g>
    </g>
    <g id="xtick_26">
     <g id="line2d_55">
      <g>
       <use style="stroke:#000000;stroke-width:0.8;" x="372.647409" xlink:href="#m04e5e952c9" y="640.8"/>
      </g>
     </g>
     <g id="text_46">
      <!-- 0.5 -->
      <g transform="translate(364.695846 655.398438)scale(0.1 -0.1)">
       <use xlink:href="#DejaVuSans-30"/>
       <use x="63.623047" xlink:href="#DejaVuSans-2e"/>
       <use x="95.410156" xlink:href="#DejaVuSans-35"/>
      </g>
     </g>
    </g>
    <g id="xtick_27">
     <g id="line2d_56">
      <g>
       <use style="stroke:#000000;stroke-width:0.8;" x="525.57859" xlink:href="#m04e5e952c9" y="640.8"/>
      </g>
     </g>
     <g id="text_47">
      <!-- 1.0 -->
      <g transform="translate(517.627027 655.398438)scale(0.1 -0.1)">
       <use xlink:href="#DejaVuSans-31"/>
       <use x="63.623047" xlink:href="#DejaVuSans-2e"/>
       <use x="95.410156" xlink:href="#DejaVuSans-30"/>
      </g>
     </g>
    </g>
    <g id="xtick_28">
     <g id="line2d_57">
      <g>
       <use style="stroke:#000000;stroke-width:0.8;" x="678.509771" xlink:href="#m04e5e952c9" y="640.8"/>
      </g>
     </g>
     <g id="text_48">
      <!-- 1.5 -->
      <g transform="translate(670.558208 655.398438)scale(0.1 -0.1)">
       <use xlink:href="#DejaVuSans-31"/>
       <use x="63.623047" xlink:href="#DejaVuSans-2e"/>
       <use x="95.410156" xlink:href="#DejaVuSans-35"/>
      </g>
     </g>
    </g>
    <g id="xtick_29">
     <g id="line2d_58">
      <g>
       <use style="stroke:#000000;stroke-width:0.8;" x="831.440952" xlink:href="#m04e5e952c9" y="640.8"/>
      </g>
     </g>
     <g id="text_49">
      <!-- 2.0 -->
      <g transform="translate(823.489389 655.398438)scale(0.1 -0.1)">
       <use xlink:href="#DejaVuSans-32"/>
       <use x="63.623047" xlink:href="#DejaVuSans-2e"/>
       <use x="95.410156" xlink:href="#DejaVuSans-30"/>
      </g>
     </g>
    </g>
    <g id="xtick_30">
     <g id="line2d_59">
      <g>
       <use style="stroke:#000000;stroke-width:0.8;" x="984.372133" xlink:href="#m04e5e952c9" y="640.8"/>
      </g>
     </g>
     <g id="text_50">
      <!-- 2.5 -->
      <g transform="translate(976.42057 655.398438)scale(0.1 -0.1)">
       <use xlink:href="#DejaVuSans-32"/>
       <use x="63.623047" xlink:href="#DejaVuSans-2e"/>
       <use x="95.410156" xlink:href="#DejaVuSans-35"/>
      </g>
     </g>
    </g>
    <g id="xtick_31">
     <g id="line2d_60">
      <g>
       <use style="stroke:#000000;stroke-width:0.8;" x="1137.303314" xlink:href="#m04e5e952c9" y="640.8"/>
      </g>
     </g>
     <g id="text_51">
      <!-- 3.0 -->
      <g transform="translate(1129.351751 655.398438)scale(0.1 -0.1)">
       <use xlink:href="#DejaVuSans-33"/>
       <use x="63.623047" xlink:href="#DejaVuSans-2e"/>
       <use x="95.410156" xlink:href="#DejaVuSans-30"/>
      </g>
     </g>
    </g>
    <g id="xtick_32">
     <g id="line2d_61">
      <g>
       <use style="stroke:#000000;stroke-width:0.8;" x="1290.234494" xlink:href="#m04e5e952c9" y="640.8"/>
      </g>
     </g>
     <g id="text_52">
      <!-- 3.5 -->
      <g transform="translate(1282.282932 655.398438)scale(0.1 -0.1)">
       <use xlink:href="#DejaVuSans-33"/>
       <use x="63.623047" xlink:href="#DejaVuSans-2e"/>
       <use x="95.410156" xlink:href="#DejaVuSans-35"/>
      </g>
     </g>
    </g>
    <g id="text_53">
     <!-- Time -->
     <defs>
      <path d="M 9.421875 54.6875 
L 18.40625 54.6875 
L 18.40625 0 
L 9.421875 0 
z
M 9.421875 75.984375 
L 18.40625 75.984375 
L 18.40625 64.59375 
L 9.421875 64.59375 
z
" id="DejaVuSans-69"/>
      <path d="M 52 44.1875 
Q 55.375 50.25 60.0625 53.125 
Q 64.75 56 71.09375 56 
Q 79.640625 56 84.28125 50.015625 
Q 88.921875 44.046875 88.921875 33.015625 
L 88.921875 0 
L 79.890625 0 
L 79.890625 32.71875 
Q 79.890625 40.578125 77.09375 44.375 
Q 74.3125 48.1875 68.609375 48.1875 
Q 61.625 48.1875 57.5625 43.546875 
Q 53.515625 38.921875 53.515625 30.90625 
L 53.515625 0 
L 44.484375 0 
L 44.484375 32.71875 
Q 44.484375 40.625 41.703125 44.40625 
Q 38.921875 48.1875 33.109375 48.1875 
Q 26.21875 48.1875 22.15625 43.53125 
Q 18.109375 38.875 18.109375 30.90625 
L 18.109375 0 
L 9.078125 0 
L 9.078125 54.6875 
L 18.109375 54.6875 
L 18.109375 46.1875 
Q 21.1875 51.21875 25.484375 53.609375 
Q 29.78125 56 35.6875 56 
Q 41.65625 56 45.828125 52.96875 
Q 50 49.953125 52 44.1875 
z
" id="DejaVuSans-6d"/>
     </defs>
     <g transform="translate(725.6125 669.076563)scale(0.1 -0.1)">
      <use xlink:href="#DejaVuSans-54"/>
      <use x="61.037109" xlink:href="#DejaVuSans-69"/>
      <use x="88.820312" xlink:href="#DejaVuSans-6d"/>
      <use x="186.232422" xlink:href="#DejaVuSans-65"/>
     </g>
    </g>
   </g>
   <g id="matplotlib.axis_8">
    <g id="ytick_12">
     <g id="line2d_62">
      <g>
       <use style="stroke:#000000;stroke-width:0.8;" x="180" xlink:href="#mc326318b6c" y="624.365217"/>
      </g>
     </g>
     <g id="text_54">
      <!-- −0.04 -->
      <defs>
       <path d="M 37.796875 64.3125 
L 12.890625 25.390625 
L 37.796875 25.390625 
z
M 35.203125 72.90625 
L 47.609375 72.90625 
L 47.609375 25.390625 
L 58.015625 25.390625 
L 58.015625 17.1875 
L 47.609375 17.1875 
L 47.609375 0 
L 37.796875 0 
L 37.796875 17.1875 
L 4.890625 17.1875 
L 4.890625 26.703125 
z
" id="DejaVuSans-34"/>
      </defs>
      <g transform="translate(142.354688 628.164436)scale(0.1 -0.1)">
       <use xlink:href="#DejaVuSans-2212"/>
       <use x="83.789062" xlink:href="#DejaVuSans-30"/>
       <use x="147.412109" xlink:href="#DejaVuSans-2e"/>
       <use x="179.199219" xlink:href="#DejaVuSans-30"/>
       <use x="242.822266" xlink:href="#DejaVuSans-34"/>
      </g>
     </g>
    </g>
    <g id="ytick_13">
     <g id="line2d_63">
      <g>
       <use style="stroke:#000000;stroke-width:0.8;" x="180" xlink:href="#mc326318b6c" y="602.452174"/>
      </g>
     </g>
     <g id="text_55">
      <!-- −0.02 -->
      <g transform="translate(142.354688 606.251393)scale(0.1 -0.1)">
       <use xlink:href="#DejaVuSans-2212"/>
       <use x="83.789062" xlink:href="#DejaVuSans-30"/>
       <use x="147.412109" xlink:href="#DejaVuSans-2e"/>
       <use x="179.199219" xlink:href="#DejaVuSans-30"/>
       <use x="242.822266" xlink:href="#DejaVuSans-32"/>
      </g>
     </g>
    </g>
    <g id="ytick_14">
     <g id="line2d_64">
      <g>
       <use style="stroke:#000000;stroke-width:0.8;" x="180" xlink:href="#mc326318b6c" y="580.53913"/>
      </g>
     </g>
     <g id="text_56">
      <!-- 0.00 -->
      <g transform="translate(150.734375 584.338349)scale(0.1 -0.1)">
       <use xlink:href="#DejaVuSans-30"/>
       <use x="63.623047" xlink:href="#DejaVuSans-2e"/>
       <use x="95.410156" xlink:href="#DejaVuSans-30"/>
       <use x="159.033203" xlink:href="#DejaVuSans-30"/>
      </g>
     </g>
    </g>
    <g id="ytick_15">
     <g id="line2d_65">
      <g>
       <use style="stroke:#000000;stroke-width:0.8;" x="180" xlink:href="#mc326318b6c" y="558.626087"/>
      </g>
     </g>
     <g id="text_57">
      <!-- 0.02 -->
      <g transform="translate(150.734375 562.425306)scale(0.1 -0.1)">
       <use xlink:href="#DejaVuSans-30"/>
       <use x="63.623047" xlink:href="#DejaVuSans-2e"/>
       <use x="95.410156" xlink:href="#DejaVuSans-30"/>
       <use x="159.033203" xlink:href="#DejaVuSans-32"/>
      </g>
     </g>
    </g>
    <g id="ytick_16">
     <g id="line2d_66">
      <g>
       <use style="stroke:#000000;stroke-width:0.8;" x="180" xlink:href="#mc326318b6c" y="536.713043"/>
      </g>
     </g>
     <g id="text_58">
      <!-- 0.04 -->
      <g transform="translate(150.734375 540.512262)scale(0.1 -0.1)">
       <use xlink:href="#DejaVuSans-30"/>
       <use x="63.623047" xlink:href="#DejaVuSans-2e"/>
       <use x="95.410156" xlink:href="#DejaVuSans-30"/>
       <use x="159.033203" xlink:href="#DejaVuSans-34"/>
      </g>
     </g>
    </g>
    <g id="text_59">
     <!-- Control Input -->
     <defs>
      <path d="M 64.40625 67.28125 
L 64.40625 56.890625 
Q 59.421875 61.53125 53.78125 63.8125 
Q 48.140625 66.109375 41.796875 66.109375 
Q 29.296875 66.109375 22.65625 58.46875 
Q 16.015625 50.828125 16.015625 36.375 
Q 16.015625 21.96875 22.65625 14.328125 
Q 29.296875 6.6875 41.796875 6.6875 
Q 48.140625 6.6875 53.78125 8.984375 
Q 59.421875 11.28125 64.40625 15.921875 
L 64.40625 5.609375 
Q 59.234375 2.09375 53.4375 0.328125 
Q 47.65625 -1.421875 41.21875 -1.421875 
Q 24.65625 -1.421875 15.125 8.703125 
Q 5.609375 18.84375 5.609375 36.375 
Q 5.609375 53.953125 15.125 64.078125 
Q 24.65625 74.21875 41.21875 74.21875 
Q 47.75 74.21875 53.53125 72.484375 
Q 59.328125 70.75 64.40625 67.28125 
z
" id="DejaVuSans-43"/>
      <path d="M 30.609375 48.390625 
Q 23.390625 48.390625 19.1875 42.75 
Q 14.984375 37.109375 14.984375 27.296875 
Q 14.984375 17.484375 19.15625 11.84375 
Q 23.34375 6.203125 30.609375 6.203125 
Q 37.796875 6.203125 41.984375 11.859375 
Q 46.1875 17.53125 46.1875 27.296875 
Q 46.1875 37.015625 41.984375 42.703125 
Q 37.796875 48.390625 30.609375 48.390625 
z
M 30.609375 56 
Q 42.328125 56 49.015625 48.375 
Q 55.71875 40.765625 55.71875 27.296875 
Q 55.71875 13.875 49.015625 6.21875 
Q 42.328125 -1.421875 30.609375 -1.421875 
Q 18.84375 -1.421875 12.171875 6.21875 
Q 5.515625 13.875 5.515625 27.296875 
Q 5.515625 40.765625 12.171875 48.375 
Q 18.84375 56 30.609375 56 
z
" id="DejaVuSans-6f"/>
      <path d="M 54.890625 33.015625 
L 54.890625 0 
L 45.90625 0 
L 45.90625 32.71875 
Q 45.90625 40.484375 42.875 44.328125 
Q 39.84375 48.1875 33.796875 48.1875 
Q 26.515625 48.1875 22.3125 43.546875 
Q 18.109375 38.921875 18.109375 30.90625 
L 18.109375 0 
L 9.078125 0 
L 9.078125 54.6875 
L 18.109375 54.6875 
L 18.109375 46.1875 
Q 21.34375 51.125 25.703125 53.5625 
Q 30.078125 56 35.796875 56 
Q 45.21875 56 50.046875 50.171875 
Q 54.890625 44.34375 54.890625 33.015625 
z
" id="DejaVuSans-6e"/>
      <path d="M 9.421875 75.984375 
L 18.40625 75.984375 
L 18.40625 0 
L 9.421875 0 
z
" id="DejaVuSans-6c"/>
      <path d="M 9.8125 72.90625 
L 19.671875 72.90625 
L 19.671875 0 
L 9.8125 0 
z
" id="DejaVuSans-49"/>
      <path d="M 18.109375 8.203125 
L 18.109375 -20.796875 
L 9.078125 -20.796875 
L 9.078125 54.6875 
L 18.109375 54.6875 
L 18.109375 46.390625 
Q 20.953125 51.265625 25.265625 53.625 
Q 29.59375 56 35.59375 56 
Q 45.5625 56 51.78125 48.09375 
Q 58.015625 40.1875 58.015625 27.296875 
Q 58.015625 14.40625 51.78125 6.484375 
Q 45.5625 -1.421875 35.59375 -1.421875 
Q 29.59375 -1.421875 25.265625 0.953125 
Q 20.953125 3.328125 18.109375 8.203125 
z
M 48.6875 27.296875 
Q 48.6875 37.203125 44.609375 42.84375 
Q 40.53125 48.484375 33.40625 48.484375 
Q 26.265625 48.484375 22.1875 42.84375 
Q 18.109375 37.203125 18.109375 27.296875 
Q 18.109375 17.390625 22.1875 11.75 
Q 26.265625 6.109375 33.40625 6.109375 
Q 40.53125 6.109375 44.609375 11.75 
Q 48.6875 17.390625 48.6875 27.296875 
z
" id="DejaVuSans-70"/>
     </defs>
     <g transform="translate(136.275 613.257099)rotate(-90)scale(0.1 -0.1)">
      <use xlink:href="#DejaVuSans-43"/>
      <use x="69.824219" xlink:href="#DejaVuSans-6f"/>
      <use x="131.005859" xlink:href="#DejaVuSans-6e"/>
      <use x="194.384766" xlink:href="#DejaVuSans-74"/>
      <use x="233.59375" xlink:href="#DejaVuSans-72"/>
      <use x="274.675781" xlink:href="#DejaVuSans-6f"/>
      <use x="335.857422" xlink:href="#DejaVuSans-6c"/>
      <use x="363.640625" xlink:href="#DejaVuSans-20"/>
      <use x="395.427734" xlink:href="#DejaVuSans-49"/>
      <use x="424.919922" xlink:href="#DejaVuSans-6e"/>
      <use x="488.298828" xlink:href="#DejaVuSans-70"/>
      <use x="551.775391" xlink:href="#DejaVuSans-75"/>
      <use x="615.154297" xlink:href="#DejaVuSans-74"/>
     </g>
    </g>
   </g>
   <g id="line2d_67">
    <path clip-path="url(#pc5408c4086)" d="M 230.727273 580.53913 
L 1245.272727 580.53913 
L 1245.272727 580.53913 
" style="fill:none;stroke:#ff0000;stroke-linecap:square;stroke-width:1.5;"/>
   </g>
   <g id="patch_21">
    <path d="M 180 640.8 
L 180 520.278261 
" style="fill:none;stroke:#000000;stroke-linecap:square;stroke-linejoin:miter;stroke-width:0.8;"/>
   </g>
   <g id="patch_22">
    <path d="M 1296 640.8 
L 1296 520.278261 
" style="fill:none;stroke:#000000;stroke-linecap:square;stroke-linejoin:miter;stroke-width:0.8;"/>
   </g>
   <g id="patch_23">
    <path d="M 180 640.8 
L 1296 640.8 
" style="fill:none;stroke:#000000;stroke-linecap:square;stroke-linejoin:miter;stroke-width:0.8;"/>
   </g>
   <g id="patch_24">
    <path d="M 180 520.278261 
L 1296 520.278261 
" style="fill:none;stroke:#000000;stroke-linecap:square;stroke-linejoin:miter;stroke-width:0.8;"/>
   </g>
   <g id="legend_4">
    <g id="patch_25">
     <path d="M 1194.742188 542.956386 
L 1289 542.956386 
Q 1291 542.956386 1291 540.956386 
L 1291 527.278261 
Q 1291 525.278261 1289 525.278261 
L 1194.742188 525.278261 
Q 1192.742188 525.278261 1192.742188 527.278261 
L 1192.742188 540.956386 
Q 1192.742188 542.956386 1194.742188 542.956386 
z
" style="fill:#ffffff;opacity:0.8;stroke:#cccccc;stroke-linejoin:miter;"/>
    </g>
    <g id="line2d_68">
     <path d="M 1196.742188 533.376698 
L 1216.742188 533.376698 
" style="fill:none;stroke:#ff0000;stroke-linecap:square;stroke-width:1.5;"/>
    </g>
    <g id="line2d_69"/>
    <g id="text_60">
     <!-- ControlInput -->
     <g transform="translate(1224.742188 536.876698)scale(0.1 -0.1)">
      <use xlink:href="#DejaVuSans-43"/>
      <use x="69.824219" xlink:href="#DejaVuSans-6f"/>
      <use x="131.005859" xlink:href="#DejaVuSans-6e"/>
      <use x="194.384766" xlink:href="#DejaVuSans-74"/>
      <use x="233.59375" xlink:href="#DejaVuSans-72"/>
      <use x="274.675781" xlink:href="#DejaVuSans-6f"/>
      <use x="335.857422" xlink:href="#DejaVuSans-6c"/>
      <use x="363.640625" xlink:href="#DejaVuSans-49"/>
      <use x="393.132812" xlink:href="#DejaVuSans-6e"/>
      <use x="456.511719" xlink:href="#DejaVuSans-70"/>
      <use x="519.988281" xlink:href="#DejaVuSans-75"/>
      <use x="583.367188" xlink:href="#DejaVuSans-74"/>
     </g>
    </g>
   </g>
  </g>
 </g>
 <defs>
  <clipPath id="p53764e66fc">
   <rect height="120.521739" width="1116" x="180" y="86.4"/>
  </clipPath>
  <clipPath id="p740b3d2a93">
   <rect height="120.521739" width="1116" x="180" y="231.026087"/>
  </clipPath>
  <clipPath id="pc98867e2ad">
   <rect height="120.521739" width="1116" x="180" y="375.652174"/>
  </clipPath>
  <clipPath id="pc5408c4086">
   <rect height="120.521739" width="1116" x="180" y="520.278261"/>
  </clipPath>
 </defs>
</svg>
