<?xml version="1.0" encoding="utf-8" standalone="no"?>
<!DOCTYPE svg PUBLIC "-//W3C//DTD SVG 1.1//EN"
  "http://www.w3.org/Graphics/SVG/1.1/DTD/svg11.dtd">
<!-- Created with matplotlib (http://matplotlib.org/) -->
<svg height="720pt" version="1.1" viewBox="0 0 1440 720" width="1440pt" xmlns="http://www.w3.org/2000/svg" xmlns:xlink="http://www.w3.org/1999/xlink">
 <defs>
  <style type="text/css">
*{stroke-linecap:butt;stroke-linejoin:round;}
  </style>
 </defs>
 <g id="figure_1">
  <g id="patch_1">
   <path d="M 0 720 
L 1440 720 
L 1440 0 
L 0 0 
z
" style="fill:#ffffff;"/>
  </g>
  <g id="axes_1">
   <g id="patch_2">
    <path d="M 180 206.921739 
L 1296 206.921739 
L 1296 86.4 
L 180 86.4 
z
" style="fill:#ffffff;"/>
   </g>
   <g id="matplotlib.axis_1">
    <g id="xtick_1">
     <g id="line2d_1">
      <defs>
       <path d="M 0 0 
L 0 3.5 
" id="mcdfc8e1173" style="stroke:#000000;stroke-width:0.8;"/>
      </defs>
      <g>
       <use style="stroke:#000000;stroke-width:0.8;" x="230.727273" xlink:href="#mcdfc8e1173" y="206.921739"/>
      </g>
     </g>
     <g id="text_1">
      <!-- 0 -->
      <defs>
       <path d="M 31.78125 66.40625 
Q 24.171875 66.40625 20.328125 58.90625 
Q 16.5 51.421875 16.5 36.375 
Q 16.5 21.390625 20.328125 13.890625 
Q 24.171875 6.390625 31.78125 6.390625 
Q 39.453125 6.390625 43.28125 13.890625 
Q 47.125 21.390625 47.125 36.375 
Q 47.125 51.421875 43.28125 58.90625 
Q 39.453125 66.40625 31.78125 66.40625 
z
M 31.78125 74.21875 
Q 44.046875 74.21875 50.515625 64.515625 
Q 56.984375 54.828125 56.984375 36.375 
Q 56.984375 17.96875 50.515625 8.265625 
Q 44.046875 -1.421875 31.78125 -1.421875 
Q 19.53125 -1.421875 13.0625 8.265625 
Q 6.59375 17.96875 6.59375 36.375 
Q 6.59375 54.828125 13.0625 64.515625 
Q 19.53125 74.21875 31.78125 74.21875 
z
" id="DejaVuSans-30"/>
      </defs>
      <g transform="translate(227.546023 221.520177)scale(0.1 -0.1)">
       <use xlink:href="#DejaVuSans-30"/>
      </g>
     </g>
    </g>
    <g id="xtick_2">
     <g id="line2d_2">
      <g>
       <use style="stroke:#000000;stroke-width:0.8;" x="358.182732" xlink:href="#mcdfc8e1173" y="206.921739"/>
      </g>
     </g>
     <g id="text_2">
      <!-- 25 -->
      <defs>
       <path d="M 19.1875 8.296875 
L 53.609375 8.296875 
L 53.609375 0 
L 7.328125 0 
L 7.328125 8.296875 
Q 12.9375 14.109375 22.625 23.890625 
Q 32.328125 33.6875 34.8125 36.53125 
Q 39.546875 41.84375 41.421875 45.53125 
Q 43.3125 49.21875 43.3125 52.78125 
Q 43.3125 58.59375 39.234375 62.25 
Q 35.15625 65.921875 28.609375 65.921875 
Q 23.96875 65.921875 18.8125 64.3125 
Q 13.671875 62.703125 7.8125 59.421875 
L 7.8125 69.390625 
Q 13.765625 71.78125 18.9375 73 
Q 24.125 74.21875 28.421875 74.21875 
Q 39.75 74.21875 46.484375 68.546875 
Q 53.21875 62.890625 53.21875 53.421875 
Q 53.21875 48.921875 51.53125 44.890625 
Q 49.859375 40.875 45.40625 35.40625 
Q 44.1875 33.984375 37.640625 27.21875 
Q 31.109375 20.453125 19.1875 8.296875 
z
" id="DejaVuSans-32"/>
       <path d="M 10.796875 72.90625 
L 49.515625 72.90625 
L 49.515625 64.59375 
L 19.828125 64.59375 
L 19.828125 46.734375 
Q 21.96875 47.46875 24.109375 47.828125 
Q 26.265625 48.1875 28.421875 48.1875 
Q 40.625 48.1875 47.75 41.5 
Q 54.890625 34.8125 54.890625 23.390625 
Q 54.890625 11.625 47.5625 5.09375 
Q 40.234375 -1.421875 26.90625 -1.421875 
Q 22.3125 -1.421875 17.546875 -0.640625 
Q 12.796875 0.140625 7.71875 1.703125 
L 7.71875 11.625 
Q 12.109375 9.234375 16.796875 8.0625 
Q 21.484375 6.890625 26.703125 6.890625 
Q 35.15625 6.890625 40.078125 11.328125 
Q 45.015625 15.765625 45.015625 23.390625 
Q 45.015625 31 40.078125 35.4375 
Q 35.15625 39.890625 26.703125 39.890625 
Q 22.75 39.890625 18.8125 39.015625 
Q 14.890625 38.140625 10.796875 36.28125 
z
" id="DejaVuSans-35"/>
      </defs>
      <g transform="translate(351.820232 221.520177)scale(0.1 -0.1)">
       <use xlink:href="#DejaVuSans-32"/>
       <use x="63.623047" xlink:href="#DejaVuSans-35"/>
      </g>
     </g>
    </g>
    <g id="xtick_3">
     <g id="line2d_3">
      <g>
       <use style="stroke:#000000;stroke-width:0.8;" x="485.638191" xlink:href="#mcdfc8e1173" y="206.921739"/>
      </g>
     </g>
     <g id="text_3">
      <!-- 50 -->
      <g transform="translate(479.275691 221.520177)scale(0.1 -0.1)">
       <use xlink:href="#DejaVuSans-35"/>
       <use x="63.623047" xlink:href="#DejaVuSans-30"/>
      </g>
     </g>
    </g>
    <g id="xtick_4">
     <g id="line2d_4">
      <g>
       <use style="stroke:#000000;stroke-width:0.8;" x="613.09365" xlink:href="#mcdfc8e1173" y="206.921739"/>
      </g>
     </g>
     <g id="text_4">
      <!-- 75 -->
      <defs>
       <path d="M 8.203125 72.90625 
L 55.078125 72.90625 
L 55.078125 68.703125 
L 28.609375 0 
L 18.3125 0 
L 43.21875 64.59375 
L 8.203125 64.59375 
z
" id="DejaVuSans-37"/>
      </defs>
      <g transform="translate(606.73115 221.520177)scale(0.1 -0.1)">
       <use xlink:href="#DejaVuSans-37"/>
       <use x="63.623047" xlink:href="#DejaVuSans-35"/>
      </g>
     </g>
    </g>
    <g id="xtick_5">
     <g id="line2d_5">
      <g>
       <use style="stroke:#000000;stroke-width:0.8;" x="740.549109" xlink:href="#mcdfc8e1173" y="206.921739"/>
      </g>
     </g>
     <g id="text_5">
      <!-- 100 -->
      <defs>
       <path d="M 12.40625 8.296875 
L 28.515625 8.296875 
L 28.515625 63.921875 
L 10.984375 60.40625 
L 10.984375 69.390625 
L 28.421875 72.90625 
L 38.28125 72.90625 
L 38.28125 8.296875 
L 54.390625 8.296875 
L 54.390625 0 
L 12.40625 0 
z
" id="DejaVuSans-31"/>
      </defs>
      <g transform="translate(731.005359 221.520177)scale(0.1 -0.1)">
       <use xlink:href="#DejaVuSans-31"/>
       <use x="63.623047" xlink:href="#DejaVuSans-30"/>
       <use x="127.246094" xlink:href="#DejaVuSans-30"/>
      </g>
     </g>
    </g>
    <g id="xtick_6">
     <g id="line2d_6">
      <g>
       <use style="stroke:#000000;stroke-width:0.8;" x="868.004568" xlink:href="#mcdfc8e1173" y="206.921739"/>
      </g>
     </g>
     <g id="text_6">
      <!-- 125 -->
      <g transform="translate(858.460818 221.520177)scale(0.1 -0.1)">
       <use xlink:href="#DejaVuSans-31"/>
       <use x="63.623047" xlink:href="#DejaVuSans-32"/>
       <use x="127.246094" xlink:href="#DejaVuSans-35"/>
      </g>
     </g>
    </g>
    <g id="xtick_7">
     <g id="line2d_7">
      <g>
       <use style="stroke:#000000;stroke-width:0.8;" x="995.460027" xlink:href="#mcdfc8e1173" y="206.921739"/>
      </g>
     </g>
     <g id="text_7">
      <!-- 150 -->
      <g transform="translate(985.916277 221.520177)scale(0.1 -0.1)">
       <use xlink:href="#DejaVuSans-31"/>
       <use x="63.623047" xlink:href="#DejaVuSans-35"/>
       <use x="127.246094" xlink:href="#DejaVuSans-30"/>
      </g>
     </g>
    </g>
    <g id="xtick_8">
     <g id="line2d_8">
      <g>
       <use style="stroke:#000000;stroke-width:0.8;" x="1122.915487" xlink:href="#mcdfc8e1173" y="206.921739"/>
      </g>
     </g>
     <g id="text_8">
      <!-- 175 -->
      <g transform="translate(1113.371737 221.520177)scale(0.1 -0.1)">
       <use xlink:href="#DejaVuSans-31"/>
       <use x="63.623047" xlink:href="#DejaVuSans-37"/>
       <use x="127.246094" xlink:href="#DejaVuSans-35"/>
      </g>
     </g>
    </g>
    <g id="xtick_9">
     <g id="line2d_9">
      <g>
       <use style="stroke:#000000;stroke-width:0.8;" x="1250.370946" xlink:href="#mcdfc8e1173" y="206.921739"/>
      </g>
     </g>
     <g id="text_9">
      <!-- 200 -->
      <g transform="translate(1240.827196 221.520177)scale(0.1 -0.1)">
       <use xlink:href="#DejaVuSans-32"/>
       <use x="63.623047" xlink:href="#DejaVuSans-30"/>
       <use x="127.246094" xlink:href="#DejaVuSans-30"/>
      </g>
     </g>
    </g>
   </g>
   <g id="matplotlib.axis_2">
    <g id="ytick_1">
     <g id="line2d_10">
      <defs>
       <path d="M 0 0 
L -3.5 0 
" id="md0b7caaf9d" style="stroke:#000000;stroke-width:0.8;"/>
      </defs>
      <g>
       <use style="stroke:#000000;stroke-width:0.8;" x="180" xlink:href="#md0b7caaf9d" y="183.642785"/>
      </g>
     </g>
     <g id="text_10">
      <!-- −20 -->
      <defs>
       <path d="M 10.59375 35.5 
L 73.1875 35.5 
L 73.1875 27.203125 
L 10.59375 27.203125 
z
" id="DejaVuSans-2212"/>
      </defs>
      <g transform="translate(151.895312 187.442004)scale(0.1 -0.1)">
       <use xlink:href="#DejaVuSans-2212"/>
       <use x="83.789062" xlink:href="#DejaVuSans-32"/>
       <use x="147.412109" xlink:href="#DejaVuSans-30"/>
      </g>
     </g>
    </g>
    <g id="ytick_2">
     <g id="line2d_11">
      <g>
       <use style="stroke:#000000;stroke-width:0.8;" x="180" xlink:href="#md0b7caaf9d" y="151.159767"/>
      </g>
     </g>
     <g id="text_11">
      <!-- −10 -->
      <g transform="translate(151.895312 154.958986)scale(0.1 -0.1)">
       <use xlink:href="#DejaVuSans-2212"/>
       <use x="83.789062" xlink:href="#DejaVuSans-31"/>
       <use x="147.412109" xlink:href="#DejaVuSans-30"/>
      </g>
     </g>
    </g>
    <g id="ytick_3">
     <g id="line2d_12">
      <g>
       <use style="stroke:#000000;stroke-width:0.8;" x="180" xlink:href="#md0b7caaf9d" y="118.67675"/>
      </g>
     </g>
     <g id="text_12">
      <!-- 0 -->
      <g transform="translate(166.6375 122.475969)scale(0.1 -0.1)">
       <use xlink:href="#DejaVuSans-30"/>
      </g>
     </g>
    </g>
    <g id="ytick_4">
     <g id="line2d_13">
      <g>
       <use style="stroke:#000000;stroke-width:0.8;" x="180" xlink:href="#md0b7caaf9d" y="86.193733"/>
      </g>
     </g>
     <g id="text_13">
      <!-- 10 -->
      <g transform="translate(160.275 89.992952)scale(0.1 -0.1)">
       <use xlink:href="#DejaVuSans-31"/>
       <use x="63.623047" xlink:href="#DejaVuSans-30"/>
      </g>
     </g>
    </g>
    <g id="text_14">
     <!-- TD State:0 -->
     <defs>
      <path d="M -0.296875 72.90625 
L 61.375 72.90625 
L 61.375 64.59375 
L 35.5 64.59375 
L 35.5 0 
L 25.59375 0 
L 25.59375 64.59375 
L -0.296875 64.59375 
z
" id="DejaVuSans-54"/>
      <path d="M 19.671875 64.796875 
L 19.671875 8.109375 
L 31.59375 8.109375 
Q 46.6875 8.109375 53.6875 14.9375 
Q 60.6875 21.78125 60.6875 36.53125 
Q 60.6875 51.171875 53.6875 57.984375 
Q 46.6875 64.796875 31.59375 64.796875 
z
M 9.8125 72.90625 
L 30.078125 72.90625 
Q 51.265625 72.90625 61.171875 64.09375 
Q 71.09375 55.28125 71.09375 36.53125 
Q 71.09375 17.671875 61.125 8.828125 
Q 51.171875 0 30.078125 0 
L 9.8125 0 
z
" id="DejaVuSans-44"/>
      <path id="DejaVuSans-20"/>
      <path d="M 53.515625 70.515625 
L 53.515625 60.890625 
Q 47.90625 63.578125 42.921875 64.890625 
Q 37.9375 66.21875 33.296875 66.21875 
Q 25.25 66.21875 20.875 63.09375 
Q 16.5 59.96875 16.5 54.203125 
Q 16.5 49.359375 19.40625 46.890625 
Q 22.3125 44.4375 30.421875 42.921875 
L 36.375 41.703125 
Q 47.40625 39.59375 52.65625 34.296875 
Q 57.90625 29 57.90625 20.125 
Q 57.90625 9.515625 50.796875 4.046875 
Q 43.703125 -1.421875 29.984375 -1.421875 
Q 24.8125 -1.421875 18.96875 -0.25 
Q 13.140625 0.921875 6.890625 3.21875 
L 6.890625 13.375 
Q 12.890625 10.015625 18.65625 8.296875 
Q 24.421875 6.59375 29.984375 6.59375 
Q 38.421875 6.59375 43.015625 9.90625 
Q 47.609375 13.234375 47.609375 19.390625 
Q 47.609375 24.75 44.3125 27.78125 
Q 41.015625 30.8125 33.5 32.328125 
L 27.484375 33.5 
Q 16.453125 35.6875 11.515625 40.375 
Q 6.59375 45.0625 6.59375 53.421875 
Q 6.59375 63.09375 13.40625 68.65625 
Q 20.21875 74.21875 32.171875 74.21875 
Q 37.3125 74.21875 42.625 73.28125 
Q 47.953125 72.359375 53.515625 70.515625 
z
" id="DejaVuSans-53"/>
      <path d="M 18.3125 70.21875 
L 18.3125 54.6875 
L 36.8125 54.6875 
L 36.8125 47.703125 
L 18.3125 47.703125 
L 18.3125 18.015625 
Q 18.3125 11.328125 20.140625 9.421875 
Q 21.96875 7.515625 27.59375 7.515625 
L 36.8125 7.515625 
L 36.8125 0 
L 27.59375 0 
Q 17.1875 0 13.234375 3.875 
Q 9.28125 7.765625 9.28125 18.015625 
L 9.28125 47.703125 
L 2.6875 47.703125 
L 2.6875 54.6875 
L 9.28125 54.6875 
L 9.28125 70.21875 
z
" id="DejaVuSans-74"/>
      <path d="M 34.28125 27.484375 
Q 23.390625 27.484375 19.1875 25 
Q 14.984375 22.515625 14.984375 16.5 
Q 14.984375 11.71875 18.140625 8.90625 
Q 21.296875 6.109375 26.703125 6.109375 
Q 34.1875 6.109375 38.703125 11.40625 
Q 43.21875 16.703125 43.21875 25.484375 
L 43.21875 27.484375 
z
M 52.203125 31.203125 
L 52.203125 0 
L 43.21875 0 
L 43.21875 8.296875 
Q 40.140625 3.328125 35.546875 0.953125 
Q 30.953125 -1.421875 24.3125 -1.421875 
Q 15.921875 -1.421875 10.953125 3.296875 
Q 6 8.015625 6 15.921875 
Q 6 25.140625 12.171875 29.828125 
Q 18.359375 34.515625 30.609375 34.515625 
L 43.21875 34.515625 
L 43.21875 35.40625 
Q 43.21875 41.609375 39.140625 45 
Q 35.0625 48.390625 27.6875 48.390625 
Q 23 48.390625 18.546875 47.265625 
Q 14.109375 46.140625 10.015625 43.890625 
L 10.015625 52.203125 
Q 14.9375 54.109375 19.578125 55.046875 
Q 24.21875 56 28.609375 56 
Q 40.484375 56 46.34375 49.84375 
Q 52.203125 43.703125 52.203125 31.203125 
z
" id="DejaVuSans-61"/>
      <path d="M 56.203125 29.59375 
L 56.203125 25.203125 
L 14.890625 25.203125 
Q 15.484375 15.921875 20.484375 11.0625 
Q 25.484375 6.203125 34.421875 6.203125 
Q 39.59375 6.203125 44.453125 7.46875 
Q 49.3125 8.734375 54.109375 11.28125 
L 54.109375 2.78125 
Q 49.265625 0.734375 44.1875 -0.34375 
Q 39.109375 -1.421875 33.890625 -1.421875 
Q 20.796875 -1.421875 13.15625 6.1875 
Q 5.515625 13.8125 5.515625 26.8125 
Q 5.515625 40.234375 12.765625 48.109375 
Q 20.015625 56 32.328125 56 
Q 43.359375 56 49.78125 48.890625 
Q 56.203125 41.796875 56.203125 29.59375 
z
M 47.21875 32.234375 
Q 47.125 39.59375 43.09375 43.984375 
Q 39.0625 48.390625 32.421875 48.390625 
Q 24.90625 48.390625 20.390625 44.140625 
Q 15.875 39.890625 15.1875 32.171875 
z
" id="DejaVuSans-65"/>
      <path d="M 11.71875 12.40625 
L 22.015625 12.40625 
L 22.015625 0 
L 11.71875 0 
z
M 11.71875 51.703125 
L 22.015625 51.703125 
L 22.015625 39.3125 
L 11.71875 39.3125 
z
" id="DejaVuSans-3a"/>
     </defs>
     <g transform="translate(145.815625 173.25462)rotate(-90)scale(0.1 -0.1)">
      <use xlink:href="#DejaVuSans-54"/>
      <use x="61.083984" xlink:href="#DejaVuSans-44"/>
      <use x="138.085938" xlink:href="#DejaVuSans-20"/>
      <use x="169.873047" xlink:href="#DejaVuSans-53"/>
      <use x="233.349609" xlink:href="#DejaVuSans-74"/>
      <use x="272.558594" xlink:href="#DejaVuSans-61"/>
      <use x="333.837891" xlink:href="#DejaVuSans-74"/>
      <use x="373.046875" xlink:href="#DejaVuSans-65"/>
      <use x="434.570312" xlink:href="#DejaVuSans-3a"/>
      <use x="468.261719" xlink:href="#DejaVuSans-30"/>
     </g>
    </g>
   </g>
   <g id="line2d_14">
    <path clip-path="url(#p4087b41d1b)" d="M 230.727273 134.14334 
L 246.021928 134.106913 
L 251.120146 134.374971 
L 256.218365 134.374971 
L 261.316583 133.329855 
L 271.51302 133.228634 
L 276.611238 132.426837 
L 281.709456 132.804641 
L 286.807675 131.781632 
L 291.905893 131.969211 
L 297.004111 131.720874 
L 302.10233 131.746716 
L 307.200548 132.585805 
L 317.396985 132.575616 
L 322.495203 130.982444 
L 332.69164 131.005219 
L 337.789858 131.024738 
L 342.888077 130.111193 
L 347.986295 130.340036 
L 353.084513 129.102273 
L 358.182732 128.751817 
L 429.557789 128.722471 
L 434.656007 128.498774 
L 439.754226 128.485051 
L 444.852444 128.069803 
L 449.950662 127.84422 
L 465.245317 127.841286 
L 470.343536 125.495761 
L 475.441754 126.600593 
L 500.932846 126.53004 
L 506.031064 126.797986 
L 511.129283 126.672456 
L 521.32572 126.681043 
L 526.423938 126.965693 
L 531.522156 125.887301 
L 536.620375 125.88262 
L 541.718593 125.300617 
L 557.013248 125.271271 
L 572.307903 125.032398 
L 577.406122 124.868418 
L 582.50434 125.439266 
L 587.602558 124.337061 
L 592.700777 125.43772 
L 597.798995 124.312873 
L 602.897213 124.718514 
L 607.995432 124.707529 
L 613.09365 124.869031 
L 628.388305 124.868399 
L 633.486524 123.882641 
L 638.584742 123.83934 
L 643.68296 123.44806 
L 648.781179 123.667011 
L 679.370489 123.634713 
L 684.468707 123.173225 
L 694.665144 123.244156 
L 699.763362 122.730038 
L 704.861581 114.757979 
L 715.058017 114.647666 
L 720.156236 113.463678 
L 725.254454 113.730469 
L 730.352672 113.732699 
L 735.450891 114.175911 
L 740.549109 114.174232 
L 745.647328 112.870792 
L 750.745546 114.081601 
L 755.843764 113.602145 
L 760.941983 113.459496 
L 766.040201 113.458926 
L 771.138419 113.771521 
L 781.334856 113.772841 
L 786.433074 114.232415 
L 806.825948 114.224001 
L 852.709913 114.320455 
L 857.808132 114.639562 
L 862.90635 113.640694 
L 868.004568 115.050649 
L 873.102787 114.939214 
L 883.299223 114.957875 
L 888.397442 113.773175 
L 893.49566 115.487262 
L 898.593878 113.80688 
L 903.692097 113.798478 
L 908.790315 113.988796 
L 913.888534 113.995444 
L 918.986752 115.28744 
L 924.08497 115.248767 
L 929.183189 115.454772 
L 934.281407 114.897424 
L 939.379625 115.303369 
L 944.477844 115.284417 
L 949.576062 114.716567 
L 954.67428 114.72 
L 959.772499 116.333984 
L 964.870717 115.727622 
L 975.067154 115.670728 
L 980.165372 116.331797 
L 1000.558246 116.395977 
L 1005.656464 117.082727 
L 1015.852901 117.021044 
L 1020.951119 116.675705 
L 1056.638648 116.590954 
L 1061.736866 117.265945 
L 1066.835085 116.707339 
L 1071.933303 116.447277 
L 1082.12974 116.507493 
L 1087.227958 116.853204 
L 1092.326176 116.61302 
L 1097.424395 116.579749 
L 1102.522613 116.143242 
L 1107.620831 116.569802 
L 1117.817268 116.606831 
L 1122.915487 116.317067 
L 1138.210142 116.300778 
L 1143.30836 116.528304 
L 1158.603015 116.573126 
L 1163.701233 116.353983 
L 1168.799452 116.554112 
L 1199.388762 116.416476 
L 1204.48698 116.25139 
L 1209.585199 116.624606 
L 1214.683417 116.30005 
L 1224.879854 116.287928 
L 1229.978072 116.578548 
L 1240.174509 116.783063 
L 1245.272727 116.77021 
L 1245.272727 116.77021 
" style="fill:none;stroke:#000000;stroke-linecap:square;stroke-width:4;"/>
   </g>
   <g id="line2d_15">
    <path clip-path="url(#p4087b41d1b)" d="M 230.727273 120.300901 
L 235.825491 118.67675 
L 251.120146 118.67675 
L 256.218365 173.085804 
L 261.316583 120.300901 
L 266.414801 118.67675 
L 271.51302 162.528824 
L 276.611238 109.74392 
L 281.709456 179.29006 
L 286.807675 114.324026 
L 291.905893 123.874033 
L 297.004111 118.189505 
L 302.10233 102.662623 
L 307.200548 120.820629 
L 312.298767 118.67675 
L 317.396985 197.513033 
L 322.495203 111.303105 
L 327.593422 124.913489 
L 332.69164 118.189505 
L 337.789858 160.027631 
L 342.888077 117.052599 
L 347.986295 173.085804 
L 353.084513 133.294108 
L 358.182732 118.157022 
L 363.28095 119.196478 
L 368.379169 118.67675 
L 373.477387 119.488826 
L 378.575605 118.67675 
L 398.968479 118.67675 
L 404.066697 117.344946 
L 409.164915 118.67675 
L 419.361352 118.449369 
L 424.459571 118.67675 
L 429.557789 119.878622 
L 434.656007 118.969097 
L 439.754226 189.457245 
L 444.852444 127.252267 
L 449.950662 118.579301 
L 455.048881 118.741716 
L 460.147099 118.709233 
L 465.245317 197.025788 
L 470.343536 113.771815 
L 475.441754 118.67675 
L 480.539973 121.112976 
L 485.638191 121.665188 
L 490.736409 115.688313 
L 495.834628 118.67675 
L 500.932846 189.132415 
L 506.031064 139.498364 
L 511.129283 116.045626 
L 516.227501 118.384403 
L 521.32572 108.866879 
L 526.423938 144.435783 
L 531.522156 118.904131 
L 536.620375 187.085985 
L 541.718593 118.286954 
L 546.816811 125.595633 
L 551.91503 118.67675 
L 557.013248 124.393761 
L 562.111466 121.892569 
L 567.209685 118.67675 
L 572.307903 195.564052 
L 577.406122 105.943407 
L 582.50434 114.616373 
L 587.602558 122.737127 
L 592.700777 115.428448 
L 597.798995 140.440372 
L 602.897213 119.228961 
L 607.995432 155.512492 
L 613.09365 118.059573 
L 618.191868 119.943588 
L 623.290087 118.189505 
L 628.388305 188.22289 
L 633.486524 120.430833 
L 638.584742 145.280341 
L 643.68296 110.068751 
L 648.781179 120.300901 
L 653.879397 118.67675 
L 664.075834 118.67675 
L 669.174052 117.864675 
L 674.27227 117.247497 
L 679.370489 129.136282 
L 684.468707 118.67675 
L 689.566926 114.843754 
L 694.665144 189.099932 
L 699.763362 107.04783 
L 704.861581 121.892569 
L 709.959799 121.47029 
L 715.058017 117.539845 
L 720.156236 201.443478 
L 725.254454 119.943588 
L 730.352672 121.47029 
L 735.450891 118.644267 
L 740.549109 130.598018 
L 745.647328 116.760252 
L 750.745546 125.952946 
L 755.843764 118.092056 
L 760.941983 118.67675 
L 766.040201 157.360775 
L 771.138419 118.67675 
L 776.236638 118.712481 
L 781.334856 128.47038 
L 786.433074 118.342175 
L 796.629511 118.943111 
L 801.72773 118.744964 
L 806.825948 117.877668 
L 811.924166 118.71573 
L 817.022385 117.828943 
L 822.120603 117.377429 
L 827.218821 118.35192 
L 832.31704 116.883688 
L 837.415258 118.157022 
L 842.513476 117.867923 
L 847.611695 119.180237 
L 852.709913 123.763591 
L 857.808132 114.90872 
L 862.90635 153.092507 
L 868.004568 121.291633 
L 873.102787 118.35192 
L 878.201005 118.35192 
L 883.299223 109.581505 
L 888.397442 120.300901 
L 893.49566 116.240524 
L 898.593878 117.864675 
L 903.692097 118.595543 
L 908.790315 118.537073 
L 913.888534 124.770564 
L 918.986752 119.011325 
L 924.08497 128.061094 
L 929.183189 124.686108 
L 934.281407 136.149365 
L 939.379625 119.927346 
L 944.477844 120.580255 
L 949.576062 118.56306 
L 954.67428 166.092211 
L 959.772499 121.723657 
L 964.870717 120.300901 
L 969.968936 118.67675 
L 975.067154 91.878261 
L 980.165372 118.67675 
L 985.263591 118.368161 
L 990.361809 126.339494 
L 995.460027 118.67675 
L 1000.558246 130.00033 
L 1005.656464 118.67675 
L 1010.754683 125.173354 
L 1015.852901 122.701396 
L 1020.951119 118.488349 
L 1026.049338 129.539071 
L 1031.147556 118.660509 
L 1036.245774 118.546818 
L 1046.442211 118.663757 
L 1051.540429 118.462362 
L 1056.638648 121.187687 
L 1061.736866 118.67675 
L 1066.835085 118.127787 
L 1071.933303 118.67675 
L 1077.031521 118.67675 
L 1082.12974 128.028611 
L 1087.227958 131.845365 
L 1092.326176 117.270236 
L 1097.424395 120.300901 
L 1102.522613 118.127787 
L 1107.620831 119.225713 
L 1112.71905 118.67675 
L 1117.817268 115.428448 
L 1122.915487 118.67675 
L 1133.111923 118.67675 
L 1138.210142 117.052599 
L 1143.30836 117.052599 
L 1148.406578 121.073997 
L 1153.504797 117.903654 
L 1158.603015 105.683543 
L 1163.701233 118.14078 
L 1168.799452 118.728723 
L 1173.89767 118.589046 
L 1178.995889 117.16629 
L 1184.094107 119.816904 
L 1189.192325 117.344946 
L 1194.290544 117.70226 
L 1199.388762 117.052599 
L 1204.48698 122.220647 
L 1209.585199 115.132853 
L 1214.683417 118.67675 
L 1219.781635 118.67675 
L 1224.879854 131.669957 
L 1229.978072 123.045716 
L 1235.076291 128.765975 
L 1240.174509 114.288295 
L 1245.272727 121.184439 
L 1245.272727 121.184439 
" style="fill:none;stroke:#ff0000;stroke-linecap:square;stroke-width:1.5;"/>
   </g>
   <g id="patch_3">
    <path d="M 180 206.921739 
L 180 86.4 
" style="fill:none;stroke:#000000;stroke-linecap:square;stroke-linejoin:miter;stroke-width:0.8;"/>
   </g>
   <g id="patch_4">
    <path d="M 1296 206.921739 
L 1296 86.4 
" style="fill:none;stroke:#000000;stroke-linecap:square;stroke-linejoin:miter;stroke-width:0.8;"/>
   </g>
   <g id="patch_5">
    <path d="M 180 206.921739 
L 1296 206.921739 
" style="fill:none;stroke:#000000;stroke-linecap:square;stroke-linejoin:miter;stroke-width:0.8;"/>
   </g>
   <g id="patch_6">
    <path d="M 180 86.4 
L 1296 86.4 
" style="fill:none;stroke:#000000;stroke-linecap:square;stroke-linejoin:miter;stroke-width:0.8;"/>
   </g>
   <g id="legend_1">
    <g id="patch_7">
     <path d="M 1234.3125 123.75625 
L 1289 123.75625 
Q 1291 123.75625 1291 121.75625 
L 1291 93.4 
Q 1291 91.4 1289 91.4 
L 1234.3125 91.4 
Q 1232.3125 91.4 1232.3125 93.4 
L 1232.3125 121.75625 
Q 1232.3125 123.75625 1234.3125 123.75625 
z
" style="fill:#ffffff;opacity:0.8;stroke:#cccccc;stroke-linejoin:miter;"/>
    </g>
    <g id="line2d_16">
     <path d="M 1236.3125 99.498438 
L 1256.3125 99.498438 
" style="fill:none;stroke:#000000;stroke-linecap:square;stroke-width:4;"/>
    </g>
    <g id="line2d_17"/>
    <g id="text_15">
     <!-- Pred -->
     <defs>
      <path d="M 19.671875 64.796875 
L 19.671875 37.40625 
L 32.078125 37.40625 
Q 38.96875 37.40625 42.71875 40.96875 
Q 46.484375 44.53125 46.484375 51.125 
Q 46.484375 57.671875 42.71875 61.234375 
Q 38.96875 64.796875 32.078125 64.796875 
z
M 9.8125 72.90625 
L 32.078125 72.90625 
Q 44.34375 72.90625 50.609375 67.359375 
Q 56.890625 61.8125 56.890625 51.125 
Q 56.890625 40.328125 50.609375 34.8125 
Q 44.34375 29.296875 32.078125 29.296875 
L 19.671875 29.296875 
L 19.671875 0 
L 9.8125 0 
z
" id="DejaVuSans-50"/>
      <path d="M 41.109375 46.296875 
Q 39.59375 47.171875 37.8125 47.578125 
Q 36.03125 48 33.890625 48 
Q 26.265625 48 22.1875 43.046875 
Q 18.109375 38.09375 18.109375 28.8125 
L 18.109375 0 
L 9.078125 0 
L 9.078125 54.6875 
L 18.109375 54.6875 
L 18.109375 46.1875 
Q 20.953125 51.171875 25.484375 53.578125 
Q 30.03125 56 36.53125 56 
Q 37.453125 56 38.578125 55.875 
Q 39.703125 55.765625 41.0625 55.515625 
z
" id="DejaVuSans-72"/>
      <path d="M 45.40625 46.390625 
L 45.40625 75.984375 
L 54.390625 75.984375 
L 54.390625 0 
L 45.40625 0 
L 45.40625 8.203125 
Q 42.578125 3.328125 38.25 0.953125 
Q 33.9375 -1.421875 27.875 -1.421875 
Q 17.96875 -1.421875 11.734375 6.484375 
Q 5.515625 14.40625 5.515625 27.296875 
Q 5.515625 40.1875 11.734375 48.09375 
Q 17.96875 56 27.875 56 
Q 33.9375 56 38.25 53.625 
Q 42.578125 51.265625 45.40625 46.390625 
z
M 14.796875 27.296875 
Q 14.796875 17.390625 18.875 11.75 
Q 22.953125 6.109375 30.078125 6.109375 
Q 37.203125 6.109375 41.296875 11.75 
Q 45.40625 17.390625 45.40625 27.296875 
Q 45.40625 37.203125 41.296875 42.84375 
Q 37.203125 48.484375 30.078125 48.484375 
Q 22.953125 48.484375 18.875 42.84375 
Q 14.796875 37.203125 14.796875 27.296875 
z
" id="DejaVuSans-64"/>
     </defs>
     <g transform="translate(1264.3125 102.998438)scale(0.1 -0.1)">
      <use xlink:href="#DejaVuSans-50"/>
      <use x="60.287109" xlink:href="#DejaVuSans-72"/>
      <use x="101.369141" xlink:href="#DejaVuSans-65"/>
      <use x="162.892578" xlink:href="#DejaVuSans-64"/>
     </g>
    </g>
    <g id="line2d_18">
     <path d="M 1236.3125 114.176563 
L 1256.3125 114.176563 
" style="fill:none;stroke:#ff0000;stroke-linecap:square;stroke-width:1.5;"/>
    </g>
    <g id="line2d_19"/>
    <g id="text_16">
     <!-- True -->
     <defs>
      <path d="M 8.5 21.578125 
L 8.5 54.6875 
L 17.484375 54.6875 
L 17.484375 21.921875 
Q 17.484375 14.15625 20.5 10.265625 
Q 23.53125 6.390625 29.59375 6.390625 
Q 36.859375 6.390625 41.078125 11.03125 
Q 45.3125 15.671875 45.3125 23.6875 
L 45.3125 54.6875 
L 54.296875 54.6875 
L 54.296875 0 
L 45.3125 0 
L 45.3125 8.40625 
Q 42.046875 3.421875 37.71875 1 
Q 33.40625 -1.421875 27.6875 -1.421875 
Q 18.265625 -1.421875 13.375 4.4375 
Q 8.5 10.296875 8.5 21.578125 
z
M 31.109375 56 
z
" id="DejaVuSans-75"/>
     </defs>
     <g transform="translate(1264.3125 117.676563)scale(0.1 -0.1)">
      <use xlink:href="#DejaVuSans-54"/>
      <use x="60.865234" xlink:href="#DejaVuSans-72"/>
      <use x="101.978516" xlink:href="#DejaVuSans-75"/>
      <use x="165.357422" xlink:href="#DejaVuSans-65"/>
     </g>
    </g>
   </g>
  </g>
  <g id="axes_2">
   <g id="patch_8">
    <path d="M 180 351.547826 
L 1296 351.547826 
L 1296 231.026087 
L 180 231.026087 
z
" style="fill:#ffffff;"/>
   </g>
   <g id="matplotlib.axis_3">
    <g id="xtick_10">
     <g id="line2d_20">
      <g>
       <use style="stroke:#000000;stroke-width:0.8;" x="230.727273" xlink:href="#mcdfc8e1173" y="351.547826"/>
      </g>
     </g>
     <g id="text_17">
      <!-- 0 -->
      <g transform="translate(227.546023 366.146264)scale(0.1 -0.1)">
       <use xlink:href="#DejaVuSans-30"/>
      </g>
     </g>
    </g>
    <g id="xtick_11">
     <g id="line2d_21">
      <g>
       <use style="stroke:#000000;stroke-width:0.8;" x="358.182732" xlink:href="#mcdfc8e1173" y="351.547826"/>
      </g>
     </g>
     <g id="text_18">
      <!-- 25 -->
      <g transform="translate(351.820232 366.146264)scale(0.1 -0.1)">
       <use xlink:href="#DejaVuSans-32"/>
       <use x="63.623047" xlink:href="#DejaVuSans-35"/>
      </g>
     </g>
    </g>
    <g id="xtick_12">
     <g id="line2d_22">
      <g>
       <use style="stroke:#000000;stroke-width:0.8;" x="485.638191" xlink:href="#mcdfc8e1173" y="351.547826"/>
      </g>
     </g>
     <g id="text_19">
      <!-- 50 -->
      <g transform="translate(479.275691 366.146264)scale(0.1 -0.1)">
       <use xlink:href="#DejaVuSans-35"/>
       <use x="63.623047" xlink:href="#DejaVuSans-30"/>
      </g>
     </g>
    </g>
    <g id="xtick_13">
     <g id="line2d_23">
      <g>
       <use style="stroke:#000000;stroke-width:0.8;" x="613.09365" xlink:href="#mcdfc8e1173" y="351.547826"/>
      </g>
     </g>
     <g id="text_20">
      <!-- 75 -->
      <g transform="translate(606.73115 366.146264)scale(0.1 -0.1)">
       <use xlink:href="#DejaVuSans-37"/>
       <use x="63.623047" xlink:href="#DejaVuSans-35"/>
      </g>
     </g>
    </g>
    <g id="xtick_14">
     <g id="line2d_24">
      <g>
       <use style="stroke:#000000;stroke-width:0.8;" x="740.549109" xlink:href="#mcdfc8e1173" y="351.547826"/>
      </g>
     </g>
     <g id="text_21">
      <!-- 100 -->
      <g transform="translate(731.005359 366.146264)scale(0.1 -0.1)">
       <use xlink:href="#DejaVuSans-31"/>
       <use x="63.623047" xlink:href="#DejaVuSans-30"/>
       <use x="127.246094" xlink:href="#DejaVuSans-30"/>
      </g>
     </g>
    </g>
    <g id="xtick_15">
     <g id="line2d_25">
      <g>
       <use style="stroke:#000000;stroke-width:0.8;" x="868.004568" xlink:href="#mcdfc8e1173" y="351.547826"/>
      </g>
     </g>
     <g id="text_22">
      <!-- 125 -->
      <g transform="translate(858.460818 366.146264)scale(0.1 -0.1)">
       <use xlink:href="#DejaVuSans-31"/>
       <use x="63.623047" xlink:href="#DejaVuSans-32"/>
       <use x="127.246094" xlink:href="#DejaVuSans-35"/>
      </g>
     </g>
    </g>
    <g id="xtick_16">
     <g id="line2d_26">
      <g>
       <use style="stroke:#000000;stroke-width:0.8;" x="995.460027" xlink:href="#mcdfc8e1173" y="351.547826"/>
      </g>
     </g>
     <g id="text_23">
      <!-- 150 -->
      <g transform="translate(985.916277 366.146264)scale(0.1 -0.1)">
       <use xlink:href="#DejaVuSans-31"/>
       <use x="63.623047" xlink:href="#DejaVuSans-35"/>
       <use x="127.246094" xlink:href="#DejaVuSans-30"/>
      </g>
     </g>
    </g>
    <g id="xtick_17">
     <g id="line2d_27">
      <g>
       <use style="stroke:#000000;stroke-width:0.8;" x="1122.915487" xlink:href="#mcdfc8e1173" y="351.547826"/>
      </g>
     </g>
     <g id="text_24">
      <!-- 175 -->
      <g transform="translate(1113.371737 366.146264)scale(0.1 -0.1)">
       <use xlink:href="#DejaVuSans-31"/>
       <use x="63.623047" xlink:href="#DejaVuSans-37"/>
       <use x="127.246094" xlink:href="#DejaVuSans-35"/>
      </g>
     </g>
    </g>
    <g id="xtick_18">
     <g id="line2d_28">
      <g>
       <use style="stroke:#000000;stroke-width:0.8;" x="1250.370946" xlink:href="#mcdfc8e1173" y="351.547826"/>
      </g>
     </g>
     <g id="text_25">
      <!-- 200 -->
      <g transform="translate(1240.827196 366.146264)scale(0.1 -0.1)">
       <use xlink:href="#DejaVuSans-32"/>
       <use x="63.623047" xlink:href="#DejaVuSans-30"/>
       <use x="127.246094" xlink:href="#DejaVuSans-30"/>
      </g>
     </g>
    </g>
   </g>
   <g id="matplotlib.axis_4">
    <g id="ytick_5">
     <g id="line2d_29">
      <g>
       <use style="stroke:#000000;stroke-width:0.8;" x="180" xlink:href="#md0b7caaf9d" y="324.828485"/>
      </g>
     </g>
     <g id="text_26">
      <!-- −20 -->
      <g transform="translate(151.895312 328.627704)scale(0.1 -0.1)">
       <use xlink:href="#DejaVuSans-2212"/>
       <use x="83.789062" xlink:href="#DejaVuSans-32"/>
       <use x="147.412109" xlink:href="#DejaVuSans-30"/>
      </g>
     </g>
    </g>
    <g id="ytick_6">
     <g id="line2d_30">
      <g>
       <use style="stroke:#000000;stroke-width:0.8;" x="180" xlink:href="#md0b7caaf9d" y="291.985687"/>
      </g>
     </g>
     <g id="text_27">
      <!-- 0 -->
      <g transform="translate(166.6375 295.784906)scale(0.1 -0.1)">
       <use xlink:href="#DejaVuSans-30"/>
      </g>
     </g>
    </g>
    <g id="ytick_7">
     <g id="line2d_31">
      <g>
       <use style="stroke:#000000;stroke-width:0.8;" x="180" xlink:href="#md0b7caaf9d" y="259.142889"/>
      </g>
     </g>
     <g id="text_28">
      <!-- 20 -->
      <g transform="translate(160.275 262.942107)scale(0.1 -0.1)">
       <use xlink:href="#DejaVuSans-32"/>
       <use x="63.623047" xlink:href="#DejaVuSans-30"/>
      </g>
     </g>
    </g>
    <g id="text_29">
     <!-- TD State:1 -->
     <g transform="translate(145.815625 317.880707)rotate(-90)scale(0.1 -0.1)">
      <use xlink:href="#DejaVuSans-54"/>
      <use x="61.083984" xlink:href="#DejaVuSans-44"/>
      <use x="138.085938" xlink:href="#DejaVuSans-20"/>
      <use x="169.873047" xlink:href="#DejaVuSans-53"/>
      <use x="233.349609" xlink:href="#DejaVuSans-74"/>
      <use x="272.558594" xlink:href="#DejaVuSans-61"/>
      <use x="333.837891" xlink:href="#DejaVuSans-74"/>
      <use x="373.046875" xlink:href="#DejaVuSans-65"/>
      <use x="434.570312" xlink:href="#DejaVuSans-3a"/>
      <use x="468.261719" xlink:href="#DejaVuSans-31"/>
     </g>
    </g>
   </g>
   <g id="line2d_32">
    <path clip-path="url(#pa737384c08)" d="M 230.727273 300.414531 
L 246.021928 300.397743 
L 251.120146 300.954412 
L 256.218365 300.954412 
L 261.316583 300.411458 
L 271.51302 300.321836 
L 276.611238 299.650175 
L 281.709456 299.95129 
L 286.807675 299.5295 
L 291.905893 299.678408 
L 297.004111 299.47219 
L 302.10233 299.494584 
L 307.200548 299.798724 
L 317.396985 299.825779 
L 322.495203 299.270125 
L 327.593422 298.972849 
L 332.69164 299.280223 
L 337.789858 299.294111 
L 342.888077 298.874243 
L 347.986295 299.11417 
L 353.084513 298.349646 
L 363.28095 298.411872 
L 429.557789 298.3686 
L 434.656007 298.127612 
L 439.754226 298.116225 
L 449.950662 297.699755 
L 465.245317 297.691523 
L 470.343536 295.550015 
L 475.441754 297.255194 
L 500.932846 297.187737 
L 506.031064 297.42371 
L 516.227501 297.326883 
L 521.32572 297.314095 
L 526.423938 297.580542 
L 531.522156 297.094709 
L 536.620375 297.089449 
L 541.718593 296.833552 
L 557.013248 296.796972 
L 562.111466 296.754098 
L 567.209685 296.585179 
L 572.307903 296.58669 
L 577.406122 297.143563 
L 582.50434 297.079973 
L 587.602558 296.162347 
L 592.700777 297.079221 
L 597.798995 296.136806 
L 602.897213 296.979071 
L 638.584742 296.815326 
L 643.68296 296.380422 
L 648.781179 296.624755 
L 679.370489 296.584228 
L 684.468707 296.096646 
L 694.665144 296.165747 
L 699.763362 295.735089 
L 704.861581 287.20531 
L 715.058017 287.161466 
L 720.156236 286.652185 
L 735.450891 286.968621 
L 740.549109 286.96791 
L 745.647328 286.418841 
L 750.745546 286.936755 
L 755.843764 286.757462 
L 766.040201 286.684076 
L 771.138419 286.249655 
L 781.334856 286.254949 
L 786.433074 286.419035 
L 842.513476 286.474505 
L 857.808132 286.632684 
L 862.90635 285.882219 
L 868.004568 286.291012 
L 878.201005 286.237371 
L 883.299223 286.233281 
L 888.397442 285.251479 
L 893.49566 286.540126 
L 898.593878 285.272984 
L 913.888534 285.373469 
L 918.986752 286.153775 
L 924.08497 286.133948 
L 929.183189 285.913003 
L 934.281407 285.328381 
L 939.379625 285.435042 
L 944.477844 285.416604 
L 949.576062 284.851736 
L 954.67428 284.853089 
L 959.772499 285.299416 
L 969.968936 284.676889 
L 975.067154 284.670041 
L 980.165372 285.174153 
L 990.361809 285.174969 
L 995.460027 284.871592 
L 1015.852901 284.818725 
L 1020.951119 284.35346 
L 1026.049338 284.356276 
L 1031.147556 284.125555 
L 1056.638648 284.053761 
L 1061.736866 285.481973 
L 1066.835085 284.422825 
L 1071.933303 283.870803 
L 1077.031521 284.027612 
L 1082.12974 283.997652 
L 1087.227958 284.984999 
L 1097.424395 284.7236 
L 1102.522613 283.924861 
L 1107.620831 284.710436 
L 1117.817268 284.793727 
L 1122.915487 284.381037 
L 1138.210142 284.344939 
L 1143.30836 284.812298 
L 1148.406578 284.774139 
L 1153.504797 284.900923 
L 1158.603015 284.907494 
L 1163.701233 284.542682 
L 1168.799452 284.959561 
L 1184.094107 284.916345 
L 1194.290544 284.98252 
L 1204.48698 284.102401 
L 1209.585199 285.14234 
L 1214.683417 284.21594 
L 1219.781635 284.300148 
L 1224.879854 284.187226 
L 1229.978072 284.905541 
L 1235.076291 285.390803 
L 1245.272727 285.26788 
L 1245.272727 285.26788 
" style="fill:none;stroke:#000000;stroke-linecap:square;stroke-width:4;"/>
   </g>
   <g id="line2d_33">
    <path clip-path="url(#pa737384c08)" d="M 230.727273 291.985687 
L 251.120146 291.985687 
L 256.218365 321.133671 
L 261.316583 293.627827 
L 266.414801 291.985687 
L 271.51302 314.154576 
L 276.611238 287.469802 
L 281.709456 317.003689 
L 286.807675 289.703113 
L 291.905893 295.335652 
L 297.004111 291.606353 
L 302.10233 306.681197 
L 307.200548 290.995477 
L 312.298767 291.985687 
L 317.396985 327.973183 
L 322.495203 288.019919 
L 327.593422 296.022067 
L 332.69164 291.770567 
L 337.789858 291.448707 
L 342.888077 287.059267 
L 347.986295 326.06009 
L 353.084513 299.375317 
L 358.182732 292.18767 
L 363.28095 291.783704 
L 368.379169 291.985687 
L 373.477387 291.575152 
L 378.575605 291.985687 
L 398.968479 291.985687 
L 404.066697 292.598205 
L 409.164915 291.985687 
L 414.263134 292.007035 
L 419.361352 292.993961 
L 424.459571 291.985687 
L 429.557789 297.04512 
L 434.656007 292.167965 
L 439.754226 331.492289 
L 444.852444 295.476877 
L 449.950662 291.944634 
L 455.048881 291.916717 
L 460.147099 292.016888 
L 465.245317 330.664651 
L 470.343536 291.35839 
L 475.441754 291.985687 
L 480.539973 293.217292 
L 485.638191 291.445423 
L 490.736409 292.525951 
L 495.834628 291.985687 
L 500.932846 329.002805 
L 506.031064 291.089079 
L 511.129283 292.186028 
L 516.227501 292.296052 
L 521.32572 287.29902 
L 526.423938 308.068805 
L 531.522156 292.062868 
L 536.620375 318.379802 
L 541.718593 291.824757 
L 557.013248 292.305904 
L 562.111466 295.360285 
L 567.209685 291.985687 
L 572.307903 331.250895 
L 577.406122 285.973813 
L 582.50434 289.933012 
L 587.602558 294.038362 
L 592.700777 290.343547 
L 597.798995 302.286831 
L 602.897213 292.195881 
L 607.995432 311.238135 
L 613.09365 292.140048 
L 618.191868 291.74265 
L 623.290087 291.990613 
L 628.388305 322.068048 
L 633.486524 292.726292 
L 638.584742 296.675639 
L 643.68296 287.962444 
L 648.781179 291.985687 
L 664.075834 291.985687 
L 669.174052 291.575152 
L 674.27227 293.575278 
L 679.370489 301.030594 
L 684.468707 291.985687 
L 689.566926 291.256577 
L 694.665144 346.069565 
L 699.763362 280.380684 
L 704.861581 291.69667 
L 709.959799 292.240219 
L 715.058017 290.378032 
L 720.156236 338.404056 
L 725.254454 291.502898 
L 730.352672 282.512182 
L 735.450891 292.021814 
L 740.549109 287.877053 
L 745.647328 294.245272 
L 750.745546 273.85482 
L 755.843764 294.951392 
L 760.941983 291.985687 
L 766.040201 244.854629 
L 771.138419 291.985687 
L 776.236638 291.951202 
L 781.334856 280.234534 
L 786.433074 292.366664 
L 796.629511 291.680249 
L 806.825948 292.121985 
L 811.924166 291.946276 
L 817.022385 292.074363 
L 822.120603 292.478329 
L 827.218821 292.314115 
L 832.31704 291.48155 
L 837.415258 292.296052 
L 842.513476 291.250008 
L 847.611695 291.798483 
L 852.709913 284.228218 
L 857.808132 290.678544 
L 862.90635 246.598582 
L 868.004568 293.363442 
L 873.102787 291.493045 
L 878.201005 292.314115 
L 883.299223 281.475992 
L 888.397442 294.448897 
L 893.49566 289.111942 
L 898.593878 292.396222 
L 903.692097 288.300725 
L 908.790315 291.898654 
L 913.888534 279.398685 
L 918.986752 292.637617 
L 924.08497 263.190764 
L 929.183189 279.094889 
L 934.281407 278.723765 
L 939.379625 291.97255 
L 944.477844 280.54654 
L 949.576062 291.954486 
L 954.67428 238.419083 
L 959.772499 302.887854 
L 964.870717 270.637868 
L 969.968936 291.985687 
L 975.067154 286.648732 
L 980.165372 291.985687 
L 985.263591 291.869095 
L 990.361809 267.34702 
L 995.460027 291.985687 
L 1000.558246 253.108025 
L 1005.656464 292.806757 
L 1010.754683 290.343547 
L 1015.852901 275.513382 
L 1020.951119 291.974192 
L 1026.049338 264.545529 
L 1031.147556 292.067794 
L 1036.245774 291.837894 
L 1041.343993 292.218871 
L 1046.442211 265.686816 
L 1051.540429 292.727934 
L 1056.638648 253.983285 
L 1061.736866 291.985687 
L 1066.835085 306.520267 
L 1071.933303 287.880337 
L 1077.031521 292.806757 
L 1082.12974 281.546604 
L 1087.227958 236.504348 
L 1092.326176 294.683723 
L 1097.424395 284.596057 
L 1102.522613 299.263651 
L 1107.620831 289.634143 
L 1112.71905 291.985687 
L 1117.817268 249.290049 
L 1122.915487 291.985687 
L 1128.013705 292.806757 
L 1133.111923 291.985687 
L 1138.210142 280.490708 
L 1143.30836 293.627827 
L 1148.406578 287.74404 
L 1153.504797 292.121985 
L 1158.603015 251.753259 
L 1163.701233 281.38239 
L 1168.799452 292.934844 
L 1173.89767 291.064447 
L 1178.995889 293.688586 
L 1184.094107 290.309062 
L 1189.192325 292.025098 
L 1194.290544 237.630856 
L 1199.388762 303.480666 
L 1204.48698 281.615573 
L 1209.585199 299.071521 
L 1214.683417 289.522477 
L 1219.781635 295.269967 
L 1224.879854 271.458938 
L 1229.978072 295.77903 
L 1235.076291 257.34803 
L 1240.174509 293.599911 
L 1245.272727 289.586521 
L 1245.272727 289.586521 
" style="fill:none;stroke:#ff0000;stroke-linecap:square;stroke-width:1.5;"/>
   </g>
   <g id="patch_9">
    <path d="M 180 351.547826 
L 180 231.026087 
" style="fill:none;stroke:#000000;stroke-linecap:square;stroke-linejoin:miter;stroke-width:0.8;"/>
   </g>
   <g id="patch_10">
    <path d="M 1296 351.547826 
L 1296 231.026087 
" style="fill:none;stroke:#000000;stroke-linecap:square;stroke-linejoin:miter;stroke-width:0.8;"/>
   </g>
   <g id="patch_11">
    <path d="M 180 351.547826 
L 1296 351.547826 
" style="fill:none;stroke:#000000;stroke-linecap:square;stroke-linejoin:miter;stroke-width:0.8;"/>
   </g>
   <g id="patch_12">
    <path d="M 180 231.026087 
L 1296 231.026087 
" style="fill:none;stroke:#000000;stroke-linecap:square;stroke-linejoin:miter;stroke-width:0.8;"/>
   </g>
   <g id="legend_2">
    <g id="patch_13">
     <path d="M 1234.3125 268.382337 
L 1289 268.382337 
Q 1291 268.382337 1291 266.382337 
L 1291 238.026087 
Q 1291 236.026087 1289 236.026087 
L 1234.3125 236.026087 
Q 1232.3125 236.026087 1232.3125 238.026087 
L 1232.3125 266.382337 
Q 1232.3125 268.382337 1234.3125 268.382337 
z
" style="fill:#ffffff;opacity:0.8;stroke:#cccccc;stroke-linejoin:miter;"/>
    </g>
    <g id="line2d_34">
     <path d="M 1236.3125 244.124524 
L 1256.3125 244.124524 
" style="fill:none;stroke:#000000;stroke-linecap:square;stroke-width:4;"/>
    </g>
    <g id="line2d_35"/>
    <g id="text_30">
     <!-- Pred -->
     <g transform="translate(1264.3125 247.624524)scale(0.1 -0.1)">
      <use xlink:href="#DejaVuSans-50"/>
      <use x="60.287109" xlink:href="#DejaVuSans-72"/>
      <use x="101.369141" xlink:href="#DejaVuSans-65"/>
      <use x="162.892578" xlink:href="#DejaVuSans-64"/>
     </g>
    </g>
    <g id="line2d_36">
     <path d="M 1236.3125 258.802649 
L 1256.3125 258.802649 
" style="fill:none;stroke:#ff0000;stroke-linecap:square;stroke-width:1.5;"/>
    </g>
    <g id="line2d_37"/>
    <g id="text_31">
     <!-- True -->
     <g transform="translate(1264.3125 262.302649)scale(0.1 -0.1)">
      <use xlink:href="#DejaVuSans-54"/>
      <use x="60.865234" xlink:href="#DejaVuSans-72"/>
      <use x="101.978516" xlink:href="#DejaVuSans-75"/>
      <use x="165.357422" xlink:href="#DejaVuSans-65"/>
     </g>
    </g>
   </g>
  </g>
  <g id="axes_3">
   <g id="patch_14">
    <path d="M 180 496.173913 
L 1296 496.173913 
L 1296 375.652174 
L 180 375.652174 
z
" style="fill:#ffffff;"/>
   </g>
   <g id="matplotlib.axis_5">
    <g id="xtick_19">
     <g id="line2d_38">
      <g>
       <use style="stroke:#000000;stroke-width:0.8;" x="230.727273" xlink:href="#mcdfc8e1173" y="496.173913"/>
      </g>
     </g>
     <g id="text_32">
      <!-- 0 -->
      <g transform="translate(227.546023 510.772351)scale(0.1 -0.1)">
       <use xlink:href="#DejaVuSans-30"/>
      </g>
     </g>
    </g>
    <g id="xtick_20">
     <g id="line2d_39">
      <g>
       <use style="stroke:#000000;stroke-width:0.8;" x="358.182732" xlink:href="#mcdfc8e1173" y="496.173913"/>
      </g>
     </g>
     <g id="text_33">
      <!-- 25 -->
      <g transform="translate(351.820232 510.772351)scale(0.1 -0.1)">
       <use xlink:href="#DejaVuSans-32"/>
       <use x="63.623047" xlink:href="#DejaVuSans-35"/>
      </g>
     </g>
    </g>
    <g id="xtick_21">
     <g id="line2d_40">
      <g>
       <use style="stroke:#000000;stroke-width:0.8;" x="485.638191" xlink:href="#mcdfc8e1173" y="496.173913"/>
      </g>
     </g>
     <g id="text_34">
      <!-- 50 -->
      <g transform="translate(479.275691 510.772351)scale(0.1 -0.1)">
       <use xlink:href="#DejaVuSans-35"/>
       <use x="63.623047" xlink:href="#DejaVuSans-30"/>
      </g>
     </g>
    </g>
    <g id="xtick_22">
     <g id="line2d_41">
      <g>
       <use style="stroke:#000000;stroke-width:0.8;" x="613.09365" xlink:href="#mcdfc8e1173" y="496.173913"/>
      </g>
     </g>
     <g id="text_35">
      <!-- 75 -->
      <g transform="translate(606.73115 510.772351)scale(0.1 -0.1)">
       <use xlink:href="#DejaVuSans-37"/>
       <use x="63.623047" xlink:href="#DejaVuSans-35"/>
      </g>
     </g>
    </g>
    <g id="xtick_23">
     <g id="line2d_42">
      <g>
       <use style="stroke:#000000;stroke-width:0.8;" x="740.549109" xlink:href="#mcdfc8e1173" y="496.173913"/>
      </g>
     </g>
     <g id="text_36">
      <!-- 100 -->
      <g transform="translate(731.005359 510.772351)scale(0.1 -0.1)">
       <use xlink:href="#DejaVuSans-31"/>
       <use x="63.623047" xlink:href="#DejaVuSans-30"/>
       <use x="127.246094" xlink:href="#DejaVuSans-30"/>
      </g>
     </g>
    </g>
    <g id="xtick_24">
     <g id="line2d_43">
      <g>
       <use style="stroke:#000000;stroke-width:0.8;" x="868.004568" xlink:href="#mcdfc8e1173" y="496.173913"/>
      </g>
     </g>
     <g id="text_37">
      <!-- 125 -->
      <g transform="translate(858.460818 510.772351)scale(0.1 -0.1)">
       <use xlink:href="#DejaVuSans-31"/>
       <use x="63.623047" xlink:href="#DejaVuSans-32"/>
       <use x="127.246094" xlink:href="#DejaVuSans-35"/>
      </g>
     </g>
    </g>
    <g id="xtick_25">
     <g id="line2d_44">
      <g>
       <use style="stroke:#000000;stroke-width:0.8;" x="995.460027" xlink:href="#mcdfc8e1173" y="496.173913"/>
      </g>
     </g>
     <g id="text_38">
      <!-- 150 -->
      <g transform="translate(985.916277 510.772351)scale(0.1 -0.1)">
       <use xlink:href="#DejaVuSans-31"/>
       <use x="63.623047" xlink:href="#DejaVuSans-35"/>
       <use x="127.246094" xlink:href="#DejaVuSans-30"/>
      </g>
     </g>
    </g>
    <g id="xtick_26">
     <g id="line2d_45">
      <g>
       <use style="stroke:#000000;stroke-width:0.8;" x="1122.915487" xlink:href="#mcdfc8e1173" y="496.173913"/>
      </g>
     </g>
     <g id="text_39">
      <!-- 175 -->
      <g transform="translate(1113.371737 510.772351)scale(0.1 -0.1)">
       <use xlink:href="#DejaVuSans-31"/>
       <use x="63.623047" xlink:href="#DejaVuSans-37"/>
       <use x="127.246094" xlink:href="#DejaVuSans-35"/>
      </g>
     </g>
    </g>
    <g id="xtick_27">
     <g id="line2d_46">
      <g>
       <use style="stroke:#000000;stroke-width:0.8;" x="1250.370946" xlink:href="#mcdfc8e1173" y="496.173913"/>
      </g>
     </g>
     <g id="text_40">
      <!-- 200 -->
      <g transform="translate(1240.827196 510.772351)scale(0.1 -0.1)">
       <use xlink:href="#DejaVuSans-32"/>
       <use x="63.623047" xlink:href="#DejaVuSans-30"/>
       <use x="127.246094" xlink:href="#DejaVuSans-30"/>
      </g>
     </g>
    </g>
   </g>
   <g id="matplotlib.axis_6">
    <g id="ytick_8">
     <g id="line2d_47">
      <g>
       <use style="stroke:#000000;stroke-width:0.8;" x="180" xlink:href="#md0b7caaf9d" y="476.786394"/>
      </g>
     </g>
     <g id="text_41">
      <!-- −6 -->
      <defs>
       <path d="M 33.015625 40.375 
Q 26.375 40.375 22.484375 35.828125 
Q 18.609375 31.296875 18.609375 23.390625 
Q 18.609375 15.53125 22.484375 10.953125 
Q 26.375 6.390625 33.015625 6.390625 
Q 39.65625 6.390625 43.53125 10.953125 
Q 47.40625 15.53125 47.40625 23.390625 
Q 47.40625 31.296875 43.53125 35.828125 
Q 39.65625 40.375 33.015625 40.375 
z
M 52.59375 71.296875 
L 52.59375 62.3125 
Q 48.875 64.0625 45.09375 64.984375 
Q 41.3125 65.921875 37.59375 65.921875 
Q 27.828125 65.921875 22.671875 59.328125 
Q 17.53125 52.734375 16.796875 39.40625 
Q 19.671875 43.65625 24.015625 45.921875 
Q 28.375 48.1875 33.59375 48.1875 
Q 44.578125 48.1875 50.953125 41.515625 
Q 57.328125 34.859375 57.328125 23.390625 
Q 57.328125 12.15625 50.6875 5.359375 
Q 44.046875 -1.421875 33.015625 -1.421875 
Q 20.359375 -1.421875 13.671875 8.265625 
Q 6.984375 17.96875 6.984375 36.375 
Q 6.984375 53.65625 15.1875 63.9375 
Q 23.390625 74.21875 37.203125 74.21875 
Q 40.921875 74.21875 44.703125 73.484375 
Q 48.484375 72.75 52.59375 71.296875 
z
" id="DejaVuSans-36"/>
      </defs>
      <g transform="translate(158.257812 480.585613)scale(0.1 -0.1)">
       <use xlink:href="#DejaVuSans-2212"/>
       <use x="83.789062" xlink:href="#DejaVuSans-36"/>
      </g>
     </g>
    </g>
    <g id="ytick_9">
     <g id="line2d_48">
      <g>
       <use style="stroke:#000000;stroke-width:0.8;" x="180" xlink:href="#md0b7caaf9d" y="444.901074"/>
      </g>
     </g>
     <g id="text_42">
      <!-- −4 -->
      <defs>
       <path d="M 37.796875 64.3125 
L 12.890625 25.390625 
L 37.796875 25.390625 
z
M 35.203125 72.90625 
L 47.609375 72.90625 
L 47.609375 25.390625 
L 58.015625 25.390625 
L 58.015625 17.1875 
L 47.609375 17.1875 
L 47.609375 0 
L 37.796875 0 
L 37.796875 17.1875 
L 4.890625 17.1875 
L 4.890625 26.703125 
z
" id="DejaVuSans-34"/>
      </defs>
      <g transform="translate(158.257812 448.700293)scale(0.1 -0.1)">
       <use xlink:href="#DejaVuSans-2212"/>
       <use x="83.789062" xlink:href="#DejaVuSans-34"/>
      </g>
     </g>
    </g>
    <g id="ytick_10">
     <g id="line2d_49">
      <g>
       <use style="stroke:#000000;stroke-width:0.8;" x="180" xlink:href="#md0b7caaf9d" y="413.015754"/>
      </g>
     </g>
     <g id="text_43">
      <!-- −2 -->
      <g transform="translate(158.257812 416.814973)scale(0.1 -0.1)">
       <use xlink:href="#DejaVuSans-2212"/>
       <use x="83.789062" xlink:href="#DejaVuSans-32"/>
      </g>
     </g>
    </g>
    <g id="ytick_11">
     <g id="line2d_50">
      <g>
       <use style="stroke:#000000;stroke-width:0.8;" x="180" xlink:href="#md0b7caaf9d" y="381.130435"/>
      </g>
     </g>
     <g id="text_44">
      <!-- 0 -->
      <g transform="translate(166.6375 384.929654)scale(0.1 -0.1)">
       <use xlink:href="#DejaVuSans-30"/>
      </g>
     </g>
    </g>
    <g id="text_45">
     <!-- TD State:2 -->
     <g transform="translate(152.178125 462.506793)rotate(-90)scale(0.1 -0.1)">
      <use xlink:href="#DejaVuSans-54"/>
      <use x="61.083984" xlink:href="#DejaVuSans-44"/>
      <use x="138.085938" xlink:href="#DejaVuSans-20"/>
      <use x="169.873047" xlink:href="#DejaVuSans-53"/>
      <use x="233.349609" xlink:href="#DejaVuSans-74"/>
      <use x="272.558594" xlink:href="#DejaVuSans-61"/>
      <use x="333.837891" xlink:href="#DejaVuSans-74"/>
      <use x="373.046875" xlink:href="#DejaVuSans-65"/>
      <use x="434.570312" xlink:href="#DejaVuSans-3a"/>
      <use x="468.261719" xlink:href="#DejaVuSans-32"/>
     </g>
    </g>
    <g id="text_46">
     <!-- 1e−8 -->
     <defs>
      <path d="M 31.78125 34.625 
Q 24.75 34.625 20.71875 30.859375 
Q 16.703125 27.09375 16.703125 20.515625 
Q 16.703125 13.921875 20.71875 10.15625 
Q 24.75 6.390625 31.78125 6.390625 
Q 38.8125 6.390625 42.859375 10.171875 
Q 46.921875 13.96875 46.921875 20.515625 
Q 46.921875 27.09375 42.890625 30.859375 
Q 38.875 34.625 31.78125 34.625 
z
M 21.921875 38.8125 
Q 15.578125 40.375 12.03125 44.71875 
Q 8.5 49.078125 8.5 55.328125 
Q 8.5 64.0625 14.71875 69.140625 
Q 20.953125 74.21875 31.78125 74.21875 
Q 42.671875 74.21875 48.875 69.140625 
Q 55.078125 64.0625 55.078125 55.328125 
Q 55.078125 49.078125 51.53125 44.71875 
Q 48 40.375 41.703125 38.8125 
Q 48.828125 37.15625 52.796875 32.3125 
Q 56.78125 27.484375 56.78125 20.515625 
Q 56.78125 9.90625 50.3125 4.234375 
Q 43.84375 -1.421875 31.78125 -1.421875 
Q 19.734375 -1.421875 13.25 4.234375 
Q 6.78125 9.90625 6.78125 20.515625 
Q 6.78125 27.484375 10.78125 32.3125 
Q 14.796875 37.15625 21.921875 38.8125 
z
M 18.3125 54.390625 
Q 18.3125 48.734375 21.84375 45.5625 
Q 25.390625 42.390625 31.78125 42.390625 
Q 38.140625 42.390625 41.71875 45.5625 
Q 45.3125 48.734375 45.3125 54.390625 
Q 45.3125 60.0625 41.71875 63.234375 
Q 38.140625 66.40625 31.78125 66.40625 
Q 25.390625 66.40625 21.84375 63.234375 
Q 18.3125 60.0625 18.3125 54.390625 
z
" id="DejaVuSans-38"/>
     </defs>
     <g transform="translate(180 372.652174)scale(0.1 -0.1)">
      <use xlink:href="#DejaVuSans-31"/>
      <use x="63.623047" xlink:href="#DejaVuSans-65"/>
      <use x="125.146484" xlink:href="#DejaVuSans-2212"/>
      <use x="208.935547" xlink:href="#DejaVuSans-38"/>
     </g>
    </g>
   </g>
   <g id="line2d_51">
    <path clip-path="url(#p1569bcf4c7)" d="M 230.727273 476.636035 
L 235.825491 476.144787 
L 246.021928 476.144787 
L 251.120146 488.078263 
L 256.218365 488.078263 
L 261.316583 484.058713 
L 266.414801 482.505539 
L 271.51302 482.495333 
L 276.611238 474.246315 
L 281.709456 479.855821 
L 286.807675 476.638414 
L 291.905893 479.43253 
L 297.004111 475.691941 
L 302.10233 476.084432 
L 307.200548 490.695652 
L 317.396985 490.668341 
L 322.495203 486.794015 
L 327.593422 479.645348 
L 332.69164 487.084656 
L 337.789858 487.375716 
L 342.888077 475.301796 
L 347.986295 478.988066 
L 353.084513 471.765892 
L 358.182732 474.51353 
L 388.772042 474.572514 
L 404.066697 474.541623 
L 419.361352 474.548873 
L 424.459571 473.95931 
L 429.557789 473.956909 
L 434.656007 470.308892 
L 439.754226 470.102871 
L 444.852444 474.761464 
L 449.950662 470.216876 
L 465.245317 470.289828 
L 470.343536 424.325007 
L 475.441754 467.609093 
L 480.539973 467.599045 
L 485.638191 466.146429 
L 490.736409 465.721949 
L 495.834628 466.146429 
L 500.932846 466.149057 
L 506.031064 473.912616 
L 511.129283 469.503736 
L 516.227501 470.057072 
L 521.32572 469.928398 
L 526.423938 475.536001 
L 531.522156 468.760034 
L 536.620375 468.656361 
L 541.718593 464.272878 
L 546.816811 464.50424 
L 551.91503 462.877922 
L 557.013248 462.916561 
L 562.111466 461.21882 
L 567.209685 458.151995 
L 572.307903 458.149288 
L 577.406122 472.428747 
L 582.50434 469.426095 
L 587.602558 452.713258 
L 592.700777 469.421133 
L 597.798995 452.246683 
L 602.897213 469.330985 
L 607.995432 469.068834 
L 613.09365 466.732673 
L 618.191868 466.755634 
L 623.290087 466.642695 
L 628.388305 466.743321 
L 633.486524 469.630643 
L 638.584742 468.734365 
L 643.68296 459.610909 
L 648.781179 464.238589 
L 653.879397 463.900823 
L 669.174052 463.909002 
L 674.27227 464.365178 
L 679.370489 463.596056 
L 684.468707 455.124875 
L 689.566926 455.092919 
L 694.665144 456.443753 
L 699.763362 451.786077 
L 704.861581 470.261587 
L 715.058017 469.817736 
L 720.156236 467.549984 
L 725.254454 468.534223 
L 740.549109 468.260631 
L 745.647328 465.017022 
L 750.745546 467.523148 
L 755.843764 464.655276 
L 760.941983 464.732725 
L 766.040201 464.656862 
L 771.138419 458.156776 
L 781.334856 458.188754 
L 786.433074 457.41449 
L 801.72773 457.422872 
L 817.022385 457.483828 
L 852.709913 457.883161 
L 857.808132 457.502814 
L 862.90635 455.282379 
L 868.004568 451.599212 
L 873.102787 451.376233 
L 883.299223 451.441402 
L 888.397442 448.269046 
L 893.49566 452.045034 
L 898.593878 448.333921 
L 913.888534 448.42561 
L 918.986752 449.373815 
L 924.08497 449.355951 
L 929.183189 446.184671 
L 934.281407 443.229812 
L 939.379625 441.90681 
L 944.477844 441.795151 
L 949.576062 439.170648 
L 954.67428 439.172619 
L 959.772499 434.508758 
L 964.870717 434.234781 
L 969.968936 431.700584 
L 975.067154 431.651897 
L 980.165372 433.801192 
L 990.361809 433.789128 
L 995.460027 430.74872 
L 1000.558246 430.74872 
L 1005.656464 427.45972 
L 1010.754683 427.45699 
L 1015.852901 426.955967 
L 1020.951119 424.170143 
L 1026.049338 424.184835 
L 1031.147556 421.543114 
L 1046.442211 421.531356 
L 1051.540429 420.811476 
L 1056.638648 420.66265 
L 1061.736866 427.703792 
L 1066.835085 421.88814 
L 1071.933303 419.152613 
L 1077.031521 419.932666 
L 1082.12974 419.785346 
L 1087.227958 424.967392 
L 1092.326176 422.597723 
L 1097.424395 422.228477 
L 1102.522613 417.658333 
L 1107.620831 422.128134 
L 1112.71905 422.530593 
L 1117.817268 422.527897 
L 1122.915487 419.509307 
L 1128.013705 419.471188 
L 1133.111923 419.313005 
L 1138.210142 419.323766 
L 1143.30836 421.704016 
L 1148.406578 421.563776 
L 1153.504797 422.122742 
L 1158.603015 422.179201 
L 1163.701233 419.686963 
L 1168.799452 421.781964 
L 1173.89767 421.588358 
L 1178.995889 421.786416 
L 1184.094107 421.613574 
L 1194.290544 421.949515 
L 1199.388762 417.815859 
L 1204.48698 415.909582 
L 1209.585199 421.555903 
L 1214.683417 416.482696 
L 1219.781635 416.905591 
L 1224.879854 416.33686 
L 1235.076291 422.337814 
L 1240.174509 420.159247 
L 1245.272727 420.193888 
L 1245.272727 420.193888 
" style="fill:none;stroke:#000000;stroke-linecap:square;stroke-width:4;"/>
   </g>
   <g id="line2d_52">
    <path clip-path="url(#p1569bcf4c7)" d="M 230.727273 381.130435 
L 1245.272727 381.130435 
L 1245.272727 381.130435 
" style="fill:none;stroke:#ff0000;stroke-linecap:square;stroke-width:1.5;"/>
   </g>
   <g id="patch_15">
    <path d="M 180 496.173913 
L 180 375.652174 
" style="fill:none;stroke:#000000;stroke-linecap:square;stroke-linejoin:miter;stroke-width:0.8;"/>
   </g>
   <g id="patch_16">
    <path d="M 1296 496.173913 
L 1296 375.652174 
" style="fill:none;stroke:#000000;stroke-linecap:square;stroke-linejoin:miter;stroke-width:0.8;"/>
   </g>
   <g id="patch_17">
    <path d="M 180 496.173913 
L 1296 496.173913 
" style="fill:none;stroke:#000000;stroke-linecap:square;stroke-linejoin:miter;stroke-width:0.8;"/>
   </g>
   <g id="patch_18">
    <path d="M 180 375.652174 
L 1296 375.652174 
" style="fill:none;stroke:#000000;stroke-linecap:square;stroke-linejoin:miter;stroke-width:0.8;"/>
   </g>
   <g id="legend_3">
    <g id="patch_19">
     <path d="M 1234.3125 413.008424 
L 1289 413.008424 
Q 1291 413.008424 1291 411.008424 
L 1291 382.652174 
Q 1291 380.652174 1289 380.652174 
L 1234.3125 380.652174 
Q 1232.3125 380.652174 1232.3125 382.652174 
L 1232.3125 411.008424 
Q 1232.3125 413.008424 1234.3125 413.008424 
z
" style="fill:#ffffff;opacity:0.8;stroke:#cccccc;stroke-linejoin:miter;"/>
    </g>
    <g id="line2d_53">
     <path d="M 1236.3125 388.750611 
L 1256.3125 388.750611 
" style="fill:none;stroke:#000000;stroke-linecap:square;stroke-width:4;"/>
    </g>
    <g id="line2d_54"/>
    <g id="text_47">
     <!-- Pred -->
     <g transform="translate(1264.3125 392.250611)scale(0.1 -0.1)">
      <use xlink:href="#DejaVuSans-50"/>
      <use x="60.287109" xlink:href="#DejaVuSans-72"/>
      <use x="101.369141" xlink:href="#DejaVuSans-65"/>
      <use x="162.892578" xlink:href="#DejaVuSans-64"/>
     </g>
    </g>
    <g id="line2d_55">
     <path d="M 1236.3125 403.428736 
L 1256.3125 403.428736 
" style="fill:none;stroke:#ff0000;stroke-linecap:square;stroke-width:1.5;"/>
    </g>
    <g id="line2d_56"/>
    <g id="text_48">
     <!-- True -->
     <g transform="translate(1264.3125 406.928736)scale(0.1 -0.1)">
      <use xlink:href="#DejaVuSans-54"/>
      <use x="60.865234" xlink:href="#DejaVuSans-72"/>
      <use x="101.978516" xlink:href="#DejaVuSans-75"/>
      <use x="165.357422" xlink:href="#DejaVuSans-65"/>
     </g>
    </g>
   </g>
  </g>
  <g id="axes_4">
   <g id="patch_20">
    <path d="M 180 640.8 
L 1296 640.8 
L 1296 520.278261 
L 180 520.278261 
z
" style="fill:#ffffff;"/>
   </g>
   <g id="matplotlib.axis_7">
    <g id="xtick_28">
     <g id="line2d_57">
      <g>
       <use style="stroke:#000000;stroke-width:0.8;" x="219.716228" xlink:href="#mcdfc8e1173" y="640.8"/>
      </g>
     </g>
     <g id="text_49">
      <!-- 0.0 -->
      <defs>
       <path d="M 10.6875 12.40625 
L 21 12.40625 
L 21 0 
L 10.6875 0 
z
" id="DejaVuSans-2e"/>
      </defs>
      <g transform="translate(211.764665 655.398438)scale(0.1 -0.1)">
       <use xlink:href="#DejaVuSans-30"/>
       <use x="63.623047" xlink:href="#DejaVuSans-2e"/>
       <use x="95.410156" xlink:href="#DejaVuSans-30"/>
      </g>
     </g>
    </g>
    <g id="xtick_29">
     <g id="line2d_58">
      <g>
       <use style="stroke:#000000;stroke-width:0.8;" x="372.647409" xlink:href="#mcdfc8e1173" y="640.8"/>
      </g>
     </g>
     <g id="text_50">
      <!-- 0.5 -->
      <g transform="translate(364.695846 655.398438)scale(0.1 -0.1)">
       <use xlink:href="#DejaVuSans-30"/>
       <use x="63.623047" xlink:href="#DejaVuSans-2e"/>
       <use x="95.410156" xlink:href="#DejaVuSans-35"/>
      </g>
     </g>
    </g>
    <g id="xtick_30">
     <g id="line2d_59">
      <g>
       <use style="stroke:#000000;stroke-width:0.8;" x="525.57859" xlink:href="#mcdfc8e1173" y="640.8"/>
      </g>
     </g>
     <g id="text_51">
      <!-- 1.0 -->
      <g transform="translate(517.627027 655.398438)scale(0.1 -0.1)">
       <use xlink:href="#DejaVuSans-31"/>
       <use x="63.623047" xlink:href="#DejaVuSans-2e"/>
       <use x="95.410156" xlink:href="#DejaVuSans-30"/>
      </g>
     </g>
    </g>
    <g id="xtick_31">
     <g id="line2d_60">
      <g>
       <use style="stroke:#000000;stroke-width:0.8;" x="678.509771" xlink:href="#mcdfc8e1173" y="640.8"/>
      </g>
     </g>
     <g id="text_52">
      <!-- 1.5 -->
      <g transform="translate(670.558208 655.398438)scale(0.1 -0.1)">
       <use xlink:href="#DejaVuSans-31"/>
       <use x="63.623047" xlink:href="#DejaVuSans-2e"/>
       <use x="95.410156" xlink:href="#DejaVuSans-35"/>
      </g>
     </g>
    </g>
    <g id="xtick_32">
     <g id="line2d_61">
      <g>
       <use style="stroke:#000000;stroke-width:0.8;" x="831.440952" xlink:href="#mcdfc8e1173" y="640.8"/>
      </g>
     </g>
     <g id="text_53">
      <!-- 2.0 -->
      <g transform="translate(823.489389 655.398438)scale(0.1 -0.1)">
       <use xlink:href="#DejaVuSans-32"/>
       <use x="63.623047" xlink:href="#DejaVuSans-2e"/>
       <use x="95.410156" xlink:href="#DejaVuSans-30"/>
      </g>
     </g>
    </g>
    <g id="xtick_33">
     <g id="line2d_62">
      <g>
       <use style="stroke:#000000;stroke-width:0.8;" x="984.372133" xlink:href="#mcdfc8e1173" y="640.8"/>
      </g>
     </g>
     <g id="text_54">
      <!-- 2.5 -->
      <g transform="translate(976.42057 655.398438)scale(0.1 -0.1)">
       <use xlink:href="#DejaVuSans-32"/>
       <use x="63.623047" xlink:href="#DejaVuSans-2e"/>
       <use x="95.410156" xlink:href="#DejaVuSans-35"/>
      </g>
     </g>
    </g>
    <g id="xtick_34">
     <g id="line2d_63">
      <g>
       <use style="stroke:#000000;stroke-width:0.8;" x="1137.303314" xlink:href="#mcdfc8e1173" y="640.8"/>
      </g>
     </g>
     <g id="text_55">
      <!-- 3.0 -->
      <defs>
       <path d="M 40.578125 39.3125 
Q 47.65625 37.796875 51.625 33 
Q 55.609375 28.21875 55.609375 21.1875 
Q 55.609375 10.40625 48.1875 4.484375 
Q 40.765625 -1.421875 27.09375 -1.421875 
Q 22.515625 -1.421875 17.65625 -0.515625 
Q 12.796875 0.390625 7.625 2.203125 
L 7.625 11.71875 
Q 11.71875 9.328125 16.59375 8.109375 
Q 21.484375 6.890625 26.8125 6.890625 
Q 36.078125 6.890625 40.9375 10.546875 
Q 45.796875 14.203125 45.796875 21.1875 
Q 45.796875 27.640625 41.28125 31.265625 
Q 36.765625 34.90625 28.71875 34.90625 
L 20.21875 34.90625 
L 20.21875 43.015625 
L 29.109375 43.015625 
Q 36.375 43.015625 40.234375 45.921875 
Q 44.09375 48.828125 44.09375 54.296875 
Q 44.09375 59.90625 40.109375 62.90625 
Q 36.140625 65.921875 28.71875 65.921875 
Q 24.65625 65.921875 20.015625 65.03125 
Q 15.375 64.15625 9.8125 62.3125 
L 9.8125 71.09375 
Q 15.4375 72.65625 20.34375 73.4375 
Q 25.25 74.21875 29.59375 74.21875 
Q 40.828125 74.21875 47.359375 69.109375 
Q 53.90625 64.015625 53.90625 55.328125 
Q 53.90625 49.265625 50.4375 45.09375 
Q 46.96875 40.921875 40.578125 39.3125 
z
" id="DejaVuSans-33"/>
      </defs>
      <g transform="translate(1129.351751 655.398438)scale(0.1 -0.1)">
       <use xlink:href="#DejaVuSans-33"/>
       <use x="63.623047" xlink:href="#DejaVuSans-2e"/>
       <use x="95.410156" xlink:href="#DejaVuSans-30"/>
      </g>
     </g>
    </g>
    <g id="xtick_35">
     <g id="line2d_64">
      <g>
       <use style="stroke:#000000;stroke-width:0.8;" x="1290.234494" xlink:href="#mcdfc8e1173" y="640.8"/>
      </g>
     </g>
     <g id="text_56">
      <!-- 3.5 -->
      <g transform="translate(1282.282932 655.398438)scale(0.1 -0.1)">
       <use xlink:href="#DejaVuSans-33"/>
       <use x="63.623047" xlink:href="#DejaVuSans-2e"/>
       <use x="95.410156" xlink:href="#DejaVuSans-35"/>
      </g>
     </g>
    </g>
    <g id="text_57">
     <!-- Time -->
     <defs>
      <path d="M 9.421875 54.6875 
L 18.40625 54.6875 
L 18.40625 0 
L 9.421875 0 
z
M 9.421875 75.984375 
L 18.40625 75.984375 
L 18.40625 64.59375 
L 9.421875 64.59375 
z
" id="DejaVuSans-69"/>
      <path d="M 52 44.1875 
Q 55.375 50.25 60.0625 53.125 
Q 64.75 56 71.09375 56 
Q 79.640625 56 84.28125 50.015625 
Q 88.921875 44.046875 88.921875 33.015625 
L 88.921875 0 
L 79.890625 0 
L 79.890625 32.71875 
Q 79.890625 40.578125 77.09375 44.375 
Q 74.3125 48.1875 68.609375 48.1875 
Q 61.625 48.1875 57.5625 43.546875 
Q 53.515625 38.921875 53.515625 30.90625 
L 53.515625 0 
L 44.484375 0 
L 44.484375 32.71875 
Q 44.484375 40.625 41.703125 44.40625 
Q 38.921875 48.1875 33.109375 48.1875 
Q 26.21875 48.1875 22.15625 43.53125 
Q 18.109375 38.875 18.109375 30.90625 
L 18.109375 0 
L 9.078125 0 
L 9.078125 54.6875 
L 18.109375 54.6875 
L 18.109375 46.1875 
Q 21.1875 51.21875 25.484375 53.609375 
Q 29.78125 56 35.6875 56 
Q 41.65625 56 45.828125 52.96875 
Q 50 49.953125 52 44.1875 
z
" id="DejaVuSans-6d"/>
     </defs>
     <g transform="translate(725.6125 669.076563)scale(0.1 -0.1)">
      <use xlink:href="#DejaVuSans-54"/>
      <use x="61.037109" xlink:href="#DejaVuSans-69"/>
      <use x="88.820312" xlink:href="#DejaVuSans-6d"/>
      <use x="186.232422" xlink:href="#DejaVuSans-65"/>
     </g>
    </g>
   </g>
   <g id="matplotlib.axis_8">
    <g id="ytick_12">
     <g id="line2d_65">
      <g>
       <use style="stroke:#000000;stroke-width:0.8;" x="180" xlink:href="#md0b7caaf9d" y="624.365217"/>
      </g>
     </g>
     <g id="text_58">
      <!-- −0.04 -->
      <g transform="translate(142.354688 628.164436)scale(0.1 -0.1)">
       <use xlink:href="#DejaVuSans-2212"/>
       <use x="83.789062" xlink:href="#DejaVuSans-30"/>
       <use x="147.412109" xlink:href="#DejaVuSans-2e"/>
       <use x="179.199219" xlink:href="#DejaVuSans-30"/>
       <use x="242.822266" xlink:href="#DejaVuSans-34"/>
      </g>
     </g>
    </g>
    <g id="ytick_13">
     <g id="line2d_66">
      <g>
       <use style="stroke:#000000;stroke-width:0.8;" x="180" xlink:href="#md0b7caaf9d" y="602.452174"/>
      </g>
     </g>
     <g id="text_59">
      <!-- −0.02 -->
      <g transform="translate(142.354688 606.251393)scale(0.1 -0.1)">
       <use xlink:href="#DejaVuSans-2212"/>
       <use x="83.789062" xlink:href="#DejaVuSans-30"/>
       <use x="147.412109" xlink:href="#DejaVuSans-2e"/>
       <use x="179.199219" xlink:href="#DejaVuSans-30"/>
       <use x="242.822266" xlink:href="#DejaVuSans-32"/>
      </g>
     </g>
    </g>
    <g id="ytick_14">
     <g id="line2d_67">
      <g>
       <use style="stroke:#000000;stroke-width:0.8;" x="180" xlink:href="#md0b7caaf9d" y="580.53913"/>
      </g>
     </g>
     <g id="text_60">
      <!-- 0.00 -->
      <g transform="translate(150.734375 584.338349)scale(0.1 -0.1)">
       <use xlink:href="#DejaVuSans-30"/>
       <use x="63.623047" xlink:href="#DejaVuSans-2e"/>
       <use x="95.410156" xlink:href="#DejaVuSans-30"/>
       <use x="159.033203" xlink:href="#DejaVuSans-30"/>
      </g>
     </g>
    </g>
    <g id="ytick_15">
     <g id="line2d_68">
      <g>
       <use style="stroke:#000000;stroke-width:0.8;" x="180" xlink:href="#md0b7caaf9d" y="558.626087"/>
      </g>
     </g>
     <g id="text_61">
      <!-- 0.02 -->
      <g transform="translate(150.734375 562.425306)scale(0.1 -0.1)">
       <use xlink:href="#DejaVuSans-30"/>
       <use x="63.623047" xlink:href="#DejaVuSans-2e"/>
       <use x="95.410156" xlink:href="#DejaVuSans-30"/>
       <use x="159.033203" xlink:href="#DejaVuSans-32"/>
      </g>
     </g>
    </g>
    <g id="ytick_16">
     <g id="line2d_69">
      <g>
       <use style="stroke:#000000;stroke-width:0.8;" x="180" xlink:href="#md0b7caaf9d" y="536.713043"/>
      </g>
     </g>
     <g id="text_62">
      <!-- 0.04 -->
      <g transform="translate(150.734375 540.512262)scale(0.1 -0.1)">
       <use xlink:href="#DejaVuSans-30"/>
       <use x="63.623047" xlink:href="#DejaVuSans-2e"/>
       <use x="95.410156" xlink:href="#DejaVuSans-30"/>
       <use x="159.033203" xlink:href="#DejaVuSans-34"/>
      </g>
     </g>
    </g>
    <g id="text_63">
     <!-- Control Input -->
     <defs>
      <path d="M 64.40625 67.28125 
L 64.40625 56.890625 
Q 59.421875 61.53125 53.78125 63.8125 
Q 48.140625 66.109375 41.796875 66.109375 
Q 29.296875 66.109375 22.65625 58.46875 
Q 16.015625 50.828125 16.015625 36.375 
Q 16.015625 21.96875 22.65625 14.328125 
Q 29.296875 6.6875 41.796875 6.6875 
Q 48.140625 6.6875 53.78125 8.984375 
Q 59.421875 11.28125 64.40625 15.921875 
L 64.40625 5.609375 
Q 59.234375 2.09375 53.4375 0.328125 
Q 47.65625 -1.421875 41.21875 -1.421875 
Q 24.65625 -1.421875 15.125 8.703125 
Q 5.609375 18.84375 5.609375 36.375 
Q 5.609375 53.953125 15.125 64.078125 
Q 24.65625 74.21875 41.21875 74.21875 
Q 47.75 74.21875 53.53125 72.484375 
Q 59.328125 70.75 64.40625 67.28125 
z
" id="DejaVuSans-43"/>
      <path d="M 30.609375 48.390625 
Q 23.390625 48.390625 19.1875 42.75 
Q 14.984375 37.109375 14.984375 27.296875 
Q 14.984375 17.484375 19.15625 11.84375 
Q 23.34375 6.203125 30.609375 6.203125 
Q 37.796875 6.203125 41.984375 11.859375 
Q 46.1875 17.53125 46.1875 27.296875 
Q 46.1875 37.015625 41.984375 42.703125 
Q 37.796875 48.390625 30.609375 48.390625 
z
M 30.609375 56 
Q 42.328125 56 49.015625 48.375 
Q 55.71875 40.765625 55.71875 27.296875 
Q 55.71875 13.875 49.015625 6.21875 
Q 42.328125 -1.421875 30.609375 -1.421875 
Q 18.84375 -1.421875 12.171875 6.21875 
Q 5.515625 13.875 5.515625 27.296875 
Q 5.515625 40.765625 12.171875 48.375 
Q 18.84375 56 30.609375 56 
z
" id="DejaVuSans-6f"/>
      <path d="M 54.890625 33.015625 
L 54.890625 0 
L 45.90625 0 
L 45.90625 32.71875 
Q 45.90625 40.484375 42.875 44.328125 
Q 39.84375 48.1875 33.796875 48.1875 
Q 26.515625 48.1875 22.3125 43.546875 
Q 18.109375 38.921875 18.109375 30.90625 
L 18.109375 0 
L 9.078125 0 
L 9.078125 54.6875 
L 18.109375 54.6875 
L 18.109375 46.1875 
Q 21.34375 51.125 25.703125 53.5625 
Q 30.078125 56 35.796875 56 
Q 45.21875 56 50.046875 50.171875 
Q 54.890625 44.34375 54.890625 33.015625 
z
" id="DejaVuSans-6e"/>
      <path d="M 9.421875 75.984375 
L 18.40625 75.984375 
L 18.40625 0 
L 9.421875 0 
z
" id="DejaVuSans-6c"/>
      <path d="M 9.8125 72.90625 
L 19.671875 72.90625 
L 19.671875 0 
L 9.8125 0 
z
" id="DejaVuSans-49"/>
      <path d="M 18.109375 8.203125 
L 18.109375 -20.796875 
L 9.078125 -20.796875 
L 9.078125 54.6875 
L 18.109375 54.6875 
L 18.109375 46.390625 
Q 20.953125 51.265625 25.265625 53.625 
Q 29.59375 56 35.59375 56 
Q 45.5625 56 51.78125 48.09375 
Q 58.015625 40.1875 58.015625 27.296875 
Q 58.015625 14.40625 51.78125 6.484375 
Q 45.5625 -1.421875 35.59375 -1.421875 
Q 29.59375 -1.421875 25.265625 0.953125 
Q 20.953125 3.328125 18.109375 8.203125 
z
M 48.6875 27.296875 
Q 48.6875 37.203125 44.609375 42.84375 
Q 40.53125 48.484375 33.40625 48.484375 
Q 26.265625 48.484375 22.1875 42.84375 
Q 18.109375 37.203125 18.109375 27.296875 
Q 18.109375 17.390625 22.1875 11.75 
Q 26.265625 6.109375 33.40625 6.109375 
Q 40.53125 6.109375 44.609375 11.75 
Q 48.6875 17.390625 48.6875 27.296875 
z
" id="DejaVuSans-70"/>
     </defs>
     <g transform="translate(136.275 613.257099)rotate(-90)scale(0.1 -0.1)">
      <use xlink:href="#DejaVuSans-43"/>
      <use x="69.824219" xlink:href="#DejaVuSans-6f"/>
      <use x="131.005859" xlink:href="#DejaVuSans-6e"/>
      <use x="194.384766" xlink:href="#DejaVuSans-74"/>
      <use x="233.59375" xlink:href="#DejaVuSans-72"/>
      <use x="274.675781" xlink:href="#DejaVuSans-6f"/>
      <use x="335.857422" xlink:href="#DejaVuSans-6c"/>
      <use x="363.640625" xlink:href="#DejaVuSans-20"/>
      <use x="395.427734" xlink:href="#DejaVuSans-49"/>
      <use x="424.919922" xlink:href="#DejaVuSans-6e"/>
      <use x="488.298828" xlink:href="#DejaVuSans-70"/>
      <use x="551.775391" xlink:href="#DejaVuSans-75"/>
      <use x="615.154297" xlink:href="#DejaVuSans-74"/>
     </g>
    </g>
   </g>
   <g id="line2d_70">
    <path clip-path="url(#p4929f52cfc)" d="M 230.727273 580.53913 
L 1245.272727 580.53913 
L 1245.272727 580.53913 
" style="fill:none;stroke:#ff0000;stroke-linecap:square;stroke-width:1.5;"/>
   </g>
   <g id="patch_21">
    <path d="M 180 640.8 
L 180 520.278261 
" style="fill:none;stroke:#000000;stroke-linecap:square;stroke-linejoin:miter;stroke-width:0.8;"/>
   </g>
   <g id="patch_22">
    <path d="M 1296 640.8 
L 1296 520.278261 
" style="fill:none;stroke:#000000;stroke-linecap:square;stroke-linejoin:miter;stroke-width:0.8;"/>
   </g>
   <g id="patch_23">
    <path d="M 180 640.8 
L 1296 640.8 
" style="fill:none;stroke:#000000;stroke-linecap:square;stroke-linejoin:miter;stroke-width:0.8;"/>
   </g>
   <g id="patch_24">
    <path d="M 180 520.278261 
L 1296 520.278261 
" style="fill:none;stroke:#000000;stroke-linecap:square;stroke-linejoin:miter;stroke-width:0.8;"/>
   </g>
   <g id="legend_4">
    <g id="patch_25">
     <path d="M 1194.742188 542.956386 
L 1289 542.956386 
Q 1291 542.956386 1291 540.956386 
L 1291 527.278261 
Q 1291 525.278261 1289 525.278261 
L 1194.742188 525.278261 
Q 1192.742188 525.278261 1192.742188 527.278261 
L 1192.742188 540.956386 
Q 1192.742188 542.956386 1194.742188 542.956386 
z
" style="fill:#ffffff;opacity:0.8;stroke:#cccccc;stroke-linejoin:miter;"/>
    </g>
    <g id="line2d_71">
     <path d="M 1196.742188 533.376698 
L 1216.742188 533.376698 
" style="fill:none;stroke:#ff0000;stroke-linecap:square;stroke-width:1.5;"/>
    </g>
    <g id="line2d_72"/>
    <g id="text_64">
     <!-- ControlInput -->
     <g transform="translate(1224.742188 536.876698)scale(0.1 -0.1)">
      <use xlink:href="#DejaVuSans-43"/>
      <use x="69.824219" xlink:href="#DejaVuSans-6f"/>
      <use x="131.005859" xlink:href="#DejaVuSans-6e"/>
      <use x="194.384766" xlink:href="#DejaVuSans-74"/>
      <use x="233.59375" xlink:href="#DejaVuSans-72"/>
      <use x="274.675781" xlink:href="#DejaVuSans-6f"/>
      <use x="335.857422" xlink:href="#DejaVuSans-6c"/>
      <use x="363.640625" xlink:href="#DejaVuSans-49"/>
      <use x="393.132812" xlink:href="#DejaVuSans-6e"/>
      <use x="456.511719" xlink:href="#DejaVuSans-70"/>
      <use x="519.988281" xlink:href="#DejaVuSans-75"/>
      <use x="583.367188" xlink:href="#DejaVuSans-74"/>
     </g>
    </g>
   </g>
  </g>
 </g>
 <defs>
  <clipPath id="p4087b41d1b">
   <rect height="120.521739" width="1116" x="180" y="86.4"/>
  </clipPath>
  <clipPath id="pa737384c08">
   <rect height="120.521739" width="1116" x="180" y="231.026087"/>
  </clipPath>
  <clipPath id="p1569bcf4c7">
   <rect height="120.521739" width="1116" x="180" y="375.652174"/>
  </clipPath>
  <clipPath id="p4929f52cfc">
   <rect height="120.521739" width="1116" x="180" y="520.278261"/>
  </clipPath>
 </defs>
</svg>
