<?xml version="1.0" encoding="utf-8" standalone="no"?>
<!DOCTYPE svg PUBLIC "-//W3C//DTD SVG 1.1//EN"
  "http://www.w3.org/Graphics/SVG/1.1/DTD/svg11.dtd">
<!-- Created with matplotlib (http://matplotlib.org/) -->
<svg height="720pt" version="1.1" viewBox="0 0 1440 720" width="1440pt" xmlns="http://www.w3.org/2000/svg" xmlns:xlink="http://www.w3.org/1999/xlink">
 <defs>
  <style type="text/css">
*{stroke-linecap:butt;stroke-linejoin:round;}
  </style>
 </defs>
 <g id="figure_1">
  <g id="patch_1">
   <path d="M 0 720 
L 1440 720 
L 1440 0 
L 0 0 
z
" style="fill:#ffffff;"/>
  </g>
  <g id="axes_1">
   <g id="patch_2">
    <path d="M 180 206.921739 
L 1296 206.921739 
L 1296 86.4 
L 180 86.4 
z
" style="fill:#ffffff;"/>
   </g>
   <g id="matplotlib.axis_1">
    <g id="xtick_1">
     <g id="line2d_1">
      <defs>
       <path d="M 0 0 
L 0 3.5 
" id="m54cea2019b" style="stroke:#000000;stroke-width:0.8;"/>
      </defs>
      <g>
       <use style="stroke:#000000;stroke-width:0.8;" x="230.727273" xlink:href="#m54cea2019b" y="206.921739"/>
      </g>
     </g>
     <g id="text_1">
      <!-- 0 -->
      <defs>
       <path d="M 31.78125 66.40625 
Q 24.171875 66.40625 20.328125 58.90625 
Q 16.5 51.421875 16.5 36.375 
Q 16.5 21.390625 20.328125 13.890625 
Q 24.171875 6.390625 31.78125 6.390625 
Q 39.453125 6.390625 43.28125 13.890625 
Q 47.125 21.390625 47.125 36.375 
Q 47.125 51.421875 43.28125 58.90625 
Q 39.453125 66.40625 31.78125 66.40625 
z
M 31.78125 74.21875 
Q 44.046875 74.21875 50.515625 64.515625 
Q 56.984375 54.828125 56.984375 36.375 
Q 56.984375 17.96875 50.515625 8.265625 
Q 44.046875 -1.421875 31.78125 -1.421875 
Q 19.53125 -1.421875 13.0625 8.265625 
Q 6.59375 17.96875 6.59375 36.375 
Q 6.59375 54.828125 13.0625 64.515625 
Q 19.53125 74.21875 31.78125 74.21875 
z
" id="DejaVuSans-30"/>
      </defs>
      <g transform="translate(227.546023 221.520177)scale(0.1 -0.1)">
       <use xlink:href="#DejaVuSans-30"/>
      </g>
     </g>
    </g>
    <g id="xtick_2">
     <g id="line2d_2">
      <g>
       <use style="stroke:#000000;stroke-width:0.8;" x="358.182732" xlink:href="#m54cea2019b" y="206.921739"/>
      </g>
     </g>
     <g id="text_2">
      <!-- 25 -->
      <defs>
       <path d="M 19.1875 8.296875 
L 53.609375 8.296875 
L 53.609375 0 
L 7.328125 0 
L 7.328125 8.296875 
Q 12.9375 14.109375 22.625 23.890625 
Q 32.328125 33.6875 34.8125 36.53125 
Q 39.546875 41.84375 41.421875 45.53125 
Q 43.3125 49.21875 43.3125 52.78125 
Q 43.3125 58.59375 39.234375 62.25 
Q 35.15625 65.921875 28.609375 65.921875 
Q 23.96875 65.921875 18.8125 64.3125 
Q 13.671875 62.703125 7.8125 59.421875 
L 7.8125 69.390625 
Q 13.765625 71.78125 18.9375 73 
Q 24.125 74.21875 28.421875 74.21875 
Q 39.75 74.21875 46.484375 68.546875 
Q 53.21875 62.890625 53.21875 53.421875 
Q 53.21875 48.921875 51.53125 44.890625 
Q 49.859375 40.875 45.40625 35.40625 
Q 44.1875 33.984375 37.640625 27.21875 
Q 31.109375 20.453125 19.1875 8.296875 
z
" id="DejaVuSans-32"/>
       <path d="M 10.796875 72.90625 
L 49.515625 72.90625 
L 49.515625 64.59375 
L 19.828125 64.59375 
L 19.828125 46.734375 
Q 21.96875 47.46875 24.109375 47.828125 
Q 26.265625 48.1875 28.421875 48.1875 
Q 40.625 48.1875 47.75 41.5 
Q 54.890625 34.8125 54.890625 23.390625 
Q 54.890625 11.625 47.5625 5.09375 
Q 40.234375 -1.421875 26.90625 -1.421875 
Q 22.3125 -1.421875 17.546875 -0.640625 
Q 12.796875 0.140625 7.71875 1.703125 
L 7.71875 11.625 
Q 12.109375 9.234375 16.796875 8.0625 
Q 21.484375 6.890625 26.703125 6.890625 
Q 35.15625 6.890625 40.078125 11.328125 
Q 45.015625 15.765625 45.015625 23.390625 
Q 45.015625 31 40.078125 35.4375 
Q 35.15625 39.890625 26.703125 39.890625 
Q 22.75 39.890625 18.8125 39.015625 
Q 14.890625 38.140625 10.796875 36.28125 
z
" id="DejaVuSans-35"/>
      </defs>
      <g transform="translate(351.820232 221.520177)scale(0.1 -0.1)">
       <use xlink:href="#DejaVuSans-32"/>
       <use x="63.623047" xlink:href="#DejaVuSans-35"/>
      </g>
     </g>
    </g>
    <g id="xtick_3">
     <g id="line2d_3">
      <g>
       <use style="stroke:#000000;stroke-width:0.8;" x="485.638191" xlink:href="#m54cea2019b" y="206.921739"/>
      </g>
     </g>
     <g id="text_3">
      <!-- 50 -->
      <g transform="translate(479.275691 221.520177)scale(0.1 -0.1)">
       <use xlink:href="#DejaVuSans-35"/>
       <use x="63.623047" xlink:href="#DejaVuSans-30"/>
      </g>
     </g>
    </g>
    <g id="xtick_4">
     <g id="line2d_4">
      <g>
       <use style="stroke:#000000;stroke-width:0.8;" x="613.09365" xlink:href="#m54cea2019b" y="206.921739"/>
      </g>
     </g>
     <g id="text_4">
      <!-- 75 -->
      <defs>
       <path d="M 8.203125 72.90625 
L 55.078125 72.90625 
L 55.078125 68.703125 
L 28.609375 0 
L 18.3125 0 
L 43.21875 64.59375 
L 8.203125 64.59375 
z
" id="DejaVuSans-37"/>
      </defs>
      <g transform="translate(606.73115 221.520177)scale(0.1 -0.1)">
       <use xlink:href="#DejaVuSans-37"/>
       <use x="63.623047" xlink:href="#DejaVuSans-35"/>
      </g>
     </g>
    </g>
    <g id="xtick_5">
     <g id="line2d_5">
      <g>
       <use style="stroke:#000000;stroke-width:0.8;" x="740.549109" xlink:href="#m54cea2019b" y="206.921739"/>
      </g>
     </g>
     <g id="text_5">
      <!-- 100 -->
      <defs>
       <path d="M 12.40625 8.296875 
L 28.515625 8.296875 
L 28.515625 63.921875 
L 10.984375 60.40625 
L 10.984375 69.390625 
L 28.421875 72.90625 
L 38.28125 72.90625 
L 38.28125 8.296875 
L 54.390625 8.296875 
L 54.390625 0 
L 12.40625 0 
z
" id="DejaVuSans-31"/>
      </defs>
      <g transform="translate(731.005359 221.520177)scale(0.1 -0.1)">
       <use xlink:href="#DejaVuSans-31"/>
       <use x="63.623047" xlink:href="#DejaVuSans-30"/>
       <use x="127.246094" xlink:href="#DejaVuSans-30"/>
      </g>
     </g>
    </g>
    <g id="xtick_6">
     <g id="line2d_6">
      <g>
       <use style="stroke:#000000;stroke-width:0.8;" x="868.004568" xlink:href="#m54cea2019b" y="206.921739"/>
      </g>
     </g>
     <g id="text_6">
      <!-- 125 -->
      <g transform="translate(858.460818 221.520177)scale(0.1 -0.1)">
       <use xlink:href="#DejaVuSans-31"/>
       <use x="63.623047" xlink:href="#DejaVuSans-32"/>
       <use x="127.246094" xlink:href="#DejaVuSans-35"/>
      </g>
     </g>
    </g>
    <g id="xtick_7">
     <g id="line2d_7">
      <g>
       <use style="stroke:#000000;stroke-width:0.8;" x="995.460027" xlink:href="#m54cea2019b" y="206.921739"/>
      </g>
     </g>
     <g id="text_7">
      <!-- 150 -->
      <g transform="translate(985.916277 221.520177)scale(0.1 -0.1)">
       <use xlink:href="#DejaVuSans-31"/>
       <use x="63.623047" xlink:href="#DejaVuSans-35"/>
       <use x="127.246094" xlink:href="#DejaVuSans-30"/>
      </g>
     </g>
    </g>
    <g id="xtick_8">
     <g id="line2d_8">
      <g>
       <use style="stroke:#000000;stroke-width:0.8;" x="1122.915487" xlink:href="#m54cea2019b" y="206.921739"/>
      </g>
     </g>
     <g id="text_8">
      <!-- 175 -->
      <g transform="translate(1113.371737 221.520177)scale(0.1 -0.1)">
       <use xlink:href="#DejaVuSans-31"/>
       <use x="63.623047" xlink:href="#DejaVuSans-37"/>
       <use x="127.246094" xlink:href="#DejaVuSans-35"/>
      </g>
     </g>
    </g>
    <g id="xtick_9">
     <g id="line2d_9">
      <g>
       <use style="stroke:#000000;stroke-width:0.8;" x="1250.370946" xlink:href="#m54cea2019b" y="206.921739"/>
      </g>
     </g>
     <g id="text_9">
      <!-- 200 -->
      <g transform="translate(1240.827196 221.520177)scale(0.1 -0.1)">
       <use xlink:href="#DejaVuSans-32"/>
       <use x="63.623047" xlink:href="#DejaVuSans-30"/>
       <use x="127.246094" xlink:href="#DejaVuSans-30"/>
      </g>
     </g>
    </g>
   </g>
   <g id="matplotlib.axis_2">
    <g id="ytick_1">
     <g id="line2d_10">
      <defs>
       <path d="M 0 0 
L -3.5 0 
" id="med6568fb81" style="stroke:#000000;stroke-width:0.8;"/>
      </defs>
      <g>
       <use style="stroke:#000000;stroke-width:0.8;" x="180" xlink:href="#med6568fb81" y="200.363469"/>
      </g>
     </g>
     <g id="text_10">
      <!-- −100 -->
      <defs>
       <path d="M 10.59375 35.5 
L 73.1875 35.5 
L 73.1875 27.203125 
L 10.59375 27.203125 
z
" id="DejaVuSans-2212"/>
      </defs>
      <g transform="translate(145.532813 204.162687)scale(0.1 -0.1)">
       <use xlink:href="#DejaVuSans-2212"/>
       <use x="83.789062" xlink:href="#DejaVuSans-31"/>
       <use x="147.412109" xlink:href="#DejaVuSans-30"/>
       <use x="211.035156" xlink:href="#DejaVuSans-30"/>
      </g>
     </g>
    </g>
    <g id="ytick_2">
     <g id="line2d_11">
      <g>
       <use style="stroke:#000000;stroke-width:0.8;" x="180" xlink:href="#med6568fb81" y="166.704616"/>
      </g>
     </g>
     <g id="text_11">
      <!-- −50 -->
      <g transform="translate(151.895312 170.503835)scale(0.1 -0.1)">
       <use xlink:href="#DejaVuSans-2212"/>
       <use x="83.789062" xlink:href="#DejaVuSans-35"/>
       <use x="147.412109" xlink:href="#DejaVuSans-30"/>
      </g>
     </g>
    </g>
    <g id="ytick_3">
     <g id="line2d_12">
      <g>
       <use style="stroke:#000000;stroke-width:0.8;" x="180" xlink:href="#med6568fb81" y="133.045763"/>
      </g>
     </g>
     <g id="text_12">
      <!-- 0 -->
      <g transform="translate(166.6375 136.844982)scale(0.1 -0.1)">
       <use xlink:href="#DejaVuSans-30"/>
      </g>
     </g>
    </g>
    <g id="ytick_4">
     <g id="line2d_13">
      <g>
       <use style="stroke:#000000;stroke-width:0.8;" x="180" xlink:href="#med6568fb81" y="99.386911"/>
      </g>
     </g>
     <g id="text_13">
      <!-- 50 -->
      <g transform="translate(160.275 103.186129)scale(0.1 -0.1)">
       <use xlink:href="#DejaVuSans-35"/>
       <use x="63.623047" xlink:href="#DejaVuSans-30"/>
      </g>
     </g>
    </g>
    <g id="text_14">
     <!-- TD State:0 -->
     <defs>
      <path d="M -0.296875 72.90625 
L 61.375 72.90625 
L 61.375 64.59375 
L 35.5 64.59375 
L 35.5 0 
L 25.59375 0 
L 25.59375 64.59375 
L -0.296875 64.59375 
z
" id="DejaVuSans-54"/>
      <path d="M 19.671875 64.796875 
L 19.671875 8.109375 
L 31.59375 8.109375 
Q 46.6875 8.109375 53.6875 14.9375 
Q 60.6875 21.78125 60.6875 36.53125 
Q 60.6875 51.171875 53.6875 57.984375 
Q 46.6875 64.796875 31.59375 64.796875 
z
M 9.8125 72.90625 
L 30.078125 72.90625 
Q 51.265625 72.90625 61.171875 64.09375 
Q 71.09375 55.28125 71.09375 36.53125 
Q 71.09375 17.671875 61.125 8.828125 
Q 51.171875 0 30.078125 0 
L 9.8125 0 
z
" id="DejaVuSans-44"/>
      <path id="DejaVuSans-20"/>
      <path d="M 53.515625 70.515625 
L 53.515625 60.890625 
Q 47.90625 63.578125 42.921875 64.890625 
Q 37.9375 66.21875 33.296875 66.21875 
Q 25.25 66.21875 20.875 63.09375 
Q 16.5 59.96875 16.5 54.203125 
Q 16.5 49.359375 19.40625 46.890625 
Q 22.3125 44.4375 30.421875 42.921875 
L 36.375 41.703125 
Q 47.40625 39.59375 52.65625 34.296875 
Q 57.90625 29 57.90625 20.125 
Q 57.90625 9.515625 50.796875 4.046875 
Q 43.703125 -1.421875 29.984375 -1.421875 
Q 24.8125 -1.421875 18.96875 -0.25 
Q 13.140625 0.921875 6.890625 3.21875 
L 6.890625 13.375 
Q 12.890625 10.015625 18.65625 8.296875 
Q 24.421875 6.59375 29.984375 6.59375 
Q 38.421875 6.59375 43.015625 9.90625 
Q 47.609375 13.234375 47.609375 19.390625 
Q 47.609375 24.75 44.3125 27.78125 
Q 41.015625 30.8125 33.5 32.328125 
L 27.484375 33.5 
Q 16.453125 35.6875 11.515625 40.375 
Q 6.59375 45.0625 6.59375 53.421875 
Q 6.59375 63.09375 13.40625 68.65625 
Q 20.21875 74.21875 32.171875 74.21875 
Q 37.3125 74.21875 42.625 73.28125 
Q 47.953125 72.359375 53.515625 70.515625 
z
" id="DejaVuSans-53"/>
      <path d="M 18.3125 70.21875 
L 18.3125 54.6875 
L 36.8125 54.6875 
L 36.8125 47.703125 
L 18.3125 47.703125 
L 18.3125 18.015625 
Q 18.3125 11.328125 20.140625 9.421875 
Q 21.96875 7.515625 27.59375 7.515625 
L 36.8125 7.515625 
L 36.8125 0 
L 27.59375 0 
Q 17.1875 0 13.234375 3.875 
Q 9.28125 7.765625 9.28125 18.015625 
L 9.28125 47.703125 
L 2.6875 47.703125 
L 2.6875 54.6875 
L 9.28125 54.6875 
L 9.28125 70.21875 
z
" id="DejaVuSans-74"/>
      <path d="M 34.28125 27.484375 
Q 23.390625 27.484375 19.1875 25 
Q 14.984375 22.515625 14.984375 16.5 
Q 14.984375 11.71875 18.140625 8.90625 
Q 21.296875 6.109375 26.703125 6.109375 
Q 34.1875 6.109375 38.703125 11.40625 
Q 43.21875 16.703125 43.21875 25.484375 
L 43.21875 27.484375 
z
M 52.203125 31.203125 
L 52.203125 0 
L 43.21875 0 
L 43.21875 8.296875 
Q 40.140625 3.328125 35.546875 0.953125 
Q 30.953125 -1.421875 24.3125 -1.421875 
Q 15.921875 -1.421875 10.953125 3.296875 
Q 6 8.015625 6 15.921875 
Q 6 25.140625 12.171875 29.828125 
Q 18.359375 34.515625 30.609375 34.515625 
L 43.21875 34.515625 
L 43.21875 35.40625 
Q 43.21875 41.609375 39.140625 45 
Q 35.0625 48.390625 27.6875 48.390625 
Q 23 48.390625 18.546875 47.265625 
Q 14.109375 46.140625 10.015625 43.890625 
L 10.015625 52.203125 
Q 14.9375 54.109375 19.578125 55.046875 
Q 24.21875 56 28.609375 56 
Q 40.484375 56 46.34375 49.84375 
Q 52.203125 43.703125 52.203125 31.203125 
z
" id="DejaVuSans-61"/>
      <path d="M 56.203125 29.59375 
L 56.203125 25.203125 
L 14.890625 25.203125 
Q 15.484375 15.921875 20.484375 11.0625 
Q 25.484375 6.203125 34.421875 6.203125 
Q 39.59375 6.203125 44.453125 7.46875 
Q 49.3125 8.734375 54.109375 11.28125 
L 54.109375 2.78125 
Q 49.265625 0.734375 44.1875 -0.34375 
Q 39.109375 -1.421875 33.890625 -1.421875 
Q 20.796875 -1.421875 13.15625 6.1875 
Q 5.515625 13.8125 5.515625 26.8125 
Q 5.515625 40.234375 12.765625 48.109375 
Q 20.015625 56 32.328125 56 
Q 43.359375 56 49.78125 48.890625 
Q 56.203125 41.796875 56.203125 29.59375 
z
M 47.21875 32.234375 
Q 47.125 39.59375 43.09375 43.984375 
Q 39.0625 48.390625 32.421875 48.390625 
Q 24.90625 48.390625 20.390625 44.140625 
Q 15.875 39.890625 15.1875 32.171875 
z
" id="DejaVuSans-65"/>
      <path d="M 11.71875 12.40625 
L 22.015625 12.40625 
L 22.015625 0 
L 11.71875 0 
z
M 11.71875 51.703125 
L 22.015625 51.703125 
L 22.015625 39.3125 
L 11.71875 39.3125 
z
" id="DejaVuSans-3a"/>
     </defs>
     <g transform="translate(139.453125 173.25462)rotate(-90)scale(0.1 -0.1)">
      <use xlink:href="#DejaVuSans-54"/>
      <use x="61.083984" xlink:href="#DejaVuSans-44"/>
      <use x="138.085938" xlink:href="#DejaVuSans-20"/>
      <use x="169.873047" xlink:href="#DejaVuSans-53"/>
      <use x="233.349609" xlink:href="#DejaVuSans-74"/>
      <use x="272.558594" xlink:href="#DejaVuSans-61"/>
      <use x="333.837891" xlink:href="#DejaVuSans-74"/>
      <use x="373.046875" xlink:href="#DejaVuSans-65"/>
      <use x="434.570312" xlink:href="#DejaVuSans-3a"/>
      <use x="468.261719" xlink:href="#DejaVuSans-30"/>
     </g>
    </g>
   </g>
   <g id="line2d_14">
    <path clip-path="url(#p183d767434)" d="M 230.727273 201.443478 
L 235.825491 141.656261 
L 240.923709 156.915221 
L 246.021928 113.696952 
L 256.218365 131.274626 
L 261.316583 130.354781 
L 266.414801 91.878261 
L 271.51302 140.465782 
L 276.611238 133.367016 
L 281.709456 135.712329 
L 286.807675 133.412606 
L 291.905893 134.251103 
L 297.004111 134.248851 
L 302.10233 133.025148 
L 307.200548 135.654298 
L 312.298767 136.142951 
L 317.396985 133.92998 
L 322.495203 129.799859 
L 327.593422 134.604109 
L 332.69164 130.182217 
L 337.789858 136.353111 
L 342.888077 133.347315 
L 347.986295 134.232 
L 353.084513 132.136733 
L 358.182732 131.206533 
L 363.28095 134.464192 
L 368.379169 132.591609 
L 373.477387 135.375541 
L 378.575605 135.023998 
L 388.772042 133.857059 
L 393.87026 132.890807 
L 398.968479 132.836834 
L 404.066697 132.632745 
L 444.852444 132.338247 
L 449.950662 133.41036 
L 455.048881 133.032551 
L 460.147099 133.475353 
L 465.245317 134.463163 
L 470.343536 133.544457 
L 475.441754 130.400042 
L 480.539973 134.062256 
L 485.638191 133.59373 
L 490.736409 134.626143 
L 495.834628 128.762852 
L 500.932846 134.855174 
L 506.031064 134.095539 
L 511.129283 132.665794 
L 516.227501 131.748266 
L 521.32572 132.992762 
L 526.423938 134.006452 
L 531.522156 130.977158 
L 536.620375 133.593168 
L 541.718593 129.86435 
L 546.816811 133.11616 
L 551.91503 133.340782 
L 562.111466 134.274632 
L 567.209685 132.709262 
L 572.307903 133.814014 
L 577.406122 131.870222 
L 582.50434 134.699454 
L 587.602558 130.541824 
L 592.700777 134.288749 
L 597.798995 132.995323 
L 602.897213 133.402412 
L 607.995432 134.593698 
L 613.09365 132.373169 
L 618.191868 131.440816 
L 623.290087 132.238865 
L 628.388305 133.49537 
L 633.486524 129.00538 
L 638.584742 133.397739 
L 643.68296 129.231416 
L 648.781179 132.85327 
L 653.879397 134.27771 
L 658.977615 134.27655 
L 664.075834 134.506804 
L 669.174052 131.261035 
L 674.27227 132.219154 
L 679.370489 131.721376 
L 684.468707 132.131039 
L 689.566926 131.24419 
L 694.665144 132.382432 
L 699.763362 130.488023 
L 704.861581 132.302619 
L 709.959799 132.910394 
L 715.058017 132.585922 
L 720.156236 130.562768 
L 725.254454 130.207128 
L 730.352672 135.748305 
L 735.450891 134.72848 
L 740.549109 134.006323 
L 745.647328 133.753131 
L 750.745546 134.719771 
L 755.843764 134.68422 
L 760.941983 134.060538 
L 766.040201 132.938882 
L 771.138419 127.27786 
L 776.236638 132.498101 
L 781.334856 131.675508 
L 786.433074 132.968618 
L 791.531293 132.875204 
L 796.629511 134.013569 
L 806.825948 132.408042 
L 811.924166 133.662964 
L 822.120603 133.606937 
L 827.218821 132.775689 
L 832.31704 133.004862 
L 842.513476 133.108546 
L 847.611695 132.900135 
L 857.808132 132.985476 
L 862.90635 132.330145 
L 868.004568 128.456205 
L 873.102787 132.241396 
L 878.201005 132.210181 
L 883.299223 131.03279 
L 888.397442 132.355775 
L 893.49566 131.585218 
L 898.593878 136.438919 
L 903.692097 129.153612 
L 908.790315 133.920552 
L 913.888534 131.48447 
L 918.986752 131.94268 
L 924.08497 133.978944 
L 929.183189 131.44491 
L 934.281407 132.630869 
L 939.379625 132.318297 
L 944.477844 132.843621 
L 949.576062 133.802781 
L 954.67428 131.289797 
L 959.772499 131.887487 
L 964.870717 133.637652 
L 969.968936 129.617699 
L 975.067154 131.681916 
L 980.165372 133.428312 
L 985.263591 136.753516 
L 990.361809 135.061888 
L 995.460027 133.525639 
L 1000.558246 131.06444 
L 1005.656464 132.873846 
L 1010.754683 131.588186 
L 1015.852901 132.953901 
L 1020.951119 131.784635 
L 1026.049338 131.410392 
L 1031.147556 132.992272 
L 1041.343993 134.00399 
L 1046.442211 131.835002 
L 1051.540429 133.322895 
L 1056.638648 132.663383 
L 1061.736866 133.219378 
L 1066.835085 132.477462 
L 1071.933303 131.211707 
L 1077.031521 130.667609 
L 1082.12974 134.648284 
L 1087.227958 134.866833 
L 1092.326176 133.902923 
L 1097.424395 132.008581 
L 1102.522613 129.190278 
L 1107.620831 131.117384 
L 1112.71905 136.151376 
L 1117.817268 136.206276 
L 1122.915487 133.173637 
L 1128.013705 130.654876 
L 1133.111923 132.392907 
L 1138.210142 132.463051 
L 1143.30836 135.014553 
L 1148.406578 133.540829 
L 1153.504797 132.945918 
L 1158.603015 131.823223 
L 1163.701233 131.960718 
L 1168.799452 132.485366 
L 1173.89767 133.478152 
L 1178.995889 133.2014 
L 1184.094107 131.6356 
L 1189.192325 132.554967 
L 1194.290544 133.203839 
L 1199.388762 134.275214 
L 1204.48698 131.105082 
L 1209.585199 131.14064 
L 1214.683417 134.646099 
L 1219.781635 131.245537 
L 1224.879854 134.165396 
L 1229.978072 130.488337 
L 1235.076291 137.70123 
L 1240.174509 129.839942 
L 1245.272727 132.057656 
L 1245.272727 132.057656 
" style="fill:none;stroke:#000000;stroke-linecap:square;stroke-width:4;"/>
   </g>
   <g id="line2d_15">
    <path clip-path="url(#p183d767434)" d="M 230.727273 133.382352 
L 235.825491 133.045763 
L 251.120146 133.045763 
L 256.218365 144.321479 
L 261.316583 133.382352 
L 266.414801 133.045763 
L 271.51302 142.133653 
L 276.611238 131.194526 
L 281.709456 145.607247 
L 286.807675 132.143706 
L 291.905893 134.122847 
L 297.004111 132.944787 
L 302.10233 129.727 
L 307.200548 133.49006 
L 312.298767 133.045763 
L 317.396985 149.38377 
L 322.495203 131.517651 
L 327.593422 134.338263 
L 332.69164 132.944787 
L 337.789858 141.615307 
L 342.888077 132.709175 
L 347.986295 144.321479 
L 353.084513 136.07506 
L 358.182732 132.938055 
L 363.28095 133.153472 
L 368.379169 133.045763 
L 373.477387 133.214058 
L 378.575605 133.045763 
L 398.968479 133.045763 
L 404.066697 132.769761 
L 409.164915 133.045763 
L 424.459571 133.045763 
L 429.557789 133.294839 
L 434.656007 133.106349 
L 439.754226 147.714291 
L 444.852444 134.822951 
L 449.950662 133.025568 
L 460.147099 133.052495 
L 465.245317 149.282794 
L 470.343536 132.029266 
L 475.441754 133.045763 
L 480.539973 133.550646 
L 485.638191 133.665086 
L 490.736409 132.42644 
L 495.834628 133.045763 
L 500.932846 147.646974 
L 506.031064 137.360828 
L 511.129283 132.50049 
L 516.227501 132.985177 
L 521.32572 131.012769 
L 526.423938 138.384057 
L 531.522156 133.092886 
L 536.620375 147.222872 
L 541.718593 132.964982 
L 546.816811 134.47963 
L 551.91503 133.045763 
L 557.013248 134.230555 
L 562.111466 133.712209 
L 567.209685 133.045763 
L 572.307903 148.979864 
L 577.406122 130.406909 
L 587.602558 133.887235 
L 592.700777 132.372586 
L 597.798995 137.55605 
L 602.897213 133.160203 
L 607.995432 140.679591 
L 613.09365 132.91786 
L 618.191868 133.308302 
L 623.290087 132.944787 
L 628.388305 147.458484 
L 633.486524 133.409279 
L 638.584742 138.559083 
L 643.68296 131.261844 
L 648.781179 133.382352 
L 653.879397 133.045763 
L 664.075834 133.045763 
L 674.27227 132.749565 
L 679.370489 135.213393 
L 684.468707 133.045763 
L 689.566926 132.251414 
L 694.665144 147.640242 
L 699.763362 130.635789 
L 704.861581 133.712209 
L 709.959799 133.624696 
L 715.058017 132.810151 
L 720.156236 150.198315 
L 725.254454 133.308302 
L 730.352672 133.624696 
L 735.450891 133.039032 
L 740.549109 135.516323 
L 745.647328 132.648589 
L 750.745546 134.55368 
L 755.843764 132.924591 
L 760.941983 133.045763 
L 766.040201 141.062629 
L 771.138419 133.045763 
L 776.236638 133.053168 
L 781.334856 135.075392 
L 786.433074 132.976426 
L 796.629511 133.100964 
L 801.72773 133.0599 
L 806.825948 132.880162 
L 811.924166 133.053841 
L 822.120603 132.776492 
L 827.218821 132.978446 
L 832.31704 132.67417 
L 837.415258 132.938055 
L 842.513476 132.878142 
L 847.611695 133.150106 
L 852.709913 134.099959 
L 857.808132 132.264878 
L 862.90635 140.178074 
L 868.004568 133.587671 
L 873.102787 132.978446 
L 878.201005 132.978446 
L 883.299223 131.160868 
L 888.397442 133.382352 
L 893.49566 132.54088 
L 898.593878 132.877469 
L 903.692097 133.028934 
L 908.790315 133.016817 
L 913.888534 134.308643 
L 918.986752 133.115101 
L 924.08497 134.990572 
L 929.183189 134.291141 
L 934.281407 136.666783 
L 939.379625 133.304936 
L 944.477844 133.440245 
L 949.576062 133.022202 
L 954.67428 142.872129 
L 959.772499 133.677203 
L 969.968936 133.045763 
L 975.067154 127.492053 
L 980.165372 133.045763 
L 985.263591 132.981811 
L 990.361809 134.633788 
L 995.460027 133.045763 
L 1000.558246 135.392458 
L 1005.656464 133.045763 
L 1010.754683 134.392117 
L 1015.852901 133.87983 
L 1020.951119 133.006719 
L 1026.049338 135.296867 
L 1031.147556 133.042397 
L 1051.540429 133.001334 
L 1056.638648 133.566129 
L 1061.736866 133.045763 
L 1066.835085 132.931996 
L 1071.933303 133.045763 
L 1077.031521 133.045763 
L 1082.12974 134.98384 
L 1087.227958 135.774823 
L 1092.326176 132.754278 
L 1097.424395 133.382352 
L 1102.522613 132.931996 
L 1107.620831 133.15953 
L 1112.71905 133.045763 
L 1117.817268 132.372586 
L 1122.915487 133.045763 
L 1133.111923 133.045763 
L 1138.210142 132.709175 
L 1143.30836 132.709175 
L 1148.406578 133.542568 
L 1153.504797 132.885547 
L 1158.603015 130.353055 
L 1163.701233 132.934689 
L 1168.799452 133.056534 
L 1173.89767 133.027587 
L 1178.995889 132.732736 
L 1184.094107 133.282048 
L 1189.192325 132.769761 
L 1194.290544 132.84381 
L 1199.388762 132.709175 
L 1204.48698 133.780199 
L 1209.585199 132.311327 
L 1214.683417 133.045763 
L 1219.781635 133.045763 
L 1224.879854 135.738471 
L 1229.978072 133.951186 
L 1235.076291 135.136651 
L 1240.174509 132.136301 
L 1245.272727 133.565456 
L 1245.272727 133.565456 
" style="fill:none;stroke:#ff0000;stroke-linecap:square;stroke-width:1.5;"/>
   </g>
   <g id="patch_3">
    <path d="M 180 206.921739 
L 180 86.4 
" style="fill:none;stroke:#000000;stroke-linecap:square;stroke-linejoin:miter;stroke-width:0.8;"/>
   </g>
   <g id="patch_4">
    <path d="M 1296 206.921739 
L 1296 86.4 
" style="fill:none;stroke:#000000;stroke-linecap:square;stroke-linejoin:miter;stroke-width:0.8;"/>
   </g>
   <g id="patch_5">
    <path d="M 180 206.921739 
L 1296 206.921739 
" style="fill:none;stroke:#000000;stroke-linecap:square;stroke-linejoin:miter;stroke-width:0.8;"/>
   </g>
   <g id="patch_6">
    <path d="M 180 86.4 
L 1296 86.4 
" style="fill:none;stroke:#000000;stroke-linecap:square;stroke-linejoin:miter;stroke-width:0.8;"/>
   </g>
   <g id="legend_1">
    <g id="patch_7">
     <path d="M 1234.3125 123.75625 
L 1289 123.75625 
Q 1291 123.75625 1291 121.75625 
L 1291 93.4 
Q 1291 91.4 1289 91.4 
L 1234.3125 91.4 
Q 1232.3125 91.4 1232.3125 93.4 
L 1232.3125 121.75625 
Q 1232.3125 123.75625 1234.3125 123.75625 
z
" style="fill:#ffffff;opacity:0.8;stroke:#cccccc;stroke-linejoin:miter;"/>
    </g>
    <g id="line2d_16">
     <path d="M 1236.3125 99.498438 
L 1256.3125 99.498438 
" style="fill:none;stroke:#000000;stroke-linecap:square;stroke-width:4;"/>
    </g>
    <g id="line2d_17"/>
    <g id="text_15">
     <!-- Pred -->
     <defs>
      <path d="M 19.671875 64.796875 
L 19.671875 37.40625 
L 32.078125 37.40625 
Q 38.96875 37.40625 42.71875 40.96875 
Q 46.484375 44.53125 46.484375 51.125 
Q 46.484375 57.671875 42.71875 61.234375 
Q 38.96875 64.796875 32.078125 64.796875 
z
M 9.8125 72.90625 
L 32.078125 72.90625 
Q 44.34375 72.90625 50.609375 67.359375 
Q 56.890625 61.8125 56.890625 51.125 
Q 56.890625 40.328125 50.609375 34.8125 
Q 44.34375 29.296875 32.078125 29.296875 
L 19.671875 29.296875 
L 19.671875 0 
L 9.8125 0 
z
" id="DejaVuSans-50"/>
      <path d="M 41.109375 46.296875 
Q 39.59375 47.171875 37.8125 47.578125 
Q 36.03125 48 33.890625 48 
Q 26.265625 48 22.1875 43.046875 
Q 18.109375 38.09375 18.109375 28.8125 
L 18.109375 0 
L 9.078125 0 
L 9.078125 54.6875 
L 18.109375 54.6875 
L 18.109375 46.1875 
Q 20.953125 51.171875 25.484375 53.578125 
Q 30.03125 56 36.53125 56 
Q 37.453125 56 38.578125 55.875 
Q 39.703125 55.765625 41.0625 55.515625 
z
" id="DejaVuSans-72"/>
      <path d="M 45.40625 46.390625 
L 45.40625 75.984375 
L 54.390625 75.984375 
L 54.390625 0 
L 45.40625 0 
L 45.40625 8.203125 
Q 42.578125 3.328125 38.25 0.953125 
Q 33.9375 -1.421875 27.875 -1.421875 
Q 17.96875 -1.421875 11.734375 6.484375 
Q 5.515625 14.40625 5.515625 27.296875 
Q 5.515625 40.1875 11.734375 48.09375 
Q 17.96875 56 27.875 56 
Q 33.9375 56 38.25 53.625 
Q 42.578125 51.265625 45.40625 46.390625 
z
M 14.796875 27.296875 
Q 14.796875 17.390625 18.875 11.75 
Q 22.953125 6.109375 30.078125 6.109375 
Q 37.203125 6.109375 41.296875 11.75 
Q 45.40625 17.390625 45.40625 27.296875 
Q 45.40625 37.203125 41.296875 42.84375 
Q 37.203125 48.484375 30.078125 48.484375 
Q 22.953125 48.484375 18.875 42.84375 
Q 14.796875 37.203125 14.796875 27.296875 
z
" id="DejaVuSans-64"/>
     </defs>
     <g transform="translate(1264.3125 102.998438)scale(0.1 -0.1)">
      <use xlink:href="#DejaVuSans-50"/>
      <use x="60.287109" xlink:href="#DejaVuSans-72"/>
      <use x="101.369141" xlink:href="#DejaVuSans-65"/>
      <use x="162.892578" xlink:href="#DejaVuSans-64"/>
     </g>
    </g>
    <g id="line2d_18">
     <path d="M 1236.3125 114.176563 
L 1256.3125 114.176563 
" style="fill:none;stroke:#ff0000;stroke-linecap:square;stroke-width:1.5;"/>
    </g>
    <g id="line2d_19"/>
    <g id="text_16">
     <!-- True -->
     <defs>
      <path d="M 8.5 21.578125 
L 8.5 54.6875 
L 17.484375 54.6875 
L 17.484375 21.921875 
Q 17.484375 14.15625 20.5 10.265625 
Q 23.53125 6.390625 29.59375 6.390625 
Q 36.859375 6.390625 41.078125 11.03125 
Q 45.3125 15.671875 45.3125 23.6875 
L 45.3125 54.6875 
L 54.296875 54.6875 
L 54.296875 0 
L 45.3125 0 
L 45.3125 8.40625 
Q 42.046875 3.421875 37.71875 1 
Q 33.40625 -1.421875 27.6875 -1.421875 
Q 18.265625 -1.421875 13.375 4.4375 
Q 8.5 10.296875 8.5 21.578125 
z
M 31.109375 56 
z
" id="DejaVuSans-75"/>
     </defs>
     <g transform="translate(1264.3125 117.676563)scale(0.1 -0.1)">
      <use xlink:href="#DejaVuSans-54"/>
      <use x="60.865234" xlink:href="#DejaVuSans-72"/>
      <use x="101.978516" xlink:href="#DejaVuSans-75"/>
      <use x="165.357422" xlink:href="#DejaVuSans-65"/>
     </g>
    </g>
   </g>
  </g>
  <g id="axes_2">
   <g id="patch_8">
    <path d="M 180 351.547826 
L 1296 351.547826 
L 1296 231.026087 
L 180 231.026087 
z
" style="fill:#ffffff;"/>
   </g>
   <g id="matplotlib.axis_3">
    <g id="xtick_10">
     <g id="line2d_20">
      <g>
       <use style="stroke:#000000;stroke-width:0.8;" x="230.727273" xlink:href="#m54cea2019b" y="351.547826"/>
      </g>
     </g>
     <g id="text_17">
      <!-- 0 -->
      <g transform="translate(227.546023 366.146264)scale(0.1 -0.1)">
       <use xlink:href="#DejaVuSans-30"/>
      </g>
     </g>
    </g>
    <g id="xtick_11">
     <g id="line2d_21">
      <g>
       <use style="stroke:#000000;stroke-width:0.8;" x="358.182732" xlink:href="#m54cea2019b" y="351.547826"/>
      </g>
     </g>
     <g id="text_18">
      <!-- 25 -->
      <g transform="translate(351.820232 366.146264)scale(0.1 -0.1)">
       <use xlink:href="#DejaVuSans-32"/>
       <use x="63.623047" xlink:href="#DejaVuSans-35"/>
      </g>
     </g>
    </g>
    <g id="xtick_12">
     <g id="line2d_22">
      <g>
       <use style="stroke:#000000;stroke-width:0.8;" x="485.638191" xlink:href="#m54cea2019b" y="351.547826"/>
      </g>
     </g>
     <g id="text_19">
      <!-- 50 -->
      <g transform="translate(479.275691 366.146264)scale(0.1 -0.1)">
       <use xlink:href="#DejaVuSans-35"/>
       <use x="63.623047" xlink:href="#DejaVuSans-30"/>
      </g>
     </g>
    </g>
    <g id="xtick_13">
     <g id="line2d_23">
      <g>
       <use style="stroke:#000000;stroke-width:0.8;" x="613.09365" xlink:href="#m54cea2019b" y="351.547826"/>
      </g>
     </g>
     <g id="text_20">
      <!-- 75 -->
      <g transform="translate(606.73115 366.146264)scale(0.1 -0.1)">
       <use xlink:href="#DejaVuSans-37"/>
       <use x="63.623047" xlink:href="#DejaVuSans-35"/>
      </g>
     </g>
    </g>
    <g id="xtick_14">
     <g id="line2d_24">
      <g>
       <use style="stroke:#000000;stroke-width:0.8;" x="740.549109" xlink:href="#m54cea2019b" y="351.547826"/>
      </g>
     </g>
     <g id="text_21">
      <!-- 100 -->
      <g transform="translate(731.005359 366.146264)scale(0.1 -0.1)">
       <use xlink:href="#DejaVuSans-31"/>
       <use x="63.623047" xlink:href="#DejaVuSans-30"/>
       <use x="127.246094" xlink:href="#DejaVuSans-30"/>
      </g>
     </g>
    </g>
    <g id="xtick_15">
     <g id="line2d_25">
      <g>
       <use style="stroke:#000000;stroke-width:0.8;" x="868.004568" xlink:href="#m54cea2019b" y="351.547826"/>
      </g>
     </g>
     <g id="text_22">
      <!-- 125 -->
      <g transform="translate(858.460818 366.146264)scale(0.1 -0.1)">
       <use xlink:href="#DejaVuSans-31"/>
       <use x="63.623047" xlink:href="#DejaVuSans-32"/>
       <use x="127.246094" xlink:href="#DejaVuSans-35"/>
      </g>
     </g>
    </g>
    <g id="xtick_16">
     <g id="line2d_26">
      <g>
       <use style="stroke:#000000;stroke-width:0.8;" x="995.460027" xlink:href="#m54cea2019b" y="351.547826"/>
      </g>
     </g>
     <g id="text_23">
      <!-- 150 -->
      <g transform="translate(985.916277 366.146264)scale(0.1 -0.1)">
       <use xlink:href="#DejaVuSans-31"/>
       <use x="63.623047" xlink:href="#DejaVuSans-35"/>
       <use x="127.246094" xlink:href="#DejaVuSans-30"/>
      </g>
     </g>
    </g>
    <g id="xtick_17">
     <g id="line2d_27">
      <g>
       <use style="stroke:#000000;stroke-width:0.8;" x="1122.915487" xlink:href="#m54cea2019b" y="351.547826"/>
      </g>
     </g>
     <g id="text_24">
      <!-- 175 -->
      <g transform="translate(1113.371737 366.146264)scale(0.1 -0.1)">
       <use xlink:href="#DejaVuSans-31"/>
       <use x="63.623047" xlink:href="#DejaVuSans-37"/>
       <use x="127.246094" xlink:href="#DejaVuSans-35"/>
      </g>
     </g>
    </g>
    <g id="xtick_18">
     <g id="line2d_28">
      <g>
       <use style="stroke:#000000;stroke-width:0.8;" x="1250.370946" xlink:href="#m54cea2019b" y="351.547826"/>
      </g>
     </g>
     <g id="text_25">
      <!-- 200 -->
      <g transform="translate(1240.827196 366.146264)scale(0.1 -0.1)">
       <use xlink:href="#DejaVuSans-32"/>
       <use x="63.623047" xlink:href="#DejaVuSans-30"/>
       <use x="127.246094" xlink:href="#DejaVuSans-30"/>
      </g>
     </g>
    </g>
   </g>
   <g id="matplotlib.axis_4">
    <g id="ytick_5">
     <g id="line2d_29">
      <g>
       <use style="stroke:#000000;stroke-width:0.8;" x="180" xlink:href="#med6568fb81" y="338.57695"/>
      </g>
     </g>
     <g id="text_26">
      <!-- −100 -->
      <g transform="translate(145.532813 342.376168)scale(0.1 -0.1)">
       <use xlink:href="#DejaVuSans-2212"/>
       <use x="83.789062" xlink:href="#DejaVuSans-31"/>
       <use x="147.412109" xlink:href="#DejaVuSans-30"/>
       <use x="211.035156" xlink:href="#DejaVuSans-30"/>
      </g>
     </g>
    </g>
    <g id="ytick_6">
     <g id="line2d_30">
      <g>
       <use style="stroke:#000000;stroke-width:0.8;" x="180" xlink:href="#med6568fb81" y="307.007838"/>
      </g>
     </g>
     <g id="text_27">
      <!-- −50 -->
      <g transform="translate(151.895312 310.807057)scale(0.1 -0.1)">
       <use xlink:href="#DejaVuSans-2212"/>
       <use x="83.789062" xlink:href="#DejaVuSans-35"/>
       <use x="147.412109" xlink:href="#DejaVuSans-30"/>
      </g>
     </g>
    </g>
    <g id="ytick_7">
     <g id="line2d_31">
      <g>
       <use style="stroke:#000000;stroke-width:0.8;" x="180" xlink:href="#med6568fb81" y="275.438726"/>
      </g>
     </g>
     <g id="text_28">
      <!-- 0 -->
      <g transform="translate(166.6375 279.237945)scale(0.1 -0.1)">
       <use xlink:href="#DejaVuSans-30"/>
      </g>
     </g>
    </g>
    <g id="ytick_8">
     <g id="line2d_32">
      <g>
       <use style="stroke:#000000;stroke-width:0.8;" x="180" xlink:href="#med6568fb81" y="243.869615"/>
      </g>
     </g>
     <g id="text_29">
      <!-- 50 -->
      <g transform="translate(160.275 247.668834)scale(0.1 -0.1)">
       <use xlink:href="#DejaVuSans-35"/>
       <use x="63.623047" xlink:href="#DejaVuSans-30"/>
      </g>
     </g>
    </g>
    <g id="text_30">
     <!-- TD State:1 -->
     <g transform="translate(139.453125 317.880707)rotate(-90)scale(0.1 -0.1)">
      <use xlink:href="#DejaVuSans-54"/>
      <use x="61.083984" xlink:href="#DejaVuSans-44"/>
      <use x="138.085938" xlink:href="#DejaVuSans-20"/>
      <use x="169.873047" xlink:href="#DejaVuSans-53"/>
      <use x="233.349609" xlink:href="#DejaVuSans-74"/>
      <use x="272.558594" xlink:href="#DejaVuSans-61"/>
      <use x="333.837891" xlink:href="#DejaVuSans-74"/>
      <use x="373.046875" xlink:href="#DejaVuSans-65"/>
      <use x="434.570312" xlink:href="#DejaVuSans-3a"/>
      <use x="468.261719" xlink:href="#DejaVuSans-31"/>
     </g>
    </g>
   </g>
   <g id="line2d_33">
    <path clip-path="url(#pd207fcc1f9)" d="M 230.727273 346.069565 
L 235.825491 288.548574 
L 240.923709 327.080289 
L 246.021928 287.037975 
L 251.120146 266.535558 
L 256.218365 256.800757 
L 261.316583 248.95688 
L 266.414801 236.504348 
L 271.51302 277.251867 
L 276.611238 274.745764 
L 281.709456 278.270588 
L 286.807675 274.831042 
L 291.905893 277.76271 
L 297.004111 279.353081 
L 302.10233 280.097588 
L 307.200548 278.135752 
L 312.298767 281.132848 
L 322.495203 276.374623 
L 327.593422 278.568655 
L 332.69164 276.908842 
L 337.789858 279.586377 
L 342.888077 279.0166 
L 347.986295 280.009791 
L 353.084513 276.664781 
L 358.182732 277.58477 
L 363.28095 276.187686 
L 368.379169 277.79874 
L 373.477387 278.574965 
L 378.575605 280.29995 
L 383.673824 279.322027 
L 388.772042 279.815857 
L 393.87026 277.721453 
L 398.968479 277.541035 
L 404.066697 278.289749 
L 409.164915 278.215068 
L 419.361352 278.262755 
L 424.459571 278.140502 
L 429.557789 278.211148 
L 434.656007 277.673372 
L 439.754226 278.023086 
L 444.852444 273.861113 
L 449.950662 276.29486 
L 455.048881 275.107213 
L 460.147099 276.905114 
L 465.245317 279.403061 
L 470.343536 277.08255 
L 475.441754 277.735381 
L 480.539973 277.972112 
L 485.638191 277.189095 
L 490.736409 279.619217 
L 495.834628 281.431423 
L 500.932846 278.785508 
L 506.031064 275.488921 
L 511.129283 275.130337 
L 516.227501 275.166547 
L 521.32572 277.001174 
L 526.423938 280.066052 
L 531.522156 280.965976 
L 536.620375 280.760314 
L 541.718593 278.40807 
L 546.816811 279.159311 
L 551.91503 276.472001 
L 557.013248 276.71215 
L 562.111466 278.247312 
L 567.209685 278.96251 
L 572.307903 277.979123 
L 577.406122 274.990402 
L 582.50434 277.292851 
L 587.602558 275.920937 
L 592.700777 277.050012 
L 597.798995 280.927863 
L 602.897213 278.704788 
L 607.995432 280.770344 
L 613.09365 275.750083 
L 618.191868 278.466371 
L 623.290087 276.369879 
L 628.388305 276.087223 
L 633.486524 277.631557 
L 638.584742 278.013663 
L 643.68296 278.941782 
L 648.781179 278.264473 
L 653.879397 279.295198 
L 658.977615 278.107668 
L 664.075834 278.741767 
L 669.174052 279.229635 
L 674.27227 277.436549 
L 679.370489 278.912038 
L 684.468707 276.480898 
L 689.566926 277.811906 
L 694.665144 277.713911 
L 699.763362 272.672442 
L 704.861581 277.705205 
L 709.959799 274.935373 
L 715.058017 277.628322 
L 720.156236 282.407156 
L 725.254454 272.555835 
L 730.352672 274.636062 
L 735.450891 272.350365 
L 740.549109 273.860416 
L 745.647328 274.278062 
L 750.745546 272.889185 
L 755.843764 276.703815 
L 760.941983 274.014343 
L 766.040201 274.082942 
L 771.138419 280.4074 
L 776.236638 274.855283 
L 781.334856 275.759829 
L 786.433074 274.109408 
L 791.531293 271.890737 
L 796.629511 270.463105 
L 801.72773 270.382394 
L 806.825948 272.434269 
L 811.924166 271.428452 
L 817.022385 272.707583 
L 822.120603 273.245129 
L 827.218821 273.511541 
L 832.31704 273.252943 
L 842.513476 273.276989 
L 847.611695 273.420486 
L 852.709913 273.355955 
L 857.808132 274.050198 
L 862.90635 273.856243 
L 868.004568 279.405938 
L 873.102787 275.246262 
L 878.201005 275.801003 
L 883.299223 273.722336 
L 888.397442 273.393468 
L 893.49566 268.469241 
L 898.593878 273.611649 
L 903.692097 271.830467 
L 908.790315 273.538653 
L 913.888534 272.937388 
L 918.986752 273.474562 
L 924.08497 273.421283 
L 929.183189 275.923864 
L 934.281407 276.494871 
L 939.379625 275.897904 
L 944.477844 274.255172 
L 949.576062 274.605121 
L 954.67428 272.255724 
L 959.772499 276.581401 
L 964.870717 272.761305 
L 969.968936 278.607113 
L 975.067154 273.736417 
L 980.165372 273.15784 
L 985.263591 271.052721 
L 990.361809 271.117964 
L 995.460027 274.426169 
L 1000.558246 273.375238 
L 1005.656464 278.203596 
L 1010.754683 274.434386 
L 1015.852901 274.444374 
L 1020.951119 274.951374 
L 1026.049338 271.403715 
L 1031.147556 275.886323 
L 1036.245774 272.611594 
L 1041.343993 273.968377 
L 1046.442211 272.494381 
L 1051.540429 274.764315 
L 1056.638648 271.675306 
L 1061.736866 276.085906 
L 1066.835085 275.534512 
L 1071.933303 273.490726 
L 1077.031521 273.282415 
L 1082.12974 270.233491 
L 1087.227958 271.916302 
L 1092.326176 277.834423 
L 1097.424395 275.073344 
L 1102.522613 280.061445 
L 1107.620831 272.269898 
L 1112.71905 272.280758 
L 1117.817268 270.092519 
L 1122.915487 274.656946 
L 1128.013705 272.941216 
L 1133.111923 276.951407 
L 1138.210142 274.733742 
L 1143.30836 273.30142 
L 1148.406578 272.087386 
L 1153.504797 272.866943 
L 1158.603015 273.0957 
L 1163.701233 278.013792 
L 1168.799452 275.700585 
L 1173.89767 276.883536 
L 1178.995889 275.272981 
L 1184.094107 273.134504 
L 1189.192325 271.98082 
L 1194.290544 271.018309 
L 1199.388762 277.577485 
L 1204.48698 272.761735 
L 1209.585199 277.807451 
L 1214.683417 274.72792 
L 1219.781635 273.248255 
L 1224.879854 270.731987 
L 1229.978072 273.436294 
L 1235.076291 271.664312 
L 1240.174509 281.776875 
L 1245.272727 274.619211 
L 1245.272727 274.619211 
" style="fill:none;stroke:#000000;stroke-linecap:square;stroke-width:4;"/>
   </g>
   <g id="line2d_34">
    <path clip-path="url(#pd207fcc1f9)" d="M 230.727273 275.438726 
L 251.120146 275.438726 
L 256.218365 286.645761 
L 261.316583 276.070109 
L 266.414801 275.438726 
L 271.51302 283.962386 
L 276.611238 273.702425 
L 281.709456 285.057835 
L 286.807675 274.561105 
L 291.905893 276.726746 
L 297.004111 275.292877 
L 302.10233 281.088966 
L 307.200548 275.058003 
L 312.298767 275.438726 
L 317.396985 289.275468 
L 322.495203 273.913938 
L 327.593422 276.990664 
L 332.69164 275.356015 
L 337.789858 275.232264 
L 342.888077 273.54458 
L 347.986295 288.539908 
L 353.084513 278.279946 
L 358.182732 275.516386 
L 363.28095 275.361066 
L 368.379169 275.438726 
L 373.477387 275.280881 
L 378.575605 275.438726 
L 398.968479 275.438726 
L 404.066697 275.674232 
L 409.164915 275.438726 
L 414.263134 275.446934 
L 419.361352 275.826395 
L 424.459571 275.438726 
L 429.557789 277.384015 
L 434.656007 275.50881 
L 439.754226 290.62852 
L 444.852444 276.781045 
L 449.950662 275.422942 
L 460.147099 275.450723 
L 465.245317 290.310303 
L 470.343536 275.197538 
L 475.441754 275.438726 
L 480.539973 275.912263 
L 485.638191 275.231002 
L 490.736409 275.646451 
L 495.834628 275.438726 
L 500.932846 289.671345 
L 506.031064 275.093992 
L 511.129283 275.515755 
L 516.227501 275.558058 
L 521.32572 273.636761 
L 526.423938 281.622484 
L 531.522156 275.468401 
L 536.620375 285.586933 
L 541.718593 275.376851 
L 557.013248 275.561846 
L 562.111466 276.736217 
L 567.209685 275.438726 
L 572.307903 290.535707 
L 577.406122 273.127236 
L 587.602558 276.227954 
L 592.700777 274.807344 
L 597.798995 279.399387 
L 602.897213 275.519543 
L 607.995432 282.841052 
L 613.09365 275.498076 
L 618.191868 275.345282 
L 623.290087 275.440621 
L 628.388305 287.005017 
L 633.486524 275.72348 
L 638.584742 277.241954 
L 643.68296 273.89184 
L 648.781179 275.438726 
L 664.075834 275.438726 
L 669.174052 275.280881 
L 674.27227 276.049904 
L 679.370489 278.91638 
L 684.468707 275.438726 
L 689.566926 275.158393 
L 694.665144 296.2333 
L 699.763362 270.976748 
L 704.861581 275.327603 
L 709.959799 275.536591 
L 715.058017 274.820603 
L 720.156236 293.286008 
L 725.254454 275.2531 
L 730.352672 271.796282 
L 735.450891 275.452617 
L 740.549109 273.859008 
L 745.647328 276.307508 
L 750.745546 268.467635 
L 755.843764 276.579003 
L 760.941983 275.438726 
L 766.040201 257.317425 
L 771.138419 275.438726 
L 776.236638 275.425467 
L 781.334856 270.920555 
L 786.433074 275.585207 
L 796.629511 275.321289 
L 806.825948 275.491131 
L 811.924166 275.423573 
L 827.218821 275.565003 
L 832.31704 275.244892 
L 837.415258 275.558058 
L 842.513476 275.155867 
L 847.611695 275.366749 
L 852.709913 272.456077 
L 857.808132 274.936146 
L 862.90635 257.987953 
L 868.004568 275.968456 
L 873.102787 275.249312 
L 878.201005 275.565003 
L 883.299223 271.39788 
L 888.397442 276.3858 
L 893.49566 274.333807 
L 898.593878 275.596572 
L 903.692097 274.021905 
L 908.790315 275.405263 
L 913.888534 270.599182 
L 918.986752 275.689385 
L 924.08497 264.367439 
L 929.183189 270.482376 
L 934.281407 270.339683 
L 939.379625 275.433675 
L 944.477844 271.040518 
L 949.576062 275.42673 
L 954.67428 254.843038 
L 959.772499 279.630473 
L 964.870717 267.230757 
L 969.968936 275.438726 
L 975.067154 273.386734 
L 980.165372 275.438726 
L 985.263591 275.393898 
L 990.361809 265.965467 
L 995.460027 275.438726 
L 1000.558246 260.490752 
L 1005.656464 275.754417 
L 1010.754683 274.807344 
L 1015.852901 269.105331 
L 1020.951119 275.434307 
L 1026.049338 264.888329 
L 1031.147556 275.470295 
L 1036.245774 275.381902 
L 1041.343993 275.528383 
L 1046.442211 265.32714 
L 1051.540429 275.724111 
L 1056.638648 260.827279 
L 1061.736866 275.438726 
L 1066.835085 281.027091 
L 1071.933303 273.860271 
L 1077.031521 275.754417 
L 1082.12974 271.42503 
L 1087.227958 254.106846 
L 1092.326176 276.476087 
L 1097.424395 272.597506 
L 1102.522613 278.237012 
L 1107.620831 274.534587 
L 1112.71905 275.438726 
L 1117.817268 259.022788 
L 1122.915487 275.438726 
L 1128.013705 275.754417 
L 1133.111923 275.438726 
L 1138.210142 271.019051 
L 1143.30836 276.070109 
L 1148.406578 273.807866 
L 1153.504797 275.491131 
L 1158.603015 259.969862 
L 1163.701233 271.361891 
L 1168.799452 275.803665 
L 1173.89767 275.084521 
L 1178.995889 276.09347 
L 1184.094107 274.794085 
L 1189.192325 275.45388 
L 1194.290544 254.539975 
L 1199.388762 279.858402 
L 1204.48698 271.451548 
L 1209.585199 278.163141 
L 1214.683417 274.491653 
L 1219.781635 276.701491 
L 1224.879854 267.546448 
L 1229.978072 276.897219 
L 1235.076291 262.120981 
L 1240.174509 276.059375 
L 1245.272727 274.516277 
L 1245.272727 274.516277 
" style="fill:none;stroke:#ff0000;stroke-linecap:square;stroke-width:1.5;"/>
   </g>
   <g id="patch_9">
    <path d="M 180 351.547826 
L 180 231.026087 
" style="fill:none;stroke:#000000;stroke-linecap:square;stroke-linejoin:miter;stroke-width:0.8;"/>
   </g>
   <g id="patch_10">
    <path d="M 1296 351.547826 
L 1296 231.026087 
" style="fill:none;stroke:#000000;stroke-linecap:square;stroke-linejoin:miter;stroke-width:0.8;"/>
   </g>
   <g id="patch_11">
    <path d="M 180 351.547826 
L 1296 351.547826 
" style="fill:none;stroke:#000000;stroke-linecap:square;stroke-linejoin:miter;stroke-width:0.8;"/>
   </g>
   <g id="patch_12">
    <path d="M 180 231.026087 
L 1296 231.026087 
" style="fill:none;stroke:#000000;stroke-linecap:square;stroke-linejoin:miter;stroke-width:0.8;"/>
   </g>
   <g id="legend_2">
    <g id="patch_13">
     <path d="M 1234.3125 268.382337 
L 1289 268.382337 
Q 1291 268.382337 1291 266.382337 
L 1291 238.026087 
Q 1291 236.026087 1289 236.026087 
L 1234.3125 236.026087 
Q 1232.3125 236.026087 1232.3125 238.026087 
L 1232.3125 266.382337 
Q 1232.3125 268.382337 1234.3125 268.382337 
z
" style="fill:#ffffff;opacity:0.8;stroke:#cccccc;stroke-linejoin:miter;"/>
    </g>
    <g id="line2d_35">
     <path d="M 1236.3125 244.124524 
L 1256.3125 244.124524 
" style="fill:none;stroke:#000000;stroke-linecap:square;stroke-width:4;"/>
    </g>
    <g id="line2d_36"/>
    <g id="text_31">
     <!-- Pred -->
     <g transform="translate(1264.3125 247.624524)scale(0.1 -0.1)">
      <use xlink:href="#DejaVuSans-50"/>
      <use x="60.287109" xlink:href="#DejaVuSans-72"/>
      <use x="101.369141" xlink:href="#DejaVuSans-65"/>
      <use x="162.892578" xlink:href="#DejaVuSans-64"/>
     </g>
    </g>
    <g id="line2d_37">
     <path d="M 1236.3125 258.802649 
L 1256.3125 258.802649 
" style="fill:none;stroke:#ff0000;stroke-linecap:square;stroke-width:1.5;"/>
    </g>
    <g id="line2d_38"/>
    <g id="text_32">
     <!-- True -->
     <g transform="translate(1264.3125 262.302649)scale(0.1 -0.1)">
      <use xlink:href="#DejaVuSans-54"/>
      <use x="60.865234" xlink:href="#DejaVuSans-72"/>
      <use x="101.978516" xlink:href="#DejaVuSans-75"/>
      <use x="165.357422" xlink:href="#DejaVuSans-65"/>
     </g>
    </g>
   </g>
  </g>
  <g id="axes_3">
   <g id="patch_14">
    <path d="M 180 496.173913 
L 1296 496.173913 
L 1296 375.652174 
L 180 375.652174 
z
" style="fill:#ffffff;"/>
   </g>
   <g id="matplotlib.axis_5">
    <g id="xtick_19">
     <g id="line2d_39">
      <g>
       <use style="stroke:#000000;stroke-width:0.8;" x="230.727273" xlink:href="#m54cea2019b" y="496.173913"/>
      </g>
     </g>
     <g id="text_33">
      <!-- 0 -->
      <g transform="translate(227.546023 510.772351)scale(0.1 -0.1)">
       <use xlink:href="#DejaVuSans-30"/>
      </g>
     </g>
    </g>
    <g id="xtick_20">
     <g id="line2d_40">
      <g>
       <use style="stroke:#000000;stroke-width:0.8;" x="358.182732" xlink:href="#m54cea2019b" y="496.173913"/>
      </g>
     </g>
     <g id="text_34">
      <!-- 25 -->
      <g transform="translate(351.820232 510.772351)scale(0.1 -0.1)">
       <use xlink:href="#DejaVuSans-32"/>
       <use x="63.623047" xlink:href="#DejaVuSans-35"/>
      </g>
     </g>
    </g>
    <g id="xtick_21">
     <g id="line2d_41">
      <g>
       <use style="stroke:#000000;stroke-width:0.8;" x="485.638191" xlink:href="#m54cea2019b" y="496.173913"/>
      </g>
     </g>
     <g id="text_35">
      <!-- 50 -->
      <g transform="translate(479.275691 510.772351)scale(0.1 -0.1)">
       <use xlink:href="#DejaVuSans-35"/>
       <use x="63.623047" xlink:href="#DejaVuSans-30"/>
      </g>
     </g>
    </g>
    <g id="xtick_22">
     <g id="line2d_42">
      <g>
       <use style="stroke:#000000;stroke-width:0.8;" x="613.09365" xlink:href="#m54cea2019b" y="496.173913"/>
      </g>
     </g>
     <g id="text_36">
      <!-- 75 -->
      <g transform="translate(606.73115 510.772351)scale(0.1 -0.1)">
       <use xlink:href="#DejaVuSans-37"/>
       <use x="63.623047" xlink:href="#DejaVuSans-35"/>
      </g>
     </g>
    </g>
    <g id="xtick_23">
     <g id="line2d_43">
      <g>
       <use style="stroke:#000000;stroke-width:0.8;" x="740.549109" xlink:href="#m54cea2019b" y="496.173913"/>
      </g>
     </g>
     <g id="text_37">
      <!-- 100 -->
      <g transform="translate(731.005359 510.772351)scale(0.1 -0.1)">
       <use xlink:href="#DejaVuSans-31"/>
       <use x="63.623047" xlink:href="#DejaVuSans-30"/>
       <use x="127.246094" xlink:href="#DejaVuSans-30"/>
      </g>
     </g>
    </g>
    <g id="xtick_24">
     <g id="line2d_44">
      <g>
       <use style="stroke:#000000;stroke-width:0.8;" x="868.004568" xlink:href="#m54cea2019b" y="496.173913"/>
      </g>
     </g>
     <g id="text_38">
      <!-- 125 -->
      <g transform="translate(858.460818 510.772351)scale(0.1 -0.1)">
       <use xlink:href="#DejaVuSans-31"/>
       <use x="63.623047" xlink:href="#DejaVuSans-32"/>
       <use x="127.246094" xlink:href="#DejaVuSans-35"/>
      </g>
     </g>
    </g>
    <g id="xtick_25">
     <g id="line2d_45">
      <g>
       <use style="stroke:#000000;stroke-width:0.8;" x="995.460027" xlink:href="#m54cea2019b" y="496.173913"/>
      </g>
     </g>
     <g id="text_39">
      <!-- 150 -->
      <g transform="translate(985.916277 510.772351)scale(0.1 -0.1)">
       <use xlink:href="#DejaVuSans-31"/>
       <use x="63.623047" xlink:href="#DejaVuSans-35"/>
       <use x="127.246094" xlink:href="#DejaVuSans-30"/>
      </g>
     </g>
    </g>
    <g id="xtick_26">
     <g id="line2d_46">
      <g>
       <use style="stroke:#000000;stroke-width:0.8;" x="1122.915487" xlink:href="#m54cea2019b" y="496.173913"/>
      </g>
     </g>
     <g id="text_40">
      <!-- 175 -->
      <g transform="translate(1113.371737 510.772351)scale(0.1 -0.1)">
       <use xlink:href="#DejaVuSans-31"/>
       <use x="63.623047" xlink:href="#DejaVuSans-37"/>
       <use x="127.246094" xlink:href="#DejaVuSans-35"/>
      </g>
     </g>
    </g>
    <g id="xtick_27">
     <g id="line2d_47">
      <g>
       <use style="stroke:#000000;stroke-width:0.8;" x="1250.370946" xlink:href="#m54cea2019b" y="496.173913"/>
      </g>
     </g>
     <g id="text_41">
      <!-- 200 -->
      <g transform="translate(1240.827196 510.772351)scale(0.1 -0.1)">
       <use xlink:href="#DejaVuSans-32"/>
       <use x="63.623047" xlink:href="#DejaVuSans-30"/>
       <use x="127.246094" xlink:href="#DejaVuSans-30"/>
      </g>
     </g>
    </g>
   </g>
   <g id="matplotlib.axis_6">
    <g id="ytick_9">
     <g id="line2d_48">
      <g>
       <use style="stroke:#000000;stroke-width:0.8;" x="180" xlink:href="#med6568fb81" y="496.616673"/>
      </g>
     </g>
     <g id="text_42">
      <!-- −20 -->
      <g transform="translate(151.895312 500.415892)scale(0.1 -0.1)">
       <use xlink:href="#DejaVuSans-2212"/>
       <use x="83.789062" xlink:href="#DejaVuSans-32"/>
       <use x="147.412109" xlink:href="#DejaVuSans-30"/>
      </g>
     </g>
    </g>
    <g id="ytick_10">
     <g id="line2d_49">
      <g>
       <use style="stroke:#000000;stroke-width:0.8;" x="180" xlink:href="#med6568fb81" y="464.310662"/>
      </g>
     </g>
     <g id="text_43">
      <!-- −10 -->
      <g transform="translate(151.895312 468.109881)scale(0.1 -0.1)">
       <use xlink:href="#DejaVuSans-2212"/>
       <use x="83.789062" xlink:href="#DejaVuSans-31"/>
       <use x="147.412109" xlink:href="#DejaVuSans-30"/>
      </g>
     </g>
    </g>
    <g id="ytick_11">
     <g id="line2d_50">
      <g>
       <use style="stroke:#000000;stroke-width:0.8;" x="180" xlink:href="#med6568fb81" y="432.004651"/>
      </g>
     </g>
     <g id="text_44">
      <!-- 0 -->
      <g transform="translate(166.6375 435.803869)scale(0.1 -0.1)">
       <use xlink:href="#DejaVuSans-30"/>
      </g>
     </g>
    </g>
    <g id="ytick_12">
     <g id="line2d_51">
      <g>
       <use style="stroke:#000000;stroke-width:0.8;" x="180" xlink:href="#med6568fb81" y="399.69864"/>
      </g>
     </g>
     <g id="text_45">
      <!-- 10 -->
      <g transform="translate(160.275 403.497858)scale(0.1 -0.1)">
       <use xlink:href="#DejaVuSans-31"/>
       <use x="63.623047" xlink:href="#DejaVuSans-30"/>
      </g>
     </g>
    </g>
    <g id="text_46">
     <!-- TD State:2 -->
     <g transform="translate(145.815625 462.506793)rotate(-90)scale(0.1 -0.1)">
      <use xlink:href="#DejaVuSans-54"/>
      <use x="61.083984" xlink:href="#DejaVuSans-44"/>
      <use x="138.085938" xlink:href="#DejaVuSans-20"/>
      <use x="169.873047" xlink:href="#DejaVuSans-53"/>
      <use x="233.349609" xlink:href="#DejaVuSans-74"/>
      <use x="272.558594" xlink:href="#DejaVuSans-61"/>
      <use x="333.837891" xlink:href="#DejaVuSans-74"/>
      <use x="373.046875" xlink:href="#DejaVuSans-65"/>
      <use x="434.570312" xlink:href="#DejaVuSans-3a"/>
      <use x="468.261719" xlink:href="#DejaVuSans-32"/>
     </g>
    </g>
   </g>
   <g id="line2d_52">
    <path clip-path="url(#p2ddc420167)" d="M 230.727273 490.695652 
L 235.825491 405.711916 
L 240.923709 381.130435 
L 246.021928 426.889755 
L 251.120146 420.127305 
L 256.218365 419.981974 
L 261.316583 434.810455 
L 266.414801 413.983322 
L 271.51302 449.975082 
L 276.611238 430.401848 
L 286.807675 430.703347 
L 291.905893 429.6285 
L 297.004111 431.918957 
L 302.10233 430.31253 
L 307.200548 431.21705 
L 312.298767 431.162333 
L 317.396985 429.669849 
L 322.495203 431.225555 
L 327.593422 430.545459 
L 332.69164 433.10566 
L 337.789858 430.910032 
L 342.888077 429.266548 
L 347.986295 432.512657 
L 353.084513 431.593262 
L 358.182732 430.879886 
L 363.28095 431.543417 
L 368.379169 430.127484 
L 373.477387 431.792213 
L 378.575605 431.754579 
L 383.673824 430.122863 
L 388.772042 430.670378 
L 393.87026 429.519319 
L 398.968479 430.896623 
L 404.066697 430.800261 
L 419.361352 430.813538 
L 429.557789 430.824579 
L 434.656007 430.706526 
L 439.754226 430.744071 
L 444.852444 431.34449 
L 449.950662 430.361225 
L 455.048881 431.139971 
L 460.147099 430.076661 
L 465.245317 430.345765 
L 470.343536 428.588384 
L 475.441754 433.701307 
L 480.539973 437.04621 
L 485.638191 427.941878 
L 490.736409 432.120677 
L 495.834628 431.639311 
L 500.932846 430.432134 
L 506.031064 431.528813 
L 511.129283 428.94397 
L 516.227501 433.222074 
L 521.32572 430.584846 
L 526.423938 430.731664 
L 531.522156 431.308676 
L 536.620375 430.423502 
L 541.718593 432.850676 
L 551.91503 432.100139 
L 557.013248 430.204641 
L 562.111466 430.381506 
L 567.209685 430.791327 
L 572.307903 430.564468 
L 577.406122 431.641492 
L 582.50434 430.387609 
L 587.602558 430.793426 
L 592.700777 431.084931 
L 597.798995 430.98946 
L 602.897213 431.551257 
L 607.995432 431.014296 
L 613.09365 430.108936 
L 618.191868 433.236497 
L 623.290087 431.849175 
L 628.388305 430.126757 
L 633.486524 431.829887 
L 638.584742 430.911482 
L 643.68296 432.303307 
L 648.781179 434.062637 
L 653.879397 432.014058 
L 658.977615 430.567371 
L 664.075834 430.667448 
L 669.174052 431.450331 
L 674.27227 431.28356 
L 679.370489 432.340893 
L 684.468707 430.250265 
L 689.566926 431.988941 
L 694.665144 432.524418 
L 699.763362 430.992259 
L 704.861581 431.130305 
L 709.959799 431.402295 
L 715.058017 429.446074 
L 720.156236 431.273003 
L 725.254454 430.986435 
L 730.352672 430.925841 
L 735.450891 433.28875 
L 740.549109 430.884849 
L 750.745546 431.715803 
L 755.843764 431.204424 
L 760.941983 431.536941 
L 766.040201 431.559572 
L 771.138419 433.216703 
L 776.236638 433.092889 
L 781.334856 433.220075 
L 786.433074 432.494697 
L 791.531293 430.900423 
L 796.629511 429.560003 
L 801.72773 429.846629 
L 806.825948 431.256806 
L 811.924166 430.637406 
L 817.022385 430.98841 
L 827.218821 431.488519 
L 832.31704 431.581629 
L 837.415258 431.529728 
L 842.513476 431.604598 
L 852.709913 431.574212 
L 857.808132 431.576677 
L 862.90635 431.351456 
L 868.004568 433.5116 
L 873.102787 433.274139 
L 878.201005 431.525354 
L 883.299223 432.404509 
L 893.49566 430.481687 
L 898.593878 431.032243 
L 903.692097 430.850632 
L 908.790315 433.653134 
L 913.888534 431.025049 
L 918.986752 432.363789 
L 924.08497 431.481485 
L 929.183189 429.482459 
L 934.281407 433.484858 
L 939.379625 431.878033 
L 944.477844 432.776396 
L 949.576062 431.678211 
L 954.67428 431.138202 
L 959.772499 434.123087 
L 969.968936 432.277901 
L 975.067154 432.726125 
L 980.165372 432.114843 
L 985.263591 431.249476 
L 990.361809 429.71723 
L 995.460027 431.493461 
L 1000.558246 432.637423 
L 1005.656464 431.690033 
L 1010.754683 432.394967 
L 1015.852901 431.242328 
L 1020.951119 432.386691 
L 1026.049338 430.661718 
L 1031.147556 432.610919 
L 1036.245774 433.177111 
L 1041.343993 431.81159 
L 1046.442211 431.569868 
L 1051.540429 431.845129 
L 1056.638648 431.304149 
L 1061.736866 434.189577 
L 1066.835085 432.911893 
L 1071.933303 431.32874 
L 1077.031521 432.383879 
L 1082.12974 431.607742 
L 1087.227958 433.045382 
L 1092.326176 433.538242 
L 1097.424395 431.628298 
L 1102.522613 432.9647 
L 1107.620831 432.037697 
L 1112.71905 430.928404 
L 1117.817268 430.158598 
L 1122.915487 431.208367 
L 1128.013705 432.088713 
L 1133.111923 433.4142 
L 1138.210142 432.469698 
L 1143.30836 431.031457 
L 1148.406578 430.638954 
L 1153.504797 431.393387 
L 1158.603015 431.319123 
L 1163.701233 431.954921 
L 1168.799452 433.385242 
L 1173.89767 432.015945 
L 1178.995889 431.60718 
L 1184.094107 431.375388 
L 1189.192325 430.941013 
L 1194.290544 430.327541 
L 1199.388762 430.479101 
L 1204.48698 432.036298 
L 1209.585199 434.075478 
L 1214.683417 431.561333 
L 1219.781635 431.213583 
L 1224.879854 432.986179 
L 1229.978072 431.796088 
L 1235.076291 433.378764 
L 1240.174509 432.158956 
L 1245.272727 432.37386 
L 1245.272727 432.37386 
" style="fill:none;stroke:#000000;stroke-linecap:square;stroke-width:4;"/>
   </g>
   <g id="line2d_53">
    <path clip-path="url(#p2ddc420167)" d="M 230.727273 432.004651 
L 1245.272727 432.004651 
L 1245.272727 432.004651 
" style="fill:none;stroke:#ff0000;stroke-linecap:square;stroke-width:1.5;"/>
   </g>
   <g id="patch_15">
    <path d="M 180 496.173913 
L 180 375.652174 
" style="fill:none;stroke:#000000;stroke-linecap:square;stroke-linejoin:miter;stroke-width:0.8;"/>
   </g>
   <g id="patch_16">
    <path d="M 1296 496.173913 
L 1296 375.652174 
" style="fill:none;stroke:#000000;stroke-linecap:square;stroke-linejoin:miter;stroke-width:0.8;"/>
   </g>
   <g id="patch_17">
    <path d="M 180 496.173913 
L 1296 496.173913 
" style="fill:none;stroke:#000000;stroke-linecap:square;stroke-linejoin:miter;stroke-width:0.8;"/>
   </g>
   <g id="patch_18">
    <path d="M 180 375.652174 
L 1296 375.652174 
" style="fill:none;stroke:#000000;stroke-linecap:square;stroke-linejoin:miter;stroke-width:0.8;"/>
   </g>
   <g id="legend_3">
    <g id="patch_19">
     <path d="M 1234.3125 413.008424 
L 1289 413.008424 
Q 1291 413.008424 1291 411.008424 
L 1291 382.652174 
Q 1291 380.652174 1289 380.652174 
L 1234.3125 380.652174 
Q 1232.3125 380.652174 1232.3125 382.652174 
L 1232.3125 411.008424 
Q 1232.3125 413.008424 1234.3125 413.008424 
z
" style="fill:#ffffff;opacity:0.8;stroke:#cccccc;stroke-linejoin:miter;"/>
    </g>
    <g id="line2d_54">
     <path d="M 1236.3125 388.750611 
L 1256.3125 388.750611 
" style="fill:none;stroke:#000000;stroke-linecap:square;stroke-width:4;"/>
    </g>
    <g id="line2d_55"/>
    <g id="text_47">
     <!-- Pred -->
     <g transform="translate(1264.3125 392.250611)scale(0.1 -0.1)">
      <use xlink:href="#DejaVuSans-50"/>
      <use x="60.287109" xlink:href="#DejaVuSans-72"/>
      <use x="101.369141" xlink:href="#DejaVuSans-65"/>
      <use x="162.892578" xlink:href="#DejaVuSans-64"/>
     </g>
    </g>
    <g id="line2d_56">
     <path d="M 1236.3125 403.428736 
L 1256.3125 403.428736 
" style="fill:none;stroke:#ff0000;stroke-linecap:square;stroke-width:1.5;"/>
    </g>
    <g id="line2d_57"/>
    <g id="text_48">
     <!-- True -->
     <g transform="translate(1264.3125 406.928736)scale(0.1 -0.1)">
      <use xlink:href="#DejaVuSans-54"/>
      <use x="60.865234" xlink:href="#DejaVuSans-72"/>
      <use x="101.978516" xlink:href="#DejaVuSans-75"/>
      <use x="165.357422" xlink:href="#DejaVuSans-65"/>
     </g>
    </g>
   </g>
  </g>
  <g id="axes_4">
   <g id="patch_20">
    <path d="M 180 640.8 
L 1296 640.8 
L 1296 520.278261 
L 180 520.278261 
z
" style="fill:#ffffff;"/>
   </g>
   <g id="matplotlib.axis_7">
    <g id="xtick_28">
     <g id="line2d_58">
      <g>
       <use style="stroke:#000000;stroke-width:0.8;" x="219.716228" xlink:href="#m54cea2019b" y="640.8"/>
      </g>
     </g>
     <g id="text_49">
      <!-- 0.0 -->
      <defs>
       <path d="M 10.6875 12.40625 
L 21 12.40625 
L 21 0 
L 10.6875 0 
z
" id="DejaVuSans-2e"/>
      </defs>
      <g transform="translate(211.764665 655.398438)scale(0.1 -0.1)">
       <use xlink:href="#DejaVuSans-30"/>
       <use x="63.623047" xlink:href="#DejaVuSans-2e"/>
       <use x="95.410156" xlink:href="#DejaVuSans-30"/>
      </g>
     </g>
    </g>
    <g id="xtick_29">
     <g id="line2d_59">
      <g>
       <use style="stroke:#000000;stroke-width:0.8;" x="372.647409" xlink:href="#m54cea2019b" y="640.8"/>
      </g>
     </g>
     <g id="text_50">
      <!-- 0.5 -->
      <g transform="translate(364.695846 655.398438)scale(0.1 -0.1)">
       <use xlink:href="#DejaVuSans-30"/>
       <use x="63.623047" xlink:href="#DejaVuSans-2e"/>
       <use x="95.410156" xlink:href="#DejaVuSans-35"/>
      </g>
     </g>
    </g>
    <g id="xtick_30">
     <g id="line2d_60">
      <g>
       <use style="stroke:#000000;stroke-width:0.8;" x="525.57859" xlink:href="#m54cea2019b" y="640.8"/>
      </g>
     </g>
     <g id="text_51">
      <!-- 1.0 -->
      <g transform="translate(517.627027 655.398438)scale(0.1 -0.1)">
       <use xlink:href="#DejaVuSans-31"/>
       <use x="63.623047" xlink:href="#DejaVuSans-2e"/>
       <use x="95.410156" xlink:href="#DejaVuSans-30"/>
      </g>
     </g>
    </g>
    <g id="xtick_31">
     <g id="line2d_61">
      <g>
       <use style="stroke:#000000;stroke-width:0.8;" x="678.509771" xlink:href="#m54cea2019b" y="640.8"/>
      </g>
     </g>
     <g id="text_52">
      <!-- 1.5 -->
      <g transform="translate(670.558208 655.398438)scale(0.1 -0.1)">
       <use xlink:href="#DejaVuSans-31"/>
       <use x="63.623047" xlink:href="#DejaVuSans-2e"/>
       <use x="95.410156" xlink:href="#DejaVuSans-35"/>
      </g>
     </g>
    </g>
    <g id="xtick_32">
     <g id="line2d_62">
      <g>
       <use style="stroke:#000000;stroke-width:0.8;" x="831.440952" xlink:href="#m54cea2019b" y="640.8"/>
      </g>
     </g>
     <g id="text_53">
      <!-- 2.0 -->
      <g transform="translate(823.489389 655.398438)scale(0.1 -0.1)">
       <use xlink:href="#DejaVuSans-32"/>
       <use x="63.623047" xlink:href="#DejaVuSans-2e"/>
       <use x="95.410156" xlink:href="#DejaVuSans-30"/>
      </g>
     </g>
    </g>
    <g id="xtick_33">
     <g id="line2d_63">
      <g>
       <use style="stroke:#000000;stroke-width:0.8;" x="984.372133" xlink:href="#m54cea2019b" y="640.8"/>
      </g>
     </g>
     <g id="text_54">
      <!-- 2.5 -->
      <g transform="translate(976.42057 655.398438)scale(0.1 -0.1)">
       <use xlink:href="#DejaVuSans-32"/>
       <use x="63.623047" xlink:href="#DejaVuSans-2e"/>
       <use x="95.410156" xlink:href="#DejaVuSans-35"/>
      </g>
     </g>
    </g>
    <g id="xtick_34">
     <g id="line2d_64">
      <g>
       <use style="stroke:#000000;stroke-width:0.8;" x="1137.303314" xlink:href="#m54cea2019b" y="640.8"/>
      </g>
     </g>
     <g id="text_55">
      <!-- 3.0 -->
      <defs>
       <path d="M 40.578125 39.3125 
Q 47.65625 37.796875 51.625 33 
Q 55.609375 28.21875 55.609375 21.1875 
Q 55.609375 10.40625 48.1875 4.484375 
Q 40.765625 -1.421875 27.09375 -1.421875 
Q 22.515625 -1.421875 17.65625 -0.515625 
Q 12.796875 0.390625 7.625 2.203125 
L 7.625 11.71875 
Q 11.71875 9.328125 16.59375 8.109375 
Q 21.484375 6.890625 26.8125 6.890625 
Q 36.078125 6.890625 40.9375 10.546875 
Q 45.796875 14.203125 45.796875 21.1875 
Q 45.796875 27.640625 41.28125 31.265625 
Q 36.765625 34.90625 28.71875 34.90625 
L 20.21875 34.90625 
L 20.21875 43.015625 
L 29.109375 43.015625 
Q 36.375 43.015625 40.234375 45.921875 
Q 44.09375 48.828125 44.09375 54.296875 
Q 44.09375 59.90625 40.109375 62.90625 
Q 36.140625 65.921875 28.71875 65.921875 
Q 24.65625 65.921875 20.015625 65.03125 
Q 15.375 64.15625 9.8125 62.3125 
L 9.8125 71.09375 
Q 15.4375 72.65625 20.34375 73.4375 
Q 25.25 74.21875 29.59375 74.21875 
Q 40.828125 74.21875 47.359375 69.109375 
Q 53.90625 64.015625 53.90625 55.328125 
Q 53.90625 49.265625 50.4375 45.09375 
Q 46.96875 40.921875 40.578125 39.3125 
z
" id="DejaVuSans-33"/>
      </defs>
      <g transform="translate(1129.351751 655.398438)scale(0.1 -0.1)">
       <use xlink:href="#DejaVuSans-33"/>
       <use x="63.623047" xlink:href="#DejaVuSans-2e"/>
       <use x="95.410156" xlink:href="#DejaVuSans-30"/>
      </g>
     </g>
    </g>
    <g id="xtick_35">
     <g id="line2d_65">
      <g>
       <use style="stroke:#000000;stroke-width:0.8;" x="1290.234494" xlink:href="#m54cea2019b" y="640.8"/>
      </g>
     </g>
     <g id="text_56">
      <!-- 3.5 -->
      <g transform="translate(1282.282932 655.398438)scale(0.1 -0.1)">
       <use xlink:href="#DejaVuSans-33"/>
       <use x="63.623047" xlink:href="#DejaVuSans-2e"/>
       <use x="95.410156" xlink:href="#DejaVuSans-35"/>
      </g>
     </g>
    </g>
    <g id="text_57">
     <!-- Time -->
     <defs>
      <path d="M 9.421875 54.6875 
L 18.40625 54.6875 
L 18.40625 0 
L 9.421875 0 
z
M 9.421875 75.984375 
L 18.40625 75.984375 
L 18.40625 64.59375 
L 9.421875 64.59375 
z
" id="DejaVuSans-69"/>
      <path d="M 52 44.1875 
Q 55.375 50.25 60.0625 53.125 
Q 64.75 56 71.09375 56 
Q 79.640625 56 84.28125 50.015625 
Q 88.921875 44.046875 88.921875 33.015625 
L 88.921875 0 
L 79.890625 0 
L 79.890625 32.71875 
Q 79.890625 40.578125 77.09375 44.375 
Q 74.3125 48.1875 68.609375 48.1875 
Q 61.625 48.1875 57.5625 43.546875 
Q 53.515625 38.921875 53.515625 30.90625 
L 53.515625 0 
L 44.484375 0 
L 44.484375 32.71875 
Q 44.484375 40.625 41.703125 44.40625 
Q 38.921875 48.1875 33.109375 48.1875 
Q 26.21875 48.1875 22.15625 43.53125 
Q 18.109375 38.875 18.109375 30.90625 
L 18.109375 0 
L 9.078125 0 
L 9.078125 54.6875 
L 18.109375 54.6875 
L 18.109375 46.1875 
Q 21.1875 51.21875 25.484375 53.609375 
Q 29.78125 56 35.6875 56 
Q 41.65625 56 45.828125 52.96875 
Q 50 49.953125 52 44.1875 
z
" id="DejaVuSans-6d"/>
     </defs>
     <g transform="translate(725.6125 669.076563)scale(0.1 -0.1)">
      <use xlink:href="#DejaVuSans-54"/>
      <use x="61.037109" xlink:href="#DejaVuSans-69"/>
      <use x="88.820312" xlink:href="#DejaVuSans-6d"/>
      <use x="186.232422" xlink:href="#DejaVuSans-65"/>
     </g>
    </g>
   </g>
   <g id="matplotlib.axis_8">
    <g id="ytick_13">
     <g id="line2d_66">
      <g>
       <use style="stroke:#000000;stroke-width:0.8;" x="180" xlink:href="#med6568fb81" y="624.365217"/>
      </g>
     </g>
     <g id="text_58">
      <!-- −0.04 -->
      <defs>
       <path d="M 37.796875 64.3125 
L 12.890625 25.390625 
L 37.796875 25.390625 
z
M 35.203125 72.90625 
L 47.609375 72.90625 
L 47.609375 25.390625 
L 58.015625 25.390625 
L 58.015625 17.1875 
L 47.609375 17.1875 
L 47.609375 0 
L 37.796875 0 
L 37.796875 17.1875 
L 4.890625 17.1875 
L 4.890625 26.703125 
z
" id="DejaVuSans-34"/>
      </defs>
      <g transform="translate(142.354688 628.164436)scale(0.1 -0.1)">
       <use xlink:href="#DejaVuSans-2212"/>
       <use x="83.789062" xlink:href="#DejaVuSans-30"/>
       <use x="147.412109" xlink:href="#DejaVuSans-2e"/>
       <use x="179.199219" xlink:href="#DejaVuSans-30"/>
       <use x="242.822266" xlink:href="#DejaVuSans-34"/>
      </g>
     </g>
    </g>
    <g id="ytick_14">
     <g id="line2d_67">
      <g>
       <use style="stroke:#000000;stroke-width:0.8;" x="180" xlink:href="#med6568fb81" y="602.452174"/>
      </g>
     </g>
     <g id="text_59">
      <!-- −0.02 -->
      <g transform="translate(142.354688 606.251393)scale(0.1 -0.1)">
       <use xlink:href="#DejaVuSans-2212"/>
       <use x="83.789062" xlink:href="#DejaVuSans-30"/>
       <use x="147.412109" xlink:href="#DejaVuSans-2e"/>
       <use x="179.199219" xlink:href="#DejaVuSans-30"/>
       <use x="242.822266" xlink:href="#DejaVuSans-32"/>
      </g>
     </g>
    </g>
    <g id="ytick_15">
     <g id="line2d_68">
      <g>
       <use style="stroke:#000000;stroke-width:0.8;" x="180" xlink:href="#med6568fb81" y="580.53913"/>
      </g>
     </g>
     <g id="text_60">
      <!-- 0.00 -->
      <g transform="translate(150.734375 584.338349)scale(0.1 -0.1)">
       <use xlink:href="#DejaVuSans-30"/>
       <use x="63.623047" xlink:href="#DejaVuSans-2e"/>
       <use x="95.410156" xlink:href="#DejaVuSans-30"/>
       <use x="159.033203" xlink:href="#DejaVuSans-30"/>
      </g>
     </g>
    </g>
    <g id="ytick_16">
     <g id="line2d_69">
      <g>
       <use style="stroke:#000000;stroke-width:0.8;" x="180" xlink:href="#med6568fb81" y="558.626087"/>
      </g>
     </g>
     <g id="text_61">
      <!-- 0.02 -->
      <g transform="translate(150.734375 562.425306)scale(0.1 -0.1)">
       <use xlink:href="#DejaVuSans-30"/>
       <use x="63.623047" xlink:href="#DejaVuSans-2e"/>
       <use x="95.410156" xlink:href="#DejaVuSans-30"/>
       <use x="159.033203" xlink:href="#DejaVuSans-32"/>
      </g>
     </g>
    </g>
    <g id="ytick_17">
     <g id="line2d_70">
      <g>
       <use style="stroke:#000000;stroke-width:0.8;" x="180" xlink:href="#med6568fb81" y="536.713043"/>
      </g>
     </g>
     <g id="text_62">
      <!-- 0.04 -->
      <g transform="translate(150.734375 540.512262)scale(0.1 -0.1)">
       <use xlink:href="#DejaVuSans-30"/>
       <use x="63.623047" xlink:href="#DejaVuSans-2e"/>
       <use x="95.410156" xlink:href="#DejaVuSans-30"/>
       <use x="159.033203" xlink:href="#DejaVuSans-34"/>
      </g>
     </g>
    </g>
    <g id="text_63">
     <!-- Control Input -->
     <defs>
      <path d="M 64.40625 67.28125 
L 64.40625 56.890625 
Q 59.421875 61.53125 53.78125 63.8125 
Q 48.140625 66.109375 41.796875 66.109375 
Q 29.296875 66.109375 22.65625 58.46875 
Q 16.015625 50.828125 16.015625 36.375 
Q 16.015625 21.96875 22.65625 14.328125 
Q 29.296875 6.6875 41.796875 6.6875 
Q 48.140625 6.6875 53.78125 8.984375 
Q 59.421875 11.28125 64.40625 15.921875 
L 64.40625 5.609375 
Q 59.234375 2.09375 53.4375 0.328125 
Q 47.65625 -1.421875 41.21875 -1.421875 
Q 24.65625 -1.421875 15.125 8.703125 
Q 5.609375 18.84375 5.609375 36.375 
Q 5.609375 53.953125 15.125 64.078125 
Q 24.65625 74.21875 41.21875 74.21875 
Q 47.75 74.21875 53.53125 72.484375 
Q 59.328125 70.75 64.40625 67.28125 
z
" id="DejaVuSans-43"/>
      <path d="M 30.609375 48.390625 
Q 23.390625 48.390625 19.1875 42.75 
Q 14.984375 37.109375 14.984375 27.296875 
Q 14.984375 17.484375 19.15625 11.84375 
Q 23.34375 6.203125 30.609375 6.203125 
Q 37.796875 6.203125 41.984375 11.859375 
Q 46.1875 17.53125 46.1875 27.296875 
Q 46.1875 37.015625 41.984375 42.703125 
Q 37.796875 48.390625 30.609375 48.390625 
z
M 30.609375 56 
Q 42.328125 56 49.015625 48.375 
Q 55.71875 40.765625 55.71875 27.296875 
Q 55.71875 13.875 49.015625 6.21875 
Q 42.328125 -1.421875 30.609375 -1.421875 
Q 18.84375 -1.421875 12.171875 6.21875 
Q 5.515625 13.875 5.515625 27.296875 
Q 5.515625 40.765625 12.171875 48.375 
Q 18.84375 56 30.609375 56 
z
" id="DejaVuSans-6f"/>
      <path d="M 54.890625 33.015625 
L 54.890625 0 
L 45.90625 0 
L 45.90625 32.71875 
Q 45.90625 40.484375 42.875 44.328125 
Q 39.84375 48.1875 33.796875 48.1875 
Q 26.515625 48.1875 22.3125 43.546875 
Q 18.109375 38.921875 18.109375 30.90625 
L 18.109375 0 
L 9.078125 0 
L 9.078125 54.6875 
L 18.109375 54.6875 
L 18.109375 46.1875 
Q 21.34375 51.125 25.703125 53.5625 
Q 30.078125 56 35.796875 56 
Q 45.21875 56 50.046875 50.171875 
Q 54.890625 44.34375 54.890625 33.015625 
z
" id="DejaVuSans-6e"/>
      <path d="M 9.421875 75.984375 
L 18.40625 75.984375 
L 18.40625 0 
L 9.421875 0 
z
" id="DejaVuSans-6c"/>
      <path d="M 9.8125 72.90625 
L 19.671875 72.90625 
L 19.671875 0 
L 9.8125 0 
z
" id="DejaVuSans-49"/>
      <path d="M 18.109375 8.203125 
L 18.109375 -20.796875 
L 9.078125 -20.796875 
L 9.078125 54.6875 
L 18.109375 54.6875 
L 18.109375 46.390625 
Q 20.953125 51.265625 25.265625 53.625 
Q 29.59375 56 35.59375 56 
Q 45.5625 56 51.78125 48.09375 
Q 58.015625 40.1875 58.015625 27.296875 
Q 58.015625 14.40625 51.78125 6.484375 
Q 45.5625 -1.421875 35.59375 -1.421875 
Q 29.59375 -1.421875 25.265625 0.953125 
Q 20.953125 3.328125 18.109375 8.203125 
z
M 48.6875 27.296875 
Q 48.6875 37.203125 44.609375 42.84375 
Q 40.53125 48.484375 33.40625 48.484375 
Q 26.265625 48.484375 22.1875 42.84375 
Q 18.109375 37.203125 18.109375 27.296875 
Q 18.109375 17.390625 22.1875 11.75 
Q 26.265625 6.109375 33.40625 6.109375 
Q 40.53125 6.109375 44.609375 11.75 
Q 48.6875 17.390625 48.6875 27.296875 
z
" id="DejaVuSans-70"/>
     </defs>
     <g transform="translate(136.275 613.257099)rotate(-90)scale(0.1 -0.1)">
      <use xlink:href="#DejaVuSans-43"/>
      <use x="69.824219" xlink:href="#DejaVuSans-6f"/>
      <use x="131.005859" xlink:href="#DejaVuSans-6e"/>
      <use x="194.384766" xlink:href="#DejaVuSans-74"/>
      <use x="233.59375" xlink:href="#DejaVuSans-72"/>
      <use x="274.675781" xlink:href="#DejaVuSans-6f"/>
      <use x="335.857422" xlink:href="#DejaVuSans-6c"/>
      <use x="363.640625" xlink:href="#DejaVuSans-20"/>
      <use x="395.427734" xlink:href="#DejaVuSans-49"/>
      <use x="424.919922" xlink:href="#DejaVuSans-6e"/>
      <use x="488.298828" xlink:href="#DejaVuSans-70"/>
      <use x="551.775391" xlink:href="#DejaVuSans-75"/>
      <use x="615.154297" xlink:href="#DejaVuSans-74"/>
     </g>
    </g>
   </g>
   <g id="line2d_71">
    <path clip-path="url(#p3664e7a7c9)" d="M 230.727273 580.53913 
L 1245.272727 580.53913 
L 1245.272727 580.53913 
" style="fill:none;stroke:#ff0000;stroke-linecap:square;stroke-width:1.5;"/>
   </g>
   <g id="patch_21">
    <path d="M 180 640.8 
L 180 520.278261 
" style="fill:none;stroke:#000000;stroke-linecap:square;stroke-linejoin:miter;stroke-width:0.8;"/>
   </g>
   <g id="patch_22">
    <path d="M 1296 640.8 
L 1296 520.278261 
" style="fill:none;stroke:#000000;stroke-linecap:square;stroke-linejoin:miter;stroke-width:0.8;"/>
   </g>
   <g id="patch_23">
    <path d="M 180 640.8 
L 1296 640.8 
" style="fill:none;stroke:#000000;stroke-linecap:square;stroke-linejoin:miter;stroke-width:0.8;"/>
   </g>
   <g id="patch_24">
    <path d="M 180 520.278261 
L 1296 520.278261 
" style="fill:none;stroke:#000000;stroke-linecap:square;stroke-linejoin:miter;stroke-width:0.8;"/>
   </g>
   <g id="legend_4">
    <g id="patch_25">
     <path d="M 1194.742188 542.956386 
L 1289 542.956386 
Q 1291 542.956386 1291 540.956386 
L 1291 527.278261 
Q 1291 525.278261 1289 525.278261 
L 1194.742188 525.278261 
Q 1192.742188 525.278261 1192.742188 527.278261 
L 1192.742188 540.956386 
Q 1192.742188 542.956386 1194.742188 542.956386 
z
" style="fill:#ffffff;opacity:0.8;stroke:#cccccc;stroke-linejoin:miter;"/>
    </g>
    <g id="line2d_72">
     <path d="M 1196.742188 533.376698 
L 1216.742188 533.376698 
" style="fill:none;stroke:#ff0000;stroke-linecap:square;stroke-width:1.5;"/>
    </g>
    <g id="line2d_73"/>
    <g id="text_64">
     <!-- ControlInput -->
     <g transform="translate(1224.742188 536.876698)scale(0.1 -0.1)">
      <use xlink:href="#DejaVuSans-43"/>
      <use x="69.824219" xlink:href="#DejaVuSans-6f"/>
      <use x="131.005859" xlink:href="#DejaVuSans-6e"/>
      <use x="194.384766" xlink:href="#DejaVuSans-74"/>
      <use x="233.59375" xlink:href="#DejaVuSans-72"/>
      <use x="274.675781" xlink:href="#DejaVuSans-6f"/>
      <use x="335.857422" xlink:href="#DejaVuSans-6c"/>
      <use x="363.640625" xlink:href="#DejaVuSans-49"/>
      <use x="393.132812" xlink:href="#DejaVuSans-6e"/>
      <use x="456.511719" xlink:href="#DejaVuSans-70"/>
      <use x="519.988281" xlink:href="#DejaVuSans-75"/>
      <use x="583.367188" xlink:href="#DejaVuSans-74"/>
     </g>
    </g>
   </g>
  </g>
 </g>
 <defs>
  <clipPath id="p183d767434">
   <rect height="120.521739" width="1116" x="180" y="86.4"/>
  </clipPath>
  <clipPath id="pd207fcc1f9">
   <rect height="120.521739" width="1116" x="180" y="231.026087"/>
  </clipPath>
  <clipPath id="p2ddc420167">
   <rect height="120.521739" width="1116" x="180" y="375.652174"/>
  </clipPath>
  <clipPath id="p3664e7a7c9">
   <rect height="120.521739" width="1116" x="180" y="520.278261"/>
  </clipPath>
 </defs>
</svg>
