<?xml version="1.0" encoding="utf-8" standalone="no"?>
<!DOCTYPE svg PUBLIC "-//W3C//DTD SVG 1.1//EN"
  "http://www.w3.org/Graphics/SVG/1.1/DTD/svg11.dtd">
<!-- Created with matplotlib (http://matplotlib.org/) -->
<svg height="720pt" version="1.1" viewBox="0 0 1440 720" width="1440pt" xmlns="http://www.w3.org/2000/svg" xmlns:xlink="http://www.w3.org/1999/xlink">
 <defs>
  <style type="text/css">
*{stroke-linecap:butt;stroke-linejoin:round;}
  </style>
 </defs>
 <g id="figure_1">
  <g id="patch_1">
   <path d="M 0 720 
L 1440 720 
L 1440 0 
L 0 0 
z
" style="fill:#ffffff;"/>
  </g>
  <g id="axes_1">
   <g id="patch_2">
    <path d="M 180 640.8 
L 1296 640.8 
L 1296 86.4 
L 180 86.4 
z
" style="fill:#ffffff;"/>
   </g>
   <g id="matplotlib.axis_1">
    <g id="xtick_1">
     <g id="line2d_1">
      <defs>
       <path d="M 0 0 
L 0 3.5 
" id="mec7c505e18" style="stroke:#000000;stroke-width:0.8;"/>
      </defs>
      <g>
       <use style="stroke:#000000;stroke-width:0.8;" x="210.540583" xlink:href="#mec7c505e18" y="640.8"/>
      </g>
     </g>
     <g id="text_1">
      <!-- −8 -->
      <defs>
       <path d="M 10.59375 35.5 
L 73.1875 35.5 
L 73.1875 27.203125 
L 10.59375 27.203125 
z
" id="DejaVuSans-2212"/>
       <path d="M 31.78125 34.625 
Q 24.75 34.625 20.71875 30.859375 
Q 16.703125 27.09375 16.703125 20.515625 
Q 16.703125 13.921875 20.71875 10.15625 
Q 24.75 6.390625 31.78125 6.390625 
Q 38.8125 6.390625 42.859375 10.171875 
Q 46.921875 13.96875 46.921875 20.515625 
Q 46.921875 27.09375 42.890625 30.859375 
Q 38.875 34.625 31.78125 34.625 
z
M 21.921875 38.8125 
Q 15.578125 40.375 12.03125 44.71875 
Q 8.5 49.078125 8.5 55.328125 
Q 8.5 64.0625 14.71875 69.140625 
Q 20.953125 74.21875 31.78125 74.21875 
Q 42.671875 74.21875 48.875 69.140625 
Q 55.078125 64.0625 55.078125 55.328125 
Q 55.078125 49.078125 51.53125 44.71875 
Q 48 40.375 41.703125 38.8125 
Q 48.828125 37.15625 52.796875 32.3125 
Q 56.78125 27.484375 56.78125 20.515625 
Q 56.78125 9.90625 50.3125 4.234375 
Q 43.84375 -1.421875 31.78125 -1.421875 
Q 19.734375 -1.421875 13.25 4.234375 
Q 6.78125 9.90625 6.78125 20.515625 
Q 6.78125 27.484375 10.78125 32.3125 
Q 14.796875 37.15625 21.921875 38.8125 
z
M 18.3125 54.390625 
Q 18.3125 48.734375 21.84375 45.5625 
Q 25.390625 42.390625 31.78125 42.390625 
Q 38.140625 42.390625 41.71875 45.5625 
Q 45.3125 48.734375 45.3125 54.390625 
Q 45.3125 60.0625 41.71875 63.234375 
Q 38.140625 66.40625 31.78125 66.40625 
Q 25.390625 66.40625 21.84375 63.234375 
Q 18.3125 60.0625 18.3125 54.390625 
z
" id="DejaVuSans-38"/>
      </defs>
      <g transform="translate(203.16949 655.398438)scale(0.1 -0.1)">
       <use xlink:href="#DejaVuSans-2212"/>
       <use x="83.789062" xlink:href="#DejaVuSans-38"/>
      </g>
     </g>
    </g>
    <g id="xtick_2">
     <g id="line2d_2">
      <g>
       <use style="stroke:#000000;stroke-width:0.8;" x="342.102204" xlink:href="#mec7c505e18" y="640.8"/>
      </g>
     </g>
     <g id="text_2">
      <!-- −6 -->
      <defs>
       <path d="M 33.015625 40.375 
Q 26.375 40.375 22.484375 35.828125 
Q 18.609375 31.296875 18.609375 23.390625 
Q 18.609375 15.53125 22.484375 10.953125 
Q 26.375 6.390625 33.015625 6.390625 
Q 39.65625 6.390625 43.53125 10.953125 
Q 47.40625 15.53125 47.40625 23.390625 
Q 47.40625 31.296875 43.53125 35.828125 
Q 39.65625 40.375 33.015625 40.375 
z
M 52.59375 71.296875 
L 52.59375 62.3125 
Q 48.875 64.0625 45.09375 64.984375 
Q 41.3125 65.921875 37.59375 65.921875 
Q 27.828125 65.921875 22.671875 59.328125 
Q 17.53125 52.734375 16.796875 39.40625 
Q 19.671875 43.65625 24.015625 45.921875 
Q 28.375 48.1875 33.59375 48.1875 
Q 44.578125 48.1875 50.953125 41.515625 
Q 57.328125 34.859375 57.328125 23.390625 
Q 57.328125 12.15625 50.6875 5.359375 
Q 44.046875 -1.421875 33.015625 -1.421875 
Q 20.359375 -1.421875 13.671875 8.265625 
Q 6.984375 17.96875 6.984375 36.375 
Q 6.984375 53.65625 15.1875 63.9375 
Q 23.390625 74.21875 37.203125 74.21875 
Q 40.921875 74.21875 44.703125 73.484375 
Q 48.484375 72.75 52.59375 71.296875 
z
" id="DejaVuSans-36"/>
      </defs>
      <g transform="translate(334.73111 655.398438)scale(0.1 -0.1)">
       <use xlink:href="#DejaVuSans-2212"/>
       <use x="83.789062" xlink:href="#DejaVuSans-36"/>
      </g>
     </g>
    </g>
    <g id="xtick_3">
     <g id="line2d_3">
      <g>
       <use style="stroke:#000000;stroke-width:0.8;" x="473.663824" xlink:href="#mec7c505e18" y="640.8"/>
      </g>
     </g>
     <g id="text_3">
      <!-- −4 -->
      <defs>
       <path d="M 37.796875 64.3125 
L 12.890625 25.390625 
L 37.796875 25.390625 
z
M 35.203125 72.90625 
L 47.609375 72.90625 
L 47.609375 25.390625 
L 58.015625 25.390625 
L 58.015625 17.1875 
L 47.609375 17.1875 
L 47.609375 0 
L 37.796875 0 
L 37.796875 17.1875 
L 4.890625 17.1875 
L 4.890625 26.703125 
z
" id="DejaVuSans-34"/>
      </defs>
      <g transform="translate(466.29273 655.398438)scale(0.1 -0.1)">
       <use xlink:href="#DejaVuSans-2212"/>
       <use x="83.789062" xlink:href="#DejaVuSans-34"/>
      </g>
     </g>
    </g>
    <g id="xtick_4">
     <g id="line2d_4">
      <g>
       <use style="stroke:#000000;stroke-width:0.8;" x="605.225444" xlink:href="#mec7c505e18" y="640.8"/>
      </g>
     </g>
     <g id="text_4">
      <!-- −2 -->
      <defs>
       <path d="M 19.1875 8.296875 
L 53.609375 8.296875 
L 53.609375 0 
L 7.328125 0 
L 7.328125 8.296875 
Q 12.9375 14.109375 22.625 23.890625 
Q 32.328125 33.6875 34.8125 36.53125 
Q 39.546875 41.84375 41.421875 45.53125 
Q 43.3125 49.21875 43.3125 52.78125 
Q 43.3125 58.59375 39.234375 62.25 
Q 35.15625 65.921875 28.609375 65.921875 
Q 23.96875 65.921875 18.8125 64.3125 
Q 13.671875 62.703125 7.8125 59.421875 
L 7.8125 69.390625 
Q 13.765625 71.78125 18.9375 73 
Q 24.125 74.21875 28.421875 74.21875 
Q 39.75 74.21875 46.484375 68.546875 
Q 53.21875 62.890625 53.21875 53.421875 
Q 53.21875 48.921875 51.53125 44.890625 
Q 49.859375 40.875 45.40625 35.40625 
Q 44.1875 33.984375 37.640625 27.21875 
Q 31.109375 20.453125 19.1875 8.296875 
z
" id="DejaVuSans-32"/>
      </defs>
      <g transform="translate(597.854351 655.398438)scale(0.1 -0.1)">
       <use xlink:href="#DejaVuSans-2212"/>
       <use x="83.789062" xlink:href="#DejaVuSans-32"/>
      </g>
     </g>
    </g>
    <g id="xtick_5">
     <g id="line2d_5">
      <g>
       <use style="stroke:#000000;stroke-width:0.8;" x="736.787065" xlink:href="#mec7c505e18" y="640.8"/>
      </g>
     </g>
     <g id="text_5">
      <!-- 0 -->
      <defs>
       <path d="M 31.78125 66.40625 
Q 24.171875 66.40625 20.328125 58.90625 
Q 16.5 51.421875 16.5 36.375 
Q 16.5 21.390625 20.328125 13.890625 
Q 24.171875 6.390625 31.78125 6.390625 
Q 39.453125 6.390625 43.28125 13.890625 
Q 47.125 21.390625 47.125 36.375 
Q 47.125 51.421875 43.28125 58.90625 
Q 39.453125 66.40625 31.78125 66.40625 
z
M 31.78125 74.21875 
Q 44.046875 74.21875 50.515625 64.515625 
Q 56.984375 54.828125 56.984375 36.375 
Q 56.984375 17.96875 50.515625 8.265625 
Q 44.046875 -1.421875 31.78125 -1.421875 
Q 19.53125 -1.421875 13.0625 8.265625 
Q 6.59375 17.96875 6.59375 36.375 
Q 6.59375 54.828125 13.0625 64.515625 
Q 19.53125 74.21875 31.78125 74.21875 
z
" id="DejaVuSans-30"/>
      </defs>
      <g transform="translate(733.605815 655.398438)scale(0.1 -0.1)">
       <use xlink:href="#DejaVuSans-30"/>
      </g>
     </g>
    </g>
    <g id="xtick_6">
     <g id="line2d_6">
      <g>
       <use style="stroke:#000000;stroke-width:0.8;" x="868.348685" xlink:href="#mec7c505e18" y="640.8"/>
      </g>
     </g>
     <g id="text_6">
      <!-- 2 -->
      <g transform="translate(865.167435 655.398438)scale(0.1 -0.1)">
       <use xlink:href="#DejaVuSans-32"/>
      </g>
     </g>
    </g>
    <g id="xtick_7">
     <g id="line2d_7">
      <g>
       <use style="stroke:#000000;stroke-width:0.8;" x="999.910305" xlink:href="#mec7c505e18" y="640.8"/>
      </g>
     </g>
     <g id="text_7">
      <!-- 4 -->
      <g transform="translate(996.729055 655.398438)scale(0.1 -0.1)">
       <use xlink:href="#DejaVuSans-34"/>
      </g>
     </g>
    </g>
    <g id="xtick_8">
     <g id="line2d_8">
      <g>
       <use style="stroke:#000000;stroke-width:0.8;" x="1131.471926" xlink:href="#mec7c505e18" y="640.8"/>
      </g>
     </g>
     <g id="text_8">
      <!-- 6 -->
      <g transform="translate(1128.290676 655.398438)scale(0.1 -0.1)">
       <use xlink:href="#DejaVuSans-36"/>
      </g>
     </g>
    </g>
    <g id="xtick_9">
     <g id="line2d_9">
      <g>
       <use style="stroke:#000000;stroke-width:0.8;" x="1263.033546" xlink:href="#mec7c505e18" y="640.8"/>
      </g>
     </g>
     <g id="text_9">
      <!-- 8 -->
      <g transform="translate(1259.852296 655.398438)scale(0.1 -0.1)">
       <use xlink:href="#DejaVuSans-38"/>
      </g>
     </g>
    </g>
    <g id="text_10">
     <!-- TD Position-X -->
     <defs>
      <path d="M -0.296875 72.90625 
L 61.375 72.90625 
L 61.375 64.59375 
L 35.5 64.59375 
L 35.5 0 
L 25.59375 0 
L 25.59375 64.59375 
L -0.296875 64.59375 
z
" id="DejaVuSans-54"/>
      <path d="M 19.671875 64.796875 
L 19.671875 8.109375 
L 31.59375 8.109375 
Q 46.6875 8.109375 53.6875 14.9375 
Q 60.6875 21.78125 60.6875 36.53125 
Q 60.6875 51.171875 53.6875 57.984375 
Q 46.6875 64.796875 31.59375 64.796875 
z
M 9.8125 72.90625 
L 30.078125 72.90625 
Q 51.265625 72.90625 61.171875 64.09375 
Q 71.09375 55.28125 71.09375 36.53125 
Q 71.09375 17.671875 61.125 8.828125 
Q 51.171875 0 30.078125 0 
L 9.8125 0 
z
" id="DejaVuSans-44"/>
      <path id="DejaVuSans-20"/>
      <path d="M 19.671875 64.796875 
L 19.671875 37.40625 
L 32.078125 37.40625 
Q 38.96875 37.40625 42.71875 40.96875 
Q 46.484375 44.53125 46.484375 51.125 
Q 46.484375 57.671875 42.71875 61.234375 
Q 38.96875 64.796875 32.078125 64.796875 
z
M 9.8125 72.90625 
L 32.078125 72.90625 
Q 44.34375 72.90625 50.609375 67.359375 
Q 56.890625 61.8125 56.890625 51.125 
Q 56.890625 40.328125 50.609375 34.8125 
Q 44.34375 29.296875 32.078125 29.296875 
L 19.671875 29.296875 
L 19.671875 0 
L 9.8125 0 
z
" id="DejaVuSans-50"/>
      <path d="M 30.609375 48.390625 
Q 23.390625 48.390625 19.1875 42.75 
Q 14.984375 37.109375 14.984375 27.296875 
Q 14.984375 17.484375 19.15625 11.84375 
Q 23.34375 6.203125 30.609375 6.203125 
Q 37.796875 6.203125 41.984375 11.859375 
Q 46.1875 17.53125 46.1875 27.296875 
Q 46.1875 37.015625 41.984375 42.703125 
Q 37.796875 48.390625 30.609375 48.390625 
z
M 30.609375 56 
Q 42.328125 56 49.015625 48.375 
Q 55.71875 40.765625 55.71875 27.296875 
Q 55.71875 13.875 49.015625 6.21875 
Q 42.328125 -1.421875 30.609375 -1.421875 
Q 18.84375 -1.421875 12.171875 6.21875 
Q 5.515625 13.875 5.515625 27.296875 
Q 5.515625 40.765625 12.171875 48.375 
Q 18.84375 56 30.609375 56 
z
" id="DejaVuSans-6f"/>
      <path d="M 44.28125 53.078125 
L 44.28125 44.578125 
Q 40.484375 46.53125 36.375 47.5 
Q 32.28125 48.484375 27.875 48.484375 
Q 21.1875 48.484375 17.84375 46.4375 
Q 14.5 44.390625 14.5 40.28125 
Q 14.5 37.15625 16.890625 35.375 
Q 19.28125 33.59375 26.515625 31.984375 
L 29.59375 31.296875 
Q 39.15625 29.25 43.1875 25.515625 
Q 47.21875 21.78125 47.21875 15.09375 
Q 47.21875 7.46875 41.1875 3.015625 
Q 35.15625 -1.421875 24.609375 -1.421875 
Q 20.21875 -1.421875 15.453125 -0.5625 
Q 10.6875 0.296875 5.421875 2 
L 5.421875 11.28125 
Q 10.40625 8.6875 15.234375 7.390625 
Q 20.0625 6.109375 24.8125 6.109375 
Q 31.15625 6.109375 34.5625 8.28125 
Q 37.984375 10.453125 37.984375 14.40625 
Q 37.984375 18.0625 35.515625 20.015625 
Q 33.0625 21.96875 24.703125 23.78125 
L 21.578125 24.515625 
Q 13.234375 26.265625 9.515625 29.90625 
Q 5.8125 33.546875 5.8125 39.890625 
Q 5.8125 47.609375 11.28125 51.796875 
Q 16.75 56 26.8125 56 
Q 31.78125 56 36.171875 55.265625 
Q 40.578125 54.546875 44.28125 53.078125 
z
" id="DejaVuSans-73"/>
      <path d="M 9.421875 54.6875 
L 18.40625 54.6875 
L 18.40625 0 
L 9.421875 0 
z
M 9.421875 75.984375 
L 18.40625 75.984375 
L 18.40625 64.59375 
L 9.421875 64.59375 
z
" id="DejaVuSans-69"/>
      <path d="M 18.3125 70.21875 
L 18.3125 54.6875 
L 36.8125 54.6875 
L 36.8125 47.703125 
L 18.3125 47.703125 
L 18.3125 18.015625 
Q 18.3125 11.328125 20.140625 9.421875 
Q 21.96875 7.515625 27.59375 7.515625 
L 36.8125 7.515625 
L 36.8125 0 
L 27.59375 0 
Q 17.1875 0 13.234375 3.875 
Q 9.28125 7.765625 9.28125 18.015625 
L 9.28125 47.703125 
L 2.6875 47.703125 
L 2.6875 54.6875 
L 9.28125 54.6875 
L 9.28125 70.21875 
z
" id="DejaVuSans-74"/>
      <path d="M 54.890625 33.015625 
L 54.890625 0 
L 45.90625 0 
L 45.90625 32.71875 
Q 45.90625 40.484375 42.875 44.328125 
Q 39.84375 48.1875 33.796875 48.1875 
Q 26.515625 48.1875 22.3125 43.546875 
Q 18.109375 38.921875 18.109375 30.90625 
L 18.109375 0 
L 9.078125 0 
L 9.078125 54.6875 
L 18.109375 54.6875 
L 18.109375 46.1875 
Q 21.34375 51.125 25.703125 53.5625 
Q 30.078125 56 35.796875 56 
Q 45.21875 56 50.046875 50.171875 
Q 54.890625 44.34375 54.890625 33.015625 
z
" id="DejaVuSans-6e"/>
      <path d="M 4.890625 31.390625 
L 31.203125 31.390625 
L 31.203125 23.390625 
L 4.890625 23.390625 
z
" id="DejaVuSans-2d"/>
      <path d="M 6.296875 72.90625 
L 16.890625 72.90625 
L 35.015625 45.796875 
L 53.21875 72.90625 
L 63.8125 72.90625 
L 40.375 37.890625 
L 65.375 0 
L 54.78125 0 
L 34.28125 31 
L 13.625 0 
L 2.984375 0 
L 29 38.921875 
z
" id="DejaVuSans-58"/>
     </defs>
     <g transform="translate(704.639063 669.076563)scale(0.1 -0.1)">
      <use xlink:href="#DejaVuSans-54"/>
      <use x="61.083984" xlink:href="#DejaVuSans-44"/>
      <use x="138.085938" xlink:href="#DejaVuSans-20"/>
      <use x="169.873047" xlink:href="#DejaVuSans-50"/>
      <use x="230.128906" xlink:href="#DejaVuSans-6f"/>
      <use x="291.310547" xlink:href="#DejaVuSans-73"/>
      <use x="343.410156" xlink:href="#DejaVuSans-69"/>
      <use x="371.193359" xlink:href="#DejaVuSans-74"/>
      <use x="410.402344" xlink:href="#DejaVuSans-69"/>
      <use x="438.185547" xlink:href="#DejaVuSans-6f"/>
      <use x="499.367188" xlink:href="#DejaVuSans-6e"/>
      <use x="562.746094" xlink:href="#DejaVuSans-2d"/>
      <use x="598.751953" xlink:href="#DejaVuSans-58"/>
     </g>
    </g>
   </g>
   <g id="matplotlib.axis_2">
    <g id="ytick_1">
     <g id="line2d_10">
      <defs>
       <path d="M 0 0 
L -3.5 0 
" id="mf09f3f313a" style="stroke:#000000;stroke-width:0.8;"/>
      </defs>
      <g>
       <use style="stroke:#000000;stroke-width:0.8;" x="180" xlink:href="#mf09f3f313a" y="595.702268"/>
      </g>
     </g>
     <g id="text_11">
      <!-- −6 -->
      <g transform="translate(158.257812 599.501486)scale(0.1 -0.1)">
       <use xlink:href="#DejaVuSans-2212"/>
       <use x="83.789062" xlink:href="#DejaVuSans-36"/>
      </g>
     </g>
    </g>
    <g id="ytick_2">
     <g id="line2d_11">
      <g>
       <use style="stroke:#000000;stroke-width:0.8;" x="180" xlink:href="#mf09f3f313a" y="501.176224"/>
      </g>
     </g>
     <g id="text_12">
      <!-- −4 -->
      <g transform="translate(158.257812 504.975442)scale(0.1 -0.1)">
       <use xlink:href="#DejaVuSans-2212"/>
       <use x="83.789062" xlink:href="#DejaVuSans-34"/>
      </g>
     </g>
    </g>
    <g id="ytick_3">
     <g id="line2d_12">
      <g>
       <use style="stroke:#000000;stroke-width:0.8;" x="180" xlink:href="#mf09f3f313a" y="406.65018"/>
      </g>
     </g>
     <g id="text_13">
      <!-- −2 -->
      <g transform="translate(158.257812 410.449398)scale(0.1 -0.1)">
       <use xlink:href="#DejaVuSans-2212"/>
       <use x="83.789062" xlink:href="#DejaVuSans-32"/>
      </g>
     </g>
    </g>
    <g id="ytick_4">
     <g id="line2d_13">
      <g>
       <use style="stroke:#000000;stroke-width:0.8;" x="180" xlink:href="#mf09f3f313a" y="312.124135"/>
      </g>
     </g>
     <g id="text_14">
      <!-- 0 -->
      <g transform="translate(166.6375 315.923354)scale(0.1 -0.1)">
       <use xlink:href="#DejaVuSans-30"/>
      </g>
     </g>
    </g>
    <g id="ytick_5">
     <g id="line2d_14">
      <g>
       <use style="stroke:#000000;stroke-width:0.8;" x="180" xlink:href="#mf09f3f313a" y="217.598091"/>
      </g>
     </g>
     <g id="text_15">
      <!-- 2 -->
      <g transform="translate(166.6375 221.39731)scale(0.1 -0.1)">
       <use xlink:href="#DejaVuSans-32"/>
      </g>
     </g>
    </g>
    <g id="ytick_6">
     <g id="line2d_15">
      <g>
       <use style="stroke:#000000;stroke-width:0.8;" x="180" xlink:href="#mf09f3f313a" y="123.072047"/>
      </g>
     </g>
     <g id="text_16">
      <!-- 4 -->
      <g transform="translate(166.6375 126.871266)scale(0.1 -0.1)">
       <use xlink:href="#DejaVuSans-34"/>
      </g>
     </g>
    </g>
    <g id="text_17">
     <!-- TD Position-Y -->
     <defs>
      <path d="M -0.203125 72.90625 
L 10.40625 72.90625 
L 30.609375 42.921875 
L 50.6875 72.90625 
L 61.28125 72.90625 
L 35.5 34.71875 
L 35.5 0 
L 25.59375 0 
L 25.59375 34.71875 
z
" id="DejaVuSans-59"/>
     </defs>
     <g transform="translate(152.178125 396.585156)rotate(-90)scale(0.1 -0.1)">
      <use xlink:href="#DejaVuSans-54"/>
      <use x="61.083984" xlink:href="#DejaVuSans-44"/>
      <use x="138.085938" xlink:href="#DejaVuSans-20"/>
      <use x="169.873047" xlink:href="#DejaVuSans-50"/>
      <use x="230.128906" xlink:href="#DejaVuSans-6f"/>
      <use x="291.310547" xlink:href="#DejaVuSans-73"/>
      <use x="343.410156" xlink:href="#DejaVuSans-69"/>
      <use x="371.193359" xlink:href="#DejaVuSans-74"/>
      <use x="410.402344" xlink:href="#DejaVuSans-69"/>
      <use x="438.185547" xlink:href="#DejaVuSans-6f"/>
      <use x="499.367188" xlink:href="#DejaVuSans-6e"/>
      <use x="562.746094" xlink:href="#DejaVuSans-2d"/>
      <use x="598.658203" xlink:href="#DejaVuSans-59"/>
     </g>
    </g>
   </g>
   <g id="line2d_16">
    <path clip-path="url(#p60a392d8f6)" d="M 942.771627 360.244929 
L 941.980526 363.084134 
L 943.030057 365.237476 
L 943.009041 367.751114 
L 941.150688 366.095924 
L 934.331309 368.768469 
L 934.481054 365.476591 
L 933.935053 369.803966 
L 932.19583 368.318613 
L 931.659929 369.104966 
L 939.816127 371.354428 
L 936.907898 372.116508 
L 937.801567 373.490102 
L 937.815557 372.775934 
L 937.021414 371.068346 
L 936.042333 373.362544 
L 935.034394 374.409151 
L 928.987233 372.673324 
L 930.166246 375.49664 
L 929.158025 374.011287 
L 936.25961 375.300097 
L 940.144725 379.042575 
L 940.100435 380.86519 
L 935.898516 380.528559 
L 937.218774 382.407224 
L 935.56628 380.421058 
L 934.121183 380.472014 
L 933.746288 382.916261 
L 927.901536 385.051643 
L 929.32477 383.415428 
L 929.353502 387.274218 
L 927.194843 381.31854 
L 935.748521 386.75576 
L 934.715834 390.666114 
L 935.761161 388.8707 
L 936.048481 395.218698 
L 928.704179 389.69372 
L 928.230071 392.11507 
L 926.786386 395.997885 
L 926.554084 393.469327 
L 931.275028 398.387007 
L 931.942889 398.451935 
L 930.449456 397.544064 
L 929.450457 399.9962 
L 922.998633 398.411482 
L 923.444982 396.31518 
L 921.332213 399.914617 
L 931.642552 397.869698 
L 928.056739 403.924245 
L 928.893383 404.266984 
L 928.600983 406.909961 
L 923.264435 405.778255 
L 932.233439 405.250353 
L 932.85795 412.900256 
L 928.851603 408.428601 
L 927.749564 412.561618 
L 926.3082 413.713427 
L 935.361047 412.17678 
L 937.623875 414.988467 
L 936.995787 416.524889 
L 932.526624 413.74259 
L 929.507858 418.804392 
L 930.646564 415.813606 
L 939.110595 414.129704 
L 934.231813 420.094284 
L 935.288151 419.788212 
L 934.735406 421.048198 
L 933.710216 421.304959 
L 934.788918 417.951173 
L 940.23848 422.95625 
L 938.537525 422.838518 
L 936.016173 427.079149 
L 935.892651 424.808186 
L 937.711357 427.516069 
L 941.603122 429.336566 
L 941.203635 430.279099 
L 941.632261 428.469216 
L 934.057477 430.849437 
L 934.526128 430.315541 
L 943.831477 428.956258 
L 945.293951 433.318294 
L 940.001505 431.353336 
L 937.573688 437.611458 
L 938.005608 435.138138 
L 945.705985 436.588604 
L 944.85444 435.897875 
L 942.617365 440.145402 
L 943.44529 439.337909 
L 950.806216 441.436488 
L 954.45448 443.136166 
L 948.831648 442.725771 
L 948.14983 444.418891 
L 946.013661 447.090399 
L 947.019278 443.738889 
L 947.466631 445.682166 
L 951.553152 449.140208 
L 950.850223 447.832219 
L 947.209141 451.461697 
L 948.83306 447.787799 
L 949.264635 450.554615 
L 952.990438 451.054188 
L 952.547697 452.473553 
L 952.937303 449.9907 
L 952.050973 455.912889 
L 956.036556 456.416157 
L 953.859767 458.220428 
L 954.573392 457.011714 
L 949.918694 453.851609 
L 953.658738 462.477871 
L 958.24951 460.3671 
L 947.779671 462.026505 
L 951.782505 460.012687 
L 953.342373 465.8148 
L 963.398234 463.684061 
L 850.451744 301.28207 
L 1076.893055 463.801951 
L 441.046404 154.041349 
L 277.241568 320.295426 
L 316.095134 111.6 
L 279.460514 196.389598 
L 230.727273 216.189656 
L 359.203912 169.765701 
L 249.06414 203.631314 
L 405.176692 149.564758 
L 406.760555 147.947317 
L 404.804149 148.921582 
L 406.535154 148.368056 
L 409.669569 146.607552 
L 407.425405 147.305403 
L 409.296148 146.659138 
L 410.282695 146.144917 
L 411.396998 145.949478 
L 411.455434 145.825188 
L 412.476076 145.52439 
L 413.498632 145.454909 
L 413.501894 145.309547 
L 414.784386 144.98051 
L 415.95264 144.902916 
L 417.089809 144.669074 
L 416.571693 144.715162 
L 418.528162 144.256539 
L 424.510018 145.730218 
L 418.5568 144.800419 
L 420.541467 142.808552 
L 424.340136 141.572252 
L 423.701885 141.202537 
L 422.278651 142.035721 
L 419.592341 142.181489 
L 423.524883 141.341724 
L 423.874057 141.635265 
L 423.064921 141.683945 
L 425.020449 141.189398 
L 427.342497 140.75099 
L 428.722947 140.350286 
L 433.013414 141.855765 
L 429.283815 140.612389 
L 430.269829 139.187502 
L 430.151513 140.181486 
L 431.701438 140.079192 
L 431.630204 140.559135 
L 429.742836 141.452064 
L 433.117928 140.820606 
L 430.892992 142.038313 
L 434.122793 140.99326 
L 434.164448 141.680023 
L 436.827233 138.828153 
L 442.740207 139.620659 
L 435.772244 139.809675 
L 435.887078 136.742669 
L 438.394974 137.60914 
L 439.857228 137.572991 
L 439.213018 137.717271 
L 439.766547 138.424497 
L 445.776068 137.520593 
L 447.338194 137.525754 
L 450.339332 139.343051 
L 449.563664 137.483858 
L 453.254776 133.879215 
L 450.427002 134.503866 
L 452.837661 134.812778 
L 452.686473 134.741607 
L 450.978523 135.040264 
L 457.008496 133.674626 
L 462.182188 136.052796 
L 456.382573 134.712039 
L 461.980186 131.800942 
L 466.941462 129.901589 
L 468.58166 132.571429 
L 464.777565 130.788861 
L 468.160781 128.829334 
L 469.597441 129.250569 
L 467.882935 130.229746 
L 472.8093 129.218161 
L 482.83712 128.588259 
L 480.152347 126.687102 
L 480.215488 125.890968 
L 481.260408 125.545773 
L 481.260408 125.545773 
" style="fill:none;stroke:#000000;stroke-linecap:square;stroke-width:4;"/>
   </g>
   <g id="line2d_17">
    <path clip-path="url(#p60a392d8f6)" d="M 1021.946877 435.007993 
L 1047.798735 451.55005 
L 1023.525616 438.316404 
L 736.787065 312.124135 
L 1000.107648 425.555388 
L 981.228555 420.829086 
L 736.787065 312.124135 
L 1114.237353 445.405858 
L 1099.173548 436.425883 
L 736.787065 312.124135 
L 1067.796101 424.610128 
L 1041.746901 413.739633 
L 736.787065 312.124135 
L 1134.300501 418.938565 
L 1100.818068 409.013331 
L 736.787065 312.124135 
L 1098.055274 430.754321 
L 1072.927005 435.480623 
L 736.787065 312.124135 
L 1159.42877 423.664867 
L 1129.695844 412.794372 
L 736.787065 312.124135 
L 1093.911083 402.396508 
L 1150.679922 416.575414 
L 1147.061978 435.007993 
L 1112.461272 428.39117 
L 1116.40812 463.838436 
L 1155.942387 507.320417 
L 1131.471926 484.161536 
L 1088.977522 469.037369 
L 736.787065 312.124135 
L 1133.511131 498.813073 
L 1127.196173 484.634166 
L 736.787065 312.124135 
L 1087.793468 466.201587 
L 1223.893964 506.375156 
L 736.787065 312.124135 
L 1178.176301 488.415208 
L 1134.760966 471.87315 
L 1182.780958 497.867812 
L 1178.834109 485.579426 
L 1138.050007 497.395182 
L 1184.754382 547.966615 
L 1111.079875 506.847786 
L 1110.422066 489.833098 
L 1113.053299 548.439246 
L 736.787065 312.124135 
L 1082.794126 547.493985 
L 736.787065 312.124135 
L 1118.973572 553.165548 
L 1105.81741 555.528699 
L 736.787065 312.124135 
L 1104.501794 545.603464 
L 1078.189469 530.479297 
L 736.787065 312.124135 
L 1103.186177 536.62349 
L 1105.81741 513.464609 
L 736.787065 312.124135 
L 1100.554945 543.712943 
L 1166.335755 569.707606 
L 1119.63138 545.603464 
L 1080.162894 521.499323 
L 1084.109742 533.787709 
L 736.787065 312.124135 
L 1181.465341 571.598126 
L 736.787065 312.124135 
L 1142.654663 554.110808 
L 1106.475218 526.698256 
L 736.787065 312.124135 
L 1132.129734 527.643516 
L 1187.385614 561.672892 
L 1148.574936 541.822423 
L 1157.78425 531.897188 
L 1147.917128 556.94659 
L 736.787065 312.124135 
L 1161.07329 546.076095 
L 1168.309179 559.309741 
L 736.787065 312.124135 
L 1155.810825 544.658204 
L 736.787065 312.124135 
L 1131.471926 538.514011 
L 1180.807533 563.563413 
L 1147.917128 553.165548 
L 736.787065 312.124135 
L 1107.133026 593.953536 
L 736.787065 312.124135 
L 1141.339047 604.96582 
L 1133.44535 615.6 
L 736.787065 312.124135 
L 1089.372207 585.682507 
L 1179.491917 596.978369 
L 736.787065 312.124135 
L 1159.099866 588.896393 
L 1127.525077 570.652866 
L 1137.392199 567.817085 
L 1193.963695 602.224565 
L 736.787065 312.124135 
L 1156.468634 577.60053 
L 1195.93712 596.647528 
L 1196.594928 587.714817 
L 1197.910544 579.821892 
L 1174.88726 563.98878 
L 736.787065 312.124135 
L 1245.272727 583.555671 
L 736.787065 312.124135 
L 1193.305887 556.852064 
L 1210.408898 587.336713 
L 1222.907252 597.498263 
L 736.787065 312.124135 
L 1190.674655 572.496124 
L 1129.498501 538.324959 
L 736.787065 312.124135 
L 1050.561529 502.877692 
L 909.790595 428.485696 
L 774.282126 363.357251 
L 726.262135 346.248037 
L 736.787065 312.124135 
L 716.395014 330.745766 
L 696.002962 323.939891 
L 736.787065 312.124135 
L 678.242144 312.833081 
L 666.401598 303.947633 
L 736.787065 312.124135 
L 652.587628 290.997565 
L 641.40489 281.734012 
L 736.787065 312.124135 
L 636.800233 279.181809 
L 630.87996 272.895827 
L 624.959687 268.925733 
L 736.787065 312.124135 
L 618.381606 261.316387 
L 620.355031 260.465652 
L 736.787065 312.124135 
L 623.644071 251.485678 
L 618.381606 256.259243 
L 618.381606 255.975665 
L 595.358323 255.550298 
L 736.787065 312.124135 
L 601.936404 249.831472 
L 605.883252 250.115051 
L 736.787065 312.124135 
L 600.620788 257.393556 
L 614.434758 251.391152 
L 610.487909 259.33134 
L 736.787065 312.124135 
L 611.145717 253.848829 
L 619.697223 255.644824 
L 736.787065 312.124135 
L 611.803525 249.595157 
L 622.328455 252.194624 
L 736.787065 312.124135 
L 540.102442 212.446422 
L 736.787065 312.124135 
L 552.600796 217.692617 
L 563.783534 223.033339 
L 736.787065 312.124135 
L 576.281888 228.37406 
L 586.806818 233.572993 
L 736.787065 312.124135 
L 598.647363 238.819188 
L 609.172293 243.923595 
L 736.787065 312.124135 
L 601.278596 230.359107 
L 457.218621 151.524387 
L 436.82657 149.113972 
L 736.787065 312.124135 
L 451.298349 160.504361 
L 473.006016 171.611171 
L 736.787065 312.124135 
L 494.055875 182.434403 
L 510.501078 192.926794 
L 736.787065 312.124135 
L 452.613965 176.479262 
L 406.567398 155.967111 
L 736.787065 312.124135 
L 417.750135 165.986871 
L 444.720268 178.417046 
L 474.321632 192.974057 
L 736.787065 312.124135 
L 435.510954 178.79515 
L 455.245197 189.854697 
L 481.557521 201.575927 
L 736.787065 312.124135 
L 432.221914 162.347619 
L 384.85973 138.007162 
L 416.434519 153.414907 
L 446.035884 170.8077 
L 468.401359 182.056299 
L 736.787065 312.124135 
L 417.750135 150.342811 
L 364.467679 131.24855 
L 392.753428 140.133998 
L 736.787065 312.124135 
L 428.275065 150.862704 
L 736.787065 312.124135 
L 418.407943 145.521983 
L 417.750135 129.972449 
L 402.620549 126.333196 
L 402.620549 126.333196 
" style="fill:none;stroke:#ff0000;stroke-linecap:square;stroke-width:1.5;"/>
   </g>
   <g id="patch_3">
    <path d="M 180 640.8 
L 180 86.4 
" style="fill:none;stroke:#000000;stroke-linecap:square;stroke-linejoin:miter;stroke-width:0.8;"/>
   </g>
   <g id="patch_4">
    <path d="M 1296 640.8 
L 1296 86.4 
" style="fill:none;stroke:#000000;stroke-linecap:square;stroke-linejoin:miter;stroke-width:0.8;"/>
   </g>
   <g id="patch_5">
    <path d="M 180 640.8 
L 1296 640.8 
" style="fill:none;stroke:#000000;stroke-linecap:square;stroke-linejoin:miter;stroke-width:0.8;"/>
   </g>
   <g id="patch_6">
    <path d="M 180 86.4 
L 1296 86.4 
" style="fill:none;stroke:#000000;stroke-linecap:square;stroke-linejoin:miter;stroke-width:0.8;"/>
   </g>
   <g id="legend_1">
    <g id="patch_7">
     <path d="M 1234.3125 123.75625 
L 1289 123.75625 
Q 1291 123.75625 1291 121.75625 
L 1291 93.4 
Q 1291 91.4 1289 91.4 
L 1234.3125 91.4 
Q 1232.3125 91.4 1232.3125 93.4 
L 1232.3125 121.75625 
Q 1232.3125 123.75625 1234.3125 123.75625 
z
" style="fill:#ffffff;opacity:0.8;stroke:#cccccc;stroke-linejoin:miter;"/>
    </g>
    <g id="line2d_18">
     <path d="M 1236.3125 99.498437 
L 1256.3125 99.498437 
" style="fill:none;stroke:#000000;stroke-linecap:square;stroke-width:4;"/>
    </g>
    <g id="line2d_19"/>
    <g id="text_18">
     <!-- Pred -->
     <defs>
      <path d="M 41.109375 46.296875 
Q 39.59375 47.171875 37.8125 47.578125 
Q 36.03125 48 33.890625 48 
Q 26.265625 48 22.1875 43.046875 
Q 18.109375 38.09375 18.109375 28.8125 
L 18.109375 0 
L 9.078125 0 
L 9.078125 54.6875 
L 18.109375 54.6875 
L 18.109375 46.1875 
Q 20.953125 51.171875 25.484375 53.578125 
Q 30.03125 56 36.53125 56 
Q 37.453125 56 38.578125 55.875 
Q 39.703125 55.765625 41.0625 55.515625 
z
" id="DejaVuSans-72"/>
      <path d="M 56.203125 29.59375 
L 56.203125 25.203125 
L 14.890625 25.203125 
Q 15.484375 15.921875 20.484375 11.0625 
Q 25.484375 6.203125 34.421875 6.203125 
Q 39.59375 6.203125 44.453125 7.46875 
Q 49.3125 8.734375 54.109375 11.28125 
L 54.109375 2.78125 
Q 49.265625 0.734375 44.1875 -0.34375 
Q 39.109375 -1.421875 33.890625 -1.421875 
Q 20.796875 -1.421875 13.15625 6.1875 
Q 5.515625 13.8125 5.515625 26.8125 
Q 5.515625 40.234375 12.765625 48.109375 
Q 20.015625 56 32.328125 56 
Q 43.359375 56 49.78125 48.890625 
Q 56.203125 41.796875 56.203125 29.59375 
z
M 47.21875 32.234375 
Q 47.125 39.59375 43.09375 43.984375 
Q 39.0625 48.390625 32.421875 48.390625 
Q 24.90625 48.390625 20.390625 44.140625 
Q 15.875 39.890625 15.1875 32.171875 
z
" id="DejaVuSans-65"/>
      <path d="M 45.40625 46.390625 
L 45.40625 75.984375 
L 54.390625 75.984375 
L 54.390625 0 
L 45.40625 0 
L 45.40625 8.203125 
Q 42.578125 3.328125 38.25 0.953125 
Q 33.9375 -1.421875 27.875 -1.421875 
Q 17.96875 -1.421875 11.734375 6.484375 
Q 5.515625 14.40625 5.515625 27.296875 
Q 5.515625 40.1875 11.734375 48.09375 
Q 17.96875 56 27.875 56 
Q 33.9375 56 38.25 53.625 
Q 42.578125 51.265625 45.40625 46.390625 
z
M 14.796875 27.296875 
Q 14.796875 17.390625 18.875 11.75 
Q 22.953125 6.109375 30.078125 6.109375 
Q 37.203125 6.109375 41.296875 11.75 
Q 45.40625 17.390625 45.40625 27.296875 
Q 45.40625 37.203125 41.296875 42.84375 
Q 37.203125 48.484375 30.078125 48.484375 
Q 22.953125 48.484375 18.875 42.84375 
Q 14.796875 37.203125 14.796875 27.296875 
z
" id="DejaVuSans-64"/>
     </defs>
     <g transform="translate(1264.3125 102.998437)scale(0.1 -0.1)">
      <use xlink:href="#DejaVuSans-50"/>
      <use x="60.287109" xlink:href="#DejaVuSans-72"/>
      <use x="101.369141" xlink:href="#DejaVuSans-65"/>
      <use x="162.892578" xlink:href="#DejaVuSans-64"/>
     </g>
    </g>
    <g id="line2d_20">
     <path d="M 1236.3125 114.176562 
L 1256.3125 114.176562 
" style="fill:none;stroke:#ff0000;stroke-linecap:square;stroke-width:1.5;"/>
    </g>
    <g id="line2d_21"/>
    <g id="text_19">
     <!-- True -->
     <defs>
      <path d="M 8.5 21.578125 
L 8.5 54.6875 
L 17.484375 54.6875 
L 17.484375 21.921875 
Q 17.484375 14.15625 20.5 10.265625 
Q 23.53125 6.390625 29.59375 6.390625 
Q 36.859375 6.390625 41.078125 11.03125 
Q 45.3125 15.671875 45.3125 23.6875 
L 45.3125 54.6875 
L 54.296875 54.6875 
L 54.296875 0 
L 45.3125 0 
L 45.3125 8.40625 
Q 42.046875 3.421875 37.71875 1 
Q 33.40625 -1.421875 27.6875 -1.421875 
Q 18.265625 -1.421875 13.375 4.4375 
Q 8.5 10.296875 8.5 21.578125 
z
M 31.109375 56 
z
" id="DejaVuSans-75"/>
     </defs>
     <g transform="translate(1264.3125 117.676562)scale(0.1 -0.1)">
      <use xlink:href="#DejaVuSans-54"/>
      <use x="60.865234" xlink:href="#DejaVuSans-72"/>
      <use x="101.978516" xlink:href="#DejaVuSans-75"/>
      <use x="165.357422" xlink:href="#DejaVuSans-65"/>
     </g>
    </g>
   </g>
  </g>
 </g>
 <defs>
  <clipPath id="p60a392d8f6">
   <rect height="554.4" width="1116" x="180" y="86.4"/>
  </clipPath>
 </defs>
</svg>
