<?xml version="1.0" encoding="utf-8" standalone="no"?>
<!DOCTYPE svg PUBLIC "-//W3C//DTD SVG 1.1//EN"
  "http://www.w3.org/Graphics/SVG/1.1/DTD/svg11.dtd">
<!-- Created with matplotlib (http://matplotlib.org/) -->
<svg height="345.6pt" version="1.1" viewBox="0 0 460.8 345.6" width="460.8pt" xmlns="http://www.w3.org/2000/svg" xmlns:xlink="http://www.w3.org/1999/xlink">
 <defs>
  <style type="text/css">
*{stroke-linecap:butt;stroke-linejoin:round;}
  </style>
 </defs>
 <g id="figure_1">
  <g id="patch_1">
   <path d="M 0 345.6 
L 460.8 345.6 
L 460.8 0 
L 0 0 
z
" style="fill:#ffffff;"/>
  </g>
  <g id="axes_1">
   <g id="patch_2">
    <path d="M 57.6 119.740235 
L 414.72 119.740235 
L 414.72 41.472 
L 57.6 41.472 
z
" style="fill:#ffffff;"/>
   </g>
   <g id="matplotlib.axis_1">
    <g id="xtick_1">
     <g id="line2d_1">
      <defs>
       <path d="M 0 0 
L 0 3.5 
" id="mb0d952fbac" style="stroke:#000000;stroke-width:0.8;"/>
      </defs>
      <g>
       <use style="stroke:#000000;stroke-width:0.8;" x="73.832727" xlink:href="#mb0d952fbac" y="119.740235"/>
      </g>
     </g>
     <g id="text_1">
      <!-- 0 -->
      <defs>
       <path d="M 31.78125 66.40625 
Q 24.171875 66.40625 20.328125 58.90625 
Q 16.5 51.421875 16.5 36.375 
Q 16.5 21.390625 20.328125 13.890625 
Q 24.171875 6.390625 31.78125 6.390625 
Q 39.453125 6.390625 43.28125 13.890625 
Q 47.125 21.390625 47.125 36.375 
Q 47.125 51.421875 43.28125 58.90625 
Q 39.453125 66.40625 31.78125 66.40625 
z
M 31.78125 74.21875 
Q 44.046875 74.21875 50.515625 64.515625 
Q 56.984375 54.828125 56.984375 36.375 
Q 56.984375 17.96875 50.515625 8.265625 
Q 44.046875 -1.421875 31.78125 -1.421875 
Q 19.53125 -1.421875 13.0625 8.265625 
Q 6.59375 17.96875 6.59375 36.375 
Q 6.59375 54.828125 13.0625 64.515625 
Q 19.53125 74.21875 31.78125 74.21875 
z
" id="DejaVuSans-30"/>
      </defs>
      <g transform="translate(70.651477 134.338673)scale(0.1 -0.1)">
       <use xlink:href="#DejaVuSans-30"/>
      </g>
     </g>
    </g>
    <g id="xtick_2">
     <g id="line2d_2">
      <g>
       <use style="stroke:#000000;stroke-width:0.8;" x="138.763636" xlink:href="#mb0d952fbac" y="119.740235"/>
      </g>
     </g>
     <g id="text_2">
      <!-- 10 -->
      <defs>
       <path d="M 12.40625 8.296875 
L 28.515625 8.296875 
L 28.515625 63.921875 
L 10.984375 60.40625 
L 10.984375 69.390625 
L 28.421875 72.90625 
L 38.28125 72.90625 
L 38.28125 8.296875 
L 54.390625 8.296875 
L 54.390625 0 
L 12.40625 0 
z
" id="DejaVuSans-31"/>
      </defs>
      <g transform="translate(132.401136 134.338673)scale(0.1 -0.1)">
       <use xlink:href="#DejaVuSans-31"/>
       <use x="63.623047" xlink:href="#DejaVuSans-30"/>
      </g>
     </g>
    </g>
    <g id="xtick_3">
     <g id="line2d_3">
      <g>
       <use style="stroke:#000000;stroke-width:0.8;" x="203.694545" xlink:href="#mb0d952fbac" y="119.740235"/>
      </g>
     </g>
     <g id="text_3">
      <!-- 20 -->
      <defs>
       <path d="M 19.1875 8.296875 
L 53.609375 8.296875 
L 53.609375 0 
L 7.328125 0 
L 7.328125 8.296875 
Q 12.9375 14.109375 22.625 23.890625 
Q 32.328125 33.6875 34.8125 36.53125 
Q 39.546875 41.84375 41.421875 45.53125 
Q 43.3125 49.21875 43.3125 52.78125 
Q 43.3125 58.59375 39.234375 62.25 
Q 35.15625 65.921875 28.609375 65.921875 
Q 23.96875 65.921875 18.8125 64.3125 
Q 13.671875 62.703125 7.8125 59.421875 
L 7.8125 69.390625 
Q 13.765625 71.78125 18.9375 73 
Q 24.125 74.21875 28.421875 74.21875 
Q 39.75 74.21875 46.484375 68.546875 
Q 53.21875 62.890625 53.21875 53.421875 
Q 53.21875 48.921875 51.53125 44.890625 
Q 49.859375 40.875 45.40625 35.40625 
Q 44.1875 33.984375 37.640625 27.21875 
Q 31.109375 20.453125 19.1875 8.296875 
z
" id="DejaVuSans-32"/>
      </defs>
      <g transform="translate(197.332045 134.338673)scale(0.1 -0.1)">
       <use xlink:href="#DejaVuSans-32"/>
       <use x="63.623047" xlink:href="#DejaVuSans-30"/>
      </g>
     </g>
    </g>
    <g id="xtick_4">
     <g id="line2d_4">
      <g>
       <use style="stroke:#000000;stroke-width:0.8;" x="268.625455" xlink:href="#mb0d952fbac" y="119.740235"/>
      </g>
     </g>
     <g id="text_4">
      <!-- 30 -->
      <defs>
       <path d="M 40.578125 39.3125 
Q 47.65625 37.796875 51.625 33 
Q 55.609375 28.21875 55.609375 21.1875 
Q 55.609375 10.40625 48.1875 4.484375 
Q 40.765625 -1.421875 27.09375 -1.421875 
Q 22.515625 -1.421875 17.65625 -0.515625 
Q 12.796875 0.390625 7.625 2.203125 
L 7.625 11.71875 
Q 11.71875 9.328125 16.59375 8.109375 
Q 21.484375 6.890625 26.8125 6.890625 
Q 36.078125 6.890625 40.9375 10.546875 
Q 45.796875 14.203125 45.796875 21.1875 
Q 45.796875 27.640625 41.28125 31.265625 
Q 36.765625 34.90625 28.71875 34.90625 
L 20.21875 34.90625 
L 20.21875 43.015625 
L 29.109375 43.015625 
Q 36.375 43.015625 40.234375 45.921875 
Q 44.09375 48.828125 44.09375 54.296875 
Q 44.09375 59.90625 40.109375 62.90625 
Q 36.140625 65.921875 28.71875 65.921875 
Q 24.65625 65.921875 20.015625 65.03125 
Q 15.375 64.15625 9.8125 62.3125 
L 9.8125 71.09375 
Q 15.4375 72.65625 20.34375 73.4375 
Q 25.25 74.21875 29.59375 74.21875 
Q 40.828125 74.21875 47.359375 69.109375 
Q 53.90625 64.015625 53.90625 55.328125 
Q 53.90625 49.265625 50.4375 45.09375 
Q 46.96875 40.921875 40.578125 39.3125 
z
" id="DejaVuSans-33"/>
      </defs>
      <g transform="translate(262.262955 134.338673)scale(0.1 -0.1)">
       <use xlink:href="#DejaVuSans-33"/>
       <use x="63.623047" xlink:href="#DejaVuSans-30"/>
      </g>
     </g>
    </g>
    <g id="xtick_5">
     <g id="line2d_5">
      <g>
       <use style="stroke:#000000;stroke-width:0.8;" x="333.556364" xlink:href="#mb0d952fbac" y="119.740235"/>
      </g>
     </g>
     <g id="text_5">
      <!-- 40 -->
      <defs>
       <path d="M 37.796875 64.3125 
L 12.890625 25.390625 
L 37.796875 25.390625 
z
M 35.203125 72.90625 
L 47.609375 72.90625 
L 47.609375 25.390625 
L 58.015625 25.390625 
L 58.015625 17.1875 
L 47.609375 17.1875 
L 47.609375 0 
L 37.796875 0 
L 37.796875 17.1875 
L 4.890625 17.1875 
L 4.890625 26.703125 
z
" id="DejaVuSans-34"/>
      </defs>
      <g transform="translate(327.193864 134.338673)scale(0.1 -0.1)">
       <use xlink:href="#DejaVuSans-34"/>
       <use x="63.623047" xlink:href="#DejaVuSans-30"/>
      </g>
     </g>
    </g>
    <g id="xtick_6">
     <g id="line2d_6">
      <g>
       <use style="stroke:#000000;stroke-width:0.8;" x="398.487273" xlink:href="#mb0d952fbac" y="119.740235"/>
      </g>
     </g>
     <g id="text_6">
      <!-- 50 -->
      <defs>
       <path d="M 10.796875 72.90625 
L 49.515625 72.90625 
L 49.515625 64.59375 
L 19.828125 64.59375 
L 19.828125 46.734375 
Q 21.96875 47.46875 24.109375 47.828125 
Q 26.265625 48.1875 28.421875 48.1875 
Q 40.625 48.1875 47.75 41.5 
Q 54.890625 34.8125 54.890625 23.390625 
Q 54.890625 11.625 47.5625 5.09375 
Q 40.234375 -1.421875 26.90625 -1.421875 
Q 22.3125 -1.421875 17.546875 -0.640625 
Q 12.796875 0.140625 7.71875 1.703125 
L 7.71875 11.625 
Q 12.109375 9.234375 16.796875 8.0625 
Q 21.484375 6.890625 26.703125 6.890625 
Q 35.15625 6.890625 40.078125 11.328125 
Q 45.015625 15.765625 45.015625 23.390625 
Q 45.015625 31 40.078125 35.4375 
Q 35.15625 39.890625 26.703125 39.890625 
Q 22.75 39.890625 18.8125 39.015625 
Q 14.890625 38.140625 10.796875 36.28125 
z
" id="DejaVuSans-35"/>
      </defs>
      <g transform="translate(392.124773 134.338673)scale(0.1 -0.1)">
       <use xlink:href="#DejaVuSans-35"/>
       <use x="63.623047" xlink:href="#DejaVuSans-30"/>
      </g>
     </g>
    </g>
   </g>
   <g id="matplotlib.axis_2">
    <g id="ytick_1">
     <g id="line2d_7">
      <defs>
       <path d="M 0 0 
L -3.5 0 
" id="m5ec3064ba4" style="stroke:#000000;stroke-width:0.8;"/>
      </defs>
      <g>
       <use style="stroke:#000000;stroke-width:0.8;" x="57.6" xlink:href="#m5ec3064ba4" y="108.689195"/>
      </g>
     </g>
     <g id="text_7">
      <!-- 0.00 -->
      <defs>
       <path d="M 10.6875 12.40625 
L 21 12.40625 
L 21 0 
L 10.6875 0 
z
" id="DejaVuSans-2e"/>
      </defs>
      <g transform="translate(28.334375 112.488413)scale(0.1 -0.1)">
       <use xlink:href="#DejaVuSans-30"/>
       <use x="63.623047" xlink:href="#DejaVuSans-2e"/>
       <use x="95.410156" xlink:href="#DejaVuSans-30"/>
       <use x="159.033203" xlink:href="#DejaVuSans-30"/>
      </g>
     </g>
    </g>
    <g id="ytick_2">
     <g id="line2d_8">
      <g>
       <use style="stroke:#000000;stroke-width:0.8;" x="57.6" xlink:href="#m5ec3064ba4" y="78.844664"/>
      </g>
     </g>
     <g id="text_8">
      <!-- 0.02 -->
      <g transform="translate(28.334375 82.643883)scale(0.1 -0.1)">
       <use xlink:href="#DejaVuSans-30"/>
       <use x="63.623047" xlink:href="#DejaVuSans-2e"/>
       <use x="95.410156" xlink:href="#DejaVuSans-30"/>
       <use x="159.033203" xlink:href="#DejaVuSans-32"/>
      </g>
     </g>
    </g>
    <g id="ytick_3">
     <g id="line2d_9">
      <g>
       <use style="stroke:#000000;stroke-width:0.8;" x="57.6" xlink:href="#m5ec3064ba4" y="49.000134"/>
      </g>
     </g>
     <g id="text_9">
      <!-- 0.04 -->
      <g transform="translate(28.334375 52.799353)scale(0.1 -0.1)">
       <use xlink:href="#DejaVuSans-30"/>
       <use x="63.623047" xlink:href="#DejaVuSans-2e"/>
       <use x="95.410156" xlink:href="#DejaVuSans-30"/>
       <use x="159.033203" xlink:href="#DejaVuSans-34"/>
      </g>
     </g>
    </g>
    <g id="text_10">
     <!-- TD State 0 -->
     <defs>
      <path d="M -0.296875 72.90625 
L 61.375 72.90625 
L 61.375 64.59375 
L 35.5 64.59375 
L 35.5 0 
L 25.59375 0 
L 25.59375 64.59375 
L -0.296875 64.59375 
z
" id="DejaVuSans-54"/>
      <path d="M 19.671875 64.796875 
L 19.671875 8.109375 
L 31.59375 8.109375 
Q 46.6875 8.109375 53.6875 14.9375 
Q 60.6875 21.78125 60.6875 36.53125 
Q 60.6875 51.171875 53.6875 57.984375 
Q 46.6875 64.796875 31.59375 64.796875 
z
M 9.8125 72.90625 
L 30.078125 72.90625 
Q 51.265625 72.90625 61.171875 64.09375 
Q 71.09375 55.28125 71.09375 36.53125 
Q 71.09375 17.671875 61.125 8.828125 
Q 51.171875 0 30.078125 0 
L 9.8125 0 
z
" id="DejaVuSans-44"/>
      <path id="DejaVuSans-20"/>
      <path d="M 53.515625 70.515625 
L 53.515625 60.890625 
Q 47.90625 63.578125 42.921875 64.890625 
Q 37.9375 66.21875 33.296875 66.21875 
Q 25.25 66.21875 20.875 63.09375 
Q 16.5 59.96875 16.5 54.203125 
Q 16.5 49.359375 19.40625 46.890625 
Q 22.3125 44.4375 30.421875 42.921875 
L 36.375 41.703125 
Q 47.40625 39.59375 52.65625 34.296875 
Q 57.90625 29 57.90625 20.125 
Q 57.90625 9.515625 50.796875 4.046875 
Q 43.703125 -1.421875 29.984375 -1.421875 
Q 24.8125 -1.421875 18.96875 -0.25 
Q 13.140625 0.921875 6.890625 3.21875 
L 6.890625 13.375 
Q 12.890625 10.015625 18.65625 8.296875 
Q 24.421875 6.59375 29.984375 6.59375 
Q 38.421875 6.59375 43.015625 9.90625 
Q 47.609375 13.234375 47.609375 19.390625 
Q 47.609375 24.75 44.3125 27.78125 
Q 41.015625 30.8125 33.5 32.328125 
L 27.484375 33.5 
Q 16.453125 35.6875 11.515625 40.375 
Q 6.59375 45.0625 6.59375 53.421875 
Q 6.59375 63.09375 13.40625 68.65625 
Q 20.21875 74.21875 32.171875 74.21875 
Q 37.3125 74.21875 42.625 73.28125 
Q 47.953125 72.359375 53.515625 70.515625 
z
" id="DejaVuSans-53"/>
      <path d="M 18.3125 70.21875 
L 18.3125 54.6875 
L 36.8125 54.6875 
L 36.8125 47.703125 
L 18.3125 47.703125 
L 18.3125 18.015625 
Q 18.3125 11.328125 20.140625 9.421875 
Q 21.96875 7.515625 27.59375 7.515625 
L 36.8125 7.515625 
L 36.8125 0 
L 27.59375 0 
Q 17.1875 0 13.234375 3.875 
Q 9.28125 7.765625 9.28125 18.015625 
L 9.28125 47.703125 
L 2.6875 47.703125 
L 2.6875 54.6875 
L 9.28125 54.6875 
L 9.28125 70.21875 
z
" id="DejaVuSans-74"/>
      <path d="M 34.28125 27.484375 
Q 23.390625 27.484375 19.1875 25 
Q 14.984375 22.515625 14.984375 16.5 
Q 14.984375 11.71875 18.140625 8.90625 
Q 21.296875 6.109375 26.703125 6.109375 
Q 34.1875 6.109375 38.703125 11.40625 
Q 43.21875 16.703125 43.21875 25.484375 
L 43.21875 27.484375 
z
M 52.203125 31.203125 
L 52.203125 0 
L 43.21875 0 
L 43.21875 8.296875 
Q 40.140625 3.328125 35.546875 0.953125 
Q 30.953125 -1.421875 24.3125 -1.421875 
Q 15.921875 -1.421875 10.953125 3.296875 
Q 6 8.015625 6 15.921875 
Q 6 25.140625 12.171875 29.828125 
Q 18.359375 34.515625 30.609375 34.515625 
L 43.21875 34.515625 
L 43.21875 35.40625 
Q 43.21875 41.609375 39.140625 45 
Q 35.0625 48.390625 27.6875 48.390625 
Q 23 48.390625 18.546875 47.265625 
Q 14.109375 46.140625 10.015625 43.890625 
L 10.015625 52.203125 
Q 14.9375 54.109375 19.578125 55.046875 
Q 24.21875 56 28.609375 56 
Q 40.484375 56 46.34375 49.84375 
Q 52.203125 43.703125 52.203125 31.203125 
z
" id="DejaVuSans-61"/>
      <path d="M 56.203125 29.59375 
L 56.203125 25.203125 
L 14.890625 25.203125 
Q 15.484375 15.921875 20.484375 11.0625 
Q 25.484375 6.203125 34.421875 6.203125 
Q 39.59375 6.203125 44.453125 7.46875 
Q 49.3125 8.734375 54.109375 11.28125 
L 54.109375 2.78125 
Q 49.265625 0.734375 44.1875 -0.34375 
Q 39.109375 -1.421875 33.890625 -1.421875 
Q 20.796875 -1.421875 13.15625 6.1875 
Q 5.515625 13.8125 5.515625 26.8125 
Q 5.515625 40.234375 12.765625 48.109375 
Q 20.015625 56 32.328125 56 
Q 43.359375 56 49.78125 48.890625 
Q 56.203125 41.796875 56.203125 29.59375 
z
M 47.21875 32.234375 
Q 47.125 39.59375 43.09375 43.984375 
Q 39.0625 48.390625 32.421875 48.390625 
Q 24.90625 48.390625 20.390625 44.140625 
Q 15.875 39.890625 15.1875 32.171875 
z
" id="DejaVuSans-65"/>
     </defs>
     <g transform="translate(22.254687 107.104555)rotate(-90)scale(0.1 -0.1)">
      <use xlink:href="#DejaVuSans-54"/>
      <use x="61.083984" xlink:href="#DejaVuSans-44"/>
      <use x="138.085938" xlink:href="#DejaVuSans-20"/>
      <use x="169.873047" xlink:href="#DejaVuSans-53"/>
      <use x="233.349609" xlink:href="#DejaVuSans-74"/>
      <use x="272.558594" xlink:href="#DejaVuSans-61"/>
      <use x="333.837891" xlink:href="#DejaVuSans-74"/>
      <use x="373.046875" xlink:href="#DejaVuSans-65"/>
      <use x="434.570312" xlink:href="#DejaVuSans-20"/>
      <use x="466.357422" xlink:href="#DejaVuSans-30"/>
     </g>
    </g>
   </g>
   <g id="line2d_10">
    <path clip-path="url(#pd67e793947)" d="M 73.832727 108.689195 
L 138.770129 108.689195 
L 138.887005 108.544813 
L 236.16 108.654716 
L 236.387258 108.658448 
L 254.340655 108.768517 
L 254.54194 108.772882 
L 270.573382 108.881594 
L 270.768175 108.886239 
L 282.364835 108.97028 
L 282.481711 45.029647 
L 298.493673 45.139631 
L 298.694959 45.144079 
L 316.025018 45.253335 
L 316.245783 45.257237 
L 337.452218 45.366427 
L 337.731421 45.369284 
L 398.487273 45.447415 
L 398.487273 45.447415 
" style="fill:none;stroke:#000000;stroke-linecap:square;stroke-width:4;"/>
   </g>
   <g id="line2d_11">
    <path clip-path="url(#pd67e793947)" d="M 73.832727 108.689195 
L 282.358342 108.689195 
L 282.364835 116.182588 
L 282.468724 108.689195 
L 398.487273 108.689195 
L 398.487273 108.689195 
" style="fill:none;stroke:#ff0000;stroke-linecap:square;stroke-width:1.5;"/>
   </g>
   <g id="patch_3">
    <path d="M 57.6 119.740235 
L 57.6 41.472 
" style="fill:none;stroke:#000000;stroke-linecap:square;stroke-linejoin:miter;stroke-width:0.8;"/>
   </g>
   <g id="patch_4">
    <path d="M 414.72 119.740235 
L 414.72 41.472 
" style="fill:none;stroke:#000000;stroke-linecap:square;stroke-linejoin:miter;stroke-width:0.8;"/>
   </g>
   <g id="patch_5">
    <path d="M 57.6 119.740235 
L 414.72 119.740235 
" style="fill:none;stroke:#000000;stroke-linecap:square;stroke-linejoin:miter;stroke-width:0.8;"/>
   </g>
   <g id="patch_6">
    <path d="M 57.6 41.472 
L 414.72 41.472 
" style="fill:none;stroke:#000000;stroke-linecap:square;stroke-linejoin:miter;stroke-width:0.8;"/>
   </g>
  </g>
  <g id="axes_2">
   <g id="patch_7">
    <path d="M 57.6 213.662118 
L 414.72 213.662118 
L 414.72 135.393882 
L 57.6 135.393882 
z
" style="fill:#ffffff;"/>
   </g>
   <g id="matplotlib.axis_3">
    <g id="xtick_7">
     <g id="line2d_12">
      <g>
       <use style="stroke:#000000;stroke-width:0.8;" x="73.832727" xlink:href="#mb0d952fbac" y="213.662118"/>
      </g>
     </g>
     <g id="text_11">
      <!-- 0 -->
      <g transform="translate(70.651477 228.260555)scale(0.1 -0.1)">
       <use xlink:href="#DejaVuSans-30"/>
      </g>
     </g>
    </g>
    <g id="xtick_8">
     <g id="line2d_13">
      <g>
       <use style="stroke:#000000;stroke-width:0.8;" x="138.763636" xlink:href="#mb0d952fbac" y="213.662118"/>
      </g>
     </g>
     <g id="text_12">
      <!-- 10 -->
      <g transform="translate(132.401136 228.260555)scale(0.1 -0.1)">
       <use xlink:href="#DejaVuSans-31"/>
       <use x="63.623047" xlink:href="#DejaVuSans-30"/>
      </g>
     </g>
    </g>
    <g id="xtick_9">
     <g id="line2d_14">
      <g>
       <use style="stroke:#000000;stroke-width:0.8;" x="203.694545" xlink:href="#mb0d952fbac" y="213.662118"/>
      </g>
     </g>
     <g id="text_13">
      <!-- 20 -->
      <g transform="translate(197.332045 228.260555)scale(0.1 -0.1)">
       <use xlink:href="#DejaVuSans-32"/>
       <use x="63.623047" xlink:href="#DejaVuSans-30"/>
      </g>
     </g>
    </g>
    <g id="xtick_10">
     <g id="line2d_15">
      <g>
       <use style="stroke:#000000;stroke-width:0.8;" x="268.625455" xlink:href="#mb0d952fbac" y="213.662118"/>
      </g>
     </g>
     <g id="text_14">
      <!-- 30 -->
      <g transform="translate(262.262955 228.260555)scale(0.1 -0.1)">
       <use xlink:href="#DejaVuSans-33"/>
       <use x="63.623047" xlink:href="#DejaVuSans-30"/>
      </g>
     </g>
    </g>
    <g id="xtick_11">
     <g id="line2d_16">
      <g>
       <use style="stroke:#000000;stroke-width:0.8;" x="333.556364" xlink:href="#mb0d952fbac" y="213.662118"/>
      </g>
     </g>
     <g id="text_15">
      <!-- 40 -->
      <g transform="translate(327.193864 228.260555)scale(0.1 -0.1)">
       <use xlink:href="#DejaVuSans-34"/>
       <use x="63.623047" xlink:href="#DejaVuSans-30"/>
      </g>
     </g>
    </g>
    <g id="xtick_12">
     <g id="line2d_17">
      <g>
       <use style="stroke:#000000;stroke-width:0.8;" x="398.487273" xlink:href="#mb0d952fbac" y="213.662118"/>
      </g>
     </g>
     <g id="text_16">
      <!-- 50 -->
      <g transform="translate(392.124773 228.260555)scale(0.1 -0.1)">
       <use xlink:href="#DejaVuSans-35"/>
       <use x="63.623047" xlink:href="#DejaVuSans-30"/>
      </g>
     </g>
    </g>
   </g>
   <g id="matplotlib.axis_4">
    <g id="ytick_4">
     <g id="line2d_18">
      <g>
       <use style="stroke:#000000;stroke-width:0.8;" x="57.6" xlink:href="#m5ec3064ba4" y="209.968632"/>
      </g>
     </g>
     <g id="text_17">
      <!-- −0.10 -->
      <defs>
       <path d="M 10.59375 35.5 
L 73.1875 35.5 
L 73.1875 27.203125 
L 10.59375 27.203125 
z
" id="DejaVuSans-2212"/>
      </defs>
      <g transform="translate(19.954687 213.76785)scale(0.1 -0.1)">
       <use xlink:href="#DejaVuSans-2212"/>
       <use x="83.789062" xlink:href="#DejaVuSans-30"/>
       <use x="147.412109" xlink:href="#DejaVuSans-2e"/>
       <use x="179.199219" xlink:href="#DejaVuSans-31"/>
       <use x="242.822266" xlink:href="#DejaVuSans-30"/>
      </g>
     </g>
    </g>
    <g id="ytick_5">
     <g id="line2d_19">
      <g>
       <use style="stroke:#000000;stroke-width:0.8;" x="57.6" xlink:href="#m5ec3064ba4" y="181.376585"/>
      </g>
     </g>
     <g id="text_18">
      <!-- −0.05 -->
      <g transform="translate(19.954687 185.175804)scale(0.1 -0.1)">
       <use xlink:href="#DejaVuSans-2212"/>
       <use x="83.789062" xlink:href="#DejaVuSans-30"/>
       <use x="147.412109" xlink:href="#DejaVuSans-2e"/>
       <use x="179.199219" xlink:href="#DejaVuSans-30"/>
       <use x="242.822266" xlink:href="#DejaVuSans-35"/>
      </g>
     </g>
    </g>
    <g id="ytick_6">
     <g id="line2d_20">
      <g>
       <use style="stroke:#000000;stroke-width:0.8;" x="57.6" xlink:href="#m5ec3064ba4" y="152.784539"/>
      </g>
     </g>
     <g id="text_19">
      <!-- 0.00 -->
      <g transform="translate(28.334375 156.583758)scale(0.1 -0.1)">
       <use xlink:href="#DejaVuSans-30"/>
       <use x="63.623047" xlink:href="#DejaVuSans-2e"/>
       <use x="95.410156" xlink:href="#DejaVuSans-30"/>
       <use x="159.033203" xlink:href="#DejaVuSans-30"/>
      </g>
     </g>
    </g>
    <g id="text_20">
     <!-- TD State 1 -->
     <g transform="translate(13.875 201.026437)rotate(-90)scale(0.1 -0.1)">
      <use xlink:href="#DejaVuSans-54"/>
      <use x="61.083984" xlink:href="#DejaVuSans-44"/>
      <use x="138.085938" xlink:href="#DejaVuSans-20"/>
      <use x="169.873047" xlink:href="#DejaVuSans-53"/>
      <use x="233.349609" xlink:href="#DejaVuSans-74"/>
      <use x="272.558594" xlink:href="#DejaVuSans-61"/>
      <use x="333.837891" xlink:href="#DejaVuSans-74"/>
      <use x="373.046875" xlink:href="#DejaVuSans-65"/>
      <use x="434.570312" xlink:href="#DejaVuSans-20"/>
      <use x="466.357422" xlink:href="#DejaVuSans-31"/>
     </g>
    </g>
   </g>
   <g id="line2d_21">
    <path clip-path="url(#p675a91a046)" d="M 73.832727 152.784539 
L 282.364835 152.840271 
L 282.481711 138.951529 
L 398.487273 139.030221 
L 398.487273 139.030221 
" style="fill:none;stroke:#000000;stroke-linecap:square;stroke-width:4;"/>
   </g>
   <g id="line2d_22">
    <path clip-path="url(#p675a91a046)" d="M 73.832727 152.784539 
L 74.482036 152.784539 
L 74.488529 152.670173 
L 74.592419 152.784539 
L 282.358342 152.784539 
L 282.364835 210.104471 
L 282.468724 152.784539 
L 398.487273 152.784539 
L 398.487273 152.784539 
" style="fill:none;stroke:#ff0000;stroke-linecap:square;stroke-width:1.5;"/>
   </g>
   <g id="patch_8">
    <path d="M 57.6 213.662118 
L 57.6 135.393882 
" style="fill:none;stroke:#000000;stroke-linecap:square;stroke-linejoin:miter;stroke-width:0.8;"/>
   </g>
   <g id="patch_9">
    <path d="M 414.72 213.662118 
L 414.72 135.393882 
" style="fill:none;stroke:#000000;stroke-linecap:square;stroke-linejoin:miter;stroke-width:0.8;"/>
   </g>
   <g id="patch_10">
    <path d="M 57.6 213.662118 
L 414.72 213.662118 
" style="fill:none;stroke:#000000;stroke-linecap:square;stroke-linejoin:miter;stroke-width:0.8;"/>
   </g>
   <g id="patch_11">
    <path d="M 57.6 135.393882 
L 414.72 135.393882 
" style="fill:none;stroke:#000000;stroke-linecap:square;stroke-linejoin:miter;stroke-width:0.8;"/>
   </g>
   <g id="legend_1">
    <g id="patch_12">
     <path d="M 353.0325 172.750132 
L 407.72 172.750132 
Q 409.72 172.750132 409.72 170.750132 
L 409.72 142.393882 
Q 409.72 140.393882 407.72 140.393882 
L 353.0325 140.393882 
Q 351.0325 140.393882 351.0325 142.393882 
L 351.0325 170.750132 
Q 351.0325 172.750132 353.0325 172.750132 
z
" style="fill:#ffffff;opacity:0.8;stroke:#cccccc;stroke-linejoin:miter;"/>
    </g>
    <g id="line2d_23">
     <path d="M 355.0325 148.49232 
L 375.0325 148.49232 
" style="fill:none;stroke:#000000;stroke-linecap:square;stroke-width:4;"/>
    </g>
    <g id="line2d_24"/>
    <g id="text_21">
     <!-- Pred -->
     <defs>
      <path d="M 19.671875 64.796875 
L 19.671875 37.40625 
L 32.078125 37.40625 
Q 38.96875 37.40625 42.71875 40.96875 
Q 46.484375 44.53125 46.484375 51.125 
Q 46.484375 57.671875 42.71875 61.234375 
Q 38.96875 64.796875 32.078125 64.796875 
z
M 9.8125 72.90625 
L 32.078125 72.90625 
Q 44.34375 72.90625 50.609375 67.359375 
Q 56.890625 61.8125 56.890625 51.125 
Q 56.890625 40.328125 50.609375 34.8125 
Q 44.34375 29.296875 32.078125 29.296875 
L 19.671875 29.296875 
L 19.671875 0 
L 9.8125 0 
z
" id="DejaVuSans-50"/>
      <path d="M 41.109375 46.296875 
Q 39.59375 47.171875 37.8125 47.578125 
Q 36.03125 48 33.890625 48 
Q 26.265625 48 22.1875 43.046875 
Q 18.109375 38.09375 18.109375 28.8125 
L 18.109375 0 
L 9.078125 0 
L 9.078125 54.6875 
L 18.109375 54.6875 
L 18.109375 46.1875 
Q 20.953125 51.171875 25.484375 53.578125 
Q 30.03125 56 36.53125 56 
Q 37.453125 56 38.578125 55.875 
Q 39.703125 55.765625 41.0625 55.515625 
z
" id="DejaVuSans-72"/>
      <path d="M 45.40625 46.390625 
L 45.40625 75.984375 
L 54.390625 75.984375 
L 54.390625 0 
L 45.40625 0 
L 45.40625 8.203125 
Q 42.578125 3.328125 38.25 0.953125 
Q 33.9375 -1.421875 27.875 -1.421875 
Q 17.96875 -1.421875 11.734375 6.484375 
Q 5.515625 14.40625 5.515625 27.296875 
Q 5.515625 40.1875 11.734375 48.09375 
Q 17.96875 56 27.875 56 
Q 33.9375 56 38.25 53.625 
Q 42.578125 51.265625 45.40625 46.390625 
z
M 14.796875 27.296875 
Q 14.796875 17.390625 18.875 11.75 
Q 22.953125 6.109375 30.078125 6.109375 
Q 37.203125 6.109375 41.296875 11.75 
Q 45.40625 17.390625 45.40625 27.296875 
Q 45.40625 37.203125 41.296875 42.84375 
Q 37.203125 48.484375 30.078125 48.484375 
Q 22.953125 48.484375 18.875 42.84375 
Q 14.796875 37.203125 14.796875 27.296875 
z
" id="DejaVuSans-64"/>
     </defs>
     <g transform="translate(383.0325 151.99232)scale(0.1 -0.1)">
      <use xlink:href="#DejaVuSans-50"/>
      <use x="60.287109" xlink:href="#DejaVuSans-72"/>
      <use x="101.369141" xlink:href="#DejaVuSans-65"/>
      <use x="162.892578" xlink:href="#DejaVuSans-64"/>
     </g>
    </g>
    <g id="line2d_25">
     <path d="M 355.0325 163.170445 
L 375.0325 163.170445 
" style="fill:none;stroke:#ff0000;stroke-linecap:square;stroke-width:1.5;"/>
    </g>
    <g id="line2d_26"/>
    <g id="text_22">
     <!-- True -->
     <defs>
      <path d="M 8.5 21.578125 
L 8.5 54.6875 
L 17.484375 54.6875 
L 17.484375 21.921875 
Q 17.484375 14.15625 20.5 10.265625 
Q 23.53125 6.390625 29.59375 6.390625 
Q 36.859375 6.390625 41.078125 11.03125 
Q 45.3125 15.671875 45.3125 23.6875 
L 45.3125 54.6875 
L 54.296875 54.6875 
L 54.296875 0 
L 45.3125 0 
L 45.3125 8.40625 
Q 42.046875 3.421875 37.71875 1 
Q 33.40625 -1.421875 27.6875 -1.421875 
Q 18.265625 -1.421875 13.375 4.4375 
Q 8.5 10.296875 8.5 21.578125 
z
M 31.109375 56 
z
" id="DejaVuSans-75"/>
     </defs>
     <g transform="translate(383.0325 166.670445)scale(0.1 -0.1)">
      <use xlink:href="#DejaVuSans-54"/>
      <use x="60.865234" xlink:href="#DejaVuSans-72"/>
      <use x="101.978516" xlink:href="#DejaVuSans-75"/>
      <use x="165.357422" xlink:href="#DejaVuSans-65"/>
     </g>
    </g>
   </g>
  </g>
  <g id="axes_3">
   <g id="patch_13">
    <path d="M 57.6 307.584 
L 414.72 307.584 
L 414.72 229.315765 
L 57.6 229.315765 
z
" style="fill:#ffffff;"/>
   </g>
   <g id="matplotlib.axis_5">
    <g id="xtick_13">
     <g id="line2d_27">
      <g>
       <use style="stroke:#000000;stroke-width:0.8;" x="73.832727" xlink:href="#mb0d952fbac" y="307.584"/>
      </g>
     </g>
     <g id="text_23">
      <!-- 0 -->
      <g transform="translate(70.651477 322.182437)scale(0.1 -0.1)">
       <use xlink:href="#DejaVuSans-30"/>
      </g>
     </g>
    </g>
    <g id="xtick_14">
     <g id="line2d_28">
      <g>
       <use style="stroke:#000000;stroke-width:0.8;" x="138.763636" xlink:href="#mb0d952fbac" y="307.584"/>
      </g>
     </g>
     <g id="text_24">
      <!-- 10 -->
      <g transform="translate(132.401136 322.182437)scale(0.1 -0.1)">
       <use xlink:href="#DejaVuSans-31"/>
       <use x="63.623047" xlink:href="#DejaVuSans-30"/>
      </g>
     </g>
    </g>
    <g id="xtick_15">
     <g id="line2d_29">
      <g>
       <use style="stroke:#000000;stroke-width:0.8;" x="203.694545" xlink:href="#mb0d952fbac" y="307.584"/>
      </g>
     </g>
     <g id="text_25">
      <!-- 20 -->
      <g transform="translate(197.332045 322.182437)scale(0.1 -0.1)">
       <use xlink:href="#DejaVuSans-32"/>
       <use x="63.623047" xlink:href="#DejaVuSans-30"/>
      </g>
     </g>
    </g>
    <g id="xtick_16">
     <g id="line2d_30">
      <g>
       <use style="stroke:#000000;stroke-width:0.8;" x="268.625455" xlink:href="#mb0d952fbac" y="307.584"/>
      </g>
     </g>
     <g id="text_26">
      <!-- 30 -->
      <g transform="translate(262.262955 322.182437)scale(0.1 -0.1)">
       <use xlink:href="#DejaVuSans-33"/>
       <use x="63.623047" xlink:href="#DejaVuSans-30"/>
      </g>
     </g>
    </g>
    <g id="xtick_17">
     <g id="line2d_31">
      <g>
       <use style="stroke:#000000;stroke-width:0.8;" x="333.556364" xlink:href="#mb0d952fbac" y="307.584"/>
      </g>
     </g>
     <g id="text_27">
      <!-- 40 -->
      <g transform="translate(327.193864 322.182437)scale(0.1 -0.1)">
       <use xlink:href="#DejaVuSans-34"/>
       <use x="63.623047" xlink:href="#DejaVuSans-30"/>
      </g>
     </g>
    </g>
    <g id="xtick_18">
     <g id="line2d_32">
      <g>
       <use style="stroke:#000000;stroke-width:0.8;" x="398.487273" xlink:href="#mb0d952fbac" y="307.584"/>
      </g>
     </g>
     <g id="text_28">
      <!-- 50 -->
      <g transform="translate(392.124773 322.182437)scale(0.1 -0.1)">
       <use xlink:href="#DejaVuSans-35"/>
       <use x="63.623047" xlink:href="#DejaVuSans-30"/>
      </g>
     </g>
    </g>
    <g id="text_29">
     <!-- Time -->
     <defs>
      <path d="M 9.421875 54.6875 
L 18.40625 54.6875 
L 18.40625 0 
L 9.421875 0 
z
M 9.421875 75.984375 
L 18.40625 75.984375 
L 18.40625 64.59375 
L 9.421875 64.59375 
z
" id="DejaVuSans-69"/>
      <path d="M 52 44.1875 
Q 55.375 50.25 60.0625 53.125 
Q 64.75 56 71.09375 56 
Q 79.640625 56 84.28125 50.015625 
Q 88.921875 44.046875 88.921875 33.015625 
L 88.921875 0 
L 79.890625 0 
L 79.890625 32.71875 
Q 79.890625 40.578125 77.09375 44.375 
Q 74.3125 48.1875 68.609375 48.1875 
Q 61.625 48.1875 57.5625 43.546875 
Q 53.515625 38.921875 53.515625 30.90625 
L 53.515625 0 
L 44.484375 0 
L 44.484375 32.71875 
Q 44.484375 40.625 41.703125 44.40625 
Q 38.921875 48.1875 33.109375 48.1875 
Q 26.21875 48.1875 22.15625 43.53125 
Q 18.109375 38.875 18.109375 30.90625 
L 18.109375 0 
L 9.078125 0 
L 9.078125 54.6875 
L 18.109375 54.6875 
L 18.109375 46.1875 
Q 21.1875 51.21875 25.484375 53.609375 
Q 29.78125 56 35.6875 56 
Q 41.65625 56 45.828125 52.96875 
Q 50 49.953125 52 44.1875 
z
" id="DejaVuSans-6d"/>
     </defs>
     <g transform="translate(223.7725 335.860562)scale(0.1 -0.1)">
      <use xlink:href="#DejaVuSans-54"/>
      <use x="61.037109" xlink:href="#DejaVuSans-69"/>
      <use x="88.820312" xlink:href="#DejaVuSans-6d"/>
      <use x="186.232422" xlink:href="#DejaVuSans-65"/>
     </g>
    </g>
   </g>
   <g id="matplotlib.axis_6">
    <g id="ytick_7">
     <g id="line2d_33">
      <g>
       <use style="stroke:#000000;stroke-width:0.8;" x="57.6" xlink:href="#m5ec3064ba4" y="304.026454"/>
      </g>
     </g>
     <g id="text_30">
      <!-- −10 -->
      <g transform="translate(29.495313 307.825673)scale(0.1 -0.1)">
       <use xlink:href="#DejaVuSans-2212"/>
       <use x="83.789062" xlink:href="#DejaVuSans-31"/>
       <use x="147.412109" xlink:href="#DejaVuSans-30"/>
      </g>
     </g>
    </g>
    <g id="ytick_8">
     <g id="line2d_34">
      <g>
       <use style="stroke:#000000;stroke-width:0.8;" x="57.6" xlink:href="#m5ec3064ba4" y="268.449927"/>
      </g>
     </g>
     <g id="text_31">
      <!-- 0 -->
      <g transform="translate(44.2375 272.249146)scale(0.1 -0.1)">
       <use xlink:href="#DejaVuSans-30"/>
      </g>
     </g>
    </g>
    <g id="ytick_9">
     <g id="line2d_35">
      <g>
       <use style="stroke:#000000;stroke-width:0.8;" x="57.6" xlink:href="#m5ec3064ba4" y="232.8734"/>
      </g>
     </g>
     <g id="text_32">
      <!-- 10 -->
      <g transform="translate(37.875 236.672619)scale(0.1 -0.1)">
       <use xlink:href="#DejaVuSans-31"/>
       <use x="63.623047" xlink:href="#DejaVuSans-30"/>
      </g>
     </g>
    </g>
    <g id="text_33">
     <!-- Control Input -->
     <defs>
      <path d="M 64.40625 67.28125 
L 64.40625 56.890625 
Q 59.421875 61.53125 53.78125 63.8125 
Q 48.140625 66.109375 41.796875 66.109375 
Q 29.296875 66.109375 22.65625 58.46875 
Q 16.015625 50.828125 16.015625 36.375 
Q 16.015625 21.96875 22.65625 14.328125 
Q 29.296875 6.6875 41.796875 6.6875 
Q 48.140625 6.6875 53.78125 8.984375 
Q 59.421875 11.28125 64.40625 15.921875 
L 64.40625 5.609375 
Q 59.234375 2.09375 53.4375 0.328125 
Q 47.65625 -1.421875 41.21875 -1.421875 
Q 24.65625 -1.421875 15.125 8.703125 
Q 5.609375 18.84375 5.609375 36.375 
Q 5.609375 53.953125 15.125 64.078125 
Q 24.65625 74.21875 41.21875 74.21875 
Q 47.75 74.21875 53.53125 72.484375 
Q 59.328125 70.75 64.40625 67.28125 
z
" id="DejaVuSans-43"/>
      <path d="M 30.609375 48.390625 
Q 23.390625 48.390625 19.1875 42.75 
Q 14.984375 37.109375 14.984375 27.296875 
Q 14.984375 17.484375 19.15625 11.84375 
Q 23.34375 6.203125 30.609375 6.203125 
Q 37.796875 6.203125 41.984375 11.859375 
Q 46.1875 17.53125 46.1875 27.296875 
Q 46.1875 37.015625 41.984375 42.703125 
Q 37.796875 48.390625 30.609375 48.390625 
z
M 30.609375 56 
Q 42.328125 56 49.015625 48.375 
Q 55.71875 40.765625 55.71875 27.296875 
Q 55.71875 13.875 49.015625 6.21875 
Q 42.328125 -1.421875 30.609375 -1.421875 
Q 18.84375 -1.421875 12.171875 6.21875 
Q 5.515625 13.875 5.515625 27.296875 
Q 5.515625 40.765625 12.171875 48.375 
Q 18.84375 56 30.609375 56 
z
" id="DejaVuSans-6f"/>
      <path d="M 54.890625 33.015625 
L 54.890625 0 
L 45.90625 0 
L 45.90625 32.71875 
Q 45.90625 40.484375 42.875 44.328125 
Q 39.84375 48.1875 33.796875 48.1875 
Q 26.515625 48.1875 22.3125 43.546875 
Q 18.109375 38.921875 18.109375 30.90625 
L 18.109375 0 
L 9.078125 0 
L 9.078125 54.6875 
L 18.109375 54.6875 
L 18.109375 46.1875 
Q 21.34375 51.125 25.703125 53.5625 
Q 30.078125 56 35.796875 56 
Q 45.21875 56 50.046875 50.171875 
Q 54.890625 44.34375 54.890625 33.015625 
z
" id="DejaVuSans-6e"/>
      <path d="M 9.421875 75.984375 
L 18.40625 75.984375 
L 18.40625 0 
L 9.421875 0 
z
" id="DejaVuSans-6c"/>
      <path d="M 9.8125 72.90625 
L 19.671875 72.90625 
L 19.671875 0 
L 9.8125 0 
z
" id="DejaVuSans-49"/>
      <path d="M 18.109375 8.203125 
L 18.109375 -20.796875 
L 9.078125 -20.796875 
L 9.078125 54.6875 
L 18.109375 54.6875 
L 18.109375 46.390625 
Q 20.953125 51.265625 25.265625 53.625 
Q 29.59375 56 35.59375 56 
Q 45.5625 56 51.78125 48.09375 
Q 58.015625 40.1875 58.015625 27.296875 
Q 58.015625 14.40625 51.78125 6.484375 
Q 45.5625 -1.421875 35.59375 -1.421875 
Q 29.59375 -1.421875 25.265625 0.953125 
Q 20.953125 3.328125 18.109375 8.203125 
z
M 48.6875 27.296875 
Q 48.6875 37.203125 44.609375 42.84375 
Q 40.53125 48.484375 33.40625 48.484375 
Q 26.265625 48.484375 22.1875 42.84375 
Q 18.109375 37.203125 18.109375 27.296875 
Q 18.109375 17.390625 22.1875 11.75 
Q 26.265625 6.109375 33.40625 6.109375 
Q 40.53125 6.109375 44.609375 11.75 
Q 48.6875 17.390625 48.6875 27.296875 
z
" id="DejaVuSans-70"/>
     </defs>
     <g transform="translate(23.415625 301.167851)rotate(-90)scale(0.1 -0.1)">
      <use xlink:href="#DejaVuSans-43"/>
      <use x="69.824219" xlink:href="#DejaVuSans-6f"/>
      <use x="131.005859" xlink:href="#DejaVuSans-6e"/>
      <use x="194.384766" xlink:href="#DejaVuSans-74"/>
      <use x="233.59375" xlink:href="#DejaVuSans-72"/>
      <use x="274.675781" xlink:href="#DejaVuSans-6f"/>
      <use x="335.857422" xlink:href="#DejaVuSans-6c"/>
      <use x="363.640625" xlink:href="#DejaVuSans-20"/>
      <use x="395.427734" xlink:href="#DejaVuSans-49"/>
      <use x="424.919922" xlink:href="#DejaVuSans-6e"/>
      <use x="488.298828" xlink:href="#DejaVuSans-70"/>
      <use x="551.775391" xlink:href="#DejaVuSans-75"/>
      <use x="615.154297" xlink:href="#DejaVuSans-74"/>
     </g>
    </g>
   </g>
   <g id="line2d_36">
    <path clip-path="url(#p737dccc2a9)" d="M 73.832727 268.449927 
L 74.482036 268.449927 
L 74.598912 268.094168 
L 75.131345 268.094168 
L 75.248221 267.738444 
L 75.780655 267.738444 
L 75.89753 267.382792 
L 76.429964 267.382792 
L 76.546839 267.027246 
L 77.079273 267.027246 
L 77.196148 266.671842 
L 77.728582 266.671842 
L 77.845457 266.316616 
L 78.377891 266.316616 
L 78.494767 265.961604 
L 79.0272 265.961604 
L 79.144076 265.60684 
L 79.676509 265.60684 
L 79.793385 265.252361 
L 80.325818 265.252361 
L 80.442694 264.898201 
L 80.975127 264.898201 
L 81.092003 264.544397 
L 81.624436 264.544397 
L 81.741312 264.190983 
L 82.273745 264.190983 
L 82.390621 263.837995 
L 82.923055 263.837995 
L 83.03993 263.485468 
L 83.572364 263.485468 
L 83.689239 263.133438 
L 84.221673 263.133438 
L 84.338548 262.781939 
L 84.870982 262.781939 
L 84.987857 262.431007 
L 85.520291 262.431007 
L 85.637167 262.080677 
L 86.1696 262.080677 
L 86.286476 261.730984 
L 86.818909 261.730984 
L 86.935785 261.381963 
L 87.468218 261.381963 
L 87.585094 261.033648 
L 88.117527 261.033648 
L 88.234403 260.686075 
L 88.766836 260.686075 
L 88.883712 260.339279 
L 89.416145 260.339279 
L 89.533021 259.993294 
L 90.065455 259.993294 
L 90.18233 259.648154 
L 90.714764 259.648154 
L 90.831639 259.303894 
L 91.364073 259.303894 
L 91.480948 258.960549 
L 92.013382 258.960549 
L 92.130257 258.618153 
L 92.662691 258.618153 
L 92.779567 258.27674 
L 93.312 258.27674 
L 93.428876 257.936345 
L 93.961309 257.936345 
L 94.078185 257.597001 
L 94.610618 257.597001 
L 94.727494 257.258742 
L 95.259927 257.258742 
L 95.376803 256.921602 
L 95.909236 256.921602 
L 96.026112 256.585615 
L 96.558545 256.585615 
L 96.675421 256.250814 
L 97.207855 256.250814 
L 97.32473 255.917234 
L 97.857164 255.917234 
L 97.974039 255.584906 
L 98.506473 255.584906 
L 98.623348 255.253865 
L 99.155782 255.253865 
L 99.272657 254.924144 
L 99.805091 254.924144 
L 99.921967 254.595775 
L 100.4544 254.595775 
L 100.571276 254.268792 
L 101.103709 254.268792 
L 101.220585 253.943227 
L 101.753018 253.943227 
L 101.869894 253.619112 
L 102.402327 253.619112 
L 102.519203 253.296481 
L 103.051636 253.296481 
L 103.168512 252.975364 
L 103.700945 252.975364 
L 103.817821 252.655796 
L 104.350255 252.655796 
L 104.46713 252.337806 
L 104.999564 252.337806 
L 105.116439 252.021428 
L 105.648873 252.021428 
L 105.765748 251.706693 
L 106.298182 251.706693 
L 106.415057 251.393632 
L 106.947491 251.393632 
L 107.064367 251.082276 
L 107.5968 251.082276 
L 107.713676 250.772658 
L 108.246109 250.772658 
L 108.362985 250.464807 
L 108.895418 250.464807 
L 109.012294 250.158754 
L 109.544727 250.158754 
L 109.661603 249.854531 
L 110.194036 249.854531 
L 110.310912 249.552167 
L 110.843345 249.552167 
L 110.960221 249.251693 
L 111.492655 249.251693 
L 111.60953 248.953139 
L 112.141964 248.953139 
L 112.258839 248.656535 
L 112.791273 248.656535 
L 112.908148 248.361909 
L 113.440582 248.361909 
L 113.557457 248.069293 
L 114.089891 248.069293 
L 114.206767 247.778714 
L 114.7392 247.778714 
L 114.856076 247.490203 
L 115.388509 247.490203 
L 115.505385 247.203788 
L 116.037818 247.203788 
L 116.154694 246.919497 
L 116.687127 246.919497 
L 116.804003 246.637359 
L 117.336436 246.637359 
L 117.453312 246.357403 
L 117.985745 246.357403 
L 118.102621 246.079655 
L 118.635055 246.079655 
L 118.75193 245.804145 
L 119.284364 245.804145 
L 119.401239 245.5309 
L 119.933673 245.5309 
L 120.050548 245.259946 
L 120.582982 245.259946 
L 120.699857 244.991311 
L 121.232291 244.991311 
L 121.349167 244.725022 
L 121.8816 244.725022 
L 121.998476 244.461105 
L 122.530909 244.461105 
L 122.647785 244.199588 
L 123.180218 244.199588 
L 123.297094 243.940495 
L 123.829527 243.940495 
L 123.946403 243.683853 
L 124.478836 243.683853 
L 124.595712 243.429688 
L 125.128145 243.429688 
L 125.245021 243.178025 
L 125.777455 243.178025 
L 125.89433 242.928889 
L 126.426764 242.928889 
L 126.543639 242.682305 
L 127.076073 242.682305 
L 127.192948 242.438298 
L 127.725382 242.438298 
L 127.842257 242.196892 
L 128.374691 242.196892 
L 128.491567 241.958111 
L 129.024 241.958111 
L 129.140876 241.72198 
L 129.673309 241.72198 
L 129.790185 241.488521 
L 130.322618 241.488521 
L 130.439494 241.257758 
L 130.971927 241.257758 
L 131.088803 241.029715 
L 131.621236 241.029715 
L 131.738112 240.804413 
L 132.270545 240.804413 
L 132.387421 240.581877 
L 132.919855 240.581877 
L 133.03673 240.362126 
L 133.569164 240.362126 
L 133.686039 240.145185 
L 134.218473 240.145185 
L 134.335348 239.931074 
L 134.867782 239.931074 
L 134.984657 239.719815 
L 135.517091 239.719815 
L 135.633967 239.511429 
L 136.1664 239.511429 
L 136.283276 239.305937 
L 136.815709 239.305937 
L 136.932585 239.103359 
L 137.465018 239.103359 
L 137.581894 238.903715 
L 138.114327 238.903715 
L 138.231203 238.707027 
L 138.763636 238.707027 
L 138.880512 238.513312 
L 139.412945 238.513312 
L 139.529821 238.322591 
L 140.062255 238.322591 
L 140.17913 238.134883 
L 140.711564 238.134883 
L 140.828439 237.950207 
L 141.360873 237.950207 
L 141.477748 237.76858 
L 142.010182 237.76858 
L 142.127057 237.590022 
L 142.659491 237.590022 
L 142.776367 237.414549 
L 143.3088 237.414549 
L 143.425676 237.24218 
L 143.958109 237.24218 
L 144.074985 237.072932 
L 144.607418 237.072932 
L 144.724294 236.906821 
L 145.256727 236.906821 
L 145.373603 236.743865 
L 145.906036 236.743865 
L 146.022912 236.584079 
L 146.555345 236.584079 
L 146.672221 236.42748 
L 147.204655 236.42748 
L 147.32153 236.274083 
L 147.853964 236.274083 
L 147.970839 236.123903 
L 148.503273 236.123903 
L 148.620148 235.976957 
L 149.152582 235.976957 
L 149.269457 235.833257 
L 149.801891 235.833257 
L 149.918767 235.692819 
L 150.4512 235.692819 
L 150.568076 235.555657 
L 151.100509 235.555657 
L 151.217385 235.421784 
L 151.749818 235.421784 
L 151.866694 235.291214 
L 152.399127 235.291214 
L 152.516003 235.16396 
L 153.048436 235.16396 
L 153.165312 235.040034 
L 153.697745 235.040034 
L 153.814621 234.919449 
L 154.347055 234.919449 
L 154.46393 234.802217 
L 154.996364 234.802217 
L 155.113239 234.688351 
L 156.294982 234.57786 
L 156.411857 234.470756 
L 157.5936 234.36705 
L 157.710476 234.266753 
L 158.892218 234.169874 
L 159.009094 234.076422 
L 160.190836 233.986409 
L 160.307712 233.899841 
L 161.489455 233.816728 
L 161.60633 233.737079 
L 162.788073 233.660901 
L 162.904948 233.588202 
L 164.086691 233.518989 
L 164.203567 233.453269 
L 165.385309 233.391049 
L 165.502185 233.332334 
L 167.333236 233.225446 
L 167.450112 233.177283 
L 169.281164 233.091543 
L 169.398039 233.053974 
L 171.8784 232.96252 
L 171.995276 232.939129 
L 182.916655 233.048318 
L 183.03353 233.085323 
L 184.864582 233.169938 
L 184.981457 233.217539 
L 186.812509 233.323307 
L 186.929385 233.381463 
L 188.111127 233.443125 
L 188.228003 233.508288 
L 189.409745 233.576945 
L 189.526621 233.649089 
L 190.708364 233.724714 
L 190.825239 233.803811 
L 192.006982 233.886373 
L 192.123857 233.97239 
L 193.3056 234.061856 
L 193.422476 234.15476 
L 194.604218 234.251094 
L 194.721094 234.350848 
L 195.902836 234.454012 
L 196.019712 234.560575 
L 197.201455 234.670527 
L 197.31833 234.783857 
L 197.850764 234.783857 
L 197.967639 234.900553 
L 198.500073 234.900553 
L 198.616948 235.020605 
L 199.149382 235.020605 
L 199.266257 235.143999 
L 199.798691 235.143999 
L 199.915567 235.270724 
L 200.448 235.270724 
L 200.564876 235.400767 
L 201.097309 235.400767 
L 201.214185 235.534115 
L 201.746618 235.534115 
L 201.863494 235.670754 
L 202.395927 235.670754 
L 202.512803 235.810671 
L 203.045236 235.810671 
L 203.162112 235.953852 
L 203.694545 235.953852 
L 203.811421 236.100283 
L 204.343855 236.100283 
L 204.46073 236.249949 
L 204.993164 236.249949 
L 205.110039 236.402834 
L 205.642473 236.402834 
L 205.759348 236.558924 
L 206.291782 236.558924 
L 206.408657 236.718204 
L 206.941091 236.718204 
L 207.057967 236.880656 
L 207.5904 236.880656 
L 207.707276 237.046266 
L 208.239709 237.046266 
L 208.356585 237.215015 
L 208.889018 237.215015 
L 209.005894 237.386888 
L 209.538327 237.386888 
L 209.655203 237.561868 
L 210.187636 237.561868 
L 210.304512 237.739936 
L 210.836945 237.739936 
L 210.953821 237.921075 
L 211.486255 237.921075 
L 211.60313 238.105267 
L 212.135564 238.105267 
L 212.252439 238.292494 
L 212.784873 238.292494 
L 212.901748 238.482736 
L 213.434182 238.482736 
L 213.551057 238.675975 
L 214.083491 238.675975 
L 214.200367 238.872191 
L 214.7328 238.872191 
L 214.849676 239.071365 
L 215.382109 239.071365 
L 215.498985 239.273477 
L 216.031418 239.273477 
L 216.148294 239.478507 
L 216.680727 239.478507 
L 216.797603 239.686433 
L 217.330036 239.686433 
L 217.446912 239.897236 
L 217.979345 239.897236 
L 218.096221 240.110894 
L 218.628655 240.110894 
L 218.74553 240.327387 
L 219.277964 240.327387 
L 219.394839 240.546691 
L 219.927273 240.546691 
L 220.044148 240.768785 
L 220.576582 240.768785 
L 220.693457 240.993648 
L 221.225891 240.993648 
L 221.342767 241.221256 
L 221.8752 241.221256 
L 221.992076 241.451587 
L 222.524509 241.451587 
L 222.641385 241.684618 
L 223.173818 241.684618 
L 223.290694 241.920326 
L 223.823127 241.920326 
L 223.940003 242.158686 
L 224.472436 242.158686 
L 224.589312 242.399676 
L 225.121745 242.399676 
L 225.238621 242.64327 
L 225.771055 242.64327 
L 225.88793 242.889445 
L 226.420364 242.889445 
L 226.537239 243.138177 
L 227.069673 243.138177 
L 227.186548 243.389439 
L 227.718982 243.389439 
L 227.835857 243.643207 
L 228.368291 243.643207 
L 228.485167 243.899456 
L 229.0176 243.899456 
L 229.134476 244.15816 
L 229.666909 244.15816 
L 229.783785 244.419293 
L 230.316218 244.419293 
L 230.433094 244.68283 
L 230.965527 244.68283 
L 231.082403 244.948743 
L 231.614836 244.948743 
L 231.731712 245.217006 
L 232.264145 245.217006 
L 232.381021 245.487592 
L 232.913455 245.487592 
L 233.03033 245.760474 
L 233.562764 245.760474 
L 233.679639 246.035626 
L 234.212073 246.035626 
L 234.328948 246.313019 
L 234.861382 246.313019 
L 234.978257 246.592625 
L 235.510691 246.592625 
L 235.627567 246.874417 
L 236.16 246.874417 
L 236.276876 247.158367 
L 236.809309 247.158367 
L 236.926185 247.444446 
L 237.458618 247.444446 
L 237.575494 247.732625 
L 238.107927 247.732625 
L 238.224803 248.022877 
L 238.757236 248.022877 
L 238.874112 248.31517 
L 239.406545 248.31517 
L 239.523421 248.609478 
L 240.055855 248.609478 
L 240.17273 248.905769 
L 240.705164 248.905769 
L 240.822039 249.204015 
L 241.354473 249.204015 
L 241.471348 249.504185 
L 242.003782 249.504185 
L 242.120657 249.80625 
L 242.653091 249.80625 
L 242.769967 250.110179 
L 243.3024 250.110179 
L 243.419276 250.415942 
L 243.951709 250.415942 
L 244.068585 250.723509 
L 244.601018 250.723509 
L 244.717894 251.032848 
L 245.250327 251.032848 
L 245.367203 251.343929 
L 245.899636 251.343929 
L 246.016512 251.65672 
L 246.548945 251.65672 
L 246.665821 251.971191 
L 247.198255 251.971191 
L 247.31513 252.28731 
L 247.847564 252.28731 
L 247.964439 252.605044 
L 248.496873 252.605044 
L 248.613748 252.924364 
L 249.146182 252.924364 
L 249.263057 253.245236 
L 249.795491 253.245236 
L 249.912367 253.567628 
L 250.4448 253.567628 
L 250.561676 253.891509 
L 251.094109 253.891509 
L 251.210985 254.216845 
L 251.743418 254.216845 
L 251.860294 254.543605 
L 252.392727 254.543605 
L 252.509603 254.871755 
L 253.042036 254.871755 
L 253.158912 255.201263 
L 253.691345 255.201263 
L 253.808221 255.532096 
L 254.340655 255.532096 
L 254.45753 255.864221 
L 254.989964 255.864221 
L 255.106839 256.197604 
L 255.639273 256.197604 
L 255.756148 256.532213 
L 256.288582 256.532213 
L 256.405457 256.868013 
L 256.937891 256.868013 
L 257.054767 257.204971 
L 257.5872 257.204971 
L 257.704076 257.543054 
L 258.236509 257.543054 
L 258.353385 257.882228 
L 258.885818 257.882228 
L 259.002694 258.222458 
L 259.535127 258.222458 
L 259.652003 258.563711 
L 260.184436 258.563711 
L 260.301312 258.905953 
L 260.833745 258.905953 
L 260.950621 259.249149 
L 261.483055 259.249149 
L 261.59993 259.593265 
L 262.132364 259.593265 
L 262.249239 259.938267 
L 262.781673 259.938267 
L 262.898548 260.28412 
L 263.430982 260.28412 
L 263.547857 260.63079 
L 264.080291 260.63079 
L 264.197167 260.978241 
L 264.7296 260.978241 
L 264.846476 261.32644 
L 265.378909 261.32644 
L 265.495785 261.675351 
L 266.028218 261.675351 
L 266.145094 262.024939 
L 266.677527 262.024939 
L 266.794403 262.37517 
L 267.326836 262.37517 
L 267.443712 262.726009 
L 267.976145 262.726009 
L 268.093021 263.07742 
L 268.625455 263.07742 
L 268.74233 263.429368 
L 269.274764 263.429368 
L 269.391639 263.781818 
L 269.924073 263.781818 
L 270.040948 264.134735 
L 270.573382 264.134735 
L 270.690257 264.488083 
L 271.222691 264.488083 
L 271.339567 264.841828 
L 271.872 264.841828 
L 271.988876 265.195933 
L 272.521309 265.195933 
L 272.638185 265.550364 
L 273.170618 265.550364 
L 273.287494 265.905085 
L 273.819927 265.905085 
L 273.936803 266.26006 
L 274.469236 266.26006 
L 274.586112 266.615254 
L 275.118545 266.615254 
L 275.235421 266.970632 
L 275.767855 266.970632 
L 275.88473 267.326158 
L 276.417164 267.326158 
L 276.534039 267.681796 
L 277.066473 267.681796 
L 277.183348 268.03751 
L 277.715782 268.03751 
L 277.832657 268.393266 
L 278.365091 268.393266 
L 278.481967 268.749028 
L 279.0144 268.749028 
L 279.131276 269.10476 
L 279.663709 269.10476 
L 279.780585 269.460426 
L 280.313018 269.460426 
L 280.429894 269.815992 
L 280.962327 269.815992 
L 281.079203 270.17142 
L 281.611636 270.17142 
L 281.728512 270.526677 
L 282.260945 270.526677 
L 282.377821 270.881726 
L 282.910255 270.881726 
L 283.02713 271.236531 
L 283.559564 271.236531 
L 283.676439 271.591058 
L 284.208873 271.591058 
L 284.325748 271.945271 
L 284.858182 271.945271 
L 284.975057 272.299135 
L 285.507491 272.299135 
L 285.624367 272.652613 
L 286.1568 272.652613 
L 286.273676 273.005671 
L 286.806109 273.005671 
L 286.922985 273.358274 
L 287.455418 273.358274 
L 287.572294 273.710386 
L 288.104727 273.710386 
L 288.221603 274.061971 
L 288.754036 274.061971 
L 288.870912 274.412996 
L 289.403345 274.412996 
L 289.520221 274.763424 
L 290.052655 274.763424 
L 290.16953 275.113221 
L 290.701964 275.113221 
L 290.818839 275.462352 
L 291.351273 275.462352 
L 291.468148 275.810781 
L 292.000582 275.810781 
L 292.117457 276.158474 
L 292.649891 276.158474 
L 292.766767 276.505397 
L 293.2992 276.505397 
L 293.416076 276.851514 
L 293.948509 276.851514 
L 294.065385 277.19679 
L 294.597818 277.19679 
L 294.714694 277.541192 
L 295.247127 277.541192 
L 295.364003 277.884685 
L 295.896436 277.884685 
L 296.013312 278.227235 
L 296.545745 278.227235 
L 296.662621 278.568807 
L 297.195055 278.568807 
L 297.31193 278.909366 
L 297.844364 278.909366 
L 297.961239 279.24888 
L 298.493673 279.24888 
L 298.610548 279.587314 
L 299.142982 279.587314 
L 299.259857 279.924635 
L 299.792291 279.924635 
L 299.909167 280.260807 
L 300.4416 280.260807 
L 300.558476 280.595799 
L 301.090909 280.595799 
L 301.207785 280.929576 
L 301.740218 280.929576 
L 301.857094 281.262106 
L 302.389527 281.262106 
L 302.506403 281.593354 
L 303.038836 281.593354 
L 303.155712 281.923287 
L 303.688145 281.923287 
L 303.805021 282.251874 
L 304.337455 282.251874 
L 304.45433 282.57908 
L 304.986764 282.57908 
L 305.103639 282.904873 
L 305.636073 282.904873 
L 305.752948 283.229221 
L 306.285382 283.229221 
L 306.402257 283.552091 
L 306.934691 283.552091 
L 307.051567 283.873451 
L 307.584 283.873451 
L 307.700876 284.193268 
L 308.233309 284.193268 
L 308.350185 284.511511 
L 308.882618 284.511511 
L 308.999494 284.828148 
L 309.531927 284.828148 
L 309.648803 285.143147 
L 310.181236 285.143147 
L 310.298112 285.456477 
L 310.830545 285.456477 
L 310.947421 285.768106 
L 311.479855 285.768106 
L 311.59673 286.078003 
L 312.129164 286.078003 
L 312.246039 286.386138 
L 312.778473 286.386138 
L 312.895348 286.692479 
L 313.427782 286.692479 
L 313.544657 286.996995 
L 314.077091 286.996995 
L 314.193967 287.299657 
L 314.7264 287.299657 
L 314.843276 287.600434 
L 315.375709 287.600434 
L 315.492585 287.899296 
L 316.025018 287.899296 
L 316.141894 288.196213 
L 316.674327 288.196213 
L 316.791203 288.491156 
L 317.323636 288.491156 
L 317.440512 288.784094 
L 317.972945 288.784094 
L 318.089821 289.074999 
L 318.622255 289.074999 
L 318.73913 289.363842 
L 319.271564 289.363842 
L 319.388439 289.650593 
L 319.920873 289.650593 
L 320.037748 289.935224 
L 320.570182 289.935224 
L 320.687057 290.217706 
L 321.219491 290.217706 
L 321.336367 290.498012 
L 321.8688 290.498012 
L 321.985676 290.776113 
L 322.518109 290.776113 
L 322.634985 291.051981 
L 323.167418 291.051981 
L 323.284294 291.32559 
L 323.816727 291.32559 
L 323.933603 291.59691 
L 324.466036 291.59691 
L 324.582912 291.865916 
L 325.115345 291.865916 
L 325.232221 292.132581 
L 325.764655 292.132581 
L 325.88153 292.396877 
L 326.413964 292.396877 
L 326.530839 292.658778 
L 327.063273 292.658778 
L 327.180148 292.918259 
L 327.712582 292.918259 
L 327.829457 293.175293 
L 328.361891 293.175293 
L 328.478767 293.429854 
L 329.0112 293.429854 
L 329.128076 293.681917 
L 329.660509 293.681917 
L 329.777385 293.931457 
L 330.309818 293.931457 
L 330.426694 294.178449 
L 330.959127 294.178449 
L 331.076003 294.422868 
L 331.608436 294.422868 
L 331.725312 294.66469 
L 332.257745 294.66469 
L 332.374621 294.903891 
L 332.907055 294.903891 
L 333.02393 295.140446 
L 333.556364 295.140446 
L 333.673239 295.374332 
L 334.205673 295.374332 
L 334.322548 295.605525 
L 334.854982 295.605525 
L 334.971857 295.834004 
L 335.504291 295.834004 
L 335.621167 296.059743 
L 336.1536 296.059743 
L 336.270476 296.282722 
L 336.802909 296.282722 
L 336.919785 296.502917 
L 337.452218 296.502917 
L 337.569094 296.720308 
L 338.101527 296.720308 
L 338.218403 296.934871 
L 338.750836 296.934871 
L 338.867712 297.146586 
L 339.400145 297.146586 
L 339.517021 297.355431 
L 340.049455 297.355431 
L 340.16633 297.561385 
L 340.698764 297.561385 
L 340.815639 297.764429 
L 341.348073 297.764429 
L 341.464948 297.964541 
L 341.997382 297.964541 
L 342.114257 298.161701 
L 342.646691 298.161701 
L 342.763567 298.355891 
L 343.296 298.355891 
L 343.412876 298.547089 
L 343.945309 298.547089 
L 344.062185 298.735279 
L 344.594618 298.735279 
L 344.711494 298.920439 
L 345.243927 298.920439 
L 345.360803 299.102553 
L 345.893236 299.102553 
L 346.010112 299.281601 
L 346.542545 299.281601 
L 346.659421 299.457566 
L 347.191855 299.457566 
L 347.30873 299.630431 
L 347.841164 299.630431 
L 347.958039 299.800177 
L 348.490473 299.800177 
L 348.607348 299.966789 
L 349.139782 299.966789 
L 349.256657 300.130249 
L 349.789091 300.130249 
L 349.905967 300.290541 
L 350.4384 300.290541 
L 350.555276 300.447648 
L 351.087709 300.447648 
L 351.204585 300.601556 
L 351.737018 300.601556 
L 351.853894 300.752249 
L 352.386327 300.752249 
L 352.503203 300.899712 
L 353.035636 300.899712 
L 353.152512 301.04393 
L 353.684945 301.04393 
L 353.801821 301.184888 
L 354.334255 301.184888 
L 354.45113 301.322573 
L 354.983564 301.322573 
L 355.100439 301.456971 
L 355.632873 301.456971 
L 355.749748 301.588068 
L 356.282182 301.588068 
L 356.399057 301.715851 
L 356.931491 301.715851 
L 357.048367 301.840307 
L 357.5808 301.840307 
L 357.697676 301.961425 
L 358.230109 301.961425 
L 358.346985 302.079191 
L 358.879418 302.079191 
L 358.996294 302.193595 
L 360.178036 302.304624 
L 360.294912 302.412268 
L 361.476655 302.516516 
L 361.59353 302.617357 
L 362.775273 302.714781 
L 362.892148 302.808779 
L 364.073891 302.899341 
L 364.190767 302.986458 
L 365.372509 303.070121 
L 365.489385 303.150323 
L 366.671127 303.227054 
L 366.788003 303.300308 
L 367.969745 303.370077 
L 368.086621 303.436353 
L 369.268364 303.499131 
L 369.385239 303.558405 
L 371.216291 303.666413 
L 371.333167 303.715137 
L 373.164218 303.802002 
L 373.281094 303.840134 
L 375.761455 303.933282 
L 375.87833 303.957238 
L 386.799709 303.857104 
L 386.916585 303.820663 
L 388.747636 303.737173 
L 388.864512 303.690133 
L 390.695564 303.585486 
L 390.812439 303.52789 
L 391.994182 303.466785 
L 392.111057 303.402179 
L 393.2928 303.334078 
L 393.409676 303.262489 
L 394.591418 303.187418 
L 394.708294 303.108874 
L 395.890036 303.026863 
L 396.006912 302.941395 
L 397.188655 302.852478 
L 397.30553 302.760121 
L 398.487273 302.664333 
L 398.487273 302.664333 
" style="fill:none;stroke:#000000;stroke-linecap:square;stroke-width:1.5;"/>
   </g>
   <g id="patch_14">
    <path d="M 57.6 307.584 
L 57.6 229.315765 
" style="fill:none;stroke:#000000;stroke-linecap:square;stroke-linejoin:miter;stroke-width:0.8;"/>
   </g>
   <g id="patch_15">
    <path d="M 414.72 307.584 
L 414.72 229.315765 
" style="fill:none;stroke:#000000;stroke-linecap:square;stroke-linejoin:miter;stroke-width:0.8;"/>
   </g>
   <g id="patch_16">
    <path d="M 57.6 307.584 
L 414.72 307.584 
" style="fill:none;stroke:#000000;stroke-linecap:square;stroke-linejoin:miter;stroke-width:0.8;"/>
   </g>
   <g id="patch_17">
    <path d="M 57.6 229.315765 
L 414.72 229.315765 
" style="fill:none;stroke:#000000;stroke-linecap:square;stroke-linejoin:miter;stroke-width:0.8;"/>
   </g>
   <g id="legend_2">
    <g id="patch_18">
     <path d="M 349.82625 251.99389 
L 407.72 251.99389 
Q 409.72 251.99389 409.72 249.99389 
L 409.72 236.315765 
Q 409.72 234.315765 407.72 234.315765 
L 349.82625 234.315765 
Q 347.82625 234.315765 347.82625 236.315765 
L 347.82625 249.99389 
Q 347.82625 251.99389 349.82625 251.99389 
z
" style="fill:#ffffff;opacity:0.8;stroke:#cccccc;stroke-linejoin:miter;"/>
    </g>
    <g id="line2d_37">
     <path d="M 351.82625 242.414202 
L 371.82625 242.414202 
" style="fill:none;stroke:#000000;stroke-linecap:square;stroke-width:1.5;"/>
    </g>
    <g id="line2d_38"/>
    <g id="text_34">
     <!-- Input -->
     <g transform="translate(379.82625 245.914202)scale(0.1 -0.1)">
      <use xlink:href="#DejaVuSans-49"/>
      <use x="29.492188" xlink:href="#DejaVuSans-6e"/>
      <use x="92.871094" xlink:href="#DejaVuSans-70"/>
      <use x="156.347656" xlink:href="#DejaVuSans-75"/>
      <use x="219.726562" xlink:href="#DejaVuSans-74"/>
     </g>
    </g>
   </g>
  </g>
 </g>
 <defs>
  <clipPath id="pd67e793947">
   <rect height="78.268235" width="357.12" x="57.6" y="41.472"/>
  </clipPath>
  <clipPath id="p675a91a046">
   <rect height="78.268235" width="357.12" x="57.6" y="135.393882"/>
  </clipPath>
  <clipPath id="p737dccc2a9">
   <rect height="78.268235" width="357.12" x="57.6" y="229.315765"/>
  </clipPath>
 </defs>
</svg>
