<?xml version="1.0" encoding="utf-8" standalone="no"?>
<!DOCTYPE svg PUBLIC "-//W3C//DTD SVG 1.1//EN"
  "http://www.w3.org/Graphics/SVG/1.1/DTD/svg11.dtd">
<!-- Created with matplotlib (http://matplotlib.org/) -->
<svg height="345.6pt" version="1.1" viewBox="0 0 460.8 345.6" width="460.8pt" xmlns="http://www.w3.org/2000/svg" xmlns:xlink="http://www.w3.org/1999/xlink">
 <defs>
  <style type="text/css">
*{stroke-linecap:butt;stroke-linejoin:round;}
  </style>
 </defs>
 <g id="figure_1">
  <g id="patch_1">
   <path d="M 0 345.6 
L 460.8 345.6 
L 460.8 0 
L 0 0 
z
" style="fill:#ffffff;"/>
  </g>
  <g id="axes_1">
   <g id="patch_2">
    <path d="M 57.6 307.584 
L 414.72 307.584 
L 414.72 41.472 
L 57.6 41.472 
z
" style="fill:#ffffff;"/>
   </g>
   <g id="matplotlib.axis_1">
    <g id="xtick_1">
     <g id="line2d_1">
      <defs>
       <path d="M 0 0 
L 0 3.5 
" id="mf25ce8f492" style="stroke:#000000;stroke-width:0.8;"/>
      </defs>
      <g>
       <use style="stroke:#000000;stroke-width:0.8;" x="62.073474" xlink:href="#mf25ce8f492" y="307.584"/>
      </g>
     </g>
     <g id="text_1">
      <!-- −0.2 -->
      <defs>
       <path d="M 10.59375 35.5 
L 73.1875 35.5 
L 73.1875 27.203125 
L 10.59375 27.203125 
z
" id="DejaVuSans-2212"/>
       <path d="M 31.78125 66.40625 
Q 24.171875 66.40625 20.328125 58.90625 
Q 16.5 51.421875 16.5 36.375 
Q 16.5 21.390625 20.328125 13.890625 
Q 24.171875 6.390625 31.78125 6.390625 
Q 39.453125 6.390625 43.28125 13.890625 
Q 47.125 21.390625 47.125 36.375 
Q 47.125 51.421875 43.28125 58.90625 
Q 39.453125 66.40625 31.78125 66.40625 
z
M 31.78125 74.21875 
Q 44.046875 74.21875 50.515625 64.515625 
Q 56.984375 54.828125 56.984375 36.375 
Q 56.984375 17.96875 50.515625 8.265625 
Q 44.046875 -1.421875 31.78125 -1.421875 
Q 19.53125 -1.421875 13.0625 8.265625 
Q 6.59375 17.96875 6.59375 36.375 
Q 6.59375 54.828125 13.0625 64.515625 
Q 19.53125 74.21875 31.78125 74.21875 
z
" id="DejaVuSans-30"/>
       <path d="M 10.6875 12.40625 
L 21 12.40625 
L 21 0 
L 10.6875 0 
z
" id="DejaVuSans-2e"/>
       <path d="M 19.1875 8.296875 
L 53.609375 8.296875 
L 53.609375 0 
L 7.328125 0 
L 7.328125 8.296875 
Q 12.9375 14.109375 22.625 23.890625 
Q 32.328125 33.6875 34.8125 36.53125 
Q 39.546875 41.84375 41.421875 45.53125 
Q 43.3125 49.21875 43.3125 52.78125 
Q 43.3125 58.59375 39.234375 62.25 
Q 35.15625 65.921875 28.609375 65.921875 
Q 23.96875 65.921875 18.8125 64.3125 
Q 13.671875 62.703125 7.8125 59.421875 
L 7.8125 69.390625 
Q 13.765625 71.78125 18.9375 73 
Q 24.125 74.21875 28.421875 74.21875 
Q 39.75 74.21875 46.484375 68.546875 
Q 53.21875 62.890625 53.21875 53.421875 
Q 53.21875 48.921875 51.53125 44.890625 
Q 49.859375 40.875 45.40625 35.40625 
Q 44.1875 33.984375 37.640625 27.21875 
Q 31.109375 20.453125 19.1875 8.296875 
z
" id="DejaVuSans-32"/>
      </defs>
      <g transform="translate(49.932068 322.182437)scale(0.1 -0.1)">
       <use xlink:href="#DejaVuSans-2212"/>
       <use x="83.789062" xlink:href="#DejaVuSans-30"/>
       <use x="147.412109" xlink:href="#DejaVuSans-2e"/>
       <use x="179.199219" xlink:href="#DejaVuSans-32"/>
      </g>
     </g>
    </g>
    <g id="xtick_2">
     <g id="line2d_2">
      <g>
       <use style="stroke:#000000;stroke-width:0.8;" x="118.142563" xlink:href="#mf25ce8f492" y="307.584"/>
      </g>
     </g>
     <g id="text_2">
      <!-- 0.0 -->
      <g transform="translate(110.191001 322.182437)scale(0.1 -0.1)">
       <use xlink:href="#DejaVuSans-30"/>
       <use x="63.623047" xlink:href="#DejaVuSans-2e"/>
       <use x="95.410156" xlink:href="#DejaVuSans-30"/>
      </g>
     </g>
    </g>
    <g id="xtick_3">
     <g id="line2d_3">
      <g>
       <use style="stroke:#000000;stroke-width:0.8;" x="174.211652" xlink:href="#mf25ce8f492" y="307.584"/>
      </g>
     </g>
     <g id="text_3">
      <!-- 0.2 -->
      <g transform="translate(166.260089 322.182437)scale(0.1 -0.1)">
       <use xlink:href="#DejaVuSans-30"/>
       <use x="63.623047" xlink:href="#DejaVuSans-2e"/>
       <use x="95.410156" xlink:href="#DejaVuSans-32"/>
      </g>
     </g>
    </g>
    <g id="xtick_4">
     <g id="line2d_4">
      <g>
       <use style="stroke:#000000;stroke-width:0.8;" x="230.280741" xlink:href="#mf25ce8f492" y="307.584"/>
      </g>
     </g>
     <g id="text_4">
      <!-- 0.4 -->
      <defs>
       <path d="M 37.796875 64.3125 
L 12.890625 25.390625 
L 37.796875 25.390625 
z
M 35.203125 72.90625 
L 47.609375 72.90625 
L 47.609375 25.390625 
L 58.015625 25.390625 
L 58.015625 17.1875 
L 47.609375 17.1875 
L 47.609375 0 
L 37.796875 0 
L 37.796875 17.1875 
L 4.890625 17.1875 
L 4.890625 26.703125 
z
" id="DejaVuSans-34"/>
      </defs>
      <g transform="translate(222.329178 322.182437)scale(0.1 -0.1)">
       <use xlink:href="#DejaVuSans-30"/>
       <use x="63.623047" xlink:href="#DejaVuSans-2e"/>
       <use x="95.410156" xlink:href="#DejaVuSans-34"/>
      </g>
     </g>
    </g>
    <g id="xtick_5">
     <g id="line2d_5">
      <g>
       <use style="stroke:#000000;stroke-width:0.8;" x="286.34983" xlink:href="#mf25ce8f492" y="307.584"/>
      </g>
     </g>
     <g id="text_5">
      <!-- 0.6 -->
      <defs>
       <path d="M 33.015625 40.375 
Q 26.375 40.375 22.484375 35.828125 
Q 18.609375 31.296875 18.609375 23.390625 
Q 18.609375 15.53125 22.484375 10.953125 
Q 26.375 6.390625 33.015625 6.390625 
Q 39.65625 6.390625 43.53125 10.953125 
Q 47.40625 15.53125 47.40625 23.390625 
Q 47.40625 31.296875 43.53125 35.828125 
Q 39.65625 40.375 33.015625 40.375 
z
M 52.59375 71.296875 
L 52.59375 62.3125 
Q 48.875 64.0625 45.09375 64.984375 
Q 41.3125 65.921875 37.59375 65.921875 
Q 27.828125 65.921875 22.671875 59.328125 
Q 17.53125 52.734375 16.796875 39.40625 
Q 19.671875 43.65625 24.015625 45.921875 
Q 28.375 48.1875 33.59375 48.1875 
Q 44.578125 48.1875 50.953125 41.515625 
Q 57.328125 34.859375 57.328125 23.390625 
Q 57.328125 12.15625 50.6875 5.359375 
Q 44.046875 -1.421875 33.015625 -1.421875 
Q 20.359375 -1.421875 13.671875 8.265625 
Q 6.984375 17.96875 6.984375 36.375 
Q 6.984375 53.65625 15.1875 63.9375 
Q 23.390625 74.21875 37.203125 74.21875 
Q 40.921875 74.21875 44.703125 73.484375 
Q 48.484375 72.75 52.59375 71.296875 
z
" id="DejaVuSans-36"/>
      </defs>
      <g transform="translate(278.398267 322.182437)scale(0.1 -0.1)">
       <use xlink:href="#DejaVuSans-30"/>
       <use x="63.623047" xlink:href="#DejaVuSans-2e"/>
       <use x="95.410156" xlink:href="#DejaVuSans-36"/>
      </g>
     </g>
    </g>
    <g id="xtick_6">
     <g id="line2d_6">
      <g>
       <use style="stroke:#000000;stroke-width:0.8;" x="342.418919" xlink:href="#mf25ce8f492" y="307.584"/>
      </g>
     </g>
     <g id="text_6">
      <!-- 0.8 -->
      <defs>
       <path d="M 31.78125 34.625 
Q 24.75 34.625 20.71875 30.859375 
Q 16.703125 27.09375 16.703125 20.515625 
Q 16.703125 13.921875 20.71875 10.15625 
Q 24.75 6.390625 31.78125 6.390625 
Q 38.8125 6.390625 42.859375 10.171875 
Q 46.921875 13.96875 46.921875 20.515625 
Q 46.921875 27.09375 42.890625 30.859375 
Q 38.875 34.625 31.78125 34.625 
z
M 21.921875 38.8125 
Q 15.578125 40.375 12.03125 44.71875 
Q 8.5 49.078125 8.5 55.328125 
Q 8.5 64.0625 14.71875 69.140625 
Q 20.953125 74.21875 31.78125 74.21875 
Q 42.671875 74.21875 48.875 69.140625 
Q 55.078125 64.0625 55.078125 55.328125 
Q 55.078125 49.078125 51.53125 44.71875 
Q 48 40.375 41.703125 38.8125 
Q 48.828125 37.15625 52.796875 32.3125 
Q 56.78125 27.484375 56.78125 20.515625 
Q 56.78125 9.90625 50.3125 4.234375 
Q 43.84375 -1.421875 31.78125 -1.421875 
Q 19.734375 -1.421875 13.25 4.234375 
Q 6.78125 9.90625 6.78125 20.515625 
Q 6.78125 27.484375 10.78125 32.3125 
Q 14.796875 37.15625 21.921875 38.8125 
z
M 18.3125 54.390625 
Q 18.3125 48.734375 21.84375 45.5625 
Q 25.390625 42.390625 31.78125 42.390625 
Q 38.140625 42.390625 41.71875 45.5625 
Q 45.3125 48.734375 45.3125 54.390625 
Q 45.3125 60.0625 41.71875 63.234375 
Q 38.140625 66.40625 31.78125 66.40625 
Q 25.390625 66.40625 21.84375 63.234375 
Q 18.3125 60.0625 18.3125 54.390625 
z
" id="DejaVuSans-38"/>
      </defs>
      <g transform="translate(334.467356 322.182437)scale(0.1 -0.1)">
       <use xlink:href="#DejaVuSans-30"/>
       <use x="63.623047" xlink:href="#DejaVuSans-2e"/>
       <use x="95.410156" xlink:href="#DejaVuSans-38"/>
      </g>
     </g>
    </g>
    <g id="xtick_7">
     <g id="line2d_7">
      <g>
       <use style="stroke:#000000;stroke-width:0.8;" x="398.488008" xlink:href="#mf25ce8f492" y="307.584"/>
      </g>
     </g>
     <g id="text_7">
      <!-- 1.0 -->
      <defs>
       <path d="M 12.40625 8.296875 
L 28.515625 8.296875 
L 28.515625 63.921875 
L 10.984375 60.40625 
L 10.984375 69.390625 
L 28.421875 72.90625 
L 38.28125 72.90625 
L 38.28125 8.296875 
L 54.390625 8.296875 
L 54.390625 0 
L 12.40625 0 
z
" id="DejaVuSans-31"/>
      </defs>
      <g transform="translate(390.536445 322.182437)scale(0.1 -0.1)">
       <use xlink:href="#DejaVuSans-31"/>
       <use x="63.623047" xlink:href="#DejaVuSans-2e"/>
       <use x="95.410156" xlink:href="#DejaVuSans-30"/>
      </g>
     </g>
    </g>
   </g>
   <g id="matplotlib.axis_2">
    <g id="ytick_1">
     <g id="line2d_8">
      <defs>
       <path d="M 0 0 
L -3.5 0 
" id="mf9890fa8fa" style="stroke:#000000;stroke-width:0.8;"/>
      </defs>
      <g>
       <use style="stroke:#000000;stroke-width:0.8;" x="57.6" xlink:href="#mf9890fa8fa" y="295.488"/>
      </g>
     </g>
     <g id="text_8">
      <!-- −20000 -->
      <g transform="translate(10.407812 299.287219)scale(0.1 -0.1)">
       <use xlink:href="#DejaVuSans-2212"/>
       <use x="83.789062" xlink:href="#DejaVuSans-32"/>
       <use x="147.412109" xlink:href="#DejaVuSans-30"/>
       <use x="211.035156" xlink:href="#DejaVuSans-30"/>
       <use x="274.658203" xlink:href="#DejaVuSans-30"/>
       <use x="338.28125" xlink:href="#DejaVuSans-30"/>
      </g>
     </g>
    </g>
    <g id="ytick_2">
     <g id="line2d_9">
      <g>
       <use style="stroke:#000000;stroke-width:0.8;" x="57.6" xlink:href="#mf9890fa8fa" y="265.247244"/>
      </g>
     </g>
     <g id="text_9">
      <!-- −15000 -->
      <defs>
       <path d="M 10.796875 72.90625 
L 49.515625 72.90625 
L 49.515625 64.59375 
L 19.828125 64.59375 
L 19.828125 46.734375 
Q 21.96875 47.46875 24.109375 47.828125 
Q 26.265625 48.1875 28.421875 48.1875 
Q 40.625 48.1875 47.75 41.5 
Q 54.890625 34.8125 54.890625 23.390625 
Q 54.890625 11.625 47.5625 5.09375 
Q 40.234375 -1.421875 26.90625 -1.421875 
Q 22.3125 -1.421875 17.546875 -0.640625 
Q 12.796875 0.140625 7.71875 1.703125 
L 7.71875 11.625 
Q 12.109375 9.234375 16.796875 8.0625 
Q 21.484375 6.890625 26.703125 6.890625 
Q 35.15625 6.890625 40.078125 11.328125 
Q 45.015625 15.765625 45.015625 23.390625 
Q 45.015625 31 40.078125 35.4375 
Q 35.15625 39.890625 26.703125 39.890625 
Q 22.75 39.890625 18.8125 39.015625 
Q 14.890625 38.140625 10.796875 36.28125 
z
" id="DejaVuSans-35"/>
      </defs>
      <g transform="translate(10.407812 269.046463)scale(0.1 -0.1)">
       <use xlink:href="#DejaVuSans-2212"/>
       <use x="83.789062" xlink:href="#DejaVuSans-31"/>
       <use x="147.412109" xlink:href="#DejaVuSans-35"/>
       <use x="211.035156" xlink:href="#DejaVuSans-30"/>
       <use x="274.658203" xlink:href="#DejaVuSans-30"/>
       <use x="338.28125" xlink:href="#DejaVuSans-30"/>
      </g>
     </g>
    </g>
    <g id="ytick_3">
     <g id="line2d_10">
      <g>
       <use style="stroke:#000000;stroke-width:0.8;" x="57.6" xlink:href="#mf9890fa8fa" y="235.006488"/>
      </g>
     </g>
     <g id="text_10">
      <!-- −10000 -->
      <g transform="translate(10.407812 238.805707)scale(0.1 -0.1)">
       <use xlink:href="#DejaVuSans-2212"/>
       <use x="83.789062" xlink:href="#DejaVuSans-31"/>
       <use x="147.412109" xlink:href="#DejaVuSans-30"/>
       <use x="211.035156" xlink:href="#DejaVuSans-30"/>
       <use x="274.658203" xlink:href="#DejaVuSans-30"/>
       <use x="338.28125" xlink:href="#DejaVuSans-30"/>
      </g>
     </g>
    </g>
    <g id="ytick_4">
     <g id="line2d_11">
      <g>
       <use style="stroke:#000000;stroke-width:0.8;" x="57.6" xlink:href="#mf9890fa8fa" y="204.765732"/>
      </g>
     </g>
     <g id="text_11">
      <!-- −5000 -->
      <g transform="translate(16.770313 208.564951)scale(0.1 -0.1)">
       <use xlink:href="#DejaVuSans-2212"/>
       <use x="83.789062" xlink:href="#DejaVuSans-35"/>
       <use x="147.412109" xlink:href="#DejaVuSans-30"/>
       <use x="211.035156" xlink:href="#DejaVuSans-30"/>
       <use x="274.658203" xlink:href="#DejaVuSans-30"/>
      </g>
     </g>
    </g>
    <g id="ytick_5">
     <g id="line2d_12">
      <g>
       <use style="stroke:#000000;stroke-width:0.8;" x="57.6" xlink:href="#mf9890fa8fa" y="174.524976"/>
      </g>
     </g>
     <g id="text_12">
      <!-- 0 -->
      <g transform="translate(44.2375 178.324195)scale(0.1 -0.1)">
       <use xlink:href="#DejaVuSans-30"/>
      </g>
     </g>
    </g>
    <g id="ytick_6">
     <g id="line2d_13">
      <g>
       <use style="stroke:#000000;stroke-width:0.8;" x="57.6" xlink:href="#mf9890fa8fa" y="144.28422"/>
      </g>
     </g>
     <g id="text_13">
      <!-- 5000 -->
      <g transform="translate(25.15 148.083439)scale(0.1 -0.1)">
       <use xlink:href="#DejaVuSans-35"/>
       <use x="63.623047" xlink:href="#DejaVuSans-30"/>
       <use x="127.246094" xlink:href="#DejaVuSans-30"/>
       <use x="190.869141" xlink:href="#DejaVuSans-30"/>
      </g>
     </g>
    </g>
    <g id="ytick_7">
     <g id="line2d_14">
      <g>
       <use style="stroke:#000000;stroke-width:0.8;" x="57.6" xlink:href="#mf9890fa8fa" y="114.043464"/>
      </g>
     </g>
     <g id="text_14">
      <!-- 10000 -->
      <g transform="translate(18.7875 117.842683)scale(0.1 -0.1)">
       <use xlink:href="#DejaVuSans-31"/>
       <use x="63.623047" xlink:href="#DejaVuSans-30"/>
       <use x="127.246094" xlink:href="#DejaVuSans-30"/>
       <use x="190.869141" xlink:href="#DejaVuSans-30"/>
       <use x="254.492188" xlink:href="#DejaVuSans-30"/>
      </g>
     </g>
    </g>
    <g id="ytick_8">
     <g id="line2d_15">
      <g>
       <use style="stroke:#000000;stroke-width:0.8;" x="57.6" xlink:href="#mf9890fa8fa" y="83.802708"/>
      </g>
     </g>
     <g id="text_15">
      <!-- 15000 -->
      <g transform="translate(18.7875 87.601927)scale(0.1 -0.1)">
       <use xlink:href="#DejaVuSans-31"/>
       <use x="63.623047" xlink:href="#DejaVuSans-35"/>
       <use x="127.246094" xlink:href="#DejaVuSans-30"/>
       <use x="190.869141" xlink:href="#DejaVuSans-30"/>
       <use x="254.492188" xlink:href="#DejaVuSans-30"/>
      </g>
     </g>
    </g>
    <g id="ytick_9">
     <g id="line2d_16">
      <g>
       <use style="stroke:#000000;stroke-width:0.8;" x="57.6" xlink:href="#mf9890fa8fa" y="53.561952"/>
      </g>
     </g>
     <g id="text_16">
      <!-- 20000 -->
      <g transform="translate(18.7875 57.361171)scale(0.1 -0.1)">
       <use xlink:href="#DejaVuSans-32"/>
       <use x="63.623047" xlink:href="#DejaVuSans-30"/>
       <use x="127.246094" xlink:href="#DejaVuSans-30"/>
       <use x="190.869141" xlink:href="#DejaVuSans-30"/>
       <use x="254.492188" xlink:href="#DejaVuSans-30"/>
      </g>
     </g>
    </g>
   </g>
   <g id="line2d_17">
    <path clip-path="url(#p5fe4d297db)" d="M 142.530797 295.488 
L 142.251523 295.25817 
L 141.562563 294.919474 
L 139.948073 294.556585 
L 136.105552 293.842903 
L 133.761014 293.528399 
L 123.12415 292.403443 
L 108.539846 290.93979 
L 105.746472 290.195868 
L 102.913512 289.839027 
L 97.840994 289.234212 
L 95.063264 288.756408 
L 93.423452 288.066918 
L 91.897222 287.831041 
L 85.082201 287.123407 
L 75.01928 286.107317 
L 73.996481 285.817006 
L 74.034843 285.689995 
L 74.824344 285.284769 
L 75.610602 285.073084 
L 80.53962 284.256583 
L 107.768128 281.347422 
L 109.144389 281.014774 
L 109.331618 280.821233 
L 109.321043 280.809137 
L 109.114515 280.724463 
L 107.508294 280.470441 
L 103.453058 279.9503 
L 97.774406 279.200329 
L 95.750076 278.789055 
L 95.428365 278.637851 
L 95.457183 278.595514 
L 96.088236 278.184239 
L 97.42106 277.899976 
L 103.521513 277.307257 
L 108.764264 276.811309 
L 115.073854 276.097627 
L 121.171378 275.547245 
L 128.867685 274.839612 
L 132.084511 274.313423 
L 132.283318 274.138026 
L 132.254195 274.113834 
L 131.760228 273.986822 
L 129.705105 273.744896 
L 122.500691 272.982829 
L 121.819556 272.740903 
L 121.653749 272.529218 
L 121.594311 272.299388 
L 121.806472 272.117944 
L 122.70515 271.785295 
L 123.438219 271.494984 
L 123.3518 271.398214 
L 123.049177 271.065565 
L 123.079551 270.799447 
L 122.760704 270.472847 
L 122.76564 270.466798 
L 123.022055 270.351884 
L 123.814659 269.964802 
L 123.6507 269.849887 
L 123.234697 269.74102 
L 121.385211 269.462805 
L 114.618433 268.36809 
L 114.58609 268.259223 
L 114.618185 268.235031 
L 115.10975 267.97496 
L 118.641189 267.200797 
L 119.987763 266.910486 
L 120.410061 266.6988 
L 120.386624 266.662511 
L 120.212683 266.523404 
L 116.818217 264.944836 
L 116.72872 264.587995 
L 116.997955 264.27954 
L 116.991983 264.273492 
L 116.606071 264.085999 
L 115.855189 263.698917 
L 115.80156 263.438847 
L 115.947307 263.257402 
L 116.271869 262.942898 
L 116.192977 262.61025 
L 116.104494 262.416709 
L 115.488102 262.162687 
L 112.894795 261.23732 
L 112.630422 260.922816 
L 112.321822 260.626456 
L 112.650906 260.414771 
L 114.02527 259.834149 
L 114.006248 259.803908 
L 114.075808 259.5015 
L 114.299552 259.362393 
L 115.419079 259.047889 
L 117.332069 258.715241 
L 118.850431 258.376544 
L 118.754129 257.820114 
L 119.016794 257.596333 
L 120.792816 256.937084 
L 121.780742 256.59234 
L 122.410798 256.283884 
L 125.672702 255.219409 
L 126.264471 254.862568 
L 127.269766 254.160983 
L 128.617757 253.707371 
L 129.153768 253.435205 
L 129.105752 253.380771 
L 129.064145 253.205375 
L 128.943248 253.084412 
L 127.887808 252.794101 
L 125.016265 252.413067 
L 117.258769 251.790108 
L 113.175729 251.366737 
L 107.365129 250.483707 
L 106.939059 250.247829 
L 105.046001 249.546243 
L 104.932915 249.340606 
L 105.000698 249.304317 
L 105.384798 249.195451 
L 107.694421 248.83861 
L 111.937678 248.143072 
L 113.992728 247.65922 
L 113.995267 247.580594 
L 113.96179 247.550354 
L 113.85346 247.33262 
L 113.785175 247.205609 
L 113.369613 246.999972 
L 111.234673 246.431446 
L 108.944128 246.092749 
L 103.993183 245.578656 
L 96.735682 244.768204 
L 96.381154 244.574663 
L 96.38296 244.568615 
L 96.633904 244.381122 
L 97.186925 244.145244 
L 98.995367 243.873078 
L 102.655797 243.534381 
L 114.385857 242.705784 
L 147.884933 240.752232 
L 149.75863 240.304668 
L 152.083889 239.784527 
L 157.626111 238.968027 
L 163.468493 237.915649 
L 163.460134 237.87936 
L 163.513075 237.534615 
L 165.088318 236.808837 
L 165.16143 236.548767 
L 165.159189 236.379418 
L 164.823734 236.167733 
L 163.396534 235.895566 
L 159.336496 235.242366 
L 158.700488 235.012536 
L 158.766791 234.958103 
L 159.97475 234.329095 
L 159.839193 234.11741 
L 158.867802 233.911773 
L 156.720072 233.694039 
L 149.398585 233.258572 
L 137.759058 232.575131 
L 135.490051 232.248531 
L 135.153915 232.042894 
L 135.433373 231.897738 
L 136.386205 231.66186 
L 139.724947 230.936082 
L 147.018393 229.599441 
L 149.742023 229.170022 
L 150.619733 228.843422 
L 151.154672 228.365618 
L 150.972235 228.256751 
L 150.66268 228.135788 
L 148.978953 227.86967 
L 144.411225 227.379769 
L 130.338855 225.988695 
L 124.883938 225.353639 
L 124.516692 225.160098 
L 124.527422 225.141953 
L 124.535551 224.984701 
L 124.527649 224.978653 
L 124.477905 224.887931 
L 124.527201 224.851642 
L 125.052268 224.639957 
L 126.295017 224.379886 
L 127.780869 224.053286 
L 127.573672 223.805312 
L 126.780845 223.654108 
L 123.037833 223.061389 
L 117.035913 222.644067 
L 100.396248 221.513063 
L 92.810261 220.76914 
L 84.953176 220.085699 
L 76.835572 219.39621 
L 74.243235 218.960743 
L 73.837695 218.761154 
L 73.867196 218.736961 
L 74.390508 218.60995 
L 76.912835 218.313591 
L 88.919091 216.970901 
L 92.775435 216.293508 
L 96.252663 215.712886 
L 96.880061 215.428623 
L 98.675651 214.479063 
L 99.462875 214.140366 
L 101.208669 213.577888 
L 104.14455 213.17871 
L 109.491574 212.45898 
L 109.894721 212.265439 
L 109.883401 212.253343 
L 109.523068 212.090043 
L 109.191703 211.884406 
L 109.343243 211.751347 
L 110.113258 211.503372 
L 112.506312 211.092098 
L 121.111066 210.112298 
L 121.297066 209.991335 
L 121.279459 209.961094 
L 121.043445 209.852227 
L 120.071276 209.682879 
L 116.688707 209.313942 
L 106.00823 208.116408 
L 104.803018 207.838193 
L 104.79464 207.783759 
L 104.855543 207.74747 
L 105.798979 207.469256 
L 107.019269 207.233378 
L 108.337053 206.888633 
L 109.323453 206.628563 
L 111.942741 206.023747 
L 112.921182 205.497558 
L 112.80769 205.42498 
L 111.485917 205.189103 
L 108.858023 204.93508 
L 105.31113 204.529854 
L 104.032506 204.227446 
L 103.572413 203.906894 
L 103.538596 203.646824 
L 103.583232 203.39885 
L 103.571673 203.392802 
L 102.731028 203.066201 
L 101.324525 202.836372 
L 98.290351 202.54606 
L 87.931387 201.590453 
L 79.412926 200.556219 
L 78.301368 200.114704 
L 78.078808 199.927211 
L 78.088147 199.915115 
L 79.219778 199.322396 
L 79.979711 198.892977 
L 80.535378 198.584521 
L 81.038725 198.29421 
L 80.969273 198.245825 
L 79.342084 197.755925 
L 79.344491 197.749877 
L 79.61172 197.471662 
L 81.271269 196.969665 
L 84.406099 196.637017 
L 136.163 192.282348 
L 136.249708 192.179529 
L 136.171732 192.131144 
L 135.441937 191.768255 
L 134.126512 191.532377 
L 131.756663 191.272307 
L 120.948088 190.340891 
L 117.414542 189.959858 
L 115.933518 189.566728 
L 116.017185 189.488102 
L 116.738534 189.318754 
L 121.254325 188.399435 
L 121.201143 188.236135 
L 121.20717 188.12122 
L 121.229258 188.103075 
L 121.746016 187.63132 
L 121.633185 187.570838 
L 121.19168 187.46802 
L 117.443882 186.68176 
L 116.382614 186.312823 
L 114.005041 185.835019 
L 108.677112 185.248348 
L 99.73879 184.498377 
L 95.075223 184.12944 
L 84.665686 183.318988 
L 83.024158 183.004484 
L 83.017473 182.944002 
L 83.082725 182.907713 
L 83.620239 182.768606 
L 85.817396 182.484343 
L 90.59079 182.139598 
L 108.166728 180.984401 
L 114.670704 180.579175 
L 130.841657 179.871542 
L 164.441155 178.710297 
L 193.242102 177.936133 
L 245.903681 176.889803 
L 308.065266 175.88581 
L 398.487273 174.531024 
L 397.887677 174.51288 
L 385.085164 174.252809 
L 332.20489 173.508887 
L 258.450843 172.396027 
L 190.800727 171.071482 
L 166.634678 170.418281 
L 135.220694 169.359855 
L 111.303623 168.301428 
L 105.118107 167.817576 
L 97.635731 167.303483 
L 83.894952 166.341827 
L 83.008136 166.093853 
L 83.097764 166.003131 
L 83.937825 165.864023 
L 86.329719 165.567664 
L 93.562049 165.029379 
L 100.142633 164.521334 
L 108.091399 163.856037 
L 112.672011 163.414522 
L 116.641277 162.682696 
L 117.643533 162.271422 
L 118.170694 162.108122 
L 119.20607 161.908533 
L 121.717804 161.448873 
L 121.755802 161.382343 
L 121.709979 161.333958 
L 121.569727 161.212995 
L 121.205097 160.940828 
L 121.240638 160.789625 
L 121.249505 160.656565 
L 121.056242 160.487217 
L 120.122064 160.299724 
L 116.425943 159.682813 
L 115.929244 159.501368 
L 115.948842 159.471128 
L 116.456967 159.307827 
L 118.016451 159.017516 
L 123.764256 158.479231 
L 135.347562 157.317986 
L 136.022925 157.021626 
L 136.253519 156.858326 
L 136.207521 156.815989 
L 135.820055 156.676882 
L 133.97328 156.471245 
L 122.272845 155.491444 
L 87.543213 152.69115 
L 80.426302 151.892794 
L 79.390305 151.408942 
L 79.485002 151.142823 
L 80.159045 150.979523 
L 81.039924 150.731549 
L 81.016954 150.707356 
L 80.796018 150.574297 
L 80.153525 150.265841 
L 79.96607 150.054156 
L 79.913065 149.957386 
L 79.900883 149.951338 
L 79.308454 149.769893 
L 78.525041 149.400956 
L 78.227309 149.243704 
L 78.078379 149.080404 
L 78.093164 149.062259 
L 78.359829 148.923152 
L 80.2724 148.330433 
L 84.718907 147.767955 
L 102.893414 145.95351 
L 103.481079 145.72368 
L 103.564904 145.518043 
L 103.563291 145.161202 
L 103.850384 144.907179 
L 104.492549 144.695494 
L 105.267422 144.538242 
L 108.636753 144.145112 
L 112.360869 143.72779 
L 112.916607 143.552394 
L 112.903945 143.522153 
L 112.808064 143.383045 
L 112.257718 143.183456 
L 109.853342 142.51816 
L 108.387312 142.19156 
L 106.063147 141.659322 
L 104.786797 141.278289 
L 104.802534 141.217807 
L 104.85778 141.193615 
L 105.794325 140.975881 
L 112.207185 140.12914 
L 120.620529 139.294495 
L 121.29151 139.064665 
L 121.130187 138.955799 
L 119.816856 138.732017 
L 110.016838 137.534483 
L 109.214694 137.207883 
L 109.214168 137.092968 
L 109.244859 137.074824 
L 109.894774 136.784512 
L 109.818404 136.705886 
L 109.132273 136.524442 
L 106.863728 136.173649 
L 100.755644 135.381341 
L 99.235272 134.800719 
L 98.87037 134.637419 
L 97.636841 134.159615 
L 97.278087 133.857207 
L 95.499641 133.185862 
L 84.762427 131.510525 
L 76.789223 130.736361 
L 73.878317 130.331135 
L 73.832727 130.288798 
L 73.911836 130.228317 
L 74.432471 130.05292 
L 77.08678 129.635598 
L 82.106508 129.175938 
L 96.798037 127.899778 
L 106.830254 127.07723 
L 125.205708 125.716396 
L 127.250962 125.329314 
L 127.772493 125.129725 
L 127.712841 124.960377 
L 127.072843 124.809173 
L 124.512818 124.204358 
L 124.475767 124.13178 
L 124.524437 124.083395 
L 124.53703 123.938239 
L 124.602033 123.811228 
L 125.051905 123.672121 
L 127.553536 123.327376 
L 135.42438 122.631839 
L 141.498299 122.014927 
L 150.865511 120.871827 
L 151.172541 120.654093 
L 151.160544 120.635949 
L 150.753426 120.291204 
L 149.142689 119.771063 
L 146.33598 119.377933 
L 143.364596 118.906177 
L 138.764464 117.908233 
L 135.154011 116.994962 
L 135.211539 116.93448 
L 135.535507 116.801421 
L 136.652574 116.60788 
L 140.213608 116.305472 
L 152.024391 115.670417 
L 158.430445 115.210757 
L 159.89556 114.920446 
L 159.976914 114.763194 
L 159.805799 114.51522 
L 158.697321 114.037416 
L 158.77422 113.989031 
L 160.037538 113.66243 
L 162.497052 113.287445 
L 165.073283 112.767304 
L 165.161688 112.525378 
L 165.078548 112.186681 
L 164.945486 112.023381 
L 164.150712 111.757263 
L 163.349374 111.418566 
L 163.361583 111.394374 
L 163.44701 111.110111 
L 163.147773 110.94681 
L 161.957765 110.723029 
L 156.721456 109.948866 
L 151.882257 109.253328 
L 150.353312 108.950921 
L 147.26138 108.219094 
L 144.195552 107.946927 
L 136.202568 107.505412 
L 108.679956 105.969182 
L 99.248575 105.219211 
L 96.893882 104.83213 
L 96.386575 104.451096 
L 96.486109 104.360374 
L 97.47092 104.14264 
L 100.057665 103.864425 
L 109.876187 102.842288 
L 112.140785 102.370532 
L 113.849981 101.705235 
L 113.835458 101.681043 
L 113.908535 101.584272 
L 113.939996 101.360491 
L 113.6587 101.221383 
L 112.980714 101.088324 
L 104.992293 99.751683 
L 104.893855 99.66096 
L 104.946638 99.606527 
L 105.873121 99.158964 
L 108.572879 98.306174 
L 111.392894 97.937237 
L 117.656463 97.2417 
L 126.890752 96.419151 
L 128.81457 96.026021 
L 129.064699 95.820384 
L 129.061926 95.814336 
L 129.131243 95.663132 
L 129.129114 95.566362 
L 129.097356 95.548218 
L 128.193751 95.203473 
L 126.886406 94.743813 
L 126.667747 94.628899 
L 126.511394 94.441406 
L 126.415776 94.29625 
L 125.999471 94.078517 
L 124.772719 93.516039 
L 123.074332 92.98985 
L 122.632339 92.832598 
L 121.840168 92.536238 
L 121.548739 92.36689 
L 120.608144 92.082627 
L 119.326913 91.683449 
L 118.754382 91.241934 
L 118.71802 90.909286 
L 118.820946 90.631071 
L 118.810763 90.625022 
L 118.344658 90.510108 
L 114.197005 89.645222 
L 114.024567 89.397248 
L 113.750468 89.046455 
L 112.419797 88.53841 
L 112.333043 88.332773 
L 112.499067 88.21181 
L 112.846218 87.927547 
L 113.105084 87.65538 
L 113.855258 87.437647 
L 114.683007 87.183624 
L 116.207586 86.494135 
L 116.205265 86.488087 
L 116.239481 86.300594 
L 116.25414 86.022379 
L 115.867703 85.750213 
L 115.797501 85.56272 
L 115.873072 85.33289 
L 116.06513 85.205879 
L 116.973032 84.685738 
L 116.788132 84.504293 
L 116.667045 84.334945 
L 117.217507 83.8269 
L 118.08861 83.464011 
L 118.236819 83.276519 
L 118.593264 83.137411 
L 120.268661 82.508404 
L 120.392677 82.326959 
L 120.37818 82.314863 
L 119.947428 82.139466 
L 118.9451 81.903588 
L 117.055974 81.522555 
L 115.740773 81.232244 
L 114.663592 80.881451 
L 114.577103 80.730247 
L 114.594865 80.706054 
L 115.055908 80.500417 
L 116.820646 80.179865 
L 123.807894 79.079102 
L 123.803754 79.054909 
L 123.724339 78.952091 
L 122.744905 78.540816 
L 122.823121 78.444046 
L 123.019962 78.304938 
L 123.090887 78.147686 
L 123.062864 78.123494 
L 123.067116 77.911809 
L 123.422016 77.554968 
L 123.374824 77.512631 
L 123.019295 77.367475 
L 121.643028 76.847334 
L 121.618217 76.59936 
L 121.955786 76.254615 
L 122.560548 76.067122 
L 124.624621 75.782859 
L 132.284166 74.917974 
L 132.263389 74.86354 
L 131.957461 74.70024 
L 130.834267 74.488555 
L 127.344107 74.04704 
L 122.785542 73.641814 
L 112.423542 72.686206 
L 96.241808 70.926194 
L 95.772114 70.67822 
L 95.447537 70.393957 
L 95.601148 70.321379 
L 96.60106 70.061308 
L 98.213704 69.79519 
L 105.004322 68.924256 
L 109.253243 68.295248 
L 109.324506 68.168237 
L 109.311392 68.150093 
L 108.907609 67.956552 
L 107.840696 67.726722 
L 104.502971 67.291255 
L 76.540333 64.206698 
L 74.358096 63.541401 
L 74.003456 63.238994 
L 74.1246 63.178512 
L 74.829605 62.99102 
L 77.193493 62.646275 
L 81.22438 62.277338 
L 89.640074 61.478982 
L 93.71838 60.916504 
L 95.025392 60.323785 
L 95.435164 60.196774 
L 96.818255 59.966944 
L 107.402512 58.485147 
L 108.919639 58.031536 
L 110.95943 57.753321 
L 117.222452 57.136409 
L 129.852193 55.999357 
L 137.943127 54.850208 
L 142.188439 53.858311 
L 142.529143 53.568 
L 142.529143 53.568 
" style="fill:none;stroke:#000000;stroke-linecap:square;stroke-width:4;"/>
   </g>
   <g id="patch_3">
    <path d="M 57.6 307.584 
L 57.6 41.472 
" style="fill:none;stroke:#000000;stroke-linecap:square;stroke-linejoin:miter;stroke-width:0.8;"/>
   </g>
   <g id="patch_4">
    <path d="M 414.72 307.584 
L 414.72 41.472 
" style="fill:none;stroke:#000000;stroke-linecap:square;stroke-linejoin:miter;stroke-width:0.8;"/>
   </g>
   <g id="patch_5">
    <path d="M 57.6 307.584 
L 414.72 307.584 
" style="fill:none;stroke:#000000;stroke-linecap:square;stroke-linejoin:miter;stroke-width:0.8;"/>
   </g>
   <g id="patch_6">
    <path d="M 57.6 41.472 
L 414.72 41.472 
" style="fill:none;stroke:#000000;stroke-linecap:square;stroke-linejoin:miter;stroke-width:0.8;"/>
   </g>
  </g>
 </g>
 <defs>
  <clipPath id="p5fe4d297db">
   <rect height="266.112" width="357.12" x="57.6" y="41.472"/>
  </clipPath>
 </defs>
</svg>
