<?xml version="1.0" encoding="utf-8" standalone="no"?>
<!DOCTYPE svg PUBLIC "-//W3C//DTD SVG 1.1//EN"
  "http://www.w3.org/Graphics/SVG/1.1/DTD/svg11.dtd">
<!-- Created with matplotlib (http://matplotlib.org/) -->
<svg height="345.6pt" version="1.1" viewBox="0 0 460.8 345.6" width="460.8pt" xmlns="http://www.w3.org/2000/svg" xmlns:xlink="http://www.w3.org/1999/xlink">
 <defs>
  <style type="text/css">
*{stroke-linecap:butt;stroke-linejoin:round;}
  </style>
 </defs>
 <g id="figure_1">
  <g id="patch_1">
   <path d="M 0 345.6 
L 460.8 345.6 
L 460.8 0 
L 0 0 
z
" style="fill:#ffffff;"/>
  </g>
  <g id="axes_1">
   <g id="patch_2">
    <path d="M 57.6 307.584 
L 414.72 307.584 
L 414.72 41.472 
L 57.6 41.472 
z
" style="fill:#ffffff;"/>
   </g>
   <g id="matplotlib.axis_1">
    <g id="xtick_1">
     <g id="line2d_1">
      <defs>
       <path d="M 0 0 
L 0 3.5 
" id="mf3dec5edac" style="stroke:#000000;stroke-width:0.8;"/>
      </defs>
      <g>
       <use style="stroke:#000000;stroke-width:0.8;" x="62.61568" xlink:href="#mf3dec5edac" y="307.584"/>
      </g>
     </g>
     <g id="text_1">
      <!-- −0.2 -->
      <defs>
       <path d="M 10.59375 35.5 
L 73.1875 35.5 
L 73.1875 27.203125 
L 10.59375 27.203125 
z
" id="DejaVuSans-2212"/>
       <path d="M 31.78125 66.40625 
Q 24.171875 66.40625 20.328125 58.90625 
Q 16.5 51.421875 16.5 36.375 
Q 16.5 21.390625 20.328125 13.890625 
Q 24.171875 6.390625 31.78125 6.390625 
Q 39.453125 6.390625 43.28125 13.890625 
Q 47.125 21.390625 47.125 36.375 
Q 47.125 51.421875 43.28125 58.90625 
Q 39.453125 66.40625 31.78125 66.40625 
z
M 31.78125 74.21875 
Q 44.046875 74.21875 50.515625 64.515625 
Q 56.984375 54.828125 56.984375 36.375 
Q 56.984375 17.96875 50.515625 8.265625 
Q 44.046875 -1.421875 31.78125 -1.421875 
Q 19.53125 -1.421875 13.0625 8.265625 
Q 6.59375 17.96875 6.59375 36.375 
Q 6.59375 54.828125 13.0625 64.515625 
Q 19.53125 74.21875 31.78125 74.21875 
z
" id="DejaVuSans-30"/>
       <path d="M 10.6875 12.40625 
L 21 12.40625 
L 21 0 
L 10.6875 0 
z
" id="DejaVuSans-2e"/>
       <path d="M 19.1875 8.296875 
L 53.609375 8.296875 
L 53.609375 0 
L 7.328125 0 
L 7.328125 8.296875 
Q 12.9375 14.109375 22.625 23.890625 
Q 32.328125 33.6875 34.8125 36.53125 
Q 39.546875 41.84375 41.421875 45.53125 
Q 43.3125 49.21875 43.3125 52.78125 
Q 43.3125 58.59375 39.234375 62.25 
Q 35.15625 65.921875 28.609375 65.921875 
Q 23.96875 65.921875 18.8125 64.3125 
Q 13.671875 62.703125 7.8125 59.421875 
L 7.8125 69.390625 
Q 13.765625 71.78125 18.9375 73 
Q 24.125 74.21875 28.421875 74.21875 
Q 39.75 74.21875 46.484375 68.546875 
Q 53.21875 62.890625 53.21875 53.421875 
Q 53.21875 48.921875 51.53125 44.890625 
Q 49.859375 40.875 45.40625 35.40625 
Q 44.1875 33.984375 37.640625 27.21875 
Q 31.109375 20.453125 19.1875 8.296875 
z
" id="DejaVuSans-32"/>
      </defs>
      <g transform="translate(50.474274 322.182437)scale(0.1 -0.1)">
       <use xlink:href="#DejaVuSans-2212"/>
       <use x="83.789062" xlink:href="#DejaVuSans-30"/>
       <use x="147.412109" xlink:href="#DejaVuSans-2e"/>
       <use x="179.199219" xlink:href="#DejaVuSans-32"/>
      </g>
     </g>
    </g>
    <g id="xtick_2">
     <g id="line2d_2">
      <g>
       <use style="stroke:#000000;stroke-width:0.8;" x="118.594384" xlink:href="#mf3dec5edac" y="307.584"/>
      </g>
     </g>
     <g id="text_2">
      <!-- 0.0 -->
      <g transform="translate(110.642822 322.182437)scale(0.1 -0.1)">
       <use xlink:href="#DejaVuSans-30"/>
       <use x="63.623047" xlink:href="#DejaVuSans-2e"/>
       <use x="95.410156" xlink:href="#DejaVuSans-30"/>
      </g>
     </g>
    </g>
    <g id="xtick_3">
     <g id="line2d_3">
      <g>
       <use style="stroke:#000000;stroke-width:0.8;" x="174.573089" xlink:href="#mf3dec5edac" y="307.584"/>
      </g>
     </g>
     <g id="text_3">
      <!-- 0.2 -->
      <g transform="translate(166.621527 322.182437)scale(0.1 -0.1)">
       <use xlink:href="#DejaVuSans-30"/>
       <use x="63.623047" xlink:href="#DejaVuSans-2e"/>
       <use x="95.410156" xlink:href="#DejaVuSans-32"/>
      </g>
     </g>
    </g>
    <g id="xtick_4">
     <g id="line2d_4">
      <g>
       <use style="stroke:#000000;stroke-width:0.8;" x="230.551794" xlink:href="#mf3dec5edac" y="307.584"/>
      </g>
     </g>
     <g id="text_4">
      <!-- 0.4 -->
      <defs>
       <path d="M 37.796875 64.3125 
L 12.890625 25.390625 
L 37.796875 25.390625 
z
M 35.203125 72.90625 
L 47.609375 72.90625 
L 47.609375 25.390625 
L 58.015625 25.390625 
L 58.015625 17.1875 
L 47.609375 17.1875 
L 47.609375 0 
L 37.796875 0 
L 37.796875 17.1875 
L 4.890625 17.1875 
L 4.890625 26.703125 
z
" id="DejaVuSans-34"/>
      </defs>
      <g transform="translate(222.600231 322.182437)scale(0.1 -0.1)">
       <use xlink:href="#DejaVuSans-30"/>
       <use x="63.623047" xlink:href="#DejaVuSans-2e"/>
       <use x="95.410156" xlink:href="#DejaVuSans-34"/>
      </g>
     </g>
    </g>
    <g id="xtick_5">
     <g id="line2d_5">
      <g>
       <use style="stroke:#000000;stroke-width:0.8;" x="286.530498" xlink:href="#mf3dec5edac" y="307.584"/>
      </g>
     </g>
     <g id="text_5">
      <!-- 0.6 -->
      <defs>
       <path d="M 33.015625 40.375 
Q 26.375 40.375 22.484375 35.828125 
Q 18.609375 31.296875 18.609375 23.390625 
Q 18.609375 15.53125 22.484375 10.953125 
Q 26.375 6.390625 33.015625 6.390625 
Q 39.65625 6.390625 43.53125 10.953125 
Q 47.40625 15.53125 47.40625 23.390625 
Q 47.40625 31.296875 43.53125 35.828125 
Q 39.65625 40.375 33.015625 40.375 
z
M 52.59375 71.296875 
L 52.59375 62.3125 
Q 48.875 64.0625 45.09375 64.984375 
Q 41.3125 65.921875 37.59375 65.921875 
Q 27.828125 65.921875 22.671875 59.328125 
Q 17.53125 52.734375 16.796875 39.40625 
Q 19.671875 43.65625 24.015625 45.921875 
Q 28.375 48.1875 33.59375 48.1875 
Q 44.578125 48.1875 50.953125 41.515625 
Q 57.328125 34.859375 57.328125 23.390625 
Q 57.328125 12.15625 50.6875 5.359375 
Q 44.046875 -1.421875 33.015625 -1.421875 
Q 20.359375 -1.421875 13.671875 8.265625 
Q 6.984375 17.96875 6.984375 36.375 
Q 6.984375 53.65625 15.1875 63.9375 
Q 23.390625 74.21875 37.203125 74.21875 
Q 40.921875 74.21875 44.703125 73.484375 
Q 48.484375 72.75 52.59375 71.296875 
z
" id="DejaVuSans-36"/>
      </defs>
      <g transform="translate(278.578936 322.182437)scale(0.1 -0.1)">
       <use xlink:href="#DejaVuSans-30"/>
       <use x="63.623047" xlink:href="#DejaVuSans-2e"/>
       <use x="95.410156" xlink:href="#DejaVuSans-36"/>
      </g>
     </g>
    </g>
    <g id="xtick_6">
     <g id="line2d_6">
      <g>
       <use style="stroke:#000000;stroke-width:0.8;" x="342.509203" xlink:href="#mf3dec5edac" y="307.584"/>
      </g>
     </g>
     <g id="text_6">
      <!-- 0.8 -->
      <defs>
       <path d="M 31.78125 34.625 
Q 24.75 34.625 20.71875 30.859375 
Q 16.703125 27.09375 16.703125 20.515625 
Q 16.703125 13.921875 20.71875 10.15625 
Q 24.75 6.390625 31.78125 6.390625 
Q 38.8125 6.390625 42.859375 10.171875 
Q 46.921875 13.96875 46.921875 20.515625 
Q 46.921875 27.09375 42.890625 30.859375 
Q 38.875 34.625 31.78125 34.625 
z
M 21.921875 38.8125 
Q 15.578125 40.375 12.03125 44.71875 
Q 8.5 49.078125 8.5 55.328125 
Q 8.5 64.0625 14.71875 69.140625 
Q 20.953125 74.21875 31.78125 74.21875 
Q 42.671875 74.21875 48.875 69.140625 
Q 55.078125 64.0625 55.078125 55.328125 
Q 55.078125 49.078125 51.53125 44.71875 
Q 48 40.375 41.703125 38.8125 
Q 48.828125 37.15625 52.796875 32.3125 
Q 56.78125 27.484375 56.78125 20.515625 
Q 56.78125 9.90625 50.3125 4.234375 
Q 43.84375 -1.421875 31.78125 -1.421875 
Q 19.734375 -1.421875 13.25 4.234375 
Q 6.78125 9.90625 6.78125 20.515625 
Q 6.78125 27.484375 10.78125 32.3125 
Q 14.796875 37.15625 21.921875 38.8125 
z
M 18.3125 54.390625 
Q 18.3125 48.734375 21.84375 45.5625 
Q 25.390625 42.390625 31.78125 42.390625 
Q 38.140625 42.390625 41.71875 45.5625 
Q 45.3125 48.734375 45.3125 54.390625 
Q 45.3125 60.0625 41.71875 63.234375 
Q 38.140625 66.40625 31.78125 66.40625 
Q 25.390625 66.40625 21.84375 63.234375 
Q 18.3125 60.0625 18.3125 54.390625 
z
" id="DejaVuSans-38"/>
      </defs>
      <g transform="translate(334.55764 322.182437)scale(0.1 -0.1)">
       <use xlink:href="#DejaVuSans-30"/>
       <use x="63.623047" xlink:href="#DejaVuSans-2e"/>
       <use x="95.410156" xlink:href="#DejaVuSans-38"/>
      </g>
     </g>
    </g>
    <g id="xtick_7">
     <g id="line2d_7">
      <g>
       <use style="stroke:#000000;stroke-width:0.8;" x="398.487907" xlink:href="#mf3dec5edac" y="307.584"/>
      </g>
     </g>
     <g id="text_7">
      <!-- 1.0 -->
      <defs>
       <path d="M 12.40625 8.296875 
L 28.515625 8.296875 
L 28.515625 63.921875 
L 10.984375 60.40625 
L 10.984375 69.390625 
L 28.421875 72.90625 
L 38.28125 72.90625 
L 38.28125 8.296875 
L 54.390625 8.296875 
L 54.390625 0 
L 12.40625 0 
z
" id="DejaVuSans-31"/>
      </defs>
      <g transform="translate(390.536345 322.182437)scale(0.1 -0.1)">
       <use xlink:href="#DejaVuSans-31"/>
       <use x="63.623047" xlink:href="#DejaVuSans-2e"/>
       <use x="95.410156" xlink:href="#DejaVuSans-30"/>
      </g>
     </g>
    </g>
   </g>
   <g id="matplotlib.axis_2">
    <g id="ytick_1">
     <g id="line2d_8">
      <defs>
       <path d="M 0 0 
L -3.5 0 
" id="m5da3759c24" style="stroke:#000000;stroke-width:0.8;"/>
      </defs>
      <g>
       <use style="stroke:#000000;stroke-width:0.8;" x="57.6" xlink:href="#m5da3759c24" y="295.488"/>
      </g>
     </g>
     <g id="text_8">
      <!-- −20000 -->
      <g transform="translate(10.407812 299.287219)scale(0.1 -0.1)">
       <use xlink:href="#DejaVuSans-2212"/>
       <use x="83.789062" xlink:href="#DejaVuSans-32"/>
       <use x="147.412109" xlink:href="#DejaVuSans-30"/>
       <use x="211.035156" xlink:href="#DejaVuSans-30"/>
       <use x="274.658203" xlink:href="#DejaVuSans-30"/>
       <use x="338.28125" xlink:href="#DejaVuSans-30"/>
      </g>
     </g>
    </g>
    <g id="ytick_2">
     <g id="line2d_9">
      <g>
       <use style="stroke:#000000;stroke-width:0.8;" x="57.6" xlink:href="#m5da3759c24" y="265.247244"/>
      </g>
     </g>
     <g id="text_9">
      <!-- −15000 -->
      <defs>
       <path d="M 10.796875 72.90625 
L 49.515625 72.90625 
L 49.515625 64.59375 
L 19.828125 64.59375 
L 19.828125 46.734375 
Q 21.96875 47.46875 24.109375 47.828125 
Q 26.265625 48.1875 28.421875 48.1875 
Q 40.625 48.1875 47.75 41.5 
Q 54.890625 34.8125 54.890625 23.390625 
Q 54.890625 11.625 47.5625 5.09375 
Q 40.234375 -1.421875 26.90625 -1.421875 
Q 22.3125 -1.421875 17.546875 -0.640625 
Q 12.796875 0.140625 7.71875 1.703125 
L 7.71875 11.625 
Q 12.109375 9.234375 16.796875 8.0625 
Q 21.484375 6.890625 26.703125 6.890625 
Q 35.15625 6.890625 40.078125 11.328125 
Q 45.015625 15.765625 45.015625 23.390625 
Q 45.015625 31 40.078125 35.4375 
Q 35.15625 39.890625 26.703125 39.890625 
Q 22.75 39.890625 18.8125 39.015625 
Q 14.890625 38.140625 10.796875 36.28125 
z
" id="DejaVuSans-35"/>
      </defs>
      <g transform="translate(10.407812 269.046463)scale(0.1 -0.1)">
       <use xlink:href="#DejaVuSans-2212"/>
       <use x="83.789062" xlink:href="#DejaVuSans-31"/>
       <use x="147.412109" xlink:href="#DejaVuSans-35"/>
       <use x="211.035156" xlink:href="#DejaVuSans-30"/>
       <use x="274.658203" xlink:href="#DejaVuSans-30"/>
       <use x="338.28125" xlink:href="#DejaVuSans-30"/>
      </g>
     </g>
    </g>
    <g id="ytick_3">
     <g id="line2d_10">
      <g>
       <use style="stroke:#000000;stroke-width:0.8;" x="57.6" xlink:href="#m5da3759c24" y="235.006488"/>
      </g>
     </g>
     <g id="text_10">
      <!-- −10000 -->
      <g transform="translate(10.407812 238.805707)scale(0.1 -0.1)">
       <use xlink:href="#DejaVuSans-2212"/>
       <use x="83.789062" xlink:href="#DejaVuSans-31"/>
       <use x="147.412109" xlink:href="#DejaVuSans-30"/>
       <use x="211.035156" xlink:href="#DejaVuSans-30"/>
       <use x="274.658203" xlink:href="#DejaVuSans-30"/>
       <use x="338.28125" xlink:href="#DejaVuSans-30"/>
      </g>
     </g>
    </g>
    <g id="ytick_4">
     <g id="line2d_11">
      <g>
       <use style="stroke:#000000;stroke-width:0.8;" x="57.6" xlink:href="#m5da3759c24" y="204.765732"/>
      </g>
     </g>
     <g id="text_11">
      <!-- −5000 -->
      <g transform="translate(16.770313 208.564951)scale(0.1 -0.1)">
       <use xlink:href="#DejaVuSans-2212"/>
       <use x="83.789062" xlink:href="#DejaVuSans-35"/>
       <use x="147.412109" xlink:href="#DejaVuSans-30"/>
       <use x="211.035156" xlink:href="#DejaVuSans-30"/>
       <use x="274.658203" xlink:href="#DejaVuSans-30"/>
      </g>
     </g>
    </g>
    <g id="ytick_5">
     <g id="line2d_12">
      <g>
       <use style="stroke:#000000;stroke-width:0.8;" x="57.6" xlink:href="#m5da3759c24" y="174.524976"/>
      </g>
     </g>
     <g id="text_12">
      <!-- 0 -->
      <g transform="translate(44.2375 178.324195)scale(0.1 -0.1)">
       <use xlink:href="#DejaVuSans-30"/>
      </g>
     </g>
    </g>
    <g id="ytick_6">
     <g id="line2d_13">
      <g>
       <use style="stroke:#000000;stroke-width:0.8;" x="57.6" xlink:href="#m5da3759c24" y="144.28422"/>
      </g>
     </g>
     <g id="text_13">
      <!-- 5000 -->
      <g transform="translate(25.15 148.083439)scale(0.1 -0.1)">
       <use xlink:href="#DejaVuSans-35"/>
       <use x="63.623047" xlink:href="#DejaVuSans-30"/>
       <use x="127.246094" xlink:href="#DejaVuSans-30"/>
       <use x="190.869141" xlink:href="#DejaVuSans-30"/>
      </g>
     </g>
    </g>
    <g id="ytick_7">
     <g id="line2d_14">
      <g>
       <use style="stroke:#000000;stroke-width:0.8;" x="57.6" xlink:href="#m5da3759c24" y="114.043464"/>
      </g>
     </g>
     <g id="text_14">
      <!-- 10000 -->
      <g transform="translate(18.7875 117.842683)scale(0.1 -0.1)">
       <use xlink:href="#DejaVuSans-31"/>
       <use x="63.623047" xlink:href="#DejaVuSans-30"/>
       <use x="127.246094" xlink:href="#DejaVuSans-30"/>
       <use x="190.869141" xlink:href="#DejaVuSans-30"/>
       <use x="254.492188" xlink:href="#DejaVuSans-30"/>
      </g>
     </g>
    </g>
    <g id="ytick_8">
     <g id="line2d_15">
      <g>
       <use style="stroke:#000000;stroke-width:0.8;" x="57.6" xlink:href="#m5da3759c24" y="83.802708"/>
      </g>
     </g>
     <g id="text_15">
      <!-- 15000 -->
      <g transform="translate(18.7875 87.601927)scale(0.1 -0.1)">
       <use xlink:href="#DejaVuSans-31"/>
       <use x="63.623047" xlink:href="#DejaVuSans-35"/>
       <use x="127.246094" xlink:href="#DejaVuSans-30"/>
       <use x="190.869141" xlink:href="#DejaVuSans-30"/>
       <use x="254.492188" xlink:href="#DejaVuSans-30"/>
      </g>
     </g>
    </g>
    <g id="ytick_9">
     <g id="line2d_16">
      <g>
       <use style="stroke:#000000;stroke-width:0.8;" x="57.6" xlink:href="#m5da3759c24" y="53.561952"/>
      </g>
     </g>
     <g id="text_16">
      <!-- 20000 -->
      <g transform="translate(18.7875 57.361171)scale(0.1 -0.1)">
       <use xlink:href="#DejaVuSans-32"/>
       <use x="63.623047" xlink:href="#DejaVuSans-30"/>
       <use x="127.246094" xlink:href="#DejaVuSans-30"/>
       <use x="190.869141" xlink:href="#DejaVuSans-30"/>
       <use x="254.492188" xlink:href="#DejaVuSans-30"/>
      </g>
     </g>
    </g>
   </g>
   <g id="line2d_17">
    <path clip-path="url(#pea11cf8193)" d="M 140.812987 295.488 
L 140.815649 295.360989 
L 140.618538 295.294459 
L 140.177882 295.113015 
L 140.18168 295.09487 
L 140.015653 295.022292 
L 138.974682 294.713837 
L 138.879426 294.556585 
L 137.569279 294.363044 
L 130.516514 293.552592 
L 128.703932 293.213895 
L 116.773427 292.058698 
L 115.422684 291.786531 
L 110.496482 290.988176 
L 107.298881 290.51642 
L 105.68163 290.262397 
L 104.883988 290.002327 
L 101.676222 289.699919 
L 97.190182 289.258404 
L 96.01306 288.986237 
L 96.01702 288.6173 
L 96.30745 288.393519 
L 96.38801 288.278604 
L 96.31705 288.236267 
L 95.757077 288.048774 
L 94.389362 287.891522 
L 90.858455 287.673789 
L 82.163228 287.093166 
L 76.219295 286.409725 
L 74.281442 285.732332 
L 73.834429 285.484358 
L 73.975425 285.423876 
L 74.8867 285.194047 
L 75.563212 284.903735 
L 76.088027 284.740435 
L 79.082561 284.141668 
L 92.492892 282.732449 
L 95.492981 282.30303 
L 105.429855 281.341374 
L 106.155963 281.099448 
L 106.043062 281.057111 
L 104.073071 280.385766 
L 103.873679 280.30714 
L 102.30463 280.131744 
L 100.528822 279.865625 
L 98.961279 279.460399 
L 98.4583 279.200329 
L 96.902517 278.758814 
L 96.79416 278.692284 
L 96.870226 278.643899 
L 97.125534 278.468503 
L 97.661715 278.287058 
L 99.330712 277.906024 
L 103.291315 277.488702 
L 109.042594 277.083476 
L 114.352841 276.660105 
L 124.132044 275.637968 
L 135.264811 274.464626 
L 135.741175 274.325519 
L 135.972837 274.252941 
L 135.806553 274.198508 
L 134.529405 274.017063 
L 131.682527 273.769089 
L 123.21269 273.115889 
L 121.018519 272.765096 
L 121.126785 272.680422 
L 121.400422 272.5897 
L 124.352113 272.257051 
L 127.360624 271.888114 
L 128.125266 271.755055 
L 129.431432 271.464743 
L 129.432751 271.325636 
L 129.422449 271.319588 
L 129.107244 271.216769 
L 127.099827 270.708725 
L 126.180819 270.382124 
L 126.147363 270.249065 
L 125.969897 270.091813 
L 124.76882 269.898272 
L 120.95222 269.486998 
L 114.941365 268.864038 
L 114.080591 268.543486 
L 114.09044 268.513246 
L 114.495128 268.331801 
L 118.143575 267.841901 
L 127.385291 266.922582 
L 128.600371 266.565741 
L 128.542852 266.511308 
L 128.137594 266.390345 
L 123.723577 265.616181 
L 123.91762 265.543603 
L 124.949172 265.253292 
L 124.984613 265.198859 
L 124.908149 265.150474 
L 124.763934 265.065799 
L 124.836496 265.011366 
L 125.16531 264.823873 
L 125.071388 264.739199 
L 124.747975 264.642429 
L 123.588805 264.44284 
L 121.909369 264.061806 
L 121.062438 263.717062 
L 120.933957 263.602147 
L 116.219682 262.507431 
L 116.330782 262.428806 
L 116.422561 262.368324 
L 116.346727 262.313891 
L 115.407444 262.096157 
L 114.281818 261.721172 
L 112.549308 261.17079 
L 112.55334 261.158694 
L 112.563658 261.001442 
L 112.726863 260.874431 
L 112.827582 260.819997 
L 112.764034 260.747419 
L 112.594001 260.559927 
L 112.73442 260.463156 
L 113.772056 260.28776 
L 114.734267 260.039786 
L 115.349308 259.622463 
L 115.352005 259.513597 
L 115.296914 259.495452 
L 114.996852 259.283767 
L 115.001469 259.271671 
L 115.137597 259.205141 
L 117.137494 258.860396 
L 120.100997 258.430978 
L 120.996555 258.285822 
L 122.392318 257.941077 
L 123.532131 257.614477 
L 125.263957 257.287877 
L 125.241798 257.263684 
L 124.907066 257.106432 
L 124.709757 257.009662 
L 124.771235 256.961277 
L 124.784826 256.943132 
L 124.688914 256.888699 
L 124.418554 256.695158 
L 124.299492 256.62258 
L 123.977188 256.404847 
L 123.652627 256.187113 
L 123.168636 256.090343 
L 121.975075 255.836321 
L 122.140357 255.775839 
L 123.864037 255.503672 
L 125.338692 255.225457 
L 125.604515 255.062157 
L 125.776847 254.995628 
L 125.661198 254.941194 
L 125.444504 254.771846 
L 125.525206 254.723461 
L 125.898933 254.46339 
L 127.259871 254.287994 
L 131.068851 253.834383 
L 131.606954 253.513831 
L 131.501962 253.41706 
L 129.703836 252.866678 
L 128.553485 252.667089 
L 125.329984 252.310249 
L 121.273786 252.056226 
L 114.553983 251.505844 
L 114.003179 251.276015 
L 114.023025 251.245774 
L 114.010746 251.185292 
L 114.08796 251.155052 
L 114.617506 250.955463 
L 114.393886 250.882885 
L 111.129601 250.507899 
L 102.260017 249.437377 
L 102.114972 249.346654 
L 102.230654 249.298269 
L 103.680104 248.995862 
L 109.176273 248.366854 
L 113.841959 247.864857 
L 114.122099 247.743894 
L 114.057923 247.707605 
L 113.489863 247.586642 
L 109.579628 247.054405 
L 107.532357 246.758046 
L 105.749356 246.340723 
L 105.799512 246.310483 
L 106.25649 246.207664 
L 106.608432 246.032268 
L 106.602098 246.020171 
L 105.651333 245.72986 
L 103.602211 245.487934 
L 97.633446 244.677482 
L 96.649816 244.393219 
L 96.371693 244.242015 
L 96.502893 244.169437 
L 96.989758 243.975896 
L 98.259948 243.8005 
L 104.988688 243.189637 
L 114.155288 242.62111 
L 143.49501 240.927628 
L 145.794444 240.582883 
L 145.955419 240.347005 
L 145.832783 240.262331 
L 145.758199 240.147416 
L 145.799682 240.117176 
L 145.928695 240.032502 
L 145.824863 239.990165 
L 145.518647 239.845009 
L 145.567363 239.826864 
L 146.466321 239.705901 
L 151.242554 239.173664 
L 151.316016 239.08899 
L 151.26133 239.040605 
L 151.111153 238.92569 
L 151.185661 238.889401 
L 152.151518 238.768438 
L 157.383836 238.157575 
L 158.092693 237.903552 
L 158.079482 237.843071 
L 158.027623 237.81283 
L 157.195324 237.492278 
L 157.458722 237.413652 
L 158.739554 237.244304 
L 162.72164 236.548767 
L 162.818915 236.470141 
L 162.725658 236.427803 
L 162.065161 236.300792 
L 159.894988 236.070963 
L 154.989915 235.526629 
L 154.158067 235.187932 
L 154.20157 235.115355 
L 154.46348 235.012536 
L 160.10745 234.153699 
L 159.909336 234.032736 
L 159.727128 233.972254 
L 158.063213 233.760569 
L 154.656479 233.470258 
L 148.45654 233.155754 
L 141.282438 232.665853 
L 138.835405 232.339253 
L 137.484868 232.036846 
L 137.503891 232.018701 
L 137.959642 231.897738 
L 139.320474 231.716294 
L 140.926657 231.365501 
L 141.203828 231.280827 
L 141.536564 231.099382 
L 141.534633 231.087286 
L 141.456084 231.057045 
L 140.411804 230.700204 
L 140.074704 230.591338 
L 139.649117 230.464326 
L 139.766274 230.397797 
L 140.255557 230.198208 
L 141.805007 229.944185 
L 144.280116 229.66597 
L 145.395996 229.442189 
L 146.919222 228.819229 
L 147.917803 228.504725 
L 147.887137 228.474485 
L 147.506925 228.35957 
L 145.374537 228.03297 
L 142.66504 227.621695 
L 141.848006 227.41001 
L 141.256033 227.24671 
L 138.826898 226.932206 
L 129.718408 226.194332 
L 121.540763 225.680239 
L 120.372426 225.48065 
L 120.359634 225.444361 
L 120.450837 225.41412 
L 123.458843 224.603668 
L 131.311029 223.932323 
L 131.27261 223.902082 
L 130.213232 223.617819 
L 122.2067 222.99486 
L 112.151379 222.323515 
L 99.592864 221.3921 
L 90.72864 220.896151 
L 87.260413 220.563503 
L 84.763209 219.904254 
L 80.938344 219.341776 
L 80.144096 219.142187 
L 78.133172 218.730913 
L 78.081157 218.603902 
L 78.155102 218.579709 
L 79.798721 218.313591 
L 90.001852 217.370079 
L 95.489659 216.862034 
L 95.875495 216.741071 
L 96.331769 216.493097 
L 96.301177 216.35399 
L 95.900337 216.202786 
L 95.548031 216.063678 
L 95.609261 216.033438 
L 96.833727 215.743126 
L 97.364381 215.597971 
L 97.321436 215.555634 
L 97.569835 215.325804 
L 98.148251 215.192745 
L 100.114941 214.854048 
L 100.718711 214.394389 
L 100.696345 214.370196 
L 100.413573 214.091981 
L 99.976491 213.971018 
L 100.079146 213.904488 
L 100.921016 213.753285 
L 106.959187 213.045651 
L 111.084175 212.670666 
L 111.901095 212.45898 
L 112.084179 212.180765 
L 111.960285 212.144476 
L 110.499998 211.87231 
L 107.752754 211.436843 
L 107.423176 211.321928 
L 107.52007 211.267494 
L 108.170001 211.055809 
L 109.966271 210.886461 
L 121.333412 209.967142 
L 121.938792 209.821986 
L 121.865854 209.779649 
L 121.265481 209.682879 
L 111.80262 208.781704 
L 108.293205 208.382526 
L 106.23452 207.868434 
L 106.252224 207.850289 
L 106.695319 207.74747 
L 107.363529 207.572074 
L 107.333294 207.505544 
L 107.126593 207.396678 
L 106.981816 207.233378 
L 106.956372 207.203137 
L 107.049665 207.148704 
L 107.45555 206.894681 
L 107.434151 206.870489 
L 107.368355 206.719285 
L 106.669912 206.332203 
L 106.773423 206.253577 
L 108.617386 205.890688 
L 111.881471 205.533847 
L 111.745338 205.461269 
L 111.335278 205.388692 
L 104.751558 204.547998 
L 104.753034 204.523806 
L 104.823301 204.493565 
L 104.835414 204.481469 
L 104.749393 204.402843 
L 104.473099 204.203254 
L 104.511204 204.173013 
L 104.646422 204.015761 
L 105.581334 203.707305 
L 105.620996 203.65892 
L 105.515064 203.622631 
L 103.859344 203.253694 
L 99.348833 202.709361 
L 97.393382 202.491627 
L 92.105619 202.140834 
L 74.747102 200.743711 
L 73.904973 200.501785 
L 73.949827 200.465496 
L 74.180123 200.284052 
L 74.152257 200.259859 
L 73.956188 200.108656 
L 73.926197 200.078415 
L 74.000234 200.017933 
L 74.489711 199.884874 
L 75.786126 199.540129 
L 83.82321 198.348644 
L 83.749727 198.29421 
L 82.992388 198.076477 
L 80.214586 197.683347 
L 80.394084 197.580528 
L 81.319524 197.332554 
L 81.273955 197.24788 
L 81.352813 197.211591 
L 84.215593 196.909184 
L 99.838928 195.796324 
L 100.699619 195.530205 
L 100.808317 195.493916 
L 106.471945 194.743945 
L 120.008403 193.612941 
L 130.519346 192.494033 
L 131.640351 192.155337 
L 131.47229 192.040422 
L 130.356694 191.792448 
L 126.864329 191.242066 
L 123.591347 191.054573 
L 117.672756 190.685636 
L 113.080774 190.44371 
L 104.139658 189.971954 
L 102.778561 189.742124 
L 102.785453 189.730028 
L 102.912941 189.675595 
L 105.364466 189.252224 
L 109.956057 188.732083 
L 111.145841 188.538542 
L 112.038736 188.308713 
L 112.121359 188.254279 
L 112.010894 188.205894 
L 109.827792 187.588983 
L 106.854078 187.111179 
L 105.715888 186.839012 
L 105.121525 186.68176 
L 105.160985 186.627326 
L 105.573583 186.506363 
L 108.033616 186.040656 
L 108.083037 185.986222 
L 108.010905 185.943885 
L 106.603047 185.786633 
L 100.296075 185.066903 
L 99.058994 184.728207 
L 98.047961 184.437896 
L 95.653316 184.075007 
L 89.942908 183.585106 
L 87.363038 183.294795 
L 87.420267 183.222217 
L 87.436147 183.216169 
L 88.904548 182.91981 
L 95.054583 182.327091 
L 116.703084 180.984401 
L 120.856385 180.524742 
L 125.466778 180.276768 
L 141.745304 179.659856 
L 198.606626 177.857507 
L 258.860077 176.545058 
L 301.140868 175.807184 
L 360.70597 174.978587 
L 398.487273 174.531024 
L 393.041233 174.464494 
L 306.16374 173.33349 
L 247.499644 172.28716 
L 189.552169 170.980759 
L 162.876317 170.176355 
L 126.62149 168.833666 
L 119.780122 168.452632 
L 116.745113 168.083695 
L 113.140172 167.690565 
L 103.107867 167.18252 
L 93.695929 166.644235 
L 88.453264 166.075709 
L 87.361304 165.773301 
L 87.464704 165.737012 
L 89.347219 165.525327 
L 97.620244 164.702778 
L 100.832917 163.910471 
L 104.635138 163.432667 
L 108.084227 163.075826 
L 108.066497 163.039537 
L 107.927336 162.991152 
L 105.12072 162.380288 
L 105.191976 162.356096 
L 109.168042 161.569836 
L 111.027087 161.176706 
L 111.359715 160.971069 
L 112.120822 160.807769 
L 111.968503 160.735191 
L 110.738032 160.450928 
L 107.860437 160.033606 
L 103.295216 159.483224 
L 102.777837 159.307827 
L 102.957264 159.253394 
L 104.442016 159.065901 
L 110.197851 158.733253 
L 118.620753 158.291738 
L 123.050366 158.031668 
L 128.004611 157.692971 
L 130.660601 157.221215 
L 131.641041 156.906711 
L 131.459866 156.822037 
L 129.720424 156.459148 
L 117.158395 155.195085 
L 104.160254 154.076177 
L 100.336794 153.404832 
L 98.656139 153.120569 
L 95.506705 152.866546 
L 81.522543 151.87465 
L 81.266366 151.789976 
L 81.312139 151.735542 
L 81.303229 151.705301 
L 81.230706 151.675061 
L 80.502527 151.505712 
L 80.213829 151.372653 
L 80.263005 151.354509 
L 80.649558 151.275883 
L 83.721715 150.779934 
L 83.82393 150.713405 
L 83.737877 150.658971 
L 83.156702 150.580345 
L 81.449714 150.283986 
L 75.264884 149.455389 
L 73.946529 149.007826 
L 73.923343 148.977585 
L 74.007478 148.917104 
L 74.166936 148.729611 
L 74.069918 148.693322 
L 73.902798 148.548167 
L 73.950661 148.511878 
L 74.62453 148.342529 
L 76.314196 148.130844 
L 85.890615 147.441355 
L 98.934523 146.419217 
L 103.736362 145.82045 
L 105.198283 145.56038 
L 105.618386 145.403128 
L 105.59569 145.366839 
L 105.445546 145.300309 
L 104.727229 145.064431 
L 104.48871 144.979757 
L 104.516734 144.913228 
L 104.606739 144.701542 
L 104.834734 144.586627 
L 104.762758 144.54429 
L 104.742815 144.520098 
L 104.853975 144.471713 
L 106.1559 144.290268 
L 111.878413 143.528201 
L 111.657207 143.455623 
L 109.765803 143.274179 
L 107.421516 142.995964 
L 106.682832 142.754038 
L 106.716292 142.693556 
L 106.753126 142.68146 
L 107.287874 142.421389 
L 107.437064 142.143174 
L 107.426028 142.137126 
L 107.011694 141.743996 
L 107.122378 141.66537 
L 107.358533 141.489974 
L 107.317405 141.47183 
L 106.624261 141.302481 
L 106.227472 141.181518 
L 106.294207 141.139181 
L 106.687011 141.036363 
L 110.422228 140.383162 
L 118.25423 139.669481 
L 121.915977 139.258206 
L 121.929967 139.221917 
L 121.825606 139.185628 
L 120.652056 138.998136 
L 109.779414 138.163491 
L 107.631976 137.90342 
L 107.420637 137.734072 
L 107.581826 137.673591 
L 108.249273 137.546579 
L 111.933665 136.92362 
L 112.117187 136.844994 
L 112.077989 136.772416 
L 112.061823 136.717983 
L 112.022607 136.69379 
L 111.869354 136.584923 
L 111.905092 136.548635 
L 111.813023 136.488153 
L 110.339222 136.282516 
L 106.961095 136.016397 
L 103.545011 135.689797 
L 102.921965 135.556738 
L 99.979208 135.09103 
L 100.027239 135.054741 
L 100.685887 134.703948 
L 100.70775 134.631371 
L 100.652503 134.589034 
L 100.243472 134.298722 
L 99.862171 134.153567 
L 97.306251 133.591089 
L 97.32074 133.560848 
L 97.270327 133.409644 
L 95.55289 132.986273 
L 95.652644 132.919744 
L 96.373915 132.599192 
L 96.328521 132.562903 
L 95.354144 132.14558 
L 94.612483 132.054858 
L 89.506325 131.65568 
L 84.076425 131.147635 
L 81.344172 130.869421 
L 78.20531 130.494435 
L 78.010407 130.397665 
L 78.101087 130.355328 
L 78.826105 130.11945 
L 80.921682 129.72632 
L 81.575459 129.581164 
L 84.661162 129.16989 
L 86.386895 128.84329 
L 87.805756 128.419919 
L 92.47473 128.063078 
L 106.416471 127.204241 
L 113.674424 126.641763 
L 131.00949 125.335362 
L 131.256343 125.214399 
L 131.234323 125.17811 
L 131.308959 125.123677 
L 131.213024 125.063195 
L 130.564606 124.911992 
L 126.735311 124.664017 
L 122.498672 124.343465 
L 122.123184 124.168069 
L 121.680639 124.028962 
L 120.353612 123.599543 
L 120.449072 123.551158 
L 121.689611 123.369713 
L 128.161801 122.946342 
L 136.195505 122.414105 
L 141.650365 121.718568 
L 143.700349 121.289149 
L 147.919104 120.557323 
L 147.875578 120.521034 
L 145.273426 119.577522 
L 144.749324 119.450511 
L 139.878762 118.742877 
L 139.701604 118.640059 
L 139.653139 118.585625 
L 139.735668 118.549337 
L 141.541298 117.968714 
L 141.524158 117.95057 
L 140.686312 117.630018 
L 139.159968 117.321562 
L 137.488239 117.025202 
L 137.494775 117.007058 
L 137.810076 116.861902 
L 140.151826 116.517158 
L 142.958503 116.244991 
L 147.545577 115.960728 
L 154.274194 115.615983 
L 158.242494 115.283335 
L 159.915247 115.017216 
L 160.038082 114.932542 
L 160.10962 114.90835 
L 159.980977 114.84182 
L 158.030632 114.605942 
L 155.281171 114.206764 
L 154.157374 113.874116 
L 154.23455 113.759201 
L 154.660797 113.638238 
L 158.994239 113.063663 
L 162.506444 112.688678 
L 162.815721 112.579811 
L 162.761437 112.531426 
L 161.406417 112.19273 
L 157.191317 111.56977 
L 157.246902 111.539529 
L 157.567688 111.400422 
L 158.096125 111.17664 
L 157.997981 111.055677 
L 157.531356 110.94681 
L 156.437644 110.789559 
L 151.139763 110.160551 
L 151.10756 110.118214 
L 151.194447 110.06378 
L 151.31158 109.960962 
L 151.245934 109.894432 
L 150.866493 109.791614 
L 149.490796 109.652506 
L 145.51546 109.210991 
L 145.565435 109.15051 
L 145.711639 109.096076 
L 145.930751 109.01745 
L 145.819112 108.956969 
L 145.763099 108.85415 
L 145.801086 108.823909 
L 145.949467 108.581983 
L 145.929819 108.563839 
L 145.704133 108.448924 
L 143.492916 108.13442 
L 140.268831 107.90459 
L 125.319606 107.130427 
L 116.69748 106.59819 
L 101.137471 105.55186 
L 96.765157 105.019622 
L 96.370966 104.813985 
L 96.421337 104.789793 
L 96.722175 104.614396 
L 96.700799 104.578107 
L 96.701293 104.566011 
L 96.781692 104.529722 
L 101.785045 103.755559 
L 106.010958 103.265658 
L 106.605321 103.035829 
L 106.519559 102.957203 
L 106.411318 102.896721 
L 105.749591 102.715277 
L 105.93588 102.630603 
L 106.389885 102.515688 
L 109.648453 102.001595 
L 112.637723 101.650802 
L 114.120408 101.306057 
L 113.92717 101.215335 
L 112.623065 101.07018 
L 108.623785 100.646809 
L 104.090984 100.132716 
L 102.117792 99.709346 
L 102.302368 99.612575 
L 104.024313 99.364601 
L 114.625462 98.100537 
L 114.381853 98.003767 
L 114.011484 97.779985 
L 114.173271 97.689263 
L 114.956003 97.47153 
L 117.308271 97.265892 
L 126.722156 96.630837 
L 129.494701 96.243755 
L 131.36728 95.741758 
L 131.609137 95.548218 
L 131.563587 95.524025 
L 131.387523 95.34258 
L 130.749966 95.124847 
L 129.108494 94.937354 
L 125.779307 94.568417 
L 125.440925 94.278106 
L 125.624571 94.145046 
L 125.775845 94.06642 
L 125.655934 94.011987 
L 125.327261 93.830543 
L 124.819263 93.685387 
L 121.971366 93.225727 
L 122.068179 93.171294 
L 122.94399 93.007994 
L 123.771089 92.784212 
L 123.855213 92.705586 
L 124.419568 92.36689 
L 124.528291 92.276168 
L 124.784174 92.112868 
L 124.725812 92.076579 
L 124.720669 92.016097 
L 124.794957 91.985856 
L 125.264795 91.774171 
L 125.227599 91.749979 
L 124.70078 91.653208 
L 122.490665 91.193549 
L 122.497085 91.1875 
L 122.477963 91.15726 
L 122.408559 91.127019 
L 121.406503 90.854852 
L 119.545451 90.498011 
L 114.997798 89.766185 
L 115.028824 89.729896 
L 115.157061 89.614981 
L 115.356421 89.451681 
L 115.349211 89.439585 
L 115.108059 89.306525 
L 114.749103 89.028311 
L 114.100558 88.822673 
L 112.597416 88.490025 
L 112.663221 88.369062 
L 112.827105 88.236003 
L 112.713719 88.175521 
L 112.548417 87.915451 
L 112.867051 87.697717 
L 115.095009 87.092902 
L 115.186497 87.026372 
L 116.429057 86.681628 
L 116.284483 86.60905 
L 116.224082 86.548569 
L 116.303953 86.506231 
L 117.008968 86.336883 
L 118.578539 85.967946 
L 121.053368 85.357083 
L 121.498347 85.175638 
L 123.711645 84.595016 
L 125.151931 84.250271 
L 125.171121 84.201886 
L 125.09966 84.159549 
L 124.764841 83.990201 
L 124.792963 83.95996 
L 124.965941 83.820852 
L 124.904876 83.772467 
L 124.721155 83.651504 
L 123.723343 83.445867 
L 123.89232 83.355145 
L 125.226443 83.137411 
L 128.524551 82.562837 
L 128.586246 82.472115 
L 128.507232 82.441874 
L 127.193951 82.103177 
L 124.469503 81.80077 
L 117.047189 81.08104 
L 114.074807 80.518562 
L 114.084673 80.506465 
L 114.343708 80.391551 
L 114.914075 80.204058 
L 115.934659 80.028662 
L 119.541846 79.696013 
L 125.917306 78.982331 
L 126.141833 78.806935 
L 126.326329 78.62549 
L 126.88543 78.407757 
L 128.492298 78.032772 
L 129.398823 77.754557 
L 129.431388 77.603353 
L 129.154731 77.476342 
L 125.348711 76.889671 
L 121.015505 76.303 
L 121.107166 76.236471 
L 121.982305 76.079219 
L 125.589396 75.728426 
L 135.974101 74.803059 
L 135.881409 74.76677 
L 135.099404 74.494603 
L 133.844082 74.331303 
L 121.147759 73.182154 
L 118.78943 72.93418 
L 111.446113 72.129776 
L 99.145725 71.131831 
L 98.144511 70.90805 
L 97.481252 70.708461 
L 96.807638 70.38186 
L 96.793566 70.35162 
L 96.883315 70.309283 
L 97.135819 70.115742 
L 97.351273 70.037116 
L 98.985244 69.583504 
L 99.246991 69.492782 
L 102.374831 68.924256 
L 104.093133 68.658137 
L 104.301446 68.531126 
L 106.158679 67.950504 
L 106.052116 67.908167 
L 103.624293 67.496892 
L 101.396196 67.285207 
L 92.215036 66.281214 
L 86.994652 65.621965 
L 77.762205 64.75708 
L 76.405307 64.43048 
L 76.188823 64.345805 
L 73.835791 63.565594 
L 73.850469 63.541401 
L 74.161517 63.390198 
L 74.316657 63.287379 
L 74.274406 63.226897 
L 74.384438 63.15432 
L 78.474438 62.283386 
L 91.45459 61.358019 
L 95.487658 61.055611 
L 96.313546 60.825781 
L 96.397809 60.747155 
L 96.336965 60.69877 
L 95.864855 60.299592 
L 95.9245 60.269352 
L 96.029011 60.124196 
L 96.026803 60.118148 
L 96.081724 60.009281 
L 96.899841 59.839933 
L 100.865455 59.42261 
L 105.284259 58.99924 
L 105.708595 58.787554 
L 106.206423 58.67264 
L 111.015319 57.971054 
L 112.238185 57.65655 
L 116.942104 56.942868 
L 117.93833 56.77352 
L 121.185446 56.44692 
L 130.399044 55.557842 
L 130.892151 55.424782 
L 134.534428 55.025604 
L 139.058369 54.463126 
L 139.082119 54.444982 
L 138.98353 54.378452 
L 139.004972 54.251441 
L 139.015032 54.245393 
L 139.365894 54.154671 
L 140.189417 53.930889 
L 140.498426 53.791782 
L 140.82551 53.682915 
L 140.785264 53.616385 
L 140.821551 53.568 
L 140.821551 53.568 
" style="fill:none;stroke:#000000;stroke-linecap:square;stroke-width:4;"/>
   </g>
   <g id="patch_3">
    <path d="M 57.6 307.584 
L 57.6 41.472 
" style="fill:none;stroke:#000000;stroke-linecap:square;stroke-linejoin:miter;stroke-width:0.8;"/>
   </g>
   <g id="patch_4">
    <path d="M 414.72 307.584 
L 414.72 41.472 
" style="fill:none;stroke:#000000;stroke-linecap:square;stroke-linejoin:miter;stroke-width:0.8;"/>
   </g>
   <g id="patch_5">
    <path d="M 57.6 307.584 
L 414.72 307.584 
" style="fill:none;stroke:#000000;stroke-linecap:square;stroke-linejoin:miter;stroke-width:0.8;"/>
   </g>
   <g id="patch_6">
    <path d="M 57.6 41.472 
L 414.72 41.472 
" style="fill:none;stroke:#000000;stroke-linecap:square;stroke-linejoin:miter;stroke-width:0.8;"/>
   </g>
  </g>
 </g>
 <defs>
  <clipPath id="pea11cf8193">
   <rect height="266.112" width="357.12" x="57.6" y="41.472"/>
  </clipPath>
 </defs>
</svg>
