<?xml version="1.0" encoding="utf-8" standalone="no"?>
<!DOCTYPE svg PUBLIC "-//W3C//DTD SVG 1.1//EN"
  "http://www.w3.org/Graphics/SVG/1.1/DTD/svg11.dtd">
<!-- Created with matplotlib (http://matplotlib.org/) -->
<svg height="345.6pt" version="1.1" viewBox="0 0 460.8 345.6" width="460.8pt" xmlns="http://www.w3.org/2000/svg" xmlns:xlink="http://www.w3.org/1999/xlink">
 <defs>
  <style type="text/css">
*{stroke-linecap:butt;stroke-linejoin:round;}
  </style>
 </defs>
 <g id="figure_1">
  <g id="patch_1">
   <path d="M 0 345.6 
L 460.8 345.6 
L 460.8 0 
L 0 0 
z
" style="fill:#ffffff;"/>
  </g>
  <g id="axes_1">
   <g id="patch_2">
    <path d="M 57.6 307.584 
L 414.72 307.584 
L 414.72 41.472 
L 57.6 41.472 
z
" style="fill:#ffffff;"/>
   </g>
   <g id="matplotlib.axis_1">
    <g id="xtick_1">
     <g id="line2d_1">
      <path clip-path="url(#p66bfde44d2)" d="M 57.591072 307.584 
L 57.591072 41.472 
" style="fill:none;stroke:#b0b0b0;stroke-linecap:square;stroke-width:0.8;"/>
     </g>
     <g id="line2d_2">
      <defs>
       <path d="M 0 0 
L 0 3.5 
" id="maf8f639235" style="stroke:#000000;stroke-width:0.8;"/>
      </defs>
      <g>
       <use style="stroke:#000000;stroke-width:0.8;" x="57.591072" xlink:href="#maf8f639235" y="307.584"/>
      </g>
     </g>
     <g id="text_1">
      <!-- 0 -->
      <defs>
       <path d="M 31.78125 66.40625 
Q 24.171875 66.40625 20.328125 58.90625 
Q 16.5 51.421875 16.5 36.375 
Q 16.5 21.390625 20.328125 13.890625 
Q 24.171875 6.390625 31.78125 6.390625 
Q 39.453125 6.390625 43.28125 13.890625 
Q 47.125 21.390625 47.125 36.375 
Q 47.125 51.421875 43.28125 58.90625 
Q 39.453125 66.40625 31.78125 66.40625 
z
M 31.78125 74.21875 
Q 44.046875 74.21875 50.515625 64.515625 
Q 56.984375 54.828125 56.984375 36.375 
Q 56.984375 17.96875 50.515625 8.265625 
Q 44.046875 -1.421875 31.78125 -1.421875 
Q 19.53125 -1.421875 13.0625 8.265625 
Q 6.59375 17.96875 6.59375 36.375 
Q 6.59375 54.828125 13.0625 64.515625 
Q 19.53125 74.21875 31.78125 74.21875 
z
" id="DejaVuSans-30"/>
      </defs>
      <g transform="translate(54.409822 322.182437)scale(0.1 -0.1)">
       <use xlink:href="#DejaVuSans-30"/>
      </g>
     </g>
    </g>
    <g id="xtick_2">
     <g id="line2d_3">
      <path clip-path="url(#p66bfde44d2)" d="M 102.231072 307.584 
L 102.231072 41.472 
" style="fill:none;stroke:#b0b0b0;stroke-linecap:square;stroke-width:0.8;"/>
     </g>
     <g id="line2d_4">
      <g>
       <use style="stroke:#000000;stroke-width:0.8;" x="102.231072" xlink:href="#maf8f639235" y="307.584"/>
      </g>
     </g>
     <g id="text_2">
      <!-- 5000 -->
      <defs>
       <path d="M 10.796875 72.90625 
L 49.515625 72.90625 
L 49.515625 64.59375 
L 19.828125 64.59375 
L 19.828125 46.734375 
Q 21.96875 47.46875 24.109375 47.828125 
Q 26.265625 48.1875 28.421875 48.1875 
Q 40.625 48.1875 47.75 41.5 
Q 54.890625 34.8125 54.890625 23.390625 
Q 54.890625 11.625 47.5625 5.09375 
Q 40.234375 -1.421875 26.90625 -1.421875 
Q 22.3125 -1.421875 17.546875 -0.640625 
Q 12.796875 0.140625 7.71875 1.703125 
L 7.71875 11.625 
Q 12.109375 9.234375 16.796875 8.0625 
Q 21.484375 6.890625 26.703125 6.890625 
Q 35.15625 6.890625 40.078125 11.328125 
Q 45.015625 15.765625 45.015625 23.390625 
Q 45.015625 31 40.078125 35.4375 
Q 35.15625 39.890625 26.703125 39.890625 
Q 22.75 39.890625 18.8125 39.015625 
Q 14.890625 38.140625 10.796875 36.28125 
z
" id="DejaVuSans-35"/>
      </defs>
      <g transform="translate(89.506072 322.182437)scale(0.1 -0.1)">
       <use xlink:href="#DejaVuSans-35"/>
       <use x="63.623047" xlink:href="#DejaVuSans-30"/>
       <use x="127.246094" xlink:href="#DejaVuSans-30"/>
       <use x="190.869141" xlink:href="#DejaVuSans-30"/>
      </g>
     </g>
    </g>
    <g id="xtick_3">
     <g id="line2d_5">
      <path clip-path="url(#p66bfde44d2)" d="M 146.871072 307.584 
L 146.871072 41.472 
" style="fill:none;stroke:#b0b0b0;stroke-linecap:square;stroke-width:0.8;"/>
     </g>
     <g id="line2d_6">
      <g>
       <use style="stroke:#000000;stroke-width:0.8;" x="146.871072" xlink:href="#maf8f639235" y="307.584"/>
      </g>
     </g>
     <g id="text_3">
      <!-- 10000 -->
      <defs>
       <path d="M 12.40625 8.296875 
L 28.515625 8.296875 
L 28.515625 63.921875 
L 10.984375 60.40625 
L 10.984375 69.390625 
L 28.421875 72.90625 
L 38.28125 72.90625 
L 38.28125 8.296875 
L 54.390625 8.296875 
L 54.390625 0 
L 12.40625 0 
z
" id="DejaVuSans-31"/>
      </defs>
      <g transform="translate(130.964822 322.182437)scale(0.1 -0.1)">
       <use xlink:href="#DejaVuSans-31"/>
       <use x="63.623047" xlink:href="#DejaVuSans-30"/>
       <use x="127.246094" xlink:href="#DejaVuSans-30"/>
       <use x="190.869141" xlink:href="#DejaVuSans-30"/>
       <use x="254.492188" xlink:href="#DejaVuSans-30"/>
      </g>
     </g>
    </g>
    <g id="xtick_4">
     <g id="line2d_7">
      <path clip-path="url(#p66bfde44d2)" d="M 191.511072 307.584 
L 191.511072 41.472 
" style="fill:none;stroke:#b0b0b0;stroke-linecap:square;stroke-width:0.8;"/>
     </g>
     <g id="line2d_8">
      <g>
       <use style="stroke:#000000;stroke-width:0.8;" x="191.511072" xlink:href="#maf8f639235" y="307.584"/>
      </g>
     </g>
     <g id="text_4">
      <!-- 15000 -->
      <g transform="translate(175.604822 322.182437)scale(0.1 -0.1)">
       <use xlink:href="#DejaVuSans-31"/>
       <use x="63.623047" xlink:href="#DejaVuSans-35"/>
       <use x="127.246094" xlink:href="#DejaVuSans-30"/>
       <use x="190.869141" xlink:href="#DejaVuSans-30"/>
       <use x="254.492188" xlink:href="#DejaVuSans-30"/>
      </g>
     </g>
    </g>
    <g id="xtick_5">
     <g id="line2d_9">
      <path clip-path="url(#p66bfde44d2)" d="M 236.151072 307.584 
L 236.151072 41.472 
" style="fill:none;stroke:#b0b0b0;stroke-linecap:square;stroke-width:0.8;"/>
     </g>
     <g id="line2d_10">
      <g>
       <use style="stroke:#000000;stroke-width:0.8;" x="236.151072" xlink:href="#maf8f639235" y="307.584"/>
      </g>
     </g>
     <g id="text_5">
      <!-- 20000 -->
      <defs>
       <path d="M 19.1875 8.296875 
L 53.609375 8.296875 
L 53.609375 0 
L 7.328125 0 
L 7.328125 8.296875 
Q 12.9375 14.109375 22.625 23.890625 
Q 32.328125 33.6875 34.8125 36.53125 
Q 39.546875 41.84375 41.421875 45.53125 
Q 43.3125 49.21875 43.3125 52.78125 
Q 43.3125 58.59375 39.234375 62.25 
Q 35.15625 65.921875 28.609375 65.921875 
Q 23.96875 65.921875 18.8125 64.3125 
Q 13.671875 62.703125 7.8125 59.421875 
L 7.8125 69.390625 
Q 13.765625 71.78125 18.9375 73 
Q 24.125 74.21875 28.421875 74.21875 
Q 39.75 74.21875 46.484375 68.546875 
Q 53.21875 62.890625 53.21875 53.421875 
Q 53.21875 48.921875 51.53125 44.890625 
Q 49.859375 40.875 45.40625 35.40625 
Q 44.1875 33.984375 37.640625 27.21875 
Q 31.109375 20.453125 19.1875 8.296875 
z
" id="DejaVuSans-32"/>
      </defs>
      <g transform="translate(220.244822 322.182437)scale(0.1 -0.1)">
       <use xlink:href="#DejaVuSans-32"/>
       <use x="63.623047" xlink:href="#DejaVuSans-30"/>
       <use x="127.246094" xlink:href="#DejaVuSans-30"/>
       <use x="190.869141" xlink:href="#DejaVuSans-30"/>
       <use x="254.492188" xlink:href="#DejaVuSans-30"/>
      </g>
     </g>
    </g>
    <g id="xtick_6">
     <g id="line2d_11">
      <path clip-path="url(#p66bfde44d2)" d="M 280.791072 307.584 
L 280.791072 41.472 
" style="fill:none;stroke:#b0b0b0;stroke-linecap:square;stroke-width:0.8;"/>
     </g>
     <g id="line2d_12">
      <g>
       <use style="stroke:#000000;stroke-width:0.8;" x="280.791072" xlink:href="#maf8f639235" y="307.584"/>
      </g>
     </g>
     <g id="text_6">
      <!-- 25000 -->
      <g transform="translate(264.884822 322.182437)scale(0.1 -0.1)">
       <use xlink:href="#DejaVuSans-32"/>
       <use x="63.623047" xlink:href="#DejaVuSans-35"/>
       <use x="127.246094" xlink:href="#DejaVuSans-30"/>
       <use x="190.869141" xlink:href="#DejaVuSans-30"/>
       <use x="254.492188" xlink:href="#DejaVuSans-30"/>
      </g>
     </g>
    </g>
    <g id="xtick_7">
     <g id="line2d_13">
      <path clip-path="url(#p66bfde44d2)" d="M 325.431072 307.584 
L 325.431072 41.472 
" style="fill:none;stroke:#b0b0b0;stroke-linecap:square;stroke-width:0.8;"/>
     </g>
     <g id="line2d_14">
      <g>
       <use style="stroke:#000000;stroke-width:0.8;" x="325.431072" xlink:href="#maf8f639235" y="307.584"/>
      </g>
     </g>
     <g id="text_7">
      <!-- 30000 -->
      <defs>
       <path d="M 40.578125 39.3125 
Q 47.65625 37.796875 51.625 33 
Q 55.609375 28.21875 55.609375 21.1875 
Q 55.609375 10.40625 48.1875 4.484375 
Q 40.765625 -1.421875 27.09375 -1.421875 
Q 22.515625 -1.421875 17.65625 -0.515625 
Q 12.796875 0.390625 7.625 2.203125 
L 7.625 11.71875 
Q 11.71875 9.328125 16.59375 8.109375 
Q 21.484375 6.890625 26.8125 6.890625 
Q 36.078125 6.890625 40.9375 10.546875 
Q 45.796875 14.203125 45.796875 21.1875 
Q 45.796875 27.640625 41.28125 31.265625 
Q 36.765625 34.90625 28.71875 34.90625 
L 20.21875 34.90625 
L 20.21875 43.015625 
L 29.109375 43.015625 
Q 36.375 43.015625 40.234375 45.921875 
Q 44.09375 48.828125 44.09375 54.296875 
Q 44.09375 59.90625 40.109375 62.90625 
Q 36.140625 65.921875 28.71875 65.921875 
Q 24.65625 65.921875 20.015625 65.03125 
Q 15.375 64.15625 9.8125 62.3125 
L 9.8125 71.09375 
Q 15.4375 72.65625 20.34375 73.4375 
Q 25.25 74.21875 29.59375 74.21875 
Q 40.828125 74.21875 47.359375 69.109375 
Q 53.90625 64.015625 53.90625 55.328125 
Q 53.90625 49.265625 50.4375 45.09375 
Q 46.96875 40.921875 40.578125 39.3125 
z
" id="DejaVuSans-33"/>
      </defs>
      <g transform="translate(309.524822 322.182437)scale(0.1 -0.1)">
       <use xlink:href="#DejaVuSans-33"/>
       <use x="63.623047" xlink:href="#DejaVuSans-30"/>
       <use x="127.246094" xlink:href="#DejaVuSans-30"/>
       <use x="190.869141" xlink:href="#DejaVuSans-30"/>
       <use x="254.492188" xlink:href="#DejaVuSans-30"/>
      </g>
     </g>
    </g>
    <g id="xtick_8">
     <g id="line2d_15">
      <path clip-path="url(#p66bfde44d2)" d="M 370.071072 307.584 
L 370.071072 41.472 
" style="fill:none;stroke:#b0b0b0;stroke-linecap:square;stroke-width:0.8;"/>
     </g>
     <g id="line2d_16">
      <g>
       <use style="stroke:#000000;stroke-width:0.8;" x="370.071072" xlink:href="#maf8f639235" y="307.584"/>
      </g>
     </g>
     <g id="text_8">
      <!-- 35000 -->
      <g transform="translate(354.164822 322.182437)scale(0.1 -0.1)">
       <use xlink:href="#DejaVuSans-33"/>
       <use x="63.623047" xlink:href="#DejaVuSans-35"/>
       <use x="127.246094" xlink:href="#DejaVuSans-30"/>
       <use x="190.869141" xlink:href="#DejaVuSans-30"/>
       <use x="254.492188" xlink:href="#DejaVuSans-30"/>
      </g>
     </g>
    </g>
    <g id="xtick_9">
     <g id="line2d_17">
      <path clip-path="url(#p66bfde44d2)" d="M 414.711072 307.584 
L 414.711072 41.472 
" style="fill:none;stroke:#b0b0b0;stroke-linecap:square;stroke-width:0.8;"/>
     </g>
     <g id="line2d_18">
      <g>
       <use style="stroke:#000000;stroke-width:0.8;" x="414.711072" xlink:href="#maf8f639235" y="307.584"/>
      </g>
     </g>
     <g id="text_9">
      <!-- 40000 -->
      <defs>
       <path d="M 37.796875 64.3125 
L 12.890625 25.390625 
L 37.796875 25.390625 
z
M 35.203125 72.90625 
L 47.609375 72.90625 
L 47.609375 25.390625 
L 58.015625 25.390625 
L 58.015625 17.1875 
L 47.609375 17.1875 
L 47.609375 0 
L 37.796875 0 
L 37.796875 17.1875 
L 4.890625 17.1875 
L 4.890625 26.703125 
z
" id="DejaVuSans-34"/>
      </defs>
      <g transform="translate(398.804822 322.182437)scale(0.1 -0.1)">
       <use xlink:href="#DejaVuSans-34"/>
       <use x="63.623047" xlink:href="#DejaVuSans-30"/>
       <use x="127.246094" xlink:href="#DejaVuSans-30"/>
       <use x="190.869141" xlink:href="#DejaVuSans-30"/>
       <use x="254.492188" xlink:href="#DejaVuSans-30"/>
      </g>
     </g>
    </g>
    <g id="text_10">
     <!-- Lag -->
     <defs>
      <path d="M 9.8125 72.90625 
L 19.671875 72.90625 
L 19.671875 8.296875 
L 55.171875 8.296875 
L 55.171875 0 
L 9.8125 0 
z
" id="DejaVuSans-4c"/>
      <path d="M 34.28125 27.484375 
Q 23.390625 27.484375 19.1875 25 
Q 14.984375 22.515625 14.984375 16.5 
Q 14.984375 11.71875 18.140625 8.90625 
Q 21.296875 6.109375 26.703125 6.109375 
Q 34.1875 6.109375 38.703125 11.40625 
Q 43.21875 16.703125 43.21875 25.484375 
L 43.21875 27.484375 
z
M 52.203125 31.203125 
L 52.203125 0 
L 43.21875 0 
L 43.21875 8.296875 
Q 40.140625 3.328125 35.546875 0.953125 
Q 30.953125 -1.421875 24.3125 -1.421875 
Q 15.921875 -1.421875 10.953125 3.296875 
Q 6 8.015625 6 15.921875 
Q 6 25.140625 12.171875 29.828125 
Q 18.359375 34.515625 30.609375 34.515625 
L 43.21875 34.515625 
L 43.21875 35.40625 
Q 43.21875 41.609375 39.140625 45 
Q 35.0625 48.390625 27.6875 48.390625 
Q 23 48.390625 18.546875 47.265625 
Q 14.109375 46.140625 10.015625 43.890625 
L 10.015625 52.203125 
Q 14.9375 54.109375 19.578125 55.046875 
Q 24.21875 56 28.609375 56 
Q 40.484375 56 46.34375 49.84375 
Q 52.203125 43.703125 52.203125 31.203125 
z
" id="DejaVuSans-61"/>
      <path d="M 45.40625 27.984375 
Q 45.40625 37.75 41.375 43.109375 
Q 37.359375 48.484375 30.078125 48.484375 
Q 22.859375 48.484375 18.828125 43.109375 
Q 14.796875 37.75 14.796875 27.984375 
Q 14.796875 18.265625 18.828125 12.890625 
Q 22.859375 7.515625 30.078125 7.515625 
Q 37.359375 7.515625 41.375 12.890625 
Q 45.40625 18.265625 45.40625 27.984375 
z
M 54.390625 6.78125 
Q 54.390625 -7.171875 48.1875 -13.984375 
Q 42 -20.796875 29.203125 -20.796875 
Q 24.46875 -20.796875 20.265625 -20.09375 
Q 16.0625 -19.390625 12.109375 -17.921875 
L 12.109375 -9.1875 
Q 16.0625 -11.328125 19.921875 -12.34375 
Q 23.78125 -13.375 27.78125 -13.375 
Q 36.625 -13.375 41.015625 -8.765625 
Q 45.40625 -4.15625 45.40625 5.171875 
L 45.40625 9.625 
Q 42.625 4.78125 38.28125 2.390625 
Q 33.9375 0 27.875 0 
Q 17.828125 0 11.671875 7.65625 
Q 5.515625 15.328125 5.515625 27.984375 
Q 5.515625 40.671875 11.671875 48.328125 
Q 17.828125 56 27.875 56 
Q 33.9375 56 38.28125 53.609375 
Q 42.625 51.21875 45.40625 46.390625 
L 45.40625 54.6875 
L 54.390625 54.6875 
z
" id="DejaVuSans-67"/>
     </defs>
     <g transform="translate(227.135781 335.860562)scale(0.1 -0.1)">
      <use xlink:href="#DejaVuSans-4c"/>
      <use x="55.712891" xlink:href="#DejaVuSans-61"/>
      <use x="116.992188" xlink:href="#DejaVuSans-67"/>
     </g>
    </g>
   </g>
   <g id="matplotlib.axis_2">
    <g id="ytick_1">
     <g id="line2d_19">
      <path clip-path="url(#p66bfde44d2)" d="M 57.6 307.584 
L 414.72 307.584 
" style="fill:none;stroke:#b0b0b0;stroke-linecap:square;stroke-width:0.8;"/>
     </g>
     <g id="line2d_20">
      <defs>
       <path d="M 0 0 
L -3.5 0 
" id="m1fe948bd53" style="stroke:#000000;stroke-width:0.8;"/>
      </defs>
      <g>
       <use style="stroke:#000000;stroke-width:0.8;" x="57.6" xlink:href="#m1fe948bd53" y="307.584"/>
      </g>
     </g>
     <g id="text_11">
      <!-- −1.00 -->
      <defs>
       <path d="M 10.59375 35.5 
L 73.1875 35.5 
L 73.1875 27.203125 
L 10.59375 27.203125 
z
" id="DejaVuSans-2212"/>
       <path d="M 10.6875 12.40625 
L 21 12.40625 
L 21 0 
L 10.6875 0 
z
" id="DejaVuSans-2e"/>
      </defs>
      <g transform="translate(19.954687 311.383219)scale(0.1 -0.1)">
       <use xlink:href="#DejaVuSans-2212"/>
       <use x="83.789062" xlink:href="#DejaVuSans-31"/>
       <use x="147.412109" xlink:href="#DejaVuSans-2e"/>
       <use x="179.199219" xlink:href="#DejaVuSans-30"/>
       <use x="242.822266" xlink:href="#DejaVuSans-30"/>
      </g>
     </g>
    </g>
    <g id="ytick_2">
     <g id="line2d_21">
      <path clip-path="url(#p66bfde44d2)" d="M 57.6 274.32 
L 414.72 274.32 
" style="fill:none;stroke:#b0b0b0;stroke-linecap:square;stroke-width:0.8;"/>
     </g>
     <g id="line2d_22">
      <g>
       <use style="stroke:#000000;stroke-width:0.8;" x="57.6" xlink:href="#m1fe948bd53" y="274.32"/>
      </g>
     </g>
     <g id="text_12">
      <!-- −0.75 -->
      <defs>
       <path d="M 8.203125 72.90625 
L 55.078125 72.90625 
L 55.078125 68.703125 
L 28.609375 0 
L 18.3125 0 
L 43.21875 64.59375 
L 8.203125 64.59375 
z
" id="DejaVuSans-37"/>
      </defs>
      <g transform="translate(19.954687 278.119219)scale(0.1 -0.1)">
       <use xlink:href="#DejaVuSans-2212"/>
       <use x="83.789062" xlink:href="#DejaVuSans-30"/>
       <use x="147.412109" xlink:href="#DejaVuSans-2e"/>
       <use x="179.199219" xlink:href="#DejaVuSans-37"/>
       <use x="242.822266" xlink:href="#DejaVuSans-35"/>
      </g>
     </g>
    </g>
    <g id="ytick_3">
     <g id="line2d_23">
      <path clip-path="url(#p66bfde44d2)" d="M 57.6 241.056 
L 414.72 241.056 
" style="fill:none;stroke:#b0b0b0;stroke-linecap:square;stroke-width:0.8;"/>
     </g>
     <g id="line2d_24">
      <g>
       <use style="stroke:#000000;stroke-width:0.8;" x="57.6" xlink:href="#m1fe948bd53" y="241.056"/>
      </g>
     </g>
     <g id="text_13">
      <!-- −0.50 -->
      <g transform="translate(19.954687 244.855219)scale(0.1 -0.1)">
       <use xlink:href="#DejaVuSans-2212"/>
       <use x="83.789062" xlink:href="#DejaVuSans-30"/>
       <use x="147.412109" xlink:href="#DejaVuSans-2e"/>
       <use x="179.199219" xlink:href="#DejaVuSans-35"/>
       <use x="242.822266" xlink:href="#DejaVuSans-30"/>
      </g>
     </g>
    </g>
    <g id="ytick_4">
     <g id="line2d_25">
      <path clip-path="url(#p66bfde44d2)" d="M 57.6 207.792 
L 414.72 207.792 
" style="fill:none;stroke:#b0b0b0;stroke-linecap:square;stroke-width:0.8;"/>
     </g>
     <g id="line2d_26">
      <g>
       <use style="stroke:#000000;stroke-width:0.8;" x="57.6" xlink:href="#m1fe948bd53" y="207.792"/>
      </g>
     </g>
     <g id="text_14">
      <!-- −0.25 -->
      <g transform="translate(19.954687 211.591219)scale(0.1 -0.1)">
       <use xlink:href="#DejaVuSans-2212"/>
       <use x="83.789062" xlink:href="#DejaVuSans-30"/>
       <use x="147.412109" xlink:href="#DejaVuSans-2e"/>
       <use x="179.199219" xlink:href="#DejaVuSans-32"/>
       <use x="242.822266" xlink:href="#DejaVuSans-35"/>
      </g>
     </g>
    </g>
    <g id="ytick_5">
     <g id="line2d_27">
      <path clip-path="url(#p66bfde44d2)" d="M 57.6 174.528 
L 414.72 174.528 
" style="fill:none;stroke:#b0b0b0;stroke-linecap:square;stroke-width:0.8;"/>
     </g>
     <g id="line2d_28">
      <g>
       <use style="stroke:#000000;stroke-width:0.8;" x="57.6" xlink:href="#m1fe948bd53" y="174.528"/>
      </g>
     </g>
     <g id="text_15">
      <!-- 0.00 -->
      <g transform="translate(28.334375 178.327219)scale(0.1 -0.1)">
       <use xlink:href="#DejaVuSans-30"/>
       <use x="63.623047" xlink:href="#DejaVuSans-2e"/>
       <use x="95.410156" xlink:href="#DejaVuSans-30"/>
       <use x="159.033203" xlink:href="#DejaVuSans-30"/>
      </g>
     </g>
    </g>
    <g id="ytick_6">
     <g id="line2d_29">
      <path clip-path="url(#p66bfde44d2)" d="M 57.6 141.264 
L 414.72 141.264 
" style="fill:none;stroke:#b0b0b0;stroke-linecap:square;stroke-width:0.8;"/>
     </g>
     <g id="line2d_30">
      <g>
       <use style="stroke:#000000;stroke-width:0.8;" x="57.6" xlink:href="#m1fe948bd53" y="141.264"/>
      </g>
     </g>
     <g id="text_16">
      <!-- 0.25 -->
      <g transform="translate(28.334375 145.063219)scale(0.1 -0.1)">
       <use xlink:href="#DejaVuSans-30"/>
       <use x="63.623047" xlink:href="#DejaVuSans-2e"/>
       <use x="95.410156" xlink:href="#DejaVuSans-32"/>
       <use x="159.033203" xlink:href="#DejaVuSans-35"/>
      </g>
     </g>
    </g>
    <g id="ytick_7">
     <g id="line2d_31">
      <path clip-path="url(#p66bfde44d2)" d="M 57.6 108 
L 414.72 108 
" style="fill:none;stroke:#b0b0b0;stroke-linecap:square;stroke-width:0.8;"/>
     </g>
     <g id="line2d_32">
      <g>
       <use style="stroke:#000000;stroke-width:0.8;" x="57.6" xlink:href="#m1fe948bd53" y="108"/>
      </g>
     </g>
     <g id="text_17">
      <!-- 0.50 -->
      <g transform="translate(28.334375 111.799219)scale(0.1 -0.1)">
       <use xlink:href="#DejaVuSans-30"/>
       <use x="63.623047" xlink:href="#DejaVuSans-2e"/>
       <use x="95.410156" xlink:href="#DejaVuSans-35"/>
       <use x="159.033203" xlink:href="#DejaVuSans-30"/>
      </g>
     </g>
    </g>
    <g id="ytick_8">
     <g id="line2d_33">
      <path clip-path="url(#p66bfde44d2)" d="M 57.6 74.736 
L 414.72 74.736 
" style="fill:none;stroke:#b0b0b0;stroke-linecap:square;stroke-width:0.8;"/>
     </g>
     <g id="line2d_34">
      <g>
       <use style="stroke:#000000;stroke-width:0.8;" x="57.6" xlink:href="#m1fe948bd53" y="74.736"/>
      </g>
     </g>
     <g id="text_18">
      <!-- 0.75 -->
      <g transform="translate(28.334375 78.535219)scale(0.1 -0.1)">
       <use xlink:href="#DejaVuSans-30"/>
       <use x="63.623047" xlink:href="#DejaVuSans-2e"/>
       <use x="95.410156" xlink:href="#DejaVuSans-37"/>
       <use x="159.033203" xlink:href="#DejaVuSans-35"/>
      </g>
     </g>
    </g>
    <g id="ytick_9">
     <g id="line2d_35">
      <path clip-path="url(#p66bfde44d2)" d="M 57.6 41.472 
L 414.72 41.472 
" style="fill:none;stroke:#b0b0b0;stroke-linecap:square;stroke-width:0.8;"/>
     </g>
     <g id="line2d_36">
      <g>
       <use style="stroke:#000000;stroke-width:0.8;" x="57.6" xlink:href="#m1fe948bd53" y="41.472"/>
      </g>
     </g>
     <g id="text_19">
      <!-- 1.00 -->
      <g transform="translate(28.334375 45.271219)scale(0.1 -0.1)">
       <use xlink:href="#DejaVuSans-31"/>
       <use x="63.623047" xlink:href="#DejaVuSans-2e"/>
       <use x="95.410156" xlink:href="#DejaVuSans-30"/>
       <use x="159.033203" xlink:href="#DejaVuSans-30"/>
      </g>
     </g>
    </g>
    <g id="text_20">
     <!-- Autocorrelation -->
     <defs>
      <path d="M 34.1875 63.1875 
L 20.796875 26.90625 
L 47.609375 26.90625 
z
M 28.609375 72.90625 
L 39.796875 72.90625 
L 67.578125 0 
L 57.328125 0 
L 50.6875 18.703125 
L 17.828125 18.703125 
L 11.1875 0 
L 0.78125 0 
z
" id="DejaVuSans-41"/>
      <path d="M 8.5 21.578125 
L 8.5 54.6875 
L 17.484375 54.6875 
L 17.484375 21.921875 
Q 17.484375 14.15625 20.5 10.265625 
Q 23.53125 6.390625 29.59375 6.390625 
Q 36.859375 6.390625 41.078125 11.03125 
Q 45.3125 15.671875 45.3125 23.6875 
L 45.3125 54.6875 
L 54.296875 54.6875 
L 54.296875 0 
L 45.3125 0 
L 45.3125 8.40625 
Q 42.046875 3.421875 37.71875 1 
Q 33.40625 -1.421875 27.6875 -1.421875 
Q 18.265625 -1.421875 13.375 4.4375 
Q 8.5 10.296875 8.5 21.578125 
z
M 31.109375 56 
z
" id="DejaVuSans-75"/>
      <path d="M 18.3125 70.21875 
L 18.3125 54.6875 
L 36.8125 54.6875 
L 36.8125 47.703125 
L 18.3125 47.703125 
L 18.3125 18.015625 
Q 18.3125 11.328125 20.140625 9.421875 
Q 21.96875 7.515625 27.59375 7.515625 
L 36.8125 7.515625 
L 36.8125 0 
L 27.59375 0 
Q 17.1875 0 13.234375 3.875 
Q 9.28125 7.765625 9.28125 18.015625 
L 9.28125 47.703125 
L 2.6875 47.703125 
L 2.6875 54.6875 
L 9.28125 54.6875 
L 9.28125 70.21875 
z
" id="DejaVuSans-74"/>
      <path d="M 30.609375 48.390625 
Q 23.390625 48.390625 19.1875 42.75 
Q 14.984375 37.109375 14.984375 27.296875 
Q 14.984375 17.484375 19.15625 11.84375 
Q 23.34375 6.203125 30.609375 6.203125 
Q 37.796875 6.203125 41.984375 11.859375 
Q 46.1875 17.53125 46.1875 27.296875 
Q 46.1875 37.015625 41.984375 42.703125 
Q 37.796875 48.390625 30.609375 48.390625 
z
M 30.609375 56 
Q 42.328125 56 49.015625 48.375 
Q 55.71875 40.765625 55.71875 27.296875 
Q 55.71875 13.875 49.015625 6.21875 
Q 42.328125 -1.421875 30.609375 -1.421875 
Q 18.84375 -1.421875 12.171875 6.21875 
Q 5.515625 13.875 5.515625 27.296875 
Q 5.515625 40.765625 12.171875 48.375 
Q 18.84375 56 30.609375 56 
z
" id="DejaVuSans-6f"/>
      <path d="M 48.78125 52.59375 
L 48.78125 44.1875 
Q 44.96875 46.296875 41.140625 47.34375 
Q 37.3125 48.390625 33.40625 48.390625 
Q 24.65625 48.390625 19.8125 42.84375 
Q 14.984375 37.3125 14.984375 27.296875 
Q 14.984375 17.28125 19.8125 11.734375 
Q 24.65625 6.203125 33.40625 6.203125 
Q 37.3125 6.203125 41.140625 7.25 
Q 44.96875 8.296875 48.78125 10.40625 
L 48.78125 2.09375 
Q 45.015625 0.34375 40.984375 -0.53125 
Q 36.96875 -1.421875 32.421875 -1.421875 
Q 20.0625 -1.421875 12.78125 6.34375 
Q 5.515625 14.109375 5.515625 27.296875 
Q 5.515625 40.671875 12.859375 48.328125 
Q 20.21875 56 33.015625 56 
Q 37.15625 56 41.109375 55.140625 
Q 45.0625 54.296875 48.78125 52.59375 
z
" id="DejaVuSans-63"/>
      <path d="M 41.109375 46.296875 
Q 39.59375 47.171875 37.8125 47.578125 
Q 36.03125 48 33.890625 48 
Q 26.265625 48 22.1875 43.046875 
Q 18.109375 38.09375 18.109375 28.8125 
L 18.109375 0 
L 9.078125 0 
L 9.078125 54.6875 
L 18.109375 54.6875 
L 18.109375 46.1875 
Q 20.953125 51.171875 25.484375 53.578125 
Q 30.03125 56 36.53125 56 
Q 37.453125 56 38.578125 55.875 
Q 39.703125 55.765625 41.0625 55.515625 
z
" id="DejaVuSans-72"/>
      <path d="M 56.203125 29.59375 
L 56.203125 25.203125 
L 14.890625 25.203125 
Q 15.484375 15.921875 20.484375 11.0625 
Q 25.484375 6.203125 34.421875 6.203125 
Q 39.59375 6.203125 44.453125 7.46875 
Q 49.3125 8.734375 54.109375 11.28125 
L 54.109375 2.78125 
Q 49.265625 0.734375 44.1875 -0.34375 
Q 39.109375 -1.421875 33.890625 -1.421875 
Q 20.796875 -1.421875 13.15625 6.1875 
Q 5.515625 13.8125 5.515625 26.8125 
Q 5.515625 40.234375 12.765625 48.109375 
Q 20.015625 56 32.328125 56 
Q 43.359375 56 49.78125 48.890625 
Q 56.203125 41.796875 56.203125 29.59375 
z
M 47.21875 32.234375 
Q 47.125 39.59375 43.09375 43.984375 
Q 39.0625 48.390625 32.421875 48.390625 
Q 24.90625 48.390625 20.390625 44.140625 
Q 15.875 39.890625 15.1875 32.171875 
z
" id="DejaVuSans-65"/>
      <path d="M 9.421875 75.984375 
L 18.40625 75.984375 
L 18.40625 0 
L 9.421875 0 
z
" id="DejaVuSans-6c"/>
      <path d="M 9.421875 54.6875 
L 18.40625 54.6875 
L 18.40625 0 
L 9.421875 0 
z
M 9.421875 75.984375 
L 18.40625 75.984375 
L 18.40625 64.59375 
L 9.421875 64.59375 
z
" id="DejaVuSans-69"/>
      <path d="M 54.890625 33.015625 
L 54.890625 0 
L 45.90625 0 
L 45.90625 32.71875 
Q 45.90625 40.484375 42.875 44.328125 
Q 39.84375 48.1875 33.796875 48.1875 
Q 26.515625 48.1875 22.3125 43.546875 
Q 18.109375 38.921875 18.109375 30.90625 
L 18.109375 0 
L 9.078125 0 
L 9.078125 54.6875 
L 18.109375 54.6875 
L 18.109375 46.1875 
Q 21.34375 51.125 25.703125 53.5625 
Q 30.078125 56 35.796875 56 
Q 45.21875 56 50.046875 50.171875 
Q 54.890625 44.34375 54.890625 33.015625 
z
" id="DejaVuSans-6e"/>
     </defs>
     <g transform="translate(13.875 213.160812)rotate(-90)scale(0.1 -0.1)">
      <use xlink:href="#DejaVuSans-41"/>
      <use x="68.408203" xlink:href="#DejaVuSans-75"/>
      <use x="131.787109" xlink:href="#DejaVuSans-74"/>
      <use x="170.996094" xlink:href="#DejaVuSans-6f"/>
      <use x="232.177734" xlink:href="#DejaVuSans-63"/>
      <use x="287.158203" xlink:href="#DejaVuSans-6f"/>
      <use x="348.339844" xlink:href="#DejaVuSans-72"/>
      <use x="389.4375" xlink:href="#DejaVuSans-72"/>
      <use x="430.519531" xlink:href="#DejaVuSans-65"/>
      <use x="492.042969" xlink:href="#DejaVuSans-6c"/>
      <use x="519.826172" xlink:href="#DejaVuSans-61"/>
      <use x="581.105469" xlink:href="#DejaVuSans-74"/>
      <use x="620.314453" xlink:href="#DejaVuSans-69"/>
      <use x="648.097656" xlink:href="#DejaVuSans-6f"/>
      <use x="709.279297" xlink:href="#DejaVuSans-6e"/>
     </g>
    </g>
   </g>
   <g id="line2d_37">
    <path clip-path="url(#p66bfde44d2)" d="M 57.6 172.814374 
L 414.72 172.814374 
" style="fill:none;stroke:#808080;stroke-dasharray:5.55,2.4;stroke-dashoffset:0;stroke-width:1.5;"/>
   </g>
   <g id="line2d_38">
    <path clip-path="url(#p66bfde44d2)" d="M 57.6 173.224091 
L 414.72 173.224091 
" style="fill:none;stroke:#808080;stroke-linecap:square;stroke-width:1.5;"/>
   </g>
   <g id="line2d_39">
    <path clip-path="url(#p66bfde44d2)" d="M 57.6 174.528 
L 414.72 174.528 
" style="fill:none;stroke:#000000;stroke-linecap:square;stroke-width:1.5;"/>
   </g>
   <g id="line2d_40">
    <path clip-path="url(#p66bfde44d2)" d="M 57.6 175.831909 
L 414.72 175.831909 
" style="fill:none;stroke:#808080;stroke-linecap:square;stroke-width:1.5;"/>
   </g>
   <g id="line2d_41">
    <path clip-path="url(#p66bfde44d2)" d="M 57.6 176.241626 
L 414.72 176.241626 
" style="fill:none;stroke:#808080;stroke-dasharray:5.55,2.4;stroke-dashoffset:0;stroke-width:1.5;"/>
   </g>
   <g id="line2d_42">
    <path clip-path="url(#p66bfde44d2)" d="M 57.6 41.702409 
L 59.555232 89.430668 
L 60.45696 106.143024 
L 61.894368 127.549147 
L 63.608544 149.45188 
L 65.251296 164.291565 
L 66.608352 174.116557 
L 67.786848 177.688182 
L 69.483168 187.170999 
L 70.438464 189.349522 
L 70.563456 189.332639 
L 70.572384 189.31873 
L 70.840224 188.584571 
L 72.045504 184.549324 
L 73.35792 182.80871 
L 73.866816 181.538237 
L 74.107872 180.56959 
L 74.482848 179.527034 
L 74.625696 179.596992 
L 75.536352 180.925392 
L 75.54528 180.916271 
L 76.018464 180.272341 
L 76.598784 179.316677 
L 76.946976 178.49395 
L 77.2416 178.14466 
L 77.73264 177.704068 
L 77.902272 177.608271 
L 77.9112 177.616849 
L 78.348672 178.20401 
L 78.911136 179.384505 
L 79.893216 181.894572 
L 80.080704 182.028511 
L 80.107488 182.000053 
L 80.294976 181.652832 
L 80.482464 180.976845 
L 80.848512 178.98491 
L 81.535968 174.610821 
L 81.866304 172.950371 
L 82.446624 170.053651 
L 82.901952 169.261959 
L 83.634048 168.335695 
L 83.955456 168.695203 
L 84.312576 169.373368 
L 85.571424 173.297144 
L 86.491008 176.525249 
L 87.544512 180.724829 
L 88.04448 182.032875 
L 88.410528 182.662886 
L 88.6248 183.045171 
L 88.910496 183.324316 
L 89.106912 183.764739 
L 89.42832 184.772946 
L 89.812224 186.976514 
L 90.303264 189.620612 
L 91.008576 192.093869 
L 91.21392 192.253052 
L 91.401408 192.340085 
L 91.821024 192.73402 
L 91.856736 192.682977 
L 92.053152 192.154705 
L 92.445984 191.264664 
L 92.722752 191.064821 
L 92.856672 191.135819 
L 93.838752 193.26702 
L 94.686912 195.208281 
L 95.249376 195.751246 
L 95.436864 195.710261 
L 95.749344 195.702856 
L 96.043968 195.716699 
L 96.267168 195.398764 
L 96.48144 194.858822 
L 96.776064 193.826885 
L 98.240256 187.601725 
L 99.508032 182.908112 
L 100.58832 180.699412 
L 100.793664 180.839533 
L 101.25792 181.2236 
L 102.034656 180.930433 
L 102.713184 179.22611 
L 103.329216 177.72648 
L 103.44528 177.788398 
L 103.686336 178.519969 
L 104.079168 179.739918 
L 104.463072 180.173853 
L 104.623776 180.133247 
L 105.09696 179.864917 
L 105.391584 179.826325 
L 106.16832 179.939786 
L 106.445088 179.951864 
L 106.9272 180.337572 
L 106.936128 180.326854 
L 107.623584 179.329243 
L 108.069984 178.094609 
L 108.677088 175.864884 
L 109.703808 172.942501 
L 109.819872 173.060646 
L 110.069856 173.653095 
L 111.114432 177.808501 
L 111.426912 179.280278 
L 111.721536 179.781073 
L 112.025088 179.73487 
L 112.203648 179.397725 
L 112.623264 178.548685 
L 113.391072 177.623502 
L 113.774976 177.79439 
L 114.2928 179.325251 
L 114.846336 181.594977 
L 115.167744 182.088424 
L 115.67664 183.269578 
L 115.864128 183.344669 
L 115.873056 183.336611 
L 116.283744 183.070003 
L 116.587296 183.054243 
L 117.087264 183.295071 
L 117.203328 183.4385 
L 117.944352 184.615639 
L 118.390752 184.80446 
L 118.962144 185.458768 
L 119.229984 185.196176 
L 119.497824 185.096585 
L 120.212064 185.68999 
L 120.551328 186.964007 
L 121.738752 191.210361 
L 122.667264 193.793386 
L 122.890464 193.733053 
L 123.17616 193.362632 
L 123.515424 192.701649 
L 123.720768 192.441013 
L 124.086816 191.905707 
L 125.131392 189.756386 
L 125.336736 189.675087 
L 125.63136 189.250751 
L 126.059904 187.645229 
L 127.854432 178.802735 
L 130.291776 168.527703 
L 130.5864 168.520262 
L 130.76496 168.689945 
L 130.89888 169.076328 
L 131.247072 170.926606 
L 131.684544 172.688704 
L 131.907744 172.834327 
L 132.211296 173.18549 
L 132.46128 173.436789 
L 132.613056 173.520574 
L 132.800544 173.684554 
L 132.827328 173.666167 
L 133.050528 173.293945 
L 133.514784 171.197968 
L 134.586144 165.989963 
L 135.559296 163.559819 
L 136.03248 162.936684 
L 137.184192 160.630381 
L 137.344896 160.632219 
L 137.835936 161.224197 
L 138.112704 161.390957 
L 138.246624 161.53395 
L 138.469824 161.721761 
L 138.907296 162.121254 
L 139.951872 164.415716 
L 140.255424 164.448223 
L 140.603616 164.117742 
L 140.782176 164.000089 
L 141.21072 163.662826 
L 141.353568 163.765782 
L 142.585632 165.511596 
L 142.737408 165.357678 
L 143.630208 162.941054 
L 143.960544 161.26372 
L 144.862272 156.20232 
L 145.397952 154.895252 
L 145.683648 154.826782 
L 145.906848 155.311539 
L 146.61216 157.045308 
L 147.085344 157.611481 
L 147.362112 157.53464 
L 147.879936 156.763449 
L 148.362048 155.178727 
L 148.835232 153.740142 
L 149.103072 153.528001 
L 149.37984 153.769701 
L 149.799456 154.627394 
L 150.290496 155.773717 
L 150.54048 156.172922 
L 150.558336 156.158156 
L 151.192224 155.777983 
L 151.424352 155.965512 
L 151.915392 157.169794 
L 152.674272 159.06984 
L 152.745696 159.031892 
L 153.022464 159.011552 
L 153.147456 159.166647 
L 153.379584 159.893972 
L 154.093824 161.7067 
L 154.272384 161.542153 
L 154.388448 161.586316 
L 154.60272 161.592155 
L 155.00448 161.545945 
L 155.165184 161.690281 
L 155.772288 163.368649 
L 156.7008 168.87275 
L 157.584672 174.099237 
L 159.46848 182.984959 
L 160.325568 185.010201 
L 160.575552 185.045003 
L 160.834464 184.938336 
L 160.950528 184.854988 
L 161.56656 183.625943 
L 161.914752 182.992254 
L 162.173664 182.153865 
L 162.745056 180.594288 
L 163.075392 180.263908 
L 163.334304 180.327073 
L 163.727136 180.551077 
L 163.914624 180.304135 
L 164.593152 178.987735 
L 164.896704 177.899399 
L 165.128832 177.435163 
L 165.53952 176.786347 
L 165.71808 176.675648 
L 165.735936 176.688467 
L 165.905568 176.926143 
L 167.869728 182.190366 
L 168.137568 182.309806 
L 168.289344 182.070848 
L 168.88752 180.490692 
L 169.28928 179.212673 
L 170.440992 176.418842 
L 170.512416 176.481649 
L 170.887392 176.700466 
L 171.092736 176.570383 
L 171.360576 176.208256 
L 171.673056 174.97603 
L 172.378368 171.428002 
L 172.81584 170.0883 
L 173.431872 168.992192 
L 174.047904 168.388214 
L 174.271104 168.406609 
L 174.95856 169.043197 
L 175.333536 170.444216 
L 175.637088 171.120412 
L 176.056704 171.274414 
L 176.3424 171.126876 
L 176.449536 171.173398 
L 176.65488 171.283488 
L 177.092352 171.953208 
L 177.619104 172.927608 
L 177.779808 172.781113 
L 178.056576 172.229503 
L 178.244064 172.075447 
L 178.48512 171.947948 
L 178.717248 171.855818 
L 179.172576 171.628762 
L 179.324352 171.622161 
L 179.476128 171.541814 
L 179.770752 171.368246 
L 179.895744 171.555886 
L 180.53856 172.66766 
L 180.833184 172.827879 
L 181.038528 173.101913 
L 181.868832 174.565549 
L 182.50272 176.044431 
L 182.734848 176.242799 
L 183.011616 176.102778 
L 183.181248 176.07706 
L 183.449088 176.235227 
L 183.708 176.324802 
L 183.9312 176.458836 
L 184.19904 176.862047 
L 184.529376 177.370832 
L 184.743648 177.378114 
L 185.056128 177.324484 
L 185.520384 177.403214 
L 185.797152 177.21711 
L 186.547104 176.293407 
L 186.96672 175.852274 
L 187.288128 175.568267 
L 187.564896 175.58681 
L 187.99344 174.938896 
L 189.100512 173.392748 
L 190.127232 172.476548 
L 190.350432 172.102446 
L 190.814688 171.432245 
L 191.011104 171.45663 
L 191.314656 171.567958 
L 191.528928 171.52082 
L 191.886048 171.882086 
L 192.082464 172.087157 
L 192.216384 171.963876 
L 192.519936 171.336768 
L 193.189536 169.991402 
L 193.412736 169.781563 
L 193.546656 169.834295 
L 194.001984 170.384396 
L 194.278752 171.143051 
L 194.680512 172.501213 
L 195.251904 174.44253 
L 195.689376 175.651812 
L 196.135776 176.54588 
L 196.510752 176.573902 
L 196.957152 176.103392 
L 197.135712 175.662845 
L 197.733888 173.510592 
L 198.233856 171.991178 
L 198.689184 170.998023 
L 199.349856 170.744962 
L 200.71584 169.380079 
L 200.840832 169.481949 
L 201.572928 170.887515 
L 202.492512 173.333649 
L 202.697856 173.32198 
L 202.867488 173.053862 
L 203.358528 171.498645 
L 204.0192 168.610326 
L 204.483456 166.85769 
L 204.82272 166.259994 
L 204.858432 166.300358 
L 205.17984 166.613497 
L 205.278048 166.70368 
L 205.528032 167.359629 
L 207.18864 173.253127 
L 207.447552 174.060421 
L 208.858176 178.429517 
L 209.902752 182.810808 
L 210.420576 184.11547 
L 211.456224 184.831827 
L 212.000832 184.283778 
L 212.295456 183.904999 
L 213.03648 183.1722 
L 213.420384 182.442878 
L 213.902496 181.410407 
L 214.116768 181.25144 
L 214.545312 180.706059 
L 214.813152 180.521851 
L 214.964928 180.463856 
L 214.982784 180.486584 
L 215.53632 181.509061 
L 216.080928 183.18889 
L 216.491616 184.737284 
L 216.884448 186.080818 
L 218.464704 189.98342 
L 219.37536 193.243045 
L 219.77712 194.217001 
L 220.071744 194.565283 
L 220.286016 194.740428 
L 220.58064 195.020538 
L 220.723488 195.156303 
L 221.402016 195.796826 
L 221.652 195.644509 
L 221.893056 195.593494 
L 222.044832 195.482498 
L 222.41088 195.037648 
L 222.669792 194.720942 
L 222.803712 194.593414 
L 223.276896 193.630949 
L 224.517888 188.223458 
L 225.124992 185.449226 
L 225.392832 185.129894 
L 225.776736 185.181917 
L 226.02672 185.285035 
L 226.223136 185.32349 
L 226.535616 185.259862 
L 226.758816 185.133788 
L 226.999872 184.578381 
L 227.464128 183.138448 
L 228.03552 181.058575 
L 228.285504 180.72315 
L 228.544416 180.544197 
L 228.767616 180.007092 
L 229.37472 178.566566 
L 230.22288 177.254166 
L 230.749632 175.872749 
L 231.044256 175.41951 
L 231.267456 175.152304 
L 231.624576 174.317085 
L 232.035264 172.808822 
L 232.517376 170.859683 
L 232.99056 169.138811 
L 233.579808 168.262202 
L 234.669024 165.031282 
L 234.936864 164.835007 
L 235.151136 164.827989 
L 235.293984 164.640183 
L 235.570752 164.276517 
L 235.776096 164.176428 
L 236.07072 163.984187 
L 236.258208 163.892988 
L 236.78496 163.777001 
L 237.329568 163.818311 
L 237.570624 164.305679 
L 238.088448 165.239544 
L 238.267008 165.243784 
L 238.633056 165.004612 
L 239.124096 164.443324 
L 239.454432 164.435551 
L 239.874048 163.990666 
L 240.320448 163.711552 
L 240.570432 163.812858 
L 240.865056 164.581225 
L 241.168608 165.21667 
L 242.025696 165.473115 
L 242.257824 165.491321 
L 242.418528 165.671624 
L 242.972064 166.634615 
L 243.204192 166.880809 
L 243.597024 167.277707 
L 243.918432 167.543278 
L 244.132704 167.569093 
L 244.516608 167.387051 
L 245.016576 167.351971 
L 245.596896 168.091701 
L 246.02544 168.885647 
L 246.60576 169.716573 
L 246.936096 170.603877 
L 247.284288 171.947903 
L 248.543136 177.27315 
L 248.79312 177.419304 
L 249.19488 177.159568 
L 249.703776 176.67698 
L 249.90912 176.642422 
L 250.168032 176.711502 
L 250.917984 176.505051 
L 251.346528 176.381186 
L 251.525088 176.45091 
L 251.766144 176.816548 
L 252.042912 177.097726 
L 252.444672 177.081686 
L 253.355328 178.323614 
L 253.605312 178.420254 
L 253.899936 178.135581 
L 254.140992 178.028196 
L 254.382048 178.099476 
L 254.783808 178.577673 
L 255.194496 178.996262 
L 255.417696 178.710145 
L 255.658752 178.208096 
L 256.230144 176.348542 
L 256.667616 175.251688 
L 256.926528 174.994486 
L 257.292576 174.761607 
L 257.444352 174.734359 
L 257.8104 175.209311 
L 258.042528 175.522926 
L 258.596064 175.909141 
L 258.79248 175.987555 
L 259.024608 175.754162 
L 259.28352 175.092492 
L 259.837056 172.845431 
L 260.506656 169.536991 
L 260.917344 168.574071 
L 261.11376 168.490729 
L 261.461952 168.713366 
L 261.845856 169.158769 
L 262.077984 169.226949 
L 263.34576 169.744054 
L 263.551104 169.418768 
L 263.801088 169.137737 
L 264.033216 168.822718 
L 264.515328 168.164549 
L 264.836736 168.078526 
L 265.015296 168.026511 
L 265.542048 167.732501 
L 266.104512 167.10114 
L 266.506272 167.183674 
L 266.729472 167.415636 
L 267.158016 168.056567 
L 267.827616 168.896055 
L 268.47936 170.806673 
L 269.1936 173.292586 
L 269.497152 173.740386 
L 269.702496 173.79739 
L 269.90784 173.723848 
L 270.166752 173.187418 
L 270.756 172.081253 
L 270.93456 172.076403 
L 271.229184 172.565074 
L 272.086272 174.536603 
L 272.488032 175.635011 
L 273.70224 178.953726 
L 274.28256 179.759148 
L 274.693248 179.968879 
L 274.925376 179.704716 
L 275.327136 179.288069 
L 275.514624 179.190245 
L 275.827104 178.560778 
L 276.237792 177.698615 
L 276.639552 176.270003 
L 277.550208 172.603552 
L 277.8984 171.852498 
L 278.07696 171.873572 
L 278.425152 172.012631 
L 278.692992 172.217742 
L 278.907264 172.270375 
L 280.326816 170.593883 
L 280.648224 170.150423 
L 280.880352 169.842228 
L 281.11248 169.301823 
L 281.639232 168.288531 
L 281.916 168.205508 
L 282.18384 168.298735 
L 282.612384 168.450629 
L 282.782016 168.641259 
L 283.094496 168.963225 
L 283.281984 169.132346 
L 283.4784 169.201132 
L 283.665888 169.036816 
L 284.424768 168.102955 
L 284.86224 167.416444 
L 285.281856 166.858472 
L 285.84432 165.960159 
L 286.20144 165.44725 
L 287.290656 165.647952 
L 287.513856 166.125254 
L 288.112032 168.357439 
L 288.942336 171.723764 
L 289.469088 172.896237 
L 289.665504 173.321172 
L 290.165472 174.634046 
L 290.477952 174.774177 
L 290.808288 174.848052 
L 290.942208 174.76988 
L 291.46896 174.143308 
L 292.388544 172.051899 
L 292.58496 172.130869 
L 292.951008 172.328787 
L 293.290272 172.312668 
L 293.825952 172.027772 
L 294.031296 172.031008 
L 294.468768 172.154209 
L 294.834816 171.784661 
L 295.79904 170.6268 
L 296.031168 170.806431 
L 296.236512 171.061918 
L 297.343584 173.717956 
L 298.325664 177.043227 
L 299.530944 182.31105 
L 300.6648 184.890998 
L 301.271904 185.635975 
L 301.548672 185.479264 
L 302.40576 185.239184 
L 302.834304 185.355982 
L 303.271776 185.28177 
L 303.986016 185.372221 
L 304.673472 185.990629 
L 304.896672 185.920848 
L 305.369856 185.054598 
L 305.762688 183.857099 
L 306.146592 182.746116 
L 306.432288 182.464772 
L 306.851904 182.296646 
L 307.155456 182.068357 
L 307.512576 181.770827 
L 308.682144 181.012503 
L 309.360672 179.763001 
L 309.780288 179.25302 
L 310.182048 178.933607 
L 311.217696 176.65049 
L 312.369408 173.468235 
L 312.556896 173.445542 
L 313.128288 173.826723 
L 313.43184 174.366914 
L 314.271072 177.124715 
L 314.735328 178.48739 
L 315.922752 180.454941 
L 316.360224 180.953881 
L 316.82448 181.427766 
L 317.065536 181.729207 
L 317.422656 182.104472 
L 317.922624 181.974576 
L 318.279744 181.400608 
L 319.386816 179.472232 
L 320.12784 178.280515 
L 320.984928 176.489277 
L 322.377696 173.202298 
L 322.752672 172.837187 
L 323.16336 172.593582 
L 323.368704 172.669712 
L 324.154368 172.882808 
L 324.761472 173.292106 
L 324.940032 173.420449 
L 325.2168 173.447969 
L 326.386368 173.411148 
L 326.91312 172.986986 
L 327.288096 172.603208 
L 327.547008 172.66356 
L 327.948768 172.774196 
L 328.216608 172.598914 
L 328.555872 172.254739 
L 328.957632 172.318984 
L 329.341536 172.298795 
L 330.055776 172.524981 
L 330.555744 173.279281 
L 330.895008 173.736356 
L 331.234272 174.268468 
L 331.60032 174.638021 
L 331.832448 174.619139 
L 332.037792 174.707835 
L 332.368128 174.727617 
L 332.769888 174.568139 
L 333.332352 175.0848 
L 334.314432 176.865802 
L 334.600128 177.224741 
L 335.180448 177.824697 
L 335.97504 178.359147 
L 336.314304 178.302943 
L 336.724992 177.874601 
L 337.430304 176.929327 
L 337.698144 176.758916 
L 338.260608 176.957645 
L 338.528448 177.05025 
L 338.769504 177.164962 
L 339.073056 177.324734 
L 339.930144 177.819459 
L 340.742592 178.5298 
L 341.251488 179.294488 
L 341.715744 180.28026 
L 343.001376 182.352959 
L 343.367424 182.675942 
L 343.822752 182.623745 
L 345.26016 183.859857 
L 345.43872 183.939273 
L 345.804768 184.110842 
L 346.090464 184.054574 
L 346.82256 183.01682 
L 347.411808 181.990834 
L 347.80464 180.997156 
L 348.992064 177.757744 
L 349.45632 177.402835 
L 350.965152 176.065781 
L 351.411552 174.971251 
L 351.929376 174.012524 
L 352.304352 173.613882 
L 352.643616 173.286979 
L 353.714976 171.956422 
L 353.866752 172.075317 
L 355.134528 173.825507 
L 355.572 174.610534 
L 357.187968 177.425214 
L 357.545088 177.678331 
L 357.84864 177.489286 
L 358.125408 177.210862 
L 358.571808 176.933157 
L 359.32176 176.900892 
L 359.63424 177.259838 
L 360.464544 178.113032 
L 360.812736 178.138113 
L 361.384128 178.018696 
L 362.428704 177.968867 
L 363.285792 177.277511 
L 364.874976 175.510898 
L 365.205312 175.479194 
L 365.901696 175.666175 
L 366.24096 176.161612 
L 366.86592 176.878292 
L 367.723008 177.153733 
L 368.106912 177.026504 
L 368.767584 176.905047 
L 369.035424 177.094003 
L 369.437184 177.489316 
L 371.079936 177.964691 
L 372.213792 177.926874 
L 372.945888 177.206155 
L 373.436928 176.741671 
L 373.892256 176.645409 
L 374.311872 176.689035 
L 375.285024 176.119465 
L 375.677856 176.212431 
L 376.936704 177.192795 
L 377.633088 176.831906 
L 378.865152 175.525121 
L 379.463328 174.99845 
L 379.927584 174.49989 
L 380.83824 173.911924 
L 381.927456 173.442774 
L 382.347072 172.972788 
L 382.704192 172.590414 
L 383.20416 172.240856 
L 383.409504 172.330938 
L 384.829056 173.442171 
L 385.204032 173.526123 
L 386.28432 174.650435 
L 387.016416 175.087468 
L 387.480672 175.130863 
L 387.828864 175.216502 
L 389.016288 175.815946 
L 389.489472 175.528705 
L 390.060864 175.31418 
L 390.962592 175.252733 
L 391.346496 174.898345 
L 392.471424 173.348965 
L 392.792832 173.062252 
L 394.132032 172.330811 
L 394.346304 172.300429 
L 394.917696 172.667983 
L 396.962208 174.326183 
L 397.685376 174.563993 
L 398.38176 174.524536 
L 399.033504 174.186772 
L 399.5424 174.18409 
L 400.34592 174.531862 
L 401.113728 174.728297 
L 401.658336 174.769398 
L 402.095808 174.848692 
L 402.765408 174.969553 
L 403.229664 174.595519 
L 404.36352 173.851104 
L 404.8992 173.907014 
L 405.604512 174.183304 
L 406.86336 174.189915 
L 409.443552 174.018491 
L 410.497056 174.220228 
L 411.19344 174.347771 
L 411.95232 174.463962 
L 412.88976 174.468322 
L 414.72 174.528 
L 414.72 174.528 
" style="fill:none;stroke:#1f77b4;stroke-linecap:square;stroke-width:1.5;"/>
   </g>
   <g id="patch_3">
    <path d="M 57.6 307.584 
L 57.6 41.472 
" style="fill:none;stroke:#000000;stroke-linecap:square;stroke-linejoin:miter;stroke-width:0.8;"/>
   </g>
   <g id="patch_4">
    <path d="M 414.72 307.584 
L 414.72 41.472 
" style="fill:none;stroke:#000000;stroke-linecap:square;stroke-linejoin:miter;stroke-width:0.8;"/>
   </g>
   <g id="patch_5">
    <path d="M 57.6 307.584 
L 414.72 307.584 
" style="fill:none;stroke:#000000;stroke-linecap:square;stroke-linejoin:miter;stroke-width:0.8;"/>
   </g>
   <g id="patch_6">
    <path d="M 57.6 41.472 
L 414.72 41.472 
" style="fill:none;stroke:#000000;stroke-linecap:square;stroke-linejoin:miter;stroke-width:0.8;"/>
   </g>
  </g>
 </g>
 <defs>
  <clipPath id="p66bfde44d2">
   <rect height="266.112" width="357.12" x="57.6" y="41.472"/>
  </clipPath>
 </defs>
</svg>
