<?xml version="1.0" encoding="utf-8" standalone="no"?>
<!DOCTYPE svg PUBLIC "-//W3C//DTD SVG 1.1//EN"
  "http://www.w3.org/Graphics/SVG/1.1/DTD/svg11.dtd">
<!-- Created with matplotlib (http://matplotlib.org/) -->
<svg height="345.6pt" version="1.1" viewBox="0 0 460.8 345.6" width="460.8pt" xmlns="http://www.w3.org/2000/svg" xmlns:xlink="http://www.w3.org/1999/xlink">
 <defs>
  <style type="text/css">
*{stroke-linecap:butt;stroke-linejoin:round;}
  </style>
 </defs>
 <g id="figure_1">
  <g id="patch_1">
   <path d="M 0 345.6 
L 460.8 345.6 
L 460.8 0 
L 0 0 
z
" style="fill:#ffffff;"/>
  </g>
  <g id="axes_1">
   <g id="patch_2">
    <path d="M 57.6 307.584 
L 414.72 307.584 
L 414.72 41.472 
L 57.6 41.472 
z
" style="fill:#ffffff;"/>
   </g>
   <g id="matplotlib.axis_1">
    <g id="xtick_1">
     <g id="line2d_1">
      <path clip-path="url(#p2c234b5661)" d="M 57.591072 307.584 
L 57.591072 41.472 
" style="fill:none;stroke:#b0b0b0;stroke-linecap:square;stroke-width:0.8;"/>
     </g>
     <g id="line2d_2">
      <defs>
       <path d="M 0 0 
L 0 3.5 
" id="me777caf847" style="stroke:#000000;stroke-width:0.8;"/>
      </defs>
      <g>
       <use style="stroke:#000000;stroke-width:0.8;" x="57.591072" xlink:href="#me777caf847" y="307.584"/>
      </g>
     </g>
     <g id="text_1">
      <!-- 0 -->
      <defs>
       <path d="M 31.78125 66.40625 
Q 24.171875 66.40625 20.328125 58.90625 
Q 16.5 51.421875 16.5 36.375 
Q 16.5 21.390625 20.328125 13.890625 
Q 24.171875 6.390625 31.78125 6.390625 
Q 39.453125 6.390625 43.28125 13.890625 
Q 47.125 21.390625 47.125 36.375 
Q 47.125 51.421875 43.28125 58.90625 
Q 39.453125 66.40625 31.78125 66.40625 
z
M 31.78125 74.21875 
Q 44.046875 74.21875 50.515625 64.515625 
Q 56.984375 54.828125 56.984375 36.375 
Q 56.984375 17.96875 50.515625 8.265625 
Q 44.046875 -1.421875 31.78125 -1.421875 
Q 19.53125 -1.421875 13.0625 8.265625 
Q 6.59375 17.96875 6.59375 36.375 
Q 6.59375 54.828125 13.0625 64.515625 
Q 19.53125 74.21875 31.78125 74.21875 
z
" id="DejaVuSans-30"/>
      </defs>
      <g transform="translate(54.409822 322.182437)scale(0.1 -0.1)">
       <use xlink:href="#DejaVuSans-30"/>
      </g>
     </g>
    </g>
    <g id="xtick_2">
     <g id="line2d_3">
      <path clip-path="url(#p2c234b5661)" d="M 102.231072 307.584 
L 102.231072 41.472 
" style="fill:none;stroke:#b0b0b0;stroke-linecap:square;stroke-width:0.8;"/>
     </g>
     <g id="line2d_4">
      <g>
       <use style="stroke:#000000;stroke-width:0.8;" x="102.231072" xlink:href="#me777caf847" y="307.584"/>
      </g>
     </g>
     <g id="text_2">
      <!-- 5000 -->
      <defs>
       <path d="M 10.796875 72.90625 
L 49.515625 72.90625 
L 49.515625 64.59375 
L 19.828125 64.59375 
L 19.828125 46.734375 
Q 21.96875 47.46875 24.109375 47.828125 
Q 26.265625 48.1875 28.421875 48.1875 
Q 40.625 48.1875 47.75 41.5 
Q 54.890625 34.8125 54.890625 23.390625 
Q 54.890625 11.625 47.5625 5.09375 
Q 40.234375 -1.421875 26.90625 -1.421875 
Q 22.3125 -1.421875 17.546875 -0.640625 
Q 12.796875 0.140625 7.71875 1.703125 
L 7.71875 11.625 
Q 12.109375 9.234375 16.796875 8.0625 
Q 21.484375 6.890625 26.703125 6.890625 
Q 35.15625 6.890625 40.078125 11.328125 
Q 45.015625 15.765625 45.015625 23.390625 
Q 45.015625 31 40.078125 35.4375 
Q 35.15625 39.890625 26.703125 39.890625 
Q 22.75 39.890625 18.8125 39.015625 
Q 14.890625 38.140625 10.796875 36.28125 
z
" id="DejaVuSans-35"/>
      </defs>
      <g transform="translate(89.506072 322.182437)scale(0.1 -0.1)">
       <use xlink:href="#DejaVuSans-35"/>
       <use x="63.623047" xlink:href="#DejaVuSans-30"/>
       <use x="127.246094" xlink:href="#DejaVuSans-30"/>
       <use x="190.869141" xlink:href="#DejaVuSans-30"/>
      </g>
     </g>
    </g>
    <g id="xtick_3">
     <g id="line2d_5">
      <path clip-path="url(#p2c234b5661)" d="M 146.871072 307.584 
L 146.871072 41.472 
" style="fill:none;stroke:#b0b0b0;stroke-linecap:square;stroke-width:0.8;"/>
     </g>
     <g id="line2d_6">
      <g>
       <use style="stroke:#000000;stroke-width:0.8;" x="146.871072" xlink:href="#me777caf847" y="307.584"/>
      </g>
     </g>
     <g id="text_3">
      <!-- 10000 -->
      <defs>
       <path d="M 12.40625 8.296875 
L 28.515625 8.296875 
L 28.515625 63.921875 
L 10.984375 60.40625 
L 10.984375 69.390625 
L 28.421875 72.90625 
L 38.28125 72.90625 
L 38.28125 8.296875 
L 54.390625 8.296875 
L 54.390625 0 
L 12.40625 0 
z
" id="DejaVuSans-31"/>
      </defs>
      <g transform="translate(130.964822 322.182437)scale(0.1 -0.1)">
       <use xlink:href="#DejaVuSans-31"/>
       <use x="63.623047" xlink:href="#DejaVuSans-30"/>
       <use x="127.246094" xlink:href="#DejaVuSans-30"/>
       <use x="190.869141" xlink:href="#DejaVuSans-30"/>
       <use x="254.492188" xlink:href="#DejaVuSans-30"/>
      </g>
     </g>
    </g>
    <g id="xtick_4">
     <g id="line2d_7">
      <path clip-path="url(#p2c234b5661)" d="M 191.511072 307.584 
L 191.511072 41.472 
" style="fill:none;stroke:#b0b0b0;stroke-linecap:square;stroke-width:0.8;"/>
     </g>
     <g id="line2d_8">
      <g>
       <use style="stroke:#000000;stroke-width:0.8;" x="191.511072" xlink:href="#me777caf847" y="307.584"/>
      </g>
     </g>
     <g id="text_4">
      <!-- 15000 -->
      <g transform="translate(175.604822 322.182437)scale(0.1 -0.1)">
       <use xlink:href="#DejaVuSans-31"/>
       <use x="63.623047" xlink:href="#DejaVuSans-35"/>
       <use x="127.246094" xlink:href="#DejaVuSans-30"/>
       <use x="190.869141" xlink:href="#DejaVuSans-30"/>
       <use x="254.492188" xlink:href="#DejaVuSans-30"/>
      </g>
     </g>
    </g>
    <g id="xtick_5">
     <g id="line2d_9">
      <path clip-path="url(#p2c234b5661)" d="M 236.151072 307.584 
L 236.151072 41.472 
" style="fill:none;stroke:#b0b0b0;stroke-linecap:square;stroke-width:0.8;"/>
     </g>
     <g id="line2d_10">
      <g>
       <use style="stroke:#000000;stroke-width:0.8;" x="236.151072" xlink:href="#me777caf847" y="307.584"/>
      </g>
     </g>
     <g id="text_5">
      <!-- 20000 -->
      <defs>
       <path d="M 19.1875 8.296875 
L 53.609375 8.296875 
L 53.609375 0 
L 7.328125 0 
L 7.328125 8.296875 
Q 12.9375 14.109375 22.625 23.890625 
Q 32.328125 33.6875 34.8125 36.53125 
Q 39.546875 41.84375 41.421875 45.53125 
Q 43.3125 49.21875 43.3125 52.78125 
Q 43.3125 58.59375 39.234375 62.25 
Q 35.15625 65.921875 28.609375 65.921875 
Q 23.96875 65.921875 18.8125 64.3125 
Q 13.671875 62.703125 7.8125 59.421875 
L 7.8125 69.390625 
Q 13.765625 71.78125 18.9375 73 
Q 24.125 74.21875 28.421875 74.21875 
Q 39.75 74.21875 46.484375 68.546875 
Q 53.21875 62.890625 53.21875 53.421875 
Q 53.21875 48.921875 51.53125 44.890625 
Q 49.859375 40.875 45.40625 35.40625 
Q 44.1875 33.984375 37.640625 27.21875 
Q 31.109375 20.453125 19.1875 8.296875 
z
" id="DejaVuSans-32"/>
      </defs>
      <g transform="translate(220.244822 322.182437)scale(0.1 -0.1)">
       <use xlink:href="#DejaVuSans-32"/>
       <use x="63.623047" xlink:href="#DejaVuSans-30"/>
       <use x="127.246094" xlink:href="#DejaVuSans-30"/>
       <use x="190.869141" xlink:href="#DejaVuSans-30"/>
       <use x="254.492188" xlink:href="#DejaVuSans-30"/>
      </g>
     </g>
    </g>
    <g id="xtick_6">
     <g id="line2d_11">
      <path clip-path="url(#p2c234b5661)" d="M 280.791072 307.584 
L 280.791072 41.472 
" style="fill:none;stroke:#b0b0b0;stroke-linecap:square;stroke-width:0.8;"/>
     </g>
     <g id="line2d_12">
      <g>
       <use style="stroke:#000000;stroke-width:0.8;" x="280.791072" xlink:href="#me777caf847" y="307.584"/>
      </g>
     </g>
     <g id="text_6">
      <!-- 25000 -->
      <g transform="translate(264.884822 322.182437)scale(0.1 -0.1)">
       <use xlink:href="#DejaVuSans-32"/>
       <use x="63.623047" xlink:href="#DejaVuSans-35"/>
       <use x="127.246094" xlink:href="#DejaVuSans-30"/>
       <use x="190.869141" xlink:href="#DejaVuSans-30"/>
       <use x="254.492188" xlink:href="#DejaVuSans-30"/>
      </g>
     </g>
    </g>
    <g id="xtick_7">
     <g id="line2d_13">
      <path clip-path="url(#p2c234b5661)" d="M 325.431072 307.584 
L 325.431072 41.472 
" style="fill:none;stroke:#b0b0b0;stroke-linecap:square;stroke-width:0.8;"/>
     </g>
     <g id="line2d_14">
      <g>
       <use style="stroke:#000000;stroke-width:0.8;" x="325.431072" xlink:href="#me777caf847" y="307.584"/>
      </g>
     </g>
     <g id="text_7">
      <!-- 30000 -->
      <defs>
       <path d="M 40.578125 39.3125 
Q 47.65625 37.796875 51.625 33 
Q 55.609375 28.21875 55.609375 21.1875 
Q 55.609375 10.40625 48.1875 4.484375 
Q 40.765625 -1.421875 27.09375 -1.421875 
Q 22.515625 -1.421875 17.65625 -0.515625 
Q 12.796875 0.390625 7.625 2.203125 
L 7.625 11.71875 
Q 11.71875 9.328125 16.59375 8.109375 
Q 21.484375 6.890625 26.8125 6.890625 
Q 36.078125 6.890625 40.9375 10.546875 
Q 45.796875 14.203125 45.796875 21.1875 
Q 45.796875 27.640625 41.28125 31.265625 
Q 36.765625 34.90625 28.71875 34.90625 
L 20.21875 34.90625 
L 20.21875 43.015625 
L 29.109375 43.015625 
Q 36.375 43.015625 40.234375 45.921875 
Q 44.09375 48.828125 44.09375 54.296875 
Q 44.09375 59.90625 40.109375 62.90625 
Q 36.140625 65.921875 28.71875 65.921875 
Q 24.65625 65.921875 20.015625 65.03125 
Q 15.375 64.15625 9.8125 62.3125 
L 9.8125 71.09375 
Q 15.4375 72.65625 20.34375 73.4375 
Q 25.25 74.21875 29.59375 74.21875 
Q 40.828125 74.21875 47.359375 69.109375 
Q 53.90625 64.015625 53.90625 55.328125 
Q 53.90625 49.265625 50.4375 45.09375 
Q 46.96875 40.921875 40.578125 39.3125 
z
" id="DejaVuSans-33"/>
      </defs>
      <g transform="translate(309.524822 322.182437)scale(0.1 -0.1)">
       <use xlink:href="#DejaVuSans-33"/>
       <use x="63.623047" xlink:href="#DejaVuSans-30"/>
       <use x="127.246094" xlink:href="#DejaVuSans-30"/>
       <use x="190.869141" xlink:href="#DejaVuSans-30"/>
       <use x="254.492188" xlink:href="#DejaVuSans-30"/>
      </g>
     </g>
    </g>
    <g id="xtick_8">
     <g id="line2d_15">
      <path clip-path="url(#p2c234b5661)" d="M 370.071072 307.584 
L 370.071072 41.472 
" style="fill:none;stroke:#b0b0b0;stroke-linecap:square;stroke-width:0.8;"/>
     </g>
     <g id="line2d_16">
      <g>
       <use style="stroke:#000000;stroke-width:0.8;" x="370.071072" xlink:href="#me777caf847" y="307.584"/>
      </g>
     </g>
     <g id="text_8">
      <!-- 35000 -->
      <g transform="translate(354.164822 322.182437)scale(0.1 -0.1)">
       <use xlink:href="#DejaVuSans-33"/>
       <use x="63.623047" xlink:href="#DejaVuSans-35"/>
       <use x="127.246094" xlink:href="#DejaVuSans-30"/>
       <use x="190.869141" xlink:href="#DejaVuSans-30"/>
       <use x="254.492188" xlink:href="#DejaVuSans-30"/>
      </g>
     </g>
    </g>
    <g id="xtick_9">
     <g id="line2d_17">
      <path clip-path="url(#p2c234b5661)" d="M 414.711072 307.584 
L 414.711072 41.472 
" style="fill:none;stroke:#b0b0b0;stroke-linecap:square;stroke-width:0.8;"/>
     </g>
     <g id="line2d_18">
      <g>
       <use style="stroke:#000000;stroke-width:0.8;" x="414.711072" xlink:href="#me777caf847" y="307.584"/>
      </g>
     </g>
     <g id="text_9">
      <!-- 40000 -->
      <defs>
       <path d="M 37.796875 64.3125 
L 12.890625 25.390625 
L 37.796875 25.390625 
z
M 35.203125 72.90625 
L 47.609375 72.90625 
L 47.609375 25.390625 
L 58.015625 25.390625 
L 58.015625 17.1875 
L 47.609375 17.1875 
L 47.609375 0 
L 37.796875 0 
L 37.796875 17.1875 
L 4.890625 17.1875 
L 4.890625 26.703125 
z
" id="DejaVuSans-34"/>
      </defs>
      <g transform="translate(398.804822 322.182437)scale(0.1 -0.1)">
       <use xlink:href="#DejaVuSans-34"/>
       <use x="63.623047" xlink:href="#DejaVuSans-30"/>
       <use x="127.246094" xlink:href="#DejaVuSans-30"/>
       <use x="190.869141" xlink:href="#DejaVuSans-30"/>
       <use x="254.492188" xlink:href="#DejaVuSans-30"/>
      </g>
     </g>
    </g>
    <g id="text_10">
     <!-- Lag -->
     <defs>
      <path d="M 9.8125 72.90625 
L 19.671875 72.90625 
L 19.671875 8.296875 
L 55.171875 8.296875 
L 55.171875 0 
L 9.8125 0 
z
" id="DejaVuSans-4c"/>
      <path d="M 34.28125 27.484375 
Q 23.390625 27.484375 19.1875 25 
Q 14.984375 22.515625 14.984375 16.5 
Q 14.984375 11.71875 18.140625 8.90625 
Q 21.296875 6.109375 26.703125 6.109375 
Q 34.1875 6.109375 38.703125 11.40625 
Q 43.21875 16.703125 43.21875 25.484375 
L 43.21875 27.484375 
z
M 52.203125 31.203125 
L 52.203125 0 
L 43.21875 0 
L 43.21875 8.296875 
Q 40.140625 3.328125 35.546875 0.953125 
Q 30.953125 -1.421875 24.3125 -1.421875 
Q 15.921875 -1.421875 10.953125 3.296875 
Q 6 8.015625 6 15.921875 
Q 6 25.140625 12.171875 29.828125 
Q 18.359375 34.515625 30.609375 34.515625 
L 43.21875 34.515625 
L 43.21875 35.40625 
Q 43.21875 41.609375 39.140625 45 
Q 35.0625 48.390625 27.6875 48.390625 
Q 23 48.390625 18.546875 47.265625 
Q 14.109375 46.140625 10.015625 43.890625 
L 10.015625 52.203125 
Q 14.9375 54.109375 19.578125 55.046875 
Q 24.21875 56 28.609375 56 
Q 40.484375 56 46.34375 49.84375 
Q 52.203125 43.703125 52.203125 31.203125 
z
" id="DejaVuSans-61"/>
      <path d="M 45.40625 27.984375 
Q 45.40625 37.75 41.375 43.109375 
Q 37.359375 48.484375 30.078125 48.484375 
Q 22.859375 48.484375 18.828125 43.109375 
Q 14.796875 37.75 14.796875 27.984375 
Q 14.796875 18.265625 18.828125 12.890625 
Q 22.859375 7.515625 30.078125 7.515625 
Q 37.359375 7.515625 41.375 12.890625 
Q 45.40625 18.265625 45.40625 27.984375 
z
M 54.390625 6.78125 
Q 54.390625 -7.171875 48.1875 -13.984375 
Q 42 -20.796875 29.203125 -20.796875 
Q 24.46875 -20.796875 20.265625 -20.09375 
Q 16.0625 -19.390625 12.109375 -17.921875 
L 12.109375 -9.1875 
Q 16.0625 -11.328125 19.921875 -12.34375 
Q 23.78125 -13.375 27.78125 -13.375 
Q 36.625 -13.375 41.015625 -8.765625 
Q 45.40625 -4.15625 45.40625 5.171875 
L 45.40625 9.625 
Q 42.625 4.78125 38.28125 2.390625 
Q 33.9375 0 27.875 0 
Q 17.828125 0 11.671875 7.65625 
Q 5.515625 15.328125 5.515625 27.984375 
Q 5.515625 40.671875 11.671875 48.328125 
Q 17.828125 56 27.875 56 
Q 33.9375 56 38.28125 53.609375 
Q 42.625 51.21875 45.40625 46.390625 
L 45.40625 54.6875 
L 54.390625 54.6875 
z
" id="DejaVuSans-67"/>
     </defs>
     <g transform="translate(227.135781 335.860562)scale(0.1 -0.1)">
      <use xlink:href="#DejaVuSans-4c"/>
      <use x="55.712891" xlink:href="#DejaVuSans-61"/>
      <use x="116.992188" xlink:href="#DejaVuSans-67"/>
     </g>
    </g>
   </g>
   <g id="matplotlib.axis_2">
    <g id="ytick_1">
     <g id="line2d_19">
      <path clip-path="url(#p2c234b5661)" d="M 57.6 307.584 
L 414.72 307.584 
" style="fill:none;stroke:#b0b0b0;stroke-linecap:square;stroke-width:0.8;"/>
     </g>
     <g id="line2d_20">
      <defs>
       <path d="M 0 0 
L -3.5 0 
" id="mcdd238a2de" style="stroke:#000000;stroke-width:0.8;"/>
      </defs>
      <g>
       <use style="stroke:#000000;stroke-width:0.8;" x="57.6" xlink:href="#mcdd238a2de" y="307.584"/>
      </g>
     </g>
     <g id="text_11">
      <!-- −1.00 -->
      <defs>
       <path d="M 10.59375 35.5 
L 73.1875 35.5 
L 73.1875 27.203125 
L 10.59375 27.203125 
z
" id="DejaVuSans-2212"/>
       <path d="M 10.6875 12.40625 
L 21 12.40625 
L 21 0 
L 10.6875 0 
z
" id="DejaVuSans-2e"/>
      </defs>
      <g transform="translate(19.954687 311.383219)scale(0.1 -0.1)">
       <use xlink:href="#DejaVuSans-2212"/>
       <use x="83.789062" xlink:href="#DejaVuSans-31"/>
       <use x="147.412109" xlink:href="#DejaVuSans-2e"/>
       <use x="179.199219" xlink:href="#DejaVuSans-30"/>
       <use x="242.822266" xlink:href="#DejaVuSans-30"/>
      </g>
     </g>
    </g>
    <g id="ytick_2">
     <g id="line2d_21">
      <path clip-path="url(#p2c234b5661)" d="M 57.6 274.32 
L 414.72 274.32 
" style="fill:none;stroke:#b0b0b0;stroke-linecap:square;stroke-width:0.8;"/>
     </g>
     <g id="line2d_22">
      <g>
       <use style="stroke:#000000;stroke-width:0.8;" x="57.6" xlink:href="#mcdd238a2de" y="274.32"/>
      </g>
     </g>
     <g id="text_12">
      <!-- −0.75 -->
      <defs>
       <path d="M 8.203125 72.90625 
L 55.078125 72.90625 
L 55.078125 68.703125 
L 28.609375 0 
L 18.3125 0 
L 43.21875 64.59375 
L 8.203125 64.59375 
z
" id="DejaVuSans-37"/>
      </defs>
      <g transform="translate(19.954687 278.119219)scale(0.1 -0.1)">
       <use xlink:href="#DejaVuSans-2212"/>
       <use x="83.789062" xlink:href="#DejaVuSans-30"/>
       <use x="147.412109" xlink:href="#DejaVuSans-2e"/>
       <use x="179.199219" xlink:href="#DejaVuSans-37"/>
       <use x="242.822266" xlink:href="#DejaVuSans-35"/>
      </g>
     </g>
    </g>
    <g id="ytick_3">
     <g id="line2d_23">
      <path clip-path="url(#p2c234b5661)" d="M 57.6 241.056 
L 414.72 241.056 
" style="fill:none;stroke:#b0b0b0;stroke-linecap:square;stroke-width:0.8;"/>
     </g>
     <g id="line2d_24">
      <g>
       <use style="stroke:#000000;stroke-width:0.8;" x="57.6" xlink:href="#mcdd238a2de" y="241.056"/>
      </g>
     </g>
     <g id="text_13">
      <!-- −0.50 -->
      <g transform="translate(19.954687 244.855219)scale(0.1 -0.1)">
       <use xlink:href="#DejaVuSans-2212"/>
       <use x="83.789062" xlink:href="#DejaVuSans-30"/>
       <use x="147.412109" xlink:href="#DejaVuSans-2e"/>
       <use x="179.199219" xlink:href="#DejaVuSans-35"/>
       <use x="242.822266" xlink:href="#DejaVuSans-30"/>
      </g>
     </g>
    </g>
    <g id="ytick_4">
     <g id="line2d_25">
      <path clip-path="url(#p2c234b5661)" d="M 57.6 207.792 
L 414.72 207.792 
" style="fill:none;stroke:#b0b0b0;stroke-linecap:square;stroke-width:0.8;"/>
     </g>
     <g id="line2d_26">
      <g>
       <use style="stroke:#000000;stroke-width:0.8;" x="57.6" xlink:href="#mcdd238a2de" y="207.792"/>
      </g>
     </g>
     <g id="text_14">
      <!-- −0.25 -->
      <g transform="translate(19.954687 211.591219)scale(0.1 -0.1)">
       <use xlink:href="#DejaVuSans-2212"/>
       <use x="83.789062" xlink:href="#DejaVuSans-30"/>
       <use x="147.412109" xlink:href="#DejaVuSans-2e"/>
       <use x="179.199219" xlink:href="#DejaVuSans-32"/>
       <use x="242.822266" xlink:href="#DejaVuSans-35"/>
      </g>
     </g>
    </g>
    <g id="ytick_5">
     <g id="line2d_27">
      <path clip-path="url(#p2c234b5661)" d="M 57.6 174.528 
L 414.72 174.528 
" style="fill:none;stroke:#b0b0b0;stroke-linecap:square;stroke-width:0.8;"/>
     </g>
     <g id="line2d_28">
      <g>
       <use style="stroke:#000000;stroke-width:0.8;" x="57.6" xlink:href="#mcdd238a2de" y="174.528"/>
      </g>
     </g>
     <g id="text_15">
      <!-- 0.00 -->
      <g transform="translate(28.334375 178.327219)scale(0.1 -0.1)">
       <use xlink:href="#DejaVuSans-30"/>
       <use x="63.623047" xlink:href="#DejaVuSans-2e"/>
       <use x="95.410156" xlink:href="#DejaVuSans-30"/>
       <use x="159.033203" xlink:href="#DejaVuSans-30"/>
      </g>
     </g>
    </g>
    <g id="ytick_6">
     <g id="line2d_29">
      <path clip-path="url(#p2c234b5661)" d="M 57.6 141.264 
L 414.72 141.264 
" style="fill:none;stroke:#b0b0b0;stroke-linecap:square;stroke-width:0.8;"/>
     </g>
     <g id="line2d_30">
      <g>
       <use style="stroke:#000000;stroke-width:0.8;" x="57.6" xlink:href="#mcdd238a2de" y="141.264"/>
      </g>
     </g>
     <g id="text_16">
      <!-- 0.25 -->
      <g transform="translate(28.334375 145.063219)scale(0.1 -0.1)">
       <use xlink:href="#DejaVuSans-30"/>
       <use x="63.623047" xlink:href="#DejaVuSans-2e"/>
       <use x="95.410156" xlink:href="#DejaVuSans-32"/>
       <use x="159.033203" xlink:href="#DejaVuSans-35"/>
      </g>
     </g>
    </g>
    <g id="ytick_7">
     <g id="line2d_31">
      <path clip-path="url(#p2c234b5661)" d="M 57.6 108 
L 414.72 108 
" style="fill:none;stroke:#b0b0b0;stroke-linecap:square;stroke-width:0.8;"/>
     </g>
     <g id="line2d_32">
      <g>
       <use style="stroke:#000000;stroke-width:0.8;" x="57.6" xlink:href="#mcdd238a2de" y="108"/>
      </g>
     </g>
     <g id="text_17">
      <!-- 0.50 -->
      <g transform="translate(28.334375 111.799219)scale(0.1 -0.1)">
       <use xlink:href="#DejaVuSans-30"/>
       <use x="63.623047" xlink:href="#DejaVuSans-2e"/>
       <use x="95.410156" xlink:href="#DejaVuSans-35"/>
       <use x="159.033203" xlink:href="#DejaVuSans-30"/>
      </g>
     </g>
    </g>
    <g id="ytick_8">
     <g id="line2d_33">
      <path clip-path="url(#p2c234b5661)" d="M 57.6 74.736 
L 414.72 74.736 
" style="fill:none;stroke:#b0b0b0;stroke-linecap:square;stroke-width:0.8;"/>
     </g>
     <g id="line2d_34">
      <g>
       <use style="stroke:#000000;stroke-width:0.8;" x="57.6" xlink:href="#mcdd238a2de" y="74.736"/>
      </g>
     </g>
     <g id="text_18">
      <!-- 0.75 -->
      <g transform="translate(28.334375 78.535219)scale(0.1 -0.1)">
       <use xlink:href="#DejaVuSans-30"/>
       <use x="63.623047" xlink:href="#DejaVuSans-2e"/>
       <use x="95.410156" xlink:href="#DejaVuSans-37"/>
       <use x="159.033203" xlink:href="#DejaVuSans-35"/>
      </g>
     </g>
    </g>
    <g id="ytick_9">
     <g id="line2d_35">
      <path clip-path="url(#p2c234b5661)" d="M 57.6 41.472 
L 414.72 41.472 
" style="fill:none;stroke:#b0b0b0;stroke-linecap:square;stroke-width:0.8;"/>
     </g>
     <g id="line2d_36">
      <g>
       <use style="stroke:#000000;stroke-width:0.8;" x="57.6" xlink:href="#mcdd238a2de" y="41.472"/>
      </g>
     </g>
     <g id="text_19">
      <!-- 1.00 -->
      <g transform="translate(28.334375 45.271219)scale(0.1 -0.1)">
       <use xlink:href="#DejaVuSans-31"/>
       <use x="63.623047" xlink:href="#DejaVuSans-2e"/>
       <use x="95.410156" xlink:href="#DejaVuSans-30"/>
       <use x="159.033203" xlink:href="#DejaVuSans-30"/>
      </g>
     </g>
    </g>
    <g id="text_20">
     <!-- Autocorrelation -->
     <defs>
      <path d="M 34.1875 63.1875 
L 20.796875 26.90625 
L 47.609375 26.90625 
z
M 28.609375 72.90625 
L 39.796875 72.90625 
L 67.578125 0 
L 57.328125 0 
L 50.6875 18.703125 
L 17.828125 18.703125 
L 11.1875 0 
L 0.78125 0 
z
" id="DejaVuSans-41"/>
      <path d="M 8.5 21.578125 
L 8.5 54.6875 
L 17.484375 54.6875 
L 17.484375 21.921875 
Q 17.484375 14.15625 20.5 10.265625 
Q 23.53125 6.390625 29.59375 6.390625 
Q 36.859375 6.390625 41.078125 11.03125 
Q 45.3125 15.671875 45.3125 23.6875 
L 45.3125 54.6875 
L 54.296875 54.6875 
L 54.296875 0 
L 45.3125 0 
L 45.3125 8.40625 
Q 42.046875 3.421875 37.71875 1 
Q 33.40625 -1.421875 27.6875 -1.421875 
Q 18.265625 -1.421875 13.375 4.4375 
Q 8.5 10.296875 8.5 21.578125 
z
M 31.109375 56 
z
" id="DejaVuSans-75"/>
      <path d="M 18.3125 70.21875 
L 18.3125 54.6875 
L 36.8125 54.6875 
L 36.8125 47.703125 
L 18.3125 47.703125 
L 18.3125 18.015625 
Q 18.3125 11.328125 20.140625 9.421875 
Q 21.96875 7.515625 27.59375 7.515625 
L 36.8125 7.515625 
L 36.8125 0 
L 27.59375 0 
Q 17.1875 0 13.234375 3.875 
Q 9.28125 7.765625 9.28125 18.015625 
L 9.28125 47.703125 
L 2.6875 47.703125 
L 2.6875 54.6875 
L 9.28125 54.6875 
L 9.28125 70.21875 
z
" id="DejaVuSans-74"/>
      <path d="M 30.609375 48.390625 
Q 23.390625 48.390625 19.1875 42.75 
Q 14.984375 37.109375 14.984375 27.296875 
Q 14.984375 17.484375 19.15625 11.84375 
Q 23.34375 6.203125 30.609375 6.203125 
Q 37.796875 6.203125 41.984375 11.859375 
Q 46.1875 17.53125 46.1875 27.296875 
Q 46.1875 37.015625 41.984375 42.703125 
Q 37.796875 48.390625 30.609375 48.390625 
z
M 30.609375 56 
Q 42.328125 56 49.015625 48.375 
Q 55.71875 40.765625 55.71875 27.296875 
Q 55.71875 13.875 49.015625 6.21875 
Q 42.328125 -1.421875 30.609375 -1.421875 
Q 18.84375 -1.421875 12.171875 6.21875 
Q 5.515625 13.875 5.515625 27.296875 
Q 5.515625 40.765625 12.171875 48.375 
Q 18.84375 56 30.609375 56 
z
" id="DejaVuSans-6f"/>
      <path d="M 48.78125 52.59375 
L 48.78125 44.1875 
Q 44.96875 46.296875 41.140625 47.34375 
Q 37.3125 48.390625 33.40625 48.390625 
Q 24.65625 48.390625 19.8125 42.84375 
Q 14.984375 37.3125 14.984375 27.296875 
Q 14.984375 17.28125 19.8125 11.734375 
Q 24.65625 6.203125 33.40625 6.203125 
Q 37.3125 6.203125 41.140625 7.25 
Q 44.96875 8.296875 48.78125 10.40625 
L 48.78125 2.09375 
Q 45.015625 0.34375 40.984375 -0.53125 
Q 36.96875 -1.421875 32.421875 -1.421875 
Q 20.0625 -1.421875 12.78125 6.34375 
Q 5.515625 14.109375 5.515625 27.296875 
Q 5.515625 40.671875 12.859375 48.328125 
Q 20.21875 56 33.015625 56 
Q 37.15625 56 41.109375 55.140625 
Q 45.0625 54.296875 48.78125 52.59375 
z
" id="DejaVuSans-63"/>
      <path d="M 41.109375 46.296875 
Q 39.59375 47.171875 37.8125 47.578125 
Q 36.03125 48 33.890625 48 
Q 26.265625 48 22.1875 43.046875 
Q 18.109375 38.09375 18.109375 28.8125 
L 18.109375 0 
L 9.078125 0 
L 9.078125 54.6875 
L 18.109375 54.6875 
L 18.109375 46.1875 
Q 20.953125 51.171875 25.484375 53.578125 
Q 30.03125 56 36.53125 56 
Q 37.453125 56 38.578125 55.875 
Q 39.703125 55.765625 41.0625 55.515625 
z
" id="DejaVuSans-72"/>
      <path d="M 56.203125 29.59375 
L 56.203125 25.203125 
L 14.890625 25.203125 
Q 15.484375 15.921875 20.484375 11.0625 
Q 25.484375 6.203125 34.421875 6.203125 
Q 39.59375 6.203125 44.453125 7.46875 
Q 49.3125 8.734375 54.109375 11.28125 
L 54.109375 2.78125 
Q 49.265625 0.734375 44.1875 -0.34375 
Q 39.109375 -1.421875 33.890625 -1.421875 
Q 20.796875 -1.421875 13.15625 6.1875 
Q 5.515625 13.8125 5.515625 26.8125 
Q 5.515625 40.234375 12.765625 48.109375 
Q 20.015625 56 32.328125 56 
Q 43.359375 56 49.78125 48.890625 
Q 56.203125 41.796875 56.203125 29.59375 
z
M 47.21875 32.234375 
Q 47.125 39.59375 43.09375 43.984375 
Q 39.0625 48.390625 32.421875 48.390625 
Q 24.90625 48.390625 20.390625 44.140625 
Q 15.875 39.890625 15.1875 32.171875 
z
" id="DejaVuSans-65"/>
      <path d="M 9.421875 75.984375 
L 18.40625 75.984375 
L 18.40625 0 
L 9.421875 0 
z
" id="DejaVuSans-6c"/>
      <path d="M 9.421875 54.6875 
L 18.40625 54.6875 
L 18.40625 0 
L 9.421875 0 
z
M 9.421875 75.984375 
L 18.40625 75.984375 
L 18.40625 64.59375 
L 9.421875 64.59375 
z
" id="DejaVuSans-69"/>
      <path d="M 54.890625 33.015625 
L 54.890625 0 
L 45.90625 0 
L 45.90625 32.71875 
Q 45.90625 40.484375 42.875 44.328125 
Q 39.84375 48.1875 33.796875 48.1875 
Q 26.515625 48.1875 22.3125 43.546875 
Q 18.109375 38.921875 18.109375 30.90625 
L 18.109375 0 
L 9.078125 0 
L 9.078125 54.6875 
L 18.109375 54.6875 
L 18.109375 46.1875 
Q 21.34375 51.125 25.703125 53.5625 
Q 30.078125 56 35.796875 56 
Q 45.21875 56 50.046875 50.171875 
Q 54.890625 44.34375 54.890625 33.015625 
z
" id="DejaVuSans-6e"/>
     </defs>
     <g transform="translate(13.875 213.160812)rotate(-90)scale(0.1 -0.1)">
      <use xlink:href="#DejaVuSans-41"/>
      <use x="68.408203" xlink:href="#DejaVuSans-75"/>
      <use x="131.787109" xlink:href="#DejaVuSans-74"/>
      <use x="170.996094" xlink:href="#DejaVuSans-6f"/>
      <use x="232.177734" xlink:href="#DejaVuSans-63"/>
      <use x="287.158203" xlink:href="#DejaVuSans-6f"/>
      <use x="348.339844" xlink:href="#DejaVuSans-72"/>
      <use x="389.4375" xlink:href="#DejaVuSans-72"/>
      <use x="430.519531" xlink:href="#DejaVuSans-65"/>
      <use x="492.042969" xlink:href="#DejaVuSans-6c"/>
      <use x="519.826172" xlink:href="#DejaVuSans-61"/>
      <use x="581.105469" xlink:href="#DejaVuSans-74"/>
      <use x="620.314453" xlink:href="#DejaVuSans-69"/>
      <use x="648.097656" xlink:href="#DejaVuSans-6f"/>
      <use x="709.279297" xlink:href="#DejaVuSans-6e"/>
     </g>
    </g>
   </g>
   <g id="line2d_37">
    <path clip-path="url(#p2c234b5661)" d="M 57.6 172.814374 
L 414.72 172.814374 
" style="fill:none;stroke:#808080;stroke-dasharray:5.55,2.4;stroke-dashoffset:0;stroke-width:1.5;"/>
   </g>
   <g id="line2d_38">
    <path clip-path="url(#p2c234b5661)" d="M 57.6 173.224091 
L 414.72 173.224091 
" style="fill:none;stroke:#808080;stroke-linecap:square;stroke-width:1.5;"/>
   </g>
   <g id="line2d_39">
    <path clip-path="url(#p2c234b5661)" d="M 57.6 174.528 
L 414.72 174.528 
" style="fill:none;stroke:#000000;stroke-linecap:square;stroke-width:1.5;"/>
   </g>
   <g id="line2d_40">
    <path clip-path="url(#p2c234b5661)" d="M 57.6 175.831909 
L 414.72 175.831909 
" style="fill:none;stroke:#808080;stroke-linecap:square;stroke-width:1.5;"/>
   </g>
   <g id="line2d_41">
    <path clip-path="url(#p2c234b5661)" d="M 57.6 176.241626 
L 414.72 176.241626 
" style="fill:none;stroke:#808080;stroke-dasharray:5.55,2.4;stroke-dashoffset:0;stroke-width:1.5;"/>
   </g>
   <g id="line2d_42">
    <path clip-path="url(#p2c234b5661)" d="M 57.6 41.567065 
L 57.903552 46.006646 
L 58.4928 58.512559 
L 60.840864 109.700221 
L 62.385408 135.407315 
L 63.251424 147.008027 
L 64.581696 160.822851 
L 65.911968 171.953493 
L 66.920832 178.456347 
L 67.55472 180.921218 
L 68.04576 183.11414 
L 69.47424 190.302291 
L 69.884928 191.10392 
L 70.125984 191.189255 
L 70.242048 191.062971 
L 70.795584 189.717878 
L 71.447328 187.065777 
L 72.402624 182.952007 
L 73.206144 179.954459 
L 73.911456 177.301894 
L 74.857824 175.482575 
L 76.107744 174.238306 
L 77.009472 172.811971 
L 77.95584 173.031425 
L 78.286176 173.10548 
L 78.53616 173.448849 
L 79.795008 175.569464 
L 79.973568 175.435566 
L 80.482464 174.605934 
L 81.027072 172.761681 
L 82.178784 168.479759 
L 82.884096 166.514761 
L 83.232288 166.155854 
L 83.910816 166.079642 
L 84.134016 166.624884 
L 85.392864 171.294703 
L 88.749792 185.258042 
L 90.99072 192.410438 
L 91.812096 192.921508 
L 92.06208 192.912585 
L 92.356704 192.552077 
L 92.73168 192.136348 
L 93.115584 192.387811 
L 93.660192 192.656681 
L 93.972672 192.759887 
L 94.6512 193.315379 
L 95.258304 193.509045 
L 96.061824 192.860802 
L 96.30288 192.427201 
L 96.97248 190.803776 
L 98.365248 186.24101 
L 99.615168 181.988372 
L 100.043712 181.51212 
L 100.570464 181.465434 
L 100.999008 181.451054 
L 101.329344 181.307083 
L 101.722176 180.91525 
L 102.10608 180.075053 
L 102.650688 178.25019 
L 103.007808 177.371933 
L 103.320288 177.008471 
L 103.775616 177.217807 
L 104.891616 178.555908 
L 105.293376 179.116876 
L 105.927264 179.925856 
L 106.320096 180.516263 
L 106.730784 180.868317 
L 106.936128 180.714704 
L 107.168256 180.288337 
L 108.525312 176.732829 
L 109.400256 173.819546 
L 109.775232 173.105335 
L 109.998432 173.046402 
L 110.150208 173.168464 
L 110.426976 173.710393 
L 112.096512 178.221544 
L 112.480416 178.657723 
L 112.828608 178.76747 
L 113.025024 178.626442 
L 113.337504 178.443012 
L 113.542848 178.587157 
L 113.80176 179.006456 
L 114.47136 180.669712 
L 114.980256 182.026479 
L 115.480224 182.884436 
L 116.024832 183.356196 
L 117.274752 184.25525 
L 117.50688 184.334416 
L 118.158624 184.695877 
L 118.453248 184.998312 
L 118.80144 185.610733 
L 119.283552 186.664306 
L 120.024576 188.09969 
L 120.533472 188.855599 
L 120.926304 189.757981 
L 122.801184 195.50294 
L 122.979744 195.525855 
L 123.327936 195.120772 
L 124.077888 193.351414 
L 124.7832 190.531929 
L 125.434944 187.942202 
L 126.890208 183.158303 
L 127.658016 179.808986 
L 129.60432 171.234359 
L 130.157856 170.326166 
L 130.461408 169.975059 
L 130.756032 169.980738 
L 130.952448 170.233446 
L 131.907744 171.517636 
L 132.139872 171.482466 
L 132.586272 171.36332 
L 132.898752 170.810248 
L 133.30944 169.595435 
L 134.487936 165.434016 
L 136.862784 158.963593 
L 137.264544 158.890807 
L 138.04128 159.311945 
L 138.389472 159.75479 
L 138.93408 160.964134 
L 139.630464 162.430865 
L 140.326848 163.558775 
L 142.28208 166.32489 
L 142.59456 166.43257 
L 142.90704 166.131859 
L 143.17488 165.514043 
L 143.496288 164.272807 
L 144.183744 160.32847 
L 145.014048 155.846784 
L 145.371168 154.95749 
L 145.67472 154.664859 
L 146.12112 154.716542 
L 146.397888 154.989655 
L 146.915712 155.274052 
L 147.076416 155.112704 
L 147.424608 154.673209 
L 147.790656 153.910492 
L 148.549536 152.414569 
L 148.79952 152.246661 
L 149.20128 152.219835 
L 149.978016 152.38916 
L 150.370848 152.794683 
L 150.817248 153.055736 
L 151.344 153.075289 
L 151.602912 153.377788 
L 151.87968 153.991281 
L 152.611776 155.595164 
L 153.192096 156.839485 
L 153.97776 158.576335 
L 154.415232 159.258955 
L 155.281248 160.313724 
L 155.531232 160.862723 
L 155.950848 162.50411 
L 156.495456 165.734855 
L 158.4864 177.674055 
L 159.754176 183.025278 
L 160.245216 184.300243 
L 160.67376 184.720562 
L 161.12016 184.843975 
L 161.316576 184.630243 
L 161.629056 183.997675 
L 163.780704 177.726327 
L 164.271744 177.178156 
L 164.834208 176.619888 
L 165.13776 176.579713 
L 165.852 176.709208 
L 166.664448 178.149382 
L 168.12864 180.813025 
L 168.494688 180.626794 
L 170.110656 179.063571 
L 170.565984 177.96407 
L 171.824832 174.15943 
L 172.797984 170.602972 
L 173.297952 169.615135 
L 173.699712 169.346102 
L 174.315744 169.43898 
L 175.012128 170.039704 
L 175.699584 170.552616 
L 176.217408 170.703504 
L 176.913792 171.113829 
L 177.172704 171.36987 
L 177.9048 172.158494 
L 178.21728 172.438727 
L 178.5744 172.761758 
L 178.922592 172.951105 
L 179.386848 173.496449 
L 179.82432 173.939165 
L 180.922464 174.281718 
L 181.484928 174.246006 
L 181.717056 174.618839 
L 182.699136 176.255083 
L 183.020544 176.465693 
L 183.832992 176.677412 
L 184.475808 177.222208 
L 184.797216 177.293482 
L 185.073984 177.175852 
L 185.466816 177.040782 
L 185.957856 176.84169 
L 186.198912 176.487244 
L 186.547104 176.162352 
L 187.645248 175.455923 
L 188.689824 175.624568 
L 189.055872 175.634005 
L 189.707616 175.327233 
L 190.216512 175.084471 
L 191.332512 175.099581 
L 191.582496 174.846021 
L 191.957472 174.565911 
L 192.45744 174.361975 
L 193.457376 173.505352 
L 193.734144 173.474589 
L 194.162688 173.836871 
L 194.448384 174.427276 
L 194.992992 175.166229 
L 195.430464 175.824069 
L 195.751872 176.140157 
L 196.16256 176.180354 
L 196.4304 175.945189 
L 196.760736 175.37837 
L 197.403552 173.776587 
L 198.162432 172.074412 
L 198.457056 171.839577 
L 198.715968 171.905476 
L 199.314144 172.336413 
L 200.903328 172.107458 
L 201.858624 172.878453 
L 202.251456 172.861981 
L 202.787136 172.628216 
L 203.010336 172.29783 
L 203.52816 170.887089 
L 204.403104 168.062584 
L 204.662016 167.814108 
L 204.938784 167.947241 
L 205.188768 168.329313 
L 205.778016 169.742374 
L 206.313696 171.549023 
L 207.474336 175.841835 
L 209.625984 182.651145 
L 210.2688 184.560219 
L 210.590208 184.976886 
L 210.875904 185.130888 
L 211.47408 185.170694 
L 211.92048 184.562375 
L 212.509728 183.216064 
L 214.33104 178.835939 
L 214.545312 178.707282 
L 214.795296 178.807145 
L 215.197056 179.306132 
L 216.02736 181.446738 
L 218.812896 190.11121 
L 220.214592 193.946273 
L 221.089536 195.087112 
L 221.803776 195.483443 
L 222.026976 195.357443 
L 222.384096 194.819631 
L 223.017984 193.108896 
L 224.616096 187.61791 
L 225.151776 186.313521 
L 225.4464 186.030401 
L 225.651744 185.852944 
L 226.16064 185.504216 
L 226.365984 185.300219 
L 226.678464 184.713021 
L 228.74976 179.77336 
L 229.33008 179.185005 
L 229.6872 178.675908 
L 230.213952 177.215438 
L 231.169248 173.781798 
L 231.981696 170.804271 
L 232.606656 168.85876 
L 233.195904 167.262302 
L 233.811936 165.824471 
L 235.463616 163.270922 
L 235.84752 163.072242 
L 236.29392 162.92762 
L 237.151008 162.993511 
L 237.427776 163.237536 
L 237.9456 163.830073 
L 238.356288 163.887601 
L 239.01696 163.675713 
L 239.570496 163.244869 
L 240.26688 162.784946 
L 240.677568 163.038075 
L 243.052416 165.554378 
L 245.864736 170.616737 
L 246.346848 171.60205 
L 246.91824 173.146439 
L 248.543136 178.337026 
L 248.953824 178.949862 
L 249.177024 178.943814 
L 249.605568 178.708534 
L 250.248384 178.565507 
L 250.944768 178.830484 
L 251.65008 179.681698 
L 252.730368 180.63181 
L 253.667808 181.214497 
L 253.92672 181.04189 
L 254.560608 180.310949 
L 255.658752 178.743186 
L 257.247936 175.139944 
L 257.67648 174.840555 
L 258.230016 174.644203 
L 258.604992 174.151977 
L 259.453152 172.67528 
L 260.881632 168.898584 
L 261.060192 169.001677 
L 262.917216 171.238619 
L 263.363616 171.23365 
L 263.6136 171.044246 
L 264.095712 170.470015 
L 264.46176 169.774138 
L 265.71168 167.148611 
L 266.095584 166.800945 
L 266.595552 166.774132 
L 266.809824 167.03952 
L 267.193728 167.864695 
L 267.961536 169.513813 
L 268.61328 171.21063 
L 269.72928 174.118033 
L 270.104256 174.517585 
L 270.425664 174.570071 
L 271.130976 174.642253 
L 271.755936 175.305038 
L 272.327328 176.508222 
L 273.586176 179.87917 
L 274.077216 180.491764 
L 274.657536 181.000333 
L 275.014656 180.904137 
L 275.407488 180.765752 
L 275.719968 180.415194 
L 276.005664 179.780204 
L 276.69312 177.657828 
L 277.425216 175.7029 
L 278.201952 174.305786 
L 278.83584 173.585659 
L 281.487456 167.947282 
L 281.764224 167.761053 
L 282.201696 167.85415 
L 282.933792 168.273475 
L 283.219488 168.328017 
L 283.558752 168.146367 
L 283.906944 167.723483 
L 284.603328 166.407287 
L 285.272928 165.291123 
L 285.683616 164.993962 
L 286.058592 165.031883 
L 286.388928 165.338246 
L 287.103168 166.328803 
L 287.817408 168.123254 
L 289.156608 171.572409 
L 290.076192 173.166837 
L 290.469024 173.422891 
L 290.736864 173.410885 
L 291.049344 173.141343 
L 291.727872 172.129518 
L 292.299264 171.185748 
L 292.647456 171.087005 
L 293.200992 171.400101 
L 294.192 172.426908 
L 294.59376 172.47096 
L 294.99552 172.45897 
L 295.468704 172.389551 
L 295.781184 172.451355 
L 296.147232 172.914199 
L 296.60256 174.028532 
L 297.370368 176.63404 
L 299.68272 184.900478 
L 300.405888 186.101754 
L 301.271904 187.193652 
L 301.548672 187.306257 
L 302.62896 186.929551 
L 303.12 186.566922 
L 303.780672 186.18651 
L 305.646624 184.473968 
L 306.325152 183.502002 
L 306.967968 182.970312 
L 307.512576 182.616924 
L 308.003616 182.322226 
L 308.485728 182.021464 
L 309.226752 180.975475 
L 309.869568 179.6961 
L 310.458816 177.551173 
L 311.28912 174.927073 
L 311.967648 173.438815 
L 312.36048 173.055551 
L 312.815808 172.968926 
L 313.155072 173.134431 
L 313.485408 173.603025 
L 313.905024 174.506082 
L 314.32464 175.868121 
L 315.199584 178.653677 
L 316.11024 180.927669 
L 316.770912 182.019546 
L 317.190528 182.492944 
L 317.458368 182.569029 
L 317.744064 182.413317 
L 318.226176 181.697088 
L 319.68144 179.499257 
L 320.234976 178.97318 
L 320.57424 178.314772 
L 322.00272 175.26156 
L 322.350912 175.082527 
L 322.797312 175.174776 
L 323.25264 175.256399 
L 323.752608 175.296747 
L 324.484704 175.565395 
L 326.011392 175.436371 
L 326.886336 174.953778 
L 327.395232 174.706392 
L 328.127328 174.333281 
L 328.948704 173.552114 
L 329.404032 173.069128 
L 329.600448 173.108675 
L 330.725376 174.095774 
L 331.671744 175.097533 
L 332.53776 175.587561 
L 332.832384 175.867433 
L 334.287648 177.599074 
L 334.787616 177.74573 
L 335.501856 177.721822 
L 336.117888 177.915213 
L 336.528576 177.884382 
L 337.9392 177.416149 
L 338.287392 177.311358 
L 339.224832 177.795467 
L 339.59088 178.156054 
L 340.08192 178.98086 
L 341.581824 182.061358 
L 342.421056 183.281549 
L 343.179936 183.696274 
L 344.287008 184.172451 
L 345.983328 184.252413 
L 346.224384 184.036653 
L 346.590432 183.322606 
L 348.96528 178.563047 
L 349.474176 178.033637 
L 350.52768 176.872373 
L 351.402624 174.873937 
L 352.411488 172.664954 
L 352.902528 171.958233 
L 353.286432 171.771938 
L 353.679264 171.830517 
L 354.134592 172.140992 
L 354.777408 173.011623 
L 356.348736 175.8813 
L 357.250464 177.516297 
L 357.768288 177.92674 
L 358.089696 177.900686 
L 359.286048 177.659532 
L 360.152064 177.979889 
L 361.303776 177.826857 
L 361.830528 177.845929 
L 362.562624 177.854503 
L 362.919744 177.709832 
L 363.29472 177.297522 
L 363.821472 176.754836 
L 364.642848 176.252589 
L 365.08032 176.243627 
L 365.919552 176.269078 
L 366.249888 176.391295 
L 368.133696 177.334904 
L 368.499744 177.502908 
L 370.160352 178.916673 
L 370.624608 179.146357 
L 370.990656 179.132501 
L 371.50848 178.807856 
L 372.749472 177.501022 
L 373.981536 176.79007 
L 374.517216 176.667096 
L 375.017184 176.665803 
L 376.677792 176.915448 
L 377.034912 176.689755 
L 378.47232 175.600879 
L 378.909792 175.438542 
L 379.624032 174.800376 
L 380.543616 174.126797 
L 381.704256 173.906557 
L 382.93632 173.192727 
L 383.713056 173.243506 
L 384.54336 173.621828 
L 385.721856 173.87053 
L 386.95392 174.589507 
L 388.819872 175.449629 
L 389.45376 175.391602 
L 390.203712 175.198819 
L 391.355424 174.874509 
L 392.239296 174.148517 
L 392.989248 173.612654 
L 394.033824 173.155764 
L 394.560576 173.168838 
L 395.25696 173.477506 
L 395.819424 174.086123 
L 396.50688 174.637951 
L 396.988992 174.784448 
L 397.48896 174.771562 
L 399.524544 174.286495 
L 402.926112 174.310963 
L 404.292096 174.204922 
L 405.1224 174.342592 
L 405.756288 174.234649 
L 407.238336 173.879374 
L 408.461472 174.020013 
L 409.881024 174.350199 
L 411.19344 174.411936 
L 413.309376 174.424442 
L 414.72 174.528 
L 414.72 174.528 
" style="fill:none;stroke:#1f77b4;stroke-linecap:square;stroke-width:1.5;"/>
   </g>
   <g id="patch_3">
    <path d="M 57.6 307.584 
L 57.6 41.472 
" style="fill:none;stroke:#000000;stroke-linecap:square;stroke-linejoin:miter;stroke-width:0.8;"/>
   </g>
   <g id="patch_4">
    <path d="M 414.72 307.584 
L 414.72 41.472 
" style="fill:none;stroke:#000000;stroke-linecap:square;stroke-linejoin:miter;stroke-width:0.8;"/>
   </g>
   <g id="patch_5">
    <path d="M 57.6 307.584 
L 414.72 307.584 
" style="fill:none;stroke:#000000;stroke-linecap:square;stroke-linejoin:miter;stroke-width:0.8;"/>
   </g>
   <g id="patch_6">
    <path d="M 57.6 41.472 
L 414.72 41.472 
" style="fill:none;stroke:#000000;stroke-linecap:square;stroke-linejoin:miter;stroke-width:0.8;"/>
   </g>
  </g>
 </g>
 <defs>
  <clipPath id="p2c234b5661">
   <rect height="266.112" width="357.12" x="57.6" y="41.472"/>
  </clipPath>
 </defs>
</svg>
