<?xml version="1.0" encoding="utf-8" standalone="no"?>
<!DOCTYPE svg PUBLIC "-//W3C//DTD SVG 1.1//EN"
  "http://www.w3.org/Graphics/SVG/1.1/DTD/svg11.dtd">
<!-- Created with matplotlib (http://matplotlib.org/) -->
<svg height="345.6pt" version="1.1" viewBox="0 0 460.8 345.6" width="460.8pt" xmlns="http://www.w3.org/2000/svg" xmlns:xlink="http://www.w3.org/1999/xlink">
 <defs>
  <style type="text/css">
*{stroke-linecap:butt;stroke-linejoin:round;}
  </style>
 </defs>
 <g id="figure_1">
  <g id="patch_1">
   <path d="M 0 345.6 
L 460.8 345.6 
L 460.8 0 
L 0 0 
z
" style="fill:#ffffff;"/>
  </g>
  <g id="axes_1">
   <g id="patch_2">
    <path d="M 57.6 162.432 
L 414.72 162.432 
L 414.72 41.472 
L 57.6 41.472 
z
" style="fill:#ffffff;"/>
   </g>
   <g id="matplotlib.axis_1">
    <g id="xtick_1">
     <g id="line2d_1">
      <defs>
       <path d="M 0 0 
L 0 3.5 
" id="mf22ac88646" style="stroke:#000000;stroke-width:0.8;"/>
      </defs>
      <g>
       <use style="stroke:#000000;stroke-width:0.8;" x="73.832727" xlink:href="#mf22ac88646" y="162.432"/>
      </g>
     </g>
     <g id="text_1">
      <!-- 0 -->
      <defs>
       <path d="M 31.78125 66.40625 
Q 24.171875 66.40625 20.328125 58.90625 
Q 16.5 51.421875 16.5 36.375 
Q 16.5 21.390625 20.328125 13.890625 
Q 24.171875 6.390625 31.78125 6.390625 
Q 39.453125 6.390625 43.28125 13.890625 
Q 47.125 21.390625 47.125 36.375 
Q 47.125 51.421875 43.28125 58.90625 
Q 39.453125 66.40625 31.78125 66.40625 
z
M 31.78125 74.21875 
Q 44.046875 74.21875 50.515625 64.515625 
Q 56.984375 54.828125 56.984375 36.375 
Q 56.984375 17.96875 50.515625 8.265625 
Q 44.046875 -1.421875 31.78125 -1.421875 
Q 19.53125 -1.421875 13.0625 8.265625 
Q 6.59375 17.96875 6.59375 36.375 
Q 6.59375 54.828125 13.0625 64.515625 
Q 19.53125 74.21875 31.78125 74.21875 
z
" id="DejaVuSans-30"/>
      </defs>
      <g transform="translate(70.651477 177.030437)scale(0.1 -0.1)">
       <use xlink:href="#DejaVuSans-30"/>
      </g>
     </g>
    </g>
    <g id="xtick_2">
     <g id="line2d_2">
      <g>
       <use style="stroke:#000000;stroke-width:0.8;" x="138.763636" xlink:href="#mf22ac88646" y="162.432"/>
      </g>
     </g>
     <g id="text_2">
      <!-- 10000 -->
      <defs>
       <path d="M 12.40625 8.296875 
L 28.515625 8.296875 
L 28.515625 63.921875 
L 10.984375 60.40625 
L 10.984375 69.390625 
L 28.421875 72.90625 
L 38.28125 72.90625 
L 38.28125 8.296875 
L 54.390625 8.296875 
L 54.390625 0 
L 12.40625 0 
z
" id="DejaVuSans-31"/>
      </defs>
      <g transform="translate(122.857386 177.030437)scale(0.1 -0.1)">
       <use xlink:href="#DejaVuSans-31"/>
       <use x="63.623047" xlink:href="#DejaVuSans-30"/>
       <use x="127.246094" xlink:href="#DejaVuSans-30"/>
       <use x="190.869141" xlink:href="#DejaVuSans-30"/>
       <use x="254.492188" xlink:href="#DejaVuSans-30"/>
      </g>
     </g>
    </g>
    <g id="xtick_3">
     <g id="line2d_3">
      <g>
       <use style="stroke:#000000;stroke-width:0.8;" x="203.694545" xlink:href="#mf22ac88646" y="162.432"/>
      </g>
     </g>
     <g id="text_3">
      <!-- 20000 -->
      <defs>
       <path d="M 19.1875 8.296875 
L 53.609375 8.296875 
L 53.609375 0 
L 7.328125 0 
L 7.328125 8.296875 
Q 12.9375 14.109375 22.625 23.890625 
Q 32.328125 33.6875 34.8125 36.53125 
Q 39.546875 41.84375 41.421875 45.53125 
Q 43.3125 49.21875 43.3125 52.78125 
Q 43.3125 58.59375 39.234375 62.25 
Q 35.15625 65.921875 28.609375 65.921875 
Q 23.96875 65.921875 18.8125 64.3125 
Q 13.671875 62.703125 7.8125 59.421875 
L 7.8125 69.390625 
Q 13.765625 71.78125 18.9375 73 
Q 24.125 74.21875 28.421875 74.21875 
Q 39.75 74.21875 46.484375 68.546875 
Q 53.21875 62.890625 53.21875 53.421875 
Q 53.21875 48.921875 51.53125 44.890625 
Q 49.859375 40.875 45.40625 35.40625 
Q 44.1875 33.984375 37.640625 27.21875 
Q 31.109375 20.453125 19.1875 8.296875 
z
" id="DejaVuSans-32"/>
      </defs>
      <g transform="translate(187.788295 177.030437)scale(0.1 -0.1)">
       <use xlink:href="#DejaVuSans-32"/>
       <use x="63.623047" xlink:href="#DejaVuSans-30"/>
       <use x="127.246094" xlink:href="#DejaVuSans-30"/>
       <use x="190.869141" xlink:href="#DejaVuSans-30"/>
       <use x="254.492188" xlink:href="#DejaVuSans-30"/>
      </g>
     </g>
    </g>
    <g id="xtick_4">
     <g id="line2d_4">
      <g>
       <use style="stroke:#000000;stroke-width:0.8;" x="268.625455" xlink:href="#mf22ac88646" y="162.432"/>
      </g>
     </g>
     <g id="text_4">
      <!-- 30000 -->
      <defs>
       <path d="M 40.578125 39.3125 
Q 47.65625 37.796875 51.625 33 
Q 55.609375 28.21875 55.609375 21.1875 
Q 55.609375 10.40625 48.1875 4.484375 
Q 40.765625 -1.421875 27.09375 -1.421875 
Q 22.515625 -1.421875 17.65625 -0.515625 
Q 12.796875 0.390625 7.625 2.203125 
L 7.625 11.71875 
Q 11.71875 9.328125 16.59375 8.109375 
Q 21.484375 6.890625 26.8125 6.890625 
Q 36.078125 6.890625 40.9375 10.546875 
Q 45.796875 14.203125 45.796875 21.1875 
Q 45.796875 27.640625 41.28125 31.265625 
Q 36.765625 34.90625 28.71875 34.90625 
L 20.21875 34.90625 
L 20.21875 43.015625 
L 29.109375 43.015625 
Q 36.375 43.015625 40.234375 45.921875 
Q 44.09375 48.828125 44.09375 54.296875 
Q 44.09375 59.90625 40.109375 62.90625 
Q 36.140625 65.921875 28.71875 65.921875 
Q 24.65625 65.921875 20.015625 65.03125 
Q 15.375 64.15625 9.8125 62.3125 
L 9.8125 71.09375 
Q 15.4375 72.65625 20.34375 73.4375 
Q 25.25 74.21875 29.59375 74.21875 
Q 40.828125 74.21875 47.359375 69.109375 
Q 53.90625 64.015625 53.90625 55.328125 
Q 53.90625 49.265625 50.4375 45.09375 
Q 46.96875 40.921875 40.578125 39.3125 
z
" id="DejaVuSans-33"/>
      </defs>
      <g transform="translate(252.719205 177.030437)scale(0.1 -0.1)">
       <use xlink:href="#DejaVuSans-33"/>
       <use x="63.623047" xlink:href="#DejaVuSans-30"/>
       <use x="127.246094" xlink:href="#DejaVuSans-30"/>
       <use x="190.869141" xlink:href="#DejaVuSans-30"/>
       <use x="254.492188" xlink:href="#DejaVuSans-30"/>
      </g>
     </g>
    </g>
    <g id="xtick_5">
     <g id="line2d_5">
      <g>
       <use style="stroke:#000000;stroke-width:0.8;" x="333.556364" xlink:href="#mf22ac88646" y="162.432"/>
      </g>
     </g>
     <g id="text_5">
      <!-- 40000 -->
      <defs>
       <path d="M 37.796875 64.3125 
L 12.890625 25.390625 
L 37.796875 25.390625 
z
M 35.203125 72.90625 
L 47.609375 72.90625 
L 47.609375 25.390625 
L 58.015625 25.390625 
L 58.015625 17.1875 
L 47.609375 17.1875 
L 47.609375 0 
L 37.796875 0 
L 37.796875 17.1875 
L 4.890625 17.1875 
L 4.890625 26.703125 
z
" id="DejaVuSans-34"/>
      </defs>
      <g transform="translate(317.650114 177.030437)scale(0.1 -0.1)">
       <use xlink:href="#DejaVuSans-34"/>
       <use x="63.623047" xlink:href="#DejaVuSans-30"/>
       <use x="127.246094" xlink:href="#DejaVuSans-30"/>
       <use x="190.869141" xlink:href="#DejaVuSans-30"/>
       <use x="254.492188" xlink:href="#DejaVuSans-30"/>
      </g>
     </g>
    </g>
    <g id="xtick_6">
     <g id="line2d_6">
      <g>
       <use style="stroke:#000000;stroke-width:0.8;" x="398.487273" xlink:href="#mf22ac88646" y="162.432"/>
      </g>
     </g>
     <g id="text_6">
      <!-- 50000 -->
      <defs>
       <path d="M 10.796875 72.90625 
L 49.515625 72.90625 
L 49.515625 64.59375 
L 19.828125 64.59375 
L 19.828125 46.734375 
Q 21.96875 47.46875 24.109375 47.828125 
Q 26.265625 48.1875 28.421875 48.1875 
Q 40.625 48.1875 47.75 41.5 
Q 54.890625 34.8125 54.890625 23.390625 
Q 54.890625 11.625 47.5625 5.09375 
Q 40.234375 -1.421875 26.90625 -1.421875 
Q 22.3125 -1.421875 17.546875 -0.640625 
Q 12.796875 0.140625 7.71875 1.703125 
L 7.71875 11.625 
Q 12.109375 9.234375 16.796875 8.0625 
Q 21.484375 6.890625 26.703125 6.890625 
Q 35.15625 6.890625 40.078125 11.328125 
Q 45.015625 15.765625 45.015625 23.390625 
Q 45.015625 31 40.078125 35.4375 
Q 35.15625 39.890625 26.703125 39.890625 
Q 22.75 39.890625 18.8125 39.015625 
Q 14.890625 38.140625 10.796875 36.28125 
z
" id="DejaVuSans-35"/>
      </defs>
      <g transform="translate(382.581023 177.030437)scale(0.1 -0.1)">
       <use xlink:href="#DejaVuSans-35"/>
       <use x="63.623047" xlink:href="#DejaVuSans-30"/>
       <use x="127.246094" xlink:href="#DejaVuSans-30"/>
       <use x="190.869141" xlink:href="#DejaVuSans-30"/>
       <use x="254.492188" xlink:href="#DejaVuSans-30"/>
      </g>
     </g>
    </g>
   </g>
   <g id="matplotlib.axis_2">
    <g id="ytick_1">
     <g id="line2d_7">
      <defs>
       <path d="M 0 0 
L -3.5 0 
" id="m1f18099b6b" style="stroke:#000000;stroke-width:0.8;"/>
      </defs>
      <g>
       <use style="stroke:#000000;stroke-width:0.8;" x="57.6" xlink:href="#m1f18099b6b" y="162.484446"/>
      </g>
     </g>
     <g id="text_7">
      <!-- −0.25 -->
      <defs>
       <path d="M 10.59375 35.5 
L 73.1875 35.5 
L 73.1875 27.203125 
L 10.59375 27.203125 
z
" id="DejaVuSans-2212"/>
       <path d="M 10.6875 12.40625 
L 21 12.40625 
L 21 0 
L 10.6875 0 
z
" id="DejaVuSans-2e"/>
      </defs>
      <g transform="translate(19.954687 166.283665)scale(0.1 -0.1)">
       <use xlink:href="#DejaVuSans-2212"/>
       <use x="83.789062" xlink:href="#DejaVuSans-30"/>
       <use x="147.412109" xlink:href="#DejaVuSans-2e"/>
       <use x="179.199219" xlink:href="#DejaVuSans-32"/>
       <use x="242.822266" xlink:href="#DejaVuSans-35"/>
      </g>
     </g>
    </g>
    <g id="ytick_2">
     <g id="line2d_8">
      <g>
       <use style="stroke:#000000;stroke-width:0.8;" x="57.6" xlink:href="#m1f18099b6b" y="139.381594"/>
      </g>
     </g>
     <g id="text_8">
      <!-- 0.00 -->
      <g transform="translate(28.334375 143.180812)scale(0.1 -0.1)">
       <use xlink:href="#DejaVuSans-30"/>
       <use x="63.623047" xlink:href="#DejaVuSans-2e"/>
       <use x="95.410156" xlink:href="#DejaVuSans-30"/>
       <use x="159.033203" xlink:href="#DejaVuSans-30"/>
      </g>
     </g>
    </g>
    <g id="ytick_3">
     <g id="line2d_9">
      <g>
       <use style="stroke:#000000;stroke-width:0.8;" x="57.6" xlink:href="#m1f18099b6b" y="116.278741"/>
      </g>
     </g>
     <g id="text_9">
      <!-- 0.25 -->
      <g transform="translate(28.334375 120.077959)scale(0.1 -0.1)">
       <use xlink:href="#DejaVuSans-30"/>
       <use x="63.623047" xlink:href="#DejaVuSans-2e"/>
       <use x="95.410156" xlink:href="#DejaVuSans-32"/>
       <use x="159.033203" xlink:href="#DejaVuSans-35"/>
      </g>
     </g>
    </g>
    <g id="ytick_4">
     <g id="line2d_10">
      <g>
       <use style="stroke:#000000;stroke-width:0.8;" x="57.6" xlink:href="#m1f18099b6b" y="93.175888"/>
      </g>
     </g>
     <g id="text_10">
      <!-- 0.50 -->
      <g transform="translate(28.334375 96.975106)scale(0.1 -0.1)">
       <use xlink:href="#DejaVuSans-30"/>
       <use x="63.623047" xlink:href="#DejaVuSans-2e"/>
       <use x="95.410156" xlink:href="#DejaVuSans-35"/>
       <use x="159.033203" xlink:href="#DejaVuSans-30"/>
      </g>
     </g>
    </g>
    <g id="ytick_5">
     <g id="line2d_11">
      <g>
       <use style="stroke:#000000;stroke-width:0.8;" x="57.6" xlink:href="#m1f18099b6b" y="70.073035"/>
      </g>
     </g>
     <g id="text_11">
      <!-- 0.75 -->
      <defs>
       <path d="M 8.203125 72.90625 
L 55.078125 72.90625 
L 55.078125 68.703125 
L 28.609375 0 
L 18.3125 0 
L 43.21875 64.59375 
L 8.203125 64.59375 
z
" id="DejaVuSans-37"/>
      </defs>
      <g transform="translate(28.334375 73.872253)scale(0.1 -0.1)">
       <use xlink:href="#DejaVuSans-30"/>
       <use x="63.623047" xlink:href="#DejaVuSans-2e"/>
       <use x="95.410156" xlink:href="#DejaVuSans-37"/>
       <use x="159.033203" xlink:href="#DejaVuSans-35"/>
      </g>
     </g>
    </g>
    <g id="ytick_6">
     <g id="line2d_12">
      <g>
       <use style="stroke:#000000;stroke-width:0.8;" x="57.6" xlink:href="#m1f18099b6b" y="46.970182"/>
      </g>
     </g>
     <g id="text_12">
      <!-- 1.00 -->
      <g transform="translate(28.334375 50.769401)scale(0.1 -0.1)">
       <use xlink:href="#DejaVuSans-31"/>
       <use x="63.623047" xlink:href="#DejaVuSans-2e"/>
       <use x="95.410156" xlink:href="#DejaVuSans-30"/>
       <use x="159.033203" xlink:href="#DejaVuSans-30"/>
      </g>
     </g>
    </g>
    <g id="text_13">
     <!-- State 0 -->
     <defs>
      <path d="M 53.515625 70.515625 
L 53.515625 60.890625 
Q 47.90625 63.578125 42.921875 64.890625 
Q 37.9375 66.21875 33.296875 66.21875 
Q 25.25 66.21875 20.875 63.09375 
Q 16.5 59.96875 16.5 54.203125 
Q 16.5 49.359375 19.40625 46.890625 
Q 22.3125 44.4375 30.421875 42.921875 
L 36.375 41.703125 
Q 47.40625 39.59375 52.65625 34.296875 
Q 57.90625 29 57.90625 20.125 
Q 57.90625 9.515625 50.796875 4.046875 
Q 43.703125 -1.421875 29.984375 -1.421875 
Q 24.8125 -1.421875 18.96875 -0.25 
Q 13.140625 0.921875 6.890625 3.21875 
L 6.890625 13.375 
Q 12.890625 10.015625 18.65625 8.296875 
Q 24.421875 6.59375 29.984375 6.59375 
Q 38.421875 6.59375 43.015625 9.90625 
Q 47.609375 13.234375 47.609375 19.390625 
Q 47.609375 24.75 44.3125 27.78125 
Q 41.015625 30.8125 33.5 32.328125 
L 27.484375 33.5 
Q 16.453125 35.6875 11.515625 40.375 
Q 6.59375 45.0625 6.59375 53.421875 
Q 6.59375 63.09375 13.40625 68.65625 
Q 20.21875 74.21875 32.171875 74.21875 
Q 37.3125 74.21875 42.625 73.28125 
Q 47.953125 72.359375 53.515625 70.515625 
z
" id="DejaVuSans-53"/>
      <path d="M 18.3125 70.21875 
L 18.3125 54.6875 
L 36.8125 54.6875 
L 36.8125 47.703125 
L 18.3125 47.703125 
L 18.3125 18.015625 
Q 18.3125 11.328125 20.140625 9.421875 
Q 21.96875 7.515625 27.59375 7.515625 
L 36.8125 7.515625 
L 36.8125 0 
L 27.59375 0 
Q 17.1875 0 13.234375 3.875 
Q 9.28125 7.765625 9.28125 18.015625 
L 9.28125 47.703125 
L 2.6875 47.703125 
L 2.6875 54.6875 
L 9.28125 54.6875 
L 9.28125 70.21875 
z
" id="DejaVuSans-74"/>
      <path d="M 34.28125 27.484375 
Q 23.390625 27.484375 19.1875 25 
Q 14.984375 22.515625 14.984375 16.5 
Q 14.984375 11.71875 18.140625 8.90625 
Q 21.296875 6.109375 26.703125 6.109375 
Q 34.1875 6.109375 38.703125 11.40625 
Q 43.21875 16.703125 43.21875 25.484375 
L 43.21875 27.484375 
z
M 52.203125 31.203125 
L 52.203125 0 
L 43.21875 0 
L 43.21875 8.296875 
Q 40.140625 3.328125 35.546875 0.953125 
Q 30.953125 -1.421875 24.3125 -1.421875 
Q 15.921875 -1.421875 10.953125 3.296875 
Q 6 8.015625 6 15.921875 
Q 6 25.140625 12.171875 29.828125 
Q 18.359375 34.515625 30.609375 34.515625 
L 43.21875 34.515625 
L 43.21875 35.40625 
Q 43.21875 41.609375 39.140625 45 
Q 35.0625 48.390625 27.6875 48.390625 
Q 23 48.390625 18.546875 47.265625 
Q 14.109375 46.140625 10.015625 43.890625 
L 10.015625 52.203125 
Q 14.9375 54.109375 19.578125 55.046875 
Q 24.21875 56 28.609375 56 
Q 40.484375 56 46.34375 49.84375 
Q 52.203125 43.703125 52.203125 31.203125 
z
" id="DejaVuSans-61"/>
      <path d="M 56.203125 29.59375 
L 56.203125 25.203125 
L 14.890625 25.203125 
Q 15.484375 15.921875 20.484375 11.0625 
Q 25.484375 6.203125 34.421875 6.203125 
Q 39.59375 6.203125 44.453125 7.46875 
Q 49.3125 8.734375 54.109375 11.28125 
L 54.109375 2.78125 
Q 49.265625 0.734375 44.1875 -0.34375 
Q 39.109375 -1.421875 33.890625 -1.421875 
Q 20.796875 -1.421875 13.15625 6.1875 
Q 5.515625 13.8125 5.515625 26.8125 
Q 5.515625 40.234375 12.765625 48.109375 
Q 20.015625 56 32.328125 56 
Q 43.359375 56 49.78125 48.890625 
Q 56.203125 41.796875 56.203125 29.59375 
z
M 47.21875 32.234375 
Q 47.125 39.59375 43.09375 43.984375 
Q 39.0625 48.390625 32.421875 48.390625 
Q 24.90625 48.390625 20.390625 44.140625 
Q 15.875 39.890625 15.1875 32.171875 
z
" id="DejaVuSans-65"/>
      <path id="DejaVuSans-20"/>
     </defs>
     <g transform="translate(13.875 119.957469)rotate(-90)scale(0.1 -0.1)">
      <use xlink:href="#DejaVuSans-53"/>
      <use x="63.476562" xlink:href="#DejaVuSans-74"/>
      <use x="102.685547" xlink:href="#DejaVuSans-61"/>
      <use x="163.964844" xlink:href="#DejaVuSans-74"/>
      <use x="203.173828" xlink:href="#DejaVuSans-65"/>
      <use x="264.697266" xlink:href="#DejaVuSans-20"/>
      <use x="296.484375" xlink:href="#DejaVuSans-30"/>
     </g>
    </g>
   </g>
   <g id="line2d_13">
    <path clip-path="url(#pc49d8f184f)" d="M 73.832727 139.367614 
L 73.936617 139.341334 
L 73.949603 139.350428 
L 74.319709 139.332743 
L 74.488529 139.351967 
L 74.663843 139.309405 
L 74.670336 139.317158 
L 74.793705 139.338701 
L 74.806691 139.326086 
L 74.956032 139.297155 
L 75.092387 139.311968 
L 75.430028 139.323911 
L 75.598848 139.327692 
L 75.722217 139.333802 
L 75.852079 139.354146 
L 76.222185 139.35002 
L 76.287116 139.332555 
L 76.332567 139.347107 
L 76.592291 139.355591 
L 76.780591 139.369825 
L 77.033821 139.394708 
L 77.170176 139.427042 
L 77.300038 139.391402 
L 77.618199 139.385485 
L 77.748061 139.383539 
L 77.981812 139.361406 
L 78.494767 139.372758 
L 78.793449 139.404543 
L 78.799942 139.388358 
L 78.988241 139.378078 
L 79.241472 139.413659 
L 79.38432 139.409261 
L 79.527168 139.430511 
L 79.884288 139.43247 
L 80.053108 139.409087 
L 80.221929 139.431074 
L 80.364777 139.394168 
L 80.475159 139.399455 
L 80.481652 139.387506 
L 81.364713 139.388057 
L 81.501068 139.373814 
L 81.617943 139.384466 
L 81.624436 139.376193 
L 81.845201 139.360053 
L 81.988049 139.387512 
L 82.124404 139.390252 
L 82.260759 139.395495 
L 82.364649 139.402529 
L 82.319197 139.41812 
L 82.371142 139.409106 
L 83.494447 139.404383 
L 83.637295 139.413836 
L 83.793129 139.422757 
L 84.130769 139.407507 
L 84.260631 139.40785 
L 84.507369 139.376538 
L 84.520355 139.384428 
L 84.630737 139.366589 
L 84.832023 139.372461 
L 84.948899 139.375425 
L 84.961885 139.36124 
L 85.319005 139.324109 
L 85.442374 139.326217 
L 85.565743 139.329714 
L 85.838452 139.349182 
L 86.08519 139.314086 
L 86.241024 139.314484 
L 86.370886 139.340848 
L 86.481268 139.335411 
L 86.494255 139.351593 
L 86.643596 139.378013 
L 86.650089 139.369553 
L 86.942278 139.409161 
L 87.098112 139.453705 
L 87.390301 139.44321 
L 87.520163 139.448352 
L 87.747421 139.434602 
L 87.890269 139.450124 
L 90.26674 139.40541 
L 91.377059 139.420509 
L 91.487441 139.421202 
L 91.493935 139.432671 
L 91.825082 139.455125 
L 92.123764 139.453198 
L 92.24064 139.447925 
L 92.143244 139.432555 
L 92.247133 139.440882 
L 93.630161 139.424649 
L 93.721065 139.40351 
L 93.747037 139.41495 
L 93.876899 139.405637 
L 94.058705 139.41671 
L 94.21454 139.441832 
L 94.409332 139.435213 
L 94.532701 139.48704 
L 94.539194 139.484194 
L 94.785932 139.466486 
L 94.902807 139.440683 
L 94.922287 139.454674 
L 95.143052 139.453626 
L 95.357324 139.426566 
L 96.889693 139.402443 
L 97.058513 139.394362 
L 99.701201 139.365408 
L 99.895994 139.364608 
L 100.064815 139.336759 
L 100.324538 139.33985 
L 100.954368 139.353542 
L 101.08423 139.330182 
L 101.454336 139.332597 
L 101.564719 139.291009 
L 101.571212 139.294137 
L 101.791977 139.306192 
L 101.934825 139.292051 
L 102.129617 139.310337 
L 102.259479 139.296671 
L 103.071116 139.281338 
L 103.213964 139.266918 
L 103.343825 139.266496 
L 103.512646 139.259365 
L 103.649001 139.269848 
L 104.57102 139.337788 
L 110.804387 139.351554 
L 111.155014 139.331792 
L 111.265396 139.321706 
L 111.447203 139.308004 
L 111.745885 139.303029 
L 111.88224 139.291874 
L 112.005609 139.328122 
L 112.271825 139.29612 
L 112.42766 139.322558 
L 112.570508 139.316294 
L 112.706863 139.322385 
L 113.434089 139.3618 
L 113.537978 139.355679 
L 113.550964 139.364641 
L 113.66784 139.365653 
L 113.674333 139.361162 
L 113.797702 139.377256 
L 114.219753 139.380174 
L 114.336628 139.377723 
L 114.434025 139.374093 
L 114.447011 139.363697 
L 114.946979 139.378349 
L 115.141772 139.368971 
L 115.297606 139.345341 
L 115.570316 139.369033 
L 115.693684 139.398515 
L 115.959901 139.380773 
L 116.109242 139.357245 
L 117.336436 139.340851 
L 117.446819 139.384856 
L 117.466298 139.375504 
L 117.927308 139.373876 
L 117.940294 139.381696 
L 118.044183 139.385791 
L 118.576617 139.398441 
L 118.706479 139.371601 
L 118.914257 139.413214 
L 119.102557 139.387359 
L 119.21294 139.416789 
L 119.232419 139.405832 
L 119.433705 139.382304 
L 119.563567 139.392677 
L 119.57006 139.38368 
L 120.699857 139.325058 
L 120.836212 139.306746 
L 120.849199 139.320839 
L 121.115415 139.355242 
L 122.095872 139.445832 
L 122.23872 139.41645 
L 122.245213 139.429224 
L 122.472471 139.456298 
L 122.699729 139.462927 
L 122.823098 139.451122 
L 123.985361 139.440962 
L 124.147689 139.433084 
L 124.154182 139.415654 
L 124.271057 139.403025 
L 124.387933 139.408603 
L 124.504809 139.397349 
L 124.511302 139.401624 
L 124.764532 139.415546 
L 126.095616 139.391448 
L 126.264436 139.379188 
L 126.69298 139.324223 
L 126.842321 139.339522 
L 126.848815 139.331055 
L 126.998156 139.306349 
L 127.141004 139.305151 
L 127.270865 139.298508 
L 127.537082 139.315737 
L 127.673437 139.297921 
L 127.803299 139.316205 
L 127.926668 139.302242 
L 127.933161 139.314692 
L 128.329239 139.322972 
L 128.472087 139.351477 
L 128.614935 139.358757 
L 128.796742 139.346884 
L 128.900631 139.343108 
L 128.920111 139.374717 
L 129.244765 139.371457 
L 130.72519 139.394575 
L 130.848559 139.368808 
L 130.861545 139.380459 
L 131.075817 139.382724 
L 131.205679 139.37787 
L 131.342033 139.396696 
L 131.471895 139.395062 
L 131.621236 139.40717 
L 131.751098 139.403108 
L 131.757591 139.409849 
L 132.004329 139.386015 
L 132.121204 139.380689 
L 132.127697 139.385964 
L 132.264052 139.395493 
L 132.270545 139.387123 
L 132.4069 139.372666 
L 132.536762 139.416771 
L 132.543255 139.402981 
L 132.7835 139.422518 
L 133.082182 139.462176 
L 133.218537 139.453987 
L 133.789929 139.475527 
L 134.010694 139.471059 
L 134.121076 139.470784 
L 134.127569 139.465568 
L 134.387293 139.470149 
L 134.497676 139.471547 
L 134.510662 139.45935 
L 134.757399 139.416466 
L 134.880768 139.428927 
L 135.159971 139.386791 
L 135.36775 139.413336 
L 135.484625 139.381484 
L 135.510598 139.405987 
L 135.646953 139.40979 
L 135.763828 139.409335 
L 136.056017 139.398424 
L 136.231331 139.395579 
L 136.367686 139.421363 
L 136.374179 139.413199 
L 136.861161 139.429957 
L 136.984529 139.42117 
L 137.23776 139.414561 
L 137.445539 139.431699 
L 137.568908 139.418114 
L 137.575401 139.438361 
L 137.737728 139.436455 
L 137.815645 139.475407 
L 137.854604 139.460163 
L 140.737536 139.34395 
L 140.860905 139.373689 
L 141.133615 139.380456 
L 141.575145 139.388157 
L 141.717993 139.385901 
L 141.724486 139.393178 
L 141.834868 139.35793 
L 141.96473 139.341676 
L 141.971223 139.346776 
L 142.419247 139.329839 
L 142.562095 139.283094 
L 142.971159 139.367343 
L 143.191924 139.36452 
L 144.029533 139.374288 
L 144.152902 139.36201 
L 144.451584 139.351929 
L 144.594432 139.346576 
L 144.711308 139.346752 
L 144.717801 139.354915 
L 144.860649 139.365448 
L 145.061935 139.386047 
L 145.204783 139.417336 
L 145.334644 139.412244 
L 145.458013 139.418419 
L 145.464506 139.410073 
L 145.626833 139.405982 
L 145.821626 139.397634 
L 145.912529 139.398195 
L 145.932009 139.384214 
L 146.061871 139.390616 
L 146.068364 139.375755 
L 146.321594 139.349715 
L 146.496908 139.344038 
L 146.652742 139.330992 
L 146.782604 139.343689 
L 146.79559 139.326873 
L 147.087779 139.364052 
L 147.100765 139.374558 
L 147.230627 139.345151 
L 147.347503 139.347726 
L 147.516323 139.348679 
L 147.646185 139.361474 
L 147.652678 139.353995 
L 147.78254 139.356581 
L 147.789033 139.362935 
L 147.938374 139.365977 
L 148.100701 139.3767 
L 148.405876 139.378125 
L 148.561711 139.387456 
L 148.698065 139.381216 
L 148.704559 139.397035 
L 148.873379 139.423811 
L 148.717545 139.377954 
L 148.879872 139.410087 
L 149.120116 139.414984 
L 149.262964 139.413281 
L 149.425292 139.376512 
L 149.431785 139.386834 
L 149.633071 139.411919 
L 149.782412 139.387057 
L 149.788905 139.398103 
L 150.165504 139.421922 
L 151.866694 139.414771 
L 152.035514 139.416519 
L 152.15239 139.386192 
L 152.308224 139.357344 
L 152.438086 139.383482 
L 152.574441 139.388466 
L 152.756247 139.376607 
L 153.048436 139.397493 
L 153.165312 139.391715 
L 153.288681 139.417274 
L 153.30816 139.400971 
L 153.600349 139.387827 
L 153.730211 139.378374 
L 153.873059 139.357936 
L 154.054865 139.331623 
L 154.619764 139.318747 
L 154.723654 139.305347 
L 154.658723 139.302024 
L 154.730147 139.295462 
L 154.996364 139.377352 
L 155.09376 139.365527 
L 155.119732 139.382191 
L 155.457373 139.374985 
L 155.567756 139.391074 
L 155.574249 139.386319 
L 155.580742 139.368276 
L 155.613207 139.406531 
L 155.678138 139.416073 
L 155.885917 139.419948 
L 156.028765 139.380979 
L 156.035258 139.387473 
L 156.158627 139.404101 
L 156.171613 139.391245 
L 156.184599 139.409342 
L 156.301475 139.379903 
L 156.535226 139.379308 
L 157.67801 139.347163 
L 157.697489 139.361657 
L 157.788393 139.375826 
L 157.911761 139.358354 
L 158.048116 139.315932 
L 158.061103 139.327081 
L 159.099997 139.333548 
L 159.184407 139.343991 
L 159.21038 139.314104 
L 159.359721 139.352126 
L 159.502569 139.332796 
L 159.625937 139.324751 
L 159.90514 139.340943 
L 160.067468 139.353725 
L 160.09344 139.376673 
L 160.190836 139.374667 
L 160.398615 139.388033 
L 160.697297 139.383484 
L 160.820666 139.410732 
L 160.944035 139.430041 
L 161.320634 139.38928 
L 161.463482 139.366183 
L 161.469975 139.380894 
L 161.593344 139.399093 
L 161.807616 139.420312 
L 161.930985 139.395767 
L 162.034874 139.390524 
L 162.041367 139.383085 
L 162.606266 139.413463 
L 162.943907 139.453455 
L 163.210124 139.4292 
L 163.606202 139.407039 
L 163.703599 139.389051 
L 163.723078 139.400649 
L 163.898391 139.413732 
L 164.034746 139.404819 
L 163.911377 139.42834 
L 164.041239 139.411679 
L 164.223046 139.426433 
L 164.372387 139.417393 
L 164.56718 139.394978 
L 164.690548 139.418295 
L 164.826903 139.408525 
L 164.995724 139.405338 
L 165.222982 139.378854 
L 165.917743 139.408019 
L 166.047604 139.431875 
L 166.119028 139.405292 
L 166.157987 139.430471 
L 166.339793 139.381799 
L 166.495628 139.390881 
L 166.599517 139.388568 
L 166.60601 139.380662 
L 166.885213 139.365892 
L 167.002089 139.379357 
L 167.008582 139.375504 
L 167.183895 139.368725 
L 167.86567 139.388117 
L 168.066956 139.378868 
L 168.268241 139.390128 
L 168.443555 139.388841 
L 168.638348 139.369564 
L 168.794182 139.363783 
L 168.975988 139.384515 
L 169.170781 139.378953 
L 169.313629 139.354989 
L 169.359081 139.326925 
L 169.424012 139.337395 
L 169.560367 139.344782 
L 169.56686 139.353211 
L 169.761652 139.357943 
L 170.410961 139.386644 
L 170.560303 139.403054 
L 171.092736 139.409249 
L 171.268049 139.439372 
L 171.274543 139.430444 
L 172.371875 139.822757 
L 172.579654 139.680267 
L 173.358825 139.044619 
L 173.488687 139.125878 
L 173.49518 139.114723 
L 173.631535 139.316348 
L 173.813341 139.547916 
L 174.047092 139.522772 
L 174.163968 139.515696 
L 174.29383 139.582086 
L 174.449664 139.645254 
L 174.702895 139.44728 
L 175.060015 139.140116 
L 175.228835 138.969944 
L 175.475572 138.897738 
L 175.488559 138.926502 
L 175.670365 139.056218 
L 176.098909 138.672019 
L 176.235264 138.620311 
L 176.618356 138.305349 
L 176.858601 137.928416 
L 177.332596 137.297496 
L 177.533882 136.930899 
L 178.780556 134.534505 
L 179.079238 134.092413 
L 179.085731 134.095492 
L 179.397399 133.417533 
L 179.644137 132.502635 
L 180.189556 131.244939 
L 180.416815 130.540081 
L 180.592128 130.233574 
L 181.780364 126.703774 
L 181.851788 126.626827 
L 182.137484 126.438597 
L 182.351756 126.380802 
L 182.475124 126.350205 
L 182.481617 126.363972 
L 182.637452 126.521798 
L 182.773807 126.676302 
L 182.7803 126.659314 
L 182.975092 126.565199 
L 183.293254 126.046422 
L 183.47506 125.888416 
L 183.488047 125.905703 
L 183.559471 125.839014 
L 183.565964 125.822891 
L 183.624401 125.714251 
L 183.929577 125.04949 
L 183.93607 125.052632 
L 184.072425 125.129673 
L 184.319162 125.623602 
L 184.572393 125.9109 
L 184.578886 125.897874 
L 184.643817 125.992283 
L 184.65031 125.983796 
L 184.948992 126.812112 
L 185.903476 131.897098 
L 187.357929 140.596147 
L 187.86439 142.170342 
L 188.03321 142.723245 
L 188.202031 143.066032 
L 188.208524 143.053949 
L 188.448768 142.996787 
L 188.766929 142.827375 
L 188.779916 142.858251 
L 188.799395 142.887541 
L 188.857833 142.934357 
L 189.013667 143.032109 
L 189.046132 142.991814 
L 189.214953 142.943094 
L 189.227939 142.96054 
L 189.344815 143.033257 
L 189.500649 143.111253 
L 189.688948 143.086586 
L 189.987631 142.951084 
L 190.026589 142.900276 
L 190.104506 142.929941 
L 190.182423 143.040681 
L 190.416175 143.487438 
L 190.44864 143.574518 
L 190.662912 143.869641 
L 190.799267 143.909258 
L 190.883677 143.956948 
L 190.818746 143.928444 
L 190.89017 143.965807 
L 191.033018 144.020977 
L 191.208332 143.917331 
L 191.292742 143.846209 
L 192.026461 141.413881 
L 193.357545 131.949756 
L 193.415983 131.917829 
L 193.467927 131.956721 
L 193.734144 132.015547 
L 194.026333 132.574567 
L 194.558767 134.686214 
L 194.56526 134.681085 
L 194.617204 134.772283 
L 195.000297 136.677213 
L 195.662592 139.629542 
L 196.019712 140.290781 
L 196.117108 140.121969 
L 196.630063 137.415185 
L 197.720902 127.465485 
L 198.487087 124.170741 
L 198.811741 124.070396 
L 198.987055 123.880292 
L 199.000041 123.888121 
L 199.181847 123.979293 
L 199.266257 124.083333 
L 200.136332 128.147326 
L 200.545396 130.941722 
L 200.759668 131.104275 
L 200.876544 131.118691 
L 200.967447 131.240688 
L 201.681687 133.401642 
L 202.623185 140.321117 
L 203.545204 149.367922 
L 203.564684 149.36185 
L 203.610135 149.443087 
L 204.10361 150.890108 
L 204.226979 150.871736 
L 204.330868 150.903432 
L 204.46073 150.979975 
L 204.473716 150.968556 
L 204.681495 150.53441 
L 204.934726 149.914432 
L 205.00615 149.786287 
L 205.27886 148.7868 
L 205.597021 147.894532 
L 205.655459 147.767854 
L 205.863238 147.176774 
L 206.045044 146.866014 
L 206.298275 146.106344 
L 206.395671 145.740045 
L 206.583971 145.303669 
L 206.746298 144.829391 
L 207.343663 142.187823 
L 207.700783 139.923221 
L 207.752727 139.606126 
L 208.49294 135.246499 
L 208.726691 134.574047 
L 209.129263 133.042801 
L 209.168221 132.951148 
L 209.395479 132.241055 
L 209.752599 131.661569 
L 209.772079 131.671471 
L 209.90194 131.86037 
L 210.336977 133.77199 
L 211.051217 138.35922 
L 211.843375 142.117352 
L 212.038167 142.265128 
L 212.888762 146.479172 
L 213.245882 148.065726 
L 213.278348 148.092805 
L 213.38873 148.021422 
L 213.531578 148.08768 
L 213.544564 148.078078 
L 213.596509 148.16506 
L 213.603002 148.16437 
L 213.888698 148.929522 
L 214.37568 149.604581 
L 214.622417 150.258831 
L 214.628911 150.253435 
L 214.804224 150.277448 
L 214.90162 150.171868 
L 214.966551 150.292229 
L 215.505478 152.014007 
L 215.661312 152.171378 
L 215.966487 153.24794 
L 216.187252 153.890638 
L 216.317114 153.876363 
L 216.408017 153.991368 
L 216.472948 154.134387 
L 216.758644 155.865477 
L 216.992396 156.933818 
L 217.005382 156.929322 
L 217.076806 156.806447 
L 217.278092 156.287673 
L 217.752087 155.40419 
L 218.596189 148.644455 
L 218.979281 145.527822 
L 219.083171 144.978386 
L 221.173946 134.066326 
L 221.180439 134.068851 
L 221.206412 133.987111 
L 221.375232 133.726743 
L 221.576518 133.465609 
L 222.225827 131.112874 
L 222.543988 130.705397 
L 222.569961 130.74486 
L 222.784233 131.141284 
L 222.829684 131.142534 
L 222.803712 131.165307 
L 222.868643 131.208043 
L 223.128367 131.10856 
L 223.816634 130.553411 
L 223.823127 130.56173 
L 223.952989 130.639548 
L 224.193233 131.126638 
L 224.212713 131.121269 
L 224.232192 131.165231 
L 224.284137 131.181653 
L 225.186676 132.528501 
L 225.946368 135.347646 
L 226.037271 135.519433 
L 226.699567 137.245161 
L 227.056687 138.76437 
L 227.329396 139.235871 
L 227.647558 139.931362 
L 228.160512 142.424854 
L 228.38777 144.247365 
L 229.225379 152.341084 
L 229.621457 154.729686 
L 229.660416 154.886366 
L 229.855209 155.307087 
L 229.861702 155.302545 
L 229.933126 155.406482 
L 230.056495 155.526115 
L 230.069481 155.519947 
L 230.400628 154.643222 
L 231.010979 149.706562 
L 231.413551 144.461574 
L 232.004422 135.731244 
L 232.556335 130.113293 
L 233.186164 124.564161 
L 233.945856 111.571244 
L 234.413359 101.040751 
L 236.16 46.970182 
L 236.172986 48.627485 
L 237.069033 75.280506 
L 237.900148 100.834935 
L 238.315706 110.501908 
L 239.393559 127.877113 
L 239.776652 130.17377 
L 239.938979 131.320134 
L 240.224675 134.629093 
L 240.796067 142.429998 
L 241.451869 151.028784 
L 241.815482 153.882244 
L 242.055727 155.161574 
L 242.341423 155.494118 
L 242.39986 155.388352 
L 242.737501 154.559177 
L 243.166045 151.771414 
L 243.653027 147.065845 
L 243.815354 145.493357 
L 244.127023 142.640423 
L 244.419212 141.157453 
L 244.997097 139.216636 
L 245.133452 139.098203 
L 245.626927 137.224938 
L 245.932102 136.128618 
L 245.945088 136.131237 
L 245.99054 136.14119 
L 246.035991 136.072482 
L 246.081443 135.935351 
L 246.438563 135.220071 
L 246.445056 135.223024 
L 246.633356 134.891821 
L 247.139817 132.525963 
L 247.854057 131.336576 
L 247.938467 131.313713 
L 247.951453 131.29079 
L 248.204684 131.046031 
L 248.646214 130.580916 
L 248.782569 130.753765 
L 248.841007 130.69697 
L 248.912431 130.712521 
L 248.93191 130.744006 
L 249.152675 131.094102 
L 249.256564 131.140871 
L 249.386426 131.218081 
L 249.438371 131.229135 
L 249.477329 131.162919 
L 249.633164 131.082703 
L 249.776012 130.705397 
L 249.81497 130.743318 
L 249.983791 131.011024 
L 250.191569 131.455743 
L 250.581155 132.982872 
L 250.905809 133.700753 
L 250.977233 133.779186 
L 251.15904 134.102913 
L 251.24345 134.262828 
L 251.457722 135.219456 
L 251.769391 136.775048 
L 251.853801 137.106627 
L 252.873216 142.760321 
L 254.749719 155.923328 
L 254.905553 156.04332 
L 255.314618 156.929322 
L 255.321111 156.925476 
L 255.347084 156.92678 
L 255.386042 156.852511 
L 255.392535 156.856614 
L 255.509411 156.26351 
L 255.957434 153.911226 
L 256.152227 153.869662 
L 256.756084 152.072556 
L 256.853481 151.975637 
L 256.976849 151.711769 
L 257.119697 151.136932 
L 257.405393 150.192769 
L 257.41838 150.171868 
L 257.658624 150.266652 
L 257.827444 149.99246 
L 258.087168 149.285728 
L 258.093661 149.292275 
L 258.30144 149.19945 
L 258.366371 149.104896 
L 258.671546 148.264403 
L 258.678039 148.269859 
L 258.716998 148.16437 
L 258.723491 148.16506 
L 259.01568 148.084601 
L 259.022173 148.094604 
L 259.10009 148.028306 
L 259.937699 143.928265 
L 260.25586 142.3473 
L 260.411695 142.135957 
L 260.418188 142.142488 
L 260.509091 142.111997 
L 260.515584 142.105416 
L 260.71687 141.429532 
L 261.294755 138.264932 
L 261.554479 136.610058 
L 262.495977 131.726514 
L 262.50247 131.72802 
L 262.58688 131.658247 
L 262.632332 131.695058 
L 263.995881 135.914352 
L 265.028282 142.506116 
L 265.430854 144.319568 
L 265.80096 145.441937 
L 265.937315 145.784295 
L 267.047633 148.803307 
L 267.326836 149.814413 
L 267.437219 150.044499 
L 267.638505 150.53441 
L 267.904721 150.96468 
L 267.963159 150.911901 
L 268.307293 150.71586 
L 268.813754 149.330831 
L 268.820247 149.342017 
L 268.872192 149.227556 
L 269.034519 148.489754 
L 269.281257 145.857861 
L 269.885114 138.393609 
L 270.936995 132.124692 
L 271.079843 131.760464 
L 271.281129 131.350232 
L 271.488908 131.11462 
L 271.495401 131.123896 
L 271.618769 131.101567 
L 271.716166 131.063837 
L 271.729152 131.034409 
L 271.774604 130.941722 
L 272.41742 126.710951 
L 272.94336 124.542751 
L 273.144646 123.975427 
L 273.38489 123.916993 
L 273.586176 124.110116 
L 273.696559 124.103051 
L 273.806941 124.158212 
L 274.151075 125.327676 
L 275.138025 132.011532 
L 275.878237 138.658886 
L 276.306781 140.291476 
L 276.332753 140.26246 
L 276.657408 139.629542 
L 277.488524 135.832092 
L 277.77422 134.643894 
L 277.910575 134.19762 
L 278.248215 132.711205 
L 278.709225 131.914033 
L 278.735197 131.929042 
L 278.839087 131.971025 
L 278.871552 131.952684 
L 278.936483 131.921259 
L 278.975441 131.982321 
L 279.020893 132.071154 
L 279.384506 133.721522 
L 279.611764 135.573866 
L 280.111732 139.968211 
L 280.644166 142.982808 
L 280.702604 143.182411 
L 280.910383 143.674015 
L 280.9883 143.772232 
L 281.15712 143.936938 
L 281.32594 144.014975 
L 281.332433 144.01008 
L 281.494761 143.921395 
L 281.592157 143.894024 
L 281.51424 143.900847 
L 281.59865 143.877114 
L 281.838895 143.666625 
L 282.124591 143.069621 
L 282.351849 142.953212 
L 282.377821 142.997409 
L 282.475217 143.077141 
L 282.520669 143.057246 
L 282.760913 143.060471 
L 282.851817 143.107043 
L 282.884282 143.085148 
L 282.994665 143.02245 
L 283.527098 142.871683 
L 283.605015 142.803418 
L 283.65696 142.839349 
L 283.84526 142.985412 
L 283.975121 143.044983 
L 284.150435 143.0361 
L 285.371136 138.741547 
L 286.163293 133.871533 
L 286.630796 130.435488 
L 287.189201 127.460112 
L 287.799552 125.8491 
L 287.903441 125.77397 
L 288.254068 125.119941 
L 288.494313 125.151292 
L 288.883898 125.933998 
L 288.890391 125.925394 
L 288.92935 126.003133 
L 288.961815 126.005393 
L 289.124143 126.152132 
L 289.364387 126.592146 
L 289.507235 126.693218 
L 289.520221 126.667551 
L 289.747479 126.461274 
L 289.883834 126.336674 
L 289.890327 126.341999 
L 290.091613 126.427316 
L 290.104599 126.436507 
L 290.208489 126.431994 
L 290.351337 126.473403 
L 290.35783 126.459011 
L 290.422761 126.570483 
L 291.34478 129.146732 
L 291.585024 129.913354 
L 291.903185 130.540081 
L 292.643398 132.452129 
L 292.649891 132.442039 
L 292.695343 132.554027 
L 293.136873 134.000539 
L 293.357638 134.240194 
L 293.46802 134.393839 
L 294.72768 136.843872 
L 294.792611 136.935867 
L 295.675671 138.294044 
L 295.695151 138.285553 
L 295.740602 138.372616 
L 295.760081 138.369257 
L 296.039284 138.638764 
L 296.045777 138.6347 
L 296.299008 138.799757 
L 296.500294 139.049553 
L 296.630156 139.070353 
L 296.734045 139.020508 
L 296.948317 138.891867 
L 297.506723 139.320641 
L 297.513216 139.314571 
L 297.545681 139.378129 
L 297.578147 139.396703 
L 297.740474 139.591191 
L 297.85735 139.629932 
L 297.993705 139.608987 
L 298.143046 139.511916 
L 298.558604 139.502451 
L 298.82482 139.114723 
L 298.831313 139.125878 
L 298.8443 139.099236 
L 298.915724 139.069397 
L 299.032599 139.060779 
L 299.039092 139.067565 
L 299.207913 139.205479 
L 299.227392 139.186645 
L 299.253364 139.232632 
L 299.311802 139.235953 
L 299.448157 139.327143 
L 299.675415 139.589939 
L 299.857222 139.760396 
L 299.863715 139.748902 
L 299.870208 139.782857 
L 299.948125 139.822757 
L 300.27278 139.716518 
L 300.396148 139.68275 
L 300.519517 139.681698 
L 300.52601 139.665289 
L 300.733789 139.557425 
L 300.88313 139.488485 
L 301.123375 139.43048 
L 301.246743 139.399721 
L 301.389591 139.37995 
L 301.519453 139.405223 
L 301.603863 139.365753 
L 301.649315 139.392236 
L 301.805149 139.392903 
L 302.603799 139.361359 
L 302.733661 139.3569 
L 302.928454 139.326853 
L 302.934947 139.335735 
L 303.447901 139.364029 
L 303.584256 139.37581 
L 303.759569 139.378725 
L 303.869952 139.383893 
L 303.876445 139.388841 
L 304.025786 139.409585 
L 304.149155 139.383581 
L 304.571206 139.38104 
L 304.688081 139.395333 
L 304.694575 139.381165 
L 304.980271 139.381121 
L 305.116625 139.355912 
L 305.415308 139.380656 
L 305.506211 139.364657 
L 305.532183 139.381253 
L 309.330641 139.467187 
L 309.428038 139.445539 
L 309.434531 139.421961 
L 309.889047 139.422859 
L 310.025402 139.412337 
L 310.155264 139.386491 
L 310.259153 139.391451 
L 310.27214 139.38217 
L 311.07079 139.390612 
L 311.174679 139.384485 
L 311.181172 139.404439 
L 311.311034 139.442727 
L 311.440896 139.408435 
L 311.603223 139.417493 
L 311.739578 139.367809 
L 311.875933 139.376446 
L 312.051247 139.377625 
L 312.39538 139.346746 
L 312.525242 139.324116 
L 312.674583 139.31468 
L 312.823924 139.34428 
L 313.012224 139.349479 
L 313.317399 139.303077 
L 313.447261 139.314828 
L 313.629068 139.345572 
L 313.752436 139.34253 
L 315.051055 139.38242 
L 315.174423 139.349535 
L 315.291299 139.362934 
L 315.401681 139.345468 
L 315.414668 139.360661 
L 316.128908 139.398075 
L 316.141894 139.380169 
L 316.252276 139.39591 
L 316.934051 139.389711 
L 317.258705 139.37625 
L 317.472977 139.313688 
L 317.921001 139.329236 
L 318.141766 139.323171 
L 318.304093 139.348945 
L 319.713094 139.389664 
L 320.005283 139.351107 
L 320.213062 139.397706 
L 320.401361 139.422616 
L 320.544209 139.423986 
L 320.680564 139.400752 
L 320.687057 139.407609 
L 320.888343 139.395947 
L 321.031191 139.402197 
L 321.193519 139.419476 
L 321.329873 139.400575 
L 321.453242 139.433092 
L 321.563625 139.414437 
L 321.583104 139.432753 
L 321.790883 139.440319 
L 322.336303 139.411227 
L 322.459671 139.415213 
L 322.570054 139.395342 
L 322.576547 139.402949 
L 322.673943 139.419942 
L 322.693423 139.401822 
L 322.979119 139.39136 
L 323.147939 139.420032 
L 323.271308 139.428317 
L 323.388183 139.410898 
L 323.673879 139.376531 
L 323.797248 139.365117 
L 324.991977 139.353864 
L 325.089373 139.345151 
L 325.108852 139.355154 
L 325.297152 139.342553 
L 325.719203 139.322279 
L 326.089309 139.36156 
L 326.199692 139.391154 
L 326.219171 139.378789 
L 326.413964 139.372392 
L 326.420457 139.386349 
L 326.563305 139.410842 
L 326.569798 139.395749 
L 326.738618 139.409268 
L 326.861987 139.418419 
L 326.985356 139.412244 
L 326.991849 139.421023 
L 327.329489 139.386176 
L 327.426886 139.382326 
L 327.446365 139.362281 
L 329.485196 139.352084 
L 329.647523 139.299079 
L 329.783878 139.298027 
L 329.790371 139.28683 
L 329.991657 139.335104 
L 330.179956 139.335461 
L 330.770828 139.39864 
L 330.952634 139.392788 
L 333.21223 139.338386 
L 333.348585 139.349293 
L 333.575843 139.352592 
L 333.751156 139.359133 
L 333.906991 139.39808 
L 334.101783 139.397988 
L 334.218659 139.387087 
L 334.504355 139.475407 
L 334.64071 139.44229 
L 335.621167 139.424266 
L 335.751028 139.413096 
L 335.757521 139.427907 
L 335.893876 139.427274 
L 336.004259 139.416937 
L 336.108148 139.411507 
L 336.114641 139.393906 
L 337.062633 139.386004 
L 337.179508 139.381648 
L 337.692463 139.423167 
L 339.568966 139.430736 
L 339.692335 139.405995 
L 339.874141 139.398719 
L 339.971537 139.378308 
L 339.99751 139.397082 
L 340.237754 139.385186 
L 340.374109 139.393976 
L 340.497478 139.402591 
L 340.620847 139.385955 
L 340.62734 139.398386 
L 340.763695 139.392708 
L 340.932515 139.406303 
L 341.055884 139.378062 
L 341.06887 139.391368 
L 341.309114 139.381058 
L 341.477935 139.371609 
L 341.601303 139.393977 
L 341.861027 139.414392 
L 342.373981 139.42099 
L 342.912908 139.370118 
L 343.036276 139.374803 
L 343.042769 139.361801 
L 344.127116 139.31404 
L 344.237498 139.322114 
L 344.243991 139.318065 
L 344.776425 139.304626 
L 344.8933 139.29819 
L 345.010176 139.299704 
L 345.893236 139.341274 
L 346.146467 139.391863 
L 346.282822 139.378051 
L 346.458135 139.37316 
L 346.587997 139.367941 
L 346.730845 139.408091 
L 346.854214 139.382935 
L 347.334703 139.379907 
L 347.600919 139.418561 
L 347.737274 139.399929 
L 348.042449 139.420681 
L 348.159325 139.398337 
L 348.29568 139.44553 
L 348.412556 139.418827 
L 348.419049 139.420846 
L 348.587869 139.44633 
L 348.717731 139.408939 
L 348.724224 139.413505 
L 348.970961 139.433778 
L 349.107316 139.468527 
L 349.250164 139.455969 
L 349.256657 139.462086 
L 349.886487 139.450133 
L 350.022842 139.435497 
L 350.360483 139.433946 
L 350.509824 139.415496 
L 350.860451 139.340271 
L 351.113681 139.363346 
L 351.263023 139.337587 
L 351.373405 139.340313 
L 351.379898 139.320183 
L 352.418793 139.359289 
L 352.555148 139.395916 
L 353.256401 139.410961 
L 353.37977 139.422792 
L 353.516125 139.373215 
L 353.522618 139.37721 
L 353.756369 139.402515 
L 353.905711 139.400956 
L 354.068038 139.417416 
L 354.074531 139.405725 
L 354.184913 139.385447 
L 354.191407 139.393491 
L 354.977071 139.359372 
L 355.100439 139.341655 
L 355.548463 139.362256 
L 355.658845 139.352229 
L 355.665338 139.358856 
L 356.86656 139.360803 
L 357.080832 139.339285 
L 357.808058 139.37398 
L 359.5547 139.326283 
L 359.671575 139.30196 
L 359.678068 139.308748 
L 359.859875 139.311472 
L 360.022202 139.302731 
L 360.242967 139.322202 
L 360.359843 139.309116 
L 360.366336 139.315586 
L 360.827345 139.29652 
L 360.944221 139.339461 
L 360.950714 139.321991 
L 361.372765 139.324394 
L 361.496134 139.365031 
L 361.50912 139.349217 
L 361.95065 139.394469 
L 362.080512 139.375938 
L 362.087005 139.382703 
L 362.236346 139.403615 
L 362.379194 139.401116 
L 362.762287 139.382323 
L 362.983052 139.39834 
L 363.10642 139.392868 
L 363.112913 139.403609 
L 363.236282 139.412029 
L 363.242775 139.405558 
L 363.346665 139.411408 
L 363.353158 139.42196 
L 363.470033 139.417553 
L 363.366144 139.410766 
L 363.476527 139.40687 
L 364.5349 139.438851 
L 364.677748 139.466285 
L 364.930979 139.418125 
L 365.190703 139.417237 
L 365.35303 139.412434 
L 365.502371 139.419452 
L 365.943901 139.367226 
L 366.093242 139.385226 
L 366.203625 139.395154 
L 366.463348 139.389232 
L 367.086685 139.373202 
L 367.197068 139.410039 
L 367.210054 139.395867 
L 367.365888 139.375041 
L 367.761967 139.341838 
L 367.898321 139.360757 
L 367.904815 139.346498 
L 368.261935 139.293089 
L 368.333359 139.261424 
L 368.37881 139.280286 
L 368.521658 139.308258 
L 368.716451 139.271783 
L 368.852806 139.256883 
L 368.976175 139.266496 
L 369.313815 139.286877 
L 369.463156 139.293623 
L 369.625484 139.255871 
L 369.631977 139.261662 
L 369.904687 139.298217 
L 370.177396 139.308914 
L 370.307258 139.30301 
L 370.450106 139.321177 
L 370.573475 139.308648 
L 370.787747 139.296143 
L 370.79424 139.309084 
L 370.904623 139.335261 
L 370.813719 139.298198 
L 370.917609 139.322217 
L 371.216291 139.325305 
L 371.417577 139.359811 
L 371.651328 139.380413 
L 371.774697 139.367131 
L 371.78119 139.376473 
L 385.98158 139.330069 
L 386.169879 139.307523 
L 386.345193 139.332735 
L 386.526999 139.364816 
L 386.533492 139.35768 
L 387.423046 139.365825 
L 387.572387 139.380643 
L 388.241175 139.399413 
L 390.403375 139.371827 
L 390.546223 139.358228 
L 390.695564 139.376193 
L 390.831919 139.37961 
L 390.987753 139.400664 
L 391.15008 139.424157 
L 391.468241 139.398688 
L 391.598103 139.392529 
L 392.091578 139.41959 
L 392.22144 139.424345 
L 393.844713 139.372548 
L 393.987561 139.370577 
L 394.36416 139.377278 
L 394.53298 139.382493 
L 394.662842 139.376201 
L 394.825169 139.376935 
L 394.961524 139.393334 
L 395.110865 139.412124 
L 395.260207 139.402653 
L 395.649792 139.358391 
L 398.487273 139.367614 
L 398.487273 139.367614 
" style="fill:none;stroke:#000000;stroke-linecap:square;stroke-width:1.5;"/>
   </g>
   <g id="patch_3">
    <path d="M 57.6 162.432 
L 57.6 41.472 
" style="fill:none;stroke:#000000;stroke-linecap:square;stroke-linejoin:miter;stroke-width:0.8;"/>
   </g>
   <g id="patch_4">
    <path d="M 414.72 162.432 
L 414.72 41.472 
" style="fill:none;stroke:#000000;stroke-linecap:square;stroke-linejoin:miter;stroke-width:0.8;"/>
   </g>
   <g id="patch_5">
    <path d="M 57.6 162.432 
L 414.72 162.432 
" style="fill:none;stroke:#000000;stroke-linecap:square;stroke-linejoin:miter;stroke-width:0.8;"/>
   </g>
   <g id="patch_6">
    <path d="M 57.6 41.472 
L 414.72 41.472 
" style="fill:none;stroke:#000000;stroke-linecap:square;stroke-linejoin:miter;stroke-width:0.8;"/>
   </g>
  </g>
  <g id="axes_2">
   <g id="patch_7">
    <path d="M 57.6 307.584 
L 414.72 307.584 
L 414.72 186.624 
L 57.6 186.624 
z
" style="fill:#ffffff;"/>
   </g>
   <g id="matplotlib.axis_3">
    <g id="xtick_7">
     <g id="line2d_14">
      <g>
       <use style="stroke:#000000;stroke-width:0.8;" x="73.832727" xlink:href="#mf22ac88646" y="307.584"/>
      </g>
     </g>
     <g id="text_14">
      <!-- 0 -->
      <g transform="translate(70.651477 322.182437)scale(0.1 -0.1)">
       <use xlink:href="#DejaVuSans-30"/>
      </g>
     </g>
    </g>
    <g id="xtick_8">
     <g id="line2d_15">
      <g>
       <use style="stroke:#000000;stroke-width:0.8;" x="138.763636" xlink:href="#mf22ac88646" y="307.584"/>
      </g>
     </g>
     <g id="text_15">
      <!-- 10000 -->
      <g transform="translate(122.857386 322.182437)scale(0.1 -0.1)">
       <use xlink:href="#DejaVuSans-31"/>
       <use x="63.623047" xlink:href="#DejaVuSans-30"/>
       <use x="127.246094" xlink:href="#DejaVuSans-30"/>
       <use x="190.869141" xlink:href="#DejaVuSans-30"/>
       <use x="254.492188" xlink:href="#DejaVuSans-30"/>
      </g>
     </g>
    </g>
    <g id="xtick_9">
     <g id="line2d_16">
      <g>
       <use style="stroke:#000000;stroke-width:0.8;" x="203.694545" xlink:href="#mf22ac88646" y="307.584"/>
      </g>
     </g>
     <g id="text_16">
      <!-- 20000 -->
      <g transform="translate(187.788295 322.182437)scale(0.1 -0.1)">
       <use xlink:href="#DejaVuSans-32"/>
       <use x="63.623047" xlink:href="#DejaVuSans-30"/>
       <use x="127.246094" xlink:href="#DejaVuSans-30"/>
       <use x="190.869141" xlink:href="#DejaVuSans-30"/>
       <use x="254.492188" xlink:href="#DejaVuSans-30"/>
      </g>
     </g>
    </g>
    <g id="xtick_10">
     <g id="line2d_17">
      <g>
       <use style="stroke:#000000;stroke-width:0.8;" x="268.625455" xlink:href="#mf22ac88646" y="307.584"/>
      </g>
     </g>
     <g id="text_17">
      <!-- 30000 -->
      <g transform="translate(252.719205 322.182437)scale(0.1 -0.1)">
       <use xlink:href="#DejaVuSans-33"/>
       <use x="63.623047" xlink:href="#DejaVuSans-30"/>
       <use x="127.246094" xlink:href="#DejaVuSans-30"/>
       <use x="190.869141" xlink:href="#DejaVuSans-30"/>
       <use x="254.492188" xlink:href="#DejaVuSans-30"/>
      </g>
     </g>
    </g>
    <g id="xtick_11">
     <g id="line2d_18">
      <g>
       <use style="stroke:#000000;stroke-width:0.8;" x="333.556364" xlink:href="#mf22ac88646" y="307.584"/>
      </g>
     </g>
     <g id="text_18">
      <!-- 40000 -->
      <g transform="translate(317.650114 322.182437)scale(0.1 -0.1)">
       <use xlink:href="#DejaVuSans-34"/>
       <use x="63.623047" xlink:href="#DejaVuSans-30"/>
       <use x="127.246094" xlink:href="#DejaVuSans-30"/>
       <use x="190.869141" xlink:href="#DejaVuSans-30"/>
       <use x="254.492188" xlink:href="#DejaVuSans-30"/>
      </g>
     </g>
    </g>
    <g id="xtick_12">
     <g id="line2d_19">
      <g>
       <use style="stroke:#000000;stroke-width:0.8;" x="398.487273" xlink:href="#mf22ac88646" y="307.584"/>
      </g>
     </g>
     <g id="text_19">
      <!-- 50000 -->
      <g transform="translate(382.581023 322.182437)scale(0.1 -0.1)">
       <use xlink:href="#DejaVuSans-35"/>
       <use x="63.623047" xlink:href="#DejaVuSans-30"/>
       <use x="127.246094" xlink:href="#DejaVuSans-30"/>
       <use x="190.869141" xlink:href="#DejaVuSans-30"/>
       <use x="254.492188" xlink:href="#DejaVuSans-30"/>
      </g>
     </g>
    </g>
    <g id="text_20">
     <!-- Time -->
     <defs>
      <path d="M -0.296875 72.90625 
L 61.375 72.90625 
L 61.375 64.59375 
L 35.5 64.59375 
L 35.5 0 
L 25.59375 0 
L 25.59375 64.59375 
L -0.296875 64.59375 
z
" id="DejaVuSans-54"/>
      <path d="M 9.421875 54.6875 
L 18.40625 54.6875 
L 18.40625 0 
L 9.421875 0 
z
M 9.421875 75.984375 
L 18.40625 75.984375 
L 18.40625 64.59375 
L 9.421875 64.59375 
z
" id="DejaVuSans-69"/>
      <path d="M 52 44.1875 
Q 55.375 50.25 60.0625 53.125 
Q 64.75 56 71.09375 56 
Q 79.640625 56 84.28125 50.015625 
Q 88.921875 44.046875 88.921875 33.015625 
L 88.921875 0 
L 79.890625 0 
L 79.890625 32.71875 
Q 79.890625 40.578125 77.09375 44.375 
Q 74.3125 48.1875 68.609375 48.1875 
Q 61.625 48.1875 57.5625 43.546875 
Q 53.515625 38.921875 53.515625 30.90625 
L 53.515625 0 
L 44.484375 0 
L 44.484375 32.71875 
Q 44.484375 40.625 41.703125 44.40625 
Q 38.921875 48.1875 33.109375 48.1875 
Q 26.21875 48.1875 22.15625 43.53125 
Q 18.109375 38.875 18.109375 30.90625 
L 18.109375 0 
L 9.078125 0 
L 9.078125 54.6875 
L 18.109375 54.6875 
L 18.109375 46.1875 
Q 21.1875 51.21875 25.484375 53.609375 
Q 29.78125 56 35.6875 56 
Q 41.65625 56 45.828125 52.96875 
Q 50 49.953125 52 44.1875 
z
" id="DejaVuSans-6d"/>
     </defs>
     <g transform="translate(223.7725 335.860562)scale(0.1 -0.1)">
      <use xlink:href="#DejaVuSans-54"/>
      <use x="61.037109" xlink:href="#DejaVuSans-69"/>
      <use x="88.820312" xlink:href="#DejaVuSans-6d"/>
      <use x="186.232422" xlink:href="#DejaVuSans-65"/>
     </g>
    </g>
   </g>
   <g id="matplotlib.axis_4">
    <g id="ytick_7">
     <g id="line2d_20">
      <g>
       <use style="stroke:#000000;stroke-width:0.8;" x="57.6" xlink:href="#m1f18099b6b" y="306.686383"/>
      </g>
     </g>
     <g id="text_21">
      <!-- −0.25 -->
      <g transform="translate(19.954687 310.485602)scale(0.1 -0.1)">
       <use xlink:href="#DejaVuSans-2212"/>
       <use x="83.789062" xlink:href="#DejaVuSans-30"/>
       <use x="147.412109" xlink:href="#DejaVuSans-2e"/>
       <use x="179.199219" xlink:href="#DejaVuSans-32"/>
       <use x="242.822266" xlink:href="#DejaVuSans-35"/>
      </g>
     </g>
    </g>
    <g id="ytick_8">
     <g id="line2d_21">
      <g>
       <use style="stroke:#000000;stroke-width:0.8;" x="57.6" xlink:href="#m1f18099b6b" y="283.773543"/>
      </g>
     </g>
     <g id="text_22">
      <!-- 0.00 -->
      <g transform="translate(28.334375 287.572761)scale(0.1 -0.1)">
       <use xlink:href="#DejaVuSans-30"/>
       <use x="63.623047" xlink:href="#DejaVuSans-2e"/>
       <use x="95.410156" xlink:href="#DejaVuSans-30"/>
       <use x="159.033203" xlink:href="#DejaVuSans-30"/>
      </g>
     </g>
    </g>
    <g id="ytick_9">
     <g id="line2d_22">
      <g>
       <use style="stroke:#000000;stroke-width:0.8;" x="57.6" xlink:href="#m1f18099b6b" y="260.860703"/>
      </g>
     </g>
     <g id="text_23">
      <!-- 0.25 -->
      <g transform="translate(28.334375 264.659921)scale(0.1 -0.1)">
       <use xlink:href="#DejaVuSans-30"/>
       <use x="63.623047" xlink:href="#DejaVuSans-2e"/>
       <use x="95.410156" xlink:href="#DejaVuSans-32"/>
       <use x="159.033203" xlink:href="#DejaVuSans-35"/>
      </g>
     </g>
    </g>
    <g id="ytick_10">
     <g id="line2d_23">
      <g>
       <use style="stroke:#000000;stroke-width:0.8;" x="57.6" xlink:href="#m1f18099b6b" y="237.947862"/>
      </g>
     </g>
     <g id="text_24">
      <!-- 0.50 -->
      <g transform="translate(28.334375 241.747081)scale(0.1 -0.1)">
       <use xlink:href="#DejaVuSans-30"/>
       <use x="63.623047" xlink:href="#DejaVuSans-2e"/>
       <use x="95.410156" xlink:href="#DejaVuSans-35"/>
       <use x="159.033203" xlink:href="#DejaVuSans-30"/>
      </g>
     </g>
    </g>
    <g id="ytick_11">
     <g id="line2d_24">
      <g>
       <use style="stroke:#000000;stroke-width:0.8;" x="57.6" xlink:href="#m1f18099b6b" y="215.035022"/>
      </g>
     </g>
     <g id="text_25">
      <!-- 0.75 -->
      <g transform="translate(28.334375 218.834241)scale(0.1 -0.1)">
       <use xlink:href="#DejaVuSans-30"/>
       <use x="63.623047" xlink:href="#DejaVuSans-2e"/>
       <use x="95.410156" xlink:href="#DejaVuSans-37"/>
       <use x="159.033203" xlink:href="#DejaVuSans-35"/>
      </g>
     </g>
    </g>
    <g id="ytick_12">
     <g id="line2d_25">
      <g>
       <use style="stroke:#000000;stroke-width:0.8;" x="57.6" xlink:href="#m1f18099b6b" y="192.122182"/>
      </g>
     </g>
     <g id="text_26">
      <!-- 1.00 -->
      <g transform="translate(28.334375 195.921401)scale(0.1 -0.1)">
       <use xlink:href="#DejaVuSans-31"/>
       <use x="63.623047" xlink:href="#DejaVuSans-2e"/>
       <use x="95.410156" xlink:href="#DejaVuSans-30"/>
       <use x="159.033203" xlink:href="#DejaVuSans-30"/>
      </g>
     </g>
    </g>
    <g id="text_27">
     <!-- State 1 -->
     <g transform="translate(13.875 265.109469)rotate(-90)scale(0.1 -0.1)">
      <use xlink:href="#DejaVuSans-53"/>
      <use x="63.476562" xlink:href="#DejaVuSans-74"/>
      <use x="102.685547" xlink:href="#DejaVuSans-61"/>
      <use x="163.964844" xlink:href="#DejaVuSans-74"/>
      <use x="203.173828" xlink:href="#DejaVuSans-65"/>
      <use x="264.697266" xlink:href="#DejaVuSans-20"/>
      <use x="296.484375" xlink:href="#DejaVuSans-31"/>
     </g>
    </g>
   </g>
   <g id="line2d_26">
    <path clip-path="url(#pda0bfd19b1)" d="M 73.832727 283.774929 
L 74.313216 283.734028 
L 74.456064 283.724714 
L 74.93006 283.706961 
L 75.157318 283.708539 
L 75.631313 283.700947 
L 76.391005 283.733379 
L 76.553332 283.744359 
L 76.793577 283.756197 
L 92.727622 283.846347 
L 92.889949 283.843048 
L 93.247069 283.829465 
L 93.428876 283.839765 
L 93.922351 283.834564 
L 94.201553 283.851765 
L 94.46777 283.874527 
L 94.617111 283.861187 
L 95.240448 283.866083 
L 95.506665 283.83311 
L 95.688471 283.837312 
L 96.363753 283.837813 
L 96.597504 283.822862 
L 96.863721 283.806715 
L 97.103965 283.779871 
L 97.551988 283.758035 
L 97.727302 283.757352 
L 98.149353 283.7474 
L 98.623348 283.72248 
L 98.785676 283.718275 
L 99.370054 283.733961 
L 99.597312 283.73947 
L 99.818077 283.748207 
L 105.6229 283.75842 
L 105.876131 283.780284 
L 106.447523 283.78444 
L 106.707247 283.809609 
L 106.986449 283.838032 
L 107.23968 283.846854 
L 107.7851 283.851978 
L 108.044823 283.868243 
L 108.220137 283.877206 
L 111.830295 283.69859 
L 112.057553 283.699797 
L 112.265332 283.703628 
L 114.492463 283.762203 
L 114.706735 283.765054 
L 115.076841 283.758044 
L 115.252154 283.742441 
L 116.128721 283.770927 
L 117.557201 283.745269 
L 117.927308 283.756279 
L 118.213004 283.749708 
L 118.362345 283.761079 
L 118.524672 283.757472 
L 118.674013 283.74888 
L 118.959709 283.746721 
L 119.232419 283.741701 
L 119.427212 283.748762 
L 124.881408 283.771054 
L 125.017763 283.766898 
L 125.277487 283.779237 
L 126.543639 283.709412 
L 127.51111 283.701423 
L 128.03705 283.714935 
L 128.640908 283.750777 
L 129.017507 283.766706 
L 129.238272 283.783826 
L 129.407092 283.795049 
L 129.777199 283.783056 
L 130.523904 283.788355 
L 131.101789 283.764853 
L 131.517347 283.798212 
L 131.71214 283.805765 
L 132.010822 283.799517 
L 132.147177 283.806156 
L 132.367942 283.800488 
L 132.51079 283.809582 
L 132.744541 283.815713 
L 132.906868 283.828278 
L 133.445795 283.850016 
L 133.58215 283.864321 
L 135.900183 283.79886 
L 136.192372 283.800001 
L 136.400151 283.812951 
L 136.633903 283.834912 
L 137.588387 283.80068 
L 137.828631 283.779426 
L 138.12082 283.779129 
L 138.419503 283.740505 
L 138.575337 283.739514 
L 141.276463 283.769985 
L 141.464762 283.779974 
L 141.620596 283.783224 
L 142.04914 283.758588 
L 142.302371 283.737818 
L 144.074985 283.765907 
L 144.204847 283.758814 
L 144.412625 283.753317 
L 144.730787 283.749593 
L 144.912593 283.74695 
L 145.113879 283.746829 
L 145.354124 283.752001 
L 145.581382 283.770107 
L 145.776175 283.766079 
L 146.133295 283.763364 
L 146.431977 283.728688 
L 146.587811 283.723397 
L 147.224134 283.722129 
L 147.366982 283.717897 
L 147.581254 283.727413 
L 147.750074 283.729414 
L 148.795462 283.82413 
L 149.016227 283.815651 
L 149.730467 283.801465 
L 149.977204 283.804111 
L 152.418607 283.776996 
L 152.580934 283.751227 
L 153.282188 283.784593 
L 153.509446 283.777804 
L 153.736704 283.76162 
L 154.256151 283.730162 
L 154.574313 283.740942 
L 154.898967 283.757615 
L 155.022336 283.765631 
L 155.918383 283.800375 
L 156.074217 283.792035 
L 156.652102 283.762547 
L 156.840401 283.756341 
L 156.989743 283.750396 
L 157.314397 283.763727 
L 157.703983 283.742035 
L 158.333812 283.719228 
L 158.470167 283.708118 
L 158.697425 283.70883 
L 158.898711 283.692915 
L 159.067532 283.690599 
L 159.307776 283.686298 
L 161.021952 283.820327 
L 161.924492 283.785578 
L 162.580294 283.804997 
L 162.768593 283.823056 
L 163.177658 283.818322 
L 163.586723 283.816226 
L 163.716585 283.823023 
L 164.697041 283.790227 
L 164.956765 283.784851 
L 165.17753 283.78461 
L 165.320378 283.786254 
L 165.456733 283.798205 
L 168.534458 283.792574 
L 168.74873 283.782567 
L 168.969495 283.753384 
L 169.372067 283.729346 
L 169.748666 283.754428 
L 171.131695 283.803622 
L 171.397911 283.838814 
L 172.436806 283.909515 
L 172.884829 283.705447 
L 173.170525 283.61532 
L 173.300387 283.581083 
L 173.482193 283.553115 
L 174.014627 283.61235 
L 174.163968 283.673301 
L 174.170461 283.668331 
L 174.676922 283.597034 
L 175.021056 283.390138 
L 175.189876 283.331071 
L 175.592448 283.265607 
L 176.241757 283.388412 
L 176.96249 282.807946 
L 177.566348 282.29228 
L 178.020864 281.735719 
L 178.49486 280.790513 
L 179.196113 278.835169 
L 179.988271 277.686723 
L 180.442787 276.701162 
L 180.812893 275.763194 
L 181.027165 275.305278 
L 181.338833 274.411059 
L 182.286825 272.0977 
L 184.091904 270.016781 
L 184.221766 270.06903 
L 184.384093 270.330353 
L 184.92302 271.959825 
L 185.254167 273.192657 
L 185.44896 273.938797 
L 186.104762 276.959888 
L 186.948864 281.566672 
L 187.617652 284.154373 
L 188.533178 287.34219 
L 188.961722 287.571802 
L 189.124049 287.542045 
L 189.312349 287.530131 
L 189.942179 287.479501 
L 190.435654 288.16113 
L 190.669405 288.529256 
L 191.07847 288.535337 
L 191.188852 288.432907 
L 191.468055 287.651632 
L 191.818682 285.781158 
L 192.260212 282.27493 
L 192.987439 276.957455 
L 193.279628 276.02001 
L 193.558831 275.886942 
L 193.902964 276.034262 
L 194.01984 276.112903 
L 194.396439 276.750688 
L 194.961338 278.497061 
L 195.454813 280.476202 
L 195.97426 282.119706 
L 196.259956 282.294312 
L 196.526173 281.935243 
L 196.740445 281.168147 
L 197.240413 278.675293 
L 198.785769 269.318918 
L 199.56494 269.01968 
L 200.00647 269.902133 
L 200.883037 272.860953 
L 201.370019 273.91237 
L 202.181655 277.127349 
L 202.486831 279.584562 
L 202.869923 284.369228 
L 203.408849 290.787557 
L 203.817914 293.008338 
L 204.194513 294.220208 
L 204.480209 294.298956 
L 206.103482 290.104905 
L 206.759284 286.55256 
L 207.324183 283.720456 
L 208.324119 279.752422 
L 209.109783 277.939628 
L 209.116276 277.944373 
L 209.304576 278.192019 
L 209.681175 278.46828 
L 209.960378 278.759138 
L 210.226595 279.775679 
L 210.583715 282.026469 
L 211.291462 286.981173 
L 211.869347 289.184998 
L 212.538135 290.027739 
L 212.797859 290.366325 
L 212.804352 290.360564 
L 212.921228 290.521545 
L 213.193937 290.941784 
L 213.317306 291.006678 
L 213.882205 292.085131 
L 214.128943 292.433361 
L 214.401652 292.784865 
L 215.44704 293.969793 
L 216.063884 295.930145 
L 216.304128 296.759812 
L 217.356009 302.083047 
L 217.544308 301.825009 
L 217.94688 300.416737 
L 218.459834 298.425224 
L 218.777996 296.993725 
L 219.310429 293.204195 
L 220.706444 282.809147 
L 221.453149 278.738795 
L 221.849228 276.917609 
L 222.336209 275.656386 
L 222.660864 275.834406 
L 222.972532 276.354088 
L 223.121873 276.301186 
L 223.225763 276.20203 
L 223.4725 275.700553 
L 223.810141 275.29636 
L 224.082851 275.637638 
L 224.388026 276.250338 
L 224.628271 276.613728 
L 224.712681 276.689666 
L 224.81657 276.869216 
L 225.225635 277.560085 
L 225.595741 277.721247 
L 225.725603 277.652239 
L 225.732096 277.655265 
L 226.017792 277.828275 
L 226.855401 279.779379 
L 228.225443 287.273083 
L 229.387706 296.828181 
L 229.842223 298.994143 
L 230.127919 299.615468 
L 230.498025 299.298271 
L 230.764241 298.297648 
L 231.400564 294.909498 
L 231.939491 289.092221 
L 232.686196 278.823345 
L 233.329012 266.39691 
L 234.413359 241.03062 
L 236.16 192.122182 
L 236.172986 192.87455 
L 236.426217 197.507202 
L 236.861254 209.564238 
L 238.426089 254.230284 
L 239.529914 277.013635 
L 240.224675 287.204482 
L 241.07527 296.09154 
L 241.627183 298.617651 
L 242.023261 299.640456 
L 242.04274 299.632187 
L 242.269999 299.562339 
L 242.568681 298.692444 
L 243.088128 295.729119 
L 243.880285 288.959693 
L 244.581539 284.161453 
L 245.776268 278.820423 
L 246.607383 277.652375 
L 247.081379 277.580935 
L 247.438499 277.010242 
L 248.438435 275.339834 
L 248.678679 275.365234 
L 249.334481 276.365788 
L 249.353961 276.344946 
L 249.672122 275.816818 
L 249.873408 275.665156 
L 250.048721 275.720431 
L 250.217542 276.036168 
L 250.711017 277.831065 
L 251.795363 283.951927 
L 253.938083 298.588512 
L 254.191313 299.462029 
L 254.64583 301.479208 
L 254.951005 302.083754 
L 255.113332 301.818196 
L 255.347084 300.833337 
L 256.34702 295.617826 
L 257.301504 293.313266 
L 257.411887 293.238096 
L 257.697583 293.062679 
L 257.827444 292.917381 
L 258.528698 291.976122 
L 258.639081 291.759687 
L 259.113076 290.94612 
L 259.405265 290.51283 
L 259.716934 290.124973 
L 259.781865 290.027739 
L 260.106519 289.550056 
L 260.509091 289.092643 
L 260.892183 287.695132 
L 261.716806 282.185395 
L 262.197295 279.290129 
L 262.457018 278.643731 
L 262.528442 278.561886 
L 262.749207 278.381049 
L 262.866083 278.337221 
L 263.30112 277.967999 
L 263.320599 277.993181 
L 263.521885 278.459275 
L 263.950429 279.6758 
L 264.138729 280.063536 
L 264.807517 282.771749 
L 266.476241 291.169152 
L 266.820375 292.00082 
L 267.476177 293.554141 
L 267.515136 293.598078 
L 267.534615 293.636963 
L 267.891735 294.326527 
L 268.002118 294.33357 
L 268.015104 294.321434 
L 268.287814 293.902456 
L 268.924137 290.682944 
L 269.18386 288.032438 
L 270.190289 276.804719 
L 270.566889 275.16368 
L 270.865571 274.213976 
L 271.248663 273.238516 
L 271.51488 272.746414 
L 271.884986 271.666554 
L 272.657664 269.117288 
L 273.034263 269.068807 
L 273.319959 269.243521 
L 273.566697 269.364425 
L 273.884858 270.304553 
L 274.28743 272.816048 
L 275.618513 281.304572 
L 276.111988 282.288041 
L 276.131468 282.265923 
L 276.352233 282.112672 
L 276.611956 281.559159 
L 278.053423 276.529132 
L 278.150819 276.344973 
L 278.436515 276.021785 
L 278.540404 275.982088 
L 278.793635 275.860885 
L 278.949469 275.883912 
L 279.319575 276.894528 
L 279.637737 278.826345 
L 280.858438 287.676168 
L 281.183092 288.494668 
L 281.377885 288.597167 
L 281.384378 288.591086 
L 281.579171 288.591136 
L 281.812922 288.270277 
L 282.150563 287.740527 
L 282.514176 287.438107 
L 282.871296 287.50086 
L 283.059596 287.528527 
L 283.319319 287.562222 
L 283.455674 287.560682 
L 283.851753 287.244969 
L 284.299776 285.773495 
L 285.702284 279.929791 
L 286.87104 273.938797 
L 287.708649 270.954942 
L 288.033303 270.14785 
L 288.247575 270.022296 
L 288.46834 270.192659 
L 288.968308 270.769169 
L 290.591581 273.012928 
L 291.442176 275.617528 
L 292.58496 278.17418 
L 292.727808 278.34947 
L 293.13038 278.845285 
L 293.636841 280.227685 
L 294.53938 282.082825 
L 294.623791 282.171783 
L 294.974417 282.549307 
L 295.617233 282.985828 
L 296.039284 283.374928 
L 296.539252 283.353434 
L 296.883386 283.2501 
L 297.363875 283.422327 
L 298.259921 283.638459 
L 299.110516 283.607255 
L 300.090973 283.982192 
L 300.220835 283.986278 
L 300.974033 283.828029 
L 301.149347 283.806696 
L 301.448029 283.785581 
L 301.59737 283.767597 
L 301.947997 283.77296 
L 302.090845 283.76692 
L 303.123247 283.730746 
L 303.597242 283.785623 
L 303.733597 283.788461 
L 303.999814 283.803622 
L 304.246551 283.81022 
L 306.86976 283.795912 
L 307.051567 283.785052 
L 307.376221 283.788279 
L 307.7723 283.789385 
L 307.921641 283.810128 
L 308.122927 283.811815 
L 308.363171 283.823491 
L 310.499398 283.782748 
L 310.62926 283.788192 
L 311.337007 283.823402 
L 311.505827 283.808508 
L 311.642182 283.798083 
L 312.05774 283.747683 
L 312.187601 283.738095 
L 312.356422 283.723966 
L 313.070662 283.686663 
L 313.245975 283.687143 
L 313.499206 283.697805 
L 313.629068 283.711804 
L 321.135081 283.815242 
L 321.290915 283.822768 
L 321.42727 283.820619 
L 321.855814 283.813232 
L 321.985676 283.812538 
L 327.335983 283.750588 
L 327.485324 283.742276 
L 327.998278 283.752067 
L 328.400849 283.763143 
L 328.530711 283.760531 
L 328.855366 283.771359 
L 329.0112 283.770229 
L 329.335855 283.751563 
L 329.485196 283.741482 
L 329.770892 283.736261 
L 329.991657 283.731343 
L 330.394228 283.769378 
L 330.751348 283.787332 
L 330.907183 283.774876 
L 331.114961 283.768701 
L 333.192751 283.723308 
L 333.387543 283.738562 
L 333.848553 283.743546 
L 334.64071 283.791522 
L 334.770572 283.804013 
L 334.919913 283.801644 
L 335.056268 283.813277 
L 335.530263 283.822564 
L 335.939328 283.815666 
L 338.062569 283.86099 
L 338.218403 283.875249 
L 338.478127 283.869102 
L 340.094906 283.807393 
L 340.529943 283.808094 
L 340.854598 283.793625 
L 341.003939 283.790253 
L 345.789347 283.719825 
L 346.211398 283.741066 
L 346.42567 283.736965 
L 346.613969 283.756 
L 346.906159 283.769531 
L 347.159389 283.775428 
L 355.26926 283.736801 
L 355.431587 283.734626 
L 355.567942 283.743319 
L 355.730269 283.749963 
L 355.918569 283.747484 
L 356.210758 283.770336 
L 356.347113 283.773443 
L 356.522426 283.760225 
L 356.665274 283.753428 
L 356.937984 283.750273 
L 357.100311 283.746216 
L 357.288611 283.753613 
L 357.476911 283.761878 
L 357.691183 283.768614 
L 358.522298 283.770818 
L 358.795008 283.75241 
L 358.996294 283.751583 
L 359.398865 283.724757 
L 359.866368 283.706976 
L 367.287971 283.728177 
L 367.833391 283.695039 
L 368.073635 283.6939 
L 368.235962 283.687293 
L 378.540497 283.836312 
L 378.683345 283.839487 
L 379.033972 283.842026 
L 380.176756 283.812961 
L 380.313111 283.806665 
L 387.182801 283.781261 
L 387.358115 283.780699 
L 388.078848 283.813294 
L 389.559273 283.784983 
L 389.728093 283.789595 
L 389.942365 283.806488 
L 390.234554 283.784363 
L 390.481292 283.785429 
L 391.637062 283.781708 
L 391.974703 283.806784 
L 392.325329 283.836652 
L 394.312215 283.756843 
L 394.455063 283.752074 
L 395.214755 283.771604 
L 395.429027 283.763538 
L 395.617327 283.752028 
L 395.812119 283.740092 
L 397.312023 283.709711 
L 397.552268 283.70994 
L 398.487273 283.774929 
L 398.487273 283.774929 
" style="fill:none;stroke:#000000;stroke-linecap:square;stroke-width:1.5;"/>
   </g>
   <g id="patch_8">
    <path d="M 57.6 307.584 
L 57.6 186.624 
" style="fill:none;stroke:#000000;stroke-linecap:square;stroke-linejoin:miter;stroke-width:0.8;"/>
   </g>
   <g id="patch_9">
    <path d="M 414.72 307.584 
L 414.72 186.624 
" style="fill:none;stroke:#000000;stroke-linecap:square;stroke-linejoin:miter;stroke-width:0.8;"/>
   </g>
   <g id="patch_10">
    <path d="M 57.6 307.584 
L 414.72 307.584 
" style="fill:none;stroke:#000000;stroke-linecap:square;stroke-linejoin:miter;stroke-width:0.8;"/>
   </g>
   <g id="patch_11">
    <path d="M 57.6 186.624 
L 414.72 186.624 
" style="fill:none;stroke:#000000;stroke-linecap:square;stroke-linejoin:miter;stroke-width:0.8;"/>
   </g>
   <g id="legend_1">
    <g id="patch_12">
     <path d="M 296.97 209.302125 
L 407.72 209.302125 
Q 409.72 209.302125 409.72 207.302125 
L 409.72 193.624 
Q 409.72 191.624 407.72 191.624 
L 296.97 191.624 
Q 294.97 191.624 294.97 193.624 
L 294.97 207.302125 
Q 294.97 209.302125 296.97 209.302125 
z
" style="fill:#ffffff;opacity:0.8;stroke:#cccccc;stroke-linejoin:miter;"/>
    </g>
    <g id="line2d_27">
     <path d="M 298.97 199.722437 
L 318.97 199.722437 
" style="fill:none;stroke:#000000;stroke-linecap:square;stroke-width:1.5;"/>
    </g>
    <g id="line2d_28"/>
    <g id="text_28">
     <!-- AutoCorrelation -->
     <defs>
      <path d="M 34.1875 63.1875 
L 20.796875 26.90625 
L 47.609375 26.90625 
z
M 28.609375 72.90625 
L 39.796875 72.90625 
L 67.578125 0 
L 57.328125 0 
L 50.6875 18.703125 
L 17.828125 18.703125 
L 11.1875 0 
L 0.78125 0 
z
" id="DejaVuSans-41"/>
      <path d="M 8.5 21.578125 
L 8.5 54.6875 
L 17.484375 54.6875 
L 17.484375 21.921875 
Q 17.484375 14.15625 20.5 10.265625 
Q 23.53125 6.390625 29.59375 6.390625 
Q 36.859375 6.390625 41.078125 11.03125 
Q 45.3125 15.671875 45.3125 23.6875 
L 45.3125 54.6875 
L 54.296875 54.6875 
L 54.296875 0 
L 45.3125 0 
L 45.3125 8.40625 
Q 42.046875 3.421875 37.71875 1 
Q 33.40625 -1.421875 27.6875 -1.421875 
Q 18.265625 -1.421875 13.375 4.4375 
Q 8.5 10.296875 8.5 21.578125 
z
M 31.109375 56 
z
" id="DejaVuSans-75"/>
      <path d="M 30.609375 48.390625 
Q 23.390625 48.390625 19.1875 42.75 
Q 14.984375 37.109375 14.984375 27.296875 
Q 14.984375 17.484375 19.15625 11.84375 
Q 23.34375 6.203125 30.609375 6.203125 
Q 37.796875 6.203125 41.984375 11.859375 
Q 46.1875 17.53125 46.1875 27.296875 
Q 46.1875 37.015625 41.984375 42.703125 
Q 37.796875 48.390625 30.609375 48.390625 
z
M 30.609375 56 
Q 42.328125 56 49.015625 48.375 
Q 55.71875 40.765625 55.71875 27.296875 
Q 55.71875 13.875 49.015625 6.21875 
Q 42.328125 -1.421875 30.609375 -1.421875 
Q 18.84375 -1.421875 12.171875 6.21875 
Q 5.515625 13.875 5.515625 27.296875 
Q 5.515625 40.765625 12.171875 48.375 
Q 18.84375 56 30.609375 56 
z
" id="DejaVuSans-6f"/>
      <path d="M 64.40625 67.28125 
L 64.40625 56.890625 
Q 59.421875 61.53125 53.78125 63.8125 
Q 48.140625 66.109375 41.796875 66.109375 
Q 29.296875 66.109375 22.65625 58.46875 
Q 16.015625 50.828125 16.015625 36.375 
Q 16.015625 21.96875 22.65625 14.328125 
Q 29.296875 6.6875 41.796875 6.6875 
Q 48.140625 6.6875 53.78125 8.984375 
Q 59.421875 11.28125 64.40625 15.921875 
L 64.40625 5.609375 
Q 59.234375 2.09375 53.4375 0.328125 
Q 47.65625 -1.421875 41.21875 -1.421875 
Q 24.65625 -1.421875 15.125 8.703125 
Q 5.609375 18.84375 5.609375 36.375 
Q 5.609375 53.953125 15.125 64.078125 
Q 24.65625 74.21875 41.21875 74.21875 
Q 47.75 74.21875 53.53125 72.484375 
Q 59.328125 70.75 64.40625 67.28125 
z
" id="DejaVuSans-43"/>
      <path d="M 41.109375 46.296875 
Q 39.59375 47.171875 37.8125 47.578125 
Q 36.03125 48 33.890625 48 
Q 26.265625 48 22.1875 43.046875 
Q 18.109375 38.09375 18.109375 28.8125 
L 18.109375 0 
L 9.078125 0 
L 9.078125 54.6875 
L 18.109375 54.6875 
L 18.109375 46.1875 
Q 20.953125 51.171875 25.484375 53.578125 
Q 30.03125 56 36.53125 56 
Q 37.453125 56 38.578125 55.875 
Q 39.703125 55.765625 41.0625 55.515625 
z
" id="DejaVuSans-72"/>
      <path d="M 9.421875 75.984375 
L 18.40625 75.984375 
L 18.40625 0 
L 9.421875 0 
z
" id="DejaVuSans-6c"/>
      <path d="M 54.890625 33.015625 
L 54.890625 0 
L 45.90625 0 
L 45.90625 32.71875 
Q 45.90625 40.484375 42.875 44.328125 
Q 39.84375 48.1875 33.796875 48.1875 
Q 26.515625 48.1875 22.3125 43.546875 
Q 18.109375 38.921875 18.109375 30.90625 
L 18.109375 0 
L 9.078125 0 
L 9.078125 54.6875 
L 18.109375 54.6875 
L 18.109375 46.1875 
Q 21.34375 51.125 25.703125 53.5625 
Q 30.078125 56 35.796875 56 
Q 45.21875 56 50.046875 50.171875 
Q 54.890625 44.34375 54.890625 33.015625 
z
" id="DejaVuSans-6e"/>
     </defs>
     <g transform="translate(326.97 203.222437)scale(0.1 -0.1)">
      <use xlink:href="#DejaVuSans-41"/>
      <use x="68.408203" xlink:href="#DejaVuSans-75"/>
      <use x="131.787109" xlink:href="#DejaVuSans-74"/>
      <use x="170.996094" xlink:href="#DejaVuSans-6f"/>
      <use x="232.177734" xlink:href="#DejaVuSans-43"/>
      <use x="302.001953" xlink:href="#DejaVuSans-6f"/>
      <use x="363.183594" xlink:href="#DejaVuSans-72"/>
      <use x="404.28125" xlink:href="#DejaVuSans-72"/>
      <use x="445.363281" xlink:href="#DejaVuSans-65"/>
      <use x="506.886719" xlink:href="#DejaVuSans-6c"/>
      <use x="534.669922" xlink:href="#DejaVuSans-61"/>
      <use x="595.949219" xlink:href="#DejaVuSans-74"/>
      <use x="635.158203" xlink:href="#DejaVuSans-69"/>
      <use x="662.941406" xlink:href="#DejaVuSans-6f"/>
      <use x="724.123047" xlink:href="#DejaVuSans-6e"/>
     </g>
    </g>
   </g>
  </g>
 </g>
 <defs>
  <clipPath id="pc49d8f184f">
   <rect height="120.96" width="357.12" x="57.6" y="41.472"/>
  </clipPath>
  <clipPath id="pda0bfd19b1">
   <rect height="120.96" width="357.12" x="57.6" y="186.624"/>
  </clipPath>
 </defs>
</svg>
