<?xml version="1.0" encoding="utf-8" standalone="no"?>
<!DOCTYPE svg PUBLIC "-//W3C//DTD SVG 1.1//EN"
  "http://www.w3.org/Graphics/SVG/1.1/DTD/svg11.dtd">
<!-- Created with matplotlib (http://matplotlib.org/) -->
<svg height="345.6pt" version="1.1" viewBox="0 0 460.8 345.6" width="460.8pt" xmlns="http://www.w3.org/2000/svg" xmlns:xlink="http://www.w3.org/1999/xlink">
 <defs>
  <style type="text/css">
*{stroke-linecap:butt;stroke-linejoin:round;}
  </style>
 </defs>
 <g id="figure_1">
  <g id="patch_1">
   <path d="M 0 345.6 
L 460.8 345.6 
L 460.8 0 
L 0 0 
z
" style="fill:#ffffff;"/>
  </g>
  <g id="axes_1">
   <g id="patch_2">
    <path d="M 57.6 162.432 
L 414.72 162.432 
L 414.72 41.472 
L 57.6 41.472 
z
" style="fill:#ffffff;"/>
   </g>
   <g id="matplotlib.axis_1">
    <g id="xtick_1">
     <g id="line2d_1">
      <defs>
       <path d="M 0 0 
L 0 3.5 
" id="m6168b6ba5f" style="stroke:#000000;stroke-width:0.8;"/>
      </defs>
      <g>
       <use style="stroke:#000000;stroke-width:0.8;" x="73.832727" xlink:href="#m6168b6ba5f" y="162.432"/>
      </g>
     </g>
     <g id="text_1">
      <!-- 0 -->
      <defs>
       <path d="M 31.78125 66.40625 
Q 24.171875 66.40625 20.328125 58.90625 
Q 16.5 51.421875 16.5 36.375 
Q 16.5 21.390625 20.328125 13.890625 
Q 24.171875 6.390625 31.78125 6.390625 
Q 39.453125 6.390625 43.28125 13.890625 
Q 47.125 21.390625 47.125 36.375 
Q 47.125 51.421875 43.28125 58.90625 
Q 39.453125 66.40625 31.78125 66.40625 
z
M 31.78125 74.21875 
Q 44.046875 74.21875 50.515625 64.515625 
Q 56.984375 54.828125 56.984375 36.375 
Q 56.984375 17.96875 50.515625 8.265625 
Q 44.046875 -1.421875 31.78125 -1.421875 
Q 19.53125 -1.421875 13.0625 8.265625 
Q 6.59375 17.96875 6.59375 36.375 
Q 6.59375 54.828125 13.0625 64.515625 
Q 19.53125 74.21875 31.78125 74.21875 
z
" id="DejaVuSans-30"/>
      </defs>
      <g transform="translate(70.651477 177.030437)scale(0.1 -0.1)">
       <use xlink:href="#DejaVuSans-30"/>
      </g>
     </g>
    </g>
    <g id="xtick_2">
     <g id="line2d_2">
      <g>
       <use style="stroke:#000000;stroke-width:0.8;" x="138.763636" xlink:href="#m6168b6ba5f" y="162.432"/>
      </g>
     </g>
     <g id="text_2">
      <!-- 10 -->
      <defs>
       <path d="M 12.40625 8.296875 
L 28.515625 8.296875 
L 28.515625 63.921875 
L 10.984375 60.40625 
L 10.984375 69.390625 
L 28.421875 72.90625 
L 38.28125 72.90625 
L 38.28125 8.296875 
L 54.390625 8.296875 
L 54.390625 0 
L 12.40625 0 
z
" id="DejaVuSans-31"/>
      </defs>
      <g transform="translate(132.401136 177.030437)scale(0.1 -0.1)">
       <use xlink:href="#DejaVuSans-31"/>
       <use x="63.623047" xlink:href="#DejaVuSans-30"/>
      </g>
     </g>
    </g>
    <g id="xtick_3">
     <g id="line2d_3">
      <g>
       <use style="stroke:#000000;stroke-width:0.8;" x="203.694545" xlink:href="#m6168b6ba5f" y="162.432"/>
      </g>
     </g>
     <g id="text_3">
      <!-- 20 -->
      <defs>
       <path d="M 19.1875 8.296875 
L 53.609375 8.296875 
L 53.609375 0 
L 7.328125 0 
L 7.328125 8.296875 
Q 12.9375 14.109375 22.625 23.890625 
Q 32.328125 33.6875 34.8125 36.53125 
Q 39.546875 41.84375 41.421875 45.53125 
Q 43.3125 49.21875 43.3125 52.78125 
Q 43.3125 58.59375 39.234375 62.25 
Q 35.15625 65.921875 28.609375 65.921875 
Q 23.96875 65.921875 18.8125 64.3125 
Q 13.671875 62.703125 7.8125 59.421875 
L 7.8125 69.390625 
Q 13.765625 71.78125 18.9375 73 
Q 24.125 74.21875 28.421875 74.21875 
Q 39.75 74.21875 46.484375 68.546875 
Q 53.21875 62.890625 53.21875 53.421875 
Q 53.21875 48.921875 51.53125 44.890625 
Q 49.859375 40.875 45.40625 35.40625 
Q 44.1875 33.984375 37.640625 27.21875 
Q 31.109375 20.453125 19.1875 8.296875 
z
" id="DejaVuSans-32"/>
      </defs>
      <g transform="translate(197.332045 177.030437)scale(0.1 -0.1)">
       <use xlink:href="#DejaVuSans-32"/>
       <use x="63.623047" xlink:href="#DejaVuSans-30"/>
      </g>
     </g>
    </g>
    <g id="xtick_4">
     <g id="line2d_4">
      <g>
       <use style="stroke:#000000;stroke-width:0.8;" x="268.625455" xlink:href="#m6168b6ba5f" y="162.432"/>
      </g>
     </g>
     <g id="text_4">
      <!-- 30 -->
      <defs>
       <path d="M 40.578125 39.3125 
Q 47.65625 37.796875 51.625 33 
Q 55.609375 28.21875 55.609375 21.1875 
Q 55.609375 10.40625 48.1875 4.484375 
Q 40.765625 -1.421875 27.09375 -1.421875 
Q 22.515625 -1.421875 17.65625 -0.515625 
Q 12.796875 0.390625 7.625 2.203125 
L 7.625 11.71875 
Q 11.71875 9.328125 16.59375 8.109375 
Q 21.484375 6.890625 26.8125 6.890625 
Q 36.078125 6.890625 40.9375 10.546875 
Q 45.796875 14.203125 45.796875 21.1875 
Q 45.796875 27.640625 41.28125 31.265625 
Q 36.765625 34.90625 28.71875 34.90625 
L 20.21875 34.90625 
L 20.21875 43.015625 
L 29.109375 43.015625 
Q 36.375 43.015625 40.234375 45.921875 
Q 44.09375 48.828125 44.09375 54.296875 
Q 44.09375 59.90625 40.109375 62.90625 
Q 36.140625 65.921875 28.71875 65.921875 
Q 24.65625 65.921875 20.015625 65.03125 
Q 15.375 64.15625 9.8125 62.3125 
L 9.8125 71.09375 
Q 15.4375 72.65625 20.34375 73.4375 
Q 25.25 74.21875 29.59375 74.21875 
Q 40.828125 74.21875 47.359375 69.109375 
Q 53.90625 64.015625 53.90625 55.328125 
Q 53.90625 49.265625 50.4375 45.09375 
Q 46.96875 40.921875 40.578125 39.3125 
z
" id="DejaVuSans-33"/>
      </defs>
      <g transform="translate(262.262955 177.030437)scale(0.1 -0.1)">
       <use xlink:href="#DejaVuSans-33"/>
       <use x="63.623047" xlink:href="#DejaVuSans-30"/>
      </g>
     </g>
    </g>
    <g id="xtick_5">
     <g id="line2d_5">
      <g>
       <use style="stroke:#000000;stroke-width:0.8;" x="333.556364" xlink:href="#m6168b6ba5f" y="162.432"/>
      </g>
     </g>
     <g id="text_5">
      <!-- 40 -->
      <defs>
       <path d="M 37.796875 64.3125 
L 12.890625 25.390625 
L 37.796875 25.390625 
z
M 35.203125 72.90625 
L 47.609375 72.90625 
L 47.609375 25.390625 
L 58.015625 25.390625 
L 58.015625 17.1875 
L 47.609375 17.1875 
L 47.609375 0 
L 37.796875 0 
L 37.796875 17.1875 
L 4.890625 17.1875 
L 4.890625 26.703125 
z
" id="DejaVuSans-34"/>
      </defs>
      <g transform="translate(327.193864 177.030437)scale(0.1 -0.1)">
       <use xlink:href="#DejaVuSans-34"/>
       <use x="63.623047" xlink:href="#DejaVuSans-30"/>
      </g>
     </g>
    </g>
    <g id="xtick_6">
     <g id="line2d_6">
      <g>
       <use style="stroke:#000000;stroke-width:0.8;" x="398.487273" xlink:href="#m6168b6ba5f" y="162.432"/>
      </g>
     </g>
     <g id="text_6">
      <!-- 50 -->
      <defs>
       <path d="M 10.796875 72.90625 
L 49.515625 72.90625 
L 49.515625 64.59375 
L 19.828125 64.59375 
L 19.828125 46.734375 
Q 21.96875 47.46875 24.109375 47.828125 
Q 26.265625 48.1875 28.421875 48.1875 
Q 40.625 48.1875 47.75 41.5 
Q 54.890625 34.8125 54.890625 23.390625 
Q 54.890625 11.625 47.5625 5.09375 
Q 40.234375 -1.421875 26.90625 -1.421875 
Q 22.3125 -1.421875 17.546875 -0.640625 
Q 12.796875 0.140625 7.71875 1.703125 
L 7.71875 11.625 
Q 12.109375 9.234375 16.796875 8.0625 
Q 21.484375 6.890625 26.703125 6.890625 
Q 35.15625 6.890625 40.078125 11.328125 
Q 45.015625 15.765625 45.015625 23.390625 
Q 45.015625 31 40.078125 35.4375 
Q 35.15625 39.890625 26.703125 39.890625 
Q 22.75 39.890625 18.8125 39.015625 
Q 14.890625 38.140625 10.796875 36.28125 
z
" id="DejaVuSans-35"/>
      </defs>
      <g transform="translate(392.124773 177.030437)scale(0.1 -0.1)">
       <use xlink:href="#DejaVuSans-35"/>
       <use x="63.623047" xlink:href="#DejaVuSans-30"/>
      </g>
     </g>
    </g>
   </g>
   <g id="matplotlib.axis_2">
    <g id="ytick_1">
     <g id="line2d_7">
      <defs>
       <path d="M 0 0 
L -3.5 0 
" id="m9a76e17d79" style="stroke:#000000;stroke-width:0.8;"/>
      </defs>
      <g>
       <use style="stroke:#000000;stroke-width:0.8;" x="57.6" xlink:href="#m9a76e17d79" y="156.933818"/>
      </g>
     </g>
     <g id="text_7">
      <!-- 0.00 -->
      <defs>
       <path d="M 10.6875 12.40625 
L 21 12.40625 
L 21 0 
L 10.6875 0 
z
" id="DejaVuSans-2e"/>
      </defs>
      <g transform="translate(28.334375 160.733037)scale(0.1 -0.1)">
       <use xlink:href="#DejaVuSans-30"/>
       <use x="63.623047" xlink:href="#DejaVuSans-2e"/>
       <use x="95.410156" xlink:href="#DejaVuSans-30"/>
       <use x="159.033203" xlink:href="#DejaVuSans-30"/>
      </g>
     </g>
    </g>
    <g id="ytick_2">
     <g id="line2d_8">
      <g>
       <use style="stroke:#000000;stroke-width:0.8;" x="57.6" xlink:href="#m9a76e17d79" y="136.082046"/>
      </g>
     </g>
     <g id="text_8">
      <!-- 0.25 -->
      <g transform="translate(28.334375 139.881265)scale(0.1 -0.1)">
       <use xlink:href="#DejaVuSans-30"/>
       <use x="63.623047" xlink:href="#DejaVuSans-2e"/>
       <use x="95.410156" xlink:href="#DejaVuSans-32"/>
       <use x="159.033203" xlink:href="#DejaVuSans-35"/>
      </g>
     </g>
    </g>
    <g id="ytick_3">
     <g id="line2d_9">
      <g>
       <use style="stroke:#000000;stroke-width:0.8;" x="57.6" xlink:href="#m9a76e17d79" y="115.230275"/>
      </g>
     </g>
     <g id="text_9">
      <!-- 0.50 -->
      <g transform="translate(28.334375 119.029493)scale(0.1 -0.1)">
       <use xlink:href="#DejaVuSans-30"/>
       <use x="63.623047" xlink:href="#DejaVuSans-2e"/>
       <use x="95.410156" xlink:href="#DejaVuSans-35"/>
       <use x="159.033203" xlink:href="#DejaVuSans-30"/>
      </g>
     </g>
    </g>
    <g id="ytick_4">
     <g id="line2d_10">
      <g>
       <use style="stroke:#000000;stroke-width:0.8;" x="57.6" xlink:href="#m9a76e17d79" y="94.378503"/>
      </g>
     </g>
     <g id="text_10">
      <!-- 0.75 -->
      <defs>
       <path d="M 8.203125 72.90625 
L 55.078125 72.90625 
L 55.078125 68.703125 
L 28.609375 0 
L 18.3125 0 
L 43.21875 64.59375 
L 8.203125 64.59375 
z
" id="DejaVuSans-37"/>
      </defs>
      <g transform="translate(28.334375 98.177722)scale(0.1 -0.1)">
       <use xlink:href="#DejaVuSans-30"/>
       <use x="63.623047" xlink:href="#DejaVuSans-2e"/>
       <use x="95.410156" xlink:href="#DejaVuSans-37"/>
       <use x="159.033203" xlink:href="#DejaVuSans-35"/>
      </g>
     </g>
    </g>
    <g id="ytick_5">
     <g id="line2d_11">
      <g>
       <use style="stroke:#000000;stroke-width:0.8;" x="57.6" xlink:href="#m9a76e17d79" y="73.526731"/>
      </g>
     </g>
     <g id="text_11">
      <!-- 1.00 -->
      <g transform="translate(28.334375 77.32595)scale(0.1 -0.1)">
       <use xlink:href="#DejaVuSans-31"/>
       <use x="63.623047" xlink:href="#DejaVuSans-2e"/>
       <use x="95.410156" xlink:href="#DejaVuSans-30"/>
       <use x="159.033203" xlink:href="#DejaVuSans-30"/>
      </g>
     </g>
    </g>
    <g id="ytick_6">
     <g id="line2d_12">
      <g>
       <use style="stroke:#000000;stroke-width:0.8;" x="57.6" xlink:href="#m9a76e17d79" y="52.674959"/>
      </g>
     </g>
     <g id="text_12">
      <!-- 1.25 -->
      <g transform="translate(28.334375 56.474178)scale(0.1 -0.1)">
       <use xlink:href="#DejaVuSans-31"/>
       <use x="63.623047" xlink:href="#DejaVuSans-2e"/>
       <use x="95.410156" xlink:href="#DejaVuSans-32"/>
       <use x="159.033203" xlink:href="#DejaVuSans-35"/>
      </g>
     </g>
    </g>
    <g id="text_13">
     <!-- State 0 -->
     <defs>
      <path d="M 53.515625 70.515625 
L 53.515625 60.890625 
Q 47.90625 63.578125 42.921875 64.890625 
Q 37.9375 66.21875 33.296875 66.21875 
Q 25.25 66.21875 20.875 63.09375 
Q 16.5 59.96875 16.5 54.203125 
Q 16.5 49.359375 19.40625 46.890625 
Q 22.3125 44.4375 30.421875 42.921875 
L 36.375 41.703125 
Q 47.40625 39.59375 52.65625 34.296875 
Q 57.90625 29 57.90625 20.125 
Q 57.90625 9.515625 50.796875 4.046875 
Q 43.703125 -1.421875 29.984375 -1.421875 
Q 24.8125 -1.421875 18.96875 -0.25 
Q 13.140625 0.921875 6.890625 3.21875 
L 6.890625 13.375 
Q 12.890625 10.015625 18.65625 8.296875 
Q 24.421875 6.59375 29.984375 6.59375 
Q 38.421875 6.59375 43.015625 9.90625 
Q 47.609375 13.234375 47.609375 19.390625 
Q 47.609375 24.75 44.3125 27.78125 
Q 41.015625 30.8125 33.5 32.328125 
L 27.484375 33.5 
Q 16.453125 35.6875 11.515625 40.375 
Q 6.59375 45.0625 6.59375 53.421875 
Q 6.59375 63.09375 13.40625 68.65625 
Q 20.21875 74.21875 32.171875 74.21875 
Q 37.3125 74.21875 42.625 73.28125 
Q 47.953125 72.359375 53.515625 70.515625 
z
" id="DejaVuSans-53"/>
      <path d="M 18.3125 70.21875 
L 18.3125 54.6875 
L 36.8125 54.6875 
L 36.8125 47.703125 
L 18.3125 47.703125 
L 18.3125 18.015625 
Q 18.3125 11.328125 20.140625 9.421875 
Q 21.96875 7.515625 27.59375 7.515625 
L 36.8125 7.515625 
L 36.8125 0 
L 27.59375 0 
Q 17.1875 0 13.234375 3.875 
Q 9.28125 7.765625 9.28125 18.015625 
L 9.28125 47.703125 
L 2.6875 47.703125 
L 2.6875 54.6875 
L 9.28125 54.6875 
L 9.28125 70.21875 
z
" id="DejaVuSans-74"/>
      <path d="M 34.28125 27.484375 
Q 23.390625 27.484375 19.1875 25 
Q 14.984375 22.515625 14.984375 16.5 
Q 14.984375 11.71875 18.140625 8.90625 
Q 21.296875 6.109375 26.703125 6.109375 
Q 34.1875 6.109375 38.703125 11.40625 
Q 43.21875 16.703125 43.21875 25.484375 
L 43.21875 27.484375 
z
M 52.203125 31.203125 
L 52.203125 0 
L 43.21875 0 
L 43.21875 8.296875 
Q 40.140625 3.328125 35.546875 0.953125 
Q 30.953125 -1.421875 24.3125 -1.421875 
Q 15.921875 -1.421875 10.953125 3.296875 
Q 6 8.015625 6 15.921875 
Q 6 25.140625 12.171875 29.828125 
Q 18.359375 34.515625 30.609375 34.515625 
L 43.21875 34.515625 
L 43.21875 35.40625 
Q 43.21875 41.609375 39.140625 45 
Q 35.0625 48.390625 27.6875 48.390625 
Q 23 48.390625 18.546875 47.265625 
Q 14.109375 46.140625 10.015625 43.890625 
L 10.015625 52.203125 
Q 14.9375 54.109375 19.578125 55.046875 
Q 24.21875 56 28.609375 56 
Q 40.484375 56 46.34375 49.84375 
Q 52.203125 43.703125 52.203125 31.203125 
z
" id="DejaVuSans-61"/>
      <path d="M 56.203125 29.59375 
L 56.203125 25.203125 
L 14.890625 25.203125 
Q 15.484375 15.921875 20.484375 11.0625 
Q 25.484375 6.203125 34.421875 6.203125 
Q 39.59375 6.203125 44.453125 7.46875 
Q 49.3125 8.734375 54.109375 11.28125 
L 54.109375 2.78125 
Q 49.265625 0.734375 44.1875 -0.34375 
Q 39.109375 -1.421875 33.890625 -1.421875 
Q 20.796875 -1.421875 13.15625 6.1875 
Q 5.515625 13.8125 5.515625 26.8125 
Q 5.515625 40.234375 12.765625 48.109375 
Q 20.015625 56 32.328125 56 
Q 43.359375 56 49.78125 48.890625 
Q 56.203125 41.796875 56.203125 29.59375 
z
M 47.21875 32.234375 
Q 47.125 39.59375 43.09375 43.984375 
Q 39.0625 48.390625 32.421875 48.390625 
Q 24.90625 48.390625 20.390625 44.140625 
Q 15.875 39.890625 15.1875 32.171875 
z
" id="DejaVuSans-65"/>
      <path id="DejaVuSans-20"/>
     </defs>
     <g transform="translate(22.254687 119.957469)rotate(-90)scale(0.1 -0.1)">
      <use xlink:href="#DejaVuSans-53"/>
      <use x="63.476562" xlink:href="#DejaVuSans-74"/>
      <use x="102.685547" xlink:href="#DejaVuSans-61"/>
      <use x="163.964844" xlink:href="#DejaVuSans-74"/>
      <use x="203.173828" xlink:href="#DejaVuSans-65"/>
      <use x="264.697266" xlink:href="#DejaVuSans-20"/>
      <use x="296.484375" xlink:href="#DejaVuSans-30"/>
     </g>
    </g>
   </g>
   <g id="line2d_13">
    <path clip-path="url(#pbd788d71bb)" d="M 73.832727 156.933818 
L 73.949603 65.792181 
L 398.487273 65.792181 
L 398.487273 65.792181 
" style="fill:none;stroke:#000000;stroke-linecap:square;stroke-width:4;"/>
   </g>
   <g id="line2d_14">
    <path clip-path="url(#pbd788d71bb)" d="M 73.832727 156.933818 
L 73.897658 156.836831 
L 74.02752 156.067082 
L 74.261271 153.127883 
L 74.644364 144.715505 
L 75.494959 126.34187 
L 75.891037 120.198605 
L 76.267636 117.282065 
L 76.546839 116.650322 
L 76.767604 115.515171 
L 78.04025 106.258112 
L 79.884288 85.630043 
L 80.202449 84.294757 
L 80.306339 84.382599 
L 80.520611 85.048252 
L 81.040058 86.84574 
L 81.072524 86.815637 
L 81.182906 86.415004 
L 81.553012 84.526617 
L 81.61145 84.587299 
L 81.936105 85.442878 
L 82.299718 86.191723 
L 82.526976 86.280257 
L 82.702289 86.124039 
L 82.916561 85.482297 
L 83.111354 84.274913 
L 83.58535 81.199376 
L 83.75417 80.845567 
L 84.013894 79.713231 
L 84.390493 76.667096 
L 84.767092 74.380414 
L 84.851503 74.410858 
L 84.870982 74.443465 
L 85.000844 74.536518 
L 85.026816 74.517291 
L 85.169664 74.224485 
L 85.364457 73.264631 
L 86.033245 69.41048 
L 86.344913 68.531839 
L 86.643596 65.953107 
L 87.013702 63.51965 
L 87.091619 63.633491 
L 87.338356 64.220254 
L 87.390301 64.173415 
L 87.552628 63.911523 
L 87.611066 64.023464 
L 87.760407 64.857592 
L 88.085062 68.336145 
L 89.130449 80.269266 
L 89.455104 81.885448 
L 89.662883 82.352899 
L 89.773265 82.226441 
L 89.9291 81.54477 
L 90.617367 77.560803 
L 90.669312 77.600576 
L 90.799174 77.955509 
L 91.019939 79.397305 
L 91.617303 83.527068 
L 91.877027 84.030217 
L 92.039354 83.973008 
L 92.227654 83.602681 
L 92.721129 82.465087 
L 92.747101 82.487818 
L 92.863977 82.831253 
L 93.14318 84.613972 
L 93.526272 86.364133 
L 93.695092 86.417483 
L 93.876899 86.16934 
L 94.123636 85.422934 
L 94.759959 82.195255 
L 95.318365 76.69863 
L 95.89625 72.713059 
L 95.98066 72.654802 
L 96.026112 72.708825 
L 96.16896 73.210949 
L 96.532573 74.498904 
L 96.811776 74.664806 
L 96.980596 75.082142 
L 97.188375 76.570573 
L 97.454592 78.03688 
L 97.584454 78.009236 
L 97.694836 78.122956 
L 97.889629 78.774597 
L 98.019491 78.968987 
L 98.051956 78.947384 
L 98.175325 78.65098 
L 98.324666 78.375854 
L 98.357132 78.396773 
L 98.4805 78.694865 
L 98.831127 79.584461 
L 98.883072 79.580543 
L 98.915537 79.523519 
L 99.045399 78.927992 
L 99.389533 76.982783 
L 99.434985 77.018623 
L 99.857036 77.487499 
L 100.207663 77.495923 
L 100.350511 78.025431 
L 100.655686 80.260057 
L 101.623156 87.477927 
L 101.778991 87.725132 
L 101.804963 87.698843 
L 101.908852 87.315371 
L 102.129617 85.389269 
L 102.369862 84.228067 
L 102.525696 83.860891 
L 102.720489 82.331068 
L 103.032157 80.212651 
L 103.233443 79.178922 
L 103.649001 75.174528 
L 104.239872 70.470238 
L 104.311296 70.45197 
L 104.350255 70.50219 
L 104.57102 71.145994 
L 104.993071 72.342695 
L 105.324218 72.647638 
L 105.441094 72.974022 
L 105.661859 74.411888 
L 105.889117 75.327792 
L 105.993007 75.261715 
L 106.16832 74.724205 
L 106.596864 72.408574 
L 107.499404 67.896133 
L 107.518883 67.90459 
L 107.629265 68.128451 
L 107.947427 69.421048 
L 108.233123 71.514328 
L 108.895418 77.147014 
L 108.953856 77.080276 
L 109.083718 76.503543 
L 109.590179 73.657506 
L 109.622644 73.681496 
L 109.73952 74.020129 
L 109.960285 75.512781 
L 110.466746 79.373739 
L 110.505705 79.348209 
L 110.713484 78.882008 
L 111.005673 77.749395 
L 111.603037 74.596027 
L 111.648489 74.638484 
L 111.771857 75.074477 
L 112.187415 76.685557 
L 112.382208 76.760502 
L 112.583494 76.76117 
L 112.589987 76.77531 
L 112.752314 77.433075 
L 112.979572 78.226658 
L 112.999052 78.217196 
L 113.102941 77.991261 
L 113.284748 76.943985 
L 114.434025 68.738113 
L 114.856076 67.808088 
L 114.888541 67.831347 
L 115.018403 68.14145 
L 115.349551 69.759222 
L 115.62226 71.892507 
L 116.433897 79.429462 
L 116.453376 79.422535 
L 116.544279 79.206399 
L 116.732579 77.988431 
L 118.693492 62.302694 
L 118.946723 60.927056 
L 119.011654 60.879351 
L 119.057105 60.939721 
L 119.186967 61.484754 
L 119.531101 64.306047 
L 121.102429 76.720959 
L 121.492015 79.498539 
L 121.810176 81.43705 
L 121.888093 81.431548 
L 121.914065 81.390601 
L 122.043927 80.857305 
L 122.745181 75.894526 
L 123.134767 73.406892 
L 123.232163 73.484506 
L 123.39449 74.024549 
L 123.797062 75.405915 
L 123.972375 75.460941 
L 124.154182 76.01976 
L 124.355468 77.348624 
L 124.978804 82.237806 
L 125.017763 82.202099 
L 125.134639 81.769226 
L 125.316445 81.326701 
L 125.329431 81.331534 
L 125.433321 81.515316 
L 125.667072 81.886623 
L 125.673565 81.884306 
L 125.80992 81.702586 
L 125.97874 80.973953 
L 127.627985 71.002614 
L 127.725382 71.14222 
L 128.043543 71.70579 
L 128.108474 71.704717 
L 128.14094 71.647699 
L 128.277295 71.048103 
L 128.575977 68.438194 
L 129.446051 60.841165 
L 129.556433 60.605202 
L 129.595392 60.647711 
L 129.725254 61.151394 
L 130.26418 64.281391 
L 130.634287 68.297057 
L 131.134255 73.460271 
L 131.264116 73.680488 
L 131.296582 73.656249 
L 131.380992 73.634868 
L 131.413457 73.673072 
L 131.556305 74.101766 
L 131.79655 75.65027 
L 132.296518 78.99788 
L 132.445859 79.638034 
L 133.354892 84.528875 
L 133.647081 86.662107 
L 134.374307 92.612177 
L 134.413265 92.575408 
L 134.523648 92.156221 
L 134.802851 91.162672 
L 134.92622 91.207574 
L 135.088547 91.622751 
L 135.348271 92.987875 
L 136.120948 97.762674 
L 136.361193 98.208751 
L 136.491055 98.058453 
L 137.127377 96.500089 
L 137.445539 95.298851 
L 137.588387 94.857158 
L 137.815645 93.089362 
L 138.101341 91.512581 
L 138.257175 90.849896 
L 138.919471 86.671764 
L 138.990895 86.747654 
L 139.224646 87.239312 
L 139.302563 87.109311 
L 139.575273 86.290591 
L 139.659683 86.43402 
L 139.828503 87.260162 
L 140.192116 90.483451 
L 140.737536 93.985035 
L 140.912849 94.450635 
L 140.925836 94.444678 
L 141.029725 94.229731 
L 141.185559 93.308896 
L 141.893306 88.286782 
L 142.107578 88.031714 
L 142.120564 88.039745 
L 142.250426 88.276248 
L 142.516643 88.870064 
L 142.555601 88.838696 
L 142.691956 88.50566 
L 142.880256 87.278823 
L 143.3088 84.473871 
L 143.445155 84.195055 
L 143.847727 82.892826 
L 143.93863 83.004175 
L 144.029533 83.123833 
L 144.074985 83.060524 
L 144.204847 82.470742 
L 144.451584 80.07694 
L 144.977524 74.932427 
L 145.2827 74.267603 
L 145.380096 74.333468 
L 145.529437 74.85285 
L 146.282636 78.05536 
L 146.393018 78.360328 
L 146.626769 79.860122 
L 146.925452 81.064453 
L 146.990383 81.069026 
L 147.022848 81.023058 
L 147.159203 80.526281 
L 147.418927 79.644436 
L 147.431913 79.648586 
L 147.535802 79.821516 
L 147.691636 80.596309 
L 147.983825 83.407445 
L 148.704559 90.792245 
L 148.717545 90.786288 
L 148.801955 90.572683 
L 149.405812 88.445596 
L 149.65255 87.479843 
L 150.256407 84.410335 
L 150.62002 84.027649 
L 150.886237 83.489077 
L 151.282316 82.027204 
L 151.379712 82.179792 
L 151.529053 82.516224 
L 151.580998 82.451353 
L 151.71086 81.903387 
L 152.944547 74.403728 
L 153.015971 74.469347 
L 153.256215 74.693736 
L 153.269201 74.685281 
L 153.431529 74.432339 
L 153.697745 73.516372 
L 153.808128 73.2874 
L 153.847087 73.323557 
L 153.963962 73.742282 
L 154.19122 75.599876 
L 154.723654 80.064342 
L 154.82105 80.119855 
L 154.860009 80.080295 
L 155.002857 79.68154 
L 155.223622 78.32497 
L 156.067724 72.438644 
L 156.288489 72.167922 
L 156.444323 72.072763 
L 156.658595 71.577286 
L 156.872867 70.392894 
L 157.132591 69.11468 
L 157.158563 69.130007 
L 157.262452 69.421547 
L 157.639052 71.626568 
L 157.924748 74.670314 
L 158.164992 76.369766 
L 158.242909 76.423117 
L 158.288361 76.374643 
L 158.444195 75.944991 
L 158.723398 74.393464 
L 159.197393 71.785247 
L 159.320762 71.596348 
L 159.496076 70.643363 
L 160.151878 66.582166 
L 160.418095 65.91929 
L 160.742749 64.988511 
L 160.755735 64.993372 
L 160.885597 65.189982 
L 161.242717 66.228685 
L 161.554385 68.02629 
L 162.080326 70.742622 
L 162.314077 71.60304 
L 162.658211 74.520377 
L 163.788009 83.369071 
L 163.950336 83.513055 
L 163.963322 83.505609 
L 164.119156 83.257345 
L 164.19058 83.242219 
L 164.229539 83.297546 
L 164.372387 83.828335 
L 165.216489 87.776601 
L 165.443747 88.214949 
L 165.489199 88.150758 
L 165.612567 87.570389 
L 165.911249 84.728718 
L 166.424204 78.298545 
L 166.800803 74.77324 
L 167.346223 69.757286 
L 168.378624 58.808019 
L 168.644841 57.67161 
L 168.898071 57.461739 
L 169.027933 57.552487 
L 169.177274 58.172134 
L 169.443491 60.41334 
L 170.553809 71.74735 
L 170.592768 71.71625 
L 170.742109 71.311531 
L 171.047284 70.105595 
L 171.118708 70.229929 
L 171.274543 71.072731 
L 171.904372 74.670002 
L 172.079686 75.138469 
L 172.547188 76.468084 
L 172.670557 76.364848 
L 172.871843 75.799502 
L 173.112087 75.377806 
L 173.267921 75.445801 
L 173.482193 75.86582 
L 173.709452 76.784324 
L 174.066572 79.342746 
L 174.90418 85.753017 
L 175.124945 86.159571 
L 175.397655 86.284177 
L 175.514531 86.316887 
L 175.540503 86.270488 
L 175.676858 85.68716 
L 175.923596 83.463605 
L 176.43655 78.732846 
L 176.767697 78.477163 
L 176.858601 78.600154 
L 177.027421 79.33637 
L 177.300131 81.672373 
L 177.689716 84.757852 
L 177.76114 84.81734 
L 177.806592 84.749613 
L 177.936454 84.138522 
L 179.059759 77.123383 
L 179.176634 77.023361 
L 179.2091 77.050066 
L 179.345455 77.378687 
L 179.605178 78.732451 
L 179.832436 79.731156 
L 179.858409 79.714547 
L 179.962298 79.406544 
L 180.189556 77.788354 
L 180.8064 73.208131 
L 181.027165 72.71785 
L 181.053137 72.739726 
L 181.157027 73.067282 
L 181.416751 74.90981 
L 182.15047 78.803441 
L 182.247866 78.852623 
L 182.286825 78.819721 
L 182.371235 78.905016 
L 182.514083 79.550809 
L 182.767313 80.805303 
L 182.806272 80.768047 
L 182.923148 80.320645 
L 183.130927 79.777859 
L 183.234816 79.889428 
L 183.591936 80.399219 
L 183.689332 80.310677 
L 183.85166 79.741488 
L 184.1893 77.533185 
L 184.403572 76.64004 
L 184.410065 76.642357 
L 184.494476 76.805584 
L 184.786665 77.503469 
L 184.806144 77.494918 
L 185.137292 77.40784 
L 185.293126 77.747257 
L 185.520384 79.009993 
L 186.117748 83.079002 
L 186.182679 83.014305 
L 186.273583 83.007147 
L 186.299555 83.037811 
L 186.448896 83.453005 
L 186.721606 85.007988 
L 187.091712 86.863754 
L 187.552721 87.168312 
L 187.67609 86.939441 
L 188.169565 85.732997 
L 188.189044 85.741582 
L 188.331892 85.954248 
L 188.721478 86.625258 
L 188.734464 86.618782 
L 188.844847 86.634372 
L 188.857833 86.658624 
L 189.000681 87.214494 
L 189.273391 89.373023 
L 189.727907 92.775826 
L 189.792838 92.831699 
L 189.838289 92.763744 
L 189.968151 92.148048 
L 190.214889 89.667834 
L 190.695377 82.147617 
L 191.79271 64.793033 
L 192.039447 63.613836 
L 193.071849 61.787453 
L 193.104314 61.818522 
L 193.240669 62.186128 
L 193.85102 64.382536 
L 193.889978 64.358556 
L 194.032826 64.069271 
L 194.273071 62.93517 
L 194.448384 62.41123 
L 194.467863 62.421529 
L 194.571753 62.669157 
L 194.811997 64.054128 
L 195.331444 67.011778 
L 195.396375 66.999881 
L 195.422348 66.957298 
L 195.558703 66.425973 
L 195.80544 65.659643 
L 195.909329 65.777341 
L 196.026205 65.860932 
L 196.058671 65.83504 
L 196.201519 65.509733 
L 196.539159 63.975856 
L 196.857321 62.871584 
L 197.058607 62.746782 
L 197.253399 62.938556 
L 197.435206 62.951663 
L 197.727395 62.876227 
L 197.94816 63.212384 
L 198.013091 63.098896 
L 198.175418 62.316394 
L 198.655907 59.810599 
L 199.129903 56.750328 
L 199.344175 55.883532 
L 199.350668 55.885129 
L 199.435078 56.030868 
L 199.740253 57.342091 
L 200.155811 58.722463 
L 200.370083 59.545437 
L 200.649286 61.529397 
L 201.045364 66.398354 
L 201.753111 75.178717 
L 202.181655 77.242482 
L 202.389434 77.4634 
L 202.480337 77.341998 
L 202.642665 76.606552 
L 203.207564 73.733563 
L 203.610135 72.818243 
L 203.889338 72.470311 
L 204.116596 71.5242 
L 204.402292 69.002555 
L 204.895767 65.209894 
L 205.311325 63.052714 
L 205.63598 61.285467 
L 205.72039 61.165894 
L 205.765841 61.218366 
L 205.88921 61.715283 
L 206.525533 65.186606 
L 206.570985 65.158742 
L 206.700847 64.856474 
L 206.934598 63.616175 
L 207.350156 60.019914 
L 207.921548 55.229478 
L 208.077382 55.15609 
L 208.090368 55.164847 
L 208.252695 55.431182 
L 208.525405 56.391197 
L 208.713705 56.894337 
L 208.74617 56.87523 
L 208.863046 56.584841 
L 209.226659 55.601894 
L 209.304576 55.623536 
L 209.324055 55.654265 
L 209.466903 56.145899 
L 209.798051 58.35452 
L 210.122705 59.99171 
L 210.382429 60.479748 
L 210.700591 61.743961 
L 210.765521 61.66174 
L 210.966807 61.20555 
L 211.038231 61.315008 
L 211.226531 62.128217 
L 211.3499 62.314237 
L 211.382365 62.290129 
L 211.512227 61.953183 
L 211.616116 61.83445 
L 211.655075 61.873498 
L 211.784937 62.28144 
L 212.018688 63.890459 
L 212.77838 69.691895 
L 212.869283 69.624874 
L 213.018624 69.058699 
L 213.291334 66.970562 
L 213.687412 64.20988 
L 213.771823 64.315336 
L 213.93415 65.043972 
L 214.661376 68.952097 
L 215.018496 69.278475 
L 215.187316 69.503062 
L 215.219782 69.476042 
L 215.356137 69.145931 
L 215.61586 68.614049 
L 215.934022 68.540901 
L 216.122321 68.118761 
L 216.180759 68.213197 
L 216.323607 68.950655 
L 216.557359 70.001656 
L 216.570345 69.997866 
L 216.661248 69.816528 
L 216.843055 68.782708 
L 217.375488 65.483406 
L 217.894935 65.081116 
L 218.148166 64.889989 
L 218.414383 64.173368 
L 218.881885 62.293158 
L 219.167581 61.336879 
L 219.271471 61.482297 
L 219.511715 61.802659 
L 219.803904 61.922775 
L 220.018176 62.611315 
L 220.498665 64.827832 
L 220.583075 64.730093 
L 220.784361 64.570188 
L 220.933702 64.7127 
L 221.063564 65.327588 
L 221.888186 71.869156 
L 222.141417 73.160513 
L 222.258292 73.205698 
L 222.284265 73.184545 
L 222.440099 72.872631 
L 222.660864 71.894791 
L 223.121873 68.177398 
L 223.875072 63.534896 
L 223.985455 63.223856 
L 224.388026 61.341451 
L 224.491916 61.490881 
L 224.589312 61.55103 
L 224.628271 61.510088 
L 224.771119 61.092965 
L 225.102266 60.159928 
L 225.27758 60.144567 
L 225.472372 60.422049 
L 225.874944 61.133715 
L 225.926889 61.074944 
L 226.07623 60.591491 
L 226.232064 60.173064 
L 226.271023 60.203033 
L 226.387898 60.566263 
L 226.732032 62.744779 
L 227.154083 64.987108 
L 227.576134 66.08198 
L 228.102074 67.090264 
L 228.205964 66.978118 
L 228.394263 66.317974 
L 228.511139 66.122848 
L 228.550097 66.155354 
L 228.673466 66.528701 
L 229.296803 69.122133 
L 229.342255 69.095822 
L 229.413679 69.093301 
L 229.446144 69.13883 
L 229.588992 69.63631 
L 229.848716 70.621533 
L 229.887674 70.58784 
L 230.017536 70.185632 
L 230.121425 70.026389 
L 230.166877 70.069121 
L 230.296739 70.508089 
L 230.588928 72.542691 
L 231.030458 77.201865 
L 231.530426 81.848362 
L 231.913519 83.074352 
L 232.283625 86.325542 
L 232.517376 87.518322 
L 232.868003 88.08028 
L 233.205644 89.042218 
L 233.329012 88.987774 
L 233.484847 88.486918 
L 233.841967 87.365836 
L 233.965335 87.494992 
L 234.166621 88.137977 
L 234.413359 89.667441 
L 234.952285 93.232643 
L 235.218502 95.20441 
L 235.666525 98.174036 
L 235.737949 98.197585 
L 235.776908 98.14811 
L 235.906769 97.688005 
L 236.127535 95.868009 
L 236.627503 89.32171 
L 237.510563 77.136331 
L 237.802752 74.615616 
L 238.068969 72.785203 
L 238.809181 67.33317 
L 239.042932 66.00259 
L 239.400052 64.169046 
L 239.757172 63.630108 
L 239.828596 63.732645 
L 239.971444 64.487271 
L 240.322071 66.405993 
L 240.328564 66.403979 
L 240.594781 66.371834 
L 240.601274 66.385172 
L 240.796067 67.057374 
L 241.140201 69.251525 
L 241.640169 72.062599 
L 241.945344 72.408477 
L 242.14663 72.429449 
L 242.334929 72.085993 
L 242.50375 71.326119 
L 242.873856 69.359952 
L 242.919308 69.40012 
L 243.075142 69.867633 
L 243.432262 70.856693 
L 243.47122 70.823885 
L 243.601082 70.455307 
L 243.82834 69.016452 
L 244.315322 65.921209 
L 244.523101 64.926533 
L 244.977617 62.744064 
L 245.068521 62.719719 
L 245.100986 62.755861 
L 245.250327 63.178502 
L 245.393175 63.447325 
L 245.419148 63.430607 
L 245.536023 63.146388 
L 245.730816 62.658678 
L 245.763281 62.683987 
L 245.88665 63.021041 
L 246.146374 64.582268 
L 246.51648 66.53382 
L 246.70478 66.6057 
L 247.009955 66.60311 
L 247.178775 67.48405 
L 247.470964 68.782835 
L 247.607319 68.807054 
L 247.620305 68.795411 
L 247.789126 68.465574 
L 247.990412 67.558503 
L 248.568297 64.371518 
L 248.82802 64.395306 
L 248.938403 64.321724 
L 249.107223 63.821877 
L 249.496809 61.729509 
L 250.061708 58.410333 
L 250.120145 58.457593 
L 250.224035 58.814583 
L 250.425321 60.477386 
L 250.743482 62.748887 
L 251.07463 63.384979 
L 251.334353 63.921153 
L 251.555119 64.875037 
L 251.860294 67.778532 
L 252.938147 77.849787 
L 253.392663 80.451973 
L 253.645894 81.227141 
L 253.944576 82.845641 
L 254.243258 84.157864 
L 254.334161 84.033992 
L 254.522461 83.248003 
L 254.873088 81.617716 
L 254.912047 81.649637 
L 255.113332 82.015292 
L 255.191249 81.876375 
L 255.36007 81.043957 
L 255.639273 78.301985 
L 256.236637 72.347765 
L 256.385978 72.010084 
L 256.418444 72.038897 
L 256.535319 72.411912 
L 256.795043 74.239437 
L 257.249559 78.942075 
L 257.606679 82.074897 
L 257.7755 82.445973 
L 257.794979 82.438222 
L 257.905361 82.230317 
L 258.119633 81.906216 
L 258.255988 82.042702 
L 258.554671 82.303188 
L 258.749463 82.476633 
L 258.970228 82.99707 
L 259.190993 84.458342 
L 259.463703 85.864498 
L 259.600058 85.862261 
L 259.931206 85.577676 
L 260.08704 84.742867 
L 260.554543 82.045033 
L 260.638953 82.129143 
L 260.781801 82.75658 
L 261.249303 85.042826 
L 261.255796 85.04162 
L 261.340207 84.884138 
L 261.502534 83.950827 
L 262.22976 79.243231 
L 262.77518 77.47955 
L 262.944 76.949943 
L 262.963479 76.960172 
L 263.060876 77.197239 
L 263.521885 78.596988 
L 263.859526 79.170493 
L 263.924457 79.087805 
L 264.086784 78.493487 
L 264.411439 77.428609 
L 264.89842 76.759741 
L 265.054255 76.942775 
L 265.943808 78.857815 
L 266.722979 83.278652 
L 266.813882 83.278526 
L 266.839855 83.245066 
L 266.989196 82.80862 
L 267.482671 80.678847 
L 267.567081 80.819544 
L 267.761873 81.769524 
L 268.190417 83.597167 
L 268.196911 83.595754 
L 268.3008 83.447332 
L 268.625455 82.320512 
L 268.833233 81.921145 
L 268.950109 82.055524 
L 269.053999 82.140289 
L 269.092957 82.104897 
L 269.235805 81.712753 
L 269.716294 79.930338 
L 269.768239 79.990001 
L 269.904593 80.519795 
L 270.235741 81.774935 
L 270.437027 81.87992 
L 270.605847 81.707686 
L 270.742202 81.073452 
L 271.079843 78.006584 
L 271.644742 72.359185 
L 271.910959 70.810604 
L 271.975889 70.772715 
L 272.021341 70.834163 
L 272.157696 71.3914 
L 272.579747 73.271926 
L 272.677143 73.298111 
L 272.709609 73.263758 
L 272.865443 72.851336 
L 273.138153 72.305498 
L 273.501766 72.163835 
L 273.586176 72.260306 
L 273.74201 72.920796 
L 274.754932 78.345254 
L 274.936739 78.840072 
L 275.449693 81.448321 
L 275.534103 81.323362 
L 275.696431 80.519184 
L 275.982127 79.141776 
L 276.001606 79.152123 
L 276.105495 79.400024 
L 276.183412 79.505171 
L 276.228864 79.44637 
L 276.352233 78.903972 
L 276.650915 77.521458 
L 276.670394 77.530514 
L 276.780777 77.762035 
L 277.31321 78.921679 
L 277.462551 78.807284 
L 277.663837 78.257092 
L 277.897588 76.979859 
L 278.306653 73.013215 
L 278.592349 71.079583 
L 278.65728 71.093615 
L 278.683252 71.138348 
L 278.884538 71.856769 
L 279.176727 73.757538 
L 279.774092 78.193742 
L 280.196143 80.007219 
L 280.261073 79.942074 
L 280.449373 79.353946 
L 280.767535 78.299937 
L 280.819479 78.355139 
L 280.955834 78.866574 
L 281.261009 81.181962 
L 281.735005 84.562338 
L 281.793443 84.58982 
L 281.838895 84.527559 
L 281.981743 83.945486 
L 282.553135 80.464937 
L 282.884282 78.558109 
L 283.085568 78.348198 
L 283.234909 78.488397 
L 283.29984 78.525075 
L 283.345292 78.464332 
L 283.481647 77.915789 
L 283.721891 75.845942 
L 284.429638 69.02603 
L 284.546513 68.92461 
L 284.578979 68.957473 
L 284.702348 69.370422 
L 284.975057 71.337942 
L 285.325684 73.058092 
L 285.410095 73.043117 
L 285.429574 73.014962 
L 285.721763 72.544387 
L 285.786694 72.614924 
L 285.916556 72.761837 
L 285.962007 72.694922 
L 286.104855 72.097043 
L 286.423017 70.816086 
L 286.526906 70.905748 
L 286.669754 71.547345 
L 286.948957 74.076161 
L 287.403473 77.753011 
L 287.520349 77.711714 
L 287.747607 77.291385 
L 287.961879 77.011479 
L 287.974865 77.017875 
L 288.117713 77.232794 
L 288.377437 77.528108 
L 288.598202 77.685766 
L 288.82546 78.318563 
L 289.130636 80.036231 
L 289.357894 80.680146 
L 289.474769 80.614884 
L 289.630604 80.093355 
L 289.870848 78.405271 
L 290.656512 71.605402 
L 291.020125 70.771724 
L 291.331793 70.040821 
L 291.546065 69.642308 
L 291.792803 68.62144 
L 292.084992 65.961775 
L 292.552495 62.170427 
L 292.630412 62.269812 
L 292.766767 62.958142 
L 293.019997 65.651811 
L 293.519965 70.602908 
L 293.578403 70.633969 
L 293.623855 70.57341 
L 293.786182 70.440242 
L 293.799168 70.447798 
L 293.942016 70.676796 
L 294.240698 71.708654 
L 295.149731 75.412503 
L 295.208169 75.364683 
L 295.532823 75.088464 
L 295.805533 75.346056 
L 296.188625 75.644013 
L 296.305501 75.742689 
L 296.454842 76.436489 
L 296.824948 79.614743 
L 297.14311 81.544701 
L 297.246999 81.650304 
L 297.285958 81.605852 
L 297.41582 81.145361 
L 297.66905 79.230669 
L 298.422249 73.221278 
L 298.539124 73.280514 
L 298.961175 73.822533 
L 299.188433 75.395583 
L 299.441664 76.442516 
L 299.610484 76.843156 
L 299.850729 78.36954 
L 300.922089 85.808023 
L 301.233757 86.777786 
L 301.305181 86.685888 
L 301.461015 86.045852 
L 301.941504 83.61139 
L 302.006435 83.692433 
L 302.188241 84.367387 
L 302.727168 86.225041 
L 302.831057 86.158296 
L 302.986892 85.643881 
L 303.434915 84.070006 
L 303.889431 83.425083 
L 304.227072 83.271285 
L 304.428358 82.586466 
L 304.675095 80.57548 
L 305.058188 75.405174 
L 306.012672 62.075029 
L 306.116561 61.89961 
L 306.162013 61.943949 
L 306.285382 62.377821 
L 306.499654 64.086067 
L 306.928198 69.722771 
L 307.830737 81.494184 
L 308.161885 83.453167 
L 308.48654 84.736498 
L 308.785222 86.038919 
L 308.791715 86.037716 
L 308.889111 85.889338 
L 309.090397 85.024759 
L 309.382586 82.713454 
L 310.129292 75.82216 
L 310.79808 72.707134 
L 310.88249 72.653434 
L 310.927942 72.714665 
L 311.064297 73.249866 
L 311.603223 76.19587 
L 311.668154 76.105047 
L 311.811002 75.412666 
L 312.070726 74.405252 
L 312.174615 74.352491 
L 312.207081 74.388615 
L 312.343436 74.809551 
L 312.849897 76.910501 
L 312.901841 76.851527 
L 313.031703 76.324779 
L 313.544657 73.917391 
L 313.836847 72.287541 
L 314.505635 68.573726 
L 314.590045 68.668343 
L 314.739386 69.326342 
L 315.505571 73.33288 
L 315.622447 73.211926 
L 315.791267 72.644398 
L 316.038004 70.71517 
L 316.473041 67.548963 
L 316.628876 67.338127 
L 316.648355 67.349126 
L 317.193775 67.653381 
L 317.401553 67.322594 
L 317.635305 66.356057 
L 317.823604 65.840303 
L 317.836591 65.845214 
L 317.94048 66.041431 
L 318.12878 66.432563 
L 318.167738 66.405502 
L 318.2976 66.087736 
L 318.615761 64.490098 
L 318.849513 63.72502 
L 318.966388 63.79096 
L 319.167674 64.303307 
L 319.602711 65.417888 
L 319.706601 65.348652 
L 319.868928 64.857755 
L 320.128652 63.273092 
L 320.544209 60.86161 
L 320.700044 60.574397 
L 320.907823 59.376835 
L 321.641542 54.235557 
L 321.686993 54.265944 
L 321.816855 54.609234 
L 322.199948 56.59715 
L 322.407727 57.126493 
L 322.511616 57.010536 
L 322.706409 56.327071 
L 323.186897 54.572351 
L 323.264815 54.680644 
L 323.414156 55.415904 
L 323.706345 58.244393 
L 324.621871 67.79174 
L 324.719267 67.691427 
L 324.881594 67.084806 
L 325.381562 64.421787 
L 325.472465 64.523826 
L 325.862051 64.917647 
L 326.277609 65.296301 
L 326.556812 65.931772 
L 326.621743 65.854155 
L 326.777577 65.29931 
L 327.011328 63.462069 
L 327.297024 61.696387 
L 327.374941 61.792544 
L 327.511296 62.470582 
L 327.77102 65.200658 
L 328.206057 68.998248 
L 328.439808 69.551726 
L 328.602135 69.525173 
L 328.783942 69.212747 
L 329.069638 68.099986 
L 329.28391 67.743877 
L 329.439744 67.662099 
L 329.595578 66.891843 
L 329.89426 64.013252 
L 330.329297 60.176344 
L 330.413708 60.051681 
L 330.459159 60.114408 
L 330.589021 60.719815 
L 331.160413 63.930884 
L 331.257809 63.836996 
L 331.439616 63.205683 
L 332.173335 60.24569 
L 332.342156 60.358195 
L 332.744727 60.782661 
L 333.238202 62.466617 
L 333.29664 62.394219 
L 333.439488 61.810715 
L 333.945949 59.304885 
L 333.971921 59.319727 
L 334.075811 59.589634 
L 334.277097 60.883221 
L 334.978351 67.653778 
L 335.452346 73.585243 
L 335.815959 77.265098 
L 336.134121 79.221397 
L 336.491241 81.190559 
L 336.569158 81.278037 
L 336.614609 81.219274 
L 336.744471 80.670521 
L 337.010688 78.33045 
L 337.711942 71.97237 
L 337.965172 71.070057 
L 338.062569 71.204344 
L 338.393716 71.760397 
L 338.504099 71.625222 
L 338.666426 70.845851 
L 338.991081 69.304689 
L 339.004067 69.309955 
L 339.114449 69.515499 
L 339.770252 71.294977 
L 340.055948 73.735645 
L 341.062377 83.250644 
L 341.484428 84.772396 
L 341.549359 84.680278 
L 341.705193 83.995869 
L 341.874013 83.627742 
L 341.893492 83.635631 
L 342.003875 83.843663 
L 342.218147 84.13551 
L 342.41294 84.015354 
L 342.58176 84.085388 
L 342.75058 84.19098 
L 342.783046 84.149749 
L 342.93888 83.678831 
L 343.192111 82.081049 
L 343.562217 79.968998 
L 343.802461 79.801455 
L 344.016733 78.767634 
L 344.568646 74.959554 
L 345.062121 69.345478 
L 345.549103 64.601811 
L 345.802333 64.031663 
L 345.925702 64.032573 
L 345.945181 64.067161 
L 346.06855 64.602769 
L 346.626956 67.858856 
L 346.672407 67.822292 
L 346.802269 67.455473 
L 347.0555 66.68696 
L 347.087965 66.708926 
L 347.217827 67.022882 
L 347.328209 67.139219 
L 347.367168 67.102051 
L 347.503523 66.702995 
L 347.964532 65.183457 
L 348.185297 65.038968 
L 348.321652 65.187171 
L 348.620335 65.806161 
L 348.698252 65.684418 
L 349.003427 64.815992 
L 349.09433 64.94172 
L 349.581312 65.842121 
L 349.80857 65.806866 
L 349.91246 65.906048 
L 350.087773 66.529934 
L 350.263087 67.028716 
L 350.295552 67.002269 
L 350.412428 66.646676 
L 350.996806 64.405633 
L 351.276009 64.358674 
L 351.50976 63.376492 
L 351.814935 62.616014 
L 351.944797 62.661687 
L 352.113617 63.049201 
L 352.334383 64.263881 
L 352.704489 66.119201 
L 353.204457 67.289082 
L 353.48366 68.713663 
L 353.977135 72.317524 
L 354.035572 72.259249 
L 354.1979 71.750084 
L 354.516061 70.50149 
L 354.574499 70.563496 
L 354.730333 71.110063 
L 356.009472 76.999325 
L 356.691247 81.747763 
L 356.769164 81.645919 
L 356.912012 80.913961 
L 357.321076 78.721268 
L 357.574307 76.960848 
L 358.12622 72.63856 
L 358.165178 72.668367 
L 358.528791 73.266077 
L 358.606708 73.175425 
L 358.782022 72.612952 
L 359.652096 69.229037 
L 360.100119 67.380717 
L 360.43776 65.854667 
L 360.697484 65.642737 
L 360.924742 64.589615 
L 362.171415 56.766962 
L 362.85319 51.322959 
L 363.372637 47.157584 
L 363.56743 46.97047 
L 363.755729 47.073227 
L 363.950522 47.462804 
L 364.203753 48.487377 
L 364.502435 51.023211 
L 364.905007 56.808134 
L 365.385495 63.207266 
L 365.904943 65.867766 
L 365.950394 65.829375 
L 366.119215 65.530588 
L 366.184145 65.652434 
L 366.33998 66.502335 
L 366.567238 67.414122 
L 366.658141 67.329887 
L 367.015261 66.297685 
L 367.424326 65.0605 
L 367.482764 65.130924 
L 367.619119 65.690445 
L 368.171031 69.640863 
L 368.606068 72.7608 
L 368.995654 73.277428 
L 369.106036 73.183711 
L 369.287843 72.61786 
L 369.768332 70.401963 
L 369.872221 70.592326 
L 370.287779 71.626216 
L 370.417641 72.156511 
L 370.807226 74.360313 
L 370.87865 74.273778 
L 371.060457 74.060318 
L 371.079936 74.072365 
L 371.222784 74.330361 
L 371.78119 76.148438 
L 372.183761 78.233686 
L 372.39154 78.302351 
L 372.677236 78.314683 
L 372.872029 78.974084 
L 373.183697 79.773901 
L 373.255121 79.759848 
L 373.281094 79.716878 
L 373.423942 79.169869 
L 373.677172 78.166156 
L 373.709638 78.186593 
L 373.82002 78.479261 
L 374.09273 80.059129 
L 374.917353 85.334954 
L 374.930339 85.331475 
L 375.014749 85.156003 
L 375.391348 83.850619 
L 375.462772 83.914638 
L 376.105588 84.565235 
L 376.118575 84.552476 
L 376.228957 84.231571 
L 376.443229 82.733066 
L 377.008128 78.450787 
L 377.027607 78.458165 
L 377.144483 78.51338 
L 377.176948 78.451397 
L 377.319796 77.792766 
L 377.57952 75.321262 
L 377.988585 71.672279 
L 378.10546 71.723321 
L 378.391156 71.763932 
L 378.618415 71.86978 
L 378.748276 71.938107 
L 378.780742 71.885458 
L 378.917097 71.322867 
L 379.313175 69.578787 
L 379.430051 69.710171 
L 379.631337 70.364205 
L 379.917033 71.131034 
L 380.066374 71.097036 
L 380.24818 70.714763 
L 380.442973 69.807671 
L 380.903983 66.74833 
L 380.968913 66.827738 
L 381.137734 67.445914 
L 381.754577 70.818411 
L 381.86496 70.598782 
L 382.501283 67.729667 
L 382.845417 66.138059 
L 382.949306 66.201645 
L 383.085661 66.736513 
L 383.806394 70.22865 
L 384.423238 70.918527 
L 384.760879 71.977168 
L 385.098519 72.875725 
L 385.299805 72.974125 
L 385.468625 73.887377 
L 385.799773 77.225843 
L 386.533492 84.750842 
L 386.669847 85.125184 
L 386.702313 85.09861 
L 386.812695 84.729749 
L 387.455511 82.125205 
L 387.66329 81.778454 
L 387.884055 80.998339 
L 388.130793 78.804774 
L 388.643747 74.424132 
L 388.715171 74.391316 
L 388.760623 74.447107 
L 388.955415 74.542907 
L 389.117743 74.360143 
L 389.28007 73.662197 
L 389.9099 70.147106 
L 389.961844 70.195211 
L 390.202089 70.640444 
L 390.280006 70.531585 
L 390.448826 69.885487 
L 390.747508 67.606327 
L 390.987753 66.637657 
L 391.143587 66.635159 
L 391.357859 66.890448 
L 391.611089 67.560142 
L 391.831855 68.036468 
L 391.857827 68.023083 
L 391.981196 67.784065 
L 392.175988 66.840781 
L 393.630441 57.721555 
L 393.662906 57.753053 
L 393.773289 58.162536 
L 393.987561 60.01229 
L 394.649856 68.346211 
L 395.006976 71.430824 
L 395.221248 71.915656 
L 395.377082 71.828961 
L 395.62382 71.406961 
L 395.851078 70.421252 
L 396.208198 69.034491 
L 396.428963 68.886422 
L 396.597783 69.017218 
L 396.766604 69.576095 
L 397.467857 73.328468 
L 397.799005 75.542651 
L 398.188591 76.547999 
L 398.389876 77.98131 
L 398.487273 78.985277 
L 398.487273 78.985277 
" style="fill:none;stroke:#ff0000;stroke-linecap:square;stroke-width:2;"/>
   </g>
   <g id="patch_3">
    <path d="M 57.6 162.432 
L 57.6 41.472 
" style="fill:none;stroke:#000000;stroke-linecap:square;stroke-linejoin:miter;stroke-width:0.8;"/>
   </g>
   <g id="patch_4">
    <path d="M 414.72 162.432 
L 414.72 41.472 
" style="fill:none;stroke:#000000;stroke-linecap:square;stroke-linejoin:miter;stroke-width:0.8;"/>
   </g>
   <g id="patch_5">
    <path d="M 57.6 162.432 
L 414.72 162.432 
" style="fill:none;stroke:#000000;stroke-linecap:square;stroke-linejoin:miter;stroke-width:0.8;"/>
   </g>
   <g id="patch_6">
    <path d="M 57.6 41.472 
L 414.72 41.472 
" style="fill:none;stroke:#000000;stroke-linecap:square;stroke-linejoin:miter;stroke-width:0.8;"/>
   </g>
  </g>
  <g id="axes_2">
   <g id="patch_7">
    <path d="M 57.6 307.584 
L 414.72 307.584 
L 414.72 186.624 
L 57.6 186.624 
z
" style="fill:#ffffff;"/>
   </g>
   <g id="matplotlib.axis_3">
    <g id="xtick_7">
     <g id="line2d_15">
      <g>
       <use style="stroke:#000000;stroke-width:0.8;" x="73.832727" xlink:href="#m6168b6ba5f" y="307.584"/>
      </g>
     </g>
     <g id="text_14">
      <!-- 0 -->
      <g transform="translate(70.651477 322.182437)scale(0.1 -0.1)">
       <use xlink:href="#DejaVuSans-30"/>
      </g>
     </g>
    </g>
    <g id="xtick_8">
     <g id="line2d_16">
      <g>
       <use style="stroke:#000000;stroke-width:0.8;" x="138.763636" xlink:href="#m6168b6ba5f" y="307.584"/>
      </g>
     </g>
     <g id="text_15">
      <!-- 10 -->
      <g transform="translate(132.401136 322.182437)scale(0.1 -0.1)">
       <use xlink:href="#DejaVuSans-31"/>
       <use x="63.623047" xlink:href="#DejaVuSans-30"/>
      </g>
     </g>
    </g>
    <g id="xtick_9">
     <g id="line2d_17">
      <g>
       <use style="stroke:#000000;stroke-width:0.8;" x="203.694545" xlink:href="#m6168b6ba5f" y="307.584"/>
      </g>
     </g>
     <g id="text_16">
      <!-- 20 -->
      <g transform="translate(197.332045 322.182437)scale(0.1 -0.1)">
       <use xlink:href="#DejaVuSans-32"/>
       <use x="63.623047" xlink:href="#DejaVuSans-30"/>
      </g>
     </g>
    </g>
    <g id="xtick_10">
     <g id="line2d_18">
      <g>
       <use style="stroke:#000000;stroke-width:0.8;" x="268.625455" xlink:href="#m6168b6ba5f" y="307.584"/>
      </g>
     </g>
     <g id="text_17">
      <!-- 30 -->
      <g transform="translate(262.262955 322.182437)scale(0.1 -0.1)">
       <use xlink:href="#DejaVuSans-33"/>
       <use x="63.623047" xlink:href="#DejaVuSans-30"/>
      </g>
     </g>
    </g>
    <g id="xtick_11">
     <g id="line2d_19">
      <g>
       <use style="stroke:#000000;stroke-width:0.8;" x="333.556364" xlink:href="#m6168b6ba5f" y="307.584"/>
      </g>
     </g>
     <g id="text_18">
      <!-- 40 -->
      <g transform="translate(327.193864 322.182437)scale(0.1 -0.1)">
       <use xlink:href="#DejaVuSans-34"/>
       <use x="63.623047" xlink:href="#DejaVuSans-30"/>
      </g>
     </g>
    </g>
    <g id="xtick_12">
     <g id="line2d_20">
      <g>
       <use style="stroke:#000000;stroke-width:0.8;" x="398.487273" xlink:href="#m6168b6ba5f" y="307.584"/>
      </g>
     </g>
     <g id="text_19">
      <!-- 50 -->
      <g transform="translate(392.124773 322.182437)scale(0.1 -0.1)">
       <use xlink:href="#DejaVuSans-35"/>
       <use x="63.623047" xlink:href="#DejaVuSans-30"/>
      </g>
     </g>
    </g>
    <g id="text_20">
     <!-- Time -->
     <defs>
      <path d="M -0.296875 72.90625 
L 61.375 72.90625 
L 61.375 64.59375 
L 35.5 64.59375 
L 35.5 0 
L 25.59375 0 
L 25.59375 64.59375 
L -0.296875 64.59375 
z
" id="DejaVuSans-54"/>
      <path d="M 9.421875 54.6875 
L 18.40625 54.6875 
L 18.40625 0 
L 9.421875 0 
z
M 9.421875 75.984375 
L 18.40625 75.984375 
L 18.40625 64.59375 
L 9.421875 64.59375 
z
" id="DejaVuSans-69"/>
      <path d="M 52 44.1875 
Q 55.375 50.25 60.0625 53.125 
Q 64.75 56 71.09375 56 
Q 79.640625 56 84.28125 50.015625 
Q 88.921875 44.046875 88.921875 33.015625 
L 88.921875 0 
L 79.890625 0 
L 79.890625 32.71875 
Q 79.890625 40.578125 77.09375 44.375 
Q 74.3125 48.1875 68.609375 48.1875 
Q 61.625 48.1875 57.5625 43.546875 
Q 53.515625 38.921875 53.515625 30.90625 
L 53.515625 0 
L 44.484375 0 
L 44.484375 32.71875 
Q 44.484375 40.625 41.703125 44.40625 
Q 38.921875 48.1875 33.109375 48.1875 
Q 26.21875 48.1875 22.15625 43.53125 
Q 18.109375 38.875 18.109375 30.90625 
L 18.109375 0 
L 9.078125 0 
L 9.078125 54.6875 
L 18.109375 54.6875 
L 18.109375 46.1875 
Q 21.1875 51.21875 25.484375 53.609375 
Q 29.78125 56 35.6875 56 
Q 41.65625 56 45.828125 52.96875 
Q 50 49.953125 52 44.1875 
z
" id="DejaVuSans-6d"/>
     </defs>
     <g transform="translate(223.7725 335.860562)scale(0.1 -0.1)">
      <use xlink:href="#DejaVuSans-54"/>
      <use x="61.037109" xlink:href="#DejaVuSans-69"/>
      <use x="88.820312" xlink:href="#DejaVuSans-6d"/>
      <use x="186.232422" xlink:href="#DejaVuSans-65"/>
     </g>
    </g>
   </g>
   <g id="matplotlib.axis_4">
    <g id="ytick_7">
     <g id="line2d_21">
      <g>
       <use style="stroke:#000000;stroke-width:0.8;" x="57.6" xlink:href="#m9a76e17d79" y="287.941827"/>
      </g>
     </g>
     <g id="text_21">
      <!-- 1 -->
      <defs>
       <path d="M 10.59375 35.5 
L 73.1875 35.5 
L 73.1875 27.203125 
L 10.59375 27.203125 
z
" id="DejaVuSans-2212"/>
      </defs>
      <g transform="translate(35.857813 291.741046)scale(0.1 -0.1)">
       <use xlink:href="#DejaVuSans-2212"/>
       <use x="83.789062" xlink:href="#DejaVuSans-31"/>
      </g>
     </g>
    </g>
    <g id="ytick_8">
     <g id="line2d_22">
      <g>
       <use style="stroke:#000000;stroke-width:0.8;" x="57.6" xlink:href="#m9a76e17d79" y="255.96356"/>
      </g>
     </g>
     <g id="text_22">
      <!-- 0 -->
      <g transform="translate(44.2375 259.762778)scale(0.1 -0.1)">
       <use xlink:href="#DejaVuSans-30"/>
      </g>
     </g>
    </g>
    <g id="ytick_9">
     <g id="line2d_23">
      <g>
       <use style="stroke:#000000;stroke-width:0.8;" x="57.6" xlink:href="#m9a76e17d79" y="223.985293"/>
      </g>
     </g>
     <g id="text_23">
      <!-- 1 -->
      <g transform="translate(44.2375 227.784511)scale(0.1 -0.1)">
       <use xlink:href="#DejaVuSans-31"/>
      </g>
     </g>
    </g>
    <g id="ytick_10">
     <g id="line2d_24">
      <g>
       <use style="stroke:#000000;stroke-width:0.8;" x="57.6" xlink:href="#m9a76e17d79" y="192.007026"/>
      </g>
     </g>
     <g id="text_24">
      <!-- 2 -->
      <g transform="translate(44.2375 195.806244)scale(0.1 -0.1)">
       <use xlink:href="#DejaVuSans-32"/>
      </g>
     </g>
    </g>
    <g id="text_25">
     <!-- State 1 -->
     <g transform="translate(29.778125 265.109469)rotate(-90)scale(0.1 -0.1)">
      <use xlink:href="#DejaVuSans-53"/>
      <use x="63.476562" xlink:href="#DejaVuSans-74"/>
      <use x="102.685547" xlink:href="#DejaVuSans-61"/>
      <use x="163.964844" xlink:href="#DejaVuSans-74"/>
      <use x="203.173828" xlink:href="#DejaVuSans-65"/>
      <use x="264.697266" xlink:href="#DejaVuSans-20"/>
      <use x="296.484375" xlink:href="#DejaVuSans-31"/>
     </g>
    </g>
   </g>
   <g id="line2d_25">
    <path clip-path="url(#pae706da441)" d="M 73.832727 255.96356 
L 73.949603 244.867967 
L 398.487273 244.867967 
L 398.487273 244.867967 
" style="fill:none;stroke:#000000;stroke-linecap:square;stroke-width:4;"/>
   </g>
   <g id="line2d_26">
    <path clip-path="url(#pae706da441)" d="M 73.832727 255.96356 
L 74.274257 212.430433 
L 74.579433 195.379808 
L 74.806691 192.122182 
L 74.813184 192.662427 
L 75.131345 213.659848 
L 75.157318 212.049267 
L 75.456 199.109676 
L 75.462493 199.7394 
L 75.865065 227.852556 
L 76.429964 253.689751 
L 76.488401 250.443756 
L 76.832535 238.193377 
L 77.079273 235.286624 
L 77.085766 235.572681 
L 77.403927 246.424288 
L 77.423407 245.692551 
L 78.319453 216.88114 
L 78.377891 215.556922 
L 78.390877 217.148025 
L 78.702545 246.349425 
L 78.722025 244.736722 
L 79.11161 222.158205 
L 79.351855 214.251066 
L 79.364841 215.436337 
L 79.721961 238.021897 
L 80.027136 243.236964 
L 80.384256 263.238933 
L 80.650473 267.811702 
L 80.669952 267.384639 
L 81.014086 257.760989 
L 81.299782 233.618789 
L 81.319261 235.793803 
L 81.663395 261.866372 
L 81.949091 263.49048 
L 81.955584 263.378603 
L 82.559441 254.959676 
L 82.650345 252.774049 
L 83.163299 232.717571 
L 83.247709 229.427893 
L 83.273681 231.91229 
L 83.572364 253.631264 
L 83.604829 252.553144 
L 84.221673 234.030536 
L 84.286604 234.229153 
L 84.546327 235.185636 
L 84.870982 260.892832 
L 84.890461 259.840236 
L 85.494319 233.768925 
L 85.520291 232.931116 
L 85.559249 234.994061 
L 85.942342 248.971279 
L 86.1696 253.127941 
L 86.182586 252.023809 
L 86.494255 232.374823 
L 86.52672 232.486843 
L 86.818909 233.677734 
L 87.143564 267.444241 
L 87.163043 265.981527 
L 87.468218 248.730492 
L 87.481204 250.275952 
L 87.844817 280.224293 
L 88.247389 292.038823 
L 88.442182 295.541779 
L 88.461661 294.685826 
L 89.091491 264.089705 
L 89.208367 267.042362 
L 89.416145 270.781656 
L 89.429132 269.804291 
L 89.948579 239.49943 
L 90.065455 234.409665 
L 90.130385 236.006716 
L 90.448547 245.718667 
L 90.929036 273.448049 
L 91.039418 277.83528 
L 91.117335 276.871596 
L 91.409524 272.225716 
L 91.870534 257.06167 
L 92.338036 247.3423 
L 92.351023 247.606004 
L 92.714636 256.862329 
L 92.987345 273.930776 
L 93.026304 273.354943 
L 93.363945 267.026551 
L 93.727558 253.59541 
L 94.285964 241.962693 
L 94.350895 243.030897 
L 94.610618 246.42293 
L 94.617111 245.881552 
L 94.935273 226.33229 
L 94.954752 227.005322 
L 95.259927 235.418807 
L 95.298886 235.002767 
L 95.584582 233.119586 
L 96.142988 267.453786 
L 96.233891 271.76242 
L 96.279343 268.884875 
L 96.558545 255.510556 
L 96.597504 256.242809 
L 96.928652 263.871109 
L 97.207855 280.352831 
L 97.227334 278.251699 
L 97.532509 253.316906 
L 97.558481 254.726986 
L 97.857164 266.81622 
L 97.87015 265.746355 
L 98.181818 246.436249 
L 98.194804 247.48981 
L 98.506473 266.482535 
L 98.532445 265.628963 
L 98.909044 250.365011 
L 99.155782 232.17518 
L 99.181754 235.389293 
L 99.480436 263.28554 
L 99.512902 262.246607 
L 99.805091 255.173262 
L 99.850543 255.240672 
L 100.129745 255.561552 
L 100.493359 274.67383 
L 100.779055 278.139893 
L 100.792041 277.927645 
L 101.103709 273.697872 
L 101.136175 274.040022 
L 101.428364 275.991088 
L 102.077673 228.959611 
L 102.116631 232.903749 
L 102.402327 254.83724 
L 102.421807 252.835907 
L 102.726982 229.561487 
L 102.746461 231.024996 
L 103.051636 248.576897 
L 103.071116 247.134212 
L 103.376291 230.485061 
L 103.408756 230.613227 
L 104.032093 233.388806 
L 104.395706 261.846161 
L 104.674909 267.231451 
L 104.687895 266.710434 
L 104.999564 257.187352 
L 105.032029 257.450271 
L 105.343697 260.570569 
L 105.648873 276.665326 
L 105.661859 275.393763 
L 106.038458 249.665404 
L 106.350127 241.968103 
L 106.544919 242.07414 
L 106.635823 242.311767 
L 106.947491 245.113397 
L 106.960477 244.683229 
L 107.272145 237.222159 
L 107.278639 237.892698 
L 107.642252 263.689038 
L 108.12274 275.572453 
L 108.570764 287.706434 
L 108.577257 286.868182 
L 109.018787 244.538745 
L 109.220073 231.250575 
L 109.252538 234.022077 
L 109.817437 271.547961 
L 110.174557 284.261094 
L 110.194036 284.699969 
L 110.207023 282.972186 
L 110.557649 250.970998 
L 110.940742 243.791909 
L 111.168 236.984476 
L 111.200465 238.111384 
L 111.577065 254.323849 
L 111.817309 271.953223 
L 111.856268 270.202531 
L 112.265332 257.223403 
L 112.466618 253.374116 
L 112.479604 254.352595 
L 112.791273 271.867125 
L 112.804259 270.52912 
L 113.213324 240.123453 
L 113.440582 229.610844 
L 113.47954 230.749617 
L 113.83666 237.754843 
L 114.102877 239.46397 
L 114.453504 249.399395 
L 114.7392 249.517665 
L 115.102813 267.407642 
L 115.433961 272.865409 
L 115.765108 285.852283 
L 116.037818 287.60304 
L 116.661155 237.57913 
L 116.687127 235.972845 
L 116.765044 237.889981 
L 117.011782 242.687822 
L 117.037754 241.833942 
L 117.336436 234.798375 
L 117.362409 234.878862 
L 117.940294 236.340701 
L 118.3104 237.392074 
L 118.316893 237.089073 
L 118.635055 226.416196 
L 118.641548 227.094955 
L 119.167488 270.036106 
L 119.368774 277.265313 
L 119.38176 277.263959 
L 119.544087 277.119177 
L 119.609018 277.004315 
L 119.933673 285.683446 
L 119.940166 285.348412 
L 120.258327 272.527213 
L 120.290793 273.04655 
L 120.582982 276.202486 
L 120.589475 275.972194 
L 120.907636 267.163099 
L 120.933609 267.582247 
L 121.381632 276.286566 
L 121.556945 280.690445 
L 121.569932 279.273343 
L 122.030941 241.651087 
L 122.206255 231.530353 
L 122.251706 233.906111 
L 122.530909 245.1534 
L 122.550388 243.931779 
L 122.855564 229.922819 
L 122.862057 230.660913 
L 123.245149 261.414081 
L 123.504873 271.151215 
L 123.524352 269.812846 
L 123.829527 253.9368 
L 123.849007 254.935544 
L 124.478836 282.700319 
L 124.498316 282.203794 
L 124.835956 271.569579 
L 125.128145 242.275635 
L 125.154118 244.566541 
L 125.4528 264.387384 
L 125.478772 263.057302 
L 126.102109 236.386868 
L 126.115095 236.901592 
L 126.426764 246.47789 
L 126.452736 245.834537 
L 126.816349 239.714982 
L 127.173469 236.895207 
L 127.400727 235.983735 
L 127.725382 262.878552 
L 127.751354 262.394028 
L 128.088995 254.449854 
L 128.433129 233.299616 
L 128.699345 229.843799 
L 128.712332 230.27294 
L 129.024 238.452177 
L 129.049972 237.658138 
L 129.348655 231.214638 
L 129.705775 267.866709 
L 129.965498 268.201177 
L 129.997964 268.20789 
L 130.556369 286.887829 
L 130.647273 289.217846 
L 130.699217 287.857496 
L 131.010886 277.524702 
L 131.296582 252.792898 
L 131.322554 254.52998 
L 131.764084 276.092338 
L 131.945891 282.136416 
L 131.96537 280.433128 
L 132.270545 260.094581 
L 132.290025 261.525404 
L 132.5952 278.100113 
L 132.614679 277.221784 
L 132.978292 266.038998 
L 133.244509 264.084691 
L 133.251002 264.417787 
L 133.627601 277.966133 
L 133.893818 282.887352 
L 133.906804 282.468735 
L 134.270417 267.461773 
L 134.543127 239.946361 
L 134.575593 242.142688 
L 134.984657 261.728516 
L 135.517091 278.591406 
L 135.543063 277.546633 
L 135.919663 267.079637 
L 136.211852 261.888448 
L 136.491055 250.847396 
L 136.530013 251.304725 
L 136.815709 253.884468 
L 136.822202 253.540968 
L 137.140364 241.056425 
L 137.15335 241.637936 
L 137.465018 252.313141 
L 137.478004 251.21763 
L 137.789673 231.738731 
L 137.802659 232.702869 
L 138.114327 250.392442 
L 138.127313 249.277513 
L 138.438982 229.490329 
L 138.451968 230.329727 
L 139.088291 265.453354 
L 139.094784 264.855281 
L 139.412945 242.852203 
L 139.425932 244.176183 
L 139.815517 272.219607 
L 140.062255 281.722712 
L 140.088227 280.493281 
L 140.386909 269.503415 
L 140.419375 269.997085 
L 140.711564 273.038466 
L 141.16608 236.461424 
L 141.360873 225.080919 
L 141.393338 227.741284 
L 141.756951 247.799838 
L 142.140044 258.80009 
L 142.334836 265.811123 
L 142.360809 264.002211 
L 142.984145 229.124148 
L 143.3088 253.532613 
L 143.328279 252.681837 
L 143.633455 242.825915 
L 143.646441 243.840408 
L 143.958109 262.20781 
L 143.971095 260.716296 
L 144.354188 229.909932 
L 144.607418 219.641167 
L 144.620404 221.014248 
L 144.984017 247.55517 
L 145.347631 258.91399 
L 145.652806 270.985545 
L 145.906036 272.037483 
L 146.230691 254.925881 
L 146.243677 256.010507 
L 146.555345 275.388543 
L 146.574825 274.394369 
L 147.204655 240.378132 
L 147.263092 245.429416 
L 147.756567 276.786206 
L 148.094208 287.918041 
L 148.178618 289.500604 
L 148.22407 288.366981 
L 148.529245 278.483605 
L 148.827927 242.777913 
L 148.860393 243.527744 
L 149.21102 248.913558 
L 149.477236 249.483133 
L 149.801891 235.064487 
L 149.814877 235.815423 
L 150.184983 250.711027 
L 150.4512 254.448277 
L 150.483665 254.044648 
L 150.860265 248.262579 
L 151.100509 241.800712 
L 151.113495 243.049147 
L 151.425164 265.612139 
L 151.43815 264.161013 
L 151.749818 238.070511 
L 151.775791 238.98875 
L 152.074473 247.171074 
L 152.087459 246.219586 
L 152.399127 229.413514 
L 152.418607 230.381248 
L 153.048436 261.607315 
L 153.113367 259.067044 
L 153.528925 247.898125 
L 153.697745 245.127955 
L 153.704239 245.879365 
L 154.087331 277.281637 
L 154.347055 288.154303 
L 154.360041 286.898548 
L 154.801571 255.414965 
L 155.28206 234.171585 
L 155.321018 233.037732 
L 155.398935 233.881712 
L 155.697617 238.032045 
L 156.294982 256.34833 
L 156.327447 255.393335 
L 156.944291 235.639629 
L 156.976756 239.769254 
L 157.32089 268.677065 
L 157.658531 276.383957 
L 157.918255 288.508975 
L 157.931241 286.724445 
L 158.301347 251.547469 
L 158.716905 238.384289 
L 158.892218 234.967981 
L 158.905204 236.032674 
L 159.216873 255.452537 
L 159.236352 253.862484 
L 159.541527 235.363523 
L 159.573993 235.691196 
L 159.892154 239.780308 
L 160.190836 253.050944 
L 160.216809 252.071247 
L 160.515491 243.762936 
L 160.528477 244.656519 
L 160.885597 261.393226 
L 161.24921 266.690645 
L 161.489455 272.653741 
L 161.534906 272.372088 
L 161.833588 270.005867 
L 162.138764 260.586206 
L 162.15175 261.565318 
L 162.463418 278.94747 
L 162.489391 278.762669 
L 162.982865 276.059397 
L 163.112727 275.546103 
L 163.125713 275.885721 
L 163.437382 281.556776 
L 163.865926 258.083545 
L 164.086691 250.152842 
L 164.10617 251.81396 
L 164.411345 271.263702 
L 164.450304 271.234716 
L 164.697041 270.87487 
L 164.742493 270.584423 
L 165.106106 262.377413 
L 165.385309 261.336816 
L 165.742429 231.279859 
L 166.021632 229.964661 
L 166.034618 229.939641 
L 166.359273 218.39267 
L 166.365766 218.882473 
L 166.683927 237.507168 
L 166.722886 237.276742 
L 166.995596 236.380744 
L 167.008582 236.363956 
L 167.385181 225.362887 
L 167.657891 220.465991 
L 167.664384 220.893204 
L 167.982545 237.193311 
L 168.015011 236.573931 
L 168.3072 232.791564 
L 168.677306 252.399746 
L 169.008454 260.428545 
L 169.424012 282.266171 
L 169.605818 288.24759 
L 169.644777 286.628662 
L 169.930473 277.235672 
L 169.949952 278.519801 
L 170.255127 293.051933 
L 170.26162 292.003962 
L 170.631727 250.564401 
L 170.904436 241.023586 
L 170.917423 242.675457 
L 171.268049 273.109037 
L 171.553745 276.365477 
L 171.8784 258.864459 
L 171.897879 259.600415 
L 172.203055 268.110585 
L 172.216041 267.525392 
L 172.716009 250.275259 
L 172.852364 246.814433 
L 172.891322 248.342088 
L 173.300387 259.582996 
L 173.806848 271.79247 
L 174.150982 279.282171 
L 174.235392 278.415361 
L 174.644457 273.283589 
L 174.845743 268.439186 
L 175.124945 256.108652 
L 175.170397 256.491188 
L 175.4496 258.228696 
L 175.852172 230.319475 
L 176.098909 219.991733 
L 176.111895 221.679665 
L 176.462522 252.907889 
L 176.774191 256.945543 
L 177.209228 279.72558 
L 177.397527 286.376599 
L 177.417007 284.212865 
L 177.962426 236.825577 
L 178.046836 231.337597 
L 178.105274 233.931919 
L 178.371491 243.09362 
L 178.410449 242.40352 
L 178.696145 238.889587 
L 178.702639 239.118826 
L 179.670109 273.751886 
L 179.696081 270.423844 
L 180.059695 238.560379 
L 180.319418 229.614045 
L 180.338897 230.55892 
L 180.786921 246.686282 
L 181.014179 255.855032 
L 181.293382 277.362421 
L 181.325847 275.718886 
L 181.618036 264.344879 
L 181.637516 265.298118 
L 181.942691 276.230469 
L 181.949184 275.627062 
L 182.267345 253.210725 
L 182.280332 254.442287 
L 182.592 276.476861 
L 182.604986 274.660262 
L 182.916655 241.830716 
L 182.936134 243.371195 
L 183.241309 261.57928 
L 183.273775 261.124857 
L 183.611415 255.166035 
L 183.968535 240.453513 
L 184.215273 236.353932 
L 184.221766 237.182951 
L 184.539927 267.813579 
L 184.559407 266.595447 
L 184.864582 252.184239 
L 184.890554 252.97407 
L 185.838545 280.991213 
L 185.858025 278.74768 
L 186.1632 252.142812 
L 186.189172 253.734771 
L 186.572265 270.062216 
L 186.812509 275.466766 
L 186.825495 274.475117 
L 187.137164 256.3886 
L 187.169629 256.74454 
L 187.461818 259.112778 
L 187.468311 258.725744 
L 187.786473 244.547513 
L 187.805952 245.327076 
L 188.351372 262.325483 
L 188.435782 264.284155 
L 188.47474 262.687291 
L 188.760436 253.855145 
L 188.773423 254.927194 
L 189.150022 276.551368 
L 189.409745 283.482209 
L 189.422732 282.303379 
L 190.149958 227.295871 
L 190.500585 215.261405 
L 190.708364 212.022228 
L 190.747322 212.322548 
L 191.033018 214.763313 
L 191.104442 214.255279 
L 191.325207 213.603787 
L 191.357673 213.60428 
L 191.766737 231.955164 
L 192.078406 251.48641 
L 192.331636 252.781377 
L 192.351116 252.521586 
L 192.656291 249.559686 
L 192.67577 249.734381 
L 193.006918 253.625341 
L 193.3056 268.492627 
L 193.338065 268.258758 
L 193.649734 265.267216 
L 194.071785 246.577952 
L 194.279564 240.678236 
L 194.29255 242.097268 
L 194.656163 269.510756 
L 194.928873 276.231177 
L 194.948352 275.395531 
L 195.415855 251.145366 
L 195.578182 240.7459 
L 195.61714 243.875679 
L 195.902836 261.166221 
L 195.928809 259.653985 
L 196.285929 245.663548 
L 196.552145 242.523596 
L 196.565132 243.030729 
L 197.006662 255.757281 
L 197.201455 259.547142 
L 197.23392 258.662558 
L 197.526109 252.689849 
L 197.539095 253.202935 
L 197.850764 262.425205 
L 197.857257 261.805762 
L 198.175418 239.084858 
L 198.201391 239.710238 
L 198.500073 245.372854 
L 198.526045 244.908624 
L 199.084451 237.191086 
L 199.149382 236.545802 
L 199.155875 237.333056 
L 199.506502 266.586213 
L 199.798691 267.387855 
L 200.123345 260.962204 
L 200.136332 261.463141 
L 201.084323 293.243157 
L 201.097309 293.489283 
L 201.168733 292.905527 
L 201.43495 289.813257 
L 201.805056 271.002315 
L 202.220614 260.57301 
L 202.545268 245.303 
L 202.720582 236.775336 
L 202.766033 238.574353 
L 203.110167 247.510863 
L 203.415343 250.010375 
L 203.694545 255.355555 
L 203.714025 254.609011 
L 204.343855 230.138945 
L 204.428265 231.74218 
L 204.739933 239.149729 
L 204.993164 249.013081 
L 205.019136 247.574115 
L 205.317818 235.42219 
L 205.330804 236.118533 
L 205.921676 273.100003 
L 205.967127 275.940123 
L 206.051537 274.478242 
L 206.324247 268.514402 
L 206.726819 245.903455 
L 207.109911 234.752566 
L 207.5904 226.264526 
L 207.596893 226.928332 
L 207.973492 254.030358 
L 208.363078 264.429605 
L 208.564364 267.471426 
L 208.570857 266.875426 
L 208.889018 244.906971 
L 208.908497 245.544208 
L 209.388986 264.44442 
L 209.661696 273.376436 
L 209.862982 275.466727 
L 209.869475 274.959203 
L 210.187636 256.055018 
L 210.207116 257.32654 
L 210.512291 272.125857 
L 210.525277 270.745057 
L 210.836945 245.779922 
L 210.856425 247.691729 
L 211.1616 270.145055 
L 211.181079 268.325322 
L 211.486255 246.865635 
L 211.505734 248.59746 
L 211.901812 273.448884 
L 212.135564 281.795666 
L 212.187508 281.396661 
L 212.466711 278.799191 
L 212.927721 247.170588 
L 213.297827 232.065042 
L 213.434182 228.964392 
L 213.447168 230.666294 
L 213.83026 266.125013 
L 214.083491 277.930068 
L 214.115956 276.627727 
L 214.7328 255.278429 
L 214.752279 255.833273 
L 215.057455 262.305303 
L 215.063948 261.873023 
L 215.382109 245.979965 
L 215.395095 246.671693 
L 215.706764 259.215877 
L 215.726243 258.276991 
L 216.031418 247.284357 
L 216.037911 248.065526 
L 216.356073 276.729286 
L 216.369059 275.116496 
L 216.758644 241.080205 
L 217.005382 229.942221 
L 217.024861 231.738416 
L 217.368995 253.257737 
L 217.765073 254.550887 
L 217.979345 255.557731 
L 217.985839 255.371431 
L 218.342959 248.333106 
L 218.706572 245.413756 
L 218.953309 241.628134 
L 218.959802 242.179168 
L 219.277964 262.565203 
L 219.297443 261.918004 
L 219.602618 254.255295 
L 219.615604 254.778987 
L 220.148038 271.480568 
L 220.251927 273.913926 
L 220.271407 272.126077 
L 220.576582 250.963886 
L 220.602554 251.795533 
L 220.985647 267.02077 
L 221.225891 283.809703 
L 221.258356 281.828995 
L 221.550545 268.082953 
L 221.576518 269.319809 
L 221.8752 279.647174 
L 221.881693 279.043774 
L 222.264785 254.051709 
L 222.849164 233.034374 
L 222.914095 234.378557 
L 223.173818 238.73646 
L 223.199791 237.874262 
L 223.498473 230.843401 
L 223.504966 231.527225 
L 223.823127 256.974696 
L 223.842607 255.334902 
L 224.147782 236.227187 
L 224.160768 237.567628 
L 224.472436 261.883689 
L 224.491916 260.499229 
L 224.797091 244.267787 
L 224.81657 245.029631 
L 225.238621 256.994109 
L 225.53081 260.996258 
L 225.771055 261.418625 
L 226.095709 243.571761 
L 226.102202 244.265458 
L 226.459322 270.497197 
L 226.745018 273.951981 
L 226.751511 273.759898 
L 227.186548 264.239093 
L 227.394327 261.291516 
L 227.452765 261.574543 
L 227.718982 262.435844 
L 227.725475 262.349679 
L 228.095581 256.09884 
L 228.368291 244.47908 
L 228.381277 245.740249 
L 228.731904 268.817159 
L 229.0176 270.434844 
L 229.342255 253.500397 
L 229.355241 254.479086 
L 229.666909 271.994846 
L 229.679895 270.591544 
L 229.991564 245.22742 
L 230.011043 247.143907 
L 230.374656 271.617266 
L 230.907089 284.813641 
L 230.965527 285.805271 
L 231.049937 285.47181 
L 231.290182 284.30471 
L 231.614836 256.391346 
L 231.634316 257.770442 
L 232.004422 275.821875 
L 232.264145 281.449246 
L 232.270639 280.73438 
L 232.5888 254.147422 
L 232.608279 255.247609 
L 232.913455 268.089782 
L 232.932934 267.19304 
L 233.562764 241.818728 
L 233.57575 242.666204 
L 233.978321 261.402095 
L 234.536727 280.65895 
L 234.575686 278.145271 
L 234.861382 264.02889 
L 234.887354 265.540589 
L 235.186036 278.292115 
L 235.212009 277.857498 
L 235.536663 271.023391 
L 235.984687 236.952616 
L 236.322327 222.870731 
L 236.484655 219.536521 
L 236.510627 220.707995 
L 236.809309 231.407492 
L 236.828788 230.251862 
L 237.166429 216.982507 
L 237.41966 215.76843 
L 237.458618 215.725053 
L 237.783273 244.756392 
L 237.809245 243.55451 
L 238.146886 233.2668 
L 238.413103 232.388285 
L 238.432582 232.36765 
L 238.757236 248.944195 
L 238.776716 247.954076 
L 239.081891 236.565819 
L 239.094877 237.284881 
L 239.45849 251.081542 
L 239.744186 254.846161 
L 240.055855 280.356998 
L 240.068841 278.831762 
L 240.380509 251.124885 
L 240.406481 252.551556 
L 240.815546 268.504425 
L 241.101242 273.809471 
L 241.315514 274.012922 
L 241.354473 274.003295 
L 241.718086 259.091004 
L 242.04274 256.413855 
L 242.653091 234.894994 
L 242.692049 239.38797 
L 243.023197 264.3099 
L 243.3024 264.683255 
L 243.698479 240.603328 
L 243.951709 231.673779 
L 243.971188 233.091122 
L 244.276364 250.064345 
L 244.302336 248.78882 
L 244.601018 238.012113 
L 244.620497 238.879585 
L 245.250327 266.252815 
L 245.282793 263.437322 
L 245.574982 244.448098 
L 245.594461 246.220751 
L 245.964567 269.501461 
L 246.224291 276.467556 
L 246.237277 275.505732 
L 246.60089 256.910782 
L 246.8736 252.910927 
L 246.880093 253.495661 
L 247.198255 274.881671 
L 247.211241 273.942614 
L 247.600826 254.048585 
L 248.074822 234.975093 
L 248.172218 231.123239 
L 248.204684 234.079561 
L 248.548817 254.864209 
L 248.821527 257.154447 
L 248.82802 256.817082 
L 249.191633 243.790795 
L 249.795491 234.592083 
L 249.808477 235.912381 
L 250.340911 278.065661 
L 250.4448 284.218535 
L 250.483759 280.843269 
L 250.827892 261.363908 
L 251.094109 259.190002 
L 251.113588 259.581531 
L 251.483695 268.774053 
L 251.743418 282.517823 
L 251.78887 282.279311 
L 252.068073 280.715949 
L 252.074566 281.049335 
L 252.392727 292.704809 
L 252.39922 291.929414 
L 252.717382 262.906619 
L 252.736861 264.162707 
L 253.042036 278.648461 
L 253.055023 277.711607 
L 253.366691 260.539633 
L 253.392663 261.15547 
L 254.016 274.763377 
L 254.028986 273.426305 
L 254.405585 246.259749 
L 254.665309 237.719212 
L 254.678295 239.132852 
L 254.989964 264.725576 
L 255.009443 262.889722 
L 255.425001 234.745467 
L 255.639273 225.541064 
L 255.697711 225.825043 
L 255.963927 227.305985 
L 256.626223 273.169454 
L 257.262545 287.870534 
L 257.275532 286.920439 
L 257.911855 247.908321 
L 257.918348 248.22717 
L 258.236509 260.018438 
L 258.262481 259.674411 
L 258.561164 256.659583 
L 258.57415 256.908045 
L 258.957242 266.045814 
L 259.210473 278.300693 
L 259.229952 276.477406 
L 259.574086 254.734986 
L 259.859782 254.310496 
L 260.184436 231.952781 
L 260.197423 232.93152 
L 260.833745 274.532892 
L 260.853225 273.816331 
L 261.24281 256.135793 
L 261.554479 236.305179 
L 261.807709 234.352689 
L 262.190801 248.609279 
L 262.457018 252.36701 
L 262.470004 251.711339 
L 262.781673 240.081221 
L 262.788166 240.844374 
L 263.106327 268.997318 
L 263.1323 268.043741 
L 263.430982 259.65284 
L 263.463447 259.92609 
L 263.755636 261.680988 
L 264.080291 243.320026 
L 264.09977 243.937966 
L 264.450397 251.424802 
L 264.7296 251.719568 
L 265.08672 260.789207 
L 265.378909 261.367534 
L 265.703564 256.749546 
L 265.710057 257.272385 
L 266.028218 276.323284 
L 266.054191 275.924085 
L 266.443776 268.493228 
L 267.268399 242.167682 
L 267.326836 241.765901 
L 267.333329 242.489841 
L 267.683956 269.41232 
L 267.976145 270.724516 
L 268.339759 248.941256 
L 268.625455 245.445198 
L 268.631948 245.859344 
L 268.950109 261.175864 
L 268.963095 260.285244 
L 269.274764 244.286493 
L 269.307229 244.494572 
L 269.605911 246.77035 
L 269.924073 271.307086 
L 269.943552 270.380258 
L 270.339631 257.041757 
L 270.618833 248.586463 
L 270.898036 229.78653 
L 270.930502 230.858256 
L 271.222691 238.504662 
L 271.235677 237.640164 
L 271.547345 222.559246 
L 271.553839 223.217253 
L 272.105751 267.569241 
L 272.196655 273.142252 
L 272.261585 270.577409 
L 272.845964 246.945948 
L 272.936867 249.558939 
L 273.248535 254.867516 
L 273.495273 255.413584 
L 273.819927 274.485292 
L 273.839407 273.890929 
L 274.144582 266.610299 
L 274.164061 267.149115 
L 274.469236 273.213109 
L 274.475729 272.833046 
L 274.793891 258.622811 
L 274.806877 259.653905 
L 275.118545 278.002901 
L 275.131532 276.858935 
L 275.657472 240.767735 
L 275.767855 235.08705 
L 275.80032 238.931602 
L 276.092509 264.989583 
L 276.111988 262.64081 
L 276.417164 235.123619 
L 276.436643 237.282194 
L 276.780777 262.906617 
L 277.066473 263.271499 
L 277.559948 249.074645 
L 277.839151 239.452212 
L 278.150819 230.506763 
L 278.365091 228.578649 
L 278.728704 263.333579 
L 279.339055 284.444837 
L 279.378013 281.42601 
L 279.663709 264.494453 
L 279.696175 265.482566 
L 279.988364 271.918884 
L 279.994857 271.300387 
L 280.351977 247.834342 
L 280.637673 244.78323 
L 281.007779 271.887142 
L 281.286982 279.542727 
L 281.306461 279.058327 
L 281.650595 268.402355 
L 281.981743 243.261825 
L 282.196015 243.174183 
L 282.260945 243.203465 
L 282.5856 233.869738 
L 282.592093 234.314773 
L 282.988172 253.681726 
L 283.234909 260.040491 
L 283.247895 258.82271 
L 283.663453 230.630327 
L 283.884218 220.946574 
L 283.916684 222.666984 
L 284.708841 269.062535 
L 284.858182 276.953949 
L 284.91662 275.238546 
L 285.260753 262.711838 
L 285.507491 247.585321 
L 285.539956 249.363469 
L 285.832145 261.391582 
L 285.845132 260.155593 
L 286.1568 237.988725 
L 286.176279 239.563667 
L 286.767151 277.627163 
L 286.987916 283.209471 
L 287.130764 285.094728 
L 287.137257 284.29367 
L 287.494377 253.68298 
L 287.780073 249.326743 
L 287.786566 249.649731 
L 288.104727 261.563141 
L 288.124207 261.120823 
L 288.429382 255.862606 
L 288.442368 256.271229 
L 289.078691 272.836418 
L 289.5397 247.995222 
L 290.052655 222.25686 
L 290.117585 225.791875 
L 290.701964 253.535332 
L 290.740922 252.481509 
L 291.026618 246.798599 
L 291.046097 247.31232 
L 291.351273 253.471382 
L 291.370752 252.937837 
L 291.818775 238.135572 
L 292.091485 229.566633 
L 292.325236 228.745829 
L 292.734301 271.95355 
L 292.974545 287.601958 
L 293.032983 287.441663 
L 293.2992 286.356295 
L 293.623855 250.481968 
L 293.643334 251.41023 
L 294.01344 263.504499 
L 294.273164 266.888867 
L 294.318615 266.865858 
L 294.597818 266.564364 
L 294.610804 266.732758 
L 294.922473 269.526907 
L 295.247127 250.677865 
L 295.266607 251.236624 
L 295.623727 258.153095 
L 295.896436 259.320094 
L 295.909423 259.128358 
L 296.221091 255.639558 
L 296.578211 277.458812 
L 296.8704 279.161928 
L 297.441792 241.344985 
L 297.740474 231.037324 
L 297.844364 229.014789 
L 297.889815 229.943514 
L 298.207977 238.31782 
L 298.493673 258.624636 
L 298.539124 258.329576 
L 298.818327 256.939435 
L 299.142982 277.318606 
L 299.155968 276.323451 
L 299.467636 258.137475 
L 299.487116 259.446736 
L 299.831249 275.041749 
L 300.370176 281.250582 
L 300.4416 282.040339 
L 300.448093 281.451541 
L 300.766255 259.450049 
L 300.792227 260.297814 
L 301.090909 267.468768 
L 301.097402 266.83481 
L 301.454522 242.620422 
L 301.740218 238.166404 
L 302.097338 265.80037 
L 302.389527 268.423915 
L 302.39602 268.155013 
L 303.038836 242.371083 
L 303.090781 244.083949 
L 303.421929 251.120308 
L 303.701132 251.985843 
L 304.0128 257.377506 
L 304.025786 256.887205 
L 305.311418 213.219757 
L 305.636073 215.608515 
L 306.233437 265.699714 
L 306.68146 288.621493 
L 306.934691 293.024568 
L 306.960663 292.695873 
L 307.259345 289.179435 
L 307.330769 289.404181 
L 307.493097 289.547762 
L 307.506083 289.540313 
L 307.584 289.445391 
L 308.161885 263.203149 
L 308.233309 260.693618 
L 308.272268 262.886686 
L 308.557964 274.719108 
L 308.57095 273.397073 
L 308.947549 246.650527 
L 309.531927 223.356022 
L 309.577379 225.694088 
L 309.953978 238.989248 
L 310.181236 242.828646 
L 310.239674 242.464308 
L 310.505891 241.463782 
L 311.1552 274.938034 
L 311.265583 272.464966 
L 311.505827 265.582373 
L 311.804509 238.952457 
L 311.830481 240.578679 
L 312.453818 272.062154 
L 312.908335 250.078493 
L 313.103127 236.711948 
L 313.148579 239.108441 
L 313.427782 250.356705 
L 313.453754 249.287007 
L 313.804381 239.697041 
L 314.077091 237.779557 
L 314.083584 237.986971 
L 314.486156 253.935048 
L 314.804317 272.443771 
L 315.051055 275.810595 
L 315.057548 275.455003 
L 315.60946 251.503756 
L 315.869184 238.300868 
L 316.025018 231.524085 
L 316.076963 232.961543 
L 316.42759 244.962245 
L 316.674327 259.212956 
L 316.732765 258.841112 
L 317.05742 256.25689 
L 317.648291 242.35462 
L 317.680756 245.362532 
L 317.972945 265.698682 
L 317.992425 264.212524 
L 318.356038 245.303459 
L 318.622255 240.683117 
L 318.628748 241.170832 
L 319.005347 260.91162 
L 319.271564 266.393498 
L 319.291043 265.680956 
L 320.245527 233.303711 
L 320.258513 234.428431 
L 320.570182 254.952744 
L 320.589661 253.56819 
L 320.96626 234.996393 
L 321.219491 228.825603 
L 321.232477 229.899234 
L 321.738938 262.101587 
L 321.979183 268.970886 
L 322.193455 269.889559 
L 322.576547 248.111069 
L 322.842764 240.968939 
L 322.862243 242.009381 
L 323.894644 290.208325 
L 324.141382 294.662748 
L 324.147875 293.959183 
L 324.595898 257.794734 
L 325.004963 238.117733 
L 325.115345 234.885343 
L 325.134825 236.841681 
L 325.44 260.026279 
L 325.472465 259.753081 
L 325.862051 257.485459 
L 326.089309 256.826717 
L 326.095802 257.042796 
L 326.413964 264.905206 
L 326.420457 264.383344 
L 326.874973 236.995051 
L 327.063273 228.869688 
L 327.082752 231.577075 
L 327.504803 273.856506 
L 327.712582 287.098623 
L 327.758033 285.477973 
L 328.251508 264.742564 
L 328.576163 254.188767 
L 329.0112 244.080055 
L 329.050159 246.186385 
L 329.335855 257.853067 
L 329.348841 256.641536 
L 329.72544 232.249123 
L 329.985164 224.52929 
L 329.99815 225.594219 
L 330.634473 276.52524 
L 330.71239 274.885281 
L 331.004579 266.953838 
L 331.374685 246.197788 
L 331.608436 239.986776 
L 331.640902 240.851432 
L 332.257745 258.385768 
L 332.3941 257.446875 
L 332.5824 256.46807 
L 332.588893 256.863392 
L 332.907055 271.269731 
L 332.920041 270.448003 
L 333.556364 235.384361 
L 333.56935 236.175481 
L 334.432931 281.391379 
L 334.530327 283.56433 
L 334.575779 282.450529 
L 334.854982 276.886699 
L 334.874461 277.65661 
L 335.277033 288.874047 
L 335.504291 292.995819 
L 335.510784 292.307747 
L 335.828945 266.46355 
L 335.854918 267.490574 
L 336.1536 276.057535 
L 336.166586 275.435697 
L 336.647075 247.667877 
L 336.965236 230.589091 
L 337.127564 226.382665 
L 337.166522 227.78199 
L 337.588573 238.583989 
L 337.802845 243.901237 
L 338.101527 264.56273 
L 338.1275 263.547694 
L 338.698892 237.660748 
L 338.750836 235.33363 
L 338.783302 238.794563 
L 339.075491 262.28691 
L 339.114449 261.707685 
L 339.400145 258.443217 
L 339.413132 258.999836 
L 340.296192 291.568567 
L 340.374109 293.580016 
L 340.400081 291.56003 
L 340.783174 270.868348 
L 341.023418 264.877408 
L 341.06887 265.426194 
L 341.348073 267.761985 
L 341.672727 241.529481 
L 341.685713 242.67361 
L 341.997382 263.380454 
L 342.023354 262.330722 
L 342.322036 253.226533 
L 342.348009 253.881659 
L 342.646691 259.527221 
L 342.653184 259.114028 
L 343.068742 239.821853 
L 343.296 232.875827 
L 343.308986 234.23019 
L 343.620655 258.861491 
L 343.640134 257.52765 
L 343.984268 241.780838 
L 344.256977 241.159946 
L 344.269964 241.149306 
L 344.679028 229.920462 
L 344.977711 225.025385 
L 345.191983 224.621478 
L 345.243927 224.638883 
L 345.62702 248.982512 
L 345.98414 265.191379 
L 346.217891 281.707356 
L 346.250356 279.094896 
L 346.776297 246.696434 
L 346.8672 242.601628 
L 346.899665 245.415637 
L 347.191855 264.452663 
L 347.211334 262.890101 
L 347.516509 244.535257 
L 347.548975 245.07268 
L 348.204777 257.341079 
L 348.490473 264.251001 
L 348.496966 263.699247 
L 348.815127 243.409719 
L 348.828113 244.502306 
L 349.139782 264.251822 
L 349.165754 263.678682 
L 349.613777 256.425089 
L 349.789091 254.506548 
L 349.802077 255.283672 
L 350.113745 269.182044 
L 350.120239 268.481518 
L 350.4384 242.666525 
L 350.470865 242.862805 
L 350.776041 245.231207 
L 351.087709 259.886983 
L 351.100695 259.008297 
L 351.412364 243.248205 
L 351.431843 243.856097 
L 352.386327 275.32775 
L 352.451258 271.638531 
L 352.710982 260.412181 
L 352.762927 260.646558 
L 353.074595 262.431603 
L 353.451194 273.823459 
L 353.684945 285.597329 
L 353.704425 283.054997 
L 354.074531 249.760358 
L 354.334255 240.589398 
L 354.347241 241.926385 
L 354.697868 266.324752 
L 354.983564 267.393034 
L 355.308218 263.724587 
L 355.334191 263.934429 
L 355.678324 267.406312 
L 356.035444 276.93567 
L 356.282182 279.848232 
L 356.288675 279.481141 
L 356.860067 241.345532 
L 356.931491 236.372924 
L 356.996422 239.090778 
L 357.256145 247.450999 
L 357.282118 246.000232 
L 357.632745 232.923134 
L 357.905455 229.995604 
L 358.230109 265.473993 
L 358.249588 264.551116 
L 358.795008 244.430793 
L 358.879418 242.115613 
L 358.937856 243.441315 
L 359.204073 248.144752 
L 359.256017 247.926902 
L 359.528727 247.218521 
L 359.53522 247.248804 
L 359.853382 248.530674 
L 359.859875 248.227596 
L 360.178036 237.32586 
L 360.184529 237.873227 
L 360.502691 258.212846 
L 360.52217 257.044664 
L 360.87929 242.408476 
L 361.152 238.76856 
L 361.164986 239.075187 
L 361.476655 244.890109 
L 361.496134 244.324172 
L 361.801309 237.952808 
L 361.827281 238.000843 
L 362.379194 239.307409 
L 362.450618 239.503543 
L 362.457111 239.263567 
L 362.794752 230.788375 
L 363.002531 230.535532 
L 363.099927 230.605725 
L 363.470033 253.924336 
L 364.236218 272.715971 
L 365.047855 302.085818 
L 365.372509 270.005308 
L 365.404975 270.461393 
L 365.697164 273.242434 
L 366.021818 247.731631 
L 366.034804 249.20115 
L 366.346473 275.591694 
L 366.359459 274.245392 
L 366.710086 249.51006 
L 367.067206 247.59988 
L 367.320436 246.9447 
L 367.671063 272.376075 
L 367.885335 272.528492 
L 367.969745 272.485361 
L 368.2944 282.645229 
L 368.300893 282.05697 
L 368.658013 259.896599 
L 368.956695 258.224081 
L 369.333295 244.206993 
L 369.593018 239.715875 
L 369.599511 240.448013 
L 369.917673 267.477306 
L 369.943645 266.445236 
L 370.242327 257.413325 
L 370.255313 258.579094 
L 370.566982 279.355724 
L 370.579968 277.78149 
L 370.891636 249.220089 
L 370.917609 250.620652 
L 371.216291 262.707139 
L 371.248756 262.441132 
L 371.540945 260.538635 
L 371.8656 276.930074 
L 371.878586 275.972636 
L 372.242199 257.469891 
L 372.514909 253.550471 
L 372.527895 254.248001 
L 372.839564 266.74491 
L 372.859043 266.201284 
L 373.255121 252.535718 
L 373.488873 238.989222 
L 373.514845 241.778843 
L 373.878458 268.24893 
L 374.138182 274.960812 
L 374.190127 274.946232 
L 374.378426 274.724117 
L 374.475823 274.335826 
L 374.813463 266.89075 
L 375.112145 239.566609 
L 375.138118 241.562798 
L 375.482252 259.150795 
L 375.761455 260.150041 
L 375.767948 260.026998 
L 376.138054 251.143127 
L 376.482188 232.820561 
L 376.735418 229.034014 
L 377.060073 260.246383 
L 377.073059 258.944407 
L 377.469137 230.814263 
L 377.709382 221.050515 
L 377.722368 222.98086 
L 378.034036 258.127291 
L 378.066502 257.789335 
L 378.358691 255.492536 
L 378.37817 255.747668 
L 378.683345 258.726728 
L 379.008 235.981829 
L 379.020986 237.096181 
L 379.404079 260.161312 
L 379.657309 267.409919 
L 379.676788 266.499882 
L 380.105332 251.920224 
L 380.391028 241.390231 
L 380.631273 228.870925 
L 380.650752 231.347944 
L 381.020858 263.878851 
L 381.280582 273.158241 
L 381.326033 272.793729 
L 381.611729 270.063679 
L 381.929891 241.968181 
L 381.955863 242.658664 
L 382.254545 248.821844 
L 382.267532 248.180535 
L 382.5792 236.877356 
L 382.585693 237.422841 
L 383.098647 270.975361 
L 383.228509 277.381562 
L 383.273961 275.195212 
L 383.702505 260.555154 
L 383.877818 256.757427 
L 383.942749 257.295342 
L 384.468689 262.219165 
L 384.767372 266.048973 
L 384.851782 266.849423 
L 384.864768 266.153438 
L 385.176436 253.515325 
L 385.189423 254.728931 
L 385.566022 279.097239 
L 385.825745 286.612124 
L 385.858211 286.040241 
L 386.364672 279.175192 
L 386.481548 277.161991 
L 386.832175 243.679511 
L 387.124364 242.394231 
L 387.449018 253.723784 
L 387.468497 253.333868 
L 387.832111 244.268076 
L 388.098327 228.997667 
L 388.143779 229.103108 
L 388.422982 230.068556 
L 388.747636 260.007022 
L 388.773609 259.254197 
L 389.228125 243.42467 
L 389.396945 236.089808 
L 389.455383 237.30541 
L 389.760559 245.29077 
L 390.046255 264.840469 
L 390.072227 262.896928 
L 390.494278 240.13638 
L 390.695564 233.095176 
L 390.715043 234.814139 
L 391.072163 256.262642 
L 391.669527 265.115453 
L 392.098071 242.74519 
L 392.318836 234.897598 
L 392.364288 235.717525 
L 392.643491 239.826813 
L 392.701929 239.673052 
L 392.929187 239.42885 
L 392.974639 239.361532 
L 393.2928 237.073932 
L 394.020026 283.430553 
L 394.468049 289.620157 
L 394.591418 290.651534 
L 394.597911 290.21144 
L 395.201769 257.085685 
L 395.403055 252.963087 
L 395.62382 248.808551 
L 395.890036 240.960207 
L 395.909516 241.82576 
L 396.299101 254.042652 
L 396.656221 263.379753 
L 396.864 270.39747 
L 396.902959 269.322351 
L 397.188655 263.213434 
L 397.201641 264.259516 
L 397.513309 282.784542 
L 397.526295 281.534015 
L 397.837964 258.681508 
L 397.863936 259.398668 
L 398.273001 273.100178 
L 398.487273 283.841706 
L 398.487273 283.841706 
" style="fill:none;stroke:#ff0000;stroke-linecap:square;stroke-width:2;"/>
   </g>
   <g id="patch_8">
    <path d="M 57.6 307.584 
L 57.6 186.624 
" style="fill:none;stroke:#000000;stroke-linecap:square;stroke-linejoin:miter;stroke-width:0.8;"/>
   </g>
   <g id="patch_9">
    <path d="M 414.72 307.584 
L 414.72 186.624 
" style="fill:none;stroke:#000000;stroke-linecap:square;stroke-linejoin:miter;stroke-width:0.8;"/>
   </g>
   <g id="patch_10">
    <path d="M 57.6 307.584 
L 414.72 307.584 
" style="fill:none;stroke:#000000;stroke-linecap:square;stroke-linejoin:miter;stroke-width:0.8;"/>
   </g>
   <g id="patch_11">
    <path d="M 57.6 186.624 
L 414.72 186.624 
" style="fill:none;stroke:#000000;stroke-linecap:square;stroke-linejoin:miter;stroke-width:0.8;"/>
   </g>
   <g id="legend_1">
    <g id="patch_12">
     <path d="M 353.0325 223.98025 
L 407.72 223.98025 
Q 409.72 223.98025 409.72 221.98025 
L 409.72 193.624 
Q 409.72 191.624 407.72 191.624 
L 353.0325 191.624 
Q 351.0325 191.624 351.0325 193.624 
L 351.0325 221.98025 
Q 351.0325 223.98025 353.0325 223.98025 
z
" style="fill:#ffffff;opacity:0.8;stroke:#cccccc;stroke-linejoin:miter;"/>
    </g>
    <g id="line2d_27">
     <path d="M 355.0325 199.722437 
L 375.0325 199.722437 
" style="fill:none;stroke:#000000;stroke-linecap:square;stroke-width:4;"/>
    </g>
    <g id="line2d_28"/>
    <g id="text_26">
     <!-- Pred -->
     <defs>
      <path d="M 19.671875 64.796875 
L 19.671875 37.40625 
L 32.078125 37.40625 
Q 38.96875 37.40625 42.71875 40.96875 
Q 46.484375 44.53125 46.484375 51.125 
Q 46.484375 57.671875 42.71875 61.234375 
Q 38.96875 64.796875 32.078125 64.796875 
z
M 9.8125 72.90625 
L 32.078125 72.90625 
Q 44.34375 72.90625 50.609375 67.359375 
Q 56.890625 61.8125 56.890625 51.125 
Q 56.890625 40.328125 50.609375 34.8125 
Q 44.34375 29.296875 32.078125 29.296875 
L 19.671875 29.296875 
L 19.671875 0 
L 9.8125 0 
z
" id="DejaVuSans-50"/>
      <path d="M 41.109375 46.296875 
Q 39.59375 47.171875 37.8125 47.578125 
Q 36.03125 48 33.890625 48 
Q 26.265625 48 22.1875 43.046875 
Q 18.109375 38.09375 18.109375 28.8125 
L 18.109375 0 
L 9.078125 0 
L 9.078125 54.6875 
L 18.109375 54.6875 
L 18.109375 46.1875 
Q 20.953125 51.171875 25.484375 53.578125 
Q 30.03125 56 36.53125 56 
Q 37.453125 56 38.578125 55.875 
Q 39.703125 55.765625 41.0625 55.515625 
z
" id="DejaVuSans-72"/>
      <path d="M 45.40625 46.390625 
L 45.40625 75.984375 
L 54.390625 75.984375 
L 54.390625 0 
L 45.40625 0 
L 45.40625 8.203125 
Q 42.578125 3.328125 38.25 0.953125 
Q 33.9375 -1.421875 27.875 -1.421875 
Q 17.96875 -1.421875 11.734375 6.484375 
Q 5.515625 14.40625 5.515625 27.296875 
Q 5.515625 40.1875 11.734375 48.09375 
Q 17.96875 56 27.875 56 
Q 33.9375 56 38.25 53.625 
Q 42.578125 51.265625 45.40625 46.390625 
z
M 14.796875 27.296875 
Q 14.796875 17.390625 18.875 11.75 
Q 22.953125 6.109375 30.078125 6.109375 
Q 37.203125 6.109375 41.296875 11.75 
Q 45.40625 17.390625 45.40625 27.296875 
Q 45.40625 37.203125 41.296875 42.84375 
Q 37.203125 48.484375 30.078125 48.484375 
Q 22.953125 48.484375 18.875 42.84375 
Q 14.796875 37.203125 14.796875 27.296875 
z
" id="DejaVuSans-64"/>
     </defs>
     <g transform="translate(383.0325 203.222437)scale(0.1 -0.1)">
      <use xlink:href="#DejaVuSans-50"/>
      <use x="60.287109" xlink:href="#DejaVuSans-72"/>
      <use x="101.369141" xlink:href="#DejaVuSans-65"/>
      <use x="162.892578" xlink:href="#DejaVuSans-64"/>
     </g>
    </g>
    <g id="line2d_29">
     <path d="M 355.0325 214.400562 
L 375.0325 214.400562 
" style="fill:none;stroke:#ff0000;stroke-linecap:square;stroke-width:2;"/>
    </g>
    <g id="line2d_30"/>
    <g id="text_27">
     <!-- True -->
     <defs>
      <path d="M 8.5 21.578125 
L 8.5 54.6875 
L 17.484375 54.6875 
L 17.484375 21.921875 
Q 17.484375 14.15625 20.5 10.265625 
Q 23.53125 6.390625 29.59375 6.390625 
Q 36.859375 6.390625 41.078125 11.03125 
Q 45.3125 15.671875 45.3125 23.6875 
L 45.3125 54.6875 
L 54.296875 54.6875 
L 54.296875 0 
L 45.3125 0 
L 45.3125 8.40625 
Q 42.046875 3.421875 37.71875 1 
Q 33.40625 -1.421875 27.6875 -1.421875 
Q 18.265625 -1.421875 13.375 4.4375 
Q 8.5 10.296875 8.5 21.578125 
z
M 31.109375 56 
z
" id="DejaVuSans-75"/>
     </defs>
     <g transform="translate(383.0325 217.900562)scale(0.1 -0.1)">
      <use xlink:href="#DejaVuSans-54"/>
      <use x="60.865234" xlink:href="#DejaVuSans-72"/>
      <use x="101.978516" xlink:href="#DejaVuSans-75"/>
      <use x="165.357422" xlink:href="#DejaVuSans-65"/>
     </g>
    </g>
   </g>
  </g>
 </g>
 <defs>
  <clipPath id="pbd788d71bb">
   <rect height="120.96" width="357.12" x="57.6" y="41.472"/>
  </clipPath>
  <clipPath id="pae706da441">
   <rect height="120.96" width="357.12" x="57.6" y="186.624"/>
  </clipPath>
 </defs>
</svg>
