<?xml version="1.0" encoding="utf-8" standalone="no"?>
<!DOCTYPE svg PUBLIC "-//W3C//DTD SVG 1.1//EN"
  "http://www.w3.org/Graphics/SVG/1.1/DTD/svg11.dtd">
<!-- Created with matplotlib (http://matplotlib.org/) -->
<svg height="345.6pt" version="1.1" viewBox="0 0 460.8 345.6" width="460.8pt" xmlns="http://www.w3.org/2000/svg" xmlns:xlink="http://www.w3.org/1999/xlink">
 <defs>
  <style type="text/css">
*{stroke-linecap:butt;stroke-linejoin:round;}
  </style>
 </defs>
 <g id="figure_1">
  <g id="patch_1">
   <path d="M 0 345.6 
L 460.8 345.6 
L 460.8 0 
L 0 0 
z
" style="fill:#ffffff;"/>
  </g>
  <g id="axes_1">
   <g id="patch_2">
    <path d="M 57.6 119.740235 
L 414.72 119.740235 
L 414.72 41.472 
L 57.6 41.472 
z
" style="fill:#ffffff;"/>
   </g>
   <g id="matplotlib.axis_1">
    <g id="xtick_1">
     <g id="line2d_1">
      <defs>
       <path d="M 0 0 
L 0 3.5 
" id="m67dceea3bf" style="stroke:#000000;stroke-width:0.8;"/>
      </defs>
      <g>
       <use style="stroke:#000000;stroke-width:0.8;" x="73.832727" xlink:href="#m67dceea3bf" y="119.740235"/>
      </g>
     </g>
     <g id="text_1">
      <!-- 0 -->
      <defs>
       <path d="M 31.78125 66.40625 
Q 24.171875 66.40625 20.328125 58.90625 
Q 16.5 51.421875 16.5 36.375 
Q 16.5 21.390625 20.328125 13.890625 
Q 24.171875 6.390625 31.78125 6.390625 
Q 39.453125 6.390625 43.28125 13.890625 
Q 47.125 21.390625 47.125 36.375 
Q 47.125 51.421875 43.28125 58.90625 
Q 39.453125 66.40625 31.78125 66.40625 
z
M 31.78125 74.21875 
Q 44.046875 74.21875 50.515625 64.515625 
Q 56.984375 54.828125 56.984375 36.375 
Q 56.984375 17.96875 50.515625 8.265625 
Q 44.046875 -1.421875 31.78125 -1.421875 
Q 19.53125 -1.421875 13.0625 8.265625 
Q 6.59375 17.96875 6.59375 36.375 
Q 6.59375 54.828125 13.0625 64.515625 
Q 19.53125 74.21875 31.78125 74.21875 
z
" id="DejaVuSans-30"/>
      </defs>
      <g transform="translate(70.651477 134.338673)scale(0.1 -0.1)">
       <use xlink:href="#DejaVuSans-30"/>
      </g>
     </g>
    </g>
    <g id="xtick_2">
     <g id="line2d_2">
      <g>
       <use style="stroke:#000000;stroke-width:0.8;" x="138.763636" xlink:href="#m67dceea3bf" y="119.740235"/>
      </g>
     </g>
     <g id="text_2">
      <!-- 10 -->
      <defs>
       <path d="M 12.40625 8.296875 
L 28.515625 8.296875 
L 28.515625 63.921875 
L 10.984375 60.40625 
L 10.984375 69.390625 
L 28.421875 72.90625 
L 38.28125 72.90625 
L 38.28125 8.296875 
L 54.390625 8.296875 
L 54.390625 0 
L 12.40625 0 
z
" id="DejaVuSans-31"/>
      </defs>
      <g transform="translate(132.401136 134.338673)scale(0.1 -0.1)">
       <use xlink:href="#DejaVuSans-31"/>
       <use x="63.623047" xlink:href="#DejaVuSans-30"/>
      </g>
     </g>
    </g>
    <g id="xtick_3">
     <g id="line2d_3">
      <g>
       <use style="stroke:#000000;stroke-width:0.8;" x="203.694545" xlink:href="#m67dceea3bf" y="119.740235"/>
      </g>
     </g>
     <g id="text_3">
      <!-- 20 -->
      <defs>
       <path d="M 19.1875 8.296875 
L 53.609375 8.296875 
L 53.609375 0 
L 7.328125 0 
L 7.328125 8.296875 
Q 12.9375 14.109375 22.625 23.890625 
Q 32.328125 33.6875 34.8125 36.53125 
Q 39.546875 41.84375 41.421875 45.53125 
Q 43.3125 49.21875 43.3125 52.78125 
Q 43.3125 58.59375 39.234375 62.25 
Q 35.15625 65.921875 28.609375 65.921875 
Q 23.96875 65.921875 18.8125 64.3125 
Q 13.671875 62.703125 7.8125 59.421875 
L 7.8125 69.390625 
Q 13.765625 71.78125 18.9375 73 
Q 24.125 74.21875 28.421875 74.21875 
Q 39.75 74.21875 46.484375 68.546875 
Q 53.21875 62.890625 53.21875 53.421875 
Q 53.21875 48.921875 51.53125 44.890625 
Q 49.859375 40.875 45.40625 35.40625 
Q 44.1875 33.984375 37.640625 27.21875 
Q 31.109375 20.453125 19.1875 8.296875 
z
" id="DejaVuSans-32"/>
      </defs>
      <g transform="translate(197.332045 134.338673)scale(0.1 -0.1)">
       <use xlink:href="#DejaVuSans-32"/>
       <use x="63.623047" xlink:href="#DejaVuSans-30"/>
      </g>
     </g>
    </g>
    <g id="xtick_4">
     <g id="line2d_4">
      <g>
       <use style="stroke:#000000;stroke-width:0.8;" x="268.625455" xlink:href="#m67dceea3bf" y="119.740235"/>
      </g>
     </g>
     <g id="text_4">
      <!-- 30 -->
      <defs>
       <path d="M 40.578125 39.3125 
Q 47.65625 37.796875 51.625 33 
Q 55.609375 28.21875 55.609375 21.1875 
Q 55.609375 10.40625 48.1875 4.484375 
Q 40.765625 -1.421875 27.09375 -1.421875 
Q 22.515625 -1.421875 17.65625 -0.515625 
Q 12.796875 0.390625 7.625 2.203125 
L 7.625 11.71875 
Q 11.71875 9.328125 16.59375 8.109375 
Q 21.484375 6.890625 26.8125 6.890625 
Q 36.078125 6.890625 40.9375 10.546875 
Q 45.796875 14.203125 45.796875 21.1875 
Q 45.796875 27.640625 41.28125 31.265625 
Q 36.765625 34.90625 28.71875 34.90625 
L 20.21875 34.90625 
L 20.21875 43.015625 
L 29.109375 43.015625 
Q 36.375 43.015625 40.234375 45.921875 
Q 44.09375 48.828125 44.09375 54.296875 
Q 44.09375 59.90625 40.109375 62.90625 
Q 36.140625 65.921875 28.71875 65.921875 
Q 24.65625 65.921875 20.015625 65.03125 
Q 15.375 64.15625 9.8125 62.3125 
L 9.8125 71.09375 
Q 15.4375 72.65625 20.34375 73.4375 
Q 25.25 74.21875 29.59375 74.21875 
Q 40.828125 74.21875 47.359375 69.109375 
Q 53.90625 64.015625 53.90625 55.328125 
Q 53.90625 49.265625 50.4375 45.09375 
Q 46.96875 40.921875 40.578125 39.3125 
z
" id="DejaVuSans-33"/>
      </defs>
      <g transform="translate(262.262955 134.338673)scale(0.1 -0.1)">
       <use xlink:href="#DejaVuSans-33"/>
       <use x="63.623047" xlink:href="#DejaVuSans-30"/>
      </g>
     </g>
    </g>
    <g id="xtick_5">
     <g id="line2d_5">
      <g>
       <use style="stroke:#000000;stroke-width:0.8;" x="333.556364" xlink:href="#m67dceea3bf" y="119.740235"/>
      </g>
     </g>
     <g id="text_5">
      <!-- 40 -->
      <defs>
       <path d="M 37.796875 64.3125 
L 12.890625 25.390625 
L 37.796875 25.390625 
z
M 35.203125 72.90625 
L 47.609375 72.90625 
L 47.609375 25.390625 
L 58.015625 25.390625 
L 58.015625 17.1875 
L 47.609375 17.1875 
L 47.609375 0 
L 37.796875 0 
L 37.796875 17.1875 
L 4.890625 17.1875 
L 4.890625 26.703125 
z
" id="DejaVuSans-34"/>
      </defs>
      <g transform="translate(327.193864 134.338673)scale(0.1 -0.1)">
       <use xlink:href="#DejaVuSans-34"/>
       <use x="63.623047" xlink:href="#DejaVuSans-30"/>
      </g>
     </g>
    </g>
    <g id="xtick_6">
     <g id="line2d_6">
      <g>
       <use style="stroke:#000000;stroke-width:0.8;" x="398.487273" xlink:href="#m67dceea3bf" y="119.740235"/>
      </g>
     </g>
     <g id="text_6">
      <!-- 50 -->
      <defs>
       <path d="M 10.796875 72.90625 
L 49.515625 72.90625 
L 49.515625 64.59375 
L 19.828125 64.59375 
L 19.828125 46.734375 
Q 21.96875 47.46875 24.109375 47.828125 
Q 26.265625 48.1875 28.421875 48.1875 
Q 40.625 48.1875 47.75 41.5 
Q 54.890625 34.8125 54.890625 23.390625 
Q 54.890625 11.625 47.5625 5.09375 
Q 40.234375 -1.421875 26.90625 -1.421875 
Q 22.3125 -1.421875 17.546875 -0.640625 
Q 12.796875 0.140625 7.71875 1.703125 
L 7.71875 11.625 
Q 12.109375 9.234375 16.796875 8.0625 
Q 21.484375 6.890625 26.703125 6.890625 
Q 35.15625 6.890625 40.078125 11.328125 
Q 45.015625 15.765625 45.015625 23.390625 
Q 45.015625 31 40.078125 35.4375 
Q 35.15625 39.890625 26.703125 39.890625 
Q 22.75 39.890625 18.8125 39.015625 
Q 14.890625 38.140625 10.796875 36.28125 
z
" id="DejaVuSans-35"/>
      </defs>
      <g transform="translate(392.124773 134.338673)scale(0.1 -0.1)">
       <use xlink:href="#DejaVuSans-35"/>
       <use x="63.623047" xlink:href="#DejaVuSans-30"/>
      </g>
     </g>
    </g>
   </g>
   <g id="matplotlib.axis_2">
    <g id="ytick_1">
     <g id="line2d_7">
      <defs>
       <path d="M 0 0 
L -3.5 0 
" id="m78dccc36f5" style="stroke:#000000;stroke-width:0.8;"/>
      </defs>
      <g>
       <use style="stroke:#000000;stroke-width:0.8;" x="57.6" xlink:href="#m78dccc36f5" y="89.036636"/>
      </g>
     </g>
     <g id="text_7">
      <!-- −0.005 -->
      <defs>
       <path d="M 10.59375 35.5 
L 73.1875 35.5 
L 73.1875 27.203125 
L 10.59375 27.203125 
z
" id="DejaVuSans-2212"/>
       <path d="M 10.6875 12.40625 
L 21 12.40625 
L 21 0 
L 10.6875 0 
z
" id="DejaVuSans-2e"/>
      </defs>
      <g transform="translate(13.592188 92.835855)scale(0.1 -0.1)">
       <use xlink:href="#DejaVuSans-2212"/>
       <use x="83.789062" xlink:href="#DejaVuSans-30"/>
       <use x="147.412109" xlink:href="#DejaVuSans-2e"/>
       <use x="179.199219" xlink:href="#DejaVuSans-30"/>
       <use x="242.822266" xlink:href="#DejaVuSans-30"/>
       <use x="306.445312" xlink:href="#DejaVuSans-35"/>
      </g>
     </g>
    </g>
    <g id="ytick_2">
     <g id="line2d_8">
      <g>
       <use style="stroke:#000000;stroke-width:0.8;" x="57.6" xlink:href="#m78dccc36f5" y="45.029647"/>
      </g>
     </g>
     <g id="text_8">
      <!-- 0.000 -->
      <g transform="translate(21.971875 48.828866)scale(0.1 -0.1)">
       <use xlink:href="#DejaVuSans-30"/>
       <use x="63.623047" xlink:href="#DejaVuSans-2e"/>
       <use x="95.410156" xlink:href="#DejaVuSans-30"/>
       <use x="159.033203" xlink:href="#DejaVuSans-30"/>
       <use x="222.65625" xlink:href="#DejaVuSans-30"/>
      </g>
     </g>
    </g>
    <g id="text_9">
     <!-- State 0 -->
     <defs>
      <path d="M 53.515625 70.515625 
L 53.515625 60.890625 
Q 47.90625 63.578125 42.921875 64.890625 
Q 37.9375 66.21875 33.296875 66.21875 
Q 25.25 66.21875 20.875 63.09375 
Q 16.5 59.96875 16.5 54.203125 
Q 16.5 49.359375 19.40625 46.890625 
Q 22.3125 44.4375 30.421875 42.921875 
L 36.375 41.703125 
Q 47.40625 39.59375 52.65625 34.296875 
Q 57.90625 29 57.90625 20.125 
Q 57.90625 9.515625 50.796875 4.046875 
Q 43.703125 -1.421875 29.984375 -1.421875 
Q 24.8125 -1.421875 18.96875 -0.25 
Q 13.140625 0.921875 6.890625 3.21875 
L 6.890625 13.375 
Q 12.890625 10.015625 18.65625 8.296875 
Q 24.421875 6.59375 29.984375 6.59375 
Q 38.421875 6.59375 43.015625 9.90625 
Q 47.609375 13.234375 47.609375 19.390625 
Q 47.609375 24.75 44.3125 27.78125 
Q 41.015625 30.8125 33.5 32.328125 
L 27.484375 33.5 
Q 16.453125 35.6875 11.515625 40.375 
Q 6.59375 45.0625 6.59375 53.421875 
Q 6.59375 63.09375 13.40625 68.65625 
Q 20.21875 74.21875 32.171875 74.21875 
Q 37.3125 74.21875 42.625 73.28125 
Q 47.953125 72.359375 53.515625 70.515625 
z
" id="DejaVuSans-53"/>
      <path d="M 18.3125 70.21875 
L 18.3125 54.6875 
L 36.8125 54.6875 
L 36.8125 47.703125 
L 18.3125 47.703125 
L 18.3125 18.015625 
Q 18.3125 11.328125 20.140625 9.421875 
Q 21.96875 7.515625 27.59375 7.515625 
L 36.8125 7.515625 
L 36.8125 0 
L 27.59375 0 
Q 17.1875 0 13.234375 3.875 
Q 9.28125 7.765625 9.28125 18.015625 
L 9.28125 47.703125 
L 2.6875 47.703125 
L 2.6875 54.6875 
L 9.28125 54.6875 
L 9.28125 70.21875 
z
" id="DejaVuSans-74"/>
      <path d="M 34.28125 27.484375 
Q 23.390625 27.484375 19.1875 25 
Q 14.984375 22.515625 14.984375 16.5 
Q 14.984375 11.71875 18.140625 8.90625 
Q 21.296875 6.109375 26.703125 6.109375 
Q 34.1875 6.109375 38.703125 11.40625 
Q 43.21875 16.703125 43.21875 25.484375 
L 43.21875 27.484375 
z
M 52.203125 31.203125 
L 52.203125 0 
L 43.21875 0 
L 43.21875 8.296875 
Q 40.140625 3.328125 35.546875 0.953125 
Q 30.953125 -1.421875 24.3125 -1.421875 
Q 15.921875 -1.421875 10.953125 3.296875 
Q 6 8.015625 6 15.921875 
Q 6 25.140625 12.171875 29.828125 
Q 18.359375 34.515625 30.609375 34.515625 
L 43.21875 34.515625 
L 43.21875 35.40625 
Q 43.21875 41.609375 39.140625 45 
Q 35.0625 48.390625 27.6875 48.390625 
Q 23 48.390625 18.546875 47.265625 
Q 14.109375 46.140625 10.015625 43.890625 
L 10.015625 52.203125 
Q 14.9375 54.109375 19.578125 55.046875 
Q 24.21875 56 28.609375 56 
Q 40.484375 56 46.34375 49.84375 
Q 52.203125 43.703125 52.203125 31.203125 
z
" id="DejaVuSans-61"/>
      <path d="M 56.203125 29.59375 
L 56.203125 25.203125 
L 14.890625 25.203125 
Q 15.484375 15.921875 20.484375 11.0625 
Q 25.484375 6.203125 34.421875 6.203125 
Q 39.59375 6.203125 44.453125 7.46875 
Q 49.3125 8.734375 54.109375 11.28125 
L 54.109375 2.78125 
Q 49.265625 0.734375 44.1875 -0.34375 
Q 39.109375 -1.421875 33.890625 -1.421875 
Q 20.796875 -1.421875 13.15625 6.1875 
Q 5.515625 13.8125 5.515625 26.8125 
Q 5.515625 40.234375 12.765625 48.109375 
Q 20.015625 56 32.328125 56 
Q 43.359375 56 49.78125 48.890625 
Q 56.203125 41.796875 56.203125 29.59375 
z
M 47.21875 32.234375 
Q 47.125 39.59375 43.09375 43.984375 
Q 39.0625 48.390625 32.421875 48.390625 
Q 24.90625 48.390625 20.390625 44.140625 
Q 15.875 39.890625 15.1875 32.171875 
z
" id="DejaVuSans-65"/>
      <path id="DejaVuSans-20"/>
     </defs>
     <g transform="translate(7.5125 98.611586)rotate(-90)scale(0.1 -0.1)">
      <use xlink:href="#DejaVuSans-53"/>
      <use x="63.476562" xlink:href="#DejaVuSans-74"/>
      <use x="102.685547" xlink:href="#DejaVuSans-61"/>
      <use x="163.964844" xlink:href="#DejaVuSans-74"/>
      <use x="203.173828" xlink:href="#DejaVuSans-65"/>
      <use x="264.697266" xlink:href="#DejaVuSans-20"/>
      <use x="296.484375" xlink:href="#DejaVuSans-30"/>
     </g>
    </g>
   </g>
   <g id="line2d_9">
    <path clip-path="url(#p5b1d8e0e9c)" d="M 73.832727 45.029647 
L 138.770129 45.029647 
L 138.887005 92.427276 
L 139.614231 92.708561 
L 141.243997 93.208582 
L 143.341265 93.607739 
L 146.178746 94.133501 
L 147.905908 94.599201 
L 150.17849 94.969289 
L 152.574441 95.375026 
L 154.360041 95.82395 
L 156.736512 96.178337 
L 159.093504 96.552242 
L 160.963514 96.978301 
L 163.49582 97.312701 
L 165.560623 97.625614 
L 167.495564 98.034266 
L 170.157731 98.353946 
L 172.060207 98.632266 
L 174.073065 99.0245 
L 176.884573 99.329472 
L 178.553297 99.571477 
L 180.63758 99.948959 
L 183.591936 100.241045 
L 185.059375 100.456138 
L 187.221574 100.820103 
L 190.338257 101.100526 
L 191.565452 101.289823 
L 193.799075 101.640853 
L 197.071593 101.910546 
L 198.078022 102.079496 
L 200.389562 102.41896 
L 222.407633 104.685196 
L 224.323095 104.899767 
L 227.017728 105.192659 
L 237.082019 106.077809 
L 239.802624 106.365498 
L 250.925289 107.30353 
L 254.223779 107.550748 
L 257.301504 107.817719 
L 260.606487 108.063388 
L 263.937443 108.34144 
L 267.39826 108.578312 
L 270.326644 108.822943 
L 273.793955 109.05811 
L 276.943104 109.311117 
L 280.559756 109.538822 
L 283.371264 109.766493 
L 287.013888 109.991738 
L 289.955258 110.222288 
L 293.727744 110.441436 
L 296.422377 110.654587 
L 300.240314 110.87049 
L 302.973905 111.081792 
L 306.902225 111.292886 
L 309.473489 111.493017 
L 313.473233 111.700595 
L 316.005539 111.895825 
L 320.102679 112.099404 
L 322.524602 112.287166 
L 326.712646 112.487273 
L 329.050159 112.669083 
L 333.329105 112.86557 
L 335.575715 113.041581 
L 339.945565 113.234583 
L 342.107764 113.405559 
L 346.581504 113.595391 
L 349.295616 113.800453 
L 366.002339 114.616499 
L 368.352838 114.786651 
L 378.20935 115.242009 
L 381.923398 115.455198 
L 398.487273 116.182441 
L 398.487273 116.182441 
" style="fill:none;stroke:#000000;stroke-linecap:square;stroke-width:4;"/>
   </g>
   <g id="line2d_10">
    <path clip-path="url(#p5b1d8e0e9c)" d="M 73.832727 45.029647 
L 80.436201 45.137433 
L 80.605021 45.733683 
L 82.221801 53.390412 
L 83.150313 56.410136 
L 84.091811 58.744307 
L 85.059281 60.567247 
L 86.065711 62.000175 
L 87.150057 63.504045 
L 88.085062 65.952949 
L 89.039546 67.851913 
L 90.032989 69.346235 
L 91.078377 70.525619 
L 92.214668 71.47477 
L 93.727558 72.683448 
L 94.714508 74.15496 
L 95.759895 75.321102 
L 96.889693 76.251385 
L 98.162339 77.008718 
L 99.649257 77.628653 
L 100.103773 77.901702 
L 101.421871 79.247708 
L 102.59712 80.092809 
L 103.934697 80.77753 
L 105.531997 81.338719 
L 106.674781 81.777932 
L 107.811072 82.671252 
L 109.090211 83.390631 
L 110.596608 83.975739 
L 112.466618 84.453885 
L 113.161379 84.705708 
L 114.375587 85.476509 
L 115.778095 86.098471 
L 117.485777 86.60406 
L 119.979124 87.308328 
L 121.323194 87.9563 
L 122.939974 88.480899 
L 125.004777 88.905619 
L 126.264436 89.219903 
L 127.653958 89.831581 
L 129.342161 90.324281 
L 131.543319 90.722702 
L 132.789993 91.008344 
L 134.263924 91.570346 
L 136.094976 92.021729 
L 138.555857 92.385195 
L 139.276591 92.576829 
L 140.828439 93.102803 
L 142.789353 93.522741 
L 146.581318 94.26405 
L 148.425356 94.703959 
L 150.905716 95.052783 
L 152.399127 95.320274 
L 154.139276 95.780579 
L 156.431337 96.143886 
L 159.203887 96.585576 
L 161.106362 97.004186 
L 163.703599 97.333138 
L 165.502185 97.611456 
L 167.42414 98.023634 
L 170.053841 98.345313 
L 172.073193 98.637159 
L 174.092544 99.028344 
L 176.917039 99.332514 
L 178.540311 99.569944 
L 180.624593 99.94807 
L 183.57895 100.240585 
L 185.052881 100.456138 
L 187.215081 100.820103 
L 190.331764 101.100526 
L 191.558959 101.289823 
L 193.792582 101.640853 
L 197.0651 101.910546 
L 198.071529 102.079496 
L 200.383069 102.41896 
L 222.40114 104.685196 
L 224.316602 104.899767 
L 227.011235 105.192659 
L 237.075526 106.077809 
L 239.796131 106.365498 
L 250.918796 107.30353 
L 254.217286 107.550748 
L 257.295011 107.817719 
L 260.599994 108.063388 
L 263.93095 108.34144 
L 267.391767 108.578312 
L 270.320151 108.822943 
L 273.787462 109.05811 
L 276.936611 109.311117 
L 280.553263 109.538822 
L 283.364771 109.766493 
L 287.007395 109.991738 
L 289.948765 110.222288 
L 293.721251 110.441436 
L 296.415884 110.654587 
L 300.233821 110.87049 
L 302.967412 111.081792 
L 306.895732 111.292886 
L 309.466996 111.493017 
L 313.46674 111.700595 
L 315.999046 111.895825 
L 320.096186 112.099404 
L 322.518109 112.287166 
L 326.706153 112.487273 
L 329.043665 112.669083 
L 333.322612 112.86557 
L 335.569222 113.041581 
L 339.939072 113.234583 
L 342.101271 113.405559 
L 346.575011 113.595391 
L 349.289123 113.800453 
L 365.995846 114.616499 
L 368.346345 114.786651 
L 378.202857 115.242009 
L 381.916905 115.455198 
L 398.487273 116.182588 
L 398.487273 116.182588 
" style="fill:none;stroke:#ff0000;stroke-linecap:square;stroke-width:1.5;"/>
   </g>
   <g id="patch_3">
    <path d="M 57.6 119.740235 
L 57.6 41.472 
" style="fill:none;stroke:#000000;stroke-linecap:square;stroke-linejoin:miter;stroke-width:0.8;"/>
   </g>
   <g id="patch_4">
    <path d="M 414.72 119.740235 
L 414.72 41.472 
" style="fill:none;stroke:#000000;stroke-linecap:square;stroke-linejoin:miter;stroke-width:0.8;"/>
   </g>
   <g id="patch_5">
    <path d="M 57.6 119.740235 
L 414.72 119.740235 
" style="fill:none;stroke:#000000;stroke-linecap:square;stroke-linejoin:miter;stroke-width:0.8;"/>
   </g>
   <g id="patch_6">
    <path d="M 57.6 41.472 
L 414.72 41.472 
" style="fill:none;stroke:#000000;stroke-linecap:square;stroke-linejoin:miter;stroke-width:0.8;"/>
   </g>
  </g>
  <g id="axes_2">
   <g id="patch_7">
    <path d="M 57.6 213.662118 
L 414.72 213.662118 
L 414.72 135.393882 
L 57.6 135.393882 
z
" style="fill:#ffffff;"/>
   </g>
   <g id="matplotlib.axis_3">
    <g id="xtick_7">
     <g id="line2d_11">
      <g>
       <use style="stroke:#000000;stroke-width:0.8;" x="73.832727" xlink:href="#m67dceea3bf" y="213.662118"/>
      </g>
     </g>
     <g id="text_10">
      <!-- 0 -->
      <g transform="translate(70.651477 228.260555)scale(0.1 -0.1)">
       <use xlink:href="#DejaVuSans-30"/>
      </g>
     </g>
    </g>
    <g id="xtick_8">
     <g id="line2d_12">
      <g>
       <use style="stroke:#000000;stroke-width:0.8;" x="138.763636" xlink:href="#m67dceea3bf" y="213.662118"/>
      </g>
     </g>
     <g id="text_11">
      <!-- 10 -->
      <g transform="translate(132.401136 228.260555)scale(0.1 -0.1)">
       <use xlink:href="#DejaVuSans-31"/>
       <use x="63.623047" xlink:href="#DejaVuSans-30"/>
      </g>
     </g>
    </g>
    <g id="xtick_9">
     <g id="line2d_13">
      <g>
       <use style="stroke:#000000;stroke-width:0.8;" x="203.694545" xlink:href="#m67dceea3bf" y="213.662118"/>
      </g>
     </g>
     <g id="text_12">
      <!-- 20 -->
      <g transform="translate(197.332045 228.260555)scale(0.1 -0.1)">
       <use xlink:href="#DejaVuSans-32"/>
       <use x="63.623047" xlink:href="#DejaVuSans-30"/>
      </g>
     </g>
    </g>
    <g id="xtick_10">
     <g id="line2d_14">
      <g>
       <use style="stroke:#000000;stroke-width:0.8;" x="268.625455" xlink:href="#m67dceea3bf" y="213.662118"/>
      </g>
     </g>
     <g id="text_13">
      <!-- 30 -->
      <g transform="translate(262.262955 228.260555)scale(0.1 -0.1)">
       <use xlink:href="#DejaVuSans-33"/>
       <use x="63.623047" xlink:href="#DejaVuSans-30"/>
      </g>
     </g>
    </g>
    <g id="xtick_11">
     <g id="line2d_15">
      <g>
       <use style="stroke:#000000;stroke-width:0.8;" x="333.556364" xlink:href="#m67dceea3bf" y="213.662118"/>
      </g>
     </g>
     <g id="text_14">
      <!-- 40 -->
      <g transform="translate(327.193864 228.260555)scale(0.1 -0.1)">
       <use xlink:href="#DejaVuSans-34"/>
       <use x="63.623047" xlink:href="#DejaVuSans-30"/>
      </g>
     </g>
    </g>
    <g id="xtick_12">
     <g id="line2d_16">
      <g>
       <use style="stroke:#000000;stroke-width:0.8;" x="398.487273" xlink:href="#m67dceea3bf" y="213.662118"/>
      </g>
     </g>
     <g id="text_15">
      <!-- 50 -->
      <g transform="translate(392.124773 228.260555)scale(0.1 -0.1)">
       <use xlink:href="#DejaVuSans-35"/>
       <use x="63.623047" xlink:href="#DejaVuSans-30"/>
      </g>
     </g>
    </g>
   </g>
   <g id="matplotlib.axis_4">
    <g id="ytick_3">
     <g id="line2d_17">
      <g>
       <use style="stroke:#000000;stroke-width:0.8;" x="57.6" xlink:href="#m78dccc36f5" y="204.537657"/>
      </g>
     </g>
     <g id="text_16">
      <!-- −0.004 -->
      <g transform="translate(13.592188 208.336876)scale(0.1 -0.1)">
       <use xlink:href="#DejaVuSans-2212"/>
       <use x="83.789062" xlink:href="#DejaVuSans-30"/>
       <use x="147.412109" xlink:href="#DejaVuSans-2e"/>
       <use x="179.199219" xlink:href="#DejaVuSans-30"/>
       <use x="242.822266" xlink:href="#DejaVuSans-30"/>
       <use x="306.445312" xlink:href="#DejaVuSans-34"/>
      </g>
     </g>
    </g>
    <g id="ytick_4">
     <g id="line2d_18">
      <g>
       <use style="stroke:#000000;stroke-width:0.8;" x="57.6" xlink:href="#m78dccc36f5" y="171.744593"/>
      </g>
     </g>
     <g id="text_17">
      <!-- −0.002 -->
      <g transform="translate(13.592188 175.543812)scale(0.1 -0.1)">
       <use xlink:href="#DejaVuSans-2212"/>
       <use x="83.789062" xlink:href="#DejaVuSans-30"/>
       <use x="147.412109" xlink:href="#DejaVuSans-2e"/>
       <use x="179.199219" xlink:href="#DejaVuSans-30"/>
       <use x="242.822266" xlink:href="#DejaVuSans-30"/>
       <use x="306.445312" xlink:href="#DejaVuSans-32"/>
      </g>
     </g>
    </g>
    <g id="ytick_5">
     <g id="line2d_19">
      <g>
       <use style="stroke:#000000;stroke-width:0.8;" x="57.6" xlink:href="#m78dccc36f5" y="138.951529"/>
      </g>
     </g>
     <g id="text_18">
      <!-- 0.000 -->
      <g transform="translate(21.971875 142.750748)scale(0.1 -0.1)">
       <use xlink:href="#DejaVuSans-30"/>
       <use x="63.623047" xlink:href="#DejaVuSans-2e"/>
       <use x="95.410156" xlink:href="#DejaVuSans-30"/>
       <use x="159.033203" xlink:href="#DejaVuSans-30"/>
       <use x="222.65625" xlink:href="#DejaVuSans-30"/>
      </g>
     </g>
    </g>
    <g id="text_19">
     <!-- State 1 -->
     <g transform="translate(7.5125 192.533469)rotate(-90)scale(0.1 -0.1)">
      <use xlink:href="#DejaVuSans-53"/>
      <use x="63.476562" xlink:href="#DejaVuSans-74"/>
      <use x="102.685547" xlink:href="#DejaVuSans-61"/>
      <use x="163.964844" xlink:href="#DejaVuSans-74"/>
      <use x="203.173828" xlink:href="#DejaVuSans-65"/>
      <use x="264.697266" xlink:href="#DejaVuSans-20"/>
      <use x="296.484375" xlink:href="#DejaVuSans-31"/>
     </g>
    </g>
   </g>
   <g id="line2d_20">
    <path clip-path="url(#p5c4206409a)" d="M 73.832727 138.951529 
L 138.770129 138.951529 
L 138.893498 141.817811 
L 139.094784 144.256684 
L 139.185687 144.123155 
L 140.172637 142.88982 
L 141.224518 141.927381 
L 142.380288 141.172022 
L 143.698385 140.580043 
L 145.26322 140.124661 
L 145.587875 143.755629 
L 145.672285 143.643527 
L 146.678714 142.508592 
L 147.756567 141.624874 
L 148.957789 140.928977 
L 150.347311 140.385487 
L 151.756311 140.024798 
L 152.080966 143.342174 
L 152.165376 143.239962 
L 153.184791 142.193812 
L 154.29511 141.371085 
L 155.541783 140.726067 
L 157.009222 140.222868 
L 158.249402 139.941448 
L 158.574057 142.995081 
L 158.658467 142.901152 
L 159.703855 141.91904 
L 160.846639 141.150778 
L 162.145257 140.548931 
L 163.697105 140.081868 
L 164.742493 139.870755 
L 164.748986 139.930143 
L 165.067148 142.699487 
L 165.151558 142.612598 
L 166.216425 141.689811 
L 167.391674 140.966767 
L 168.742237 140.401233 
L 170.378496 139.96526 
L 171.235584 139.80999 
L 171.242077 139.865305 
L 171.560239 142.444671 
L 171.644649 142.36384 
L 172.728995 141.492175 
L 173.93671 140.80835 
L 175.339217 140.274709 
L 177.059887 139.866509 
L 177.728675 139.757162 
L 177.735168 139.808926 
L 178.053329 142.222704 
L 178.13774 142.14714 
L 179.241565 141.32 
L 180.481745 140.670566 
L 181.936198 140.165241 
L 183.74777 139.781008 
L 184.221766 139.710785 
L 184.234752 139.807971 
L 184.54642 142.027592 
L 184.630831 141.956651 
L 185.754135 141.168653 
L 187.026781 140.549664 
L 188.539671 140.068059 
L 190.442147 139.706472 
L 190.727843 139.761382 
L 191.039511 141.85472 
L 191.123921 141.787868 
L 192.273199 141.030991 
L 193.584803 140.437971 
L 195.156131 139.979747 
L 197.156003 139.63947 
L 197.220934 139.719824 
L 197.532602 141.700474 
L 197.617012 141.637266 
L 198.785769 140.91157 
L 200.129839 140.343112 
L 201.753111 139.905887 
L 203.701039 139.60022 
L 204.025693 141.561987 
L 204.110103 141.502045 
L 205.298339 140.804364 
L 206.674874 140.258127 
L 208.350092 139.840106 
L 210.194129 139.570525 
L 210.518784 141.43695 
L 210.603194 141.379954 
L 211.817402 140.704604 
L 213.232896 140.177717 
L 214.973044 139.776681 
L 216.68722 139.543568 
L 216.693713 139.580938 
L 217.011875 141.323488 
L 217.096285 141.269162 
L 218.329972 140.616957 
L 219.777932 140.108681 
L 221.570025 139.724089 
L 223.186804 139.554694 
L 223.504966 141.220058 
L 223.589376 141.168162 
L 224.849036 140.534402 
L 226.32946 140.044223 
L 228.186484 139.673683 
L 229.679895 139.530655 
L 229.998057 141.125381 
L 230.082467 141.075707 
L 231.361606 140.461437 
L 232.880989 139.985442 
L 234.796451 139.629041 
L 236.179479 139.541292 
L 236.491148 141.038385 
L 236.575558 140.990751 
L 237.874176 140.394413 
L 239.426025 139.933146 
L 241.399924 139.589343 
L 242.67257 139.519613 
L 242.984239 140.95817 
L 243.068649 140.912415 
L 244.393239 140.330322 
L 245.984047 139.882228 
L 248.016384 139.551615 
L 249.165661 139.499542 
L 249.477329 140.883968 
L 249.56174 140.83995 
L 250.905809 140.273301 
L 252.529082 139.838056 
L 254.626351 139.517913 
L 255.665245 139.510027 
L 255.97042 140.815126 
L 256.054831 140.772717 
L 257.41838 140.220421 
L 259.074118 139.797213 
L 261.229824 139.487702 
L 262.158336 139.491654 
L 262.463511 140.751081 
L 262.547921 140.710167 
L 263.93095 140.171249 
L 265.625647 139.758142 
L 267.846284 139.4587 
L 268.651427 139.474502 
L 268.956602 140.691346 
L 269.041012 140.651826 
L 270.450013 140.123461 
L 272.177175 139.721868 
L 274.462743 139.432049 
L 275.144518 139.458453 
L 275.449693 140.635498 
L 275.534103 140.597281 
L 276.962583 140.080702 
L 278.728704 139.688112 
L 281.07271 139.408024 
L 281.644102 139.468784 
L 281.942784 140.583169 
L 282.033687 140.543364 
L 283.481647 140.038862 
L 285.280233 139.656634 
L 287.695663 139.384832 
L 288.137193 139.453859 
L 288.435875 140.534035 
L 288.526778 140.495461 
L 290.00071 139.999624 
L 291.838255 139.626241 
L 294.318615 139.363414 
L 294.630284 139.439806 
L 294.928966 140.487811 
L 295.019869 140.450393 
L 296.51328 139.964419 
L 298.38329 139.599697 
L 300.928582 139.344454 
L 301.123375 139.42655 
L 301.422057 140.444244 
L 301.51296 140.407915 
L 303.02585 139.931259 
L 304.934819 139.573887 
L 307.551535 139.326031 
L 307.616465 139.414024 
L 307.915148 140.403112 
L 308.006051 140.36781 
L 309.53842 139.899972 
L 311.479855 139.550501 
L 314.083584 139.314253 
L 314.408239 140.364214 
L 314.492649 140.332304 
L 316.044497 139.871906 
L 318.018397 139.529296 
L 320.576675 139.305354 
L 320.901329 140.327372 
L 320.98574 140.296317 
L 322.557068 139.843873 
L 324.563433 139.508492 
L 327.069766 139.296904 
L 327.39442 140.292428 
L 327.478831 140.262182 
L 329.069638 139.817303 
L 331.108468 139.488847 
L 333.56935 139.309243 
L 333.887511 140.259238 
L 333.978415 140.227524 
L 335.595194 139.789364 
L 337.672983 139.468113 
L 340.062441 139.301089 
L 340.380602 140.227671 
L 340.471505 140.196744 
L 342.107764 139.765484 
L 344.224512 139.449928 
L 346.562025 139.312672 
L 346.964596 140.167433 
L 348.620335 139.742762 
L 350.769548 139.433371 
L 353.055116 139.304801 
L 353.457687 140.139489 
L 355.132905 139.721118 
L 357.314583 139.417658 
L 359.548207 139.29728 
L 359.950778 140.112817 
L 361.645475 139.700478 
L 363.866112 139.402123 
L 366.047791 139.308104 
L 366.443869 140.087332 
L 368.158045 139.680774 
L 370.411148 139.387955 
L 372.540881 139.300823 
L 372.93696 140.062956 
L 374.664122 139.663083 
L 376.94969 139.375035 
L 379.033972 139.293846 
L 379.430051 140.039619 
L 381.176692 139.645042 
L 383.494726 139.362168 
L 385.527063 139.287154 
L 385.923142 140.017254 
L 387.689263 139.627769 
L 390.046255 139.349378 
L 392.026647 139.29723 
L 392.416233 139.995802 
L 394.201833 139.611218 
L 396.59129 139.337689 
L 398.487273 139.226144 
L 398.487273 139.226144 
" style="fill:none;stroke:#000000;stroke-linecap:square;stroke-width:4;"/>
   </g>
   <g id="line2d_21">
    <path clip-path="url(#p5c4206409a)" d="M 73.832727 138.951529 
L 80.325818 138.951529 
L 80.650473 210.104471 
L 80.734883 208.356524 
L 81.637423 192.192342 
L 82.533469 179.914021 
L 83.442502 170.400481 
L 84.345041 163.195777 
L 85.247581 157.693999 
L 86.156614 153.464378 
L 86.818909 151.028792 
L 87.143564 175.20981 
L 87.227974 174.320461 
L 88.12402 166.16561 
L 89.020067 159.950667 
L 89.922607 155.18215 
L 90.831639 151.528167 
L 91.747165 148.731303 
L 92.675677 146.579293 
L 93.312 145.41342 
L 93.636655 160.217734 
L 93.721065 159.701937 
L 94.617111 154.97397 
L 95.519651 151.351163 
L 96.435177 148.561897 
L 97.363689 146.421326 
L 98.318173 144.763935 
L 99.311616 143.475161 
L 99.805091 142.963785 
L 100.129745 153.668457 
L 100.214156 153.314852 
L 101.116695 150.053766 
L 102.032221 147.545877 
L 102.967226 145.612253 
L 103.928204 144.12072 
L 104.941126 142.952867 
L 106.031965 142.034747 
L 106.298182 141.852529 
L 106.622836 150.232651 
L 106.707247 149.963485 
L 107.622772 147.450502 
L 108.551284 145.526749 
L 109.512262 144.032945 
L 110.518691 142.871758 
L 111.596544 141.963291 
L 112.791273 141.246609 
L 113.115927 148.128873 
L 113.200337 147.91108 
L 114.122356 145.865462 
L 115.070348 144.284533 
L 116.057297 143.058525 
L 117.109178 142.09927 
L 118.271441 141.340165 
L 119.284364 140.863569 
L 119.609018 146.701166 
L 119.693428 146.518063 
L 120.628433 144.777479 
L 121.595904 143.430673 
L 122.621812 142.376422 
L 123.732131 141.551237 
L 124.985297 140.899 
L 125.777455 140.596975 
L 126.102109 145.664862 
L 126.186519 145.506835 
L 127.141004 143.977776 
L 128.134447 142.796087 
L 129.199313 141.870395 
L 130.374563 141.143108 
L 131.725126 140.571868 
L 132.270545 140.399465 
L 132.277039 140.493461 
L 132.5952 144.876818 
L 132.67961 144.737794 
L 133.647081 143.376959 
L 134.666496 142.318663 
L 135.776815 141.485443 
L 137.023488 140.831102 
L 138.484433 140.321089 
L 138.763636 140.246677 
L 138.770129 140.330862 
L 139.088291 144.256684 
L 139.172701 144.132569 
L 140.159651 142.896777 
L 141.211532 141.932422 
L 142.367302 141.175567 
L 143.685399 140.582418 
L 145.256727 140.124661 
L 145.581382 143.755629 
L 145.665792 143.643527 
L 146.672221 142.508592 
L 147.750074 141.624874 
L 148.951296 140.928977 
L 150.340817 140.385487 
L 151.749818 140.024798 
L 152.074473 143.342174 
L 152.158883 143.239962 
L 153.178298 142.193812 
L 154.288617 141.371085 
L 155.53529 140.726067 
L 157.002729 140.222868 
L 158.242909 139.941448 
L 158.567564 142.995081 
L 158.651974 142.901152 
L 159.697361 141.91904 
L 160.840145 141.150778 
L 162.138764 140.548931 
L 163.690612 140.081868 
L 164.736 139.870755 
L 164.742493 139.930143 
L 165.060655 142.699487 
L 165.145065 142.612598 
L 166.209932 141.689811 
L 167.385181 140.966767 
L 168.735744 140.401233 
L 170.372003 139.96526 
L 171.229091 139.80999 
L 171.235584 139.865305 
L 171.553745 142.444671 
L 171.638156 142.36384 
L 172.722502 141.492175 
L 173.930217 140.80835 
L 175.332724 140.274709 
L 177.053393 139.866509 
L 177.722182 139.757162 
L 177.728675 139.808926 
L 178.046836 142.222704 
L 178.131247 142.14714 
L 179.235072 141.32 
L 180.475252 140.670566 
L 181.929705 140.165241 
L 183.741277 139.781008 
L 184.215273 139.710785 
L 184.228259 139.807971 
L 184.539927 142.027592 
L 184.624337 141.956651 
L 185.747642 141.168653 
L 187.020288 140.549664 
L 188.533178 140.068059 
L 190.435654 139.706472 
L 190.72135 139.761382 
L 191.033018 141.85472 
L 191.117428 141.787868 
L 192.266705 141.030991 
L 193.57831 140.437971 
L 195.149638 139.979747 
L 197.14951 139.63947 
L 197.214441 139.719824 
L 197.526109 141.700474 
L 197.610519 141.637266 
L 198.779276 140.91157 
L 200.123345 140.343112 
L 201.746618 139.905887 
L 203.694545 139.60022 
L 204.0192 141.561987 
L 204.10361 141.502045 
L 205.291846 140.804364 
L 206.668381 140.258127 
L 208.343599 139.840106 
L 210.187636 139.570525 
L 210.512291 141.43695 
L 210.596701 141.379954 
L 211.810909 140.704604 
L 213.226403 140.177717 
L 214.966551 139.776681 
L 216.680727 139.543568 
L 216.68722 139.580938 
L 217.005382 141.323488 
L 217.089792 141.269162 
L 218.323479 140.616957 
L 219.771439 140.108681 
L 221.563532 139.724089 
L 223.180311 139.554694 
L 223.498473 141.220058 
L 223.582883 141.168162 
L 224.842543 140.534402 
L 226.322967 140.044223 
L 228.179991 139.673683 
L 229.673402 139.530655 
L 229.991564 141.125381 
L 230.075974 141.075707 
L 231.355113 140.461437 
L 232.874496 139.985442 
L 234.789958 139.629041 
L 236.172986 139.541292 
L 236.484655 141.038385 
L 236.569065 140.990751 
L 237.867683 140.394413 
L 239.419532 139.933146 
L 241.393431 139.589343 
L 242.666077 139.519613 
L 242.977745 140.95817 
L 243.062156 140.912415 
L 244.386746 140.330322 
L 245.977553 139.882228 
L 248.009891 139.551615 
L 249.159168 139.499542 
L 249.470836 140.883968 
L 249.555247 140.83995 
L 250.899316 140.273301 
L 252.522589 139.838056 
L 254.619857 139.517913 
L 255.658752 139.510027 
L 255.963927 140.815126 
L 256.048337 140.772717 
L 257.411887 140.220421 
L 259.067625 139.797213 
L 261.223331 139.487702 
L 262.151843 139.491654 
L 262.457018 140.751081 
L 262.541428 140.710167 
L 263.924457 140.171249 
L 265.619153 139.758142 
L 267.839791 139.4587 
L 268.644934 139.474502 
L 268.950109 140.691346 
L 269.034519 140.651826 
L 270.44352 140.123461 
L 272.170682 139.721868 
L 274.45625 139.432049 
L 275.138025 139.458453 
L 275.4432 140.635498 
L 275.52761 140.597281 
L 276.95609 140.080702 
L 278.722211 139.688112 
L 281.066217 139.408024 
L 281.637609 139.468784 
L 281.936291 140.583169 
L 282.027194 140.543364 
L 283.475153 140.038862 
L 285.27374 139.656634 
L 287.689169 139.384832 
L 288.1307 139.453859 
L 288.429382 140.534035 
L 288.520285 140.495461 
L 289.994217 139.999624 
L 291.831761 139.626241 
L 294.312122 139.363414 
L 294.623791 139.439806 
L 294.922473 140.487811 
L 295.013376 140.450393 
L 296.506787 139.964419 
L 298.376797 139.599697 
L 300.922089 139.344454 
L 301.116881 139.42655 
L 301.415564 140.444244 
L 301.506467 140.407915 
L 303.019357 139.931259 
L 304.928326 139.573887 
L 307.545041 139.326031 
L 307.609972 139.414024 
L 307.908655 140.403112 
L 307.999558 140.36781 
L 309.531927 139.899972 
L 311.473361 139.550501 
L 314.077091 139.314253 
L 314.401745 140.364214 
L 314.486156 140.332304 
L 316.038004 139.871906 
L 318.011904 139.529296 
L 320.570182 139.305354 
L 320.894836 140.327372 
L 320.979247 140.296317 
L 322.550575 139.843873 
L 324.55694 139.508492 
L 327.063273 139.296904 
L 327.387927 140.292428 
L 327.472337 140.262182 
L 329.063145 139.817303 
L 331.101975 139.488847 
L 333.562857 139.309243 
L 333.881018 140.259238 
L 333.971921 140.227524 
L 335.588701 139.789364 
L 337.66649 139.468113 
L 340.055948 139.301089 
L 340.374109 140.227671 
L 340.465012 140.196744 
L 342.101271 139.765484 
L 344.218019 139.449928 
L 346.555532 139.312672 
L 346.958103 140.167433 
L 348.613841 139.742762 
L 350.763055 139.433371 
L 353.048623 139.304801 
L 353.451194 140.139489 
L 355.126412 139.721118 
L 357.30809 139.417658 
L 359.541713 139.29728 
L 359.944285 140.112817 
L 361.638982 139.700478 
L 363.859619 139.402123 
L 366.041297 139.308104 
L 366.437376 140.087332 
L 368.151552 139.680774 
L 370.404655 139.387955 
L 372.534388 139.300823 
L 372.930467 140.062956 
L 374.657629 139.663083 
L 376.943197 139.375035 
L 379.027479 139.293846 
L 379.423558 140.039619 
L 381.170199 139.645042 
L 383.488233 139.362168 
L 385.52057 139.287154 
L 385.916649 140.017254 
L 387.682769 139.627769 
L 390.039761 139.349378 
L 392.020154 139.29723 
L 392.40974 139.995802 
L 394.19534 139.611218 
L 396.584797 139.337689 
L 398.487273 139.225863 
L 398.487273 139.225863 
" style="fill:none;stroke:#ff0000;stroke-linecap:square;stroke-width:1.5;"/>
   </g>
   <g id="patch_8">
    <path d="M 57.6 213.662118 
L 57.6 135.393882 
" style="fill:none;stroke:#000000;stroke-linecap:square;stroke-linejoin:miter;stroke-width:0.8;"/>
   </g>
   <g id="patch_9">
    <path d="M 414.72 213.662118 
L 414.72 135.393882 
" style="fill:none;stroke:#000000;stroke-linecap:square;stroke-linejoin:miter;stroke-width:0.8;"/>
   </g>
   <g id="patch_10">
    <path d="M 57.6 213.662118 
L 414.72 213.662118 
" style="fill:none;stroke:#000000;stroke-linecap:square;stroke-linejoin:miter;stroke-width:0.8;"/>
   </g>
   <g id="patch_11">
    <path d="M 57.6 135.393882 
L 414.72 135.393882 
" style="fill:none;stroke:#000000;stroke-linecap:square;stroke-linejoin:miter;stroke-width:0.8;"/>
   </g>
   <g id="legend_1">
    <g id="patch_12">
     <path d="M 353.0325 172.750132 
L 407.72 172.750132 
Q 409.72 172.750132 409.72 170.750132 
L 409.72 142.393882 
Q 409.72 140.393882 407.72 140.393882 
L 353.0325 140.393882 
Q 351.0325 140.393882 351.0325 142.393882 
L 351.0325 170.750132 
Q 351.0325 172.750132 353.0325 172.750132 
z
" style="fill:#ffffff;opacity:0.8;stroke:#cccccc;stroke-linejoin:miter;"/>
    </g>
    <g id="line2d_22">
     <path d="M 355.0325 148.49232 
L 375.0325 148.49232 
" style="fill:none;stroke:#000000;stroke-linecap:square;stroke-width:4;"/>
    </g>
    <g id="line2d_23"/>
    <g id="text_20">
     <!-- Pred -->
     <defs>
      <path d="M 19.671875 64.796875 
L 19.671875 37.40625 
L 32.078125 37.40625 
Q 38.96875 37.40625 42.71875 40.96875 
Q 46.484375 44.53125 46.484375 51.125 
Q 46.484375 57.671875 42.71875 61.234375 
Q 38.96875 64.796875 32.078125 64.796875 
z
M 9.8125 72.90625 
L 32.078125 72.90625 
Q 44.34375 72.90625 50.609375 67.359375 
Q 56.890625 61.8125 56.890625 51.125 
Q 56.890625 40.328125 50.609375 34.8125 
Q 44.34375 29.296875 32.078125 29.296875 
L 19.671875 29.296875 
L 19.671875 0 
L 9.8125 0 
z
" id="DejaVuSans-50"/>
      <path d="M 41.109375 46.296875 
Q 39.59375 47.171875 37.8125 47.578125 
Q 36.03125 48 33.890625 48 
Q 26.265625 48 22.1875 43.046875 
Q 18.109375 38.09375 18.109375 28.8125 
L 18.109375 0 
L 9.078125 0 
L 9.078125 54.6875 
L 18.109375 54.6875 
L 18.109375 46.1875 
Q 20.953125 51.171875 25.484375 53.578125 
Q 30.03125 56 36.53125 56 
Q 37.453125 56 38.578125 55.875 
Q 39.703125 55.765625 41.0625 55.515625 
z
" id="DejaVuSans-72"/>
      <path d="M 45.40625 46.390625 
L 45.40625 75.984375 
L 54.390625 75.984375 
L 54.390625 0 
L 45.40625 0 
L 45.40625 8.203125 
Q 42.578125 3.328125 38.25 0.953125 
Q 33.9375 -1.421875 27.875 -1.421875 
Q 17.96875 -1.421875 11.734375 6.484375 
Q 5.515625 14.40625 5.515625 27.296875 
Q 5.515625 40.1875 11.734375 48.09375 
Q 17.96875 56 27.875 56 
Q 33.9375 56 38.25 53.625 
Q 42.578125 51.265625 45.40625 46.390625 
z
M 14.796875 27.296875 
Q 14.796875 17.390625 18.875 11.75 
Q 22.953125 6.109375 30.078125 6.109375 
Q 37.203125 6.109375 41.296875 11.75 
Q 45.40625 17.390625 45.40625 27.296875 
Q 45.40625 37.203125 41.296875 42.84375 
Q 37.203125 48.484375 30.078125 48.484375 
Q 22.953125 48.484375 18.875 42.84375 
Q 14.796875 37.203125 14.796875 27.296875 
z
" id="DejaVuSans-64"/>
     </defs>
     <g transform="translate(383.0325 151.99232)scale(0.1 -0.1)">
      <use xlink:href="#DejaVuSans-50"/>
      <use x="60.287109" xlink:href="#DejaVuSans-72"/>
      <use x="101.369141" xlink:href="#DejaVuSans-65"/>
      <use x="162.892578" xlink:href="#DejaVuSans-64"/>
     </g>
    </g>
    <g id="line2d_24">
     <path d="M 355.0325 163.170445 
L 375.0325 163.170445 
" style="fill:none;stroke:#ff0000;stroke-linecap:square;stroke-width:1.5;"/>
    </g>
    <g id="line2d_25"/>
    <g id="text_21">
     <!-- True -->
     <defs>
      <path d="M -0.296875 72.90625 
L 61.375 72.90625 
L 61.375 64.59375 
L 35.5 64.59375 
L 35.5 0 
L 25.59375 0 
L 25.59375 64.59375 
L -0.296875 64.59375 
z
" id="DejaVuSans-54"/>
      <path d="M 8.5 21.578125 
L 8.5 54.6875 
L 17.484375 54.6875 
L 17.484375 21.921875 
Q 17.484375 14.15625 20.5 10.265625 
Q 23.53125 6.390625 29.59375 6.390625 
Q 36.859375 6.390625 41.078125 11.03125 
Q 45.3125 15.671875 45.3125 23.6875 
L 45.3125 54.6875 
L 54.296875 54.6875 
L 54.296875 0 
L 45.3125 0 
L 45.3125 8.40625 
Q 42.046875 3.421875 37.71875 1 
Q 33.40625 -1.421875 27.6875 -1.421875 
Q 18.265625 -1.421875 13.375 4.4375 
Q 8.5 10.296875 8.5 21.578125 
z
M 31.109375 56 
z
" id="DejaVuSans-75"/>
     </defs>
     <g transform="translate(383.0325 166.670445)scale(0.1 -0.1)">
      <use xlink:href="#DejaVuSans-54"/>
      <use x="60.865234" xlink:href="#DejaVuSans-72"/>
      <use x="101.978516" xlink:href="#DejaVuSans-75"/>
      <use x="165.357422" xlink:href="#DejaVuSans-65"/>
     </g>
    </g>
   </g>
  </g>
  <g id="axes_3">
   <g id="patch_13">
    <path d="M 57.6 307.584 
L 414.72 307.584 
L 414.72 229.315765 
L 57.6 229.315765 
z
" style="fill:#ffffff;"/>
   </g>
   <g id="matplotlib.axis_5">
    <g id="xtick_13">
     <g id="line2d_26">
      <g>
       <use style="stroke:#000000;stroke-width:0.8;" x="73.832727" xlink:href="#m67dceea3bf" y="307.584"/>
      </g>
     </g>
     <g id="text_22">
      <!-- 0 -->
      <g transform="translate(70.651477 322.182437)scale(0.1 -0.1)">
       <use xlink:href="#DejaVuSans-30"/>
      </g>
     </g>
    </g>
    <g id="xtick_14">
     <g id="line2d_27">
      <g>
       <use style="stroke:#000000;stroke-width:0.8;" x="138.763636" xlink:href="#m67dceea3bf" y="307.584"/>
      </g>
     </g>
     <g id="text_23">
      <!-- 10 -->
      <g transform="translate(132.401136 322.182437)scale(0.1 -0.1)">
       <use xlink:href="#DejaVuSans-31"/>
       <use x="63.623047" xlink:href="#DejaVuSans-30"/>
      </g>
     </g>
    </g>
    <g id="xtick_15">
     <g id="line2d_28">
      <g>
       <use style="stroke:#000000;stroke-width:0.8;" x="203.694545" xlink:href="#m67dceea3bf" y="307.584"/>
      </g>
     </g>
     <g id="text_24">
      <!-- 20 -->
      <g transform="translate(197.332045 322.182437)scale(0.1 -0.1)">
       <use xlink:href="#DejaVuSans-32"/>
       <use x="63.623047" xlink:href="#DejaVuSans-30"/>
      </g>
     </g>
    </g>
    <g id="xtick_16">
     <g id="line2d_29">
      <g>
       <use style="stroke:#000000;stroke-width:0.8;" x="268.625455" xlink:href="#m67dceea3bf" y="307.584"/>
      </g>
     </g>
     <g id="text_25">
      <!-- 30 -->
      <g transform="translate(262.262955 322.182437)scale(0.1 -0.1)">
       <use xlink:href="#DejaVuSans-33"/>
       <use x="63.623047" xlink:href="#DejaVuSans-30"/>
      </g>
     </g>
    </g>
    <g id="xtick_17">
     <g id="line2d_30">
      <g>
       <use style="stroke:#000000;stroke-width:0.8;" x="333.556364" xlink:href="#m67dceea3bf" y="307.584"/>
      </g>
     </g>
     <g id="text_26">
      <!-- 40 -->
      <g transform="translate(327.193864 322.182437)scale(0.1 -0.1)">
       <use xlink:href="#DejaVuSans-34"/>
       <use x="63.623047" xlink:href="#DejaVuSans-30"/>
      </g>
     </g>
    </g>
    <g id="xtick_18">
     <g id="line2d_31">
      <g>
       <use style="stroke:#000000;stroke-width:0.8;" x="398.487273" xlink:href="#m67dceea3bf" y="307.584"/>
      </g>
     </g>
     <g id="text_27">
      <!-- 50 -->
      <g transform="translate(392.124773 322.182437)scale(0.1 -0.1)">
       <use xlink:href="#DejaVuSans-35"/>
       <use x="63.623047" xlink:href="#DejaVuSans-30"/>
      </g>
     </g>
    </g>
    <g id="text_28">
     <!-- Time -->
     <defs>
      <path d="M 9.421875 54.6875 
L 18.40625 54.6875 
L 18.40625 0 
L 9.421875 0 
z
M 9.421875 75.984375 
L 18.40625 75.984375 
L 18.40625 64.59375 
L 9.421875 64.59375 
z
" id="DejaVuSans-69"/>
      <path d="M 52 44.1875 
Q 55.375 50.25 60.0625 53.125 
Q 64.75 56 71.09375 56 
Q 79.640625 56 84.28125 50.015625 
Q 88.921875 44.046875 88.921875 33.015625 
L 88.921875 0 
L 79.890625 0 
L 79.890625 32.71875 
Q 79.890625 40.578125 77.09375 44.375 
Q 74.3125 48.1875 68.609375 48.1875 
Q 61.625 48.1875 57.5625 43.546875 
Q 53.515625 38.921875 53.515625 30.90625 
L 53.515625 0 
L 44.484375 0 
L 44.484375 32.71875 
Q 44.484375 40.625 41.703125 44.40625 
Q 38.921875 48.1875 33.109375 48.1875 
Q 26.21875 48.1875 22.15625 43.53125 
Q 18.109375 38.875 18.109375 30.90625 
L 18.109375 0 
L 9.078125 0 
L 9.078125 54.6875 
L 18.109375 54.6875 
L 18.109375 46.1875 
Q 21.1875 51.21875 25.484375 53.609375 
Q 29.78125 56 35.6875 56 
Q 41.65625 56 45.828125 52.96875 
Q 50 49.953125 52 44.1875 
z
" id="DejaVuSans-6d"/>
     </defs>
     <g transform="translate(223.7725 335.860562)scale(0.1 -0.1)">
      <use xlink:href="#DejaVuSans-54"/>
      <use x="61.037109" xlink:href="#DejaVuSans-69"/>
      <use x="88.820312" xlink:href="#DejaVuSans-6d"/>
      <use x="186.232422" xlink:href="#DejaVuSans-65"/>
     </g>
    </g>
   </g>
   <g id="matplotlib.axis_6">
    <g id="ytick_6">
     <g id="line2d_32">
      <g>
       <use style="stroke:#000000;stroke-width:0.8;" x="57.6" xlink:href="#m78dccc36f5" y="304.026353"/>
      </g>
     </g>
     <g id="text_29">
      <!-- 0 -->
      <g transform="translate(44.2375 307.825572)scale(0.1 -0.1)">
       <use xlink:href="#DejaVuSans-30"/>
      </g>
     </g>
    </g>
    <g id="ytick_7">
     <g id="line2d_33">
      <g>
       <use style="stroke:#000000;stroke-width:0.8;" x="57.6" xlink:href="#m78dccc36f5" y="275.565176"/>
      </g>
     </g>
     <g id="text_30">
      <!-- 2 -->
      <g transform="translate(44.2375 279.364395)scale(0.1 -0.1)">
       <use xlink:href="#DejaVuSans-32"/>
      </g>
     </g>
    </g>
    <g id="ytick_8">
     <g id="line2d_34">
      <g>
       <use style="stroke:#000000;stroke-width:0.8;" x="57.6" xlink:href="#m78dccc36f5" y="247.104"/>
      </g>
     </g>
     <g id="text_31">
      <!-- 4 -->
      <g transform="translate(44.2375 250.903219)scale(0.1 -0.1)">
       <use xlink:href="#DejaVuSans-34"/>
      </g>
     </g>
    </g>
    <g id="text_32">
     <!-- Control Input -->
     <defs>
      <path d="M 64.40625 67.28125 
L 64.40625 56.890625 
Q 59.421875 61.53125 53.78125 63.8125 
Q 48.140625 66.109375 41.796875 66.109375 
Q 29.296875 66.109375 22.65625 58.46875 
Q 16.015625 50.828125 16.015625 36.375 
Q 16.015625 21.96875 22.65625 14.328125 
Q 29.296875 6.6875 41.796875 6.6875 
Q 48.140625 6.6875 53.78125 8.984375 
Q 59.421875 11.28125 64.40625 15.921875 
L 64.40625 5.609375 
Q 59.234375 2.09375 53.4375 0.328125 
Q 47.65625 -1.421875 41.21875 -1.421875 
Q 24.65625 -1.421875 15.125 8.703125 
Q 5.609375 18.84375 5.609375 36.375 
Q 5.609375 53.953125 15.125 64.078125 
Q 24.65625 74.21875 41.21875 74.21875 
Q 47.75 74.21875 53.53125 72.484375 
Q 59.328125 70.75 64.40625 67.28125 
z
" id="DejaVuSans-43"/>
      <path d="M 30.609375 48.390625 
Q 23.390625 48.390625 19.1875 42.75 
Q 14.984375 37.109375 14.984375 27.296875 
Q 14.984375 17.484375 19.15625 11.84375 
Q 23.34375 6.203125 30.609375 6.203125 
Q 37.796875 6.203125 41.984375 11.859375 
Q 46.1875 17.53125 46.1875 27.296875 
Q 46.1875 37.015625 41.984375 42.703125 
Q 37.796875 48.390625 30.609375 48.390625 
z
M 30.609375 56 
Q 42.328125 56 49.015625 48.375 
Q 55.71875 40.765625 55.71875 27.296875 
Q 55.71875 13.875 49.015625 6.21875 
Q 42.328125 -1.421875 30.609375 -1.421875 
Q 18.84375 -1.421875 12.171875 6.21875 
Q 5.515625 13.875 5.515625 27.296875 
Q 5.515625 40.765625 12.171875 48.375 
Q 18.84375 56 30.609375 56 
z
" id="DejaVuSans-6f"/>
      <path d="M 54.890625 33.015625 
L 54.890625 0 
L 45.90625 0 
L 45.90625 32.71875 
Q 45.90625 40.484375 42.875 44.328125 
Q 39.84375 48.1875 33.796875 48.1875 
Q 26.515625 48.1875 22.3125 43.546875 
Q 18.109375 38.921875 18.109375 30.90625 
L 18.109375 0 
L 9.078125 0 
L 9.078125 54.6875 
L 18.109375 54.6875 
L 18.109375 46.1875 
Q 21.34375 51.125 25.703125 53.5625 
Q 30.078125 56 35.796875 56 
Q 45.21875 56 50.046875 50.171875 
Q 54.890625 44.34375 54.890625 33.015625 
z
" id="DejaVuSans-6e"/>
      <path d="M 9.421875 75.984375 
L 18.40625 75.984375 
L 18.40625 0 
L 9.421875 0 
z
" id="DejaVuSans-6c"/>
      <path d="M 9.8125 72.90625 
L 19.671875 72.90625 
L 19.671875 0 
L 9.8125 0 
z
" id="DejaVuSans-49"/>
      <path d="M 18.109375 8.203125 
L 18.109375 -20.796875 
L 9.078125 -20.796875 
L 9.078125 54.6875 
L 18.109375 54.6875 
L 18.109375 46.390625 
Q 20.953125 51.265625 25.265625 53.625 
Q 29.59375 56 35.59375 56 
Q 45.5625 56 51.78125 48.09375 
Q 58.015625 40.1875 58.015625 27.296875 
Q 58.015625 14.40625 51.78125 6.484375 
Q 45.5625 -1.421875 35.59375 -1.421875 
Q 29.59375 -1.421875 25.265625 0.953125 
Q 20.953125 3.328125 18.109375 8.203125 
z
M 48.6875 27.296875 
Q 48.6875 37.203125 44.609375 42.84375 
Q 40.53125 48.484375 33.40625 48.484375 
Q 26.265625 48.484375 22.1875 42.84375 
Q 18.109375 37.203125 18.109375 27.296875 
Q 18.109375 17.390625 22.1875 11.75 
Q 26.265625 6.109375 33.40625 6.109375 
Q 40.53125 6.109375 44.609375 11.75 
Q 48.6875 17.390625 48.6875 27.296875 
z
" id="DejaVuSans-70"/>
     </defs>
     <g transform="translate(38.157812 301.167851)rotate(-90)scale(0.1 -0.1)">
      <use xlink:href="#DejaVuSans-43"/>
      <use x="69.824219" xlink:href="#DejaVuSans-6f"/>
      <use x="131.005859" xlink:href="#DejaVuSans-6e"/>
      <use x="194.384766" xlink:href="#DejaVuSans-74"/>
      <use x="233.59375" xlink:href="#DejaVuSans-72"/>
      <use x="274.675781" xlink:href="#DejaVuSans-6f"/>
      <use x="335.857422" xlink:href="#DejaVuSans-6c"/>
      <use x="363.640625" xlink:href="#DejaVuSans-20"/>
      <use x="395.427734" xlink:href="#DejaVuSans-49"/>
      <use x="424.919922" xlink:href="#DejaVuSans-6e"/>
      <use x="488.298828" xlink:href="#DejaVuSans-70"/>
      <use x="551.775391" xlink:href="#DejaVuSans-75"/>
      <use x="615.154297" xlink:href="#DejaVuSans-74"/>
     </g>
    </g>
   </g>
   <g id="line2d_35">
    <path clip-path="url(#p9879d3e195)" d="M 73.832727 304.026353 
L 80.325818 304.026353 
L 80.442694 232.873412 
L 80.650473 232.873412 
L 80.767348 304.026353 
L 86.818909 304.026353 
L 86.935785 232.873412 
L 87.143564 232.873412 
L 87.260439 304.026353 
L 93.312 304.026353 
L 93.428876 232.873412 
L 93.636655 232.873412 
L 93.75353 304.026353 
L 99.805091 304.026353 
L 99.921967 232.873412 
L 100.129745 232.873412 
L 100.246621 304.026353 
L 106.298182 304.026353 
L 106.415057 232.873412 
L 106.622836 232.873412 
L 106.739712 304.026353 
L 112.791273 304.026353 
L 112.908148 232.873412 
L 113.115927 232.873412 
L 113.232803 304.026353 
L 119.284364 304.026353 
L 119.401239 232.873412 
L 119.609018 232.873412 
L 119.725894 304.026353 
L 125.777455 304.026353 
L 125.89433 232.873412 
L 126.102109 232.873412 
L 126.218985 304.026353 
L 132.270545 304.026353 
L 132.387421 232.873412 
L 132.5952 232.873412 
L 132.712076 304.026353 
L 138.763636 304.026353 
L 138.880512 232.873412 
L 139.088291 232.873412 
L 139.205167 304.026353 
L 145.256727 304.026353 
L 145.373603 232.873412 
L 145.581382 232.873412 
L 145.698257 304.026353 
L 151.749818 304.026353 
L 151.866694 232.873412 
L 152.074473 232.873412 
L 152.191348 304.026353 
L 158.242909 304.026353 
L 158.359785 232.873412 
L 158.567564 232.873412 
L 158.684439 304.026353 
L 164.736 304.026353 
L 164.852876 232.873412 
L 165.060655 232.873412 
L 165.17753 304.026353 
L 171.229091 304.026353 
L 171.345967 232.873412 
L 171.553745 232.873412 
L 171.670621 304.026353 
L 177.722182 304.026353 
L 177.839057 232.873412 
L 178.046836 232.873412 
L 178.163712 304.026353 
L 184.215273 304.026353 
L 184.332148 232.873412 
L 184.539927 232.873412 
L 184.656803 304.026353 
L 190.708364 304.026353 
L 190.825239 232.873412 
L 191.033018 232.873412 
L 191.149894 304.026353 
L 197.201455 304.026353 
L 197.31833 232.873412 
L 197.526109 232.873412 
L 197.642985 304.026353 
L 203.694545 304.026353 
L 203.811421 232.873412 
L 204.0192 232.873412 
L 204.136076 304.026353 
L 210.187636 304.026353 
L 210.304512 232.873412 
L 210.512291 232.873412 
L 210.629167 304.026353 
L 216.680727 304.026353 
L 216.797603 232.873412 
L 217.005382 232.873412 
L 217.122257 304.026353 
L 223.173818 304.026353 
L 223.290694 232.873412 
L 223.498473 232.873412 
L 223.615348 304.026353 
L 229.666909 304.026353 
L 229.783785 232.873412 
L 229.991564 232.873412 
L 230.108439 304.026353 
L 236.16 304.026353 
L 236.276876 232.873412 
L 236.484655 232.873412 
L 236.60153 304.026353 
L 242.653091 304.026353 
L 242.769967 232.873412 
L 242.977745 232.873412 
L 243.094621 304.026353 
L 249.146182 304.026353 
L 249.263057 232.873412 
L 249.470836 232.873412 
L 249.587712 304.026353 
L 255.639273 304.026353 
L 255.756148 232.873412 
L 255.963927 232.873412 
L 256.080803 304.026353 
L 262.132364 304.026353 
L 262.249239 232.873412 
L 262.457018 232.873412 
L 262.573894 304.026353 
L 268.625455 304.026353 
L 268.74233 232.873412 
L 268.950109 232.873412 
L 269.066985 304.026353 
L 275.118545 304.026353 
L 275.235421 232.873412 
L 275.4432 232.873412 
L 275.560076 304.026353 
L 281.611636 304.026353 
L 281.728512 232.873412 
L 281.936291 232.873412 
L 282.053167 304.026353 
L 288.104727 304.026353 
L 288.221603 232.873412 
L 288.429382 232.873412 
L 288.546257 304.026353 
L 294.597818 304.026353 
L 294.714694 232.873412 
L 294.922473 232.873412 
L 295.039348 304.026353 
L 301.090909 304.026353 
L 301.207785 232.873412 
L 301.415564 232.873412 
L 301.532439 304.026353 
L 307.584 304.026353 
L 307.700876 232.873412 
L 307.908655 232.873412 
L 308.02553 304.026353 
L 314.077091 304.026353 
L 314.193967 232.873412 
L 314.401745 232.873412 
L 314.518621 304.026353 
L 320.570182 304.026353 
L 320.687057 232.873412 
L 320.894836 232.873412 
L 321.011712 304.026353 
L 327.063273 304.026353 
L 327.180148 232.873412 
L 327.387927 232.873412 
L 327.504803 304.026353 
L 333.556364 304.026353 
L 333.673239 232.873412 
L 333.881018 232.873412 
L 333.997894 304.026353 
L 340.049455 304.026353 
L 340.16633 232.873412 
L 340.374109 232.873412 
L 340.490985 304.026353 
L 346.542545 304.026353 
L 346.659421 232.873412 
L 346.8672 232.873412 
L 346.984076 304.026353 
L 353.035636 304.026353 
L 353.152512 232.873412 
L 353.360291 232.873412 
L 353.477167 304.026353 
L 359.528727 304.026353 
L 359.645603 232.873412 
L 359.853382 232.873412 
L 359.970257 304.026353 
L 366.021818 304.026353 
L 366.138694 232.873412 
L 366.346473 232.873412 
L 366.463348 304.026353 
L 372.514909 304.026353 
L 372.631785 232.873412 
L 372.839564 232.873412 
L 372.956439 304.026353 
L 379.008 304.026353 
L 379.124876 232.873412 
L 379.332655 232.873412 
L 379.44953 304.026353 
L 385.501091 304.026353 
L 385.617967 232.873412 
L 385.825745 232.873412 
L 385.942621 304.026353 
L 391.994182 304.026353 
L 392.111057 232.873412 
L 392.318836 232.873412 
L 392.435712 304.026353 
L 398.487273 304.026353 
L 398.487273 304.026353 
" style="fill:none;stroke:#000000;stroke-linecap:square;stroke-width:1.5;"/>
   </g>
   <g id="patch_14">
    <path d="M 57.6 307.584 
L 57.6 229.315765 
" style="fill:none;stroke:#000000;stroke-linecap:square;stroke-linejoin:miter;stroke-width:0.8;"/>
   </g>
   <g id="patch_15">
    <path d="M 414.72 307.584 
L 414.72 229.315765 
" style="fill:none;stroke:#000000;stroke-linecap:square;stroke-linejoin:miter;stroke-width:0.8;"/>
   </g>
   <g id="patch_16">
    <path d="M 57.6 307.584 
L 414.72 307.584 
" style="fill:none;stroke:#000000;stroke-linecap:square;stroke-linejoin:miter;stroke-width:0.8;"/>
   </g>
   <g id="patch_17">
    <path d="M 57.6 229.315765 
L 414.72 229.315765 
" style="fill:none;stroke:#000000;stroke-linecap:square;stroke-linejoin:miter;stroke-width:0.8;"/>
   </g>
   <g id="legend_2">
    <g id="patch_18">
     <path d="M 349.82625 251.99389 
L 407.72 251.99389 
Q 409.72 251.99389 409.72 249.99389 
L 409.72 236.315765 
Q 409.72 234.315765 407.72 234.315765 
L 349.82625 234.315765 
Q 347.82625 234.315765 347.82625 236.315765 
L 347.82625 249.99389 
Q 347.82625 251.99389 349.82625 251.99389 
z
" style="fill:#ffffff;opacity:0.8;stroke:#cccccc;stroke-linejoin:miter;"/>
    </g>
    <g id="line2d_36">
     <path d="M 351.82625 242.414202 
L 371.82625 242.414202 
" style="fill:none;stroke:#000000;stroke-linecap:square;stroke-width:1.5;"/>
    </g>
    <g id="line2d_37"/>
    <g id="text_33">
     <!-- Input -->
     <g transform="translate(379.82625 245.914202)scale(0.1 -0.1)">
      <use xlink:href="#DejaVuSans-49"/>
      <use x="29.492188" xlink:href="#DejaVuSans-6e"/>
      <use x="92.871094" xlink:href="#DejaVuSans-70"/>
      <use x="156.347656" xlink:href="#DejaVuSans-75"/>
      <use x="219.726562" xlink:href="#DejaVuSans-74"/>
     </g>
    </g>
   </g>
  </g>
 </g>
 <defs>
  <clipPath id="p5b1d8e0e9c">
   <rect height="78.268235" width="357.12" x="57.6" y="41.472"/>
  </clipPath>
  <clipPath id="p5c4206409a">
   <rect height="78.268235" width="357.12" x="57.6" y="135.393882"/>
  </clipPath>
  <clipPath id="p9879d3e195">
   <rect height="78.268235" width="357.12" x="57.6" y="229.315765"/>
  </clipPath>
 </defs>
</svg>
